ISO-10303-21;
HEADER;
FILE_DESCRIPTION (( 'STEP AP203' ),
    '1' );
FILE_NAME ('FN-BAT-001_battery-envelope_ESTIMATED_R0.1.STEP',
    '2026-07-25T18:00:19',
    ( '' ),
    ( '' ),
    'SwSTEP 2.0',
    'SolidWorks 2022',
    '' );
FILE_SCHEMA (( 'CONFIG_CONTROL_DESIGN' ));
ENDSEC;

DATA;
#1 = APPROVAL_PERSON_ORGANIZATION ( #126, #46, #14 ) ;
#2 = FACE_OUTER_BOUND ( 'NONE', #228, .T. ) ;
#3 = DATE_AND_TIME ( #37, #81 ) ;
#4 = DIRECTION ( 'NONE',  ( 1.000000000000000000, -0.000000000000000000, 0.000000000000000000 ) ) ;
#5 = PERSON_AND_ORGANIZATION ( #39, #99 ) ;
#6 = EDGE_LOOP ( 'NONE', ( #53, #146, #80, #105 ) ) ;
#7 = VERTEX_POINT ( 'NONE', #29 ) ;
#8 = MANIFOLD_SOLID_BREP ( '凸台-拉伸1', #79 ) ;
#9 = CARTESIAN_POINT ( 'NONE',  ( -35.00000000000000000, 40.00000000000000000, 27.50000000000000000 ) ) ;
#10 = PERSON_AND_ORGANIZATION ( #39, #99 ) ;
#11 = LINE ( 'NONE', #156, #111 ) ;
#12 = DATE_AND_TIME ( #95, #225 ) ;
#13 = DIRECTION ( 'NONE',  ( 1.000000000000000000, 0.000000000000000000, 0.000000000000000000 ) ) ;
#14 = APPROVAL_ROLE ( '' ) ;
#15 = DIRECTION ( 'NONE',  ( 0.000000000000000000, 0.000000000000000000, 1.000000000000000000 ) ) ;
#16 = LOCAL_TIME ( 2, 0, 19.00000000000000000, #220 ) ;
#17 = DIRECTION ( 'NONE',  ( 0.000000000000000000, -1.000000000000000000, 0.000000000000000000 ) ) ;
#18 = COORDINATED_UNIVERSAL_TIME_OFFSET ( 8, 0, .AHEAD. ) ;
#19 = PLANE ( 'NONE',  #104 ) ;
#20 = CC_DESIGN_DATE_AND_TIME_ASSIGNMENT ( #33, #21, ( #109 ) ) ;
#21 = DATE_TIME_ROLE ( 'creation_date' ) ;
#22 = CALENDAR_DATE ( 2026, 26, 7 ) ;
#23 = VECTOR ( 'NONE', #140, 1000.000000000000000 ) ;
#24 = ORIENTED_EDGE ( 'NONE', *, *, #207, .F. ) ;
#25 = APPROVAL ( #189, '未指定' ) ;
#26 = DIRECTION ( 'NONE',  ( -0.000000000000000000, -0.000000000000000000, 1.000000000000000000 ) ) ;
#27 = CARTESIAN_POINT ( 'NONE',  ( -35.00000000000000000, 0.000000000000000000, 27.50000000000000000 ) ) ;
#28 = MECHANICAL_CONTEXT ( 'NONE', #208, 'mechanical' ) ;
#29 = CARTESIAN_POINT ( 'NONE',  ( 35.00000000000000000, 40.00000000000000000, 27.50000000000000000 ) ) ;
#30 = DIRECTION ( 'NONE',  ( -0.000000000000000000, -1.000000000000000000, -0.000000000000000000 ) ) ;
#31 = DIRECTION ( 'NONE',  ( -1.000000000000000000, 0.000000000000000000, 0.000000000000000000 ) ) ;
#32 = ADVANCED_FACE ( 'NONE', ( #2 ), #97, .T. ) ;
#33 = DATE_AND_TIME ( #118, #16 ) ;
#34 = ORIENTED_EDGE ( 'NONE', *, *, #155, .T. ) ;
#35 = VECTOR ( 'NONE', #117, 1000.000000000000000 ) ;
#36 = SHAPE_DEFINITION_REPRESENTATION ( #91, #186 ) ;
#37 = CALENDAR_DATE ( 2026, 26, 7 ) ;
#38 = ORIENTED_EDGE ( 'NONE', *, *, #78, .F. ) ;
#39 = PERSON ( '未指定', '未指定', '未指定', ('未指定'), ('未指定'), ('未指定') ) ;
#40 = ORIENTED_EDGE ( 'NONE', *, *, #73, .F. ) ;
#41 = ADVANCED_FACE ( 'NONE', ( #76 ), #136, .F. ) ;
#42 = APPROVAL_PERSON_ORGANIZATION ( #112, #25, #142 ) ;
#43 = VERTEX_POINT ( 'NONE', #161 ) ;
#44 =( GEOMETRIC_REPRESENTATION_CONTEXT ( 3 ) GLOBAL_UNCERTAINTY_ASSIGNED_CONTEXT ( ( #138 ) ) GLOBAL_UNIT_ASSIGNED_CONTEXT ( ( #203, #102, #150 ) ) REPRESENTATION_CONTEXT ( 'NONE', 'WORKASPACE' ) );
#45 = CARTESIAN_POINT ( 'NONE',  ( -35.00000000000000000, 40.00000000000000000, -27.50000000000000000 ) ) ;
#46 = APPROVAL ( #204, '未指定' ) ;
#47 = PLANE ( 'NONE',  #70 ) ;
#48 = PERSON_AND_ORGANIZATION_ROLE ( 'creator' ) ;
#49 = LINE ( 'NONE', #9, #184 ) ;
#50 = CARTESIAN_POINT ( 'NONE',  ( -35.00000000000000000, 40.00000000000000000, -27.50000000000000000 ) ) ;
#51 = EDGE_CURVE ( 'NONE', #180, #166, #174, .T. ) ;
#52 = CARTESIAN_POINT ( 'NONE',  ( 35.00000000000000000, 40.00000000000000000, -27.50000000000000000 ) ) ;
#53 = ORIENTED_EDGE ( 'NONE', *, *, #51, .T. ) ;
#54 = DATE_AND_TIME ( #22, #168 ) ;
#55 = DIRECTION ( 'NONE',  ( -1.000000000000000000, 0.000000000000000000, -0.000000000000000000 ) ) ;
#56 = PERSON_AND_ORGANIZATION ( #39, #99 ) ;
#57 = ORIENTED_EDGE ( 'NONE', *, *, #229, .T. ) ;
#58 = DIRECTION ( 'NONE',  ( -0.000000000000000000, -1.000000000000000000, -0.000000000000000000 ) ) ;
#59 = CC_DESIGN_PERSON_AND_ORGANIZATION_ASSIGNMENT ( #67, #159, ( #109 ) ) ;
#60 = CARTESIAN_POINT ( 'NONE',  ( -35.00000000000000000, 40.00000000000000000, -27.50000000000000000 ) ) ;
#61 = DIRECTION ( 'NONE',  ( 0.000000000000000000, -0.000000000000000000, -1.000000000000000000 ) ) ;
#62 = DIRECTION ( 'NONE',  ( 0.000000000000000000, 0.000000000000000000, -1.000000000000000000 ) ) ;
#63 = SECURITY_CLASSIFICATION ( '', '', #222 ) ;
#64 = ORIENTED_EDGE ( 'NONE', *, *, #110, .F. ) ;
#65 = CARTESIAN_POINT ( 'NONE',  ( -35.00000000000000000, 0.000000000000000000, -27.50000000000000000 ) ) ;
#66 = CARTESIAN_POINT ( 'NONE',  ( 35.00000000000000000, 0.000000000000000000, 27.50000000000000000 ) ) ;
#67 = PERSON_AND_ORGANIZATION ( #39, #99 ) ;
#68 = EDGE_CURVE ( 'NONE', #7, #69, #171, .T. ) ;
#69 = VERTEX_POINT ( 'NONE', #93 ) ;
#70 = AXIS2_PLACEMENT_3D ( 'NONE', #84, #4, #163 ) ;
#71 = ORIENTED_EDGE ( 'NONE', *, *, #110, .T. ) ;
#72 = VERTEX_POINT ( 'NONE', #154 ) ;
#73 = EDGE_CURVE ( 'NONE', #43, #7, #49, .T. ) ;
#74 = DIRECTION ( 'NONE',  ( -0.000000000000000000, -0.000000000000000000, 1.000000000000000000 ) ) ;
#75 = CARTESIAN_POINT ( 'NONE',  ( 0.000000000000000000, 0.000000000000000000, 0.000000000000000000 ) ) ;
#76 = FACE_OUTER_BOUND ( 'NONE', #234, .T. ) ;
#77 = DIRECTION ( 'NONE',  ( 1.000000000000000000, 0.000000000000000000, -0.000000000000000000 ) ) ;
#78 = EDGE_CURVE ( 'NONE', #213, #180, #116, .T. ) ;
#79 = CLOSED_SHELL ( 'NONE', ( #175, #183, #41, #147, #212, #32 ) ) ;
#80 = ORIENTED_EDGE ( 'NONE', *, *, #235, .F. ) ;
#81 = LOCAL_TIME ( 2, 0, 19.00000000000000000, #83 ) ;
#82 = LINE ( 'NONE', #162, #124 ) ;
#83 = COORDINATED_UNIVERSAL_TIME_OFFSET ( 8, 0, .AHEAD. ) ;
#84 = CARTESIAN_POINT ( 'NONE',  ( -35.00000000000000000, 40.00000000000000000, 27.50000000000000000 ) ) ;
#85 = PERSON_AND_ORGANIZATION ( #39, #99 ) ;
#86 = CALENDAR_DATE ( 2026, 26, 7 ) ;
#87 = VECTOR ( 'NONE', #58, 1000.000000000000000 ) ;
#88 = CC_DESIGN_APPROVAL ( #46, ( #63 ) ) ;
#89 = VECTOR ( 'NONE', #232, 1000.000000000000000 ) ;
#90 = CC_DESIGN_SECURITY_CLASSIFICATION ( #63, ( #179 ) ) ;
#91 = PRODUCT_DEFINITION_SHAPE ( 'NONE', 'NONE',  #109 ) ;
#92 = AXIS2_PLACEMENT_3D ( 'NONE', #139, #153, #61 ) ;
#93 = CARTESIAN_POINT ( 'NONE',  ( 35.00000000000000000, 0.000000000000000000, 27.50000000000000000 ) ) ;
#94 = ORIENTED_EDGE ( 'NONE', *, *, #229, .F. ) ;
#95 = CALENDAR_DATE ( 2026, 26, 7 ) ;
#96 = ORIENTED_EDGE ( 'NONE', *, *, #207, .T. ) ;
#97 = PLANE ( 'NONE',  #92 ) ;
#98 = PERSON_AND_ORGANIZATION ( #39, #99 ) ;
#99 = ORGANIZATION ( '未指定', '未指定', '' ) ;
#100 = LINE ( 'NONE', #176, #87 ) ;
#101 = CARTESIAN_POINT ( 'NONE',  ( -35.00000000000000000, 40.00000000000000000, 27.50000000000000000 ) ) ;
#102 =( NAMED_UNIT ( * ) PLANE_ANGLE_UNIT ( ) SI_UNIT ( $, .RADIAN. ) );
#103 = COORDINATED_UNIVERSAL_TIME_OFFSET ( 8, 0, .AHEAD. ) ;
#104 = AXIS2_PLACEMENT_3D ( 'NONE', #101, #195, #55 ) ;
#105 = ORIENTED_EDGE ( 'NONE', *, *, #78, .T. ) ;
#106 = CC_DESIGN_PERSON_AND_ORGANIZATION_ASSIGNMENT ( #56, #115, ( #63 ) ) ;
#107 = ORIENTED_EDGE ( 'NONE', *, *, #169, .T. ) ;
#108 = PRODUCT ( 'FN-BAT-001_battery-envelope_ESTIMATED_R0.1', 'FN-BAT-001_battery-envelope_ESTIMATED_R0.1', '', ( #28 ) ) ;
#109 = PRODUCT_DEFINITION ( '未知', '', #179, #223 ) ;
#110 = EDGE_CURVE ( 'NONE', #129, #72, #197, .T. ) ;
#111 = VECTOR ( 'NONE', #121, 1000.000000000000000 ) ;
#112 = PERSON_AND_ORGANIZATION ( #39, #99 ) ;
#113 = DIRECTION ( 'NONE',  ( -0.000000000000000000, -1.000000000000000000, -0.000000000000000000 ) ) ;
#114 = EDGE_LOOP ( 'NONE', ( #57, #38, #151, #71 ) ) ;
#115 = PERSON_AND_ORGANIZATION_ROLE ( 'classification_officer' ) ;
#116 = LINE ( 'NONE', #45, #89 ) ;
#117 = DIRECTION ( 'NONE',  ( -1.000000000000000000, -0.000000000000000000, -0.000000000000000000 ) ) ;
#118 = CALENDAR_DATE ( 2026, 26, 7 ) ;
#119 = CARTESIAN_POINT ( 'NONE',  ( 35.00000000000000000, 40.00000000000000000, 27.50000000000000000 ) ) ;
#120 = LINE ( 'NONE', #66, #237 ) ;
#121 = DIRECTION ( 'NONE',  ( -1.000000000000000000, -0.000000000000000000, -0.000000000000000000 ) ) ;
#122 = FACE_OUTER_BOUND ( 'NONE', #206, .T. ) ;
#123 = DATE_AND_TIME ( #86, #202 ) ;
#124 = VECTOR ( 'NONE', #26, 1000.000000000000000 ) ;
#125 = CARTESIAN_POINT ( 'NONE',  ( -35.00000000000000000, 0.000000000000000000, -27.50000000000000000 ) ) ;
#126 = PERSON_AND_ORGANIZATION ( #39, #99 ) ;
#127 = ORIENTED_EDGE ( 'NONE', *, *, #149, .T. ) ;
#128 = AXIS2_PLACEMENT_3D ( 'NONE', #177, #17, #144 ) ;
#129 = VERTEX_POINT ( 'NONE', #52 ) ;
#130 = DIRECTION ( 'NONE',  ( 1.000000000000000000, 0.000000000000000000, 0.000000000000000000 ) ) ;
#131 = AXIS2_PLACEMENT_3D ( 'NONE', #60, #194, #77 ) ;
#132 = PERSON_AND_ORGANIZATION_ROLE ( 'design_owner' ) ;
#133 = ORIENTED_EDGE ( 'NONE', *, *, #73, .T. ) ;
#134 = CARTESIAN_POINT ( 'NONE',  ( -35.00000000000000000, 0.000000000000000000, 27.50000000000000000 ) ) ;
#135 = PRODUCT_RELATED_PRODUCT_CATEGORY ( 'detail', '', ( #108 ) ) ;
#136 = PLANE ( 'NONE',  #148 ) ;
#137 = DIRECTION ( 'NONE',  ( 0.000000000000000000, 0.000000000000000000, -1.000000000000000000 ) ) ;
#138 = UNCERTAINTY_MEASURE_WITH_UNIT (LENGTH_MEASURE( 1.000000000000000082E-05 ), #203, 'distance_accuracy_value', 'NONE');
#139 = CARTESIAN_POINT ( 'NONE',  ( 0.000000000000000000, 0.000000000000000000, 0.000000000000000000 ) ) ;
#140 = DIRECTION ( 'NONE',  ( 1.000000000000000000, 0.000000000000000000, 0.000000000000000000 ) ) ;
#141 = CC_DESIGN_PERSON_AND_ORGANIZATION_ASSIGNMENT ( #10, #132, ( #108 ) ) ;
#142 = APPROVAL_ROLE ( '' ) ;
#143 = FACE_OUTER_BOUND ( 'NONE', #205, .T. ) ;
#144 = DIRECTION ( 'NONE',  ( 0.000000000000000000, -0.000000000000000000, -1.000000000000000000 ) ) ;
#145 = COORDINATED_UNIVERSAL_TIME_OFFSET ( 8, 0, .AHEAD. ) ;
#146 = ORIENTED_EDGE ( 'NONE', *, *, #155, .F. ) ;
#147 = ADVANCED_FACE ( 'NONE', ( #230 ), #199, .F. ) ;
#148 = AXIS2_PLACEMENT_3D ( 'NONE', #216, #31, #15 ) ;
#149 = EDGE_CURVE ( 'NONE', #129, #213, #11, .T. ) ;
#150 =( NAMED_UNIT ( * ) SI_UNIT ( $, .STERADIAN. ) SOLID_ANGLE_UNIT ( ) );
#151 = ORIENTED_EDGE ( 'NONE', *, *, #149, .F. ) ;
#152 = CC_DESIGN_PERSON_AND_ORGANIZATION_ASSIGNMENT ( #5, #48, ( #179 ) ) ;
#153 = DIRECTION ( 'NONE',  ( 0.000000000000000000, -1.000000000000000000, 0.000000000000000000 ) ) ;
#154 = CARTESIAN_POINT ( 'NONE',  ( 35.00000000000000000, 0.000000000000000000, -27.50000000000000000 ) ) ;
#155 = EDGE_CURVE ( 'NONE', #43, #166, #100, .T. ) ;
#156 = CARTESIAN_POINT ( 'NONE',  ( -35.00000000000000000, 40.00000000000000000, -27.50000000000000000 ) ) ;
#157 = APPROVAL_STATUS ( 'not_yet_approved' ) ;
#158 = CARTESIAN_POINT ( 'NONE',  ( 35.00000000000000000, 40.00000000000000000, 27.50000000000000000 ) ) ;
#159 = PERSON_AND_ORGANIZATION_ROLE ( 'creator' ) ;
#160 = EDGE_CURVE ( 'NONE', #7, #129, #190, .T. ) ;
#161 = CARTESIAN_POINT ( 'NONE',  ( -35.00000000000000000, 40.00000000000000000, 27.50000000000000000 ) ) ;
#162 = CARTESIAN_POINT ( 'NONE',  ( -35.00000000000000000, 40.00000000000000000, 27.50000000000000000 ) ) ;
#163 = DIRECTION ( 'NONE',  ( 0.000000000000000000, 0.000000000000000000, -1.000000000000000000 ) ) ;
#164 = VECTOR ( 'NONE', #30, 1000.000000000000000 ) ;
#165 = APPROVAL_PERSON_ORGANIZATION ( #98, #198, #181 ) ;
#166 = VERTEX_POINT ( 'NONE', #134 ) ;
#167 = ORIENTED_EDGE ( 'NONE', *, *, #160, .T. ) ;
#168 = LOCAL_TIME ( 2, 0, 19.00000000000000000, #145 ) ;
#169 = EDGE_CURVE ( 'NONE', #166, #69, #218, .T. ) ;
#170 = ORIENTED_EDGE ( 'NONE', *, *, #160, .F. ) ;
#171 = LINE ( 'NONE', #119, #164 ) ;
#172 = CC_DESIGN_DATE_AND_TIME_ASSIGNMENT ( #12, #178, ( #63 ) ) ;
#173 = ORIENTED_EDGE ( 'NONE', *, *, #68, .T. ) ;
#174 = LINE ( 'NONE', #191, #201 ) ;
#175 = ADVANCED_FACE ( 'NONE', ( #214 ), #47, .F. ) ;
#176 = CARTESIAN_POINT ( 'NONE',  ( -35.00000000000000000, 40.00000000000000000, 27.50000000000000000 ) ) ;
#177 = CARTESIAN_POINT ( 'NONE',  ( 0.000000000000000000, 40.00000000000000000, 0.000000000000000000 ) ) ;
#178 = DATE_TIME_ROLE ( 'classification_date' ) ;
#179 = PRODUCT_DEFINITION_FORMATION_WITH_SPECIFIED_SOURCE ( '任何', '', #108, .NOT_KNOWN. ) ;
#180 = VERTEX_POINT ( 'NONE', #65 ) ;
#181 = APPROVAL_ROLE ( '' ) ;
#182 = APPLICATION_CONTEXT ( 'configuration controlled 3d designs of mechanical parts and assemblies' ) ;
#183 = ADVANCED_FACE ( 'NONE', ( #143 ), #19, .F. ) ;
#184 = VECTOR ( 'NONE', #13, 1000.000000000000000 ) ;
#185 = ORIENTED_EDGE ( 'NONE', *, *, #169, .F. ) ;
#186 = ADVANCED_BREP_SHAPE_REPRESENTATION ( 'FN-BAT-001_battery-envelope_ESTIMATED_R0.1', ( #8, #210 ), #44 ) ;
#187 = ORIENTED_EDGE ( 'NONE', *, *, #51, .F. ) ;
#188 = PLANE ( 'NONE',  #128 ) ;
#189 = APPROVAL_STATUS ( 'not_yet_approved' ) ;
#190 = LINE ( 'NONE', #158, #231 ) ;
#191 = CARTESIAN_POINT ( 'NONE',  ( -35.00000000000000000, 0.000000000000000000, 27.50000000000000000 ) ) ;
#192 = VECTOR ( 'NONE', #113, 1000.000000000000000 ) ;
#193 = CC_DESIGN_APPROVAL ( #198, ( #179 ) ) ;
#194 = DIRECTION ( 'NONE',  ( 0.000000000000000000, 0.000000000000000000, 1.000000000000000000 ) ) ;
#195 = DIRECTION ( 'NONE',  ( 0.000000000000000000, 0.000000000000000000, -1.000000000000000000 ) ) ;
#196 = APPROVAL_DATE_TIME ( #123, #25 ) ;
#197 = LINE ( 'NONE', #236, #192 ) ;
#198 = APPROVAL ( #157, '未指定' ) ;
#199 = PLANE ( 'NONE',  #131 ) ;
#200 = PERSON_AND_ORGANIZATION_ROLE ( 'design_supplier' ) ;
#201 = VECTOR ( 'NONE', #74, 1000.000000000000000 ) ;
#202 = LOCAL_TIME ( 2, 0, 19.00000000000000000, #18 ) ;
#203 =( LENGTH_UNIT ( ) NAMED_UNIT ( * ) SI_UNIT ( .MILLI., .METRE. ) );
#204 = APPROVAL_STATUS ( 'not_yet_approved' ) ;
#205 = EDGE_LOOP ( 'NONE', ( #107, #226, #40, #34 ) ) ;
#206 = EDGE_LOOP ( 'NONE', ( #219, #133, #167, #127 ) ) ;
#207 = EDGE_CURVE ( 'NONE', #69, #72, #120, .T. ) ;
#208 = APPLICATION_CONTEXT ( 'configuration controlled 3d designs of mechanical parts and assemblies' ) ;
#209 = APPLICATION_PROTOCOL_DEFINITION ( 'international standard', 'config_control_design', 1994, #208 ) ;
#210 = AXIS2_PLACEMENT_3D ( 'NONE', #75, #233, #130 ) ;
#211 = APPLICATION_PROTOCOL_DEFINITION ( 'international standard', 'config_control_design', 1994, #182 ) ;
#212 = ADVANCED_FACE ( 'NONE', ( #122 ), #188, .F. ) ;
#213 = VERTEX_POINT ( 'NONE', #50 ) ;
#214 = FACE_OUTER_BOUND ( 'NONE', #6, .T. ) ;
#215 = APPROVAL_DATE_TIME ( #3, #46 ) ;
#216 = CARTESIAN_POINT ( 'NONE',  ( 35.00000000000000000, 40.00000000000000000, 27.50000000000000000 ) ) ;
#217 = APPROVAL_DATE_TIME ( #54, #198 ) ;
#218 = LINE ( 'NONE', #27, #23 ) ;
#219 = ORIENTED_EDGE ( 'NONE', *, *, #235, .T. ) ;
#220 = COORDINATED_UNIVERSAL_TIME_OFFSET ( 8, 0, .AHEAD. ) ;
#221 = LINE ( 'NONE', #125, #35 ) ;
#222 = SECURITY_CLASSIFICATION_LEVEL ( 'unclassified' ) ;
#223 = DESIGN_CONTEXT ( 'detailed design', #182, 'design' ) ;
#224 = CC_DESIGN_PERSON_AND_ORGANIZATION_ASSIGNMENT ( #85, #200, ( #179 ) ) ;
#225 = LOCAL_TIME ( 2, 0, 19.00000000000000000, #103 ) ;
#226 = ORIENTED_EDGE ( 'NONE', *, *, #68, .F. ) ;
#227 = CC_DESIGN_APPROVAL ( #25, ( #109 ) ) ;
#228 = EDGE_LOOP ( 'NONE', ( #187, #94, #24, #185 ) ) ;
#229 = EDGE_CURVE ( 'NONE', #72, #180, #221, .T. ) ;
#230 = FACE_OUTER_BOUND ( 'NONE', #114, .T. ) ;
#231 = VECTOR ( 'NONE', #62, 1000.000000000000000 ) ;
#232 = DIRECTION ( 'NONE',  ( -0.000000000000000000, -1.000000000000000000, -0.000000000000000000 ) ) ;
#233 = DIRECTION ( 'NONE',  ( 0.000000000000000000, 0.000000000000000000, 1.000000000000000000 ) ) ;
#234 = EDGE_LOOP ( 'NONE', ( #96, #64, #170, #173 ) ) ;
#235 = EDGE_CURVE ( 'NONE', #213, #43, #82, .T. ) ;
#236 = CARTESIAN_POINT ( 'NONE',  ( 35.00000000000000000, 40.00000000000000000, -27.50000000000000000 ) ) ;
#237 = VECTOR ( 'NONE', #137, 1000.000000000000000 ) ;
ENDSEC;
END-ISO-10303-21;
