ISO-10303-21;
HEADER;
FILE_DESCRIPTION (( 'STEP AP203' ),
    '1' );
FILE_NAME ('FN-ENC-001_enclosure-outer-envelope_R0.1.STEP',
    '2026-07-25T17:59:37',
    ( '' ),
    ( '' ),
    'SwSTEP 2.0',
    'SolidWorks 2022',
    '' );
FILE_SCHEMA (( 'CONFIG_CONTROL_DESIGN' ));
ENDSEC;

DATA;
#1 = COORDINATED_UNIVERSAL_TIME_OFFSET ( 8, 0, .AHEAD. ) ;
#2 = CARTESIAN_POINT ( 'NONE',  ( 158.9499999999999886, 144.5999999999999943, -119.4500000000000028 ) ) ;
#3 = CALENDAR_DATE ( 2026, 26, 7 ) ;
#4 =( GEOMETRIC_REPRESENTATION_CONTEXT ( 3 ) GLOBAL_UNCERTAINTY_ASSIGNED_CONTEXT ( ( #111 ) ) GLOBAL_UNIT_ASSIGNED_CONTEXT ( ( #37, #55, #114 ) ) REPRESENTATION_CONTEXT ( 'NONE', 'WORKASPACE' ) );
#5 = VERTEX_POINT ( 'NONE', #172 ) ;
#6 = LINE ( 'NONE', #80, #112 ) ;
#7 = CC_DESIGN_APPROVAL ( #58, ( #231 ) ) ;
#8 = MANIFOLD_SOLID_BREP ( '凸台-拉伸1', #83 ) ;
#9 = ORIENTED_EDGE ( 'NONE', *, *, #207, .F. ) ;
#10 = CARTESIAN_POINT ( 'NONE',  ( 158.9499999999999886, 144.5999999999999943, -119.4500000000000028 ) ) ;
#11 = DIRECTION ( 'NONE',  ( 0.000000000000000000, 0.000000000000000000, -1.000000000000000000 ) ) ;
#12 = VECTOR ( 'NONE', #16, 1000.000000000000000 ) ;
#13 = EDGE_CURVE ( 'NONE', #25, #57, #6, .T. ) ;
#14 = CARTESIAN_POINT ( 'NONE',  ( 0.000000000000000000, 0.000000000000000000, 0.000000000000000000 ) ) ;
#15 = DIRECTION ( 'NONE',  ( 0.000000000000000000, 0.000000000000000000, -1.000000000000000000 ) ) ;
#16 = DIRECTION ( 'NONE',  ( -1.000000000000000000, -0.000000000000000000, -0.000000000000000000 ) ) ;
#17 = PERSON_AND_ORGANIZATION ( #101, #48 ) ;
#18 = PERSON_AND_ORGANIZATION_ROLE ( 'design_owner' ) ;
#19 = DESIGN_CONTEXT ( 'detailed design', #100, 'design' ) ;
#20 = LOCAL_TIME ( 1, 59, 37.00000000000000000, #150 ) ;
#21 = DATE_AND_TIME ( #3, #237 ) ;
#22 = DIRECTION ( 'NONE',  ( 0.000000000000000000, -0.000000000000000000, -1.000000000000000000 ) ) ;
#23 = VERTEX_POINT ( 'NONE', #228 ) ;
#24 = ORIENTED_EDGE ( 'NONE', *, *, #171, .F. ) ;
#25 = VERTEX_POINT ( 'NONE', #32 ) ;
#26 = VECTOR ( 'NONE', #168, 1000.000000000000000 ) ;
#27 = CARTESIAN_POINT ( 'NONE',  ( -158.9499999999999886, 144.5999999999999943, 119.4500000000000028 ) ) ;
#28 = CARTESIAN_POINT ( 'NONE',  ( 158.9499999999999886, 144.5999999999999943, 119.4500000000000028 ) ) ;
#29 = CARTESIAN_POINT ( 'NONE',  ( -158.9499999999999886, 0.000000000000000000, 119.4500000000000028 ) ) ;
#30 = LINE ( 'NONE', #143, #126 ) ;
#31 = CC_DESIGN_PERSON_AND_ORGANIZATION_ASSIGNMENT ( #130, #201, ( #231 ) ) ;
#32 = CARTESIAN_POINT ( 'NONE',  ( 158.9499999999999886, 144.5999999999999943, 119.4500000000000028 ) ) ;
#33 = APPROVAL_ROLE ( '' ) ;
#34 = VECTOR ( 'NONE', #106, 1000.000000000000000 ) ;
#35 = PERSON_AND_ORGANIZATION ( #101, #48 ) ;
#36 = APPLICATION_CONTEXT ( 'configuration controlled 3d designs of mechanical parts and assemblies' ) ;
#37 =( LENGTH_UNIT ( ) NAMED_UNIT ( * ) SI_UNIT ( .MILLI., .METRE. ) );
#38 = PERSON_AND_ORGANIZATION ( #101, #48 ) ;
#39 = CC_DESIGN_SECURITY_CLASSIFICATION ( #231, ( #165 ) ) ;
#40 = APPROVAL_STATUS ( 'not_yet_approved' ) ;
#41 = AXIS2_PLACEMENT_3D ( 'NONE', #181, #91, #148 ) ;
#42 = EDGE_LOOP ( 'NONE', ( #136, #187, #44, #61 ) ) ;
#43 = ORIENTED_EDGE ( 'NONE', *, *, #140, .F. ) ;
#44 = ORIENTED_EDGE ( 'NONE', *, *, #178, .F. ) ;
#45 = DIRECTION ( 'NONE',  ( 0.000000000000000000, -1.000000000000000000, 0.000000000000000000 ) ) ;
#46 = CARTESIAN_POINT ( 'NONE',  ( -158.9499999999999886, 144.5999999999999943, 119.4500000000000028 ) ) ;
#47 = DIRECTION ( 'NONE',  ( -0.000000000000000000, -0.000000000000000000, 1.000000000000000000 ) ) ;
#48 = ORGANIZATION ( '未指定', '未指定', '' ) ;
#49 = PLANE ( 'NONE',  #191 ) ;
#50 = CALENDAR_DATE ( 2026, 26, 7 ) ;
#51 = CC_DESIGN_PERSON_AND_ORGANIZATION_ASSIGNMENT ( #17, #163, ( #165 ) ) ;
#52 = DATE_AND_TIME ( #50, #20 ) ;
#53 = EDGE_CURVE ( 'NONE', #152, #25, #210, .T. ) ;
#54 = APPROVAL_ROLE ( '' ) ;
#55 =( NAMED_UNIT ( * ) PLANE_ANGLE_UNIT ( ) SI_UNIT ( $, .RADIAN. ) );
#56 = COORDINATED_UNIVERSAL_TIME_OFFSET ( 8, 0, .AHEAD. ) ;
#57 = VERTEX_POINT ( 'NONE', #10 ) ;
#58 = APPROVAL ( #40, '未指定' ) ;
#59 = EDGE_LOOP ( 'NONE', ( #24, #137, #189, #208 ) ) ;
#60 = APPROVAL_PERSON_ORGANIZATION ( #93, #160, #54 ) ;
#61 = ORIENTED_EDGE ( 'NONE', *, *, #78, .T. ) ;
#62 = ORIENTED_EDGE ( 'NONE', *, *, #53, .T. ) ;
#63 = CARTESIAN_POINT ( 'NONE',  ( 0.000000000000000000, 144.5999999999999943, 0.000000000000000000 ) ) ;
#64 = AXIS2_PLACEMENT_3D ( 'NONE', #162, #230, #211 ) ;
#65 = PRODUCT_DEFINITION_SHAPE ( 'NONE', 'NONE',  #85 ) ;
#66 = DIRECTION ( 'NONE',  ( -0.000000000000000000, -1.000000000000000000, -0.000000000000000000 ) ) ;
#67 = CARTESIAN_POINT ( 'NONE',  ( -158.9499999999999886, 144.5999999999999943, 119.4500000000000028 ) ) ;
#68 = LINE ( 'NONE', #105, #200 ) ;
#69 = FACE_OUTER_BOUND ( 'NONE', #42, .T. ) ;
#70 = CC_DESIGN_PERSON_AND_ORGANIZATION_ASSIGNMENT ( #72, #18, ( #104 ) ) ;
#71 = APPLICATION_PROTOCOL_DEFINITION ( 'international standard', 'config_control_design', 1994, #36 ) ;
#72 = PERSON_AND_ORGANIZATION ( #101, #48 ) ;
#73 = APPROVAL_STATUS ( 'not_yet_approved' ) ;
#74 = VECTOR ( 'NONE', #47, 1000.000000000000000 ) ;
#75 = ORIENTED_EDGE ( 'NONE', *, *, #94, .F. ) ;
#76 = CC_DESIGN_DATE_AND_TIME_ASSIGNMENT ( #21, #146, ( #85 ) ) ;
#77 = ORIENTED_EDGE ( 'NONE', *, *, #178, .T. ) ;
#78 = EDGE_CURVE ( 'NONE', #135, #23, #109, .T. ) ;
#79 = LOCAL_TIME ( 1, 59, 37.00000000000000000, #1 ) ;
#80 = CARTESIAN_POINT ( 'NONE',  ( 158.9499999999999886, 144.5999999999999943, 119.4500000000000028 ) ) ;
#81 = CARTESIAN_POINT ( 'NONE',  ( 158.9499999999999886, 0.000000000000000000, 119.4500000000000028 ) ) ;
#82 = CARTESIAN_POINT ( 'NONE',  ( 158.9499999999999886, 0.000000000000000000, -119.4500000000000028 ) ) ;
#83 = CLOSED_SHELL ( 'NONE', ( #188, #145, #153, #122, #203, #108 ) ) ;
#84 = AXIS2_PLACEMENT_3D ( 'NONE', #142, #15, #232 ) ;
#85 = PRODUCT_DEFINITION ( '未知', '', #165, #19 ) ;
#86 = CARTESIAN_POINT ( 'NONE',  ( -158.9499999999999886, 144.5999999999999943, -119.4500000000000028 ) ) ;
#87 = DIRECTION ( 'NONE',  ( -0.000000000000000000, -0.000000000000000000, 1.000000000000000000 ) ) ;
#88 = EDGE_CURVE ( 'NONE', #118, #23, #234, .T. ) ;
#89 = PRODUCT_RELATED_PRODUCT_CATEGORY ( 'detail', '', ( #104 ) ) ;
#90 = CARTESIAN_POINT ( 'NONE',  ( -158.9499999999999886, 144.5999999999999943, -119.4500000000000028 ) ) ;
#91 = DIRECTION ( 'NONE',  ( 0.000000000000000000, 0.000000000000000000, 1.000000000000000000 ) ) ;
#92 = PERSON_AND_ORGANIZATION ( #101, #48 ) ;
#93 = PERSON_AND_ORGANIZATION ( #101, #48 ) ;
#94 = EDGE_CURVE ( 'NONE', #25, #5, #214, .T. ) ;
#95 = VECTOR ( 'NONE', #235, 1000.000000000000000 ) ;
#96 = COORDINATED_UNIVERSAL_TIME_OFFSET ( 8, 0, .AHEAD. ) ;
#97 = CC_DESIGN_PERSON_AND_ORGANIZATION_ASSIGNMENT ( #35, #216, ( #85 ) ) ;
#98 = AXIS2_PLACEMENT_3D ( 'NONE', #90, #110, #123 ) ;
#99 = ORIENTED_EDGE ( 'NONE', *, *, #53, .F. ) ;
#100 = APPLICATION_CONTEXT ( 'configuration controlled 3d designs of mechanical parts and assemblies' ) ;
#101 = PERSON ( '未指定', '未指定', '未指定', ('未指定'), ('未指定'), ('未指定') ) ;
#102 = EDGE_LOOP ( 'NONE', ( #117, #75, #99, #205 ) ) ;
#103 = PLANE ( 'NONE',  #217 ) ;
#104 = PRODUCT ( 'FN-ENC-001_enclosure-outer-envelope_R0.1', 'FN-ENC-001_enclosure-outer-envelope_R0.1', '', ( #164 ) ) ;
#105 = CARTESIAN_POINT ( 'NONE',  ( -158.9499999999999886, 144.5999999999999943, 119.4500000000000028 ) ) ;
#106 = DIRECTION ( 'NONE',  ( 1.000000000000000000, 0.000000000000000000, 0.000000000000000000 ) ) ;
#107 = CC_DESIGN_APPROVAL ( #222, ( #85 ) ) ;
#108 = ADVANCED_FACE ( 'NONE', ( #197 ), #49, .T. ) ;
#109 = LINE ( 'NONE', #124, #186 ) ;
#110 = DIRECTION ( 'NONE',  ( 0.000000000000000000, 0.000000000000000000, 1.000000000000000000 ) ) ;
#111 = UNCERTAINTY_MEASURE_WITH_UNIT (LENGTH_MEASURE( 1.000000000000000082E-05 ), #37, 'distance_accuracy_value', 'NONE');
#112 = VECTOR ( 'NONE', #155, 1000.000000000000000 ) ;
#113 = PERSON_AND_ORGANIZATION_ROLE ( 'creator' ) ;
#114 =( NAMED_UNIT ( * ) SI_UNIT ( $, .STERADIAN. ) SOLID_ANGLE_UNIT ( ) );
#115 = LOCAL_TIME ( 1, 59, 37.00000000000000000, #56 ) ;
#116 = CALENDAR_DATE ( 2026, 26, 7 ) ;
#117 = ORIENTED_EDGE ( 'NONE', *, *, #182, .T. ) ;
#118 = VERTEX_POINT ( 'NONE', #82 ) ;
#119 = EDGE_LOOP ( 'NONE', ( #169, #224, #43, #156 ) ) ;
#120 = CC_DESIGN_PERSON_AND_ORGANIZATION_ASSIGNMENT ( #199, #113, ( #165 ) ) ;
#121 = PLANE ( 'NONE',  #84 ) ;
#122 = ADVANCED_FACE ( 'NONE', ( #179 ), #158, .F. ) ;
#123 = DIRECTION ( 'NONE',  ( 1.000000000000000000, 0.000000000000000000, -0.000000000000000000 ) ) ;
#124 = CARTESIAN_POINT ( 'NONE',  ( -158.9499999999999886, 144.5999999999999943, -119.4500000000000028 ) ) ;
#125 = DIRECTION ( 'NONE',  ( -0.000000000000000000, -1.000000000000000000, -0.000000000000000000 ) ) ;
#126 = VECTOR ( 'NONE', #87, 1000.000000000000000 ) ;
#127 = DIRECTION ( 'NONE',  ( 0.000000000000000000, -0.000000000000000000, -1.000000000000000000 ) ) ;
#128 = DIRECTION ( 'NONE',  ( 0.000000000000000000, -1.000000000000000000, 0.000000000000000000 ) ) ;
#129 = APPROVAL_DATE_TIME ( #52, #160 ) ;
#130 = PERSON_AND_ORGANIZATION ( #101, #48 ) ;
#131 = DATE_AND_TIME ( #219, #79 ) ;
#132 = EDGE_CURVE ( 'NONE', #152, #185, #68, .T. ) ;
#133 = APPROVAL_ROLE ( '' ) ;
#134 = ORIENTED_EDGE ( 'NONE', *, *, #140, .T. ) ;
#135 = VERTEX_POINT ( 'NONE', #161 ) ;
#136 = ORIENTED_EDGE ( 'NONE', *, *, #171, .T. ) ;
#137 = ORIENTED_EDGE ( 'NONE', *, *, #88, .F. ) ;
#138 = CARTESIAN_POINT ( 'NONE',  ( -158.9499999999999886, 0.000000000000000000, -119.4500000000000028 ) ) ;
#139 = FACE_OUTER_BOUND ( 'NONE', #102, .T. ) ;
#140 = EDGE_CURVE ( 'NONE', #57, #135, #180, .T. ) ;
#141 = FACE_OUTER_BOUND ( 'NONE', #151, .T. ) ;
#142 = CARTESIAN_POINT ( 'NONE',  ( -158.9499999999999886, 144.5999999999999943, 119.4500000000000028 ) ) ;
#143 = CARTESIAN_POINT ( 'NONE',  ( -158.9499999999999886, 0.000000000000000000, 119.4500000000000028 ) ) ;
#144 = DATE_AND_TIME ( #184, #147 ) ;
#145 = ADVANCED_FACE ( 'NONE', ( #139 ), #121, .F. ) ;
#146 = DATE_TIME_ROLE ( 'creation_date' ) ;
#147 = LOCAL_TIME ( 1, 59, 37.00000000000000000, #96 ) ;
#148 = DIRECTION ( 'NONE',  ( 1.000000000000000000, 0.000000000000000000, 0.000000000000000000 ) ) ;
#149 = COORDINATED_UNIVERSAL_TIME_OFFSET ( 8, 0, .AHEAD. ) ;
#150 = COORDINATED_UNIVERSAL_TIME_OFFSET ( 8, 0, .AHEAD. ) ;
#151 = EDGE_LOOP ( 'NONE', ( #77, #62, #229, #134 ) ) ;
#152 = VERTEX_POINT ( 'NONE', #46 ) ;
#153 = ADVANCED_FACE ( 'NONE', ( #159 ), #195, .F. ) ;
#154 = CC_DESIGN_APPROVAL ( #160, ( #165 ) ) ;
#155 = DIRECTION ( 'NONE',  ( 0.000000000000000000, 0.000000000000000000, -1.000000000000000000 ) ) ;
#156 = ORIENTED_EDGE ( 'NONE', *, *, #207, .T. ) ;
#157 = PLANE ( 'NONE',  #176 ) ;
#158 = PLANE ( 'NONE',  #98 ) ;
#159 = FACE_OUTER_BOUND ( 'NONE', #225, .T. ) ;
#160 = APPROVAL ( #218, '未指定' ) ;
#161 = CARTESIAN_POINT ( 'NONE',  ( -158.9499999999999886, 144.5999999999999943, -119.4500000000000028 ) ) ;
#162 = CARTESIAN_POINT ( 'NONE',  ( 158.9499999999999886, 144.5999999999999943, 119.4500000000000028 ) ) ;
#163 = PERSON_AND_ORGANIZATION_ROLE ( 'design_supplier' ) ;
#164 = MECHANICAL_CONTEXT ( 'NONE', #36, 'mechanical' ) ;
#165 = PRODUCT_DEFINITION_FORMATION_WITH_SPECIFIED_SOURCE ( '任何', '', #104, .NOT_KNOWN. ) ;
#166 = EDGE_CURVE ( 'NONE', #5, #118, #233, .T. ) ;
#167 = APPROVAL_DATE_TIME ( #144, #222 ) ;
#168 = DIRECTION ( 'NONE',  ( -0.000000000000000000, -1.000000000000000000, -0.000000000000000000 ) ) ;
#169 = ORIENTED_EDGE ( 'NONE', *, *, #88, .T. ) ;
#170 = VECTOR ( 'NONE', #66, 1000.000000000000000 ) ;
#171 = EDGE_CURVE ( 'NONE', #23, #185, #30, .T. ) ;
#172 = CARTESIAN_POINT ( 'NONE',  ( 158.9499999999999886, 0.000000000000000000, 119.4500000000000028 ) ) ;
#173 = ORIENTED_EDGE ( 'NONE', *, *, #13, .F. ) ;
#174 = DIRECTION ( 'NONE',  ( 0.000000000000000000, 0.000000000000000000, -1.000000000000000000 ) ) ;
#175 = CARTESIAN_POINT ( 'NONE',  ( -158.9499999999999886, 0.000000000000000000, 119.4500000000000028 ) ) ;
#176 = AXIS2_PLACEMENT_3D ( 'NONE', #63, #128, #22 ) ;
#177 = DIRECTION ( 'NONE',  ( -0.000000000000000000, -1.000000000000000000, -0.000000000000000000 ) ) ;
#178 = EDGE_CURVE ( 'NONE', #135, #152, #193, .T. ) ;
#179 = FACE_OUTER_BOUND ( 'NONE', #119, .T. ) ;
#180 = LINE ( 'NONE', #86, #12 ) ;
#181 = CARTESIAN_POINT ( 'NONE',  ( 0.000000000000000000, 0.000000000000000000, 0.000000000000000000 ) ) ;
#182 = EDGE_CURVE ( 'NONE', #185, #5, #212, .T. ) ;
#183 = LINE ( 'NONE', #2, #26 ) ;
#184 = CALENDAR_DATE ( 2026, 26, 7 ) ;
#185 = VERTEX_POINT ( 'NONE', #29 ) ;
#186 = VECTOR ( 'NONE', #177, 1000.000000000000000 ) ;
#187 = ORIENTED_EDGE ( 'NONE', *, *, #132, .F. ) ;
#188 = ADVANCED_FACE ( 'NONE', ( #69 ), #103, .F. ) ;
#189 = ORIENTED_EDGE ( 'NONE', *, *, #166, .F. ) ;
#190 = ORIENTED_EDGE ( 'NONE', *, *, #166, .T. ) ;
#191 = AXIS2_PLACEMENT_3D ( 'NONE', #14, #45, #127 ) ;
#192 = ADVANCED_BREP_SHAPE_REPRESENTATION ( 'FN-ENC-001_enclosure-outer-envelope_R0.1', ( #8, #41 ), #4 ) ;
#193 = LINE ( 'NONE', #27, #74 ) ;
#194 = DIRECTION ( 'NONE',  ( -1.000000000000000000, -0.000000000000000000, -0.000000000000000000 ) ) ;
#195 = PLANE ( 'NONE',  #64 ) ;
#196 = VECTOR ( 'NONE', #11, 1000.000000000000000 ) ;
#197 = FACE_OUTER_BOUND ( 'NONE', #59, .T. ) ;
#198 = CARTESIAN_POINT ( 'NONE',  ( -158.9499999999999886, 144.5999999999999943, 119.4500000000000028 ) ) ;
#199 = PERSON_AND_ORGANIZATION ( #101, #48 ) ;
#200 = VECTOR ( 'NONE', #125, 1000.000000000000000 ) ;
#201 = PERSON_AND_ORGANIZATION_ROLE ( 'classification_officer' ) ;
#202 = DATE_TIME_ROLE ( 'classification_date' ) ;
#203 = ADVANCED_FACE ( 'NONE', ( #141 ), #157, .F. ) ;
#204 = APPROVAL_DATE_TIME ( #221, #58 ) ;
#205 = ORIENTED_EDGE ( 'NONE', *, *, #132, .T. ) ;
#206 = VECTOR ( 'NONE', #194, 1000.000000000000000 ) ;
#207 = EDGE_CURVE ( 'NONE', #57, #118, #183, .T. ) ;
#208 = ORIENTED_EDGE ( 'NONE', *, *, #182, .F. ) ;
#209 = ORIENTED_EDGE ( 'NONE', *, *, #94, .T. ) ;
#210 = LINE ( 'NONE', #198, #34 ) ;
#211 = DIRECTION ( 'NONE',  ( 0.000000000000000000, 0.000000000000000000, 1.000000000000000000 ) ) ;
#212 = LINE ( 'NONE', #175, #95 ) ;
#213 = APPROVAL_PERSON_ORGANIZATION ( #38, #58, #133 ) ;
#214 = LINE ( 'NONE', #28, #170 ) ;
#215 = DIRECTION ( 'NONE',  ( 1.000000000000000000, -0.000000000000000000, 0.000000000000000000 ) ) ;
#216 = PERSON_AND_ORGANIZATION_ROLE ( 'creator' ) ;
#217 = AXIS2_PLACEMENT_3D ( 'NONE', #67, #215, #174 ) ;
#218 = APPROVAL_STATUS ( 'not_yet_approved' ) ;
#219 = CALENDAR_DATE ( 2026, 26, 7 ) ;
#220 = APPLICATION_PROTOCOL_DEFINITION ( 'international standard', 'config_control_design', 1994, #100 ) ;
#221 = DATE_AND_TIME ( #116, #115 ) ;
#222 = APPROVAL ( #73, '未指定' ) ;
#223 = SHAPE_DEFINITION_REPRESENTATION ( #65, #192 ) ;
#224 = ORIENTED_EDGE ( 'NONE', *, *, #78, .F. ) ;
#225 = EDGE_LOOP ( 'NONE', ( #190, #9, #173, #209 ) ) ;
#226 = APPROVAL_PERSON_ORGANIZATION ( #92, #222, #33 ) ;
#227 = CC_DESIGN_DATE_AND_TIME_ASSIGNMENT ( #131, #202, ( #231 ) ) ;
#228 = CARTESIAN_POINT ( 'NONE',  ( -158.9499999999999886, 0.000000000000000000, -119.4500000000000028 ) ) ;
#229 = ORIENTED_EDGE ( 'NONE', *, *, #13, .T. ) ;
#230 = DIRECTION ( 'NONE',  ( -1.000000000000000000, 0.000000000000000000, 0.000000000000000000 ) ) ;
#231 = SECURITY_CLASSIFICATION ( '', '', #236 ) ;
#232 = DIRECTION ( 'NONE',  ( -1.000000000000000000, 0.000000000000000000, -0.000000000000000000 ) ) ;
#233 = LINE ( 'NONE', #81, #196 ) ;
#234 = LINE ( 'NONE', #138, #206 ) ;
#235 = DIRECTION ( 'NONE',  ( 1.000000000000000000, 0.000000000000000000, 0.000000000000000000 ) ) ;
#236 = SECURITY_CLASSIFICATION_LEVEL ( 'unclassified' ) ;
#237 = LOCAL_TIME ( 1, 59, 37.00000000000000000, #149 ) ;
ENDSEC;
END-ISO-10303-21;
