ISO-10303-21;
HEADER;
FILE_DESCRIPTION (( 'STEP AP203' ),
    '1' );
FILE_NAME ('FN-PLT-001_fr4-max-envelope_R0.1.STEP',
    '2026-07-25T17:59:44',
    ( '' ),
    ( '' ),
    'SwSTEP 2.0',
    'SolidWorks 2022',
    '' );
FILE_SCHEMA (( 'CONFIG_CONTROL_DESIGN' ));
ENDSEC;

DATA;
#1 = ORIENTED_EDGE ( 'NONE', *, *, #99, .F. ) ;
#2 = ORIENTED_EDGE ( 'NONE', *, *, #39, .F. ) ;
#3 = CARTESIAN_POINT ( 'NONE',  ( -132.5000000000000000, 0.000000000000000000, 92.50000000000000000 ) ) ;
#4 = LINE ( 'NONE', #222, #226 ) ;
#5 = ORIENTED_EDGE ( 'NONE', *, *, #103, .T. ) ;
#6 = AXIS2_PLACEMENT_3D ( 'NONE', #174, #192, #145 ) ;
#7 = ORIENTED_EDGE ( 'NONE', *, *, #182, .T. ) ;
#8 = LINE ( 'NONE', #105, #229 ) ;
#9 = APPROVAL_ROLE ( '' ) ;
#10 = FACE_OUTER_BOUND ( 'NONE', #206, .T. ) ;
#11 = PERSON_AND_ORGANIZATION_ROLE ( 'design_supplier' ) ;
#12 = PLANE ( 'NONE',  #84 ) ;
#13 = DATE_AND_TIME ( #214, #17 ) ;
#14 = ORIENTED_EDGE ( 'NONE', *, *, #139, .T. ) ;
#15 = DIRECTION ( 'NONE',  ( 1.000000000000000000, 0.000000000000000000, 0.000000000000000000 ) ) ;
#16 = APPROVAL_STATUS ( 'not_yet_approved' ) ;
#17 = LOCAL_TIME ( 1, 59, 44.00000000000000000, #106 ) ;
#18 = ADVANCED_FACE ( 'NONE', ( #167 ), #57, .F. ) ;
#19 = ORIENTED_EDGE ( 'NONE', *, *, #168, .F. ) ;
#20 = ORIENTED_EDGE ( 'NONE', *, *, #168, .T. ) ;
#21 = LINE ( 'NONE', #232, #58 ) ;
#22 = PERSON_AND_ORGANIZATION ( #225, #175 ) ;
#23 = LINE ( 'NONE', #24, #237 ) ;
#24 = CARTESIAN_POINT ( 'NONE',  ( -132.5000000000000000, 3.000000000000000000, 92.50000000000000000 ) ) ;
#25 = PERSON_AND_ORGANIZATION ( #225, #175 ) ;
#26 = APPROVAL_DATE_TIME ( #198, #159 ) ;
#27 = EDGE_CURVE ( 'NONE', #202, #28, #137, .T. ) ;
#28 = VERTEX_POINT ( 'NONE', #3 ) ;
#29 = DIRECTION ( 'NONE',  ( 1.000000000000000000, -0.000000000000000000, 0.000000000000000000 ) ) ;
#30 = COORDINATED_UNIVERSAL_TIME_OFFSET ( 8, 0, .AHEAD. ) ;
#31 = DIRECTION ( 'NONE',  ( 0.000000000000000000, 0.000000000000000000, 1.000000000000000000 ) ) ;
#32 = PRODUCT ( 'FN-PLT-001_fr4-max-envelope_R0.1', 'FN-PLT-001_fr4-max-envelope_R0.1', '', ( #143 ) ) ;
#33 = SECURITY_CLASSIFICATION ( '', '', #73 ) ;
#34 = ORIENTED_EDGE ( 'NONE', *, *, #75, .F. ) ;
#35 = ADVANCED_FACE ( 'NONE', ( #61 ), #207, .T. ) ;
#36 = VERTEX_POINT ( 'NONE', #59 ) ;
#37 = EDGE_LOOP ( 'NONE', ( #129, #1, #109, #130 ) ) ;
#38 = LINE ( 'NONE', #78, #208 ) ;
#39 = EDGE_CURVE ( 'NONE', #86, #128, #4, .T. ) ;
#40 =( GEOMETRIC_REPRESENTATION_CONTEXT ( 3 ) GLOBAL_UNCERTAINTY_ASSIGNED_CONTEXT ( ( #95 ) ) GLOBAL_UNIT_ASSIGNED_CONTEXT ( ( #50, #124, #122 ) ) REPRESENTATION_CONTEXT ( 'NONE', 'WORKASPACE' ) );
#41 = DIRECTION ( 'NONE',  ( 1.000000000000000000, 0.000000000000000000, -0.000000000000000000 ) ) ;
#42 = ADVANCED_BREP_SHAPE_REPRESENTATION ( 'FN-PLT-001_fr4-max-envelope_R0.1', ( #97, #205 ), #40 ) ;
#43 = APPLICATION_PROTOCOL_DEFINITION ( 'international standard', 'config_control_design', 1994, #133 ) ;
#44 = CARTESIAN_POINT ( 'NONE',  ( -132.5000000000000000, 3.000000000000000000, -92.50000000000000000 ) ) ;
#45 = COORDINATED_UNIVERSAL_TIME_OFFSET ( 8, 0, .AHEAD. ) ;
#46 = CARTESIAN_POINT ( 'NONE',  ( 132.5000000000000000, 0.000000000000000000, -92.50000000000000000 ) ) ;
#47 = DIRECTION ( 'NONE',  ( -0.000000000000000000, -0.000000000000000000, 1.000000000000000000 ) ) ;
#48 = CALENDAR_DATE ( 2026, 26, 7 ) ;
#49 = VECTOR ( 'NONE', #100, 1000.000000000000000 ) ;
#50 =( LENGTH_UNIT ( ) NAMED_UNIT ( * ) SI_UNIT ( .MILLI., .METRE. ) );
#51 = PERSON_AND_ORGANIZATION ( #225, #175 ) ;
#52 = CC_DESIGN_DATE_AND_TIME_ASSIGNMENT ( #82, #193, ( #188 ) ) ;
#53 = EDGE_CURVE ( 'NONE', #128, #80, #38, .T. ) ;
#54 = CC_DESIGN_APPROVAL ( #159, ( #33 ) ) ;
#55 = ORIENTED_EDGE ( 'NONE', *, *, #27, .T. ) ;
#56 = VERTEX_POINT ( 'NONE', #114 ) ;
#57 = PLANE ( 'NONE',  #142 ) ;
#58 = VECTOR ( 'NONE', #233, 1000.000000000000000 ) ;
#59 = CARTESIAN_POINT ( 'NONE',  ( 132.5000000000000000, 3.000000000000000000, 92.50000000000000000 ) ) ;
#60 = ORIENTED_EDGE ( 'NONE', *, *, #140, .F. ) ;
#61 = FACE_OUTER_BOUND ( 'NONE', #183, .T. ) ;
#62 = CC_DESIGN_SECURITY_CLASSIFICATION ( #33, ( #162 ) ) ;
#63 = DIRECTION ( 'NONE',  ( -1.000000000000000000, -0.000000000000000000, -0.000000000000000000 ) ) ;
#64 = LINE ( 'NONE', #69, #216 ) ;
#65 = APPROVAL ( #148, '未指定' ) ;
#66 = DIRECTION ( 'NONE',  ( -0.000000000000000000, -1.000000000000000000, -0.000000000000000000 ) ) ;
#67 = LOCAL_TIME ( 1, 59, 44.00000000000000000, #158 ) ;
#68 = CARTESIAN_POINT ( 'NONE',  ( 132.5000000000000000, 3.000000000000000000, 92.50000000000000000 ) ) ;
#69 = CARTESIAN_POINT ( 'NONE',  ( -132.5000000000000000, 3.000000000000000000, 92.50000000000000000 ) ) ;
#70 = PERSON_AND_ORGANIZATION_ROLE ( 'creator' ) ;
#71 = ORIENTED_EDGE ( 'NONE', *, *, #181, .T. ) ;
#72 = PLANE ( 'NONE',  #110 ) ;
#73 = SECURITY_CLASSIFICATION_LEVEL ( 'unclassified' ) ;
#74 = CC_DESIGN_APPROVAL ( #65, ( #162 ) ) ;
#75 = EDGE_CURVE ( 'NONE', #112, #128, #153, .T. ) ;
#76 = EDGE_LOOP ( 'NONE', ( #151, #34, #165, #113 ) ) ;
#77 = DIRECTION ( 'NONE',  ( 0.000000000000000000, -0.000000000000000000, -1.000000000000000000 ) ) ;
#78 = CARTESIAN_POINT ( 'NONE',  ( -132.5000000000000000, 0.000000000000000000, -92.50000000000000000 ) ) ;
#79 = DIRECTION ( 'NONE',  ( -0.000000000000000000, -1.000000000000000000, -0.000000000000000000 ) ) ;
#80 = VERTEX_POINT ( 'NONE', #156 ) ;
#81 = CARTESIAN_POINT ( 'NONE',  ( 132.5000000000000000, 3.000000000000000000, -92.50000000000000000 ) ) ;
#82 = DATE_AND_TIME ( #85, #67 ) ;
#83 = APPROVAL_DATE_TIME ( #13, #96 ) ;
#84 = AXIS2_PLACEMENT_3D ( 'NONE', #101, #29, #228 ) ;
#85 = CALENDAR_DATE ( 2026, 26, 7 ) ;
#86 = VERTEX_POINT ( 'NONE', #179 ) ;
#87 = ADVANCED_FACE ( 'NONE', ( #144 ), #12, .F. ) ;
#88 = CARTESIAN_POINT ( 'NONE',  ( -132.5000000000000000, 3.000000000000000000, -92.50000000000000000 ) ) ;
#89 = APPLICATION_PROTOCOL_DEFINITION ( 'international standard', 'config_control_design', 1994, #223 ) ;
#90 = AXIS2_PLACEMENT_3D ( 'NONE', #147, #210, #41 ) ;
#91 = DIRECTION ( 'NONE',  ( 1.000000000000000000, 0.000000000000000000, 0.000000000000000000 ) ) ;
#92 = PRODUCT_RELATED_PRODUCT_CATEGORY ( 'detail', '', ( #32 ) ) ;
#93 = LOCAL_TIME ( 1, 59, 44.00000000000000000, #160 ) ;
#94 = ORIENTED_EDGE ( 'NONE', *, *, #103, .F. ) ;
#95 = UNCERTAINTY_MEASURE_WITH_UNIT (LENGTH_MEASURE( 1.000000000000000082E-05 ), #50, 'distance_accuracy_value', 'NONE');
#96 = APPROVAL ( #176, '未指定' ) ;
#97 = MANIFOLD_SOLID_BREP ( '凸台-拉伸1', #149 ) ;
#98 = ORIENTED_EDGE ( 'NONE', *, *, #53, .F. ) ;
#99 = EDGE_CURVE ( 'NONE', #56, #80, #211, .T. ) ;
#100 = DIRECTION ( 'NONE',  ( -0.000000000000000000, -1.000000000000000000, -0.000000000000000000 ) ) ;
#101 = CARTESIAN_POINT ( 'NONE',  ( -132.5000000000000000, 3.000000000000000000, 92.50000000000000000 ) ) ;
#102 = DATE_AND_TIME ( #48, #185 ) ;
#103 = EDGE_CURVE ( 'NONE', #28, #86, #21, .T. ) ;
#104 = FACE_OUTER_BOUND ( 'NONE', #37, .T. ) ;
#105 = CARTESIAN_POINT ( 'NONE',  ( 132.5000000000000000, 3.000000000000000000, 92.50000000000000000 ) ) ;
#106 = COORDINATED_UNIVERSAL_TIME_OFFSET ( 8, 0, .AHEAD. ) ;
#107 = SHAPE_DEFINITION_REPRESENTATION ( #200, #42 ) ;
#108 = LINE ( 'NONE', #88, #127 ) ;
#109 = ORIENTED_EDGE ( 'NONE', *, *, #201, .F. ) ;
#110 = AXIS2_PLACEMENT_3D ( 'NONE', #68, #194, #141 ) ;
#111 = LOCAL_TIME ( 1, 59, 44.00000000000000000, #45 ) ;
#112 = VERTEX_POINT ( 'NONE', #81 ) ;
#113 = ORIENTED_EDGE ( 'NONE', *, *, #140, .T. ) ;
#114 = CARTESIAN_POINT ( 'NONE',  ( -132.5000000000000000, 3.000000000000000000, -92.50000000000000000 ) ) ;
#115 = PLANE ( 'NONE',  #6 ) ;
#116 = VECTOR ( 'NONE', #79, 1000.000000000000000 ) ;
#117 = PERSON_AND_ORGANIZATION_ROLE ( 'creator' ) ;
#118 = CARTESIAN_POINT ( 'NONE',  ( 132.5000000000000000, 3.000000000000000000, 92.50000000000000000 ) ) ;
#119 = CALENDAR_DATE ( 2026, 26, 7 ) ;
#120 = DIRECTION ( 'NONE',  ( -0.000000000000000000, -0.000000000000000000, 1.000000000000000000 ) ) ;
#121 = PERSON_AND_ORGANIZATION_ROLE ( 'design_owner' ) ;
#122 =( NAMED_UNIT ( * ) SI_UNIT ( $, .STERADIAN. ) SOLID_ANGLE_UNIT ( ) );
#123 = PERSON_AND_ORGANIZATION ( #225, #175 ) ;
#124 =( NAMED_UNIT ( * ) PLANE_ANGLE_UNIT ( ) SI_UNIT ( $, .RADIAN. ) );
#125 = APPROVAL_ROLE ( '' ) ;
#126 = CC_DESIGN_PERSON_AND_ORGANIZATION_ASSIGNMENT ( #25, #121, ( #32 ) ) ;
#127 = VECTOR ( 'NONE', #154, 1000.000000000000000 ) ;
#128 = VERTEX_POINT ( 'NONE', #46 ) ;
#129 = ORIENTED_EDGE ( 'NONE', *, *, #53, .T. ) ;
#130 = ORIENTED_EDGE ( 'NONE', *, *, #75, .T. ) ;
#131 = ORIENTED_EDGE ( 'NONE', *, *, #27, .F. ) ;
#132 = CC_DESIGN_PERSON_AND_ORGANIZATION_ASSIGNMENT ( #173, #70, ( #162 ) ) ;
#133 = APPLICATION_CONTEXT ( 'configuration controlled 3d designs of mechanical parts and assemblies' ) ;
#134 = ORIENTED_EDGE ( 'NONE', *, *, #181, .F. ) ;
#135 = ORIENTED_EDGE ( 'NONE', *, *, #201, .T. ) ;
#136 = DIRECTION ( 'NONE',  ( 0.000000000000000000, -1.000000000000000000, 0.000000000000000000 ) ) ;
#137 = LINE ( 'NONE', #221, #116 ) ;
#138 = DIRECTION ( 'NONE',  ( 0.000000000000000000, 0.000000000000000000, -1.000000000000000000 ) ) ;
#139 = EDGE_CURVE ( 'NONE', #80, #28, #195, .T. ) ;
#140 = EDGE_CURVE ( 'NONE', #36, #86, #213, .T. ) ;
#141 = DIRECTION ( 'NONE',  ( 0.000000000000000000, 0.000000000000000000, 1.000000000000000000 ) ) ;
#142 = AXIS2_PLACEMENT_3D ( 'NONE', #219, #136, #224 ) ;
#143 = MECHANICAL_CONTEXT ( 'NONE', #223, 'mechanical' ) ;
#144 = FACE_OUTER_BOUND ( 'NONE', #189, .T. ) ;
#145 = DIRECTION ( 'NONE',  ( -1.000000000000000000, 0.000000000000000000, -0.000000000000000000 ) ) ;
#146 = CALENDAR_DATE ( 2026, 26, 7 ) ;
#147 = CARTESIAN_POINT ( 'NONE',  ( -132.5000000000000000, 3.000000000000000000, -92.50000000000000000 ) ) ;
#148 = APPROVAL_STATUS ( 'not_yet_approved' ) ;
#149 = CLOSED_SHELL ( 'NONE', ( #87, #220, #180, #217, #18, #35 ) ) ;
#150 = ORIENTED_EDGE ( 'NONE', *, *, #99, .T. ) ;
#151 = ORIENTED_EDGE ( 'NONE', *, *, #39, .T. ) ;
#152 = CC_DESIGN_DATE_AND_TIME_ASSIGNMENT ( #102, #171, ( #33 ) ) ;
#153 = LINE ( 'NONE', #190, #49 ) ;
#154 = DIRECTION ( 'NONE',  ( -1.000000000000000000, -0.000000000000000000, -0.000000000000000000 ) ) ;
#155 = CARTESIAN_POINT ( 'NONE',  ( -132.5000000000000000, 3.000000000000000000, 92.50000000000000000 ) ) ;
#156 = CARTESIAN_POINT ( 'NONE',  ( -132.5000000000000000, 0.000000000000000000, -92.50000000000000000 ) ) ;
#157 = PERSON_AND_ORGANIZATION ( #225, #175 ) ;
#158 = COORDINATED_UNIVERSAL_TIME_OFFSET ( 8, 0, .AHEAD. ) ;
#159 = APPROVAL ( #16, '未指定' ) ;
#160 = COORDINATED_UNIVERSAL_TIME_OFFSET ( 8, 0, .AHEAD. ) ;
#161 = APPROVAL_PERSON_ORGANIZATION ( #123, #96, #125 ) ;
#162 = PRODUCT_DEFINITION_FORMATION_WITH_SPECIFIED_SOURCE ( '任何', '', #32, .NOT_KNOWN. ) ;
#163 = EDGE_LOOP ( 'NONE', ( #20, #71, #7, #135 ) ) ;
#164 = CC_DESIGN_PERSON_AND_ORGANIZATION_ASSIGNMENT ( #22, #11, ( #162 ) ) ;
#165 = ORIENTED_EDGE ( 'NONE', *, *, #182, .F. ) ;
#166 = DIRECTION ( 'NONE',  ( 0.000000000000000000, -1.000000000000000000, 0.000000000000000000 ) ) ;
#167 = FACE_OUTER_BOUND ( 'NONE', #163, .T. ) ;
#168 = EDGE_CURVE ( 'NONE', #56, #202, #64, .T. ) ;
#169 = CARTESIAN_POINT ( 'NONE',  ( 0.000000000000000000, 0.000000000000000000, 0.000000000000000000 ) ) ;
#170 = CARTESIAN_POINT ( 'NONE',  ( -132.5000000000000000, 0.000000000000000000, 92.50000000000000000 ) ) ;
#171 = DATE_TIME_ROLE ( 'classification_date' ) ;
#172 = PLANE ( 'NONE',  #90 ) ;
#173 = PERSON_AND_ORGANIZATION ( #225, #175 ) ;
#174 = CARTESIAN_POINT ( 'NONE',  ( -132.5000000000000000, 3.000000000000000000, 92.50000000000000000 ) ) ;
#175 = ORGANIZATION ( '未指定', '未指定', '' ) ;
#176 = APPROVAL_STATUS ( 'not_yet_approved' ) ;
#177 = FACE_OUTER_BOUND ( 'NONE', #76, .T. ) ;
#178 = PERSON_AND_ORGANIZATION ( #225, #175 ) ;
#179 = CARTESIAN_POINT ( 'NONE',  ( 132.5000000000000000, 0.000000000000000000, 92.50000000000000000 ) ) ;
#180 = ADVANCED_FACE ( 'NONE', ( #177 ), #72, .F. ) ;
#181 = EDGE_CURVE ( 'NONE', #202, #36, #23, .T. ) ;
#182 = EDGE_CURVE ( 'NONE', #36, #112, #8, .T. ) ;
#183 = EDGE_LOOP ( 'NONE', ( #227, #98, #2, #94 ) ) ;
#184 = VECTOR ( 'NONE', #66, 1000.000000000000000 ) ;
#185 = LOCAL_TIME ( 1, 59, 44.00000000000000000, #30 ) ;
#186 = DESIGN_CONTEXT ( 'detailed design', #133, 'design' ) ;
#187 = DIRECTION ( 'NONE',  ( 0.000000000000000000, 0.000000000000000000, -1.000000000000000000 ) ) ;
#188 = PRODUCT_DEFINITION ( '未知', '', #162, #186 ) ;
#189 = EDGE_LOOP ( 'NONE', ( #14, #131, #19, #150 ) ) ;
#190 = CARTESIAN_POINT ( 'NONE',  ( 132.5000000000000000, 3.000000000000000000, -92.50000000000000000 ) ) ;
#191 = VECTOR ( 'NONE', #47, 1000.000000000000000 ) ;
#192 = DIRECTION ( 'NONE',  ( 0.000000000000000000, 0.000000000000000000, -1.000000000000000000 ) ) ;
#193 = DATE_TIME_ROLE ( 'creation_date' ) ;
#194 = DIRECTION ( 'NONE',  ( -1.000000000000000000, 0.000000000000000000, 0.000000000000000000 ) ) ;
#195 = LINE ( 'NONE', #170, #191 ) ;
#196 = AXIS2_PLACEMENT_3D ( 'NONE', #169, #166, #77 ) ;
#197 = APPROVAL_PERSON_ORGANIZATION ( #178, #159, #9 ) ;
#198 = DATE_AND_TIME ( #119, #111 ) ;
#199 = APPROVAL_DATE_TIME ( #236, #65 ) ;
#200 = PRODUCT_DEFINITION_SHAPE ( 'NONE', 'NONE',  #188 ) ;
#201 = EDGE_CURVE ( 'NONE', #112, #56, #108, .T. ) ;
#202 = VERTEX_POINT ( 'NONE', #155 ) ;
#203 = VECTOR ( 'NONE', #230, 1000.000000000000000 ) ;
#204 = CC_DESIGN_PERSON_AND_ORGANIZATION_ASSIGNMENT ( #51, #117, ( #188 ) ) ;
#205 = AXIS2_PLACEMENT_3D ( 'NONE', #218, #31, #91 ) ;
#206 = EDGE_LOOP ( 'NONE', ( #5, #60, #134, #55 ) ) ;
#207 = PLANE ( 'NONE',  #196 ) ;
#208 = VECTOR ( 'NONE', #63, 1000.000000000000000 ) ;
#209 = CC_DESIGN_PERSON_AND_ORGANIZATION_ASSIGNMENT ( #157, #215, ( #33 ) ) ;
#210 = DIRECTION ( 'NONE',  ( 0.000000000000000000, 0.000000000000000000, 1.000000000000000000 ) ) ;
#211 = LINE ( 'NONE', #44, #203 ) ;
#212 = PERSON_AND_ORGANIZATION ( #225, #175 ) ;
#213 = LINE ( 'NONE', #118, #184 ) ;
#214 = CALENDAR_DATE ( 2026, 26, 7 ) ;
#215 = PERSON_AND_ORGANIZATION_ROLE ( 'classification_officer' ) ;
#216 = VECTOR ( 'NONE', #120, 1000.000000000000000 ) ;
#217 = ADVANCED_FACE ( 'NONE', ( #104 ), #172, .F. ) ;
#218 = CARTESIAN_POINT ( 'NONE',  ( 0.000000000000000000, 0.000000000000000000, 0.000000000000000000 ) ) ;
#219 = CARTESIAN_POINT ( 'NONE',  ( 0.000000000000000000, 3.000000000000000000, 0.000000000000000000 ) ) ;
#220 = ADVANCED_FACE ( 'NONE', ( #10 ), #115, .F. ) ;
#221 = CARTESIAN_POINT ( 'NONE',  ( -132.5000000000000000, 3.000000000000000000, 92.50000000000000000 ) ) ;
#222 = CARTESIAN_POINT ( 'NONE',  ( 132.5000000000000000, 0.000000000000000000, 92.50000000000000000 ) ) ;
#223 = APPLICATION_CONTEXT ( 'configuration controlled 3d designs of mechanical parts and assemblies' ) ;
#224 = DIRECTION ( 'NONE',  ( 0.000000000000000000, -0.000000000000000000, -1.000000000000000000 ) ) ;
#225 = PERSON ( '未指定', '未指定', '未指定', ('未指定'), ('未指定'), ('未指定') ) ;
#226 = VECTOR ( 'NONE', #187, 1000.000000000000000 ) ;
#227 = ORIENTED_EDGE ( 'NONE', *, *, #139, .F. ) ;
#228 = DIRECTION ( 'NONE',  ( 0.000000000000000000, 0.000000000000000000, -1.000000000000000000 ) ) ;
#229 = VECTOR ( 'NONE', #138, 1000.000000000000000 ) ;
#230 = DIRECTION ( 'NONE',  ( -0.000000000000000000, -1.000000000000000000, -0.000000000000000000 ) ) ;
#231 = APPROVAL_PERSON_ORGANIZATION ( #212, #65, #234 ) ;
#232 = CARTESIAN_POINT ( 'NONE',  ( -132.5000000000000000, 0.000000000000000000, 92.50000000000000000 ) ) ;
#233 = DIRECTION ( 'NONE',  ( 1.000000000000000000, 0.000000000000000000, 0.000000000000000000 ) ) ;
#234 = APPROVAL_ROLE ( '' ) ;
#235 = CC_DESIGN_APPROVAL ( #96, ( #188 ) ) ;
#236 = DATE_AND_TIME ( #146, #93 ) ;
#237 = VECTOR ( 'NONE', #15, 1000.000000000000000 ) ;
ENDSEC;
END-ISO-10303-21;
