ISO-10303-21;
HEADER;
FILE_DESCRIPTION (( 'STEP AP203' ),
    '1' );
FILE_NAME ('FN-PCB-001_carrier-board-envelope_R0.1.STEP',
    '2026-07-25T18:00:02',
    ( '' ),
    ( '' ),
    'SwSTEP 2.0',
    'SolidWorks 2022',
    '' );
FILE_SCHEMA (( 'CONFIG_CONTROL_DESIGN' ));
ENDSEC;

DATA;
#1 = VERTEX_POINT ( 'NONE', #73 ) ;
#2 = ORIENTED_EDGE ( 'NONE', *, *, #20, .F. ) ;
#3 = CARTESIAN_POINT ( 'NONE',  ( -85.00000000000000000, 1.600000000000000089, 57.50000000000000000 ) ) ;
#4 = CARTESIAN_POINT ( 'NONE',  ( -85.00000000000000000, 0.000000000000000000, -57.50000000000000000 ) ) ;
#5 = CARTESIAN_POINT ( 'NONE',  ( 85.00000000000000000, 1.600000000000000089, 57.50000000000000000 ) ) ;
#6 = DIRECTION ( 'NONE',  ( 0.000000000000000000, -0.000000000000000000, -1.000000000000000000 ) ) ;
#7 = LINE ( 'NONE', #60, #46 ) ;
#8 = APPROVAL_PERSON_ORGANIZATION ( #152, #35, #98 ) ;
#9 = PERSON_AND_ORGANIZATION_ROLE ( 'creator' ) ;
#10 = LINE ( 'NONE', #157, #172 ) ;
#11 = APPROVAL_DATE_TIME ( #94, #38 ) ;
#12 = AXIS2_PLACEMENT_3D ( 'NONE', #209, #200, #113 ) ;
#13 = DIRECTION ( 'NONE',  ( -0.000000000000000000, -0.000000000000000000, 1.000000000000000000 ) ) ;
#14 = COORDINATED_UNIVERSAL_TIME_OFFSET ( 8, 0, .AHEAD. ) ;
#15 = AXIS2_PLACEMENT_3D ( 'NONE', #97, #224, #185 ) ;
#16 = EDGE_LOOP ( 'NONE', ( #160, #19, #125, #17 ) ) ;
#17 = ORIENTED_EDGE ( 'NONE', *, *, #75, .T. ) ;
#18 = ORIENTED_EDGE ( 'NONE', *, *, #118, .F. ) ;
#19 = ORIENTED_EDGE ( 'NONE', *, *, #80, .F. ) ;
#20 = EDGE_CURVE ( 'NONE', #1, #36, #117, .T. ) ;
#21 = CARTESIAN_POINT ( 'NONE',  ( 85.00000000000000000, 0.000000000000000000, 57.50000000000000000 ) ) ;
#22 = CARTESIAN_POINT ( 'NONE',  ( 85.00000000000000000, 1.600000000000000089, -57.50000000000000000 ) ) ;
#23 = COORDINATED_UNIVERSAL_TIME_OFFSET ( 8, 0, .AHEAD. ) ;
#24 = AXIS2_PLACEMENT_3D ( 'NONE', #170, #227, #81 ) ;
#25 = PLANE ( 'NONE',  #84 ) ;
#26 = DIRECTION ( 'NONE',  ( -1.000000000000000000, -0.000000000000000000, -0.000000000000000000 ) ) ;
#27 = PLANE ( 'NONE',  #115 ) ;
#28 = CC_DESIGN_PERSON_AND_ORGANIZATION_ASSIGNMENT ( #147, #201, ( #109 ) ) ;
#29 = CALENDAR_DATE ( 2026, 26, 7 ) ;
#30 = APPLICATION_CONTEXT ( 'configuration controlled 3d designs of mechanical parts and assemblies' ) ;
#31 = LINE ( 'NONE', #104, #186 ) ;
#32 = PERSON_AND_ORGANIZATION_ROLE ( 'creator' ) ;
#33 =( LENGTH_UNIT ( ) NAMED_UNIT ( * ) SI_UNIT ( .MILLI., .METRE. ) );
#34 = ORIENTED_EDGE ( 'NONE', *, *, #105, .T. ) ;
#35 = APPROVAL ( #132, '未指定' ) ;
#36 = VERTEX_POINT ( 'NONE', #120 ) ;
#37 = ADVANCED_FACE ( 'NONE', ( #165 ), #25, .F. ) ;
#38 = APPROVAL ( #45, '未指定' ) ;
#39 = LINE ( 'NONE', #183, #215 ) ;
#40 = PLANE ( 'NONE',  #24 ) ;
#41 = LINE ( 'NONE', #187, #64 ) ;
#42 = DIRECTION ( 'NONE',  ( 0.000000000000000000, 0.000000000000000000, -1.000000000000000000 ) ) ;
#43 = LINE ( 'NONE', #96, #154 ) ;
#44 =( NAMED_UNIT ( * ) PLANE_ANGLE_UNIT ( ) SI_UNIT ( $, .RADIAN. ) );
#45 = APPROVAL_STATUS ( 'not_yet_approved' ) ;
#46 = VECTOR ( 'NONE', #42, 1000.000000000000000 ) ;
#47 = CARTESIAN_POINT ( 'NONE',  ( -85.00000000000000000, 1.600000000000000089, 57.50000000000000000 ) ) ;
#48 = ORIENTED_EDGE ( 'NONE', *, *, #68, .F. ) ;
#49 = ADVANCED_FACE ( 'NONE', ( #129 ), #27, .F. ) ;
#50 = VERTEX_POINT ( 'NONE', #22 ) ;
#51 = AXIS2_PLACEMENT_3D ( 'NONE', #114, #192, #210 ) ;
#52 = LOCAL_TIME ( 2, 0, 2.000000000000000000, #85 ) ;
#53 = CARTESIAN_POINT ( 'NONE',  ( -85.00000000000000000, 1.600000000000000089, -57.50000000000000000 ) ) ;
#54 = DIRECTION ( 'NONE',  ( 1.000000000000000000, 0.000000000000000000, 0.000000000000000000 ) ) ;
#55 = COORDINATED_UNIVERSAL_TIME_OFFSET ( 8, 0, .AHEAD. ) ;
#56 = EDGE_CURVE ( 'NONE', #50, #92, #39, .T. ) ;
#57 = DIRECTION ( 'NONE',  ( -0.000000000000000000, -1.000000000000000000, -0.000000000000000000 ) ) ;
#58 = APPROVAL ( #231, '未指定' ) ;
#59 = VECTOR ( 'NONE', #99, 1000.000000000000000 ) ;
#60 = CARTESIAN_POINT ( 'NONE',  ( 85.00000000000000000, 1.600000000000000089, 57.50000000000000000 ) ) ;
#61 = DATE_TIME_ROLE ( 'classification_date' ) ;
#62 = LINE ( 'NONE', #5, #197 ) ;
#63 = CALENDAR_DATE ( 2026, 26, 7 ) ;
#64 = VECTOR ( 'NONE', #167, 1000.000000000000000 ) ;
#65 = CARTESIAN_POINT ( 'NONE',  ( 0.000000000000000000, 0.000000000000000000, 0.000000000000000000 ) ) ;
#66 = DIRECTION ( 'NONE',  ( 0.000000000000000000, 0.000000000000000000, 1.000000000000000000 ) ) ;
#67 = CC_DESIGN_PERSON_AND_ORGANIZATION_ASSIGNMENT ( #189, #150, ( #176 ) ) ;
#68 = EDGE_CURVE ( 'NONE', #235, #177, #41, .T. ) ;
#69 = ORIENTED_EDGE ( 'NONE', *, *, #75, .F. ) ;
#70 = UNCERTAINTY_MEASURE_WITH_UNIT (LENGTH_MEASURE( 1.000000000000000082E-05 ), #33, 'distance_accuracy_value', 'NONE');
#71 = PRODUCT_DEFINITION_SHAPE ( 'NONE', 'NONE',  #169 ) ;
#72 = CC_DESIGN_APPROVAL ( #35, ( #109 ) ) ;
#73 = CARTESIAN_POINT ( 'NONE',  ( 85.00000000000000000, 0.000000000000000000, 57.50000000000000000 ) ) ;
#74 = CARTESIAN_POINT ( 'NONE',  ( 0.000000000000000000, 1.600000000000000089, 0.000000000000000000 ) ) ;
#75 = EDGE_CURVE ( 'NONE', #50, #36, #144, .T. ) ;
#76 = CARTESIAN_POINT ( 'NONE',  ( -85.00000000000000000, 0.000000000000000000, 57.50000000000000000 ) ) ;
#77 = CARTESIAN_POINT ( 'NONE',  ( 85.00000000000000000, 1.600000000000000089, -57.50000000000000000 ) ) ;
#78 = CC_DESIGN_DATE_AND_TIME_ASSIGNMENT ( #135, #136, ( #169 ) ) ;
#79 = CARTESIAN_POINT ( 'NONE',  ( -85.00000000000000000, 1.600000000000000089, -57.50000000000000000 ) ) ;
#80 = EDGE_CURVE ( 'NONE', #92, #138, #151, .T. ) ;
#81 = DIRECTION ( 'NONE',  ( 0.000000000000000000, -0.000000000000000000, -1.000000000000000000 ) ) ;
#82 = DATE_AND_TIME ( #128, #173 ) ;
#83 = MECHANICAL_CONTEXT ( 'NONE', #30, 'mechanical' ) ;
#84 = AXIS2_PLACEMENT_3D ( 'NONE', #3, #93, #133 ) ;
#85 = COORDINATED_UNIVERSAL_TIME_OFFSET ( 8, 0, .AHEAD. ) ;
#86 = ORGANIZATION ( '未指定', '未指定', '' ) ;
#87 = VERTEX_POINT ( 'NONE', #76 ) ;
#88 = CC_DESIGN_APPROVAL ( #38, ( #176 ) ) ;
#89 = APPLICATION_CONTEXT ( 'configuration controlled 3d designs of mechanical parts and assemblies' ) ;
#90 = ORIENTED_EDGE ( 'NONE', *, *, #139, .F. ) ;
#91 = ADVANCED_FACE ( 'NONE', ( #168 ), #149, .F. ) ;
#92 = VERTEX_POINT ( 'NONE', #53 ) ;
#93 = DIRECTION ( 'NONE',  ( 1.000000000000000000, -0.000000000000000000, 0.000000000000000000 ) ) ;
#94 = DATE_AND_TIME ( #199, #52 ) ;
#95 = EDGE_CURVE ( 'NONE', #87, #1, #166, .T. ) ;
#96 = CARTESIAN_POINT ( 'NONE',  ( -85.00000000000000000, 1.600000000000000089, 57.50000000000000000 ) ) ;
#97 = CARTESIAN_POINT ( 'NONE',  ( 85.00000000000000000, 1.600000000000000089, 57.50000000000000000 ) ) ;
#98 = APPROVAL_ROLE ( '' ) ;
#99 = DIRECTION ( 'NONE',  ( -0.000000000000000000, -1.000000000000000000, -0.000000000000000000 ) ) ;
#100 = DIRECTION ( 'NONE',  ( -0.000000000000000000, -0.000000000000000000, 1.000000000000000000 ) ) ;
#101 = LOCAL_TIME ( 2, 0, 2.000000000000000000, #14 ) ;
#102 = DATE_AND_TIME ( #29, #101 ) ;
#103 = CALENDAR_DATE ( 2026, 26, 7 ) ;
#104 = CARTESIAN_POINT ( 'NONE',  ( -85.00000000000000000, 0.000000000000000000, -57.50000000000000000 ) ) ;
#105 = EDGE_CURVE ( 'NONE', #177, #1, #62, .T. ) ;
#106 = COORDINATED_UNIVERSAL_TIME_OFFSET ( 8, 0, .AHEAD. ) ;
#107 = DIRECTION ( 'NONE',  ( 1.000000000000000000, 0.000000000000000000, 0.000000000000000000 ) ) ;
#108 = EDGE_LOOP ( 'NONE', ( #90, #219, #2, #179 ) ) ;
#109 = SECURITY_CLASSIFICATION ( '', '', #226 ) ;
#110 = ORIENTED_EDGE ( 'NONE', *, *, #20, .T. ) ;
#111 = ORIENTED_EDGE ( 'NONE', *, *, #139, .T. ) ;
#112 = ORIENTED_EDGE ( 'NONE', *, *, #56, .T. ) ;
#113 = DIRECTION ( 'NONE',  ( -1.000000000000000000, 0.000000000000000000, -0.000000000000000000 ) ) ;
#114 = CARTESIAN_POINT ( 'NONE',  ( -85.00000000000000000, 1.600000000000000089, -57.50000000000000000 ) ) ;
#115 = AXIS2_PLACEMENT_3D ( 'NONE', #74, #228, #6 ) ;
#116 =( GEOMETRIC_REPRESENTATION_CONTEXT ( 3 ) GLOBAL_UNCERTAINTY_ASSIGNED_CONTEXT ( ( #70 ) ) GLOBAL_UNIT_ASSIGNED_CONTEXT ( ( #33, #44, #174 ) ) REPRESENTATION_CONTEXT ( 'NONE', 'WORKASPACE' ) );
#117 = LINE ( 'NONE', #21, #158 ) ;
#118 = EDGE_CURVE ( 'NONE', #177, #50, #7, .T. ) ;
#119 = CARTESIAN_POINT ( 'NONE',  ( -85.00000000000000000, 0.000000000000000000, 57.50000000000000000 ) ) ;
#120 = CARTESIAN_POINT ( 'NONE',  ( 85.00000000000000000, 0.000000000000000000, -57.50000000000000000 ) ) ;
#121 = ADVANCED_FACE ( 'NONE', ( #131 ), #126, .F. ) ;
#122 = CC_DESIGN_PERSON_AND_ORGANIZATION_ASSIGNMENT ( #130, #9, ( #176 ) ) ;
#123 = EDGE_LOOP ( 'NONE', ( #143, #162, #48, #182 ) ) ;
#124 = EDGE_LOOP ( 'NONE', ( #236, #163, #137, #112 ) ) ;
#125 = ORIENTED_EDGE ( 'NONE', *, *, #56, .F. ) ;
#126 = PLANE ( 'NONE',  #12 ) ;
#127 = FACE_OUTER_BOUND ( 'NONE', #16, .T. ) ;
#128 = CALENDAR_DATE ( 2026, 26, 7 ) ;
#129 = FACE_OUTER_BOUND ( 'NONE', #124, .T. ) ;
#130 = PERSON_AND_ORGANIZATION ( #178, #86 ) ;
#131 = FACE_OUTER_BOUND ( 'NONE', #123, .T. ) ;
#132 = APPROVAL_STATUS ( 'not_yet_approved' ) ;
#133 = DIRECTION ( 'NONE',  ( 0.000000000000000000, 0.000000000000000000, -1.000000000000000000 ) ) ;
#134 = APPROVAL_ROLE ( '' ) ;
#135 = DATE_AND_TIME ( #63, #232 ) ;
#136 = DATE_TIME_ROLE ( 'creation_date' ) ;
#137 = ORIENTED_EDGE ( 'NONE', *, *, #118, .T. ) ;
#138 = VERTEX_POINT ( 'NONE', #4 ) ;
#139 = EDGE_CURVE ( 'NONE', #138, #87, #207, .T. ) ;
#140 = VECTOR ( 'NONE', #100, 1000.000000000000000 ) ;
#141 = AXIS2_PLACEMENT_3D ( 'NONE', #65, #66, #107 ) ;
#142 = ADVANCED_FACE ( 'NONE', ( #188 ), #40, .T. ) ;
#143 = ORIENTED_EDGE ( 'NONE', *, *, #95, .T. ) ;
#144 = LINE ( 'NONE', #77, #59 ) ;
#145 = VECTOR ( 'NONE', #54, 1000.000000000000000 ) ;
#146 = DIRECTION ( 'NONE',  ( -0.000000000000000000, -1.000000000000000000, -0.000000000000000000 ) ) ;
#147 = PERSON_AND_ORGANIZATION ( #178, #86 ) ;
#148 = CARTESIAN_POINT ( 'NONE',  ( -85.00000000000000000, 0.000000000000000000, 57.50000000000000000 ) ) ;
#149 = PLANE ( 'NONE',  #15 ) ;
#150 = PERSON_AND_ORGANIZATION_ROLE ( 'design_supplier' ) ;
#151 = LINE ( 'NONE', #79, #205 ) ;
#152 = PERSON_AND_ORGANIZATION ( #178, #86 ) ;
#153 = PERSON_AND_ORGANIZATION ( #178, #86 ) ;
#154 = VECTOR ( 'NONE', #146, 1000.000000000000000 ) ;
#155 = LOCAL_TIME ( 2, 0, 2.000000000000000000, #23 ) ;
#156 = PERSON_AND_ORGANIZATION ( #178, #86 ) ;
#157 = CARTESIAN_POINT ( 'NONE',  ( -85.00000000000000000, 1.600000000000000089, 57.50000000000000000 ) ) ;
#158 = VECTOR ( 'NONE', #204, 1000.000000000000000 ) ;
#159 = EDGE_LOOP ( 'NONE', ( #110, #69, #18, #34 ) ) ;
#160 = ORIENTED_EDGE ( 'NONE', *, *, #218, .T. ) ;
#161 = MANIFOLD_SOLID_BREP ( '凸台-拉伸1', #211 ) ;
#162 = ORIENTED_EDGE ( 'NONE', *, *, #105, .F. ) ;
#163 = ORIENTED_EDGE ( 'NONE', *, *, #68, .T. ) ;
#164 = CC_DESIGN_SECURITY_CLASSIFICATION ( #109, ( #176 ) ) ;
#165 = FACE_OUTER_BOUND ( 'NONE', #180, .T. ) ;
#166 = LINE ( 'NONE', #148, #145 ) ;
#167 = DIRECTION ( 'NONE',  ( 1.000000000000000000, 0.000000000000000000, 0.000000000000000000 ) ) ;
#168 = FACE_OUTER_BOUND ( 'NONE', #159, .T. ) ;
#169 = PRODUCT_DEFINITION ( '未知', '', #176, #220 ) ;
#170 = CARTESIAN_POINT ( 'NONE',  ( 0.000000000000000000, 0.000000000000000000, 0.000000000000000000 ) ) ;
#171 = APPROVAL_DATE_TIME ( #102, #58 ) ;
#172 = VECTOR ( 'NONE', #13, 1000.000000000000000 ) ;
#173 = LOCAL_TIME ( 2, 0, 2.000000000000000000, #55 ) ;
#174 =( NAMED_UNIT ( * ) SI_UNIT ( $, .STERADIAN. ) SOLID_ANGLE_UNIT ( ) );
#175 = EDGE_CURVE ( 'NONE', #235, #87, #43, .T. ) ;
#176 = PRODUCT_DEFINITION_FORMATION_WITH_SPECIFIED_SOURCE ( '任何', '', #222, .NOT_KNOWN. ) ;
#177 = VERTEX_POINT ( 'NONE', #225 ) ;
#178 = PERSON ( '未指定', '未指定', '未指定', ('未指定'), ('未指定'), ('未指定') ) ;
#179 = ORIENTED_EDGE ( 'NONE', *, *, #95, .F. ) ;
#180 = EDGE_LOOP ( 'NONE', ( #111, #221, #198, #237 ) ) ;
#181 = PRODUCT_RELATED_PRODUCT_CATEGORY ( 'detail', '', ( #222 ) ) ;
#182 = ORIENTED_EDGE ( 'NONE', *, *, #175, .T. ) ;
#183 = CARTESIAN_POINT ( 'NONE',  ( -85.00000000000000000, 1.600000000000000089, -57.50000000000000000 ) ) ;
#184 = APPROVAL_DATE_TIME ( #191, #35 ) ;
#185 = DIRECTION ( 'NONE',  ( 0.000000000000000000, 0.000000000000000000, 1.000000000000000000 ) ) ;
#186 = VECTOR ( 'NONE', #214, 1000.000000000000000 ) ;
#187 = CARTESIAN_POINT ( 'NONE',  ( -85.00000000000000000, 1.600000000000000089, 57.50000000000000000 ) ) ;
#188 = FACE_OUTER_BOUND ( 'NONE', #108, .T. ) ;
#189 = PERSON_AND_ORGANIZATION ( #178, #86 ) ;
#190 = APPLICATION_PROTOCOL_DEFINITION ( 'international standard', 'config_control_design', 1994, #89 ) ;
#191 = DATE_AND_TIME ( #103, #155 ) ;
#192 = DIRECTION ( 'NONE',  ( 0.000000000000000000, 0.000000000000000000, 1.000000000000000000 ) ) ;
#193 = APPLICATION_PROTOCOL_DEFINITION ( 'international standard', 'config_control_design', 1994, #30 ) ;
#194 = ADVANCED_BREP_SHAPE_REPRESENTATION ( 'FN-PCB-001_carrier-board-envelope_R0.1', ( #161, #141 ), #116 ) ;
#195 = CC_DESIGN_PERSON_AND_ORGANIZATION_ASSIGNMENT ( #156, #32, ( #169 ) ) ;
#196 = APPROVAL_ROLE ( '' ) ;
#197 = VECTOR ( 'NONE', #57, 1000.000000000000000 ) ;
#198 = ORIENTED_EDGE ( 'NONE', *, *, #229, .F. ) ;
#199 = CALENDAR_DATE ( 2026, 26, 7 ) ;
#200 = DIRECTION ( 'NONE',  ( 0.000000000000000000, 0.000000000000000000, -1.000000000000000000 ) ) ;
#201 = PERSON_AND_ORGANIZATION_ROLE ( 'classification_officer' ) ;
#202 = PLANE ( 'NONE',  #51 ) ;
#203 = SHAPE_DEFINITION_REPRESENTATION ( #71, #194 ) ;
#204 = DIRECTION ( 'NONE',  ( 0.000000000000000000, 0.000000000000000000, -1.000000000000000000 ) ) ;
#205 = VECTOR ( 'NONE', #230, 1000.000000000000000 ) ;
#206 = APPROVAL_PERSON_ORGANIZATION ( #233, #58, #196 ) ;
#207 = LINE ( 'NONE', #119, #140 ) ;
#208 = ADVANCED_FACE ( 'NONE', ( #127 ), #202, .F. ) ;
#209 = CARTESIAN_POINT ( 'NONE',  ( -85.00000000000000000, 1.600000000000000089, 57.50000000000000000 ) ) ;
#210 = DIRECTION ( 'NONE',  ( 1.000000000000000000, 0.000000000000000000, -0.000000000000000000 ) ) ;
#211 = CLOSED_SHELL ( 'NONE', ( #37, #121, #91, #208, #49, #142 ) ) ;
#212 = APPROVAL_PERSON_ORGANIZATION ( #213, #38, #134 ) ;
#213 = PERSON_AND_ORGANIZATION ( #178, #86 ) ;
#214 = DIRECTION ( 'NONE',  ( -1.000000000000000000, -0.000000000000000000, -0.000000000000000000 ) ) ;
#215 = VECTOR ( 'NONE', #26, 1000.000000000000000 ) ;
#216 = CC_DESIGN_APPROVAL ( #58, ( #169 ) ) ;
#217 = PERSON_AND_ORGANIZATION_ROLE ( 'design_owner' ) ;
#218 = EDGE_CURVE ( 'NONE', #36, #138, #31, .T. ) ;
#219 = ORIENTED_EDGE ( 'NONE', *, *, #218, .F. ) ;
#220 = DESIGN_CONTEXT ( 'detailed design', #89, 'design' ) ;
#221 = ORIENTED_EDGE ( 'NONE', *, *, #175, .F. ) ;
#222 = PRODUCT ( 'FN-PCB-001_carrier-board-envelope_R0.1', 'FN-PCB-001_carrier-board-envelope_R0.1', '', ( #83 ) ) ;
#223 = CC_DESIGN_PERSON_AND_ORGANIZATION_ASSIGNMENT ( #153, #217, ( #222 ) ) ;
#224 = DIRECTION ( 'NONE',  ( -1.000000000000000000, 0.000000000000000000, 0.000000000000000000 ) ) ;
#225 = CARTESIAN_POINT ( 'NONE',  ( 85.00000000000000000, 1.600000000000000089, 57.50000000000000000 ) ) ;
#226 = SECURITY_CLASSIFICATION_LEVEL ( 'unclassified' ) ;
#227 = DIRECTION ( 'NONE',  ( 0.000000000000000000, -1.000000000000000000, 0.000000000000000000 ) ) ;
#228 = DIRECTION ( 'NONE',  ( 0.000000000000000000, -1.000000000000000000, 0.000000000000000000 ) ) ;
#229 = EDGE_CURVE ( 'NONE', #92, #235, #10, .T. ) ;
#230 = DIRECTION ( 'NONE',  ( -0.000000000000000000, -1.000000000000000000, -0.000000000000000000 ) ) ;
#231 = APPROVAL_STATUS ( 'not_yet_approved' ) ;
#232 = LOCAL_TIME ( 2, 0, 2.000000000000000000, #106 ) ;
#233 = PERSON_AND_ORGANIZATION ( #178, #86 ) ;
#234 = CC_DESIGN_DATE_AND_TIME_ASSIGNMENT ( #82, #61, ( #109 ) ) ;
#235 = VERTEX_POINT ( 'NONE', #47 ) ;
#236 = ORIENTED_EDGE ( 'NONE', *, *, #229, .T. ) ;
#237 = ORIENTED_EDGE ( 'NONE', *, *, #80, .T. ) ;
ENDSEC;
END-ISO-10303-21;
