ISO-10303-21;
HEADER;
FILE_DESCRIPTION (( 'STEP AP203' ),
    '1' );
FILE_NAME ('FN-SUB-001_tilt-reference-plate_R0.1.STEP',
    '2026-07-25T17:59:54',
    ( '' ),
    ( '' ),
    'SwSTEP 2.0',
    'SolidWorks 2022',
    '' );
FILE_SCHEMA (( 'CONFIG_CONTROL_DESIGN' ));
ENDSEC;

DATA;
#1 = DIRECTION ( 'NONE',  ( 0.000000000000000000, -1.000000000000000000, 0.000000000000000000 ) ) ;
#2 = LOCAL_TIME ( 1, 59, 54.00000000000000000, #484 ) ;
#3 = APPROVAL_DATE_TIME ( #40, #477 ) ;
#4 = LINE ( 'NONE', #114, #366 ) ;
#5 = FACE_BOUND ( 'NONE', #34, .T. ) ;
#6 = DIRECTION ( 'NONE',  ( -0.000000000000000000, -1.000000000000000000, -0.000000000000000000 ) ) ;
#7 = VECTOR ( 'NONE', #85, 1000.000000000000000 ) ;
#8 = PRODUCT_DEFINITION_FORMATION_WITH_SPECIFIED_SOURCE ( '任何', '', #505, .NOT_KNOWN. ) ;
#9 = CARTESIAN_POINT ( 'NONE',  ( 39.00000000000000000, 0.000000000000000000, -17.69999999999999929 ) ) ;
#10 = FACE_OUTER_BOUND ( 'NONE', #530, .T. ) ;
#11 = EDGE_LOOP ( 'NONE', ( #234, #436 ) ) ;
#12 = CARTESIAN_POINT ( 'NONE',  ( -39.00000000000000000, 5.000000000000000000, -21.30000000000000071 ) ) ;
#13 = CARTESIAN_POINT ( 'NONE',  ( -39.00000000000000000, 5.000000000000000000, 17.69999999999999929 ) ) ;
#14 = CIRCLE ( 'NONE', #137, 1.799999999999999600 ) ;
#15 = PLANE ( 'NONE',  #247 ) ;
#16 = VECTOR ( 'NONE', #310, 1000.000000000000000 ) ;
#17 = CARTESIAN_POINT ( 'NONE',  ( -39.00000000000000000, 0.000000000000000000, 19.50000000000000000 ) ) ;
#18 = EDGE_CURVE ( 'NONE', #220, #182, #207, .T. ) ;
#19 = COORDINATED_UNIVERSAL_TIME_OFFSET ( 8, 0, .AHEAD. ) ;
#20 = EDGE_LOOP ( 'NONE', ( #72, #246, #370, #511 ) ) ;
#21 = PERSON_AND_ORGANIZATION ( #218, #66 ) ;
#22 = CIRCLE ( 'NONE', #191, 1.799999999999999600 ) ;
#23 = DIRECTION ( 'NONE',  ( 0.000000000000000000, 0.000000000000000000, 1.000000000000000000 ) ) ;
#24 = ORIENTED_EDGE ( 'NONE', *, *, #89, .T. ) ;
#25 = DIRECTION ( 'NONE',  ( 0.000000000000000000, 0.000000000000000000, -1.000000000000000000 ) ) ;
#26 = DIRECTION ( 'NONE',  ( 0.000000000000000000, 0.000000000000000000, 1.000000000000000000 ) ) ;
#27 = ORIENTED_EDGE ( 'NONE', *, *, #378, .T. ) ;
#28 = CARTESIAN_POINT ( 'NONE',  ( -60.00000000000000000, 0.000000000000000000, -42.50000000000000000 ) ) ;
#29 = ORIENTED_EDGE ( 'NONE', *, *, #125, .F. ) ;
#30 = VECTOR ( 'NONE', #170, 1000.000000000000000 ) ;
#31 = PERSON_AND_ORGANIZATION ( #218, #66 ) ;
#32 = APPROVAL_PERSON_ORGANIZATION ( #110, #277, #522 ) ;
#33 = LINE ( 'NONE', #323, #375 ) ;
#34 = EDGE_LOOP ( 'NONE', ( #243, #399 ) ) ;
#35 = LINE ( 'NONE', #294, #330 ) ;
#36 = ORIENTED_EDGE ( 'NONE', *, *, #368, .T. ) ;
#37 = DIRECTION ( 'NONE',  ( -0.000000000000000000, 1.000000000000000000, -0.000000000000000000 ) ) ;
#38 = VERTEX_POINT ( 'NONE', #393 ) ;
#39 = EDGE_CURVE ( 'NONE', #307, #144, #425, .T. ) ;
#40 = DATE_AND_TIME ( #126, #2 ) ;
#41 = AXIS2_PLACEMENT_3D ( 'NONE', #91, #426, #258 ) ;
#42 = DIRECTION ( 'NONE',  ( 0.000000000000000000, -1.000000000000000000, 0.000000000000000000 ) ) ;
#43 = ADVANCED_FACE ( 'NONE', ( #309 ), #239, .F. ) ;
#44 = MANIFOLD_SOLID_BREP ( '切除-拉伸1', #65 ) ;
#45 = PLANE ( 'NONE',  #458 ) ;
#46 = CYLINDRICAL_SURFACE ( 'NONE', #452, 1.799999999999999600 ) ;
#47 = CC_DESIGN_DATE_AND_TIME_ASSIGNMENT ( #513, #158, ( #446 ) ) ;
#48 = DIRECTION ( 'NONE',  ( -0.000000000000000000, -0.000000000000000000, 1.000000000000000000 ) ) ;
#49 = CC_DESIGN_APPROVAL ( #277, ( #446 ) ) ;
#50 = CARTESIAN_POINT ( 'NONE',  ( 60.00000000000000000, 0.000000000000000000, 42.50000000000000000 ) ) ;
#51 = ORIENTED_EDGE ( 'NONE', *, *, #386, .F. ) ;
#52 = DIRECTION ( 'NONE',  ( 0.000000000000000000, 0.000000000000000000, -1.000000000000000000 ) ) ;
#53 = LINE ( 'NONE', #380, #109 ) ;
#54 = CARTESIAN_POINT ( 'NONE',  ( 60.00000000000000000, 3.000000000000000000, 42.50000000000000000 ) ) ;
#55 = DATE_AND_TIME ( #151, #347 ) ;
#56 = CIRCLE ( 'NONE', #339, 1.799999999999999600 ) ;
#57 = DIRECTION ( 'NONE',  ( 0.000000000000000000, 1.000000000000000000, 0.000000000000000000 ) ) ;
#58 = ORIENTED_EDGE ( 'NONE', *, *, #39, .T. ) ;
#59 = DIRECTION ( 'NONE',  ( 0.000000000000000000, 1.000000000000000000, 0.000000000000000000 ) ) ;
#60 = VERTEX_POINT ( 'NONE', #282 ) ;
#61 = PERSON_AND_ORGANIZATION_ROLE ( 'creator' ) ;
#62 = CC_DESIGN_PERSON_AND_ORGANIZATION_ASSIGNMENT ( #21, #146, ( #505 ) ) ;
#63 = PRODUCT_DEFINITION_SHAPE ( 'NONE', 'NONE',  #446 ) ;
#64 = EDGE_LOOP ( 'NONE', ( #153, #177 ) ) ;
#65 = CLOSED_SHELL ( 'NONE', ( #479, #483, #86, #472, #83, #43, #487, #190, #337, #232, #327, #331, #176, #400 ) ) ;
#66 = ORGANIZATION ( '未指定', '未指定', '' ) ;
#67 =( NAMED_UNIT ( * ) SI_UNIT ( $, .STERADIAN. ) SOLID_ANGLE_UNIT ( ) );
#68 = CARTESIAN_POINT ( 'NONE',  ( 39.00000000000000000, 0.000000000000000000, 19.50000000000000000 ) ) ;
#69 = EDGE_LOOP ( 'NONE', ( #268, #141, #491, #280 ) ) ;
#70 = EDGE_CURVE ( 'NONE', #285, #107, #338, .T. ) ;
#71 = ORIENTED_EDGE ( 'NONE', *, *, #195, .F. ) ;
#72 = ORIENTED_EDGE ( 'NONE', *, *, #300, .T. ) ;
#73 = PLANE ( 'NONE',  #475 ) ;
#74 = ORIENTED_EDGE ( 'NONE', *, *, #113, .F. ) ;
#75 = VECTOR ( 'NONE', #1, 1000.000000000000000 ) ;
#76 = CARTESIAN_POINT ( 'NONE',  ( 39.00000000000000000, 0.000000000000000000, 21.30000000000000071 ) ) ;
#77 = EDGE_LOOP ( 'NONE', ( #228, #250, #104, #187 ) ) ;
#78 = APPROVAL_DATE_TIME ( #437, #521 ) ;
#79 = CARTESIAN_POINT ( 'NONE',  ( 39.00000000000000000, 0.000000000000000000, -19.50000000000000000 ) ) ;
#80 = VERTEX_POINT ( 'NONE', #139 ) ;
#81 = CALENDAR_DATE ( 2026, 26, 7 ) ;
#82 = CARTESIAN_POINT ( 'NONE',  ( 39.00000000000000000, 3.000000000000000000, 17.69999999999999929 ) ) ;
#83 = ADVANCED_FACE ( 'NONE', ( #106 ), #15, .F. ) ;
#84 = CIRCLE ( 'NONE', #416, 1.799999999999999600 ) ;
#85 = DIRECTION ( 'NONE',  ( -1.000000000000000000, -0.000000000000000000, -0.000000000000000000 ) ) ;
#86 = ADVANCED_FACE ( 'NONE', ( #111 ), #142, .F. ) ;
#87 = DIRECTION ( 'NONE',  ( 0.000000000000000000, 0.000000000000000000, -1.000000000000000000 ) ) ;
#88 = DESIGN_CONTEXT ( 'detailed design', #256, 'design' ) ;
#89 = EDGE_CURVE ( 'NONE', #252, #405, #467, .T. ) ;
#90 = DIRECTION ( 'NONE',  ( 0.000000000000000000, 0.000000000000000000, 1.000000000000000000 ) ) ;
#91 = CARTESIAN_POINT ( 'NONE',  ( 39.00000000000000000, 3.000000000000000000, -19.50000000000000000 ) ) ;
#92 = DIRECTION ( 'NONE',  ( 0.000000000000000000, 1.000000000000000000, 0.000000000000000000 ) ) ;
#93 = CARTESIAN_POINT ( 'NONE',  ( 39.00000000000000000, 3.000000000000000000, -19.50000000000000000 ) ) ;
#94 = DIRECTION ( 'NONE',  ( -0.000000000000000000, -1.000000000000000000, -0.000000000000000000 ) ) ;
#95 = DIRECTION ( 'NONE',  ( 0.000000000000000000, 0.000000000000000000, -1.000000000000000000 ) ) ;
#96 = DIRECTION ( 'NONE',  ( -1.000000000000000000, -0.000000000000000000, -0.000000000000000000 ) ) ;
#97 = DIRECTION ( 'NONE',  ( 0.000000000000000000, 0.000000000000000000, 1.000000000000000000 ) ) ;
#98 = AXIS2_PLACEMENT_3D ( 'NONE', #17, #390, #149 ) ;
#99 = ORIENTED_EDGE ( 'NONE', *, *, #206, .F. ) ;
#100 = AXIS2_PLACEMENT_3D ( 'NONE', #336, #455, #90 ) ;
#101 = FACE_OUTER_BOUND ( 'NONE', #69, .T. ) ;
#102 = VERTEX_POINT ( 'NONE', #435 ) ;
#103 = APPROVAL_STATUS ( 'not_yet_approved' ) ;
#104 = ORIENTED_EDGE ( 'NONE', *, *, #509, .F. ) ;
#105 = LINE ( 'NONE', #186, #526 ) ;
#106 = FACE_OUTER_BOUND ( 'NONE', #373, .T. ) ;
#107 = VERTEX_POINT ( 'NONE', #387 ) ;
#108 = AXIS2_PLACEMENT_3D ( 'NONE', #68, #478, #183 ) ;
#109 = VECTOR ( 'NONE', #388, 1000.000000000000000 ) ;
#110 = PERSON_AND_ORGANIZATION ( #218, #66 ) ;
#111 = FACE_OUTER_BOUND ( 'NONE', #77, .T. ) ;
#112 = EDGE_LOOP ( 'NONE', ( #24, #74, #71, #124 ) ) ;
#113 = EDGE_CURVE ( 'NONE', #115, #405, #464, .T. ) ;
#114 = CARTESIAN_POINT ( 'NONE',  ( 60.00000000000000000, 3.000000000000000000, -42.50000000000000000 ) ) ;
#115 = VERTEX_POINT ( 'NONE', #269 ) ;
#116 = PRODUCT_RELATED_PRODUCT_CATEGORY ( 'detail', '', ( #505 ) ) ;
#117 = EDGE_CURVE ( 'NONE', #520, #60, #279, .T. ) ;
#118 = DATE_AND_TIME ( #81, #508 ) ;
#119 = CARTESIAN_POINT ( 'NONE',  ( 60.00000000000000000, 3.000000000000000000, 42.50000000000000000 ) ) ;
#120 = VERTEX_POINT ( 'NONE', #502 ) ;
#121 = VECTOR ( 'NONE', #181, 1000.000000000000000 ) ;
#122 = AXIS2_PLACEMENT_3D ( 'NONE', #188, #97, #319 ) ;
#123 = DIRECTION ( 'NONE',  ( 1.000000000000000000, 0.000000000000000000, 0.000000000000000000 ) ) ;
#124 = ORIENTED_EDGE ( 'NONE', *, *, #271, .T. ) ;
#125 = EDGE_CURVE ( 'NONE', #80, #302, #429, .T. ) ;
#126 = CALENDAR_DATE ( 2026, 26, 7 ) ;
#127 = DIRECTION ( 'NONE',  ( 0.000000000000000000, 0.000000000000000000, -1.000000000000000000 ) ) ;
#128 = APPROVAL_ROLE ( '' ) ;
#129 = DIRECTION ( 'NONE',  ( 0.000000000000000000, 0.000000000000000000, 1.000000000000000000 ) ) ;
#130 = AXIS2_PLACEMENT_3D ( 'NONE', #401, #514, #404 ) ;
#131 = CYLINDRICAL_SURFACE ( 'NONE', #154, 1.799999999999999600 ) ;
#132 = DIRECTION ( 'NONE',  ( 0.000000000000000000, -1.000000000000000000, 0.000000000000000000 ) ) ;
#133 = EDGE_CURVE ( 'NONE', #272, #102, #171, .T. ) ;
#134 = FACE_OUTER_BOUND ( 'NONE', #486, .T. ) ;
#135 = DIRECTION ( 'NONE',  ( 0.000000000000000000, 0.000000000000000000, -1.000000000000000000 ) ) ;
#136 = CARTESIAN_POINT ( 'NONE',  ( -39.00000000000000000, 3.000000000000000000, -21.30000000000000071 ) ) ;
#137 = AXIS2_PLACEMENT_3D ( 'NONE', #428, #57, #26 ) ;
#138 = ORIENTED_EDGE ( 'NONE', *, *, #70, .F. ) ;
#139 = CARTESIAN_POINT ( 'NONE',  ( 39.00000000000000000, 3.000000000000000000, 21.30000000000000071 ) ) ;
#140 = DIRECTION ( 'NONE',  ( -0.000000000000000000, 1.000000000000000000, -0.000000000000000000 ) ) ;
#141 = ORIENTED_EDGE ( 'NONE', *, *, #225, .T. ) ;
#142 = CYLINDRICAL_SURFACE ( 'NONE', #130, 1.799999999999999600 ) ;
#143 = CARTESIAN_POINT ( 'NONE',  ( 39.00000000000000000, 0.000000000000000000, -19.50000000000000000 ) ) ;
#144 = VERTEX_POINT ( 'NONE', #473 ) ;
#145 = AXIS2_PLACEMENT_3D ( 'NONE', #352, #317, #135 ) ;
#146 = PERSON_AND_ORGANIZATION_ROLE ( 'design_owner' ) ;
#147 = ORIENTED_EDGE ( 'NONE', *, *, #117, .F. ) ;
#148 = DIRECTION ( 'NONE',  ( 0.000000000000000000, -1.000000000000000000, 0.000000000000000000 ) ) ;
#149 = DIRECTION ( 'NONE',  ( 0.000000000000000000, 0.000000000000000000, 1.000000000000000000 ) ) ;
#150 = EDGE_LOOP ( 'NONE', ( #411, #480, #231, #99 ) ) ;
#151 = CALENDAR_DATE ( 2026, 26, 7 ) ;
#152 = DIRECTION ( 'NONE',  ( 0.000000000000000000, 0.000000000000000000, -1.000000000000000000 ) ) ;
#153 = ORIENTED_EDGE ( 'NONE', *, *, #456, .T. ) ;
#154 = AXIS2_PLACEMENT_3D ( 'NONE', #211, #297, #87 ) ;
#155 = LOCAL_TIME ( 1, 59, 54.00000000000000000, #360 ) ;
#156 = FACE_BOUND ( 'NONE', #64, .T. ) ;
#157 = ORIENTED_EDGE ( 'NONE', *, *, #273, .T. ) ;
#158 = DATE_TIME_ROLE ( 'creation_date' ) ;
#159 = DIRECTION ( 'NONE',  ( 0.000000000000000000, 0.000000000000000000, 1.000000000000000000 ) ) ;
#160 = ORIENTED_EDGE ( 'NONE', *, *, #463, .F. ) ;
#161 = APPROVAL_STATUS ( 'not_yet_approved' ) ;
#162 = FACE_OUTER_BOUND ( 'NONE', #150, .T. ) ;
#163 = ORIENTED_EDGE ( 'NONE', *, *, #180, .T. ) ;
#164 = CIRCLE ( 'NONE', #235, 1.799999999999999600 ) ;
#165 = CIRCLE ( 'NONE', #417, 1.799999999999999600 ) ;
#166 = PERSON_AND_ORGANIZATION ( #218, #66 ) ;
#167 = CARTESIAN_POINT ( 'NONE',  ( 39.00000000000000000, 0.000000000000000000, -21.30000000000000071 ) ) ;
#168 = PERSON_AND_ORGANIZATION_ROLE ( 'design_supplier' ) ;
#169 = CARTESIAN_POINT ( 'NONE',  ( 39.00000000000000000, 5.000000000000000000, -19.50000000000000000 ) ) ;
#170 = DIRECTION ( 'NONE',  ( 0.000000000000000000, 0.000000000000000000, -1.000000000000000000 ) ) ;
#171 = CIRCLE ( 'NONE', #208, 1.799999999999999600 ) ;
#172 = CARTESIAN_POINT ( 'NONE',  ( 39.00000000000000000, 5.000000000000000000, 19.50000000000000000 ) ) ;
#173 = EDGE_CURVE ( 'NONE', #102, #272, #14, .T. ) ;
#174 = DIRECTION ( 'NONE',  ( 0.000000000000000000, 1.000000000000000000, 0.000000000000000000 ) ) ;
#175 = DIRECTION ( 'NONE',  ( -0.000000000000000000, -0.000000000000000000, 1.000000000000000000 ) ) ;
#176 = ADVANCED_FACE ( 'NONE', ( #193 ), #363, .F. ) ;
#177 = ORIENTED_EDGE ( 'NONE', *, *, #70, .T. ) ;
#178 = CC_DESIGN_PERSON_AND_ORGANIZATION_ASSIGNMENT ( #31, #371, ( #313 ) ) ;
#179 = DIRECTION ( 'NONE',  ( 0.000000000000000000, -1.000000000000000000, 0.000000000000000000 ) ) ;
#180 = EDGE_CURVE ( 'NONE', #414, #272, #221, .T. ) ;
#181 = DIRECTION ( 'NONE',  ( 0.000000000000000000, -1.000000000000000000, 0.000000000000000000 ) ) ;
#182 = VERTEX_POINT ( 'NONE', #345 ) ;
#183 = DIRECTION ( 'NONE',  ( 0.000000000000000000, 0.000000000000000000, 1.000000000000000000 ) ) ;
#184 = APPLICATION_PROTOCOL_DEFINITION ( 'international standard', 'config_control_design', 1994, #355 ) ;
#185 = DIRECTION ( 'NONE',  ( -0.000000000000000000, 1.000000000000000000, -0.000000000000000000 ) ) ;
#186 = CARTESIAN_POINT ( 'NONE',  ( 39.00000000000000000, 5.000000000000000000, -21.30000000000000071 ) ) ;
#187 = ORIENTED_EDGE ( 'NONE', *, *, #497, .F. ) ;
#188 = CARTESIAN_POINT ( 'NONE',  ( 0.000000000000000000, 0.000000000000000000, 0.000000000000000000 ) ) ;
#189 = EDGE_LOOP ( 'NONE', ( #36, #262, #315, #288 ) ) ;
#190 = ADVANCED_FACE ( 'NONE', ( #266 ), #45, .F. ) ;
#191 = AXIS2_PLACEMENT_3D ( 'NONE', #249, #443, #489 ) ;
#192 = ORIENTED_EDGE ( 'NONE', *, *, #225, .F. ) ;
#193 = FACE_OUTER_BOUND ( 'NONE', #276, .T. ) ;
#194 = ORIENTED_EDGE ( 'NONE', *, *, #450, .T. ) ;
#195 = EDGE_CURVE ( 'NONE', #144, #115, #365, .T. ) ;
#196 = EDGE_CURVE ( 'NONE', #409, #322, #498, .T. ) ;
#197 = DIRECTION ( 'NONE',  ( 0.000000000000000000, 0.000000000000000000, -1.000000000000000000 ) ) ;
#198 = ORIENTED_EDGE ( 'NONE', *, *, #273, .F. ) ;
#199 = AXIS2_PLACEMENT_3D ( 'NONE', #320, #423, #52 ) ;
#200 = PERSON_AND_ORGANIZATION ( #218, #66 ) ;
#201 = CARTESIAN_POINT ( 'NONE',  ( 60.00000000000000000, 3.000000000000000000, 42.50000000000000000 ) ) ;
#202 = ORIENTED_EDGE ( 'NONE', *, *, #195, .T. ) ;
#203 = DIRECTION ( 'NONE',  ( 1.000000000000000000, 0.000000000000000000, -0.000000000000000000 ) ) ;
#204 = ORIENTED_EDGE ( 'NONE', *, *, #342, .F. ) ;
#205 = ORIENTED_EDGE ( 'NONE', *, *, #265, .F. ) ;
#206 = EDGE_CURVE ( 'NONE', #38, #507, #35, .T. ) ;
#207 = CIRCLE ( 'NONE', #108, 1.799999999999999600 ) ;
#208 = AXIS2_PLACEMENT_3D ( 'NONE', #459, #92, #263 ) ;
#209 = PERSON_AND_ORGANIZATION ( #218, #66 ) ;
#210 = CYLINDRICAL_SURFACE ( 'NONE', #506, 1.799999999999999600 ) ;
#211 = CARTESIAN_POINT ( 'NONE',  ( -39.00000000000000000, 5.000000000000000000, 19.50000000000000000 ) ) ;
#212 = EDGE_CURVE ( 'NONE', #302, #182, #418, .T. ) ;
#213 = CC_DESIGN_DATE_AND_TIME_ASSIGNMENT ( #118, #286, ( #313 ) ) ;
#214 = EDGE_CURVE ( 'NONE', #60, #285, #372, .T. ) ;
#215 = CARTESIAN_POINT ( 'NONE',  ( -60.00000000000000000, 0.000000000000000000, 42.50000000000000000 ) ) ;
#216 = AXIS2_PLACEMENT_3D ( 'NONE', #79, #251, #129 ) ;
#217 = FACE_BOUND ( 'NONE', #236, .T. ) ;
#218 = PERSON ( '未指定', '未指定', '未指定', ('未指定'), ('未指定'), ('未指定') ) ;
#219 = CARTESIAN_POINT ( 'NONE',  ( -60.00000000000000000, 3.000000000000000000, 42.50000000000000000 ) ) ;
#220 = VERTEX_POINT ( 'NONE', #76 ) ;
#221 = LINE ( 'NONE', #12, #296 ) ;
#222 = LINE ( 'NONE', #13, #121 ) ;
#223 = ORIENTED_EDGE ( 'NONE', *, *, #376, .F. ) ;
#224 = CARTESIAN_POINT ( 'NONE',  ( -60.00000000000000000, 3.000000000000000000, 42.50000000000000000 ) ) ;
#225 = EDGE_CURVE ( 'NONE', #344, #102, #33, .T. ) ;
#226 = VECTOR ( 'NONE', #229, 1000.000000000000000 ) ;
#227 = CALENDAR_DATE ( 2026, 26, 7 ) ;
#228 = ORIENTED_EDGE ( 'NONE', *, *, #460, .T. ) ;
#229 = DIRECTION ( 'NONE',  ( 0.000000000000000000, 0.000000000000000000, -1.000000000000000000 ) ) ;
#230 =( NAMED_UNIT ( * ) PLANE_ANGLE_UNIT ( ) SI_UNIT ( $, .RADIAN. ) );
#231 = ORIENTED_EDGE ( 'NONE', *, *, #368, .F. ) ;
#232 = ADVANCED_FACE ( 'NONE', ( #532, #407, #449, #156, #162 ), #73, .T. ) ;
#233 = CARTESIAN_POINT ( 'NONE',  ( -39.00000000000000000, 3.000000000000000000, 17.69999999999999929 ) ) ;
#234 = ORIENTED_EDGE ( 'NONE', *, *, #383, .F. ) ;
#235 = AXIS2_PLACEMENT_3D ( 'NONE', #348, #140, #308 ) ;
#236 = EDGE_LOOP ( 'NONE', ( #147, #198 ) ) ;
#237 = CC_DESIGN_APPROVAL ( #477, ( #8 ) ) ;
#238 = CARTESIAN_POINT ( 'NONE',  ( -39.00000000000000000, 5.000000000000000000, -19.50000000000000000 ) ) ;
#239 = PLANE ( 'NONE',  #496 ) ;
#240 = VERTEX_POINT ( 'NONE', #410 ) ;
#241 = PERSON_AND_ORGANIZATION_ROLE ( 'creator' ) ;
#242 = CARTESIAN_POINT ( 'NONE',  ( -60.00000000000000000, 3.000000000000000000, 42.50000000000000000 ) ) ;
#243 = ORIENTED_EDGE ( 'NONE', *, *, #460, .F. ) ;
#244 = SECURITY_CLASSIFICATION_LEVEL ( 'unclassified' ) ;
#245 = CARTESIAN_POINT ( 'NONE',  ( -60.00000000000000000, 3.000000000000000000, -42.50000000000000000 ) ) ;
#246 = ORIENTED_EDGE ( 'NONE', *, *, #531, .T. ) ;
#247 = AXIS2_PLACEMENT_3D ( 'NONE', #242, #523, #278 ) ;
#248 = CC_DESIGN_APPROVAL ( #521, ( #313 ) ) ;
#249 = CARTESIAN_POINT ( 'NONE',  ( -39.00000000000000000, 3.000000000000000000, 19.50000000000000000 ) ) ;
#250 = ORIENTED_EDGE ( 'NONE', *, *, #454, .T. ) ;
#251 = DIRECTION ( 'NONE',  ( 0.000000000000000000, 1.000000000000000000, 0.000000000000000000 ) ) ;
#252 = VERTEX_POINT ( 'NONE', #255 ) ;
#253 = FACE_OUTER_BOUND ( 'NONE', #283, .T. ) ;
#254 = VECTOR ( 'NONE', #94, 1000.000000000000000 ) ;
#255 = CARTESIAN_POINT ( 'NONE',  ( 60.00000000000000000, 0.000000000000000000, -42.50000000000000000 ) ) ;
#256 = APPLICATION_CONTEXT ( 'configuration controlled 3d designs of mechanical parts and assemblies' ) ;
#257 = FACE_OUTER_BOUND ( 'NONE', #20, .T. ) ;
#258 = DIRECTION ( 'NONE',  ( 0.000000000000000000, 0.000000000000000000, -1.000000000000000000 ) ) ;
#259 = VECTOR ( 'NONE', #175, 1000.000000000000000 ) ;
#260 = VECTOR ( 'NONE', #453, 1000.000000000000000 ) ;
#261 = CARTESIAN_POINT ( 'NONE',  ( -60.00000000000000000, 3.000000000000000000, 42.50000000000000000 ) ) ;
#262 = ORIENTED_EDGE ( 'NONE', *, *, #271, .F. ) ;
#263 = DIRECTION ( 'NONE',  ( 0.000000000000000000, 0.000000000000000000, 1.000000000000000000 ) ) ;
#264 = CARTESIAN_POINT ( 'NONE',  ( 39.00000000000000000, 3.000000000000000000, -21.30000000000000071 ) ) ;
#265 = EDGE_CURVE ( 'NONE', #307, #507, #328, .T. ) ;
#266 = FACE_OUTER_BOUND ( 'NONE', #112, .T. ) ;
#267 = CYLINDRICAL_SURFACE ( 'NONE', #346, 1.799999999999999600 ) ;
#268 = ORIENTED_EDGE ( 'NONE', *, *, #383, .T. ) ;
#269 = CARTESIAN_POINT ( 'NONE',  ( -60.00000000000000000, 3.000000000000000000, -42.50000000000000000 ) ) ;
#270 = DIRECTION ( 'NONE',  ( -1.000000000000000000, 0.000000000000000000, 0.000000000000000000 ) ) ;
#271 = EDGE_CURVE ( 'NONE', #144, #252, #4, .T. ) ;
#272 = VERTEX_POINT ( 'NONE', #529 ) ;
#273 = EDGE_CURVE ( 'NONE', #60, #520, #22, .T. ) ;
#274 = MECHANICAL_CONTEXT ( 'NONE', #355, 'mechanical' ) ;
#275 = PERSON_AND_ORGANIZATION ( #218, #66 ) ;
#276 = EDGE_LOOP ( 'NONE', ( #192, #448, #163, #318 ) ) ;
#277 = APPROVAL ( #103, '未指定' ) ;
#278 = DIRECTION ( 'NONE',  ( 0.000000000000000000, 0.000000000000000000, -1.000000000000000000 ) ) ;
#279 = CIRCLE ( 'NONE', #444, 1.799999999999999600 ) ;
#280 = ORIENTED_EDGE ( 'NONE', *, *, #180, .F. ) ;
#281 = CARTESIAN_POINT ( 'NONE',  ( 39.00000000000000000, 5.000000000000000000, 21.30000000000000071 ) ) ;
#282 = CARTESIAN_POINT ( 'NONE',  ( -39.00000000000000000, 3.000000000000000000, 21.30000000000000071 ) ) ;
#283 = EDGE_LOOP ( 'NONE', ( #389, #471, #361, #359 ) ) ;
#284 = FACE_BOUND ( 'NONE', #11, .T. ) ;
#285 = VERTEX_POINT ( 'NONE', #287 ) ;
#286 = DATE_TIME_ROLE ( 'classification_date' ) ;
#287 = CARTESIAN_POINT ( 'NONE',  ( -39.00000000000000000, 0.000000000000000000, 21.30000000000000071 ) ) ;
#288 = ORIENTED_EDGE ( 'NONE', *, *, #265, .T. ) ;
#289 = AXIS2_PLACEMENT_3D ( 'NONE', #495, #419, #95 ) ;
#290 = SHAPE_DEFINITION_REPRESENTATION ( #63, #293 ) ;
#291 = DIRECTION ( 'NONE',  ( -0.000000000000000000, -1.000000000000000000, -0.000000000000000000 ) ) ;
#292 = ORIENTED_EDGE ( 'NONE', *, *, #509, .T. ) ;
#293 = ADVANCED_BREP_SHAPE_REPRESENTATION ( 'FN-SUB-001_tilt-reference-plate_R0.1', ( #44, #122 ), #398 ) ;
#294 = CARTESIAN_POINT ( 'NONE',  ( -60.00000000000000000, 0.000000000000000000, 42.50000000000000000 ) ) ;
#295 = DIRECTION ( 'NONE',  ( 0.000000000000000000, 0.000000000000000000, -1.000000000000000000 ) ) ;
#296 = VECTOR ( 'NONE', #179, 1000.000000000000000 ) ;
#297 = DIRECTION ( 'NONE',  ( 0.000000000000000000, -1.000000000000000000, 0.000000000000000000 ) ) ;
#298 = UNCERTAINTY_MEASURE_WITH_UNIT (LENGTH_MEASURE( 1.000000000000000082E-05 ), #515, 'distance_accuracy_value', 'NONE');
#299 = LINE ( 'NONE', #50, #30 ) ;
#300 = EDGE_CURVE ( 'NONE', #302, #80, #56, .T. ) ;
#301 = CARTESIAN_POINT ( 'NONE',  ( 39.00000000000000000, 5.000000000000000000, 19.50000000000000000 ) ) ;
#302 = VERTEX_POINT ( 'NONE', #82 ) ;
#303 = CARTESIAN_POINT ( 'NONE',  ( -39.00000000000000000, 3.000000000000000000, 19.50000000000000000 ) ) ;
#304 = AXIS2_PLACEMENT_3D ( 'NONE', #476, #270, #316 ) ;
#305 = APPROVAL_PERSON_ORGANIZATION ( #200, #477, #128 ) ;
#306 = LINE ( 'NONE', #215, #357 ) ;
#307 = VERTEX_POINT ( 'NONE', #119 ) ;
#308 = DIRECTION ( 'NONE',  ( 0.000000000000000000, 0.000000000000000000, -1.000000000000000000 ) ) ;
#309 = FACE_OUTER_BOUND ( 'NONE', #392, .T. ) ;
#310 = DIRECTION ( 'NONE',  ( 0.000000000000000000, -1.000000000000000000, 0.000000000000000000 ) ) ;
#311 = CYLINDRICAL_SURFACE ( 'NONE', #525, 1.799999999999999600 ) ;
#312 = VECTOR ( 'NONE', #369, 1000.000000000000000 ) ;
#313 = SECURITY_CLASSIFICATION ( '', '', #244 ) ;
#314 = ORIENTED_EDGE ( 'NONE', *, *, #173, .T. ) ;
#315 = ORIENTED_EDGE ( 'NONE', *, *, #39, .F. ) ;
#316 = DIRECTION ( 'NONE',  ( 0.000000000000000000, 0.000000000000000000, 1.000000000000000000 ) ) ;
#317 = DIRECTION ( 'NONE',  ( -0.000000000000000000, 1.000000000000000000, -0.000000000000000000 ) ) ;
#318 = ORIENTED_EDGE ( 'NONE', *, *, #173, .F. ) ;
#319 = DIRECTION ( 'NONE',  ( 1.000000000000000000, 0.000000000000000000, 0.000000000000000000 ) ) ;
#320 = CARTESIAN_POINT ( 'NONE',  ( -39.00000000000000000, 5.000000000000000000, -19.50000000000000000 ) ) ;
#321 = CIRCLE ( 'NONE', #289, 1.799999999999999600 ) ;
#322 = VERTEX_POINT ( 'NONE', #167 ) ;
#323 = CARTESIAN_POINT ( 'NONE',  ( -39.00000000000000000, 5.000000000000000000, -17.69999999999999929 ) ) ;
#324 = EDGE_LOOP ( 'NONE', ( #292, #512 ) ) ;
#325 = DIRECTION ( 'NONE',  ( 0.000000000000000000, -1.000000000000000000, 0.000000000000000000 ) ) ;
#326 = EDGE_LOOP ( 'NONE', ( #427, #29 ) ) ;
#327 = ADVANCED_FACE ( 'NONE', ( #415 ), #333, .F. ) ;
#328 = LINE ( 'NONE', #201, #312 ) ;
#329 = ORIENTED_EDGE ( 'NONE', *, *, #18, .T. ) ;
#330 = VECTOR ( 'NONE', #123, 1000.000000000000000 ) ;
#331 = ADVANCED_FACE ( 'NONE', ( #253 ), #210, .F. ) ;
#332 = COORDINATED_UNIVERSAL_TIME_OFFSET ( 8, 0, .AHEAD. ) ;
#333 = CYLINDRICAL_SURFACE ( 'NONE', #490, 1.799999999999999600 ) ;
#334 = APPROVAL_ROLE ( '' ) ;
#335 = DIRECTION ( 'NONE',  ( 0.000000000000000000, -1.000000000000000000, 0.000000000000000000 ) ) ;
#336 = CARTESIAN_POINT ( 'NONE',  ( 39.00000000000000000, 0.000000000000000000, 19.50000000000000000 ) ) ;
#337 = ADVANCED_FACE ( 'NONE', ( #451, #284, #5, #217, #134 ), #379, .F. ) ;
#338 = CIRCLE ( 'NONE', #98, 1.799999999999999600 ) ;
#339 = AXIS2_PLACEMENT_3D ( 'NONE', #413, #37, #485 ) ;
#340 = DIRECTION ( 'NONE',  ( 0.000000000000000000, 0.000000000000000000, -1.000000000000000000 ) ) ;
#341 = CARTESIAN_POINT ( 'NONE',  ( -39.00000000000000000, 3.000000000000000000, -17.69999999999999929 ) ) ;
#342 = EDGE_CURVE ( 'NONE', #240, #38, #510, .T. ) ;
#343 = DIRECTION ( 'NONE',  ( 0.000000000000000000, -1.000000000000000000, 0.000000000000000000 ) ) ;
#344 = VERTEX_POINT ( 'NONE', #341 ) ;
#345 = CARTESIAN_POINT ( 'NONE',  ( 39.00000000000000000, 0.000000000000000000, 17.69999999999999929 ) ) ;
#346 = AXIS2_PLACEMENT_3D ( 'NONE', #301, #343, #503 ) ;
#347 = LOCAL_TIME ( 1, 59, 54.00000000000000000, #19 ) ;
#348 = CARTESIAN_POINT ( 'NONE',  ( -39.00000000000000000, 3.000000000000000000, -19.50000000000000000 ) ) ;
#349 = ORIENTED_EDGE ( 'NONE', *, *, #342, .T. ) ;
#350 = DIRECTION ( 'NONE',  ( -1.000000000000000000, 0.000000000000000000, -0.000000000000000000 ) ) ;
#351 = CARTESIAN_POINT ( 'NONE',  ( 60.00000000000000000, 0.000000000000000000, 42.50000000000000000 ) ) ;
#352 = CARTESIAN_POINT ( 'NONE',  ( 39.00000000000000000, 3.000000000000000000, 19.50000000000000000 ) ) ;
#353 = APPROVAL_DATE_TIME ( #55, #277 ) ;
#354 = ORIENTED_EDGE ( 'NONE', *, *, #18, .F. ) ;
#355 = APPLICATION_CONTEXT ( 'configuration controlled 3d designs of mechanical parts and assemblies' ) ;
#356 = DIRECTION ( 'NONE',  ( 0.000000000000000000, 0.000000000000000000, -1.000000000000000000 ) ) ;
#357 = VECTOR ( 'NONE', #48, 1000.000000000000000 ) ;
#358 = LOCAL_TIME ( 1, 59, 54.00000000000000000, #406 ) ;
#359 = ORIENTED_EDGE ( 'NONE', *, *, #196, .F. ) ;
#360 = COORDINATED_UNIVERSAL_TIME_OFFSET ( 8, 0, .AHEAD. ) ;
#361 = ORIENTED_EDGE ( 'NONE', *, *, #497, .T. ) ;
#362 = EDGE_CURVE ( 'NONE', #120, #432, #381, .T. ) ;
#363 = CYLINDRICAL_SURFACE ( 'NONE', #199, 1.799999999999999600 ) ;
#364 = EDGE_LOOP ( 'NONE', ( #474, #445, #524, #160 ) ) ;
#365 = LINE ( 'NONE', #374, #7 ) ;
#366 = VECTOR ( 'NONE', #291, 1000.000000000000000 ) ;
#367 = ORIENTED_EDGE ( 'NONE', *, *, #214, .F. ) ;
#368 = EDGE_CURVE ( 'NONE', #507, #252, #299, .T. ) ;
#369 = DIRECTION ( 'NONE',  ( -0.000000000000000000, -1.000000000000000000, -0.000000000000000000 ) ) ;
#370 = ORIENTED_EDGE ( 'NONE', *, *, #378, .F. ) ;
#371 = PERSON_AND_ORGANIZATION_ROLE ( 'classification_officer' ) ;
#372 = LINE ( 'NONE', #377, #408 ) ;
#373 = EDGE_LOOP ( 'NONE', ( #194, #204, #51, #441 ) ) ;
#374 = CARTESIAN_POINT ( 'NONE',  ( -60.00000000000000000, 3.000000000000000000, -42.50000000000000000 ) ) ;
#375 = VECTOR ( 'NONE', #42, 1000.000000000000000 ) ;
#376 = EDGE_CURVE ( 'NONE', #240, #307, #499, .T. ) ;
#377 = CARTESIAN_POINT ( 'NONE',  ( -39.00000000000000000, 5.000000000000000000, 21.30000000000000071 ) ) ;
#378 = EDGE_CURVE ( 'NONE', #182, #220, #516, .T. ) ;
#379 = PLANE ( 'NONE',  #488 ) ;
#380 = CARTESIAN_POINT ( 'NONE',  ( 39.00000000000000000, 5.000000000000000000, -17.69999999999999929 ) ) ;
#381 = CIRCLE ( 'NONE', #41, 1.799999999999999600 ) ;
#382 = CARTESIAN_POINT ( 'NONE',  ( -60.00000000000000000, 3.000000000000000000, 42.50000000000000000 ) ) ;
#383 = EDGE_CURVE ( 'NONE', #414, #344, #321, .T. ) ;
#384 = DIRECTION ( 'NONE',  ( 0.000000000000000000, -0.000000000000000000, -1.000000000000000000 ) ) ;
#385 = ORIENTED_EDGE ( 'NONE', *, *, #386, .T. ) ;
#386 = EDGE_CURVE ( 'NONE', #115, #240, #422, .T. ) ;
#387 = CARTESIAN_POINT ( 'NONE',  ( -39.00000000000000000, 0.000000000000000000, 17.69999999999999929 ) ) ;
#388 = DIRECTION ( 'NONE',  ( 0.000000000000000000, -1.000000000000000000, 0.000000000000000000 ) ) ;
#389 = ORIENTED_EDGE ( 'NONE', *, *, #454, .F. ) ;
#390 = DIRECTION ( 'NONE',  ( 0.000000000000000000, 1.000000000000000000, 0.000000000000000000 ) ) ;
#391 = CC_DESIGN_SECURITY_CLASSIFICATION ( #313, ( #8 ) ) ;
#392 = EDGE_LOOP ( 'NONE', ( #518, #205, #223, #349 ) ) ;
#393 = CARTESIAN_POINT ( 'NONE',  ( -60.00000000000000000, 0.000000000000000000, 42.50000000000000000 ) ) ;
#394 = APPLICATION_PROTOCOL_DEFINITION ( 'international standard', 'config_control_design', 1994, #256 ) ;
#395 = ORIENTED_EDGE ( 'NONE', *, *, #133, .T. ) ;
#396 = CIRCLE ( 'NONE', #421, 1.799999999999999600 ) ;
#397 = FACE_OUTER_BOUND ( 'NONE', #189, .T. ) ;
#398 =( GEOMETRIC_REPRESENTATION_CONTEXT ( 3 ) GLOBAL_UNCERTAINTY_ASSIGNED_CONTEXT ( ( #298 ) ) GLOBAL_UNIT_ASSIGNED_CONTEXT ( ( #515, #230, #67 ) ) REPRESENTATION_CONTEXT ( 'NONE', 'WORKASPACE' ) );
#399 = ORIENTED_EDGE ( 'NONE', *, *, #362, .F. ) ;
#400 = ADVANCED_FACE ( 'NONE', ( #10 ), #267, .F. ) ;
#401 = CARTESIAN_POINT ( 'NONE',  ( 39.00000000000000000, 5.000000000000000000, -19.50000000000000000 ) ) ;
#402 = EDGE_LOOP ( 'NONE', ( #367, #157, #528, #138 ) ) ;
#403 = CALENDAR_DATE ( 2026, 26, 7 ) ;
#404 = DIRECTION ( 'NONE',  ( 0.000000000000000000, 0.000000000000000000, -1.000000000000000000 ) ) ;
#405 = VERTEX_POINT ( 'NONE', #420 ) ;
#406 = COORDINATED_UNIVERSAL_TIME_OFFSET ( 8, 0, .AHEAD. ) ;
#407 = FACE_BOUND ( 'NONE', #439, .T. ) ;
#408 = VECTOR ( 'NONE', #325, 1000.000000000000000 ) ;
#409 = VERTEX_POINT ( 'NONE', #9 ) ;
#410 = CARTESIAN_POINT ( 'NONE',  ( -60.00000000000000000, 3.000000000000000000, 42.50000000000000000 ) ) ;
#411 = ORIENTED_EDGE ( 'NONE', *, *, #450, .F. ) ;
#412 = CC_DESIGN_PERSON_AND_ORGANIZATION_ASSIGNMENT ( #166, #168, ( #8 ) ) ;
#413 = CARTESIAN_POINT ( 'NONE',  ( 39.00000000000000000, 3.000000000000000000, 19.50000000000000000 ) ) ;
#414 = VERTEX_POINT ( 'NONE', #136 ) ;
#415 = FACE_OUTER_BOUND ( 'NONE', #402, .T. ) ;
#416 = AXIS2_PLACEMENT_3D ( 'NONE', #500, #174, #462 ) ;
#417 = AXIS2_PLACEMENT_3D ( 'NONE', #143, #59, #23 ) ;
#418 = LINE ( 'NONE', #447, #75 ) ;
#419 = DIRECTION ( 'NONE',  ( -0.000000000000000000, 1.000000000000000000, -0.000000000000000000 ) ) ;
#420 = CARTESIAN_POINT ( 'NONE',  ( -60.00000000000000000, 0.000000000000000000, -42.50000000000000000 ) ) ;
#421 = AXIS2_PLACEMENT_3D ( 'NONE', #93, #424, #340 ) ;
#422 = LINE ( 'NONE', #219, #259 ) ;
#423 = DIRECTION ( 'NONE',  ( 0.000000000000000000, -1.000000000000000000, 0.000000000000000000 ) ) ;
#424 = DIRECTION ( 'NONE',  ( -0.000000000000000000, 1.000000000000000000, -0.000000000000000000 ) ) ;
#425 = LINE ( 'NONE', #54, #226 ) ;
#426 = DIRECTION ( 'NONE',  ( -0.000000000000000000, 1.000000000000000000, -0.000000000000000000 ) ) ;
#427 = ORIENTED_EDGE ( 'NONE', *, *, #300, .F. ) ;
#428 = CARTESIAN_POINT ( 'NONE',  ( -39.00000000000000000, 0.000000000000000000, -19.50000000000000000 ) ) ;
#429 = CIRCLE ( 'NONE', #145, 1.799999999999999600 ) ;
#430 = APPROVAL_PERSON_ORGANIZATION ( #209, #521, #334 ) ;
#431 = DIRECTION ( 'NONE',  ( 0.000000000000000000, -1.000000000000000000, 0.000000000000000000 ) ) ;
#432 = VERTEX_POINT ( 'NONE', #264 ) ;
#433 = EDGE_LOOP ( 'NONE', ( #27, #329 ) ) ;
#434 = VECTOR ( 'NONE', #96, 1000.000000000000000 ) ;
#435 = CARTESIAN_POINT ( 'NONE',  ( -39.00000000000000000, 0.000000000000000000, -17.69999999999999929 ) ) ;
#436 = ORIENTED_EDGE ( 'NONE', *, *, #466, .F. ) ;
#437 = DATE_AND_TIME ( #403, #358 ) ;
#438 = CARTESIAN_POINT ( 'NONE',  ( -60.00000000000000000, 3.000000000000000000, -42.50000000000000000 ) ) ;
#439 = EDGE_LOOP ( 'NONE', ( #395, #314 ) ) ;
#440 = CARTESIAN_POINT ( 'NONE',  ( 0.000000000000000000, 0.000000000000000000, 0.000000000000000000 ) ) ;
#441 = ORIENTED_EDGE ( 'NONE', *, *, #113, .T. ) ;
#442 = APPROVAL_STATUS ( 'not_yet_approved' ) ;
#443 = DIRECTION ( 'NONE',  ( -0.000000000000000000, 1.000000000000000000, -0.000000000000000000 ) ) ;
#444 = AXIS2_PLACEMENT_3D ( 'NONE', #303, #185, #197 ) ;
#445 = ORIENTED_EDGE ( 'NONE', *, *, #214, .T. ) ;
#446 = PRODUCT_DEFINITION ( '未知', '', #8, #88 ) ;
#447 = CARTESIAN_POINT ( 'NONE',  ( 39.00000000000000000, 5.000000000000000000, 17.69999999999999929 ) ) ;
#448 = ORIENTED_EDGE ( 'NONE', *, *, #466, .T. ) ;
#449 = FACE_BOUND ( 'NONE', #324, .T. ) ;
#450 = EDGE_CURVE ( 'NONE', #405, #38, #306, .T. ) ;
#451 = FACE_BOUND ( 'NONE', #326, .T. ) ;
#452 = AXIS2_PLACEMENT_3D ( 'NONE', #172, #148, #25 ) ;
#453 = DIRECTION ( 'NONE',  ( 1.000000000000000000, 0.000000000000000000, 0.000000000000000000 ) ) ;
#454 = EDGE_CURVE ( 'NONE', #120, #409, #53, .T. ) ;
#455 = DIRECTION ( 'NONE',  ( 0.000000000000000000, 1.000000000000000000, 0.000000000000000000 ) ) ;
#456 = EDGE_CURVE ( 'NONE', #107, #285, #84, .T. ) ;
#457 = CARTESIAN_POINT ( 'NONE',  ( 0.000000000000000000, 3.000000000000000000, 0.000000000000000000 ) ) ;
#458 = AXIS2_PLACEMENT_3D ( 'NONE', #245, #159, #203 ) ;
#459 = CARTESIAN_POINT ( 'NONE',  ( -39.00000000000000000, 0.000000000000000000, -19.50000000000000000 ) ) ;
#460 = EDGE_CURVE ( 'NONE', #432, #120, #396, .T. ) ;
#461 = CC_DESIGN_PERSON_AND_ORGANIZATION_ASSIGNMENT ( #493, #241, ( #8 ) ) ;
#462 = DIRECTION ( 'NONE',  ( 0.000000000000000000, 0.000000000000000000, 1.000000000000000000 ) ) ;
#463 = EDGE_CURVE ( 'NONE', #520, #107, #222, .T. ) ;
#464 = LINE ( 'NONE', #438, #254 ) ;
#465 = FACE_OUTER_BOUND ( 'NONE', #364, .T. ) ;
#466 = EDGE_CURVE ( 'NONE', #344, #414, #164, .T. ) ;
#467 = LINE ( 'NONE', #28, #434 ) ;
#468 = VECTOR ( 'NONE', #6, 1000.000000000000000 ) ;
#469 = PLANE ( 'NONE',  #304 ) ;
#470 = ORIENTED_EDGE ( 'NONE', *, *, #125, .T. ) ;
#471 = ORIENTED_EDGE ( 'NONE', *, *, #362, .T. ) ;
#472 = ADVANCED_FACE ( 'NONE', ( #465 ), #131, .F. ) ;
#473 = CARTESIAN_POINT ( 'NONE',  ( 60.00000000000000000, 3.000000000000000000, -42.50000000000000000 ) ) ;
#474 = ORIENTED_EDGE ( 'NONE', *, *, #117, .T. ) ;
#475 = AXIS2_PLACEMENT_3D ( 'NONE', #440, #494, #481 ) ;
#476 = CARTESIAN_POINT ( 'NONE',  ( 60.00000000000000000, 3.000000000000000000, 42.50000000000000000 ) ) ;
#477 = APPROVAL ( #161, '未指定' ) ;
#478 = DIRECTION ( 'NONE',  ( 0.000000000000000000, 1.000000000000000000, 0.000000000000000000 ) ) ;
#479 = ADVANCED_FACE ( 'NONE', ( #257 ), #46, .F. ) ;
#480 = ORIENTED_EDGE ( 'NONE', *, *, #89, .F. ) ;
#481 = DIRECTION ( 'NONE',  ( 0.000000000000000000, -0.000000000000000000, -1.000000000000000000 ) ) ;
#482 = ORIENTED_EDGE ( 'NONE', *, *, #531, .F. ) ;
#483 = ADVANCED_FACE ( 'NONE', ( #101 ), #311, .F. ) ;
#484 = COORDINATED_UNIVERSAL_TIME_OFFSET ( 8, 0, .AHEAD. ) ;
#485 = DIRECTION ( 'NONE',  ( 0.000000000000000000, 0.000000000000000000, -1.000000000000000000 ) ) ;
#486 = EDGE_LOOP ( 'NONE', ( #385, #504, #58, #202 ) ) ;
#487 = ADVANCED_FACE ( 'NONE', ( #397 ), #469, .F. ) ;
#488 = AXIS2_PLACEMENT_3D ( 'NONE', #457, #132, #384 ) ;
#489 = DIRECTION ( 'NONE',  ( 0.000000000000000000, 0.000000000000000000, -1.000000000000000000 ) ) ;
#490 = AXIS2_PLACEMENT_3D ( 'NONE', #527, #492, #127 ) ;
#491 = ORIENTED_EDGE ( 'NONE', *, *, #133, .F. ) ;
#492 = DIRECTION ( 'NONE',  ( 0.000000000000000000, -1.000000000000000000, 0.000000000000000000 ) ) ;
#493 = PERSON_AND_ORGANIZATION ( #218, #66 ) ;
#494 = DIRECTION ( 'NONE',  ( 0.000000000000000000, -1.000000000000000000, 0.000000000000000000 ) ) ;
#495 = CARTESIAN_POINT ( 'NONE',  ( -39.00000000000000000, 3.000000000000000000, -19.50000000000000000 ) ) ;
#496 = AXIS2_PLACEMENT_3D ( 'NONE', #224, #152, #350 ) ;
#497 = EDGE_CURVE ( 'NONE', #432, #322, #105, .T. ) ;
#498 = CIRCLE ( 'NONE', #216, 1.799999999999999600 ) ;
#499 = LINE ( 'NONE', #261, #260 ) ;
#500 = CARTESIAN_POINT ( 'NONE',  ( -39.00000000000000000, 0.000000000000000000, 19.50000000000000000 ) ) ;
#501 = CC_DESIGN_PERSON_AND_ORGANIZATION_ASSIGNMENT ( #275, #61, ( #446 ) ) ;
#502 = CARTESIAN_POINT ( 'NONE',  ( 39.00000000000000000, 3.000000000000000000, -17.69999999999999929 ) ) ;
#503 = DIRECTION ( 'NONE',  ( 0.000000000000000000, 0.000000000000000000, -1.000000000000000000 ) ) ;
#504 = ORIENTED_EDGE ( 'NONE', *, *, #376, .T. ) ;
#505 = PRODUCT ( 'FN-SUB-001_tilt-reference-plate_R0.1', 'FN-SUB-001_tilt-reference-plate_R0.1', '', ( #274 ) ) ;
#506 = AXIS2_PLACEMENT_3D ( 'NONE', #169, #335, #295 ) ;
#507 = VERTEX_POINT ( 'NONE', #351 ) ;
#508 = LOCAL_TIME ( 1, 59, 54.00000000000000000, #332 ) ;
#509 = EDGE_CURVE ( 'NONE', #322, #409, #165, .T. ) ;
#510 = LINE ( 'NONE', #382, #468 ) ;
#511 = ORIENTED_EDGE ( 'NONE', *, *, #212, .F. ) ;
#512 = ORIENTED_EDGE ( 'NONE', *, *, #196, .T. ) ;
#513 = DATE_AND_TIME ( #227, #155 ) ;
#514 = DIRECTION ( 'NONE',  ( 0.000000000000000000, -1.000000000000000000, 0.000000000000000000 ) ) ;
#515 =( LENGTH_UNIT ( ) NAMED_UNIT ( * ) SI_UNIT ( .MILLI., .METRE. ) );
#516 = CIRCLE ( 'NONE', #100, 1.799999999999999600 ) ;
#517 = DIRECTION ( 'NONE',  ( 0.000000000000000000, -1.000000000000000000, 0.000000000000000000 ) ) ;
#518 = ORIENTED_EDGE ( 'NONE', *, *, #206, .T. ) ;
#519 = LINE ( 'NONE', #281, #16 ) ;
#520 = VERTEX_POINT ( 'NONE', #233 ) ;
#521 = APPROVAL ( #442, '未指定' ) ;
#522 = APPROVAL_ROLE ( '' ) ;
#523 = DIRECTION ( 'NONE',  ( 1.000000000000000000, -0.000000000000000000, 0.000000000000000000 ) ) ;
#524 = ORIENTED_EDGE ( 'NONE', *, *, #456, .F. ) ;
#525 = AXIS2_PLACEMENT_3D ( 'NONE', #238, #431, #356 ) ;
#526 = VECTOR ( 'NONE', #517, 1000.000000000000000 ) ;
#527 = CARTESIAN_POINT ( 'NONE',  ( -39.00000000000000000, 5.000000000000000000, 19.50000000000000000 ) ) ;
#528 = ORIENTED_EDGE ( 'NONE', *, *, #463, .T. ) ;
#529 = CARTESIAN_POINT ( 'NONE',  ( -39.00000000000000000, 0.000000000000000000, -21.30000000000000071 ) ) ;
#530 = EDGE_LOOP ( 'NONE', ( #482, #470, #533, #354 ) ) ;
#531 = EDGE_CURVE ( 'NONE', #80, #220, #519, .T. ) ;
#532 = FACE_BOUND ( 'NONE', #433, .T. ) ;
#533 = ORIENTED_EDGE ( 'NONE', *, *, #212, .T. ) ;
ENDSEC;
END-ISO-10303-21;
