ISO-10303-21;
HEADER;
FILE_DESCRIPTION (( 'STEP AP203' ),
    '1' );
FILE_NAME ('FN-SOL-001_swm10w-panel-envelope_R0.1.STEP',
    '2026-07-25T18:00:27',
    ( '' ),
    ( '' ),
    'SwSTEP 2.0',
    'SolidWorks 2022',
    '' );
FILE_SCHEMA (( 'CONFIG_CONTROL_DESIGN' ));
ENDSEC;

DATA;
#1 = CALENDAR_DATE ( 2026, 26, 7 ) ;
#2 = CARTESIAN_POINT ( 'NONE',  ( -145.0000000000000000, 17.00000000000000000, 120.0000000000000000 ) ) ;
#3 = CARTESIAN_POINT ( 'NONE',  ( 0.000000000000000000, 0.000000000000000000, 0.000000000000000000 ) ) ;
#4 = EDGE_CURVE ( 'NONE', #113, #41, #24, .T. ) ;
#5 = VECTOR ( 'NONE', #163, 1000.000000000000000 ) ;
#6 = LOCAL_TIME ( 2, 0, 27.00000000000000000, #116 ) ;
#7 = CARTESIAN_POINT ( 'NONE',  ( -145.0000000000000000, 0.000000000000000000, 120.0000000000000000 ) ) ;
#8 = ORIENTED_EDGE ( 'NONE', *, *, #231, .T. ) ;
#9 = AXIS2_PLACEMENT_3D ( 'NONE', #68, #213, #219 ) ;
#10 = ORIENTED_EDGE ( 'NONE', *, *, #150, .T. ) ;
#11 = ORIENTED_EDGE ( 'NONE', *, *, #130, .F. ) ;
#12 = PLANE ( 'NONE',  #157 ) ;
#13 = CARTESIAN_POINT ( 'NONE',  ( -145.0000000000000000, 0.000000000000000000, -120.0000000000000000 ) ) ;
#14 = ORIENTED_EDGE ( 'NONE', *, *, #4, .F. ) ;
#15 = CARTESIAN_POINT ( 'NONE',  ( 145.0000000000000000, 0.000000000000000000, 120.0000000000000000 ) ) ;
#16 = PERSON_AND_ORGANIZATION_ROLE ( 'design_supplier' ) ;
#17 = DIRECTION ( 'NONE',  ( 0.000000000000000000, 0.000000000000000000, 1.000000000000000000 ) ) ;
#18 = DATE_AND_TIME ( #133, #6 ) ;
#19 = PERSON_AND_ORGANIZATION_ROLE ( 'classification_officer' ) ;
#20 = ADVANCED_FACE ( 'NONE', ( #46 ), #58, .T. ) ;
#21 = APPROVAL ( #25, '未指定' ) ;
#22 = CC_DESIGN_APPROVAL ( #38, ( #186 ) ) ;
#23 = EDGE_CURVE ( 'NONE', #42, #228, #149, .T. ) ;
#24 = LINE ( 'NONE', #78, #106 ) ;
#25 = APPROVAL_STATUS ( 'not_yet_approved' ) ;
#26 = ORIENTED_EDGE ( 'NONE', *, *, #223, .T. ) ;
#27 = LINE ( 'NONE', #13, #167 ) ;
#28 = ADVANCED_FACE ( 'NONE', ( #111 ), #40, .F. ) ;
#29 = DIRECTION ( 'NONE',  ( -0.000000000000000000, -1.000000000000000000, -0.000000000000000000 ) ) ;
#30 = VECTOR ( 'NONE', #136, 1000.000000000000000 ) ;
#31 = LINE ( 'NONE', #47, #66 ) ;
#32 = PERSON_AND_ORGANIZATION_ROLE ( 'creator' ) ;
#33 = LINE ( 'NONE', #62, #76 ) ;
#34 = APPLICATION_CONTEXT ( 'configuration controlled 3d designs of mechanical parts and assemblies' ) ;
#35 = PERSON_AND_ORGANIZATION ( #145, #147 ) ;
#36 = CARTESIAN_POINT ( 'NONE',  ( -145.0000000000000000, 17.00000000000000000, -120.0000000000000000 ) ) ;
#37 = COORDINATED_UNIVERSAL_TIME_OFFSET ( 8, 0, .AHEAD. ) ;
#38 = APPROVAL ( #108, '未指定' ) ;
#39 = LOCAL_TIME ( 2, 0, 27.00000000000000000, #121 ) ;
#40 = PLANE ( 'NONE',  #49 ) ;
#41 = VERTEX_POINT ( 'NONE', #187 ) ;
#42 = VERTEX_POINT ( 'NONE', #185 ) ;
#43 = PRODUCT_DEFINITION ( '未知', '', #186, #71 ) ;
#44 = ORIENTED_EDGE ( 'NONE', *, *, #73, .T. ) ;
#45 = PERSON_AND_ORGANIZATION ( #145, #147 ) ;
#46 = FACE_OUTER_BOUND ( 'NONE', #192, .T. ) ;
#47 = CARTESIAN_POINT ( 'NONE',  ( -145.0000000000000000, 17.00000000000000000, 120.0000000000000000 ) ) ;
#48 = CARTESIAN_POINT ( 'NONE',  ( 0.000000000000000000, 17.00000000000000000, 0.000000000000000000 ) ) ;
#49 = AXIS2_PLACEMENT_3D ( 'NONE', #131, #112, #148 ) ;
#50 = CARTESIAN_POINT ( 'NONE',  ( 145.0000000000000000, 17.00000000000000000, 120.0000000000000000 ) ) ;
#51 = PERSON_AND_ORGANIZATION ( #145, #147 ) ;
#52 = FACE_OUTER_BOUND ( 'NONE', #188, .T. ) ;
#53 = PERSON_AND_ORGANIZATION ( #145, #147 ) ;
#54 = CC_DESIGN_PERSON_AND_ORGANIZATION_ASSIGNMENT ( #45, #221, ( #43 ) ) ;
#55 = EDGE_CURVE ( 'NONE', #228, #169, #93, .T. ) ;
#56 = LOCAL_TIME ( 2, 0, 27.00000000000000000, #218 ) ;
#57 = CARTESIAN_POINT ( 'NONE',  ( -145.0000000000000000, 17.00000000000000000, -120.0000000000000000 ) ) ;
#58 = PLANE ( 'NONE',  #182 ) ;
#59 = CC_DESIGN_DATE_AND_TIME_ASSIGNMENT ( #127, #209, ( #174 ) ) ;
#60 = CALENDAR_DATE ( 2026, 26, 7 ) ;
#61 = EDGE_LOOP ( 'NONE', ( #137, #117, #11, #233 ) ) ;
#62 = CARTESIAN_POINT ( 'NONE',  ( 145.0000000000000000, 0.000000000000000000, 120.0000000000000000 ) ) ;
#63 = CARTESIAN_POINT ( 'NONE',  ( 145.0000000000000000, 17.00000000000000000, -120.0000000000000000 ) ) ;
#64 = ORIENTED_EDGE ( 'NONE', *, *, #150, .F. ) ;
#65 = DIRECTION ( 'NONE',  ( 0.000000000000000000, -0.000000000000000000, -1.000000000000000000 ) ) ;
#66 = VECTOR ( 'NONE', #118, 1000.000000000000000 ) ;
#67 = CC_DESIGN_SECURITY_CLASSIFICATION ( #174, ( #186 ) ) ;
#68 = CARTESIAN_POINT ( 'NONE',  ( -145.0000000000000000, 17.00000000000000000, 120.0000000000000000 ) ) ;
#69 = APPLICATION_PROTOCOL_DEFINITION ( 'international standard', 'config_control_design', 1994, #34 ) ;
#70 = APPROVAL_ROLE ( '' ) ;
#71 = DESIGN_CONTEXT ( 'detailed design', #34, 'design' ) ;
#72 = CC_DESIGN_APPROVAL ( #138, ( #43 ) ) ;
#73 = EDGE_CURVE ( 'NONE', #96, #42, #151, .T. ) ;
#74 = MANIFOLD_SOLID_BREP ( '凸台-拉伸1', #129 ) ;
#75 = DIRECTION ( 'NONE',  ( 1.000000000000000000, 0.000000000000000000, 0.000000000000000000 ) ) ;
#76 = VECTOR ( 'NONE', #176, 1000.000000000000000 ) ;
#77 = CC_DESIGN_DATE_AND_TIME_ASSIGNMENT ( #125, #109, ( #43 ) ) ;
#78 = CARTESIAN_POINT ( 'NONE',  ( 145.0000000000000000, 17.00000000000000000, 120.0000000000000000 ) ) ;
#79 = UNCERTAINTY_MEASURE_WITH_UNIT (LENGTH_MEASURE( 1.000000000000000082E-05 ), #161, 'distance_accuracy_value', 'NONE');
#80 = PRODUCT ( 'FN-SOL-001_swm10w-panel-envelope_R0.1', 'FN-SOL-001_swm10w-panel-envelope_R0.1', '', ( #227 ) ) ;
#81 = EDGE_LOOP ( 'NONE', ( #10, #152, #14, #114 ) ) ;
#82 = DIRECTION ( 'NONE',  ( -1.000000000000000000, 0.000000000000000000, -0.000000000000000000 ) ) ;
#83 = PRODUCT_DEFINITION_SHAPE ( 'NONE', 'NONE',  #43 ) ;
#84 = DIRECTION ( 'NONE',  ( -0.000000000000000000, -1.000000000000000000, -0.000000000000000000 ) ) ;
#85 = ORIENTED_EDGE ( 'NONE', *, *, #235, .F. ) ;
#86 =( NAMED_UNIT ( * ) PLANE_ANGLE_UNIT ( ) SI_UNIT ( $, .RADIAN. ) );
#87 = LINE ( 'NONE', #211, #30 ) ;
#88 = DATE_AND_TIME ( #123, #90 ) ;
#89 = CARTESIAN_POINT ( 'NONE',  ( -145.0000000000000000, 17.00000000000000000, 120.0000000000000000 ) ) ;
#90 = LOCAL_TIME ( 2, 0, 27.00000000000000000, #37 ) ;
#91 = APPROVAL_ROLE ( '' ) ;
#92 = VECTOR ( 'NONE', #98, 1000.000000000000000 ) ;
#93 = LINE ( 'NONE', #7, #183 ) ;
#94 = EDGE_CURVE ( 'NONE', #113, #169, #232, .T. ) ;
#95 = ORIENTED_EDGE ( 'NONE', *, *, #4, .T. ) ;
#96 = VERTEX_POINT ( 'NONE', #122 ) ;
#97 = CALENDAR_DATE ( 2026, 26, 7 ) ;
#98 = DIRECTION ( 'NONE',  ( -0.000000000000000000, -0.000000000000000000, 1.000000000000000000 ) ) ;
#99 = ORIENTED_EDGE ( 'NONE', *, *, #23, .F. ) ;
#100 =( NAMED_UNIT ( * ) SI_UNIT ( $, .STERADIAN. ) SOLID_ANGLE_UNIT ( ) );
#101 = DIRECTION ( 'NONE',  ( -1.000000000000000000, -0.000000000000000000, -0.000000000000000000 ) ) ;
#102 = PLANE ( 'NONE',  #126 ) ;
#103 = CC_DESIGN_PERSON_AND_ORGANIZATION_ASSIGNMENT ( #144, #19, ( #174 ) ) ;
#104 = CARTESIAN_POINT ( 'NONE',  ( 145.0000000000000000, 0.000000000000000000, -120.0000000000000000 ) ) ;
#105 = PERSON_AND_ORGANIZATION ( #145, #147 ) ;
#106 = VECTOR ( 'NONE', #225, 1000.000000000000000 ) ;
#107 = AXIS2_PLACEMENT_3D ( 'NONE', #3, #193, #139 ) ;
#108 = APPROVAL_STATUS ( 'not_yet_approved' ) ;
#109 = DATE_TIME_ROLE ( 'creation_date' ) ;
#110 = ADVANCED_FACE ( 'NONE', ( #200 ), #12, .F. ) ;
#111 = FACE_OUTER_BOUND ( 'NONE', #81, .T. ) ;
#112 = DIRECTION ( 'NONE',  ( -1.000000000000000000, 0.000000000000000000, 0.000000000000000000 ) ) ;
#113 = VERTEX_POINT ( 'NONE', #229 ) ;
#114 = ORIENTED_EDGE ( 'NONE', *, *, #94, .T. ) ;
#115 = ORIENTED_EDGE ( 'NONE', *, *, #223, .F. ) ;
#116 = COORDINATED_UNIVERSAL_TIME_OFFSET ( 8, 0, .AHEAD. ) ;
#117 = ORIENTED_EDGE ( 'NONE', *, *, #94, .F. ) ;
#118 = DIRECTION ( 'NONE',  ( -0.000000000000000000, -1.000000000000000000, -0.000000000000000000 ) ) ;
#119 = ORIENTED_EDGE ( 'NONE', *, *, #231, .F. ) ;
#120 = DIRECTION ( 'NONE',  ( 1.000000000000000000, 0.000000000000000000, -0.000000000000000000 ) ) ;
#121 = COORDINATED_UNIVERSAL_TIME_OFFSET ( 8, 0, .AHEAD. ) ;
#122 = CARTESIAN_POINT ( 'NONE',  ( -145.0000000000000000, 17.00000000000000000, -120.0000000000000000 ) ) ;
#123 = CALENDAR_DATE ( 2026, 26, 7 ) ;
#124 = DIRECTION ( 'NONE',  ( 0.000000000000000000, -1.000000000000000000, 0.000000000000000000 ) ) ;
#125 = DATE_AND_TIME ( #97, #164 ) ;
#126 = AXIS2_PLACEMENT_3D ( 'NONE', #175, #197, #82 ) ;
#127 = DATE_AND_TIME ( #60, #56 ) ;
#128 = APPROVAL_PERSON_ORGANIZATION ( #201, #138, #91 ) ;
#129 = CLOSED_SHELL ( 'NONE', ( #184, #165, #28, #110, #206, #20 ) ) ;
#130 = EDGE_CURVE ( 'NONE', #153, #113, #87, .T. ) ;
#131 = CARTESIAN_POINT ( 'NONE',  ( 145.0000000000000000, 17.00000000000000000, 120.0000000000000000 ) ) ;
#132 = CARTESIAN_POINT ( 'NONE',  ( 0.000000000000000000, 0.000000000000000000, 0.000000000000000000 ) ) ;
#133 = CALENDAR_DATE ( 2026, 26, 7 ) ;
#134 = ORIENTED_EDGE ( 'NONE', *, *, #168, .F. ) ;
#135 = CARTESIAN_POINT ( 'NONE',  ( -145.0000000000000000, 0.000000000000000000, 120.0000000000000000 ) ) ;
#136 = DIRECTION ( 'NONE',  ( 1.000000000000000000, 0.000000000000000000, 0.000000000000000000 ) ) ;
#137 = ORIENTED_EDGE ( 'NONE', *, *, #55, .T. ) ;
#138 = APPROVAL ( #177, '未指定' ) ;
#139 = DIRECTION ( 'NONE',  ( 1.000000000000000000, 0.000000000000000000, 0.000000000000000000 ) ) ;
#140 = AXIS2_PLACEMENT_3D ( 'NONE', #48, #124, #65 ) ;
#141 = LINE ( 'NONE', #89, #214 ) ;
#142 = APPLICATION_CONTEXT ( 'configuration controlled 3d designs of mechanical parts and assemblies' ) ;
#143 = APPROVAL_DATE_TIME ( #88, #138 ) ;
#144 = PERSON_AND_ORGANIZATION ( #145, #147 ) ;
#145 = PERSON ( '未指定', '未指定', '未指定', ('未指定'), ('未指定'), ('未指定') ) ;
#146 = CC_DESIGN_PERSON_AND_ORGANIZATION_ASSIGNMENT ( #105, #16, ( #186 ) ) ;
#147 = ORGANIZATION ( '未指定', '未指定', '' ) ;
#148 = DIRECTION ( 'NONE',  ( 0.000000000000000000, 0.000000000000000000, 1.000000000000000000 ) ) ;
#149 = LINE ( 'NONE', #207, #92 ) ;
#150 = EDGE_CURVE ( 'NONE', #169, #160, #33, .T. ) ;
#151 = LINE ( 'NONE', #57, #5 ) ;
#152 = ORIENTED_EDGE ( 'NONE', *, *, #212, .F. ) ;
#153 = VERTEX_POINT ( 'NONE', #2 ) ;
#154 = APPLICATION_PROTOCOL_DEFINITION ( 'international standard', 'config_control_design', 1994, #142 ) ;
#155 = ORIENTED_EDGE ( 'NONE', *, *, #73, .F. ) ;
#156 = CARTESIAN_POINT ( 'NONE',  ( -145.0000000000000000, 17.00000000000000000, -120.0000000000000000 ) ) ;
#157 = AXIS2_PLACEMENT_3D ( 'NONE', #156, #17, #120 ) ;
#158 = ORIENTED_EDGE ( 'NONE', *, *, #55, .F. ) ;
#159 = DIRECTION ( 'NONE',  ( -0.000000000000000000, -0.000000000000000000, 1.000000000000000000 ) ) ;
#160 = VERTEX_POINT ( 'NONE', #104 ) ;
#161 =( LENGTH_UNIT ( ) NAMED_UNIT ( * ) SI_UNIT ( .MILLI., .METRE. ) );
#162 = COORDINATED_UNIVERSAL_TIME_OFFSET ( 8, 0, .AHEAD. ) ;
#163 = DIRECTION ( 'NONE',  ( -0.000000000000000000, -1.000000000000000000, -0.000000000000000000 ) ) ;
#164 = LOCAL_TIME ( 2, 0, 27.00000000000000000, #162 ) ;
#165 = ADVANCED_FACE ( 'NONE', ( #198 ), #102, .F. ) ;
#166 = VECTOR ( 'NONE', #234, 1000.000000000000000 ) ;
#167 = VECTOR ( 'NONE', #101, 1000.000000000000000 ) ;
#168 = EDGE_CURVE ( 'NONE', #96, #153, #141, .T. ) ;
#169 = VERTEX_POINT ( 'NONE', #15 ) ;
#170 = SHAPE_DEFINITION_REPRESENTATION ( #83, #236 ) ;
#171 = PLANE ( 'NONE',  #140 ) ;
#172 = LINE ( 'NONE', #63, #230 ) ;
#173 = ORIENTED_EDGE ( 'NONE', *, *, #212, .T. ) ;
#174 = SECURITY_CLASSIFICATION ( '', '', #203 ) ;
#175 = CARTESIAN_POINT ( 'NONE',  ( -145.0000000000000000, 17.00000000000000000, 120.0000000000000000 ) ) ;
#176 = DIRECTION ( 'NONE',  ( 0.000000000000000000, 0.000000000000000000, -1.000000000000000000 ) ) ;
#177 = APPROVAL_STATUS ( 'not_yet_approved' ) ;
#178 = PLANE ( 'NONE',  #9 ) ;
#179 = APPROVAL_DATE_TIME ( #199, #38 ) ;
#180 = PERSON_AND_ORGANIZATION ( #145, #147 ) ;
#181 = CC_DESIGN_PERSON_AND_ORGANIZATION_ASSIGNMENT ( #51, #216, ( #80 ) ) ;
#182 = AXIS2_PLACEMENT_3D ( 'NONE', #132, #208, #194 ) ;
#183 = VECTOR ( 'NONE', #75, 1000.000000000000000 ) ;
#184 = ADVANCED_FACE ( 'NONE', ( #202 ), #178, .F. ) ;
#185 = CARTESIAN_POINT ( 'NONE',  ( -145.0000000000000000, 0.000000000000000000, -120.0000000000000000 ) ) ;
#186 = PRODUCT_DEFINITION_FORMATION_WITH_SPECIFIED_SOURCE ( '任何', '', #80, .NOT_KNOWN. ) ;
#187 = CARTESIAN_POINT ( 'NONE',  ( 145.0000000000000000, 17.00000000000000000, -120.0000000000000000 ) ) ;
#188 = EDGE_LOOP ( 'NONE', ( #190, #210, #95, #26 ) ) ;
#189 = CC_DESIGN_PERSON_AND_ORGANIZATION_ASSIGNMENT ( #180, #32, ( #186 ) ) ;
#190 = ORIENTED_EDGE ( 'NONE', *, *, #168, .T. ) ;
#191 =( GEOMETRIC_REPRESENTATION_CONTEXT ( 3 ) GLOBAL_UNCERTAINTY_ASSIGNED_CONTEXT ( ( #79 ) ) GLOBAL_UNIT_ASSIGNED_CONTEXT ( ( #161, #86, #100 ) ) REPRESENTATION_CONTEXT ( 'NONE', 'WORKASPACE' ) );
#192 = EDGE_LOOP ( 'NONE', ( #99, #119, #64, #158 ) ) ;
#193 = DIRECTION ( 'NONE',  ( 0.000000000000000000, 0.000000000000000000, 1.000000000000000000 ) ) ;
#194 = DIRECTION ( 'NONE',  ( 0.000000000000000000, -0.000000000000000000, -1.000000000000000000 ) ) ;
#195 = EDGE_LOOP ( 'NONE', ( #8, #155, #115, #173 ) ) ;
#196 = EDGE_LOOP ( 'NONE', ( #226, #85, #134, #44 ) ) ;
#197 = DIRECTION ( 'NONE',  ( 0.000000000000000000, 0.000000000000000000, -1.000000000000000000 ) ) ;
#198 = FACE_OUTER_BOUND ( 'NONE', #61, .T. ) ;
#199 = DATE_AND_TIME ( #1, #39 ) ;
#200 = FACE_OUTER_BOUND ( 'NONE', #195, .T. ) ;
#201 = PERSON_AND_ORGANIZATION ( #145, #147 ) ;
#202 = FACE_OUTER_BOUND ( 'NONE', #196, .T. ) ;
#203 = SECURITY_CLASSIFICATION_LEVEL ( 'unclassified' ) ;
#204 = VECTOR ( 'NONE', #84, 1000.000000000000000 ) ;
#205 = APPROVAL_ROLE ( '' ) ;
#206 = ADVANCED_FACE ( 'NONE', ( #52 ), #171, .F. ) ;
#207 = CARTESIAN_POINT ( 'NONE',  ( -145.0000000000000000, 0.000000000000000000, 120.0000000000000000 ) ) ;
#208 = DIRECTION ( 'NONE',  ( 0.000000000000000000, -1.000000000000000000, 0.000000000000000000 ) ) ;
#209 = DATE_TIME_ROLE ( 'classification_date' ) ;
#210 = ORIENTED_EDGE ( 'NONE', *, *, #130, .T. ) ;
#211 = CARTESIAN_POINT ( 'NONE',  ( -145.0000000000000000, 17.00000000000000000, 120.0000000000000000 ) ) ;
#212 = EDGE_CURVE ( 'NONE', #41, #160, #172, .T. ) ;
#213 = DIRECTION ( 'NONE',  ( 1.000000000000000000, -0.000000000000000000, 0.000000000000000000 ) ) ;
#214 = VECTOR ( 'NONE', #159, 1000.000000000000000 ) ;
#215 = APPROVAL_PERSON_ORGANIZATION ( #53, #21, #205 ) ;
#216 = PERSON_AND_ORGANIZATION_ROLE ( 'design_owner' ) ;
#217 = PRODUCT_RELATED_PRODUCT_CATEGORY ( 'detail', '', ( #80 ) ) ;
#218 = COORDINATED_UNIVERSAL_TIME_OFFSET ( 8, 0, .AHEAD. ) ;
#219 = DIRECTION ( 'NONE',  ( 0.000000000000000000, 0.000000000000000000, -1.000000000000000000 ) ) ;
#220 = APPROVAL_DATE_TIME ( #18, #21 ) ;
#221 = PERSON_AND_ORGANIZATION_ROLE ( 'creator' ) ;
#222 = CC_DESIGN_APPROVAL ( #21, ( #174 ) ) ;
#223 = EDGE_CURVE ( 'NONE', #41, #96, #237, .T. ) ;
#224 = APPROVAL_PERSON_ORGANIZATION ( #35, #38, #70 ) ;
#225 = DIRECTION ( 'NONE',  ( 0.000000000000000000, 0.000000000000000000, -1.000000000000000000 ) ) ;
#226 = ORIENTED_EDGE ( 'NONE', *, *, #23, .T. ) ;
#227 = MECHANICAL_CONTEXT ( 'NONE', #142, 'mechanical' ) ;
#228 = VERTEX_POINT ( 'NONE', #135 ) ;
#229 = CARTESIAN_POINT ( 'NONE',  ( 145.0000000000000000, 17.00000000000000000, 120.0000000000000000 ) ) ;
#230 = VECTOR ( 'NONE', #29, 1000.000000000000000 ) ;
#231 = EDGE_CURVE ( 'NONE', #160, #42, #27, .T. ) ;
#232 = LINE ( 'NONE', #50, #204 ) ;
#233 = ORIENTED_EDGE ( 'NONE', *, *, #235, .T. ) ;
#234 = DIRECTION ( 'NONE',  ( -1.000000000000000000, -0.000000000000000000, -0.000000000000000000 ) ) ;
#235 = EDGE_CURVE ( 'NONE', #153, #228, #31, .T. ) ;
#236 = ADVANCED_BREP_SHAPE_REPRESENTATION ( 'FN-SOL-001_swm10w-panel-envelope_R0.1', ( #74, #107 ), #191 ) ;
#237 = LINE ( 'NONE', #36, #166 ) ;
ENDSEC;
END-ISO-10303-21;
