ISO-10303-21;
HEADER;
FILE_DESCRIPTION (( 'STEP AP203' ),
    '1' );
FILE_NAME ('FN-SEN-001_tilt-transmitter-envelope_R0.1.STEP',
    '2026-07-25T18:00:12',
    ( '' ),
    ( '' ),
    'SwSTEP 2.0',
    'SolidWorks 2022',
    '' );
FILE_SCHEMA (( 'CONFIG_CONTROL_DESIGN' ));
ENDSEC;

DATA;
#1 = VERTEX_POINT ( 'NONE', #345 ) ;
#2 = VECTOR ( 'NONE', #416, 1000.000000000000000 ) ;
#3 = EDGE_CURVE ( 'NONE', #120, #1, #129, .T. ) ;
#4 = LINE ( 'NONE', #47, #530 ) ;
#5 = ORIENTED_EDGE ( 'NONE', *, *, #533, .T. ) ;
#6 = DIRECTION ( 'NONE',  ( 0.000000000000000000, -1.000000000000000000, 0.000000000000000000 ) ) ;
#7 = APPROVAL ( #34, '未指定' ) ;
#8 = DIRECTION ( 'NONE',  ( 0.000000000000000000, 0.000000000000000000, 1.000000000000000000 ) ) ;
#9 = DIRECTION ( 'NONE',  ( 0.000000000000000000, 0.000000000000000000, -1.000000000000000000 ) ) ;
#10 = AXIS2_PLACEMENT_3D ( 'NONE', #456, #341, #8 ) ;
#11 = CC_DESIGN_APPROVAL ( #321, ( #262 ) ) ;
#12 = CARTESIAN_POINT ( 'NONE',  ( -45.00000000000000000, 0.000000000000000000, -29.00000000000000000 ) ) ;
#13 = ORIENTED_EDGE ( 'NONE', *, *, #393, .T. ) ;
#14 = FACE_OUTER_BOUND ( 'NONE', #366, .T. ) ;
#15 = LINE ( 'NONE', #58, #362 ) ;
#16 = VERTEX_POINT ( 'NONE', #448 ) ;
#17 = CARTESIAN_POINT ( 'NONE',  ( 39.00000000000000000, 38.00000000000000000, -21.30000000000000071 ) ) ;
#18 = AXIS2_PLACEMENT_3D ( 'NONE', #190, #23, #177 ) ;
#19 = ORIENTED_EDGE ( 'NONE', *, *, #207, .F. ) ;
#20 = COORDINATED_UNIVERSAL_TIME_OFFSET ( 8, 0, .AHEAD. ) ;
#21 =( NAMED_UNIT ( * ) PLANE_ANGLE_UNIT ( ) SI_UNIT ( $, .RADIAN. ) );
#22 = CARTESIAN_POINT ( 'NONE',  ( 39.00000000000000000, 36.00000000000000000, 17.69999999999999929 ) ) ;
#23 = DIRECTION ( 'NONE',  ( -0.000000000000000000, 1.000000000000000000, -0.000000000000000000 ) ) ;
#24 = DIRECTION ( 'NONE',  ( 0.000000000000000000, -1.000000000000000000, 0.000000000000000000 ) ) ;
#25 = DIRECTION ( 'NONE',  ( -0.000000000000000000, 1.000000000000000000, -0.000000000000000000 ) ) ;
#26 = EDGE_CURVE ( 'NONE', #16, #1, #461, .T. ) ;
#27 = AXIS2_PLACEMENT_3D ( 'NONE', #455, #90, #512 ) ;
#28 = APPROVAL_PERSON_ORGANIZATION ( #523, #275, #473 ) ;
#29 = DIRECTION ( 'NONE',  ( -1.000000000000000000, -0.000000000000000000, -0.000000000000000000 ) ) ;
#30 = PERSON_AND_ORGANIZATION ( #408, #509 ) ;
#31 = DIRECTION ( 'NONE',  ( 0.000000000000000000, 0.000000000000000000, 1.000000000000000000 ) ) ;
#32 = CARTESIAN_POINT ( 'NONE',  ( -39.00000000000000000, 0.000000000000000000, -21.30000000000000071 ) ) ;
#33 = ORIENTED_EDGE ( 'NONE', *, *, #402, .T. ) ;
#34 = APPROVAL_STATUS ( 'not_yet_approved' ) ;
#35 = ORIENTED_EDGE ( 'NONE', *, *, #447, .T. ) ;
#36 = ADVANCED_FACE ( 'NONE', ( #476 ), #112, .F. ) ;
#37 = VECTOR ( 'NONE', #301, 1000.000000000000000 ) ;
#38 = EDGE_LOOP ( 'NONE', ( #417, #89, #354, #187 ) ) ;
#39 = EDGE_LOOP ( 'NONE', ( #309, #503, #328, #40 ) ) ;
#40 = ORIENTED_EDGE ( 'NONE', *, *, #433, .F. ) ;
#41 = EDGE_CURVE ( 'NONE', #467, #406, #517, .T. ) ;
#42 = MANIFOLD_SOLID_BREP ( '切除-拉伸1', #484 ) ;
#43 = CIRCLE ( 'NONE', #409, 1.799999999999999600 ) ;
#44 = VERTEX_POINT ( 'NONE', #428 ) ;
#45 = AXIS2_PLACEMENT_3D ( 'NONE', #288, #464, #240 ) ;
#46 = FACE_BOUND ( 'NONE', #401, .T. ) ;
#47 = CARTESIAN_POINT ( 'NONE',  ( 45.00000000000000000, 0.000000000000000000, 29.00000000000000000 ) ) ;
#48 = ORIENTED_EDGE ( 'NONE', *, *, #117, .F. ) ;
#49 = CARTESIAN_POINT ( 'NONE',  ( 45.00000000000000000, 36.00000000000000000, 29.00000000000000000 ) ) ;
#50 = CARTESIAN_POINT ( 'NONE',  ( 39.00000000000000000, 36.00000000000000000, -21.30000000000000071 ) ) ;
#51 = EDGE_CURVE ( 'NONE', #528, #282, #367, .T. ) ;
#52 = LINE ( 'NONE', #459, #174 ) ;
#53 = EDGE_LOOP ( 'NONE', ( #161, #480, #19, #5 ) ) ;
#54 = CARTESIAN_POINT ( 'NONE',  ( -39.00000000000000000, 36.00000000000000000, 19.50000000000000000 ) ) ;
#55 = AXIS2_PLACEMENT_3D ( 'NONE', #67, #188, #434 ) ;
#56 = DIRECTION ( 'NONE',  ( 0.000000000000000000, -1.000000000000000000, 0.000000000000000000 ) ) ;
#57 = DIRECTION ( 'NONE',  ( 0.000000000000000000, 0.000000000000000000, -1.000000000000000000 ) ) ;
#58 = CARTESIAN_POINT ( 'NONE',  ( 45.00000000000000000, 36.00000000000000000, 29.00000000000000000 ) ) ;
#59 = DIRECTION ( 'NONE',  ( 0.000000000000000000, 0.000000000000000000, -1.000000000000000000 ) ) ;
#60 = CYLINDRICAL_SURFACE ( 'NONE', #326, 1.799999999999999600 ) ;
#61 = FACE_OUTER_BOUND ( 'NONE', #389, .T. ) ;
#62 = CIRCLE ( 'NONE', #404, 1.799999999999999600 ) ;
#63 = CIRCLE ( 'NONE', #249, 1.799999999999999600 ) ;
#64 = ADVANCED_FACE ( 'NONE', ( #506, #375, #334, #91, #501 ), #460, .T. ) ;
#65 = LOCAL_TIME ( 2, 0, 12.00000000000000000, #277 ) ;
#66 = DATE_AND_TIME ( #439, #521 ) ;
#67 = CARTESIAN_POINT ( 'NONE',  ( 39.00000000000000000, 36.00000000000000000, -19.50000000000000000 ) ) ;
#68 = ORIENTED_EDGE ( 'NONE', *, *, #71, .T. ) ;
#69 = PERSON_AND_ORGANIZATION_ROLE ( 'creator' ) ;
#70 = DIRECTION ( 'NONE',  ( 0.000000000000000000, 0.000000000000000000, -1.000000000000000000 ) ) ;
#71 = EDGE_CURVE ( 'NONE', #1, #16, #43, .T. ) ;
#72 = VERTEX_POINT ( 'NONE', #379 ) ;
#73 = AXIS2_PLACEMENT_3D ( 'NONE', #49, #414, #378 ) ;
#74 = EDGE_LOOP ( 'NONE', ( #279, #235, #118, #218 ) ) ;
#75 = APPROVAL_DATE_TIME ( #518, #321 ) ;
#76 = VERTEX_POINT ( 'NONE', #140 ) ;
#77 = EDGE_CURVE ( 'NONE', #364, #154, #62, .T. ) ;
#78 = ORIENTED_EDGE ( 'NONE', *, *, #393, .F. ) ;
#79 = VECTOR ( 'NONE', #222, 1000.000000000000000 ) ;
#80 = VERTEX_POINT ( 'NONE', #136 ) ;
#81 = DESIGN_CONTEXT ( 'detailed design', #440, 'design' ) ;
#82 = VERTEX_POINT ( 'NONE', #247 ) ;
#83 = FACE_OUTER_BOUND ( 'NONE', #39, .T. ) ;
#84 = AXIS2_PLACEMENT_3D ( 'NONE', #208, #122, #368 ) ;
#85 = CARTESIAN_POINT ( 'NONE',  ( -39.00000000000000000, 36.00000000000000000, -21.30000000000000071 ) ) ;
#86 = DIRECTION ( 'NONE',  ( 0.000000000000000000, 1.000000000000000000, 0.000000000000000000 ) ) ;
#87 = EDGE_CURVE ( 'NONE', #141, #485, #162, .T. ) ;
#88 = CYLINDRICAL_SURFACE ( 'NONE', #290, 1.799999999999999600 ) ;
#89 = ORIENTED_EDGE ( 'NONE', *, *, #325, .F. ) ;
#90 = DIRECTION ( 'NONE',  ( 0.000000000000000000, -1.000000000000000000, 0.000000000000000000 ) ) ;
#91 = FACE_BOUND ( 'NONE', #123, .T. ) ;
#92 = CIRCLE ( 'NONE', #55, 1.799999999999999600 ) ;
#93 = ADVANCED_BREP_SHAPE_REPRESENTATION ( 'FN-SEN-001_tilt-transmitter-envelope_R0.1', ( #42, #421 ), #250 ) ;
#94 = CARTESIAN_POINT ( 'NONE',  ( -39.00000000000000000, 38.00000000000000000, 21.30000000000000071 ) ) ;
#95 = ORIENTED_EDGE ( 'NONE', *, *, #114, .T. ) ;
#96 = CARTESIAN_POINT ( 'NONE',  ( 39.00000000000000000, 38.00000000000000000, 19.50000000000000000 ) ) ;
#97 = CARTESIAN_POINT ( 'NONE',  ( -39.00000000000000000, 38.00000000000000000, -17.69999999999999929 ) ) ;
#98 = CIRCLE ( 'NONE', #303, 1.799999999999999600 ) ;
#99 = VERTEX_POINT ( 'NONE', #50 ) ;
#100 = DIRECTION ( 'NONE',  ( 0.000000000000000000, 0.000000000000000000, 1.000000000000000000 ) ) ;
#101 = DIRECTION ( 'NONE',  ( -1.000000000000000000, -0.000000000000000000, -0.000000000000000000 ) ) ;
#102 = ADVANCED_FACE ( 'NONE', ( #255 ), #60, .F. ) ;
#103 = APPROVAL_STATUS ( 'not_yet_approved' ) ;
#104 = DIRECTION ( 'NONE',  ( 0.000000000000000000, 0.000000000000000000, 1.000000000000000000 ) ) ;
#105 = CALENDAR_DATE ( 2026, 26, 7 ) ;
#106 = CC_DESIGN_DATE_AND_TIME_ASSIGNMENT ( #66, #143, ( #262 ) ) ;
#107 = LINE ( 'NONE', #176, #194 ) ;
#108 = ORIENTED_EDGE ( 'NONE', *, *, #482, .F. ) ;
#109 = AXIS2_PLACEMENT_3D ( 'NONE', #468, #223, #297 ) ;
#110 = SECURITY_CLASSIFICATION_LEVEL ( 'unclassified' ) ;
#111 = CARTESIAN_POINT ( 'NONE',  ( -45.00000000000000000, 36.00000000000000000, 29.00000000000000000 ) ) ;
#112 = CYLINDRICAL_SURFACE ( 'NONE', #507, 1.799999999999999600 ) ;
#113 = ORIENTED_EDGE ( 'NONE', *, *, #281, .T. ) ;
#114 = EDGE_CURVE ( 'NONE', #528, #399, #151, .T. ) ;
#115 = DATE_AND_TIME ( #152, #65 ) ;
#116 = ORIENTED_EDGE ( 'NONE', *, *, #26, .F. ) ;
#117 = EDGE_CURVE ( 'NONE', #154, #364, #385, .T. ) ;
#118 = ORIENTED_EDGE ( 'NONE', *, *, #447, .F. ) ;
#119 = AXIS2_PLACEMENT_3D ( 'NONE', #180, #394, #489 ) ;
#120 = VERTEX_POINT ( 'NONE', #219 ) ;
#121 = ORIENTED_EDGE ( 'NONE', *, *, #268, .T. ) ;
#122 = DIRECTION ( 'NONE',  ( 0.000000000000000000, 1.000000000000000000, 0.000000000000000000 ) ) ;
#123 = EDGE_LOOP ( 'NONE', ( #360, #445 ) ) ;
#124 = CARTESIAN_POINT ( 'NONE',  ( -39.00000000000000000, 0.000000000000000000, -19.50000000000000000 ) ) ;
#125 = AXIS2_PLACEMENT_3D ( 'NONE', #111, #144, #149 ) ;
#126 = ADVANCED_FACE ( 'NONE', ( #127 ), #88, .F. ) ;
#127 = FACE_OUTER_BOUND ( 'NONE', #317, .T. ) ;
#128 = CC_DESIGN_PERSON_AND_ORGANIZATION_ASSIGNMENT ( #395, #263, ( #156 ) ) ;
#129 = LINE ( 'NONE', #163, #302 ) ;
#130 = CARTESIAN_POINT ( 'NONE',  ( -45.00000000000000000, 36.00000000000000000, 29.00000000000000000 ) ) ;
#131 = FACE_OUTER_BOUND ( 'NONE', #437, .T. ) ;
#132 = CARTESIAN_POINT ( 'NONE',  ( 0.000000000000000000, 0.000000000000000000, 0.000000000000000000 ) ) ;
#133 = ORIENTED_EDGE ( 'NONE', *, *, #325, .T. ) ;
#134 = DIRECTION ( 'NONE',  ( -0.000000000000000000, -1.000000000000000000, -0.000000000000000000 ) ) ;
#135 = CARTESIAN_POINT ( 'NONE',  ( -39.00000000000000000, 38.00000000000000000, -21.30000000000000071 ) ) ;
#136 = CARTESIAN_POINT ( 'NONE',  ( 45.00000000000000000, 0.000000000000000000, -29.00000000000000000 ) ) ;
#137 = AXIS2_PLACEMENT_3D ( 'NONE', #225, #181, #104 ) ;
#138 = ORIENTED_EDGE ( 'NONE', *, *, #482, .T. ) ;
#139 = CARTESIAN_POINT ( 'NONE',  ( -39.00000000000000000, 38.00000000000000000, 19.50000000000000000 ) ) ;
#140 = CARTESIAN_POINT ( 'NONE',  ( 45.00000000000000000, 36.00000000000000000, -29.00000000000000000 ) ) ;
#141 = VERTEX_POINT ( 'NONE', #413 ) ;
#142 = CARTESIAN_POINT ( 'NONE',  ( 0.000000000000000000, 0.000000000000000000, 0.000000000000000000 ) ) ;
#143 = DATE_TIME_ROLE ( 'classification_date' ) ;
#144 = DIRECTION ( 'NONE',  ( 0.000000000000000000, 0.000000000000000000, -1.000000000000000000 ) ) ;
#145 = VECTOR ( 'NONE', #311, 1000.000000000000000 ) ;
#146 = PERSON_AND_ORGANIZATION_ROLE ( 'classification_officer' ) ;
#147 = CARTESIAN_POINT ( 'NONE',  ( -39.00000000000000000, 36.00000000000000000, 17.69999999999999929 ) ) ;
#148 = ORIENTED_EDGE ( 'NONE', *, *, #478, .F. ) ;
#149 = DIRECTION ( 'NONE',  ( -1.000000000000000000, 0.000000000000000000, -0.000000000000000000 ) ) ;
#150 = VERTEX_POINT ( 'NONE', #12 ) ;
#151 = CIRCLE ( 'NONE', #18, 1.799999999999999600 ) ;
#152 = CALENDAR_DATE ( 2026, 26, 7 ) ;
#153 = EDGE_CURVE ( 'NONE', #72, #80, #4, .T. ) ;
#154 = VERTEX_POINT ( 'NONE', #85 ) ;
#155 = AXIS2_PLACEMENT_3D ( 'NONE', #441, #25, #70 ) ;
#156 = PRODUCT_DEFINITION_FORMATION_WITH_SPECIFIED_SOURCE ( '任何', '', #415, .NOT_KNOWN. ) ;
#157 = ADVANCED_FACE ( 'NONE', ( #322, #215, #327, #46, #490 ), #335, .F. ) ;
#158 = DIRECTION ( 'NONE',  ( 0.000000000000000000, -0.000000000000000000, -1.000000000000000000 ) ) ;
#159 = PLANE ( 'NONE',  #486 ) ;
#160 = FACE_OUTER_BOUND ( 'NONE', #397, .T. ) ;
#161 = ORIENTED_EDGE ( 'NONE', *, *, #153, .T. ) ;
#162 = LINE ( 'NONE', #418, #477 ) ;
#163 = CARTESIAN_POINT ( 'NONE',  ( 39.00000000000000000, 38.00000000000000000, -17.69999999999999929 ) ) ;
#164 = DIRECTION ( 'NONE',  ( 0.000000000000000000, -1.000000000000000000, 0.000000000000000000 ) ) ;
#165 = ORIENTED_EDGE ( 'NONE', *, *, #268, .F. ) ;
#166 = DIRECTION ( 'NONE',  ( 0.000000000000000000, 0.000000000000000000, -1.000000000000000000 ) ) ;
#167 = CARTESIAN_POINT ( 'NONE',  ( -39.00000000000000000, 36.00000000000000000, 21.30000000000000071 ) ) ;
#168 = DIRECTION ( 'NONE',  ( 0.000000000000000000, -1.000000000000000000, 0.000000000000000000 ) ) ;
#169 = EDGE_CURVE ( 'NONE', #488, #150, #504, .T. ) ;
#170 = EDGE_LOOP ( 'NONE', ( #95, #13, #178, #232 ) ) ;
#171 = CARTESIAN_POINT ( 'NONE',  ( -39.00000000000000000, 38.00000000000000000, 19.50000000000000000 ) ) ;
#172 = LINE ( 'NONE', #424, #411 ) ;
#173 = CARTESIAN_POINT ( 'NONE',  ( 39.00000000000000000, 38.00000000000000000, -19.50000000000000000 ) ) ;
#174 = VECTOR ( 'NONE', #210, 1000.000000000000000 ) ;
#175 = EDGE_LOOP ( 'NONE', ( #374, #35, #319, #299 ) ) ;
#176 = CARTESIAN_POINT ( 'NONE',  ( -45.00000000000000000, 0.000000000000000000, 29.00000000000000000 ) ) ;
#177 = DIRECTION ( 'NONE',  ( 0.000000000000000000, 0.000000000000000000, -1.000000000000000000 ) ) ;
#178 = ORIENTED_EDGE ( 'NONE', *, *, #199, .F. ) ;
#179 = LINE ( 'NONE', #224, #79 ) ;
#180 = CARTESIAN_POINT ( 'NONE',  ( -39.00000000000000000, 36.00000000000000000, -19.50000000000000000 ) ) ;
#181 = DIRECTION ( 'NONE',  ( 0.000000000000000000, 1.000000000000000000, 0.000000000000000000 ) ) ;
#182 = PLANE ( 'NONE',  #125 ) ;
#183 = AXIS2_PLACEMENT_3D ( 'NONE', #391, #24, #294 ) ;
#184 = CC_DESIGN_APPROVAL ( #7, ( #156 ) ) ;
#185 = PERSON_AND_ORGANIZATION ( #408, #509 ) ;
#186 = PERSON_AND_ORGANIZATION_ROLE ( 'design_owner' ) ;
#187 = ORIENTED_EDGE ( 'NONE', *, *, #320, .F. ) ;
#188 = DIRECTION ( 'NONE',  ( -0.000000000000000000, 1.000000000000000000, -0.000000000000000000 ) ) ;
#189 = CARTESIAN_POINT ( 'NONE',  ( -45.00000000000000000, 36.00000000000000000, -29.00000000000000000 ) ) ;
#190 = CARTESIAN_POINT ( 'NONE',  ( 39.00000000000000000, 36.00000000000000000, 19.50000000000000000 ) ) ;
#191 = ORIENTED_EDGE ( 'NONE', *, *, #192, .F. ) ;
#192 = EDGE_CURVE ( 'NONE', #99, #16, #286, .T. ) ;
#193 = PERSON_AND_ORGANIZATION_ROLE ( 'creator' ) ;
#194 = VECTOR ( 'NONE', #265, 1000.000000000000000 ) ;
#195 = LOCAL_TIME ( 2, 0, 12.00000000000000000, #266 ) ;
#196 = ADVANCED_FACE ( 'NONE', ( #83 ), #241, .F. ) ;
#197 = ORIENTED_EDGE ( 'NONE', *, *, #199, .T. ) ;
#198 = ORIENTED_EDGE ( 'NONE', *, *, #51, .T. ) ;
#199 = EDGE_CURVE ( 'NONE', #282, #44, #271, .T. ) ;
#200 = CC_DESIGN_DATE_AND_TIME_ASSIGNMENT ( #115, #443, ( #307 ) ) ;
#201 = AXIS2_PLACEMENT_3D ( 'NONE', #54, #258, #9 ) ;
#202 = VECTOR ( 'NONE', #101, 1000.000000000000000 ) ;
#203 = EDGE_LOOP ( 'NONE', ( #338, #68 ) ) ;
#204 = EDGE_CURVE ( 'NONE', #82, #481, #431, .T. ) ;
#205 = DIRECTION ( 'NONE',  ( 0.000000000000000000, -1.000000000000000000, 0.000000000000000000 ) ) ;
#206 = PRODUCT_DEFINITION_SHAPE ( 'NONE', 'NONE',  #307 ) ;
#207 = EDGE_CURVE ( 'NONE', #359, #76, #15, .T. ) ;
#208 = CARTESIAN_POINT ( 'NONE',  ( 39.00000000000000000, 0.000000000000000000, 19.50000000000000000 ) ) ;
#209 = ORIENTED_EDGE ( 'NONE', *, *, #41, .F. ) ;
#210 = DIRECTION ( 'NONE',  ( 0.000000000000000000, -1.000000000000000000, 0.000000000000000000 ) ) ;
#211 = VERTEX_POINT ( 'NONE', #511 ) ;
#212 = CARTESIAN_POINT ( 'NONE',  ( 39.00000000000000000, 38.00000000000000000, 21.30000000000000071 ) ) ;
#213 = VECTOR ( 'NONE', #370, 1000.000000000000000 ) ;
#214 = CARTESIAN_POINT ( 'NONE',  ( 39.00000000000000000, 38.00000000000000000, 17.69999999999999929 ) ) ;
#215 = FACE_BOUND ( 'NONE', #403, .T. ) ;
#216 = DIRECTION ( 'NONE',  ( 0.000000000000000000, 1.000000000000000000, 0.000000000000000000 ) ) ;
#217 = EDGE_CURVE ( 'NONE', #488, #141, #331, .T. ) ;
#218 = ORIENTED_EDGE ( 'NONE', *, *, #87, .T. ) ;
#219 = CARTESIAN_POINT ( 'NONE',  ( 39.00000000000000000, 36.00000000000000000, -17.69999999999999929 ) ) ;
#220 = ORIENTED_EDGE ( 'NONE', *, *, #315, .F. ) ;
#221 = EDGE_LOOP ( 'NONE', ( #197, #532 ) ) ;
#222 = DIRECTION ( 'NONE',  ( 1.000000000000000000, 0.000000000000000000, 0.000000000000000000 ) ) ;
#223 = DIRECTION ( 'NONE',  ( -0.000000000000000000, 1.000000000000000000, -0.000000000000000000 ) ) ;
#224 = CARTESIAN_POINT ( 'NONE',  ( -45.00000000000000000, 0.000000000000000000, 29.00000000000000000 ) ) ;
#225 = CARTESIAN_POINT ( 'NONE',  ( -39.00000000000000000, 0.000000000000000000, -19.50000000000000000 ) ) ;
#226 = CARTESIAN_POINT ( 'NONE',  ( -39.00000000000000000, 0.000000000000000000, 17.69999999999999929 ) ) ;
#227 = ORIENTED_EDGE ( 'NONE', *, *, #514, .F. ) ;
#228 = AXIS2_PLACEMENT_3D ( 'NONE', #230, #31, #386 ) ;
#229 = DATE_AND_TIME ( #105, #496 ) ;
#230 = CARTESIAN_POINT ( 'NONE',  ( -45.00000000000000000, 36.00000000000000000, -29.00000000000000000 ) ) ;
#231 = CARTESIAN_POINT ( 'NONE',  ( 45.00000000000000000, 36.00000000000000000, 29.00000000000000000 ) ) ;
#232 = ORIENTED_EDGE ( 'NONE', *, *, #51, .F. ) ;
#233 = FACE_OUTER_BOUND ( 'NONE', #53, .T. ) ;
#234 = PERSON_AND_ORGANIZATION ( #408, #509 ) ;
#235 = ORIENTED_EDGE ( 'NONE', *, *, #533, .F. ) ;
#236 = ORIENTED_EDGE ( 'NONE', *, *, #41, .T. ) ;
#237 = VECTOR ( 'NONE', #205, 1000.000000000000000 ) ;
#238 = ADVANCED_FACE ( 'NONE', ( #160 ), #373, .F. ) ;
#239 = EDGE_LOOP ( 'NONE', ( #510, #332, #116, #191 ) ) ;
#240 = DIRECTION ( 'NONE',  ( 0.000000000000000000, 0.000000000000000000, -1.000000000000000000 ) ) ;
#241 = CYLINDRICAL_SURFACE ( 'NONE', #495, 1.799999999999999600 ) ;
#242 = DIRECTION ( 'NONE',  ( 0.000000000000000000, -1.000000000000000000, 0.000000000000000000 ) ) ;
#243 = CARTESIAN_POINT ( 'NONE',  ( -39.00000000000000000, 36.00000000000000000, -19.50000000000000000 ) ) ;
#244 = LINE ( 'NONE', #94, #248 ) ;
#245 = EDGE_LOOP ( 'NONE', ( #165, #138, #113, #323 ) ) ;
#246 = DIRECTION ( 'NONE',  ( -0.000000000000000000, 1.000000000000000000, -0.000000000000000000 ) ) ;
#247 = CARTESIAN_POINT ( 'NONE',  ( -39.00000000000000000, 0.000000000000000000, 21.30000000000000071 ) ) ;
#248 = VECTOR ( 'NONE', #497, 1000.000000000000000 ) ;
#249 = AXIS2_PLACEMENT_3D ( 'NONE', #457, #246, #57 ) ;
#250 =( GEOMETRIC_REPRESENTATION_CONTEXT ( 3 ) GLOBAL_UNCERTAINTY_ASSIGNED_CONTEXT ( ( #276 ) ) GLOBAL_UNIT_ASSIGNED_CONTEXT ( ( #520, #21, #344 ) ) REPRESENTATION_CONTEXT ( 'NONE', 'WORKASPACE' ) );
#251 = DIRECTION ( 'NONE',  ( 0.000000000000000000, -0.000000000000000000, -1.000000000000000000 ) ) ;
#252 = DIRECTION ( 'NONE',  ( 0.000000000000000000, 1.000000000000000000, 0.000000000000000000 ) ) ;
#253 = CARTESIAN_POINT ( 'NONE',  ( 39.00000000000000000, 36.00000000000000000, 21.30000000000000071 ) ) ;
#254 = CC_DESIGN_PERSON_AND_ORGANIZATION_ASSIGNMENT ( #430, #69, ( #156 ) ) ;
#255 = FACE_OUTER_BOUND ( 'NONE', #239, .T. ) ;
#256 = CARTESIAN_POINT ( 'NONE',  ( 45.00000000000000000, 36.00000000000000000, 29.00000000000000000 ) ) ;
#257 = CYLINDRICAL_SURFACE ( 'NONE', #318, 1.799999999999999600 ) ;
#258 = DIRECTION ( 'NONE',  ( -0.000000000000000000, 1.000000000000000000, -0.000000000000000000 ) ) ;
#259 = ORIENTED_EDGE ( 'NONE', *, *, #405, .T. ) ;
#260 = APPROVAL_DATE_TIME ( #229, #7 ) ;
#261 = CIRCLE ( 'NONE', #137, 1.799999999999999600 ) ;
#262 = SECURITY_CLASSIFICATION ( '', '', #110 ) ;
#263 = PERSON_AND_ORGANIZATION_ROLE ( 'design_supplier' ) ;
#264 = DIRECTION ( 'NONE',  ( 0.000000000000000000, 0.000000000000000000, 1.000000000000000000 ) ) ;
#265 = DIRECTION ( 'NONE',  ( -0.000000000000000000, -0.000000000000000000, 1.000000000000000000 ) ) ;
#266 = COORDINATED_UNIVERSAL_TIME_OFFSET ( 8, 0, .AHEAD. ) ;
#267 = DIRECTION ( 'NONE',  ( 0.000000000000000000, 1.000000000000000000, 0.000000000000000000 ) ) ;
#268 = EDGE_CURVE ( 'NONE', #406, #82, #244, .T. ) ;
#269 = ORIENTED_EDGE ( 'NONE', *, *, #283, .F. ) ;
#270 = AXIS2_PLACEMENT_3D ( 'NONE', #132, #6, #251 ) ;
#271 = CIRCLE ( 'NONE', #84, 1.799999999999999600 ) ;
#272 = APPROVAL_ROLE ( '' ) ;
#273 = CARTESIAN_POINT ( 'NONE',  ( -45.00000000000000000, 36.00000000000000000, -29.00000000000000000 ) ) ;
#274 = ORIENTED_EDGE ( 'NONE', *, *, #452, .T. ) ;
#275 = APPROVAL ( #308, '未指定' ) ;
#276 = UNCERTAINTY_MEASURE_WITH_UNIT (LENGTH_MEASURE( 1.000000000000000082E-05 ), #520, 'distance_accuracy_value', 'NONE');
#277 = COORDINATED_UNIVERSAL_TIME_OFFSET ( 8, 0, .AHEAD. ) ;
#278 = ORIENTED_EDGE ( 'NONE', *, *, #87, .F. ) ;
#279 = ORIENTED_EDGE ( 'NONE', *, *, #320, .T. ) ;
#280 = ORIENTED_EDGE ( 'NONE', *, *, #502, .T. ) ;
#281 = EDGE_CURVE ( 'NONE', #467, #481, #52, .T. ) ;
#282 = VERTEX_POINT ( 'NONE', #412 ) ;
#283 = EDGE_CURVE ( 'NONE', #44, #282, #284, .T. ) ;
#284 = CIRCLE ( 'NONE', #453, 1.799999999999999600 ) ;
#285 = CARTESIAN_POINT ( 'NONE',  ( -39.00000000000000000, 38.00000000000000000, -19.50000000000000000 ) ) ;
#286 = LINE ( 'NONE', #17, #237 ) ;
#287 = ADVANCED_FACE ( 'NONE', ( #519 ), #472, .F. ) ;
#288 = CARTESIAN_POINT ( 'NONE',  ( 39.00000000000000000, 38.00000000000000000, 19.50000000000000000 ) ) ;
#289 = CYLINDRICAL_SURFACE ( 'NONE', #27, 1.799999999999999600 ) ;
#290 = AXIS2_PLACEMENT_3D ( 'NONE', #171, #56, #499 ) ;
#291 = DIRECTION ( 'NONE',  ( 0.000000000000000000, 0.000000000000000000, -1.000000000000000000 ) ) ;
#292 = DIRECTION ( 'NONE',  ( 0.000000000000000000, -1.000000000000000000, 0.000000000000000000 ) ) ;
#293 = APPLICATION_CONTEXT ( 'configuration controlled 3d designs of mechanical parts and assemblies' ) ;
#294 = DIRECTION ( 'NONE',  ( 0.000000000000000000, 0.000000000000000000, -1.000000000000000000 ) ) ;
#295 = LINE ( 'NONE', #324, #396 ) ;
#296 = DIRECTION ( 'NONE',  ( 0.000000000000000000, -1.000000000000000000, 0.000000000000000000 ) ) ;
#297 = DIRECTION ( 'NONE',  ( 0.000000000000000000, 0.000000000000000000, -1.000000000000000000 ) ) ;
#298 = CC_DESIGN_PERSON_AND_ORGANIZATION_ASSIGNMENT ( #30, #186, ( #415 ) ) ;
#299 = ORIENTED_EDGE ( 'NONE', *, *, #478, .T. ) ;
#300 = COORDINATED_UNIVERSAL_TIME_OFFSET ( 8, 0, .AHEAD. ) ;
#301 = DIRECTION ( 'NONE',  ( 0.000000000000000000, -1.000000000000000000, 0.000000000000000000 ) ) ;
#302 = VECTOR ( 'NONE', #515, 1000.000000000000000 ) ;
#303 = AXIS2_PLACEMENT_3D ( 'NONE', #390, #470, #264 ) ;
#304 = CC_DESIGN_APPROVAL ( #275, ( #307 ) ) ;
#305 = CYLINDRICAL_SURFACE ( 'NONE', #183, 1.799999999999999600 ) ;
#306 = APPLICATION_PROTOCOL_DEFINITION ( 'international standard', 'config_control_design', 1994, #293 ) ;
#307 = PRODUCT_DEFINITION ( '未知', '', #156, #81 ) ;
#308 = APPROVAL_STATUS ( 'not_yet_approved' ) ;
#309 = ORIENTED_EDGE ( 'NONE', *, *, #117, .T. ) ;
#310 = CC_DESIGN_PERSON_AND_ORGANIZATION_ASSIGNMENT ( #185, #146, ( #262 ) ) ;
#311 = DIRECTION ( 'NONE',  ( -0.000000000000000000, -1.000000000000000000, -0.000000000000000000 ) ) ;
#312 = EDGE_LOOP ( 'NONE', ( #133, #369, #148, #259 ) ) ;
#313 = VECTOR ( 'NONE', #134, 1000.000000000000000 ) ;
#314 = APPROVAL_DATE_TIME ( #479, #275 ) ;
#315 = EDGE_CURVE ( 'NONE', #120, #99, #92, .T. ) ;
#316 = ORIENTED_EDGE ( 'NONE', *, *, #77, .T. ) ;
#317 = EDGE_LOOP ( 'NONE', ( #236, #121, #442, #513 ) ) ;
#318 = AXIS2_PLACEMENT_3D ( 'NONE', #139, #242, #59 ) ;
#319 = ORIENTED_EDGE ( 'NONE', *, *, #207, .T. ) ;
#320 = EDGE_CURVE ( 'NONE', #485, #72, #179, .T. ) ;
#321 = APPROVAL ( #103, '未指定' ) ;
#322 = FACE_BOUND ( 'NONE', #525, .T. ) ;
#323 = ORIENTED_EDGE ( 'NONE', *, *, #204, .F. ) ;
#324 = CARTESIAN_POINT ( 'NONE',  ( -45.00000000000000000, 36.00000000000000000, 29.00000000000000000 ) ) ;
#325 = EDGE_CURVE ( 'NONE', #80, #150, #346, .T. ) ;
#326 = AXIS2_PLACEMENT_3D ( 'NONE', #173, #296, #466 ) ;
#327 = FACE_BOUND ( 'NONE', #356, .T. ) ;
#328 = ORIENTED_EDGE ( 'NONE', *, *, #452, .F. ) ;
#329 = PLANE ( 'NONE',  #73 ) ;
#330 = ADVANCED_FACE ( 'NONE', ( #61 ), #305, .F. ) ;
#331 = LINE ( 'NONE', #130, #2 ) ;
#332 = ORIENTED_EDGE ( 'NONE', *, *, #3, .T. ) ;
#333 = CARTESIAN_POINT ( 'NONE',  ( -45.00000000000000000, 36.00000000000000000, 29.00000000000000000 ) ) ;
#334 = FACE_BOUND ( 'NONE', #203, .T. ) ;
#335 = PLANE ( 'NONE',  #487 ) ;
#336 = DIRECTION ( 'NONE',  ( -0.000000000000000000, -1.000000000000000000, -0.000000000000000000 ) ) ;
#337 = DIRECTION ( 'NONE',  ( -0.000000000000000000, 1.000000000000000000, -0.000000000000000000 ) ) ;
#338 = ORIENTED_EDGE ( 'NONE', *, *, #26, .T. ) ;
#339 = EDGE_CURVE ( 'NONE', #211, #531, #261, .T. ) ;
#340 = AXIS2_PLACEMENT_3D ( 'NONE', #124, #86, #516 ) ;
#341 = DIRECTION ( 'NONE',  ( 0.000000000000000000, 1.000000000000000000, 0.000000000000000000 ) ) ;
#342 = DIRECTION ( 'NONE',  ( 1.000000000000000000, -0.000000000000000000, 0.000000000000000000 ) ) ;
#343 = ORIENTED_EDGE ( 'NONE', *, *, #71, .F. ) ;
#344 =( NAMED_UNIT ( * ) SI_UNIT ( $, .STERADIAN. ) SOLID_ANGLE_UNIT ( ) );
#345 = CARTESIAN_POINT ( 'NONE',  ( 39.00000000000000000, 0.000000000000000000, -17.69999999999999929 ) ) ;
#346 = LINE ( 'NONE', #352, #419 ) ;
#347 = CALENDAR_DATE ( 2026, 26, 7 ) ;
#348 = DIRECTION ( 'NONE',  ( 1.000000000000000000, 0.000000000000000000, 0.000000000000000000 ) ) ;
#349 = APPLICATION_PROTOCOL_DEFINITION ( 'international standard', 'config_control_design', 1994, #440 ) ;
#350 = ORIENTED_EDGE ( 'NONE', *, *, #315, .T. ) ;
#351 = PERSON_AND_ORGANIZATION ( #408, #509 ) ;
#352 = CARTESIAN_POINT ( 'NONE',  ( -45.00000000000000000, 0.000000000000000000, -29.00000000000000000 ) ) ;
#353 = FACE_OUTER_BOUND ( 'NONE', #74, .T. ) ;
#354 = ORIENTED_EDGE ( 'NONE', *, *, #153, .F. ) ;
#355 = APPROVAL_ROLE ( '' ) ;
#356 = EDGE_LOOP ( 'NONE', ( #444, #220 ) ) ;
#357 = CIRCLE ( 'NONE', #155, 1.799999999999999600 ) ;
#358 = APPROVAL_PERSON_ORGANIZATION ( #400, #7, #355 ) ;
#359 = VERTEX_POINT ( 'NONE', #256 ) ;
#360 = ORIENTED_EDGE ( 'NONE', *, *, #526, .T. ) ;
#361 = AXIS2_PLACEMENT_3D ( 'NONE', #524, #267, #398 ) ;
#362 = VECTOR ( 'NONE', #166, 1000.000000000000000 ) ;
#363 = LOCAL_TIME ( 2, 0, 12.00000000000000000, #20 ) ;
#364 = VERTEX_POINT ( 'NONE', #483 ) ;
#365 = CARTESIAN_POINT ( 'NONE',  ( 39.00000000000000000, 0.000000000000000000, 19.50000000000000000 ) ) ;
#366 = EDGE_LOOP ( 'NONE', ( #280, #278, #474, #372 ) ) ;
#367 = LINE ( 'NONE', #214, #383 ) ;
#368 = DIRECTION ( 'NONE',  ( 0.000000000000000000, 0.000000000000000000, 1.000000000000000000 ) ) ;
#369 = ORIENTED_EDGE ( 'NONE', *, *, #169, .F. ) ;
#370 = DIRECTION ( 'NONE',  ( 0.000000000000000000, -1.000000000000000000, 0.000000000000000000 ) ) ;
#371 = CIRCLE ( 'NONE', #340, 1.799999999999999600 ) ;
#372 = ORIENTED_EDGE ( 'NONE', *, *, #169, .T. ) ;
#373 = CYLINDRICAL_SURFACE ( 'NONE', #45, 1.799999999999999600 ) ;
#374 = ORIENTED_EDGE ( 'NONE', *, *, #217, .T. ) ;
#375 = FACE_BOUND ( 'NONE', #380, .T. ) ;
#376 = ORIENTED_EDGE ( 'NONE', *, *, #77, .F. ) ;
#377 = CARTESIAN_POINT ( 'NONE',  ( -45.00000000000000000, 36.00000000000000000, -29.00000000000000000 ) ) ;
#378 = DIRECTION ( 'NONE',  ( 0.000000000000000000, 0.000000000000000000, 1.000000000000000000 ) ) ;
#379 = CARTESIAN_POINT ( 'NONE',  ( 45.00000000000000000, 0.000000000000000000, 29.00000000000000000 ) ) ;
#380 = EDGE_LOOP ( 'NONE', ( #274, #384 ) ) ;
#381 = DIRECTION ( 'NONE',  ( -0.000000000000000000, -1.000000000000000000, -0.000000000000000000 ) ) ;
#382 = ADVANCED_FACE ( 'NONE', ( #233 ), #329, .F. ) ;
#383 = VECTOR ( 'NONE', #494, 1000.000000000000000 ) ;
#384 = ORIENTED_EDGE ( 'NONE', *, *, #339, .T. ) ;
#385 = CIRCLE ( 'NONE', #119, 1.799999999999999600 ) ;
#386 = DIRECTION ( 'NONE',  ( 1.000000000000000000, 0.000000000000000000, -0.000000000000000000 ) ) ;
#387 = LINE ( 'NONE', #97, #37 ) ;
#388 = PRODUCT_RELATED_PRODUCT_CATEGORY ( 'detail', '', ( #415 ) ) ;
#389 = EDGE_LOOP ( 'NONE', ( #450, #350, #491, #343 ) ) ;
#390 = CARTESIAN_POINT ( 'NONE',  ( -39.00000000000000000, 0.000000000000000000, 19.50000000000000000 ) ) ;
#391 = CARTESIAN_POINT ( 'NONE',  ( 39.00000000000000000, 38.00000000000000000, -19.50000000000000000 ) ) ;
#392 = DIRECTION ( 'NONE',  ( 0.000000000000000000, 0.000000000000000000, 1.000000000000000000 ) ) ;
#393 = EDGE_CURVE ( 'NONE', #399, #44, #492, .T. ) ;
#394 = DIRECTION ( 'NONE',  ( -0.000000000000000000, 1.000000000000000000, -0.000000000000000000 ) ) ;
#395 = PERSON_AND_ORGANIZATION ( #408, #509 ) ;
#396 = VECTOR ( 'NONE', #427, 1000.000000000000000 ) ;
#397 = EDGE_LOOP ( 'NONE', ( #78, #33, #198, #269 ) ) ;
#398 = DIRECTION ( 'NONE',  ( 0.000000000000000000, 0.000000000000000000, 1.000000000000000000 ) ) ;
#399 = VERTEX_POINT ( 'NONE', #253 ) ;
#400 = PERSON_AND_ORGANIZATION ( #408, #509 ) ;
#401 = EDGE_LOOP ( 'NONE', ( #209, #108 ) ) ;
#402 = EDGE_CURVE ( 'NONE', #399, #528, #63, .T. ) ;
#403 = EDGE_LOOP ( 'NONE', ( #48, #376 ) ) ;
#404 = AXIS2_PLACEMENT_3D ( 'NONE', #243, #337, #425 ) ;
#405 = EDGE_CURVE ( 'NONE', #76, #80, #172, .T. ) ;
#406 = VERTEX_POINT ( 'NONE', #167 ) ;
#407 = ADVANCED_FACE ( 'NONE', ( #14 ), #159, .F. ) ;
#408 = PERSON ( '未指定', '未指定', '未指定', ('未指定'), ('未指定'), ('未指定') ) ;
#409 = AXIS2_PLACEMENT_3D ( 'NONE', #458, #216, #498 ) ;
#410 = CC_DESIGN_PERSON_AND_ORGANIZATION_ASSIGNMENT ( #234, #193, ( #307 ) ) ;
#411 = VECTOR ( 'NONE', #336, 1000.000000000000000 ) ;
#412 = CARTESIAN_POINT ( 'NONE',  ( 39.00000000000000000, 0.000000000000000000, 17.69999999999999929 ) ) ;
#413 = CARTESIAN_POINT ( 'NONE',  ( -45.00000000000000000, 36.00000000000000000, 29.00000000000000000 ) ) ;
#414 = DIRECTION ( 'NONE',  ( -1.000000000000000000, 0.000000000000000000, 0.000000000000000000 ) ) ;
#415 = PRODUCT ( 'FN-SEN-001_tilt-transmitter-envelope_R0.1', 'FN-SEN-001_tilt-transmitter-envelope_R0.1', '', ( #471 ) ) ;
#416 = DIRECTION ( 'NONE',  ( -0.000000000000000000, -0.000000000000000000, 1.000000000000000000 ) ) ;
#417 = ORIENTED_EDGE ( 'NONE', *, *, #502, .F. ) ;
#418 = CARTESIAN_POINT ( 'NONE',  ( -45.00000000000000000, 36.00000000000000000, 29.00000000000000000 ) ) ;
#419 = VECTOR ( 'NONE', #29, 1000.000000000000000 ) ;
#420 = ORIENTED_EDGE ( 'NONE', *, *, #114, .F. ) ;
#421 = AXIS2_PLACEMENT_3D ( 'NONE', #142, #392, #348 ) ;
#422 = DIRECTION ( 'NONE',  ( 0.000000000000000000, 0.000000000000000000, -1.000000000000000000 ) ) ;
#423 = DIRECTION ( 'NONE',  ( 0.000000000000000000, -1.000000000000000000, 0.000000000000000000 ) ) ;
#424 = CARTESIAN_POINT ( 'NONE',  ( 45.00000000000000000, 36.00000000000000000, -29.00000000000000000 ) ) ;
#425 = DIRECTION ( 'NONE',  ( 0.000000000000000000, 0.000000000000000000, -1.000000000000000000 ) ) ;
#426 = ADVANCED_FACE ( 'NONE', ( #131 ), #289, .F. ) ;
#427 = DIRECTION ( 'NONE',  ( 1.000000000000000000, 0.000000000000000000, 0.000000000000000000 ) ) ;
#428 = CARTESIAN_POINT ( 'NONE',  ( 39.00000000000000000, 0.000000000000000000, 21.30000000000000071 ) ) ;
#429 = ORIENTED_EDGE ( 'NONE', *, *, #339, .F. ) ;
#430 = PERSON_AND_ORGANIZATION ( #408, #509 ) ;
#431 = CIRCLE ( 'NONE', #10, 1.799999999999999600 ) ;
#432 = CC_DESIGN_SECURITY_CLASSIFICATION ( #262, ( #156 ) ) ;
#433 = EDGE_CURVE ( 'NONE', #154, #531, #505, .T. ) ;
#434 = DIRECTION ( 'NONE',  ( 0.000000000000000000, 0.000000000000000000, -1.000000000000000000 ) ) ;
#435 = CARTESIAN_POINT ( 'NONE',  ( -45.00000000000000000, 0.000000000000000000, 29.00000000000000000 ) ) ;
#436 = VECTOR ( 'NONE', #292, 1000.000000000000000 ) ;
#437 = EDGE_LOOP ( 'NONE', ( #227, #316, #449, #429 ) ) ;
#438 = ADVANCED_FACE ( 'NONE', ( #465 ), #257, .F. ) ;
#439 = CALENDAR_DATE ( 2026, 26, 7 ) ;
#440 = APPLICATION_CONTEXT ( 'configuration controlled 3d designs of mechanical parts and assemblies' ) ;
#441 = CARTESIAN_POINT ( 'NONE',  ( 39.00000000000000000, 36.00000000000000000, -19.50000000000000000 ) ) ;
#442 = ORIENTED_EDGE ( 'NONE', *, *, #526, .F. ) ;
#443 = DATE_TIME_ROLE ( 'creation_date' ) ;
#444 = ORIENTED_EDGE ( 'NONE', *, *, #463, .F. ) ;
#445 = ORIENTED_EDGE ( 'NONE', *, *, #204, .T. ) ;
#446 = APPROVAL_PERSON_ORGANIZATION ( #351, #321, #272 ) ;
#447 = EDGE_CURVE ( 'NONE', #141, #359, #295, .T. ) ;
#448 = CARTESIAN_POINT ( 'NONE',  ( 39.00000000000000000, 0.000000000000000000, -21.30000000000000071 ) ) ;
#449 = ORIENTED_EDGE ( 'NONE', *, *, #433, .T. ) ;
#450 = ORIENTED_EDGE ( 'NONE', *, *, #3, .F. ) ;
#451 = CARTESIAN_POINT ( 'NONE',  ( 0.000000000000000000, 36.00000000000000000, 0.000000000000000000 ) ) ;
#452 = EDGE_CURVE ( 'NONE', #531, #211, #371, .T. ) ;
#453 = AXIS2_PLACEMENT_3D ( 'NONE', #365, #252, #100 ) ;
#454 = DIRECTION ( 'NONE',  ( 0.000000000000000000, 0.000000000000000000, -1.000000000000000000 ) ) ;
#455 = CARTESIAN_POINT ( 'NONE',  ( -39.00000000000000000, 38.00000000000000000, -19.50000000000000000 ) ) ;
#456 = CARTESIAN_POINT ( 'NONE',  ( -39.00000000000000000, 0.000000000000000000, 19.50000000000000000 ) ) ;
#457 = CARTESIAN_POINT ( 'NONE',  ( 39.00000000000000000, 36.00000000000000000, 19.50000000000000000 ) ) ;
#458 = CARTESIAN_POINT ( 'NONE',  ( 39.00000000000000000, 0.000000000000000000, -19.50000000000000000 ) ) ;
#459 = CARTESIAN_POINT ( 'NONE',  ( -39.00000000000000000, 38.00000000000000000, 17.69999999999999929 ) ) ;
#460 = PLANE ( 'NONE',  #270 ) ;
#461 = CIRCLE ( 'NONE', #361, 1.799999999999999600 ) ;
#462 = ORIENTED_EDGE ( 'NONE', *, *, #402, .F. ) ;
#463 = EDGE_CURVE ( 'NONE', #99, #120, #357, .T. ) ;
#464 = DIRECTION ( 'NONE',  ( 0.000000000000000000, -1.000000000000000000, 0.000000000000000000 ) ) ;
#465 = FACE_OUTER_BOUND ( 'NONE', #245, .T. ) ;
#466 = DIRECTION ( 'NONE',  ( 0.000000000000000000, 0.000000000000000000, -1.000000000000000000 ) ) ;
#467 = VERTEX_POINT ( 'NONE', #147 ) ;
#468 = CARTESIAN_POINT ( 'NONE',  ( -39.00000000000000000, 36.00000000000000000, 19.50000000000000000 ) ) ;
#469 = COORDINATED_UNIVERSAL_TIME_OFFSET ( 8, 0, .AHEAD. ) ;
#470 = DIRECTION ( 'NONE',  ( 0.000000000000000000, 1.000000000000000000, 0.000000000000000000 ) ) ;
#471 = MECHANICAL_CONTEXT ( 'NONE', #293, 'mechanical' ) ;
#472 = PLANE ( 'NONE',  #228 ) ;
#473 = APPROVAL_ROLE ( '' ) ;
#474 = ORIENTED_EDGE ( 'NONE', *, *, #217, .F. ) ;
#475 = LINE ( 'NONE', #189, #202 ) ;
#476 = FACE_OUTER_BOUND ( 'NONE', #170, .T. ) ;
#477 = VECTOR ( 'NONE', #381, 1000.000000000000000 ) ;
#478 = EDGE_CURVE ( 'NONE', #76, #488, #475, .T. ) ;
#479 = DATE_AND_TIME ( #529, #195 ) ;
#480 = ORIENTED_EDGE ( 'NONE', *, *, #405, .F. ) ;
#481 = VERTEX_POINT ( 'NONE', #226 ) ;
#482 = EDGE_CURVE ( 'NONE', #406, #467, #508, .T. ) ;
#483 = CARTESIAN_POINT ( 'NONE',  ( -39.00000000000000000, 36.00000000000000000, -17.69999999999999929 ) ) ;
#484 = CLOSED_SHELL ( 'NONE', ( #36, #196, #102, #126, #407, #493, #382, #287, #157, #64, #438, #330, #426, #238 ) ) ;
#485 = VERTEX_POINT ( 'NONE', #435 ) ;
#486 = AXIS2_PLACEMENT_3D ( 'NONE', #333, #342, #500 ) ;
#487 = AXIS2_PLACEMENT_3D ( 'NONE', #451, #164, #158 ) ;
#488 = VERTEX_POINT ( 'NONE', #273 ) ;
#489 = DIRECTION ( 'NONE',  ( 0.000000000000000000, 0.000000000000000000, -1.000000000000000000 ) ) ;
#490 = FACE_OUTER_BOUND ( 'NONE', #175, .T. ) ;
#491 = ORIENTED_EDGE ( 'NONE', *, *, #192, .T. ) ;
#492 = LINE ( 'NONE', #212, #213 ) ;
#493 = ADVANCED_FACE ( 'NONE', ( #353 ), #182, .F. ) ;
#494 = DIRECTION ( 'NONE',  ( 0.000000000000000000, -1.000000000000000000, 0.000000000000000000 ) ) ;
#495 = AXIS2_PLACEMENT_3D ( 'NONE', #285, #423, #291 ) ;
#496 = LOCAL_TIME ( 2, 0, 12.00000000000000000, #300 ) ;
#497 = DIRECTION ( 'NONE',  ( 0.000000000000000000, -1.000000000000000000, 0.000000000000000000 ) ) ;
#498 = DIRECTION ( 'NONE',  ( 0.000000000000000000, 0.000000000000000000, 1.000000000000000000 ) ) ;
#499 = DIRECTION ( 'NONE',  ( 0.000000000000000000, 0.000000000000000000, -1.000000000000000000 ) ) ;
#500 = DIRECTION ( 'NONE',  ( 0.000000000000000000, 0.000000000000000000, -1.000000000000000000 ) ) ;
#501 = FACE_OUTER_BOUND ( 'NONE', #38, .T. ) ;
#502 = EDGE_CURVE ( 'NONE', #150, #485, #107, .T. ) ;
#503 = ORIENTED_EDGE ( 'NONE', *, *, #514, .T. ) ;
#504 = LINE ( 'NONE', #377, #313 ) ;
#505 = LINE ( 'NONE', #135, #436 ) ;
#506 = FACE_BOUND ( 'NONE', #221, .T. ) ;
#507 = AXIS2_PLACEMENT_3D ( 'NONE', #96, #168, #422 ) ;
#508 = CIRCLE ( 'NONE', #109, 1.799999999999999600 ) ;
#509 = ORGANIZATION ( '未指定', '未指定', '' ) ;
#510 = ORIENTED_EDGE ( 'NONE', *, *, #463, .T. ) ;
#511 = CARTESIAN_POINT ( 'NONE',  ( -39.00000000000000000, 0.000000000000000000, -17.69999999999999929 ) ) ;
#512 = DIRECTION ( 'NONE',  ( 0.000000000000000000, 0.000000000000000000, -1.000000000000000000 ) ) ;
#513 = ORIENTED_EDGE ( 'NONE', *, *, #281, .F. ) ;
#514 = EDGE_CURVE ( 'NONE', #364, #211, #387, .T. ) ;
#515 = DIRECTION ( 'NONE',  ( 0.000000000000000000, -1.000000000000000000, 0.000000000000000000 ) ) ;
#516 = DIRECTION ( 'NONE',  ( 0.000000000000000000, 0.000000000000000000, 1.000000000000000000 ) ) ;
#517 = CIRCLE ( 'NONE', #201, 1.799999999999999600 ) ;
#518 = DATE_AND_TIME ( #347, #363 ) ;
#519 = FACE_OUTER_BOUND ( 'NONE', #312, .T. ) ;
#520 =( LENGTH_UNIT ( ) NAMED_UNIT ( * ) SI_UNIT ( .MILLI., .METRE. ) );
#521 = LOCAL_TIME ( 2, 0, 12.00000000000000000, #469 ) ;
#522 = SHAPE_DEFINITION_REPRESENTATION ( #206, #93 ) ;
#523 = PERSON_AND_ORGANIZATION ( #408, #509 ) ;
#524 = CARTESIAN_POINT ( 'NONE',  ( 39.00000000000000000, 0.000000000000000000, -19.50000000000000000 ) ) ;
#525 = EDGE_LOOP ( 'NONE', ( #420, #462 ) ) ;
#526 = EDGE_CURVE ( 'NONE', #481, #82, #98, .T. ) ;
#527 = LINE ( 'NONE', #231, #145 ) ;
#528 = VERTEX_POINT ( 'NONE', #22 ) ;
#529 = CALENDAR_DATE ( 2026, 26, 7 ) ;
#530 = VECTOR ( 'NONE', #454, 1000.000000000000000 ) ;
#531 = VERTEX_POINT ( 'NONE', #32 ) ;
#532 = ORIENTED_EDGE ( 'NONE', *, *, #283, .T. ) ;
#533 = EDGE_CURVE ( 'NONE', #359, #72, #527, .T. ) ;
ENDSEC;
END-ISO-10303-21;
