ISO-10303-21;
HEADER;
FILE_DESCRIPTION (( 'STEP AP203' ),
    '1' );
FILE_NAME ('FN-FRM-010_foot-gusset-50x8x80_CONCEPT_R0.7.STEP',
    '2026-07-26T17:43:55',
    ( '' ),
    ( '' ),
    'SwSTEP 2.0',
    'SolidWorks 2022',
    '' );
FILE_SCHEMA (( 'CONFIG_CONTROL_DESIGN' ));
ENDSEC;

DATA;
#1 = APPROVAL ( #47, '未指定' ) ;
#2 =( LENGTH_UNIT ( ) NAMED_UNIT ( * ) SI_UNIT ( .MILLI., .METRE. ) );
#3 = VECTOR ( 'NONE', #179, 1000.000000000000000 ) ;
#4 =( NAMED_UNIT ( * ) SI_UNIT ( $, .STERADIAN. ) SOLID_ANGLE_UNIT ( ) );
#5 = ADVANCED_FACE ( 'NONE', ( #192 ), #107, .F. ) ;
#6 = PERSON_AND_ORGANIZATION ( #149, #231 ) ;
#7 = VERTEX_POINT ( 'NONE', #13 ) ;
#8 = VECTOR ( 'NONE', #131, 1000.000000000000000 ) ;
#9 = CARTESIAN_POINT ( 'NONE',  ( 25.00000000000000000, 0.000000000000000000, 4.000000000000000000 ) ) ;
#10 = ADVANCED_FACE ( 'NONE', ( #147 ), #56, .T. ) ;
#11 = DIRECTION ( 'NONE',  ( -1.000000000000000000, -0.000000000000000000, -0.000000000000000000 ) ) ;
#12 = APPROVAL_DATE_TIME ( #164, #151 ) ;
#13 = CARTESIAN_POINT ( 'NONE',  ( -25.00000000000000000, 0.000000000000000000, -4.000000000000000000 ) ) ;
#14 = DIRECTION ( 'NONE',  ( 0.000000000000000000, -1.000000000000000000, 0.000000000000000000 ) ) ;
#15 = COORDINATED_UNIVERSAL_TIME_OFFSET ( 8, 0, .AHEAD. ) ;
#16 = VERTEX_POINT ( 'NONE', #58 ) ;
#17 = VECTOR ( 'NONE', #43, 1000.000000000000000 ) ;
#18 = ADVANCED_FACE ( 'NONE', ( #123 ), #184, .F. ) ;
#19 = DIRECTION ( 'NONE',  ( 1.000000000000000000, 0.000000000000000000, -0.000000000000000000 ) ) ;
#20 = COORDINATED_UNIVERSAL_TIME_OFFSET ( 8, 0, .AHEAD. ) ;
#21 = VECTOR ( 'NONE', #59, 1000.000000000000000 ) ;
#22 = CC_DESIGN_DATE_AND_TIME_ASSIGNMENT ( #217, #158, ( #228 ) ) ;
#23 = CC_DESIGN_APPROVAL ( #1, ( #228 ) ) ;
#24 = DIRECTION ( 'NONE',  ( 1.000000000000000000, 0.000000000000000000, 0.000000000000000000 ) ) ;
#25 = DESIGN_CONTEXT ( 'detailed design', #30, 'design' ) ;
#26 = VERTEX_POINT ( 'NONE', #176 ) ;
#27 = ORIENTED_EDGE ( 'NONE', *, *, #205, .T. ) ;
#28 = COORDINATED_UNIVERSAL_TIME_OFFSET ( 8, 0, .AHEAD. ) ;
#29 = PERSON_AND_ORGANIZATION ( #149, #231 ) ;
#30 = APPLICATION_CONTEXT ( 'configuration controlled 3d designs of mechanical parts and assemblies' ) ;
#31 = ORIENTED_EDGE ( 'NONE', *, *, #54, .T. ) ;
#32 = EDGE_CURVE ( 'NONE', #55, #7, #108, .T. ) ;
#33 = VECTOR ( 'NONE', #39, 1000.000000000000000 ) ;
#34 = ORIENTED_EDGE ( 'NONE', *, *, #219, .F. ) ;
#35 = CARTESIAN_POINT ( 'NONE',  ( 25.00000000000000000, 80.00000000000000000, 4.000000000000000000 ) ) ;
#36 = DIRECTION ( 'NONE',  ( 0.000000000000000000, 0.000000000000000000, 1.000000000000000000 ) ) ;
#37 = APPROVAL_DATE_TIME ( #46, #185 ) ;
#38 = LOCAL_TIME ( 1, 43, 55.00000000000000000, #28 ) ;
#39 = DIRECTION ( 'NONE',  ( 0.000000000000000000, 0.000000000000000000, -1.000000000000000000 ) ) ;
#40 = CARTESIAN_POINT ( 'NONE',  ( 25.00000000000000000, 80.00000000000000000, -4.000000000000000000 ) ) ;
#41 = CC_DESIGN_PERSON_AND_ORGANIZATION_ASSIGNMENT ( #183, #52, ( #203 ) ) ;
#42 = AXIS2_PLACEMENT_3D ( 'NONE', #145, #166, #195 ) ;
#43 = DIRECTION ( 'NONE',  ( 0.000000000000000000, 0.000000000000000000, -1.000000000000000000 ) ) ;
#44 = PLANE ( 'NONE',  #175 ) ;
#45 = DIRECTION ( 'NONE',  ( 0.000000000000000000, 0.000000000000000000, 1.000000000000000000 ) ) ;
#46 = DATE_AND_TIME ( #95, #201 ) ;
#47 = APPROVAL_STATUS ( 'not_yet_approved' ) ;
#48 = ORIENTED_EDGE ( 'NONE', *, *, #61, .T. ) ;
#49 = ORIENTED_EDGE ( 'NONE', *, *, #113, .F. ) ;
#50 = PERSON_AND_ORGANIZATION_ROLE ( 'creator' ) ;
#51 = CC_DESIGN_APPROVAL ( #185, ( #128 ) ) ;
#52 = PERSON_AND_ORGANIZATION_ROLE ( 'classification_officer' ) ;
#53 = VERTEX_POINT ( 'NONE', #9 ) ;
#54 = EDGE_CURVE ( 'NONE', #224, #53, #194, .T. ) ;
#55 = VERTEX_POINT ( 'NONE', #104 ) ;
#56 = PLANE ( 'NONE',  #94 ) ;
#57 = APPLICATION_CONTEXT ( 'configuration controlled 3d designs of mechanical parts and assemblies' ) ;
#58 = CARTESIAN_POINT ( 'NONE',  ( -25.00000000000000000, 80.00000000000000000, 4.000000000000000000 ) ) ;
#59 = DIRECTION ( 'NONE',  ( -0.000000000000000000, -0.000000000000000000, 1.000000000000000000 ) ) ;
#60 = CARTESIAN_POINT ( 'NONE',  ( -25.00000000000000000, 80.00000000000000000, -4.000000000000000000 ) ) ;
#61 = EDGE_CURVE ( 'NONE', #16, #82, #215, .T. ) ;
#62 = LOCAL_TIME ( 1, 43, 55.00000000000000000, #15 ) ;
#63 = ADVANCED_FACE ( 'NONE', ( #165 ), #161, .F. ) ;
#64 = ORIENTED_EDGE ( 'NONE', *, *, #32, .F. ) ;
#65 = EDGE_LOOP ( 'NONE', ( #121, #206, #174, #118 ) ) ;
#66 = APPROVAL_STATUS ( 'not_yet_approved' ) ;
#67 = CC_DESIGN_SECURITY_CLASSIFICATION ( #203, ( #128 ) ) ;
#68 = ADVANCED_FACE ( 'NONE', ( #74 ), #196, .F. ) ;
#69 = ORIENTED_EDGE ( 'NONE', *, *, #133, .T. ) ;
#70 = CARTESIAN_POINT ( 'NONE',  ( -25.00000000000000000, 80.00000000000000000, 4.000000000000000000 ) ) ;
#71 = EDGE_LOOP ( 'NONE', ( #102, #49, #223, #220 ) ) ;
#72 = DIRECTION ( 'NONE',  ( -0.000000000000000000, -1.000000000000000000, -0.000000000000000000 ) ) ;
#73 = CC_DESIGN_PERSON_AND_ORGANIZATION_ASSIGNMENT ( #101, #50, ( #228 ) ) ;
#74 = FACE_OUTER_BOUND ( 'NONE', #84, .T. ) ;
#75 = CC_DESIGN_PERSON_AND_ORGANIZATION_ASSIGNMENT ( #79, #81, ( #233 ) ) ;
#76 = SECURITY_CLASSIFICATION_LEVEL ( 'unclassified' ) ;
#77 = AXIS2_PLACEMENT_3D ( 'NONE', #140, #85, #36 ) ;
#78 = APPROVAL_PERSON_ORGANIZATION ( #6, #1, #156 ) ;
#79 = PERSON_AND_ORGANIZATION ( #149, #231 ) ;
#80 = ORIENTED_EDGE ( 'NONE', *, *, #32, .T. ) ;
#81 = PERSON_AND_ORGANIZATION_ROLE ( 'design_owner' ) ;
#82 = VERTEX_POINT ( 'NONE', #209 ) ;
#83 = CALENDAR_DATE ( 2026, 27, 7 ) ;
#84 = EDGE_LOOP ( 'NONE', ( #160, #97, #114, #80 ) ) ;
#85 = DIRECTION ( 'NONE',  ( -1.000000000000000000, 0.000000000000000000, 0.000000000000000000 ) ) ;
#86 = LINE ( 'NONE', #162, #202 ) ;
#87 = DIRECTION ( 'NONE',  ( 0.000000000000000000, -0.000000000000000000, -1.000000000000000000 ) ) ;
#88 = PERSON_AND_ORGANIZATION_ROLE ( 'design_supplier' ) ;
#89 = LINE ( 'NONE', #234, #33 ) ;
#90 = DIRECTION ( 'NONE',  ( -1.000000000000000000, -0.000000000000000000, -0.000000000000000000 ) ) ;
#91 = DATE_TIME_ROLE ( 'classification_date' ) ;
#92 = CARTESIAN_POINT ( 'NONE',  ( -25.00000000000000000, 80.00000000000000000, 4.000000000000000000 ) ) ;
#93 = DIRECTION ( 'NONE',  ( 1.000000000000000000, 0.000000000000000000, 0.000000000000000000 ) ) ;
#94 = AXIS2_PLACEMENT_3D ( 'NONE', #143, #235, #193 ) ;
#95 = CALENDAR_DATE ( 2026, 27, 7 ) ;
#96 = LOCAL_TIME ( 1, 43, 55.00000000000000000, #20 ) ;
#97 = ORIENTED_EDGE ( 'NONE', *, *, #61, .F. ) ;
#98 = EDGE_CURVE ( 'NONE', #7, #82, #177, .T. ) ;
#99 = APPROVAL_DATE_TIME ( #155, #1 ) ;
#100 = ORIENTED_EDGE ( 'NONE', *, *, #189, .F. ) ;
#101 = PERSON_AND_ORGANIZATION ( #149, #231 ) ;
#102 = ORIENTED_EDGE ( 'NONE', *, *, #98, .F. ) ;
#103 = VECTOR ( 'NONE', #142, 1000.000000000000000 ) ;
#104 = CARTESIAN_POINT ( 'NONE',  ( -25.00000000000000000, 80.00000000000000000, -4.000000000000000000 ) ) ;
#105 = APPROVAL_STATUS ( 'not_yet_approved' ) ;
#106 = PRODUCT_RELATED_PRODUCT_CATEGORY ( 'detail', '', ( #233 ) ) ;
#107 = PLANE ( 'NONE',  #42 ) ;
#108 = LINE ( 'NONE', #60, #230 ) ;
#109 = LINE ( 'NONE', #124, #187 ) ;
#110 = SHAPE_DEFINITION_REPRESENTATION ( #204, #115 ) ;
#111 = CARTESIAN_POINT ( 'NONE',  ( 25.00000000000000000, 80.00000000000000000, -4.000000000000000000 ) ) ;
#112 = COORDINATED_UNIVERSAL_TIME_OFFSET ( 8, 0, .AHEAD. ) ;
#113 = EDGE_CURVE ( 'NONE', #26, #7, #109, .T. ) ;
#114 = ORIENTED_EDGE ( 'NONE', *, *, #168, .F. ) ;
#115 = ADVANCED_BREP_SHAPE_REPRESENTATION ( 'FN-FRM-010_foot-gusset-50x8x80_CONCEPT_R0.7', ( #132, #182 ), #144 ) ;
#116 = CARTESIAN_POINT ( 'NONE',  ( 0.000000000000000000, 0.000000000000000000, 0.000000000000000000 ) ) ;
#117 = ORIENTED_EDGE ( 'NONE', *, *, #54, .F. ) ;
#118 = ORIENTED_EDGE ( 'NONE', *, *, #146, .T. ) ;
#119 = DATE_AND_TIME ( #127, #62 ) ;
#120 = CARTESIAN_POINT ( 'NONE',  ( -25.00000000000000000, 0.000000000000000000, 4.000000000000000000 ) ) ;
#121 = ORIENTED_EDGE ( 'NONE', *, *, #168, .T. ) ;
#122 = CC_DESIGN_PERSON_AND_ORGANIZATION_ASSIGNMENT ( #214, #88, ( #128 ) ) ;
#123 = FACE_OUTER_BOUND ( 'NONE', #212, .T. ) ;
#124 = CARTESIAN_POINT ( 'NONE',  ( -25.00000000000000000, 0.000000000000000000, -4.000000000000000000 ) ) ;
#125 = DIRECTION ( 'NONE',  ( -0.000000000000000000, -1.000000000000000000, -0.000000000000000000 ) ) ;
#126 = AXIS2_PLACEMENT_3D ( 'NONE', #163, #213, #180 ) ;
#127 = CALENDAR_DATE ( 2026, 27, 7 ) ;
#128 = PRODUCT_DEFINITION_FORMATION_WITH_SPECIFIED_SOURCE ( '任何', '', #233, .NOT_KNOWN. ) ;
#129 = CARTESIAN_POINT ( 'NONE',  ( -25.00000000000000000, 80.00000000000000000, -4.000000000000000000 ) ) ;
#130 = LINE ( 'NONE', #150, #211 ) ;
#131 = DIRECTION ( 'NONE',  ( -0.000000000000000000, -1.000000000000000000, -0.000000000000000000 ) ) ;
#132 = MANIFOLD_SOLID_BREP ( '凸台-拉伸1', #181 ) ;
#133 = EDGE_CURVE ( 'NONE', #53, #26, #89, .T. ) ;
#134 = APPLICATION_PROTOCOL_DEFINITION ( 'international standard', 'config_control_design', 1994, #57 ) ;
#135 = LOCAL_TIME ( 1, 43, 55.00000000000000000, #178 ) ;
#136 = EDGE_LOOP ( 'NONE', ( #157, #64, #172, #188 ) ) ;
#137 = APPROVAL_ROLE ( '' ) ;
#138 = UNCERTAINTY_MEASURE_WITH_UNIT (LENGTH_MEASURE( 1.000000000000000082E-05 ), #2, 'distance_accuracy_value', 'NONE');
#139 = CC_DESIGN_APPROVAL ( #151, ( #203 ) ) ;
#140 = CARTESIAN_POINT ( 'NONE',  ( 25.00000000000000000, 80.00000000000000000, 4.000000000000000000 ) ) ;
#141 = CC_DESIGN_PERSON_AND_ORGANIZATION_ASSIGNMENT ( #198, #167, ( #128 ) ) ;
#142 = DIRECTION ( 'NONE',  ( -0.000000000000000000, -0.000000000000000000, 1.000000000000000000 ) ) ;
#143 = CARTESIAN_POINT ( 'NONE',  ( 0.000000000000000000, 0.000000000000000000, 0.000000000000000000 ) ) ;
#144 =( GEOMETRIC_REPRESENTATION_CONTEXT ( 3 ) GLOBAL_UNCERTAINTY_ASSIGNED_CONTEXT ( ( #138 ) ) GLOBAL_UNIT_ASSIGNED_CONTEXT ( ( #2, #153, #4 ) ) REPRESENTATION_CONTEXT ( 'NONE', 'WORKASPACE' ) );
#145 = CARTESIAN_POINT ( 'NONE',  ( -25.00000000000000000, 80.00000000000000000, 4.000000000000000000 ) ) ;
#146 = EDGE_CURVE ( 'NONE', #222, #55, #86, .T. ) ;
#147 = FACE_OUTER_BOUND ( 'NONE', #71, .T. ) ;
#148 = APPROVAL_ROLE ( '' ) ;
#149 = PERSON ( '未指定', '未指定', '未指定', ('未指定'), ('未指定'), ('未指定') ) ;
#150 = CARTESIAN_POINT ( 'NONE',  ( -25.00000000000000000, 0.000000000000000000, 4.000000000000000000 ) ) ;
#151 = APPROVAL ( #105, '未指定' ) ;
#152 = CARTESIAN_POINT ( 'NONE',  ( 25.00000000000000000, 80.00000000000000000, 4.000000000000000000 ) ) ;
#153 =( NAMED_UNIT ( * ) PLANE_ANGLE_UNIT ( ) SI_UNIT ( $, .RADIAN. ) );
#154 = LINE ( 'NONE', #152, #17 ) ;
#155 = DATE_AND_TIME ( #83, #38 ) ;
#156 = APPROVAL_ROLE ( '' ) ;
#157 = ORIENTED_EDGE ( 'NONE', *, *, #113, .T. ) ;
#158 = DATE_TIME_ROLE ( 'creation_date' ) ;
#159 = ORIENTED_EDGE ( 'NONE', *, *, #170, .F. ) ;
#160 = ORIENTED_EDGE ( 'NONE', *, *, #98, .T. ) ;
#161 = PLANE ( 'NONE',  #225 ) ;
#162 = CARTESIAN_POINT ( 'NONE',  ( -25.00000000000000000, 80.00000000000000000, -4.000000000000000000 ) ) ;
#163 = CARTESIAN_POINT ( 'NONE',  ( -25.00000000000000000, 80.00000000000000000, 4.000000000000000000 ) ) ;
#164 = DATE_AND_TIME ( #197, #135 ) ;
#165 = FACE_OUTER_BOUND ( 'NONE', #65, .T. ) ;
#166 = DIRECTION ( 'NONE',  ( 0.000000000000000000, 0.000000000000000000, -1.000000000000000000 ) ) ;
#167 = PERSON_AND_ORGANIZATION_ROLE ( 'creator' ) ;
#168 = EDGE_CURVE ( 'NONE', #55, #16, #229, .T. ) ;
#169 = FACE_OUTER_BOUND ( 'NONE', #136, .T. ) ;
#170 = EDGE_CURVE ( 'NONE', #16, #224, #210, .T. ) ;
#171 = APPLICATION_PROTOCOL_DEFINITION ( 'international standard', 'config_control_design', 1994, #30 ) ;
#172 = ORIENTED_EDGE ( 'NONE', *, *, #146, .F. ) ;
#173 = CC_DESIGN_DATE_AND_TIME_ASSIGNMENT ( #119, #91, ( #203 ) ) ;
#174 = ORIENTED_EDGE ( 'NONE', *, *, #189, .T. ) ;
#175 = AXIS2_PLACEMENT_3D ( 'NONE', #129, #200, #19 ) ;
#176 = CARTESIAN_POINT ( 'NONE',  ( 25.00000000000000000, 0.000000000000000000, -4.000000000000000000 ) ) ;
#177 = LINE ( 'NONE', #120, #21 ) ;
#178 = COORDINATED_UNIVERSAL_TIME_OFFSET ( 8, 0, .AHEAD. ) ;
#179 = DIRECTION ( 'NONE',  ( -0.000000000000000000, -1.000000000000000000, -0.000000000000000000 ) ) ;
#180 = DIRECTION ( 'NONE',  ( 0.000000000000000000, 0.000000000000000000, -1.000000000000000000 ) ) ;
#181 = CLOSED_SHELL ( 'NONE', ( #68, #5, #18, #207, #63, #10 ) ) ;
#182 = AXIS2_PLACEMENT_3D ( 'NONE', #116, #45, #24 ) ;
#183 = PERSON_AND_ORGANIZATION ( #149, #231 ) ;
#184 = PLANE ( 'NONE',  #77 ) ;
#185 = APPROVAL ( #66, '未指定' ) ;
#186 = CARTESIAN_POINT ( 'NONE',  ( 25.00000000000000000, 80.00000000000000000, 4.000000000000000000 ) ) ;
#187 = VECTOR ( 'NONE', #11, 1000.000000000000000 ) ;
#188 = ORIENTED_EDGE ( 'NONE', *, *, #219, .T. ) ;
#189 = EDGE_CURVE ( 'NONE', #224, #222, #154, .T. ) ;
#190 = MECHANICAL_CONTEXT ( 'NONE', #57, 'mechanical' ) ;
#191 = CALENDAR_DATE ( 2026, 27, 7 ) ;
#192 = FACE_OUTER_BOUND ( 'NONE', #226, .T. ) ;
#193 = DIRECTION ( 'NONE',  ( 0.000000000000000000, -0.000000000000000000, -1.000000000000000000 ) ) ;
#194 = LINE ( 'NONE', #35, #236 ) ;
#195 = DIRECTION ( 'NONE',  ( -1.000000000000000000, 0.000000000000000000, -0.000000000000000000 ) ) ;
#196 = PLANE ( 'NONE',  #126 ) ;
#197 = CALENDAR_DATE ( 2026, 27, 7 ) ;
#198 = PERSON_AND_ORGANIZATION ( #149, #231 ) ;
#199 = LINE ( 'NONE', #40, #8 ) ;
#200 = DIRECTION ( 'NONE',  ( 0.000000000000000000, 0.000000000000000000, 1.000000000000000000 ) ) ;
#201 = LOCAL_TIME ( 1, 43, 55.00000000000000000, #112 ) ;
#202 = VECTOR ( 'NONE', #90, 1000.000000000000000 ) ;
#203 = SECURITY_CLASSIFICATION ( '', '', #76 ) ;
#204 = PRODUCT_DEFINITION_SHAPE ( 'NONE', 'NONE',  #228 ) ;
#205 = EDGE_CURVE ( 'NONE', #82, #53, #130, .T. ) ;
#206 = ORIENTED_EDGE ( 'NONE', *, *, #170, .T. ) ;
#207 = ADVANCED_FACE ( 'NONE', ( #169 ), #44, .F. ) ;
#208 = APPROVAL_PERSON_ORGANIZATION ( #218, #185, #137 ) ;
#209 = CARTESIAN_POINT ( 'NONE',  ( -25.00000000000000000, 0.000000000000000000, 4.000000000000000000 ) ) ;
#210 = LINE ( 'NONE', #92, #221 ) ;
#211 = VECTOR ( 'NONE', #216, 1000.000000000000000 ) ;
#212 = EDGE_LOOP ( 'NONE', ( #69, #34, #100, #31 ) ) ;
#213 = DIRECTION ( 'NONE',  ( 1.000000000000000000, -0.000000000000000000, 0.000000000000000000 ) ) ;
#214 = PERSON_AND_ORGANIZATION ( #149, #231 ) ;
#215 = LINE ( 'NONE', #232, #3 ) ;
#216 = DIRECTION ( 'NONE',  ( 1.000000000000000000, 0.000000000000000000, 0.000000000000000000 ) ) ;
#217 = DATE_AND_TIME ( #191, #96 ) ;
#218 = PERSON_AND_ORGANIZATION ( #149, #231 ) ;
#219 = EDGE_CURVE ( 'NONE', #222, #26, #199, .T. ) ;
#220 = ORIENTED_EDGE ( 'NONE', *, *, #205, .F. ) ;
#221 = VECTOR ( 'NONE', #93, 1000.000000000000000 ) ;
#222 = VERTEX_POINT ( 'NONE', #111 ) ;
#223 = ORIENTED_EDGE ( 'NONE', *, *, #133, .F. ) ;
#224 = VERTEX_POINT ( 'NONE', #186 ) ;
#225 = AXIS2_PLACEMENT_3D ( 'NONE', #227, #14, #87 ) ;
#226 = EDGE_LOOP ( 'NONE', ( #27, #117, #159, #48 ) ) ;
#227 = CARTESIAN_POINT ( 'NONE',  ( 0.000000000000000000, 80.00000000000000000, 0.000000000000000000 ) ) ;
#228 = PRODUCT_DEFINITION ( '未知', '', #128, #25 ) ;
#229 = LINE ( 'NONE', #70, #103 ) ;
#230 = VECTOR ( 'NONE', #125, 1000.000000000000000 ) ;
#231 = ORGANIZATION ( '未指定', '未指定', '' ) ;
#232 = CARTESIAN_POINT ( 'NONE',  ( -25.00000000000000000, 80.00000000000000000, 4.000000000000000000 ) ) ;
#233 = PRODUCT ( 'FN-FRM-010_foot-gusset-50x8x80_CONCEPT_R0.7', 'FN-FRM-010_foot-gusset-50x8x80_CONCEPT_R0.7', '', ( #190 ) ) ;
#234 = CARTESIAN_POINT ( 'NONE',  ( 25.00000000000000000, 0.000000000000000000, 4.000000000000000000 ) ) ;
#235 = DIRECTION ( 'NONE',  ( 0.000000000000000000, -1.000000000000000000, 0.000000000000000000 ) ) ;
#236 = VECTOR ( 'NONE', #72, 1000.000000000000000 ) ;
#237 = APPROVAL_PERSON_ORGANIZATION ( #29, #151, #148 ) ;
ENDSEC;
END-ISO-10303-21;
