ISO-10303-21;
HEADER;
FILE_DESCRIPTION (( 'STEP AP203' ),
    '1' );
FILE_NAME ('FN-FST-003_solar-pivot-envelope-D8x40_PENDING_R0.7.STEP',
    '2026-07-26T17:43:25',
    ( '' ),
    ( '' ),
    'SwSTEP 2.0',
    'SolidWorks 2022',
    '' );
FILE_SCHEMA (( 'CONFIG_CONTROL_DESIGN' ));
ENDSEC;

DATA;
#1 = DIRECTION ( 'NONE',  ( 1.000000000000000000, 0.000000000000000000, 0.000000000000000000 ) ) ;
#2 = DIRECTION ( 'NONE',  ( 1.000000000000000000, 0.000000000000000000, 0.000000000000000000 ) ) ;
#3 = EDGE_LOOP ( 'NONE', ( #99, #149, #84, #11 ) ) ;
#4 = DIRECTION ( 'NONE',  ( 0.000000000000000000, 0.000000000000000000, -1.000000000000000000 ) ) ;
#5 = COORDINATED_UNIVERSAL_TIME_OFFSET ( 8, 0, .AHEAD. ) ;
#6 = CLOSED_SHELL ( 'NONE', ( #169, #10, #96, #49 ) ) ;
#7 = PERSON_AND_ORGANIZATION ( #68, #26 ) ;
#8 = SECURITY_CLASSIFICATION_LEVEL ( 'unclassified' ) ;
#9 = CALENDAR_DATE ( 2026, 27, 7 ) ;
#10 = ADVANCED_FACE ( 'NONE', ( #166 ), #150, .T. ) ;
#11 = ORIENTED_EDGE ( 'NONE', *, *, #69, .F. ) ;
#12 = APPROVAL_PERSON_ORGANIZATION ( #127, #131, #141 ) ;
#13 = CARTESIAN_POINT ( 'NONE',  ( 40.00000000000000000, 0.000000000000000000, 0.000000000000000000 ) ) ;
#14 =( LENGTH_UNIT ( ) NAMED_UNIT ( * ) SI_UNIT ( .MILLI., .METRE. ) );
#15 = MANIFOLD_SOLID_BREP ( '凸台-拉伸1', #6 ) ;
#16 = CARTESIAN_POINT ( 'NONE',  ( 40.00000000000000000, 4.898587196589412829E-16, -4.000000000000000000 ) ) ;
#17 = DIRECTION ( 'NONE',  ( 0.000000000000000000, 0.000000000000000000, -1.000000000000000000 ) ) ;
#18 = LOCAL_TIME ( 1, 43, 25.00000000000000000, #5 ) ;
#19 = CARTESIAN_POINT ( 'NONE',  ( 0.000000000000000000, 0.000000000000000000, 0.000000000000000000 ) ) ;
#20 = APPROVAL_STATUS ( 'not_yet_approved' ) ;
#21 = CALENDAR_DATE ( 2026, 27, 7 ) ;
#22 = APPROVAL_PERSON_ORGANIZATION ( #78, #108, #153 ) ;
#23 = DIRECTION ( 'NONE',  ( 0.000000000000000000, 0.000000000000000000, 1.000000000000000000 ) ) ;
#24 = APPROVAL_DATE_TIME ( #36, #80 ) ;
#25 = DATE_AND_TIME ( #9, #81 ) ;
#26 = ORGANIZATION ( '未指定', '未指定', '' ) ;
#27 = CIRCLE ( 'NONE', #125, 4.000000000000000000 ) ;
#28 = DIRECTION ( 'NONE',  ( 1.000000000000000000, 0.000000000000000000, 0.000000000000000000 ) ) ;
#29 =( NAMED_UNIT ( * ) PLANE_ANGLE_UNIT ( ) SI_UNIT ( $, .RADIAN. ) );
#30 = EDGE_LOOP ( 'NONE', ( #82, #86 ) ) ;
#31 = DIRECTION ( 'NONE',  ( 0.000000000000000000, 0.000000000000000000, -1.000000000000000000 ) ) ;
#32 = CIRCLE ( 'NONE', #165, 4.000000000000000000 ) ;
#33 = EDGE_CURVE ( 'NONE', #115, #57, #27, .T. ) ;
#34 = MECHANICAL_CONTEXT ( 'NONE', #59, 'mechanical' ) ;
#35 = APPLICATION_PROTOCOL_DEFINITION ( 'international standard', 'config_control_design', 1994, #59 ) ;
#36 = DATE_AND_TIME ( #143, #148 ) ;
#37 = PERSON_AND_ORGANIZATION_ROLE ( 'creator' ) ;
#38 = DATE_TIME_ROLE ( 'creation_date' ) ;
#39 = PRODUCT_RELATED_PRODUCT_CATEGORY ( 'detail', '', ( #159 ) ) ;
#40 = CIRCLE ( 'NONE', #120, 4.000000000000000000 ) ;
#41 = CYLINDRICAL_SURFACE ( 'NONE', #156, 4.000000000000000000 ) ;
#42 = CARTESIAN_POINT ( 'NONE',  ( 40.00000000000000000, 0.000000000000000000, 0.000000000000000000 ) ) ;
#43 = EDGE_CURVE ( 'NONE', #133, #163, #32, .T. ) ;
#44 = CC_DESIGN_APPROVAL ( #108, ( #160 ) ) ;
#45 = CARTESIAN_POINT ( 'NONE',  ( 40.00000000000000000, 0.000000000000000000, 0.000000000000000000 ) ) ;
#46 = ORIENTED_EDGE ( 'NONE', *, *, #122, .T. ) ;
#47 = DIRECTION ( 'NONE',  ( 0.000000000000000000, 0.000000000000000000, -1.000000000000000000 ) ) ;
#48 = COORDINATED_UNIVERSAL_TIME_OFFSET ( 8, 0, .AHEAD. ) ;
#49 = ADVANCED_FACE ( 'NONE', ( #146 ), #167, .F. ) ;
#50 = AXIS2_PLACEMENT_3D ( 'NONE', #88, #139, #47 ) ;
#51 = ADVANCED_BREP_SHAPE_REPRESENTATION ( 'FN-FST-003_solar-pivot-envelope-D8x40_PENDING_R0.7', ( #15, #172 ), #132 ) ;
#52 = CC_DESIGN_APPROVAL ( #131, ( #162 ) ) ;
#53 = DIRECTION ( 'NONE',  ( 1.000000000000000000, 0.000000000000000000, 0.000000000000000000 ) ) ;
#54 = CARTESIAN_POINT ( 'NONE',  ( 40.00000000000000000, 0.000000000000000000, 0.000000000000000000 ) ) ;
#55 = CARTESIAN_POINT ( 'NONE',  ( 0.000000000000000000, 0.000000000000000000, 4.000000000000000000 ) ) ;
#56 = AXIS2_PLACEMENT_3D ( 'NONE', #54, #70, #87 ) ;
#57 = VERTEX_POINT ( 'NONE', #55 ) ;
#58 = LINE ( 'NONE', #121, #152 ) ;
#59 = APPLICATION_CONTEXT ( 'configuration controlled 3d designs of mechanical parts and assemblies' ) ;
#60 = SHAPE_DEFINITION_REPRESENTATION ( #130, #51 ) ;
#61 =( NAMED_UNIT ( * ) SI_UNIT ( $, .STERADIAN. ) SOLID_ANGLE_UNIT ( ) );
#62 = PRODUCT_DEFINITION_FORMATION_WITH_SPECIFIED_SOURCE ( '任何', '', #159, .NOT_KNOWN. ) ;
#63 = DATE_AND_TIME ( #76, #18 ) ;
#64 = CC_DESIGN_PERSON_AND_ORGANIZATION_ASSIGNMENT ( #89, #102, ( #62 ) ) ;
#65 = PERSON_AND_ORGANIZATION ( #68, #26 ) ;
#66 = EDGE_CURVE ( 'NONE', #163, #133, #129, .T. ) ;
#67 = ORIENTED_EDGE ( 'NONE', *, *, #122, .F. ) ;
#68 = PERSON ( '未指定', '未指定', '未指定', ('未指定'), ('未指定'), ('未指定') ) ;
#69 = EDGE_CURVE ( 'NONE', #163, #57, #58, .T. ) ;
#70 = DIRECTION ( 'NONE',  ( -1.000000000000000000, -0.000000000000000000, -0.000000000000000000 ) ) ;
#71 = FACE_OUTER_BOUND ( 'NONE', #30, .T. ) ;
#72 = DIRECTION ( 'NONE',  ( 0.000000000000000000, 0.000000000000000000, -1.000000000000000000 ) ) ;
#73 = CARTESIAN_POINT ( 'NONE',  ( 0.000000000000000000, 4.898587196589412829E-16, -4.000000000000000000 ) ) ;
#74 = APPLICATION_PROTOCOL_DEFINITION ( 'international standard', 'config_control_design', 1994, #85 ) ;
#75 = CC_DESIGN_PERSON_AND_ORGANIZATION_ASSIGNMENT ( #124, #128, ( #62 ) ) ;
#76 = CALENDAR_DATE ( 2026, 27, 7 ) ;
#77 = APPROVAL_ROLE ( '' ) ;
#78 = PERSON_AND_ORGANIZATION ( #68, #26 ) ;
#79 = APPROVAL_PERSON_ORGANIZATION ( #94, #80, #77 ) ;
#80 = APPROVAL ( #170, '未指定' ) ;
#81 = LOCAL_TIME ( 1, 43, 25.00000000000000000, #140 ) ;
#82 = ORIENTED_EDGE ( 'NONE', *, *, #66, .T. ) ;
#83 = ORIENTED_EDGE ( 'NONE', *, *, #33, .F. ) ;
#84 = ORIENTED_EDGE ( 'NONE', *, *, #33, .T. ) ;
#85 = APPLICATION_CONTEXT ( 'configuration controlled 3d designs of mechanical parts and assemblies' ) ;
#86 = ORIENTED_EDGE ( 'NONE', *, *, #43, .T. ) ;
#87 = DIRECTION ( 'NONE',  ( 0.000000000000000000, 0.000000000000000000, 1.000000000000000000 ) ) ;
#88 = CARTESIAN_POINT ( 'NONE',  ( 40.00000000000000000, 0.000000000000000000, 0.000000000000000000 ) ) ;
#89 = PERSON_AND_ORGANIZATION ( #68, #26 ) ;
#90 = CC_DESIGN_PERSON_AND_ORGANIZATION_ASSIGNMENT ( #65, #91, ( #159 ) ) ;
#91 = PERSON_AND_ORGANIZATION_ROLE ( 'design_owner' ) ;
#92 = COORDINATED_UNIVERSAL_TIME_OFFSET ( 8, 0, .AHEAD. ) ;
#93 = VECTOR ( 'NONE', #147, 1000.000000000000000 ) ;
#94 = PERSON_AND_ORGANIZATION ( #68, #26 ) ;
#95 = CC_DESIGN_DATE_AND_TIME_ASSIGNMENT ( #101, #38, ( #162 ) ) ;
#96 = ADVANCED_FACE ( 'NONE', ( #71 ), #110, .T. ) ;
#97 = DIRECTION ( 'NONE',  ( -1.000000000000000000, -0.000000000000000000, -0.000000000000000000 ) ) ;
#98 = CARTESIAN_POINT ( 'NONE',  ( 40.00000000000000000, 0.000000000000000000, 4.000000000000000000 ) ) ;
#99 = ORIENTED_EDGE ( 'NONE', *, *, #43, .F. ) ;
#100 = ORIENTED_EDGE ( 'NONE', *, *, #168, .F. ) ;
#101 = DATE_AND_TIME ( #171, #117 ) ;
#102 = PERSON_AND_ORGANIZATION_ROLE ( 'creator' ) ;
#103 = UNCERTAINTY_MEASURE_WITH_UNIT (LENGTH_MEASURE( 1.000000000000000082E-05 ), #14, 'distance_accuracy_value', 'NONE');
#104 = CARTESIAN_POINT ( 'NONE',  ( 0.000000000000000000, 0.000000000000000000, 0.000000000000000000 ) ) ;
#105 = LINE ( 'NONE', #16, #93 ) ;
#106 = DIRECTION ( 'NONE',  ( -1.000000000000000000, -0.000000000000000000, -0.000000000000000000 ) ) ;
#107 = EDGE_LOOP ( 'NONE', ( #100, #151, #119, #46 ) ) ;
#108 = APPROVAL ( #20, '未指定' ) ;
#109 = DIRECTION ( 'NONE',  ( 0.000000000000000000, 0.000000000000000000, 1.000000000000000000 ) ) ;
#110 = PLANE ( 'NONE',  #50 ) ;
#111 = DIRECTION ( 'NONE',  ( 1.000000000000000000, 0.000000000000000000, 0.000000000000000000 ) ) ;
#112 = LOCAL_TIME ( 1, 43, 25.00000000000000000, #48 ) ;
#113 = APPROVAL_DATE_TIME ( #63, #108 ) ;
#114 = APPROVAL_STATUS ( 'not_yet_approved' ) ;
#115 = VERTEX_POINT ( 'NONE', #73 ) ;
#116 = AXIS2_PLACEMENT_3D ( 'NONE', #19, #28, #31 ) ;
#117 = LOCAL_TIME ( 1, 43, 25.00000000000000000, #126 ) ;
#118 = CARTESIAN_POINT ( 'NONE',  ( 0.000000000000000000, 0.000000000000000000, 0.000000000000000000 ) ) ;
#119 = ORIENTED_EDGE ( 'NONE', *, *, #69, .T. ) ;
#120 = AXIS2_PLACEMENT_3D ( 'NONE', #118, #1, #136 ) ;
#121 = CARTESIAN_POINT ( 'NONE',  ( 40.00000000000000000, 0.000000000000000000, 4.000000000000000000 ) ) ;
#122 = EDGE_CURVE ( 'NONE', #57, #115, #40, .T. ) ;
#123 = CARTESIAN_POINT ( 'NONE',  ( 40.00000000000000000, 4.898587196589412829E-16, -4.000000000000000000 ) ) ;
#124 = PERSON_AND_ORGANIZATION ( #68, #26 ) ;
#125 = AXIS2_PLACEMENT_3D ( 'NONE', #161, #137, #17 ) ;
#126 = COORDINATED_UNIVERSAL_TIME_OFFSET ( 8, 0, .AHEAD. ) ;
#127 = PERSON_AND_ORGANIZATION ( #68, #26 ) ;
#128 = PERSON_AND_ORGANIZATION_ROLE ( 'design_supplier' ) ;
#129 = CIRCLE ( 'NONE', #142, 4.000000000000000000 ) ;
#130 = PRODUCT_DEFINITION_SHAPE ( 'NONE', 'NONE',  #162 ) ;
#131 = APPROVAL ( #114, '未指定' ) ;
#132 =( GEOMETRIC_REPRESENTATION_CONTEXT ( 3 ) GLOBAL_UNCERTAINTY_ASSIGNED_CONTEXT ( ( #103 ) ) GLOBAL_UNIT_ASSIGNED_CONTEXT ( ( #14, #29, #61 ) ) REPRESENTATION_CONTEXT ( 'NONE', 'WORKASPACE' ) );
#133 = VERTEX_POINT ( 'NONE', #123 ) ;
#134 = FACE_OUTER_BOUND ( 'NONE', #3, .T. ) ;
#135 = CC_DESIGN_PERSON_AND_ORGANIZATION_ASSIGNMENT ( #158, #37, ( #162 ) ) ;
#136 = DIRECTION ( 'NONE',  ( 0.000000000000000000, 0.000000000000000000, -1.000000000000000000 ) ) ;
#137 = DIRECTION ( 'NONE',  ( 1.000000000000000000, 0.000000000000000000, 0.000000000000000000 ) ) ;
#138 = CC_DESIGN_SECURITY_CLASSIFICATION ( #160, ( #62 ) ) ;
#139 = DIRECTION ( 'NONE',  ( 1.000000000000000000, 0.000000000000000000, 0.000000000000000000 ) ) ;
#140 = COORDINATED_UNIVERSAL_TIME_OFFSET ( 8, 0, .AHEAD. ) ;
#141 = APPROVAL_ROLE ( '' ) ;
#142 = AXIS2_PLACEMENT_3D ( 'NONE', #45, #53, #4 ) ;
#143 = CALENDAR_DATE ( 2026, 27, 7 ) ;
#144 = DESIGN_CONTEXT ( 'detailed design', #85, 'design' ) ;
#145 = PERSON_AND_ORGANIZATION_ROLE ( 'classification_officer' ) ;
#146 = FACE_OUTER_BOUND ( 'NONE', #164, .T. ) ;
#147 = DIRECTION ( 'NONE',  ( -1.000000000000000000, -0.000000000000000000, -0.000000000000000000 ) ) ;
#148 = LOCAL_TIME ( 1, 43, 25.00000000000000000, #92 ) ;
#149 = ORIENTED_EDGE ( 'NONE', *, *, #168, .T. ) ;
#150 = CYLINDRICAL_SURFACE ( 'NONE', #56, 4.000000000000000000 ) ;
#151 = ORIENTED_EDGE ( 'NONE', *, *, #66, .F. ) ;
#152 = VECTOR ( 'NONE', #106, 1000.000000000000000 ) ;
#153 = APPROVAL_ROLE ( '' ) ;
#154 = CC_DESIGN_PERSON_AND_ORGANIZATION_ASSIGNMENT ( #7, #145, ( #160 ) ) ;
#155 = APPROVAL_DATE_TIME ( #157, #131 ) ;
#156 = AXIS2_PLACEMENT_3D ( 'NONE', #13, #97, #109 ) ;
#157 = DATE_AND_TIME ( #21, #112 ) ;
#158 = PERSON_AND_ORGANIZATION ( #68, #26 ) ;
#159 = PRODUCT ( 'FN-FST-003_solar-pivot-envelope-D8x40_PENDING_R0.7', 'FN-FST-003_solar-pivot-envelope-D8x40_PENDING_R0.7', '', ( #34 ) ) ;
#160 = SECURITY_CLASSIFICATION ( '', '', #8 ) ;
#161 = CARTESIAN_POINT ( 'NONE',  ( 0.000000000000000000, 0.000000000000000000, 0.000000000000000000 ) ) ;
#162 = PRODUCT_DEFINITION ( '未知', '', #62, #144 ) ;
#163 = VERTEX_POINT ( 'NONE', #98 ) ;
#164 = EDGE_LOOP ( 'NONE', ( #67, #83 ) ) ;
#165 = AXIS2_PLACEMENT_3D ( 'NONE', #42, #2, #72 ) ;
#166 = FACE_OUTER_BOUND ( 'NONE', #107, .T. ) ;
#167 = PLANE ( 'NONE',  #116 ) ;
#168 = EDGE_CURVE ( 'NONE', #133, #115, #105, .T. ) ;
#169 = ADVANCED_FACE ( 'NONE', ( #134 ), #41, .T. ) ;
#170 = APPROVAL_STATUS ( 'not_yet_approved' ) ;
#171 = CALENDAR_DATE ( 2026, 27, 7 ) ;
#172 = AXIS2_PLACEMENT_3D ( 'NONE', #104, #23, #111 ) ;
#173 = DATE_TIME_ROLE ( 'classification_date' ) ;
#174 = CC_DESIGN_APPROVAL ( #80, ( #62 ) ) ;
#175 = CC_DESIGN_DATE_AND_TIME_ASSIGNMENT ( #25, #173, ( #160 ) ) ;
ENDSEC;
END-ISO-10303-21;
