ISO-10303-21;
HEADER;
FILE_DESCRIPTION (( 'STEP AP203' ),
    '1' );
FILE_NAME ('FN-FST-002_M6-washer-envelope-D14x2_PENDING_R0.7.STEP',
    '2026-07-26T17:43:07',
    ( '' ),
    ( '' ),
    'SwSTEP 2.0',
    'SolidWorks 2022',
    '' );
FILE_SCHEMA (( 'CONFIG_CONTROL_DESIGN' ));
ENDSEC;

DATA;
#1 = APPROVAL_DATE_TIME ( #18, #109 ) ;
#2 = ORIENTED_EDGE ( 'NONE', *, *, #127, .F. ) ;
#3 = ADVANCED_BREP_SHAPE_REPRESENTATION ( 'FN-FST-002_M6-washer-envelope-D14x2_PENDING_R0.7', ( #139, #167 ), #17 ) ;
#4 = FACE_OUTER_BOUND ( 'NONE', #175, .T. ) ;
#5 = ADVANCED_FACE ( 'NONE', ( #47 ), #129, .F. ) ;
#6 = AXIS2_PLACEMENT_3D ( 'NONE', #107, #36, #80 ) ;
#7 = DIRECTION ( 'NONE',  ( 1.000000000000000000, 0.000000000000000000, -0.000000000000000000 ) ) ;
#8 = PERSON_AND_ORGANIZATION_ROLE ( 'design_owner' ) ;
#9 = AXIS2_PLACEMENT_3D ( 'NONE', #63, #82, #114 ) ;
#10 = APPROVAL_ROLE ( '' ) ;
#11 =( LENGTH_UNIT ( ) NAMED_UNIT ( * ) SI_UNIT ( .MILLI., .METRE. ) );
#12 = APPROVAL_DATE_TIME ( #153, #78 ) ;
#13 = COORDINATED_UNIVERSAL_TIME_OFFSET ( 8, 0, .AHEAD. ) ;
#14 = ADVANCED_FACE ( 'NONE', ( #4 ), #124, .T. ) ;
#15 = CALENDAR_DATE ( 2026, 27, 7 ) ;
#16 = UNCERTAINTY_MEASURE_WITH_UNIT (LENGTH_MEASURE( 1.000000000000000082E-05 ), #11, 'distance_accuracy_value', 'NONE');
#17 =( GEOMETRIC_REPRESENTATION_CONTEXT ( 3 ) GLOBAL_UNCERTAINTY_ASSIGNED_CONTEXT ( ( #16 ) ) GLOBAL_UNIT_ASSIGNED_CONTEXT ( ( #11, #37, #148 ) ) REPRESENTATION_CONTEXT ( 'NONE', 'WORKASPACE' ) );
#18 = DATE_AND_TIME ( #85, #110 ) ;
#19 = EDGE_LOOP ( 'NONE', ( #2, #87, #145, #157 ) ) ;
#20 = CALENDAR_DATE ( 2026, 27, 7 ) ;
#21 = ORIENTED_EDGE ( 'NONE', *, *, #150, .F. ) ;
#22 = DIRECTION ( 'NONE',  ( 1.000000000000000000, 0.000000000000000000, 0.000000000000000000 ) ) ;
#23 = PERSON_AND_ORGANIZATION ( #97, #120 ) ;
#24 = LINE ( 'NONE', #67, #147 ) ;
#25 = AXIS2_PLACEMENT_3D ( 'NONE', #62, #166, #7 ) ;
#26 = CARTESIAN_POINT ( 'NONE',  ( 0.000000000000000000, 0.000000000000000000, 2.000000000000000000 ) ) ;
#27 = PRODUCT ( 'FN-FST-002_M6-washer-envelope-D14x2_PENDING_R0.7', 'FN-FST-002_M6-washer-envelope-D14x2_PENDING_R0.7', '', ( #40 ) ) ;
#28 = SECURITY_CLASSIFICATION_LEVEL ( 'unclassified' ) ;
#29 = DATE_TIME_ROLE ( 'classification_date' ) ;
#30 = CC_DESIGN_APPROVAL ( #109, ( #104 ) ) ;
#31 = CARTESIAN_POINT ( 'NONE',  ( 0.000000000000000000, 0.000000000000000000, 0.000000000000000000 ) ) ;
#32 = CC_DESIGN_DATE_AND_TIME_ASSIGNMENT ( #142, #29, ( #104 ) ) ;
#33 = ORIENTED_EDGE ( 'NONE', *, *, #50, .F. ) ;
#34 = APPROVAL ( #149, '未指定' ) ;
#35 = ORIENTED_EDGE ( 'NONE', *, *, #50, .T. ) ;
#36 = DIRECTION ( 'NONE',  ( 0.000000000000000000, 0.000000000000000000, 1.000000000000000000 ) ) ;
#37 =( NAMED_UNIT ( * ) PLANE_ANGLE_UNIT ( ) SI_UNIT ( $, .RADIAN. ) );
#38 = CC_DESIGN_APPROVAL ( #78, ( #144 ) ) ;
#39 = CARTESIAN_POINT ( 'NONE',  ( 7.000000000000000000, 8.572527594031473190E-16, 2.000000000000000000 ) ) ;
#40 = MECHANICAL_CONTEXT ( 'NONE', #131, 'mechanical' ) ;
#41 = CARTESIAN_POINT ( 'NONE',  ( 7.000000000000000000, 8.572527594031473190E-16, 0.000000000000000000 ) ) ;
#42 = AXIS2_PLACEMENT_3D ( 'NONE', #134, #132, #162 ) ;
#43 = ADVANCED_FACE ( 'NONE', ( #151 ), #113, .T. ) ;
#44 = APPROVAL_DATE_TIME ( #164, #34 ) ;
#45 = COORDINATED_UNIVERSAL_TIME_OFFSET ( 8, 0, .AHEAD. ) ;
#46 = PERSON_AND_ORGANIZATION_ROLE ( 'creator' ) ;
#47 = FACE_OUTER_BOUND ( 'NONE', #121, .T. ) ;
#48 = AXIS2_PLACEMENT_3D ( 'NONE', #31, #155, #75 ) ;
#49 = ORIENTED_EDGE ( 'NONE', *, *, #163, .T. ) ;
#50 = EDGE_CURVE ( 'NONE', #51, #143, #94, .T. ) ;
#51 = VERTEX_POINT ( 'NONE', #41 ) ;
#52 = FACE_OUTER_BOUND ( 'NONE', #19, .T. ) ;
#53 = LOCAL_TIME ( 1, 43, 7.000000000000000000, #71 ) ;
#54 = CC_DESIGN_PERSON_AND_ORGANIZATION_ASSIGNMENT ( #68, #172, ( #144 ) ) ;
#55 = DIRECTION ( 'NONE',  ( -0.000000000000000000, -0.000000000000000000, -1.000000000000000000 ) ) ;
#56 = LOCAL_TIME ( 1, 43, 7.000000000000000000, #45 ) ;
#57 = COORDINATED_UNIVERSAL_TIME_OFFSET ( 8, 0, .AHEAD. ) ;
#58 = SHAPE_DEFINITION_REPRESENTATION ( #95, #3 ) ;
#59 = AXIS2_PLACEMENT_3D ( 'NONE', #160, #79, #22 ) ;
#60 = PERSON_AND_ORGANIZATION_ROLE ( 'classification_officer' ) ;
#61 = ORIENTED_EDGE ( 'NONE', *, *, #112, .F. ) ;
#62 = CARTESIAN_POINT ( 'NONE',  ( 0.000000000000000000, 0.000000000000000000, 2.000000000000000000 ) ) ;
#63 = CARTESIAN_POINT ( 'NONE',  ( 0.000000000000000000, 0.000000000000000000, 0.000000000000000000 ) ) ;
#64 = DIRECTION ( 'NONE',  ( -0.000000000000000000, -0.000000000000000000, -1.000000000000000000 ) ) ;
#65 = AXIS2_PLACEMENT_3D ( 'NONE', #137, #159, #116 ) ;
#66 = PRODUCT_DEFINITION ( '未知', '', #144, #136 ) ;
#67 = CARTESIAN_POINT ( 'NONE',  ( 7.000000000000000000, 8.572527594031473190E-16, 2.000000000000000000 ) ) ;
#68 = PERSON_AND_ORGANIZATION ( #97, #120 ) ;
#69 = LOCAL_TIME ( 1, 43, 7.000000000000000000, #57 ) ;
#70 = APPROVAL_STATUS ( 'not_yet_approved' ) ;
#71 = COORDINATED_UNIVERSAL_TIME_OFFSET ( 8, 0, .AHEAD. ) ;
#72 = CLOSED_SHELL ( 'NONE', ( #43, #74, #14, #5 ) ) ;
#73 = PERSON_AND_ORGANIZATION ( #97, #120 ) ;
#74 = ADVANCED_FACE ( 'NONE', ( #52 ), #93, .T. ) ;
#75 = DIRECTION ( 'NONE',  ( 1.000000000000000000, 0.000000000000000000, -0.000000000000000000 ) ) ;
#76 = VERTEX_POINT ( 'NONE', #168 ) ;
#77 = DIRECTION ( 'NONE',  ( 0.000000000000000000, 0.000000000000000000, 1.000000000000000000 ) ) ;
#78 = APPROVAL ( #70, '未指定' ) ;
#79 = DIRECTION ( 'NONE',  ( 0.000000000000000000, 0.000000000000000000, 1.000000000000000000 ) ) ;
#80 = DIRECTION ( 'NONE',  ( 1.000000000000000000, 0.000000000000000000, 0.000000000000000000 ) ) ;
#81 = VECTOR ( 'NONE', #55, 1000.000000000000000 ) ;
#82 = DIRECTION ( 'NONE',  ( 0.000000000000000000, 0.000000000000000000, 1.000000000000000000 ) ) ;
#83 = CC_DESIGN_APPROVAL ( #34, ( #66 ) ) ;
#84 = DATE_AND_TIME ( #119, #53 ) ;
#85 = CALENDAR_DATE ( 2026, 27, 7 ) ;
#86 = CIRCLE ( 'NONE', #65, 7.000000000000000000 ) ;
#87 = ORIENTED_EDGE ( 'NONE', *, *, #163, .F. ) ;
#88 = EDGE_LOOP ( 'NONE', ( #156, #158, #35, #21 ) ) ;
#89 = DIRECTION ( 'NONE',  ( -0.000000000000000000, -0.000000000000000000, -1.000000000000000000 ) ) ;
#90 = AXIS2_PLACEMENT_3D ( 'NONE', #26, #89, #130 ) ;
#91 = DIRECTION ( 'NONE',  ( 1.000000000000000000, 0.000000000000000000, 0.000000000000000000 ) ) ;
#92 = PERSON_AND_ORGANIZATION ( #97, #120 ) ;
#93 = CYLINDRICAL_SURFACE ( 'NONE', #90, 7.000000000000000000 ) ;
#94 = CIRCLE ( 'NONE', #9, 7.000000000000000000 ) ;
#95 = PRODUCT_DEFINITION_SHAPE ( 'NONE', 'NONE',  #66 ) ;
#96 = DATE_TIME_ROLE ( 'creation_date' ) ;
#97 = PERSON ( '未指定', '未指定', '未指定', ('未指定'), ('未指定'), ('未指定') ) ;
#98 = PERSON_AND_ORGANIZATION_ROLE ( 'design_supplier' ) ;
#99 = CC_DESIGN_PERSON_AND_ORGANIZATION_ASSIGNMENT ( #102, #60, ( #104 ) ) ;
#100 = CC_DESIGN_PERSON_AND_ORGANIZATION_ASSIGNMENT ( #23, #8, ( #27 ) ) ;
#101 = CALENDAR_DATE ( 2026, 27, 7 ) ;
#102 = PERSON_AND_ORGANIZATION ( #97, #120 ) ;
#103 = CC_DESIGN_SECURITY_CLASSIFICATION ( #104, ( #144 ) ) ;
#104 = SECURITY_CLASSIFICATION ( '', '', #28 ) ;
#105 = LINE ( 'NONE', #169, #81 ) ;
#106 = APPLICATION_PROTOCOL_DEFINITION ( 'international standard', 'config_control_design', 1994, #131 ) ;
#107 = CARTESIAN_POINT ( 'NONE',  ( 0.000000000000000000, 0.000000000000000000, 0.000000000000000000 ) ) ;
#108 = CIRCLE ( 'NONE', #6, 7.000000000000000000 ) ;
#109 = APPROVAL ( #154, '未指定' ) ;
#110 = LOCAL_TIME ( 1, 43, 7.000000000000000000, #125 ) ;
#111 = ORIENTED_EDGE ( 'NONE', *, *, #117, .T. ) ;
#112 = EDGE_CURVE ( 'NONE', #143, #51, #108, .T. ) ;
#113 = CYLINDRICAL_SURFACE ( 'NONE', #42, 7.000000000000000000 ) ;
#114 = DIRECTION ( 'NONE',  ( 1.000000000000000000, 0.000000000000000000, 0.000000000000000000 ) ) ;
#115 = CARTESIAN_POINT ( 'NONE',  ( 0.000000000000000000, 0.000000000000000000, 0.000000000000000000 ) ) ;
#116 = DIRECTION ( 'NONE',  ( 1.000000000000000000, 0.000000000000000000, 0.000000000000000000 ) ) ;
#117 = EDGE_CURVE ( 'NONE', #128, #76, #122, .T. ) ;
#118 = PERSON_AND_ORGANIZATION ( #97, #120 ) ;
#119 = CALENDAR_DATE ( 2026, 27, 7 ) ;
#120 = ORGANIZATION ( '未指定', '未指定', '' ) ;
#121 = EDGE_LOOP ( 'NONE', ( #61, #33 ) ) ;
#122 = CIRCLE ( 'NONE', #59, 7.000000000000000000 ) ;
#123 = APPROVAL_ROLE ( '' ) ;
#124 = PLANE ( 'NONE',  #25 ) ;
#125 = COORDINATED_UNIVERSAL_TIME_OFFSET ( 8, 0, .AHEAD. ) ;
#126 = APPLICATION_CONTEXT ( 'configuration controlled 3d designs of mechanical parts and assemblies' ) ;
#127 = EDGE_CURVE ( 'NONE', #128, #51, #24, .T. ) ;
#128 = VERTEX_POINT ( 'NONE', #39 ) ;
#129 = PLANE ( 'NONE',  #48 ) ;
#130 = DIRECTION ( 'NONE',  ( -1.000000000000000000, 0.000000000000000000, 0.000000000000000000 ) ) ;
#131 = APPLICATION_CONTEXT ( 'configuration controlled 3d designs of mechanical parts and assemblies' ) ;
#132 = DIRECTION ( 'NONE',  ( -0.000000000000000000, -0.000000000000000000, -1.000000000000000000 ) ) ;
#133 = APPROVAL_PERSON_ORGANIZATION ( #171, #78, #138 ) ;
#134 = CARTESIAN_POINT ( 'NONE',  ( 0.000000000000000000, 0.000000000000000000, 2.000000000000000000 ) ) ;
#135 = CC_DESIGN_PERSON_AND_ORGANIZATION_ASSIGNMENT ( #118, #98, ( #144 ) ) ;
#136 = DESIGN_CONTEXT ( 'detailed design', #126, 'design' ) ;
#137 = CARTESIAN_POINT ( 'NONE',  ( 0.000000000000000000, 0.000000000000000000, 2.000000000000000000 ) ) ;
#138 = APPROVAL_ROLE ( '' ) ;
#139 = MANIFOLD_SOLID_BREP ( '凸台-拉伸1', #72 ) ;
#140 = APPROVAL_PERSON_ORGANIZATION ( #73, #109, #123 ) ;
#141 = LOCAL_TIME ( 1, 43, 7.000000000000000000, #13 ) ;
#142 = DATE_AND_TIME ( #20, #56 ) ;
#143 = VERTEX_POINT ( 'NONE', #146 ) ;
#144 = PRODUCT_DEFINITION_FORMATION_WITH_SPECIFIED_SOURCE ( '任何', '', #27, .NOT_KNOWN. ) ;
#145 = ORIENTED_EDGE ( 'NONE', *, *, #150, .T. ) ;
#146 = CARTESIAN_POINT ( 'NONE',  ( -7.000000000000000000, 0.000000000000000000, 0.000000000000000000 ) ) ;
#147 = VECTOR ( 'NONE', #64, 1000.000000000000000 ) ;
#148 =( NAMED_UNIT ( * ) SI_UNIT ( $, .STERADIAN. ) SOLID_ANGLE_UNIT ( ) );
#149 = APPROVAL_STATUS ( 'not_yet_approved' ) ;
#150 = EDGE_CURVE ( 'NONE', #76, #143, #105, .T. ) ;
#151 = FACE_OUTER_BOUND ( 'NONE', #88, .T. ) ;
#152 = PERSON_AND_ORGANIZATION ( #97, #120 ) ;
#153 = DATE_AND_TIME ( #101, #69 ) ;
#154 = APPROVAL_STATUS ( 'not_yet_approved' ) ;
#155 = DIRECTION ( 'NONE',  ( 0.000000000000000000, 0.000000000000000000, 1.000000000000000000 ) ) ;
#156 = ORIENTED_EDGE ( 'NONE', *, *, #117, .F. ) ;
#157 = ORIENTED_EDGE ( 'NONE', *, *, #112, .T. ) ;
#158 = ORIENTED_EDGE ( 'NONE', *, *, #127, .T. ) ;
#159 = DIRECTION ( 'NONE',  ( 0.000000000000000000, 0.000000000000000000, 1.000000000000000000 ) ) ;
#160 = CARTESIAN_POINT ( 'NONE',  ( 0.000000000000000000, 0.000000000000000000, 2.000000000000000000 ) ) ;
#161 = CC_DESIGN_DATE_AND_TIME_ASSIGNMENT ( #84, #96, ( #66 ) ) ;
#162 = DIRECTION ( 'NONE',  ( -1.000000000000000000, 0.000000000000000000, 0.000000000000000000 ) ) ;
#163 = EDGE_CURVE ( 'NONE', #76, #128, #86, .T. ) ;
#164 = DATE_AND_TIME ( #15, #141 ) ;
#165 = APPROVAL_PERSON_ORGANIZATION ( #92, #34, #10 ) ;
#166 = DIRECTION ( 'NONE',  ( 0.000000000000000000, 0.000000000000000000, 1.000000000000000000 ) ) ;
#167 = AXIS2_PLACEMENT_3D ( 'NONE', #115, #77, #91 ) ;
#168 = CARTESIAN_POINT ( 'NONE',  ( -7.000000000000000000, 0.000000000000000000, 2.000000000000000000 ) ) ;
#169 = CARTESIAN_POINT ( 'NONE',  ( -7.000000000000000000, 0.000000000000000000, 2.000000000000000000 ) ) ;
#170 = APPLICATION_PROTOCOL_DEFINITION ( 'international standard', 'config_control_design', 1994, #126 ) ;
#171 = PERSON_AND_ORGANIZATION ( #97, #120 ) ;
#172 = PERSON_AND_ORGANIZATION_ROLE ( 'creator' ) ;
#173 = PRODUCT_RELATED_PRODUCT_CATEGORY ( 'detail', '', ( #27 ) ) ;
#174 = CC_DESIGN_PERSON_AND_ORGANIZATION_ASSIGNMENT ( #152, #46, ( #66 ) ) ;
#175 = EDGE_LOOP ( 'NONE', ( #49, #111 ) ) ;
ENDSEC;
END-ISO-10303-21;
