ISO-10303-21;
HEADER;
FILE_DESCRIPTION (( 'STEP AP203' ),
    '1' );
FILE_NAME ('FN-FRM-009_foot-end-cap-50x3x30_CONCEPT_R0.7.STEP',
    '2026-07-26T17:43:49',
    ( '' ),
    ( '' ),
    'SwSTEP 2.0',
    'SolidWorks 2022',
    '' );
FILE_SCHEMA (( 'CONFIG_CONTROL_DESIGN' ));
ENDSEC;

DATA;
#1 = FACE_OUTER_BOUND ( 'NONE', #12, .T. ) ;
#2 = ADVANCED_BREP_SHAPE_REPRESENTATION ( 'FN-FRM-009_foot-end-cap-50x3x30_CONCEPT_R0.7', ( #44, #32 ), #124 ) ;
#3 = DIRECTION ( 'NONE',  ( 0.000000000000000000, -0.000000000000000000, -1.000000000000000000 ) ) ;
#4 = APPLICATION_CONTEXT ( 'configuration controlled 3d designs of mechanical parts and assemblies' ) ;
#5 = DATE_AND_TIME ( #47, #190 ) ;
#6 = VECTOR ( 'NONE', #203, 1000.000000000000000 ) ;
#7 = PERSON_AND_ORGANIZATION ( #33, #46 ) ;
#8 = ORIENTED_EDGE ( 'NONE', *, *, #36, .T. ) ;
#9 = VECTOR ( 'NONE', #77, 1000.000000000000000 ) ;
#10 = APPROVAL_PERSON_ORGANIZATION ( #153, #56, #208 ) ;
#11 = CARTESIAN_POINT ( 'NONE',  ( 0.000000000000000000, 0.000000000000000000, 0.000000000000000000 ) ) ;
#12 = EDGE_LOOP ( 'NONE', ( #216, #191, #8, #155 ) ) ;
#13 = CC_DESIGN_PERSON_AND_ORGANIZATION_ASSIGNMENT ( #51, #118, ( #168 ) ) ;
#14 = DIRECTION ( 'NONE',  ( -1.000000000000000000, 0.000000000000000000, -0.000000000000000000 ) ) ;
#15 = SHAPE_DEFINITION_REPRESENTATION ( #67, #2 ) ;
#16 = VERTEX_POINT ( 'NONE', #174 ) ;
#17 = CARTESIAN_POINT ( 'NONE',  ( 25.00000000000000000, 0.000000000000000000, 1.500000000000000000 ) ) ;
#18 = EDGE_CURVE ( 'NONE', #176, #139, #234, .T. ) ;
#19 = AXIS2_PLACEMENT_3D ( 'NONE', #112, #217, #146 ) ;
#20 = CARTESIAN_POINT ( 'NONE',  ( -25.00000000000000000, 0.000000000000000000, -1.500000000000000000 ) ) ;
#21 = FACE_OUTER_BOUND ( 'NONE', #123, .T. ) ;
#22 = FACE_OUTER_BOUND ( 'NONE', #106, .T. ) ;
#23 = ADVANCED_FACE ( 'NONE', ( #213 ), #171, .F. ) ;
#24 = DATE_AND_TIME ( #68, #38 ) ;
#25 = VECTOR ( 'NONE', #129, 1000.000000000000000 ) ;
#26 = APPROVAL ( #86, '未指定' ) ;
#27 = APPROVAL_STATUS ( 'not_yet_approved' ) ;
#28 = COORDINATED_UNIVERSAL_TIME_OFFSET ( 8, 0, .AHEAD. ) ;
#29 = ADVANCED_FACE ( 'NONE', ( #35 ), #107, .F. ) ;
#30 = COORDINATED_UNIVERSAL_TIME_OFFSET ( 8, 0, .AHEAD. ) ;
#31 = DESIGN_CONTEXT ( 'detailed design', #4, 'design' ) ;
#32 = AXIS2_PLACEMENT_3D ( 'NONE', #11, #115, #167 ) ;
#33 = PERSON ( '未指定', '未指定', '未指定', ('未指定'), ('未指定'), ('未指定') ) ;
#34 = ORIENTED_EDGE ( 'NONE', *, *, #74, .F. ) ;
#35 = FACE_OUTER_BOUND ( 'NONE', #235, .T. ) ;
#36 = EDGE_CURVE ( 'NONE', #139, #57, #156, .T. ) ;
#37 = ORIENTED_EDGE ( 'NONE', *, *, #49, .T. ) ;
#38 = LOCAL_TIME ( 1, 43, 49.00000000000000000, #30 ) ;
#39 = DIRECTION ( 'NONE',  ( 1.000000000000000000, 0.000000000000000000, 0.000000000000000000 ) ) ;
#40 = CARTESIAN_POINT ( 'NONE',  ( -25.00000000000000000, 30.00000000000000000, 1.500000000000000000 ) ) ;
#41 = LINE ( 'NONE', #20, #201 ) ;
#42 = AXIS2_PLACEMENT_3D ( 'NONE', #96, #61, #180 ) ;
#43 = CARTESIAN_POINT ( 'NONE',  ( 25.00000000000000000, 30.00000000000000000, 1.500000000000000000 ) ) ;
#44 = MANIFOLD_SOLID_BREP ( '凸台-拉伸1', #97 ) ;
#45 = VECTOR ( 'NONE', #223, 1000.000000000000000 ) ;
#46 = ORGANIZATION ( '未指定', '未指定', '' ) ;
#47 = CALENDAR_DATE ( 2026, 27, 7 ) ;
#48 = COORDINATED_UNIVERSAL_TIME_OFFSET ( 8, 0, .AHEAD. ) ;
#49 = EDGE_CURVE ( 'NONE', #16, #189, #173, .T. ) ;
#50 = ORIENTED_EDGE ( 'NONE', *, *, #18, .F. ) ;
#51 = PERSON_AND_ORGANIZATION ( #33, #46 ) ;
#52 = UNCERTAINTY_MEASURE_WITH_UNIT (LENGTH_MEASURE( 1.000000000000000082E-05 ), #147, 'distance_accuracy_value', 'NONE');
#53 = ORIENTED_EDGE ( 'NONE', *, *, #166, .T. ) ;
#54 = VECTOR ( 'NONE', #128, 1000.000000000000000 ) ;
#55 = CARTESIAN_POINT ( 'NONE',  ( -25.00000000000000000, 30.00000000000000000, -1.500000000000000000 ) ) ;
#56 = APPROVAL ( #228, '未指定' ) ;
#57 = VERTEX_POINT ( 'NONE', #104 ) ;
#58 = ORIENTED_EDGE ( 'NONE', *, *, #74, .T. ) ;
#59 = LINE ( 'NONE', #144, #87 ) ;
#60 = CARTESIAN_POINT ( 'NONE',  ( 25.00000000000000000, 0.000000000000000000, -1.500000000000000000 ) ) ;
#61 = DIRECTION ( 'NONE',  ( -1.000000000000000000, 0.000000000000000000, 0.000000000000000000 ) ) ;
#62 = EDGE_CURVE ( 'NONE', #231, #16, #81, .T. ) ;
#63 = CARTESIAN_POINT ( 'NONE',  ( -25.00000000000000000, 30.00000000000000000, -1.500000000000000000 ) ) ;
#64 = CC_DESIGN_APPROVAL ( #26, ( #114 ) ) ;
#65 = CARTESIAN_POINT ( 'NONE',  ( -25.00000000000000000, 30.00000000000000000, -1.500000000000000000 ) ) ;
#66 = VECTOR ( 'NONE', #110, 1000.000000000000000 ) ;
#67 = PRODUCT_DEFINITION_SHAPE ( 'NONE', 'NONE',  #98 ) ;
#68 = CALENDAR_DATE ( 2026, 27, 7 ) ;
#69 = COORDINATED_UNIVERSAL_TIME_OFFSET ( 8, 0, .AHEAD. ) ;
#70 = CARTESIAN_POINT ( 'NONE',  ( 25.00000000000000000, 30.00000000000000000, 1.500000000000000000 ) ) ;
#71 = DATE_AND_TIME ( #210, #143 ) ;
#72 = ORIENTED_EDGE ( 'NONE', *, *, #62, .F. ) ;
#73 = CARTESIAN_POINT ( 'NONE',  ( -25.00000000000000000, 30.00000000000000000, 1.500000000000000000 ) ) ;
#74 = EDGE_CURVE ( 'NONE', #138, #231, #125, .T. ) ;
#75 = AXIS2_PLACEMENT_3D ( 'NONE', #84, #127, #3 ) ;
#76 = LOCAL_TIME ( 1, 43, 49.00000000000000000, #28 ) ;
#77 = DIRECTION ( 'NONE',  ( 1.000000000000000000, 0.000000000000000000, 0.000000000000000000 ) ) ;
#78 = CC_DESIGN_DATE_AND_TIME_ASSIGNMENT ( #71, #186, ( #114 ) ) ;
#79 = ORIENTED_EDGE ( 'NONE', *, *, #131, .F. ) ;
#80 = ADVANCED_FACE ( 'NONE', ( #21 ), #165, .T. ) ;
#81 = LINE ( 'NONE', #183, #66 ) ;
#82 = CC_DESIGN_PERSON_AND_ORGANIZATION_ASSIGNMENT ( #7, #232, ( #114 ) ) ;
#83 = PLANE ( 'NONE',  #212 ) ;
#84 = CARTESIAN_POINT ( 'NONE',  ( 0.000000000000000000, 30.00000000000000000, 0.000000000000000000 ) ) ;
#85 = CARTESIAN_POINT ( 'NONE',  ( -25.00000000000000000, 30.00000000000000000, 1.500000000000000000 ) ) ;
#86 = APPROVAL_STATUS ( 'not_yet_approved' ) ;
#87 = VECTOR ( 'NONE', #99, 1000.000000000000000 ) ;
#88 = APPROVAL_DATE_TIME ( #24, #56 ) ;
#89 = DIRECTION ( 'NONE',  ( 0.000000000000000000, 0.000000000000000000, -1.000000000000000000 ) ) ;
#90 = VECTOR ( 'NONE', #89, 1000.000000000000000 ) ;
#91 = ORIENTED_EDGE ( 'NONE', *, *, #62, .T. ) ;
#92 = CARTESIAN_POINT ( 'NONE',  ( -25.00000000000000000, 30.00000000000000000, 1.500000000000000000 ) ) ;
#93 = ORIENTED_EDGE ( 'NONE', *, *, #94, .F. ) ;
#94 = EDGE_CURVE ( 'NONE', #189, #197, #142, .T. ) ;
#95 =( NAMED_UNIT ( * ) PLANE_ANGLE_UNIT ( ) SI_UNIT ( $, .RADIAN. ) );
#96 = CARTESIAN_POINT ( 'NONE',  ( 25.00000000000000000, 30.00000000000000000, 1.500000000000000000 ) ) ;
#97 = CLOSED_SHELL ( 'NONE', ( #157, #29, #221, #23, #227, #80 ) ) ;
#98 = PRODUCT_DEFINITION ( '未知', '', #158, #31 ) ;
#99 = DIRECTION ( 'NONE',  ( -1.000000000000000000, -0.000000000000000000, -0.000000000000000000 ) ) ;
#100 = DIRECTION ( 'NONE',  ( -0.000000000000000000, -1.000000000000000000, -0.000000000000000000 ) ) ;
#101 = PERSON_AND_ORGANIZATION ( #33, #46 ) ;
#102 = APPROVAL_ROLE ( '' ) ;
#103 = CALENDAR_DATE ( 2026, 27, 7 ) ;
#104 = CARTESIAN_POINT ( 'NONE',  ( 25.00000000000000000, 30.00000000000000000, -1.500000000000000000 ) ) ;
#105 = CC_DESIGN_SECURITY_CLASSIFICATION ( #114, ( #158 ) ) ;
#106 = EDGE_LOOP ( 'NONE', ( #108, #79, #152, #122 ) ) ;
#107 = PLANE ( 'NONE',  #229 ) ;
#108 = ORIENTED_EDGE ( 'NONE', *, *, #94, .T. ) ;
#109 = LINE ( 'NONE', #43, #6 ) ;
#110 = DIRECTION ( 'NONE',  ( -0.000000000000000000, -0.000000000000000000, 1.000000000000000000 ) ) ;
#111 = VECTOR ( 'NONE', #113, 1000.000000000000000 ) ;
#112 = CARTESIAN_POINT ( 'NONE',  ( 0.000000000000000000, 0.000000000000000000, 0.000000000000000000 ) ) ;
#113 = DIRECTION ( 'NONE',  ( -0.000000000000000000, -0.000000000000000000, 1.000000000000000000 ) ) ;
#114 = SECURITY_CLASSIFICATION ( '', '', #206 ) ;
#115 = DIRECTION ( 'NONE',  ( 0.000000000000000000, 0.000000000000000000, 1.000000000000000000 ) ) ;
#116 = CALENDAR_DATE ( 2026, 27, 7 ) ;
#117 = CC_DESIGN_APPROVAL ( #205, ( #98 ) ) ;
#118 = PERSON_AND_ORGANIZATION_ROLE ( 'design_owner' ) ;
#119 = PERSON_AND_ORGANIZATION ( #33, #46 ) ;
#120 = EDGE_LOOP ( 'NONE', ( #195, #34, #154, #159 ) ) ;
#121 = DIRECTION ( 'NONE',  ( 0.000000000000000000, 0.000000000000000000, 1.000000000000000000 ) ) ;
#122 = ORIENTED_EDGE ( 'NONE', *, *, #215, .T. ) ;
#123 = EDGE_LOOP ( 'NONE', ( #72, #233, #93, #141 ) ) ;
#124 =( GEOMETRIC_REPRESENTATION_CONTEXT ( 3 ) GLOBAL_UNCERTAINTY_ASSIGNED_CONTEXT ( ( #52 ) ) GLOBAL_UNIT_ASSIGNED_CONTEXT ( ( #147, #95, #187 ) ) REPRESENTATION_CONTEXT ( 'NONE', 'WORKASPACE' ) );
#125 = LINE ( 'NONE', #65, #45 ) ;
#126 = CARTESIAN_POINT ( 'NONE',  ( -25.00000000000000000, 0.000000000000000000, -1.500000000000000000 ) ) ;
#127 = DIRECTION ( 'NONE',  ( 0.000000000000000000, -1.000000000000000000, 0.000000000000000000 ) ) ;
#128 = DIRECTION ( 'NONE',  ( 0.000000000000000000, 0.000000000000000000, -1.000000000000000000 ) ) ;
#129 = DIRECTION ( 'NONE',  ( -0.000000000000000000, -1.000000000000000000, -0.000000000000000000 ) ) ;
#130 = PERSON_AND_ORGANIZATION_ROLE ( 'design_supplier' ) ;
#131 = EDGE_CURVE ( 'NONE', #57, #197, #222, .T. ) ;
#132 = APPLICATION_PROTOCOL_DEFINITION ( 'international standard', 'config_control_design', 1994, #194 ) ;
#133 = PERSON_AND_ORGANIZATION ( #33, #46 ) ;
#134 = DATE_TIME_ROLE ( 'creation_date' ) ;
#135 = CC_DESIGN_PERSON_AND_ORGANIZATION_ASSIGNMENT ( #170, #130, ( #158 ) ) ;
#136 = CARTESIAN_POINT ( 'NONE',  ( -25.00000000000000000, 0.000000000000000000, 1.500000000000000000 ) ) ;
#137 = APPROVAL_DATE_TIME ( #169, #205 ) ;
#138 = VERTEX_POINT ( 'NONE', #63 ) ;
#139 = VERTEX_POINT ( 'NONE', #237 ) ;
#140 = ORIENTED_EDGE ( 'NONE', *, *, #166, .F. ) ;
#141 = ORIENTED_EDGE ( 'NONE', *, *, #49, .F. ) ;
#142 = LINE ( 'NONE', #17, #54 ) ;
#143 = LOCAL_TIME ( 1, 43, 49.00000000000000000, #48 ) ;
#144 = CARTESIAN_POINT ( 'NONE',  ( -25.00000000000000000, 30.00000000000000000, -1.500000000000000000 ) ) ;
#145 = LINE ( 'NONE', #85, #25 ) ;
#146 = DIRECTION ( 'NONE',  ( 0.000000000000000000, -0.000000000000000000, -1.000000000000000000 ) ) ;
#147 =( LENGTH_UNIT ( ) NAMED_UNIT ( * ) SI_UNIT ( .MILLI., .METRE. ) );
#148 = APPROVAL_DATE_TIME ( #230, #26 ) ;
#149 = EDGE_CURVE ( 'NONE', #57, #138, #59, .T. ) ;
#150 = COORDINATED_UNIVERSAL_TIME_OFFSET ( 8, 0, .AHEAD. ) ;
#151 = APPROVAL_ROLE ( '' ) ;
#152 = ORIENTED_EDGE ( 'NONE', *, *, #36, .F. ) ;
#153 = PERSON_AND_ORGANIZATION ( #33, #46 ) ;
#154 = ORIENTED_EDGE ( 'NONE', *, *, #149, .F. ) ;
#155 = ORIENTED_EDGE ( 'NONE', *, *, #149, .T. ) ;
#156 = LINE ( 'NONE', #70, #90 ) ;
#157 = ADVANCED_FACE ( 'NONE', ( #160 ), #83, .F. ) ;
#158 = PRODUCT_DEFINITION_FORMATION_WITH_SPECIFIED_SOURCE ( '任何', '', #168, .NOT_KNOWN. ) ;
#159 = ORIENTED_EDGE ( 'NONE', *, *, #131, .T. ) ;
#160 = FACE_OUTER_BOUND ( 'NONE', #214, .T. ) ;
#161 = AXIS2_PLACEMENT_3D ( 'NONE', #55, #121, #193 ) ;
#162 = APPROVAL_PERSON_ORGANIZATION ( #185, #205, #102 ) ;
#163 = CARTESIAN_POINT ( 'NONE',  ( 25.00000000000000000, 30.00000000000000000, -1.500000000000000000 ) ) ;
#164 = CC_DESIGN_PERSON_AND_ORGANIZATION_ASSIGNMENT ( #101, #188, ( #98 ) ) ;
#165 = PLANE ( 'NONE',  #19 ) ;
#166 = EDGE_CURVE ( 'NONE', #176, #16, #145, .T. ) ;
#167 = DIRECTION ( 'NONE',  ( 1.000000000000000000, 0.000000000000000000, 0.000000000000000000 ) ) ;
#168 = PRODUCT ( 'FN-FRM-009_foot-end-cap-50x3x30_CONCEPT_R0.7', 'FN-FRM-009_foot-end-cap-50x3x30_CONCEPT_R0.7', '', ( #226 ) ) ;
#169 = DATE_AND_TIME ( #116, #177 ) ;
#170 = PERSON_AND_ORGANIZATION ( #33, #46 ) ;
#171 = PLANE ( 'NONE',  #161 ) ;
#172 = VECTOR ( 'NONE', #100, 1000.000000000000000 ) ;
#173 = LINE ( 'NONE', #136, #9 ) ;
#174 = CARTESIAN_POINT ( 'NONE',  ( -25.00000000000000000, 0.000000000000000000, 1.500000000000000000 ) ) ;
#175 = DIRECTION ( 'NONE',  ( 0.000000000000000000, 0.000000000000000000, -1.000000000000000000 ) ) ;
#176 = VERTEX_POINT ( 'NONE', #219 ) ;
#177 = LOCAL_TIME ( 1, 43, 49.00000000000000000, #69 ) ;
#178 = DIRECTION ( 'NONE',  ( 1.000000000000000000, -0.000000000000000000, 0.000000000000000000 ) ) ;
#179 = CC_DESIGN_PERSON_AND_ORGANIZATION_ASSIGNMENT ( #133, #204, ( #158 ) ) ;
#180 = DIRECTION ( 'NONE',  ( 0.000000000000000000, 0.000000000000000000, 1.000000000000000000 ) ) ;
#181 = PRODUCT_RELATED_PRODUCT_CATEGORY ( 'detail', '', ( #168 ) ) ;
#182 = LINE ( 'NONE', #199, #111 ) ;
#183 = CARTESIAN_POINT ( 'NONE',  ( -25.00000000000000000, 0.000000000000000000, 1.500000000000000000 ) ) ;
#184 = PLANE ( 'NONE',  #75 ) ;
#185 = PERSON_AND_ORGANIZATION ( #33, #46 ) ;
#186 = DATE_TIME_ROLE ( 'classification_date' ) ;
#187 =( NAMED_UNIT ( * ) SI_UNIT ( $, .STERADIAN. ) SOLID_ANGLE_UNIT ( ) );
#188 = PERSON_AND_ORGANIZATION_ROLE ( 'creator' ) ;
#189 = VERTEX_POINT ( 'NONE', #202 ) ;
#190 = LOCAL_TIME ( 1, 43, 49.00000000000000000, #150 ) ;
#191 = ORIENTED_EDGE ( 'NONE', *, *, #18, .T. ) ;
#192 = EDGE_CURVE ( 'NONE', #138, #176, #182, .T. ) ;
#193 = DIRECTION ( 'NONE',  ( 1.000000000000000000, 0.000000000000000000, -0.000000000000000000 ) ) ;
#194 = APPLICATION_CONTEXT ( 'configuration controlled 3d designs of mechanical parts and assemblies' ) ;
#195 = ORIENTED_EDGE ( 'NONE', *, *, #236, .T. ) ;
#196 = VECTOR ( 'NONE', #39, 1000.000000000000000 ) ;
#197 = VERTEX_POINT ( 'NONE', #60 ) ;
#198 = DIRECTION ( 'NONE',  ( 0.000000000000000000, 0.000000000000000000, -1.000000000000000000 ) ) ;
#199 = CARTESIAN_POINT ( 'NONE',  ( -25.00000000000000000, 30.00000000000000000, 1.500000000000000000 ) ) ;
#200 = DIRECTION ( 'NONE',  ( -1.000000000000000000, -0.000000000000000000, -0.000000000000000000 ) ) ;
#201 = VECTOR ( 'NONE', #200, 1000.000000000000000 ) ;
#202 = CARTESIAN_POINT ( 'NONE',  ( 25.00000000000000000, 0.000000000000000000, 1.500000000000000000 ) ) ;
#203 = DIRECTION ( 'NONE',  ( -0.000000000000000000, -1.000000000000000000, -0.000000000000000000 ) ) ;
#204 = PERSON_AND_ORGANIZATION_ROLE ( 'creator' ) ;
#205 = APPROVAL ( #27, '未指定' ) ;
#206 = SECURITY_CLASSIFICATION_LEVEL ( 'unclassified' ) ;
#207 = APPROVAL_PERSON_ORGANIZATION ( #119, #26, #151 ) ;
#208 = APPROVAL_ROLE ( '' ) ;
#209 = ORIENTED_EDGE ( 'NONE', *, *, #192, .F. ) ;
#210 = CALENDAR_DATE ( 2026, 27, 7 ) ;
#211 = ORIENTED_EDGE ( 'NONE', *, *, #215, .F. ) ;
#212 = AXIS2_PLACEMENT_3D ( 'NONE', #40, #178, #198 ) ;
#213 = FACE_OUTER_BOUND ( 'NONE', #120, .T. ) ;
#214 = EDGE_LOOP ( 'NONE', ( #91, #140, #209, #58 ) ) ;
#215 = EDGE_CURVE ( 'NONE', #139, #189, #109, .T. ) ;
#216 = ORIENTED_EDGE ( 'NONE', *, *, #192, .T. ) ;
#217 = DIRECTION ( 'NONE',  ( 0.000000000000000000, -1.000000000000000000, 0.000000000000000000 ) ) ;
#218 = CC_DESIGN_APPROVAL ( #56, ( #158 ) ) ;
#219 = CARTESIAN_POINT ( 'NONE',  ( -25.00000000000000000, 30.00000000000000000, 1.500000000000000000 ) ) ;
#220 = PLANE ( 'NONE',  #42 ) ;
#221 = ADVANCED_FACE ( 'NONE', ( #22 ), #220, .F. ) ;
#222 = LINE ( 'NONE', #163, #172 ) ;
#223 = DIRECTION ( 'NONE',  ( -0.000000000000000000, -1.000000000000000000, -0.000000000000000000 ) ) ;
#224 = CC_DESIGN_DATE_AND_TIME_ASSIGNMENT ( #5, #134, ( #98 ) ) ;
#225 = APPLICATION_PROTOCOL_DEFINITION ( 'international standard', 'config_control_design', 1994, #4 ) ;
#226 = MECHANICAL_CONTEXT ( 'NONE', #194, 'mechanical' ) ;
#227 = ADVANCED_FACE ( 'NONE', ( #1 ), #184, .F. ) ;
#228 = APPROVAL_STATUS ( 'not_yet_approved' ) ;
#229 = AXIS2_PLACEMENT_3D ( 'NONE', #92, #175, #14 ) ;
#230 = DATE_AND_TIME ( #103, #76 ) ;
#231 = VERTEX_POINT ( 'NONE', #126 ) ;
#232 = PERSON_AND_ORGANIZATION_ROLE ( 'classification_officer' ) ;
#233 = ORIENTED_EDGE ( 'NONE', *, *, #236, .F. ) ;
#234 = LINE ( 'NONE', #73, #196 ) ;
#235 = EDGE_LOOP ( 'NONE', ( #37, #211, #50, #53 ) ) ;
#236 = EDGE_CURVE ( 'NONE', #197, #231, #41, .T. ) ;
#237 = CARTESIAN_POINT ( 'NONE',  ( 25.00000000000000000, 30.00000000000000000, 1.500000000000000000 ) ) ;
ENDSEC;
END-ISO-10303-21;
