ISO-10303-21;
HEADER;
FILE_DESCRIPTION (( 'STEP AP203' ),
    '1' );
FILE_NAME ('FN-FRM-008_tube-end-cap-30x30x3_CONCEPT_R0.7.STEP',
    '2026-07-26T17:43:43',
    ( '' ),
    ( '' ),
    'SwSTEP 2.0',
    'SolidWorks 2022',
    '' );
FILE_SCHEMA (( 'CONFIG_CONTROL_DESIGN' ));
ENDSEC;

DATA;
#1 = ORIENTED_EDGE ( 'NONE', *, *, #222, .F. ) ;
#2 = AXIS2_PLACEMENT_3D ( 'NONE', #174, #228, #61 ) ;
#3 = LOCAL_TIME ( 1, 43, 43.00000000000000000, #68 ) ;
#4 = EDGE_LOOP ( 'NONE', ( #75, #130, #177, #74 ) ) ;
#5 = ORIENTED_EDGE ( 'NONE', *, *, #121, .F. ) ;
#6 = EDGE_LOOP ( 'NONE', ( #188, #179, #5, #57 ) ) ;
#7 = AXIS2_PLACEMENT_3D ( 'NONE', #143, #142, #69 ) ;
#8 = ORIENTED_EDGE ( 'NONE', *, *, #165, .T. ) ;
#9 = FACE_OUTER_BOUND ( 'NONE', #4, .T. ) ;
#10 = CARTESIAN_POINT ( 'NONE',  ( -15.00000000000000000, 3.000000000000000000, 15.00000000000000000 ) ) ;
#11 = LINE ( 'NONE', #28, #102 ) ;
#12 = CARTESIAN_POINT ( 'NONE',  ( -15.00000000000000000, 3.000000000000000000, -15.00000000000000000 ) ) ;
#13 = CC_DESIGN_APPROVAL ( #88, ( #236 ) ) ;
#14 = APPROVAL_DATE_TIME ( #107, #88 ) ;
#15 = DATE_TIME_ROLE ( 'creation_date' ) ;
#16 = CC_DESIGN_PERSON_AND_ORGANIZATION_ASSIGNMENT ( #86, #234, ( #236 ) ) ;
#17 = DIRECTION ( 'NONE',  ( 0.000000000000000000, -0.000000000000000000, -1.000000000000000000 ) ) ;
#18 = VECTOR ( 'NONE', #212, 1000.000000000000000 ) ;
#19 = APPROVAL_ROLE ( '' ) ;
#20 = SHAPE_DEFINITION_REPRESENTATION ( #230, #101 ) ;
#21 = PERSON_AND_ORGANIZATION_ROLE ( 'classification_officer' ) ;
#22 = DATE_AND_TIME ( #128, #39 ) ;
#23 = EDGE_LOOP ( 'NONE', ( #204, #112, #103, #148 ) ) ;
#24 = CARTESIAN_POINT ( 'NONE',  ( -15.00000000000000000, 0.000000000000000000, 15.00000000000000000 ) ) ;
#25 = EDGE_CURVE ( 'NONE', #180, #202, #120, .T. ) ;
#26 = LINE ( 'NONE', #155, #167 ) ;
#27 = FACE_OUTER_BOUND ( 'NONE', #153, .T. ) ;
#28 = CARTESIAN_POINT ( 'NONE',  ( -15.00000000000000000, 3.000000000000000000, -15.00000000000000000 ) ) ;
#29 = AXIS2_PLACEMENT_3D ( 'NONE', #194, #51, #17 ) ;
#30 = DIRECTION ( 'NONE',  ( 0.000000000000000000, 0.000000000000000000, 1.000000000000000000 ) ) ;
#31 = MECHANICAL_CONTEXT ( 'NONE', #215, 'mechanical' ) ;
#32 = VECTOR ( 'NONE', #59, 1000.000000000000000 ) ;
#33 = CC_DESIGN_DATE_AND_TIME_ASSIGNMENT ( #71, #132, ( #60 ) ) ;
#34 =( GEOMETRIC_REPRESENTATION_CONTEXT ( 3 ) GLOBAL_UNCERTAINTY_ASSIGNED_CONTEXT ( ( #154 ) ) GLOBAL_UNIT_ASSIGNED_CONTEXT ( ( #89, #110, #141 ) ) REPRESENTATION_CONTEXT ( 'NONE', 'WORKASPACE' ) );
#35 = CARTESIAN_POINT ( 'NONE',  ( 15.00000000000000000, 0.000000000000000000, 15.00000000000000000 ) ) ;
#36 = CARTESIAN_POINT ( 'NONE',  ( 15.00000000000000000, 3.000000000000000000, 15.00000000000000000 ) ) ;
#37 = DIRECTION ( 'NONE',  ( 0.000000000000000000, -0.000000000000000000, -1.000000000000000000 ) ) ;
#38 = CC_DESIGN_PERSON_AND_ORGANIZATION_ASSIGNMENT ( #106, #163, ( #176 ) ) ;
#39 = LOCAL_TIME ( 1, 43, 43.00000000000000000, #217 ) ;
#40 = ORIENTED_EDGE ( 'NONE', *, *, #73, .F. ) ;
#41 = APPROVAL_DATE_TIME ( #116, #117 ) ;
#42 = SECURITY_CLASSIFICATION_LEVEL ( 'unclassified' ) ;
#43 = VERTEX_POINT ( 'NONE', #159 ) ;
#44 = DIRECTION ( 'NONE',  ( 1.000000000000000000, 0.000000000000000000, 0.000000000000000000 ) ) ;
#45 = EDGE_CURVE ( 'NONE', #202, #118, #11, .T. ) ;
#46 = DIRECTION ( 'NONE',  ( 1.000000000000000000, 0.000000000000000000, -0.000000000000000000 ) ) ;
#47 = LINE ( 'NONE', #58, #133 ) ;
#48 = EDGE_CURVE ( 'NONE', #150, #224, #83, .T. ) ;
#49 = PLANE ( 'NONE',  #53 ) ;
#50 = CARTESIAN_POINT ( 'NONE',  ( 15.00000000000000000, 3.000000000000000000, 15.00000000000000000 ) ) ;
#51 = DIRECTION ( 'NONE',  ( 0.000000000000000000, -1.000000000000000000, 0.000000000000000000 ) ) ;
#52 = CARTESIAN_POINT ( 'NONE',  ( -15.00000000000000000, 3.000000000000000000, -15.00000000000000000 ) ) ;
#53 = AXIS2_PLACEMENT_3D ( 'NONE', #225, #138, #104 ) ;
#54 = APPLICATION_PROTOCOL_DEFINITION ( 'international standard', 'config_control_design', 1994, #72 ) ;
#55 = VERTEX_POINT ( 'NONE', #84 ) ;
#56 = CC_DESIGN_PERSON_AND_ORGANIZATION_ASSIGNMENT ( #70, #187, ( #178 ) ) ;
#57 = ORIENTED_EDGE ( 'NONE', *, *, #222, .T. ) ;
#58 = CARTESIAN_POINT ( 'NONE',  ( -15.00000000000000000, 3.000000000000000000, 15.00000000000000000 ) ) ;
#59 = DIRECTION ( 'NONE',  ( -0.000000000000000000, -0.000000000000000000, 1.000000000000000000 ) ) ;
#60 = SECURITY_CLASSIFICATION ( '', '', #42 ) ;
#61 = DIRECTION ( 'NONE',  ( 0.000000000000000000, 0.000000000000000000, -1.000000000000000000 ) ) ;
#62 = ADVANCED_FACE ( 'NONE', ( #229 ), #190, .F. ) ;
#63 = LINE ( 'NONE', #226, #124 ) ;
#64 = CARTESIAN_POINT ( 'NONE',  ( 15.00000000000000000, 3.000000000000000000, -15.00000000000000000 ) ) ;
#65 = CLOSED_SHELL ( 'NONE', ( #62, #145, #131, #105, #213, #166 ) ) ;
#66 = APPROVAL_STATUS ( 'not_yet_approved' ) ;
#67 = COORDINATED_UNIVERSAL_TIME_OFFSET ( 8, 0, .AHEAD. ) ;
#68 = COORDINATED_UNIVERSAL_TIME_OFFSET ( 8, 0, .AHEAD. ) ;
#69 = DIRECTION ( 'NONE',  ( 1.000000000000000000, 0.000000000000000000, 0.000000000000000000 ) ) ;
#70 = PERSON_AND_ORGANIZATION ( #171, #182 ) ;
#71 = DATE_AND_TIME ( #129, #223 ) ;
#72 = APPLICATION_CONTEXT ( 'configuration controlled 3d designs of mechanical parts and assemblies' ) ;
#73 = EDGE_CURVE ( 'NONE', #224, #55, #63, .T. ) ;
#74 = ORIENTED_EDGE ( 'NONE', *, *, #113, .T. ) ;
#75 = ORIENTED_EDGE ( 'NONE', *, *, #48, .T. ) ;
#76 = COORDINATED_UNIVERSAL_TIME_OFFSET ( 8, 0, .AHEAD. ) ;
#77 = EDGE_LOOP ( 'NONE', ( #111, #79, #95, #94 ) ) ;
#78 = EDGE_CURVE ( 'NONE', #43, #150, #136, .T. ) ;
#79 = ORIENTED_EDGE ( 'NONE', *, *, #219, .F. ) ;
#80 = CARTESIAN_POINT ( 'NONE',  ( -15.00000000000000000, 0.000000000000000000, 15.00000000000000000 ) ) ;
#81 = AXIS2_PLACEMENT_3D ( 'NONE', #134, #100, #208 ) ;
#82 = DIRECTION ( 'NONE',  ( 0.000000000000000000, 0.000000000000000000, -1.000000000000000000 ) ) ;
#83 = LINE ( 'NONE', #119, #108 ) ;
#84 = CARTESIAN_POINT ( 'NONE',  ( 15.00000000000000000, 0.000000000000000000, -15.00000000000000000 ) ) ;
#85 = LINE ( 'NONE', #198, #18 ) ;
#86 = PERSON_AND_ORGANIZATION ( #171, #182 ) ;
#87 = PERSON_AND_ORGANIZATION ( #171, #182 ) ;
#88 = APPROVAL ( #66, '未指定' ) ;
#89 =( LENGTH_UNIT ( ) NAMED_UNIT ( * ) SI_UNIT ( .MILLI., .METRE. ) );
#90 = AXIS2_PLACEMENT_3D ( 'NONE', #181, #197, #37 ) ;
#91 = CARTESIAN_POINT ( 'NONE',  ( 15.00000000000000000, 3.000000000000000000, 15.00000000000000000 ) ) ;
#92 = PERSON_AND_ORGANIZATION_ROLE ( 'design_supplier' ) ;
#93 = APPROVAL_STATUS ( 'not_yet_approved' ) ;
#94 = ORIENTED_EDGE ( 'NONE', *, *, #205, .T. ) ;
#95 = ORIENTED_EDGE ( 'NONE', *, *, #25, .F. ) ;
#96 = VECTOR ( 'NONE', #82, 1000.000000000000000 ) ;
#97 = DIRECTION ( 'NONE',  ( -1.000000000000000000, -0.000000000000000000, -0.000000000000000000 ) ) ;
#98 = LINE ( 'NONE', #175, #32 ) ;
#99 = DESIGN_CONTEXT ( 'detailed design', #72, 'design' ) ;
#100 = DIRECTION ( 'NONE',  ( 0.000000000000000000, 0.000000000000000000, -1.000000000000000000 ) ) ;
#101 = ADVANCED_BREP_SHAPE_REPRESENTATION ( 'FN-FRM-008_tube-end-cap-30x30x3_CONCEPT_R0.7', ( #135, #7 ), #34 ) ;
#102 = VECTOR ( 'NONE', #207, 1000.000000000000000 ) ;
#103 = ORIENTED_EDGE ( 'NONE', *, *, #25, .T. ) ;
#104 = DIRECTION ( 'NONE',  ( 0.000000000000000000, 0.000000000000000000, 1.000000000000000000 ) ) ;
#105 = ADVANCED_FACE ( 'NONE', ( #206 ), #139, .F. ) ;
#106 = PERSON_AND_ORGANIZATION ( #171, #182 ) ;
#107 = DATE_AND_TIME ( #184, #3 ) ;
#108 = VECTOR ( 'NONE', #161, 1000.000000000000000 ) ;
#109 = CC_DESIGN_SECURITY_CLASSIFICATION ( #60, ( #178 ) ) ;
#110 =( NAMED_UNIT ( * ) PLANE_ANGLE_UNIT ( ) SI_UNIT ( $, .RADIAN. ) );
#111 = ORIENTED_EDGE ( 'NONE', *, *, #73, .T. ) ;
#112 = ORIENTED_EDGE ( 'NONE', *, *, #152, .T. ) ;
#113 = EDGE_CURVE ( 'NONE', #162, #150, #26, .T. ) ;
#114 = COORDINATED_UNIVERSAL_TIME_OFFSET ( 8, 0, .AHEAD. ) ;
#115 = VECTOR ( 'NONE', #97, 1000.000000000000000 ) ;
#116 = DATE_AND_TIME ( #189, #191 ) ;
#117 = APPROVAL ( #93, '未指定' ) ;
#118 = VERTEX_POINT ( 'NONE', #12 ) ;
#119 = CARTESIAN_POINT ( 'NONE',  ( -15.00000000000000000, 0.000000000000000000, 15.00000000000000000 ) ) ;
#120 = LINE ( 'NONE', #50, #96 ) ;
#121 = EDGE_CURVE ( 'NONE', #118, #162, #98, .T. ) ;
#122 = LINE ( 'NONE', #193, #115 ) ;
#123 = PLANE ( 'NONE',  #29 ) ;
#124 = VECTOR ( 'NONE', #140, 1000.000000000000000 ) ;
#125 = FACE_OUTER_BOUND ( 'NONE', #77, .T. ) ;
#126 = FACE_OUTER_BOUND ( 'NONE', #23, .T. ) ;
#127 = CALENDAR_DATE ( 2026, 27, 7 ) ;
#128 = CALENDAR_DATE ( 2026, 27, 7 ) ;
#129 = CALENDAR_DATE ( 2026, 27, 7 ) ;
#130 = ORIENTED_EDGE ( 'NONE', *, *, #205, .F. ) ;
#131 = ADVANCED_FACE ( 'NONE', ( #125 ), #49, .F. ) ;
#132 = DATE_TIME_ROLE ( 'classification_date' ) ;
#133 = VECTOR ( 'NONE', #44, 1000.000000000000000 ) ;
#134 = CARTESIAN_POINT ( 'NONE',  ( -15.00000000000000000, 3.000000000000000000, 15.00000000000000000 ) ) ;
#135 = MANIFOLD_SOLID_BREP ( '凸台-拉伸1', #65 ) ;
#136 = LINE ( 'NONE', #24, #137 ) ;
#137 = VECTOR ( 'NONE', #211, 1000.000000000000000 ) ;
#138 = DIRECTION ( 'NONE',  ( -1.000000000000000000, 0.000000000000000000, 0.000000000000000000 ) ) ;
#139 = PLANE ( 'NONE',  #157 ) ;
#140 = DIRECTION ( 'NONE',  ( 0.000000000000000000, 0.000000000000000000, -1.000000000000000000 ) ) ;
#141 =( NAMED_UNIT ( * ) SI_UNIT ( $, .STERADIAN. ) SOLID_ANGLE_UNIT ( ) );
#142 = DIRECTION ( 'NONE',  ( 0.000000000000000000, 0.000000000000000000, 1.000000000000000000 ) ) ;
#143 = CARTESIAN_POINT ( 'NONE',  ( 0.000000000000000000, 0.000000000000000000, 0.000000000000000000 ) ) ;
#144 = APPROVAL_ROLE ( '' ) ;
#145 = ADVANCED_FACE ( 'NONE', ( #9 ), #196, .F. ) ;
#146 = DIRECTION ( 'NONE',  ( -0.000000000000000000, -1.000000000000000000, -0.000000000000000000 ) ) ;
#147 = PERSON_AND_ORGANIZATION ( #171, #182 ) ;
#148 = ORIENTED_EDGE ( 'NONE', *, *, #45, .T. ) ;
#149 = PERSON_AND_ORGANIZATION ( #171, #182 ) ;
#150 = VERTEX_POINT ( 'NONE', #80 ) ;
#151 = VECTOR ( 'NONE', #200, 1000.000000000000000 ) ;
#152 = EDGE_CURVE ( 'NONE', #162, #180, #47, .T. ) ;
#153 = EDGE_LOOP ( 'NONE', ( #170, #186, #40, #172 ) ) ;
#154 = UNCERTAINTY_MEASURE_WITH_UNIT (LENGTH_MEASURE( 1.000000000000000082E-05 ), #89, 'distance_accuracy_value', 'NONE');
#155 = CARTESIAN_POINT ( 'NONE',  ( -15.00000000000000000, 3.000000000000000000, 15.00000000000000000 ) ) ;
#156 = EDGE_LOOP ( 'NONE', ( #8, #1, #220, #232 ) ) ;
#157 = AXIS2_PLACEMENT_3D ( 'NONE', #210, #30, #46 ) ;
#158 = CC_DESIGN_APPROVAL ( #117, ( #60 ) ) ;
#159 = CARTESIAN_POINT ( 'NONE',  ( -15.00000000000000000, 0.000000000000000000, -15.00000000000000000 ) ) ;
#160 = CC_DESIGN_PERSON_AND_ORGANIZATION_ASSIGNMENT ( #203, #21, ( #60 ) ) ;
#161 = DIRECTION ( 'NONE',  ( 1.000000000000000000, 0.000000000000000000, 0.000000000000000000 ) ) ;
#162 = VERTEX_POINT ( 'NONE', #10 ) ;
#163 = PERSON_AND_ORGANIZATION_ROLE ( 'design_owner' ) ;
#164 = LINE ( 'NONE', #52, #151 ) ;
#165 = EDGE_CURVE ( 'NONE', #55, #43, #122, .T. ) ;
#166 = ADVANCED_FACE ( 'NONE', ( #27 ), #123, .T. ) ;
#167 = VECTOR ( 'NONE', #192, 1000.000000000000000 ) ;
#168 = CC_DESIGN_APPROVAL ( #169, ( #178 ) ) ;
#169 = APPROVAL ( #235, '未指定' ) ;
#170 = ORIENTED_EDGE ( 'NONE', *, *, #78, .F. ) ;
#171 = PERSON ( '未指定', '未指定', '未指定', ('未指定'), ('未指定'), ('未指定') ) ;
#172 = ORIENTED_EDGE ( 'NONE', *, *, #48, .F. ) ;
#173 = APPROVAL_PERSON_ORGANIZATION ( #87, #169, #144 ) ;
#174 = CARTESIAN_POINT ( 'NONE',  ( -15.00000000000000000, 3.000000000000000000, 15.00000000000000000 ) ) ;
#175 = CARTESIAN_POINT ( 'NONE',  ( -15.00000000000000000, 3.000000000000000000, 15.00000000000000000 ) ) ;
#176 = PRODUCT ( 'FN-FRM-008_tube-end-cap-30x30x3_CONCEPT_R0.7', 'FN-FRM-008_tube-end-cap-30x30x3_CONCEPT_R0.7', '', ( #31 ) ) ;
#177 = ORIENTED_EDGE ( 'NONE', *, *, #152, .F. ) ;
#178 = PRODUCT_DEFINITION_FORMATION_WITH_SPECIFIED_SOURCE ( '任何', '', #176, .NOT_KNOWN. ) ;
#179 = ORIENTED_EDGE ( 'NONE', *, *, #113, .F. ) ;
#180 = VERTEX_POINT ( 'NONE', #91 ) ;
#181 = CARTESIAN_POINT ( 'NONE',  ( 0.000000000000000000, 3.000000000000000000, 0.000000000000000000 ) ) ;
#182 = ORGANIZATION ( '未指定', '未指定', '' ) ;
#183 = DATE_AND_TIME ( #127, #221 ) ;
#184 = CALENDAR_DATE ( 2026, 27, 7 ) ;
#185 = APPROVAL_PERSON_ORGANIZATION ( #147, #117, #19 ) ;
#186 = ORIENTED_EDGE ( 'NONE', *, *, #165, .F. ) ;
#187 = PERSON_AND_ORGANIZATION_ROLE ( 'creator' ) ;
#188 = ORIENTED_EDGE ( 'NONE', *, *, #78, .T. ) ;
#189 = CALENDAR_DATE ( 2026, 27, 7 ) ;
#190 = PLANE ( 'NONE',  #2 ) ;
#191 = LOCAL_TIME ( 1, 43, 43.00000000000000000, #76 ) ;
#192 = DIRECTION ( 'NONE',  ( -0.000000000000000000, -1.000000000000000000, -0.000000000000000000 ) ) ;
#193 = CARTESIAN_POINT ( 'NONE',  ( -15.00000000000000000, 0.000000000000000000, -15.00000000000000000 ) ) ;
#194 = CARTESIAN_POINT ( 'NONE',  ( 0.000000000000000000, 0.000000000000000000, 0.000000000000000000 ) ) ;
#195 = VECTOR ( 'NONE', #146, 1000.000000000000000 ) ;
#196 = PLANE ( 'NONE',  #81 ) ;
#197 = DIRECTION ( 'NONE',  ( 0.000000000000000000, -1.000000000000000000, 0.000000000000000000 ) ) ;
#198 = CARTESIAN_POINT ( 'NONE',  ( 15.00000000000000000, 3.000000000000000000, -15.00000000000000000 ) ) ;
#199 = CC_DESIGN_PERSON_AND_ORGANIZATION_ASSIGNMENT ( #149, #92, ( #178 ) ) ;
#200 = DIRECTION ( 'NONE',  ( -0.000000000000000000, -1.000000000000000000, -0.000000000000000000 ) ) ;
#201 = LINE ( 'NONE', #36, #195 ) ;
#202 = VERTEX_POINT ( 'NONE', #64 ) ;
#203 = PERSON_AND_ORGANIZATION ( #171, #182 ) ;
#204 = ORIENTED_EDGE ( 'NONE', *, *, #121, .T. ) ;
#205 = EDGE_CURVE ( 'NONE', #180, #224, #201, .T. ) ;
#206 = FACE_OUTER_BOUND ( 'NONE', #156, .T. ) ;
#207 = DIRECTION ( 'NONE',  ( -1.000000000000000000, -0.000000000000000000, -0.000000000000000000 ) ) ;
#208 = DIRECTION ( 'NONE',  ( -1.000000000000000000, 0.000000000000000000, -0.000000000000000000 ) ) ;
#209 = CC_DESIGN_DATE_AND_TIME_ASSIGNMENT ( #183, #15, ( #236 ) ) ;
#210 = CARTESIAN_POINT ( 'NONE',  ( -15.00000000000000000, 3.000000000000000000, -15.00000000000000000 ) ) ;
#211 = DIRECTION ( 'NONE',  ( -0.000000000000000000, -0.000000000000000000, 1.000000000000000000 ) ) ;
#212 = DIRECTION ( 'NONE',  ( -0.000000000000000000, -1.000000000000000000, -0.000000000000000000 ) ) ;
#213 = ADVANCED_FACE ( 'NONE', ( #126 ), #216, .F. ) ;
#214 = APPROVAL_ROLE ( '' ) ;
#215 = APPLICATION_CONTEXT ( 'configuration controlled 3d designs of mechanical parts and assemblies' ) ;
#216 = PLANE ( 'NONE',  #90 ) ;
#217 = COORDINATED_UNIVERSAL_TIME_OFFSET ( 8, 0, .AHEAD. ) ;
#218 = APPLICATION_PROTOCOL_DEFINITION ( 'international standard', 'config_control_design', 1994, #215 ) ;
#219 = EDGE_CURVE ( 'NONE', #202, #55, #85, .T. ) ;
#220 = ORIENTED_EDGE ( 'NONE', *, *, #45, .F. ) ;
#221 = LOCAL_TIME ( 1, 43, 43.00000000000000000, #67 ) ;
#222 = EDGE_CURVE ( 'NONE', #118, #43, #164, .T. ) ;
#223 = LOCAL_TIME ( 1, 43, 43.00000000000000000, #114 ) ;
#224 = VERTEX_POINT ( 'NONE', #35 ) ;
#225 = CARTESIAN_POINT ( 'NONE',  ( 15.00000000000000000, 3.000000000000000000, 15.00000000000000000 ) ) ;
#226 = CARTESIAN_POINT ( 'NONE',  ( 15.00000000000000000, 0.000000000000000000, 15.00000000000000000 ) ) ;
#227 = APPROVAL_PERSON_ORGANIZATION ( #233, #88, #214 ) ;
#228 = DIRECTION ( 'NONE',  ( 1.000000000000000000, -0.000000000000000000, 0.000000000000000000 ) ) ;
#229 = FACE_OUTER_BOUND ( 'NONE', #6, .T. ) ;
#230 = PRODUCT_DEFINITION_SHAPE ( 'NONE', 'NONE',  #236 ) ;
#231 = PRODUCT_RELATED_PRODUCT_CATEGORY ( 'detail', '', ( #176 ) ) ;
#232 = ORIENTED_EDGE ( 'NONE', *, *, #219, .T. ) ;
#233 = PERSON_AND_ORGANIZATION ( #171, #182 ) ;
#234 = PERSON_AND_ORGANIZATION_ROLE ( 'creator' ) ;
#235 = APPROVAL_STATUS ( 'not_yet_approved' ) ;
#236 = PRODUCT_DEFINITION ( '未知', '', #178, #99 ) ;
#237 = APPROVAL_DATE_TIME ( #22, #169 ) ;
ENDSEC;
END-ISO-10303-21;
