ISO-10303-21;
HEADER;
FILE_DESCRIPTION (( 'STEP AP203' ),
    '1' );
FILE_NAME ('FN-FST-004_mast-bolt-envelope-D8x35_PENDING_R0.7.STEP',
    '2026-07-26T17:43:38',
    ( '' ),
    ( '' ),
    'SwSTEP 2.0',
    'SolidWorks 2022',
    '' );
FILE_SCHEMA (( 'CONFIG_CONTROL_DESIGN' ));
ENDSEC;

DATA;
#1 = ORIENTED_EDGE ( 'NONE', *, *, #150, .T. ) ;
#2 = DIRECTION ( 'NONE',  ( 0.000000000000000000, 1.000000000000000000, 0.000000000000000000 ) ) ;
#3 = ORIENTED_EDGE ( 'NONE', *, *, #129, .T. ) ;
#4 = VERTEX_POINT ( 'NONE', #67 ) ;
#5 = MANIFOLD_SOLID_BREP ( '凸台-拉伸1', #64 ) ;
#6 = CC_DESIGN_PERSON_AND_ORGANIZATION_ASSIGNMENT ( #124, #100, ( #86 ) ) ;
#7 = CC_DESIGN_APPROVAL ( #110, ( #75 ) ) ;
#8 = APPROVAL_STATUS ( 'not_yet_approved' ) ;
#9 = AXIS2_PLACEMENT_3D ( 'NONE', #140, #106, #141 ) ;
#10 = LOCAL_TIME ( 1, 43, 38.00000000000000000, #19 ) ;
#11 = CC_DESIGN_APPROVAL ( #41, ( #60 ) ) ;
#12 = EDGE_CURVE ( 'NONE', #168, #4, #134, .T. ) ;
#13 = DIRECTION ( 'NONE',  ( 0.000000000000000000, 0.000000000000000000, 1.000000000000000000 ) ) ;
#14 = UNCERTAINTY_MEASURE_WITH_UNIT (LENGTH_MEASURE( 1.000000000000000082E-05 ), #126, 'distance_accuracy_value', 'NONE');
#15 = ORIENTED_EDGE ( 'NONE', *, *, #12, .T. ) ;
#16 = DIRECTION ( 'NONE',  ( -0.000000000000000000, -1.000000000000000000, -0.000000000000000000 ) ) ;
#17 = PERSON_AND_ORGANIZATION_ROLE ( 'design_supplier' ) ;
#18 =( NAMED_UNIT ( * ) SI_UNIT ( $, .STERADIAN. ) SOLID_ANGLE_UNIT ( ) );
#19 = COORDINATED_UNIVERSAL_TIME_OFFSET ( 8, 0, .AHEAD. ) ;
#20 = CIRCLE ( 'NONE', #154, 4.000000000000000000 ) ;
#21 = DIRECTION ( 'NONE',  ( 0.000000000000000000, 0.000000000000000000, 1.000000000000000000 ) ) ;
#22 = COORDINATED_UNIVERSAL_TIME_OFFSET ( 8, 0, .AHEAD. ) ;
#23 = APPROVAL_DATE_TIME ( #125, #41 ) ;
#24 = AXIS2_PLACEMENT_3D ( 'NONE', #42, #103, #151 ) ;
#25 = EDGE_CURVE ( 'NONE', #105, #119, #29, .T. ) ;
#26 = ADVANCED_FACE ( 'NONE', ( #69 ), #108, .T. ) ;
#27 = DESIGN_CONTEXT ( 'detailed design', #127, 'design' ) ;
#28 = FACE_OUTER_BOUND ( 'NONE', #88, .T. ) ;
#29 = CIRCLE ( 'NONE', #9, 4.000000000000000000 ) ;
#30 = PERSON ( '未指定', '未指定', '未指定', ('未指定'), ('未指定'), ('未指定') ) ;
#31 = CARTESIAN_POINT ( 'NONE',  ( 0.000000000000000000, 0.000000000000000000, 0.000000000000000000 ) ) ;
#32 = PLANE ( 'NONE',  #72 ) ;
#33 = APPROVAL_DATE_TIME ( #101, #46 ) ;
#34 = LOCAL_TIME ( 1, 43, 38.00000000000000000, #22 ) ;
#35 = CC_DESIGN_PERSON_AND_ORGANIZATION_ASSIGNMENT ( #175, #123, ( #76 ) ) ;
#36 = SECURITY_CLASSIFICATION_LEVEL ( 'unclassified' ) ;
#37 = APPROVAL_DATE_TIME ( #95, #110 ) ;
#38 = APPROVAL_ROLE ( '' ) ;
#39 = ADVANCED_BREP_SHAPE_REPRESENTATION ( 'FN-FST-004_mast-bolt-envelope-D8x35_PENDING_R0.7', ( #5, #66 ), #80 ) ;
#40 = CC_DESIGN_PERSON_AND_ORGANIZATION_ASSIGNMENT ( #159, #144, ( #75 ) ) ;
#41 = APPROVAL ( #58, '未指定' ) ;
#42 = CARTESIAN_POINT ( 'NONE',  ( 0.000000000000000000, 35.00000000000000000, 0.000000000000000000 ) ) ;
#43 = CYLINDRICAL_SURFACE ( 'NONE', #139, 4.000000000000000000 ) ;
#44 = ORIENTED_EDGE ( 'NONE', *, *, #65, .T. ) ;
#45 = APPROVAL_PERSON_ORGANIZATION ( #81, #46, #38 ) ;
#46 = APPROVAL ( #8, '未指定' ) ;
#47 = CALENDAR_DATE ( 2026, 27, 7 ) ;
#48 = CARTESIAN_POINT ( 'NONE',  ( 0.000000000000000000, 35.00000000000000000, 0.000000000000000000 ) ) ;
#49 = DATE_AND_TIME ( #172, #102 ) ;
#50 = CALENDAR_DATE ( 2026, 27, 7 ) ;
#51 = CARTESIAN_POINT ( 'NONE',  ( 0.000000000000000000, 35.00000000000000000, 0.000000000000000000 ) ) ;
#52 = CALENDAR_DATE ( 2026, 27, 7 ) ;
#53 = CC_DESIGN_DATE_AND_TIME_ASSIGNMENT ( #49, #99, ( #60 ) ) ;
#54 = DIRECTION ( 'NONE',  ( -0.000000000000000000, -1.000000000000000000, -0.000000000000000000 ) ) ;
#55 = ORIENTED_EDGE ( 'NONE', *, *, #121, .F. ) ;
#56 = ORIENTED_EDGE ( 'NONE', *, *, #25, .T. ) ;
#57 = CARTESIAN_POINT ( 'NONE',  ( 0.000000000000000000, 0.000000000000000000, 0.000000000000000000 ) ) ;
#58 = APPROVAL_STATUS ( 'not_yet_approved' ) ;
#59 = CARTESIAN_POINT ( 'NONE',  ( 0.000000000000000000, 35.00000000000000000, -4.000000000000000000 ) ) ;
#60 = SECURITY_CLASSIFICATION ( '', '', #36 ) ;
#61 = PERSON_AND_ORGANIZATION ( #30, #112 ) ;
#62 = LOCAL_TIME ( 1, 43, 38.00000000000000000, #111 ) ;
#63 = MECHANICAL_CONTEXT ( 'NONE', #113, 'mechanical' ) ;
#64 = CLOSED_SHELL ( 'NONE', ( #162, #167, #26, #71 ) ) ;
#65 = EDGE_CURVE ( 'NONE', #105, #168, #156, .T. ) ;
#66 = AXIS2_PLACEMENT_3D ( 'NONE', #109, #21, #97 ) ;
#67 = CARTESIAN_POINT ( 'NONE',  ( 0.000000000000000000, 0.000000000000000000, -4.000000000000000000 ) ) ;
#68 = CC_DESIGN_PERSON_AND_ORGANIZATION_ASSIGNMENT ( #61, #17, ( #75 ) ) ;
#69 = FACE_OUTER_BOUND ( 'NONE', #164, .T. ) ;
#70 = ORIENTED_EDGE ( 'NONE', *, *, #65, .F. ) ;
#71 = ADVANCED_FACE ( 'NONE', ( #28 ), #32, .F. ) ;
#72 = AXIS2_PLACEMENT_3D ( 'NONE', #31, #169, #152 ) ;
#73 = FACE_OUTER_BOUND ( 'NONE', #130, .T. ) ;
#74 = VECTOR ( 'NONE', #54, 1000.000000000000000 ) ;
#75 = PRODUCT_DEFINITION_FORMATION_WITH_SPECIFIED_SOURCE ( '任何', '', #76, .NOT_KNOWN. ) ;
#76 = PRODUCT ( 'FN-FST-004_mast-bolt-envelope-D8x35_PENDING_R0.7', 'FN-FST-004_mast-bolt-envelope-D8x35_PENDING_R0.7', '', ( #63 ) ) ;
#77 = PERSON_AND_ORGANIZATION ( #30, #112 ) ;
#78 = COORDINATED_UNIVERSAL_TIME_OFFSET ( 8, 0, .AHEAD. ) ;
#79 = DIRECTION ( 'NONE',  ( -0.000000000000000000, -1.000000000000000000, -0.000000000000000000 ) ) ;
#80 =( GEOMETRIC_REPRESENTATION_CONTEXT ( 3 ) GLOBAL_UNCERTAINTY_ASSIGNED_CONTEXT ( ( #14 ) ) GLOBAL_UNIT_ASSIGNED_CONTEXT ( ( #126, #161, #18 ) ) REPRESENTATION_CONTEXT ( 'NONE', 'WORKASPACE' ) );
#81 = PERSON_AND_ORGANIZATION ( #30, #112 ) ;
#82 = SHAPE_DEFINITION_REPRESENTATION ( #87, #39 ) ;
#83 = AXIS2_PLACEMENT_3D ( 'NONE', #48, #79, #158 ) ;
#84 = ORIENTED_EDGE ( 'NONE', *, *, #150, .F. ) ;
#85 = PERSON_AND_ORGANIZATION ( #30, #112 ) ;
#86 = PRODUCT_DEFINITION ( '未知', '', #75, #27 ) ;
#87 = PRODUCT_DEFINITION_SHAPE ( 'NONE', 'NONE',  #86 ) ;
#88 = EDGE_LOOP ( 'NONE', ( #84, #142 ) ) ;
#89 = ORIENTED_EDGE ( 'NONE', *, *, #129, .F. ) ;
#90 = LINE ( 'NONE', #120, #92 ) ;
#91 = DIRECTION ( 'NONE',  ( 0.000000000000000000, 1.000000000000000000, 0.000000000000000000 ) ) ;
#92 = VECTOR ( 'NONE', #16, 1000.000000000000000 ) ;
#93 = CYLINDRICAL_SURFACE ( 'NONE', #83, 4.000000000000000000 ) ;
#94 = CC_DESIGN_APPROVAL ( #46, ( #86 ) ) ;
#95 = DATE_AND_TIME ( #50, #128 ) ;
#96 = CARTESIAN_POINT ( 'NONE',  ( 4.898587196589412829E-16, 0.000000000000000000, 4.000000000000000000 ) ) ;
#97 = DIRECTION ( 'NONE',  ( 1.000000000000000000, 0.000000000000000000, 0.000000000000000000 ) ) ;
#98 = DIRECTION ( 'NONE',  ( 0.000000000000000000, 0.000000000000000000, -1.000000000000000000 ) ) ;
#99 = DATE_TIME_ROLE ( 'classification_date' ) ;
#100 = PERSON_AND_ORGANIZATION_ROLE ( 'creator' ) ;
#101 = DATE_AND_TIME ( #47, #62 ) ;
#102 = LOCAL_TIME ( 1, 43, 38.00000000000000000, #122 ) ;
#103 = DIRECTION ( 'NONE',  ( 0.000000000000000000, 1.000000000000000000, 0.000000000000000000 ) ) ;
#104 = PRODUCT_RELATED_PRODUCT_CATEGORY ( 'detail', '', ( #76 ) ) ;
#105 = VERTEX_POINT ( 'NONE', #170 ) ;
#106 = DIRECTION ( 'NONE',  ( 0.000000000000000000, 1.000000000000000000, 0.000000000000000000 ) ) ;
#107 = AXIS2_PLACEMENT_3D ( 'NONE', #132, #143, #114 ) ;
#108 = PLANE ( 'NONE',  #107 ) ;
#109 = CARTESIAN_POINT ( 'NONE',  ( 0.000000000000000000, 0.000000000000000000, 0.000000000000000000 ) ) ;
#110 = APPROVAL ( #171, '未指定' ) ;
#111 = COORDINATED_UNIVERSAL_TIME_OFFSET ( 8, 0, .AHEAD. ) ;
#112 = ORGANIZATION ( '未指定', '未指定', '' ) ;
#113 = APPLICATION_CONTEXT ( 'configuration controlled 3d designs of mechanical parts and assemblies' ) ;
#114 = DIRECTION ( 'NONE',  ( 0.000000000000000000, -0.000000000000000000, 1.000000000000000000 ) ) ;
#115 = CIRCLE ( 'NONE', #24, 4.000000000000000000 ) ;
#116 = APPROVAL_PERSON_ORGANIZATION ( #85, #41, #148 ) ;
#117 = DIRECTION ( 'NONE',  ( 0.000000000000000000, 0.000000000000000000, 1.000000000000000000 ) ) ;
#118 = EDGE_LOOP ( 'NONE', ( #155, #44, #15, #55 ) ) ;
#119 = VERTEX_POINT ( 'NONE', #59 ) ;
#120 = CARTESIAN_POINT ( 'NONE',  ( 0.000000000000000000, 35.00000000000000000, -4.000000000000000000 ) ) ;
#121 = EDGE_CURVE ( 'NONE', #119, #4, #90, .T. ) ;
#122 = COORDINATED_UNIVERSAL_TIME_OFFSET ( 8, 0, .AHEAD. ) ;
#123 = PERSON_AND_ORGANIZATION_ROLE ( 'design_owner' ) ;
#124 = PERSON_AND_ORGANIZATION ( #30, #112 ) ;
#125 = DATE_AND_TIME ( #136, #34 ) ;
#126 =( LENGTH_UNIT ( ) NAMED_UNIT ( * ) SI_UNIT ( .MILLI., .METRE. ) );
#127 = APPLICATION_CONTEXT ( 'configuration controlled 3d designs of mechanical parts and assemblies' ) ;
#128 = LOCAL_TIME ( 1, 43, 38.00000000000000000, #78 ) ;
#129 = EDGE_CURVE ( 'NONE', #119, #105, #115, .T. ) ;
#130 = EDGE_LOOP ( 'NONE', ( #70, #89, #133, #1 ) ) ;
#131 = CARTESIAN_POINT ( 'NONE',  ( 0.000000000000000000, 0.000000000000000000, 0.000000000000000000 ) ) ;
#132 = CARTESIAN_POINT ( 'NONE',  ( 0.000000000000000000, 35.00000000000000000, 0.000000000000000000 ) ) ;
#133 = ORIENTED_EDGE ( 'NONE', *, *, #121, .T. ) ;
#134 = CIRCLE ( 'NONE', #165, 4.000000000000000000 ) ;
#135 = PERSON_AND_ORGANIZATION_ROLE ( 'classification_officer' ) ;
#136 = CALENDAR_DATE ( 2026, 27, 7 ) ;
#137 = CC_DESIGN_SECURITY_CLASSIFICATION ( #60, ( #75 ) ) ;
#138 = CC_DESIGN_DATE_AND_TIME_ASSIGNMENT ( #147, #160, ( #86 ) ) ;
#139 = AXIS2_PLACEMENT_3D ( 'NONE', #51, #146, #98 ) ;
#140 = CARTESIAN_POINT ( 'NONE',  ( 0.000000000000000000, 35.00000000000000000, 0.000000000000000000 ) ) ;
#141 = DIRECTION ( 'NONE',  ( 0.000000000000000000, 0.000000000000000000, 1.000000000000000000 ) ) ;
#142 = ORIENTED_EDGE ( 'NONE', *, *, #12, .F. ) ;
#143 = DIRECTION ( 'NONE',  ( 0.000000000000000000, 1.000000000000000000, 0.000000000000000000 ) ) ;
#144 = PERSON_AND_ORGANIZATION_ROLE ( 'creator' ) ;
#145 = PERSON_AND_ORGANIZATION ( #30, #112 ) ;
#146 = DIRECTION ( 'NONE',  ( -0.000000000000000000, -1.000000000000000000, -0.000000000000000000 ) ) ;
#147 = DATE_AND_TIME ( #52, #10 ) ;
#148 = APPROVAL_ROLE ( '' ) ;
#149 = CC_DESIGN_PERSON_AND_ORGANIZATION_ASSIGNMENT ( #77, #135, ( #60 ) ) ;
#150 = EDGE_CURVE ( 'NONE', #4, #168, #20, .T. ) ;
#151 = DIRECTION ( 'NONE',  ( 0.000000000000000000, 0.000000000000000000, 1.000000000000000000 ) ) ;
#152 = DIRECTION ( 'NONE',  ( 0.000000000000000000, -0.000000000000000000, 1.000000000000000000 ) ) ;
#153 = CARTESIAN_POINT ( 'NONE',  ( 4.898587196589412829E-16, 35.00000000000000000, 4.000000000000000000 ) ) ;
#154 = AXIS2_PLACEMENT_3D ( 'NONE', #131, #2, #117 ) ;
#155 = ORIENTED_EDGE ( 'NONE', *, *, #25, .F. ) ;
#156 = LINE ( 'NONE', #153, #74 ) ;
#157 = APPLICATION_PROTOCOL_DEFINITION ( 'international standard', 'config_control_design', 1994, #113 ) ;
#158 = DIRECTION ( 'NONE',  ( 0.000000000000000000, 0.000000000000000000, -1.000000000000000000 ) ) ;
#159 = PERSON_AND_ORGANIZATION ( #30, #112 ) ;
#160 = DATE_TIME_ROLE ( 'creation_date' ) ;
#161 =( NAMED_UNIT ( * ) PLANE_ANGLE_UNIT ( ) SI_UNIT ( $, .RADIAN. ) );
#162 = ADVANCED_FACE ( 'NONE', ( #166 ), #43, .T. ) ;
#163 = APPROVAL_PERSON_ORGANIZATION ( #145, #110, #173 ) ;
#164 = EDGE_LOOP ( 'NONE', ( #3, #56 ) ) ;
#165 = AXIS2_PLACEMENT_3D ( 'NONE', #57, #91, #13 ) ;
#166 = FACE_OUTER_BOUND ( 'NONE', #118, .T. ) ;
#167 = ADVANCED_FACE ( 'NONE', ( #73 ), #93, .T. ) ;
#168 = VERTEX_POINT ( 'NONE', #96 ) ;
#169 = DIRECTION ( 'NONE',  ( 0.000000000000000000, 1.000000000000000000, 0.000000000000000000 ) ) ;
#170 = CARTESIAN_POINT ( 'NONE',  ( 4.898587196589412829E-16, 35.00000000000000000, 4.000000000000000000 ) ) ;
#171 = APPROVAL_STATUS ( 'not_yet_approved' ) ;
#172 = CALENDAR_DATE ( 2026, 27, 7 ) ;
#173 = APPROVAL_ROLE ( '' ) ;
#174 = APPLICATION_PROTOCOL_DEFINITION ( 'international standard', 'config_control_design', 1994, #127 ) ;
#175 = PERSON_AND_ORGANIZATION ( #30, #112 ) ;
ENDSEC;
END-ISO-10303-21;
