ISO-10303-21;
HEADER;
FILE_DESCRIPTION (( 'STEP AP203' ),
    '1' );
FILE_NAME ('FN-FST-001_M6-bolt-envelope-D6x55_PENDING_R0.7.STEP',
    '2026-07-26T17:43:01',
    ( '' ),
    ( '' ),
    'SwSTEP 2.0',
    'SolidWorks 2022',
    '' );
FILE_SCHEMA (( 'CONFIG_CONTROL_DESIGN' ));
ENDSEC;

DATA;
#1 = CC_DESIGN_PERSON_AND_ORGANIZATION_ASSIGNMENT ( #146, #113, ( #103 ) ) ;
#2 = CARTESIAN_POINT ( 'NONE',  ( 0.000000000000000000, 0.000000000000000000, 0.000000000000000000 ) ) ;
#3 = CARTESIAN_POINT ( 'NONE',  ( 3.000000000000000444, 3.673940397442060361E-16, 0.000000000000000000 ) ) ;
#4 = LINE ( 'NONE', #13, #63 ) ;
#5 = COORDINATED_UNIVERSAL_TIME_OFFSET ( 8, 0, .AHEAD. ) ;
#6 = CALENDAR_DATE ( 2026, 27, 7 ) ;
#7 = LOCAL_TIME ( 1, 43, 1.000000000000000000, #59 ) ;
#8 = CIRCLE ( 'NONE', #33, 3.000000000000000444 ) ;
#9 = ORIENTED_EDGE ( 'NONE', *, *, #117, .T. ) ;
#10 = ORIENTED_EDGE ( 'NONE', *, *, #159, .T. ) ;
#11 = EDGE_LOOP ( 'NONE', ( #134, #49, #148, #133 ) ) ;
#12 =( GEOMETRIC_REPRESENTATION_CONTEXT ( 3 ) GLOBAL_UNCERTAINTY_ASSIGNED_CONTEXT ( ( #147 ) ) GLOBAL_UNIT_ASSIGNED_CONTEXT ( ( #102, #106, #168 ) ) REPRESENTATION_CONTEXT ( 'NONE', 'WORKASPACE' ) );
#13 = CARTESIAN_POINT ( 'NONE',  ( 3.000000000000000444, 3.673940397442060361E-16, 55.00000000000000000 ) ) ;
#14 = LOCAL_TIME ( 1, 43, 1.000000000000000000, #5 ) ;
#15 = DIRECTION ( 'NONE',  ( 0.000000000000000000, 0.000000000000000000, 1.000000000000000000 ) ) ;
#16 = DIRECTION ( 'NONE',  ( 0.000000000000000000, 0.000000000000000000, 1.000000000000000000 ) ) ;
#17 = DIRECTION ( 'NONE',  ( 0.000000000000000000, 0.000000000000000000, 1.000000000000000000 ) ) ;
#18 = MECHANICAL_CONTEXT ( 'NONE', #42, 'mechanical' ) ;
#19 = CARTESIAN_POINT ( 'NONE',  ( 0.000000000000000000, 0.000000000000000000, 0.000000000000000000 ) ) ;
#20 = CC_DESIGN_APPROVAL ( #98, ( #140 ) ) ;
#21 = PERSON_AND_ORGANIZATION ( #124, #94 ) ;
#22 = ADVANCED_BREP_SHAPE_REPRESENTATION ( 'FN-FST-001_M6-bolt-envelope-D6x55_PENDING_R0.7', ( #92, #70 ), #12 ) ;
#23 = EDGE_LOOP ( 'NONE', ( #25, #131, #9, #38 ) ) ;
#24 = ORIENTED_EDGE ( 'NONE', *, *, #89, .F. ) ;
#25 = ORIENTED_EDGE ( 'NONE', *, *, #165, .F. ) ;
#26 = LOCAL_TIME ( 1, 43, 1.000000000000000000, #29 ) ;
#27 = SECURITY_CLASSIFICATION_LEVEL ( 'unclassified' ) ;
#28 = PERSON_AND_ORGANIZATION ( #124, #94 ) ;
#29 = COORDINATED_UNIVERSAL_TIME_OFFSET ( 8, 0, .AHEAD. ) ;
#30 = PRODUCT_DEFINITION_SHAPE ( 'NONE', 'NONE',  #161 ) ;
#31 = APPROVAL_PERSON_ORGANIZATION ( #60, #73, #145 ) ;
#32 = DIRECTION ( 'NONE',  ( 0.000000000000000000, 0.000000000000000000, 1.000000000000000000 ) ) ;
#33 = AXIS2_PLACEMENT_3D ( 'NONE', #166, #16, #43 ) ;
#34 = CALENDAR_DATE ( 2026, 27, 7 ) ;
#35 = PERSON_AND_ORGANIZATION ( #124, #94 ) ;
#36 = PRODUCT_DEFINITION_FORMATION_WITH_SPECIFIED_SOURCE ( '任何', '', #103, .NOT_KNOWN. ) ;
#37 = EDGE_LOOP ( 'NONE', ( #10, #149 ) ) ;
#38 = ORIENTED_EDGE ( 'NONE', *, *, #136, .F. ) ;
#39 = CARTESIAN_POINT ( 'NONE',  ( 0.000000000000000000, 0.000000000000000000, 55.00000000000000000 ) ) ;
#40 = CYLINDRICAL_SURFACE ( 'NONE', #87, 3.000000000000000444 ) ;
#41 = DIRECTION ( 'NONE',  ( -1.000000000000000000, 0.000000000000000000, 0.000000000000000000 ) ) ;
#42 = APPLICATION_CONTEXT ( 'configuration controlled 3d designs of mechanical parts and assemblies' ) ;
#43 = DIRECTION ( 'NONE',  ( 1.000000000000000000, 0.000000000000000000, 0.000000000000000000 ) ) ;
#44 = PERSON_AND_ORGANIZATION_ROLE ( 'creator' ) ;
#45 = LOCAL_TIME ( 1, 43, 1.000000000000000000, #72 ) ;
#46 = CALENDAR_DATE ( 2026, 27, 7 ) ;
#47 = CARTESIAN_POINT ( 'NONE',  ( 0.000000000000000000, 0.000000000000000000, 0.000000000000000000 ) ) ;
#48 = APPROVAL_STATUS ( 'not_yet_approved' ) ;
#49 = ORIENTED_EDGE ( 'NONE', *, *, #159, .F. ) ;
#50 = APPROVAL_DATE_TIME ( #139, #98 ) ;
#51 = DIRECTION ( 'NONE',  ( 1.000000000000000000, 0.000000000000000000, -0.000000000000000000 ) ) ;
#52 = CIRCLE ( 'NONE', #169, 3.000000000000000444 ) ;
#53 = PERSON_AND_ORGANIZATION_ROLE ( 'design_supplier' ) ;
#54 = DIRECTION ( 'NONE',  ( 0.000000000000000000, 0.000000000000000000, 1.000000000000000000 ) ) ;
#55 = DIRECTION ( 'NONE',  ( -0.000000000000000000, -0.000000000000000000, -1.000000000000000000 ) ) ;
#56 = CC_DESIGN_PERSON_AND_ORGANIZATION_ASSIGNMENT ( #129, #53, ( #36 ) ) ;
#57 = APPLICATION_PROTOCOL_DEFINITION ( 'international standard', 'config_control_design', 1994, #74 ) ;
#58 = CC_DESIGN_PERSON_AND_ORGANIZATION_ASSIGNMENT ( #135, #62, ( #140 ) ) ;
#59 = COORDINATED_UNIVERSAL_TIME_OFFSET ( 8, 0, .AHEAD. ) ;
#60 = PERSON_AND_ORGANIZATION ( #124, #94 ) ;
#61 = APPLICATION_PROTOCOL_DEFINITION ( 'international standard', 'config_control_design', 1994, #42 ) ;
#62 = PERSON_AND_ORGANIZATION_ROLE ( 'classification_officer' ) ;
#63 = VECTOR ( 'NONE', #155, 1000.000000000000000 ) ;
#64 = LOCAL_TIME ( 1, 43, 1.000000000000000000, #156 ) ;
#65 = VERTEX_POINT ( 'NONE', #163 ) ;
#66 = ORIENTED_EDGE ( 'NONE', *, *, #117, .F. ) ;
#67 = DATE_AND_TIME ( #46, #45 ) ;
#68 = APPROVAL ( #123, '未指定' ) ;
#69 = CARTESIAN_POINT ( 'NONE',  ( -3.000000000000000444, 0.000000000000000000, 55.00000000000000000 ) ) ;
#70 = AXIS2_PLACEMENT_3D ( 'NONE', #19, #17, #112 ) ;
#71 = CARTESIAN_POINT ( 'NONE',  ( 0.000000000000000000, 0.000000000000000000, 55.00000000000000000 ) ) ;
#72 = COORDINATED_UNIVERSAL_TIME_OFFSET ( 8, 0, .AHEAD. ) ;
#73 = APPROVAL ( #170, '未指定' ) ;
#74 = APPLICATION_CONTEXT ( 'configuration controlled 3d designs of mechanical parts and assemblies' ) ;
#75 = FACE_OUTER_BOUND ( 'NONE', #23, .T. ) ;
#76 = ADVANCED_FACE ( 'NONE', ( #75 ), #108, .T. ) ;
#77 = AXIS2_PLACEMENT_3D ( 'NONE', #71, #32, #153 ) ;
#78 = CC_DESIGN_SECURITY_CLASSIFICATION ( #140, ( #36 ) ) ;
#79 = DIRECTION ( 'NONE',  ( -0.000000000000000000, -0.000000000000000000, -1.000000000000000000 ) ) ;
#80 = VERTEX_POINT ( 'NONE', #172 ) ;
#81 = SHAPE_DEFINITION_REPRESENTATION ( #30, #22 ) ;
#82 = CARTESIAN_POINT ( 'NONE',  ( -3.000000000000000444, 0.000000000000000000, 55.00000000000000000 ) ) ;
#83 = VECTOR ( 'NONE', #55, 1000.000000000000000 ) ;
#84 = APPROVAL_ROLE ( '' ) ;
#85 = FACE_OUTER_BOUND ( 'NONE', #116, .T. ) ;
#86 = CALENDAR_DATE ( 2026, 27, 7 ) ;
#87 = AXIS2_PLACEMENT_3D ( 'NONE', #143, #119, #41 ) ;
#88 = APPROVAL_ROLE ( '' ) ;
#89 = EDGE_CURVE ( 'NONE', #80, #109, #52, .T. ) ;
#90 = DATE_AND_TIME ( #6, #7 ) ;
#91 = CIRCLE ( 'NONE', #104, 3.000000000000000444 ) ;
#92 = MANIFOLD_SOLID_BREP ( '凸台-拉伸1', #120 ) ;
#93 = CC_DESIGN_DATE_AND_TIME_ASSIGNMENT ( #90, #144, ( #161 ) ) ;
#94 = ORGANIZATION ( '未指定', '未指定', '' ) ;
#95 = VERTEX_POINT ( 'NONE', #82 ) ;
#96 = PLANE ( 'NONE',  #152 ) ;
#97 = DATE_TIME_ROLE ( 'classification_date' ) ;
#98 = APPROVAL ( #48, '未指定' ) ;
#99 = DIRECTION ( 'NONE',  ( 0.000000000000000000, 0.000000000000000000, 1.000000000000000000 ) ) ;
#100 = FACE_OUTER_BOUND ( 'NONE', #37, .T. ) ;
#101 = ADVANCED_FACE ( 'NONE', ( #151 ), #40, .T. ) ;
#102 =( LENGTH_UNIT ( ) NAMED_UNIT ( * ) SI_UNIT ( .MILLI., .METRE. ) );
#103 = PRODUCT ( 'FN-FST-001_M6-bolt-envelope-D6x55_PENDING_R0.7', 'FN-FST-001_M6-bolt-envelope-D6x55_PENDING_R0.7', '', ( #18 ) ) ;
#104 = AXIS2_PLACEMENT_3D ( 'NONE', #138, #54, #121 ) ;
#105 = CC_DESIGN_PERSON_AND_ORGANIZATION_ASSIGNMENT ( #35, #44, ( #161 ) ) ;
#106 =( NAMED_UNIT ( * ) PLANE_ANGLE_UNIT ( ) SI_UNIT ( $, .RADIAN. ) );
#107 = ADVANCED_FACE ( 'NONE', ( #85 ), #141, .F. ) ;
#108 = CYLINDRICAL_SURFACE ( 'NONE', #114, 3.000000000000000444 ) ;
#109 = VERTEX_POINT ( 'NONE', #3 ) ;
#110 = PERSON_AND_ORGANIZATION_ROLE ( 'creator' ) ;
#111 = EDGE_CURVE ( 'NONE', #65, #109, #4, .T. ) ;
#112 = DIRECTION ( 'NONE',  ( 1.000000000000000000, 0.000000000000000000, 0.000000000000000000 ) ) ;
#113 = PERSON_AND_ORGANIZATION_ROLE ( 'design_owner' ) ;
#114 = AXIS2_PLACEMENT_3D ( 'NONE', #39, #79, #160 ) ;
#115 = DESIGN_CONTEXT ( 'detailed design', #74, 'design' ) ;
#116 = EDGE_LOOP ( 'NONE', ( #24, #66 ) ) ;
#117 = EDGE_CURVE ( 'NONE', #109, #80, #91, .T. ) ;
#118 = CARTESIAN_POINT ( 'NONE',  ( 0.000000000000000000, 0.000000000000000000, 55.00000000000000000 ) ) ;
#119 = DIRECTION ( 'NONE',  ( -0.000000000000000000, -0.000000000000000000, -1.000000000000000000 ) ) ;
#120 = CLOSED_SHELL ( 'NONE', ( #76, #101, #130, #107 ) ) ;
#121 = DIRECTION ( 'NONE',  ( 1.000000000000000000, 0.000000000000000000, 0.000000000000000000 ) ) ;
#122 = CC_DESIGN_APPROVAL ( #68, ( #161 ) ) ;
#123 = APPROVAL_STATUS ( 'not_yet_approved' ) ;
#124 = PERSON ( '未指定', '未指定', '未指定', ('未指定'), ('未指定'), ('未指定') ) ;
#125 = CC_DESIGN_PERSON_AND_ORGANIZATION_ASSIGNMENT ( #28, #110, ( #36 ) ) ;
#126 = DATE_AND_TIME ( #34, #14 ) ;
#127 = APPROVAL_DATE_TIME ( #126, #68 ) ;
#128 = CC_DESIGN_APPROVAL ( #73, ( #36 ) ) ;
#129 = PERSON_AND_ORGANIZATION ( #124, #94 ) ;
#130 = ADVANCED_FACE ( 'NONE', ( #100 ), #96, .T. ) ;
#131 = ORIENTED_EDGE ( 'NONE', *, *, #111, .T. ) ;
#132 = CIRCLE ( 'NONE', #77, 3.000000000000000444 ) ;
#133 = ORIENTED_EDGE ( 'NONE', *, *, #89, .T. ) ;
#134 = ORIENTED_EDGE ( 'NONE', *, *, #111, .F. ) ;
#135 = PERSON_AND_ORGANIZATION ( #124, #94 ) ;
#136 = EDGE_CURVE ( 'NONE', #95, #80, #142, .T. ) ;
#137 = CALENDAR_DATE ( 2026, 27, 7 ) ;
#138 = CARTESIAN_POINT ( 'NONE',  ( 0.000000000000000000, 0.000000000000000000, 0.000000000000000000 ) ) ;
#139 = DATE_AND_TIME ( #86, #64 ) ;
#140 = SECURITY_CLASSIFICATION ( '', '', #27 ) ;
#141 = PLANE ( 'NONE',  #167 ) ;
#142 = LINE ( 'NONE', #69, #83 ) ;
#143 = CARTESIAN_POINT ( 'NONE',  ( 0.000000000000000000, 0.000000000000000000, 55.00000000000000000 ) ) ;
#144 = DATE_TIME_ROLE ( 'creation_date' ) ;
#145 = APPROVAL_ROLE ( '' ) ;
#146 = PERSON_AND_ORGANIZATION ( #124, #94 ) ;
#147 = UNCERTAINTY_MEASURE_WITH_UNIT (LENGTH_MEASURE( 1.000000000000000082E-05 ), #102, 'distance_accuracy_value', 'NONE');
#148 = ORIENTED_EDGE ( 'NONE', *, *, #136, .T. ) ;
#149 = ORIENTED_EDGE ( 'NONE', *, *, #165, .T. ) ;
#150 = DIRECTION ( 'NONE',  ( 1.000000000000000000, 0.000000000000000000, 0.000000000000000000 ) ) ;
#151 = FACE_OUTER_BOUND ( 'NONE', #11, .T. ) ;
#152 = AXIS2_PLACEMENT_3D ( 'NONE', #118, #15, #158 ) ;
#153 = DIRECTION ( 'NONE',  ( 1.000000000000000000, 0.000000000000000000, 0.000000000000000000 ) ) ;
#154 = PRODUCT_RELATED_PRODUCT_CATEGORY ( 'detail', '', ( #103 ) ) ;
#155 = DIRECTION ( 'NONE',  ( -0.000000000000000000, -0.000000000000000000, -1.000000000000000000 ) ) ;
#156 = COORDINATED_UNIVERSAL_TIME_OFFSET ( 8, 0, .AHEAD. ) ;
#157 = APPROVAL_PERSON_ORGANIZATION ( #175, #98, #84 ) ;
#158 = DIRECTION ( 'NONE',  ( 1.000000000000000000, 0.000000000000000000, -0.000000000000000000 ) ) ;
#159 = EDGE_CURVE ( 'NONE', #95, #65, #8, .T. ) ;
#160 = DIRECTION ( 'NONE',  ( -1.000000000000000000, 0.000000000000000000, 0.000000000000000000 ) ) ;
#161 = PRODUCT_DEFINITION ( '未知', '', #36, #115 ) ;
#162 = APPROVAL_PERSON_ORGANIZATION ( #21, #68, #88 ) ;
#163 = CARTESIAN_POINT ( 'NONE',  ( 3.000000000000000444, 3.673940397442060361E-16, 55.00000000000000000 ) ) ;
#164 = DATE_AND_TIME ( #137, #26 ) ;
#165 = EDGE_CURVE ( 'NONE', #65, #95, #132, .T. ) ;
#166 = CARTESIAN_POINT ( 'NONE',  ( 0.000000000000000000, 0.000000000000000000, 55.00000000000000000 ) ) ;
#167 = AXIS2_PLACEMENT_3D ( 'NONE', #2, #99, #51 ) ;
#168 =( NAMED_UNIT ( * ) SI_UNIT ( $, .STERADIAN. ) SOLID_ANGLE_UNIT ( ) );
#169 = AXIS2_PLACEMENT_3D ( 'NONE', #47, #173, #150 ) ;
#170 = APPROVAL_STATUS ( 'not_yet_approved' ) ;
#171 = CC_DESIGN_DATE_AND_TIME_ASSIGNMENT ( #164, #97, ( #140 ) ) ;
#172 = CARTESIAN_POINT ( 'NONE',  ( -3.000000000000000444, 0.000000000000000000, 0.000000000000000000 ) ) ;
#173 = DIRECTION ( 'NONE',  ( 0.000000000000000000, 0.000000000000000000, 1.000000000000000000 ) ) ;
#174 = APPROVAL_DATE_TIME ( #67, #73 ) ;
#175 = PERSON_AND_ORGANIZATION ( #124, #94 ) ;
ENDSEC;
END-ISO-10303-21;
