ISO-10303-21;
HEADER;
FILE_DESCRIPTION (( 'STEP AP203' ),
    '1' );
FILE_NAME ('FN-FST-005_clip-fastener-envelope-D4x18_PENDING_R0.7.STEP',
    '2026-07-26T17:44:13',
    ( '' ),
    ( '' ),
    'SwSTEP 2.0',
    'SolidWorks 2022',
    '' );
FILE_SCHEMA (( 'CONFIG_CONTROL_DESIGN' ));
ENDSEC;

DATA;
#1 = APPROVAL_PERSON_ORGANIZATION ( #86, #166, #84 ) ;
#2 = ORIENTED_EDGE ( 'NONE', *, *, #65, .T. ) ;
#3 = VECTOR ( 'NONE', #104, 1000.000000000000000 ) ;
#4 = EDGE_LOOP ( 'NONE', ( #6, #105, #63, #134 ) ) ;
#5 = CARTESIAN_POINT ( 'NONE',  ( 2.000000000000000000, 2.449293598294706414E-16, 0.000000000000000000 ) ) ;
#6 = ORIENTED_EDGE ( 'NONE', *, *, #65, .F. ) ;
#7 = DIRECTION ( 'NONE',  ( 0.000000000000000000, 0.000000000000000000, 1.000000000000000000 ) ) ;
#8 = CALENDAR_DATE ( 2026, 27, 7 ) ;
#9 = PRODUCT_RELATED_PRODUCT_CATEGORY ( 'detail', '', ( #73 ) ) ;
#10 = AXIS2_PLACEMENT_3D ( 'NONE', #64, #35, #74 ) ;
#11 = ADVANCED_FACE ( 'NONE', ( #155 ), #157, .T. ) ;
#12 = PERSON ( '未指定', '未指定', '未指定', ('未指定'), ('未指定'), ('未指定') ) ;
#13 = CALENDAR_DATE ( 2026, 27, 7 ) ;
#14 = CIRCLE ( 'NONE', #10, 2.000000000000000000 ) ;
#15 = DIRECTION ( 'NONE',  ( -0.000000000000000000, -0.000000000000000000, -1.000000000000000000 ) ) ;
#16 = DIRECTION ( 'NONE',  ( 0.000000000000000000, 0.000000000000000000, 1.000000000000000000 ) ) ;
#17 = CC_DESIGN_APPROVAL ( #98, ( #173 ) ) ;
#18 = DIRECTION ( 'NONE',  ( -0.000000000000000000, -0.000000000000000000, -1.000000000000000000 ) ) ;
#19 = DIRECTION ( 'NONE',  ( 1.000000000000000000, 0.000000000000000000, -0.000000000000000000 ) ) ;
#20 = CARTESIAN_POINT ( 'NONE',  ( -2.000000000000000000, 0.000000000000000000, 0.000000000000000000 ) ) ;
#21 = PERSON_AND_ORGANIZATION ( #12, #94 ) ;
#22 = PERSON_AND_ORGANIZATION_ROLE ( 'creator' ) ;
#23 = ADVANCED_BREP_SHAPE_REPRESENTATION ( 'FN-FST-005_clip-fastener-envelope-D4x18_PENDING_R0.7', ( #100, #133 ), #152 ) ;
#24 = AXIS2_PLACEMENT_3D ( 'NONE', #170, #143, #19 ) ;
#25 = PERSON_AND_ORGANIZATION_ROLE ( 'design_supplier' ) ;
#26 = COORDINATED_UNIVERSAL_TIME_OFFSET ( 8, 0, .AHEAD. ) ;
#27 = CC_DESIGN_DATE_AND_TIME_ASSIGNMENT ( #138, #56, ( #142 ) ) ;
#28 = AXIS2_PLACEMENT_3D ( 'NONE', #141, #91, #168 ) ;
#29 = SHAPE_DEFINITION_REPRESENTATION ( #115, #23 ) ;
#30 = CLOSED_SHELL ( 'NONE', ( #11, #130, #79, #93 ) ) ;
#31 = CARTESIAN_POINT ( 'NONE',  ( 0.000000000000000000, 0.000000000000000000, 18.00000000000000000 ) ) ;
#32 = CARTESIAN_POINT ( 'NONE',  ( 0.000000000000000000, 0.000000000000000000, 18.00000000000000000 ) ) ;
#33 = CC_DESIGN_PERSON_AND_ORGANIZATION_ASSIGNMENT ( #45, #110, ( #73 ) ) ;
#34 = APPLICATION_CONTEXT ( 'configuration controlled 3d designs of mechanical parts and assemblies' ) ;
#35 = DIRECTION ( 'NONE',  ( 0.000000000000000000, 0.000000000000000000, 1.000000000000000000 ) ) ;
#36 = APPROVAL_PERSON_ORGANIZATION ( #82, #101, #174 ) ;
#37 = ORIENTED_EDGE ( 'NONE', *, *, #145, .F. ) ;
#38 = EDGE_LOOP ( 'NONE', ( #89, #140 ) ) ;
#39 = DESIGN_CONTEXT ( 'detailed design', #108, 'design' ) ;
#40 = CIRCLE ( 'NONE', #28, 2.000000000000000000 ) ;
#41 = DIRECTION ( 'NONE',  ( 1.000000000000000000, 0.000000000000000000, 0.000000000000000000 ) ) ;
#42 = CALENDAR_DATE ( 2026, 27, 7 ) ;
#43 = EDGE_CURVE ( 'NONE', #171, #121, #62, .T. ) ;
#44 = DATE_TIME_ROLE ( 'creation_date' ) ;
#45 = PERSON_AND_ORGANIZATION ( #12, #94 ) ;
#46 = EDGE_CURVE ( 'NONE', #49, #121, #58, .T. ) ;
#47 = LOCAL_TIME ( 1, 44, 13.00000000000000000, #159 ) ;
#48 = CC_DESIGN_DATE_AND_TIME_ASSIGNMENT ( #96, #44, ( #173 ) ) ;
#49 = VERTEX_POINT ( 'NONE', #5 ) ;
#50 = EDGE_CURVE ( 'NONE', #121, #49, #40, .T. ) ;
#51 = CARTESIAN_POINT ( 'NONE',  ( 2.000000000000000000, 2.449293598294706414E-16, 18.00000000000000000 ) ) ;
#52 = EDGE_LOOP ( 'NONE', ( #37, #158, #167, #80 ) ) ;
#53 = DIRECTION ( 'NONE',  ( 1.000000000000000000, 0.000000000000000000, -0.000000000000000000 ) ) ;
#54 = AXIS2_PLACEMENT_3D ( 'NONE', #32, #16, #131 ) ;
#55 = CARTESIAN_POINT ( 'NONE',  ( 0.000000000000000000, 0.000000000000000000, 18.00000000000000000 ) ) ;
#56 = DATE_TIME_ROLE ( 'classification_date' ) ;
#57 = COORDINATED_UNIVERSAL_TIME_OFFSET ( 8, 0, .AHEAD. ) ;
#58 = CIRCLE ( 'NONE', #87, 2.000000000000000000 ) ;
#59 = PERSON_AND_ORGANIZATION ( #12, #94 ) ;
#60 = CARTESIAN_POINT ( 'NONE',  ( -2.000000000000000000, 0.000000000000000000, 18.00000000000000000 ) ) ;
#61 = CC_DESIGN_PERSON_AND_ORGANIZATION_ASSIGNMENT ( #21, #162, ( #142 ) ) ;
#62 = LINE ( 'NONE', #78, #118 ) ;
#63 = ORIENTED_EDGE ( 'NONE', *, *, #46, .T. ) ;
#64 = CARTESIAN_POINT ( 'NONE',  ( 0.000000000000000000, 0.000000000000000000, 18.00000000000000000 ) ) ;
#65 = EDGE_CURVE ( 'NONE', #107, #171, #14, .T. ) ;
#66 =( NAMED_UNIT ( * ) SI_UNIT ( $, .STERADIAN. ) SOLID_ANGLE_UNIT ( ) );
#67 = APPROVAL_STATUS ( 'not_yet_approved' ) ;
#68 = LOCAL_TIME ( 1, 44, 13.00000000000000000, #26 ) ;
#69 = CARTESIAN_POINT ( 'NONE',  ( 0.000000000000000000, 0.000000000000000000, 0.000000000000000000 ) ) ;
#70 = APPROVAL_DATE_TIME ( #71, #101 ) ;
#71 = DATE_AND_TIME ( #13, #165 ) ;
#72 = AXIS2_PLACEMENT_3D ( 'NONE', #154, #7, #53 ) ;
#73 = PRODUCT ( 'FN-FST-005_clip-fastener-envelope-D4x18_PENDING_R0.7', 'FN-FST-005_clip-fastener-envelope-D4x18_PENDING_R0.7', '', ( #161 ) ) ;
#74 = DIRECTION ( 'NONE',  ( 1.000000000000000000, 0.000000000000000000, 0.000000000000000000 ) ) ;
#75 = UNCERTAINTY_MEASURE_WITH_UNIT (LENGTH_MEASURE( 1.000000000000000082E-05 ), #136, 'distance_accuracy_value', 'NONE');
#76 = APPROVAL_PERSON_ORGANIZATION ( #111, #98, #113 ) ;
#77 = CYLINDRICAL_SURFACE ( 'NONE', #114, 2.000000000000000000 ) ;
#78 = CARTESIAN_POINT ( 'NONE',  ( -2.000000000000000000, 0.000000000000000000, 18.00000000000000000 ) ) ;
#79 = ADVANCED_FACE ( 'NONE', ( #90 ), #109, .T. ) ;
#80 = ORIENTED_EDGE ( 'NONE', *, *, #50, .T. ) ;
#81 = FACE_OUTER_BOUND ( 'NONE', #52, .T. ) ;
#82 = PERSON_AND_ORGANIZATION ( #12, #94 ) ;
#83 =( NAMED_UNIT ( * ) PLANE_ANGLE_UNIT ( ) SI_UNIT ( $, .RADIAN. ) );
#84 = APPROVAL_ROLE ( '' ) ;
#85 = SECURITY_CLASSIFICATION_LEVEL ( 'unclassified' ) ;
#86 = PERSON_AND_ORGANIZATION ( #12, #94 ) ;
#87 = AXIS2_PLACEMENT_3D ( 'NONE', #120, #146, #169 ) ;
#88 = DIRECTION ( 'NONE',  ( -0.000000000000000000, -0.000000000000000000, -1.000000000000000000 ) ) ;
#89 = ORIENTED_EDGE ( 'NONE', *, *, #50, .F. ) ;
#90 = FACE_OUTER_BOUND ( 'NONE', #156, .T. ) ;
#91 = DIRECTION ( 'NONE',  ( 0.000000000000000000, 0.000000000000000000, 1.000000000000000000 ) ) ;
#92 = DIRECTION ( 'NONE',  ( -1.000000000000000000, 0.000000000000000000, 0.000000000000000000 ) ) ;
#93 = ADVANCED_FACE ( 'NONE', ( #117 ), #144, .F. ) ;
#94 = ORGANIZATION ( '未指定', '未指定', '' ) ;
#95 = APPLICATION_PROTOCOL_DEFINITION ( 'international standard', 'config_control_design', 1994, #34 ) ;
#96 = DATE_AND_TIME ( #42, #128 ) ;
#97 = PERSON_AND_ORGANIZATION ( #12, #94 ) ;
#98 = APPROVAL ( #126, '未指定' ) ;
#99 = LOCAL_TIME ( 1, 44, 13.00000000000000000, #137 ) ;
#100 = MANIFOLD_SOLID_BREP ( '凸台-拉伸1', #30 ) ;
#101 = APPROVAL ( #67, '未指定' ) ;
#102 = CC_DESIGN_APPROVAL ( #101, ( #142 ) ) ;
#103 = ORIENTED_EDGE ( 'NONE', *, *, #164, .T. ) ;
#104 = DIRECTION ( 'NONE',  ( -0.000000000000000000, -0.000000000000000000, -1.000000000000000000 ) ) ;
#105 = ORIENTED_EDGE ( 'NONE', *, *, #145, .T. ) ;
#106 = CC_DESIGN_PERSON_AND_ORGANIZATION_ASSIGNMENT ( #97, #150, ( #124 ) ) ;
#107 = VERTEX_POINT ( 'NONE', #132 ) ;
#108 = APPLICATION_CONTEXT ( 'configuration controlled 3d designs of mechanical parts and assemblies' ) ;
#109 = PLANE ( 'NONE',  #72 ) ;
#110 = PERSON_AND_ORGANIZATION_ROLE ( 'design_owner' ) ;
#111 = PERSON_AND_ORGANIZATION ( #12, #94 ) ;
#112 = APPROVAL_DATE_TIME ( #125, #166 ) ;
#113 = APPROVAL_ROLE ( '' ) ;
#114 = AXIS2_PLACEMENT_3D ( 'NONE', #31, #88, #129 ) ;
#115 = PRODUCT_DEFINITION_SHAPE ( 'NONE', 'NONE',  #173 ) ;
#116 = CC_DESIGN_PERSON_AND_ORGANIZATION_ASSIGNMENT ( #147, #25, ( #124 ) ) ;
#117 = FACE_OUTER_BOUND ( 'NONE', #38, .T. ) ;
#118 = VECTOR ( 'NONE', #18, 1000.000000000000000 ) ;
#119 = LINE ( 'NONE', #51, #3 ) ;
#120 = CARTESIAN_POINT ( 'NONE',  ( 0.000000000000000000, 0.000000000000000000, 0.000000000000000000 ) ) ;
#121 = VERTEX_POINT ( 'NONE', #20 ) ;
#122 = APPLICATION_PROTOCOL_DEFINITION ( 'international standard', 'config_control_design', 1994, #108 ) ;
#123 = DATE_AND_TIME ( #135, #99 ) ;
#124 = PRODUCT_DEFINITION_FORMATION_WITH_SPECIFIED_SOURCE ( '任何', '', #73, .NOT_KNOWN. ) ;
#125 = DATE_AND_TIME ( #8, #47 ) ;
#126 = APPROVAL_STATUS ( 'not_yet_approved' ) ;
#127 = AXIS2_PLACEMENT_3D ( 'NONE', #55, #15, #92 ) ;
#128 = LOCAL_TIME ( 1, 44, 13.00000000000000000, #160 ) ;
#129 = DIRECTION ( 'NONE',  ( -1.000000000000000000, 0.000000000000000000, 0.000000000000000000 ) ) ;
#130 = ADVANCED_FACE ( 'NONE', ( #81 ), #77, .T. ) ;
#131 = DIRECTION ( 'NONE',  ( 1.000000000000000000, 0.000000000000000000, 0.000000000000000000 ) ) ;
#132 = CARTESIAN_POINT ( 'NONE',  ( 2.000000000000000000, 2.449293598294706414E-16, 18.00000000000000000 ) ) ;
#133 = AXIS2_PLACEMENT_3D ( 'NONE', #69, #175, #41 ) ;
#134 = ORIENTED_EDGE ( 'NONE', *, *, #43, .F. ) ;
#135 = CALENDAR_DATE ( 2026, 27, 7 ) ;
#136 =( LENGTH_UNIT ( ) NAMED_UNIT ( * ) SI_UNIT ( .MILLI., .METRE. ) );
#137 = COORDINATED_UNIVERSAL_TIME_OFFSET ( 8, 0, .AHEAD. ) ;
#138 = DATE_AND_TIME ( #172, #68 ) ;
#139 = CIRCLE ( 'NONE', #54, 2.000000000000000000 ) ;
#140 = ORIENTED_EDGE ( 'NONE', *, *, #46, .F. ) ;
#141 = CARTESIAN_POINT ( 'NONE',  ( 0.000000000000000000, 0.000000000000000000, 0.000000000000000000 ) ) ;
#142 = SECURITY_CLASSIFICATION ( '', '', #85 ) ;
#143 = DIRECTION ( 'NONE',  ( 0.000000000000000000, 0.000000000000000000, 1.000000000000000000 ) ) ;
#144 = PLANE ( 'NONE',  #24 ) ;
#145 = EDGE_CURVE ( 'NONE', #107, #49, #119, .T. ) ;
#146 = DIRECTION ( 'NONE',  ( 0.000000000000000000, 0.000000000000000000, 1.000000000000000000 ) ) ;
#147 = PERSON_AND_ORGANIZATION ( #12, #94 ) ;
#148 = APPROVAL_DATE_TIME ( #123, #98 ) ;
#149 = APPROVAL_STATUS ( 'not_yet_approved' ) ;
#150 = PERSON_AND_ORGANIZATION_ROLE ( 'creator' ) ;
#151 = CC_DESIGN_SECURITY_CLASSIFICATION ( #142, ( #124 ) ) ;
#152 =( GEOMETRIC_REPRESENTATION_CONTEXT ( 3 ) GLOBAL_UNCERTAINTY_ASSIGNED_CONTEXT ( ( #75 ) ) GLOBAL_UNIT_ASSIGNED_CONTEXT ( ( #136, #83, #66 ) ) REPRESENTATION_CONTEXT ( 'NONE', 'WORKASPACE' ) );
#153 = CC_DESIGN_PERSON_AND_ORGANIZATION_ASSIGNMENT ( #59, #22, ( #173 ) ) ;
#154 = CARTESIAN_POINT ( 'NONE',  ( 0.000000000000000000, 0.000000000000000000, 18.00000000000000000 ) ) ;
#155 = FACE_OUTER_BOUND ( 'NONE', #4, .T. ) ;
#156 = EDGE_LOOP ( 'NONE', ( #103, #2 ) ) ;
#157 = CYLINDRICAL_SURFACE ( 'NONE', #127, 2.000000000000000000 ) ;
#158 = ORIENTED_EDGE ( 'NONE', *, *, #164, .F. ) ;
#159 = COORDINATED_UNIVERSAL_TIME_OFFSET ( 8, 0, .AHEAD. ) ;
#160 = COORDINATED_UNIVERSAL_TIME_OFFSET ( 8, 0, .AHEAD. ) ;
#161 = MECHANICAL_CONTEXT ( 'NONE', #34, 'mechanical' ) ;
#162 = PERSON_AND_ORGANIZATION_ROLE ( 'classification_officer' ) ;
#163 = CC_DESIGN_APPROVAL ( #166, ( #124 ) ) ;
#164 = EDGE_CURVE ( 'NONE', #171, #107, #139, .T. ) ;
#165 = LOCAL_TIME ( 1, 44, 13.00000000000000000, #57 ) ;
#166 = APPROVAL ( #149, '未指定' ) ;
#167 = ORIENTED_EDGE ( 'NONE', *, *, #43, .T. ) ;
#168 = DIRECTION ( 'NONE',  ( 1.000000000000000000, 0.000000000000000000, 0.000000000000000000 ) ) ;
#169 = DIRECTION ( 'NONE',  ( 1.000000000000000000, 0.000000000000000000, 0.000000000000000000 ) ) ;
#170 = CARTESIAN_POINT ( 'NONE',  ( 0.000000000000000000, 0.000000000000000000, 0.000000000000000000 ) ) ;
#171 = VERTEX_POINT ( 'NONE', #60 ) ;
#172 = CALENDAR_DATE ( 2026, 27, 7 ) ;
#173 = PRODUCT_DEFINITION ( '未知', '', #124, #39 ) ;
#174 = APPROVAL_ROLE ( '' ) ;
#175 = DIRECTION ( 'NONE',  ( 0.000000000000000000, 0.000000000000000000, 1.000000000000000000 ) ) ;
ENDSEC;
END-ISO-10303-21;
