ISO-10303-21;
HEADER;
FILE_DESCRIPTION (( 'STEP AP203' ),
    '1' );
FILE_NAME ('FN-GNS-005_mast-base-plate-90x80x8_CONCEPT_R0.7.STEP',
    '2026-07-26T17:43:31',
    ( '' ),
    ( '' ),
    'SwSTEP 2.0',
    'SolidWorks 2022',
    '' );
FILE_SCHEMA (( 'CONFIG_CONTROL_DESIGN' ));
ENDSEC;

DATA;
#1 = VECTOR ( 'NONE', #48, 1000.000000000000000 ) ;
#2 = DIRECTION ( 'NONE',  ( -0.000000000000000000, -0.000000000000000000, 1.000000000000000000 ) ) ;
#3 = COORDINATED_UNIVERSAL_TIME_OFFSET ( 8, 0, .AHEAD. ) ;
#4 = CC_DESIGN_APPROVAL ( #110, ( #179 ) ) ;
#5 = PERSON_AND_ORGANIZATION ( #157, #56 ) ;
#6 = APPLICATION_PROTOCOL_DEFINITION ( 'international standard', 'config_control_design', 1994, #108 ) ;
#7 = ORIENTED_EDGE ( 'NONE', *, *, #203, .F. ) ;
#8 = AXIS2_PLACEMENT_3D ( 'NONE', #120, #168, #137 ) ;
#9 = LINE ( 'NONE', #12, #100 ) ;
#10 = ORIENTED_EDGE ( 'NONE', *, *, #187, .T. ) ;
#11 = CARTESIAN_POINT ( 'NONE',  ( -45.00000000000000000, 8.000000000000000000, 40.00000000000000000 ) ) ;
#12 = CARTESIAN_POINT ( 'NONE',  ( -45.00000000000000000, 0.000000000000000000, -40.00000000000000000 ) ) ;
#13 = LINE ( 'NONE', #167, #161 ) ;
#14 = DIRECTION ( 'NONE',  ( 0.000000000000000000, -0.000000000000000000, -1.000000000000000000 ) ) ;
#15 = CC_DESIGN_PERSON_AND_ORGANIZATION_ASSIGNMENT ( #225, #22, ( #179 ) ) ;
#16 = CARTESIAN_POINT ( 'NONE',  ( 45.00000000000000000, 0.000000000000000000, 40.00000000000000000 ) ) ;
#17 = DIRECTION ( 'NONE',  ( 1.000000000000000000, 0.000000000000000000, 0.000000000000000000 ) ) ;
#18 = PLANE ( 'NONE',  #84 ) ;
#19 = DATE_AND_TIME ( #59, #118 ) ;
#20 = APPROVAL_DATE_TIME ( #19, #110 ) ;
#21 = LOCAL_TIME ( 1, 43, 31.00000000000000000, #102 ) ;
#22 = PERSON_AND_ORGANIZATION_ROLE ( 'design_supplier' ) ;
#23 = PERSON_AND_ORGANIZATION ( #157, #56 ) ;
#24 = CC_DESIGN_DATE_AND_TIME_ASSIGNMENT ( #38, #79, ( #151 ) ) ;
#25 = FACE_OUTER_BOUND ( 'NONE', #232, .T. ) ;
#26 = VERTEX_POINT ( 'NONE', #27 ) ;
#27 = CARTESIAN_POINT ( 'NONE',  ( 45.00000000000000000, 8.000000000000000000, 40.00000000000000000 ) ) ;
#28 = EDGE_LOOP ( 'NONE', ( #64, #174, #45, #60 ) ) ;
#29 = VECTOR ( 'NONE', #94, 1000.000000000000000 ) ;
#30 = CARTESIAN_POINT ( 'NONE',  ( 45.00000000000000000, 8.000000000000000000, 40.00000000000000000 ) ) ;
#31 = APPROVAL ( #143, '未指定' ) ;
#32 = DIRECTION ( 'NONE',  ( 0.000000000000000000, 0.000000000000000000, 1.000000000000000000 ) ) ;
#33 = CLOSED_SHELL ( 'NONE', ( #70, #86, #101, #181, #221, #235 ) ) ;
#34 = CARTESIAN_POINT ( 'NONE',  ( 0.000000000000000000, 8.000000000000000000, 0.000000000000000000 ) ) ;
#35 = SECURITY_CLASSIFICATION ( '', '', #41 ) ;
#36 = PLANE ( 'NONE',  #8 ) ;
#37 = DIRECTION ( 'NONE',  ( 0.000000000000000000, 0.000000000000000000, 1.000000000000000000 ) ) ;
#38 = DATE_AND_TIME ( #188, #184 ) ;
#39 = PERSON_AND_ORGANIZATION_ROLE ( 'creator' ) ;
#40 = EDGE_CURVE ( 'NONE', #88, #197, #9, .T. ) ;
#41 = SECURITY_CLASSIFICATION_LEVEL ( 'unclassified' ) ;
#42 = APPLICATION_CONTEXT ( 'configuration controlled 3d designs of mechanical parts and assemblies' ) ;
#43 = EDGE_CURVE ( 'NONE', #177, #197, #166, .T. ) ;
#44 = UNCERTAINTY_MEASURE_WITH_UNIT (LENGTH_MEASURE( 1.000000000000000082E-05 ), #185, 'distance_accuracy_value', 'NONE');
#45 = ORIENTED_EDGE ( 'NONE', *, *, #237, .F. ) ;
#46 = FACE_OUTER_BOUND ( 'NONE', #71, .T. ) ;
#47 = LOCAL_TIME ( 1, 43, 31.00000000000000000, #123 ) ;
#48 = DIRECTION ( 'NONE',  ( -1.000000000000000000, -0.000000000000000000, -0.000000000000000000 ) ) ;
#49 = ORIENTED_EDGE ( 'NONE', *, *, #87, .F. ) ;
#50 = EDGE_LOOP ( 'NONE', ( #131, #129, #91, #63 ) ) ;
#51 = DIRECTION ( 'NONE',  ( -0.000000000000000000, -1.000000000000000000, -0.000000000000000000 ) ) ;
#52 = CARTESIAN_POINT ( 'NONE',  ( -45.00000000000000000, 8.000000000000000000, 40.00000000000000000 ) ) ;
#53 = ADVANCED_BREP_SHAPE_REPRESENTATION ( 'FN-GNS-005_mast-base-plate-90x80x8_CONCEPT_R0.7', ( #210, #156 ), #132 ) ;
#54 = CARTESIAN_POINT ( 'NONE',  ( 0.000000000000000000, 0.000000000000000000, 0.000000000000000000 ) ) ;
#55 = DIRECTION ( 'NONE',  ( -0.000000000000000000, -0.000000000000000000, 1.000000000000000000 ) ) ;
#56 = ORGANIZATION ( '未指定', '未指定', '' ) ;
#57 = CARTESIAN_POINT ( 'NONE',  ( -45.00000000000000000, 0.000000000000000000, -40.00000000000000000 ) ) ;
#58 = CC_DESIGN_PERSON_AND_ORGANIZATION_ASSIGNMENT ( #124, #39, ( #179 ) ) ;
#59 = CALENDAR_DATE ( 2026, 27, 7 ) ;
#60 = ORIENTED_EDGE ( 'NONE', *, *, #130, .T. ) ;
#61 = PERSON_AND_ORGANIZATION ( #157, #56 ) ;
#62 = PERSON_AND_ORGANIZATION ( #157, #56 ) ;
#63 = ORIENTED_EDGE ( 'NONE', *, *, #92, .T. ) ;
#64 = ORIENTED_EDGE ( 'NONE', *, *, #87, .T. ) ;
#65 = CC_DESIGN_PERSON_AND_ORGANIZATION_ASSIGNMENT ( #122, #222, ( #107 ) ) ;
#66 = CARTESIAN_POINT ( 'NONE',  ( -45.00000000000000000, 8.000000000000000000, -40.00000000000000000 ) ) ;
#67 = LOCAL_TIME ( 1, 43, 31.00000000000000000, #125 ) ;
#68 = DIRECTION ( 'NONE',  ( 0.000000000000000000, 0.000000000000000000, 1.000000000000000000 ) ) ;
#69 = CARTESIAN_POINT ( 'NONE',  ( -45.00000000000000000, 8.000000000000000000, 40.00000000000000000 ) ) ;
#70 = ADVANCED_FACE ( 'NONE', ( #46 ), #231, .F. ) ;
#71 = EDGE_LOOP ( 'NONE', ( #134, #192, #229, #148 ) ) ;
#72 = VECTOR ( 'NONE', #117, 1000.000000000000000 ) ;
#73 = FACE_OUTER_BOUND ( 'NONE', #50, .T. ) ;
#74 = CARTESIAN_POINT ( 'NONE',  ( -45.00000000000000000, 0.000000000000000000, 40.00000000000000000 ) ) ;
#75 = DIRECTION ( 'NONE',  ( 0.000000000000000000, 0.000000000000000000, -1.000000000000000000 ) ) ;
#76 = VECTOR ( 'NONE', #2, 1000.000000000000000 ) ;
#77 = EDGE_CURVE ( 'NONE', #85, #177, #145, .T. ) ;
#78 = EDGE_CURVE ( 'NONE', #26, #85, #135, .T. ) ;
#79 = DATE_TIME_ROLE ( 'creation_date' ) ;
#80 = APPROVAL_STATUS ( 'not_yet_approved' ) ;
#81 = APPROVAL_PERSON_ORGANIZATION ( #62, #110, #83 ) ;
#82 = CALENDAR_DATE ( 2026, 27, 7 ) ;
#83 = APPROVAL_ROLE ( '' ) ;
#84 = AXIS2_PLACEMENT_3D ( 'NONE', #202, #32, #99 ) ;
#85 = VERTEX_POINT ( 'NONE', #93 ) ;
#86 = ADVANCED_FACE ( 'NONE', ( #133 ), #180, .F. ) ;
#87 = EDGE_CURVE ( 'NONE', #163, #211, #13, .T. ) ;
#88 = VERTEX_POINT ( 'NONE', #175 ) ;
#89 = CARTESIAN_POINT ( 'NONE',  ( 45.00000000000000000, 8.000000000000000000, 40.00000000000000000 ) ) ;
#90 = AXIS2_PLACEMENT_3D ( 'NONE', #89, #164, #68 ) ;
#91 = ORIENTED_EDGE ( 'NONE', *, *, #77, .F. ) ;
#92 = EDGE_CURVE ( 'NONE', #85, #88, #176, .T. ) ;
#93 = CARTESIAN_POINT ( 'NONE',  ( 45.00000000000000000, 8.000000000000000000, -40.00000000000000000 ) ) ;
#94 = DIRECTION ( 'NONE',  ( -0.000000000000000000, -1.000000000000000000, -0.000000000000000000 ) ) ;
#95 = VECTOR ( 'NONE', #51, 1000.000000000000000 ) ;
#96 = LINE ( 'NONE', #172, #76 ) ;
#97 = LINE ( 'NONE', #218, #234 ) ;
#98 = APPLICATION_PROTOCOL_DEFINITION ( 'international standard', 'config_control_design', 1994, #42 ) ;
#99 = DIRECTION ( 'NONE',  ( 1.000000000000000000, 0.000000000000000000, -0.000000000000000000 ) ) ;
#100 = VECTOR ( 'NONE', #146, 1000.000000000000000 ) ;
#101 = ADVANCED_FACE ( 'NONE', ( #25 ), #109, .F. ) ;
#102 = COORDINATED_UNIVERSAL_TIME_OFFSET ( 8, 0, .AHEAD. ) ;
#103 = EDGE_LOOP ( 'NONE', ( #7, #213, #230, #49 ) ) ;
#104 = PERSON_AND_ORGANIZATION_ROLE ( 'creator' ) ;
#105 = APPROVAL_PERSON_ORGANIZATION ( #61, #31, #205 ) ;
#106 = DATE_TIME_ROLE ( 'classification_date' ) ;
#107 = PRODUCT ( 'FN-GNS-005_mast-base-plate-90x80x8_CONCEPT_R0.7', 'FN-GNS-005_mast-base-plate-90x80x8_CONCEPT_R0.7', '', ( #153 ) ) ;
#108 = APPLICATION_CONTEXT ( 'configuration controlled 3d designs of mechanical parts and assemblies' ) ;
#109 = PLANE ( 'NONE',  #90 ) ;
#110 = APPROVAL ( #190, '未指定' ) ;
#111 = DIRECTION ( 'NONE',  ( -1.000000000000000000, 0.000000000000000000, -0.000000000000000000 ) ) ;
#112 = ORIENTED_EDGE ( 'NONE', *, *, #78, .T. ) ;
#113 = APPROVAL ( #80, '未指定' ) ;
#114 = ORIENTED_EDGE ( 'NONE', *, *, #128, .T. ) ;
#115 = DIRECTION ( 'NONE',  ( 0.000000000000000000, 0.000000000000000000, -1.000000000000000000 ) ) ;
#116 = PRODUCT_DEFINITION_SHAPE ( 'NONE', 'NONE',  #151 ) ;
#117 = DIRECTION ( 'NONE',  ( -0.000000000000000000, -1.000000000000000000, -0.000000000000000000 ) ) ;
#118 = LOCAL_TIME ( 1, 43, 31.00000000000000000, #204 ) ;
#119 =( NAMED_UNIT ( * ) SI_UNIT ( $, .STERADIAN. ) SOLID_ANGLE_UNIT ( ) );
#120 = CARTESIAN_POINT ( 'NONE',  ( 0.000000000000000000, 0.000000000000000000, 0.000000000000000000 ) ) ;
#121 = EDGE_CURVE ( 'NONE', #26, #211, #140, .T. ) ;
#122 = PERSON_AND_ORGANIZATION ( #157, #56 ) ;
#123 = COORDINATED_UNIVERSAL_TIME_OFFSET ( 8, 0, .AHEAD. ) ;
#124 = PERSON_AND_ORGANIZATION ( #157, #56 ) ;
#125 = COORDINATED_UNIVERSAL_TIME_OFFSET ( 8, 0, .AHEAD. ) ;
#126 = CC_DESIGN_SECURITY_CLASSIFICATION ( #35, ( #179 ) ) ;
#127 = ORIENTED_EDGE ( 'NONE', *, *, #237, .T. ) ;
#128 = EDGE_CURVE ( 'NONE', #211, #88, #170, .T. ) ;
#129 = ORIENTED_EDGE ( 'NONE', *, *, #43, .F. ) ;
#130 = EDGE_CURVE ( 'NONE', #178, #163, #200, .T. ) ;
#131 = ORIENTED_EDGE ( 'NONE', *, *, #40, .T. ) ;
#132 =( GEOMETRIC_REPRESENTATION_CONTEXT ( 3 ) GLOBAL_UNCERTAINTY_ASSIGNED_CONTEXT ( ( #44 ) ) GLOBAL_UNIT_ASSIGNED_CONTEXT ( ( #185, #220, #119 ) ) REPRESENTATION_CONTEXT ( 'NONE', 'WORKASPACE' ) );
#133 = FACE_OUTER_BOUND ( 'NONE', #28, .T. ) ;
#134 = ORIENTED_EDGE ( 'NONE', *, *, #203, .T. ) ;
#135 = LINE ( 'NONE', #30, #144 ) ;
#136 = DIRECTION ( 'NONE',  ( -0.000000000000000000, -1.000000000000000000, -0.000000000000000000 ) ) ;
#137 = DIRECTION ( 'NONE',  ( 0.000000000000000000, -0.000000000000000000, -1.000000000000000000 ) ) ;
#138 = VECTOR ( 'NONE', #136, 1000.000000000000000 ) ;
#139 = FACE_OUTER_BOUND ( 'NONE', #103, .T. ) ;
#140 = LINE ( 'NONE', #186, #29 ) ;
#141 = EDGE_LOOP ( 'NONE', ( #10, #127, #112, #196 ) ) ;
#142 = APPROVAL_DATE_TIME ( #207, #31 ) ;
#143 = APPROVAL_STATUS ( 'not_yet_approved' ) ;
#144 = VECTOR ( 'NONE', #115, 1000.000000000000000 ) ;
#145 = LINE ( 'NONE', #195, #1 ) ;
#146 = DIRECTION ( 'NONE',  ( -1.000000000000000000, -0.000000000000000000, -0.000000000000000000 ) ) ;
#147 = CC_DESIGN_APPROVAL ( #113, ( #151 ) ) ;
#148 = ORIENTED_EDGE ( 'NONE', *, *, #43, .T. ) ;
#149 = DIRECTION ( 'NONE',  ( 1.000000000000000000, -0.000000000000000000, 0.000000000000000000 ) ) ;
#150 = CARTESIAN_POINT ( 'NONE',  ( 45.00000000000000000, 8.000000000000000000, -40.00000000000000000 ) ) ;
#151 = PRODUCT_DEFINITION ( '未知', '', #179, #165 ) ;
#152 = FACE_OUTER_BOUND ( 'NONE', #141, .T. ) ;
#153 = MECHANICAL_CONTEXT ( 'NONE', #42, 'mechanical' ) ;
#154 = CARTESIAN_POINT ( 'NONE',  ( -45.00000000000000000, 8.000000000000000000, -40.00000000000000000 ) ) ;
#155 = SHAPE_DEFINITION_REPRESENTATION ( #116, #53 ) ;
#156 = AXIS2_PLACEMENT_3D ( 'NONE', #54, #37, #17 ) ;
#157 = PERSON ( '未指定', '未指定', '未指定', ('未指定'), ('未指定'), ('未指定') ) ;
#158 = CALENDAR_DATE ( 2026, 27, 7 ) ;
#159 = APPROVAL_ROLE ( '' ) ;
#160 = CC_DESIGN_PERSON_AND_ORGANIZATION_ASSIGNMENT ( #23, #104, ( #151 ) ) ;
#161 = VECTOR ( 'NONE', #193, 1000.000000000000000 ) ;
#162 = ORIENTED_EDGE ( 'NONE', *, *, #92, .F. ) ;
#163 = VERTEX_POINT ( 'NONE', #74 ) ;
#164 = DIRECTION ( 'NONE',  ( -1.000000000000000000, 0.000000000000000000, 0.000000000000000000 ) ) ;
#165 = DESIGN_CONTEXT ( 'detailed design', #108, 'design' ) ;
#166 = LINE ( 'NONE', #66, #95 ) ;
#167 = CARTESIAN_POINT ( 'NONE',  ( -45.00000000000000000, 0.000000000000000000, 40.00000000000000000 ) ) ;
#168 = DIRECTION ( 'NONE',  ( 0.000000000000000000, -1.000000000000000000, 0.000000000000000000 ) ) ;
#169 = LINE ( 'NONE', #233, #194 ) ;
#170 = LINE ( 'NONE', #236, #171 ) ;
#171 = VECTOR ( 'NONE', #75, 1000.000000000000000 ) ;
#172 = CARTESIAN_POINT ( 'NONE',  ( -45.00000000000000000, 0.000000000000000000, 40.00000000000000000 ) ) ;
#173 = PERSON_AND_ORGANIZATION_ROLE ( 'classification_officer' ) ;
#174 = ORIENTED_EDGE ( 'NONE', *, *, #121, .F. ) ;
#175 = CARTESIAN_POINT ( 'NONE',  ( 45.00000000000000000, 0.000000000000000000, -40.00000000000000000 ) ) ;
#176 = LINE ( 'NONE', #150, #138 ) ;
#177 = VERTEX_POINT ( 'NONE', #154 ) ;
#178 = VERTEX_POINT ( 'NONE', #198 ) ;
#179 = PRODUCT_DEFINITION_FORMATION_WITH_SPECIFIED_SOURCE ( '任何', '', #107, .NOT_KNOWN. ) ;
#180 = PLANE ( 'NONE',  #224 ) ;
#181 = ADVANCED_FACE ( 'NONE', ( #73 ), #18, .F. ) ;
#182 = CC_DESIGN_DATE_AND_TIME_ASSIGNMENT ( #189, #106, ( #35 ) ) ;
#183 = DIRECTION ( 'NONE',  ( 0.000000000000000000, -1.000000000000000000, 0.000000000000000000 ) ) ;
#184 = LOCAL_TIME ( 1, 43, 31.00000000000000000, #3 ) ;
#185 =( LENGTH_UNIT ( ) NAMED_UNIT ( * ) SI_UNIT ( .MILLI., .METRE. ) );
#186 = CARTESIAN_POINT ( 'NONE',  ( 45.00000000000000000, 8.000000000000000000, 40.00000000000000000 ) ) ;
#187 = EDGE_CURVE ( 'NONE', #177, #178, #97, .T. ) ;
#188 = CALENDAR_DATE ( 2026, 27, 7 ) ;
#189 = DATE_AND_TIME ( #82, #67 ) ;
#190 = APPROVAL_STATUS ( 'not_yet_approved' ) ;
#191 = DATE_AND_TIME ( #158, #47 ) ;
#192 = ORIENTED_EDGE ( 'NONE', *, *, #130, .F. ) ;
#193 = DIRECTION ( 'NONE',  ( 1.000000000000000000, 0.000000000000000000, 0.000000000000000000 ) ) ;
#194 = VECTOR ( 'NONE', #199, 1000.000000000000000 ) ;
#195 = CARTESIAN_POINT ( 'NONE',  ( -45.00000000000000000, 8.000000000000000000, -40.00000000000000000 ) ) ;
#196 = ORIENTED_EDGE ( 'NONE', *, *, #77, .T. ) ;
#197 = VERTEX_POINT ( 'NONE', #57 ) ;
#198 = CARTESIAN_POINT ( 'NONE',  ( -45.00000000000000000, 8.000000000000000000, 40.00000000000000000 ) ) ;
#199 = DIRECTION ( 'NONE',  ( 1.000000000000000000, 0.000000000000000000, 0.000000000000000000 ) ) ;
#200 = LINE ( 'NONE', #52, #72 ) ;
#201 = APPROVAL_PERSON_ORGANIZATION ( #226, #113, #159 ) ;
#202 = CARTESIAN_POINT ( 'NONE',  ( -45.00000000000000000, 8.000000000000000000, -40.00000000000000000 ) ) ;
#203 = EDGE_CURVE ( 'NONE', #197, #163, #96, .T. ) ;
#204 = COORDINATED_UNIVERSAL_TIME_OFFSET ( 8, 0, .AHEAD. ) ;
#205 = APPROVAL_ROLE ( '' ) ;
#206 = CALENDAR_DATE ( 2026, 27, 7 ) ;
#207 = DATE_AND_TIME ( #206, #21 ) ;
#208 = CC_DESIGN_PERSON_AND_ORGANIZATION_ASSIGNMENT ( #5, #173, ( #35 ) ) ;
#209 = DIRECTION ( 'NONE',  ( 0.000000000000000000, 0.000000000000000000, -1.000000000000000000 ) ) ;
#210 = MANIFOLD_SOLID_BREP ( '凸台-拉伸1', #33 ) ;
#211 = VERTEX_POINT ( 'NONE', #16 ) ;
#212 = AXIS2_PLACEMENT_3D ( 'NONE', #69, #149, #214 ) ;
#213 = ORIENTED_EDGE ( 'NONE', *, *, #40, .F. ) ;
#214 = DIRECTION ( 'NONE',  ( 0.000000000000000000, 0.000000000000000000, -1.000000000000000000 ) ) ;
#215 = ORIENTED_EDGE ( 'NONE', *, *, #78, .F. ) ;
#216 = AXIS2_PLACEMENT_3D ( 'NONE', #34, #183, #14 ) ;
#217 = PLANE ( 'NONE',  #216 ) ;
#218 = CARTESIAN_POINT ( 'NONE',  ( -45.00000000000000000, 8.000000000000000000, 40.00000000000000000 ) ) ;
#219 = CC_DESIGN_APPROVAL ( #31, ( #35 ) ) ;
#220 =( NAMED_UNIT ( * ) PLANE_ANGLE_UNIT ( ) SI_UNIT ( $, .RADIAN. ) );
#221 = ADVANCED_FACE ( 'NONE', ( #152 ), #217, .F. ) ;
#222 = PERSON_AND_ORGANIZATION_ROLE ( 'design_owner' ) ;
#223 = APPROVAL_DATE_TIME ( #191, #113 ) ;
#224 = AXIS2_PLACEMENT_3D ( 'NONE', #11, #209, #111 ) ;
#225 = PERSON_AND_ORGANIZATION ( #157, #56 ) ;
#226 = PERSON_AND_ORGANIZATION ( #157, #56 ) ;
#227 = PRODUCT_RELATED_PRODUCT_CATEGORY ( 'detail', '', ( #107 ) ) ;
#228 = ORIENTED_EDGE ( 'NONE', *, *, #121, .T. ) ;
#229 = ORIENTED_EDGE ( 'NONE', *, *, #187, .F. ) ;
#230 = ORIENTED_EDGE ( 'NONE', *, *, #128, .F. ) ;
#231 = PLANE ( 'NONE',  #212 ) ;
#232 = EDGE_LOOP ( 'NONE', ( #114, #162, #215, #228 ) ) ;
#233 = CARTESIAN_POINT ( 'NONE',  ( -45.00000000000000000, 8.000000000000000000, 40.00000000000000000 ) ) ;
#234 = VECTOR ( 'NONE', #55, 1000.000000000000000 ) ;
#235 = ADVANCED_FACE ( 'NONE', ( #139 ), #36, .T. ) ;
#236 = CARTESIAN_POINT ( 'NONE',  ( 45.00000000000000000, 0.000000000000000000, 40.00000000000000000 ) ) ;
#237 = EDGE_CURVE ( 'NONE', #178, #26, #169, .T. ) ;
ENDSEC;
END-ISO-10303-21;
