ISO-10303-21;
HEADER;
FILE_DESCRIPTION (( 'STEP AP203' ),
    '1' );
FILE_NAME ('FN-HAR-036_P-clip-envelope-20x8x15_PENDING_R0.7.STEP',
    '2026-07-26T17:44:02',
    ( '' ),
    ( '' ),
    'SwSTEP 2.0',
    'SolidWorks 2022',
    '' );
FILE_SCHEMA (( 'CONFIG_CONTROL_DESIGN' ));
ENDSEC;

DATA;
#1 = CARTESIAN_POINT ( 'NONE',  ( 10.00000000000000000, 0.000000000000000000, -4.000000000000000000 ) ) ;
#2 = SHAPE_DEFINITION_REPRESENTATION ( #190, #128 ) ;
#3 = DATE_AND_TIME ( #187, #137 ) ;
#4 = DATE_TIME_ROLE ( 'creation_date' ) ;
#5 = PERSON_AND_ORGANIZATION ( #225, #116 ) ;
#6 = VECTOR ( 'NONE', #183, 1000.000000000000000 ) ;
#7 = PERSON_AND_ORGANIZATION ( #225, #116 ) ;
#8 = APPROVAL ( #157, '未指定' ) ;
#9 = UNCERTAINTY_MEASURE_WITH_UNIT (LENGTH_MEASURE( 1.000000000000000082E-05 ), #110, 'distance_accuracy_value', 'NONE');
#10 = CARTESIAN_POINT ( 'NONE',  ( -10.00000000000000000, 15.00000000000000000, 4.000000000000000000 ) ) ;
#11 = ORIENTED_EDGE ( 'NONE', *, *, #73, .T. ) ;
#12 = DIRECTION ( 'NONE',  ( 0.000000000000000000, -1.000000000000000000, 0.000000000000000000 ) ) ;
#13 = EDGE_LOOP ( 'NONE', ( #44, #179, #24, #102 ) ) ;
#14 = CC_DESIGN_APPROVAL ( #79, ( #174 ) ) ;
#15 = CC_DESIGN_DATE_AND_TIME_ASSIGNMENT ( #206, #176, ( #174 ) ) ;
#16 = DIRECTION ( 'NONE',  ( -0.000000000000000000, -0.000000000000000000, 1.000000000000000000 ) ) ;
#17 = PLANE ( 'NONE',  #65 ) ;
#18 = CC_DESIGN_PERSON_AND_ORGANIZATION_ASSIGNMENT ( #97, #189, ( #91 ) ) ;
#19 = CARTESIAN_POINT ( 'NONE',  ( 10.00000000000000000, 0.000000000000000000, 4.000000000000000000 ) ) ;
#20 = LINE ( 'NONE', #168, #236 ) ;
#21 = CALENDAR_DATE ( 2026, 27, 7 ) ;
#22 = PERSON_AND_ORGANIZATION ( #225, #116 ) ;
#23 = DATE_AND_TIME ( #191, #121 ) ;
#24 = ORIENTED_EDGE ( 'NONE', *, *, #195, .T. ) ;
#25 = VERTEX_POINT ( 'NONE', #196 ) ;
#26 = CARTESIAN_POINT ( 'NONE',  ( 0.000000000000000000, 15.00000000000000000, 0.000000000000000000 ) ) ;
#27 = ORIENTED_EDGE ( 'NONE', *, *, #173, .F. ) ;
#28 = ORIENTED_EDGE ( 'NONE', *, *, #107, .T. ) ;
#29 = LINE ( 'NONE', #182, #69 ) ;
#30 = PLANE ( 'NONE',  #131 ) ;
#31 = LINE ( 'NONE', #105, #50 ) ;
#32 = CARTESIAN_POINT ( 'NONE',  ( -10.00000000000000000, 0.000000000000000000, -4.000000000000000000 ) ) ;
#33 = VECTOR ( 'NONE', #180, 1000.000000000000000 ) ;
#34 = CC_DESIGN_PERSON_AND_ORGANIZATION_ASSIGNMENT ( #132, #58, ( #186 ) ) ;
#35 = LOCAL_TIME ( 1, 44, 2.000000000000000000, #39 ) ;
#36 = PERSON_AND_ORGANIZATION_ROLE ( 'design_supplier' ) ;
#37 = ADVANCED_FACE ( 'NONE', ( #42 ), #82, .F. ) ;
#38 = COORDINATED_UNIVERSAL_TIME_OFFSET ( 8, 0, .AHEAD. ) ;
#39 = COORDINATED_UNIVERSAL_TIME_OFFSET ( 8, 0, .AHEAD. ) ;
#40 = AXIS2_PLACEMENT_3D ( 'NONE', #223, #52, #57 ) ;
#41 = ORIENTED_EDGE ( 'NONE', *, *, #75, .T. ) ;
#42 = FACE_OUTER_BOUND ( 'NONE', #160, .T. ) ;
#43 = CARTESIAN_POINT ( 'NONE',  ( -10.00000000000000000, 0.000000000000000000, 4.000000000000000000 ) ) ;
#44 = ORIENTED_EDGE ( 'NONE', *, *, #173, .T. ) ;
#45 = ORIENTED_EDGE ( 'NONE', *, *, #94, .F. ) ;
#46 = CARTESIAN_POINT ( 'NONE',  ( -10.00000000000000000, 15.00000000000000000, 4.000000000000000000 ) ) ;
#47 = LINE ( 'NONE', #197, #55 ) ;
#48 = DIRECTION ( 'NONE',  ( -0.000000000000000000, -1.000000000000000000, -0.000000000000000000 ) ) ;
#49 = LINE ( 'NONE', #200, #146 ) ;
#50 = VECTOR ( 'NONE', #16, 1000.000000000000000 ) ;
#51 = APPROVAL_STATUS ( 'not_yet_approved' ) ;
#52 = DIRECTION ( 'NONE',  ( 0.000000000000000000, 0.000000000000000000, 1.000000000000000000 ) ) ;
#53 = APPROVAL_DATE_TIME ( #3, #8 ) ;
#54 = ADVANCED_FACE ( 'NONE', ( #162 ), #192, .F. ) ;
#55 = VECTOR ( 'NONE', #181, 1000.000000000000000 ) ;
#56 = APPROVAL_PERSON_ORGANIZATION ( #154, #79, #134 ) ;
#57 = DIRECTION ( 'NONE',  ( 1.000000000000000000, 0.000000000000000000, 0.000000000000000000 ) ) ;
#58 = PERSON_AND_ORGANIZATION_ROLE ( 'creator' ) ;
#59 = ORIENTED_EDGE ( 'NONE', *, *, #115, .T. ) ;
#60 = LOCAL_TIME ( 1, 44, 2.000000000000000000, #74 ) ;
#61 = VERTEX_POINT ( 'NONE', #43 ) ;
#62 = DIRECTION ( 'NONE',  ( -1.000000000000000000, 0.000000000000000000, -0.000000000000000000 ) ) ;
#63 = ORIENTED_EDGE ( 'NONE', *, *, #138, .F. ) ;
#64 = ADVANCED_FACE ( 'NONE', ( #120 ), #194, .F. ) ;
#65 = AXIS2_PLACEMENT_3D ( 'NONE', #87, #127, #199 ) ;
#66 = DIRECTION ( 'NONE',  ( 1.000000000000000000, 0.000000000000000000, 0.000000000000000000 ) ) ;
#67 = LINE ( 'NONE', #124, #155 ) ;
#68 = AXIS2_PLACEMENT_3D ( 'NONE', #10, #230, #62 ) ;
#69 = VECTOR ( 'NONE', #130, 1000.000000000000000 ) ;
#70 = LINE ( 'NONE', #143, #221 ) ;
#71 = DIRECTION ( 'NONE',  ( -0.000000000000000000, -1.000000000000000000, -0.000000000000000000 ) ) ;
#72 = DIRECTION ( 'NONE',  ( 1.000000000000000000, 0.000000000000000000, -0.000000000000000000 ) ) ;
#73 = EDGE_CURVE ( 'NONE', #163, #61, #47, .T. ) ;
#74 = COORDINATED_UNIVERSAL_TIME_OFFSET ( 8, 0, .AHEAD. ) ;
#75 = EDGE_CURVE ( 'NONE', #136, #100, #20, .T. ) ;
#76 = PERSON_AND_ORGANIZATION_ROLE ( 'classification_officer' ) ;
#77 = DATE_AND_TIME ( #21, #60 ) ;
#78 = ORIENTED_EDGE ( 'NONE', *, *, #101, .T. ) ;
#79 = APPROVAL ( #51, '未指定' ) ;
#80 = ORIENTED_EDGE ( 'NONE', *, *, #101, .F. ) ;
#81 = CLOSED_SHELL ( 'NONE', ( #37, #54, #98, #185, #64, #203 ) ) ;
#82 = PLANE ( 'NONE',  #145 ) ;
#83 = ORIENTED_EDGE ( 'NONE', *, *, #195, .F. ) ;
#84 = ORIENTED_EDGE ( 'NONE', *, *, #94, .T. ) ;
#85 = PRODUCT ( 'FN-HAR-036_P-clip-envelope-20x8x15_PENDING_R0.7', 'FN-HAR-036_P-clip-envelope-20x8x15_PENDING_R0.7', '', ( #135 ) ) ;
#86 = DIRECTION ( 'NONE',  ( 0.000000000000000000, 0.000000000000000000, 1.000000000000000000 ) ) ;
#87 = CARTESIAN_POINT ( 'NONE',  ( 0.000000000000000000, 0.000000000000000000, 0.000000000000000000 ) ) ;
#88 = VECTOR ( 'NONE', #71, 1000.000000000000000 ) ;
#89 = DIRECTION ( 'NONE',  ( 0.000000000000000000, 0.000000000000000000, -1.000000000000000000 ) ) ;
#90 = CARTESIAN_POINT ( 'NONE',  ( -10.00000000000000000, 15.00000000000000000, -4.000000000000000000 ) ) ;
#91 = PRODUCT_DEFINITION ( '未知', '', #186, #159 ) ;
#92 = APPROVAL_ROLE ( '' ) ;
#93 = APPROVAL_ROLE ( '' ) ;
#94 = EDGE_CURVE ( 'NONE', #122, #163, #104, .T. ) ;
#95 = APPLICATION_PROTOCOL_DEFINITION ( 'international standard', 'config_control_design', 1994, #119 ) ;
#96 = CALENDAR_DATE ( 2026, 27, 7 ) ;
#97 = PERSON_AND_ORGANIZATION ( #225, #116 ) ;
#98 = ADVANCED_FACE ( 'NONE', ( #170 ), #30, .F. ) ;
#99 = ORIENTED_EDGE ( 'NONE', *, *, #138, .T. ) ;
#100 = VERTEX_POINT ( 'NONE', #1 ) ;
#101 = EDGE_CURVE ( 'NONE', #61, #210, #70, .T. ) ;
#102 = ORIENTED_EDGE ( 'NONE', *, *, #142, .T. ) ;
#103 = ORIENTED_EDGE ( 'NONE', *, *, #73, .F. ) ;
#104 = LINE ( 'NONE', #90, #88 ) ;
#105 = CARTESIAN_POINT ( 'NONE',  ( -10.00000000000000000, 15.00000000000000000, 4.000000000000000000 ) ) ;
#106 = CARTESIAN_POINT ( 'NONE',  ( 10.00000000000000000, 0.000000000000000000, 4.000000000000000000 ) ) ;
#107 = EDGE_CURVE ( 'NONE', #210, #100, #215, .T. ) ;
#108 = VECTOR ( 'NONE', #89, 1000.000000000000000 ) ;
#109 = CARTESIAN_POINT ( 'NONE',  ( 10.00000000000000000, 15.00000000000000000, 4.000000000000000000 ) ) ;
#110 =( LENGTH_UNIT ( ) NAMED_UNIT ( * ) SI_UNIT ( .MILLI., .METRE. ) );
#111 = APPLICATION_PROTOCOL_DEFINITION ( 'international standard', 'config_control_design', 1994, #114 ) ;
#112 = SECURITY_CLASSIFICATION_LEVEL ( 'unclassified' ) ;
#113 = COORDINATED_UNIVERSAL_TIME_OFFSET ( 8, 0, .AHEAD. ) ;
#114 = APPLICATION_CONTEXT ( 'configuration controlled 3d designs of mechanical parts and assemblies' ) ;
#115 = EDGE_CURVE ( 'NONE', #25, #61, #149, .T. ) ;
#116 = ORGANIZATION ( '未指定', '未指定', '' ) ;
#117 = ORIENTED_EDGE ( 'NONE', *, *, #115, .F. ) ;
#118 = EDGE_CURVE ( 'NONE', #25, #177, #129, .T. ) ;
#119 = APPLICATION_CONTEXT ( 'configuration controlled 3d designs of mechanical parts and assemblies' ) ;
#120 = FACE_OUTER_BOUND ( 'NONE', #13, .T. ) ;
#121 = LOCAL_TIME ( 1, 44, 2.000000000000000000, #113 ) ;
#122 = VERTEX_POINT ( 'NONE', #216 ) ;
#123 = CC_DESIGN_PERSON_AND_ORGANIZATION_ASSIGNMENT ( #219, #36, ( #186 ) ) ;
#124 = CARTESIAN_POINT ( 'NONE',  ( -10.00000000000000000, 15.00000000000000000, -4.000000000000000000 ) ) ;
#125 = MANIFOLD_SOLID_BREP ( '凸台-拉伸1', #81 ) ;
#126 = CARTESIAN_POINT ( 'NONE',  ( 10.00000000000000000, 15.00000000000000000, 4.000000000000000000 ) ) ;
#127 = DIRECTION ( 'NONE',  ( 0.000000000000000000, -1.000000000000000000, 0.000000000000000000 ) ) ;
#128 = ADVANCED_BREP_SHAPE_REPRESENTATION ( 'FN-HAR-036_P-clip-envelope-20x8x15_PENDING_R0.7', ( #125, #40 ), #169 ) ;
#129 = LINE ( 'NONE', #46, #33 ) ;
#130 = DIRECTION ( 'NONE',  ( -1.000000000000000000, -0.000000000000000000, -0.000000000000000000 ) ) ;
#131 = AXIS2_PLACEMENT_3D ( 'NONE', #126, #202, #147 ) ;
#132 = PERSON_AND_ORGANIZATION ( #225, #116 ) ;
#133 = APPROVAL_PERSON_ORGANIZATION ( #7, #8, #93 ) ;
#134 = APPROVAL_ROLE ( '' ) ;
#135 = MECHANICAL_CONTEXT ( 'NONE', #119, 'mechanical' ) ;
#136 = VERTEX_POINT ( 'NONE', #234 ) ;
#137 = LOCAL_TIME ( 1, 44, 2.000000000000000000, #153 ) ;
#138 = EDGE_CURVE ( 'NONE', #100, #163, #29, .T. ) ;
#139 = EDGE_LOOP ( 'NONE', ( #28, #208, #83, #228 ) ) ;
#140 = CC_DESIGN_APPROVAL ( #8, ( #91 ) ) ;
#141 = EDGE_LOOP ( 'NONE', ( #99, #45, #231, #41 ) ) ;
#142 = EDGE_CURVE ( 'NONE', #136, #122, #67, .T. ) ;
#143 = CARTESIAN_POINT ( 'NONE',  ( -10.00000000000000000, 0.000000000000000000, 4.000000000000000000 ) ) ;
#144 = CARTESIAN_POINT ( 'NONE',  ( 10.00000000000000000, 15.00000000000000000, 4.000000000000000000 ) ) ;
#145 = AXIS2_PLACEMENT_3D ( 'NONE', #158, #226, #207 ) ;
#146 = VECTOR ( 'NONE', #48, 1000.000000000000000 ) ;
#147 = DIRECTION ( 'NONE',  ( 0.000000000000000000, 0.000000000000000000, 1.000000000000000000 ) ) ;
#148 = CC_DESIGN_PERSON_AND_ORGANIZATION_ASSIGNMENT ( #22, #76, ( #174 ) ) ;
#149 = LINE ( 'NONE', #233, #6 ) ;
#150 = LINE ( 'NONE', #144, #227 ) ;
#151 = APPROVAL_DATE_TIME ( #224, #188 ) ;
#152 = APPROVAL_STATUS ( 'not_yet_approved' ) ;
#153 = COORDINATED_UNIVERSAL_TIME_OFFSET ( 8, 0, .AHEAD. ) ;
#154 = PERSON_AND_ORGANIZATION ( #225, #116 ) ;
#155 = VECTOR ( 'NONE', #237, 1000.000000000000000 ) ;
#156 = EDGE_CURVE ( 'NONE', #177, #210, #49, .T. ) ;
#157 = APPROVAL_STATUS ( 'not_yet_approved' ) ;
#158 = CARTESIAN_POINT ( 'NONE',  ( -10.00000000000000000, 15.00000000000000000, 4.000000000000000000 ) ) ;
#159 = DESIGN_CONTEXT ( 'detailed design', #114, 'design' ) ;
#160 = EDGE_LOOP ( 'NONE', ( #11, #117, #27, #84 ) ) ;
#161 = CC_DESIGN_SECURITY_CLASSIFICATION ( #174, ( #186 ) ) ;
#162 = FACE_OUTER_BOUND ( 'NONE', #164, .T. ) ;
#163 = VERTEX_POINT ( 'NONE', #32 ) ;
#164 = EDGE_LOOP ( 'NONE', ( #78, #209, #232, #59 ) ) ;
#165 = LOCAL_TIME ( 1, 44, 2.000000000000000000, #38 ) ;
#166 =( NAMED_UNIT ( * ) PLANE_ANGLE_UNIT ( ) SI_UNIT ( $, .RADIAN. ) );
#167 = FACE_OUTER_BOUND ( 'NONE', #141, .T. ) ;
#168 = CARTESIAN_POINT ( 'NONE',  ( 10.00000000000000000, 15.00000000000000000, -4.000000000000000000 ) ) ;
#169 =( GEOMETRIC_REPRESENTATION_CONTEXT ( 3 ) GLOBAL_UNCERTAINTY_ASSIGNED_CONTEXT ( ( #9 ) ) GLOBAL_UNIT_ASSIGNED_CONTEXT ( ( #110, #166, #205 ) ) REPRESENTATION_CONTEXT ( 'NONE', 'WORKASPACE' ) );
#170 = FACE_OUTER_BOUND ( 'NONE', #139, .T. ) ;
#171 = PLANE ( 'NONE',  #211 ) ;
#172 = APPROVAL_DATE_TIME ( #23, #79 ) ;
#173 = EDGE_CURVE ( 'NONE', #122, #25, #31, .T. ) ;
#174 = SECURITY_CLASSIFICATION ( '', '', #112 ) ;
#175 = PERSON_AND_ORGANIZATION ( #225, #116 ) ;
#176 = DATE_TIME_ROLE ( 'classification_date' ) ;
#177 = VERTEX_POINT ( 'NONE', #109 ) ;
#178 = EDGE_LOOP ( 'NONE', ( #103, #63, #212, #80 ) ) ;
#179 = ORIENTED_EDGE ( 'NONE', *, *, #118, .T. ) ;
#180 = DIRECTION ( 'NONE',  ( 1.000000000000000000, 0.000000000000000000, 0.000000000000000000 ) ) ;
#181 = DIRECTION ( 'NONE',  ( -0.000000000000000000, -0.000000000000000000, 1.000000000000000000 ) ) ;
#182 = CARTESIAN_POINT ( 'NONE',  ( -10.00000000000000000, 0.000000000000000000, -4.000000000000000000 ) ) ;
#183 = DIRECTION ( 'NONE',  ( -0.000000000000000000, -1.000000000000000000, -0.000000000000000000 ) ) ;
#184 = CALENDAR_DATE ( 2026, 27, 7 ) ;
#185 = ADVANCED_FACE ( 'NONE', ( #167 ), #171, .F. ) ;
#186 = PRODUCT_DEFINITION_FORMATION_WITH_SPECIFIED_SOURCE ( '任何', '', #85, .NOT_KNOWN. ) ;
#187 = CALENDAR_DATE ( 2026, 27, 7 ) ;
#188 = APPROVAL ( #152, '未指定' ) ;
#189 = PERSON_AND_ORGANIZATION_ROLE ( 'creator' ) ;
#190 = PRODUCT_DEFINITION_SHAPE ( 'NONE', 'NONE',  #91 ) ;
#191 = CALENDAR_DATE ( 2026, 27, 7 ) ;
#192 = PLANE ( 'NONE',  #68 ) ;
#193 = PRODUCT_RELATED_PRODUCT_CATEGORY ( 'detail', '', ( #85 ) ) ;
#194 = PLANE ( 'NONE',  #204 ) ;
#195 = EDGE_CURVE ( 'NONE', #177, #136, #150, .T. ) ;
#196 = CARTESIAN_POINT ( 'NONE',  ( -10.00000000000000000, 15.00000000000000000, 4.000000000000000000 ) ) ;
#197 = CARTESIAN_POINT ( 'NONE',  ( -10.00000000000000000, 0.000000000000000000, 4.000000000000000000 ) ) ;
#198 = DIRECTION ( 'NONE',  ( -0.000000000000000000, -1.000000000000000000, -0.000000000000000000 ) ) ;
#199 = DIRECTION ( 'NONE',  ( 0.000000000000000000, -0.000000000000000000, -1.000000000000000000 ) ) ;
#200 = CARTESIAN_POINT ( 'NONE',  ( 10.00000000000000000, 15.00000000000000000, 4.000000000000000000 ) ) ;
#201 = CC_DESIGN_APPROVAL ( #188, ( #186 ) ) ;
#202 = DIRECTION ( 'NONE',  ( -1.000000000000000000, 0.000000000000000000, 0.000000000000000000 ) ) ;
#203 = ADVANCED_FACE ( 'NONE', ( #218 ), #17, .T. ) ;
#204 = AXIS2_PLACEMENT_3D ( 'NONE', #26, #12, #213 ) ;
#205 =( NAMED_UNIT ( * ) SI_UNIT ( $, .STERADIAN. ) SOLID_ANGLE_UNIT ( ) );
#206 = DATE_AND_TIME ( #96, #165 ) ;
#207 = DIRECTION ( 'NONE',  ( 0.000000000000000000, 0.000000000000000000, -1.000000000000000000 ) ) ;
#208 = ORIENTED_EDGE ( 'NONE', *, *, #75, .F. ) ;
#209 = ORIENTED_EDGE ( 'NONE', *, *, #156, .F. ) ;
#210 = VERTEX_POINT ( 'NONE', #19 ) ;
#211 = AXIS2_PLACEMENT_3D ( 'NONE', #235, #86, #72 ) ;
#212 = ORIENTED_EDGE ( 'NONE', *, *, #107, .F. ) ;
#213 = DIRECTION ( 'NONE',  ( 0.000000000000000000, -0.000000000000000000, -1.000000000000000000 ) ) ;
#214 = DIRECTION ( 'NONE',  ( 0.000000000000000000, 0.000000000000000000, -1.000000000000000000 ) ) ;
#215 = LINE ( 'NONE', #106, #108 ) ;
#216 = CARTESIAN_POINT ( 'NONE',  ( -10.00000000000000000, 15.00000000000000000, -4.000000000000000000 ) ) ;
#217 = CC_DESIGN_PERSON_AND_ORGANIZATION_ASSIGNMENT ( #5, #220, ( #85 ) ) ;
#218 = FACE_OUTER_BOUND ( 'NONE', #178, .T. ) ;
#219 = PERSON_AND_ORGANIZATION ( #225, #116 ) ;
#220 = PERSON_AND_ORGANIZATION_ROLE ( 'design_owner' ) ;
#221 = VECTOR ( 'NONE', #66, 1000.000000000000000 ) ;
#222 = APPROVAL_PERSON_ORGANIZATION ( #175, #188, #92 ) ;
#223 = CARTESIAN_POINT ( 'NONE',  ( 0.000000000000000000, 0.000000000000000000, 0.000000000000000000 ) ) ;
#224 = DATE_AND_TIME ( #184, #35 ) ;
#225 = PERSON ( '未指定', '未指定', '未指定', ('未指定'), ('未指定'), ('未指定') ) ;
#226 = DIRECTION ( 'NONE',  ( 1.000000000000000000, -0.000000000000000000, 0.000000000000000000 ) ) ;
#227 = VECTOR ( 'NONE', #214, 1000.000000000000000 ) ;
#228 = ORIENTED_EDGE ( 'NONE', *, *, #156, .T. ) ;
#229 = CC_DESIGN_DATE_AND_TIME_ASSIGNMENT ( #77, #4, ( #91 ) ) ;
#230 = DIRECTION ( 'NONE',  ( 0.000000000000000000, 0.000000000000000000, -1.000000000000000000 ) ) ;
#231 = ORIENTED_EDGE ( 'NONE', *, *, #142, .F. ) ;
#232 = ORIENTED_EDGE ( 'NONE', *, *, #118, .F. ) ;
#233 = CARTESIAN_POINT ( 'NONE',  ( -10.00000000000000000, 15.00000000000000000, 4.000000000000000000 ) ) ;
#234 = CARTESIAN_POINT ( 'NONE',  ( 10.00000000000000000, 15.00000000000000000, -4.000000000000000000 ) ) ;
#235 = CARTESIAN_POINT ( 'NONE',  ( -10.00000000000000000, 15.00000000000000000, -4.000000000000000000 ) ) ;
#236 = VECTOR ( 'NONE', #198, 1000.000000000000000 ) ;
#237 = DIRECTION ( 'NONE',  ( -1.000000000000000000, -0.000000000000000000, -0.000000000000000000 ) ) ;
ENDSEC;
END-ISO-10303-21;
