ISO-10303-21;
HEADER;
FILE_DESCRIPTION (( 'STEP AP203' ),
    '1' );
FILE_NAME ('FN-HAR-037_lower-strain-relief-bar-110x12x8_CONCEPT_R0.7.STEP',
    '2026-07-26T17:44:08',
    ( '' ),
    ( '' ),
    'SwSTEP 2.0',
    'SolidWorks 2022',
    '' );
FILE_SCHEMA (( 'CONFIG_CONTROL_DESIGN' ));
ENDSEC;

DATA;
#1 = DIRECTION ( 'NONE',  ( 1.000000000000000000, 0.000000000000000000, 0.000000000000000000 ) ) ;
#2 = PERSON ( '未指定', '未指定', '未指定', ('未指定'), ('未指定'), ('未指定') ) ;
#3 = DIRECTION ( 'NONE',  ( -1.000000000000000000, -0.000000000000000000, -0.000000000000000000 ) ) ;
#4 = PLANE ( 'NONE',  #103 ) ;
#5 = APPLICATION_PROTOCOL_DEFINITION ( 'international standard', 'config_control_design', 1994, #14 ) ;
#6 = VECTOR ( 'NONE', #38, 1000.000000000000000 ) ;
#7 = DATE_AND_TIME ( #117, #57 ) ;
#8 = AXIS2_PLACEMENT_3D ( 'NONE', #124, #127, #179 ) ;
#9 = APPROVAL ( #110, '未指定' ) ;
#10 = ORIENTED_EDGE ( 'NONE', *, *, #109, .T. ) ;
#11 = APPLICATION_PROTOCOL_DEFINITION ( 'international standard', 'config_control_design', 1994, #221 ) ;
#12 =( NAMED_UNIT ( * ) SI_UNIT ( $, .STERADIAN. ) SOLID_ANGLE_UNIT ( ) );
#13 = ORIENTED_EDGE ( 'NONE', *, *, #165, .F. ) ;
#14 = APPLICATION_CONTEXT ( 'configuration controlled 3d designs of mechanical parts and assemblies' ) ;
#15 = ORIENTED_EDGE ( 'NONE', *, *, #122, .F. ) ;
#16 = DIRECTION ( 'NONE',  ( -0.000000000000000000, -0.000000000000000000, 1.000000000000000000 ) ) ;
#17 = DIRECTION ( 'NONE',  ( 0.000000000000000000, -0.000000000000000000, -1.000000000000000000 ) ) ;
#18 = ADVANCED_FACE ( 'NONE', ( #121 ), #71, .F. ) ;
#19 = DIRECTION ( 'NONE',  ( -0.000000000000000000, -1.000000000000000000, -0.000000000000000000 ) ) ;
#20 = DIRECTION ( 'NONE',  ( -0.000000000000000000, -1.000000000000000000, -0.000000000000000000 ) ) ;
#21 = LINE ( 'NONE', #56, #233 ) ;
#22 = VECTOR ( 'NONE', #199, 1000.000000000000000 ) ;
#23 = CARTESIAN_POINT ( 'NONE',  ( 55.00000000000000000, 0.000000000000000000, 6.000000000000000000 ) ) ;
#24 = PERSON_AND_ORGANIZATION_ROLE ( 'classification_officer' ) ;
#25 = VECTOR ( 'NONE', #16, 1000.000000000000000 ) ;
#26 = PERSON_AND_ORGANIZATION ( #2, #166 ) ;
#27 = PRODUCT_DEFINITION ( '未知', '', #162, #137 ) ;
#28 = CARTESIAN_POINT ( 'NONE',  ( -55.00000000000000000, 8.000000000000000000, 6.000000000000000000 ) ) ;
#29 = VERTEX_POINT ( 'NONE', #235 ) ;
#30 = APPROVAL_STATUS ( 'not_yet_approved' ) ;
#31 = EDGE_LOOP ( 'NONE', ( #197, #15, #87, #48 ) ) ;
#32 = VECTOR ( 'NONE', #198, 1000.000000000000000 ) ;
#33 = LINE ( 'NONE', #173, #25 ) ;
#34 = CARTESIAN_POINT ( 'NONE',  ( -55.00000000000000000, 8.000000000000000000, -6.000000000000000000 ) ) ;
#35 = FACE_OUTER_BOUND ( 'NONE', #102, .T. ) ;
#36 = ADVANCED_FACE ( 'NONE', ( #101 ), #171, .F. ) ;
#37 = CARTESIAN_POINT ( 'NONE',  ( -55.00000000000000000, 8.000000000000000000, 6.000000000000000000 ) ) ;
#38 = DIRECTION ( 'NONE',  ( -1.000000000000000000, -0.000000000000000000, -0.000000000000000000 ) ) ;
#39 = PLANE ( 'NONE',  #213 ) ;
#40 = DIRECTION ( 'NONE',  ( 0.000000000000000000, 0.000000000000000000, -1.000000000000000000 ) ) ;
#41 = VECTOR ( 'NONE', #40, 1000.000000000000000 ) ;
#42 = SECURITY_CLASSIFICATION_LEVEL ( 'unclassified' ) ;
#43 = APPROVAL_ROLE ( '' ) ;
#44 = VECTOR ( 'NONE', #55, 1000.000000000000000 ) ;
#45 = EDGE_LOOP ( 'NONE', ( #86, #172, #140, #113 ) ) ;
#46 = COORDINATED_UNIVERSAL_TIME_OFFSET ( 8, 0, .AHEAD. ) ;
#47 = LOCAL_TIME ( 1, 44, 8.000000000000000000, #49 ) ;
#48 = ORIENTED_EDGE ( 'NONE', *, *, #165, .T. ) ;
#49 = COORDINATED_UNIVERSAL_TIME_OFFSET ( 8, 0, .AHEAD. ) ;
#50 = ORIENTED_EDGE ( 'NONE', *, *, #133, .F. ) ;
#51 = ORIENTED_EDGE ( 'NONE', *, *, #225, .T. ) ;
#52 = ORIENTED_EDGE ( 'NONE', *, *, #59, .F. ) ;
#53 = CARTESIAN_POINT ( 'NONE',  ( -55.00000000000000000, 8.000000000000000000, -6.000000000000000000 ) ) ;
#54 = EDGE_CURVE ( 'NONE', #169, #118, #33, .T. ) ;
#55 = DIRECTION ( 'NONE',  ( -0.000000000000000000, -1.000000000000000000, -0.000000000000000000 ) ) ;
#56 = CARTESIAN_POINT ( 'NONE',  ( -55.00000000000000000, 0.000000000000000000, -6.000000000000000000 ) ) ;
#57 = LOCAL_TIME ( 1, 44, 8.000000000000000000, #46 ) ;
#58 = PLANE ( 'NONE',  #8 ) ;
#59 = EDGE_CURVE ( 'NONE', #153, #29, #89, .T. ) ;
#60 = CARTESIAN_POINT ( 'NONE',  ( -55.00000000000000000, 0.000000000000000000, 6.000000000000000000 ) ) ;
#61 = APPROVAL_ROLE ( '' ) ;
#62 = VECTOR ( 'NONE', #108, 1000.000000000000000 ) ;
#63 = DATE_AND_TIME ( #168, #81 ) ;
#64 = ADVANCED_FACE ( 'NONE', ( #237 ), #161, .F. ) ;
#65 = PERSON_AND_ORGANIZATION ( #2, #166 ) ;
#66 = AXIS2_PLACEMENT_3D ( 'NONE', #72, #211, #138 ) ;
#67 = EDGE_CURVE ( 'NONE', #158, #153, #159, .T. ) ;
#68 = DATE_AND_TIME ( #182, #47 ) ;
#69 = VERTEX_POINT ( 'NONE', #107 ) ;
#70 = PERSON_AND_ORGANIZATION_ROLE ( 'design_supplier' ) ;
#71 = PLANE ( 'NONE',  #196 ) ;
#72 = CARTESIAN_POINT ( 'NONE',  ( -55.00000000000000000, 8.000000000000000000, 6.000000000000000000 ) ) ;
#73 = EDGE_LOOP ( 'NONE', ( #234, #50, #193, #104 ) ) ;
#74 = ORIENTED_EDGE ( 'NONE', *, *, #122, .T. ) ;
#75 = LINE ( 'NONE', #53, #83 ) ;
#76 = DIRECTION ( 'NONE',  ( -1.000000000000000000, 0.000000000000000000, -0.000000000000000000 ) ) ;
#77 = CARTESIAN_POINT ( 'NONE',  ( 55.00000000000000000, 8.000000000000000000, 6.000000000000000000 ) ) ;
#78 = SECURITY_CLASSIFICATION ( '', '', #42 ) ;
#79 = CARTESIAN_POINT ( 'NONE',  ( 55.00000000000000000, 8.000000000000000000, 6.000000000000000000 ) ) ;
#80 = CC_DESIGN_PERSON_AND_ORGANIZATION_ASSIGNMENT ( #65, #70, ( #162 ) ) ;
#81 = LOCAL_TIME ( 1, 44, 8.000000000000000000, #132 ) ;
#82 = PERSON_AND_ORGANIZATION ( #2, #166 ) ;
#83 = VECTOR ( 'NONE', #20, 1000.000000000000000 ) ;
#84 = PRODUCT_RELATED_PRODUCT_CATEGORY ( 'detail', '', ( #185 ) ) ;
#85 = AXIS2_PLACEMENT_3D ( 'NONE', #112, #232, #131 ) ;
#86 = ORIENTED_EDGE ( 'NONE', *, *, #133, .T. ) ;
#87 = ORIENTED_EDGE ( 'NONE', *, *, #186, .F. ) ;
#88 = EDGE_CURVE ( 'NONE', #118, #141, #177, .T. ) ;
#89 = LINE ( 'NONE', #28, #22 ) ;
#90 = DIRECTION ( 'NONE',  ( 0.000000000000000000, 0.000000000000000000, -1.000000000000000000 ) ) ;
#91 = LINE ( 'NONE', #144, #62 ) ;
#92 = LINE ( 'NONE', #123, #44 ) ;
#93 = VECTOR ( 'NONE', #163, 1000.000000000000000 ) ;
#94 = CARTESIAN_POINT ( 'NONE',  ( 55.00000000000000000, 8.000000000000000000, -6.000000000000000000 ) ) ;
#95 =( LENGTH_UNIT ( ) NAMED_UNIT ( * ) SI_UNIT ( .MILLI., .METRE. ) );
#96 = EDGE_CURVE ( 'NONE', #153, #169, #75, .T. ) ;
#97 = COORDINATED_UNIVERSAL_TIME_OFFSET ( 8, 0, .AHEAD. ) ;
#98 = APPROVAL_PERSON_ORGANIZATION ( #26, #125, #43 ) ;
#99 = SHAPE_DEFINITION_REPRESENTATION ( #229, #116 ) ;
#100 = CC_DESIGN_DATE_AND_TIME_ASSIGNMENT ( #167, #208, ( #78 ) ) ;
#101 = FACE_OUTER_BOUND ( 'NONE', #209, .T. ) ;
#102 = EDGE_LOOP ( 'NONE', ( #51, #120, #236, #74 ) ) ;
#103 = AXIS2_PLACEMENT_3D ( 'NONE', #79, #146, #129 ) ;
#104 = ORIENTED_EDGE ( 'NONE', *, *, #88, .F. ) ;
#105 = CARTESIAN_POINT ( 'NONE',  ( -55.00000000000000000, 8.000000000000000000, 6.000000000000000000 ) ) ;
#106 = CARTESIAN_POINT ( 'NONE',  ( 0.000000000000000000, 8.000000000000000000, 0.000000000000000000 ) ) ;
#107 = CARTESIAN_POINT ( 'NONE',  ( 55.00000000000000000, 8.000000000000000000, 6.000000000000000000 ) ) ;
#108 = DIRECTION ( 'NONE',  ( -0.000000000000000000, -1.000000000000000000, -0.000000000000000000 ) ) ;
#109 = EDGE_CURVE ( 'NONE', #69, #158, #215, .T. ) ;
#110 = APPROVAL_STATUS ( 'not_yet_approved' ) ;
#111 = CALENDAR_DATE ( 2026, 27, 7 ) ;
#112 = CARTESIAN_POINT ( 'NONE',  ( 0.000000000000000000, 0.000000000000000000, 0.000000000000000000 ) ) ;
#113 = ORIENTED_EDGE ( 'NONE', *, *, #192, .T. ) ;
#114 = CC_DESIGN_PERSON_AND_ORGANIZATION_ASSIGNMENT ( #82, #191, ( #162 ) ) ;
#115 =( GEOMETRIC_REPRESENTATION_CONTEXT ( 3 ) GLOBAL_UNCERTAINTY_ASSIGNED_CONTEXT ( ( #227 ) ) GLOBAL_UNIT_ASSIGNED_CONTEXT ( ( #95, #214, #12 ) ) REPRESENTATION_CONTEXT ( 'NONE', 'WORKASPACE' ) );
#116 = ADVANCED_BREP_SHAPE_REPRESENTATION ( 'FN-HAR-037_lower-strain-relief-bar-110x12x8_CONCEPT_R0.7', ( #130, #85 ), #115 ) ;
#117 = CALENDAR_DATE ( 2026, 27, 7 ) ;
#118 = VERTEX_POINT ( 'NONE', #60 ) ;
#119 = APPROVAL_ROLE ( '' ) ;
#120 = ORIENTED_EDGE ( 'NONE', *, *, #192, .F. ) ;
#121 = FACE_OUTER_BOUND ( 'NONE', #45, .T. ) ;
#122 = EDGE_CURVE ( 'NONE', #69, #141, #92, .T. ) ;
#123 = CARTESIAN_POINT ( 'NONE',  ( 55.00000000000000000, 8.000000000000000000, 6.000000000000000000 ) ) ;
#124 = CARTESIAN_POINT ( 'NONE',  ( 0.000000000000000000, 0.000000000000000000, 0.000000000000000000 ) ) ;
#125 = APPROVAL ( #30, '未指定' ) ;
#126 = CARTESIAN_POINT ( 'NONE',  ( -55.00000000000000000, 8.000000000000000000, 6.000000000000000000 ) ) ;
#127 = DIRECTION ( 'NONE',  ( 0.000000000000000000, -1.000000000000000000, 0.000000000000000000 ) ) ;
#128 = CC_DESIGN_PERSON_AND_ORGANIZATION_ASSIGNMENT ( #224, #228, ( #185 ) ) ;
#129 = DIRECTION ( 'NONE',  ( 0.000000000000000000, 0.000000000000000000, 1.000000000000000000 ) ) ;
#130 = MANIFOLD_SOLID_BREP ( '凸台-拉伸1', #152 ) ;
#131 = DIRECTION ( 'NONE',  ( 1.000000000000000000, 0.000000000000000000, 0.000000000000000000 ) ) ;
#132 = COORDINATED_UNIVERSAL_TIME_OFFSET ( 8, 0, .AHEAD. ) ;
#133 = EDGE_CURVE ( 'NONE', #190, #169, #21, .T. ) ;
#134 = COORDINATED_UNIVERSAL_TIME_OFFSET ( 8, 0, .AHEAD. ) ;
#135 = ORIENTED_EDGE ( 'NONE', *, *, #54, .T. ) ;
#136 = CALENDAR_DATE ( 2026, 27, 7 ) ;
#137 = DESIGN_CONTEXT ( 'detailed design', #221, 'design' ) ;
#138 = DIRECTION ( 'NONE',  ( 0.000000000000000000, 0.000000000000000000, -1.000000000000000000 ) ) ;
#139 = ORIENTED_EDGE ( 'NONE', *, *, #59, .T. ) ;
#140 = ORIENTED_EDGE ( 'NONE', *, *, #67, .F. ) ;
#141 = VERTEX_POINT ( 'NONE', #23 ) ;
#142 = LINE ( 'NONE', #105, #222 ) ;
#143 = CC_DESIGN_PERSON_AND_ORGANIZATION_ASSIGNMENT ( #223, #220, ( #27 ) ) ;
#144 = CARTESIAN_POINT ( 'NONE',  ( 55.00000000000000000, 8.000000000000000000, -6.000000000000000000 ) ) ;
#145 = CARTESIAN_POINT ( 'NONE',  ( -55.00000000000000000, 0.000000000000000000, -6.000000000000000000 ) ) ;
#146 = DIRECTION ( 'NONE',  ( -1.000000000000000000, 0.000000000000000000, 0.000000000000000000 ) ) ;
#147 = ADVANCED_FACE ( 'NONE', ( #175 ), #39, .F. ) ;
#148 = PERSON_AND_ORGANIZATION ( #2, #166 ) ;
#149 = APPROVAL_PERSON_ORGANIZATION ( #204, #219, #119 ) ;
#150 = APPROVAL_DATE_TIME ( #68, #219 ) ;
#151 = PERSON_AND_ORGANIZATION ( #2, #166 ) ;
#152 = CLOSED_SHELL ( 'NONE', ( #36, #147, #210, #18, #64, #181 ) ) ;
#153 = VERTEX_POINT ( 'NONE', #201 ) ;
#154 = APPROVAL_DATE_TIME ( #184, #9 ) ;
#155 = LOCAL_TIME ( 1, 44, 8.000000000000000000, #134 ) ;
#156 = DIRECTION ( 'NONE',  ( 1.000000000000000000, 0.000000000000000000, -0.000000000000000000 ) ) ;
#157 = EDGE_LOOP ( 'NONE', ( #139, #188, #10, #231 ) ) ;
#158 = VERTEX_POINT ( 'NONE', #94 ) ;
#159 = LINE ( 'NONE', #218, #6 ) ;
#160 = DIRECTION ( 'NONE',  ( 0.000000000000000000, -1.000000000000000000, 0.000000000000000000 ) ) ;
#161 = PLANE ( 'NONE',  #180 ) ;
#162 = PRODUCT_DEFINITION_FORMATION_WITH_SPECIFIED_SOURCE ( '任何', '', #185, .NOT_KNOWN. ) ;
#163 = DIRECTION ( 'NONE',  ( 1.000000000000000000, 0.000000000000000000, 0.000000000000000000 ) ) ;
#164 = CARTESIAN_POINT ( 'NONE',  ( 55.00000000000000000, 0.000000000000000000, 6.000000000000000000 ) ) ;
#165 = EDGE_CURVE ( 'NONE', #29, #118, #142, .T. ) ;
#166 = ORGANIZATION ( '未指定', '未指定', '' ) ;
#167 = DATE_AND_TIME ( #136, #200 ) ;
#168 = CALENDAR_DATE ( 2026, 27, 7 ) ;
#169 = VERTEX_POINT ( 'NONE', #145 ) ;
#170 = MECHANICAL_CONTEXT ( 'NONE', #14, 'mechanical' ) ;
#171 = PLANE ( 'NONE',  #66 ) ;
#172 = ORIENTED_EDGE ( 'NONE', *, *, #96, .F. ) ;
#173 = CARTESIAN_POINT ( 'NONE',  ( -55.00000000000000000, 0.000000000000000000, 6.000000000000000000 ) ) ;
#174 = CC_DESIGN_DATE_AND_TIME_ASSIGNMENT ( #63, #205, ( #27 ) ) ;
#175 = FACE_OUTER_BOUND ( 'NONE', #31, .T. ) ;
#176 = CC_DESIGN_APPROVAL ( #219, ( #27 ) ) ;
#177 = LINE ( 'NONE', #178, #195 ) ;
#178 = CARTESIAN_POINT ( 'NONE',  ( -55.00000000000000000, 0.000000000000000000, 6.000000000000000000 ) ) ;
#179 = DIRECTION ( 'NONE',  ( 0.000000000000000000, -0.000000000000000000, -1.000000000000000000 ) ) ;
#180 = AXIS2_PLACEMENT_3D ( 'NONE', #106, #160, #17 ) ;
#181 = ADVANCED_FACE ( 'NONE', ( #217 ), #58, .T. ) ;
#182 = CALENDAR_DATE ( 2026, 27, 7 ) ;
#183 = APPROVAL_PERSON_ORGANIZATION ( #151, #9, #61 ) ;
#184 = DATE_AND_TIME ( #111, #155 ) ;
#185 = PRODUCT ( 'FN-HAR-037_lower-strain-relief-bar-110x12x8_CONCEPT_R0.7', 'FN-HAR-037_lower-strain-relief-bar-110x12x8_CONCEPT_R0.7', '', ( #170 ) ) ;
#186 = EDGE_CURVE ( 'NONE', #29, #69, #216, .T. ) ;
#187 = CC_DESIGN_APPROVAL ( #125, ( #78 ) ) ;
#188 = ORIENTED_EDGE ( 'NONE', *, *, #186, .T. ) ;
#189 = APPROVAL_DATE_TIME ( #7, #125 ) ;
#190 = VERTEX_POINT ( 'NONE', #202 ) ;
#191 = PERSON_AND_ORGANIZATION_ROLE ( 'creator' ) ;
#192 = EDGE_CURVE ( 'NONE', #158, #190, #91, .T. ) ;
#193 = ORIENTED_EDGE ( 'NONE', *, *, #225, .F. ) ;
#194 = DIRECTION ( 'NONE',  ( 0.000000000000000000, 0.000000000000000000, 1.000000000000000000 ) ) ;
#195 = VECTOR ( 'NONE', #1, 1000.000000000000000 ) ;
#196 = AXIS2_PLACEMENT_3D ( 'NONE', #34, #194, #156 ) ;
#197 = ORIENTED_EDGE ( 'NONE', *, *, #88, .T. ) ;
#198 = DIRECTION ( 'NONE',  ( 0.000000000000000000, 0.000000000000000000, -1.000000000000000000 ) ) ;
#199 = DIRECTION ( 'NONE',  ( -0.000000000000000000, -0.000000000000000000, 1.000000000000000000 ) ) ;
#200 = LOCAL_TIME ( 1, 44, 8.000000000000000000, #97 ) ;
#201 = CARTESIAN_POINT ( 'NONE',  ( -55.00000000000000000, 8.000000000000000000, -6.000000000000000000 ) ) ;
#202 = CARTESIAN_POINT ( 'NONE',  ( 55.00000000000000000, 0.000000000000000000, -6.000000000000000000 ) ) ;
#203 = LINE ( 'NONE', #164, #41 ) ;
#204 = PERSON_AND_ORGANIZATION ( #2, #166 ) ;
#205 = DATE_TIME_ROLE ( 'creation_date' ) ;
#206 = APPROVAL_STATUS ( 'not_yet_approved' ) ;
#207 = CC_DESIGN_SECURITY_CLASSIFICATION ( #78, ( #162 ) ) ;
#208 = DATE_TIME_ROLE ( 'classification_date' ) ;
#209 = EDGE_LOOP ( 'NONE', ( #135, #13, #52, #212 ) ) ;
#210 = ADVANCED_FACE ( 'NONE', ( #35 ), #4, .F. ) ;
#211 = DIRECTION ( 'NONE',  ( 1.000000000000000000, -0.000000000000000000, 0.000000000000000000 ) ) ;
#212 = ORIENTED_EDGE ( 'NONE', *, *, #96, .T. ) ;
#213 = AXIS2_PLACEMENT_3D ( 'NONE', #126, #90, #76 ) ;
#214 =( NAMED_UNIT ( * ) PLANE_ANGLE_UNIT ( ) SI_UNIT ( $, .RADIAN. ) );
#215 = LINE ( 'NONE', #77, #32 ) ;
#216 = LINE ( 'NONE', #37, #93 ) ;
#217 = FACE_OUTER_BOUND ( 'NONE', #73, .T. ) ;
#218 = CARTESIAN_POINT ( 'NONE',  ( -55.00000000000000000, 8.000000000000000000, -6.000000000000000000 ) ) ;
#219 = APPROVAL ( #206, '未指定' ) ;
#220 = PERSON_AND_ORGANIZATION_ROLE ( 'creator' ) ;
#221 = APPLICATION_CONTEXT ( 'configuration controlled 3d designs of mechanical parts and assemblies' ) ;
#222 = VECTOR ( 'NONE', #19, 1000.000000000000000 ) ;
#223 = PERSON_AND_ORGANIZATION ( #2, #166 ) ;
#224 = PERSON_AND_ORGANIZATION ( #2, #166 ) ;
#225 = EDGE_CURVE ( 'NONE', #141, #190, #203, .T. ) ;
#226 = CC_DESIGN_APPROVAL ( #9, ( #162 ) ) ;
#227 = UNCERTAINTY_MEASURE_WITH_UNIT (LENGTH_MEASURE( 1.000000000000000082E-05 ), #95, 'distance_accuracy_value', 'NONE');
#228 = PERSON_AND_ORGANIZATION_ROLE ( 'design_owner' ) ;
#229 = PRODUCT_DEFINITION_SHAPE ( 'NONE', 'NONE',  #27 ) ;
#230 = CC_DESIGN_PERSON_AND_ORGANIZATION_ASSIGNMENT ( #148, #24, ( #78 ) ) ;
#231 = ORIENTED_EDGE ( 'NONE', *, *, #67, .T. ) ;
#232 = DIRECTION ( 'NONE',  ( 0.000000000000000000, 0.000000000000000000, 1.000000000000000000 ) ) ;
#233 = VECTOR ( 'NONE', #3, 1000.000000000000000 ) ;
#234 = ORIENTED_EDGE ( 'NONE', *, *, #54, .F. ) ;
#235 = CARTESIAN_POINT ( 'NONE',  ( -55.00000000000000000, 8.000000000000000000, 6.000000000000000000 ) ) ;
#236 = ORIENTED_EDGE ( 'NONE', *, *, #109, .F. ) ;
#237 = FACE_OUTER_BOUND ( 'NONE', #157, .T. ) ;
ENDSEC;
END-ISO-10303-21;
