ISO-10303-21;
HEADER;
FILE_DESCRIPTION (( 'STEP AP203' ),
    '1' );
FILE_NAME ('FN-MNT-001_enclosure-back-strap-300x6x32_CONCEPT_R0.7.STEP',
    '2026-07-26T17:42:58',
    ( '' ),
    ( '' ),
    'SwSTEP 2.0',
    'SolidWorks 2022',
    '' );
FILE_SCHEMA (( 'CONFIG_CONTROL_DESIGN' ));
ENDSEC;

DATA;
#1 = DATE_AND_TIME ( #18, #148 ) ;
#2 = APPROVAL ( #236, '未指定' ) ;
#3 = CC_DESIGN_APPROVAL ( #2, ( #119 ) ) ;
#4 = COORDINATED_UNIVERSAL_TIME_OFFSET ( 8, 0, .AHEAD. ) ;
#5 = EDGE_LOOP ( 'NONE', ( #225, #170, #153, #134 ) ) ;
#6 = DATE_AND_TIME ( #187, #174 ) ;
#7 = VERTEX_POINT ( 'NONE', #138 ) ;
#8 = LINE ( 'NONE', #230, #57 ) ;
#9 = LINE ( 'NONE', #229, #53 ) ;
#10 = DIRECTION ( 'NONE',  ( 1.000000000000000000, 0.000000000000000000, -0.000000000000000000 ) ) ;
#11 = UNCERTAINTY_MEASURE_WITH_UNIT (LENGTH_MEASURE( 1.000000000000000082E-05 ), #166, 'distance_accuracy_value', 'NONE');
#12 = CARTESIAN_POINT ( 'NONE',  ( 0.000000000000000000, 0.000000000000000000, 0.000000000000000000 ) ) ;
#13 = LOCAL_TIME ( 1, 42, 58.00000000000000000, #201 ) ;
#14 = EDGE_CURVE ( 'NONE', #66, #49, #208, .T. ) ;
#15 = LINE ( 'NONE', #197, #129 ) ;
#16 = CARTESIAN_POINT ( 'NONE',  ( -150.0000000000000000, 0.000000000000000000, 3.000000000000000000 ) ) ;
#17 = CLOSED_SHELL ( 'NONE', ( #207, #214, #217, #91, #185, #140 ) ) ;
#18 = CALENDAR_DATE ( 2026, 27, 7 ) ;
#19 = DIRECTION ( 'NONE',  ( -0.000000000000000000, -0.000000000000000000, 1.000000000000000000 ) ) ;
#20 = VECTOR ( 'NONE', #231, 1000.000000000000000 ) ;
#21 = APPROVAL ( #226, '未指定' ) ;
#22 = EDGE_CURVE ( 'NONE', #195, #66, #179, .T. ) ;
#23 = APPROVAL_ROLE ( '' ) ;
#24 = ORIENTED_EDGE ( 'NONE', *, *, #167, .T. ) ;
#25 = VECTOR ( 'NONE', #19, 1000.000000000000000 ) ;
#26 = SECURITY_CLASSIFICATION_LEVEL ( 'unclassified' ) ;
#27 = ORIENTED_EDGE ( 'NONE', *, *, #14, .T. ) ;
#28 = LINE ( 'NONE', #103, #20 ) ;
#29 = EDGE_CURVE ( 'NONE', #114, #132, #54, .T. ) ;
#30 = AXIS2_PLACEMENT_3D ( 'NONE', #12, #34, #118 ) ;
#31 = CC_DESIGN_APPROVAL ( #21, ( #55 ) ) ;
#32 = LINE ( 'NONE', #87, #112 ) ;
#33 = DIRECTION ( 'NONE',  ( -0.000000000000000000, -1.000000000000000000, -0.000000000000000000 ) ) ;
#34 = DIRECTION ( 'NONE',  ( 0.000000000000000000, -1.000000000000000000, 0.000000000000000000 ) ) ;
#35 = ORIENTED_EDGE ( 'NONE', *, *, #29, .F. ) ;
#36 = CARTESIAN_POINT ( 'NONE',  ( -150.0000000000000000, 32.00000000000000000, 3.000000000000000000 ) ) ;
#37 = MECHANICAL_CONTEXT ( 'NONE', #64, 'mechanical' ) ;
#38 = PERSON_AND_ORGANIZATION ( #194, #222 ) ;
#39 = DATE_AND_TIME ( #127, #210 ) ;
#40 = DIRECTION ( 'NONE',  ( 1.000000000000000000, -0.000000000000000000, 0.000000000000000000 ) ) ;
#41 = EDGE_CURVE ( 'NONE', #7, #195, #15, .T. ) ;
#42 = PERSON_AND_ORGANIZATION ( #194, #222 ) ;
#43 = VECTOR ( 'NONE', #121, 1000.000000000000000 ) ;
#44 = ORIENTED_EDGE ( 'NONE', *, *, #232, .F. ) ;
#45 = CALENDAR_DATE ( 2026, 27, 7 ) ;
#46 = ORIENTED_EDGE ( 'NONE', *, *, #48, .T. ) ;
#47 = VECTOR ( 'NONE', #90, 1000.000000000000000 ) ;
#48 = EDGE_CURVE ( 'NONE', #195, #135, #28, .T. ) ;
#49 = VERTEX_POINT ( 'NONE', #212 ) ;
#50 = LINE ( 'NONE', #120, #143 ) ;
#51 = CARTESIAN_POINT ( 'NONE',  ( 150.0000000000000000, 32.00000000000000000, 3.000000000000000000 ) ) ;
#52 = DIRECTION ( 'NONE',  ( -0.000000000000000000, -0.000000000000000000, 1.000000000000000000 ) ) ;
#53 = VECTOR ( 'NONE', #163, 1000.000000000000000 ) ;
#54 = LINE ( 'NONE', #123, #152 ) ;
#55 = SECURITY_CLASSIFICATION ( '', '', #26 ) ;
#56 = APPROVAL_ROLE ( '' ) ;
#57 = VECTOR ( 'NONE', #157, 1000.000000000000000 ) ;
#58 = PERSON_AND_ORGANIZATION ( #194, #222 ) ;
#59 = EDGE_CURVE ( 'NONE', #49, #114, #213, .T. ) ;
#60 = APPROVAL_DATE_TIME ( #128, #160 ) ;
#61 = PERSON_AND_ORGANIZATION ( #194, #222 ) ;
#62 = VERTEX_POINT ( 'NONE', #74 ) ;
#63 = AXIS2_PLACEMENT_3D ( 'NONE', #203, #77, #181 ) ;
#64 = APPLICATION_CONTEXT ( 'configuration controlled 3d designs of mechanical parts and assemblies' ) ;
#65 = APPROVAL_DATE_TIME ( #115, #21 ) ;
#66 = VERTEX_POINT ( 'NONE', #141 ) ;
#67 = ORIENTED_EDGE ( 'NONE', *, *, #151, .F. ) ;
#68 = ADVANCED_BREP_SHAPE_REPRESENTATION ( 'FN-MNT-001_enclosure-back-strap-300x6x32_CONCEPT_R0.7', ( #99, #117 ), #92 ) ;
#69 = CC_DESIGN_SECURITY_CLASSIFICATION ( #55, ( #119 ) ) ;
#70 = ORIENTED_EDGE ( 'NONE', *, *, #84, .T. ) ;
#71 = FACE_OUTER_BOUND ( 'NONE', #72, .T. ) ;
#72 = EDGE_LOOP ( 'NONE', ( #44, #97, #35, #81 ) ) ;
#73 = LINE ( 'NONE', #51, #43 ) ;
#74 = CARTESIAN_POINT ( 'NONE',  ( 150.0000000000000000, 32.00000000000000000, 3.000000000000000000 ) ) ;
#75 = PLANE ( 'NONE',  #206 ) ;
#76 = CC_DESIGN_PERSON_AND_ORGANIZATION_ASSIGNMENT ( #61, #133, ( #119 ) ) ;
#77 = DIRECTION ( 'NONE',  ( 0.000000000000000000, 0.000000000000000000, -1.000000000000000000 ) ) ;
#78 = APPLICATION_CONTEXT ( 'configuration controlled 3d designs of mechanical parts and assemblies' ) ;
#79 = APPLICATION_PROTOCOL_DEFINITION ( 'international standard', 'config_control_design', 1994, #64 ) ;
#80 = FACE_OUTER_BOUND ( 'NONE', #205, .T. ) ;
#81 = ORIENTED_EDGE ( 'NONE', *, *, #59, .F. ) ;
#82 = ORIENTED_EDGE ( 'NONE', *, *, #22, .F. ) ;
#83 = PRODUCT_DEFINITION_SHAPE ( 'NONE', 'NONE',  #180 ) ;
#84 = EDGE_CURVE ( 'NONE', #66, #62, #9, .T. ) ;
#85 = ORIENTED_EDGE ( 'NONE', *, *, #41, .T. ) ;
#86 = CARTESIAN_POINT ( 'NONE',  ( 150.0000000000000000, 0.000000000000000000, -3.000000000000000000 ) ) ;
#87 = CARTESIAN_POINT ( 'NONE',  ( 150.0000000000000000, 32.00000000000000000, 3.000000000000000000 ) ) ;
#88 = CARTESIAN_POINT ( 'NONE',  ( -150.0000000000000000, 32.00000000000000000, 3.000000000000000000 ) ) ;
#89 = PLANE ( 'NONE',  #155 ) ;
#90 = DIRECTION ( 'NONE',  ( 1.000000000000000000, 0.000000000000000000, 0.000000000000000000 ) ) ;
#91 = ADVANCED_FACE ( 'NONE', ( #125 ), #75, .F. ) ;
#92 =( GEOMETRIC_REPRESENTATION_CONTEXT ( 3 ) GLOBAL_UNCERTAINTY_ASSIGNED_CONTEXT ( ( #11 ) ) GLOBAL_UNIT_ASSIGNED_CONTEXT ( ( #166, #94, #110 ) ) REPRESENTATION_CONTEXT ( 'NONE', 'WORKASPACE' ) );
#93 = PERSON_AND_ORGANIZATION ( #194, #222 ) ;
#94 =( NAMED_UNIT ( * ) PLANE_ANGLE_UNIT ( ) SI_UNIT ( $, .RADIAN. ) );
#95 = CC_DESIGN_PERSON_AND_ORGANIZATION_ASSIGNMENT ( #38, #108, ( #180 ) ) ;
#96 = PERSON_AND_ORGANIZATION_ROLE ( 'creator' ) ;
#97 = ORIENTED_EDGE ( 'NONE', *, *, #124, .F. ) ;
#98 = AXIS2_PLACEMENT_3D ( 'NONE', #176, #159, #211 ) ;
#99 = MANIFOLD_SOLID_BREP ( '凸台-拉伸1', #17 ) ;
#100 = ORIENTED_EDGE ( 'NONE', *, *, #14, .F. ) ;
#101 = CC_DESIGN_DATE_AND_TIME_ASSIGNMENT ( #1, #199, ( #180 ) ) ;
#102 = CARTESIAN_POINT ( 'NONE',  ( -150.0000000000000000, 32.00000000000000000, -3.000000000000000000 ) ) ;
#103 = CARTESIAN_POINT ( 'NONE',  ( -150.0000000000000000, 32.00000000000000000, -3.000000000000000000 ) ) ;
#104 = PLANE ( 'NONE',  #98 ) ;
#105 = CARTESIAN_POINT ( 'NONE',  ( -150.0000000000000000, 32.00000000000000000, -3.000000000000000000 ) ) ;
#106 = CARTESIAN_POINT ( 'NONE',  ( -150.0000000000000000, 0.000000000000000000, 3.000000000000000000 ) ) ;
#107 = VECTOR ( 'NONE', #52, 1000.000000000000000 ) ;
#108 = PERSON_AND_ORGANIZATION_ROLE ( 'creator' ) ;
#109 = APPROVAL_DATE_TIME ( #39, #2 ) ;
#110 =( NAMED_UNIT ( * ) SI_UNIT ( $, .STERADIAN. ) SOLID_ANGLE_UNIT ( ) );
#111 = COORDINATED_UNIVERSAL_TIME_OFFSET ( 8, 0, .AHEAD. ) ;
#112 = VECTOR ( 'NONE', #158, 1000.000000000000000 ) ;
#113 = CC_DESIGN_PERSON_AND_ORGANIZATION_ASSIGNMENT ( #204, #220, ( #55 ) ) ;
#114 = VERTEX_POINT ( 'NONE', #173 ) ;
#115 = DATE_AND_TIME ( #45, #202 ) ;
#116 = EDGE_LOOP ( 'NONE', ( #175, #70, #171, #85 ) ) ;
#117 = AXIS2_PLACEMENT_3D ( 'NONE', #234, #164, #215 ) ;
#118 = DIRECTION ( 'NONE',  ( 0.000000000000000000, -0.000000000000000000, -1.000000000000000000 ) ) ;
#119 = PRODUCT_DEFINITION_FORMATION_WITH_SPECIFIED_SOURCE ( '任何', '', #191, .NOT_KNOWN. ) ;
#120 = CARTESIAN_POINT ( 'NONE',  ( 150.0000000000000000, 32.00000000000000000, -3.000000000000000000 ) ) ;
#121 = DIRECTION ( 'NONE',  ( 0.000000000000000000, 0.000000000000000000, -1.000000000000000000 ) ) ;
#122 = PRODUCT_RELATED_PRODUCT_CATEGORY ( 'detail', '', ( #191 ) ) ;
#123 = CARTESIAN_POINT ( 'NONE',  ( 150.0000000000000000, 0.000000000000000000, 3.000000000000000000 ) ) ;
#124 = EDGE_CURVE ( 'NONE', #132, #135, #8, .T. ) ;
#125 = FACE_OUTER_BOUND ( 'NONE', #227, .T. ) ;
#126 = DIRECTION ( 'NONE',  ( 0.000000000000000000, 0.000000000000000000, -1.000000000000000000 ) ) ;
#127 = CALENDAR_DATE ( 2026, 27, 7 ) ;
#128 = DATE_AND_TIME ( #219, #13 ) ;
#129 = VECTOR ( 'NONE', #139, 1000.000000000000000 ) ;
#130 = ORIENTED_EDGE ( 'NONE', *, *, #124, .T. ) ;
#131 = SHAPE_DEFINITION_REPRESENTATION ( #83, #68 ) ;
#132 = VERTEX_POINT ( 'NONE', #86 ) ;
#133 = PERSON_AND_ORGANIZATION_ROLE ( 'design_supplier' ) ;
#134 = ORIENTED_EDGE ( 'NONE', *, *, #151, .T. ) ;
#135 = VERTEX_POINT ( 'NONE', #228 ) ;
#136 = PLANE ( 'NONE',  #30 ) ;
#137 = CC_DESIGN_DATE_AND_TIME_ASSIGNMENT ( #6, #172, ( #55 ) ) ;
#138 = CARTESIAN_POINT ( 'NONE',  ( 150.0000000000000000, 32.00000000000000000, -3.000000000000000000 ) ) ;
#139 = DIRECTION ( 'NONE',  ( -1.000000000000000000, -0.000000000000000000, -0.000000000000000000 ) ) ;
#140 = ADVANCED_FACE ( 'NONE', ( #71 ), #136, .T. ) ;
#141 = CARTESIAN_POINT ( 'NONE',  ( -150.0000000000000000, 32.00000000000000000, 3.000000000000000000 ) ) ;
#142 = DIRECTION ( 'NONE',  ( 0.000000000000000000, 0.000000000000000000, 1.000000000000000000 ) ) ;
#143 = VECTOR ( 'NONE', #33, 1000.000000000000000 ) ;
#144 = FACE_OUTER_BOUND ( 'NONE', #5, .T. ) ;
#145 = DESIGN_CONTEXT ( 'detailed design', #78, 'design' ) ;
#146 = APPLICATION_PROTOCOL_DEFINITION ( 'international standard', 'config_control_design', 1994, #78 ) ;
#147 = APPROVAL_ROLE ( '' ) ;
#148 = LOCAL_TIME ( 1, 42, 58.00000000000000000, #183 ) ;
#149 = PERSON_AND_ORGANIZATION ( #194, #222 ) ;
#150 = CARTESIAN_POINT ( 'NONE',  ( 150.0000000000000000, 32.00000000000000000, 3.000000000000000000 ) ) ;
#151 = EDGE_CURVE ( 'NONE', #62, #114, #32, .T. ) ;
#152 = VECTOR ( 'NONE', #233, 1000.000000000000000 ) ;
#153 = ORIENTED_EDGE ( 'NONE', *, *, #192, .F. ) ;
#154 = ORIENTED_EDGE ( 'NONE', *, *, #232, .T. ) ;
#155 = AXIS2_PLACEMENT_3D ( 'NONE', #36, #40, #126 ) ;
#156 = CC_DESIGN_PERSON_AND_ORGANIZATION_ASSIGNMENT ( #42, #96, ( #119 ) ) ;
#157 = DIRECTION ( 'NONE',  ( -1.000000000000000000, -0.000000000000000000, -0.000000000000000000 ) ) ;
#158 = DIRECTION ( 'NONE',  ( -0.000000000000000000, -1.000000000000000000, -0.000000000000000000 ) ) ;
#159 = DIRECTION ( 'NONE',  ( 0.000000000000000000, -1.000000000000000000, 0.000000000000000000 ) ) ;
#160 = APPROVAL ( #168, '未指定' ) ;
#161 = APPROVAL_PERSON_ORGANIZATION ( #149, #160, #56 ) ;
#162 = ORIENTED_EDGE ( 'NONE', *, *, #59, .T. ) ;
#163 = DIRECTION ( 'NONE',  ( 1.000000000000000000, 0.000000000000000000, 0.000000000000000000 ) ) ;
#164 = DIRECTION ( 'NONE',  ( 0.000000000000000000, 0.000000000000000000, 1.000000000000000000 ) ) ;
#165 = DIRECTION ( 'NONE',  ( 0.000000000000000000, 0.000000000000000000, 1.000000000000000000 ) ) ;
#166 =( LENGTH_UNIT ( ) NAMED_UNIT ( * ) SI_UNIT ( .MILLI., .METRE. ) );
#167 = EDGE_CURVE ( 'NONE', #7, #132, #50, .T. ) ;
#168 = APPROVAL_STATUS ( 'not_yet_approved' ) ;
#169 = CC_DESIGN_APPROVAL ( #160, ( #180 ) ) ;
#170 = ORIENTED_EDGE ( 'NONE', *, *, #167, .F. ) ;
#171 = ORIENTED_EDGE ( 'NONE', *, *, #192, .T. ) ;
#172 = DATE_TIME_ROLE ( 'classification_date' ) ;
#173 = CARTESIAN_POINT ( 'NONE',  ( 150.0000000000000000, 0.000000000000000000, 3.000000000000000000 ) ) ;
#174 = LOCAL_TIME ( 1, 42, 58.00000000000000000, #111 ) ;
#175 = ORIENTED_EDGE ( 'NONE', *, *, #22, .T. ) ;
#176 = CARTESIAN_POINT ( 'NONE',  ( 0.000000000000000000, 32.00000000000000000, 0.000000000000000000 ) ) ;
#177 = FACE_OUTER_BOUND ( 'NONE', #224, .T. ) ;
#178 = VECTOR ( 'NONE', #209, 1000.000000000000000 ) ;
#179 = LINE ( 'NONE', #193, #107 ) ;
#180 = PRODUCT_DEFINITION ( '未知', '', #119, #145 ) ;
#181 = DIRECTION ( 'NONE',  ( -1.000000000000000000, 0.000000000000000000, -0.000000000000000000 ) ) ;
#182 = APPROVAL_PERSON_ORGANIZATION ( #93, #2, #147 ) ;
#183 = COORDINATED_UNIVERSAL_TIME_OFFSET ( 8, 0, .AHEAD. ) ;
#184 = PLANE ( 'NONE',  #63 ) ;
#185 = ADVANCED_FACE ( 'NONE', ( #196 ), #104, .F. ) ;
#186 = PERSON_AND_ORGANIZATION ( #194, #222 ) ;
#187 = CALENDAR_DATE ( 2026, 27, 7 ) ;
#188 = ORIENTED_EDGE ( 'NONE', *, *, #48, .F. ) ;
#189 = AXIS2_PLACEMENT_3D ( 'NONE', #150, #216, #165 ) ;
#190 = ORIENTED_EDGE ( 'NONE', *, *, #84, .F. ) ;
#191 = PRODUCT ( 'FN-MNT-001_enclosure-back-strap-300x6x32_CONCEPT_R0.7', 'FN-MNT-001_enclosure-back-strap-300x6x32_CONCEPT_R0.7', '', ( #37 ) ) ;
#192 = EDGE_CURVE ( 'NONE', #62, #7, #73, .T. ) ;
#193 = CARTESIAN_POINT ( 'NONE',  ( -150.0000000000000000, 32.00000000000000000, 3.000000000000000000 ) ) ;
#194 = PERSON ( '未指定', '未指定', '未指定', ('未指定'), ('未指定'), ('未指定') ) ;
#195 = VERTEX_POINT ( 'NONE', #105 ) ;
#196 = FACE_OUTER_BOUND ( 'NONE', #116, .T. ) ;
#197 = CARTESIAN_POINT ( 'NONE',  ( -150.0000000000000000, 32.00000000000000000, -3.000000000000000000 ) ) ;
#198 = APPROVAL_PERSON_ORGANIZATION ( #186, #21, #23 ) ;
#199 = DATE_TIME_ROLE ( 'creation_date' ) ;
#200 = LINE ( 'NONE', #16, #25 ) ;
#201 = COORDINATED_UNIVERSAL_TIME_OFFSET ( 8, 0, .AHEAD. ) ;
#202 = LOCAL_TIME ( 1, 42, 58.00000000000000000, #4 ) ;
#203 = CARTESIAN_POINT ( 'NONE',  ( -150.0000000000000000, 32.00000000000000000, 3.000000000000000000 ) ) ;
#204 = PERSON_AND_ORGANIZATION ( #194, #222 ) ;
#205 = EDGE_LOOP ( 'NONE', ( #162, #67, #190, #27 ) ) ;
#206 = AXIS2_PLACEMENT_3D ( 'NONE', #102, #142, #10 ) ;
#207 = ADVANCED_FACE ( 'NONE', ( #177 ), #89, .F. ) ;
#208 = LINE ( 'NONE', #88, #178 ) ;
#209 = DIRECTION ( 'NONE',  ( -0.000000000000000000, -1.000000000000000000, -0.000000000000000000 ) ) ;
#210 = LOCAL_TIME ( 1, 42, 58.00000000000000000, #218 ) ;
#211 = DIRECTION ( 'NONE',  ( 0.000000000000000000, -0.000000000000000000, -1.000000000000000000 ) ) ;
#212 = CARTESIAN_POINT ( 'NONE',  ( -150.0000000000000000, 0.000000000000000000, 3.000000000000000000 ) ) ;
#213 = LINE ( 'NONE', #106, #47 ) ;
#214 = ADVANCED_FACE ( 'NONE', ( #80 ), #184, .F. ) ;
#215 = DIRECTION ( 'NONE',  ( 1.000000000000000000, 0.000000000000000000, 0.000000000000000000 ) ) ;
#216 = DIRECTION ( 'NONE',  ( -1.000000000000000000, 0.000000000000000000, 0.000000000000000000 ) ) ;
#217 = ADVANCED_FACE ( 'NONE', ( #144 ), #237, .F. ) ;
#218 = COORDINATED_UNIVERSAL_TIME_OFFSET ( 8, 0, .AHEAD. ) ;
#219 = CALENDAR_DATE ( 2026, 27, 7 ) ;
#220 = PERSON_AND_ORGANIZATION_ROLE ( 'classification_officer' ) ;
#221 = CC_DESIGN_PERSON_AND_ORGANIZATION_ASSIGNMENT ( #58, #235, ( #191 ) ) ;
#222 = ORGANIZATION ( '未指定', '未指定', '' ) ;
#223 = ORIENTED_EDGE ( 'NONE', *, *, #41, .F. ) ;
#224 = EDGE_LOOP ( 'NONE', ( #154, #100, #82, #46 ) ) ;
#225 = ORIENTED_EDGE ( 'NONE', *, *, #29, .T. ) ;
#226 = APPROVAL_STATUS ( 'not_yet_approved' ) ;
#227 = EDGE_LOOP ( 'NONE', ( #130, #188, #223, #24 ) ) ;
#228 = CARTESIAN_POINT ( 'NONE',  ( -150.0000000000000000, 0.000000000000000000, -3.000000000000000000 ) ) ;
#229 = CARTESIAN_POINT ( 'NONE',  ( -150.0000000000000000, 32.00000000000000000, 3.000000000000000000 ) ) ;
#230 = CARTESIAN_POINT ( 'NONE',  ( -150.0000000000000000, 0.000000000000000000, -3.000000000000000000 ) ) ;
#231 = DIRECTION ( 'NONE',  ( -0.000000000000000000, -1.000000000000000000, -0.000000000000000000 ) ) ;
#232 = EDGE_CURVE ( 'NONE', #135, #49, #200, .T. ) ;
#233 = DIRECTION ( 'NONE',  ( 0.000000000000000000, 0.000000000000000000, -1.000000000000000000 ) ) ;
#234 = CARTESIAN_POINT ( 'NONE',  ( 0.000000000000000000, 0.000000000000000000, 0.000000000000000000 ) ) ;
#235 = PERSON_AND_ORGANIZATION_ROLE ( 'design_owner' ) ;
#236 = APPROVAL_STATUS ( 'not_yet_approved' ) ;
#237 = PLANE ( 'NONE',  #189 ) ;
ENDSEC;
END-ISO-10303-21;
