ISO-10303-21;
HEADER;
FILE_DESCRIPTION (( 'STEP AP203' ),
    '1' );
FILE_NAME ('FN-SOL-007_panel-edge-clamp-24x18x8_PENDING_R0.7.STEP',
    '2026-07-26T17:43:19',
    ( '' ),
    ( '' ),
    'SwSTEP 2.0',
    'SolidWorks 2022',
    '' );
FILE_SCHEMA (( 'CONFIG_CONTROL_DESIGN' ));
ENDSEC;

DATA;
#1 =( NAMED_UNIT ( * ) PLANE_ANGLE_UNIT ( ) SI_UNIT ( $, .RADIAN. ) );
#2 = VECTOR ( 'NONE', #124, 1000.000000000000000 ) ;
#3 = ADVANCED_FACE ( 'NONE', ( #191 ), #45, .T. ) ;
#4 = DIRECTION ( 'NONE',  ( -1.000000000000000000, 0.000000000000000000, -0.000000000000000000 ) ) ;
#5 = DIRECTION ( 'NONE',  ( -0.000000000000000000, -0.000000000000000000, 1.000000000000000000 ) ) ;
#6 = CALENDAR_DATE ( 2026, 27, 7 ) ;
#7 = CARTESIAN_POINT ( 'NONE',  ( -12.00000000000000000, 0.000000000000000000, 9.000000000000000000 ) ) ;
#8 = EDGE_CURVE ( 'NONE', #40, #89, #101, .T. ) ;
#9 = DIRECTION ( 'NONE',  ( 0.000000000000000000, 0.000000000000000000, 1.000000000000000000 ) ) ;
#10 = FACE_OUTER_BOUND ( 'NONE', #19, .T. ) ;
#11 = FACE_OUTER_BOUND ( 'NONE', #185, .T. ) ;
#12 = DIRECTION ( 'NONE',  ( 1.000000000000000000, 0.000000000000000000, 0.000000000000000000 ) ) ;
#13 = LINE ( 'NONE', #30, #72 ) ;
#14 = SECURITY_CLASSIFICATION ( '', '', #134 ) ;
#15 = CC_DESIGN_PERSON_AND_ORGANIZATION_ASSIGNMENT ( #43, #116, ( #34 ) ) ;
#16 = ORIENTED_EDGE ( 'NONE', *, *, #222, .T. ) ;
#17 = VERTEX_POINT ( 'NONE', #137 ) ;
#18 = CC_DESIGN_PERSON_AND_ORGANIZATION_ASSIGNMENT ( #144, #126, ( #50 ) ) ;
#19 = EDGE_LOOP ( 'NONE', ( #132, #36, #113, #44 ) ) ;
#20 = APPROVAL_DATE_TIME ( #38, #214 ) ;
#21 = EDGE_CURVE ( 'NONE', #221, #40, #77, .T. ) ;
#22 = CARTESIAN_POINT ( 'NONE',  ( 12.00000000000000000, 0.000000000000000000, 9.000000000000000000 ) ) ;
#23 = DIRECTION ( 'NONE',  ( -1.000000000000000000, 0.000000000000000000, 0.000000000000000000 ) ) ;
#24 =( GEOMETRIC_REPRESENTATION_CONTEXT ( 3 ) GLOBAL_UNCERTAINTY_ASSIGNED_CONTEXT ( ( #68 ) ) GLOBAL_UNIT_ASSIGNED_CONTEXT ( ( #37, #1, #90 ) ) REPRESENTATION_CONTEXT ( 'NONE', 'WORKASPACE' ) );
#25 = ORIENTED_EDGE ( 'NONE', *, *, #42, .T. ) ;
#26 = LINE ( 'NONE', #105, #201 ) ;
#27 = DATE_TIME_ROLE ( 'creation_date' ) ;
#28 = CARTESIAN_POINT ( 'NONE',  ( 12.00000000000000000, 8.000000000000000000, 9.000000000000000000 ) ) ;
#29 = PLANE ( 'NONE',  #206 ) ;
#30 = CARTESIAN_POINT ( 'NONE',  ( -12.00000000000000000, 8.000000000000000000, 9.000000000000000000 ) ) ;
#31 = DIRECTION ( 'NONE',  ( 0.000000000000000000, -1.000000000000000000, 0.000000000000000000 ) ) ;
#32 = AXIS2_PLACEMENT_3D ( 'NONE', #52, #31, #195 ) ;
#33 = APPLICATION_CONTEXT ( 'configuration controlled 3d designs of mechanical parts and assemblies' ) ;
#34 = PRODUCT_DEFINITION_FORMATION_WITH_SPECIFIED_SOURCE ( '任何', '', #50, .NOT_KNOWN. ) ;
#35 = ADVANCED_FACE ( 'NONE', ( #189 ), #159, .F. ) ;
#36 = ORIENTED_EDGE ( 'NONE', *, *, #158, .F. ) ;
#37 =( LENGTH_UNIT ( ) NAMED_UNIT ( * ) SI_UNIT ( .MILLI., .METRE. ) );
#38 = DATE_AND_TIME ( #138, #162 ) ;
#39 = PERSON_AND_ORGANIZATION_ROLE ( 'design_supplier' ) ;
#40 = VERTEX_POINT ( 'NONE', #96 ) ;
#41 = DIRECTION ( 'NONE',  ( 0.000000000000000000, -0.000000000000000000, -1.000000000000000000 ) ) ;
#42 = EDGE_CURVE ( 'NONE', #107, #17, #193, .T. ) ;
#43 = PERSON_AND_ORGANIZATION ( #57, #91 ) ;
#44 = ORIENTED_EDGE ( 'NONE', *, *, #164, .T. ) ;
#45 = PLANE ( 'NONE',  #78 ) ;
#46 = LINE ( 'NONE', #230, #141 ) ;
#47 = LOCAL_TIME ( 1, 43, 19.00000000000000000, #156 ) ;
#48 = ADVANCED_BREP_SHAPE_REPRESENTATION ( 'FN-SOL-007_panel-edge-clamp-24x18x8_PENDING_R0.7', ( #220, #231 ), #24 ) ;
#49 = DESIGN_CONTEXT ( 'detailed design', #33, 'design' ) ;
#50 = PRODUCT ( 'FN-SOL-007_panel-edge-clamp-24x18x8_PENDING_R0.7', 'FN-SOL-007_panel-edge-clamp-24x18x8_PENDING_R0.7', '', ( #198 ) ) ;
#51 = EDGE_CURVE ( 'NONE', #139, #128, #84, .T. ) ;
#52 = CARTESIAN_POINT ( 'NONE',  ( 0.000000000000000000, 8.000000000000000000, 0.000000000000000000 ) ) ;
#53 = ADVANCED_FACE ( 'NONE', ( #80 ), #157, .F. ) ;
#54 = ORIENTED_EDGE ( 'NONE', *, *, #203, .F. ) ;
#55 = ORIENTED_EDGE ( 'NONE', *, *, #120, .F. ) ;
#56 = VECTOR ( 'NONE', #208, 1000.000000000000000 ) ;
#57 = PERSON ( '未指定', '未指定', '未指定', ('未指定'), ('未指定'), ('未指定') ) ;
#58 = CC_DESIGN_PERSON_AND_ORGANIZATION_ASSIGNMENT ( #207, #99, ( #75 ) ) ;
#59 = APPROVAL_PERSON_ORGANIZATION ( #64, #182, #136 ) ;
#60 = PERSON_AND_ORGANIZATION ( #57, #91 ) ;
#61 = ORIENTED_EDGE ( 'NONE', *, *, #123, .F. ) ;
#62 = COORDINATED_UNIVERSAL_TIME_OFFSET ( 8, 0, .AHEAD. ) ;
#63 = EDGE_LOOP ( 'NONE', ( #25, #224, #149, #183 ) ) ;
#64 = PERSON_AND_ORGANIZATION ( #57, #91 ) ;
#65 = CARTESIAN_POINT ( 'NONE',  ( -12.00000000000000000, 8.000000000000000000, -9.000000000000000000 ) ) ;
#66 = COORDINATED_UNIVERSAL_TIME_OFFSET ( 8, 0, .AHEAD. ) ;
#67 = CC_DESIGN_APPROVAL ( #187, ( #75 ) ) ;
#68 = UNCERTAINTY_MEASURE_WITH_UNIT (LENGTH_MEASURE( 1.000000000000000082E-05 ), #37, 'distance_accuracy_value', 'NONE');
#69 = VERTEX_POINT ( 'NONE', #161 ) ;
#70 = CARTESIAN_POINT ( 'NONE',  ( -12.00000000000000000, 8.000000000000000000, 9.000000000000000000 ) ) ;
#71 = ADVANCED_FACE ( 'NONE', ( #194 ), #29, .F. ) ;
#72 = VECTOR ( 'NONE', #12, 1000.000000000000000 ) ;
#73 = LINE ( 'NONE', #197, #2 ) ;
#74 = CARTESIAN_POINT ( 'NONE',  ( 0.000000000000000000, 0.000000000000000000, 0.000000000000000000 ) ) ;
#75 = PRODUCT_DEFINITION ( '未知', '', #34, #49 ) ;
#76 = CALENDAR_DATE ( 2026, 27, 7 ) ;
#77 = LINE ( 'NONE', #121, #122 ) ;
#78 = AXIS2_PLACEMENT_3D ( 'NONE', #114, #133, #41 ) ;
#79 = ADVANCED_FACE ( 'NONE', ( #10 ), #229, .F. ) ;
#80 = FACE_OUTER_BOUND ( 'NONE', #213, .T. ) ;
#81 = ORIENTED_EDGE ( 'NONE', *, *, #8, .F. ) ;
#82 = ORIENTED_EDGE ( 'NONE', *, *, #21, .F. ) ;
#83 = AXIS2_PLACEMENT_3D ( 'NONE', #28, #23, #173 ) ;
#84 = LINE ( 'NONE', #226, #179 ) ;
#85 = APPLICATION_CONTEXT ( 'configuration controlled 3d designs of mechanical parts and assemblies' ) ;
#86 = LOCAL_TIME ( 1, 43, 19.00000000000000000, #62 ) ;
#87 = APPLICATION_PROTOCOL_DEFINITION ( 'international standard', 'config_control_design', 1994, #85 ) ;
#88 = ORIENTED_EDGE ( 'NONE', *, *, #158, .T. ) ;
#89 = VERTEX_POINT ( 'NONE', #215 ) ;
#90 =( NAMED_UNIT ( * ) SI_UNIT ( $, .STERADIAN. ) SOLID_ANGLE_UNIT ( ) );
#91 = ORGANIZATION ( '未指定', '未指定', '' ) ;
#92 = APPROVAL_STATUS ( 'not_yet_approved' ) ;
#93 = APPROVAL_DATE_TIME ( #211, #182 ) ;
#94 = DIRECTION ( 'NONE',  ( 0.000000000000000000, 0.000000000000000000, -1.000000000000000000 ) ) ;
#95 = DATE_AND_TIME ( #6, #186 ) ;
#96 = CARTESIAN_POINT ( 'NONE',  ( 12.00000000000000000, 8.000000000000000000, -9.000000000000000000 ) ) ;
#97 = CC_DESIGN_SECURITY_CLASSIFICATION ( #14, ( #34 ) ) ;
#98 = ORIENTED_EDGE ( 'NONE', *, *, #223, .F. ) ;
#99 = PERSON_AND_ORGANIZATION_ROLE ( 'creator' ) ;
#100 = EDGE_LOOP ( 'NONE', ( #109, #54, #55, #98 ) ) ;
#101 = LINE ( 'NONE', #177, #104 ) ;
#102 = VECTOR ( 'NONE', #181, 1000.000000000000000 ) ;
#103 = LINE ( 'NONE', #217, #102 ) ;
#104 = VECTOR ( 'NONE', #117, 1000.000000000000000 ) ;
#105 = CARTESIAN_POINT ( 'NONE',  ( -12.00000000000000000, 8.000000000000000000, -9.000000000000000000 ) ) ;
#106 = APPLICATION_PROTOCOL_DEFINITION ( 'international standard', 'config_control_design', 1994, #33 ) ;
#107 = VERTEX_POINT ( 'NONE', #111 ) ;
#108 = DIRECTION ( 'NONE',  ( 1.000000000000000000, 0.000000000000000000, 0.000000000000000000 ) ) ;
#109 = ORIENTED_EDGE ( 'NONE', *, *, #42, .F. ) ;
#110 = APPROVAL_STATUS ( 'not_yet_approved' ) ;
#111 = CARTESIAN_POINT ( 'NONE',  ( -12.00000000000000000, 0.000000000000000000, -9.000000000000000000 ) ) ;
#112 = PERSON_AND_ORGANIZATION_ROLE ( 'classification_officer' ) ;
#113 = ORIENTED_EDGE ( 'NONE', *, *, #200, .F. ) ;
#114 = CARTESIAN_POINT ( 'NONE',  ( 0.000000000000000000, 0.000000000000000000, 0.000000000000000000 ) ) ;
#115 = CC_DESIGN_APPROVAL ( #182, ( #34 ) ) ;
#116 = PERSON_AND_ORGANIZATION_ROLE ( 'creator' ) ;
#117 = DIRECTION ( 'NONE',  ( -0.000000000000000000, -1.000000000000000000, -0.000000000000000000 ) ) ;
#118 = SHAPE_DEFINITION_REPRESENTATION ( #143, #48 ) ;
#119 = APPROVAL_DATE_TIME ( #95, #187 ) ;
#120 = EDGE_CURVE ( 'NONE', #69, #89, #188, .T. ) ;
#121 = CARTESIAN_POINT ( 'NONE',  ( 12.00000000000000000, 8.000000000000000000, 9.000000000000000000 ) ) ;
#122 = VECTOR ( 'NONE', #175, 1000.000000000000000 ) ;
#123 = EDGE_CURVE ( 'NONE', #139, #107, #73, .T. ) ;
#124 = DIRECTION ( 'NONE',  ( -0.000000000000000000, -1.000000000000000000, -0.000000000000000000 ) ) ;
#125 = AXIS2_PLACEMENT_3D ( 'NONE', #70, #140, #4 ) ;
#126 = PERSON_AND_ORGANIZATION_ROLE ( 'design_owner' ) ;
#127 = ADVANCED_FACE ( 'NONE', ( #11 ), #233, .F. ) ;
#128 = VERTEX_POINT ( 'NONE', #165 ) ;
#129 = CLOSED_SHELL ( 'NONE', ( #71, #79, #35, #53, #127, #3 ) ) ;
#130 = ORIENTED_EDGE ( 'NONE', *, *, #200, .T. ) ;
#131 = DATE_AND_TIME ( #153, #86 ) ;
#132 = ORIENTED_EDGE ( 'NONE', *, *, #223, .T. ) ;
#133 = DIRECTION ( 'NONE',  ( 0.000000000000000000, -1.000000000000000000, 0.000000000000000000 ) ) ;
#134 = SECURITY_CLASSIFICATION_LEVEL ( 'unclassified' ) ;
#135 = ORIENTED_EDGE ( 'NONE', *, *, #222, .F. ) ;
#136 = APPROVAL_ROLE ( '' ) ;
#137 = CARTESIAN_POINT ( 'NONE',  ( -12.00000000000000000, 0.000000000000000000, 9.000000000000000000 ) ) ;
#138 = CALENDAR_DATE ( 2026, 27, 7 ) ;
#139 = VERTEX_POINT ( 'NONE', #145 ) ;
#140 = DIRECTION ( 'NONE',  ( 0.000000000000000000, 0.000000000000000000, -1.000000000000000000 ) ) ;
#141 = VECTOR ( 'NONE', #216, 1000.000000000000000 ) ;
#142 = AXIS2_PLACEMENT_3D ( 'NONE', #65, #9, #163 ) ;
#143 = PRODUCT_DEFINITION_SHAPE ( 'NONE', 'NONE',  #75 ) ;
#144 = PERSON_AND_ORGANIZATION ( #57, #91 ) ;
#145 = CARTESIAN_POINT ( 'NONE',  ( -12.00000000000000000, 8.000000000000000000, -9.000000000000000000 ) ) ;
#146 = COORDINATED_UNIVERSAL_TIME_OFFSET ( 8, 0, .AHEAD. ) ;
#147 = ORIENTED_EDGE ( 'NONE', *, *, #8, .T. ) ;
#148 = DIRECTION ( 'NONE',  ( -1.000000000000000000, -0.000000000000000000, -0.000000000000000000 ) ) ;
#149 = ORIENTED_EDGE ( 'NONE', *, *, #51, .F. ) ;
#150 = CARTESIAN_POINT ( 'NONE',  ( -12.00000000000000000, 0.000000000000000000, 9.000000000000000000 ) ) ;
#151 = LINE ( 'NONE', #199, #172 ) ;
#152 = DIRECTION ( 'NONE',  ( -1.000000000000000000, -0.000000000000000000, -0.000000000000000000 ) ) ;
#153 = CALENDAR_DATE ( 2026, 27, 7 ) ;
#154 = COORDINATED_UNIVERSAL_TIME_OFFSET ( 8, 0, .AHEAD. ) ;
#155 = ORIENTED_EDGE ( 'NONE', *, *, #120, .T. ) ;
#156 = COORDINATED_UNIVERSAL_TIME_OFFSET ( 8, 0, .AHEAD. ) ;
#157 = PLANE ( 'NONE',  #142 ) ;
#158 = EDGE_CURVE ( 'NONE', #221, #69, #103, .T. ) ;
#159 = PLANE ( 'NONE',  #83 ) ;
#160 = PERSON_AND_ORGANIZATION ( #57, #91 ) ;
#161 = CARTESIAN_POINT ( 'NONE',  ( 12.00000000000000000, 0.000000000000000000, 9.000000000000000000 ) ) ;
#162 = LOCAL_TIME ( 1, 43, 19.00000000000000000, #66 ) ;
#163 = DIRECTION ( 'NONE',  ( 1.000000000000000000, 0.000000000000000000, -0.000000000000000000 ) ) ;
#164 = EDGE_CURVE ( 'NONE', #128, #17, #46, .T. ) ;
#165 = CARTESIAN_POINT ( 'NONE',  ( -12.00000000000000000, 8.000000000000000000, 9.000000000000000000 ) ) ;
#166 = APPROVAL_STATUS ( 'not_yet_approved' ) ;
#167 = ORIENTED_EDGE ( 'NONE', *, *, #203, .T. ) ;
#168 = PERSON_AND_ORGANIZATION ( #57, #91 ) ;
#169 = APPROVAL_PERSON_ORGANIZATION ( #168, #187, #236 ) ;
#170 = PRODUCT_RELATED_PRODUCT_CATEGORY ( 'detail', '', ( #50 ) ) ;
#171 = ORIENTED_EDGE ( 'NONE', *, *, #21, .T. ) ;
#172 = VECTOR ( 'NONE', #152, 1000.000000000000000 ) ;
#173 = DIRECTION ( 'NONE',  ( 0.000000000000000000, 0.000000000000000000, 1.000000000000000000 ) ) ;
#174 = CARTESIAN_POINT ( 'NONE',  ( 12.00000000000000000, 8.000000000000000000, 9.000000000000000000 ) ) ;
#175 = DIRECTION ( 'NONE',  ( 0.000000000000000000, 0.000000000000000000, -1.000000000000000000 ) ) ;
#176 = DATE_AND_TIME ( #209, #47 ) ;
#177 = CARTESIAN_POINT ( 'NONE',  ( 12.00000000000000000, 8.000000000000000000, -9.000000000000000000 ) ) ;
#178 = DIRECTION ( 'NONE',  ( 1.000000000000000000, -0.000000000000000000, 0.000000000000000000 ) ) ;
#179 = VECTOR ( 'NONE', #5, 1000.000000000000000 ) ;
#180 = APPROVAL_PERSON_ORGANIZATION ( #160, #214, #227 ) ;
#181 = DIRECTION ( 'NONE',  ( -0.000000000000000000, -1.000000000000000000, -0.000000000000000000 ) ) ;
#182 = APPROVAL ( #92, '未指定' ) ;
#183 = ORIENTED_EDGE ( 'NONE', *, *, #123, .T. ) ;
#184 = LOCAL_TIME ( 1, 43, 19.00000000000000000, #154 ) ;
#185 = EDGE_LOOP ( 'NONE', ( #228, #130, #171, #16 ) ) ;
#186 = LOCAL_TIME ( 1, 43, 19.00000000000000000, #146 ) ;
#187 = APPROVAL ( #166, '未指定' ) ;
#188 = LINE ( 'NONE', #22, #190 ) ;
#189 = FACE_OUTER_BOUND ( 'NONE', #210, .T. ) ;
#190 = VECTOR ( 'NONE', #94, 1000.000000000000000 ) ;
#191 = FACE_OUTER_BOUND ( 'NONE', #100, .T. ) ;
#192 = PERSON_AND_ORGANIZATION ( #57, #91 ) ;
#193 = LINE ( 'NONE', #7, #56 ) ;
#194 = FACE_OUTER_BOUND ( 'NONE', #63, .T. ) ;
#195 = DIRECTION ( 'NONE',  ( 0.000000000000000000, -0.000000000000000000, -1.000000000000000000 ) ) ;
#196 = CC_DESIGN_DATE_AND_TIME_ASSIGNMENT ( #176, #205, ( #14 ) ) ;
#197 = CARTESIAN_POINT ( 'NONE',  ( -12.00000000000000000, 8.000000000000000000, -9.000000000000000000 ) ) ;
#198 = MECHANICAL_CONTEXT ( 'NONE', #85, 'mechanical' ) ;
#199 = CARTESIAN_POINT ( 'NONE',  ( -12.00000000000000000, 0.000000000000000000, -9.000000000000000000 ) ) ;
#200 = EDGE_CURVE ( 'NONE', #128, #221, #13, .T. ) ;
#201 = VECTOR ( 'NONE', #148, 1000.000000000000000 ) ;
#202 = DIRECTION ( 'NONE',  ( 0.000000000000000000, 0.000000000000000000, 1.000000000000000000 ) ) ;
#203 = EDGE_CURVE ( 'NONE', #89, #107, #151, .T. ) ;
#204 = DIRECTION ( 'NONE',  ( 1.000000000000000000, 0.000000000000000000, 0.000000000000000000 ) ) ;
#205 = DATE_TIME_ROLE ( 'classification_date' ) ;
#206 = AXIS2_PLACEMENT_3D ( 'NONE', #225, #178, #212 ) ;
#207 = PERSON_AND_ORGANIZATION ( #57, #91 ) ;
#208 = DIRECTION ( 'NONE',  ( -0.000000000000000000, -0.000000000000000000, 1.000000000000000000 ) ) ;
#209 = CALENDAR_DATE ( 2026, 27, 7 ) ;
#210 = EDGE_LOOP ( 'NONE', ( #155, #81, #82, #88 ) ) ;
#211 = DATE_AND_TIME ( #76, #184 ) ;
#212 = DIRECTION ( 'NONE',  ( 0.000000000000000000, 0.000000000000000000, -1.000000000000000000 ) ) ;
#213 = EDGE_LOOP ( 'NONE', ( #167, #61, #135, #147 ) ) ;
#214 = APPROVAL ( #110, '未指定' ) ;
#215 = CARTESIAN_POINT ( 'NONE',  ( 12.00000000000000000, 0.000000000000000000, -9.000000000000000000 ) ) ;
#216 = DIRECTION ( 'NONE',  ( -0.000000000000000000, -1.000000000000000000, -0.000000000000000000 ) ) ;
#217 = CARTESIAN_POINT ( 'NONE',  ( 12.00000000000000000, 8.000000000000000000, 9.000000000000000000 ) ) ;
#218 = CC_DESIGN_APPROVAL ( #214, ( #14 ) ) ;
#219 = CC_DESIGN_PERSON_AND_ORGANIZATION_ASSIGNMENT ( #192, #112, ( #14 ) ) ;
#220 = MANIFOLD_SOLID_BREP ( '凸台-拉伸1', #129 ) ;
#221 = VERTEX_POINT ( 'NONE', #174 ) ;
#222 = EDGE_CURVE ( 'NONE', #40, #139, #26, .T. ) ;
#223 = EDGE_CURVE ( 'NONE', #17, #69, #232, .T. ) ;
#224 = ORIENTED_EDGE ( 'NONE', *, *, #164, .F. ) ;
#225 = CARTESIAN_POINT ( 'NONE',  ( -12.00000000000000000, 8.000000000000000000, 9.000000000000000000 ) ) ;
#226 = CARTESIAN_POINT ( 'NONE',  ( -12.00000000000000000, 8.000000000000000000, 9.000000000000000000 ) ) ;
#227 = APPROVAL_ROLE ( '' ) ;
#228 = ORIENTED_EDGE ( 'NONE', *, *, #51, .T. ) ;
#229 = PLANE ( 'NONE',  #125 ) ;
#230 = CARTESIAN_POINT ( 'NONE',  ( -12.00000000000000000, 8.000000000000000000, 9.000000000000000000 ) ) ;
#231 = AXIS2_PLACEMENT_3D ( 'NONE', #74, #202, #204 ) ;
#232 = LINE ( 'NONE', #150, #234 ) ;
#233 = PLANE ( 'NONE',  #32 ) ;
#234 = VECTOR ( 'NONE', #108, 1000.000000000000000 ) ;
#235 = CC_DESIGN_DATE_AND_TIME_ASSIGNMENT ( #131, #27, ( #75 ) ) ;
#236 = APPROVAL_ROLE ( '' ) ;
#237 = CC_DESIGN_PERSON_AND_ORGANIZATION_ASSIGNMENT ( #60, #39, ( #34 ) ) ;
ENDSEC;
END-ISO-10303-21;
