ISO-10303-21;
HEADER;
FILE_DESCRIPTION (( 'STEP AP203' ),
    '1' );
FILE_NAME ('FN-SOL-006_panel-back-rail-320x25x20_CONCEPT_R0.7.STEP',
    '2026-07-26T17:43:13',
    ( '' ),
    ( '' ),
    'SwSTEP 2.0',
    'SolidWorks 2022',
    '' );
FILE_SCHEMA (( 'CONFIG_CONTROL_DESIGN' ));
ENDSEC;

DATA;
#1 = DIRECTION ( 'NONE',  ( -0.000000000000000000, -0.000000000000000000, 1.000000000000000000 ) ) ;
#2 = CARTESIAN_POINT ( 'NONE',  ( -160.0000000000000000, 0.000000000000000000, -12.50000000000000000 ) ) ;
#3 = DIRECTION ( 'NONE',  ( 1.000000000000000000, 0.000000000000000000, 0.000000000000000000 ) ) ;
#4 = CC_DESIGN_DATE_AND_TIME_ASSIGNMENT ( #116, #230, ( #120 ) ) ;
#5 = LINE ( 'NONE', #60, #9 ) ;
#6 = PERSON_AND_ORGANIZATION ( #64, #168 ) ;
#7 = APPLICATION_PROTOCOL_DEFINITION ( 'international standard', 'config_control_design', 1994, #214 ) ;
#8 = APPROVAL_ROLE ( '' ) ;
#9 = VECTOR ( 'NONE', #41, 1000.000000000000000 ) ;
#10 = DATE_AND_TIME ( #201, #184 ) ;
#11 = ORIENTED_EDGE ( 'NONE', *, *, #146, .F. ) ;
#12 = ORIENTED_EDGE ( 'NONE', *, *, #89, .F. ) ;
#13 = VERTEX_POINT ( 'NONE', #233 ) ;
#14 = VECTOR ( 'NONE', #151, 1000.000000000000000 ) ;
#15 = AXIS2_PLACEMENT_3D ( 'NONE', #212, #197, #58 ) ;
#16 = EDGE_LOOP ( 'NONE', ( #109, #88, #190, #129 ) ) ;
#17 = DIRECTION ( 'NONE',  ( 0.000000000000000000, -0.000000000000000000, -1.000000000000000000 ) ) ;
#18 = EDGE_CURVE ( 'NONE', #72, #127, #74, .T. ) ;
#19 = EDGE_CURVE ( 'NONE', #170, #124, #206, .T. ) ;
#20 = PLANE ( 'NONE',  #15 ) ;
#21 = VECTOR ( 'NONE', #175, 1000.000000000000000 ) ;
#22 = PLANE ( 'NONE',  #70 ) ;
#23 = DIRECTION ( 'NONE',  ( 0.000000000000000000, 0.000000000000000000, -1.000000000000000000 ) ) ;
#24 = CARTESIAN_POINT ( 'NONE',  ( 160.0000000000000000, 20.00000000000000000, 12.50000000000000000 ) ) ;
#25 = PRODUCT_RELATED_PRODUCT_CATEGORY ( 'detail', '', ( #137 ) ) ;
#26 = PERSON_AND_ORGANIZATION_ROLE ( 'creator' ) ;
#27 = DESIGN_CONTEXT ( 'detailed design', #118, 'design' ) ;
#28 = APPROVAL_DATE_TIME ( #200, #223 ) ;
#29 = DATE_TIME_ROLE ( 'classification_date' ) ;
#30 = VERTEX_POINT ( 'NONE', #172 ) ;
#31 = VECTOR ( 'NONE', #83, 1000.000000000000000 ) ;
#32 = VERTEX_POINT ( 'NONE', #76 ) ;
#33 = APPROVAL ( #185, '未指定' ) ;
#34 = VERTEX_POINT ( 'NONE', #153 ) ;
#35 =( GEOMETRIC_REPRESENTATION_CONTEXT ( 3 ) GLOBAL_UNCERTAINTY_ASSIGNED_CONTEXT ( ( #160 ) ) GLOBAL_UNIT_ASSIGNED_CONTEXT ( ( #49, #86, #162 ) ) REPRESENTATION_CONTEXT ( 'NONE', 'WORKASPACE' ) );
#36 = VECTOR ( 'NONE', #136, 1000.000000000000000 ) ;
#37 = EDGE_CURVE ( 'NONE', #127, #13, #57, .T. ) ;
#38 = FACE_OUTER_BOUND ( 'NONE', #149, .T. ) ;
#39 = EDGE_CURVE ( 'NONE', #13, #124, #42, .T. ) ;
#40 = CARTESIAN_POINT ( 'NONE',  ( -160.0000000000000000, 20.00000000000000000, -12.50000000000000000 ) ) ;
#41 = DIRECTION ( 'NONE',  ( -0.000000000000000000, -1.000000000000000000, -0.000000000000000000 ) ) ;
#42 = LINE ( 'NONE', #43, #104 ) ;
#43 = CARTESIAN_POINT ( 'NONE',  ( 160.0000000000000000, 0.000000000000000000, 12.50000000000000000 ) ) ;
#44 = COORDINATED_UNIVERSAL_TIME_OFFSET ( 8, 0, .AHEAD. ) ;
#45 = PERSON_AND_ORGANIZATION_ROLE ( 'classification_officer' ) ;
#46 = APPROVAL_DATE_TIME ( #215, #186 ) ;
#47 = AXIS2_PLACEMENT_3D ( 'NONE', #61, #114, #91 ) ;
#48 = PRODUCT_DEFINITION_FORMATION_WITH_SPECIFIED_SOURCE ( '任何', '', #137, .NOT_KNOWN. ) ;
#49 =( LENGTH_UNIT ( ) NAMED_UNIT ( * ) SI_UNIT ( .MILLI., .METRE. ) );
#50 = CC_DESIGN_PERSON_AND_ORGANIZATION_ASSIGNMENT ( #121, #166, ( #120 ) ) ;
#51 = CC_DESIGN_SECURITY_CLASSIFICATION ( #71, ( #48 ) ) ;
#52 = ORIENTED_EDGE ( 'NONE', *, *, #147, .F. ) ;
#53 = ORIENTED_EDGE ( 'NONE', *, *, #55, .T. ) ;
#54 = DIRECTION ( 'NONE',  ( -0.000000000000000000, -0.000000000000000000, 1.000000000000000000 ) ) ;
#55 = EDGE_CURVE ( 'NONE', #30, #170, #213, .T. ) ;
#56 = CARTESIAN_POINT ( 'NONE',  ( 160.0000000000000000, 0.000000000000000000, -12.50000000000000000 ) ) ;
#57 = LINE ( 'NONE', #211, #36 ) ;
#58 = DIRECTION ( 'NONE',  ( 0.000000000000000000, 0.000000000000000000, 1.000000000000000000 ) ) ;
#59 = CC_DESIGN_DATE_AND_TIME_ASSIGNMENT ( #203, #29, ( #71 ) ) ;
#60 = CARTESIAN_POINT ( 'NONE',  ( -160.0000000000000000, 20.00000000000000000, -12.50000000000000000 ) ) ;
#61 = CARTESIAN_POINT ( 'NONE',  ( 0.000000000000000000, 20.00000000000000000, 0.000000000000000000 ) ) ;
#62 = APPROVAL_STATUS ( 'not_yet_approved' ) ;
#63 = ADVANCED_FACE ( 'NONE', ( #131 ), #113, .F. ) ;
#64 = PERSON ( '未指定', '未指定', '未指定', ('未指定'), ('未指定'), ('未指定') ) ;
#65 = PERSON_AND_ORGANIZATION ( #64, #168 ) ;
#66 = ADVANCED_FACE ( 'NONE', ( #94 ), #22, .T. ) ;
#67 = PERSON_AND_ORGANIZATION_ROLE ( 'design_owner' ) ;
#68 = APPROVAL_STATUS ( 'not_yet_approved' ) ;
#69 = CALENDAR_DATE ( 2026, 27, 7 ) ;
#70 = AXIS2_PLACEMENT_3D ( 'NONE', #174, #198, #17 ) ;
#71 = SECURITY_CLASSIFICATION ( '', '', #98 ) ;
#72 = VERTEX_POINT ( 'NONE', #222 ) ;
#73 = CC_DESIGN_PERSON_AND_ORGANIZATION_ASSIGNMENT ( #183, #45, ( #71 ) ) ;
#74 = LINE ( 'NONE', #218, #105 ) ;
#75 = ORIENTED_EDGE ( 'NONE', *, *, #19, .T. ) ;
#76 = CARTESIAN_POINT ( 'NONE',  ( -160.0000000000000000, 20.00000000000000000, -12.50000000000000000 ) ) ;
#77 = ORIENTED_EDGE ( 'NONE', *, *, #39, .F. ) ;
#78 = DIRECTION ( 'NONE',  ( 1.000000000000000000, 0.000000000000000000, -0.000000000000000000 ) ) ;
#79 = FACE_OUTER_BOUND ( 'NONE', #204, .T. ) ;
#80 = DIRECTION ( 'NONE',  ( -1.000000000000000000, -0.000000000000000000, -0.000000000000000000 ) ) ;
#81 = DIRECTION ( 'NONE',  ( 0.000000000000000000, 0.000000000000000000, 1.000000000000000000 ) ) ;
#82 = APPROVAL_PERSON_ORGANIZATION ( #119, #33, #8 ) ;
#83 = DIRECTION ( 'NONE',  ( -0.000000000000000000, -1.000000000000000000, -0.000000000000000000 ) ) ;
#84 = COORDINATED_UNIVERSAL_TIME_OFFSET ( 8, 0, .AHEAD. ) ;
#85 = CLOSED_SHELL ( 'NONE', ( #102, #232, #193, #155, #63, #66 ) ) ;
#86 =( NAMED_UNIT ( * ) PLANE_ANGLE_UNIT ( ) SI_UNIT ( $, .RADIAN. ) );
#87 = ORIENTED_EDGE ( 'NONE', *, *, #181, .F. ) ;
#88 = ORIENTED_EDGE ( 'NONE', *, *, #19, .F. ) ;
#89 = EDGE_CURVE ( 'NONE', #32, #72, #5, .T. ) ;
#90 = CARTESIAN_POINT ( 'NONE',  ( 160.0000000000000000, 20.00000000000000000, -12.50000000000000000 ) ) ;
#91 = DIRECTION ( 'NONE',  ( 0.000000000000000000, -0.000000000000000000, -1.000000000000000000 ) ) ;
#92 = CARTESIAN_POINT ( 'NONE',  ( -160.0000000000000000, 20.00000000000000000, 12.50000000000000000 ) ) ;
#93 = CARTESIAN_POINT ( 'NONE',  ( -160.0000000000000000, 20.00000000000000000, 12.50000000000000000 ) ) ;
#94 = FACE_OUTER_BOUND ( 'NONE', #220, .T. ) ;
#95 = AXIS2_PLACEMENT_3D ( 'NONE', #194, #81, #78 ) ;
#96 = PERSON_AND_ORGANIZATION ( #64, #168 ) ;
#97 = PERSON_AND_ORGANIZATION ( #64, #168 ) ;
#98 = SECURITY_CLASSIFICATION_LEVEL ( 'unclassified' ) ;
#99 = CC_DESIGN_PERSON_AND_ORGANIZATION_ASSIGNMENT ( #96, #26, ( #48 ) ) ;
#100 = CC_DESIGN_APPROVAL ( #33, ( #71 ) ) ;
#101 = COORDINATED_UNIVERSAL_TIME_OFFSET ( 8, 0, .AHEAD. ) ;
#102 = ADVANCED_FACE ( 'NONE', ( #209 ), #196, .F. ) ;
#103 = ORIENTED_EDGE ( 'NONE', *, *, #132, .F. ) ;
#104 = VECTOR ( 'NONE', #111, 1000.000000000000000 ) ;
#105 = VECTOR ( 'NONE', #54, 1000.000000000000000 ) ;
#106 = EDGE_CURVE ( 'NONE', #34, #127, #179, .T. ) ;
#107 = EDGE_CURVE ( 'NONE', #170, #32, #161, .T. ) ;
#108 = ADVANCED_BREP_SHAPE_REPRESENTATION ( 'FN-SOL-006_panel-back-rail-320x25x20_CONCEPT_R0.7', ( #231, #199 ), #35 ) ;
#109 = ORIENTED_EDGE ( 'NONE', *, *, #39, .T. ) ;
#110 = LOCAL_TIME ( 1, 43, 13.00000000000000000, #143 ) ;
#111 = DIRECTION ( 'NONE',  ( 0.000000000000000000, 0.000000000000000000, -1.000000000000000000 ) ) ;
#112 = LINE ( 'NONE', #237, #163 ) ;
#113 = PLANE ( 'NONE',  #47 ) ;
#114 = DIRECTION ( 'NONE',  ( 0.000000000000000000, -1.000000000000000000, 0.000000000000000000 ) ) ;
#115 = DIRECTION ( 'NONE',  ( 0.000000000000000000, 0.000000000000000000, -1.000000000000000000 ) ) ;
#116 = DATE_AND_TIME ( #122, #205 ) ;
#117 = CC_DESIGN_APPROVAL ( #186, ( #120 ) ) ;
#118 = APPLICATION_CONTEXT ( 'configuration controlled 3d designs of mechanical parts and assemblies' ) ;
#119 = PERSON_AND_ORGANIZATION ( #64, #168 ) ;
#120 = PRODUCT_DEFINITION ( '未知', '', #48, #27 ) ;
#121 = PERSON_AND_ORGANIZATION ( #64, #168 ) ;
#122 = CALENDAR_DATE ( 2026, 27, 7 ) ;
#123 = VECTOR ( 'NONE', #1, 1000.000000000000000 ) ;
#124 = VERTEX_POINT ( 'NONE', #56 ) ;
#125 = VECTOR ( 'NONE', #80, 1000.000000000000000 ) ;
#126 = VECTOR ( 'NONE', #3, 1000.000000000000000 ) ;
#127 = VERTEX_POINT ( 'NONE', #177 ) ;
#128 = ORIENTED_EDGE ( 'NONE', *, *, #37, .T. ) ;
#129 = ORIENTED_EDGE ( 'NONE', *, *, #146, .T. ) ;
#130 = DIRECTION ( 'NONE',  ( 0.000000000000000000, 0.000000000000000000, -1.000000000000000000 ) ) ;
#131 = FACE_OUTER_BOUND ( 'NONE', #154, .T. ) ;
#132 = EDGE_CURVE ( 'NONE', #124, #72, #176, .T. ) ;
#133 = CARTESIAN_POINT ( 'NONE',  ( -160.0000000000000000, 20.00000000000000000, 12.50000000000000000 ) ) ;
#134 = PLANE ( 'NONE',  #95 ) ;
#135 = CC_DESIGN_PERSON_AND_ORGANIZATION_ASSIGNMENT ( #65, #67, ( #137 ) ) ;
#136 = DIRECTION ( 'NONE',  ( 1.000000000000000000, 0.000000000000000000, 0.000000000000000000 ) ) ;
#137 = PRODUCT ( 'FN-SOL-006_panel-back-rail-320x25x20_CONCEPT_R0.7', 'FN-SOL-006_panel-back-rail-320x25x20_CONCEPT_R0.7', '', ( #227 ) ) ;
#138 = APPROVAL_ROLE ( '' ) ;
#139 = VECTOR ( 'NONE', #115, 1000.000000000000000 ) ;
#140 = PERSON_AND_ORGANIZATION_ROLE ( 'design_supplier' ) ;
#141 = PRODUCT_DEFINITION_SHAPE ( 'NONE', 'NONE',  #120 ) ;
#142 = CALENDAR_DATE ( 2026, 27, 7 ) ;
#143 = COORDINATED_UNIVERSAL_TIME_OFFSET ( 8, 0, .AHEAD. ) ;
#144 = APPROVAL_PERSON_ORGANIZATION ( #164, #223, #202 ) ;
#145 = COORDINATED_UNIVERSAL_TIME_OFFSET ( 8, 0, .AHEAD. ) ;
#146 = EDGE_CURVE ( 'NONE', #30, #13, #112, .T. ) ;
#147 = EDGE_CURVE ( 'NONE', #32, #34, #158, .T. ) ;
#148 = ORIENTED_EDGE ( 'NONE', *, *, #106, .F. ) ;
#149 = EDGE_LOOP ( 'NONE', ( #173, #12, #188, #75 ) ) ;
#150 = CC_DESIGN_PERSON_AND_ORGANIZATION_ASSIGNMENT ( #6, #140, ( #48 ) ) ;
#151 = DIRECTION ( 'NONE',  ( -0.000000000000000000, -1.000000000000000000, -0.000000000000000000 ) ) ;
#152 = APPROVAL_DATE_TIME ( #10, #33 ) ;
#153 = CARTESIAN_POINT ( 'NONE',  ( -160.0000000000000000, 20.00000000000000000, 12.50000000000000000 ) ) ;
#154 = EDGE_LOOP ( 'NONE', ( #171, #235, #53, #189 ) ) ;
#155 = ADVANCED_FACE ( 'NONE', ( #38 ), #134, .F. ) ;
#156 = LINE ( 'NONE', #157, #126 ) ;
#157 = CARTESIAN_POINT ( 'NONE',  ( -160.0000000000000000, 20.00000000000000000, 12.50000000000000000 ) ) ;
#158 = LINE ( 'NONE', #93, #123 ) ;
#159 = CARTESIAN_POINT ( 'NONE',  ( -160.0000000000000000, 20.00000000000000000, 12.50000000000000000 ) ) ;
#160 = UNCERTAINTY_MEASURE_WITH_UNIT (LENGTH_MEASURE( 1.000000000000000082E-05 ), #49, 'distance_accuracy_value', 'NONE');
#161 = LINE ( 'NONE', #40, #125 ) ;
#162 =( NAMED_UNIT ( * ) SI_UNIT ( $, .STERADIAN. ) SOLID_ANGLE_UNIT ( ) );
#163 = VECTOR ( 'NONE', #195, 1000.000000000000000 ) ;
#164 = PERSON_AND_ORGANIZATION ( #64, #168 ) ;
#165 = APPROVAL_PERSON_ORGANIZATION ( #97, #186, #138 ) ;
#166 = PERSON_AND_ORGANIZATION_ROLE ( 'creator' ) ;
#167 = APPLICATION_PROTOCOL_DEFINITION ( 'international standard', 'config_control_design', 1994, #118 ) ;
#168 = ORGANIZATION ( '未指定', '未指定', '' ) ;
#169 = ORIENTED_EDGE ( 'NONE', *, *, #106, .T. ) ;
#170 = VERTEX_POINT ( 'NONE', #90 ) ;
#171 = ORIENTED_EDGE ( 'NONE', *, *, #147, .T. ) ;
#172 = CARTESIAN_POINT ( 'NONE',  ( 160.0000000000000000, 20.00000000000000000, 12.50000000000000000 ) ) ;
#173 = ORIENTED_EDGE ( 'NONE', *, *, #132, .T. ) ;
#174 = CARTESIAN_POINT ( 'NONE',  ( 0.000000000000000000, 0.000000000000000000, 0.000000000000000000 ) ) ;
#175 = DIRECTION ( 'NONE',  ( -1.000000000000000000, -0.000000000000000000, -0.000000000000000000 ) ) ;
#176 = LINE ( 'NONE', #2, #21 ) ;
#177 = CARTESIAN_POINT ( 'NONE',  ( -160.0000000000000000, 0.000000000000000000, 12.50000000000000000 ) ) ;
#178 = AXIS2_PLACEMENT_3D ( 'NONE', #159, #23, #226 ) ;
#179 = LINE ( 'NONE', #92, #31 ) ;
#180 = DIRECTION ( 'NONE',  ( 1.000000000000000000, 0.000000000000000000, 0.000000000000000000 ) ) ;
#181 = EDGE_CURVE ( 'NONE', #34, #30, #156, .T. ) ;
#182 = DIRECTION ( 'NONE',  ( 0.000000000000000000, 0.000000000000000000, 1.000000000000000000 ) ) ;
#183 = PERSON_AND_ORGANIZATION ( #64, #168 ) ;
#184 = LOCAL_TIME ( 1, 43, 13.00000000000000000, #145 ) ;
#185 = APPROVAL_STATUS ( 'not_yet_approved' ) ;
#186 = APPROVAL ( #62, '未指定' ) ;
#187 = AXIS2_PLACEMENT_3D ( 'NONE', #133, #210, #130 ) ;
#188 = ORIENTED_EDGE ( 'NONE', *, *, #107, .F. ) ;
#189 = ORIENTED_EDGE ( 'NONE', *, *, #107, .T. ) ;
#190 = ORIENTED_EDGE ( 'NONE', *, *, #55, .F. ) ;
#191 = ORIENTED_EDGE ( 'NONE', *, *, #18, .F. ) ;
#192 = CC_DESIGN_APPROVAL ( #223, ( #48 ) ) ;
#193 = ADVANCED_FACE ( 'NONE', ( #225 ), #20, .F. ) ;
#194 = CARTESIAN_POINT ( 'NONE',  ( -160.0000000000000000, 20.00000000000000000, -12.50000000000000000 ) ) ;
#195 = DIRECTION ( 'NONE',  ( -0.000000000000000000, -1.000000000000000000, -0.000000000000000000 ) ) ;
#196 = PLANE ( 'NONE',  #187 ) ;
#197 = DIRECTION ( 'NONE',  ( -1.000000000000000000, 0.000000000000000000, 0.000000000000000000 ) ) ;
#198 = DIRECTION ( 'NONE',  ( 0.000000000000000000, -1.000000000000000000, 0.000000000000000000 ) ) ;
#199 = AXIS2_PLACEMENT_3D ( 'NONE', #228, #182, #180 ) ;
#200 = DATE_AND_TIME ( #229, #110 ) ;
#201 = CALENDAR_DATE ( 2026, 27, 7 ) ;
#202 = APPROVAL_ROLE ( '' ) ;
#203 = DATE_AND_TIME ( #69, #208 ) ;
#204 = EDGE_LOOP ( 'NONE', ( #128, #11, #87, #169 ) ) ;
#205 = LOCAL_TIME ( 1, 43, 13.00000000000000000, #44 ) ;
#206 = LINE ( 'NONE', #234, #14 ) ;
#207 = SHAPE_DEFINITION_REPRESENTATION ( #141, #108 ) ;
#208 = LOCAL_TIME ( 1, 43, 13.00000000000000000, #101 ) ;
#209 = FACE_OUTER_BOUND ( 'NONE', #216, .T. ) ;
#210 = DIRECTION ( 'NONE',  ( 1.000000000000000000, -0.000000000000000000, 0.000000000000000000 ) ) ;
#211 = CARTESIAN_POINT ( 'NONE',  ( -160.0000000000000000, 0.000000000000000000, 12.50000000000000000 ) ) ;
#212 = CARTESIAN_POINT ( 'NONE',  ( 160.0000000000000000, 20.00000000000000000, 12.50000000000000000 ) ) ;
#213 = LINE ( 'NONE', #24, #139 ) ;
#214 = APPLICATION_CONTEXT ( 'configuration controlled 3d designs of mechanical parts and assemblies' ) ;
#215 = DATE_AND_TIME ( #142, #217 ) ;
#216 = EDGE_LOOP ( 'NONE', ( #236, #148, #52, #219 ) ) ;
#217 = LOCAL_TIME ( 1, 43, 13.00000000000000000, #84 ) ;
#218 = CARTESIAN_POINT ( 'NONE',  ( -160.0000000000000000, 0.000000000000000000, 12.50000000000000000 ) ) ;
#219 = ORIENTED_EDGE ( 'NONE', *, *, #89, .T. ) ;
#220 = EDGE_LOOP ( 'NONE', ( #191, #103, #77, #221 ) ) ;
#221 = ORIENTED_EDGE ( 'NONE', *, *, #37, .F. ) ;
#222 = CARTESIAN_POINT ( 'NONE',  ( -160.0000000000000000, 0.000000000000000000, -12.50000000000000000 ) ) ;
#223 = APPROVAL ( #68, '未指定' ) ;
#224 = PLANE ( 'NONE',  #178 ) ;
#225 = FACE_OUTER_BOUND ( 'NONE', #16, .T. ) ;
#226 = DIRECTION ( 'NONE',  ( -1.000000000000000000, 0.000000000000000000, -0.000000000000000000 ) ) ;
#227 = MECHANICAL_CONTEXT ( 'NONE', #214, 'mechanical' ) ;
#228 = CARTESIAN_POINT ( 'NONE',  ( 0.000000000000000000, 0.000000000000000000, 0.000000000000000000 ) ) ;
#229 = CALENDAR_DATE ( 2026, 27, 7 ) ;
#230 = DATE_TIME_ROLE ( 'creation_date' ) ;
#231 = MANIFOLD_SOLID_BREP ( '凸台-拉伸1', #85 ) ;
#232 = ADVANCED_FACE ( 'NONE', ( #79 ), #224, .F. ) ;
#233 = CARTESIAN_POINT ( 'NONE',  ( 160.0000000000000000, 0.000000000000000000, 12.50000000000000000 ) ) ;
#234 = CARTESIAN_POINT ( 'NONE',  ( 160.0000000000000000, 20.00000000000000000, -12.50000000000000000 ) ) ;
#235 = ORIENTED_EDGE ( 'NONE', *, *, #181, .T. ) ;
#236 = ORIENTED_EDGE ( 'NONE', *, *, #18, .T. ) ;
#237 = CARTESIAN_POINT ( 'NONE',  ( 160.0000000000000000, 20.00000000000000000, 12.50000000000000000 ) ) ;
ENDSEC;
END-ISO-10303-21;
