ISO-10303-21;
HEADER;
FILE_DESCRIPTION (( 'STEP AP203' ),
    '1' );
FILE_NAME ('FN-BAT-003_battery-envelope_USER-MEASURED_R0.5.STEP',
    '2026-07-26T13:51:25',
    ( '' ),
    ( '' ),
    'SwSTEP 2.0',
    'SolidWorks 2022',
    '' );
FILE_SCHEMA (( 'CONFIG_CONTROL_DESIGN' ));
ENDSEC;

DATA;
#1 = CLOSED_SHELL ( 'NONE', ( #162, #110, #72, #131, #190, #223 ) ) ;
#2 = LINE ( 'NONE', #234, #148 ) ;
#3 = LOCAL_TIME ( 21, 51, 25.00000000000000000, #98 ) ;
#4 = VERTEX_POINT ( 'NONE', #155 ) ;
#5 = ORIENTED_EDGE ( 'NONE', *, *, #66, .F. ) ;
#6 = EDGE_LOOP ( 'NONE', ( #187, #134, #76, #154 ) ) ;
#7 = APPROVAL ( #170, '未指定' ) ;
#8 = COORDINATED_UNIVERSAL_TIME_OFFSET ( 8, 0, .AHEAD. ) ;
#9 = CARTESIAN_POINT ( 'NONE',  ( -33.00000000000000000, 40.00000000000000000, 30.50000000000000000 ) ) ;
#10 = APPROVAL_PERSON_ORGANIZATION ( #156, #7, #31 ) ;
#11 = DATE_AND_TIME ( #117, #64 ) ;
#12 = LINE ( 'NONE', #80, #57 ) ;
#13 = ORIENTED_EDGE ( 'NONE', *, *, #200, .T. ) ;
#14 =( GEOMETRIC_REPRESENTATION_CONTEXT ( 3 ) GLOBAL_UNCERTAINTY_ASSIGNED_CONTEXT ( ( #61 ) ) GLOBAL_UNIT_ASSIGNED_CONTEXT ( ( #180, #85, #84 ) ) REPRESENTATION_CONTEXT ( 'NONE', 'WORKASPACE' ) );
#15 = ORIENTED_EDGE ( 'NONE', *, *, #114, .T. ) ;
#16 = LINE ( 'NONE', #35, #215 ) ;
#17 = DIRECTION ( 'NONE',  ( 1.000000000000000000, -0.000000000000000000, 0.000000000000000000 ) ) ;
#18 = DIRECTION ( 'NONE',  ( -0.000000000000000000, -1.000000000000000000, -0.000000000000000000 ) ) ;
#19 = CARTESIAN_POINT ( 'NONE',  ( -33.00000000000000000, 0.000000000000000000, -30.50000000000000000 ) ) ;
#20 = ADVANCED_BREP_SHAPE_REPRESENTATION ( 'FN-BAT-003_battery-envelope_USER-MEASURED_R0.5', ( #133, #159 ), #14 ) ;
#21 = ORIENTED_EDGE ( 'NONE', *, *, #132, .T. ) ;
#22 = ORIENTED_EDGE ( 'NONE', *, *, #39, .T. ) ;
#23 = APPROVAL ( #186, '未指定' ) ;
#24 = APPROVAL_DATE_TIME ( #189, #228 ) ;
#25 = CARTESIAN_POINT ( 'NONE',  ( -33.00000000000000000, 0.000000000000000000, -30.50000000000000000 ) ) ;
#26 = COORDINATED_UNIVERSAL_TIME_OFFSET ( 8, 0, .AHEAD. ) ;
#27 = CARTESIAN_POINT ( 'NONE',  ( -33.00000000000000000, 40.00000000000000000, 30.50000000000000000 ) ) ;
#28 = CARTESIAN_POINT ( 'NONE',  ( -33.00000000000000000, 40.00000000000000000, 30.50000000000000000 ) ) ;
#29 = ORIENTED_EDGE ( 'NONE', *, *, #146, .T. ) ;
#30 = EDGE_CURVE ( 'NONE', #108, #185, #59, .T. ) ;
#31 = APPROVAL_ROLE ( '' ) ;
#32 = SECURITY_CLASSIFICATION ( '', '', #112 ) ;
#33 = FACE_OUTER_BOUND ( 'NONE', #149, .T. ) ;
#34 = PERSON_AND_ORGANIZATION_ROLE ( 'design_owner' ) ;
#35 = CARTESIAN_POINT ( 'NONE',  ( -33.00000000000000000, 0.000000000000000000, 30.50000000000000000 ) ) ;
#36 = PRODUCT_DEFINITION_FORMATION_WITH_SPECIFIED_SOURCE ( '任何', '', #124, .NOT_KNOWN. ) ;
#37 = VERTEX_POINT ( 'NONE', #193 ) ;
#38 = VECTOR ( 'NONE', #115, 1000.000000000000000 ) ;
#39 = EDGE_CURVE ( 'NONE', #4, #37, #214, .T. ) ;
#40 = ORIENTED_EDGE ( 'NONE', *, *, #66, .T. ) ;
#41 = CC_DESIGN_APPROVAL ( #228, ( #36 ) ) ;
#42 = PERSON_AND_ORGANIZATION ( #147, #207 ) ;
#43 = ORIENTED_EDGE ( 'NONE', *, *, #127, .T. ) ;
#44 = VECTOR ( 'NONE', #230, 1000.000000000000000 ) ;
#45 = DIRECTION ( 'NONE',  ( 1.000000000000000000, 0.000000000000000000, -0.000000000000000000 ) ) ;
#46 = DIRECTION ( 'NONE',  ( 0.000000000000000000, 0.000000000000000000, -1.000000000000000000 ) ) ;
#47 = CC_DESIGN_DATE_AND_TIME_ASSIGNMENT ( #92, #164, ( #235 ) ) ;
#48 = AXIS2_PLACEMENT_3D ( 'NONE', #51, #17, #105 ) ;
#49 = CC_DESIGN_APPROVAL ( #7, ( #32 ) ) ;
#50 = DIRECTION ( 'NONE',  ( 1.000000000000000000, 0.000000000000000000, 0.000000000000000000 ) ) ;
#51 = CARTESIAN_POINT ( 'NONE',  ( -33.00000000000000000, 40.00000000000000000, 30.50000000000000000 ) ) ;
#52 = PERSON_AND_ORGANIZATION ( #147, #207 ) ;
#53 = VECTOR ( 'NONE', #168, 1000.000000000000000 ) ;
#54 = CARTESIAN_POINT ( 'NONE',  ( -33.00000000000000000, 40.00000000000000000, -30.50000000000000000 ) ) ;
#55 = ORIENTED_EDGE ( 'NONE', *, *, #127, .F. ) ;
#56 = CALENDAR_DATE ( 2026, 26, 7 ) ;
#57 = VECTOR ( 'NONE', #212, 1000.000000000000000 ) ;
#58 = PERSON_AND_ORGANIZATION_ROLE ( 'design_supplier' ) ;
#59 = LINE ( 'NONE', #209, #38 ) ;
#60 = CALENDAR_DATE ( 2026, 26, 7 ) ;
#61 = UNCERTAINTY_MEASURE_WITH_UNIT (LENGTH_MEASURE( 1.000000000000000082E-05 ), #180, 'distance_accuracy_value', 'NONE');
#62 = EDGE_LOOP ( 'NONE', ( #206, #43, #153, #78 ) ) ;
#63 = CARTESIAN_POINT ( 'NONE',  ( -33.00000000000000000, 0.000000000000000000, 30.50000000000000000 ) ) ;
#64 = LOCAL_TIME ( 21, 51, 25.00000000000000000, #26 ) ;
#65 = CARTESIAN_POINT ( 'NONE',  ( 33.00000000000000000, 0.000000000000000000, -30.50000000000000000 ) ) ;
#66 = EDGE_CURVE ( 'NONE', #37, #91, #119, .T. ) ;
#67 = FACE_OUTER_BOUND ( 'NONE', #62, .T. ) ;
#68 = EDGE_CURVE ( 'NONE', #129, #125, #113, .T. ) ;
#69 = DIRECTION ( 'NONE',  ( 0.000000000000000000, 0.000000000000000000, 1.000000000000000000 ) ) ;
#70 = CARTESIAN_POINT ( 'NONE',  ( -33.00000000000000000, 40.00000000000000000, -30.50000000000000000 ) ) ;
#71 = EDGE_LOOP ( 'NONE', ( #22, #171, #55, #15 ) ) ;
#72 = ADVANCED_FACE ( 'NONE', ( #118 ), #233, .F. ) ;
#73 = EDGE_LOOP ( 'NONE', ( #40, #222, #136, #29 ) ) ;
#74 = CALENDAR_DATE ( 2026, 26, 7 ) ;
#75 = LOCAL_TIME ( 21, 51, 25.00000000000000000, #163 ) ;
#76 = ORIENTED_EDGE ( 'NONE', *, *, #68, .F. ) ;
#77 = APPROVAL_DATE_TIME ( #188, #23 ) ;
#78 = ORIENTED_EDGE ( 'NONE', *, *, #182, .T. ) ;
#79 = CC_DESIGN_PERSON_AND_ORGANIZATION_ASSIGNMENT ( #42, #109, ( #235 ) ) ;
#80 = CARTESIAN_POINT ( 'NONE',  ( -33.00000000000000000, 40.00000000000000000, 30.50000000000000000 ) ) ;
#81 = FACE_OUTER_BOUND ( 'NONE', #225, .T. ) ;
#82 = AXIS2_PLACEMENT_3D ( 'NONE', #231, #141, #45 ) ;
#83 = CARTESIAN_POINT ( 'NONE',  ( 33.00000000000000000, 40.00000000000000000, 30.50000000000000000 ) ) ;
#84 =( NAMED_UNIT ( * ) SI_UNIT ( $, .STERADIAN. ) SOLID_ANGLE_UNIT ( ) );
#85 =( NAMED_UNIT ( * ) PLANE_ANGLE_UNIT ( ) SI_UNIT ( $, .RADIAN. ) );
#86 = DIRECTION ( 'NONE',  ( -0.000000000000000000, -1.000000000000000000, -0.000000000000000000 ) ) ;
#87 = DIRECTION ( 'NONE',  ( 0.000000000000000000, -0.000000000000000000, -1.000000000000000000 ) ) ;
#88 = PLANE ( 'NONE',  #169 ) ;
#89 = CC_DESIGN_DATE_AND_TIME_ASSIGNMENT ( #172, #191, ( #32 ) ) ;
#90 = ORIENTED_EDGE ( 'NONE', *, *, #39, .F. ) ;
#91 = VERTEX_POINT ( 'NONE', #65 ) ;
#92 = DATE_AND_TIME ( #56, #120 ) ;
#93 = VECTOR ( 'NONE', #95, 1000.000000000000000 ) ;
#94 = CC_DESIGN_SECURITY_CLASSIFICATION ( #32, ( #36 ) ) ;
#95 = DIRECTION ( 'NONE',  ( 0.000000000000000000, 0.000000000000000000, -1.000000000000000000 ) ) ;
#96 = DIRECTION ( 'NONE',  ( -1.000000000000000000, 0.000000000000000000, -0.000000000000000000 ) ) ;
#97 = CARTESIAN_POINT ( 'NONE',  ( -33.00000000000000000, 40.00000000000000000, -30.50000000000000000 ) ) ;
#98 = COORDINATED_UNIVERSAL_TIME_OFFSET ( 8, 0, .AHEAD. ) ;
#99 = DIRECTION ( 'NONE',  ( -0.000000000000000000, -0.000000000000000000, 1.000000000000000000 ) ) ;
#100 = DIRECTION ( 'NONE',  ( 1.000000000000000000, 0.000000000000000000, 0.000000000000000000 ) ) ;
#101 = CC_DESIGN_APPROVAL ( #23, ( #235 ) ) ;
#102 = APPLICATION_PROTOCOL_DEFINITION ( 'international standard', 'config_control_design', 1994, #218 ) ;
#103 = CC_DESIGN_PERSON_AND_ORGANIZATION_ASSIGNMENT ( #167, #128, ( #36 ) ) ;
#104 = CARTESIAN_POINT ( 'NONE',  ( 33.00000000000000000, 40.00000000000000000, -30.50000000000000000 ) ) ;
#105 = DIRECTION ( 'NONE',  ( 0.000000000000000000, 0.000000000000000000, -1.000000000000000000 ) ) ;
#106 = DIRECTION ( 'NONE',  ( -0.000000000000000000, -0.000000000000000000, 1.000000000000000000 ) ) ;
#107 = DIRECTION ( 'NONE',  ( 0.000000000000000000, -0.000000000000000000, -1.000000000000000000 ) ) ;
#108 = VERTEX_POINT ( 'NONE', #208 ) ;
#109 = PERSON_AND_ORGANIZATION_ROLE ( 'creator' ) ;
#110 = ADVANCED_FACE ( 'NONE', ( #192 ), #213, .F. ) ;
#111 = APPROVAL_ROLE ( '' ) ;
#112 = SECURITY_CLASSIFICATION_LEVEL ( 'unclassified' ) ;
#113 = LINE ( 'NONE', #9, #173 ) ;
#114 = EDGE_CURVE ( 'NONE', #125, #4, #12, .T. ) ;
#115 = DIRECTION ( 'NONE',  ( 0.000000000000000000, 0.000000000000000000, -1.000000000000000000 ) ) ;
#116 = ORIENTED_EDGE ( 'NONE', *, *, #132, .F. ) ;
#117 = CALENDAR_DATE ( 2026, 26, 7 ) ;
#118 = FACE_OUTER_BOUND ( 'NONE', #73, .T. ) ;
#119 = LINE ( 'NONE', #138, #93 ) ;
#120 = LOCAL_TIME ( 21, 51, 25.00000000000000000, #184 ) ;
#121 = CARTESIAN_POINT ( 'NONE',  ( 0.000000000000000000, 0.000000000000000000, 0.000000000000000000 ) ) ;
#122 = PLANE ( 'NONE',  #48 ) ;
#123 = VECTOR ( 'NONE', #201, 1000.000000000000000 ) ;
#124 = PRODUCT ( 'FN-BAT-003_battery-envelope_USER-MEASURED_R0.5', 'FN-BAT-003_battery-envelope_USER-MEASURED_R0.5', '', ( #157 ) ) ;
#125 = VERTEX_POINT ( 'NONE', #152 ) ;
#126 = ORIENTED_EDGE ( 'NONE', *, *, #227, .F. ) ;
#127 = EDGE_CURVE ( 'NONE', #125, #108, #196, .T. ) ;
#128 = PERSON_AND_ORGANIZATION_ROLE ( 'creator' ) ;
#129 = VERTEX_POINT ( 'NONE', #97 ) ;
#130 = APPROVAL_ROLE ( '' ) ;
#131 = ADVANCED_FACE ( 'NONE', ( #81 ), #175, .F. ) ;
#132 = EDGE_CURVE ( 'NONE', #91, #205, #194, .T. ) ;
#133 = MANIFOLD_SOLID_BREP ( '凸台-拉伸1', #1 ) ;
#134 = ORIENTED_EDGE ( 'NONE', *, *, #114, .F. ) ;
#135 = DIRECTION ( 'NONE',  ( -1.000000000000000000, 0.000000000000000000, 0.000000000000000000 ) ) ;
#136 = ORIENTED_EDGE ( 'NONE', *, *, #30, .F. ) ;
#137 = AXIS2_PLACEMENT_3D ( 'NONE', #237, #177, #107 ) ;
#138 = CARTESIAN_POINT ( 'NONE',  ( 33.00000000000000000, 0.000000000000000000, 30.50000000000000000 ) ) ;
#139 = DESIGN_CONTEXT ( 'detailed design', #179, 'design' ) ;
#140 = DIRECTION ( 'NONE',  ( 0.000000000000000000, 0.000000000000000000, 1.000000000000000000 ) ) ;
#141 = DIRECTION ( 'NONE',  ( 0.000000000000000000, 0.000000000000000000, 1.000000000000000000 ) ) ;
#142 = CC_DESIGN_PERSON_AND_ORGANIZATION_ASSIGNMENT ( #199, #34, ( #124 ) ) ;
#143 = APPROVAL_DATE_TIME ( #11, #7 ) ;
#144 = LINE ( 'NONE', #54, #123 ) ;
#145 = DIRECTION ( 'NONE',  ( -0.000000000000000000, -1.000000000000000000, -0.000000000000000000 ) ) ;
#146 = EDGE_CURVE ( 'NONE', #108, #37, #181, .T. ) ;
#147 = PERSON ( '未指定', '未指定', '未指定', ('未指定'), ('未指定'), ('未指定') ) ;
#148 = VECTOR ( 'NONE', #86, 1000.000000000000000 ) ;
#149 = EDGE_LOOP ( 'NONE', ( #126, #116, #5, #90 ) ) ;
#150 = PERSON_AND_ORGANIZATION ( #147, #207 ) ;
#151 = VECTOR ( 'NONE', #145, 1000.000000000000000 ) ;
#152 = CARTESIAN_POINT ( 'NONE',  ( -33.00000000000000000, 40.00000000000000000, 30.50000000000000000 ) ) ;
#153 = ORIENTED_EDGE ( 'NONE', *, *, #30, .T. ) ;
#154 = ORIENTED_EDGE ( 'NONE', *, *, #158, .T. ) ;
#155 = CARTESIAN_POINT ( 'NONE',  ( -33.00000000000000000, 0.000000000000000000, 30.50000000000000000 ) ) ;
#156 = PERSON_AND_ORGANIZATION ( #147, #207 ) ;
#157 = MECHANICAL_CONTEXT ( 'NONE', #218, 'mechanical' ) ;
#158 = EDGE_CURVE ( 'NONE', #129, #205, #217, .T. ) ;
#159 = AXIS2_PLACEMENT_3D ( 'NONE', #216, #69, #50 ) ;
#160 = CARTESIAN_POINT ( 'NONE',  ( 33.00000000000000000, 40.00000000000000000, 30.50000000000000000 ) ) ;
#161 = AXIS2_PLACEMENT_3D ( 'NONE', #27, #46, #96 ) ;
#162 = ADVANCED_FACE ( 'NONE', ( #221 ), #122, .F. ) ;
#163 = COORDINATED_UNIVERSAL_TIME_OFFSET ( 8, 0, .AHEAD. ) ;
#164 = DATE_TIME_ROLE ( 'creation_date' ) ;
#165 = ORIENTED_EDGE ( 'NONE', *, *, #182, .F. ) ;
#166 = CALENDAR_DATE ( 2026, 26, 7 ) ;
#167 = PERSON_AND_ORGANIZATION ( #147, #207 ) ;
#168 = DIRECTION ( 'NONE',  ( -1.000000000000000000, -0.000000000000000000, -0.000000000000000000 ) ) ;
#169 = AXIS2_PLACEMENT_3D ( 'NONE', #121, #219, #87 ) ;
#170 = APPROVAL_STATUS ( 'not_yet_approved' ) ;
#171 = ORIENTED_EDGE ( 'NONE', *, *, #146, .F. ) ;
#172 = DATE_AND_TIME ( #60, #3 ) ;
#173 = VECTOR ( 'NONE', #99, 1000.000000000000000 ) ;
#174 = CC_DESIGN_PERSON_AND_ORGANIZATION_ASSIGNMENT ( #211, #195, ( #32 ) ) ;
#175 = PLANE ( 'NONE',  #82 ) ;
#176 = SHAPE_DEFINITION_REPRESENTATION ( #183, #20 ) ;
#177 = DIRECTION ( 'NONE',  ( 0.000000000000000000, -1.000000000000000000, 0.000000000000000000 ) ) ;
#178 = APPLICATION_PROTOCOL_DEFINITION ( 'international standard', 'config_control_design', 1994, #179 ) ;
#179 = APPLICATION_CONTEXT ( 'configuration controlled 3d designs of mechanical parts and assemblies' ) ;
#180 =( LENGTH_UNIT ( ) NAMED_UNIT ( * ) SI_UNIT ( .MILLI., .METRE. ) );
#181 = LINE ( 'NONE', #160, #210 ) ;
#182 = EDGE_CURVE ( 'NONE', #185, #129, #144, .T. ) ;
#183 = PRODUCT_DEFINITION_SHAPE ( 'NONE', 'NONE',  #235 ) ;
#184 = COORDINATED_UNIVERSAL_TIME_OFFSET ( 8, 0, .AHEAD. ) ;
#185 = VERTEX_POINT ( 'NONE', #104 ) ;
#186 = APPROVAL_STATUS ( 'not_yet_approved' ) ;
#187 = ORIENTED_EDGE ( 'NONE', *, *, #227, .T. ) ;
#188 = DATE_AND_TIME ( #166, #75 ) ;
#189 = DATE_AND_TIME ( #74, #236 ) ;
#190 = ADVANCED_FACE ( 'NONE', ( #67 ), #198, .F. ) ;
#191 = DATE_TIME_ROLE ( 'classification_date' ) ;
#192 = FACE_OUTER_BOUND ( 'NONE', #71, .T. ) ;
#193 = CARTESIAN_POINT ( 'NONE',  ( 33.00000000000000000, 0.000000000000000000, 30.50000000000000000 ) ) ;
#194 = LINE ( 'NONE', #25, #53 ) ;
#195 = PERSON_AND_ORGANIZATION_ROLE ( 'classification_officer' ) ;
#196 = LINE ( 'NONE', #28, #197 ) ;
#197 = VECTOR ( 'NONE', #100, 1000.000000000000000 ) ;
#198 = PLANE ( 'NONE',  #137 ) ;
#199 = PERSON_AND_ORGANIZATION ( #147, #207 ) ;
#200 = EDGE_CURVE ( 'NONE', #185, #91, #2, .T. ) ;
#201 = DIRECTION ( 'NONE',  ( -1.000000000000000000, -0.000000000000000000, -0.000000000000000000 ) ) ;
#202 = APPROVAL_PERSON_ORGANIZATION ( #52, #23, #130 ) ;
#203 = PRODUCT_RELATED_PRODUCT_CATEGORY ( 'detail', '', ( #124 ) ) ;
#204 = ORIENTED_EDGE ( 'NONE', *, *, #158, .F. ) ;
#205 = VERTEX_POINT ( 'NONE', #19 ) ;
#206 = ORIENTED_EDGE ( 'NONE', *, *, #68, .T. ) ;
#207 = ORGANIZATION ( '未指定', '未指定', '' ) ;
#208 = CARTESIAN_POINT ( 'NONE',  ( 33.00000000000000000, 40.00000000000000000, 30.50000000000000000 ) ) ;
#209 = CARTESIAN_POINT ( 'NONE',  ( 33.00000000000000000, 40.00000000000000000, 30.50000000000000000 ) ) ;
#210 = VECTOR ( 'NONE', #18, 1000.000000000000000 ) ;
#211 = PERSON_AND_ORGANIZATION ( #147, #207 ) ;
#212 = DIRECTION ( 'NONE',  ( -0.000000000000000000, -1.000000000000000000, -0.000000000000000000 ) ) ;
#213 = PLANE ( 'NONE',  #161 ) ;
#214 = LINE ( 'NONE', #63, #44 ) ;
#215 = VECTOR ( 'NONE', #106, 1000.000000000000000 ) ;
#216 = CARTESIAN_POINT ( 'NONE',  ( 0.000000000000000000, 0.000000000000000000, 0.000000000000000000 ) ) ;
#217 = LINE ( 'NONE', #70, #151 ) ;
#218 = APPLICATION_CONTEXT ( 'configuration controlled 3d designs of mechanical parts and assemblies' ) ;
#219 = DIRECTION ( 'NONE',  ( 0.000000000000000000, -1.000000000000000000, 0.000000000000000000 ) ) ;
#220 = CC_DESIGN_PERSON_AND_ORGANIZATION_ASSIGNMENT ( #229, #58, ( #36 ) ) ;
#221 = FACE_OUTER_BOUND ( 'NONE', #6, .T. ) ;
#222 = ORIENTED_EDGE ( 'NONE', *, *, #200, .F. ) ;
#223 = ADVANCED_FACE ( 'NONE', ( #33 ), #88, .T. ) ;
#224 = APPROVAL_PERSON_ORGANIZATION ( #150, #228, #111 ) ;
#225 = EDGE_LOOP ( 'NONE', ( #21, #204, #165, #13 ) ) ;
#226 = APPROVAL_STATUS ( 'not_yet_approved' ) ;
#227 = EDGE_CURVE ( 'NONE', #205, #4, #16, .T. ) ;
#228 = APPROVAL ( #226, '未指定' ) ;
#229 = PERSON_AND_ORGANIZATION ( #147, #207 ) ;
#230 = DIRECTION ( 'NONE',  ( 1.000000000000000000, 0.000000000000000000, 0.000000000000000000 ) ) ;
#231 = CARTESIAN_POINT ( 'NONE',  ( -33.00000000000000000, 40.00000000000000000, -30.50000000000000000 ) ) ;
#232 = AXIS2_PLACEMENT_3D ( 'NONE', #83, #135, #140 ) ;
#233 = PLANE ( 'NONE',  #232 ) ;
#234 = CARTESIAN_POINT ( 'NONE',  ( 33.00000000000000000, 40.00000000000000000, -30.50000000000000000 ) ) ;
#235 = PRODUCT_DEFINITION ( '未知', '', #36, #139 ) ;
#236 = LOCAL_TIME ( 21, 51, 25.00000000000000000, #8 ) ;
#237 = CARTESIAN_POINT ( 'NONE',  ( 0.000000000000000000, 40.00000000000000000, 0.000000000000000000 ) ) ;
ENDSEC;
END-ISO-10303-21;
