ISO-10303-21;
HEADER;
FILE_DESCRIPTION (( 'STEP AP203' ),
    '1' );
FILE_NAME ('FN-ENC-004_open-tray_4PORT-NOMINAL_R0.5.STEP',
    '2026-07-26T13:50:43',
    ( '' ),
    ( '' ),
    'SwSTEP 2.0',
    'SolidWorks 2022',
    '' );
FILE_SCHEMA (( 'CONFIG_CONTROL_DESIGN' ));
ENDSEC;

DATA;
#1 = ORIENTED_EDGE ( 'NONE', *, *, #264, .F. ) ;
#2 = LINE ( 'NONE', #402, #344 ) ;
#3 = MANIFOLD_SOLID_BREP ( '切除-拉伸1', #528 ) ;
#4 = ORIENTED_EDGE ( 'NONE', *, *, #599, .F. ) ;
#5 = CARTESIAN_POINT ( 'NONE',  ( 158.9499999999999886, 3.000000000000000000, 119.4500000000000028 ) ) ;
#6 = ADVANCED_FACE ( 'NONE', ( #266 ), #573, .T. ) ;
#7 = DIRECTION ( 'NONE',  ( 0.000000000000000000, 0.000000000000000000, 1.000000000000000000 ) ) ;
#8 = CARTESIAN_POINT ( 'NONE',  ( -118.0000000000000000, 28.00000000000000000, 98.50000000000000000 ) ) ;
#9 = PLANE ( 'NONE',  #193 ) ;
#10 = CARTESIAN_POINT ( 'NONE',  ( -78.75000000000000000, 28.00000000000000000, 124.4500000000000028 ) ) ;
#11 = FACE_BOUND ( 'NONE', #631, .T. ) ;
#12 = CIRCLE ( 'NONE', #182, 8.250000000000014211 ) ;
#13 = ORIENTED_EDGE ( 'NONE', *, *, #103, .F. ) ;
#14 = DIRECTION ( 'NONE',  ( 0.000000000000000000, -1.000000000000000000, 0.000000000000000000 ) ) ;
#15 = DIRECTION ( 'NONE',  ( 0.000000000000000000, 0.000000000000000000, -1.000000000000000000 ) ) ;
#16 = CARTESIAN_POINT ( 'NONE',  ( 110.0000000000000000, 28.00000000000000000, 119.4500000000000028 ) ) ;
#17 = EDGE_CURVE ( 'NONE', #373, #550, #2, .T. ) ;
#18 = EDGE_LOOP ( 'NONE', ( #300, #32, #351, #665 ) ) ;
#19 = CARTESIAN_POINT ( 'NONE',  ( 101.7500000000000000, 28.00000000000000000, 119.4500000000000028 ) ) ;
#20 = FACE_BOUND ( 'NONE', #150, .T. ) ;
#21 = ORIENTED_EDGE ( 'NONE', *, *, #574, .F. ) ;
#22 = ORIENTED_EDGE ( 'NONE', *, *, #169, .F. ) ;
#23 = DATE_AND_TIME ( #650, #223 ) ;
#24 = LINE ( 'NONE', #235, #250 ) ;
#25 = CARTESIAN_POINT ( 'NONE',  ( -138.0327499999999930, 91.09999999999999432, 98.50000000000000000 ) ) ;
#26 = VECTOR ( 'NONE', #328, 1000.000000000000000 ) ;
#27 = PERSON_AND_ORGANIZATION ( #520, #610 ) ;
#28 = CARTESIAN_POINT ( 'NONE',  ( -158.9499999999999886, 0.000000000000000000, -119.4500000000000028 ) ) ;
#29 = VERTEX_POINT ( 'NONE', #317 ) ;
#30 = PLANE ( 'NONE',  #140 ) ;
#31 = CARTESIAN_POINT ( 'NONE',  ( 110.0000000000000000, 28.00000000000000000, 124.4500000000000028 ) ) ;
#32 = ORIENTED_EDGE ( 'NONE', *, *, #624, .F. ) ;
#33 = PERSON_AND_ORGANIZATION ( #520, #610 ) ;
#34 = DIRECTION ( 'NONE',  ( 0.000000000000000000, -0.000000000000000000, -1.000000000000000000 ) ) ;
#35 = ORIENTED_EDGE ( 'NONE', *, *, #260, .F. ) ;
#36 = VECTOR ( 'NONE', #327, 1000.000000000000000 ) ;
#37 = EDGE_CURVE ( 'NONE', #588, #563, #467, .T. ) ;
#38 = AXIS2_PLACEMENT_3D ( 'NONE', #390, #425, #372 ) ;
#39 = CC_DESIGN_SECURITY_CLASSIFICATION ( #263, ( #316 ) ) ;
#40 = ADVANCED_FACE ( 'NONE', ( #42 ), #616, .F. ) ;
#41 = CARTESIAN_POINT ( 'NONE',  ( 60.00000000000000000, 28.00000000000000000, 124.4500000000000028 ) ) ;
#42 = FACE_OUTER_BOUND ( 'NONE', #144, .T. ) ;
#43 = VERTEX_POINT ( 'NONE', #164 ) ;
#44 = ORIENTED_EDGE ( 'NONE', *, *, #476, .F. ) ;
#45 = CARTESIAN_POINT ( 'NONE',  ( 118.2500000000000000, 28.00000000000000000, 119.4500000000000028 ) ) ;
#46 = VECTOR ( 'NONE', #415, 1000.000000000000000 ) ;
#47 = ORIENTED_EDGE ( 'NONE', *, *, #457, .F. ) ;
#48 = EDGE_CURVE ( 'NONE', #474, #413, #630, .T. ) ;
#49 = CIRCLE ( 'NONE', #38, 8.250000000000014211 ) ;
#50 = LOCAL_TIME ( 21, 50, 43.00000000000000000, #621 ) ;
#51 = DATE_AND_TIME ( #198, #183 ) ;
#52 = ORIENTED_EDGE ( 'NONE', *, *, #624, .T. ) ;
#53 = FACE_OUTER_BOUND ( 'NONE', #94, .T. ) ;
#54 = CARTESIAN_POINT ( 'NONE',  ( -138.0327499999999930, 91.09999999999999432, 98.50000000000000000 ) ) ;
#55 = VERTEX_POINT ( 'NONE', #275 ) ;
#56 = CC_DESIGN_DATE_AND_TIME_ASSIGNMENT ( #23, #184, ( #180 ) ) ;
#57 = FACE_OUTER_BOUND ( 'NONE', #468, .T. ) ;
#58 = CIRCLE ( 'NONE', #441, 8.249999999999992895 ) ;
#59 = CARTESIAN_POINT ( 'NONE',  ( -138.0327499999999930, 3.000000000000000000, 0.000000000000000000 ) ) ;
#60 = EDGE_CURVE ( 'NONE', #111, #479, #334, .T. ) ;
#61 = CARTESIAN_POINT ( 'NONE',  ( 0.000000000000000000, 91.09999999999999432, 0.000000000000000000 ) ) ;
#62 = ORIENTED_EDGE ( 'NONE', *, *, #68, .T. ) ;
#63 = DIRECTION ( 'NONE',  ( 0.000000000000000000, 0.000000000000000000, -1.000000000000000000 ) ) ;
#64 = DIRECTION ( 'NONE',  ( -0.000000000000000000, -0.000000000000000000, 1.000000000000000000 ) ) ;
#65 = ORIENTED_EDGE ( 'NONE', *, *, #667, .T. ) ;
#66 = DIRECTION ( 'NONE',  ( 1.000000000000000000, 0.000000000000000000, 0.000000000000000000 ) ) ;
#67 = VECTOR ( 'NONE', #221, 1000.000000000000000 ) ;
#68 = EDGE_CURVE ( 'NONE', #563, #147, #323, .T. ) ;
#69 = LINE ( 'NONE', #274, #26 ) ;
#70 = CIRCLE ( 'NONE', #336, 8.249999999999992895 ) ;
#71 = UNCERTAINTY_MEASURE_WITH_UNIT (LENGTH_MEASURE( 1.000000000000000082E-05 ), #589, 'distance_accuracy_value', 'NONE');
#72 = ORIENTED_EDGE ( 'NONE', *, *, #132, .T. ) ;
#73 = DIRECTION ( 'NONE',  ( 0.000000000000000000, 0.000000000000000000, -1.000000000000000000 ) ) ;
#74 = DIRECTION ( 'NONE',  ( -1.000000000000000000, 0.000000000000000000, 0.000000000000000000 ) ) ;
#75 = ORIENTED_EDGE ( 'NONE', *, *, #187, .F. ) ;
#76 = EDGE_LOOP ( 'NONE', ( #659, #669, #303, #95 ) ) ;
#77 = PERSON_AND_ORGANIZATION ( #520, #610 ) ;
#78 = CYLINDRICAL_SURFACE ( 'NONE', #518, 8.249999999999992895 ) ;
#79 = CARTESIAN_POINT ( 'NONE',  ( -121.2500000000000000, 28.00000000000000000, 124.4500000000000028 ) ) ;
#80 = DIRECTION ( 'NONE',  ( 1.000000000000000000, 0.000000000000000000, 0.000000000000000000 ) ) ;
#81 = DIRECTION ( 'NONE',  ( -1.000000000000000000, 0.000000000000000000, 0.000000000000000000 ) ) ;
#82 = AXIS2_PLACEMENT_3D ( 'NONE', #482, #172, #282 ) ;
#83 = DIRECTION ( 'NONE',  ( -1.000000000000000000, 0.000000000000000000, 0.000000000000000000 ) ) ;
#84 = PLANE ( 'NONE',  #335 ) ;
#85 = VERTEX_POINT ( 'NONE', #480 ) ;
#86 = CARTESIAN_POINT ( 'NONE',  ( -158.9499999999999886, 3.000000000000000000, 119.4500000000000028 ) ) ;
#87 = PLANE ( 'NONE',  #595 ) ;
#88 = VERTEX_POINT ( 'NONE', #369 ) ;
#89 = CARTESIAN_POINT ( 'NONE',  ( 0.000000000000000000, 0.000000000000000000, 0.000000000000000000 ) ) ;
#90 = EDGE_CURVE ( 'NONE', #588, #675, #273, .T. ) ;
#91 = CARTESIAN_POINT ( 'NONE',  ( -118.0000000000000000, 28.00000000000000000, 124.4500000000000028 ) ) ;
#92 = ORIENTED_EDGE ( 'NONE', *, *, #264, .T. ) ;
#93 = CARTESIAN_POINT ( 'NONE',  ( -138.0327499999999930, 3.000000000000030198, 98.50000000000000000 ) ) ;
#94 = EDGE_LOOP ( 'NONE', ( #326, #525, #190, #119 ) ) ;
#95 = ORIENTED_EDGE ( 'NONE', *, *, #574, .T. ) ;
#96 = DIRECTION ( 'NONE',  ( 1.000000000000000000, 0.000000000000000000, -0.000000000000000000 ) ) ;
#97 = DIRECTION ( 'NONE',  ( 0.000000000000000000, 0.000000000000000000, 1.000000000000000000 ) ) ;
#98 = ORIENTED_EDGE ( 'NONE', *, *, #17, .F. ) ;
#99 = DIRECTION ( 'NONE',  ( -1.000000000000000000, 0.000000000000000000, 0.000000000000000000 ) ) ;
#100 = VECTOR ( 'NONE', #560, 1000.000000000000000 ) ;
#101 = DIRECTION ( 'NONE',  ( 0.000000000000000000, -0.000000000000000000, -1.000000000000000000 ) ) ;
#102 = PRODUCT ( 'FN-ENC-004_open-tray_4PORT-NOMINAL_R0.5', 'FN-ENC-004_open-tray_4PORT-NOMINAL_R0.5', '', ( #247 ) ) ;
#103 = EDGE_CURVE ( 'NONE', #550, #563, #171, .T. ) ;
#104 = ORIENTED_EDGE ( 'NONE', *, *, #379, .F. ) ;
#105 = DIRECTION ( 'NONE',  ( -1.000000000000000000, 0.000000000000000000, 0.000000000000000000 ) ) ;
#106 = ADVANCED_FACE ( 'NONE', ( #378 ), #421, .T. ) ;
#107 = VECTOR ( 'NONE', #66, 1000.000000000000000 ) ;
#108 = PRODUCT_DEFINITION_SHAPE ( 'NONE', 'NONE',  #180 ) ;
#109 = CARTESIAN_POINT ( 'NONE',  ( -158.9499999999999886, 0.000000000000000000, 119.4500000000000028 ) ) ;
#110 = AXIS2_PLACEMENT_3D ( 'NONE', #91, #618, #307 ) ;
#111 = VERTEX_POINT ( 'NONE', #582 ) ;
#112 = DIRECTION ( 'NONE',  ( 0.000000000000000000, 0.000000000000000000, -1.000000000000000000 ) ) ;
#113 = LINE ( 'NONE', #10, #472 ) ;
#114 = CARTESIAN_POINT ( 'NONE',  ( 158.9499999999999886, 0.000000000000000000, 119.4500000000000028 ) ) ;
#115 = ORIENTED_EDGE ( 'NONE', *, *, #318, .T. ) ;
#116 = FACE_BOUND ( 'NONE', #289, .T. ) ;
#117 = EDGE_CURVE ( 'NONE', #268, #315, #113, .T. ) ;
#118 = LINE ( 'NONE', #375, #539 ) ;
#119 = ORIENTED_EDGE ( 'NONE', *, *, #667, .F. ) ;
#120 = CARTESIAN_POINT ( 'NONE',  ( 60.00000000000000000, 28.00000000000000000, 124.4500000000000028 ) ) ;
#121 = APPROVAL ( #674, '未指定' ) ;
#122 = PLANE ( 'NONE',  #222 ) ;
#123 = AXIS2_PLACEMENT_3D ( 'NONE', #255, #570, #96 ) ;
#124 = ORIENTED_EDGE ( 'NONE', *, *, #469, .T. ) ;
#125 = ORIENTED_EDGE ( 'NONE', *, *, #457, .T. ) ;
#126 = CALENDAR_DATE ( 2026, 26, 7 ) ;
#127 = DIRECTION ( 'NONE',  ( -1.000000000000000000, 0.000000000000000000, 0.000000000000000000 ) ) ;
#128 = CARTESIAN_POINT ( 'NONE',  ( 110.0000000000000000, 28.00000000000000000, 124.4500000000000028 ) ) ;
#129 = EDGE_CURVE ( 'NONE', #483, #643, #604, .T. ) ;
#130 = CARTESIAN_POINT ( 'NONE',  ( -82.00000000000000000, 28.00000000000000000, 119.4500000000000028 ) ) ;
#131 = VERTEX_POINT ( 'NONE', #475 ) ;
#132 = EDGE_CURVE ( 'NONE', #413, #173, #428, .T. ) ;
#133 = DIRECTION ( 'NONE',  ( -0.000000000000000000, -0.000000000000000000, 1.000000000000000000 ) ) ;
#134 = CARTESIAN_POINT ( 'NONE',  ( 51.74999999999998579, 28.00000000000000000, 124.4500000000000028 ) ) ;
#135 = EDGE_LOOP ( 'NONE', ( #228, #558 ) ) ;
#136 = CIRCLE ( 'NONE', #354, 3.250000000000002665 ) ;
#137 = VECTOR ( 'NONE', #295, 1000.000000000000000 ) ;
#138 = PERSON_AND_ORGANIZATION_ROLE ( 'creator' ) ;
#139 = CARTESIAN_POINT ( 'NONE',  ( 138.0327499999999930, 91.09999999999999432, 98.50000000000000000 ) ) ;
#140 = AXIS2_PLACEMENT_3D ( 'NONE', #86, #229, #540 ) ;
#141 = APPROVAL_DATE_TIME ( #201, #121 ) ;
#142 = CARTESIAN_POINT ( 'NONE',  ( -82.00000000000000000, 28.00000000000000000, 124.4500000000000028 ) ) ;
#143 = ADVANCED_FACE ( 'NONE', ( #638, #541, #586, #116, #57 ), #490, .F. ) ;
#144 = EDGE_LOOP ( 'NONE', ( #210, #205, #640, #581 ) ) ;
#145 = SHAPE_DEFINITION_REPRESENTATION ( #108, #565 ) ;
#146 = CARTESIAN_POINT ( 'NONE',  ( 158.9499999999999886, 3.000000000000000000, 119.4500000000000028 ) ) ;
#147 = VERTEX_POINT ( 'NONE', #433 ) ;
#148 = VECTOR ( 'NONE', #663, 1000.000000000000000 ) ;
#149 = CYLINDRICAL_SURFACE ( 'NONE', #110, 3.250000000000002665 ) ;
#150 = EDGE_LOOP ( 'NONE', ( #393, #361 ) ) ;
#151 = CARTESIAN_POINT ( 'NONE',  ( -158.9499999999999886, 91.09999999999999432, -119.4500000000000028 ) ) ;
#152 = DIRECTION ( 'NONE',  ( -1.000000000000000000, 0.000000000000000000, 0.000000000000000000 ) ) ;
#153 = VERTEX_POINT ( 'NONE', #174 ) ;
#154 = DIRECTION ( 'NONE',  ( -1.000000000000000000, 0.000000000000000000, 0.000000000000000000 ) ) ;
#155 = EDGE_LOOP ( 'NONE', ( #13, #432, #465, #333 ) ) ;
#156 = AXIS2_PLACEMENT_3D ( 'NONE', #8, #64, #598 ) ;
#157 = AXIS2_PLACEMENT_3D ( 'NONE', #446, #388, #80 ) ;
#158 = ADVANCED_FACE ( 'NONE', ( #363 ), #590, .F. ) ;
#159 = VERTEX_POINT ( 'NONE', #161 ) ;
#160 = LINE ( 'NONE', #641, #484 ) ;
#161 = CARTESIAN_POINT ( 'NONE',  ( 68.25000000000000000, 28.00000000000000000, 98.50000000000000000 ) ) ;
#162 = EDGE_CURVE ( 'NONE', #43, #159, #509, .T. ) ;
#163 = ORIENTED_EDGE ( 'NONE', *, *, #543, .F. ) ;
#164 = CARTESIAN_POINT ( 'NONE',  ( 51.74999999999998579, 28.00000000000000000, 98.50000000000000000 ) ) ;
#165 = LINE ( 'NONE', #566, #370 ) ;
#166 = ORIENTED_EDGE ( 'NONE', *, *, #583, .F. ) ;
#167 = LINE ( 'NONE', #485, #501 ) ;
#168 = LINE ( 'NONE', #79, #571 ) ;
#169 = EDGE_CURVE ( 'NONE', #346, #173, #527, .T. ) ;
#170 = ORIENTED_EDGE ( 'NONE', *, *, #673, .F. ) ;
#171 = LINE ( 'NONE', #59, #358 ) ;
#172 = DIRECTION ( 'NONE',  ( 0.000000000000000000, 0.000000000000000000, -1.000000000000000000 ) ) ;
#173 = VERTEX_POINT ( 'NONE', #600 ) ;
#174 = CARTESIAN_POINT ( 'NONE',  ( 101.7500000000000000, 28.00000000000000000, 98.50000000000000000 ) ) ;
#175 = DIRECTION ( 'NONE',  ( -0.000000000000000000, -0.000000000000000000, 1.000000000000000000 ) ) ;
#176 = ORIENTED_EDGE ( 'NONE', *, *, #353, .F. ) ;
#177 = APPROVAL_STATUS ( 'not_yet_approved' ) ;
#178 = CARTESIAN_POINT ( 'NONE',  ( -82.00000000000000000, 28.00000000000000000, 119.4500000000000028 ) ) ;
#179 = VECTOR ( 'NONE', #424, 1000.000000000000000 ) ;
#180 = PRODUCT_DEFINITION ( '未知', '', #316, #580 ) ;
#181 = DIRECTION ( 'NONE',  ( -1.000000000000000000, 0.000000000000000000, 0.000000000000000000 ) ) ;
#182 = AXIS2_PLACEMENT_3D ( 'NONE', #568, #207, #414 ) ;
#183 = LOCAL_TIME ( 21, 50, 43.00000000000000000, #559 ) ;
#184 = DATE_TIME_ROLE ( 'creation_date' ) ;
#185 = CYLINDRICAL_SURFACE ( 'NONE', #529, 3.250000000000002665 ) ;
#186 = DIRECTION ( 'NONE',  ( -1.000000000000000000, 0.000000000000000000, -0.000000000000000000 ) ) ;
#187 = EDGE_CURVE ( 'NONE', #85, #159, #545, .T. ) ;
#188 = DIRECTION ( 'NONE',  ( -1.000000000000000000, 0.000000000000000000, 0.000000000000000000 ) ) ;
#189 = CARTESIAN_POINT ( 'NONE',  ( 101.7500000000000000, 28.00000000000000000, 124.4500000000000028 ) ) ;
#190 = ORIENTED_EDGE ( 'NONE', *, *, #476, .T. ) ;
#191 = FACE_OUTER_BOUND ( 'NONE', #376, .T. ) ;
#192 = AXIS2_PLACEMENT_3D ( 'NONE', #536, #15, #226 ) ;
#193 = AXIS2_PLACEMENT_3D ( 'NONE', #628, #14, #101 ) ;
#194 = EDGE_CURVE ( 'NONE', #285, #373, #292, .T. ) ;
#195 = AXIS2_PLACEMENT_3D ( 'NONE', #548, #383, #188 ) ;
#196 = CARTESIAN_POINT ( 'NONE',  ( -118.0000000000000000, 28.00000000000000000, 119.4500000000000028 ) ) ;
#197 = DIRECTION ( 'NONE',  ( 0.000000000000000000, 0.000000000000000000, -1.000000000000000000 ) ) ;
#198 = CALENDAR_DATE ( 2026, 26, 7 ) ;
#199 = FACE_OUTER_BOUND ( 'NONE', #533, .T. ) ;
#200 = CC_DESIGN_PERSON_AND_ORGANIZATION_ASSIGNMENT ( #252, #405, ( #263 ) ) ;
#201 = DATE_AND_TIME ( #612, #50 ) ;
#202 = DIRECTION ( 'NONE',  ( -0.000000000000000000, -1.000000000000000000, -0.000000000000000000 ) ) ;
#203 = AXIS2_PLACEMENT_3D ( 'NONE', #280, #578, #633 ) ;
#204 = APPROVAL_ROLE ( '' ) ;
#205 = ORIENTED_EDGE ( 'NONE', *, *, #60, .F. ) ;
#206 = VECTOR ( 'NONE', #330, 1000.000000000000000 ) ;
#207 = DIRECTION ( 'NONE',  ( -0.000000000000000000, -0.000000000000000000, 1.000000000000000000 ) ) ;
#208 = CARTESIAN_POINT ( 'NONE',  ( -138.0327499999999930, 91.09999999999999432, -98.50000000000000000 ) ) ;
#209 = EDGE_LOOP ( 'NONE', ( #426, #516 ) ) ;
#210 = ORIENTED_EDGE ( 'NONE', *, *, #403, .T. ) ;
#211 = DIRECTION ( 'NONE',  ( -0.000000000000000000, -0.000000000000000000, 1.000000000000000000 ) ) ;
#212 = AXIS2_PLACEMENT_3D ( 'NONE', #130, #549, #81 ) ;
#213 = ORIENTED_EDGE ( 'NONE', *, *, #237, .F. ) ;
#214 = EDGE_LOOP ( 'NONE', ( #515, #65 ) ) ;
#215 = CARTESIAN_POINT ( 'NONE',  ( -114.7499999999999858, 28.00000000000000000, 98.50000000000000000 ) ) ;
#216 = ORIENTED_EDGE ( 'NONE', *, *, #403, .F. ) ;
#217 = CARTESIAN_POINT ( 'NONE',  ( -118.0000000000000000, 28.00000000000000000, 119.4500000000000028 ) ) ;
#218 = CARTESIAN_POINT ( 'NONE',  ( 158.9499999999999886, 0.000000000000000000, -119.4500000000000028 ) ) ;
#219 = AXIS2_PLACEMENT_3D ( 'NONE', #208, #97, #471 ) ;
#220 = EDGE_LOOP ( 'NONE', ( #662, #124, #170, #213 ) ) ;
#221 = DIRECTION ( 'NONE',  ( 1.000000000000000000, 0.000000000000000000, 0.000000000000000000 ) ) ;
#222 = AXIS2_PLACEMENT_3D ( 'NONE', #61, #232, #332 ) ;
#223 = LOCAL_TIME ( 21, 50, 43.00000000000000000, #342 ) ;
#224 = DIRECTION ( 'NONE',  ( 0.000000000000000000, 0.000000000000000000, -1.000000000000000000 ) ) ;
#225 = ORIENTED_EDGE ( 'NONE', *, *, #90, .F. ) ;
#226 = DIRECTION ( 'NONE',  ( -1.000000000000000000, 0.000000000000000000, -0.000000000000000000 ) ) ;
#227 = CARTESIAN_POINT ( 'NONE',  ( -121.2500000000000000, 28.00000000000000000, 119.4500000000000028 ) ) ;
#228 = ORIENTED_EDGE ( 'NONE', *, *, #524, .F. ) ;
#229 = DIRECTION ( 'NONE',  ( 1.000000000000000000, -0.000000000000000000, 0.000000000000000000 ) ) ;
#230 = LINE ( 'NONE', #248, #261 ) ;
#231 = ADVANCED_FACE ( 'NONE', ( #191 ), #185, .F. ) ;
#232 = DIRECTION ( 'NONE',  ( 0.000000000000000000, -1.000000000000000000, 0.000000000000000000 ) ) ;
#233 = ORIENTED_EDGE ( 'NONE', *, *, #599, .T. ) ;
#234 = ORIENTED_EDGE ( 'NONE', *, *, #356, .F. ) ;
#235 = CARTESIAN_POINT ( 'NONE',  ( -158.9499999999999886, 91.09999999999999432, 119.4500000000000028 ) ) ;
#236 = VECTOR ( 'NONE', #440, 1000.000000000000000 ) ;
#237 = EDGE_CURVE ( 'NONE', #278, #153, #389, .T. ) ;
#238 = DIRECTION ( 'NONE',  ( 0.000000000000000000, 0.000000000000000000, -1.000000000000000000 ) ) ;
#239 = APPROVAL_STATUS ( 'not_yet_approved' ) ;
#240 = DIRECTION ( 'NONE',  ( 0.000000000000000000, 0.000000000000000000, -1.000000000000000000 ) ) ;
#241 = ORIENTED_EDGE ( 'NONE', *, *, #244, .F. ) ;
#242 = CALENDAR_DATE ( 2026, 26, 7 ) ;
#243 = CARTESIAN_POINT ( 'NONE',  ( -138.0327499999999930, 91.09999999999999432, -98.50000000000000000 ) ) ;
#244 = EDGE_CURVE ( 'NONE', #268, #493, #429, .T. ) ;
#245 = VERTEX_POINT ( 'NONE', #660 ) ;
#246 = EDGE_CURVE ( 'NONE', #479, #474, #603, .T. ) ;
#247 = MECHANICAL_CONTEXT ( 'NONE', #313, 'mechanical' ) ;
#248 = CARTESIAN_POINT ( 'NONE',  ( 138.0327499999999930, 91.09999999999999432, 98.50000000000000000 ) ) ;
#249 = ORIENTED_EDGE ( 'NONE', *, *, #308, .F. ) ;
#250 = VECTOR ( 'NONE', #513, 1000.000000000000000 ) ;
#251 =( GEOMETRIC_REPRESENTATION_CONTEXT ( 3 ) GLOBAL_UNCERTAINTY_ASSIGNED_CONTEXT ( ( #71 ) ) GLOBAL_UNIT_ASSIGNED_CONTEXT ( ( #589, #301, #449 ) ) REPRESENTATION_CONTEXT ( 'NONE', 'WORKASPACE' ) );
#252 = PERSON_AND_ORGANIZATION ( #520, #610 ) ;
#253 = ORIENTED_EDGE ( 'NONE', *, *, #664, .F. ) ;
#254 = DIRECTION ( 'NONE',  ( 0.000000000000000000, 0.000000000000000000, -1.000000000000000000 ) ) ;
#255 = CARTESIAN_POINT ( 'NONE',  ( -158.9499999999999886, 3.000000000000000000, -119.4500000000000028 ) ) ;
#256 = ADVANCED_FACE ( 'NONE', ( #399 ), #78, .F. ) ;
#257 = ORIENTED_EDGE ( 'NONE', *, *, #547, .T. ) ;
#258 = ORIENTED_EDGE ( 'NONE', *, *, #605, .T. ) ;
#259 = LINE ( 'NONE', #459, #324 ) ;
#260 = EDGE_CURVE ( 'NONE', #461, #413, #655, .T. ) ;
#261 = VECTOR ( 'NONE', #304, 1000.000000000000000 ) ;
#262 = FACE_OUTER_BOUND ( 'NONE', #18, .T. ) ;
#263 = SECURITY_CLASSIFICATION ( '', '', #614 ) ;
#264 = EDGE_CURVE ( 'NONE', #272, #43, #506, .T. ) ;
#265 = ORIENTED_EDGE ( 'NONE', *, *, #48, .F. ) ;
#266 = FACE_OUTER_BOUND ( 'NONE', #382, .T. ) ;
#267 = VECTOR ( 'NONE', #350, 1000.000000000000000 ) ;
#268 = VERTEX_POINT ( 'NONE', #384 ) ;
#269 = DIRECTION ( 'NONE',  ( 0.000000000000000000, 0.000000000000000000, -1.000000000000000000 ) ) ;
#270 = CIRCLE ( 'NONE', #305, 3.250000000000002665 ) ;
#271 = CIRCLE ( 'NONE', #195, 8.249999999999992895 ) ;
#272 = VERTEX_POINT ( 'NONE', #556 ) ;
#273 = LINE ( 'NONE', #477, #67 ) ;
#274 = CARTESIAN_POINT ( 'NONE',  ( 118.2500000000000000, 28.00000000000000000, 124.4500000000000028 ) ) ;
#275 = CARTESIAN_POINT ( 'NONE',  ( 118.2500000000000000, 28.00000000000000000, 98.50000000000000000 ) ) ;
#276 = CARTESIAN_POINT ( 'NONE',  ( -158.9499999999999886, 0.000000000000000000, 119.4500000000000028 ) ) ;
#277 = VECTOR ( 'NONE', #418, 1000.000000000000000 ) ;
#278 = VERTEX_POINT ( 'NONE', #19 ) ;
#279 = FACE_OUTER_BOUND ( 'NONE', #627, .T. ) ;
#280 = CARTESIAN_POINT ( 'NONE',  ( -138.0327499999999930, 91.09999999999999432, 98.50000000000000000 ) ) ;
#281 = CIRCLE ( 'NONE', #385, 3.250000000000002665 ) ;
#282 = DIRECTION ( 'NONE',  ( -1.000000000000000000, 0.000000000000000000, 0.000000000000000000 ) ) ;
#283 = ORIENTED_EDGE ( 'NONE', *, *, #353, .T. ) ;
#284 = ADVANCED_FACE ( 'NONE', ( #607 ), #84, .T. ) ;
#285 = VERTEX_POINT ( 'NONE', #504 ) ;
#286 = DIRECTION ( 'NONE',  ( -0.000000000000000000, -0.000000000000000000, 1.000000000000000000 ) ) ;
#287 = CARTESIAN_POINT ( 'NONE',  ( 60.00000000000000000, 28.00000000000000000, 98.50000000000000000 ) ) ;
#288 = FACE_BOUND ( 'NONE', #214, .T. ) ;
#289 = EDGE_LOOP ( 'NONE', ( #567, #555 ) ) ;
#290 = EDGE_CURVE ( 'NONE', #88, #550, #437, .T. ) ;
#291 = PERSON_AND_ORGANIZATION_ROLE ( 'creator' ) ;
#292 = LINE ( 'NONE', #340, #511 ) ;
#293 = FACE_OUTER_BOUND ( 'NONE', #76, .T. ) ;
#294 = AXIS2_PLACEMENT_3D ( 'NONE', #217, #374, #331 ) ;
#295 = DIRECTION ( 'NONE',  ( -1.000000000000000000, -0.000000000000000000, -0.000000000000000000 ) ) ;
#296 = EDGE_LOOP ( 'NONE', ( #265, #360, #216, #502 ) ) ;
#297 = VECTOR ( 'NONE', #345, 1000.000000000000000 ) ;
#298 = DIRECTION ( 'NONE',  ( 0.000000000000000000, 0.000000000000000000, 1.000000000000000000 ) ) ;
#299 = EDGE_CURVE ( 'NONE', #131, #315, #270, .T. ) ;
#300 = ORIENTED_EDGE ( 'NONE', *, *, #246, .T. ) ;
#301 =( NAMED_UNIT ( * ) PLANE_ANGLE_UNIT ( ) SI_UNIT ( $, .RADIAN. ) );
#302 = DIRECTION ( 'NONE',  ( 0.000000000000000000, -1.000000000000000000, 0.000000000000000000 ) ) ;
#303 = ORIENTED_EDGE ( 'NONE', *, *, #90, .T. ) ;
#304 = DIRECTION ( 'NONE',  ( 0.000000000000000000, 0.000000000000000000, -1.000000000000000000 ) ) ;
#305 = AXIS2_PLACEMENT_3D ( 'NONE', #447, #349, #658 ) ;
#306 = ADVANCED_FACE ( 'NONE', ( #395 ), #87, .T. ) ;
#307 = DIRECTION ( 'NONE',  ( -1.000000000000000000, 0.000000000000000000, 0.000000000000000000 ) ) ;
#308 = EDGE_CURVE ( 'NONE', #675, #285, #230, .T. ) ;
#309 = ORIENTED_EDGE ( 'NONE', *, *, #117, .T. ) ;
#310 = DATE_TIME_ROLE ( 'classification_date' ) ;
#311 = ORIENTED_EDGE ( 'NONE', *, *, #422, .T. ) ;
#312 = CARTESIAN_POINT ( 'NONE',  ( -138.0327499999999930, 3.000000000000000000, -98.50000000000000000 ) ) ;
#313 = APPLICATION_CONTEXT ( 'configuration controlled 3d designs of mechanical parts and assemblies' ) ;
#314 = AXIS2_PLACEMENT_3D ( 'NONE', #16, #442, #181 ) ;
#315 = VERTEX_POINT ( 'NONE', #645 ) ;
#316 = PRODUCT_DEFINITION_FORMATION_WITH_SPECIFIED_SOURCE ( '任何', '', #102, .NOT_KNOWN. ) ;
#317 = CARTESIAN_POINT ( 'NONE',  ( -121.2500000000000000, 28.00000000000000000, 98.50000000000000000 ) ) ;
#318 = EDGE_CURVE ( 'NONE', #493, #268, #281, .T. ) ;
#319 = CARTESIAN_POINT ( 'NONE',  ( -114.7499999999999858, 28.00000000000000000, 119.4500000000000028 ) ) ;
#320 = EDGE_LOOP ( 'NONE', ( #629, #253 ) ) ;
#321 = DIRECTION ( 'NONE',  ( -1.000000000000000000, 0.000000000000000000, 0.000000000000000000 ) ) ;
#322 = AXIS2_PLACEMENT_3D ( 'NONE', #146, #460, #666 ) ;
#323 = LINE ( 'NONE', #531, #107 ) ;
#324 = VECTOR ( 'NONE', #202, 1000.000000000000000 ) ;
#325 = DIRECTION ( 'NONE',  ( -0.000000000000000000, -0.000000000000000000, 1.000000000000000000 ) ) ;
#326 = ORIENTED_EDGE ( 'NONE', *, *, #605, .F. ) ;
#327 = DIRECTION ( 'NONE',  ( -0.000000000000000000, -1.000000000000000000, -0.000000000000000000 ) ) ;
#328 = DIRECTION ( 'NONE',  ( 0.000000000000000000, 0.000000000000000000, -1.000000000000000000 ) ) ;
#329 = EDGE_LOOP ( 'NONE', ( #522, #535 ) ) ;
#330 = DIRECTION ( 'NONE',  ( -0.000000000000000000, -1.000000000000000000, -0.000000000000000000 ) ) ;
#331 = DIRECTION ( 'NONE',  ( -1.000000000000000000, 0.000000000000000000, 0.000000000000000000 ) ) ;
#332 = DIRECTION ( 'NONE',  ( 0.000000000000000000, -0.000000000000000000, -1.000000000000000000 ) ) ;
#333 = ORIENTED_EDGE ( 'NONE', *, *, #37, .T. ) ;
#334 = LINE ( 'NONE', #365, #36 ) ;
#335 = AXIS2_PLACEMENT_3D ( 'NONE', #139, #613, #298 ) ;
#336 = AXIS2_PLACEMENT_3D ( 'NONE', #523, #470, #362 ) ;
#337 = CYLINDRICAL_SURFACE ( 'NONE', #661, 8.249999999999992895 ) ;
#338 = EDGE_LOOP ( 'NONE', ( #530, #417, #636, #462 ) ) ;
#339 = DIRECTION ( 'NONE',  ( -1.000000000000000000, 0.000000000000000000, 0.000000000000000000 ) ) ;
#340 = CARTESIAN_POINT ( 'NONE',  ( 138.0327499999999930, 91.09999999999999432, -98.50000000000000000 ) ) ;
#341 = FACE_BOUND ( 'NONE', #329, .T. ) ;
#342 = COORDINATED_UNIVERSAL_TIME_OFFSET ( 8, 0, .AHEAD. ) ;
#343 = DIRECTION ( 'NONE',  ( -1.000000000000000000, 0.000000000000000000, 0.000000000000000000 ) ) ;
#344 = VECTOR ( 'NONE', #152, 1000.000000000000000 ) ;
#345 = DIRECTION ( 'NONE',  ( 0.000000000000000000, 0.000000000000000000, -1.000000000000000000 ) ) ;
#346 = VERTEX_POINT ( 'NONE', #495 ) ;
#347 = CC_DESIGN_APPROVAL ( #617, ( #316 ) ) ;
#348 = APPROVAL_DATE_TIME ( #657, #617 ) ;
#349 = DIRECTION ( 'NONE',  ( -0.000000000000000000, -0.000000000000000000, 1.000000000000000000 ) ) ;
#350 = DIRECTION ( 'NONE',  ( -0.000000000000000000, -1.000000000000000000, -0.000000000000000000 ) ) ;
#351 = ORIENTED_EDGE ( 'NONE', *, *, #547, .F. ) ;
#352 = CC_DESIGN_PERSON_AND_ORGANIZATION_ASSIGNMENT ( #505, #644, ( #102 ) ) ;
#353 = EDGE_CURVE ( 'NONE', #461, #346, #24, .T. ) ;
#354 = AXIS2_PLACEMENT_3D ( 'NONE', #534, #325, #478 ) ;
#355 = EDGE_LOOP ( 'NONE', ( #4, #21, #656, #408 ) ) ;
#356 = EDGE_CURVE ( 'NONE', #493, #131, #165, .T. ) ;
#357 = ORIENTED_EDGE ( 'NONE', *, *, #260, .T. ) ;
#358 = VECTOR ( 'NONE', #7, 1000.000000000000000 ) ;
#359 = APPROVAL_PERSON_ORGANIZATION ( #668, #121, #204 ) ;
#360 = ORIENTED_EDGE ( 'NONE', *, *, #246, .F. ) ;
#361 = ORIENTED_EDGE ( 'NONE', *, *, #521, .T. ) ;
#362 = DIRECTION ( 'NONE',  ( -1.000000000000000000, 0.000000000000000000, 0.000000000000000000 ) ) ;
#363 = FACE_OUTER_BOUND ( 'NONE', #368, .T. ) ;
#364 = CC_DESIGN_PERSON_AND_ORGANIZATION_ASSIGNMENT ( #77, #291, ( #180 ) ) ;
#365 = CARTESIAN_POINT ( 'NONE',  ( 158.9499999999999886, 3.000000000000000000, -119.4500000000000028 ) ) ;
#366 = DIRECTION ( 'NONE',  ( 0.000000000000000000, 0.000000000000000000, -1.000000000000000000 ) ) ;
#367 = EDGE_CURVE ( 'NONE', #346, #111, #569, .T. ) ;
#368 = EDGE_LOOP ( 'NONE', ( #538, #512, #594, #1 ) ) ;
#369 = CARTESIAN_POINT ( 'NONE',  ( -138.0327499999999930, 91.09999999999999432, -98.50000000000000000 ) ) ;
#370 = VECTOR ( 'NONE', #254, 1000.000000000000000 ) ;
#371 = LOCAL_TIME ( 21, 50, 43.00000000000000000, #596 ) ;
#372 = DIRECTION ( 'NONE',  ( -1.000000000000000000, 0.000000000000000000, 0.000000000000000000 ) ) ;
#373 = VERTEX_POINT ( 'NONE', #579 ) ;
#374 = DIRECTION ( 'NONE',  ( -0.000000000000000000, -0.000000000000000000, 1.000000000000000000 ) ) ;
#375 = CARTESIAN_POINT ( 'NONE',  ( -158.9499999999999886, 91.09999999999999432, 119.4500000000000028 ) ) ;
#376 = EDGE_LOOP ( 'NONE', ( #115, #309, #404, #234 ) ) ;
#377 = LINE ( 'NONE', #637, #206 ) ;
#378 = FACE_OUTER_BOUND ( 'NONE', #155, .T. ) ;
#379 = EDGE_CURVE ( 'NONE', #285, #88, #510, .T. ) ;
#380 = EDGE_CURVE ( 'NONE', #315, #131, #136, .T. ) ;
#381 = FACE_OUTER_BOUND ( 'NONE', #220, .T. ) ;
#382 = EDGE_LOOP ( 'NONE', ( #98, #466, #576, #420 ) ) ;
#383 = DIRECTION ( 'NONE',  ( -0.000000000000000000, -0.000000000000000000, 1.000000000000000000 ) ) ;
#384 = CARTESIAN_POINT ( 'NONE',  ( -78.75000000000000000, 28.00000000000000000, 119.4500000000000028 ) ) ;
#385 = AXIS2_PLACEMENT_3D ( 'NONE', #178, #597, #127 ) ;
#386 = CIRCLE ( 'NONE', #453, 3.250000000000002665 ) ;
#387 = DIRECTION ( 'NONE',  ( -1.000000000000000000, 0.000000000000000000, 0.000000000000000000 ) ) ;
#388 = DIRECTION ( 'NONE',  ( 0.000000000000000000, 0.000000000000000000, 1.000000000000000000 ) ) ;
#389 = LINE ( 'NONE', #189, #562 ) ;
#390 = CARTESIAN_POINT ( 'NONE',  ( 60.00000000000000000, 28.00000000000000000, 98.50000000000000000 ) ) ;
#391 = APPROVAL_ROLE ( '' ) ;
#392 = DIRECTION ( 'NONE',  ( -0.000000000000000000, -1.000000000000000000, -0.000000000000000000 ) ) ;
#393 = ORIENTED_EDGE ( 'NONE', *, *, #162, .T. ) ;
#394 = CC_DESIGN_PERSON_AND_ORGANIZATION_ASSIGNMENT ( #33, #398, ( #316 ) ) ;
#395 = FACE_OUTER_BOUND ( 'NONE', #296, .T. ) ;
#396 = VECTOR ( 'NONE', #423, 1000.000000000000000 ) ;
#397 = CC_DESIGN_APPROVAL ( #121, ( #263 ) ) ;
#398 = PERSON_AND_ORGANIZATION_ROLE ( 'design_supplier' ) ;
#399 = FACE_OUTER_BOUND ( 'NONE', #492, .T. ) ;
#400 = EDGE_CURVE ( 'NONE', #29, #593, #635, .T. ) ;
#401 = ORIENTED_EDGE ( 'NONE', *, *, #367, .T. ) ;
#402 = CARTESIAN_POINT ( 'NONE',  ( 0.000000000000000000, 3.000000000000000000, -98.50000000000000000 ) ) ;
#403 = EDGE_CURVE ( 'NONE', #173, #479, #592, .T. ) ;
#404 = ORIENTED_EDGE ( 'NONE', *, *, #299, .F. ) ;
#405 = PERSON_AND_ORGANIZATION_ROLE ( 'classification_officer' ) ;
#406 = CYLINDRICAL_SURFACE ( 'NONE', #619, 8.250000000000014211 ) ;
#407 = VECTOR ( 'NONE', #648, 1000.000000000000000 ) ;
#408 = ORIENTED_EDGE ( 'NONE', *, *, #194, .T. ) ;
#409 = PLANE ( 'NONE',  #123 ) ;
#410 = ORIENTED_EDGE ( 'NONE', *, *, #318, .F. ) ;
#411 = DIRECTION ( 'NONE',  ( -0.000000000000000000, -0.000000000000000000, 1.000000000000000000 ) ) ;
#412 = PRODUCT_RELATED_PRODUCT_CATEGORY ( 'detail', '', ( #102 ) ) ;
#413 = VERTEX_POINT ( 'NONE', #276 ) ;
#414 = DIRECTION ( 'NONE',  ( -1.000000000000000000, 0.000000000000000000, 0.000000000000000000 ) ) ;
#415 = DIRECTION ( 'NONE',  ( -0.000000000000000000, -1.000000000000000000, -0.000000000000000000 ) ) ;
#416 = AXIS2_PLACEMENT_3D ( 'NONE', #120, #73, #321 ) ;
#417 = ORIENTED_EDGE ( 'NONE', *, *, #244, .T. ) ;
#418 = DIRECTION ( 'NONE',  ( -0.000000000000000000, -0.000000000000000000, 1.000000000000000000 ) ) ;
#419 = ADVANCED_FACE ( 'NONE', ( #430 ), #587, .F. ) ;
#420 = ORIENTED_EDGE ( 'NONE', *, *, #290, .T. ) ;
#421 = PLANE ( 'NONE',  #203 ) ;
#422 = EDGE_CURVE ( 'NONE', #85, #272, #464, .T. ) ;
#423 = DIRECTION ( 'NONE',  ( -0.000000000000000000, -0.000000000000000000, 1.000000000000000000 ) ) ;
#424 = DIRECTION ( 'NONE',  ( 1.000000000000000000, 0.000000000000000000, 0.000000000000000000 ) ) ;
#425 = DIRECTION ( 'NONE',  ( -0.000000000000000000, -0.000000000000000000, 1.000000000000000000 ) ) ;
#426 = ORIENTED_EDGE ( 'NONE', *, *, #299, .T. ) ;
#427 = ORIENTED_EDGE ( 'NONE', *, *, #237, .T. ) ;
#428 = LINE ( 'NONE', #486, #179 ) ;
#429 = CIRCLE ( 'NONE', #212, 3.250000000000002665 ) ;
#430 = FACE_OUTER_BOUND ( 'NONE', #338, .T. ) ;
#431 = ADVANCED_FACE ( 'NONE', ( #639 ), #532, .F. ) ;
#432 = ORIENTED_EDGE ( 'NONE', *, *, #290, .F. ) ;
#433 = CARTESIAN_POINT ( 'NONE',  ( 138.0327499999999930, 3.000000000000030198, 98.50000000000000000 ) ) ;
#434 = CARTESIAN_POINT ( 'NONE',  ( -85.25000000000000000, 28.00000000000000000, 119.4500000000000028 ) ) ;
#435 = EDGE_LOOP ( 'NONE', ( #611, #35, #47, #52 ) ) ;
#436 = CC_DESIGN_DATE_AND_TIME_ASSIGNMENT ( #51, #310, ( #263 ) ) ;
#437 = LINE ( 'NONE', #243, #100 ) ;
#438 = CARTESIAN_POINT ( 'NONE',  ( -158.9499999999999886, 0.000000000000000000, -119.4500000000000028 ) ) ;
#439 = PERSON_AND_ORGANIZATION ( #520, #610 ) ;
#440 = DIRECTION ( 'NONE',  ( 0.000000000000000000, 0.000000000000000000, -1.000000000000000000 ) ) ;
#441 = AXIS2_PLACEMENT_3D ( 'NONE', #456, #411, #154 ) ;
#442 = DIRECTION ( 'NONE',  ( -0.000000000000000000, -0.000000000000000000, 1.000000000000000000 ) ) ;
#443 = APPLICATION_PROTOCOL_DEFINITION ( 'international standard', 'config_control_design', 1994, #473 ) ;
#444 = DIRECTION ( 'NONE',  ( -1.000000000000000000, 0.000000000000000000, 0.000000000000000000 ) ) ;
#445 = EDGE_LOOP ( 'NONE', ( #125, #283, #401, #257 ) ) ;
#446 = CARTESIAN_POINT ( 'NONE',  ( 0.000000000000000000, 0.000000000000000000, 0.000000000000000000 ) ) ;
#447 = CARTESIAN_POINT ( 'NONE',  ( -82.00000000000000000, 28.00000000000000000, 98.50000000000000000 ) ) ;
#448 = ORIENTED_EDGE ( 'NONE', *, *, #469, .F. ) ;
#449 =( NAMED_UNIT ( * ) SI_UNIT ( $, .STERADIAN. ) SOLID_ANGLE_UNIT ( ) );
#450 = CARTESIAN_POINT ( 'NONE',  ( 68.25000000000000000, 28.00000000000000000, 124.4500000000000028 ) ) ;
#451 = AXIS2_PLACEMENT_3D ( 'NONE', #497, #224, #491 ) ;
#452 = ORIENTED_EDGE ( 'NONE', *, *, #103, .T. ) ;
#453 = AXIS2_PLACEMENT_3D ( 'NONE', #196, #286, #83 ) ;
#454 = ADVANCED_FACE ( 'NONE', ( #488, #11 ), #122, .F. ) ;
#455 = CARTESIAN_POINT ( 'NONE',  ( 158.9499999999999886, 91.09999999999999432, 119.4500000000000028 ) ) ;
#456 = CARTESIAN_POINT ( 'NONE',  ( 110.0000000000000000, 28.00000000000000000, 98.50000000000000000 ) ) ;
#457 = EDGE_CURVE ( 'NONE', #245, #461, #118, .T. ) ;
#458 = ORIENTED_EDGE ( 'NONE', *, *, #17, .T. ) ;
#459 = CARTESIAN_POINT ( 'NONE',  ( 138.0327499999999930, 91.09999999999999432, 98.50000000000000000 ) ) ;
#460 = DIRECTION ( 'NONE',  ( -1.000000000000000000, 0.000000000000000000, 0.000000000000000000 ) ) ;
#461 = VERTEX_POINT ( 'NONE', #601 ) ;
#462 = ORIENTED_EDGE ( 'NONE', *, *, #380, .F. ) ;
#463 = LINE ( 'NONE', #623, #396 ) ;
#464 = CIRCLE ( 'NONE', #517, 8.250000000000014211 ) ;
#465 = ORIENTED_EDGE ( 'NONE', *, *, #583, .T. ) ;
#466 = ORIENTED_EDGE ( 'NONE', *, *, #194, .F. ) ;
#467 = LINE ( 'NONE', #54, #46 ) ;
#468 = EDGE_LOOP ( 'NONE', ( #72, #22, #176, #357 ) ) ;
#469 = EDGE_CURVE ( 'NONE', #572, #55, #69, .T. ) ;
#470 = DIRECTION ( 'NONE',  ( -0.000000000000000000, -0.000000000000000000, 1.000000000000000000 ) ) ;
#471 = DIRECTION ( 'NONE',  ( 1.000000000000000000, 0.000000000000000000, -0.000000000000000000 ) ) ;
#472 = VECTOR ( 'NONE', #269, 1000.000000000000000 ) ;
#473 = APPLICATION_CONTEXT ( 'configuration controlled 3d designs of mechanical parts and assemblies' ) ;
#474 = VERTEX_POINT ( 'NONE', #438 ) ;
#475 = CARTESIAN_POINT ( 'NONE',  ( -85.25000000000000000, 28.00000000000000000, 98.50000000000000000 ) ) ;
#476 = EDGE_CURVE ( 'NONE', #483, #29, #168, .T. ) ;
#477 = CARTESIAN_POINT ( 'NONE',  ( -138.0327499999999930, 91.09999999999999432, 98.50000000000000000 ) ) ;
#478 = DIRECTION ( 'NONE',  ( -1.000000000000000000, 0.000000000000000000, 0.000000000000000000 ) ) ;
#479 = VERTEX_POINT ( 'NONE', #218 ) ;
#480 = CARTESIAN_POINT ( 'NONE',  ( 68.25000000000000000, 28.00000000000000000, 119.4500000000000028 ) ) ;
#481 = EDGE_CURVE ( 'NONE', #572, #278, #608, .T. ) ;
#482 = CARTESIAN_POINT ( 'NONE',  ( -118.0000000000000000, 28.00000000000000000, 124.4500000000000028 ) ) ;
#483 = VERTEX_POINT ( 'NONE', #227 ) ;
#484 = VECTOR ( 'NONE', #63, 1000.000000000000000 ) ;
#485 = CARTESIAN_POINT ( 'NONE',  ( 138.0327499999999930, 3.000000000000000000, 0.000000000000000000 ) ) ;
#486 = CARTESIAN_POINT ( 'NONE',  ( -158.9499999999999886, 0.000000000000000000, 119.4500000000000028 ) ) ;
#487 = LOCAL_TIME ( 21, 50, 43.00000000000000000, #503 ) ;
#488 = FACE_OUTER_BOUND ( 'NONE', #445, .T. ) ;
#489 = ORIENTED_EDGE ( 'NONE', *, *, #400, .F. ) ;
#490 = PLANE ( 'NONE',  #192 ) ;
#491 = DIRECTION ( 'NONE',  ( -1.000000000000000000, 0.000000000000000000, 0.000000000000000000 ) ) ;
#492 = EDGE_LOOP ( 'NONE', ( #448, #622, #427, #163 ) ) ;
#493 = VERTEX_POINT ( 'NONE', #434 ) ;
#494 = CARTESIAN_POINT ( 'NONE',  ( -118.0000000000000000, 28.00000000000000000, 98.50000000000000000 ) ) ;
#495 = CARTESIAN_POINT ( 'NONE',  ( 158.9499999999999886, 91.09999999999999432, 119.4500000000000028 ) ) ;
#496 = CC_DESIGN_PERSON_AND_ORGANIZATION_ASSIGNMENT ( #606, #138, ( #316 ) ) ;
#497 = CARTESIAN_POINT ( 'NONE',  ( -82.00000000000000000, 28.00000000000000000, 124.4500000000000028 ) ) ;
#498 = DATE_AND_TIME ( #126, #371 ) ;
#499 = CARTESIAN_POINT ( 'NONE',  ( -158.9499999999999886, 3.000000000000000000, 119.4500000000000028 ) ) ;
#500 = ADVANCED_FACE ( 'NONE', ( #381 ), #337, .F. ) ;
#501 = VECTOR ( 'NONE', #112, 1000.000000000000000 ) ;
#502 = ORIENTED_EDGE ( 'NONE', *, *, #132, .F. ) ;
#503 = COORDINATED_UNIVERSAL_TIME_OFFSET ( 8, 0, .AHEAD. ) ;
#504 = CARTESIAN_POINT ( 'NONE',  ( 138.0327499999999930, 91.09999999999999432, -98.50000000000000000 ) ) ;
#505 = PERSON_AND_ORGANIZATION ( #520, #610 ) ;
#506 = LINE ( 'NONE', #134, #297 ) ;
#507 = ORIENTED_EDGE ( 'NONE', *, *, #521, .F. ) ;
#508 = ADVANCED_FACE ( 'NONE', ( #288, #653, #20, #341, #293 ), #546, .T. ) ;
#509 = CIRCLE ( 'NONE', #561, 8.250000000000014211 ) ;
#510 = LINE ( 'NONE', #615, #649 ) ;
#511 = VECTOR ( 'NONE', #651, 1000.000000000000000 ) ;
#512 = ORIENTED_EDGE ( 'NONE', *, *, #187, .T. ) ;
#513 = DIRECTION ( 'NONE',  ( 1.000000000000000000, 0.000000000000000000, 0.000000000000000000 ) ) ;
#514 = DIRECTION ( 'NONE',  ( 0.000000000000000000, 0.000000000000000000, -1.000000000000000000 ) ) ;
#515 = ORIENTED_EDGE ( 'NONE', *, *, #400, .T. ) ;
#516 = ORIENTED_EDGE ( 'NONE', *, *, #380, .T. ) ;
#517 = AXIS2_PLACEMENT_3D ( 'NONE', #642, #175, #387 ) ;
#518 = AXIS2_PLACEMENT_3D ( 'NONE', #31, #552, #444 ) ;
#519 = EDGE_LOOP ( 'NONE', ( #410, #241 ) ) ;
#520 = PERSON ( '未指定', '未指定', '未指定', ('未指定'), ('未指定'), ('未指定') ) ;
#521 = EDGE_CURVE ( 'NONE', #159, #43, #49, .T. ) ;
#522 = ORIENTED_EDGE ( 'NONE', *, *, #673, .T. ) ;
#523 = CARTESIAN_POINT ( 'NONE',  ( 110.0000000000000000, 28.00000000000000000, 119.4500000000000028 ) ) ;
#524 = EDGE_CURVE ( 'NONE', #272, #85, #12, .T. ) ;
#525 = ORIENTED_EDGE ( 'NONE', *, *, #664, .T. ) ;
#526 = ADVANCED_FACE ( 'NONE', ( #262 ), #409, .F. ) ;
#527 = LINE ( 'NONE', #5, #267 ) ;
#528 = CLOSED_SHELL ( 'NONE', ( #431, #231, #158, #500, #647, #143, #40, #526, #306, #106, #508, #284, #6, #454, #620, #256, #557, #419, #575 ) ) ;
#529 = AXIS2_PLACEMENT_3D ( 'NONE', #142, #197, #343 ) ;
#530 = ORIENTED_EDGE ( 'NONE', *, *, #117, .F. ) ;
#531 = CARTESIAN_POINT ( 'NONE',  ( 0.000000000000000000, 3.000000000000000000, 98.50000000000000000 ) ) ;
#532 = CYLINDRICAL_SURFACE ( 'NONE', #82, 3.250000000000002665 ) ;
#533 = EDGE_LOOP ( 'NONE', ( #75, #311, #92, #507 ) ) ;
#534 = CARTESIAN_POINT ( 'NONE',  ( -82.00000000000000000, 28.00000000000000000, 98.50000000000000000 ) ) ;
#535 = ORIENTED_EDGE ( 'NONE', *, *, #543, .T. ) ;
#536 = CARTESIAN_POINT ( 'NONE',  ( -158.9499999999999886, 3.000000000000000000, 119.4500000000000028 ) ) ;
#537 = DIRECTION ( 'NONE',  ( -0.000000000000000000, -0.000000000000000000, 1.000000000000000000 ) ) ;
#538 = ORIENTED_EDGE ( 'NONE', *, *, #524, .T. ) ;
#539 = VECTOR ( 'NONE', #537, 1000.000000000000000 ) ;
#540 = DIRECTION ( 'NONE',  ( 0.000000000000000000, 0.000000000000000000, -1.000000000000000000 ) ) ;
#541 = FACE_BOUND ( 'NONE', #519, .T. ) ;
#542 = DIRECTION ( 'NONE',  ( 0.000000000000000000, 0.000000000000000000, -1.000000000000000000 ) ) ;
#543 = EDGE_CURVE ( 'NONE', #55, #153, #58, .T. ) ;
#544 = CARTESIAN_POINT ( 'NONE',  ( 138.0327499999999930, 91.09999999999999432, 98.50000000000000000 ) ) ;
#545 = LINE ( 'NONE', #450, #236 ) ;
#546 = PLANE ( 'NONE',  #626 ) ;
#547 = EDGE_CURVE ( 'NONE', #111, #245, #625, .T. ) ;
#548 = CARTESIAN_POINT ( 'NONE',  ( 110.0000000000000000, 28.00000000000000000, 98.50000000000000000 ) ) ;
#549 = DIRECTION ( 'NONE',  ( -0.000000000000000000, -0.000000000000000000, 1.000000000000000000 ) ) ;
#550 = VERTEX_POINT ( 'NONE', #312 ) ;
#551 = APPROVAL_ROLE ( '' ) ;
#552 = DIRECTION ( 'NONE',  ( 0.000000000000000000, 0.000000000000000000, -1.000000000000000000 ) ) ;
#553 = VECTOR ( 'NONE', #366, 1000.000000000000000 ) ;
#554 = APPROVAL_PERSON_ORGANIZATION ( #27, #617, #551 ) ;
#555 = ORIENTED_EDGE ( 'NONE', *, *, #481, .F. ) ;
#556 = CARTESIAN_POINT ( 'NONE',  ( 51.74999999999998579, 28.00000000000000000, 119.4500000000000028 ) ) ;
#557 = ADVANCED_FACE ( 'NONE', ( #199 ), #406, .F. ) ;
#558 = ORIENTED_EDGE ( 'NONE', *, *, #422, .F. ) ;
#559 = COORDINATED_UNIVERSAL_TIME_OFFSET ( 8, 0, .AHEAD. ) ;
#560 = DIRECTION ( 'NONE',  ( -0.000000000000000000, -1.000000000000000000, -0.000000000000000000 ) ) ;
#561 = AXIS2_PLACEMENT_3D ( 'NONE', #287, #211, #105 ) ;
#562 = VECTOR ( 'NONE', #240, 1000.000000000000000 ) ;
#563 = VERTEX_POINT ( 'NONE', #93 ) ;
#564 = AXIS2_PLACEMENT_3D ( 'NONE', #494, #133, #339 ) ;
#565 = ADVANCED_BREP_SHAPE_REPRESENTATION ( 'FN-ENC-004_open-tray_4PORT-NOMINAL_R0.5', ( #3, #157 ), #251 ) ;
#566 = CARTESIAN_POINT ( 'NONE',  ( -85.25000000000000000, 28.00000000000000000, 124.4500000000000028 ) ) ;
#567 = ORIENTED_EDGE ( 'NONE', *, *, #646, .F. ) ;
#568 = CARTESIAN_POINT ( 'NONE',  ( 60.00000000000000000, 28.00000000000000000, 119.4500000000000028 ) ) ;
#569 = LINE ( 'NONE', #455, #553 ) ;
#570 = DIRECTION ( 'NONE',  ( 0.000000000000000000, 0.000000000000000000, 1.000000000000000000 ) ) ;
#571 = VECTOR ( 'NONE', #634, 1000.000000000000000 ) ;
#572 = VERTEX_POINT ( 'NONE', #45 ) ;
#573 = PLANE ( 'NONE',  #219 ) ;
#574 = EDGE_CURVE ( 'NONE', #675, #147, #259, .T. ) ;
#575 = ADVANCED_FACE ( 'NONE', ( #53 ), #149, .F. ) ;
#576 = ORIENTED_EDGE ( 'NONE', *, *, #379, .T. ) ;
#577 = FACE_OUTER_BOUND ( 'NONE', #435, .T. ) ;
#578 = DIRECTION ( 'NONE',  ( 1.000000000000000000, -0.000000000000000000, 0.000000000000000000 ) ) ;
#579 = CARTESIAN_POINT ( 'NONE',  ( 138.0327499999999930, 3.000000000000030198, -98.50000000000000000 ) ) ;
#580 = DESIGN_CONTEXT ( 'detailed design', #473, 'design' ) ;
#581 = ORIENTED_EDGE ( 'NONE', *, *, #169, .T. ) ;
#582 = CARTESIAN_POINT ( 'NONE',  ( 158.9499999999999886, 91.09999999999999432, -119.4500000000000028 ) ) ;
#583 = EDGE_CURVE ( 'NONE', #88, #588, #463, .T. ) ;
#584 = DIRECTION ( 'NONE',  ( -1.000000000000000000, -0.000000000000000000, -0.000000000000000000 ) ) ;
#585 = EDGE_LOOP ( 'NONE', ( #672, #258, #489, #44 ) ) ;
#586 = FACE_BOUND ( 'NONE', #135, .T. ) ;
#587 = CYLINDRICAL_SURFACE ( 'NONE', #451, 3.250000000000002665 ) ;
#588 = VERTEX_POINT ( 'NONE', #632 ) ;
#589 =( LENGTH_UNIT ( ) NAMED_UNIT ( * ) SI_UNIT ( .MILLI., .METRE. ) );
#590 = CYLINDRICAL_SURFACE ( 'NONE', #416, 8.250000000000014211 ) ;
#591 = APPROVAL ( #177, '未指定' ) ;
#592 = LINE ( 'NONE', #114, #407 ) ;
#593 = VERTEX_POINT ( 'NONE', #215 ) ;
#594 = ORIENTED_EDGE ( 'NONE', *, *, #162, .F. ) ;
#595 = AXIS2_PLACEMENT_3D ( 'NONE', #89, #302, #34 ) ;
#596 = COORDINATED_UNIVERSAL_TIME_OFFSET ( 8, 0, .AHEAD. ) ;
#597 = DIRECTION ( 'NONE',  ( -0.000000000000000000, -0.000000000000000000, 1.000000000000000000 ) ) ;
#598 = DIRECTION ( 'NONE',  ( -1.000000000000000000, 0.000000000000000000, 0.000000000000000000 ) ) ;
#599 = EDGE_CURVE ( 'NONE', #147, #373, #167, .T. ) ;
#600 = CARTESIAN_POINT ( 'NONE',  ( 158.9499999999999886, 0.000000000000000000, 119.4500000000000028 ) ) ;
#601 = CARTESIAN_POINT ( 'NONE',  ( -158.9499999999999886, 91.09999999999999432, 119.4500000000000028 ) ) ;
#602 = APPROVAL_DATE_TIME ( #498, #591 ) ;
#603 = LINE ( 'NONE', #28, #137 ) ;
#604 = CIRCLE ( 'NONE', #294, 3.250000000000002665 ) ;
#605 = EDGE_CURVE ( 'NONE', #643, #593, #160, .T. ) ;
#606 = PERSON_AND_ORGANIZATION ( #520, #610 ) ;
#607 = FACE_OUTER_BOUND ( 'NONE', #355, .T. ) ;
#608 = CIRCLE ( 'NONE', #314, 8.249999999999992895 ) ;
#609 = CC_DESIGN_APPROVAL ( #591, ( #180 ) ) ;
#610 = ORGANIZATION ( '未指定', '未指定', '' ) ;
#611 = ORIENTED_EDGE ( 'NONE', *, *, #48, .T. ) ;
#612 = CALENDAR_DATE ( 2026, 26, 7 ) ;
#613 = DIRECTION ( 'NONE',  ( -1.000000000000000000, 0.000000000000000000, 0.000000000000000000 ) ) ;
#614 = SECURITY_CLASSIFICATION_LEVEL ( 'unclassified' ) ;
#615 = CARTESIAN_POINT ( 'NONE',  ( -138.0327499999999930, 91.09999999999999432, -98.50000000000000000 ) ) ;
#616 = PLANE ( 'NONE',  #322 ) ;
#617 = APPROVAL ( #239, '未指定' ) ;
#618 = DIRECTION ( 'NONE',  ( 0.000000000000000000, 0.000000000000000000, -1.000000000000000000 ) ) ;
#619 = AXIS2_PLACEMENT_3D ( 'NONE', #41, #514, #99 ) ;
#620 = ADVANCED_FACE ( 'NONE', ( #279 ), #9, .F. ) ;
#621 = COORDINATED_UNIVERSAL_TIME_OFFSET ( 8, 0, .AHEAD. ) ;
#622 = ORIENTED_EDGE ( 'NONE', *, *, #481, .T. ) ;
#623 = CARTESIAN_POINT ( 'NONE',  ( -138.0327499999999930, 91.09999999999999432, 98.50000000000000000 ) ) ;
#624 = EDGE_CURVE ( 'NONE', #245, #474, #377, .T. ) ;
#625 = LINE ( 'NONE', #151, #148 ) ;
#626 = AXIS2_PLACEMENT_3D ( 'NONE', #25, #238, #186 ) ;
#627 = EDGE_LOOP ( 'NONE', ( #458, #452, #62, #233 ) ) ;
#628 = CARTESIAN_POINT ( 'NONE',  ( 0.000000000000000000, 3.000000000000000000, 0.000000000000000000 ) ) ;
#629 = ORIENTED_EDGE ( 'NONE', *, *, #129, .F. ) ;
#630 = LINE ( 'NONE', #109, #277 ) ;
#631 = EDGE_LOOP ( 'NONE', ( #166, #104, #249, #225 ) ) ;
#632 = CARTESIAN_POINT ( 'NONE',  ( -138.0327499999999930, 91.09999999999999432, 98.50000000000000000 ) ) ;
#633 = DIRECTION ( 'NONE',  ( 0.000000000000000000, 0.000000000000000000, -1.000000000000000000 ) ) ;
#634 = DIRECTION ( 'NONE',  ( 0.000000000000000000, 0.000000000000000000, -1.000000000000000000 ) ) ;
#635 = CIRCLE ( 'NONE', #156, 3.250000000000002665 ) ;
#636 = ORIENTED_EDGE ( 'NONE', *, *, #356, .T. ) ;
#637 = CARTESIAN_POINT ( 'NONE',  ( -158.9499999999999886, 3.000000000000000000, -119.4500000000000028 ) ) ;
#638 = FACE_BOUND ( 'NONE', #320, .T. ) ;
#639 = FACE_OUTER_BOUND ( 'NONE', #585, .T. ) ;
#640 = ORIENTED_EDGE ( 'NONE', *, *, #367, .F. ) ;
#641 = CARTESIAN_POINT ( 'NONE',  ( -114.7499999999999858, 28.00000000000000000, 124.4500000000000028 ) ) ;
#642 = CARTESIAN_POINT ( 'NONE',  ( 60.00000000000000000, 28.00000000000000000, 119.4500000000000028 ) ) ;
#643 = VERTEX_POINT ( 'NONE', #319 ) ;
#644 = PERSON_AND_ORGANIZATION_ROLE ( 'design_owner' ) ;
#645 = CARTESIAN_POINT ( 'NONE',  ( -78.75000000000000000, 28.00000000000000000, 98.50000000000000000 ) ) ;
#646 = EDGE_CURVE ( 'NONE', #278, #572, #70, .T. ) ;
#647 = ADVANCED_FACE ( 'NONE', ( #577 ), #30, .F. ) ;
#648 = DIRECTION ( 'NONE',  ( 0.000000000000000000, 0.000000000000000000, -1.000000000000000000 ) ) ;
#649 = VECTOR ( 'NONE', #584, 1000.000000000000000 ) ;
#650 = CALENDAR_DATE ( 2026, 26, 7 ) ;
#651 = DIRECTION ( 'NONE',  ( -0.000000000000000000, -1.000000000000000000, -0.000000000000000000 ) ) ;
#652 = APPROVAL_PERSON_ORGANIZATION ( #439, #591, #391 ) ;
#653 = FACE_BOUND ( 'NONE', #209, .T. ) ;
#654 = APPLICATION_PROTOCOL_DEFINITION ( 'international standard', 'config_control_design', 1994, #313 ) ;
#655 = LINE ( 'NONE', #499, #670 ) ;
#656 = ORIENTED_EDGE ( 'NONE', *, *, #308, .T. ) ;
#657 = DATE_AND_TIME ( #242, #487 ) ;
#658 = DIRECTION ( 'NONE',  ( -1.000000000000000000, 0.000000000000000000, 0.000000000000000000 ) ) ;
#659 = ORIENTED_EDGE ( 'NONE', *, *, #68, .F. ) ;
#660 = CARTESIAN_POINT ( 'NONE',  ( -158.9499999999999886, 91.09999999999999432, -119.4500000000000028 ) ) ;
#661 = AXIS2_PLACEMENT_3D ( 'NONE', #128, #542, #74 ) ;
#662 = ORIENTED_EDGE ( 'NONE', *, *, #646, .T. ) ;
#663 = DIRECTION ( 'NONE',  ( -1.000000000000000000, -0.000000000000000000, -0.000000000000000000 ) ) ;
#664 = EDGE_CURVE ( 'NONE', #643, #483, #386, .T. ) ;
#665 = ORIENTED_EDGE ( 'NONE', *, *, #60, .T. ) ;
#666 = DIRECTION ( 'NONE',  ( 0.000000000000000000, 0.000000000000000000, 1.000000000000000000 ) ) ;
#667 = EDGE_CURVE ( 'NONE', #593, #29, #671, .T. ) ;
#668 = PERSON_AND_ORGANIZATION ( #520, #610 ) ;
#669 = ORIENTED_EDGE ( 'NONE', *, *, #37, .F. ) ;
#670 = VECTOR ( 'NONE', #392, 1000.000000000000000 ) ;
#671 = CIRCLE ( 'NONE', #564, 3.250000000000002665 ) ;
#672 = ORIENTED_EDGE ( 'NONE', *, *, #129, .T. ) ;
#673 = EDGE_CURVE ( 'NONE', #153, #55, #271, .T. ) ;
#674 = APPROVAL_STATUS ( 'not_yet_approved' ) ;
#675 = VERTEX_POINT ( 'NONE', #544 ) ;
ENDSEC;
END-ISO-10303-21;
