ISO-10303-21;
HEADER;
FILE_DESCRIPTION (( 'STEP AP203' ),
    '1' );
FILE_NAME ('FN-ENV-002_carrier-installed-height_R0.5.STEP',
    '2026-07-26T13:51:15',
    ( '' ),
    ( '' ),
    'SwSTEP 2.0',
    'SolidWorks 2022',
    '' );
FILE_SCHEMA (( 'CONFIG_CONTROL_DESIGN' ));
ENDSEC;

DATA;
#1 = VERTEX_POINT ( 'NONE', #155 ) ;
#2 = ADVANCED_BREP_SHAPE_REPRESENTATION ( 'FN-ENV-002_carrier-installed-height_R0.5', ( #214, #112 ), #211 ) ;
#3 = ORIENTED_EDGE ( 'NONE', *, *, #123, .T. ) ;
#4 = ADVANCED_FACE ( 'NONE', ( #173 ), #208, .F. ) ;
#5 = CARTESIAN_POINT ( 'NONE',  ( -57.50000000000000000, 0.000000000000000000, 85.00000000000000000 ) ) ;
#6 = ORIENTED_EDGE ( 'NONE', *, *, #54, .F. ) ;
#7 = DIRECTION ( 'NONE',  ( 0.000000000000000000, -1.000000000000000000, 0.000000000000000000 ) ) ;
#8 = LINE ( 'NONE', #143, #147 ) ;
#9 = ADVANCED_FACE ( 'NONE', ( #154 ), #53, .F. ) ;
#10 = CC_DESIGN_PERSON_AND_ORGANIZATION_ASSIGNMENT ( #102, #63, ( #149 ) ) ;
#11 = APPROVAL_STATUS ( 'not_yet_approved' ) ;
#12 = CARTESIAN_POINT ( 'NONE',  ( -57.50000000000000000, 35.00000000000000000, -85.00000000000000000 ) ) ;
#13 = PERSON_AND_ORGANIZATION ( #43, #141 ) ;
#14 = CARTESIAN_POINT ( 'NONE',  ( -57.50000000000000000, 35.00000000000000000, -85.00000000000000000 ) ) ;
#15 = CALENDAR_DATE ( 2026, 26, 7 ) ;
#16 = APPLICATION_PROTOCOL_DEFINITION ( 'international standard', 'config_control_design', 1994, #152 ) ;
#17 = VECTOR ( 'NONE', #216, 1000.000000000000000 ) ;
#18 = ADVANCED_FACE ( 'NONE', ( #179 ), #193, .T. ) ;
#19 = VECTOR ( 'NONE', #220, 1000.000000000000000 ) ;
#20 = APPLICATION_CONTEXT ( 'configuration controlled 3d designs of mechanical parts and assemblies' ) ;
#21 = ORIENTED_EDGE ( 'NONE', *, *, #123, .F. ) ;
#22 = PRODUCT_DEFINITION_SHAPE ( 'NONE', 'NONE',  #81 ) ;
#23 = DIRECTION ( 'NONE',  ( 1.000000000000000000, 0.000000000000000000, 0.000000000000000000 ) ) ;
#24 = CARTESIAN_POINT ( 'NONE',  ( 0.000000000000000000, 0.000000000000000000, 0.000000000000000000 ) ) ;
#25 = EDGE_LOOP ( 'NONE', ( #3, #135, #139, #140 ) ) ;
#26 = CARTESIAN_POINT ( 'NONE',  ( -57.50000000000000000, 35.00000000000000000, 85.00000000000000000 ) ) ;
#27 = CALENDAR_DATE ( 2026, 26, 7 ) ;
#28 = CARTESIAN_POINT ( 'NONE',  ( 57.50000000000000000, 35.00000000000000000, -85.00000000000000000 ) ) ;
#29 = LINE ( 'NONE', #218, #153 ) ;
#30 = CALENDAR_DATE ( 2026, 26, 7 ) ;
#31 = VECTOR ( 'NONE', #101, 1000.000000000000000 ) ;
#32 = LINE ( 'NONE', #127, #19 ) ;
#33 = EDGE_CURVE ( 'NONE', #222, #115, #161, .T. ) ;
#34 = APPROVAL ( #79, '未指定' ) ;
#35 = ORIENTED_EDGE ( 'NONE', *, *, #54, .T. ) ;
#36 = DIRECTION ( 'NONE',  ( 0.000000000000000000, 0.000000000000000000, -1.000000000000000000 ) ) ;
#37 = LINE ( 'NONE', #5, #133 ) ;
#38 = VECTOR ( 'NONE', #55, 1000.000000000000000 ) ;
#39 = LOCAL_TIME ( 21, 51, 15.00000000000000000, #105 ) ;
#40 = ORIENTED_EDGE ( 'NONE', *, *, #200, .F. ) ;
#41 = CC_DESIGN_DATE_AND_TIME_ASSIGNMENT ( #129, #82, ( #81 ) ) ;
#42 = ORIENTED_EDGE ( 'NONE', *, *, #200, .T. ) ;
#43 = PERSON ( '未指定', '未指定', '未指定', ('未指定'), ('未指定'), ('未指定') ) ;
#44 = ORIENTED_EDGE ( 'NONE', *, *, #192, .F. ) ;
#45 = CARTESIAN_POINT ( 'NONE',  ( 57.50000000000000000, 35.00000000000000000, -85.00000000000000000 ) ) ;
#46 = DIRECTION ( 'NONE',  ( -1.000000000000000000, -0.000000000000000000, -0.000000000000000000 ) ) ;
#47 = DATE_AND_TIME ( #30, #181 ) ;
#48 = PLANE ( 'NONE',  #86 ) ;
#49 = VECTOR ( 'NONE', #46, 1000.000000000000000 ) ;
#50 = SECURITY_CLASSIFICATION_LEVEL ( 'unclassified' ) ;
#51 = PERSON_AND_ORGANIZATION ( #43, #141 ) ;
#52 = ADVANCED_FACE ( 'NONE', ( #95 ), #96, .F. ) ;
#53 = PLANE ( 'NONE',  #148 ) ;
#54 = EDGE_CURVE ( 'NONE', #1, #222, #37, .T. ) ;
#55 = DIRECTION ( 'NONE',  ( -0.000000000000000000, -1.000000000000000000, -0.000000000000000000 ) ) ;
#56 = EDGE_CURVE ( 'NONE', #194, #1, #71, .T. ) ;
#57 = EDGE_LOOP ( 'NONE', ( #6, #90, #21, #177 ) ) ;
#58 = ORIENTED_EDGE ( 'NONE', *, *, #56, .F. ) ;
#59 = VERTEX_POINT ( 'NONE', #157 ) ;
#60 = DIRECTION ( 'NONE',  ( -0.000000000000000000, -1.000000000000000000, -0.000000000000000000 ) ) ;
#61 = AXIS2_PLACEMENT_3D ( 'NONE', #24, #7, #74 ) ;
#62 = VECTOR ( 'NONE', #201, 1000.000000000000000 ) ;
#63 = PERSON_AND_ORGANIZATION_ROLE ( 'design_supplier' ) ;
#64 = PERSON_AND_ORGANIZATION_ROLE ( 'classification_officer' ) ;
#65 =( LENGTH_UNIT ( ) NAMED_UNIT ( * ) SI_UNIT ( .MILLI., .METRE. ) );
#66 = VECTOR ( 'NONE', #60, 1000.000000000000000 ) ;
#67 = DIRECTION ( 'NONE',  ( -0.000000000000000000, -0.000000000000000000, 1.000000000000000000 ) ) ;
#68 = SECURITY_CLASSIFICATION ( '', '', #50 ) ;
#69 = ORIENTED_EDGE ( 'NONE', *, *, #33, .T. ) ;
#70 = APPLICATION_PROTOCOL_DEFINITION ( 'international standard', 'config_control_design', 1994, #20 ) ;
#71 = LINE ( 'NONE', #72, #38 ) ;
#72 = CARTESIAN_POINT ( 'NONE',  ( -57.50000000000000000, 35.00000000000000000, -85.00000000000000000 ) ) ;
#73 = EDGE_CURVE ( 'NONE', #224, #178, #225, .T. ) ;
#74 = DIRECTION ( 'NONE',  ( 0.000000000000000000, -0.000000000000000000, -1.000000000000000000 ) ) ;
#75 = CARTESIAN_POINT ( 'NONE',  ( -57.50000000000000000, 0.000000000000000000, -85.00000000000000000 ) ) ;
#76 = DATE_AND_TIME ( #183, #39 ) ;
#77 =( NAMED_UNIT ( * ) PLANE_ANGLE_UNIT ( ) SI_UNIT ( $, .RADIAN. ) );
#78 = LOCAL_TIME ( 21, 51, 15.00000000000000000, #137 ) ;
#79 = APPROVAL_STATUS ( 'not_yet_approved' ) ;
#80 = CARTESIAN_POINT ( 'NONE',  ( 57.50000000000000000, 35.00000000000000000, 85.00000000000000000 ) ) ;
#81 = PRODUCT_DEFINITION ( '未知', '', #149, #204 ) ;
#82 = DATE_TIME_ROLE ( 'creation_date' ) ;
#83 = CARTESIAN_POINT ( 'NONE',  ( -57.50000000000000000, 35.00000000000000000, 85.00000000000000000 ) ) ;
#84 = PERSON_AND_ORGANIZATION ( #43, #141 ) ;
#85 = CARTESIAN_POINT ( 'NONE',  ( -57.50000000000000000, 35.00000000000000000, 85.00000000000000000 ) ) ;
#86 = AXIS2_PLACEMENT_3D ( 'NONE', #12, #165, #124 ) ;
#87 = DATE_AND_TIME ( #15, #164 ) ;
#88 = UNCERTAINTY_MEASURE_WITH_UNIT (LENGTH_MEASURE( 1.000000000000000082E-05 ), #65, 'distance_accuracy_value', 'NONE');
#89 = ORIENTED_EDGE ( 'NONE', *, *, #73, .T. ) ;
#90 = ORIENTED_EDGE ( 'NONE', *, *, #172, .F. ) ;
#91 = VECTOR ( 'NONE', #23, 1000.000000000000000 ) ;
#92 = APPROVAL ( #11, '未指定' ) ;
#93 = APPROVAL_PERSON_ORGANIZATION ( #219, #34, #212 ) ;
#94 = PRODUCT ( 'FN-ENV-002_carrier-installed-height_R0.5', 'FN-ENV-002_carrier-installed-height_R0.5', '', ( #203 ) ) ;
#95 = FACE_OUTER_BOUND ( 'NONE', #209, .T. ) ;
#96 = PLANE ( 'NONE',  #231 ) ;
#97 = ORIENTED_EDGE ( 'NONE', *, *, #226, .T. ) ;
#98 = PERSON_AND_ORGANIZATION ( #43, #141 ) ;
#99 = CARTESIAN_POINT ( 'NONE',  ( 0.000000000000000000, 35.00000000000000000, 0.000000000000000000 ) ) ;
#100 = DATE_AND_TIME ( #27, #78 ) ;
#101 = DIRECTION ( 'NONE',  ( 1.000000000000000000, 0.000000000000000000, 0.000000000000000000 ) ) ;
#102 = PERSON_AND_ORGANIZATION ( #43, #141 ) ;
#103 = EDGE_CURVE ( 'NONE', #178, #115, #8, .T. ) ;
#104 = CC_DESIGN_PERSON_AND_ORGANIZATION_ASSIGNMENT ( #111, #119, ( #94 ) ) ;
#105 = COORDINATED_UNIVERSAL_TIME_OFFSET ( 8, 0, .AHEAD. ) ;
#106 =( NAMED_UNIT ( * ) SI_UNIT ( $, .STERADIAN. ) SOLID_ANGLE_UNIT ( ) );
#107 = CC_DESIGN_APPROVAL ( #34, ( #149 ) ) ;
#108 = FACE_OUTER_BOUND ( 'NONE', #25, .T. ) ;
#109 = APPROVAL_DATE_TIME ( #47, #92 ) ;
#110 = DIRECTION ( 'NONE',  ( 0.000000000000000000, 0.000000000000000000, 1.000000000000000000 ) ) ;
#111 = PERSON_AND_ORGANIZATION ( #43, #141 ) ;
#112 = AXIS2_PLACEMENT_3D ( 'NONE', #130, #110, #185 ) ;
#113 = CC_DESIGN_SECURITY_CLASSIFICATION ( #68, ( #149 ) ) ;
#114 = DIRECTION ( 'NONE',  ( 0.000000000000000000, -0.000000000000000000, -1.000000000000000000 ) ) ;
#115 = VERTEX_POINT ( 'NONE', #180 ) ;
#116 = APPROVAL_PERSON_ORGANIZATION ( #51, #92, #168 ) ;
#117 = ORIENTED_EDGE ( 'NONE', *, *, #191, .T. ) ;
#118 = EDGE_LOOP ( 'NONE', ( #35, #40, #151, #228 ) ) ;
#119 = PERSON_AND_ORGANIZATION_ROLE ( 'design_owner' ) ;
#120 = DIRECTION ( 'NONE',  ( 1.000000000000000000, -0.000000000000000000, 0.000000000000000000 ) ) ;
#121 = CLOSED_SHELL ( 'NONE', ( #4, #52, #158, #169, #9, #18 ) ) ;
#122 = DIRECTION ( 'NONE',  ( -1.000000000000000000, 0.000000000000000000, 0.000000000000000000 ) ) ;
#123 = EDGE_CURVE ( 'NONE', #115, #59, #32, .T. ) ;
#124 = DIRECTION ( 'NONE',  ( 1.000000000000000000, 0.000000000000000000, -0.000000000000000000 ) ) ;
#125 = CC_DESIGN_DATE_AND_TIME_ASSIGNMENT ( #76, #215, ( #68 ) ) ;
#126 = SHAPE_DEFINITION_REPRESENTATION ( #22, #2 ) ;
#127 = CARTESIAN_POINT ( 'NONE',  ( 57.50000000000000000, 0.000000000000000000, 85.00000000000000000 ) ) ;
#128 = EDGE_CURVE ( 'NONE', #194, #224, #197, .T. ) ;
#129 = DATE_AND_TIME ( #202, #205 ) ;
#130 = CARTESIAN_POINT ( 'NONE',  ( 0.000000000000000000, 0.000000000000000000, 0.000000000000000000 ) ) ;
#131 = PERSON_AND_ORGANIZATION ( #43, #141 ) ;
#132 = LINE ( 'NONE', #198, #17 ) ;
#133 = VECTOR ( 'NONE', #175, 1000.000000000000000 ) ;
#134 = DIRECTION ( 'NONE',  ( 0.000000000000000000, -1.000000000000000000, 0.000000000000000000 ) ) ;
#135 = ORIENTED_EDGE ( 'NONE', *, *, #191, .F. ) ;
#136 = AXIS2_PLACEMENT_3D ( 'NONE', #26, #120, #195 ) ;
#137 = COORDINATED_UNIVERSAL_TIME_OFFSET ( 8, 0, .AHEAD. ) ;
#138 = CARTESIAN_POINT ( 'NONE',  ( -57.50000000000000000, 35.00000000000000000, 85.00000000000000000 ) ) ;
#139 = ORIENTED_EDGE ( 'NONE', *, *, #226, .F. ) ;
#140 = ORIENTED_EDGE ( 'NONE', *, *, #103, .T. ) ;
#141 = ORGANIZATION ( '未指定', '未指定', '' ) ;
#142 = PERSON_AND_ORGANIZATION_ROLE ( 'creator' ) ;
#143 = CARTESIAN_POINT ( 'NONE',  ( 57.50000000000000000, 35.00000000000000000, 85.00000000000000000 ) ) ;
#144 = APPROVAL_DATE_TIME ( #87, #34 ) ;
#145 = COORDINATED_UNIVERSAL_TIME_OFFSET ( 8, 0, .AHEAD. ) ;
#146 = DIRECTION ( 'NONE',  ( -0.000000000000000000, -1.000000000000000000, -0.000000000000000000 ) ) ;
#147 = VECTOR ( 'NONE', #146, 1000.000000000000000 ) ;
#148 = AXIS2_PLACEMENT_3D ( 'NONE', #99, #134, #114 ) ;
#149 = PRODUCT_DEFINITION_FORMATION_WITH_SPECIFIED_SOURCE ( '任何', '', #94, .NOT_KNOWN. ) ;
#150 = CC_DESIGN_PERSON_AND_ORGANIZATION_ASSIGNMENT ( #131, #142, ( #81 ) ) ;
#151 = ORIENTED_EDGE ( 'NONE', *, *, #128, .F. ) ;
#152 = APPLICATION_CONTEXT ( 'configuration controlled 3d designs of mechanical parts and assemblies' ) ;
#153 = VECTOR ( 'NONE', #234, 1000.000000000000000 ) ;
#154 = FACE_OUTER_BOUND ( 'NONE', #223, .T. ) ;
#155 = CARTESIAN_POINT ( 'NONE',  ( -57.50000000000000000, 0.000000000000000000, -85.00000000000000000 ) ) ;
#156 = APPROVAL_ROLE ( '' ) ;
#157 = CARTESIAN_POINT ( 'NONE',  ( 57.50000000000000000, 0.000000000000000000, -85.00000000000000000 ) ) ;
#158 = ADVANCED_FACE ( 'NONE', ( #108 ), #213, .F. ) ;
#159 = VECTOR ( 'NONE', #67, 1000.000000000000000 ) ;
#160 = ORIENTED_EDGE ( 'NONE', *, *, #128, .T. ) ;
#161 = LINE ( 'NONE', #229, #91 ) ;
#162 = APPROVAL_DATE_TIME ( #100, #170 ) ;
#163 = CARTESIAN_POINT ( 'NONE',  ( 57.50000000000000000, 35.00000000000000000, 85.00000000000000000 ) ) ;
#164 = LOCAL_TIME ( 21, 51, 15.00000000000000000, #232 ) ;
#165 = DIRECTION ( 'NONE',  ( 0.000000000000000000, 0.000000000000000000, 1.000000000000000000 ) ) ;
#166 = CARTESIAN_POINT ( 'NONE',  ( -57.50000000000000000, 35.00000000000000000, -85.00000000000000000 ) ) ;
#167 = FACE_OUTER_BOUND ( 'NONE', #237, .T. ) ;
#168 = APPROVAL_ROLE ( '' ) ;
#169 = ADVANCED_FACE ( 'NONE', ( #167 ), #48, .F. ) ;
#170 = APPROVAL ( #196, '未指定' ) ;
#171 = ORIENTED_EDGE ( 'NONE', *, *, #192, .T. ) ;
#172 = EDGE_CURVE ( 'NONE', #59, #1, #233, .T. ) ;
#173 = FACE_OUTER_BOUND ( 'NONE', #118, .T. ) ;
#174 = APPROVAL_PERSON_ORGANIZATION ( #98, #170, #156 ) ;
#175 = DIRECTION ( 'NONE',  ( -0.000000000000000000, -0.000000000000000000, 1.000000000000000000 ) ) ;
#176 = CC_DESIGN_PERSON_AND_ORGANIZATION_ASSIGNMENT ( #13, #64, ( #68 ) ) ;
#177 = ORIENTED_EDGE ( 'NONE', *, *, #33, .F. ) ;
#178 = VERTEX_POINT ( 'NONE', #163 ) ;
#179 = FACE_OUTER_BOUND ( 'NONE', #57, .T. ) ;
#180 = CARTESIAN_POINT ( 'NONE',  ( 57.50000000000000000, 0.000000000000000000, 85.00000000000000000 ) ) ;
#181 = LOCAL_TIME ( 21, 51, 15.00000000000000000, #145 ) ;
#182 = PERSON_AND_ORGANIZATION_ROLE ( 'creator' ) ;
#183 = CALENDAR_DATE ( 2026, 26, 7 ) ;
#184 = LINE ( 'NONE', #166, #49 ) ;
#185 = DIRECTION ( 'NONE',  ( 1.000000000000000000, 0.000000000000000000, 0.000000000000000000 ) ) ;
#186 = COORDINATED_UNIVERSAL_TIME_OFFSET ( 8, 0, .AHEAD. ) ;
#187 = AXIS2_PLACEMENT_3D ( 'NONE', #80, #122, #210 ) ;
#188 = ORIENTED_EDGE ( 'NONE', *, *, #73, .F. ) ;
#189 = ORIENTED_EDGE ( 'NONE', *, *, #103, .F. ) ;
#190 = VERTEX_POINT ( 'NONE', #28 ) ;
#191 = EDGE_CURVE ( 'NONE', #190, #59, #230, .T. ) ;
#192 = EDGE_CURVE ( 'NONE', #190, #194, #184, .T. ) ;
#193 = PLANE ( 'NONE',  #61 ) ;
#194 = VERTEX_POINT ( 'NONE', #14 ) ;
#195 = DIRECTION ( 'NONE',  ( 0.000000000000000000, 0.000000000000000000, -1.000000000000000000 ) ) ;
#196 = APPROVAL_STATUS ( 'not_yet_approved' ) ;
#197 = LINE ( 'NONE', #85, #159 ) ;
#198 = CARTESIAN_POINT ( 'NONE',  ( -57.50000000000000000, 35.00000000000000000, 85.00000000000000000 ) ) ;
#199 = CARTESIAN_POINT ( 'NONE',  ( -57.50000000000000000, 0.000000000000000000, 85.00000000000000000 ) ) ;
#200 = EDGE_CURVE ( 'NONE', #224, #222, #132, .T. ) ;
#201 = DIRECTION ( 'NONE',  ( -1.000000000000000000, -0.000000000000000000, -0.000000000000000000 ) ) ;
#202 = CALENDAR_DATE ( 2026, 26, 7 ) ;
#203 = MECHANICAL_CONTEXT ( 'NONE', #152, 'mechanical' ) ;
#204 = DESIGN_CONTEXT ( 'detailed design', #20, 'design' ) ;
#205 = LOCAL_TIME ( 21, 51, 15.00000000000000000, #186 ) ;
#206 = ORIENTED_EDGE ( 'NONE', *, *, #172, .T. ) ;
#207 = DIRECTION ( 'NONE',  ( -1.000000000000000000, 0.000000000000000000, -0.000000000000000000 ) ) ;
#208 = PLANE ( 'NONE',  #136 ) ;
#209 = EDGE_LOOP ( 'NONE', ( #69, #189, #188, #42 ) ) ;
#210 = DIRECTION ( 'NONE',  ( 0.000000000000000000, 0.000000000000000000, 1.000000000000000000 ) ) ;
#211 =( GEOMETRIC_REPRESENTATION_CONTEXT ( 3 ) GLOBAL_UNCERTAINTY_ASSIGNED_CONTEXT ( ( #88 ) ) GLOBAL_UNIT_ASSIGNED_CONTEXT ( ( #65, #77, #106 ) ) REPRESENTATION_CONTEXT ( 'NONE', 'WORKASPACE' ) );
#212 = APPROVAL_ROLE ( '' ) ;
#213 = PLANE ( 'NONE',  #187 ) ;
#214 = MANIFOLD_SOLID_BREP ( '凸台-拉伸1', #121 ) ;
#215 = DATE_TIME_ROLE ( 'classification_date' ) ;
#216 = DIRECTION ( 'NONE',  ( -0.000000000000000000, -1.000000000000000000, -0.000000000000000000 ) ) ;
#217 = CC_DESIGN_PERSON_AND_ORGANIZATION_ASSIGNMENT ( #84, #182, ( #149 ) ) ;
#218 = CARTESIAN_POINT ( 'NONE',  ( 57.50000000000000000, 35.00000000000000000, 85.00000000000000000 ) ) ;
#219 = PERSON_AND_ORGANIZATION ( #43, #141 ) ;
#220 = DIRECTION ( 'NONE',  ( 0.000000000000000000, 0.000000000000000000, -1.000000000000000000 ) ) ;
#221 = CC_DESIGN_APPROVAL ( #170, ( #81 ) ) ;
#222 = VERTEX_POINT ( 'NONE', #199 ) ;
#223 = EDGE_LOOP ( 'NONE', ( #160, #89, #97, #171 ) ) ;
#224 = VERTEX_POINT ( 'NONE', #83 ) ;
#225 = LINE ( 'NONE', #235, #31 ) ;
#226 = EDGE_CURVE ( 'NONE', #178, #190, #29, .T. ) ;
#227 = CC_DESIGN_APPROVAL ( #92, ( #68 ) ) ;
#228 = ORIENTED_EDGE ( 'NONE', *, *, #56, .T. ) ;
#229 = CARTESIAN_POINT ( 'NONE',  ( -57.50000000000000000, 0.000000000000000000, 85.00000000000000000 ) ) ;
#230 = LINE ( 'NONE', #45, #66 ) ;
#231 = AXIS2_PLACEMENT_3D ( 'NONE', #138, #36, #207 ) ;
#232 = COORDINATED_UNIVERSAL_TIME_OFFSET ( 8, 0, .AHEAD. ) ;
#233 = LINE ( 'NONE', #75, #62 ) ;
#234 = DIRECTION ( 'NONE',  ( 0.000000000000000000, 0.000000000000000000, -1.000000000000000000 ) ) ;
#235 = CARTESIAN_POINT ( 'NONE',  ( -57.50000000000000000, 35.00000000000000000, 85.00000000000000000 ) ) ;
#236 = PRODUCT_RELATED_PRODUCT_CATEGORY ( 'detail', '', ( #94 ) ) ;
#237 = EDGE_LOOP ( 'NONE', ( #206, #58, #44, #117 ) ) ;
ENDSEC;
END-ISO-10303-21;
