ISO-10303-21;
HEADER;
FILE_DESCRIPTION (( 'STEP AP203' ),
    '1' );
FILE_NAME ('FN-HAR-014_W6-soil-rs485_R0.5.STEP',
    '2026-07-26T13:53:42',
    ( '' ),
    ( '' ),
    'SwSTEP 2.0',
    'SolidWorks 2022',
    '' );
FILE_SCHEMA (( 'CONFIG_CONTROL_DESIGN' ));
ENDSEC;

DATA;
#1 = ORIENTED_EDGE ( 'NONE', *, *, #335, .F. ) ;
#2 = DIRECTION ( 'NONE',  ( -1.000000000000000000, 0.000000000000000000, -0.000000000000000000 ) ) ;
#3 = VERTEX_POINT ( 'NONE', #525 ) ;
#4 = VECTOR ( 'NONE', #453, 1000.000000000000000 ) ;
#5 = CC_DESIGN_APPROVAL ( #379, ( #307 ) ) ;
#6 = APPLICATION_PROTOCOL_DEFINITION ( 'international standard', 'config_control_design', 1994, #424 ) ;
#7 = DIRECTION ( 'NONE',  ( 0.000000000000000000, 0.000000000000000000, 1.000000000000000000 ) ) ;
#8 = CARTESIAN_POINT ( 'NONE',  ( -24.25000000000000000, 2.500000000000000000, -79.00000000000000000 ) ) ;
#9 = EDGE_CURVE ( 'NONE', #269, #39, #438, .T. ) ;
#10 = APPROVAL_STATUS ( 'not_yet_approved' ) ;
#11 = CARTESIAN_POINT ( 'NONE',  ( 35.75000000000000000, 2.500000000000000000, 83.00000000000000000 ) ) ;
#12 = SECURITY_CLASSIFICATION_LEVEL ( 'unclassified' ) ;
#13 = VECTOR ( 'NONE', #358, 1000.000000000000000 ) ;
#14 = CARTESIAN_POINT ( 'NONE',  ( -20.25000000000000000, 2.500000000000000000, 66.00000000000000000 ) ) ;
#15 = EDGE_CURVE ( 'NONE', #63, #505, #479, .T. ) ;
#16 = PERSON_AND_ORGANIZATION_ROLE ( 'creator' ) ;
#17 =( NAMED_UNIT ( * ) SI_UNIT ( $, .STERADIAN. ) SOLID_ANGLE_UNIT ( ) );
#18 = DIRECTION ( 'NONE',  ( 0.000000000000000000, -1.000000000000000000, 0.000000000000000000 ) ) ;
#19 = LINE ( 'NONE', #414, #504 ) ;
#20 = EDGE_LOOP ( 'NONE', ( #45, #80, #243, #105 ) ) ;
#21 = LINE ( 'NONE', #273, #145 ) ;
#22 = VECTOR ( 'NONE', #492, 1000.000000000000000 ) ;
#23 = CARTESIAN_POINT ( 'NONE',  ( -24.25000000000000000, 2.500000000000000000, -72.00000000000000000 ) ) ;
#24 = ORIENTED_EDGE ( 'NONE', *, *, #531, .T. ) ;
#25 = DIRECTION ( 'NONE',  ( 1.000000000000000000, -0.000000000000000000, 0.000000000000000000 ) ) ;
#26 = EDGE_CURVE ( 'NONE', #63, #29, #304, .T. ) ;
#27 = ORIENTED_EDGE ( 'NONE', *, *, #328, .T. ) ;
#28 = CARTESIAN_POINT ( 'NONE',  ( -16.25000000000000000, 2.500000000000000000, 66.00000000000000000 ) ) ;
#29 = VERTEX_POINT ( 'NONE', #416 ) ;
#30 = CARTESIAN_POINT ( 'NONE',  ( -20.25000000000000000, 0.000000000000000000, 66.00000000000000000 ) ) ;
#31 = AXIS2_PLACEMENT_3D ( 'NONE', #154, #151, #374 ) ;
#32 = ADVANCED_FACE ( 'NONE', ( #506 ), #214, .F. ) ;
#33 = VERTEX_POINT ( 'NONE', #484 ) ;
#34 = PERSON ( '未指定', '未指定', '未指定', ('未指定'), ('未指定'), ('未指定') ) ;
#35 = LINE ( 'NONE', #469, #524 ) ;
#36 = ORIENTED_EDGE ( 'NONE', *, *, #172, .T. ) ;
#37 = CC_DESIGN_PERSON_AND_ORGANIZATION_ASSIGNMENT ( #266, #16, ( #307 ) ) ;
#38 = CARTESIAN_POINT ( 'NONE',  ( -20.25000000000000000, 2.500000000000000000, 66.00000000000000000 ) ) ;
#39 = VERTEX_POINT ( 'NONE', #263 ) ;
#40 = PLANE ( 'NONE',  #349 ) ;
#41 = EDGE_CURVE ( 'NONE', #458, #389, #500, .T. ) ;
#42 = VECTOR ( 'NONE', #292, 1000.000000000000000 ) ;
#43 = ORIENTED_EDGE ( 'NONE', *, *, #462, .T. ) ;
#44 = CARTESIAN_POINT ( 'NONE',  ( 0.000000000000000000, 0.000000000000000000, 0.000000000000000000 ) ) ;
#45 = ORIENTED_EDGE ( 'NONE', *, *, #26, .F. ) ;
#46 = FACE_OUTER_BOUND ( 'NONE', #88, .T. ) ;
#47 = DESIGN_CONTEXT ( 'detailed design', #424, 'design' ) ;
#48 = CALENDAR_DATE ( 2026, 26, 7 ) ;
#49 = EDGE_LOOP ( 'NONE', ( #543, #293, #496, #368 ) ) ;
#50 = LINE ( 'NONE', #401, #450 ) ;
#51 = EDGE_CURVE ( 'NONE', #249, #455, #109, .T. ) ;
#52 = DIRECTION ( 'NONE',  ( 0.000000000000000000, -1.000000000000000000, 0.000000000000000000 ) ) ;
#53 = CALENDAR_DATE ( 2026, 26, 7 ) ;
#54 = DIRECTION ( 'NONE',  ( 0.000000000000000000, 0.000000000000000000, -1.000000000000000000 ) ) ;
#55 = APPROVAL_DATE_TIME ( #221, #118 ) ;
#56 = CARTESIAN_POINT ( 'NONE',  ( -39.75000000000000000, 2.500000000000000000, -79.00000000000000000 ) ) ;
#57 = EDGE_CURVE ( 'NONE', #473, #269, #158, .T. ) ;
#58 = AXIS2_PLACEMENT_3D ( 'NONE', #135, #52, #222 ) ;
#59 = CARTESIAN_POINT ( 'NONE',  ( 0.000000000000000000, 0.000000000000000000, 0.000000000000000000 ) ) ;
#60 = CARTESIAN_POINT ( 'NONE',  ( 35.75000000000000000, 0.000000000000000000, 62.00000000000000000 ) ) ;
#61 = CC_DESIGN_DATE_AND_TIME_ASSIGNMENT ( #91, #184, ( #307 ) ) ;
#62 = FACE_OUTER_BOUND ( 'NONE', #119, .T. ) ;
#63 = VERTEX_POINT ( 'NONE', #112 ) ;
#64 = DIRECTION ( 'NONE',  ( 1.000000000000000000, 0.000000000000000000, 0.000000000000000000 ) ) ;
#65 = FACE_OUTER_BOUND ( 'NONE', #286, .T. ) ;
#66 = ORIENTED_EDGE ( 'NONE', *, *, #114, .F. ) ;
#67 = ADVANCED_FACE ( 'NONE', ( #274 ), #280, .F. ) ;
#68 = CARTESIAN_POINT ( 'NONE',  ( 35.75000000000000000, 0.000000000000000000, 83.00000000000000000 ) ) ;
#69 = AXIS2_PLACEMENT_3D ( 'NONE', #188, #544, #456 ) ;
#70 = LINE ( 'NONE', #231, #432 ) ;
#71 = ORIENTED_EDGE ( 'NONE', *, *, #531, .F. ) ;
#72 = CARTESIAN_POINT ( 'NONE',  ( 35.75000000000000000, 2.500000000000000000, 66.00000000000000000 ) ) ;
#73 = LINE ( 'NONE', #459, #242 ) ;
#74 = ORIENTED_EDGE ( 'NONE', *, *, #99, .F. ) ;
#75 = PLANE ( 'NONE',  #157 ) ;
#76 = CC_DESIGN_PERSON_AND_ORGANIZATION_ASSIGNMENT ( #141, #218, ( #134 ) ) ;
#77 = VERTEX_POINT ( 'NONE', #463 ) ;
#78 = LINE ( 'NONE', #168, #532 ) ;
#79 = VECTOR ( 'NONE', #173, 1000.000000000000000 ) ;
#80 = ORIENTED_EDGE ( 'NONE', *, *, #15, .T. ) ;
#81 = DIRECTION ( 'NONE',  ( 0.000000000000000000, 0.000000000000000000, -1.000000000000000000 ) ) ;
#82 = EDGE_LOOP ( 'NONE', ( #558, #339, #325, #413 ) ) ;
#83 = EDGE_CURVE ( 'NONE', #29, #201, #195, .T. ) ;
#84 = FACE_OUTER_BOUND ( 'NONE', #159, .T. ) ;
#85 = LINE ( 'NONE', #341, #262 ) ;
#86 = VECTOR ( 'NONE', #236, 1000.000000000000000 ) ;
#87 = VECTOR ( 'NONE', #177, 1000.000000000000000 ) ;
#88 = EDGE_LOOP ( 'NONE', ( #36, #313, #343, #363 ) ) ;
#89 = CARTESIAN_POINT ( 'NONE',  ( -39.75000000000000000, 2.500000000000000000, -79.00000000000000000 ) ) ;
#90 = ORIENTED_EDGE ( 'NONE', *, *, #564, .F. ) ;
#91 = DATE_AND_TIME ( #176, #322 ) ;
#92 = ORIENTED_EDGE ( 'NONE', *, *, #138, .F. ) ;
#93 = CARTESIAN_POINT ( 'NONE',  ( -24.25000000000000000, 2.500000000000000000, -72.00000000000000000 ) ) ;
#94 = DIRECTION ( 'NONE',  ( 0.000000000000000000, 0.000000000000000000, 1.000000000000000000 ) ) ;
#95 = CARTESIAN_POINT ( 'NONE',  ( -24.25000000000000000, 2.500000000000000000, -72.00000000000000000 ) ) ;
#96 = VECTOR ( 'NONE', #208, 1000.000000000000000 ) ;
#97 = PLANE ( 'NONE',  #130 ) ;
#98 = SHAPE_DEFINITION_REPRESENTATION ( #312, #420 ) ;
#99 = EDGE_CURVE ( 'NONE', #473, #373, #73, .T. ) ;
#100 = FACE_OUTER_BOUND ( 'NONE', #194, .T. ) ;
#101 = APPROVAL_STATUS ( 'not_yet_approved' ) ;
#102 = MECHANICAL_CONTEXT ( 'NONE', #160, 'mechanical' ) ;
#103 =( LENGTH_UNIT ( ) NAMED_UNIT ( * ) SI_UNIT ( .MILLI., .METRE. ) );
#104 = DIRECTION ( 'NONE',  ( -0.000000000000000000, -0.000000000000000000, 1.000000000000000000 ) ) ;
#105 = ORIENTED_EDGE ( 'NONE', *, *, #83, .F. ) ;
#106 = CARTESIAN_POINT ( 'NONE',  ( -24.25000000000000000, 2.500000000000000000, -83.00000000000000000 ) ) ;
#107 = EDGE_CURVE ( 'NONE', #373, #376, #226, .T. ) ;
#108 = ORIENTED_EDGE ( 'NONE', *, *, #392, .F. ) ;
#109 = LINE ( 'NONE', #198, #422 ) ;
#110 = ORIENTED_EDGE ( 'NONE', *, *, #203, .F. ) ;
#111 = VECTOR ( 'NONE', #202, 1000.000000000000000 ) ;
#112 = CARTESIAN_POINT ( 'NONE',  ( 35.74999999999999289, 0.000000000000000000, 66.00000000000000000 ) ) ;
#113 = ORIENTED_EDGE ( 'NONE', *, *, #501, .T. ) ;
#114 = EDGE_CURVE ( 'NONE', #389, #373, #417, .T. ) ;
#115 = CARTESIAN_POINT ( 'NONE',  ( -16.25000000000000000, 0.000000000000000000, 66.00000000000000000 ) ) ;
#116 = ORIENTED_EDGE ( 'NONE', *, *, #51, .T. ) ;
#117 = CARTESIAN_POINT ( 'NONE',  ( 39.75000000000000000, 2.500000000000000000, 83.00000000000000000 ) ) ;
#118 = APPROVAL ( #491, '未指定' ) ;
#119 = EDGE_LOOP ( 'NONE', ( #90, #347, #199, #43 ) ) ;
#120 = DIRECTION ( 'NONE',  ( 0.000000000000000000, 0.000000000000000000, -1.000000000000000000 ) ) ;
#121 = VECTOR ( 'NONE', #104, 1000.000000000000000 ) ;
#122 = ORIENTED_EDGE ( 'NONE', *, *, #57, .F. ) ;
#123 = CARTESIAN_POINT ( 'NONE',  ( -16.25000000000000000, 0.000000000000000000, -76.00000000000000000 ) ) ;
#124 = EDGE_CURVE ( 'NONE', #371, #567, #239, .T. ) ;
#125 = ORIENTED_EDGE ( 'NONE', *, *, #235, .T. ) ;
#126 = FACE_OUTER_BOUND ( 'NONE', #20, .T. ) ;
#127 = CARTESIAN_POINT ( 'NONE',  ( -20.25000000000000000, 0.000000000000000000, -83.00000000000000000 ) ) ;
#128 = VECTOR ( 'NONE', #548, 1000.000000000000000 ) ;
#129 = ORIENTED_EDGE ( 'NONE', *, *, #392, .T. ) ;
#130 = AXIS2_PLACEMENT_3D ( 'NONE', #299, #394, #7 ) ;
#131 = DIRECTION ( 'NONE',  ( -1.000000000000000000, -0.000000000000000000, -0.000000000000000000 ) ) ;
#132 = CARTESIAN_POINT ( 'NONE',  ( -16.25000000000000000, 2.500000000000000000, 62.00000000000000000 ) ) ;
#133 = ADVANCED_FACE ( 'NONE', ( #62 ), #405, .F. ) ;
#134 = PRODUCT ( 'FN-HAR-014_W6-soil-rs485_R0.5', 'FN-HAR-014_W6-soil-rs485_R0.5', '', ( #102 ) ) ;
#135 = CARTESIAN_POINT ( 'NONE',  ( 0.000000000000000000, 2.500000000000000000, 0.000000000000000000 ) ) ;
#136 = FACE_OUTER_BOUND ( 'NONE', #515, .T. ) ;
#137 = VECTOR ( 'NONE', #551, 1000.000000000000000 ) ;
#138 = EDGE_CURVE ( 'NONE', #517, #502, #70, .T. ) ;
#139 = LINE ( 'NONE', #95, #441 ) ;
#140 = PLANE ( 'NONE',  #493 ) ;
#141 = PERSON_AND_ORGANIZATION ( #34, #244 ) ;
#142 = LINE ( 'NONE', #192, #223 ) ;
#143 = DIRECTION ( 'NONE',  ( -0.000000000000000000, -0.000000000000000000, 1.000000000000000000 ) ) ;
#144 = VECTOR ( 'NONE', #316, 1000.000000000000000 ) ;
#145 = VECTOR ( 'NONE', #364, 1000.000000000000000 ) ;
#146 = DIRECTION ( 'NONE',  ( 1.000000000000000000, 0.000000000000000000, 0.000000000000000000 ) ) ;
#147 = CARTESIAN_POINT ( 'NONE',  ( -24.25000000000000000, 0.000000000000000000, -79.00000000000000000 ) ) ;
#148 = EDGE_CURVE ( 'NONE', #332, #473, #503, .T. ) ;
#149 = ORIENTED_EDGE ( 'NONE', *, *, #187, .T. ) ;
#150 = LINE ( 'NONE', #68, #383 ) ;
#151 = DIRECTION ( 'NONE',  ( -1.000000000000000000, 0.000000000000000000, 0.000000000000000000 ) ) ;
#152 = CC_DESIGN_PERSON_AND_ORGANIZATION_ASSIGNMENT ( #178, #400, ( #340 ) ) ;
#153 = VERTEX_POINT ( 'NONE', #323 ) ;
#154 = CARTESIAN_POINT ( 'NONE',  ( -20.25000000000000000, 2.500000000000000000, -72.00000000000000000 ) ) ;
#155 = EDGE_CURVE ( 'NONE', #39, #33, #362, .T. ) ;
#156 = ORIENTED_EDGE ( 'NONE', *, *, #107, .T. ) ;
#157 = AXIS2_PLACEMENT_3D ( 'NONE', #387, #248, #554 ) ;
#158 = LINE ( 'NONE', #28, #128 ) ;
#159 = EDGE_LOOP ( 'NONE', ( #461, #27, #171, #388 ) ) ;
#160 = APPLICATION_CONTEXT ( 'configuration controlled 3d designs of mechanical parts and assemblies' ) ;
#161 = CARTESIAN_POINT ( 'NONE',  ( -16.25000000000000000, 2.500000000000000000, -76.00000000000000000 ) ) ;
#162 = ORIENTED_EDGE ( 'NONE', *, *, #409, .T. ) ;
#163 = DIRECTION ( 'NONE',  ( -0.000000000000000000, -0.000000000000000000, 1.000000000000000000 ) ) ;
#164 = CARTESIAN_POINT ( 'NONE',  ( -20.25000000000000000, 2.500000000000000000, -71.99999999999998579 ) ) ;
#165 = VECTOR ( 'NONE', #372, 1000.000000000000000 ) ;
#166 = EDGE_CURVE ( 'NONE', #391, #63, #411, .T. ) ;
#167 = CARTESIAN_POINT ( 'NONE',  ( 35.75000000000000000, 0.000000000000000000, 83.00000000000000000 ) ) ;
#168 = CARTESIAN_POINT ( 'NONE',  ( -24.25000000000000000, 2.500000000000000000, -72.00000000000000000 ) ) ;
#169 = DIRECTION ( 'NONE',  ( 1.000000000000000000, 0.000000000000000000, 0.000000000000000000 ) ) ;
#170 = ORIENTED_EDGE ( 'NONE', *, *, #335, .T. ) ;
#171 = ORIENTED_EDGE ( 'NONE', *, *, #357, .F. ) ;
#172 = EDGE_CURVE ( 'NONE', #234, #517, #19, .T. ) ;
#173 = DIRECTION ( 'NONE',  ( 0.000000000000000000, 1.000000000000000000, 0.000000000000000000 ) ) ;
#174 = APPROVAL_ROLE ( '' ) ;
#175 = CARTESIAN_POINT ( 'NONE',  ( 39.75000000000000000, 0.000000000000000000, 83.00000000000000000 ) ) ;
#176 = CALENDAR_DATE ( 2026, 26, 7 ) ;
#177 = DIRECTION ( 'NONE',  ( -0.000000000000000000, -1.000000000000000000, -0.000000000000000000 ) ) ;
#178 = PERSON_AND_ORGANIZATION ( #34, #244 ) ;
#179 = CARTESIAN_POINT ( 'NONE',  ( -39.75000000000000000, 0.000000000000000000, -79.00000000000000000 ) ) ;
#180 = APPROVAL ( #101, '未指定' ) ;
#181 = VECTOR ( 'NONE', #366, 1000.000000000000000 ) ;
#182 = CALENDAR_DATE ( 2026, 26, 7 ) ;
#183 = CARTESIAN_POINT ( 'NONE',  ( -20.25000000000000000, 0.000000000000000000, -72.00000000000000000 ) ) ;
#184 = DATE_TIME_ROLE ( 'creation_date' ) ;
#185 = FACE_OUTER_BOUND ( 'NONE', #229, .T. ) ;
#186 = DIRECTION ( 'NONE',  ( -0.000000000000000000, -0.000000000000000000, 1.000000000000000000 ) ) ;
#187 = EDGE_CURVE ( 'NONE', #451, #29, #193, .T. ) ;
#188 = CARTESIAN_POINT ( 'NONE',  ( -20.25000000000000000, 2.500000000000000000, -76.00000000000000000 ) ) ;
#189 = CARTESIAN_POINT ( 'NONE',  ( 35.75000000000000000, 2.500000000000000000, 62.00000000000000000 ) ) ;
#190 = VECTOR ( 'NONE', #311, 1000.000000000000000 ) ;
#191 = ORIENTED_EDGE ( 'NONE', *, *, #196, .T. ) ;
#192 = CARTESIAN_POINT ( 'NONE',  ( -39.75000000000000000, 2.500000000000000000, -83.00000000000000000 ) ) ;
#193 = LINE ( 'NONE', #369, #181 ) ;
#194 = EDGE_LOOP ( 'NONE', ( #329, #125, #508, #522 ) ) ;
#195 = LINE ( 'NONE', #407, #523 ) ;
#196 = EDGE_CURVE ( 'NONE', #567, #3, #539, .T. ) ;
#197 = ORIENTED_EDGE ( 'NONE', *, *, #512, .T. ) ;
#198 = CARTESIAN_POINT ( 'NONE',  ( -24.25000000000000000, 2.500000000000000000, -72.00000000000000000 ) ) ;
#199 = ORIENTED_EDGE ( 'NONE', *, *, #155, .T. ) ;
#200 = DIRECTION ( 'NONE',  ( -1.000000000000000000, 0.000000000000000000, -0.000000000000000000 ) ) ;
#201 = VERTEX_POINT ( 'NONE', #542 ) ;
#202 = DIRECTION ( 'NONE',  ( -0.000000000000000000, -1.000000000000000000, -0.000000000000000000 ) ) ;
#203 = EDGE_CURVE ( 'NONE', #207, #77, #321, .T. ) ;
#204 = DIRECTION ( 'NONE',  ( -0.000000000000000000, -1.000000000000000000, -0.000000000000000000 ) ) ;
#205 = ORIENTED_EDGE ( 'NONE', *, *, #166, .F. ) ;
#206 = CARTESIAN_POINT ( 'NONE',  ( -39.75000000000000000, 0.000000000000000000, -79.00000000000000000 ) ) ;
#207 = VERTEX_POINT ( 'NONE', #147 ) ;
#208 = DIRECTION ( 'NONE',  ( -0.000000000000000000, -0.000000000000000000, 1.000000000000000000 ) ) ;
#209 = ORIENTED_EDGE ( 'NONE', *, *, #328, .F. ) ;
#210 = ADVANCED_FACE ( 'NONE', ( #65 ), #40, .F. ) ;
#211 = ORIENTED_EDGE ( 'NONE', *, *, #83, .T. ) ;
#212 = FACE_OUTER_BOUND ( 'NONE', #536, .T. ) ;
#213 = ORIENTED_EDGE ( 'NONE', *, *, #370, .F. ) ;
#214 = PLANE ( 'NONE',  #289 ) ;
#215 = DIRECTION ( 'NONE',  ( 0.000000000000000000, 0.000000000000000000, -1.000000000000000000 ) ) ;
#216 = VECTOR ( 'NONE', #217, 1000.000000000000000 ) ;
#217 = DIRECTION ( 'NONE',  ( 1.000000000000000000, 0.000000000000000000, 0.000000000000000000 ) ) ;
#218 = PERSON_AND_ORGANIZATION_ROLE ( 'design_owner' ) ;
#219 = PLANE ( 'NONE',  #460 ) ;
#220 = ADVANCED_FACE ( 'NONE', ( #84 ), #521, .F. ) ;
#221 = DATE_AND_TIME ( #53, #552 ) ;
#222 = DIRECTION ( 'NONE',  ( 0.000000000000000000, -0.000000000000000000, -1.000000000000000000 ) ) ;
#223 = VECTOR ( 'NONE', #230, 1000.000000000000000 ) ;
#224 = CALENDAR_DATE ( 2026, 26, 7 ) ;
#225 = DIRECTION ( 'NONE',  ( 0.000000000000000000, 0.000000000000000000, 1.000000000000000000 ) ) ;
#226 = LINE ( 'NONE', #115, #4 ) ;
#227 = ORIENTED_EDGE ( 'NONE', *, *, #9, .T. ) ;
#228 = CARTESIAN_POINT ( 'NONE',  ( -20.25000000000000000, 2.500000000000000000, -76.00000000000000000 ) ) ;
#229 = EDGE_LOOP ( 'NONE', ( #334, #476, #386, #360 ) ) ;
#230 = DIRECTION ( 'NONE',  ( -0.000000000000000000, -1.000000000000000000, -0.000000000000000000 ) ) ;
#231 = CARTESIAN_POINT ( 'NONE',  ( -39.75000000000000000, 0.000000000000000000, -79.00000000000000000 ) ) ;
#232 = VECTOR ( 'NONE', #215, 1000.000000000000000 ) ;
#233 = CC_DESIGN_APPROVAL ( #118, ( #340 ) ) ;
#234 = VERTEX_POINT ( 'NONE', #127 ) ;
#235 = EDGE_CURVE ( 'NONE', #153, #237, #85, .T. ) ;
#236 = DIRECTION ( 'NONE',  ( -1.000000000000000000, -0.000000000000000000, -0.000000000000000000 ) ) ;
#237 = VERTEX_POINT ( 'NONE', #164 ) ;
#238 = DIRECTION ( 'NONE',  ( 0.000000000000000000, 1.000000000000000000, 0.000000000000000000 ) ) ;
#239 = LINE ( 'NONE', #106, #393 ) ;
#240 = ORIENTED_EDGE ( 'NONE', *, *, #57, .T. ) ;
#241 = LINE ( 'NONE', #557, #252 ) ;
#242 = VECTOR ( 'NONE', #18, 1000.000000000000000 ) ;
#243 = ORIENTED_EDGE ( 'NONE', *, *, #501, .F. ) ;
#244 = ORGANIZATION ( '未指定', '未指定', '' ) ;
#245 = CARTESIAN_POINT ( 'NONE',  ( 39.75000000000000000, 0.000000000000000000, 62.00000000000000000 ) ) ;
#246 = UNCERTAINTY_MEASURE_WITH_UNIT (LENGTH_MEASURE( 1.000000000000000082E-05 ), #103, 'distance_accuracy_value', 'NONE');
#247 = EDGE_CURVE ( 'NONE', #237, #451, #518, .T. ) ;
#248 = DIRECTION ( 'NONE',  ( 1.000000000000000000, -0.000000000000000000, 0.000000000000000000 ) ) ;
#249 = VERTEX_POINT ( 'NONE', #465 ) ;
#250 = DIRECTION ( 'NONE',  ( -1.000000000000000000, -0.000000000000000000, -0.000000000000000000 ) ) ;
#251 = CARTESIAN_POINT ( 'NONE',  ( -20.25000000000000000, 2.500000000000000000, 66.00000000000000000 ) ) ;
#252 = VECTOR ( 'NONE', #163, 1000.000000000000000 ) ;
#253 = ADVANCED_FACE ( 'NONE', ( #126 ), #75, .F. ) ;
#254 = ORIENTED_EDGE ( 'NONE', *, *, #489, .T. ) ;
#255 = DIRECTION ( 'NONE',  ( -1.000000000000000000, 0.000000000000000000, -0.000000000000000000 ) ) ;
#256 = DATE_TIME_ROLE ( 'classification_date' ) ;
#257 = ORIENTED_EDGE ( 'NONE', *, *, #148, .T. ) ;
#258 = LINE ( 'NONE', #8, #79 ) ;
#259 = ORIENTED_EDGE ( 'NONE', *, *, #196, .F. ) ;
#260 = PERSON_AND_ORGANIZATION ( #34, #244 ) ;
#261 = LINE ( 'NONE', #183, #13 ) ;
#262 = VECTOR ( 'NONE', #430, 1000.000000000000000 ) ;
#263 = CARTESIAN_POINT ( 'NONE',  ( -20.25000000000000000, 2.500000000000000000, -76.00000000000000000 ) ) ;
#264 = COORDINATED_UNIVERSAL_TIME_OFFSET ( 8, 0, .AHEAD. ) ;
#265 = PLANE ( 'NONE',  #560 ) ;
#266 = PERSON_AND_ORGANIZATION ( #34, #244 ) ;
#267 = LINE ( 'NONE', #390, #232 ) ;
#268 = DATE_AND_TIME ( #48, #526 ) ;
#269 = VERTEX_POINT ( 'NONE', #161 ) ;
#270 = CARTESIAN_POINT ( 'NONE',  ( -39.75000000000000000, 0.000000000000000000, -83.00000000000000000 ) ) ;
#271 = ADVANCED_FACE ( 'NONE', ( #381 ), #377, .T. ) ;
#272 = AXIS2_PLACEMENT_3D ( 'NONE', #89, #54, #255 ) ;
#273 = CARTESIAN_POINT ( 'NONE',  ( 39.75000000000000000, 2.500000000000000000, 83.00000000000000000 ) ) ;
#274 = FACE_OUTER_BOUND ( 'NONE', #337, .T. ) ;
#275 = CC_DESIGN_DATE_AND_TIME_ASSIGNMENT ( #317, #256, ( #443 ) ) ;
#276 = ORIENTED_EDGE ( 'NONE', *, *, #314, .F. ) ;
#277 = PLANE ( 'NONE',  #69 ) ;
#278 = DIRECTION ( 'NONE',  ( -0.000000000000000000, -0.000000000000000000, 1.000000000000000000 ) ) ;
#279 = ORIENTED_EDGE ( 'NONE', *, *, #537, .T. ) ;
#280 = PLANE ( 'NONE',  #449 ) ;
#281 = ORIENTED_EDGE ( 'NONE', *, *, #172, .F. ) ;
#282 = CC_DESIGN_PERSON_AND_ORGANIZATION_ASSIGNMENT ( #444, #448, ( #443 ) ) ;
#283 = DIRECTION ( 'NONE',  ( -0.000000000000000000, -0.000000000000000000, 1.000000000000000000 ) ) ;
#284 = ORIENTED_EDGE ( 'NONE', *, *, #489, .F. ) ;
#285 = DIRECTION ( 'NONE',  ( 0.000000000000000000, 0.000000000000000000, -1.000000000000000000 ) ) ;
#286 = EDGE_LOOP ( 'NONE', ( #24, #415, #471, #113 ) ) ;
#287 = DIRECTION ( 'NONE',  ( 1.000000000000000000, 0.000000000000000000, 0.000000000000000000 ) ) ;
#288 = EDGE_CURVE ( 'NONE', #300, #458, #338, .T. ) ;
#289 = AXIS2_PLACEMENT_3D ( 'NONE', #303, #481, #94 ) ;
#290 = ORIENTED_EDGE ( 'NONE', *, *, #124, .T. ) ;
#291 = AXIS2_PLACEMENT_3D ( 'NONE', #251, #425, #81 ) ;
#292 = DIRECTION ( 'NONE',  ( -0.000000000000000000, -1.000000000000000000, -0.000000000000000000 ) ) ;
#293 = ORIENTED_EDGE ( 'NONE', *, *, #546, .F. ) ;
#294 = CARTESIAN_POINT ( 'NONE',  ( 39.75000000000000000, 2.500000000000000000, 62.00000000000000000 ) ) ;
#295 = EDGE_CURVE ( 'NONE', #269, #376, #516, .T. ) ;
#296 = LINE ( 'NONE', #474, #402 ) ;
#297 = CLOSED_SHELL ( 'NONE', ( #67, #520, #220, #495, #253, #210, #470, #399, #271, #478, #32, #429, #133, #436, #418, #556 ) ) ;
#298 = VECTOR ( 'NONE', #143, 1000.000000000000000 ) ;
#299 = CARTESIAN_POINT ( 'NONE',  ( 39.75000000000000000, 2.500000000000000000, 83.00000000000000000 ) ) ;
#300 = VERTEX_POINT ( 'NONE', #509 ) ;
#301 = ORIENTED_EDGE ( 'NONE', *, *, #114, .T. ) ;
#302 = DIRECTION ( 'NONE',  ( 0.000000000000000000, 0.000000000000000000, 1.000000000000000000 ) ) ;
#303 = CARTESIAN_POINT ( 'NONE',  ( -16.25000000000000000, 2.500000000000000000, 66.00000000000000000 ) ) ;
#304 = LINE ( 'NONE', #72, #365 ) ;
#305 = COORDINATED_UNIVERSAL_TIME_OFFSET ( 8, 0, .AHEAD. ) ;
#306 = DIRECTION ( 'NONE',  ( 0.000000000000000000, 0.000000000000000000, 1.000000000000000000 ) ) ;
#307 = PRODUCT_DEFINITION ( '未知', '', #340, #47 ) ;
#308 = DIRECTION ( 'NONE',  ( -1.000000000000000000, 0.000000000000000000, -0.000000000000000000 ) ) ;
#309 = VECTOR ( 'NONE', #204, 1000.000000000000000 ) ;
#310 = COORDINATED_UNIVERSAL_TIME_OFFSET ( 8, 0, .AHEAD. ) ;
#311 = DIRECTION ( 'NONE',  ( 1.000000000000000000, 0.000000000000000000, 0.000000000000000000 ) ) ;
#312 = PRODUCT_DEFINITION_SHAPE ( 'NONE', 'NONE',  #307 ) ;
#313 = ORIENTED_EDGE ( 'NONE', *, *, #537, .F. ) ;
#314 = EDGE_CURVE ( 'NONE', #376, #33, #35, .T. ) ;
#315 = CARTESIAN_POINT ( 'NONE',  ( -39.75000000000000000, 2.500000000000000000, -79.00000000000000000 ) ) ;
#316 = DIRECTION ( 'NONE',  ( -0.000000000000000000, -0.000000000000000000, 1.000000000000000000 ) ) ;
#317 = DATE_AND_TIME ( #182, #403 ) ;
#318 = ORIENTED_EDGE ( 'NONE', *, *, #41, .F. ) ;
#319 = FACE_OUTER_BOUND ( 'NONE', #547, .T. ) ;
#320 = VECTOR ( 'NONE', #131, 1000.000000000000000 ) ;
#321 = LINE ( 'NONE', #494, #121 ) ;
#322 = LOCAL_TIME ( 21, 53, 42.00000000000000000, #397 ) ;
#323 = CARTESIAN_POINT ( 'NONE',  ( -20.25000000000000000, 0.000000000000000000, -72.00000000000000000 ) ) ;
#324 = MANIFOLD_SOLID_BREP ( '凸台-拉伸6', #297 ) ;
#325 = ORIENTED_EDGE ( 'NONE', *, *, #187, .F. ) ;
#326 =( NAMED_UNIT ( * ) PLANE_ANGLE_UNIT ( ) SI_UNIT ( $, .RADIAN. ) );
#327 = CARTESIAN_POINT ( 'NONE',  ( 39.75000000000000000, 0.000000000000000000, 83.00000000000000000 ) ) ;
#328 = EDGE_CURVE ( 'NONE', #153, #391, #241, .T. ) ;
#329 = ORIENTED_EDGE ( 'NONE', *, *, #370, .T. ) ;
#330 = DIRECTION ( 'NONE',  ( 0.000000000000000000, -1.000000000000000000, 0.000000000000000000 ) ) ;
#331 = AXIS2_PLACEMENT_3D ( 'NONE', #352, #302, #490 ) ;
#332 = VERTEX_POINT ( 'NONE', #294 ) ;
#333 = DIRECTION ( 'NONE',  ( -1.000000000000000000, -0.000000000000000000, -0.000000000000000000 ) ) ;
#334 = ORIENTED_EDGE ( 'NONE', *, *, #155, .F. ) ;
#335 = EDGE_CURVE ( 'NONE', #502, #207, #421, .T. ) ;
#336 = DIRECTION ( 'NONE',  ( -0.000000000000000000, -1.000000000000000000, -0.000000000000000000 ) ) ;
#337 = EDGE_LOOP ( 'NONE', ( #284, #428, #464, #348 ) ) ;
#338 = LINE ( 'NONE', #117, #42 ) ;
#339 = ORIENTED_EDGE ( 'NONE', *, *, #26, .T. ) ;
#340 = PRODUCT_DEFINITION_FORMATION_WITH_SPECIFIED_SOURCE ( '任何', '', #134, .NOT_KNOWN. ) ;
#341 = CARTESIAN_POINT ( 'NONE',  ( -20.25000000000000000, 2.500000000000000000, -72.00000000000001421 ) ) ;
#342 = EDGE_CURVE ( 'NONE', #332, #389, #566, .T. ) ;
#343 = ORIENTED_EDGE ( 'NONE', *, *, #124, .F. ) ;
#344 = LINE ( 'NONE', #38, #309 ) ;
#345 = ORIENTED_EDGE ( 'NONE', *, *, #462, .F. ) ;
#346 = CARTESIAN_POINT ( 'NONE',  ( -16.25000000000000000, 0.000000000000000000, 62.00000000000000000 ) ) ;
#347 = ORIENTED_EDGE ( 'NONE', *, *, #445, .F. ) ;
#348 = ORIENTED_EDGE ( 'NONE', *, *, #51, .F. ) ;
#349 = AXIS2_PLACEMENT_3D ( 'NONE', #559, #120, #200 ) ;
#350 = FACE_OUTER_BOUND ( 'NONE', #550, .T. ) ;
#351 = PERSON_AND_ORGANIZATION ( #34, #244 ) ;
#352 = CARTESIAN_POINT ( 'NONE',  ( 35.75000000000000000, 2.500000000000000000, 62.00000000000000000 ) ) ;
#353 = EDGE_CURVE ( 'NONE', #455, #237, #78, .T. ) ;
#354 = LINE ( 'NONE', #533, #190 ) ;
#355 = CARTESIAN_POINT ( 'NONE',  ( 35.75000000000000000, 0.000000000000000000, 83.00000000000000000 ) ) ;
#356 = VECTOR ( 'NONE', #336, 1000.000000000000000 ) ;
#357 = EDGE_CURVE ( 'NONE', #451, #391, #344, .T. ) ;
#358 = DIRECTION ( 'NONE',  ( 0.000000000000000000, 0.000000000000000000, -1.000000000000000000 ) ) ;
#359 = APPROVAL_ROLE ( '' ) ;
#360 = ORIENTED_EDGE ( 'NONE', *, *, #314, .T. ) ;
#361 = DIRECTION ( 'NONE',  ( 0.000000000000000000, 0.000000000000000000, -1.000000000000000000 ) ) ;
#362 = LINE ( 'NONE', #228, #367 ) ;
#363 = ORIENTED_EDGE ( 'NONE', *, *, #564, .T. ) ;
#364 = DIRECTION ( 'NONE',  ( 0.000000000000000000, 0.000000000000000000, -1.000000000000000000 ) ) ;
#365 = VECTOR ( 'NONE', #238, 1000.000000000000000 ) ;
#366 = DIRECTION ( 'NONE',  ( 1.000000000000000000, 0.000000000000000000, 0.000000000000000000 ) ) ;
#367 = VECTOR ( 'NONE', #330, 1000.000000000000000 ) ;
#368 = ORIENTED_EDGE ( 'NONE', *, *, #41, .T. ) ;
#369 = CARTESIAN_POINT ( 'NONE',  ( -20.25000000000000000, 2.500000000000000000, 66.00000000000000000 ) ) ;
#370 = EDGE_CURVE ( 'NONE', #77, #153, #296, .T. ) ;
#371 = VERTEX_POINT ( 'NONE', #380 ) ;
#372 = DIRECTION ( 'NONE',  ( -1.000000000000000000, -0.000000000000000000, -0.000000000000000000 ) ) ;
#373 = VERTEX_POINT ( 'NONE', #346 ) ;
#374 = DIRECTION ( 'NONE',  ( 0.000000000000000000, 0.000000000000000000, 1.000000000000000000 ) ) ;
#375 = AXIS2_PLACEMENT_3D ( 'NONE', #439, #530, #308 ) ;
#376 = VERTEX_POINT ( 'NONE', #123 ) ;
#377 = PLANE ( 'NONE',  #412 ) ;
#378 = ORIENTED_EDGE ( 'NONE', *, *, #247, .T. ) ;
#379 = APPROVAL ( #10, '未指定' ) ;
#380 = CARTESIAN_POINT ( 'NONE',  ( -20.25000000000000000, 2.500000000000000000, -83.00000000000000000 ) ) ;
#381 = FACE_OUTER_BOUND ( 'NONE', #434, .T. ) ;
#382 = VECTOR ( 'NONE', #497, 1000.000000000000000 ) ;
#383 = VECTOR ( 'NONE', #64, 1000.000000000000000 ) ;
#384 = CC_DESIGN_APPROVAL ( #180, ( #443 ) ) ;
#385 = CARTESIAN_POINT ( 'NONE',  ( 39.75000000000000000, 2.500000000000000000, 62.00000000000000000 ) ) ;
#386 = ORIENTED_EDGE ( 'NONE', *, *, #295, .T. ) ;
#387 = CARTESIAN_POINT ( 'NONE',  ( 35.75000000000000000, 2.500000000000000000, 83.00000000000000000 ) ) ;
#388 = ORIENTED_EDGE ( 'NONE', *, *, #247, .F. ) ;
#389 = VERTEX_POINT ( 'NONE', #245 ) ;
#390 = CARTESIAN_POINT ( 'NONE',  ( -20.25000000000000000, 2.500000000000000000, -72.00000000000000000 ) ) ;
#391 = VERTEX_POINT ( 'NONE', #30 ) ;
#392 = EDGE_CURVE ( 'NONE', #3, #249, #472, .T. ) ;
#393 = VECTOR ( 'NONE', #545, 1000.000000000000000 ) ;
#394 = DIRECTION ( 'NONE',  ( -1.000000000000000000, 0.000000000000000000, 0.000000000000000000 ) ) ;
#395 = APPROVAL_PERSON_ORGANIZATION ( #440, #180, #437 ) ;
#396 = FACE_OUTER_BOUND ( 'NONE', #82, .T. ) ;
#397 = COORDINATED_UNIVERSAL_TIME_OFFSET ( 8, 0, .AHEAD. ) ;
#398 = CARTESIAN_POINT ( 'NONE',  ( -20.25000000000000000, 2.500000000000000000, 66.00000000000000000 ) ) ;
#399 = ADVANCED_FACE ( 'NONE', ( #136 ), #442, .F. ) ;
#400 = PERSON_AND_ORGANIZATION_ROLE ( 'design_supplier' ) ;
#401 = CARTESIAN_POINT ( 'NONE',  ( -39.75000000000000000, 2.500000000000000000, -79.00000000000000000 ) ) ;
#402 = VECTOR ( 'NONE', #169, 1000.000000000000000 ) ;
#403 = LOCAL_TIME ( 21, 53, 42.00000000000000000, #305 ) ;
#404 = DATE_AND_TIME ( #224, #513 ) ;
#405 = PLANE ( 'NONE',  #31 ) ;
#406 = APPLICATION_PROTOCOL_DEFINITION ( 'international standard', 'config_control_design', 1994, #160 ) ;
#407 = CARTESIAN_POINT ( 'NONE',  ( 35.75000000000000000, 2.500000000000000000, 83.00000000000000000 ) ) ;
#408 = ORIENTED_EDGE ( 'NONE', *, *, #107, .F. ) ;
#409 = EDGE_CURVE ( 'NONE', #3, #502, #50, .T. ) ;
#410 = CARTESIAN_POINT ( 'NONE',  ( -39.75000000000000000, 2.500000000000000000, -83.00000000000000000 ) ) ;
#411 = LINE ( 'NONE', #457, #137 ) ;
#412 = AXIS2_PLACEMENT_3D ( 'NONE', #44, #427, #563 ) ;
#413 = ORIENTED_EDGE ( 'NONE', *, *, #357, .T. ) ;
#414 = CARTESIAN_POINT ( 'NONE',  ( -24.25000000000000000, 0.000000000000000000, -83.00000000000000000 ) ) ;
#415 = ORIENTED_EDGE ( 'NONE', *, *, #288, .F. ) ;
#416 = CARTESIAN_POINT ( 'NONE',  ( 35.75000000000000000, 2.500000000000000000, 66.00000000000000000 ) ) ;
#417 = LINE ( 'NONE', #60, #165 ) ;
#418 = ADVANCED_FACE ( 'NONE', ( #212 ), #435, .F. ) ;
#419 = ORIENTED_EDGE ( 'NONE', *, *, #138, .T. ) ;
#420 = ADVANCED_BREP_SHAPE_REPRESENTATION ( 'FN-HAR-014_W6-soil-rs485_R0.5', ( #324, #468 ), #475 ) ;
#421 = LINE ( 'NONE', #206, #486 ) ;
#422 = VECTOR ( 'NONE', #283, 1000.000000000000000 ) ;
#423 = ORIENTED_EDGE ( 'NONE', *, *, #445, .T. ) ;
#424 = APPLICATION_CONTEXT ( 'configuration controlled 3d designs of mechanical parts and assemblies' ) ;
#425 = DIRECTION ( 'NONE',  ( 1.000000000000000000, -0.000000000000000000, 0.000000000000000000 ) ) ;
#426 = ORIENTED_EDGE ( 'NONE', *, *, #546, .T. ) ;
#427 = DIRECTION ( 'NONE',  ( 0.000000000000000000, -1.000000000000000000, 0.000000000000000000 ) ) ;
#428 = ORIENTED_EDGE ( 'NONE', *, *, #203, .T. ) ;
#429 = ADVANCED_FACE ( 'NONE', ( #100 ), #447, .F. ) ;
#430 = DIRECTION ( 'NONE',  ( 0.000000000000000000, 1.000000000000000000, 0.000000000000000000 ) ) ;
#431 = ORIENTED_EDGE ( 'NONE', *, *, #15, .F. ) ;
#432 = VECTOR ( 'NONE', #186, 1000.000000000000000 ) ;
#433 = CARTESIAN_POINT ( 'NONE',  ( -20.25000000000000000, 2.500000000000000000, 66.00000000000000000 ) ) ;
#434 = EDGE_LOOP ( 'NONE', ( #281, #345, #276, #408, #66, #318, #71, #431, #205, #209, #213, #110, #1, #92 ) ) ;
#435 = PLANE ( 'NONE',  #272 ) ;
#436 = ADVANCED_FACE ( 'NONE', ( #46 ), #219, .F. ) ;
#437 = APPROVAL_ROLE ( '' ) ;
#438 = LINE ( 'NONE', #562, #320 ) ;
#439 = CARTESIAN_POINT ( 'NONE',  ( -24.25000000000000000, 2.500000000000000000, -72.00000000000000000 ) ) ;
#440 = PERSON_AND_ORGANIZATION ( #34, #244 ) ;
#441 = VECTOR ( 'NONE', #487, 1000.000000000000000 ) ;
#442 = PLANE ( 'NONE',  #58 ) ;
#443 = SECURITY_CLASSIFICATION ( '', '', #12 ) ;
#444 = PERSON_AND_ORGANIZATION ( #34, #244 ) ;
#445 = EDGE_CURVE ( 'NONE', #39, #371, #267, .T. ) ;
#446 = DIRECTION ( 'NONE',  ( -0.000000000000000000, -1.000000000000000000, -0.000000000000000000 ) ) ;
#447 = PLANE ( 'NONE',  #375 ) ;
#448 = PERSON_AND_ORGANIZATION_ROLE ( 'classification_officer' ) ;
#449 = AXIS2_PLACEMENT_3D ( 'NONE', #23, #25, #285 ) ;
#450 = VECTOR ( 'NONE', #446, 1000.000000000000000 ) ;
#451 = VERTEX_POINT ( 'NONE', #14 ) ;
#452 = DIRECTION ( 'NONE',  ( 1.000000000000000000, -0.000000000000000000, 0.000000000000000000 ) ) ;
#453 = DIRECTION ( 'NONE',  ( 0.000000000000000000, 0.000000000000000000, -1.000000000000000000 ) ) ;
#454 = EDGE_CURVE ( 'NONE', #455, #77, #139, .T. ) ;
#455 = VERTEX_POINT ( 'NONE', #93 ) ;
#456 = DIRECTION ( 'NONE',  ( 1.000000000000000000, 0.000000000000000000, -0.000000000000000000 ) ) ;
#457 = CARTESIAN_POINT ( 'NONE',  ( -20.25000000000000000, 0.000000000000000000, 66.00000000000000000 ) ) ;
#458 = VERTEX_POINT ( 'NONE', #175 ) ;
#459 = CARTESIAN_POINT ( 'NONE',  ( -16.25000000000000000, 2.500000000000000000, 62.00000000000000000 ) ) ;
#460 = AXIS2_PLACEMENT_3D ( 'NONE', #528, #306, #483 ) ;
#461 = ORIENTED_EDGE ( 'NONE', *, *, #235, .F. ) ;
#462 = EDGE_CURVE ( 'NONE', #33, #234, #261, .T. ) ;
#463 = CARTESIAN_POINT ( 'NONE',  ( -24.25000000000000000, 0.000000000000000000, -72.00000000000000000 ) ) ;
#464 = ORIENTED_EDGE ( 'NONE', *, *, #454, .F. ) ;
#465 = CARTESIAN_POINT ( 'NONE',  ( -24.25000000000000000, 2.500000000000000000, -79.00000000000000000 ) ) ;
#466 = ORIENTED_EDGE ( 'NONE', *, *, #409, .F. ) ;
#467 = CARTESIAN_POINT ( 'NONE',  ( -16.25000000000000000, 2.500000000000000000, -76.00000000000000000 ) ) ;
#468 = AXIS2_PLACEMENT_3D ( 'NONE', #59, #225, #146 ) ;
#469 = CARTESIAN_POINT ( 'NONE',  ( -20.25000000000000000, 0.000000000000000000, -76.00000000000000000 ) ) ;
#470 = ADVANCED_FACE ( 'NONE', ( #534 ), #97, .F. ) ;
#471 = ORIENTED_EDGE ( 'NONE', *, *, #512, .F. ) ;
#472 = LINE ( 'NONE', #56, #216 ) ;
#473 = VERTEX_POINT ( 'NONE', #132 ) ;
#474 = CARTESIAN_POINT ( 'NONE',  ( -24.25000000000000000, 0.000000000000000000, -72.00000000000000000 ) ) ;
#475 =( GEOMETRIC_REPRESENTATION_CONTEXT ( 3 ) GLOBAL_UNCERTAINTY_ASSIGNED_CONTEXT ( ( #246 ) ) GLOBAL_UNIT_ASSIGNED_CONTEXT ( ( #103, #326, #17 ) ) REPRESENTATION_CONTEXT ( 'NONE', 'WORKASPACE' ) );
#476 = ORIENTED_EDGE ( 'NONE', *, *, #9, .F. ) ;
#477 = DIRECTION ( 'NONE',  ( 0.000000000000000000, 0.000000000000000000, -1.000000000000000000 ) ) ;
#478 = ADVANCED_FACE ( 'NONE', ( #396 ), #265, .F. ) ;
#479 = LINE ( 'NONE', #167, #144 ) ;
#480 = LINE ( 'NONE', #11, #87 ) ;
#481 = DIRECTION ( 'NONE',  ( -1.000000000000000000, 0.000000000000000000, 0.000000000000000000 ) ) ;
#482 = APPROVAL_DATE_TIME ( #404, #379 ) ;
#483 = DIRECTION ( 'NONE',  ( 1.000000000000000000, 0.000000000000000000, -0.000000000000000000 ) ) ;
#484 = CARTESIAN_POINT ( 'NONE',  ( -20.25000000000000000, 0.000000000000000000, -76.00000000000000000 ) ) ;
#485 = APPROVAL_DATE_TIME ( #268, #180 ) ;
#486 = VECTOR ( 'NONE', #287, 1000.000000000000000 ) ;
#487 = DIRECTION ( 'NONE',  ( -0.000000000000000000, -1.000000000000000000, -0.000000000000000000 ) ) ;
#488 = PERSON_AND_ORGANIZATION_ROLE ( 'creator' ) ;
#489 = EDGE_CURVE ( 'NONE', #207, #249, #258, .T. ) ;
#490 = DIRECTION ( 'NONE',  ( 1.000000000000000000, 0.000000000000000000, -0.000000000000000000 ) ) ;
#491 = APPROVAL_STATUS ( 'not_yet_approved' ) ;
#492 = DIRECTION ( 'NONE',  ( -0.000000000000000000, -1.000000000000000000, -0.000000000000000000 ) ) ;
#493 = AXIS2_PLACEMENT_3D ( 'NONE', #315, #452, #361 ) ;
#494 = CARTESIAN_POINT ( 'NONE',  ( -24.25000000000000000, 0.000000000000000000, -72.00000000000000000 ) ) ;
#495 = ADVANCED_FACE ( 'NONE', ( #350 ), #527, .F. ) ;
#496 = ORIENTED_EDGE ( 'NONE', *, *, #288, .T. ) ;
#497 = DIRECTION ( 'NONE',  ( 0.000000000000000000, 0.000000000000000000, -1.000000000000000000 ) ) ;
#498 = CC_DESIGN_PERSON_AND_ORGANIZATION_ASSIGNMENT ( #260, #488, ( #340 ) ) ;
#499 = ORIENTED_EDGE ( 'NONE', *, *, #342, .T. ) ;
#500 = LINE ( 'NONE', #327, #382 ) ;
#501 = EDGE_CURVE ( 'NONE', #201, #505, #480, .T. ) ;
#502 = VERTEX_POINT ( 'NONE', #179 ) ;
#503 = LINE ( 'NONE', #189, #86 ) ;
#504 = VECTOR ( 'NONE', #333, 1000.000000000000000 ) ;
#505 = VERTEX_POINT ( 'NONE', #355 ) ;
#506 = FACE_OUTER_BOUND ( 'NONE', #510, .T. ) ;
#507 = CARTESIAN_POINT ( 'NONE',  ( -39.75000000000000000, 2.500000000000000000, -79.00000000000000000 ) ) ;
#508 = ORIENTED_EDGE ( 'NONE', *, *, #353, .F. ) ;
#509 = CARTESIAN_POINT ( 'NONE',  ( 39.75000000000000000, 2.500000000000000000, 83.00000000000000000 ) ) ;
#510 = EDGE_LOOP ( 'NONE', ( #553, #122, #565, #156 ) ) ;
#511 = DIRECTION ( 'NONE',  ( 1.000000000000000000, 0.000000000000000000, 0.000000000000000000 ) ) ;
#512 = EDGE_CURVE ( 'NONE', #201, #300, #354, .T. ) ;
#513 = LOCAL_TIME ( 21, 53, 42.00000000000000000, #264 ) ;
#514 = APPROVAL_PERSON_ORGANIZATION ( #351, #118, #359 ) ;
#515 = EDGE_LOOP ( 'NONE', ( #290, #191, #129, #116, #555, #378, #149, #211, #197, #426, #257, #240, #227, #423 ) ) ;
#516 = LINE ( 'NONE', #467, #356 ) ;
#517 = VERTEX_POINT ( 'NONE', #270 ) ;
#518 = LINE ( 'NONE', #433, #96 ) ;
#519 = ORIENTED_EDGE ( 'NONE', *, *, #148, .F. ) ;
#520 = ADVANCED_FACE ( 'NONE', ( #185 ), #277, .F. ) ;
#521 = PLANE ( 'NONE',  #291 ) ;
#522 = ORIENTED_EDGE ( 'NONE', *, *, #454, .T. ) ;
#523 = VECTOR ( 'NONE', #278, 1000.000000000000000 ) ;
#524 = VECTOR ( 'NONE', #250, 1000.000000000000000 ) ;
#525 = CARTESIAN_POINT ( 'NONE',  ( -39.75000000000000000, 2.500000000000000000, -79.00000000000000000 ) ) ;
#526 = LOCAL_TIME ( 21, 53, 42.00000000000000000, #529 ) ;
#527 = PLANE ( 'NONE',  #331 ) ;
#528 = CARTESIAN_POINT ( 'NONE',  ( -24.25000000000000000, 2.500000000000000000, -83.00000000000000000 ) ) ;
#529 = COORDINATED_UNIVERSAL_TIME_OFFSET ( 8, 0, .AHEAD. ) ;
#530 = DIRECTION ( 'NONE',  ( 0.000000000000000000, 0.000000000000000000, -1.000000000000000000 ) ) ;
#531 = EDGE_CURVE ( 'NONE', #505, #458, #150, .T. ) ;
#532 = VECTOR ( 'NONE', #511, 1000.000000000000000 ) ;
#533 = CARTESIAN_POINT ( 'NONE',  ( 35.75000000000000000, 2.500000000000000000, 83.00000000000000000 ) ) ;
#534 = FACE_OUTER_BOUND ( 'NONE', #49, .T. ) ;
#535 = PERSON_AND_ORGANIZATION ( #34, #244 ) ;
#536 = EDGE_LOOP ( 'NONE', ( #170, #254, #108, #162 ) ) ;
#537 = EDGE_CURVE ( 'NONE', #567, #517, #142, .T. ) ;
#538 = CARTESIAN_POINT ( 'NONE',  ( -20.25000000000000000, 2.500000000000000000, -83.00000000000000000 ) ) ;
#539 = LINE ( 'NONE', #507, #298 ) ;
#540 = LINE ( 'NONE', #538, #22 ) ;
#541 = APPROVAL_PERSON_ORGANIZATION ( #535, #379, #174 ) ;
#542 = CARTESIAN_POINT ( 'NONE',  ( 35.75000000000000000, 2.500000000000000000, 83.00000000000000000 ) ) ;
#543 = ORIENTED_EDGE ( 'NONE', *, *, #342, .F. ) ;
#544 = DIRECTION ( 'NONE',  ( 0.000000000000000000, 0.000000000000000000, 1.000000000000000000 ) ) ;
#545 = DIRECTION ( 'NONE',  ( -1.000000000000000000, -0.000000000000000000, -0.000000000000000000 ) ) ;
#546 = EDGE_CURVE ( 'NONE', #300, #332, #21, .T. ) ;
#547 = EDGE_LOOP ( 'NONE', ( #419, #466, #259, #279 ) ) ;
#548 = DIRECTION ( 'NONE',  ( 0.000000000000000000, 0.000000000000000000, -1.000000000000000000 ) ) ;
#549 = PRODUCT_RELATED_PRODUCT_CATEGORY ( 'detail', '', ( #134 ) ) ;
#550 = EDGE_LOOP ( 'NONE', ( #74, #519, #499, #301 ) ) ;
#551 = DIRECTION ( 'NONE',  ( 1.000000000000000000, 0.000000000000000000, 0.000000000000000000 ) ) ;
#552 = LOCAL_TIME ( 21, 53, 42.00000000000000000, #310 ) ;
#553 = ORIENTED_EDGE ( 'NONE', *, *, #295, .F. ) ;
#554 = DIRECTION ( 'NONE',  ( 0.000000000000000000, 0.000000000000000000, -1.000000000000000000 ) ) ;
#555 = ORIENTED_EDGE ( 'NONE', *, *, #353, .T. ) ;
#556 = ADVANCED_FACE ( 'NONE', ( #319 ), #140, .F. ) ;
#557 = CARTESIAN_POINT ( 'NONE',  ( -20.25000000000000000, 0.000000000000000000, 66.00000000000000000 ) ) ;
#558 = ORIENTED_EDGE ( 'NONE', *, *, #166, .T. ) ;
#559 = CARTESIAN_POINT ( 'NONE',  ( 35.75000000000000000, 2.500000000000000000, 83.00000000000000000 ) ) ;
#560 = AXIS2_PLACEMENT_3D ( 'NONE', #398, #477, #2 ) ;
#561 = CC_DESIGN_SECURITY_CLASSIFICATION ( #443, ( #340 ) ) ;
#562 = CARTESIAN_POINT ( 'NONE',  ( -20.25000000000000000, 2.500000000000000000, -76.00000000000000000 ) ) ;
#563 = DIRECTION ( 'NONE',  ( 0.000000000000000000, -0.000000000000000000, -1.000000000000000000 ) ) ;
#564 = EDGE_CURVE ( 'NONE', #371, #234, #540, .T. ) ;
#565 = ORIENTED_EDGE ( 'NONE', *, *, #99, .T. ) ;
#566 = LINE ( 'NONE', #385, #111 ) ;
#567 = VERTEX_POINT ( 'NONE', #410 ) ;
ENDSEC;
END-ISO-10303-21;
