ISO-10303-21;
HEADER;
FILE_DESCRIPTION (( 'STEP AP203' ),
    '1' );
FILE_NAME ('FN-HAR-013_W5-tilt-rs485_R0.5.STEP',
    '2026-07-26T13:53:23',
    ( '' ),
    ( '' ),
    'SwSTEP 2.0',
    'SolidWorks 2022',
    '' );
FILE_SCHEMA (( 'CONFIG_CONTROL_DESIGN' ));
ENDSEC;

DATA;
#1 = VERTEX_POINT ( 'NONE', #5 ) ;
#2 = VECTOR ( 'NONE', #193, 1000.000000000000000 ) ;
#3 = CARTESIAN_POINT ( 'NONE',  ( 2.250000000000000000, 2.500000000000000000, 10.50000000000000000 ) ) ;
#4 = LOCAL_TIME ( 21, 53, 23.00000000000000000, #298 ) ;
#5 = CARTESIAN_POINT ( 'NONE',  ( -21.25000000000000000, 0.000000000000000000, -10.50000000000000000 ) ) ;
#6 = ORIENTED_EDGE ( 'NONE', *, *, #369, .T. ) ;
#7 = DIRECTION ( 'NONE',  ( 1.000000000000000000, 0.000000000000000000, 0.000000000000000000 ) ) ;
#8 = CARTESIAN_POINT ( 'NONE',  ( -1.750000000000000000, 0.000000000000000000, 6.500000000000000000 ) ) ;
#9 = CARTESIAN_POINT ( 'NONE',  ( 0.000000000000000000, 0.000000000000000000, 0.000000000000000000 ) ) ;
#10 = LINE ( 'NONE', #96, #209 ) ;
#11 = EDGE_CURVE ( 'NONE', #141, #1, #287, .T. ) ;
#12 = APPROVAL_ROLE ( '' ) ;
#13 = DATE_AND_TIME ( #213, #236 ) ;
#14 = COORDINATED_UNIVERSAL_TIME_OFFSET ( 8, 0, .AHEAD. ) ;
#15 = COORDINATED_UNIVERSAL_TIME_OFFSET ( 8, 0, .AHEAD. ) ;
#16 = CALENDAR_DATE ( 2026, 26, 7 ) ;
#17 = LOCAL_TIME ( 21, 53, 23.00000000000000000, #15 ) ;
#18 = ORIENTED_EDGE ( 'NONE', *, *, #97, .T. ) ;
#19 = CARTESIAN_POINT ( 'NONE',  ( 21.25000000000000000, 0.000000000000000000, 6.500000000000000000 ) ) ;
#20 = CARTESIAN_POINT ( 'NONE',  ( 2.250000000000000444, 2.500000000000000000, 6.500000000000000000 ) ) ;
#21 = VERTEX_POINT ( 'NONE', #230 ) ;
#22 = PLANE ( 'NONE',  #77 ) ;
#23 = VECTOR ( 'NONE', #59, 1000.000000000000000 ) ;
#24 = ORIENTED_EDGE ( 'NONE', *, *, #97, .F. ) ;
#25 = ORIENTED_EDGE ( 'NONE', *, *, #234, .F. ) ;
#26 = ORIENTED_EDGE ( 'NONE', *, *, #127, .F. ) ;
#27 = VERTEX_POINT ( 'NONE', #314 ) ;
#28 = CARTESIAN_POINT ( 'NONE',  ( 21.25000000000000000, 2.500000000000000000, 6.500000000000000000 ) ) ;
#29 = ORIENTED_EDGE ( 'NONE', *, *, #324, .F. ) ;
#30 = CARTESIAN_POINT ( 'NONE',  ( 2.250000000000000444, 2.500000000000000000, 6.500000000000000000 ) ) ;
#31 = APPROVAL_PERSON_ORGANIZATION ( #210, #363, #12 ) ;
#32 = EDGE_LOOP ( 'NONE', ( #364, #144, #24, #251 ) ) ;
#33 = DIRECTION ( 'NONE',  ( 1.000000000000000000, -0.000000000000000000, 0.000000000000000000 ) ) ;
#34 = LINE ( 'NONE', #180, #242 ) ;
#35 = CC_DESIGN_PERSON_AND_ORGANIZATION_ASSIGNMENT ( #38, #123, ( #245 ) ) ;
#36 = AXIS2_PLACEMENT_3D ( 'NONE', #221, #332, #185 ) ;
#37 = EDGE_CURVE ( 'NONE', #92, #339, #220, .T. ) ;
#38 = PERSON_AND_ORGANIZATION ( #40, #145 ) ;
#39 = APPROVAL_STATUS ( 'not_yet_approved' ) ;
#40 = PERSON ( '未指定', '未指定', '未指定', ('未指定'), ('未指定'), ('未指定') ) ;
#41 = MECHANICAL_CONTEXT ( 'NONE', #291, 'mechanical' ) ;
#42 = PERSON_AND_ORGANIZATION_ROLE ( 'creator' ) ;
#43 = PLANE ( 'NONE',  #267 ) ;
#44 = VECTOR ( 'NONE', #311, 1000.000000000000000 ) ;
#45 = CC_DESIGN_APPROVAL ( #138, ( #274 ) ) ;
#46 = EDGE_CURVE ( 'NONE', #202, #205, #137, .T. ) ;
#47 = DIRECTION ( 'NONE',  ( -1.000000000000000000, 0.000000000000000000, -0.000000000000000000 ) ) ;
#48 = EDGE_CURVE ( 'NONE', #21, #151, #56, .T. ) ;
#49 = DIRECTION ( 'NONE',  ( -0.000000000000000000, -0.000000000000000000, 1.000000000000000000 ) ) ;
#50 = ORIENTED_EDGE ( 'NONE', *, *, #127, .T. ) ;
#51 = CARTESIAN_POINT ( 'NONE',  ( 2.250000000000000000, 2.500000000000000000, -10.50000000000000000 ) ) ;
#52 = DIRECTION ( 'NONE',  ( 0.000000000000000000, -1.000000000000000000, 0.000000000000000000 ) ) ;
#53 = ORIENTED_EDGE ( 'NONE', *, *, #118, .T. ) ;
#54 = LINE ( 'NONE', #169, #67 ) ;
#55 = CARTESIAN_POINT ( 'NONE',  ( 0.000000000000000000, 2.500000000000000000, 0.000000000000000000 ) ) ;
#56 = LINE ( 'NONE', #173, #2 ) ;
#57 = EDGE_CURVE ( 'NONE', #336, #105, #140, .T. ) ;
#58 =( NAMED_UNIT ( * ) SI_UNIT ( $, .STERADIAN. ) SOLID_ANGLE_UNIT ( ) );
#59 = DIRECTION ( 'NONE',  ( -1.000000000000000000, -0.000000000000000000, -0.000000000000000000 ) ) ;
#60 = LINE ( 'NONE', #20, #155 ) ;
#61 = DIRECTION ( 'NONE',  ( 0.000000000000000000, 0.000000000000000000, -1.000000000000000000 ) ) ;
#62 = CARTESIAN_POINT ( 'NONE',  ( -21.25000000000000000, 2.500000000000000000, -6.500000000000000000 ) ) ;
#63 = CC_DESIGN_PERSON_AND_ORGANIZATION_ASSIGNMENT ( #328, #240, ( #274 ) ) ;
#64 = ORIENTED_EDGE ( 'NONE', *, *, #142, .T. ) ;
#65 = PLANE ( 'NONE',  #334 ) ;
#66 = EDGE_CURVE ( 'NONE', #308, #312, #258, .T. ) ;
#67 = VECTOR ( 'NONE', #219, 1000.000000000000000 ) ;
#68 = PERSON_AND_ORGANIZATION ( #40, #145 ) ;
#69 = APPROVAL_ROLE ( '' ) ;
#70 = VECTOR ( 'NONE', #252, 1000.000000000000000 ) ;
#71 = COORDINATED_UNIVERSAL_TIME_OFFSET ( 8, 0, .AHEAD. ) ;
#72 = DESIGN_CONTEXT ( 'detailed design', #359, 'design' ) ;
#73 = CALENDAR_DATE ( 2026, 26, 7 ) ;
#74 = ADVANCED_FACE ( 'NONE', ( #82 ), #225, .F. ) ;
#75 = CARTESIAN_POINT ( 'NONE',  ( -1.750000000000000000, 2.500000000000000000, -10.50000000000000000 ) ) ;
#76 = AXIS2_PLACEMENT_3D ( 'NONE', #366, #248, #254 ) ;
#77 = AXIS2_PLACEMENT_3D ( 'NONE', #284, #241, #355 ) ;
#78 = ORIENTED_EDGE ( 'NONE', *, *, #207, .F. ) ;
#79 = CARTESIAN_POINT ( 'NONE',  ( 21.25000000000000000, 0.000000000000000000, 10.50000000000000000 ) ) ;
#80 = EDGE_LOOP ( 'NONE', ( #275, #25, #53, #256 ) ) ;
#81 = DIRECTION ( 'NONE',  ( -1.000000000000000000, -0.000000000000000000, -0.000000000000000000 ) ) ;
#82 = FACE_OUTER_BOUND ( 'NONE', #195, .T. ) ;
#83 = ORIENTED_EDGE ( 'NONE', *, *, #48, .T. ) ;
#84 = CARTESIAN_POINT ( 'NONE',  ( 21.25000000000000000, 2.500000000000000000, 10.50000000000000000 ) ) ;
#85 = CARTESIAN_POINT ( 'NONE',  ( -21.25000000000000000, 0.000000000000000000, -6.500000000000000000 ) ) ;
#86 = AXIS2_PLACEMENT_3D ( 'NONE', #238, #211, #184 ) ;
#87 = ORIENTED_EDGE ( 'NONE', *, *, #234, .T. ) ;
#88 = EDGE_LOOP ( 'NONE', ( #29, #305, #168, #134, #198, #120, #90, #342 ) ) ;
#89 = LINE ( 'NONE', #199, #23 ) ;
#90 = ORIENTED_EDGE ( 'NONE', *, *, #260, .F. ) ;
#91 = CARTESIAN_POINT ( 'NONE',  ( 2.250000000000000000, 0.000000000000000000, 10.50000000000000000 ) ) ;
#92 = VERTEX_POINT ( 'NONE', #28 ) ;
#93 = UNCERTAINTY_MEASURE_WITH_UNIT (LENGTH_MEASURE( 1.000000000000000082E-05 ), #128, 'distance_accuracy_value', 'NONE');
#94 = VECTOR ( 'NONE', #147, 1000.000000000000000 ) ;
#95 = DIRECTION ( 'NONE',  ( 0.000000000000000000, -0.000000000000000000, -1.000000000000000000 ) ) ;
#96 = CARTESIAN_POINT ( 'NONE',  ( -1.750000000000000000, 0.000000000000000000, 10.50000000000000000 ) ) ;
#97 = EDGE_CURVE ( 'NONE', #308, #288, #117, .T. ) ;
#98 = SECURITY_CLASSIFICATION ( '', '', #325 ) ;
#99 = APPROVAL ( #39, '未指定' ) ;
#100 = VECTOR ( 'NONE', #176, 1000.000000000000000 ) ;
#101 = VECTOR ( 'NONE', #321, 1000.000000000000000 ) ;
#102 = APPROVAL_STATUS ( 'not_yet_approved' ) ;
#103 = PLANE ( 'NONE',  #292 ) ;
#104 = ADVANCED_FACE ( 'NONE', ( #318 ), #164, .F. ) ;
#105 = VERTEX_POINT ( 'NONE', #85 ) ;
#106 = ORIENTED_EDGE ( 'NONE', *, *, #186, .T. ) ;
#107 = LINE ( 'NONE', #51, #262 ) ;
#108 = EDGE_LOOP ( 'NONE', ( #317, #290, #358, #132 ) ) ;
#109 = ORIENTED_EDGE ( 'NONE', *, *, #214, .T. ) ;
#110 = DIRECTION ( 'NONE',  ( -1.000000000000000000, 0.000000000000000000, 0.000000000000000000 ) ) ;
#111 = DIRECTION ( 'NONE',  ( -0.000000000000000000, -1.000000000000000000, -0.000000000000000000 ) ) ;
#112 = CARTESIAN_POINT ( 'NONE',  ( -1.750000000000000000, 0.000000000000000000, 10.50000000000000000 ) ) ;
#113 = DIRECTION ( 'NONE',  ( -0.000000000000000000, -1.000000000000000000, -0.000000000000000000 ) ) ;
#114 = ORIENTED_EDGE ( 'NONE', *, *, #263, .T. ) ;
#115 = APPROVAL_PERSON_ORGANIZATION ( #235, #138, #327 ) ;
#116 = CARTESIAN_POINT ( 'NONE',  ( -21.25000000000000000, 2.500000000000000000, -6.500000000000000000 ) ) ;
#117 = LINE ( 'NONE', #344, #124 ) ;
#118 = EDGE_CURVE ( 'NONE', #339, #205, #60, .T. ) ;
#119 = FACE_OUTER_BOUND ( 'NONE', #80, .T. ) ;
#120 = ORIENTED_EDGE ( 'NONE', *, *, #369, .F. ) ;
#121 = CARTESIAN_POINT ( 'NONE',  ( -21.25000000000000000, 0.000000000000000000, -6.500000000000000000 ) ) ;
#122 = CLOSED_SHELL ( 'NONE', ( #341, #191, #272, #153, #104, #357, #301, #228, #171, #74 ) ) ;
#123 = PERSON_AND_ORGANIZATION_ROLE ( 'design_owner' ) ;
#124 = VECTOR ( 'NONE', #192, 1000.000000000000000 ) ;
#125 = PRODUCT_DEFINITION ( '未知', '', #274, #72 ) ;
#126 = APPROVAL_STATUS ( 'not_yet_approved' ) ;
#127 = EDGE_CURVE ( 'NONE', #141, #336, #167, .T. ) ;
#128 =( LENGTH_UNIT ( ) NAMED_UNIT ( * ) SI_UNIT ( .MILLI., .METRE. ) );
#129 = LOCAL_TIME ( 21, 53, 23.00000000000000000, #14 ) ;
#130 = CALENDAR_DATE ( 2026, 26, 7 ) ;
#131 = CARTESIAN_POINT ( 'NONE',  ( -1.750000000000000000, 2.500000000000000000, -6.500000000000000888 ) ) ;
#132 = ORIENTED_EDGE ( 'NONE', *, *, #46, .T. ) ;
#133 = FACE_OUTER_BOUND ( 'NONE', #189, .T. ) ;
#134 = ORIENTED_EDGE ( 'NONE', *, *, #142, .F. ) ;
#135 = EDGE_LOOP ( 'NONE', ( #106, #50, #346, #223, #18, #162, #139, #87 ) ) ;
#136 = FACE_OUTER_BOUND ( 'NONE', #215, .T. ) ;
#137 = LINE ( 'NONE', #8, #94 ) ;
#138 = APPROVAL ( #126, '未指定' ) ;
#139 = ORIENTED_EDGE ( 'NONE', *, *, #37, .T. ) ;
#140 = LINE ( 'NONE', #335, #270 ) ;
#141 = VERTEX_POINT ( 'NONE', #338 ) ;
#142 = EDGE_CURVE ( 'NONE', #172, #202, #170, .T. ) ;
#143 = CARTESIAN_POINT ( 'NONE',  ( -21.25000000000000000, 2.500000000000000000, -10.50000000000000000 ) ) ;
#144 = ORIENTED_EDGE ( 'NONE', *, *, #263, .F. ) ;
#145 = ORGANIZATION ( '未指定', '未指定', '' ) ;
#146 = CARTESIAN_POINT ( 'NONE',  ( -1.750000000000000000, 2.500000000000000000, 10.50000000000000000 ) ) ;
#147 = DIRECTION ( 'NONE',  ( -1.000000000000000000, -0.000000000000000000, -0.000000000000000000 ) ) ;
#148 = CARTESIAN_POINT ( 'NONE',  ( -1.750000000000000000, 2.500000000000000000, 10.50000000000000000 ) ) ;
#149 = APPLICATION_PROTOCOL_DEFINITION ( 'international standard', 'config_control_design', 1994, #291 ) ;
#150 = DIRECTION ( 'NONE',  ( 0.000000000000000000, 0.000000000000000000, 1.000000000000000000 ) ) ;
#151 = VERTEX_POINT ( 'NONE', #131 ) ;
#152 =( GEOMETRIC_REPRESENTATION_CONTEXT ( 3 ) GLOBAL_UNCERTAINTY_ASSIGNED_CONTEXT ( ( #93 ) ) GLOBAL_UNIT_ASSIGNED_CONTEXT ( ( #128, #316, #58 ) ) REPRESENTATION_CONTEXT ( 'NONE', 'WORKASPACE' ) );
#153 = ADVANCED_FACE ( 'NONE', ( #365 ), #43, .F. ) ;
#154 = DATE_AND_TIME ( #73, #188 ) ;
#155 = VECTOR ( 'NONE', #52, 1000.000000000000000 ) ;
#156 = VECTOR ( 'NONE', #259, 1000.000000000000000 ) ;
#157 = APPROVAL_DATE_TIME ( #13, #363 ) ;
#158 = APPLICATION_PROTOCOL_DEFINITION ( 'international standard', 'config_control_design', 1994, #359 ) ;
#159 = DATE_AND_TIME ( #243, #17 ) ;
#160 = APPROVAL_PERSON_ORGANIZATION ( #212, #99, #69 ) ;
#161 = DIRECTION ( 'NONE',  ( 0.000000000000000000, 0.000000000000000000, -1.000000000000000000 ) ) ;
#162 = ORIENTED_EDGE ( 'NONE', *, *, #194, .T. ) ;
#163 = FACE_OUTER_BOUND ( 'NONE', #108, .T. ) ;
#164 = PLANE ( 'NONE',  #266 ) ;
#165 = CARTESIAN_POINT ( 'NONE',  ( 21.25000000000000000, 2.500000000000000000, 10.50000000000000000 ) ) ;
#166 = CC_DESIGN_PERSON_AND_ORGANIZATION_ASSIGNMENT ( #300, #42, ( #125 ) ) ;
#167 = LINE ( 'NONE', #282, #360 ) ;
#168 = ORIENTED_EDGE ( 'NONE', *, *, #46, .F. ) ;
#169 = CARTESIAN_POINT ( 'NONE',  ( 21.25000000000000000, 2.500000000000000000, 6.500000000000000000 ) ) ;
#170 = LINE ( 'NONE', #285, #70 ) ;
#171 = ADVANCED_FACE ( 'NONE', ( #133 ), #103, .F. ) ;
#172 = VERTEX_POINT ( 'NONE', #79 ) ;
#173 = CARTESIAN_POINT ( 'NONE',  ( -1.750000000000000000, 2.500000000000000000, -6.500000000000000888 ) ) ;
#174 = ORIENTED_EDGE ( 'NONE', *, *, #310, .F. ) ;
#175 = LINE ( 'NONE', #179, #255 ) ;
#176 = DIRECTION ( 'NONE',  ( -1.000000000000000000, -0.000000000000000000, -0.000000000000000000 ) ) ;
#177 = VECTOR ( 'NONE', #81, 1000.000000000000000 ) ;
#178 = FACE_OUTER_BOUND ( 'NONE', #88, .T. ) ;
#179 = CARTESIAN_POINT ( 'NONE',  ( -1.750000000000000000, 2.500000000000000000, 10.50000000000000000 ) ) ;
#180 = CARTESIAN_POINT ( 'NONE',  ( 21.25000000000000000, 2.500000000000000000, 10.50000000000000000 ) ) ;
#181 = CC_DESIGN_APPROVAL ( #99, ( #125 ) ) ;
#182 = EDGE_CURVE ( 'NONE', #1, #105, #306, .T. ) ;
#183 = VECTOR ( 'NONE', #348, 1000.000000000000000 ) ;
#184 = DIRECTION ( 'NONE',  ( 1.000000000000000000, 0.000000000000000000, 0.000000000000000000 ) ) ;
#185 = DIRECTION ( 'NONE',  ( 1.000000000000000000, 0.000000000000000000, -0.000000000000000000 ) ) ;
#186 = EDGE_CURVE ( 'NONE', #197, #141, #247, .T. ) ;
#187 = DIRECTION ( 'NONE',  ( 0.000000000000000000, 0.000000000000000000, -1.000000000000000000 ) ) ;
#188 = LOCAL_TIME ( 21, 53, 23.00000000000000000, #71 ) ;
#189 = EDGE_LOOP ( 'NONE', ( #246, #83, #174, #261 ) ) ;
#190 = EDGE_LOOP ( 'NONE', ( #64, #78, #200, #114 ) ) ;
#191 = ADVANCED_FACE ( 'NONE', ( #163 ), #278, .F. ) ;
#192 = DIRECTION ( 'NONE',  ( 1.000000000000000000, 0.000000000000000000, 0.000000000000000000 ) ) ;
#193 = DIRECTION ( 'NONE',  ( 0.000000000000000000, 1.000000000000000000, 0.000000000000000000 ) ) ;
#194 = EDGE_CURVE ( 'NONE', #288, #92, #276, .T. ) ;
#195 = EDGE_LOOP ( 'NONE', ( #340, #286, #26, #367 ) ) ;
#196 = LINE ( 'NONE', #253, #156 ) ;
#197 = VERTEX_POINT ( 'NONE', #303 ) ;
#198 = ORIENTED_EDGE ( 'NONE', *, *, #244, .F. ) ;
#199 = CARTESIAN_POINT ( 'NONE',  ( -1.750000000000000000, 0.000000000000000000, -10.50000000000000000 ) ) ;
#200 = ORIENTED_EDGE ( 'NONE', *, *, #194, .F. ) ;
#201 = FACE_OUTER_BOUND ( 'NONE', #304, .T. ) ;
#202 = VERTEX_POINT ( 'NONE', #19 ) ;
#203 = LINE ( 'NONE', #295, #101 ) ;
#204 = LINE ( 'NONE', #121, #183 ) ;
#205 = VERTEX_POINT ( 'NONE', #309 ) ;
#206 = PRODUCT_DEFINITION_SHAPE ( 'NONE', 'NONE',  #125 ) ;
#207 = EDGE_CURVE ( 'NONE', #92, #202, #54, .T. ) ;
#208 = APPROVAL_DATE_TIME ( #356, #138 ) ;
#209 = VECTOR ( 'NONE', #7, 1000.000000000000000 ) ;
#210 = PERSON_AND_ORGANIZATION ( #40, #145 ) ;
#211 = DIRECTION ( 'NONE',  ( 0.000000000000000000, 0.000000000000000000, 1.000000000000000000 ) ) ;
#212 = PERSON_AND_ORGANIZATION ( #40, #145 ) ;
#213 = CALENDAR_DATE ( 2026, 26, 7 ) ;
#214 = EDGE_CURVE ( 'NONE', #197, #27, #107, .T. ) ;
#215 = EDGE_LOOP ( 'NONE', ( #250, #322, #361, #109 ) ) ;
#216 = CARTESIAN_POINT ( 'NONE',  ( -21.25000000000000000, 2.500000000000000000, -6.500000000000000000 ) ) ;
#217 = VECTOR ( 'NONE', #343, 1000.000000000000000 ) ;
#218 = ORIENTED_EDGE ( 'NONE', *, *, #330, .F. ) ;
#219 = DIRECTION ( 'NONE',  ( -0.000000000000000000, -1.000000000000000000, -0.000000000000000000 ) ) ;
#220 = LINE ( 'NONE', #362, #100 ) ;
#221 = CARTESIAN_POINT ( 'NONE',  ( -1.750000000000000000, 2.500000000000000000, 6.500000000000000000 ) ) ;
#222 = DIRECTION ( 'NONE',  ( -0.000000000000000000, -0.000000000000000000, 1.000000000000000000 ) ) ;
#223 = ORIENTED_EDGE ( 'NONE', *, *, #330, .T. ) ;
#224 = LINE ( 'NONE', #91, #217 ) ;
#225 = PLANE ( 'NONE',  #76 ) ;
#226 = VECTOR ( 'NONE', #345, 1000.000000000000000 ) ;
#227 = DIRECTION ( 'NONE',  ( 0.000000000000000000, 0.000000000000000000, -1.000000000000000000 ) ) ;
#228 = ADVANCED_FACE ( 'NONE', ( #136 ), #22, .F. ) ;
#229 = LINE ( 'NONE', #116, #226 ) ;
#230 = CARTESIAN_POINT ( 'NONE',  ( -1.750000000000001554, 0.000000000000000000, -6.500000000000000000 ) ) ;
#231 = PLANE ( 'NONE',  #281 ) ;
#232 = CC_DESIGN_PERSON_AND_ORGANIZATION_ASSIGNMENT ( #297, #265, ( #274 ) ) ;
#233 = CARTESIAN_POINT ( 'NONE',  ( -1.750000000000000000, 2.500000000000000000, 10.50000000000000000 ) ) ;
#234 = EDGE_CURVE ( 'NONE', #339, #197, #196, .T. ) ;
#235 = PERSON_AND_ORGANIZATION ( #40, #145 ) ;
#236 = LOCAL_TIME ( 21, 53, 23.00000000000000000, #351 ) ;
#237 = ADVANCED_BREP_SHAPE_REPRESENTATION ( 'FN-HAR-013_W5-tilt-rs485_R0.5', ( #349, #86 ), #152 ) ;
#238 = CARTESIAN_POINT ( 'NONE',  ( 0.000000000000000000, 0.000000000000000000, 0.000000000000000000 ) ) ;
#239 = VECTOR ( 'NONE', #111, 1000.000000000000000 ) ;
#240 = PERSON_AND_ORGANIZATION_ROLE ( 'creator' ) ;
#241 = DIRECTION ( 'NONE',  ( 0.000000000000000000, 0.000000000000000000, 1.000000000000000000 ) ) ;
#242 = VECTOR ( 'NONE', #368, 1000.000000000000000 ) ;
#243 = CALENDAR_DATE ( 2026, 26, 7 ) ;
#244 = EDGE_CURVE ( 'NONE', #312, #172, #10, .T. ) ;
#245 = PRODUCT ( 'FN-HAR-013_W5-tilt-rs485_R0.5', 'FN-HAR-013_W5-tilt-rs485_R0.5', '', ( #41 ) ) ;
#246 = ORIENTED_EDGE ( 'NONE', *, *, #260, .T. ) ;
#247 = LINE ( 'NONE', #75, #177 ) ;
#248 = DIRECTION ( 'NONE',  ( 1.000000000000000000, -0.000000000000000000, 0.000000000000000000 ) ) ;
#249 = ORIENTED_EDGE ( 'NONE', *, *, #66, .F. ) ;
#250 = ORIENTED_EDGE ( 'NONE', *, *, #324, .T. ) ;
#251 = ORIENTED_EDGE ( 'NONE', *, *, #66, .T. ) ;
#252 = DIRECTION ( 'NONE',  ( 0.000000000000000000, 0.000000000000000000, -1.000000000000000000 ) ) ;
#253 = CARTESIAN_POINT ( 'NONE',  ( 2.250000000000000000, 2.500000000000000000, 10.50000000000000000 ) ) ;
#254 = DIRECTION ( 'NONE',  ( 0.000000000000000000, 0.000000000000000000, -1.000000000000000000 ) ) ;
#255 = VECTOR ( 'NONE', #289, 1000.000000000000000 ) ;
#256 = ORIENTED_EDGE ( 'NONE', *, *, #315, .T. ) ;
#257 = FACE_OUTER_BOUND ( 'NONE', #32, .T. ) ;
#258 = LINE ( 'NONE', #320, #44 ) ;
#259 = DIRECTION ( 'NONE',  ( 0.000000000000000000, 0.000000000000000000, -1.000000000000000000 ) ) ;
#260 = EDGE_CURVE ( 'NONE', #105, #21, #204, .T. ) ;
#261 = ORIENTED_EDGE ( 'NONE', *, *, #57, .T. ) ;
#262 = VECTOR ( 'NONE', #280, 1000.000000000000000 ) ;
#263 = EDGE_CURVE ( 'NONE', #288, #172, #34, .T. ) ;
#264 = CC_DESIGN_APPROVAL ( #363, ( #98 ) ) ;
#265 = PERSON_AND_ORGANIZATION_ROLE ( 'design_supplier' ) ;
#266 = AXIS2_PLACEMENT_3D ( 'NONE', #55, #279, #307 ) ;
#267 = AXIS2_PLACEMENT_3D ( 'NONE', #84, #110, #333 ) ;
#268 = CC_DESIGN_DATE_AND_TIME_ASSIGNMENT ( #154, #352, ( #98 ) ) ;
#269 = DATE_AND_TIME ( #16, #129 ) ;
#270 = VECTOR ( 'NONE', #113, 1000.000000000000000 ) ;
#271 = DATE_TIME_ROLE ( 'creation_date' ) ;
#272 = ADVANCED_FACE ( 'NONE', ( #257 ), #231, .F. ) ;
#273 = CARTESIAN_POINT ( 'NONE',  ( -21.25000000000000000, 0.000000000000000000, -6.500000000000000000 ) ) ;
#274 = PRODUCT_DEFINITION_FORMATION_WITH_SPECIFIED_SOURCE ( '任何', '', #245, .NOT_KNOWN. ) ;
#275 = ORIENTED_EDGE ( 'NONE', *, *, #214, .F. ) ;
#276 = LINE ( 'NONE', #165, #353 ) ;
#277 = ORIENTED_EDGE ( 'NONE', *, *, #48, .F. ) ;
#278 = PLANE ( 'NONE',  #36 ) ;
#279 = DIRECTION ( 'NONE',  ( 0.000000000000000000, -1.000000000000000000, 0.000000000000000000 ) ) ;
#280 = DIRECTION ( 'NONE',  ( -0.000000000000000000, -1.000000000000000000, -0.000000000000000000 ) ) ;
#281 = AXIS2_PLACEMENT_3D ( 'NONE', #146, #227, #323 ) ;
#282 = CARTESIAN_POINT ( 'NONE',  ( -21.25000000000000000, 2.500000000000000000, -6.500000000000000000 ) ) ;
#283 = VECTOR ( 'NONE', #49, 1000.000000000000000 ) ;
#284 = CARTESIAN_POINT ( 'NONE',  ( -1.750000000000000000, 2.500000000000000000, -10.50000000000000000 ) ) ;
#285 = CARTESIAN_POINT ( 'NONE',  ( 21.25000000000000000, 0.000000000000000000, 10.50000000000000000 ) ) ;
#286 = ORIENTED_EDGE ( 'NONE', *, *, #57, .F. ) ;
#287 = LINE ( 'NONE', #143, #239 ) ;
#288 = VERTEX_POINT ( 'NONE', #313 ) ;
#289 = DIRECTION ( 'NONE',  ( -0.000000000000000000, -0.000000000000000000, 1.000000000000000000 ) ) ;
#290 = ORIENTED_EDGE ( 'NONE', *, *, #37, .F. ) ;
#291 = APPLICATION_CONTEXT ( 'configuration controlled 3d designs of mechanical parts and assemblies' ) ;
#292 = AXIS2_PLACEMENT_3D ( 'NONE', #216, #161, #47 ) ;
#293 = PLANE ( 'NONE',  #329 ) ;
#294 = CC_DESIGN_PERSON_AND_ORGANIZATION_ASSIGNMENT ( #68, #326, ( #98 ) ) ;
#295 = CARTESIAN_POINT ( 'NONE',  ( -1.750000000000000000, 0.000000000000000000, 10.50000000000000000 ) ) ;
#296 = DIRECTION ( 'NONE',  ( -1.000000000000000000, 0.000000000000000000, 0.000000000000000000 ) ) ;
#297 = PERSON_AND_ORGANIZATION ( #40, #145 ) ;
#298 = COORDINATED_UNIVERSAL_TIME_OFFSET ( 8, 0, .AHEAD. ) ;
#299 = PRODUCT_RELATED_PRODUCT_CATEGORY ( 'detail', '', ( #245 ) ) ;
#300 = PERSON_AND_ORGANIZATION ( #40, #145 ) ;
#301 = ADVANCED_FACE ( 'NONE', ( #119 ), #65, .F. ) ;
#302 = APPROVAL_DATE_TIME ( #269, #99 ) ;
#303 = CARTESIAN_POINT ( 'NONE',  ( 2.250000000000000000, 2.500000000000000000, -10.50000000000000000 ) ) ;
#304 = EDGE_LOOP ( 'NONE', ( #277, #6, #249, #218 ) ) ;
#305 = ORIENTED_EDGE ( 'NONE', *, *, #315, .F. ) ;
#306 = LINE ( 'NONE', #273, #283 ) ;
#307 = DIRECTION ( 'NONE',  ( 0.000000000000000000, -0.000000000000000000, -1.000000000000000000 ) ) ;
#308 = VERTEX_POINT ( 'NONE', #233 ) ;
#309 = CARTESIAN_POINT ( 'NONE',  ( 2.250000000000000444, 0.000000000000000000, 6.500000000000000000 ) ) ;
#310 = EDGE_CURVE ( 'NONE', #336, #151, #229, .T. ) ;
#311 = DIRECTION ( 'NONE',  ( -0.000000000000000000, -1.000000000000000000, -0.000000000000000000 ) ) ;
#312 = VERTEX_POINT ( 'NONE', #112 ) ;
#313 = CARTESIAN_POINT ( 'NONE',  ( 21.25000000000000000, 2.500000000000000000, 10.50000000000000000 ) ) ;
#314 = CARTESIAN_POINT ( 'NONE',  ( 2.250000000000000000, 0.000000000000000000, -10.50000000000000000 ) ) ;
#315 = EDGE_CURVE ( 'NONE', #205, #27, #224, .T. ) ;
#316 =( NAMED_UNIT ( * ) PLANE_ANGLE_UNIT ( ) SI_UNIT ( $, .RADIAN. ) );
#317 = ORIENTED_EDGE ( 'NONE', *, *, #118, .F. ) ;
#318 = FACE_OUTER_BOUND ( 'NONE', #135, .T. ) ;
#319 = PLANE ( 'NONE',  #350 ) ;
#320 = CARTESIAN_POINT ( 'NONE',  ( -1.750000000000000000, 2.500000000000000000, 10.50000000000000000 ) ) ;
#321 = DIRECTION ( 'NONE',  ( -0.000000000000000000, -0.000000000000000000, 1.000000000000000000 ) ) ;
#322 = ORIENTED_EDGE ( 'NONE', *, *, #11, .F. ) ;
#323 = DIRECTION ( 'NONE',  ( -1.000000000000000000, 0.000000000000000000, -0.000000000000000000 ) ) ;
#324 = EDGE_CURVE ( 'NONE', #27, #1, #89, .T. ) ;
#325 = SECURITY_CLASSIFICATION_LEVEL ( 'unclassified' ) ;
#326 = PERSON_AND_ORGANIZATION_ROLE ( 'classification_officer' ) ;
#327 = APPROVAL_ROLE ( '' ) ;
#328 = PERSON_AND_ORGANIZATION ( #40, #145 ) ;
#329 = AXIS2_PLACEMENT_3D ( 'NONE', #9, #347, #95 ) ;
#330 = EDGE_CURVE ( 'NONE', #151, #308, #175, .T. ) ;
#331 = SHAPE_DEFINITION_REPRESENTATION ( #206, #237 ) ;
#332 = DIRECTION ( 'NONE',  ( 0.000000000000000000, 0.000000000000000000, 1.000000000000000000 ) ) ;
#333 = DIRECTION ( 'NONE',  ( 0.000000000000000000, 0.000000000000000000, 1.000000000000000000 ) ) ;
#334 = AXIS2_PLACEMENT_3D ( 'NONE', #3, #296, #150 ) ;
#335 = CARTESIAN_POINT ( 'NONE',  ( -21.25000000000000000, 2.500000000000000000, -6.500000000000000000 ) ) ;
#336 = VERTEX_POINT ( 'NONE', #62 ) ;
#337 = CC_DESIGN_DATE_AND_TIME_ASSIGNMENT ( #159, #271, ( #125 ) ) ;
#338 = CARTESIAN_POINT ( 'NONE',  ( -21.25000000000000000, 2.500000000000000000, -10.50000000000000000 ) ) ;
#339 = VERTEX_POINT ( 'NONE', #30 ) ;
#340 = ORIENTED_EDGE ( 'NONE', *, *, #182, .T. ) ;
#341 = ADVANCED_FACE ( 'NONE', ( #201 ), #319, .F. ) ;
#342 = ORIENTED_EDGE ( 'NONE', *, *, #182, .F. ) ;
#343 = DIRECTION ( 'NONE',  ( 0.000000000000000000, 0.000000000000000000, -1.000000000000000000 ) ) ;
#344 = CARTESIAN_POINT ( 'NONE',  ( -1.750000000000000000, 2.500000000000000000, 10.50000000000000000 ) ) ;
#345 = DIRECTION ( 'NONE',  ( 1.000000000000000000, 0.000000000000000000, 0.000000000000000000 ) ) ;
#346 = ORIENTED_EDGE ( 'NONE', *, *, #310, .T. ) ;
#347 = DIRECTION ( 'NONE',  ( 0.000000000000000000, -1.000000000000000000, 0.000000000000000000 ) ) ;
#348 = DIRECTION ( 'NONE',  ( 1.000000000000000000, 0.000000000000000000, 0.000000000000000000 ) ) ;
#349 = MANIFOLD_SOLID_BREP ( '凸台-拉伸3', #122 ) ;
#350 = AXIS2_PLACEMENT_3D ( 'NONE', #148, #33, #61 ) ;
#351 = COORDINATED_UNIVERSAL_TIME_OFFSET ( 8, 0, .AHEAD. ) ;
#352 = DATE_TIME_ROLE ( 'classification_date' ) ;
#353 = VECTOR ( 'NONE', #187, 1000.000000000000000 ) ;
#354 = CC_DESIGN_SECURITY_CLASSIFICATION ( #98, ( #274 ) ) ;
#355 = DIRECTION ( 'NONE',  ( 1.000000000000000000, 0.000000000000000000, -0.000000000000000000 ) ) ;
#356 = DATE_AND_TIME ( #130, #4 ) ;
#357 = ADVANCED_FACE ( 'NONE', ( #178 ), #293, .T. ) ;
#358 = ORIENTED_EDGE ( 'NONE', *, *, #207, .T. ) ;
#359 = APPLICATION_CONTEXT ( 'configuration controlled 3d designs of mechanical parts and assemblies' ) ;
#360 = VECTOR ( 'NONE', #222, 1000.000000000000000 ) ;
#361 = ORIENTED_EDGE ( 'NONE', *, *, #186, .F. ) ;
#362 = CARTESIAN_POINT ( 'NONE',  ( -1.750000000000000000, 2.500000000000000000, 6.500000000000000000 ) ) ;
#363 = APPROVAL ( #102, '未指定' ) ;
#364 = ORIENTED_EDGE ( 'NONE', *, *, #244, .T. ) ;
#365 = FACE_OUTER_BOUND ( 'NONE', #190, .T. ) ;
#366 = CARTESIAN_POINT ( 'NONE',  ( -21.25000000000000000, 2.500000000000000000, -6.500000000000000000 ) ) ;
#367 = ORIENTED_EDGE ( 'NONE', *, *, #11, .T. ) ;
#368 = DIRECTION ( 'NONE',  ( -0.000000000000000000, -1.000000000000000000, -0.000000000000000000 ) ) ;
#369 = EDGE_CURVE ( 'NONE', #21, #312, #203, .T. ) ;
ENDSEC;
END-ISO-10303-21;
