ISO-10303-21;
HEADER;
FILE_DESCRIPTION (( 'STEP AP203' ),
    '1' );
FILE_NAME ('FN-HLD-003_battery-tray-zone_R0.5.STEP',
    '2026-07-26T13:51:34',
    ( '' ),
    ( '' ),
    'SwSTEP 2.0',
    'SolidWorks 2022',
    '' );
FILE_SCHEMA (( 'CONFIG_CONTROL_DESIGN' ));
ENDSEC;

DATA;
#1 = EDGE_LOOP ( 'NONE', ( #80, #222, #175, #227 ) ) ;
#2 = LINE ( 'NONE', #207, #133 ) ;
#3 = LINE ( 'NONE', #132, #122 ) ;
#4 = ORIENTED_EDGE ( 'NONE', *, *, #102, .F. ) ;
#5 = AXIS2_PLACEMENT_3D ( 'NONE', #225, #117, #99 ) ;
#6 = CARTESIAN_POINT ( 'NONE',  ( 36.00000000000000000, 3.000000000000000000, 33.50000000000000000 ) ) ;
#7 =( GEOMETRIC_REPRESENTATION_CONTEXT ( 3 ) GLOBAL_UNCERTAINTY_ASSIGNED_CONTEXT ( ( #154 ) ) GLOBAL_UNIT_ASSIGNED_CONTEXT ( ( #159, #215, #160 ) ) REPRESENTATION_CONTEXT ( 'NONE', 'WORKASPACE' ) );
#8 = CARTESIAN_POINT ( 'NONE',  ( 36.00000000000000000, 0.000000000000000000, 33.50000000000000000 ) ) ;
#9 = EDGE_CURVE ( 'NONE', #137, #212, #3, .T. ) ;
#10 = CARTESIAN_POINT ( 'NONE',  ( -36.00000000000000000, 3.000000000000000000, 33.50000000000000000 ) ) ;
#11 = CARTESIAN_POINT ( 'NONE',  ( 36.00000000000000000, 3.000000000000000000, 33.50000000000000000 ) ) ;
#12 = LINE ( 'NONE', #26, #224 ) ;
#13 = CARTESIAN_POINT ( 'NONE',  ( 0.000000000000000000, 0.000000000000000000, 0.000000000000000000 ) ) ;
#14 = PERSON_AND_ORGANIZATION_ROLE ( 'design_owner' ) ;
#15 = VECTOR ( 'NONE', #196, 1000.000000000000000 ) ;
#16 = EDGE_CURVE ( 'NONE', #212, #75, #186, .T. ) ;
#17 = APPROVAL_STATUS ( 'not_yet_approved' ) ;
#18 = ORIENTED_EDGE ( 'NONE', *, *, #9, .T. ) ;
#19 = EDGE_LOOP ( 'NONE', ( #211, #176, #35, #116 ) ) ;
#20 = SHAPE_DEFINITION_REPRESENTATION ( #187, #43 ) ;
#21 = AXIS2_PLACEMENT_3D ( 'NONE', #203, #46, #28 ) ;
#22 = VERTEX_POINT ( 'NONE', #38 ) ;
#23 = CALENDAR_DATE ( 2026, 26, 7 ) ;
#24 = ORIENTED_EDGE ( 'NONE', *, *, #181, .F. ) ;
#25 = LINE ( 'NONE', #8, #157 ) ;
#26 = CARTESIAN_POINT ( 'NONE',  ( 36.00000000000000000, 3.000000000000000000, 33.50000000000000000 ) ) ;
#27 = CARTESIAN_POINT ( 'NONE',  ( -36.00000000000000000, 0.000000000000000000, 33.50000000000000000 ) ) ;
#28 = DIRECTION ( 'NONE',  ( 0.000000000000000000, -0.000000000000000000, -1.000000000000000000 ) ) ;
#29 = CC_DESIGN_APPROVAL ( #82, ( #147 ) ) ;
#30 = EDGE_CURVE ( 'NONE', #56, #75, #2, .T. ) ;
#31 = VECTOR ( 'NONE', #41, 1000.000000000000000 ) ;
#32 = ADVANCED_FACE ( 'NONE', ( #193 ), #149, .F. ) ;
#33 = ADVANCED_FACE ( 'NONE', ( #65 ), #226, .F. ) ;
#34 = VECTOR ( 'NONE', #162, 1000.000000000000000 ) ;
#35 = ORIENTED_EDGE ( 'NONE', *, *, #219, .F. ) ;
#36 = DATE_AND_TIME ( #195, #111 ) ;
#37 = VERTEX_POINT ( 'NONE', #120 ) ;
#38 = CARTESIAN_POINT ( 'NONE',  ( 36.00000000000000000, 3.000000000000000000, 33.50000000000000000 ) ) ;
#39 = APPLICATION_CONTEXT ( 'configuration controlled 3d designs of mechanical parts and assemblies' ) ;
#40 = CC_DESIGN_PERSON_AND_ORGANIZATION_ASSIGNMENT ( #57, #208, ( #206 ) ) ;
#41 = DIRECTION ( 'NONE',  ( -0.000000000000000000, -1.000000000000000000, -0.000000000000000000 ) ) ;
#42 = DATE_TIME_ROLE ( 'classification_date' ) ;
#43 = ADVANCED_BREP_SHAPE_REPRESENTATION ( 'FN-HLD-003_battery-tray-zone_R0.5', ( #53, #235 ), #7 ) ;
#44 = DIRECTION ( 'NONE',  ( 0.000000000000000000, 0.000000000000000000, -1.000000000000000000 ) ) ;
#45 = COORDINATED_UNIVERSAL_TIME_OFFSET ( 8, 0, .AHEAD. ) ;
#46 = DIRECTION ( 'NONE',  ( 0.000000000000000000, -1.000000000000000000, 0.000000000000000000 ) ) ;
#47 = CARTESIAN_POINT ( 'NONE',  ( 36.00000000000000000, 3.000000000000000000, -33.50000000000000000 ) ) ;
#48 = DIRECTION ( 'NONE',  ( 1.000000000000000000, 0.000000000000000000, 0.000000000000000000 ) ) ;
#49 = PLANE ( 'NONE',  #150 ) ;
#50 = DIRECTION ( 'NONE',  ( -1.000000000000000000, -0.000000000000000000, -0.000000000000000000 ) ) ;
#51 = APPROVAL ( #119, '未指定' ) ;
#52 = VECTOR ( 'NONE', #68, 1000.000000000000000 ) ;
#53 = MANIFOLD_SOLID_BREP ( '凸台-拉伸1', #78 ) ;
#54 = PERSON ( '未指定', '未指定', '未指定', ('未指定'), ('未指定'), ('未指定') ) ;
#55 = APPROVAL_DATE_TIME ( #113, #126 ) ;
#56 = VERTEX_POINT ( 'NONE', #100 ) ;
#57 = PERSON_AND_ORGANIZATION ( #54, #72 ) ;
#58 = ORIENTED_EDGE ( 'NONE', *, *, #102, .T. ) ;
#59 = PERSON_AND_ORGANIZATION_ROLE ( 'creator' ) ;
#60 = DIRECTION ( 'NONE',  ( -1.000000000000000000, 0.000000000000000000, -0.000000000000000000 ) ) ;
#61 = CC_DESIGN_DATE_AND_TIME_ASSIGNMENT ( #236, #73, ( #165 ) ) ;
#62 = APPROVAL_STATUS ( 'not_yet_approved' ) ;
#63 = VECTOR ( 'NONE', #220, 1000.000000000000000 ) ;
#64 = LOCAL_TIME ( 21, 51, 34.00000000000000000, #182 ) ;
#65 = FACE_OUTER_BOUND ( 'NONE', #19, .T. ) ;
#66 = DIRECTION ( 'NONE',  ( 0.000000000000000000, 0.000000000000000000, 1.000000000000000000 ) ) ;
#67 = PLANE ( 'NONE',  #21 ) ;
#68 = DIRECTION ( 'NONE',  ( -0.000000000000000000, -1.000000000000000000, -0.000000000000000000 ) ) ;
#69 = DESIGN_CONTEXT ( 'detailed design', #131, 'design' ) ;
#70 = DIRECTION ( 'NONE',  ( 0.000000000000000000, 0.000000000000000000, 1.000000000000000000 ) ) ;
#71 = VECTOR ( 'NONE', #50, 1000.000000000000000 ) ;
#72 = ORGANIZATION ( '未指定', '未指定', '' ) ;
#73 = DATE_TIME_ROLE ( 'creation_date' ) ;
#74 = PRODUCT ( 'FN-HLD-003_battery-tray-zone_R0.5', 'FN-HLD-003_battery-tray-zone_R0.5', '', ( #174 ) ) ;
#75 = VERTEX_POINT ( 'NONE', #83 ) ;
#76 = ORIENTED_EDGE ( 'NONE', *, *, #146, .F. ) ;
#77 = APPROVAL_ROLE ( '' ) ;
#78 = CLOSED_SHELL ( 'NONE', ( #32, #33, #79, #143, #163, #85 ) ) ;
#79 = ADVANCED_FACE ( 'NONE', ( #153 ), #164, .F. ) ;
#80 = ORIENTED_EDGE ( 'NONE', *, *, #30, .F. ) ;
#81 = CALENDAR_DATE ( 2026, 26, 7 ) ;
#82 = APPROVAL ( #62, '未指定' ) ;
#83 = CARTESIAN_POINT ( 'NONE',  ( -36.00000000000000000, 0.000000000000000000, 33.50000000000000000 ) ) ;
#84 = COORDINATED_UNIVERSAL_TIME_OFFSET ( 8, 0, .AHEAD. ) ;
#85 = ADVANCED_FACE ( 'NONE', ( #140 ), #67, .T. ) ;
#86 = ORIENTED_EDGE ( 'NONE', *, *, #146, .T. ) ;
#87 = DATE_AND_TIME ( #23, #183 ) ;
#88 = FACE_OUTER_BOUND ( 'NONE', #168, .T. ) ;
#89 = LINE ( 'NONE', #142, #190 ) ;
#90 = CARTESIAN_POINT ( 'NONE',  ( -36.00000000000000000, 3.000000000000000000, -33.50000000000000000 ) ) ;
#91 = AXIS2_PLACEMENT_3D ( 'NONE', #178, #110, #218 ) ;
#92 = FACE_OUTER_BOUND ( 'NONE', #185, .T. ) ;
#93 = CC_DESIGN_PERSON_AND_ORGANIZATION_ASSIGNMENT ( #166, #14, ( #74 ) ) ;
#94 = LINE ( 'NONE', #10, #123 ) ;
#95 = APPLICATION_PROTOCOL_DEFINITION ( 'international standard', 'config_control_design', 1994, #131 ) ;
#96 = PERSON_AND_ORGANIZATION ( #54, #72 ) ;
#97 = ORIENTED_EDGE ( 'NONE', *, *, #16, .F. ) ;
#98 = PERSON_AND_ORGANIZATION ( #54, #72 ) ;
#99 = DIRECTION ( 'NONE',  ( 0.000000000000000000, 0.000000000000000000, -1.000000000000000000 ) ) ;
#100 = CARTESIAN_POINT ( 'NONE',  ( -36.00000000000000000, 0.000000000000000000, -33.50000000000000000 ) ) ;
#101 = DATE_AND_TIME ( #81, #202 ) ;
#102 = EDGE_CURVE ( 'NONE', #213, #104, #112, .T. ) ;
#103 = ORIENTED_EDGE ( 'NONE', *, *, #230, .T. ) ;
#104 = VERTEX_POINT ( 'NONE', #216 ) ;
#105 = CARTESIAN_POINT ( 'NONE',  ( 36.00000000000000000, 3.000000000000000000, -33.50000000000000000 ) ) ;
#106 = DIRECTION ( 'NONE',  ( 0.000000000000000000, -0.000000000000000000, -1.000000000000000000 ) ) ;
#107 = EDGE_CURVE ( 'NONE', #104, #56, #89, .T. ) ;
#108 = LINE ( 'NONE', #141, #71 ) ;
#109 = AXIS2_PLACEMENT_3D ( 'NONE', #189, #44, #60 ) ;
#110 = DIRECTION ( 'NONE',  ( 0.000000000000000000, 0.000000000000000000, 1.000000000000000000 ) ) ;
#111 = LOCAL_TIME ( 21, 51, 34.00000000000000000, #170 ) ;
#112 = LINE ( 'NONE', #47, #52 ) ;
#113 = DATE_AND_TIME ( #145, #144 ) ;
#114 = COORDINATED_UNIVERSAL_TIME_OFFSET ( 8, 0, .AHEAD. ) ;
#115 = ORIENTED_EDGE ( 'NONE', *, *, #219, .T. ) ;
#116 = ORIENTED_EDGE ( 'NONE', *, *, #16, .T. ) ;
#117 = DIRECTION ( 'NONE',  ( 1.000000000000000000, -0.000000000000000000, 0.000000000000000000 ) ) ;
#118 = DIRECTION ( 'NONE',  ( -0.000000000000000000, -0.000000000000000000, 1.000000000000000000 ) ) ;
#119 = APPROVAL_STATUS ( 'not_yet_approved' ) ;
#120 = CARTESIAN_POINT ( 'NONE',  ( 36.00000000000000000, 0.000000000000000000, 33.50000000000000000 ) ) ;
#121 = CARTESIAN_POINT ( 'NONE',  ( -36.00000000000000000, 3.000000000000000000, 33.50000000000000000 ) ) ;
#122 = VECTOR ( 'NONE', #171, 1000.000000000000000 ) ;
#123 = VECTOR ( 'NONE', #177, 1000.000000000000000 ) ;
#124 = LINE ( 'NONE', #6, #63 ) ;
#125 = EDGE_CURVE ( 'NONE', #22, #37, #124, .T. ) ;
#126 = APPROVAL ( #17, '未指定' ) ;
#127 = DIRECTION ( 'NONE',  ( -1.000000000000000000, -0.000000000000000000, -0.000000000000000000 ) ) ;
#128 = APPROVAL_ROLE ( '' ) ;
#129 = CC_DESIGN_APPROVAL ( #126, ( #165 ) ) ;
#130 = CC_DESIGN_PERSON_AND_ORGANIZATION_ASSIGNMENT ( #151, #214, ( #147 ) ) ;
#131 = APPLICATION_CONTEXT ( 'configuration controlled 3d designs of mechanical parts and assemblies' ) ;
#132 = CARTESIAN_POINT ( 'NONE',  ( -36.00000000000000000, 3.000000000000000000, 33.50000000000000000 ) ) ;
#133 = VECTOR ( 'NONE', #118, 1000.000000000000000 ) ;
#134 = ORIENTED_EDGE ( 'NONE', *, *, #136, .F. ) ;
#135 = ORIENTED_EDGE ( 'NONE', *, *, #136, .T. ) ;
#136 = EDGE_CURVE ( 'NONE', #213, #137, #108, .T. ) ;
#137 = VERTEX_POINT ( 'NONE', #199 ) ;
#138 = SECURITY_CLASSIFICATION_LEVEL ( 'unclassified' ) ;
#139 = ORIENTED_EDGE ( 'NONE', *, *, #125, .T. ) ;
#140 = FACE_OUTER_BOUND ( 'NONE', #1, .T. ) ;
#141 = CARTESIAN_POINT ( 'NONE',  ( -36.00000000000000000, 3.000000000000000000, -33.50000000000000000 ) ) ;
#142 = CARTESIAN_POINT ( 'NONE',  ( -36.00000000000000000, 0.000000000000000000, -33.50000000000000000 ) ) ;
#143 = ADVANCED_FACE ( 'NONE', ( #88 ), #180, .F. ) ;
#144 = LOCAL_TIME ( 21, 51, 34.00000000000000000, #114 ) ;
#145 = CALENDAR_DATE ( 2026, 26, 7 ) ;
#146 = EDGE_CURVE ( 'NONE', #137, #56, #158, .T. ) ;
#147 = PRODUCT_DEFINITION_FORMATION_WITH_SPECIFIED_SOURCE ( '任何', '', #74, .NOT_KNOWN. ) ;
#148 = ORIENTED_EDGE ( 'NONE', *, *, #181, .T. ) ;
#149 = PLANE ( 'NONE',  #5 ) ;
#150 = AXIS2_PLACEMENT_3D ( 'NONE', #201, #229, #106 ) ;
#151 = PERSON_AND_ORGANIZATION ( #54, #72 ) ;
#152 = EDGE_LOOP ( 'NONE', ( #103, #4, #24, #139 ) ) ;
#153 = FACE_OUTER_BOUND ( 'NONE', #152, .T. ) ;
#154 = UNCERTAINTY_MEASURE_WITH_UNIT (LENGTH_MEASURE( 1.000000000000000082E-05 ), #159, 'distance_accuracy_value', 'NONE');
#155 = APPROVAL_ROLE ( '' ) ;
#156 = ORIENTED_EDGE ( 'NONE', *, *, #9, .F. ) ;
#157 = VECTOR ( 'NONE', #232, 1000.000000000000000 ) ;
#158 = LINE ( 'NONE', #90, #15 ) ;
#159 =( LENGTH_UNIT ( ) NAMED_UNIT ( * ) SI_UNIT ( .MILLI., .METRE. ) );
#160 =( NAMED_UNIT ( * ) SI_UNIT ( $, .STERADIAN. ) SOLID_ANGLE_UNIT ( ) );
#161 = APPROVAL_PERSON_ORGANIZATION ( #98, #51, #77 ) ;
#162 = DIRECTION ( 'NONE',  ( 1.000000000000000000, 0.000000000000000000, 0.000000000000000000 ) ) ;
#163 = ADVANCED_FACE ( 'NONE', ( #92 ), #49, .F. ) ;
#164 = PLANE ( 'NONE',  #169 ) ;
#165 = PRODUCT_DEFINITION ( '未知', '', #147, #69 ) ;
#166 = PERSON_AND_ORGANIZATION ( #54, #72 ) ;
#167 = ORIENTED_EDGE ( 'NONE', *, *, #30, .T. ) ;
#168 = EDGE_LOOP ( 'NONE', ( #209, #76, #134, #58 ) ) ;
#169 = AXIS2_PLACEMENT_3D ( 'NONE', #11, #179, #66 ) ;
#170 = COORDINATED_UNIVERSAL_TIME_OFFSET ( 8, 0, .AHEAD. ) ;
#171 = DIRECTION ( 'NONE',  ( -0.000000000000000000, -0.000000000000000000, 1.000000000000000000 ) ) ;
#172 = PERSON_AND_ORGANIZATION ( #54, #72 ) ;
#173 = CC_DESIGN_PERSON_AND_ORGANIZATION_ASSIGNMENT ( #172, #59, ( #147 ) ) ;
#174 = MECHANICAL_CONTEXT ( 'NONE', #39, 'mechanical' ) ;
#175 = ORIENTED_EDGE ( 'NONE', *, *, #230, .F. ) ;
#176 = ORIENTED_EDGE ( 'NONE', *, *, #125, .F. ) ;
#177 = DIRECTION ( 'NONE',  ( 1.000000000000000000, 0.000000000000000000, 0.000000000000000000 ) ) ;
#178 = CARTESIAN_POINT ( 'NONE',  ( -36.00000000000000000, 3.000000000000000000, -33.50000000000000000 ) ) ;
#179 = DIRECTION ( 'NONE',  ( -1.000000000000000000, 0.000000000000000000, 0.000000000000000000 ) ) ;
#180 = PLANE ( 'NONE',  #91 ) ;
#181 = EDGE_CURVE ( 'NONE', #22, #213, #12, .T. ) ;
#182 = COORDINATED_UNIVERSAL_TIME_OFFSET ( 8, 0, .AHEAD. ) ;
#183 = LOCAL_TIME ( 21, 51, 34.00000000000000000, #45 ) ;
#184 = CALENDAR_DATE ( 2026, 26, 7 ) ;
#185 = EDGE_LOOP ( 'NONE', ( #18, #115, #148, #135 ) ) ;
#186 = LINE ( 'NONE', #194, #31 ) ;
#187 = PRODUCT_DEFINITION_SHAPE ( 'NONE', 'NONE',  #165 ) ;
#188 = EDGE_CURVE ( 'NONE', #75, #37, #198, .T. ) ;
#189 = CARTESIAN_POINT ( 'NONE',  ( -36.00000000000000000, 3.000000000000000000, 33.50000000000000000 ) ) ;
#190 = VECTOR ( 'NONE', #127, 1000.000000000000000 ) ;
#191 = APPROVAL_DATE_TIME ( #101, #51 ) ;
#192 = CC_DESIGN_APPROVAL ( #51, ( #206 ) ) ;
#193 = FACE_OUTER_BOUND ( 'NONE', #228, .T. ) ;
#194 = CARTESIAN_POINT ( 'NONE',  ( -36.00000000000000000, 3.000000000000000000, 33.50000000000000000 ) ) ;
#195 = CALENDAR_DATE ( 2026, 26, 7 ) ;
#196 = DIRECTION ( 'NONE',  ( -0.000000000000000000, -1.000000000000000000, -0.000000000000000000 ) ) ;
#197 = CC_DESIGN_SECURITY_CLASSIFICATION ( #206, ( #147 ) ) ;
#198 = LINE ( 'NONE', #27, #34 ) ;
#199 = CARTESIAN_POINT ( 'NONE',  ( -36.00000000000000000, 3.000000000000000000, -33.50000000000000000 ) ) ;
#200 = PRODUCT_RELATED_PRODUCT_CATEGORY ( 'detail', '', ( #74 ) ) ;
#201 = CARTESIAN_POINT ( 'NONE',  ( 0.000000000000000000, 3.000000000000000000, 0.000000000000000000 ) ) ;
#202 = LOCAL_TIME ( 21, 51, 34.00000000000000000, #84 ) ;
#203 = CARTESIAN_POINT ( 'NONE',  ( 0.000000000000000000, 0.000000000000000000, 0.000000000000000000 ) ) ;
#204 = PERSON_AND_ORGANIZATION_ROLE ( 'creator' ) ;
#205 = PERSON_AND_ORGANIZATION ( #54, #72 ) ;
#206 = SECURITY_CLASSIFICATION ( '', '', #138 ) ;
#207 = CARTESIAN_POINT ( 'NONE',  ( -36.00000000000000000, 0.000000000000000000, 33.50000000000000000 ) ) ;
#208 = PERSON_AND_ORGANIZATION_ROLE ( 'classification_officer' ) ;
#209 = ORIENTED_EDGE ( 'NONE', *, *, #107, .T. ) ;
#210 = CC_DESIGN_PERSON_AND_ORGANIZATION_ASSIGNMENT ( #96, #204, ( #165 ) ) ;
#211 = ORIENTED_EDGE ( 'NONE', *, *, #188, .T. ) ;
#212 = VERTEX_POINT ( 'NONE', #121 ) ;
#213 = VERTEX_POINT ( 'NONE', #105 ) ;
#214 = PERSON_AND_ORGANIZATION_ROLE ( 'design_supplier' ) ;
#215 =( NAMED_UNIT ( * ) PLANE_ANGLE_UNIT ( ) SI_UNIT ( $, .RADIAN. ) );
#216 = CARTESIAN_POINT ( 'NONE',  ( 36.00000000000000000, 0.000000000000000000, -33.50000000000000000 ) ) ;
#217 = APPROVAL_PERSON_ORGANIZATION ( #205, #126, #128 ) ;
#218 = DIRECTION ( 'NONE',  ( 1.000000000000000000, 0.000000000000000000, -0.000000000000000000 ) ) ;
#219 = EDGE_CURVE ( 'NONE', #212, #22, #94, .T. ) ;
#220 = DIRECTION ( 'NONE',  ( -0.000000000000000000, -1.000000000000000000, -0.000000000000000000 ) ) ;
#221 = APPROVAL_PERSON_ORGANIZATION ( #234, #82, #155 ) ;
#222 = ORIENTED_EDGE ( 'NONE', *, *, #107, .F. ) ;
#223 = APPROVAL_DATE_TIME ( #36, #82 ) ;
#224 = VECTOR ( 'NONE', #231, 1000.000000000000000 ) ;
#225 = CARTESIAN_POINT ( 'NONE',  ( -36.00000000000000000, 3.000000000000000000, 33.50000000000000000 ) ) ;
#226 = PLANE ( 'NONE',  #109 ) ;
#227 = ORIENTED_EDGE ( 'NONE', *, *, #188, .F. ) ;
#228 = EDGE_LOOP ( 'NONE', ( #167, #97, #156, #86 ) ) ;
#229 = DIRECTION ( 'NONE',  ( 0.000000000000000000, -1.000000000000000000, 0.000000000000000000 ) ) ;
#230 = EDGE_CURVE ( 'NONE', #37, #104, #25, .T. ) ;
#231 = DIRECTION ( 'NONE',  ( 0.000000000000000000, 0.000000000000000000, -1.000000000000000000 ) ) ;
#232 = DIRECTION ( 'NONE',  ( 0.000000000000000000, 0.000000000000000000, -1.000000000000000000 ) ) ;
#233 = APPLICATION_PROTOCOL_DEFINITION ( 'international standard', 'config_control_design', 1994, #39 ) ;
#234 = PERSON_AND_ORGANIZATION ( #54, #72 ) ;
#235 = AXIS2_PLACEMENT_3D ( 'NONE', #13, #70, #48 ) ;
#236 = DATE_AND_TIME ( #184, #64 ) ;
#237 = CC_DESIGN_DATE_AND_TIME_ASSIGNMENT ( #87, #42, ( #206 ) ) ;
ENDSEC;
END-ISO-10303-21;
