ISO-10303-21;
HEADER;
FILE_DESCRIPTION (( 'STEP AP203' ),
    '1' );
FILE_NAME ('FN-HAR-010_W2-battery-charge_R0.5.STEP',
    '2026-07-26T13:52:43',
    ( '' ),
    ( '' ),
    'SwSTEP 2.0',
    'SolidWorks 2022',
    '' );
FILE_SCHEMA (( 'CONFIG_CONTROL_DESIGN' ));
ENDSEC;

DATA;
#1 = EDGE_LOOP ( 'NONE', ( #368, #160, #97, #55 ) ) ;
#2 =( LENGTH_UNIT ( ) NAMED_UNIT ( * ) SI_UNIT ( .MILLI., .METRE. ) );
#3 = CARTESIAN_POINT ( 'NONE',  ( -8.500000000000000000, 0.000000000000000000, 13.00000000000000000 ) ) ;
#4 = CC_DESIGN_PERSON_AND_ORGANIZATION_ASSIGNMENT ( #173, #319, ( #100 ) ) ;
#5 = VECTOR ( 'NONE', #118, 1000.000000000000000 ) ;
#6 = LINE ( 'NONE', #283, #167 ) ;
#7 = CC_DESIGN_PERSON_AND_ORGANIZATION_ASSIGNMENT ( #161, #93, ( #300 ) ) ;
#8 = DIRECTION ( 'NONE',  ( 0.000000000000000000, 0.000000000000000000, -1.000000000000000000 ) ) ;
#9 = SECURITY_CLASSIFICATION ( '', '', #243 ) ;
#10 = CARTESIAN_POINT ( 'NONE',  ( -4.500000000000000000, 2.500000000000000000, 6.000000000000000000 ) ) ;
#11 = CARTESIAN_POINT ( 'NONE',  ( -8.500000000000000000, 2.500000000000000000, 13.00000000000000000 ) ) ;
#12 = EDGE_CURVE ( 'NONE', #70, #49, #51, .T. ) ;
#13 = VERTEX_POINT ( 'NONE', #166 ) ;
#14 = CARTESIAN_POINT ( 'NONE',  ( -8.500000000000000000, 2.500000000000000000, 2.000000000000000000 ) ) ;
#15 = ADVANCED_FACE ( 'NONE', ( #25 ), #77, .F. ) ;
#16 = PERSON_AND_ORGANIZATION ( #209, #86 ) ;
#17 = CARTESIAN_POINT ( 'NONE',  ( 4.500000000000000000, 2.500000000000000000, 6.000000000000000000 ) ) ;
#18 = DIRECTION ( 'NONE',  ( 1.000000000000000000, 0.000000000000000000, -0.000000000000000000 ) ) ;
#19 = UNCERTAINTY_MEASURE_WITH_UNIT (LENGTH_MEASURE( 1.000000000000000082E-05 ), #2, 'distance_accuracy_value', 'NONE');
#20 = DATE_TIME_ROLE ( 'creation_date' ) ;
#21 = CARTESIAN_POINT ( 'NONE',  ( 4.500000000000000000, 2.500000000000000000, -13.00000000000000000 ) ) ;
#22 = CARTESIAN_POINT ( 'NONE',  ( -4.500000000000000000, 0.000000000000000000, 13.00000000000000000 ) ) ;
#23 = VERTEX_POINT ( 'NONE', #3 ) ;
#24 = VECTOR ( 'NONE', #132, 1000.000000000000000 ) ;
#25 = FACE_OUTER_BOUND ( 'NONE', #281, .T. ) ;
#26 = ORIENTED_EDGE ( 'NONE', *, *, #228, .F. ) ;
#27 = ORIENTED_EDGE ( 'NONE', *, *, #341, .F. ) ;
#28 = VERTEX_POINT ( 'NONE', #88 ) ;
#29 = CALENDAR_DATE ( 2026, 26, 7 ) ;
#30 = EDGE_CURVE ( 'NONE', #141, #361, #233, .T. ) ;
#31 = LINE ( 'NONE', #117, #5 ) ;
#32 = VECTOR ( 'NONE', #183, 1000.000000000000000 ) ;
#33 = CARTESIAN_POINT ( 'NONE',  ( -8.500000000000000000, 2.500000000000000000, 13.00000000000000000 ) ) ;
#34 = LINE ( 'NONE', #152, #224 ) ;
#35 = DIRECTION ( 'NONE',  ( -0.000000000000000000, -1.000000000000000000, 0.000000000000000000 ) ) ;
#36 = ORIENTED_EDGE ( 'NONE', *, *, #136, .F. ) ;
#37 = ADVANCED_FACE ( 'NONE', ( #346 ), #85, .F. ) ;
#38 = CARTESIAN_POINT ( 'NONE',  ( -8.500000000000000000, 2.500000000000000000, 6.000000000000000000 ) ) ;
#39 = PERSON_AND_ORGANIZATION ( #209, #86 ) ;
#40 = DIRECTION ( 'NONE',  ( 0.000000000000000000, -0.000000000000000000, -1.000000000000000000 ) ) ;
#41 = FACE_OUTER_BOUND ( 'NONE', #312, .T. ) ;
#42 = ORIENTED_EDGE ( 'NONE', *, *, #138, .F. ) ;
#43 = VECTOR ( 'NONE', #299, 1000.000000000000000 ) ;
#44 = PERSON_AND_ORGANIZATION ( #209, #86 ) ;
#45 = DIRECTION ( 'NONE',  ( 1.000000000000000000, -0.000000000000000000, 0.000000000000000000 ) ) ;
#46 = CARTESIAN_POINT ( 'NONE',  ( 8.500000000000000000, 0.000000000000000000, -13.00000000000000000 ) ) ;
#47 = ORIENTED_EDGE ( 'NONE', *, *, #218, .T. ) ;
#48 = DIRECTION ( 'NONE',  ( 0.000000000000000000, 0.000000000000000000, 1.000000000000000000 ) ) ;
#49 = VERTEX_POINT ( 'NONE', #175 ) ;
#50 = LOCAL_TIME ( 21, 52, 43.00000000000000000, #234 ) ;
#51 = LINE ( 'NONE', #193, #126 ) ;
#52 = ORIENTED_EDGE ( 'NONE', *, *, #178, .T. ) ;
#53 = ADVANCED_BREP_SHAPE_REPRESENTATION ( 'FN-HAR-010_W2-battery-charge_R0.5', ( #256, #196 ), #322 ) ;
#54 = DIRECTION ( 'NONE',  ( 1.000000000000000000, 0.000000000000000000, 0.000000000000000000 ) ) ;
#55 = ORIENTED_EDGE ( 'NONE', *, *, #136, .T. ) ;
#56 = CC_DESIGN_DATE_AND_TIME_ASSIGNMENT ( #238, #20, ( #198 ) ) ;
#57 = DIRECTION ( 'NONE',  ( 0.000000000000000000, 0.000000000000000000, -1.000000000000000000 ) ) ;
#58 = CARTESIAN_POINT ( 'NONE',  ( 8.500000000000000000, 0.000000000000000000, 6.000000000000000000 ) ) ;
#59 = AXIS2_PLACEMENT_3D ( 'NONE', #195, #83, #119 ) ;
#60 = AXIS2_PLACEMENT_3D ( 'NONE', #21, #48, #207 ) ;
#61 = EDGE_CURVE ( 'NONE', #189, #23, #6, .T. ) ;
#62 = APPLICATION_PROTOCOL_DEFINITION ( 'international standard', 'config_control_design', 1994, #146 ) ;
#63 = CARTESIAN_POINT ( 'NONE',  ( 8.500000000000000000, 2.500000000000000000, -13.00000000000000000 ) ) ;
#64 = EDGE_CURVE ( 'NONE', #137, #28, #31, .T. ) ;
#65 = APPROVAL_ROLE ( '' ) ;
#66 = PLANE ( 'NONE',  #102 ) ;
#67 = ORIENTED_EDGE ( 'NONE', *, *, #30, .F. ) ;
#68 = DATE_AND_TIME ( #213, #128 ) ;
#69 = CARTESIAN_POINT ( 'NONE',  ( -4.500000000000000000, 2.500000000000000000, 13.00000000000000000 ) ) ;
#70 = VERTEX_POINT ( 'NONE', #46 ) ;
#71 = DIRECTION ( 'NONE',  ( -0.000000000000000000, -1.000000000000000000, -0.000000000000000000 ) ) ;
#72 = APPROVAL ( #263, '未指定' ) ;
#73 = ORIENTED_EDGE ( 'NONE', *, *, #61, .T. ) ;
#74 = LOCAL_TIME ( 21, 52, 43.00000000000000000, #315 ) ;
#75 = VERTEX_POINT ( 'NONE', #296 ) ;
#76 = LINE ( 'NONE', #157, #367 ) ;
#77 = PLANE ( 'NONE',  #59 ) ;
#78 = ADVANCED_FACE ( 'NONE', ( #41 ), #260, .F. ) ;
#79 = AXIS2_PLACEMENT_3D ( 'NONE', #148, #135, #40 ) ;
#80 = ORIENTED_EDGE ( 'NONE', *, *, #61, .F. ) ;
#81 = ORIENTED_EDGE ( 'NONE', *, *, #12, .F. ) ;
#82 = VECTOR ( 'NONE', #35, 1000.000000000000000 ) ;
#83 = DIRECTION ( 'NONE',  ( 0.000000000000000000, 0.000000000000000000, -1.000000000000000000 ) ) ;
#84 = CALENDAR_DATE ( 2026, 26, 7 ) ;
#85 = PLANE ( 'NONE',  #318 ) ;
#86 = ORGANIZATION ( '未指定', '未指定', '' ) ;
#87 = DIRECTION ( 'NONE',  ( 1.000000000000000000, 0.000000000000000000, 0.000000000000000000 ) ) ;
#88 = CARTESIAN_POINT ( 'NONE',  ( 4.500000000000000000, 2.500000000000000000, 2.000000000000000000 ) ) ;
#89 = LINE ( 'NONE', #331, #206 ) ;
#90 = APPROVAL_STATUS ( 'not_yet_approved' ) ;
#91 = DIRECTION ( 'NONE',  ( 0.000000000000000000, 0.000000000000000000, -1.000000000000000000 ) ) ;
#92 = EDGE_LOOP ( 'NONE', ( #366, #80, #343, #276 ) ) ;
#93 = PERSON_AND_ORGANIZATION_ROLE ( 'creator' ) ;
#94 = CARTESIAN_POINT ( 'NONE',  ( 8.500000000000000000, 2.500000000000000000, 6.000000000000000000 ) ) ;
#95 = LINE ( 'NONE', #17, #24 ) ;
#96 = CARTESIAN_POINT ( 'NONE',  ( 8.500000000000000000, 2.500000000000000000, 6.000000000000000000 ) ) ;
#97 = ORIENTED_EDGE ( 'NONE', *, *, #255, .F. ) ;
#98 = PERSON_AND_ORGANIZATION_ROLE ( 'design_supplier' ) ;
#99 = FACE_OUTER_BOUND ( 'NONE', #310, .T. ) ;
#100 = PRODUCT ( 'FN-HAR-010_W2-battery-charge_R0.5', 'FN-HAR-010_W2-battery-charge_R0.5', '', ( #227 ) ) ;
#101 = CARTESIAN_POINT ( 'NONE',  ( -4.500000000000000000, 2.500000000000000000, 6.000000000000000000 ) ) ;
#102 = AXIS2_PLACEMENT_3D ( 'NONE', #14, #245, #18 ) ;
#103 = AXIS2_PLACEMENT_3D ( 'NONE', #187, #214, #298 ) ;
#104 = EDGE_LOOP ( 'NONE', ( #216, #364, #27, #199 ) ) ;
#105 = PLANE ( 'NONE',  #176 ) ;
#106 = CC_DESIGN_PERSON_AND_ORGANIZATION_ASSIGNMENT ( #345, #285, ( #198 ) ) ;
#107 = LOCAL_TIME ( 21, 52, 43.00000000000000000, #282 ) ;
#108 = ORIENTED_EDGE ( 'NONE', *, *, #178, .F. ) ;
#109 = ADVANCED_FACE ( 'NONE', ( #188 ), #66, .F. ) ;
#110 = EDGE_LOOP ( 'NONE', ( #52, #36, #42, #47 ) ) ;
#111 = APPLICATION_CONTEXT ( 'configuration controlled 3d designs of mechanical parts and assemblies' ) ;
#112 = VECTOR ( 'NONE', #240, 1000.000000000000000 ) ;
#113 = APPROVAL_PERSON_ORGANIZATION ( #179, #190, #230 ) ;
#114 = CARTESIAN_POINT ( 'NONE',  ( 4.500000000000000000, 0.000000000000000000, 6.000000000000000000 ) ) ;
#115 = EDGE_CURVE ( 'NONE', #28, #13, #356, .T. ) ;
#116 = LINE ( 'NONE', #229, #82 ) ;
#117 = CARTESIAN_POINT ( 'NONE',  ( 4.500000000000000000, 2.500000000000000000, 6.000000000000000000 ) ) ;
#118 = DIRECTION ( 'NONE',  ( -0.000000000000000000, -0.000000000000000000, 1.000000000000000000 ) ) ;
#119 = DIRECTION ( 'NONE',  ( -1.000000000000000000, 0.000000000000000000, -0.000000000000000000 ) ) ;
#120 = PERSON_AND_ORGANIZATION_ROLE ( 'classification_officer' ) ;
#121 = LINE ( 'NONE', #215, #239 ) ;
#122 = COORDINATED_UNIVERSAL_TIME_OFFSET ( 8, 0, .AHEAD. ) ;
#123 = DIRECTION ( 'NONE',  ( -0.000000000000000000, -1.000000000000000000, -0.000000000000000000 ) ) ;
#124 = DIRECTION ( 'NONE',  ( 1.000000000000000000, 0.000000000000000000, 0.000000000000000000 ) ) ;
#125 = CARTESIAN_POINT ( 'NONE',  ( 4.500000000000000000, 0.000000000000000000, 6.000000000000000000 ) ) ;
#126 = VECTOR ( 'NONE', #305, 1000.000000000000000 ) ;
#127 = EDGE_CURVE ( 'NONE', #49, #184, #354, .T. ) ;
#128 = LOCAL_TIME ( 21, 52, 43.00000000000000000, #122 ) ;
#129 = ORIENTED_EDGE ( 'NONE', *, *, #64, .T. ) ;
#130 = DIRECTION ( 'NONE',  ( 0.000000000000000000, 0.000000000000000000, -1.000000000000000000 ) ) ;
#131 = ORIENTED_EDGE ( 'NONE', *, *, #30, .T. ) ;
#132 = DIRECTION ( 'NONE',  ( 1.000000000000000000, 0.000000000000000000, 0.000000000000000000 ) ) ;
#133 = CARTESIAN_POINT ( 'NONE',  ( -8.500000000000000000, 2.500000000000000000, 2.000000000000000000 ) ) ;
#134 = ORIENTED_EDGE ( 'NONE', *, *, #231, .F. ) ;
#135 = DIRECTION ( 'NONE',  ( 0.000000000000000000, -1.000000000000000000, 0.000000000000000000 ) ) ;
#136 = EDGE_CURVE ( 'NONE', #75, #70, #163, .T. ) ;
#137 = VERTEX_POINT ( 'NONE', #180 ) ;
#138 = EDGE_CURVE ( 'NONE', #172, #75, #150, .T. ) ;
#139 = VECTOR ( 'NONE', #54, 1000.000000000000000 ) ;
#140 = LOCAL_TIME ( 21, 52, 43.00000000000000000, #210 ) ;
#141 = VERTEX_POINT ( 'NONE', #221 ) ;
#142 = DATE_AND_TIME ( #29, #107 ) ;
#143 = CLOSED_SHELL ( 'NONE', ( #15, #344, #307, #349, #333, #297, #109, #37, #313, #78 ) ) ;
#144 = VECTOR ( 'NONE', #123, 1000.000000000000000 ) ;
#145 = CC_DESIGN_PERSON_AND_ORGANIZATION_ASSIGNMENT ( #154, #120, ( #9 ) ) ;
#146 = APPLICATION_CONTEXT ( 'configuration controlled 3d designs of mechanical parts and assemblies' ) ;
#147 = DIRECTION ( 'NONE',  ( 1.000000000000000000, -0.000000000000000000, 0.000000000000000000 ) ) ;
#148 = CARTESIAN_POINT ( 'NONE',  ( 0.000000000000000000, 0.000000000000000000, 0.000000000000000000 ) ) ;
#149 = PRODUCT_RELATED_PRODUCT_CATEGORY ( 'detail', '', ( #100 ) ) ;
#150 = LINE ( 'NONE', #94, #277 ) ;
#151 = APPROVAL_PERSON_ORGANIZATION ( #44, #72, #65 ) ;
#152 = CARTESIAN_POINT ( 'NONE',  ( -4.500000000000000000, 0.000000000000000000, 13.00000000000000000 ) ) ;
#153 = ORIENTED_EDGE ( 'NONE', *, *, #127, .T. ) ;
#154 = PERSON_AND_ORGANIZATION ( #209, #86 ) ;
#155 = CARTESIAN_POINT ( 'NONE',  ( -8.500000000000000000, 0.000000000000000000, 6.000000000000000000 ) ) ;
#156 = APPROVAL_DATE_TIME ( #68, #72 ) ;
#157 = CARTESIAN_POINT ( 'NONE',  ( -4.500000000000000000, 2.500000000000000000, 13.00000000000000000 ) ) ;
#158 = DIRECTION ( 'NONE',  ( -1.000000000000000000, 0.000000000000000000, -0.000000000000000000 ) ) ;
#159 = CC_DESIGN_APPROVAL ( #190, ( #198 ) ) ;
#160 = ORIENTED_EDGE ( 'NONE', *, *, #165, .F. ) ;
#161 = PERSON_AND_ORGANIZATION ( #209, #86 ) ;
#162 = DIRECTION ( 'NONE',  ( -1.000000000000000000, 0.000000000000000000, 0.000000000000000000 ) ) ;
#163 = LINE ( 'NONE', #63, #144 ) ;
#164 = ORIENTED_EDGE ( 'NONE', *, *, #274, .T. ) ;
#165 = EDGE_CURVE ( 'NONE', #137, #49, #121, .T. ) ;
#166 = CARTESIAN_POINT ( 'NONE',  ( -8.500000000000000000, 2.500000000000000000, 2.000000000000000000 ) ) ;
#167 = VECTOR ( 'NONE', #280, 1000.000000000000000 ) ;
#168 = CARTESIAN_POINT ( 'NONE',  ( 8.500000000000000000, 2.500000000000000000, 6.000000000000000000 ) ) ;
#169 = ORIENTED_EDGE ( 'NONE', *, *, #203, .T. ) ;
#170 = VERTEX_POINT ( 'NONE', #69 ) ;
#171 = VECTOR ( 'NONE', #265, 1000.000000000000000 ) ;
#172 = VERTEX_POINT ( 'NONE', #211 ) ;
#173 = PERSON_AND_ORGANIZATION ( #209, #86 ) ;
#174 = EDGE_CURVE ( 'NONE', #184, #324, #352, .T. ) ;
#175 = CARTESIAN_POINT ( 'NONE',  ( 4.500000000000000000, 0.000000000000000000, -13.00000000000000000 ) ) ;
#176 = AXIS2_PLACEMENT_3D ( 'NONE', #332, #162, #327 ) ;
#177 = CC_DESIGN_APPROVAL ( #72, ( #300 ) ) ;
#178 = EDGE_CURVE ( 'NONE', #361, #70, #89, .T. ) ;
#179 = PERSON_AND_ORGANIZATION ( #209, #86 ) ;
#180 = CARTESIAN_POINT ( 'NONE',  ( 4.500000000000000000, 2.500000000000000000, -13.00000000000000000 ) ) ;
#181 = DIRECTION ( 'NONE',  ( -1.000000000000000000, -0.000000000000000000, -0.000000000000000000 ) ) ;
#182 = SHAPE_DEFINITION_REPRESENTATION ( #291, #53 ) ;
#183 = DIRECTION ( 'NONE',  ( -0.000000000000000000, -1.000000000000000000, -0.000000000000000000 ) ) ;
#184 = VERTEX_POINT ( 'NONE', #262 ) ;
#185 = CC_DESIGN_PERSON_AND_ORGANIZATION_ASSIGNMENT ( #39, #98, ( #300 ) ) ;
#186 = DIRECTION ( 'NONE',  ( -1.000000000000000000, -0.000000000000000000, -0.000000000000000000 ) ) ;
#187 = CARTESIAN_POINT ( 'NONE',  ( 0.000000000000000000, 2.500000000000000000, 0.000000000000000000 ) ) ;
#188 = FACE_OUTER_BOUND ( 'NONE', #329, .T. ) ;
#189 = VERTEX_POINT ( 'NONE', #11 ) ;
#190 = APPROVAL ( #369, '未指定' ) ;
#191 = ORIENTED_EDGE ( 'NONE', *, *, #174, .F. ) ;
#192 = FACE_OUTER_BOUND ( 'NONE', #220, .T. ) ;
#193 = CARTESIAN_POINT ( 'NONE',  ( 4.500000000000000000, 0.000000000000000000, -13.00000000000000000 ) ) ;
#194 = CARTESIAN_POINT ( 'NONE',  ( 4.500000000000000000, 2.500000000000000000, 6.000000000000000000 ) ) ;
#195 = CARTESIAN_POINT ( 'NONE',  ( 4.500000000000000000, 2.500000000000000000, 6.000000000000000000 ) ) ;
#196 = AXIS2_PLACEMENT_3D ( 'NONE', #202, #286, #87 ) ;
#197 = CARTESIAN_POINT ( 'NONE',  ( -8.500000000000000000, 2.500000000000000000, 13.00000000000000000 ) ) ;
#198 = PRODUCT_DEFINITION ( '未知', '', #300, #317 ) ;
#199 = ORIENTED_EDGE ( 'NONE', *, *, #231, .T. ) ;
#200 = ORIENTED_EDGE ( 'NONE', *, *, #316, .T. ) ;
#201 = VECTOR ( 'NONE', #235, 1000.000000000000000 ) ;
#202 = CARTESIAN_POINT ( 'NONE',  ( 0.000000000000000000, 0.000000000000000000, 0.000000000000000000 ) ) ;
#203 = EDGE_CURVE ( 'NONE', #13, #189, #287, .T. ) ;
#204 = CARTESIAN_POINT ( 'NONE',  ( -8.500000000000000000, 2.500000000000000000, 6.000000000000000000 ) ) ;
#205 = VECTOR ( 'NONE', #350, 1000.000000000000000 ) ;
#206 = VECTOR ( 'NONE', #241, 1000.000000000000000 ) ;
#207 = DIRECTION ( 'NONE',  ( 1.000000000000000000, 0.000000000000000000, -0.000000000000000000 ) ) ;
#208 = LINE ( 'NONE', #320, #247 ) ;
#209 = PERSON ( '未指定', '未指定', '未指定', ('未指定'), ('未指定'), ('未指定') ) ;
#210 = COORDINATED_UNIVERSAL_TIME_OFFSET ( 8, 0, .AHEAD. ) ;
#211 = CARTESIAN_POINT ( 'NONE',  ( 8.500000000000000000, 2.500000000000000000, 6.000000000000000000 ) ) ;
#212 = VERTEX_POINT ( 'NONE', #22 ) ;
#213 = CALENDAR_DATE ( 2026, 26, 7 ) ;
#214 = DIRECTION ( 'NONE',  ( 0.000000000000000000, -1.000000000000000000, 0.000000000000000000 ) ) ;
#215 = CARTESIAN_POINT ( 'NONE',  ( 4.500000000000000000, 2.500000000000000000, -13.00000000000000000 ) ) ;
#216 = ORIENTED_EDGE ( 'NONE', *, *, #259, .T. ) ;
#217 = APPROVAL_ROLE ( '' ) ;
#218 = EDGE_CURVE ( 'NONE', #172, #361, #358, .T. ) ;
#219 = DIRECTION ( 'NONE',  ( -0.000000000000000000, -1.000000000000000000, -0.000000000000000000 ) ) ;
#220 = EDGE_LOOP ( 'NONE', ( #169, #164, #248, #200, #336, #273, #129, #334 ) ) ;
#221 = CARTESIAN_POINT ( 'NONE',  ( -4.500000000000000000, 0.000000000000000000, 6.000000000000000000 ) ) ;
#222 = ORIENTED_EDGE ( 'NONE', *, *, #274, .F. ) ;
#223 = PLANE ( 'NONE',  #284 ) ;
#224 = VECTOR ( 'NONE', #323, 1000.000000000000000 ) ;
#225 = ORIENTED_EDGE ( 'NONE', *, *, #267, .F. ) ;
#226 = ORIENTED_EDGE ( 'NONE', *, *, #165, .T. ) ;
#227 = MECHANICAL_CONTEXT ( 'NONE', #111, 'mechanical' ) ;
#228 = EDGE_CURVE ( 'NONE', #13, #324, #237, .T. ) ;
#229 = CARTESIAN_POINT ( 'NONE',  ( 4.500000000000000000, 2.500000000000000000, 2.000000000000000000 ) ) ;
#230 = APPROVAL_ROLE ( '' ) ;
#231 = EDGE_CURVE ( 'NONE', #170, #212, #290, .T. ) ;
#232 = CC_DESIGN_APPROVAL ( #278, ( #9 ) ) ;
#233 = LINE ( 'NONE', #114, #205 ) ;
#234 = COORDINATED_UNIVERSAL_TIME_OFFSET ( 8, 0, .AHEAD. ) ;
#235 = DIRECTION ( 'NONE',  ( 0.000000000000000000, 1.000000000000000000, 0.000000000000000000 ) ) ;
#236 = DATE_AND_TIME ( #295, #50 ) ;
#237 = LINE ( 'NONE', #328, #355 ) ;
#238 = DATE_AND_TIME ( #84, #74 ) ;
#239 = VECTOR ( 'NONE', #326, 1000.000000000000000 ) ;
#240 = DIRECTION ( 'NONE',  ( -0.000000000000000000, -0.000000000000000000, 1.000000000000000000 ) ) ;
#241 = DIRECTION ( 'NONE',  ( 0.000000000000000000, 0.000000000000000000, -1.000000000000000000 ) ) ;
#242 = ORIENTED_EDGE ( 'NONE', *, *, #115, .F. ) ;
#243 = SECURITY_CLASSIFICATION_LEVEL ( 'unclassified' ) ;
#244 = CC_DESIGN_DATE_AND_TIME_ASSIGNMENT ( #236, #353, ( #9 ) ) ;
#245 = DIRECTION ( 'NONE',  ( 0.000000000000000000, 0.000000000000000000, 1.000000000000000000 ) ) ;
#246 = ORIENTED_EDGE ( 'NONE', *, *, #174, .T. ) ;
#247 = VECTOR ( 'NONE', #181, 1000.000000000000000 ) ;
#248 = ORIENTED_EDGE ( 'NONE', *, *, #341, .T. ) ;
#249 = VERTEX_POINT ( 'NONE', #101 ) ;
#250 = VECTOR ( 'NONE', #363, 1000.000000000000000 ) ;
#251 = ORIENTED_EDGE ( 'NONE', *, *, #288, .F. ) ;
#252 = APPROVAL_DATE_TIME ( #142, #190 ) ;
#253 = APPLICATION_PROTOCOL_DEFINITION ( 'international standard', 'config_control_design', 1994, #111 ) ;
#254 = EDGE_CURVE ( 'NONE', #141, #249, #258, .T. ) ;
#255 = EDGE_CURVE ( 'NONE', #75, #137, #208, .T. ) ;
#256 = MANIFOLD_SOLID_BREP ( '凸台-拉伸3', #143 ) ;
#257 = APPROVAL_PERSON_ORGANIZATION ( #16, #278, #217 ) ;
#258 = LINE ( 'NONE', #10, #201 ) ;
#259 = EDGE_CURVE ( 'NONE', #212, #141, #34, .T. ) ;
#260 = PLANE ( 'NONE',  #338 ) ;
#261 = ORIENTED_EDGE ( 'NONE', *, *, #254, .F. ) ;
#262 = CARTESIAN_POINT ( 'NONE',  ( 4.500000000000000000, 0.000000000000000000, 2.000000000000000000 ) ) ;
#263 = APPROVAL_STATUS ( 'not_yet_approved' ) ;
#264 = DIRECTION ( 'NONE',  ( 0.000000000000000000, 0.000000000000000000, -1.000000000000000000 ) ) ;
#265 = DIRECTION ( 'NONE',  ( -1.000000000000000000, -0.000000000000000000, -0.000000000000000000 ) ) ;
#266 = PLANE ( 'NONE',  #79 ) ;
#267 = EDGE_CURVE ( 'NONE', #324, #23, #292, .T. ) ;
#268 = ORIENTED_EDGE ( 'NONE', *, *, #316, .F. ) ;
#269 = DATE_AND_TIME ( #321, #140 ) ;
#270 = PLANE ( 'NONE',  #60 ) ;
#271 = CARTESIAN_POINT ( 'NONE',  ( -8.500000000000000000, 0.000000000000000000, 2.000000000000000000 ) ) ;
#272 = DIRECTION ( 'NONE',  ( -1.000000000000000000, 0.000000000000000000, 0.000000000000000000 ) ) ;
#273 = ORIENTED_EDGE ( 'NONE', *, *, #255, .T. ) ;
#274 = EDGE_CURVE ( 'NONE', #189, #170, #337, .T. ) ;
#275 = ORIENTED_EDGE ( 'NONE', *, *, #218, .F. ) ;
#276 = ORIENTED_EDGE ( 'NONE', *, *, #228, .T. ) ;
#277 = VECTOR ( 'NONE', #130, 1000.000000000000000 ) ;
#278 = APPROVAL ( #90, '未指定' ) ;
#279 = CC_DESIGN_SECURITY_CLASSIFICATION ( #9, ( #300 ) ) ;
#280 = DIRECTION ( 'NONE',  ( -0.000000000000000000, -1.000000000000000000, -0.000000000000000000 ) ) ;
#281 = EDGE_LOOP ( 'NONE', ( #261, #131, #275, #268 ) ) ;
#282 = COORDINATED_UNIVERSAL_TIME_OFFSET ( 8, 0, .AHEAD. ) ;
#283 = CARTESIAN_POINT ( 'NONE',  ( -8.500000000000000000, 2.500000000000000000, 13.00000000000000000 ) ) ;
#284 = AXIS2_PLACEMENT_3D ( 'NONE', #168, #272, #365 ) ;
#285 = PERSON_AND_ORGANIZATION_ROLE ( 'creator' ) ;
#286 = DIRECTION ( 'NONE',  ( 0.000000000000000000, 0.000000000000000000, 1.000000000000000000 ) ) ;
#287 = LINE ( 'NONE', #38, #43 ) ;
#288 = EDGE_CURVE ( 'NONE', #28, #184, #116, .T. ) ;
#289 = AXIS2_PLACEMENT_3D ( 'NONE', #194, #45, #8 ) ;
#290 = LINE ( 'NONE', #360, #32 ) ;
#291 = PRODUCT_DEFINITION_SHAPE ( 'NONE', 'NONE',  #198 ) ;
#292 = LINE ( 'NONE', #155, #250 ) ;
#293 = FACE_OUTER_BOUND ( 'NONE', #340, .T. ) ;
#294 = ORIENTED_EDGE ( 'NONE', *, *, #347, .T. ) ;
#295 = CALENDAR_DATE ( 2026, 26, 7 ) ;
#296 = CARTESIAN_POINT ( 'NONE',  ( 8.500000000000000000, 2.500000000000000000, -13.00000000000000000 ) ) ;
#297 = ADVANCED_FACE ( 'NONE', ( #293 ), #266, .T. ) ;
#298 = DIRECTION ( 'NONE',  ( 0.000000000000000000, -0.000000000000000000, -1.000000000000000000 ) ) ;
#299 = DIRECTION ( 'NONE',  ( -0.000000000000000000, -0.000000000000000000, 1.000000000000000000 ) ) ;
#300 = PRODUCT_DEFINITION_FORMATION_WITH_SPECIFIED_SOURCE ( '任何', '', #100, .NOT_KNOWN. ) ;
#301 = ORIENTED_EDGE ( 'NONE', *, *, #64, .F. ) ;
#302 = FACE_OUTER_BOUND ( 'NONE', #1, .T. ) ;
#303 = ORIENTED_EDGE ( 'NONE', *, *, #259, .F. ) ;
#304 = LINE ( 'NONE', #306, #339 ) ;
#305 = DIRECTION ( 'NONE',  ( -1.000000000000000000, -0.000000000000000000, -0.000000000000000000 ) ) ;
#306 = CARTESIAN_POINT ( 'NONE',  ( -8.500000000000000000, 0.000000000000000000, 13.00000000000000000 ) ) ;
#307 = ADVANCED_FACE ( 'NONE', ( #359 ), #223, .F. ) ;
#308 = ORIENTED_EDGE ( 'NONE', *, *, #288, .T. ) ;
#309 = ORIENTED_EDGE ( 'NONE', *, *, #127, .F. ) ;
#310 = EDGE_LOOP ( 'NONE', ( #251, #301, #226, #153 ) ) ;
#311 = VECTOR ( 'NONE', #186, 1000.000000000000000 ) ;
#312 = EDGE_LOOP ( 'NONE', ( #294, #134, #222, #73 ) ) ;
#313 = ADVANCED_FACE ( 'NONE', ( #325 ), #105, .F. ) ;
#314 =( NAMED_UNIT ( * ) PLANE_ANGLE_UNIT ( ) SI_UNIT ( $, .RADIAN. ) );
#315 = COORDINATED_UNIVERSAL_TIME_OFFSET ( 8, 0, .AHEAD. ) ;
#316 = EDGE_CURVE ( 'NONE', #249, #172, #95, .T. ) ;
#317 = DESIGN_CONTEXT ( 'detailed design', #146, 'design' ) ;
#318 = AXIS2_PLACEMENT_3D ( 'NONE', #204, #147, #57 ) ;
#319 = PERSON_AND_ORGANIZATION_ROLE ( 'design_owner' ) ;
#320 = CARTESIAN_POINT ( 'NONE',  ( 4.500000000000000000, 2.500000000000000000, -13.00000000000000000 ) ) ;
#321 = CALENDAR_DATE ( 2026, 26, 7 ) ;
#322 =( GEOMETRIC_REPRESENTATION_CONTEXT ( 3 ) GLOBAL_UNCERTAINTY_ASSIGNED_CONTEXT ( ( #19 ) ) GLOBAL_UNIT_ASSIGNED_CONTEXT ( ( #2, #314, #348 ) ) REPRESENTATION_CONTEXT ( 'NONE', 'WORKASPACE' ) );
#323 = DIRECTION ( 'NONE',  ( 0.000000000000000000, 0.000000000000000000, -1.000000000000000000 ) ) ;
#324 = VERTEX_POINT ( 'NONE', #330 ) ;
#325 = FACE_OUTER_BOUND ( 'NONE', #104, .T. ) ;
#326 = DIRECTION ( 'NONE',  ( -0.000000000000000000, -1.000000000000000000, -0.000000000000000000 ) ) ;
#327 = DIRECTION ( 'NONE',  ( 0.000000000000000000, 0.000000000000000000, 1.000000000000000000 ) ) ;
#328 = CARTESIAN_POINT ( 'NONE',  ( -8.500000000000000000, 2.500000000000000000, 2.000000000000000000 ) ) ;
#329 = EDGE_LOOP ( 'NONE', ( #26, #242, #308, #246 ) ) ;
#330 = CARTESIAN_POINT ( 'NONE',  ( -8.500000000000000000, 0.000000000000000000, 2.000000000000000000 ) ) ;
#331 = CARTESIAN_POINT ( 'NONE',  ( 8.500000000000000000, 0.000000000000000000, 6.000000000000000000 ) ) ;
#332 = CARTESIAN_POINT ( 'NONE',  ( -4.500000000000000000, 2.500000000000000000, 13.00000000000000000 ) ) ;
#333 = ADVANCED_FACE ( 'NONE', ( #192 ), #335, .F. ) ;
#334 = ORIENTED_EDGE ( 'NONE', *, *, #115, .T. ) ;
#335 = PLANE ( 'NONE',  #103 ) ;
#336 = ORIENTED_EDGE ( 'NONE', *, *, #138, .T. ) ;
#337 = LINE ( 'NONE', #197, #139 ) ;
#338 = AXIS2_PLACEMENT_3D ( 'NONE', #33, #91, #158 ) ;
#339 = VECTOR ( 'NONE', #124, 1000.000000000000000 ) ;
#340 = EDGE_LOOP ( 'NONE', ( #225, #191, #309, #81, #108, #67, #303, #342 ) ) ;
#341 = EDGE_CURVE ( 'NONE', #170, #249, #76, .T. ) ;
#342 = ORIENTED_EDGE ( 'NONE', *, *, #347, .F. ) ;
#343 = ORIENTED_EDGE ( 'NONE', *, *, #203, .F. ) ;
#344 = ADVANCED_FACE ( 'NONE', ( #99 ), #357, .F. ) ;
#345 = PERSON_AND_ORGANIZATION ( #209, #86 ) ;
#346 = FACE_OUTER_BOUND ( 'NONE', #92, .T. ) ;
#347 = EDGE_CURVE ( 'NONE', #23, #212, #304, .T. ) ;
#348 =( NAMED_UNIT ( * ) SI_UNIT ( $, .STERADIAN. ) SOLID_ANGLE_UNIT ( ) );
#349 = ADVANCED_FACE ( 'NONE', ( #302 ), #270, .F. ) ;
#350 = DIRECTION ( 'NONE',  ( 1.000000000000000000, 0.000000000000000000, 0.000000000000000000 ) ) ;
#351 = APPROVAL_DATE_TIME ( #269, #278 ) ;
#352 = LINE ( 'NONE', #271, #311 ) ;
#353 = DATE_TIME_ROLE ( 'classification_date' ) ;
#354 = LINE ( 'NONE', #125, #112 ) ;
#355 = VECTOR ( 'NONE', #71, 1000.000000000000000 ) ;
#356 = LINE ( 'NONE', #133, #171 ) ;
#357 = PLANE ( 'NONE',  #289 ) ;
#358 = LINE ( 'NONE', #96, #362 ) ;
#359 = FACE_OUTER_BOUND ( 'NONE', #110, .T. ) ;
#360 = CARTESIAN_POINT ( 'NONE',  ( -4.500000000000000000, 2.500000000000000000, 13.00000000000000000 ) ) ;
#361 = VERTEX_POINT ( 'NONE', #58 ) ;
#362 = VECTOR ( 'NONE', #219, 1000.000000000000000 ) ;
#363 = DIRECTION ( 'NONE',  ( -0.000000000000000000, -0.000000000000000000, 1.000000000000000000 ) ) ;
#364 = ORIENTED_EDGE ( 'NONE', *, *, #254, .T. ) ;
#365 = DIRECTION ( 'NONE',  ( 0.000000000000000000, 0.000000000000000000, 1.000000000000000000 ) ) ;
#366 = ORIENTED_EDGE ( 'NONE', *, *, #267, .T. ) ;
#367 = VECTOR ( 'NONE', #264, 1000.000000000000000 ) ;
#368 = ORIENTED_EDGE ( 'NONE', *, *, #12, .T. ) ;
#369 = APPROVAL_STATUS ( 'not_yet_approved' ) ;
ENDSEC;
END-ISO-10303-21;
