ISO-10303-21;
HEADER;
FILE_DESCRIPTION (( 'STEP AP203' ),
    '1' );
FILE_NAME ('FN-HAR-015_W7-gnss-coax_R0.5.STEP',
    '2026-07-26T13:53:58',
    ( '' ),
    ( '' ),
    'SwSTEP 2.0',
    'SolidWorks 2022',
    '' );
FILE_SCHEMA (( 'CONFIG_CONTROL_DESIGN' ));
ENDSEC;

DATA;
#1 = DIRECTION ( 'NONE',  ( -1.000000000000000000, 0.000000000000000000, 0.000000000000000000 ) ) ;
#2 = AXIS2_PLACEMENT_3D ( 'NONE', #155, #157, #22 ) ;
#3 = APPROVAL_PERSON_ORGANIZATION ( #265, #420, #296 ) ;
#4 = EDGE_CURVE ( 'NONE', #188, #274, #384, .T. ) ;
#5 = DIRECTION ( 'NONE',  ( -0.000000000000000000, -0.000000000000000000, 1.000000000000000000 ) ) ;
#6 = DIRECTION ( 'NONE',  ( 0.000000000000000000, 0.000000000000000000, -1.000000000000000000 ) ) ;
#7 = CARTESIAN_POINT ( 'NONE',  ( -3.000000000000000000, 2.500000000000000000, -22.50000000000000000 ) ) ;
#8 = AXIS2_PLACEMENT_3D ( 'NONE', #251, #84, #10 ) ;
#9 = ORIENTED_EDGE ( 'NONE', *, *, #94, .F. ) ;
#10 = DIRECTION ( 'NONE',  ( -1.000000000000000000, 0.000000000000000000, -0.000000000000000000 ) ) ;
#11 = VERTEX_POINT ( 'NONE', #222 ) ;
#12 = CARTESIAN_POINT ( 'NONE',  ( 0.000000000000000000, 2.500000000000000000, 0.000000000000000000 ) ) ;
#13 = ADVANCED_FACE ( 'NONE', ( #325 ), #127, .F. ) ;
#14 = ORIENTED_EDGE ( 'NONE', *, *, #380, .F. ) ;
#15 = PLANE ( 'NONE',  #337 ) ;
#16 = ORIENTED_EDGE ( 'NONE', *, *, #320, .T. ) ;
#17 = DIRECTION ( 'NONE',  ( 0.000000000000000000, -0.000000000000000000, -1.000000000000000000 ) ) ;
#18 = ORIENTED_EDGE ( 'NONE', *, *, #387, .T. ) ;
#19 = ORIENTED_EDGE ( 'NONE', *, *, #335, .F. ) ;
#20 = PRODUCT_DEFINITION_FORMATION_WITH_SPECIFIED_SOURCE ( '任何', '', #80, .NOT_KNOWN. ) ;
#21 = PERSON_AND_ORGANIZATION_ROLE ( 'creator' ) ;
#22 = DIRECTION ( 'NONE',  ( 0.000000000000000000, -0.000000000000000000, -1.000000000000000000 ) ) ;
#23 = EDGE_LOOP ( 'NONE', ( #375, #281, #253, #352 ) ) ;
#24 = DATE_AND_TIME ( #185, #416 ) ;
#25 = PLANE ( 'NONE',  #2 ) ;
#26 = ORIENTED_EDGE ( 'NONE', *, *, #314, .F. ) ;
#27 = CALENDAR_DATE ( 2026, 26, 7 ) ;
#28 = FACE_OUTER_BOUND ( 'NONE', #209, .T. ) ;
#29 = ADVANCED_FACE ( 'NONE', ( #292 ), #122, .F. ) ;
#30 = ORIENTED_EDGE ( 'NONE', *, *, #204, .T. ) ;
#31 = AXIS2_PLACEMENT_3D ( 'NONE', #386, #216, #422 ) ;
#32 = VECTOR ( 'NONE', #355, 1000.000000000000000 ) ;
#33 = PLANE ( 'NONE',  #343 ) ;
#34 = LINE ( 'NONE', #334, #242 ) ;
#35 = CARTESIAN_POINT ( 'NONE',  ( -6.499999999999999112, 2.500000000000000000, 4.500000000000000000 ) ) ;
#36 = CARTESIAN_POINT ( 'NONE',  ( -3.000000000000000000, 2.500000000000000000, -19.50000000000000000 ) ) ;
#37 = VECTOR ( 'NONE', #147, 1000.000000000000000 ) ;
#38 = CC_DESIGN_PERSON_AND_ORGANIZATION_ASSIGNMENT ( #272, #426, ( #80 ) ) ;
#39 = CARTESIAN_POINT ( 'NONE',  ( -9.500000000000000000, 0.000000000000000000, -22.50000000000000000 ) ) ;
#40 = LINE ( 'NONE', #336, #206 ) ;
#41 = EDGE_CURVE ( 'NONE', #430, #245, #367, .T. ) ;
#42 = PLANE ( 'NONE',  #358 ) ;
#43 = VECTOR ( 'NONE', #271, 1000.000000000000000 ) ;
#44 = CARTESIAN_POINT ( 'NONE',  ( 6.500000000000000000, 0.000000000000000000, 22.50000000000000000 ) ) ;
#45 = ORIENTED_EDGE ( 'NONE', *, *, #166, .T. ) ;
#46 =( NAMED_UNIT ( * ) PLANE_ANGLE_UNIT ( ) SI_UNIT ( $, .RADIAN. ) );
#47 = EDGE_CURVE ( 'NONE', #278, #81, #267, .T. ) ;
#48 = ORIENTED_EDGE ( 'NONE', *, *, #138, .T. ) ;
#49 = VECTOR ( 'NONE', #401, 1000.000000000000000 ) ;
#50 = EDGE_LOOP ( 'NONE', ( #184, #18, #414, #152 ) ) ;
#51 = CARTESIAN_POINT ( 'NONE',  ( -6.500000000000000000, 2.500000000000000000, -19.50000000000000000 ) ) ;
#52 = ORIENTED_EDGE ( 'NONE', *, *, #390, .F. ) ;
#53 = EDGE_LOOP ( 'NONE', ( #214, #158, #141, #289 ) ) ;
#54 = DIRECTION ( 'NONE',  ( 1.000000000000000000, 0.000000000000000000, 0.000000000000000000 ) ) ;
#55 = AXIS2_PLACEMENT_3D ( 'NONE', #186, #126, #65 ) ;
#56 = EDGE_LOOP ( 'NONE', ( #295, #317, #26, #354 ) ) ;
#57 = APPROVAL_STATUS ( 'not_yet_approved' ) ;
#58 = DIRECTION ( 'NONE',  ( 1.000000000000000000, 0.000000000000000000, -0.000000000000000000 ) ) ;
#59 = ORIENTED_EDGE ( 'NONE', *, *, #41, .T. ) ;
#60 = PERSON_AND_ORGANIZATION ( #173, #395 ) ;
#61 = CARTESIAN_POINT ( 'NONE',  ( -6.499999999999999112, 0.000000000000000000, 1.500000000000000000 ) ) ;
#62 = ORIENTED_EDGE ( 'NONE', *, *, #154, .T. ) ;
#63 = CARTESIAN_POINT ( 'NONE',  ( 6.500000000000000000, 0.000000000000000000, 22.50000000000000000 ) ) ;
#64 = VECTOR ( 'NONE', #165, 1000.000000000000000 ) ;
#65 = DIRECTION ( 'NONE',  ( 0.000000000000000000, 0.000000000000000000, 1.000000000000000000 ) ) ;
#66 = CARTESIAN_POINT ( 'NONE',  ( -9.500000000000000000, 2.500000000000000000, 4.500000000000000000 ) ) ;
#67 = AXIS2_PLACEMENT_3D ( 'NONE', #394, #329, #402 ) ;
#68 = PLANE ( 'NONE',  #385 ) ;
#69 = LINE ( 'NONE', #339, #110 ) ;
#70 = CARTESIAN_POINT ( 'NONE',  ( -6.499999999999999112, 2.500000000000000000, 1.500000000000000000 ) ) ;
#71 = ORIENTED_EDGE ( 'NONE', *, *, #166, .F. ) ;
#72 = AXIS2_PLACEMENT_3D ( 'NONE', #215, #421, #118 ) ;
#73 = CARTESIAN_POINT ( 'NONE',  ( -9.500000000000000000, 2.500000000000000000, -19.50000000000000000 ) ) ;
#74 = EDGE_CURVE ( 'NONE', #174, #11, #301, .T. ) ;
#75 = VECTOR ( 'NONE', #302, 1000.000000000000000 ) ;
#76 = ADVANCED_FACE ( 'NONE', ( #224 ), #25, .T. ) ;
#77 = ORIENTED_EDGE ( 'NONE', *, *, #138, .F. ) ;
#78 = DIRECTION ( 'NONE',  ( 0.000000000000000000, 0.000000000000000000, -1.000000000000000000 ) ) ;
#79 = VERTEX_POINT ( 'NONE', #182 ) ;
#80 = PRODUCT ( 'FN-HAR-015_W7-gnss-coax_R0.5', 'FN-HAR-015_W7-gnss-coax_R0.5', '', ( #353 ) ) ;
#81 = VERTEX_POINT ( 'NONE', #190 ) ;
#82 =( LENGTH_UNIT ( ) NAMED_UNIT ( * ) SI_UNIT ( .MILLI., .METRE. ) );
#83 = CARTESIAN_POINT ( 'NONE',  ( -9.500000000000000000, 0.000000000000000000, -19.50000000000000000 ) ) ;
#84 = DIRECTION ( 'NONE',  ( 0.000000000000000000, 0.000000000000000000, -1.000000000000000000 ) ) ;
#85 = EDGE_CURVE ( 'NONE', #217, #278, #88, .T. ) ;
#86 = ORIENTED_EDGE ( 'NONE', *, *, #286, .F. ) ;
#87 = SECURITY_CLASSIFICATION_LEVEL ( 'unclassified' ) ;
#88 = LINE ( 'NONE', #259, #381 ) ;
#89 = ORIENTED_EDGE ( 'NONE', *, *, #176, .F. ) ;
#90 = PERSON_AND_ORGANIZATION ( #173, #395 ) ;
#91 = LINE ( 'NONE', #230, #432 ) ;
#92 = VECTOR ( 'NONE', #243, 1000.000000000000000 ) ;
#93 = ORIENTED_EDGE ( 'NONE', *, *, #237, .T. ) ;
#94 = EDGE_CURVE ( 'NONE', #188, #430, #91, .T. ) ;
#95 = APPLICATION_PROTOCOL_DEFINITION ( 'international standard', 'config_control_design', 1994, #168 ) ;
#96 = DIRECTION ( 'NONE',  ( 0.000000000000000000, 0.000000000000000000, -1.000000000000000000 ) ) ;
#97 = ORIENTED_EDGE ( 'NONE', *, *, #233, .F. ) ;
#98 = COORDINATED_UNIVERSAL_TIME_OFFSET ( 8, 0, .AHEAD. ) ;
#99 = LINE ( 'NONE', #228, #310 ) ;
#100 = CC_DESIGN_PERSON_AND_ORGANIZATION_ASSIGNMENT ( #193, #226, ( #20 ) ) ;
#101 = DIRECTION ( 'NONE',  ( 1.000000000000000000, 0.000000000000000000, 0.000000000000000000 ) ) ;
#102 = DIRECTION ( 'NONE',  ( 0.000000000000000000, 0.000000000000000000, -1.000000000000000000 ) ) ;
#103 = CLOSED_SHELL ( 'NONE', ( #145, #164, #294, #29, #276, #119, #327, #76, #13, #213, #413, #372 ) ) ;
#104 = VECTOR ( 'NONE', #429, 1000.000000000000000 ) ;
#105 = FACE_OUTER_BOUND ( 'NONE', #56, .T. ) ;
#106 = CARTESIAN_POINT ( 'NONE',  ( -9.500000000000000000, 2.500000000000000000, 4.500000000000000000 ) ) ;
#107 = DIRECTION ( 'NONE',  ( 0.000000000000000000, 1.000000000000000000, -0.000000000000000000 ) ) ;
#108 = EDGE_CURVE ( 'NONE', #225, #364, #331, .T. ) ;
#109 = CARTESIAN_POINT ( 'NONE',  ( -3.000000000000000000, 2.500000000000000000, -19.50000000000000000 ) ) ;
#110 = VECTOR ( 'NONE', #178, 1000.000000000000000 ) ;
#111 = CARTESIAN_POINT ( 'NONE',  ( -3.000000000000000000, 2.500000000000000000, -19.50000000000000000 ) ) ;
#112 = EDGE_LOOP ( 'NONE', ( #238, #48, #322, #399 ) ) ;
#113 = CARTESIAN_POINT ( 'NONE',  ( 9.500000000000000000, 0.000000000000000000, 4.500000000000000000 ) ) ;
#114 = ORIENTED_EDGE ( 'NONE', *, *, #41, .F. ) ;
#115 = PLANE ( 'NONE',  #287 ) ;
#116 = EDGE_LOOP ( 'NONE', ( #45, #219, #59, #346, #172, #299, #264, #146, #177, #156 ) ) ;
#117 = CARTESIAN_POINT ( 'NONE',  ( 6.500000000000000000, 2.500000000000000000, 22.50000000000000000 ) ) ;
#118 = DIRECTION ( 'NONE',  ( 1.000000000000000000, 0.000000000000000000, 0.000000000000000000 ) ) ;
#119 = ADVANCED_FACE ( 'NONE', ( #266 ), #33, .F. ) ;
#120 = VECTOR ( 'NONE', #107, 1000.000000000000000 ) ;
#121 = VECTOR ( 'NONE', #134, 1000.000000000000000 ) ;
#122 = PLANE ( 'NONE',  #67 ) ;
#123 = PLANE ( 'NONE',  #55 ) ;
#124 = EDGE_LOOP ( 'NONE', ( #9, #241, #89, #114 ) ) ;
#125 = DATE_AND_TIME ( #330, #342 ) ;
#126 = DIRECTION ( 'NONE',  ( -1.000000000000000000, 0.000000000000000000, 0.000000000000000000 ) ) ;
#127 = PLANE ( 'NONE',  #31 ) ;
#128 = LINE ( 'NONE', #262, #252 ) ;
#129 = VERTEX_POINT ( 'NONE', #221 ) ;
#130 = CARTESIAN_POINT ( 'NONE',  ( -3.000000000000000000, 2.500000000000000000, -19.50000000000000000 ) ) ;
#131 = EDGE_CURVE ( 'NONE', #81, #225, #366, .T. ) ;
#132 = CARTESIAN_POINT ( 'NONE',  ( -9.500000000000000000, 2.500000000000000000, -19.50000000000000000 ) ) ;
#133 = COORDINATED_UNIVERSAL_TIME_OFFSET ( 8, 0, .AHEAD. ) ;
#134 = DIRECTION ( 'NONE',  ( 0.000000000000000000, 0.000000000000000000, -1.000000000000000000 ) ) ;
#135 = DIRECTION ( 'NONE',  ( 0.000000000000000000, 0.000000000000000000, 1.000000000000000000 ) ) ;
#136 = CC_DESIGN_APPROVAL ( #410, ( #20 ) ) ;
#137 = CARTESIAN_POINT ( 'NONE',  ( -9.500000000000000000, 0.000000000000000000, -19.50000000000000000 ) ) ;
#138 = EDGE_CURVE ( 'NONE', #211, #188, #34, .T. ) ;
#139 = CARTESIAN_POINT ( 'NONE',  ( -9.500000000000000000, 0.000000000000000000, -22.50000000000000000 ) ) ;
#140 = VECTOR ( 'NONE', #5, 1000.000000000000000 ) ;
#141 = ORIENTED_EDGE ( 'NONE', *, *, #308, .T. ) ;
#142 = DIRECTION ( 'NONE',  ( 1.000000000000000000, 0.000000000000000000, 0.000000000000000000 ) ) ;
#143 = LINE ( 'NONE', #73, #417 ) ;
#144 = ORIENTED_EDGE ( 'NONE', *, *, #403, .F. ) ;
#145 = ADVANCED_FACE ( 'NONE', ( #404 ), #218, .F. ) ;
#146 = ORIENTED_EDGE ( 'NONE', *, *, #47, .T. ) ;
#147 = DIRECTION ( 'NONE',  ( 0.000000000000000000, -1.000000000000000000, 0.000000000000000000 ) ) ;
#148 = ORIENTED_EDGE ( 'NONE', *, *, #407, .T. ) ;
#149 = DATE_TIME_ROLE ( 'creation_date' ) ;
#150 = APPROVAL_PERSON_ORGANIZATION ( #424, #410, #388 ) ;
#151 = VECTOR ( 'NONE', #284, 1000.000000000000000 ) ;
#152 = ORIENTED_EDGE ( 'NONE', *, *, #407, .F. ) ;
#153 = PERSON_AND_ORGANIZATION ( #173, #395 ) ;
#154 = EDGE_CURVE ( 'NONE', #225, #418, #197, .T. ) ;
#155 = CARTESIAN_POINT ( 'NONE',  ( 0.000000000000000000, 0.000000000000000000, 0.000000000000000000 ) ) ;
#156 = ORIENTED_EDGE ( 'NONE', *, *, #108, .T. ) ;
#157 = DIRECTION ( 'NONE',  ( 0.000000000000000000, -1.000000000000000000, 0.000000000000000000 ) ) ;
#158 = ORIENTED_EDGE ( 'NONE', *, *, #74, .F. ) ;
#159 = CALENDAR_DATE ( 2026, 26, 7 ) ;
#160 = PLANE ( 'NONE',  #406 ) ;
#161 = VECTOR ( 'NONE', #415, 1000.000000000000000 ) ;
#162 = EDGE_LOOP ( 'NONE', ( #332, #356, #340, #148 ) ) ;
#163 = CARTESIAN_POINT ( 'NONE',  ( -9.500000000000000000, 2.500000000000000000, -22.50000000000000000 ) ) ;
#164 = ADVANCED_FACE ( 'NONE', ( #297 ), #123, .F. ) ;
#165 = DIRECTION ( 'NONE',  ( -0.000000000000000000, -1.000000000000000000, -0.000000000000000000 ) ) ;
#166 = EDGE_CURVE ( 'NONE', #364, #260, #255, .T. ) ;
#167 = LINE ( 'NONE', #7, #43 ) ;
#168 = APPLICATION_CONTEXT ( 'configuration controlled 3d designs of mechanical parts and assemblies' ) ;
#169 = DIRECTION ( 'NONE',  ( 1.000000000000000000, 0.000000000000000000, 0.000000000000000000 ) ) ;
#170 = PRODUCT_DEFINITION_SHAPE ( 'NONE', 'NONE',  #198 ) ;
#171 = LINE ( 'NONE', #113, #92 ) ;
#172 = ORIENTED_EDGE ( 'NONE', *, *, #74, .T. ) ;
#173 = PERSON ( '未指定', '未指定', '未指定', ('未指定'), ('未指定'), ('未指定') ) ;
#174 = VERTEX_POINT ( 'NONE', #324 ) ;
#175 = VECTOR ( 'NONE', #101, 1000.000000000000000 ) ;
#176 = EDGE_CURVE ( 'NONE', #245, #274, #328, .T. ) ;
#177 = ORIENTED_EDGE ( 'NONE', *, *, #131, .T. ) ;
#178 = DIRECTION ( 'NONE',  ( -0.000000000000000000, -1.000000000000000000, -0.000000000000000000 ) ) ;
#179 = EDGE_LOOP ( 'NONE', ( #30, #93, #71, #391 ) ) ;
#180 = VERTEX_POINT ( 'NONE', #63 ) ;
#181 = CALENDAR_DATE ( 2026, 26, 7 ) ;
#182 = CARTESIAN_POINT ( 'NONE',  ( -3.000000000000000000, 0.000000000000000000, -22.50000000000000000 ) ) ;
#183 = CC_DESIGN_APPROVAL ( #347, ( #198 ) ) ;
#184 = ORIENTED_EDGE ( 'NONE', *, *, #47, .F. ) ;
#185 = CALENDAR_DATE ( 2026, 26, 7 ) ;
#186 = CARTESIAN_POINT ( 'NONE',  ( -6.499999999999999112, 2.500000000000000000, 4.500000000000000000 ) ) ;
#187 = CC_DESIGN_PERSON_AND_ORGANIZATION_ASSIGNMENT ( #90, #392, ( #20 ) ) ;
#188 = VERTEX_POINT ( 'NONE', #393 ) ;
#189 = DATE_AND_TIME ( #27, #379 ) ;
#190 = CARTESIAN_POINT ( 'NONE',  ( 6.500000000000000000, 2.500000000000000000, 22.50000000000000000 ) ) ;
#191 = ORIENTED_EDGE ( 'NONE', *, *, #195, .F. ) ;
#192 = DESIGN_CONTEXT ( 'detailed design', #168, 'design' ) ;
#193 = PERSON_AND_ORGANIZATION ( #173, #395 ) ;
#194 = CARTESIAN_POINT ( 'NONE',  ( 9.500000000000000000, 2.500000000000000000, 4.500000000000000000 ) ) ;
#195 = EDGE_CURVE ( 'NONE', #360, #180, #128, .T. ) ;
#196 = VECTOR ( 'NONE', #169, 1000.000000000000000 ) ;
#197 = LINE ( 'NONE', #368, #64 ) ;
#198 = PRODUCT_DEFINITION ( '未知', '', #20, #192 ) ;
#199 = DIRECTION ( 'NONE',  ( 0.000000000000000000, 0.000000000000000000, -1.000000000000000000 ) ) ;
#200 = AXIS2_PLACEMENT_3D ( 'NONE', #433, #102, #359 ) ;
#201 = CARTESIAN_POINT ( 'NONE',  ( -9.500000000000000000, 0.000000000000000000, 4.500000000000000000 ) ) ;
#202 = DIRECTION ( 'NONE',  ( -1.000000000000000000, 0.000000000000000000, -0.000000000000000000 ) ) ;
#203 = LINE ( 'NONE', #106, #311 ) ;
#204 = EDGE_CURVE ( 'NONE', #129, #211, #99, .T. ) ;
#205 = PRODUCT_RELATED_PRODUCT_CATEGORY ( 'detail', '', ( #80 ) ) ;
#206 = VECTOR ( 'NONE', #304, 1000.000000000000000 ) ;
#207 = LINE ( 'NONE', #44, #369 ) ;
#208 = LOCAL_TIME ( 21, 53, 58.00000000000000000, #133 ) ;
#209 = EDGE_LOOP ( 'NONE', ( #425, #321, #428, #62 ) ) ;
#210 = CARTESIAN_POINT ( 'NONE',  ( -9.500000000000000000, 0.000000000000000000, 4.500000000000000000 ) ) ;
#211 = VERTEX_POINT ( 'NONE', #61 ) ;
#212 = DIRECTION ( 'NONE',  ( -0.000000000000000000, -0.000000000000000000, 1.000000000000000000 ) ) ;
#213 = ADVANCED_FACE ( 'NONE', ( #28 ), #160, .F. ) ;
#214 = ORIENTED_EDGE ( 'NONE', *, *, #320, .F. ) ;
#215 = CARTESIAN_POINT ( 'NONE',  ( 0.000000000000000000, 0.000000000000000000, 0.000000000000000000 ) ) ;
#216 = DIRECTION ( 'NONE',  ( 0.000000000000000000, 0.000000000000000000, 1.000000000000000000 ) ) ;
#217 = VERTEX_POINT ( 'NONE', #66 ) ;
#218 = PLANE ( 'NONE',  #200 ) ;
#219 = ORIENTED_EDGE ( 'NONE', *, *, #227, .T. ) ;
#220 = DATE_AND_TIME ( #181, #208 ) ;
#221 = CARTESIAN_POINT ( 'NONE',  ( 9.500000000000000000, 0.000000000000000000, 1.500000000000000000 ) ) ;
#222 = CARTESIAN_POINT ( 'NONE',  ( -9.500000000000000000, 2.500000000000000000, -22.50000000000000000 ) ) ;
#223 = COORDINATED_UNIVERSAL_TIME_OFFSET ( 8, 0, .AHEAD. ) ;
#224 = FACE_OUTER_BOUND ( 'NONE', #312, .T. ) ;
#225 = VERTEX_POINT ( 'NONE', #307 ) ;
#226 = PERSON_AND_ORGANIZATION_ROLE ( 'creator' ) ;
#227 = EDGE_CURVE ( 'NONE', #260, #430, #376, .T. ) ;
#228 = CARTESIAN_POINT ( 'NONE',  ( -9.500000000000000000, 0.000000000000000000, 1.500000000000000000 ) ) ;
#229 = CARTESIAN_POINT ( 'NONE',  ( 6.500000000000000000, 2.500000000000000000, 22.50000000000000000 ) ) ;
#230 = CARTESIAN_POINT ( 'NONE',  ( -6.499999999999999112, 2.500000000000000000, -19.50000000000000000 ) ) ;
#231 = VECTOR ( 'NONE', #236, 1000.000000000000000 ) ;
#232 = CARTESIAN_POINT ( 'NONE',  ( 6.500000000000000888, 2.500000000000000000, 4.500000000000000000 ) ) ;
#233 = EDGE_CURVE ( 'NONE', #79, #250, #405, .T. ) ;
#234 = CARTESIAN_POINT ( 'NONE',  ( -6.499999999999999112, 2.500000000000000000, 1.500000000000000000 ) ) ;
#235 = DIRECTION ( 'NONE',  ( -0.000000000000000000, -1.000000000000000000, -0.000000000000000000 ) ) ;
#236 = DIRECTION ( 'NONE',  ( -1.000000000000000000, -0.000000000000000000, -0.000000000000000000 ) ) ;
#237 = EDGE_CURVE ( 'NONE', #211, #260, #408, .T. ) ;
#238 = ORIENTED_EDGE ( 'NONE', *, *, #237, .F. ) ;
#239 = CARTESIAN_POINT ( 'NONE',  ( 9.500000000000000000, 0.000000000000000000, 22.50000000000000000 ) ) ;
#240 = CC_DESIGN_APPROVAL ( #420, ( #344 ) ) ;
#241 = ORIENTED_EDGE ( 'NONE', *, *, #4, .T. ) ;
#242 = VECTOR ( 'NONE', #96, 1000.000000000000000 ) ;
#243 = DIRECTION ( 'NONE',  ( 0.000000000000000000, 0.000000000000000000, -1.000000000000000000 ) ) ;
#244 = EDGE_CURVE ( 'NONE', #217, #434, #203, .T. ) ;
#245 = VERTEX_POINT ( 'NONE', #111 ) ;
#246 = DIRECTION ( 'NONE',  ( 1.000000000000000000, -0.000000000000000000, 0.000000000000000000 ) ) ;
#247 = APPLICATION_CONTEXT ( 'configuration controlled 3d designs of mechanical parts and assemblies' ) ;
#248 = ORIENTED_EDGE ( 'NONE', *, *, #256, .F. ) ;
#249 = LINE ( 'NONE', #275, #161 ) ;
#250 = VERTEX_POINT ( 'NONE', #39 ) ;
#251 = CARTESIAN_POINT ( 'NONE',  ( 6.500000000000000000, 2.500000000000000000, 22.50000000000000000 ) ) ;
#252 = VECTOR ( 'NONE', #397, 1000.000000000000000 ) ;
#253 = ORIENTED_EDGE ( 'NONE', *, *, #244, .T. ) ;
#254 = APPROVAL_STATUS ( 'not_yet_approved' ) ;
#255 = LINE ( 'NONE', #291, #32 ) ;
#256 = EDGE_CURVE ( 'NONE', #434, #360, #306, .T. ) ;
#257 = ORIENTED_EDGE ( 'NONE', *, *, #204, .F. ) ;
#258 = APPROVAL_DATE_TIME ( #220, #410 ) ;
#259 = CARTESIAN_POINT ( 'NONE',  ( -9.500000000000000000, 2.500000000000000000, 4.500000000000000000 ) ) ;
#260 = VERTEX_POINT ( 'NONE', #234 ) ;
#261 = COORDINATED_UNIVERSAL_TIME_OFFSET ( 8, 0, .AHEAD. ) ;
#262 = CARTESIAN_POINT ( 'NONE',  ( 6.500000000000000000, 0.000000000000000000, 22.50000000000000000 ) ) ;
#263 =( GEOMETRIC_REPRESENTATION_CONTEXT ( 3 ) GLOBAL_UNCERTAINTY_ASSIGNED_CONTEXT ( ( #365 ) ) GLOBAL_UNIT_ASSIGNED_CONTEXT ( ( #82, #46, #318 ) ) REPRESENTATION_CONTEXT ( 'NONE', 'WORKASPACE' ) );
#264 = ORIENTED_EDGE ( 'NONE', *, *, #85, .T. ) ;
#265 = PERSON_AND_ORGANIZATION ( #173, #395 ) ;
#266 = FACE_OUTER_BOUND ( 'NONE', #53, .T. ) ;
#267 = LINE ( 'NONE', #229, #104 ) ;
#268 = DIRECTION ( 'NONE',  ( 0.000000000000000000, 0.000000000000000000, 1.000000000000000000 ) ) ;
#269 = VECTOR ( 'NONE', #54, 1000.000000000000000 ) ;
#270 = CC_DESIGN_PERSON_AND_ORGANIZATION_ASSIGNMENT ( #60, #21, ( #198 ) ) ;
#271 = DIRECTION ( 'NONE',  ( -0.000000000000000000, -1.000000000000000000, -0.000000000000000000 ) ) ;
#272 = PERSON_AND_ORGANIZATION ( #173, #395 ) ;
#273 = EDGE_CURVE ( 'NONE', #364, #129, #40, .T. ) ;
#274 = VERTEX_POINT ( 'NONE', #341 ) ;
#275 = CARTESIAN_POINT ( 'NONE',  ( -3.000000000000000000, 0.000000000000000000, -19.50000000000000000 ) ) ;
#276 = ADVANCED_FACE ( 'NONE', ( #105 ), #42, .F. ) ;
#277 = APPROVAL_PERSON_ORGANIZATION ( #361, #347, #326 ) ;
#278 = VERTEX_POINT ( 'NONE', #232 ) ;
#279 = CARTESIAN_POINT ( 'NONE',  ( 9.500000000000000000, 2.500000000000000000, 1.500000000000000000 ) ) ;
#280 = PLANE ( 'NONE',  #8 ) ;
#281 = ORIENTED_EDGE ( 'NONE', *, *, #85, .F. ) ;
#282 = LINE ( 'NONE', #412, #37 ) ;
#283 = ADVANCED_BREP_SHAPE_REPRESENTATION ( 'FN-HAR-015_W7-gnss-coax_R0.5', ( #303, #72 ), #263 ) ;
#284 = DIRECTION ( 'NONE',  ( 1.000000000000000000, 0.000000000000000000, 0.000000000000000000 ) ) ;
#285 = DATE_AND_TIME ( #159, #423 ) ;
#286 = EDGE_CURVE ( 'NONE', #250, #434, #370, .T. ) ;
#287 = AXIS2_PLACEMENT_3D ( 'NONE', #12, #378, #17 ) ;
#288 = CC_DESIGN_DATE_AND_TIME_ASSIGNMENT ( #285, #357, ( #344 ) ) ;
#289 = ORIENTED_EDGE ( 'NONE', *, *, #233, .T. ) ;
#290 = PERSON_AND_ORGANIZATION_ROLE ( 'classification_officer' ) ;
#291 = CARTESIAN_POINT ( 'NONE',  ( -9.500000000000000000, 2.500000000000000000, 1.500000000000000000 ) ) ;
#292 = FACE_OUTER_BOUND ( 'NONE', #350, .T. ) ;
#293 = DIRECTION ( 'NONE',  ( 0.000000000000000000, 1.000000000000000000, 0.000000000000000000 ) ) ;
#294 = ADVANCED_FACE ( 'NONE', ( #373 ), #68, .F. ) ;
#295 = ORIENTED_EDGE ( 'NONE', *, *, #403, .T. ) ;
#296 = APPROVAL_ROLE ( '' ) ;
#297 = FACE_OUTER_BOUND ( 'NONE', #112, .T. ) ;
#298 = VECTOR ( 'NONE', #374, 1000.000000000000000 ) ;
#299 = ORIENTED_EDGE ( 'NONE', *, *, #335, .T. ) ;
#300 = APPROVAL_STATUS ( 'not_yet_approved' ) ;
#301 = LINE ( 'NONE', #163, #75 ) ;
#302 = DIRECTION ( 'NONE',  ( -1.000000000000000000, -0.000000000000000000, -0.000000000000000000 ) ) ;
#303 = MANIFOLD_SOLID_BREP ( '凸台-拉伸4', #103 ) ;
#304 = DIRECTION ( 'NONE',  ( -0.000000000000000000, -1.000000000000000000, -0.000000000000000000 ) ) ;
#305 = VECTOR ( 'NONE', #199, 1000.000000000000000 ) ;
#306 = LINE ( 'NONE', #201, #196 ) ;
#307 = CARTESIAN_POINT ( 'NONE',  ( 9.500000000000000000, 2.500000000000000000, 22.50000000000000000 ) ) ;
#308 = EDGE_CURVE ( 'NONE', #174, #79, #167, .T. ) ;
#309 = DIRECTION ( 'NONE',  ( -1.000000000000000000, 0.000000000000000000, 0.000000000000000000 ) ) ;
#310 = VECTOR ( 'NONE', #362, 1000.000000000000000 ) ;
#311 = VECTOR ( 'NONE', #235, 1000.000000000000000 ) ;
#312 = EDGE_LOOP ( 'NONE', ( #191, #248, #86, #97, #144, #377, #77, #257, #52, #14 ) ) ;
#313 = LINE ( 'NONE', #382, #411 ) ;
#314 = EDGE_CURVE ( 'NONE', #245, #174, #409, .T. ) ;
#315 = DIRECTION ( 'NONE',  ( -0.000000000000000000, -1.000000000000000000, -0.000000000000000000 ) ) ;
#316 = CC_DESIGN_SECURITY_CLASSIFICATION ( #344, ( #20 ) ) ;
#317 = ORIENTED_EDGE ( 'NONE', *, *, #308, .F. ) ;
#318 =( NAMED_UNIT ( * ) SI_UNIT ( $, .STERADIAN. ) SOLID_ANGLE_UNIT ( ) );
#319 = FACE_OUTER_BOUND ( 'NONE', #116, .T. ) ;
#320 = EDGE_CURVE ( 'NONE', #11, #250, #69, .T. ) ;
#321 = ORIENTED_EDGE ( 'NONE', *, *, #273, .F. ) ;
#322 = ORIENTED_EDGE ( 'NONE', *, *, #94, .T. ) ;
#323 = APPROVAL_DATE_TIME ( #125, #347 ) ;
#324 = CARTESIAN_POINT ( 'NONE',  ( -3.000000000000000000, 2.500000000000000000, -22.50000000000000000 ) ) ;
#325 = FACE_OUTER_BOUND ( 'NONE', #179, .T. ) ;
#326 = APPROVAL_ROLE ( '' ) ;
#327 = ADVANCED_FACE ( 'NONE', ( #319 ), #115, .F. ) ;
#328 = LINE ( 'NONE', #130, #49 ) ;
#329 = DIRECTION ( 'NONE',  ( 1.000000000000000000, -0.000000000000000000, 0.000000000000000000 ) ) ;
#330 = CALENDAR_DATE ( 2026, 26, 7 ) ;
#331 = LINE ( 'NONE', #435, #121 ) ;
#332 = ORIENTED_EDGE ( 'NONE', *, *, #380, .T. ) ;
#333 = CARTESIAN_POINT ( 'NONE',  ( 6.500000000000000000, 2.500000000000000000, 22.50000000000000000 ) ) ;
#334 = CARTESIAN_POINT ( 'NONE',  ( -6.499999999999999112, 0.000000000000000000, 4.500000000000000000 ) ) ;
#335 = EDGE_CURVE ( 'NONE', #11, #217, #143, .T. ) ;
#336 = CARTESIAN_POINT ( 'NONE',  ( 9.500000000000000000, 2.500000000000000000, 1.500000000000000000 ) ) ;
#337 = AXIS2_PLACEMENT_3D ( 'NONE', #117, #246, #78 ) ;
#338 = CARTESIAN_POINT ( 'NONE',  ( -9.500000000000000000, 2.500000000000000000, -19.50000000000000000 ) ) ;
#339 = CARTESIAN_POINT ( 'NONE',  ( -9.500000000000000000, 2.500000000000000000, -22.50000000000000000 ) ) ;
#340 = ORIENTED_EDGE ( 'NONE', *, *, #131, .F. ) ;
#341 = CARTESIAN_POINT ( 'NONE',  ( -3.000000000000000000, 0.000000000000000000, -19.50000000000000000 ) ) ;
#342 = LOCAL_TIME ( 21, 53, 58.00000000000000000, #98 ) ;
#343 = AXIS2_PLACEMENT_3D ( 'NONE', #427, #268, #58 ) ;
#344 = SECURITY_CLASSIFICATION ( '', '', #87 ) ;
#345 = FACE_OUTER_BOUND ( 'NONE', #162, .T. ) ;
#346 = ORIENTED_EDGE ( 'NONE', *, *, #314, .T. ) ;
#347 = APPROVAL ( #254, '未指定' ) ;
#348 = ORIENTED_EDGE ( 'NONE', *, *, #286, .T. ) ;
#349 = CARTESIAN_POINT ( 'NONE',  ( 6.500000000000000888, 0.000000000000000000, 4.500000000000000000 ) ) ;
#350 = EDGE_LOOP ( 'NONE', ( #383, #19, #16, #348 ) ) ;
#351 = APPLICATION_PROTOCOL_DEFINITION ( 'international standard', 'config_control_design', 1994, #247 ) ;
#352 = ORIENTED_EDGE ( 'NONE', *, *, #256, .T. ) ;
#353 = MECHANICAL_CONTEXT ( 'NONE', #247, 'mechanical' ) ;
#354 = ORIENTED_EDGE ( 'NONE', *, *, #176, .T. ) ;
#355 = DIRECTION ( 'NONE',  ( -1.000000000000000000, -0.000000000000000000, -0.000000000000000000 ) ) ;
#356 = ORIENTED_EDGE ( 'NONE', *, *, #154, .F. ) ;
#357 = DATE_TIME_ROLE ( 'classification_date' ) ;
#358 = AXIS2_PLACEMENT_3D ( 'NONE', #36, #1, #135 ) ;
#359 = DIRECTION ( 'NONE',  ( -1.000000000000000000, 0.000000000000000000, -0.000000000000000000 ) ) ;
#360 = VERTEX_POINT ( 'NONE', #349 ) ;
#361 = PERSON_AND_ORGANIZATION ( #173, #395 ) ;
#362 = DIRECTION ( 'NONE',  ( -1.000000000000000000, -0.000000000000000000, -0.000000000000000000 ) ) ;
#363 = CC_DESIGN_DATE_AND_TIME_ASSIGNMENT ( #189, #149, ( #198 ) ) ;
#364 = VERTEX_POINT ( 'NONE', #279 ) ;
#365 = UNCERTAINTY_MEASURE_WITH_UNIT (LENGTH_MEASURE( 1.000000000000000082E-05 ), #82, 'distance_accuracy_value', 'NONE');
#366 = LINE ( 'NONE', #333, #269 ) ;
#367 = LINE ( 'NONE', #132, #175 ) ;
#368 = CARTESIAN_POINT ( 'NONE',  ( 9.500000000000000000, 2.500000000000000000, 22.50000000000000000 ) ) ;
#369 = VECTOR ( 'NONE', #142, 1000.000000000000000 ) ;
#370 = LINE ( 'NONE', #137, #140 ) ;
#371 = DIRECTION ( 'NONE',  ( 0.000000000000000000, 0.000000000000000000, 1.000000000000000000 ) ) ;
#372 = ADVANCED_FACE ( 'NONE', ( #345 ), #280, .F. ) ;
#373 = FACE_OUTER_BOUND ( 'NONE', #124, .T. ) ;
#374 = DIRECTION ( 'NONE',  ( 0.000000000000000000, 0.000000000000000000, -1.000000000000000000 ) ) ;
#375 = ORIENTED_EDGE ( 'NONE', *, *, #387, .F. ) ;
#376 = LINE ( 'NONE', #35, #305 ) ;
#377 = ORIENTED_EDGE ( 'NONE', *, *, #4, .F. ) ;
#378 = DIRECTION ( 'NONE',  ( 0.000000000000000000, -1.000000000000000000, 0.000000000000000000 ) ) ;
#379 = LOCAL_TIME ( 21, 53, 58.00000000000000000, #261 ) ;
#380 = EDGE_CURVE ( 'NONE', #180, #418, #207, .T. ) ;
#381 = VECTOR ( 'NONE', #389, 1000.000000000000000 ) ;
#382 = CARTESIAN_POINT ( 'NONE',  ( 6.500000000000000000, 2.500000000000000000, 22.50000000000000000 ) ) ;
#383 = ORIENTED_EDGE ( 'NONE', *, *, #244, .F. ) ;
#384 = LINE ( 'NONE', #83, #151 ) ;
#385 = AXIS2_PLACEMENT_3D ( 'NONE', #338, #6, #202 ) ;
#386 = CARTESIAN_POINT ( 'NONE',  ( -9.500000000000000000, 2.500000000000000000, 1.500000000000000000 ) ) ;
#387 = EDGE_CURVE ( 'NONE', #278, #360, #282, .T. ) ;
#388 = APPROVAL_ROLE ( '' ) ;
#389 = DIRECTION ( 'NONE',  ( 1.000000000000000000, 0.000000000000000000, 0.000000000000000000 ) ) ;
#390 = EDGE_CURVE ( 'NONE', #418, #129, #171, .T. ) ;
#391 = ORIENTED_EDGE ( 'NONE', *, *, #273, .T. ) ;
#392 = PERSON_AND_ORGANIZATION_ROLE ( 'design_supplier' ) ;
#393 = CARTESIAN_POINT ( 'NONE',  ( -6.499999999999999112, 0.000000000000000000, -19.50000000000000000 ) ) ;
#394 = CARTESIAN_POINT ( 'NONE',  ( -9.500000000000000000, 2.500000000000000000, -19.50000000000000000 ) ) ;
#395 = ORGANIZATION ( '未指定', '未指定', '' ) ;
#396 = COORDINATED_UNIVERSAL_TIME_OFFSET ( 8, 0, .AHEAD. ) ;
#397 = DIRECTION ( 'NONE',  ( -0.000000000000000000, -0.000000000000000000, 1.000000000000000000 ) ) ;
#398 = CC_DESIGN_PERSON_AND_ORGANIZATION_ASSIGNMENT ( #153, #290, ( #344 ) ) ;
#399 = ORIENTED_EDGE ( 'NONE', *, *, #227, .F. ) ;
#400 = SHAPE_DEFINITION_REPRESENTATION ( #170, #283 ) ;
#401 = DIRECTION ( 'NONE',  ( -0.000000000000000000, -1.000000000000000000, -0.000000000000000000 ) ) ;
#402 = DIRECTION ( 'NONE',  ( 0.000000000000000000, 0.000000000000000000, -1.000000000000000000 ) ) ;
#403 = EDGE_CURVE ( 'NONE', #274, #79, #249, .T. ) ;
#404 = FACE_OUTER_BOUND ( 'NONE', #23, .T. ) ;
#405 = LINE ( 'NONE', #139, #231 ) ;
#406 = AXIS2_PLACEMENT_3D ( 'NONE', #194, #309, #371 ) ;
#407 = EDGE_CURVE ( 'NONE', #81, #180, #313, .T. ) ;
#408 = LINE ( 'NONE', #70, #120 ) ;
#409 = LINE ( 'NONE', #109, #298 ) ;
#410 = APPROVAL ( #300, '未指定' ) ;
#411 = VECTOR ( 'NONE', #315, 1000.000000000000000 ) ;
#412 = CARTESIAN_POINT ( 'NONE',  ( 6.500000000000000888, 2.500000000000000000, 4.500000000000000000 ) ) ;
#413 = ADVANCED_FACE ( 'NONE', ( #419 ), #15, .F. ) ;
#414 = ORIENTED_EDGE ( 'NONE', *, *, #195, .T. ) ;
#415 = DIRECTION ( 'NONE',  ( 0.000000000000000000, 0.000000000000000000, -1.000000000000000000 ) ) ;
#416 = LOCAL_TIME ( 21, 53, 58.00000000000000000, #223 ) ;
#417 = VECTOR ( 'NONE', #212, 1000.000000000000000 ) ;
#418 = VERTEX_POINT ( 'NONE', #239 ) ;
#419 = FACE_OUTER_BOUND ( 'NONE', #50, .T. ) ;
#420 = APPROVAL ( #57, '未指定' ) ;
#421 = DIRECTION ( 'NONE',  ( 0.000000000000000000, 0.000000000000000000, 1.000000000000000000 ) ) ;
#422 = DIRECTION ( 'NONE',  ( 1.000000000000000000, 0.000000000000000000, -0.000000000000000000 ) ) ;
#423 = LOCAL_TIME ( 21, 53, 58.00000000000000000, #396 ) ;
#424 = PERSON_AND_ORGANIZATION ( #173, #395 ) ;
#425 = ORIENTED_EDGE ( 'NONE', *, *, #390, .T. ) ;
#426 = PERSON_AND_ORGANIZATION_ROLE ( 'design_owner' ) ;
#427 = CARTESIAN_POINT ( 'NONE',  ( -9.500000000000000000, 2.500000000000000000, -22.50000000000000000 ) ) ;
#428 = ORIENTED_EDGE ( 'NONE', *, *, #108, .F. ) ;
#429 = DIRECTION ( 'NONE',  ( -0.000000000000000000, -0.000000000000000000, 1.000000000000000000 ) ) ;
#430 = VERTEX_POINT ( 'NONE', #51 ) ;
#431 = APPROVAL_DATE_TIME ( #24, #420 ) ;
#432 = VECTOR ( 'NONE', #293, 1000.000000000000000 ) ;
#433 = CARTESIAN_POINT ( 'NONE',  ( -9.500000000000000000, 2.500000000000000000, 4.500000000000000000 ) ) ;
#434 = VERTEX_POINT ( 'NONE', #210 ) ;
#435 = CARTESIAN_POINT ( 'NONE',  ( 9.500000000000000000, 2.500000000000000000, 4.500000000000000000 ) ) ;
ENDSEC;
END-ISO-10303-21;
