ISO-10303-21;
HEADER;
FILE_DESCRIPTION (( 'STEP AP203' ),
    '1' );
FILE_NAME ('FN-HLD-004_cn3791-clip-zone_R0.5.STEP',
    '2026-07-26T13:51:54',
    ( '' ),
    ( '' ),
    'SwSTEP 2.0',
    'SolidWorks 2022',
    '' );
FILE_SCHEMA (( 'CONFIG_CONTROL_DESIGN' ));
ENDSEC;

DATA;
#1 = VECTOR ( 'NONE', #224, 1000.000000000000000 ) ;
#2 = PRODUCT_DEFINITION_FORMATION_WITH_SPECIFIED_SOURCE ( '任何', '', #201, .NOT_KNOWN. ) ;
#3 = LINE ( 'NONE', #207, #6 ) ;
#4 = DIRECTION ( 'NONE',  ( 0.000000000000000000, 0.000000000000000000, -1.000000000000000000 ) ) ;
#5 = VERTEX_POINT ( 'NONE', #174 ) ;
#6 = VECTOR ( 'NONE', #73, 1000.000000000000000 ) ;
#7 = FACE_OUTER_BOUND ( 'NONE', #77, .T. ) ;
#8 = ORIENTED_EDGE ( 'NONE', *, *, #72, .T. ) ;
#9 =( NAMED_UNIT ( * ) PLANE_ANGLE_UNIT ( ) SI_UNIT ( $, .RADIAN. ) );
#10 = ORIENTED_EDGE ( 'NONE', *, *, #148, .T. ) ;
#11 = ORIENTED_EDGE ( 'NONE', *, *, #35, .F. ) ;
#12 = DIRECTION ( 'NONE',  ( 0.000000000000000000, -1.000000000000000000, 0.000000000000000000 ) ) ;
#13 = DATE_AND_TIME ( #137, #126 ) ;
#14 = EDGE_CURVE ( 'NONE', #5, #170, #173, .T. ) ;
#15 = DIRECTION ( 'NONE',  ( -0.000000000000000000, -0.000000000000000000, 1.000000000000000000 ) ) ;
#16 = APPLICATION_PROTOCOL_DEFINITION ( 'international standard', 'config_control_design', 1994, #74 ) ;
#17 = VECTOR ( 'NONE', #26, 1000.000000000000000 ) ;
#18 = EDGE_CURVE ( 'NONE', #152, #133, #81, .T. ) ;
#19 = LOCAL_TIME ( 21, 51, 54.00000000000000000, #159 ) ;
#20 = DATE_AND_TIME ( #106, #19 ) ;
#21 = CARTESIAN_POINT ( 'NONE',  ( -28.00000000000000000, 3.000000000000000000, 15.50000000000000000 ) ) ;
#22 = CC_DESIGN_PERSON_AND_ORGANIZATION_ASSIGNMENT ( #220, #125, ( #2 ) ) ;
#23 = CARTESIAN_POINT ( 'NONE',  ( 28.00000000000000000, 0.000000000000000000, -15.50000000000000000 ) ) ;
#24 = EDGE_LOOP ( 'NONE', ( #188, #29, #116, #203 ) ) ;
#25 = CARTESIAN_POINT ( 'NONE',  ( 28.00000000000000000, 3.000000000000000000, -15.50000000000000000 ) ) ;
#26 = DIRECTION ( 'NONE',  ( -0.000000000000000000, -1.000000000000000000, -0.000000000000000000 ) ) ;
#27 = EDGE_LOOP ( 'NONE', ( #99, #114, #208, #212 ) ) ;
#28 = APPROVAL_PERSON_ORGANIZATION ( #109, #124, #197 ) ;
#29 = ORIENTED_EDGE ( 'NONE', *, *, #148, .F. ) ;
#30 = PERSON_AND_ORGANIZATION_ROLE ( 'creator' ) ;
#31 = SHAPE_DEFINITION_REPRESENTATION ( #127, #128 ) ;
#32 = CC_DESIGN_PERSON_AND_ORGANIZATION_ASSIGNMENT ( #157, #237, ( #2 ) ) ;
#33 = PERSON_AND_ORGANIZATION_ROLE ( 'design_owner' ) ;
#34 = COORDINATED_UNIVERSAL_TIME_OFFSET ( 8, 0, .AHEAD. ) ;
#35 = EDGE_CURVE ( 'NONE', #42, #5, #227, .T. ) ;
#36 = FACE_OUTER_BOUND ( 'NONE', #118, .T. ) ;
#37 = APPLICATION_CONTEXT ( 'configuration controlled 3d designs of mechanical parts and assemblies' ) ;
#38 = PRODUCT_RELATED_PRODUCT_CATEGORY ( 'detail', '', ( #201 ) ) ;
#39 = CARTESIAN_POINT ( 'NONE',  ( -28.00000000000000000, 3.000000000000000000, -15.50000000000000000 ) ) ;
#40 = CARTESIAN_POINT ( 'NONE',  ( -28.00000000000000000, 0.000000000000000000, 15.50000000000000000 ) ) ;
#41 = CARTESIAN_POINT ( 'NONE',  ( -28.00000000000000000, 3.000000000000000000, 15.50000000000000000 ) ) ;
#42 = VERTEX_POINT ( 'NONE', #58 ) ;
#43 = CARTESIAN_POINT ( 'NONE',  ( -28.00000000000000000, 3.000000000000000000, 15.50000000000000000 ) ) ;
#44 = ORIENTED_EDGE ( 'NONE', *, *, #107, .T. ) ;
#45 = LINE ( 'NONE', #228, #17 ) ;
#46 = CALENDAR_DATE ( 2026, 26, 7 ) ;
#47 = ORIENTED_EDGE ( 'NONE', *, *, #143, .T. ) ;
#48 = APPROVAL_DATE_TIME ( #13, #124 ) ;
#49 = AXIS2_PLACEMENT_3D ( 'NONE', #89, #144, #236 ) ;
#50 = PERSON_AND_ORGANIZATION ( #70, #215 ) ;
#51 = DIRECTION ( 'NONE',  ( 0.000000000000000000, -0.000000000000000000, -1.000000000000000000 ) ) ;
#52 = EDGE_CURVE ( 'NONE', #133, #63, #210, .T. ) ;
#53 = CARTESIAN_POINT ( 'NONE',  ( 28.00000000000000000, 0.000000000000000000, 15.50000000000000000 ) ) ;
#54 = CARTESIAN_POINT ( 'NONE',  ( -28.00000000000000000, 3.000000000000000000, -15.50000000000000000 ) ) ;
#55 = CARTESIAN_POINT ( 'NONE',  ( 0.000000000000000000, 3.000000000000000000, 0.000000000000000000 ) ) ;
#56 = DIRECTION ( 'NONE',  ( 0.000000000000000000, 0.000000000000000000, 1.000000000000000000 ) ) ;
#57 = EDGE_LOOP ( 'NONE', ( #8, #44, #102, #113 ) ) ;
#58 = CARTESIAN_POINT ( 'NONE',  ( 28.00000000000000000, 3.000000000000000000, 15.50000000000000000 ) ) ;
#59 =( GEOMETRIC_REPRESENTATION_CONTEXT ( 3 ) GLOBAL_UNCERTAINTY_ASSIGNED_CONTEXT ( ( #176 ) ) GLOBAL_UNIT_ASSIGNED_CONTEXT ( ( #167, #9, #223 ) ) REPRESENTATION_CONTEXT ( 'NONE', 'WORKASPACE' ) );
#60 = CARTESIAN_POINT ( 'NONE',  ( -28.00000000000000000, 0.000000000000000000, 15.50000000000000000 ) ) ;
#61 = DATE_AND_TIME ( #46, #214 ) ;
#62 = EDGE_CURVE ( 'NONE', #171, #63, #45, .T. ) ;
#63 = VERTEX_POINT ( 'NONE', #60 ) ;
#64 = ADVANCED_FACE ( 'NONE', ( #136 ), #79, .F. ) ;
#65 = FACE_OUTER_BOUND ( 'NONE', #105, .T. ) ;
#66 = COORDINATED_UNIVERSAL_TIME_OFFSET ( 8, 0, .AHEAD. ) ;
#67 = VECTOR ( 'NONE', #98, 1000.000000000000000 ) ;
#68 = CARTESIAN_POINT ( 'NONE',  ( 28.00000000000000000, 0.000000000000000000, 15.50000000000000000 ) ) ;
#69 = PERSON_AND_ORGANIZATION ( #70, #215 ) ;
#70 = PERSON ( '未指定', '未指定', '未指定', ('未指定'), ('未指定'), ('未指定') ) ;
#71 = LOCAL_TIME ( 21, 51, 54.00000000000000000, #66 ) ;
#72 = EDGE_CURVE ( 'NONE', #170, #171, #131, .T. ) ;
#73 = DIRECTION ( 'NONE',  ( -0.000000000000000000, -1.000000000000000000, -0.000000000000000000 ) ) ;
#74 = APPLICATION_CONTEXT ( 'configuration controlled 3d designs of mechanical parts and assemblies' ) ;
#75 = AXIS2_PLACEMENT_3D ( 'NONE', #217, #121, #151 ) ;
#76 = VECTOR ( 'NONE', #149, 1000.000000000000000 ) ;
#77 = EDGE_LOOP ( 'NONE', ( #193, #100, #226, #10 ) ) ;
#78 = PLANE ( 'NONE',  #108 ) ;
#79 = PLANE ( 'NONE',  #91 ) ;
#80 = APPLICATION_PROTOCOL_DEFINITION ( 'international standard', 'config_control_design', 1994, #37 ) ;
#81 = LINE ( 'NONE', #82, #164 ) ;
#82 = CARTESIAN_POINT ( 'NONE',  ( -28.00000000000000000, 0.000000000000000000, -15.50000000000000000 ) ) ;
#83 = DIRECTION ( 'NONE',  ( 0.000000000000000000, -0.000000000000000000, -1.000000000000000000 ) ) ;
#84 = CC_DESIGN_PERSON_AND_ORGANIZATION_ASSIGNMENT ( #92, #30, ( #211 ) ) ;
#85 = PLANE ( 'NONE',  #129 ) ;
#86 = DESIGN_CONTEXT ( 'detailed design', #74, 'design' ) ;
#87 = APPROVAL_DATE_TIME ( #216, #195 ) ;
#88 = DATE_TIME_ROLE ( 'classification_date' ) ;
#89 = CARTESIAN_POINT ( 'NONE',  ( 0.000000000000000000, 0.000000000000000000, 0.000000000000000000 ) ) ;
#90 = ADVANCED_FACE ( 'NONE', ( #65 ), #85, .T. ) ;
#91 = AXIS2_PLACEMENT_3D ( 'NONE', #55, #12, #83 ) ;
#92 = PERSON_AND_ORGANIZATION ( #70, #215 ) ;
#93 = ADVANCED_FACE ( 'NONE', ( #36 ), #111, .F. ) ;
#94 = PERSON_AND_ORGANIZATION ( #70, #215 ) ;
#95 = VECTOR ( 'NONE', #155, 1000.000000000000000 ) ;
#96 = VECTOR ( 'NONE', #172, 1000.000000000000000 ) ;
#97 = APPROVAL_PERSON_ORGANIZATION ( #182, #195, #178 ) ;
#98 = DIRECTION ( 'NONE',  ( 1.000000000000000000, 0.000000000000000000, 0.000000000000000000 ) ) ;
#99 = ORIENTED_EDGE ( 'NONE', *, *, #185, .T. ) ;
#100 = ORIENTED_EDGE ( 'NONE', *, *, #62, .F. ) ;
#101 = LINE ( 'NONE', #222, #76 ) ;
#102 = ORIENTED_EDGE ( 'NONE', *, *, #35, .T. ) ;
#103 = ADVANCED_FACE ( 'NONE', ( #233 ), #202, .F. ) ;
#104 = ORIENTED_EDGE ( 'NONE', *, *, #52, .F. ) ;
#105 = EDGE_LOOP ( 'NONE', ( #104, #138, #115, #190 ) ) ;
#106 = CALENDAR_DATE ( 2026, 26, 7 ) ;
#107 = EDGE_CURVE ( 'NONE', #171, #42, #132, .T. ) ;
#108 = AXIS2_PLACEMENT_3D ( 'NONE', #41, #225, #153 ) ;
#109 = PERSON_AND_ORGANIZATION ( #70, #215 ) ;
#110 = VECTOR ( 'NONE', #169, 1000.000000000000000 ) ;
#111 = PLANE ( 'NONE',  #75 ) ;
#112 = PLANE ( 'NONE',  #146 ) ;
#113 = ORIENTED_EDGE ( 'NONE', *, *, #14, .T. ) ;
#114 = ORIENTED_EDGE ( 'NONE', *, *, #143, .F. ) ;
#115 = ORIENTED_EDGE ( 'NONE', *, *, #235, .F. ) ;
#116 = ORIENTED_EDGE ( 'NONE', *, *, #14, .F. ) ;
#117 = ADVANCED_FACE ( 'NONE', ( #198 ), #112, .F. ) ;
#118 = EDGE_LOOP ( 'NONE', ( #205, #156, #11, #47 ) ) ;
#119 = DATE_TIME_ROLE ( 'creation_date' ) ;
#120 = CALENDAR_DATE ( 2026, 26, 7 ) ;
#121 = DIRECTION ( 'NONE',  ( -1.000000000000000000, 0.000000000000000000, 0.000000000000000000 ) ) ;
#122 = CC_DESIGN_SECURITY_CLASSIFICATION ( #134, ( #2 ) ) ;
#123 = CC_DESIGN_DATE_AND_TIME_ASSIGNMENT ( #20, #119, ( #211 ) ) ;
#124 = APPROVAL ( #213, '未指定' ) ;
#125 = PERSON_AND_ORGANIZATION_ROLE ( 'design_supplier' ) ;
#126 = LOCAL_TIME ( 21, 51, 54.00000000000000000, #163 ) ;
#127 = PRODUCT_DEFINITION_SHAPE ( 'NONE', 'NONE',  #211 ) ;
#128 = ADVANCED_BREP_SHAPE_REPRESENTATION ( 'FN-HLD-004_cn3791-clip-zone_R0.5', ( #181, #49 ), #59 ) ;
#129 = AXIS2_PLACEMENT_3D ( 'NONE', #158, #231, #51 ) ;
#130 = CC_DESIGN_PERSON_AND_ORGANIZATION_ASSIGNMENT ( #69, #33, ( #201 ) ) ;
#131 = LINE ( 'NONE', #175, #200 ) ;
#132 = LINE ( 'NONE', #43, #67 ) ;
#133 = VERTEX_POINT ( 'NONE', #165 ) ;
#134 = SECURITY_CLASSIFICATION ( '', '', #199 ) ;
#135 = DIRECTION ( 'NONE',  ( -0.000000000000000000, -0.000000000000000000, 1.000000000000000000 ) ) ;
#136 = FACE_OUTER_BOUND ( 'NONE', #57, .T. ) ;
#137 = CALENDAR_DATE ( 2026, 26, 7 ) ;
#138 = ORIENTED_EDGE ( 'NONE', *, *, #18, .F. ) ;
#139 = CC_DESIGN_APPROVAL ( #124, ( #134 ) ) ;
#140 = CALENDAR_DATE ( 2026, 26, 7 ) ;
#141 = DIRECTION ( 'NONE',  ( 1.000000000000000000, 0.000000000000000000, -0.000000000000000000 ) ) ;
#142 = VECTOR ( 'NONE', #135, 1000.000000000000000 ) ;
#143 = EDGE_CURVE ( 'NONE', #42, #230, #3, .T. ) ;
#144 = DIRECTION ( 'NONE',  ( 0.000000000000000000, 0.000000000000000000, 1.000000000000000000 ) ) ;
#145 = APPROVAL_STATUS ( 'not_yet_approved' ) ;
#146 = AXIS2_PLACEMENT_3D ( 'NONE', #21, #4, #187 ) ;
#147 = CARTESIAN_POINT ( 'NONE',  ( -28.00000000000000000, 3.000000000000000000, 15.50000000000000000 ) ) ;
#148 = EDGE_CURVE ( 'NONE', #170, #133, #191, .T. ) ;
#149 = DIRECTION ( 'NONE',  ( 1.000000000000000000, 0.000000000000000000, 0.000000000000000000 ) ) ;
#150 = CARTESIAN_POINT ( 'NONE',  ( -28.00000000000000000, 3.000000000000000000, -15.50000000000000000 ) ) ;
#151 = DIRECTION ( 'NONE',  ( 0.000000000000000000, 0.000000000000000000, 1.000000000000000000 ) ) ;
#152 = VERTEX_POINT ( 'NONE', #23 ) ;
#153 = DIRECTION ( 'NONE',  ( 0.000000000000000000, 0.000000000000000000, -1.000000000000000000 ) ) ;
#154 = DIRECTION ( 'NONE',  ( -1.000000000000000000, -0.000000000000000000, -0.000000000000000000 ) ) ;
#155 = DIRECTION ( 'NONE',  ( 0.000000000000000000, 0.000000000000000000, -1.000000000000000000 ) ) ;
#156 = ORIENTED_EDGE ( 'NONE', *, *, #166, .F. ) ;
#157 = PERSON_AND_ORGANIZATION ( #70, #215 ) ;
#158 = CARTESIAN_POINT ( 'NONE',  ( 0.000000000000000000, 0.000000000000000000, 0.000000000000000000 ) ) ;
#159 = COORDINATED_UNIVERSAL_TIME_OFFSET ( 8, 0, .AHEAD. ) ;
#160 = DIRECTION ( 'NONE',  ( -0.000000000000000000, -1.000000000000000000, -0.000000000000000000 ) ) ;
#161 = MECHANICAL_CONTEXT ( 'NONE', #37, 'mechanical' ) ;
#162 = APPROVAL_DATE_TIME ( #196, #177 ) ;
#163 = COORDINATED_UNIVERSAL_TIME_OFFSET ( 8, 0, .AHEAD. ) ;
#164 = VECTOR ( 'NONE', #154, 1000.000000000000000 ) ;
#165 = CARTESIAN_POINT ( 'NONE',  ( -28.00000000000000000, 0.000000000000000000, -15.50000000000000000 ) ) ;
#166 = EDGE_CURVE ( 'NONE', #5, #152, #189, .T. ) ;
#167 =( LENGTH_UNIT ( ) NAMED_UNIT ( * ) SI_UNIT ( .MILLI., .METRE. ) );
#168 = APPROVAL_PERSON_ORGANIZATION ( #94, #177, #184 ) ;
#169 = DIRECTION ( 'NONE',  ( -0.000000000000000000, -1.000000000000000000, -0.000000000000000000 ) ) ;
#170 = VERTEX_POINT ( 'NONE', #204 ) ;
#171 = VERTEX_POINT ( 'NONE', #147 ) ;
#172 = DIRECTION ( 'NONE',  ( 0.000000000000000000, 0.000000000000000000, -1.000000000000000000 ) ) ;
#173 = LINE ( 'NONE', #150, #1 ) ;
#174 = CARTESIAN_POINT ( 'NONE',  ( 28.00000000000000000, 3.000000000000000000, -15.50000000000000000 ) ) ;
#175 = CARTESIAN_POINT ( 'NONE',  ( -28.00000000000000000, 3.000000000000000000, 15.50000000000000000 ) ) ;
#176 = UNCERTAINTY_MEASURE_WITH_UNIT (LENGTH_MEASURE( 1.000000000000000082E-05 ), #167, 'distance_accuracy_value', 'NONE');
#177 = APPROVAL ( #232, '未指定' ) ;
#178 = APPROVAL_ROLE ( '' ) ;
#179 = COORDINATED_UNIVERSAL_TIME_OFFSET ( 8, 0, .AHEAD. ) ;
#180 = CC_DESIGN_APPROVAL ( #195, ( #211 ) ) ;
#181 = MANIFOLD_SOLID_BREP ( '凸台-拉伸1', #206 ) ;
#182 = PERSON_AND_ORGANIZATION ( #70, #215 ) ;
#183 = AXIS2_PLACEMENT_3D ( 'NONE', #39, #56, #141 ) ;
#184 = APPROVAL_ROLE ( '' ) ;
#185 = EDGE_CURVE ( 'NONE', #63, #230, #101, .T. ) ;
#186 = LINE ( 'NONE', #68, #96 ) ;
#187 = DIRECTION ( 'NONE',  ( -1.000000000000000000, 0.000000000000000000, -0.000000000000000000 ) ) ;
#188 = ORIENTED_EDGE ( 'NONE', *, *, #18, .T. ) ;
#189 = LINE ( 'NONE', #25, #110 ) ;
#190 = ORIENTED_EDGE ( 'NONE', *, *, #185, .F. ) ;
#191 = LINE ( 'NONE', #54, #218 ) ;
#192 = CARTESIAN_POINT ( 'NONE',  ( 28.00000000000000000, 3.000000000000000000, 15.50000000000000000 ) ) ;
#193 = ORIENTED_EDGE ( 'NONE', *, *, #52, .T. ) ;
#194 = PERSON_AND_ORGANIZATION_ROLE ( 'classification_officer' ) ;
#195 = APPROVAL ( #145, '未指定' ) ;
#196 = DATE_AND_TIME ( #140, #71 ) ;
#197 = APPROVAL_ROLE ( '' ) ;
#198 = FACE_OUTER_BOUND ( 'NONE', #27, .T. ) ;
#199 = SECURITY_CLASSIFICATION_LEVEL ( 'unclassified' ) ;
#200 = VECTOR ( 'NONE', #15, 1000.000000000000000 ) ;
#201 = PRODUCT ( 'FN-HLD-004_cn3791-clip-zone_R0.5', 'FN-HLD-004_cn3791-clip-zone_R0.5', '', ( #161 ) ) ;
#202 = PLANE ( 'NONE',  #183 ) ;
#203 = ORIENTED_EDGE ( 'NONE', *, *, #166, .T. ) ;
#204 = CARTESIAN_POINT ( 'NONE',  ( -28.00000000000000000, 3.000000000000000000, -15.50000000000000000 ) ) ;
#205 = ORIENTED_EDGE ( 'NONE', *, *, #235, .T. ) ;
#206 = CLOSED_SHELL ( 'NONE', ( #209, #117, #93, #103, #64, #90 ) ) ;
#207 = CARTESIAN_POINT ( 'NONE',  ( 28.00000000000000000, 3.000000000000000000, 15.50000000000000000 ) ) ;
#208 = ORIENTED_EDGE ( 'NONE', *, *, #107, .F. ) ;
#209 = ADVANCED_FACE ( 'NONE', ( #7 ), #78, .F. ) ;
#210 = LINE ( 'NONE', #40, #142 ) ;
#211 = PRODUCT_DEFINITION ( '未知', '', #2, #86 ) ;
#212 = ORIENTED_EDGE ( 'NONE', *, *, #62, .T. ) ;
#213 = APPROVAL_STATUS ( 'not_yet_approved' ) ;
#214 = LOCAL_TIME ( 21, 51, 54.00000000000000000, #34 ) ;
#215 = ORGANIZATION ( '未指定', '未指定', '' ) ;
#216 = DATE_AND_TIME ( #120, #221 ) ;
#217 = CARTESIAN_POINT ( 'NONE',  ( 28.00000000000000000, 3.000000000000000000, 15.50000000000000000 ) ) ;
#218 = VECTOR ( 'NONE', #160, 1000.000000000000000 ) ;
#219 = CC_DESIGN_PERSON_AND_ORGANIZATION_ASSIGNMENT ( #50, #194, ( #134 ) ) ;
#220 = PERSON_AND_ORGANIZATION ( #70, #215 ) ;
#221 = LOCAL_TIME ( 21, 51, 54.00000000000000000, #179 ) ;
#222 = CARTESIAN_POINT ( 'NONE',  ( -28.00000000000000000, 0.000000000000000000, 15.50000000000000000 ) ) ;
#223 =( NAMED_UNIT ( * ) SI_UNIT ( $, .STERADIAN. ) SOLID_ANGLE_UNIT ( ) );
#224 = DIRECTION ( 'NONE',  ( -1.000000000000000000, -0.000000000000000000, -0.000000000000000000 ) ) ;
#225 = DIRECTION ( 'NONE',  ( 1.000000000000000000, -0.000000000000000000, 0.000000000000000000 ) ) ;
#226 = ORIENTED_EDGE ( 'NONE', *, *, #72, .F. ) ;
#227 = LINE ( 'NONE', #192, #95 ) ;
#228 = CARTESIAN_POINT ( 'NONE',  ( -28.00000000000000000, 3.000000000000000000, 15.50000000000000000 ) ) ;
#229 = CC_DESIGN_DATE_AND_TIME_ASSIGNMENT ( #61, #88, ( #134 ) ) ;
#230 = VERTEX_POINT ( 'NONE', #53 ) ;
#231 = DIRECTION ( 'NONE',  ( 0.000000000000000000, -1.000000000000000000, 0.000000000000000000 ) ) ;
#232 = APPROVAL_STATUS ( 'not_yet_approved' ) ;
#233 = FACE_OUTER_BOUND ( 'NONE', #24, .T. ) ;
#234 = CC_DESIGN_APPROVAL ( #177, ( #2 ) ) ;
#235 = EDGE_CURVE ( 'NONE', #230, #152, #186, .T. ) ;
#236 = DIRECTION ( 'NONE',  ( 1.000000000000000000, 0.000000000000000000, 0.000000000000000000 ) ) ;
#237 = PERSON_AND_ORGANIZATION_ROLE ( 'creator' ) ;
ENDSEC;
END-ISO-10303-21;
