ISO-10303-21;
HEADER;
FILE_DESCRIPTION (( 'STEP AP203' ),
    '1' );
FILE_NAME ('FN-HAR-009_W1-pv-input_R0.5.STEP',
    '2026-07-26T13:52:28',
    ( '' ),
    ( '' ),
    'SwSTEP 2.0',
    'SolidWorks 2022',
    '' );
FILE_SCHEMA (( 'CONFIG_CONTROL_DESIGN' ));
ENDSEC;

DATA;
#1 = PERSON_AND_ORGANIZATION ( #108, #276 ) ;
#2 = PERSON_AND_ORGANIZATION ( #108, #276 ) ;
#3 = VECTOR ( 'NONE', #13, 1000.000000000000000 ) ;
#4 = FACE_OUTER_BOUND ( 'NONE', #68, .T. ) ;
#5 = DATE_AND_TIME ( #69, #401 ) ;
#6 = EDGE_LOOP ( 'NONE', ( #194, #115, #430, #326, #24, #166, #153, #427, #234, #217 ) ) ;
#7 = AXIS2_PLACEMENT_3D ( 'NONE', #344, #149, #281 ) ;
#8 = CC_DESIGN_APPROVAL ( #323, ( #409 ) ) ;
#9 = LINE ( 'NONE', #279, #161 ) ;
#10 = DIRECTION ( 'NONE',  ( 1.000000000000000000, 0.000000000000000000, 0.000000000000000000 ) ) ;
#11 = LINE ( 'NONE', #220, #350 ) ;
#12 = LINE ( 'NONE', #414, #407 ) ;
#13 = DIRECTION ( 'NONE',  ( -0.000000000000000000, -1.000000000000000000, -0.000000000000000000 ) ) ;
#14 = CARTESIAN_POINT ( 'NONE',  ( -4.000000000000000000, 2.500000000000000000, -56.00000000000000000 ) ) ;
#15 = EDGE_LOOP ( 'NONE', ( #79, #20, #315, #101 ) ) ;
#16 = LINE ( 'NONE', #157, #305 ) ;
#17 = VERTEX_POINT ( 'NONE', #246 ) ;
#18 = LINE ( 'NONE', #43, #21 ) ;
#19 = EDGE_CURVE ( 'NONE', #57, #135, #283, .T. ) ;
#20 = ORIENTED_EDGE ( 'NONE', *, *, #322, .F. ) ;
#21 = VECTOR ( 'NONE', #319, 1000.000000000000000 ) ;
#22 = LOCAL_TIME ( 21, 52, 28.00000000000000000, #365 ) ;
#23 = CARTESIAN_POINT ( 'NONE',  ( 9.000000000000000000, 2.500000000000000000, 35.00000000000000000 ) ) ;
#24 = ORIENTED_EDGE ( 'NONE', *, *, #19, .F. ) ;
#25 = CARTESIAN_POINT ( 'NONE',  ( -9.000000000000000000, 2.500000000000000000, 56.00000000000000000 ) ) ;
#26 = ORIENTED_EDGE ( 'NONE', *, *, #148, .T. ) ;
#27 = LINE ( 'NONE', #133, #329 ) ;
#28 = EDGE_CURVE ( 'NONE', #288, #95, #317, .T. ) ;
#29 = VECTOR ( 'NONE', #327, 1000.000000000000000 ) ;
#30 = SECURITY_CLASSIFICATION_LEVEL ( 'unclassified' ) ;
#31 = CARTESIAN_POINT ( 'NONE',  ( -13.00000000000000000, 0.000000000000000000, 56.00000000000000000 ) ) ;
#32 = CARTESIAN_POINT ( 'NONE',  ( -13.00000000000000000, 2.500000000000000000, 56.00000000000000000 ) ) ;
#33 = APPROVAL_STATUS ( 'not_yet_approved' ) ;
#34 = CARTESIAN_POINT ( 'NONE',  ( 9.000000000000000000, 2.500000000000000000, -52.00000000000000000 ) ) ;
#35 = CARTESIAN_POINT ( 'NONE',  ( -4.000000000000000000, 2.500000000000000000, -52.00000000000000000 ) ) ;
#36 = EDGE_CURVE ( 'NONE', #275, #128, #418, .T. ) ;
#37 = CC_DESIGN_PERSON_AND_ORGANIZATION_ASSIGNMENT ( #2, #140, ( #136 ) ) ;
#38 = LINE ( 'NONE', #239, #144 ) ;
#39 = VERTEX_POINT ( 'NONE', #253 ) ;
#40 = EDGE_CURVE ( 'NONE', #429, #57, #372, .T. ) ;
#41 = DIRECTION ( 'NONE',  ( -1.000000000000000000, 0.000000000000000000, -0.000000000000000000 ) ) ;
#42 = DIRECTION ( 'NONE',  ( -1.000000000000000000, -0.000000000000000000, -0.000000000000000000 ) ) ;
#43 = CARTESIAN_POINT ( 'NONE',  ( 13.00000000000000000, 0.000000000000000000, 39.00000000000000000 ) ) ;
#44 = ORIENTED_EDGE ( 'NONE', *, *, #201, .T. ) ;
#45 = VERTEX_POINT ( 'NONE', #215 ) ;
#46 = DIRECTION ( 'NONE',  ( 1.000000000000000000, 0.000000000000000000, -0.000000000000000000 ) ) ;
#47 = CARTESIAN_POINT ( 'NONE',  ( 9.000000000000000000, 2.500000000000000000, -56.00000000000000000 ) ) ;
#48 = CARTESIAN_POINT ( 'NONE',  ( -13.00000000000000000, 2.500000000000000000, 56.00000000000000000 ) ) ;
#49 = CARTESIAN_POINT ( 'NONE',  ( -13.00000000000000000, 2.500000000000000000, 56.00000000000000000 ) ) ;
#50 = VECTOR ( 'NONE', #408, 1000.000000000000000 ) ;
#51 = AXIS2_PLACEMENT_3D ( 'NONE', #35, #307, #41 ) ;
#52 = FACE_OUTER_BOUND ( 'NONE', #61, .T. ) ;
#53 = ORIENTED_EDGE ( 'NONE', *, *, #349, .F. ) ;
#54 =( NAMED_UNIT ( * ) PLANE_ANGLE_UNIT ( ) SI_UNIT ( $, .RADIAN. ) );
#55 = ORIENTED_EDGE ( 'NONE', *, *, #62, .F. ) ;
#56 = DIRECTION ( 'NONE',  ( 0.000000000000000000, 0.000000000000000000, 1.000000000000000000 ) ) ;
#57 = VERTEX_POINT ( 'NONE', #380 ) ;
#58 = AXIS2_PLACEMENT_3D ( 'NONE', #388, #348, #341 ) ;
#59 =( GEOMETRIC_REPRESENTATION_CONTEXT ( 3 ) GLOBAL_UNCERTAINTY_ASSIGNED_CONTEXT ( ( #353 ) ) GLOBAL_UNIT_ASSIGNED_CONTEXT ( ( #160, #54, #425 ) ) REPRESENTATION_CONTEXT ( 'NONE', 'WORKASPACE' ) );
#60 = PRODUCT_DEFINITION_SHAPE ( 'NONE', 'NONE',  #434 ) ;
#61 = EDGE_LOOP ( 'NONE', ( #139, #131, #383, #333 ) ) ;
#62 = EDGE_CURVE ( 'NONE', #393, #45, #9, .T. ) ;
#63 = EDGE_CURVE ( 'NONE', #45, #324, #12, .T. ) ;
#64 = PERSON_AND_ORGANIZATION_ROLE ( 'classification_officer' ) ;
#65 = CARTESIAN_POINT ( 'NONE',  ( -9.000000000000000000, 0.000000000000000000, 39.00000000000000000 ) ) ;
#66 = AXIS2_PLACEMENT_3D ( 'NONE', #116, #374, #338 ) ;
#67 = CC_DESIGN_APPROVAL ( #416, ( #434 ) ) ;
#68 = EDGE_LOOP ( 'NONE', ( #100, #227, #92, #110 ) ) ;
#69 = CALENDAR_DATE ( 2026, 26, 7 ) ;
#70 = LINE ( 'NONE', #142, #214 ) ;
#71 = VERTEX_POINT ( 'NONE', #87 ) ;
#72 = VECTOR ( 'NONE', #181, 1000.000000000000000 ) ;
#73 = VECTOR ( 'NONE', #392, 1000.000000000000000 ) ;
#74 = LOCAL_TIME ( 21, 52, 28.00000000000000000, #210 ) ;
#75 = CC_DESIGN_PERSON_AND_ORGANIZATION_ASSIGNMENT ( #361, #64, ( #196 ) ) ;
#76 = LINE ( 'NONE', #179, #3 ) ;
#77 = DIRECTION ( 'NONE',  ( 0.000000000000000000, -0.000000000000000000, -1.000000000000000000 ) ) ;
#78 = EDGE_CURVE ( 'NONE', #404, #288, #343, .T. ) ;
#79 = ORIENTED_EDGE ( 'NONE', *, *, #373, .F. ) ;
#80 = ORIENTED_EDGE ( 'NONE', *, *, #274, .F. ) ;
#81 = LINE ( 'NONE', #191, #237 ) ;
#82 = CARTESIAN_POINT ( 'NONE',  ( 9.000000000000000000, 0.000000000000000000, 39.00000000000000000 ) ) ;
#83 = APPLICATION_CONTEXT ( 'configuration controlled 3d designs of mechanical parts and assemblies' ) ;
#84 = DIRECTION ( 'NONE',  ( 1.000000000000000000, -0.000000000000000000, 0.000000000000000000 ) ) ;
#85 = SHAPE_DEFINITION_REPRESENTATION ( #60, #385 ) ;
#86 = FACE_OUTER_BOUND ( 'NONE', #212, .T. ) ;
#87 = CARTESIAN_POINT ( 'NONE',  ( 13.00000000000000000, 0.000000000000000000, -56.00000000000000000 ) ) ;
#88 = FACE_OUTER_BOUND ( 'NONE', #15, .T. ) ;
#89 = ORIENTED_EDGE ( 'NONE', *, *, #201, .F. ) ;
#90 = APPLICATION_PROTOCOL_DEFINITION ( 'international standard', 'config_control_design', 1994, #420 ) ;
#91 = VECTOR ( 'NONE', #431, 1000.000000000000000 ) ;
#92 = ORIENTED_EDGE ( 'NONE', *, *, #257, .F. ) ;
#93 = CARTESIAN_POINT ( 'NONE',  ( -13.00000000000000000, 2.500000000000000000, 56.00000000000000000 ) ) ;
#94 = DIRECTION ( 'NONE',  ( 0.000000000000000000, -1.000000000000000000, 0.000000000000000000 ) ) ;
#95 = VERTEX_POINT ( 'NONE', #146 ) ;
#96 = ORIENTED_EDGE ( 'NONE', *, *, #190, .T. ) ;
#97 = VECTOR ( 'NONE', #186, 1000.000000000000000 ) ;
#98 = AXIS2_PLACEMENT_3D ( 'NONE', #248, #375, #199 ) ;
#99 = PERSON_AND_ORGANIZATION ( #108, #276 ) ;
#100 = ORIENTED_EDGE ( 'NONE', *, *, #306, .T. ) ;
#101 = ORIENTED_EDGE ( 'NONE', *, *, #168, .T. ) ;
#102 = APPROVAL_ROLE ( '' ) ;
#103 = ADVANCED_FACE ( 'NONE', ( #411 ), #377, .T. ) ;
#104 = APPROVAL_ROLE ( '' ) ;
#105 = ORIENTED_EDGE ( 'NONE', *, *, #113, .T. ) ;
#106 = COORDINATED_UNIVERSAL_TIME_OFFSET ( 8, 0, .AHEAD. ) ;
#107 = ORIENTED_EDGE ( 'NONE', *, *, #435, .F. ) ;
#108 = PERSON ( '未指定', '未指定', '未指定', ('未指定'), ('未指定'), ('未指定') ) ;
#109 = CARTESIAN_POINT ( 'NONE',  ( -13.00000000000000000, 2.500000000000000000, 56.00000000000000000 ) ) ;
#110 = ORIENTED_EDGE ( 'NONE', *, *, #28, .T. ) ;
#111 = PRODUCT_RELATED_PRODUCT_CATEGORY ( 'detail', '', ( #136 ) ) ;
#112 = DIRECTION ( 'NONE',  ( 1.000000000000000000, 0.000000000000000000, 0.000000000000000000 ) ) ;
#113 = EDGE_CURVE ( 'NONE', #356, #197, #371, .T. ) ;
#114 = CARTESIAN_POINT ( 'NONE',  ( 0.000000000000000000, 0.000000000000000000, 0.000000000000000000 ) ) ;
#115 = ORIENTED_EDGE ( 'NONE', *, *, #206, .F. ) ;
#116 = CARTESIAN_POINT ( 'NONE',  ( 9.000000000000000000, 2.500000000000000000, -56.00000000000000000 ) ) ;
#117 = CARTESIAN_POINT ( 'NONE',  ( -9.000000000000000000, 2.500000000000000000, 39.00000000000000000 ) ) ;
#118 = PLANE ( 'NONE',  #309 ) ;
#119 = FACE_OUTER_BOUND ( 'NONE', #213, .T. ) ;
#120 = CARTESIAN_POINT ( 'NONE',  ( -4.000000000000000000, 2.500000000000000000, -56.00000000000000000 ) ) ;
#121 = CARTESIAN_POINT ( 'NONE',  ( -13.00000000000000000, 0.000000000000000000, 35.00000000000000000 ) ) ;
#122 = ORIENTED_EDGE ( 'NONE', *, *, #113, .F. ) ;
#123 = DIRECTION ( 'NONE',  ( 0.000000000000000000, 0.000000000000000000, -1.000000000000000000 ) ) ;
#124 = ADVANCED_FACE ( 'NONE', ( #347 ), #225, .F. ) ;
#125 = ORIENTED_EDGE ( 'NONE', *, *, #373, .T. ) ;
#126 = VECTOR ( 'NONE', #357, 1000.000000000000000 ) ;
#127 = ADVANCED_FACE ( 'NONE', ( #119 ), #251, .F. ) ;
#128 = VERTEX_POINT ( 'NONE', #345 ) ;
#129 = APPROVAL_PERSON_ORGANIZATION ( #271, #323, #102 ) ;
#130 = PLANE ( 'NONE',  #359 ) ;
#131 = ORIENTED_EDGE ( 'NONE', *, *, #158, .F. ) ;
#132 = ORIENTED_EDGE ( 'NONE', *, *, #190, .F. ) ;
#133 = CARTESIAN_POINT ( 'NONE',  ( -13.00000000000000000, 0.000000000000000000, 39.00000000000000000 ) ) ;
#134 = CARTESIAN_POINT ( 'NONE',  ( 9.000000000000000000, 0.000000000000000000, 35.00000000000000000 ) ) ;
#135 = VERTEX_POINT ( 'NONE', #321 ) ;
#136 = PRODUCT ( 'FN-HAR-009_W1-pv-input_R0.5', 'FN-HAR-009_W1-pv-input_R0.5', '', ( #232 ) ) ;
#137 = APPROVAL_STATUS ( 'not_yet_approved' ) ;
#138 = APPLICATION_PROTOCOL_DEFINITION ( 'international standard', 'config_control_design', 1994, #83 ) ;
#139 = ORIENTED_EDGE ( 'NONE', *, *, #19, .T. ) ;
#140 = PERSON_AND_ORGANIZATION_ROLE ( 'design_owner' ) ;
#141 = EDGE_CURVE ( 'NONE', #275, #45, #268, .T. ) ;
#142 = CARTESIAN_POINT ( 'NONE',  ( -13.00000000000000000, 2.500000000000000000, 39.00000000000000000 ) ) ;
#143 = CARTESIAN_POINT ( 'NONE',  ( -4.000000000000000000, 2.500000000000000000, -52.00000000000000000 ) ) ;
#144 = VECTOR ( 'NONE', #112, 1000.000000000000000 ) ;
#145 = CARTESIAN_POINT ( 'NONE',  ( -13.00000000000000000, 0.000000000000000000, 56.00000000000000000 ) ) ;
#146 = CARTESIAN_POINT ( 'NONE',  ( -4.000000000000000000, 0.000000000000000000, -52.00000000000000000 ) ) ;
#147 = CARTESIAN_POINT ( 'NONE',  ( -4.000000000000000000, 0.000000000000000000, -56.00000000000000000 ) ) ;
#148 = EDGE_CURVE ( 'NONE', #247, #295, #198, .T. ) ;
#149 = DIRECTION ( 'NONE',  ( 0.000000000000000000, -1.000000000000000000, 0.000000000000000000 ) ) ;
#150 = DIRECTION ( 'NONE',  ( 0.000000000000000000, -1.000000000000000000, 0.000000000000000000 ) ) ;
#151 = ORIENTED_EDGE ( 'NONE', *, *, #349, .T. ) ;
#152 = VECTOR ( 'NONE', #396, 1000.000000000000000 ) ;
#153 = ORIENTED_EDGE ( 'NONE', *, *, #36, .F. ) ;
#154 = ORIENTED_EDGE ( 'NONE', *, *, #78, .T. ) ;
#155 = FACE_OUTER_BOUND ( 'NONE', #159, .T. ) ;
#156 = CC_DESIGN_DATE_AND_TIME_ASSIGNMENT ( #362, #203, ( #196 ) ) ;
#157 = CARTESIAN_POINT ( 'NONE',  ( -4.000000000000000000, 2.500000000000000000, -52.00000000000000000 ) ) ;
#158 = EDGE_CURVE ( 'NONE', #356, #135, #293, .T. ) ;
#159 = EDGE_LOOP ( 'NONE', ( #132, #193, #125, #200 ) ) ;
#160 =( LENGTH_UNIT ( ) NAMED_UNIT ( * ) SI_UNIT ( .MILLI., .METRE. ) );
#161 = VECTOR ( 'NONE', #189, 1000.000000000000000 ) ;
#162 = LINE ( 'NONE', #31, #73 ) ;
#163 = ORIENTED_EDGE ( 'NONE', *, *, #141, .T. ) ;
#164 = DIRECTION ( 'NONE',  ( 1.000000000000000000, 0.000000000000000000, 0.000000000000000000 ) ) ;
#165 = CARTESIAN_POINT ( 'NONE',  ( -4.000000000000000000, 2.500000000000000000, -52.00000000000000000 ) ) ;
#166 = ORIENTED_EDGE ( 'NONE', *, *, #289, .F. ) ;
#167 = VECTOR ( 'NONE', #364, 1000.000000000000000 ) ;
#168 = EDGE_CURVE ( 'NONE', #273, #17, #27, .T. ) ;
#169 = ORIENTED_EDGE ( 'NONE', *, *, #28, .F. ) ;
#170 = PERSON_AND_ORGANIZATION_ROLE ( 'design_supplier' ) ;
#171 = PERSON_AND_ORGANIZATION_ROLE ( 'creator' ) ;
#172 = AXIS2_PLACEMENT_3D ( 'NONE', #49, #84, #221 ) ;
#173 = DIRECTION ( 'NONE',  ( -0.000000000000000000, -0.000000000000000000, 1.000000000000000000 ) ) ;
#174 = CARTESIAN_POINT ( 'NONE',  ( -4.000000000000000000, 0.000000000000000000, -52.00000000000000000 ) ) ;
#175 = AXIS2_PLACEMENT_3D ( 'NONE', #378, #256, #291 ) ;
#176 = EDGE_CURVE ( 'NONE', #324, #128, #76, .T. ) ;
#177 = LOCAL_TIME ( 21, 52, 28.00000000000000000, #106 ) ;
#178 = CARTESIAN_POINT ( 'NONE',  ( -9.000000000000000000, 2.500000000000000000, 56.00000000000000000 ) ) ;
#179 = CARTESIAN_POINT ( 'NONE',  ( -13.00000000000000000, 2.500000000000000000, 35.00000000000000000 ) ) ;
#180 = CARTESIAN_POINT ( 'NONE',  ( 9.000000000000000000, 2.500000000000000000, -52.00000000000000000 ) ) ;
#181 = DIRECTION ( 'NONE',  ( -0.000000000000000000, -1.000000000000000000, -0.000000000000000000 ) ) ;
#182 = ORIENTED_EDGE ( 'NONE', *, *, #62, .T. ) ;
#183 = DIRECTION ( 'NONE',  ( -0.000000000000000000, -1.000000000000000000, -0.000000000000000000 ) ) ;
#184 = ORIENTED_EDGE ( 'NONE', *, *, #40, .F. ) ;
#185 = ADVANCED_FACE ( 'NONE', ( #285 ), #415, .F. ) ;
#186 = DIRECTION ( 'NONE',  ( -1.000000000000000000, -0.000000000000000000, -0.000000000000000000 ) ) ;
#187 = APPROVAL ( #137, '未指定' ) ;
#188 = LINE ( 'NONE', #34, #167 ) ;
#189 = DIRECTION ( 'NONE',  ( -0.000000000000000000, -0.000000000000000000, 1.000000000000000000 ) ) ;
#190 = EDGE_CURVE ( 'NONE', #295, #71, #81, .T. ) ;
#191 = CARTESIAN_POINT ( 'NONE',  ( 13.00000000000000000, 2.500000000000000000, -56.00000000000000000 ) ) ;
#192 = EDGE_LOOP ( 'NONE', ( #272, #284, #89, #96 ) ) ;
#193 = ORIENTED_EDGE ( 'NONE', *, *, #148, .F. ) ;
#194 = ORIENTED_EDGE ( 'NONE', *, *, #278, .F. ) ;
#195 = VECTOR ( 'NONE', #94, 1000.000000000000000 ) ;
#196 = SECURITY_CLASSIFICATION ( '', '', #30 ) ;
#197 = VERTEX_POINT ( 'NONE', #117 ) ;
#198 = LINE ( 'NONE', #397, #29 ) ;
#199 = DIRECTION ( 'NONE',  ( 0.000000000000000000, 0.000000000000000000, 1.000000000000000000 ) ) ;
#200 = ORIENTED_EDGE ( 'NONE', *, *, #206, .T. ) ;
#201 = EDGE_CURVE ( 'NONE', #295, #404, #222, .T. ) ;
#202 = CC_DESIGN_DATE_AND_TIME_ASSIGNMENT ( #5, #236, ( #434 ) ) ;
#203 = DATE_TIME_ROLE ( 'classification_date' ) ;
#204 = LINE ( 'NONE', #259, #195 ) ;
#205 = VECTOR ( 'NONE', #379, 1000.000000000000000 ) ;
#206 = EDGE_CURVE ( 'NONE', #17, #71, #18, .T. ) ;
#207 = APPROVAL_PERSON_ORGANIZATION ( #1, #187, #104 ) ;
#208 = CALENDAR_DATE ( 2026, 26, 7 ) ;
#209 = DESIGN_CONTEXT ( 'detailed design', #83, 'design' ) ;
#210 = COORDINATED_UNIVERSAL_TIME_OFFSET ( 8, 0, .AHEAD. ) ;
#211 = APPROVAL_DATE_TIME ( #400, #416 ) ;
#212 = EDGE_LOOP ( 'NONE', ( #107, #231, #163, #55 ) ) ;
#213 = EDGE_LOOP ( 'NONE', ( #387, #184, #53, #340 ) ) ;
#214 = VECTOR ( 'NONE', #334, 1000.000000000000000 ) ;
#215 = CARTESIAN_POINT ( 'NONE',  ( 9.000000000000000000, 2.500000000000000000, 35.00000000000000000 ) ) ;
#216 = ADVANCED_FACE ( 'NONE', ( #155 ), #130, .F. ) ;
#217 = ORIENTED_EDGE ( 'NONE', *, *, #308, .F. ) ;
#218 = CARTESIAN_POINT ( 'NONE',  ( -13.00000000000000000, 2.500000000000000000, 56.00000000000000000 ) ) ;
#219 = DIRECTION ( 'NONE',  ( -1.000000000000000000, 0.000000000000000000, 0.000000000000000000 ) ) ;
#220 = CARTESIAN_POINT ( 'NONE',  ( 13.00000000000000000, 2.500000000000000000, 39.00000000000000000 ) ) ;
#221 = DIRECTION ( 'NONE',  ( 0.000000000000000000, 0.000000000000000000, -1.000000000000000000 ) ) ;
#222 = LINE ( 'NONE', #47, #97 ) ;
#223 = PLANE ( 'NONE',  #7 ) ;
#224 = ADVANCED_FACE ( 'NONE', ( #52 ), #421, .F. ) ;
#225 = PLANE ( 'NONE',  #66 ) ;
#226 = PLANE ( 'NONE',  #58 ) ;
#227 = ORIENTED_EDGE ( 'NONE', *, *, #435, .T. ) ;
#228 = ORIENTED_EDGE ( 'NONE', *, *, #308, .T. ) ;
#229 = AXIS2_PLACEMENT_3D ( 'NONE', #93, #123, #254 ) ;
#230 = LINE ( 'NONE', #360, #152 ) ;
#231 = ORIENTED_EDGE ( 'NONE', *, *, #370, .T. ) ;
#232 = MECHANICAL_CONTEXT ( 'NONE', #420, 'mechanical' ) ;
#233 = PERSON_AND_ORGANIZATION ( #108, #276 ) ;
#234 = ORIENTED_EDGE ( 'NONE', *, *, #306, .F. ) ;
#235 = ADVANCED_FACE ( 'NONE', ( #88 ), #226, .F. ) ;
#236 = DATE_TIME_ROLE ( 'creation_date' ) ;
#237 = VECTOR ( 'NONE', #325, 1000.000000000000000 ) ;
#238 = PERSON_AND_ORGANIZATION ( #108, #276 ) ;
#239 = CARTESIAN_POINT ( 'NONE',  ( -4.000000000000000000, 0.000000000000000000, -52.00000000000000000 ) ) ;
#240 = DIRECTION ( 'NONE',  ( 1.000000000000000000, 0.000000000000000000, 0.000000000000000000 ) ) ;
#241 = ORIENTED_EDGE ( 'NONE', *, *, #63, .F. ) ;
#242 = VECTOR ( 'NONE', #240, 1000.000000000000000 ) ;
#243 = LINE ( 'NONE', #174, #391 ) ;
#244 = DIRECTION ( 'NONE',  ( -0.000000000000000000, -1.000000000000000000, -0.000000000000000000 ) ) ;
#245 = CARTESIAN_POINT ( 'NONE',  ( -9.000000000000000000, 2.500000000000000000, 56.00000000000000000 ) ) ;
#246 = CARTESIAN_POINT ( 'NONE',  ( 13.00000000000000000, 0.000000000000000000, 39.00000000000000000 ) ) ;
#247 = VERTEX_POINT ( 'NONE', #312 ) ;
#248 = CARTESIAN_POINT ( 'NONE',  ( -9.000000000000000000, 2.500000000000000000, 56.00000000000000000 ) ) ;
#249 = VECTOR ( 'NONE', #286, 1000.000000000000000 ) ;
#250 = CARTESIAN_POINT ( 'NONE',  ( 9.000000000000000000, 2.500000000000000000, 39.00000000000000000 ) ) ;
#251 = PLANE ( 'NONE',  #172 ) ;
#252 = DIRECTION ( 'NONE',  ( 1.000000000000000000, -0.000000000000000000, 0.000000000000000000 ) ) ;
#253 = CARTESIAN_POINT ( 'NONE',  ( 9.000000000000000000, 0.000000000000000000, -52.00000000000000000 ) ) ;
#254 = DIRECTION ( 'NONE',  ( -1.000000000000000000, 0.000000000000000000, -0.000000000000000000 ) ) ;
#255 = ORIENTED_EDGE ( 'NONE', *, *, #158, .T. ) ;
#256 = DIRECTION ( 'NONE',  ( 1.000000000000000000, -0.000000000000000000, 0.000000000000000000 ) ) ;
#257 = EDGE_CURVE ( 'NONE', #288, #393, #16, .T. ) ;
#258 = DIRECTION ( 'NONE',  ( 0.000000000000000000, 0.000000000000000000, 1.000000000000000000 ) ) ;
#259 = CARTESIAN_POINT ( 'NONE',  ( -9.000000000000000000, 2.500000000000000000, 39.00000000000000000 ) ) ;
#260 = CLOSED_SHELL ( 'NONE', ( #422, #363, #263, #127, #224, #382, #103, #235, #216, #124, #352, #185 ) ) ;
#261 = CC_DESIGN_PERSON_AND_ORGANIZATION_ASSIGNMENT ( #366, #171, ( #434 ) ) ;
#262 = VERTEX_POINT ( 'NONE', #147 ) ;
#263 = ADVANCED_FACE ( 'NONE', ( #280 ), #412, .F. ) ;
#264 = PERSON_AND_ORGANIZATION_ROLE ( 'creator' ) ;
#265 = ORIENTED_EDGE ( 'NONE', *, *, #63, .T. ) ;
#266 = DIRECTION ( 'NONE',  ( 1.000000000000000000, 0.000000000000000000, 0.000000000000000000 ) ) ;
#267 = CARTESIAN_POINT ( 'NONE',  ( 13.00000000000000000, 2.500000000000000000, -56.00000000000000000 ) ) ;
#268 = LINE ( 'NONE', #23, #126 ) ;
#269 = APPROVAL_ROLE ( '' ) ;
#270 = VECTOR ( 'NONE', #314, 1000.000000000000000 ) ;
#271 = PERSON_AND_ORGANIZATION ( #108, #276 ) ;
#272 = ORIENTED_EDGE ( 'NONE', *, *, #278, .T. ) ;
#273 = VERTEX_POINT ( 'NONE', #65 ) ;
#274 = EDGE_CURVE ( 'NONE', #197, #273, #204, .T. ) ;
#275 = VERTEX_POINT ( 'NONE', #134 ) ;
#276 = ORGANIZATION ( '未指定', '未指定', '' ) ;
#277 = LINE ( 'NONE', #109, #242 ) ;
#278 = EDGE_CURVE ( 'NONE', #71, #262, #230, .T. ) ;
#279 = CARTESIAN_POINT ( 'NONE',  ( 9.000000000000000000, 2.500000000000000000, 39.00000000000000000 ) ) ;
#280 = FACE_OUTER_BOUND ( 'NONE', #419, .T. ) ;
#281 = DIRECTION ( 'NONE',  ( 0.000000000000000000, -0.000000000000000000, -1.000000000000000000 ) ) ;
#282 = FACE_OUTER_BOUND ( 'NONE', #406, .T. ) ;
#283 = LINE ( 'NONE', #145, #384 ) ;
#284 = ORIENTED_EDGE ( 'NONE', *, *, #394, .F. ) ;
#285 = FACE_OUTER_BOUND ( 'NONE', #424, .T. ) ;
#286 = DIRECTION ( 'NONE',  ( -0.000000000000000000, -1.000000000000000000, -0.000000000000000000 ) ) ;
#287 = CARTESIAN_POINT ( 'NONE',  ( -4.000000000000000000, 2.500000000000000000, -52.00000000000000000 ) ) ;
#288 = VERTEX_POINT ( 'NONE', #165 ) ;
#289 = EDGE_CURVE ( 'NONE', #128, #57, #162, .T. ) ;
#290 = ORIENTED_EDGE ( 'NONE', *, *, #36, .T. ) ;
#291 = DIRECTION ( 'NONE',  ( 0.000000000000000000, 0.000000000000000000, -1.000000000000000000 ) ) ;
#292 = VECTOR ( 'NONE', #244, 1000.000000000000000 ) ;
#293 = LINE ( 'NONE', #25, #91 ) ;
#294 = APPROVAL_DATE_TIME ( #298, #323 ) ;
#295 = VERTEX_POINT ( 'NONE', #267 ) ;
#296 = EDGE_CURVE ( 'NONE', #135, #273, #302, .T. ) ;
#297 = AXIS2_PLACEMENT_3D ( 'NONE', #313, #376, #46 ) ;
#298 = DATE_AND_TIME ( #208, #22 ) ;
#299 = ORIENTED_EDGE ( 'NONE', *, *, #394, .T. ) ;
#300 = MANIFOLD_SOLID_BREP ( '凸台-拉伸4', #260 ) ;
#301 = CALENDAR_DATE ( 2026, 26, 7 ) ;
#302 = LINE ( 'NONE', #367, #320 ) ;
#303 = DATE_AND_TIME ( #395, #74 ) ;
#304 = COORDINATED_UNIVERSAL_TIME_OFFSET ( 8, 0, .AHEAD. ) ;
#305 = VECTOR ( 'NONE', #10, 1000.000000000000000 ) ;
#306 = EDGE_CURVE ( 'NONE', #95, #39, #38, .T. ) ;
#307 = DIRECTION ( 'NONE',  ( 0.000000000000000000, 0.000000000000000000, -1.000000000000000000 ) ) ;
#308 = EDGE_CURVE ( 'NONE', #262, #95, #243, .T. ) ;
#309 = AXIS2_PLACEMENT_3D ( 'NONE', #250, #252, #346 ) ;
#310 = APPROVAL_PERSON_ORGANIZATION ( #238, #416, #269 ) ;
#311 = DIRECTION ( 'NONE',  ( 0.000000000000000000, 0.000000000000000000, -1.000000000000000000 ) ) ;
#312 = CARTESIAN_POINT ( 'NONE',  ( 13.00000000000000000, 2.500000000000000000, 39.00000000000000000 ) ) ;
#313 = CARTESIAN_POINT ( 'NONE',  ( -13.00000000000000000, 2.500000000000000000, 35.00000000000000000 ) ) ;
#314 = DIRECTION ( 'NONE',  ( -0.000000000000000000, -0.000000000000000000, 1.000000000000000000 ) ) ;
#315 = ORIENTED_EDGE ( 'NONE', *, *, #274, .T. ) ;
#316 = LINE ( 'NONE', #14, #249 ) ;
#317 = LINE ( 'NONE', #287, #72 ) ;
#318 = ORIENTED_EDGE ( 'NONE', *, *, #296, .T. ) ;
#319 = DIRECTION ( 'NONE',  ( 0.000000000000000000, 0.000000000000000000, -1.000000000000000000 ) ) ;
#320 = VECTOR ( 'NONE', #405, 1000.000000000000000 ) ;
#321 = CARTESIAN_POINT ( 'NONE',  ( -9.000000000000000000, 0.000000000000000000, 56.00000000000000000 ) ) ;
#322 = EDGE_CURVE ( 'NONE', #197, #247, #70, .T. ) ;
#323 = APPROVAL ( #403, '未指定' ) ;
#324 = VERTEX_POINT ( 'NONE', #331 ) ;
#325 = DIRECTION ( 'NONE',  ( -0.000000000000000000, -1.000000000000000000, -0.000000000000000000 ) ) ;
#326 = ORIENTED_EDGE ( 'NONE', *, *, #296, .F. ) ;
#327 = DIRECTION ( 'NONE',  ( 0.000000000000000000, 0.000000000000000000, -1.000000000000000000 ) ) ;
#328 = ORIENTED_EDGE ( 'NONE', *, *, #337, .T. ) ;
#329 = VECTOR ( 'NONE', #266, 1000.000000000000000 ) ;
#330 = EDGE_LOOP ( 'NONE', ( #44, #154, #369, #182, #265, #151, #328, #105, #389, #26 ) ) ;
#331 = CARTESIAN_POINT ( 'NONE',  ( -13.00000000000000000, 2.500000000000000000, 35.00000000000000000 ) ) ;
#332 = CALENDAR_DATE ( 2026, 26, 7 ) ;
#333 = ORIENTED_EDGE ( 'NONE', *, *, #40, .T. ) ;
#334 = DIRECTION ( 'NONE',  ( 1.000000000000000000, 0.000000000000000000, 0.000000000000000000 ) ) ;
#335 = CC_DESIGN_PERSON_AND_ORGANIZATION_ASSIGNMENT ( #233, #170, ( #409 ) ) ;
#336 = DIRECTION ( 'NONE',  ( -0.000000000000000000, -0.000000000000000000, 1.000000000000000000 ) ) ;
#337 = EDGE_CURVE ( 'NONE', #429, #356, #277, .T. ) ;
#338 = DIRECTION ( 'NONE',  ( 1.000000000000000000, 0.000000000000000000, -0.000000000000000000 ) ) ;
#339 = LINE ( 'NONE', #32, #386 ) ;
#340 = ORIENTED_EDGE ( 'NONE', *, *, #176, .T. ) ;
#341 = DIRECTION ( 'NONE',  ( -1.000000000000000000, 0.000000000000000000, -0.000000000000000000 ) ) ;
#342 = LOCAL_TIME ( 21, 52, 28.00000000000000000, #432 ) ;
#343 = LINE ( 'NONE', #143, #270 ) ;
#344 = CARTESIAN_POINT ( 'NONE',  ( 0.000000000000000000, 2.500000000000000000, 0.000000000000000000 ) ) ;
#345 = CARTESIAN_POINT ( 'NONE',  ( -13.00000000000000000, 0.000000000000000000, 35.00000000000000000 ) ) ;
#346 = DIRECTION ( 'NONE',  ( 0.000000000000000000, 0.000000000000000000, -1.000000000000000000 ) ) ;
#347 = FACE_OUTER_BOUND ( 'NONE', #192, .T. ) ;
#348 = DIRECTION ( 'NONE',  ( 0.000000000000000000, 0.000000000000000000, -1.000000000000000000 ) ) ;
#349 = EDGE_CURVE ( 'NONE', #324, #429, #339, .T. ) ;
#350 = VECTOR ( 'NONE', #183, 1000.000000000000000 ) ;
#351 = CC_DESIGN_SECURITY_CLASSIFICATION ( #196, ( #409 ) ) ;
#352 = ADVANCED_FACE ( 'NONE', ( #4 ), #402, .F. ) ;
#353 = UNCERTAINTY_MEASURE_WITH_UNIT (LENGTH_MEASURE( 1.000000000000000082E-05 ), #160, 'distance_accuracy_value', 'NONE');
#354 = ORIENTED_EDGE ( 'NONE', *, *, #78, .F. ) ;
#355 = CARTESIAN_POINT ( 'NONE',  ( 0.000000000000000000, 0.000000000000000000, 0.000000000000000000 ) ) ;
#356 = VERTEX_POINT ( 'NONE', #245 ) ;
#357 = DIRECTION ( 'NONE',  ( 0.000000000000000000, 1.000000000000000000, -0.000000000000000000 ) ) ;
#358 = ORIENTED_EDGE ( 'NONE', *, *, #176, .F. ) ;
#359 = AXIS2_PLACEMENT_3D ( 'NONE', #428, #219, #258 ) ;
#360 = CARTESIAN_POINT ( 'NONE',  ( 9.000000000000000000, 0.000000000000000000, -56.00000000000000000 ) ) ;
#361 = PERSON_AND_ORGANIZATION ( #108, #276 ) ;
#362 = DATE_AND_TIME ( #301, #342 ) ;
#363 = ADVANCED_FACE ( 'NONE', ( #282 ), #426, .F. ) ;
#364 = DIRECTION ( 'NONE',  ( 0.000000000000000000, 1.000000000000000000, 0.000000000000000000 ) ) ;
#365 = COORDINATED_UNIVERSAL_TIME_OFFSET ( 8, 0, .AHEAD. ) ;
#366 = PERSON_AND_ORGANIZATION ( #108, #276 ) ;
#367 = CARTESIAN_POINT ( 'NONE',  ( -9.000000000000000000, 0.000000000000000000, 56.00000000000000000 ) ) ;
#368 = ORIENTED_EDGE ( 'NONE', *, *, #141, .F. ) ;
#369 = ORIENTED_EDGE ( 'NONE', *, *, #257, .T. ) ;
#370 = EDGE_CURVE ( 'NONE', #39, #275, #413, .T. ) ;
#371 = LINE ( 'NONE', #178, #398 ) ;
#372 = LINE ( 'NONE', #218, #292 ) ;
#373 = EDGE_CURVE ( 'NONE', #247, #17, #11, .T. ) ;
#374 = DIRECTION ( 'NONE',  ( 0.000000000000000000, 0.000000000000000000, 1.000000000000000000 ) ) ;
#375 = DIRECTION ( 'NONE',  ( -1.000000000000000000, 0.000000000000000000, 0.000000000000000000 ) ) ;
#376 = DIRECTION ( 'NONE',  ( 0.000000000000000000, 0.000000000000000000, 1.000000000000000000 ) ) ;
#377 = PLANE ( 'NONE',  #390 ) ;
#378 = CARTESIAN_POINT ( 'NONE',  ( -4.000000000000000000, 2.500000000000000000, -52.00000000000000000 ) ) ;
#379 = DIRECTION ( 'NONE',  ( -0.000000000000000000, -0.000000000000000000, 1.000000000000000000 ) ) ;
#380 = CARTESIAN_POINT ( 'NONE',  ( -13.00000000000000000, 0.000000000000000000, 56.00000000000000000 ) ) ;
#381 = CC_DESIGN_PERSON_AND_ORGANIZATION_ASSIGNMENT ( #99, #264, ( #409 ) ) ;
#382 = ADVANCED_FACE ( 'NONE', ( #417 ), #223, .F. ) ;
#383 = ORIENTED_EDGE ( 'NONE', *, *, #337, .F. ) ;
#384 = VECTOR ( 'NONE', #410, 1000.000000000000000 ) ;
#385 = ADVANCED_BREP_SHAPE_REPRESENTATION ( 'FN-HAR-009_W1-pv-input_R0.5', ( #300, #399 ), #59 ) ;
#386 = VECTOR ( 'NONE', #173, 1000.000000000000000 ) ;
#387 = ORIENTED_EDGE ( 'NONE', *, *, #289, .T. ) ;
#388 = CARTESIAN_POINT ( 'NONE',  ( -13.00000000000000000, 2.500000000000000000, 39.00000000000000000 ) ) ;
#389 = ORIENTED_EDGE ( 'NONE', *, *, #322, .T. ) ;
#390 = AXIS2_PLACEMENT_3D ( 'NONE', #114, #150, #77 ) ;
#391 = VECTOR ( 'NONE', #336, 1000.000000000000000 ) ;
#392 = DIRECTION ( 'NONE',  ( -0.000000000000000000, -0.000000000000000000, 1.000000000000000000 ) ) ;
#393 = VERTEX_POINT ( 'NONE', #180 ) ;
#394 = EDGE_CURVE ( 'NONE', #404, #262, #316, .T. ) ;
#395 = CALENDAR_DATE ( 2026, 26, 7 ) ;
#396 = DIRECTION ( 'NONE',  ( -1.000000000000000000, -0.000000000000000000, -0.000000000000000000 ) ) ;
#397 = CARTESIAN_POINT ( 'NONE',  ( 13.00000000000000000, 2.500000000000000000, 39.00000000000000000 ) ) ;
#398 = VECTOR ( 'NONE', #311, 1000.000000000000000 ) ;
#399 = AXIS2_PLACEMENT_3D ( 'NONE', #355, #56, #164 ) ;
#400 = DATE_AND_TIME ( #332, #177 ) ;
#401 = LOCAL_TIME ( 21, 52, 28.00000000000000000, #304 ) ;
#402 = PLANE ( 'NONE',  #51 ) ;
#403 = APPROVAL_STATUS ( 'not_yet_approved' ) ;
#404 = VERTEX_POINT ( 'NONE', #120 ) ;
#405 = DIRECTION ( 'NONE',  ( 0.000000000000000000, 0.000000000000000000, -1.000000000000000000 ) ) ;
#406 = EDGE_LOOP ( 'NONE', ( #368, #290, #358, #241 ) ) ;
#407 = VECTOR ( 'NONE', #42, 1000.000000000000000 ) ;
#408 = DIRECTION ( 'NONE',  ( -1.000000000000000000, -0.000000000000000000, -0.000000000000000000 ) ) ;
#409 = PRODUCT_DEFINITION_FORMATION_WITH_SPECIFIED_SOURCE ( '任何', '', #136, .NOT_KNOWN. ) ;
#410 = DIRECTION ( 'NONE',  ( 1.000000000000000000, 0.000000000000000000, 0.000000000000000000 ) ) ;
#411 = FACE_OUTER_BOUND ( 'NONE', #6, .T. ) ;
#412 = PLANE ( 'NONE',  #98 ) ;
#413 = LINE ( 'NONE', #82, #205 ) ;
#414 = CARTESIAN_POINT ( 'NONE',  ( -13.00000000000000000, 2.500000000000000000, 35.00000000000000000 ) ) ;
#415 = PLANE ( 'NONE',  #175 ) ;
#416 = APPROVAL ( #33, '未指定' ) ;
#417 = FACE_OUTER_BOUND ( 'NONE', #330, .T. ) ;
#418 = LINE ( 'NONE', #121, #50 ) ;
#419 = EDGE_LOOP ( 'NONE', ( #80, #122, #255, #318 ) ) ;
#420 = APPLICATION_CONTEXT ( 'configuration controlled 3d designs of mechanical parts and assemblies' ) ;
#421 = PLANE ( 'NONE',  #229 ) ;
#422 = ADVANCED_FACE ( 'NONE', ( #86 ), #118, .F. ) ;
#423 = APPROVAL_DATE_TIME ( #303, #187 ) ;
#424 = EDGE_LOOP ( 'NONE', ( #228, #169, #354, #299 ) ) ;
#425 =( NAMED_UNIT ( * ) SI_UNIT ( $, .STERADIAN. ) SOLID_ANGLE_UNIT ( ) );
#426 = PLANE ( 'NONE',  #297 ) ;
#427 = ORIENTED_EDGE ( 'NONE', *, *, #370, .F. ) ;
#428 = CARTESIAN_POINT ( 'NONE',  ( 13.00000000000000000, 2.500000000000000000, 39.00000000000000000 ) ) ;
#429 = VERTEX_POINT ( 'NONE', #48 ) ;
#430 = ORIENTED_EDGE ( 'NONE', *, *, #168, .F. ) ;
#431 = DIRECTION ( 'NONE',  ( -0.000000000000000000, -1.000000000000000000, -0.000000000000000000 ) ) ;
#432 = COORDINATED_UNIVERSAL_TIME_OFFSET ( 8, 0, .AHEAD. ) ;
#433 = CC_DESIGN_APPROVAL ( #187, ( #196 ) ) ;
#434 = PRODUCT_DEFINITION ( '未知', '', #409, #209 ) ;
#435 = EDGE_CURVE ( 'NONE', #39, #393, #188, .T. ) ;
ENDSEC;
END-ISO-10303-21;
