ISO-10303-21;
HEADER;
FILE_DESCRIPTION (( 'STEP AP203' ),
    '1' );
FILE_NAME ('FN-HAR-016_W8-xls1-rf_R0.5.STEP',
    '2026-07-26T13:54:10',
    ( '' ),
    ( '' ),
    'SwSTEP 2.0',
    'SolidWorks 2022',
    '' );
FILE_SCHEMA (( 'CONFIG_CONTROL_DESIGN' ));
ENDSEC;

DATA;
#1 = CARTESIAN_POINT ( 'NONE',  ( -28.50000000000000000, 2.500000000000000000, -60.00000000000000000 ) ) ;
#2 = CARTESIAN_POINT ( 'NONE',  ( -20.00000000000000000, 2.500000000000000000, -60.00000000000000000 ) ) ;
#3 = CARTESIAN_POINT ( 'NONE',  ( 25.50000000000000000, 0.000000000000000000, 47.00000000000000000 ) ) ;
#4 = LOCAL_TIME ( 21, 54, 10.00000000000000000, #238 ) ;
#5 = ORIENTED_EDGE ( 'NONE', *, *, #103, .T. ) ;
#6 = DATE_AND_TIME ( #9, #267 ) ;
#7 = DIRECTION ( 'NONE',  ( 0.000000000000000000, 0.000000000000000000, -1.000000000000000000 ) ) ;
#8 = DIRECTION ( 'NONE',  ( -1.000000000000000000, 0.000000000000000000, -0.000000000000000000 ) ) ;
#9 = CALENDAR_DATE ( 2026, 26, 7 ) ;
#10 = CARTESIAN_POINT ( 'NONE',  ( 25.50000000000000000, 2.500000000000000000, 60.00000000000000000 ) ) ;
#11 = LOCAL_TIME ( 21, 54, 10.00000000000000000, #269 ) ;
#12 =( LENGTH_UNIT ( ) NAMED_UNIT ( * ) SI_UNIT ( .MILLI., .METRE. ) );
#13 = ORIENTED_EDGE ( 'NONE', *, *, #287, .F. ) ;
#14 = VECTOR ( 'NONE', #338, 1000.000000000000000 ) ;
#15 = CC_DESIGN_APPROVAL ( #186, ( #359 ) ) ;
#16 = VERTEX_POINT ( 'NONE', #223 ) ;
#17 = VECTOR ( 'NONE', #221, 1000.000000000000000 ) ;
#18 = VECTOR ( 'NONE', #254, 1000.000000000000000 ) ;
#19 = AXIS2_PLACEMENT_3D ( 'NONE', #344, #179, #146 ) ;
#20 = VERTEX_POINT ( 'NONE', #59 ) ;
#21 = LINE ( 'NONE', #157, #147 ) ;
#22 = ORIENTED_EDGE ( 'NONE', *, *, #389, .T. ) ;
#23 = FACE_OUTER_BOUND ( 'NONE', #393, .T. ) ;
#24 = EDGE_CURVE ( 'NONE', #220, #116, #32, .T. ) ;
#25 = DIRECTION ( 'NONE',  ( 0.000000000000000000, 0.000000000000000000, -1.000000000000000000 ) ) ;
#26 = CC_DESIGN_PERSON_AND_ORGANIZATION_ASSIGNMENT ( #258, #432, ( #359 ) ) ;
#27 = ORIENTED_EDGE ( 'NONE', *, *, #323, .T. ) ;
#28 = VECTOR ( 'NONE', #144, 1000.000000000000000 ) ;
#29 = APPROVAL_PERSON_ORGANIZATION ( #225, #419, #132 ) ;
#30 = CARTESIAN_POINT ( 'NONE',  ( -28.50000000000000000, 2.500000000000000000, 47.00000000000000000 ) ) ;
#31 = VERTEX_POINT ( 'NONE', #263 ) ;
#32 = LINE ( 'NONE', #170, #17 ) ;
#33 = DIRECTION ( 'NONE',  ( -1.000000000000000000, -0.000000000000000000, -0.000000000000000000 ) ) ;
#34 = DIRECTION ( 'NONE',  ( -0.000000000000000000, -1.000000000000000000, -0.000000000000000000 ) ) ;
#35 = ORIENTED_EDGE ( 'NONE', *, *, #427, .F. ) ;
#36 = PLANE ( 'NONE',  #119 ) ;
#37 = CARTESIAN_POINT ( 'NONE',  ( 28.50000000000000000, 2.500000000000000000, 47.00000000000000000 ) ) ;
#38 = CARTESIAN_POINT ( 'NONE',  ( 0.000000000000000000, 2.500000000000000000, 0.000000000000000000 ) ) ;
#39 = PLANE ( 'NONE',  #206 ) ;
#40 = VECTOR ( 'NONE', #188, 1000.000000000000000 ) ;
#41 = CARTESIAN_POINT ( 'NONE',  ( -28.50000000000000000, 2.500000000000000000, 47.00000000000000000 ) ) ;
#42 = DIRECTION ( 'NONE',  ( 1.000000000000000000, 0.000000000000000000, -0.000000000000000000 ) ) ;
#43 = LINE ( 'NONE', #184, #288 ) ;
#44 = PERSON_AND_ORGANIZATION ( #356, #358 ) ;
#45 = ADVANCED_FACE ( 'NONE', ( #23 ), #257, .F. ) ;
#46 = LINE ( 'NONE', #350, #107 ) ;
#47 = EDGE_CURVE ( 'NONE', #220, #31, #216, .T. ) ;
#48 = AXIS2_PLACEMENT_3D ( 'NONE', #334, #270, #409 ) ;
#49 = VECTOR ( 'NONE', #279, 1000.000000000000000 ) ;
#50 =( GEOMETRIC_REPRESENTATION_CONTEXT ( 3 ) GLOBAL_UNCERTAINTY_ASSIGNED_CONTEXT ( ( #207 ) ) GLOBAL_UNIT_ASSIGNED_CONTEXT ( ( #12, #244, #284 ) ) REPRESENTATION_CONTEXT ( 'NONE', 'WORKASPACE' ) );
#51 = CARTESIAN_POINT ( 'NONE',  ( -28.50000000000000000, 2.500000000000000000, -60.00000000000000000 ) ) ;
#52 = ORIENTED_EDGE ( 'NONE', *, *, #396, .F. ) ;
#53 = EDGE_CURVE ( 'NONE', #16, #138, #90, .T. ) ;
#54 = ORIENTED_EDGE ( 'NONE', *, *, #183, .F. ) ;
#55 = ORIENTED_EDGE ( 'NONE', *, *, #280, .T. ) ;
#56 = CARTESIAN_POINT ( 'NONE',  ( 28.50000000000000000, 0.000000000000000000, 44.00000000000000000 ) ) ;
#57 = VECTOR ( 'NONE', #133, 1000.000000000000000 ) ;
#58 = EDGE_LOOP ( 'NONE', ( #324, #428, #190, #291 ) ) ;
#59 = CARTESIAN_POINT ( 'NONE',  ( -25.50000000000000000, 2.500000000000000000, -57.00000000000000000 ) ) ;
#60 = PLANE ( 'NONE',  #319 ) ;
#61 = FACE_OUTER_BOUND ( 'NONE', #84, .T. ) ;
#62 = ORIENTED_EDGE ( 'NONE', *, *, #195, .F. ) ;
#63 = PRODUCT_DEFINITION_SHAPE ( 'NONE', 'NONE',  #359 ) ;
#64 = CARTESIAN_POINT ( 'NONE',  ( 25.50000000000000000, 2.500000000000000000, 47.00000000000000000 ) ) ;
#65 = LINE ( 'NONE', #271, #229 ) ;
#66 = EDGE_LOOP ( 'NONE', ( #35, #233, #89, #392 ) ) ;
#67 = DATE_AND_TIME ( #71, #11 ) ;
#68 = PLANE ( 'NONE',  #387 ) ;
#69 = LINE ( 'NONE', #10, #120 ) ;
#70 = APPLICATION_CONTEXT ( 'configuration controlled 3d designs of mechanical parts and assemblies' ) ;
#71 = CALENDAR_DATE ( 2026, 26, 7 ) ;
#72 = LINE ( 'NONE', #2, #163 ) ;
#73 = CARTESIAN_POINT ( 'NONE',  ( 25.50000000000000000, 0.000000000000000000, 60.00000000000000000 ) ) ;
#74 = EDGE_CURVE ( 'NONE', #218, #98, #219, .T. ) ;
#75 = EDGE_CURVE ( 'NONE', #82, #268, #327, .T. ) ;
#76 = CARTESIAN_POINT ( 'NONE',  ( -28.50000000000000000, 2.500000000000000000, -57.00000000000000000 ) ) ;
#77 = EDGE_CURVE ( 'NONE', #230, #82, #21, .T. ) ;
#78 = APPLICATION_PROTOCOL_DEFINITION ( 'international standard', 'config_control_design', 1994, #70 ) ;
#79 = ADVANCED_FACE ( 'NONE', ( #296 ), #362, .F. ) ;
#80 = EDGE_LOOP ( 'NONE', ( #379, #352, #131, #54 ) ) ;
#81 = VECTOR ( 'NONE', #33, 1000.000000000000000 ) ;
#82 = VERTEX_POINT ( 'NONE', #342 ) ;
#83 = ADVANCED_BREP_SHAPE_REPRESENTATION ( 'FN-HAR-016_W8-xls1-rf_R0.5', ( #110, #153 ), #50 ) ;
#84 = EDGE_LOOP ( 'NONE', ( #332, #249, #52, #326 ) ) ;
#85 = CARTESIAN_POINT ( 'NONE',  ( -28.50000000000000000, 0.000000000000000000, -57.00000000000000000 ) ) ;
#86 = ORIENTED_EDGE ( 'NONE', *, *, #77, .F. ) ;
#87 = ORIENTED_EDGE ( 'NONE', *, *, #370, .F. ) ;
#88 = DIRECTION ( 'NONE',  ( -0.000000000000000000, -1.000000000000000000, -0.000000000000000000 ) ) ;
#89 = ORIENTED_EDGE ( 'NONE', *, *, #357, .T. ) ;
#90 = LINE ( 'NONE', #160, #330 ) ;
#91 = APPROVAL_DATE_TIME ( #6, #419 ) ;
#92 = SECURITY_CLASSIFICATION ( '', '', #341 ) ;
#93 = LINE ( 'NONE', #325, #14 ) ;
#94 = LINE ( 'NONE', #308, #109 ) ;
#95 = EDGE_LOOP ( 'NONE', ( #304, #165, #294, #121 ) ) ;
#96 = CARTESIAN_POINT ( 'NONE',  ( -25.50000000000000000, 2.500000000000000000, 47.00000000000000000 ) ) ;
#97 = FACE_OUTER_BOUND ( 'NONE', #403, .T. ) ;
#98 = VERTEX_POINT ( 'NONE', #56 ) ;
#99 = COORDINATED_UNIVERSAL_TIME_OFFSET ( 8, 0, .AHEAD. ) ;
#100 = DIRECTION ( 'NONE',  ( -1.000000000000000000, 0.000000000000000000, 0.000000000000000000 ) ) ;
#101 = EDGE_CURVE ( 'NONE', #340, #336, #365, .T. ) ;
#102 = DIRECTION ( 'NONE',  ( 0.000000000000000000, -1.000000000000000000, 0.000000000000000000 ) ) ;
#103 = EDGE_CURVE ( 'NONE', #268, #336, #405, .T. ) ;
#104 = DIRECTION ( 'NONE',  ( 1.000000000000000000, 0.000000000000000000, 0.000000000000000000 ) ) ;
#105 = APPROVAL_STATUS ( 'not_yet_approved' ) ;
#106 = CARTESIAN_POINT ( 'NONE',  ( -20.00000000000000000, 0.000000000000000000, -57.00000000000000000 ) ) ;
#107 = VECTOR ( 'NONE', #34, 1000.000000000000000 ) ;
#108 = DIRECTION ( 'NONE',  ( 0.000000000000000000, 0.000000000000000000, 1.000000000000000000 ) ) ;
#109 = VECTOR ( 'NONE', #210, 1000.000000000000000 ) ;
#110 = MANIFOLD_SOLID_BREP ( '凸台-拉伸4', #282 ) ;
#111 = EDGE_CURVE ( 'NONE', #31, #20, #433, .T. ) ;
#112 = EDGE_CURVE ( 'NONE', #31, #425, #302, .T. ) ;
#113 = CC_DESIGN_DATE_AND_TIME_ASSIGNMENT ( #67, #311, ( #92 ) ) ;
#114 = VECTOR ( 'NONE', #303, 1000.000000000000000 ) ;
#115 = APPROVAL_PERSON_ORGANIZATION ( #369, #248, #314 ) ;
#116 = VERTEX_POINT ( 'NONE', #259 ) ;
#117 = EDGE_CURVE ( 'NONE', #162, #252, #93, .T. ) ;
#118 = ORIENTED_EDGE ( 'NONE', *, *, #75, .F. ) ;
#119 = AXIS2_PLACEMENT_3D ( 'NONE', #222, #329, #123 ) ;
#120 = VECTOR ( 'NONE', #385, 1000.000000000000000 ) ;
#121 = ORIENTED_EDGE ( 'NONE', *, *, #183, .T. ) ;
#122 = DIRECTION ( 'NONE',  ( 0.000000000000000000, 0.000000000000000000, 1.000000000000000000 ) ) ;
#123 = DIRECTION ( 'NONE',  ( 0.000000000000000000, 0.000000000000000000, 1.000000000000000000 ) ) ;
#124 = ADVANCED_FACE ( 'NONE', ( #412 ), #36, .F. ) ;
#125 = ORIENTED_EDGE ( 'NONE', *, *, #101, .T. ) ;
#126 = DIRECTION ( 'NONE',  ( 1.000000000000000000, 0.000000000000000000, -0.000000000000000000 ) ) ;
#127 = COORDINATED_UNIVERSAL_TIME_OFFSET ( 8, 0, .AHEAD. ) ;
#128 = CARTESIAN_POINT ( 'NONE',  ( 28.50000000000000000, 2.500000000000000000, 44.00000000000000000 ) ) ;
#129 = FACE_OUTER_BOUND ( 'NONE', #95, .T. ) ;
#130 = ADVANCED_FACE ( 'NONE', ( #231 ), #60, .F. ) ;
#131 = ORIENTED_EDGE ( 'NONE', *, *, #287, .T. ) ;
#132 = APPROVAL_ROLE ( '' ) ;
#133 = DIRECTION ( 'NONE',  ( 1.000000000000000000, 0.000000000000000000, 0.000000000000000000 ) ) ;
#134 = VECTOR ( 'NONE', #166, 1000.000000000000000 ) ;
#135 = DATE_AND_TIME ( #345, #4 ) ;
#136 = CARTESIAN_POINT ( 'NONE',  ( 25.50000000000000000, 2.500000000000000000, 60.00000000000000000 ) ) ;
#137 = DIRECTION ( 'NONE',  ( -0.000000000000000000, -1.000000000000000000, -0.000000000000000000 ) ) ;
#138 = VERTEX_POINT ( 'NONE', #3 ) ;
#139 = CC_DESIGN_PERSON_AND_ORGANIZATION_ASSIGNMENT ( #384, #234, ( #417 ) ) ;
#140 = DIRECTION ( 'NONE',  ( 0.000000000000000000, -0.000000000000000000, -1.000000000000000000 ) ) ;
#141 = LINE ( 'NONE', #373, #114 ) ;
#142 = PLANE ( 'NONE',  #360 ) ;
#143 = CARTESIAN_POINT ( 'NONE',  ( 0.000000000000000000, 0.000000000000000000, 0.000000000000000000 ) ) ;
#144 = DIRECTION ( 'NONE',  ( -0.000000000000000000, -1.000000000000000000, -0.000000000000000000 ) ) ;
#145 = DIRECTION ( 'NONE',  ( 1.000000000000000000, -0.000000000000000000, 0.000000000000000000 ) ) ;
#146 = DIRECTION ( 'NONE',  ( 0.000000000000000000, -0.000000000000000000, -1.000000000000000000 ) ) ;
#147 = VECTOR ( 'NONE', #290, 1000.000000000000000 ) ;
#148 = CC_DESIGN_APPROVAL ( #248, ( #417 ) ) ;
#149 = PERSON_AND_ORGANIZATION ( #356, #358 ) ;
#150 = ADVANCED_FACE ( 'NONE', ( #401 ), #167, .F. ) ;
#151 = ORIENTED_EDGE ( 'NONE', *, *, #390, .F. ) ;
#152 = AXIS2_PLACEMENT_3D ( 'NONE', #226, #7, #161 ) ;
#153 = AXIS2_PLACEMENT_3D ( 'NONE', #143, #108, #104 ) ;
#154 = EDGE_CURVE ( 'NONE', #237, #98, #298, .T. ) ;
#155 = DIRECTION ( 'NONE',  ( -0.000000000000000000, -0.000000000000000000, 1.000000000000000000 ) ) ;
#156 = ORIENTED_EDGE ( 'NONE', *, *, #24, .F. ) ;
#157 = CARTESIAN_POINT ( 'NONE',  ( -20.00000000000000000, 2.500000000000000000, -57.00000000000000000 ) ) ;
#158 = ORIENTED_EDGE ( 'NONE', *, *, #251, .T. ) ;
#159 = EDGE_LOOP ( 'NONE', ( #211, #193, #176, #256, #368, #22, #300, #202, #27, #361 ) ) ;
#160 = CARTESIAN_POINT ( 'NONE',  ( -28.50000000000000000, 0.000000000000000000, 47.00000000000000000 ) ) ;
#161 = DIRECTION ( 'NONE',  ( -1.000000000000000000, 0.000000000000000000, -0.000000000000000000 ) ) ;
#162 = VERTEX_POINT ( 'NONE', #64 ) ;
#163 = VECTOR ( 'NONE', #88, 1000.000000000000000 ) ;
#164 = LOCAL_TIME ( 21, 54, 10.00000000000000000, #127 ) ;
#165 = ORIENTED_EDGE ( 'NONE', *, *, #276, .F. ) ;
#166 = DIRECTION ( 'NONE',  ( -1.000000000000000000, -0.000000000000000000, -0.000000000000000000 ) ) ;
#167 = PLANE ( 'NONE',  #152 ) ;
#168 = PRODUCT_RELATED_PRODUCT_CATEGORY ( 'detail', '', ( #201 ) ) ;
#169 = EDGE_LOOP ( 'NONE', ( #408, #411, #5, #55 ) ) ;
#170 = CARTESIAN_POINT ( 'NONE',  ( -25.50000000000000000, 2.500000000000000000, 44.00000000000000000 ) ) ;
#171 = APPROVAL_STATUS ( 'not_yet_approved' ) ;
#172 = LINE ( 'NONE', #366, #177 ) ;
#173 = ORIENTED_EDGE ( 'NONE', *, *, #280, .F. ) ;
#174 = CARTESIAN_POINT ( 'NONE',  ( -28.50000000000000000, 0.000000000000000000, -60.00000000000000000 ) ) ;
#175 = VECTOR ( 'NONE', #416, 1000.000000000000000 ) ;
#176 = ORIENTED_EDGE ( 'NONE', *, *, #328, .T. ) ;
#177 = VECTOR ( 'NONE', #155, 1000.000000000000000 ) ;
#178 = CARTESIAN_POINT ( 'NONE',  ( -28.50000000000000000, 2.500000000000000000, -60.00000000000000000 ) ) ;
#179 = DIRECTION ( 'NONE',  ( 0.000000000000000000, -1.000000000000000000, 0.000000000000000000 ) ) ;
#180 = LINE ( 'NONE', #73, #175 ) ;
#181 = MECHANICAL_CONTEXT ( 'NONE', #299, 'mechanical' ) ;
#182 = CARTESIAN_POINT ( 'NONE',  ( -28.50000000000000000, 0.000000000000000000, 44.00000000000000000 ) ) ;
#183 = EDGE_CURVE ( 'NONE', #252, #273, #293, .T. ) ;
#184 = CARTESIAN_POINT ( 'NONE',  ( 25.50000000000000000, 2.500000000000000000, 47.00000000000000000 ) ) ;
#185 = CC_DESIGN_PERSON_AND_ORGANIZATION_ASSIGNMENT ( #337, #415, ( #417 ) ) ;
#186 = APPROVAL ( #214, '未指定' ) ;
#187 = VECTOR ( 'NONE', #376, 1000.000000000000000 ) ;
#188 = DIRECTION ( 'NONE',  ( 0.000000000000000000, 0.000000000000000000, -1.000000000000000000 ) ) ;
#189 = ADVANCED_FACE ( 'NONE', ( #199 ), #395, .F. ) ;
#190 = ORIENTED_EDGE ( 'NONE', *, *, #346, .F. ) ;
#191 = CARTESIAN_POINT ( 'NONE',  ( 28.50000000000000000, 0.000000000000000000, 47.00000000000000000 ) ) ;
#192 = CARTESIAN_POINT ( 'NONE',  ( -28.50000000000000000, 0.000000000000000000, -60.00000000000000000 ) ) ;
#193 = ORIENTED_EDGE ( 'NONE', *, *, #195, .T. ) ;
#194 = ORIENTED_EDGE ( 'NONE', *, *, #112, .F. ) ;
#195 = EDGE_CURVE ( 'NONE', #116, #20, #264, .T. ) ;
#196 = DIRECTION ( 'NONE',  ( 0.000000000000000000, 1.000000000000000000, 0.000000000000000000 ) ) ;
#197 = CC_DESIGN_DATE_AND_TIME_ASSIGNMENT ( #349, #306, ( #359 ) ) ;
#198 = ORIENTED_EDGE ( 'NONE', *, *, #154, .T. ) ;
#199 = FACE_OUTER_BOUND ( 'NONE', #80, .T. ) ;
#200 = CARTESIAN_POINT ( 'NONE',  ( -20.00000000000000000, 0.000000000000000000, -60.00000000000000000 ) ) ;
#201 = PRODUCT ( 'FN-HAR-016_W8-xls1-rf_R0.5', 'FN-HAR-016_W8-xls1-rf_R0.5', '', ( #181 ) ) ;
#202 = ORIENTED_EDGE ( 'NONE', *, *, #117, .T. ) ;
#203 = FACE_OUTER_BOUND ( 'NONE', #224, .T. ) ;
#204 = ORIENTED_EDGE ( 'NONE', *, *, #74, .F. ) ;
#205 = SHAPE_DEFINITION_REPRESENTATION ( #63, #83 ) ;
#206 = AXIS2_PLACEMENT_3D ( 'NONE', #227, #260, #8 ) ;
#207 = UNCERTAINTY_MEASURE_WITH_UNIT (LENGTH_MEASURE( 1.000000000000000082E-05 ), #12, 'distance_accuracy_value', 'NONE');
#208 = CARTESIAN_POINT ( 'NONE',  ( 28.50000000000000000, 0.000000000000000000, 60.00000000000000000 ) ) ;
#209 = CARTESIAN_POINT ( 'NONE',  ( 28.50000000000000000, 2.500000000000000000, 60.00000000000000000 ) ) ;
#210 = DIRECTION ( 'NONE',  ( 1.000000000000000000, 0.000000000000000000, 0.000000000000000000 ) ) ;
#211 = ORIENTED_EDGE ( 'NONE', *, *, #370, .T. ) ;
#212 = AXIS2_PLACEMENT_3D ( 'NONE', #292, #426, #122 ) ;
#213 = VECTOR ( 'NONE', #318, 1000.000000000000000 ) ;
#214 = APPROVAL_STATUS ( 'not_yet_approved' ) ;
#215 = ADVANCED_FACE ( 'NONE', ( #380 ), #68, .F. ) ;
#216 = LINE ( 'NONE', #404, #285 ) ;
#217 = VECTOR ( 'NONE', #137, 1000.000000000000000 ) ;
#218 = VERTEX_POINT ( 'NONE', #208 ) ;
#219 = LINE ( 'NONE', #191, #246 ) ;
#220 = VERTEX_POINT ( 'NONE', #239 ) ;
#221 = DIRECTION ( 'NONE',  ( 0.000000000000000000, 1.000000000000000000, -0.000000000000000000 ) ) ;
#222 = CARTESIAN_POINT ( 'NONE',  ( -25.50000000000000000, 2.500000000000000000, 47.00000000000000000 ) ) ;
#223 = CARTESIAN_POINT ( 'NONE',  ( -28.50000000000000000, 0.000000000000000000, 47.00000000000000000 ) ) ;
#224 = EDGE_LOOP ( 'NONE', ( #255, #430, #87, #198 ) ) ;
#225 = PERSON_AND_ORGANIZATION ( #356, #358 ) ;
#226 = CARTESIAN_POINT ( 'NONE',  ( -28.50000000000000000, 2.500000000000000000, -57.00000000000000000 ) ) ;
#227 = CARTESIAN_POINT ( 'NONE',  ( 25.50000000000000000, 2.500000000000000000, 60.00000000000000000 ) ) ;
#228 = VECTOR ( 'NONE', #196, 1000.000000000000000 ) ;
#229 = VECTOR ( 'NONE', #402, 1000.000000000000000 ) ;
#230 = VERTEX_POINT ( 'NONE', #381 ) ;
#231 = FACE_OUTER_BOUND ( 'NONE', #66, .T. ) ;
#232 = LINE ( 'NONE', #182, #213 ) ;
#233 = ORIENTED_EDGE ( 'NONE', *, *, #261, .F. ) ;
#234 = PERSON_AND_ORGANIZATION_ROLE ( 'creator' ) ;
#235 = DIRECTION ( 'NONE',  ( 0.000000000000000000, 0.000000000000000000, -1.000000000000000000 ) ) ;
#236 = LINE ( 'NONE', #339, #49 ) ;
#237 = VERTEX_POINT ( 'NONE', #347 ) ;
#238 = COORDINATED_UNIVERSAL_TIME_OFFSET ( 8, 0, .AHEAD. ) ;
#239 = CARTESIAN_POINT ( 'NONE',  ( -25.50000000000000000, 0.000000000000000000, 44.00000000000000000 ) ) ;
#240 = VECTOR ( 'NONE', #371, 1000.000000000000000 ) ;
#241 = VECTOR ( 'NONE', #391, 1000.000000000000000 ) ;
#242 = CARTESIAN_POINT ( 'NONE',  ( -20.00000000000000000, 0.000000000000000000, -57.00000000000000000 ) ) ;
#243 = CC_DESIGN_PERSON_AND_ORGANIZATION_ASSIGNMENT ( #149, #388, ( #201 ) ) ;
#244 =( NAMED_UNIT ( * ) PLANE_ANGLE_UNIT ( ) SI_UNIT ( $, .RADIAN. ) );
#245 = VERTEX_POINT ( 'NONE', #41 ) ;
#246 = VECTOR ( 'NONE', #375, 1000.000000000000000 ) ;
#247 = ORIENTED_EDGE ( 'NONE', *, *, #111, .T. ) ;
#248 = APPROVAL ( #171, '未指定' ) ;
#249 = ORIENTED_EDGE ( 'NONE', *, *, #154, .F. ) ;
#250 = CC_DESIGN_APPROVAL ( #419, ( #92 ) ) ;
#251 = EDGE_CURVE ( 'NONE', #82, #340, #72, .T. ) ;
#252 = VERTEX_POINT ( 'NONE', #335 ) ;
#253 = DIRECTION ( 'NONE',  ( 1.000000000000000000, 0.000000000000000000, 0.000000000000000000 ) ) ;
#254 = DIRECTION ( 'NONE',  ( -0.000000000000000000, -1.000000000000000000, -0.000000000000000000 ) ) ;
#255 = ORIENTED_EDGE ( 'NONE', *, *, #351, .T. ) ;
#256 = ORIENTED_EDGE ( 'NONE', *, *, #77, .T. ) ;
#257 = PLANE ( 'NONE',  #309 ) ;
#258 = PERSON_AND_ORGANIZATION ( #356, #358 ) ;
#259 = CARTESIAN_POINT ( 'NONE',  ( -25.50000000000000000, 2.500000000000000000, 44.00000000000000000 ) ) ;
#260 = DIRECTION ( 'NONE',  ( 0.000000000000000000, 0.000000000000000000, -1.000000000000000000 ) ) ;
#261 = EDGE_CURVE ( 'NONE', #245, #162, #141, .T. ) ;
#262 = ORIENTED_EDGE ( 'NONE', *, *, #322, .T. ) ;
#263 = CARTESIAN_POINT ( 'NONE',  ( -25.50000000000000000, 0.000000000000000000, -57.00000000000000711 ) ) ;
#264 = LINE ( 'NONE', #96, #266 ) ;
#265 = LINE ( 'NONE', #209, #28 ) ;
#266 = VECTOR ( 'NONE', #235, 1000.000000000000000 ) ;
#267 = LOCAL_TIME ( 21, 54, 10.00000000000000000, #297 ) ;
#268 = VERTEX_POINT ( 'NONE', #178 ) ;
#269 = COORDINATED_UNIVERSAL_TIME_OFFSET ( 8, 0, .AHEAD. ) ;
#270 = DIRECTION ( 'NONE',  ( 1.000000000000000000, -0.000000000000000000, 0.000000000000000000 ) ) ;
#271 = CARTESIAN_POINT ( 'NONE',  ( -28.50000000000000000, 2.500000000000000000, 44.00000000000000000 ) ) ;
#272 = CARTESIAN_POINT ( 'NONE',  ( 28.50000000000000000, 2.500000000000000000, 47.00000000000000000 ) ) ;
#273 = VERTEX_POINT ( 'NONE', #413 ) ;
#274 = APPROVAL_DATE_TIME ( #135, #248 ) ;
#275 = DIRECTION ( 'NONE',  ( 0.000000000000000000, 0.000000000000000000, -1.000000000000000000 ) ) ;
#276 = EDGE_CURVE ( 'NONE', #394, #218, #265, .T. ) ;
#277 = FACE_OUTER_BOUND ( 'NONE', #169, .T. ) ;
#278 = APPROVAL_DATE_TIME ( #435, #186 ) ;
#279 = DIRECTION ( 'NONE',  ( -0.000000000000000000, -0.000000000000000000, 1.000000000000000000 ) ) ;
#280 = EDGE_CURVE ( 'NONE', #336, #16, #236, .T. ) ;
#281 = DIRECTION ( 'NONE',  ( 0.000000000000000000, 0.000000000000000000, -1.000000000000000000 ) ) ;
#282 = CLOSED_SHELL ( 'NONE', ( #130, #124, #150, #420, #79, #45, #215, #429, #321, #283, #189, #355 ) ) ;
#283 = ADVANCED_FACE ( 'NONE', ( #61 ), #343, .F. ) ;
#284 =( NAMED_UNIT ( * ) SI_UNIT ( $, .STERADIAN. ) SOLID_ANGLE_UNIT ( ) );
#285 = VECTOR ( 'NONE', #399, 1000.000000000000000 ) ;
#286 = ORIENTED_EDGE ( 'NONE', *, *, #346, .T. ) ;
#287 = EDGE_CURVE ( 'NONE', #138, #273, #180, .T. ) ;
#288 = VECTOR ( 'NONE', #102, 1000.000000000000000 ) ;
#289 = LINE ( 'NONE', #422, #241 ) ;
#290 = DIRECTION ( 'NONE',  ( 0.000000000000000000, 0.000000000000000000, -1.000000000000000000 ) ) ;
#291 = ORIENTED_EDGE ( 'NONE', *, *, #328, .F. ) ;
#292 = CARTESIAN_POINT ( 'NONE',  ( -20.00000000000000000, 2.500000000000000000, -57.00000000000000000 ) ) ;
#293 = LINE ( 'NONE', #136, #18 ) ;
#294 = ORIENTED_EDGE ( 'NONE', *, *, #323, .F. ) ;
#295 = ORIENTED_EDGE ( 'NONE', *, *, #53, .F. ) ;
#296 = FACE_OUTER_BOUND ( 'NONE', #310, .T. ) ;
#297 = COORDINATED_UNIVERSAL_TIME_OFFSET ( 8, 0, .AHEAD. ) ;
#298 = LINE ( 'NONE', #128, #187 ) ;
#299 = APPLICATION_CONTEXT ( 'configuration controlled 3d designs of mechanical parts and assemblies' ) ;
#300 = ORIENTED_EDGE ( 'NONE', *, *, #261, .T. ) ;
#301 = PERSON_AND_ORGANIZATION_ROLE ( 'classification_officer' ) ;
#302 = LINE ( 'NONE', #85, #57 ) ;
#303 = DIRECTION ( 'NONE',  ( 1.000000000000000000, 0.000000000000000000, 0.000000000000000000 ) ) ;
#304 = ORIENTED_EDGE ( 'NONE', *, *, #390, .T. ) ;
#305 = CARTESIAN_POINT ( 'NONE',  ( -28.50000000000000000, 2.500000000000000000, -60.00000000000000000 ) ) ;
#306 = DATE_TIME_ROLE ( 'creation_date' ) ;
#307 = DIRECTION ( 'NONE',  ( -1.000000000000000000, 0.000000000000000000, -0.000000000000000000 ) ) ;
#308 = CARTESIAN_POINT ( 'NONE',  ( -28.50000000000000000, 2.500000000000000000, -57.00000000000000000 ) ) ;
#309 = AXIS2_PLACEMENT_3D ( 'NONE', #51, #431, #126 ) ;
#310 = EDGE_LOOP ( 'NONE', ( #262, #424, #86, #286 ) ) ;
#311 = DATE_TIME_ROLE ( 'classification_date' ) ;
#312 = DIRECTION ( 'NONE',  ( 0.000000000000000000, -1.000000000000000000, 0.000000000000000000 ) ) ;
#313 = CARTESIAN_POINT ( 'NONE',  ( -28.50000000000000000, 2.500000000000000000, 47.00000000000000000 ) ) ;
#314 = APPROVAL_ROLE ( '' ) ;
#315 = DESIGN_CONTEXT ( 'detailed design', #70, 'design' ) ;
#316 = CC_DESIGN_PERSON_AND_ORGANIZATION_ASSIGNMENT ( #44, #301, ( #92 ) ) ;
#317 = CARTESIAN_POINT ( 'NONE',  ( -28.50000000000000000, 2.500000000000000000, 44.00000000000000000 ) ) ;
#318 = DIRECTION ( 'NONE',  ( -1.000000000000000000, -0.000000000000000000, -0.000000000000000000 ) ) ;
#319 = AXIS2_PLACEMENT_3D ( 'NONE', #30, #25, #307 ) ;
#320 = APPLICATION_PROTOCOL_DEFINITION ( 'international standard', 'config_control_design', 1994, #299 ) ;
#321 = ADVANCED_FACE ( 'NONE', ( #203 ), #348, .F. ) ;
#322 = EDGE_CURVE ( 'NONE', #425, #340, #377, .T. ) ;
#323 = EDGE_CURVE ( 'NONE', #252, #394, #69, .T. ) ;
#324 = ORIENTED_EDGE ( 'NONE', *, *, #111, .F. ) ;
#325 = CARTESIAN_POINT ( 'NONE',  ( 25.50000000000000000, 2.500000000000000000, 60.00000000000000000 ) ) ;
#326 = ORIENTED_EDGE ( 'NONE', *, *, #276, .T. ) ;
#327 = LINE ( 'NONE', #305, #134 ) ;
#328 = EDGE_CURVE ( 'NONE', #20, #230, #94, .T. ) ;
#329 = DIRECTION ( 'NONE',  ( -1.000000000000000000, 0.000000000000000000, 0.000000000000000000 ) ) ;
#330 = VECTOR ( 'NONE', #253, 1000.000000000000000 ) ;
#331 = APPROVAL_PERSON_ORGANIZATION ( #386, #186, #354 ) ;
#332 = ORIENTED_EDGE ( 'NONE', *, *, #74, .T. ) ;
#333 = CALENDAR_DATE ( 2026, 26, 7 ) ;
#334 = CARTESIAN_POINT ( 'NONE',  ( 25.50000000000000000, 2.500000000000000000, 60.00000000000000000 ) ) ;
#335 = CARTESIAN_POINT ( 'NONE',  ( 25.50000000000000000, 2.500000000000000000, 60.00000000000000000 ) ) ;
#336 = VERTEX_POINT ( 'NONE', #174 ) ;
#337 = PERSON_AND_ORGANIZATION ( #356, #358 ) ;
#338 = DIRECTION ( 'NONE',  ( -0.000000000000000000, -0.000000000000000000, 1.000000000000000000 ) ) ;
#339 = CARTESIAN_POINT ( 'NONE',  ( -28.50000000000000000, 0.000000000000000000, -57.00000000000000000 ) ) ;
#340 = VERTEX_POINT ( 'NONE', #200 ) ;
#341 = SECURITY_CLASSIFICATION_LEVEL ( 'unclassified' ) ;
#342 = CARTESIAN_POINT ( 'NONE',  ( -20.00000000000000000, 2.500000000000000000, -60.00000000000000000 ) ) ;
#343 = PLANE ( 'NONE',  #372 ) ;
#344 = CARTESIAN_POINT ( 'NONE',  ( 0.000000000000000000, 0.000000000000000000, 0.000000000000000000 ) ) ;
#345 = CALENDAR_DATE ( 2026, 26, 7 ) ;
#346 = EDGE_CURVE ( 'NONE', #230, #425, #46, .T. ) ;
#347 = CARTESIAN_POINT ( 'NONE',  ( 28.50000000000000000, 2.500000000000000000, 44.00000000000000000 ) ) ;
#348 = PLANE ( 'NONE',  #418 ) ;
#349 = DATE_AND_TIME ( #400, #383 ) ;
#350 = CARTESIAN_POINT ( 'NONE',  ( -20.00000000000000000, 2.500000000000000000, -57.00000000000000000 ) ) ;
#351 = EDGE_CURVE ( 'NONE', #98, #220, #232, .T. ) ;
#352 = ORIENTED_EDGE ( 'NONE', *, *, #427, .T. ) ;
#353 = CC_DESIGN_SECURITY_CLASSIFICATION ( #92, ( #417 ) ) ;
#354 = APPROVAL_ROLE ( '' ) ;
#355 = ADVANCED_FACE ( 'NONE', ( #129 ), #39, .F. ) ;
#356 = PERSON ( '未指定', '未指定', '未指定', ('未指定'), ('未指定'), ('未指定') ) ;
#357 = EDGE_CURVE ( 'NONE', #245, #16, #410, .T. ) ;
#358 = ORGANIZATION ( '未指定', '未指定', '' ) ;
#359 = PRODUCT_DEFINITION ( '未知', '', #417, #315 ) ;
#360 = AXIS2_PLACEMENT_3D ( 'NONE', #76, #145, #281 ) ;
#361 = ORIENTED_EDGE ( 'NONE', *, *, #396, .T. ) ;
#362 = PLANE ( 'NONE',  #212 ) ;
#363 = CARTESIAN_POINT ( 'NONE',  ( -25.50000000000000000, 2.500000000000000000, -57.00000000000000000 ) ) ;
#364 = ORIENTED_EDGE ( 'NONE', *, *, #101, .F. ) ;
#365 = LINE ( 'NONE', #192, #81 ) ;
#366 = CARTESIAN_POINT ( 'NONE',  ( -28.50000000000000000, 2.500000000000000000, -57.00000000000000000 ) ) ;
#367 = EDGE_LOOP ( 'NONE', ( #156, #423, #247, #62 ) ) ;
#368 = ORIENTED_EDGE ( 'NONE', *, *, #75, .T. ) ;
#369 = PERSON_AND_ORGANIZATION ( #356, #358 ) ;
#370 = EDGE_CURVE ( 'NONE', #237, #116, #65, .T. ) ;
#371 = DIRECTION ( 'NONE',  ( -0.000000000000000000, -1.000000000000000000, -0.000000000000000000 ) ) ;
#372 = AXIS2_PLACEMENT_3D ( 'NONE', #37, #100, #406 ) ;
#373 = CARTESIAN_POINT ( 'NONE',  ( -28.50000000000000000, 2.500000000000000000, 47.00000000000000000 ) ) ;
#374 = ORIENTED_EDGE ( 'NONE', *, *, #103, .F. ) ;
#375 = DIRECTION ( 'NONE',  ( 0.000000000000000000, 0.000000000000000000, -1.000000000000000000 ) ) ;
#376 = DIRECTION ( 'NONE',  ( -0.000000000000000000, -1.000000000000000000, -0.000000000000000000 ) ) ;
#377 = LINE ( 'NONE', #106, #407 ) ;
#378 = LINE ( 'NONE', #272, #40 ) ;
#379 = ORIENTED_EDGE ( 'NONE', *, *, #117, .F. ) ;
#380 = FACE_OUTER_BOUND ( 'NONE', #159, .T. ) ;
#381 = CARTESIAN_POINT ( 'NONE',  ( -20.00000000000000000, 2.500000000000000000, -57.00000000000000000 ) ) ;
#382 = DIRECTION ( 'NONE',  ( 0.000000000000000000, 0.000000000000000000, 1.000000000000000000 ) ) ;
#383 = LOCAL_TIME ( 21, 54, 10.00000000000000000, #99 ) ;
#384 = PERSON_AND_ORGANIZATION ( #356, #358 ) ;
#385 = DIRECTION ( 'NONE',  ( 1.000000000000000000, 0.000000000000000000, 0.000000000000000000 ) ) ;
#386 = PERSON_AND_ORGANIZATION ( #356, #358 ) ;
#387 = AXIS2_PLACEMENT_3D ( 'NONE', #38, #312, #140 ) ;
#388 = PERSON_AND_ORGANIZATION_ROLE ( 'design_owner' ) ;
#389 = EDGE_CURVE ( 'NONE', #268, #245, #172, .T. ) ;
#390 = EDGE_CURVE ( 'NONE', #273, #218, #289, .T. ) ;
#391 = DIRECTION ( 'NONE',  ( 1.000000000000000000, 0.000000000000000000, 0.000000000000000000 ) ) ;
#392 = ORIENTED_EDGE ( 'NONE', *, *, #53, .T. ) ;
#393 = EDGE_LOOP ( 'NONE', ( #374, #118, #158, #125 ) ) ;
#394 = VERTEX_POINT ( 'NONE', #397 ) ;
#395 = PLANE ( 'NONE',  #48 ) ;
#396 = EDGE_CURVE ( 'NONE', #394, #237, #378, .T. ) ;
#397 = CARTESIAN_POINT ( 'NONE',  ( 28.50000000000000000, 2.500000000000000000, 60.00000000000000000 ) ) ;
#398 = ORIENTED_EDGE ( 'NONE', *, *, #47, .F. ) ;
#399 = DIRECTION ( 'NONE',  ( 0.000000000000000000, 0.000000000000000000, -1.000000000000000000 ) ) ;
#400 = CALENDAR_DATE ( 2026, 26, 7 ) ;
#401 = FACE_OUTER_BOUND ( 'NONE', #58, .T. ) ;
#402 = DIRECTION ( 'NONE',  ( -1.000000000000000000, -0.000000000000000000, -0.000000000000000000 ) ) ;
#403 = EDGE_LOOP ( 'NONE', ( #13, #295, #173, #364, #421, #194, #398, #434, #204, #151 ) ) ;
#404 = CARTESIAN_POINT ( 'NONE',  ( -25.50000000000000000, 0.000000000000000000, 47.00000000000000000 ) ) ;
#405 = LINE ( 'NONE', #1, #240 ) ;
#406 = DIRECTION ( 'NONE',  ( 0.000000000000000000, 0.000000000000000000, 1.000000000000000000 ) ) ;
#407 = VECTOR ( 'NONE', #275, 1000.000000000000000 ) ;
#408 = ORIENTED_EDGE ( 'NONE', *, *, #357, .F. ) ;
#409 = DIRECTION ( 'NONE',  ( 0.000000000000000000, 0.000000000000000000, -1.000000000000000000 ) ) ;
#410 = LINE ( 'NONE', #313, #217 ) ;
#411 = ORIENTED_EDGE ( 'NONE', *, *, #389, .F. ) ;
#412 = FACE_OUTER_BOUND ( 'NONE', #367, .T. ) ;
#413 = CARTESIAN_POINT ( 'NONE',  ( 25.50000000000000000, 0.000000000000000000, 60.00000000000000000 ) ) ;
#414 = PLANE ( 'NONE',  #19 ) ;
#415 = PERSON_AND_ORGANIZATION_ROLE ( 'design_supplier' ) ;
#416 = DIRECTION ( 'NONE',  ( -0.000000000000000000, -0.000000000000000000, 1.000000000000000000 ) ) ;
#417 = PRODUCT_DEFINITION_FORMATION_WITH_SPECIFIED_SOURCE ( '任何', '', #201, .NOT_KNOWN. ) ;
#418 = AXIS2_PLACEMENT_3D ( 'NONE', #317, #382, #42 ) ;
#419 = APPROVAL ( #105, '未指定' ) ;
#420 = ADVANCED_FACE ( 'NONE', ( #277 ), #142, .F. ) ;
#421 = ORIENTED_EDGE ( 'NONE', *, *, #322, .F. ) ;
#422 = CARTESIAN_POINT ( 'NONE',  ( 25.50000000000000000, 0.000000000000000000, 60.00000000000000000 ) ) ;
#423 = ORIENTED_EDGE ( 'NONE', *, *, #47, .T. ) ;
#424 = ORIENTED_EDGE ( 'NONE', *, *, #251, .F. ) ;
#425 = VERTEX_POINT ( 'NONE', #242 ) ;
#426 = DIRECTION ( 'NONE',  ( -1.000000000000000000, 0.000000000000000000, 0.000000000000000000 ) ) ;
#427 = EDGE_CURVE ( 'NONE', #162, #138, #43, .T. ) ;
#428 = ORIENTED_EDGE ( 'NONE', *, *, #112, .T. ) ;
#429 = ADVANCED_FACE ( 'NONE', ( #97 ), #414, .T. ) ;
#430 = ORIENTED_EDGE ( 'NONE', *, *, #24, .T. ) ;
#431 = DIRECTION ( 'NONE',  ( 0.000000000000000000, 0.000000000000000000, 1.000000000000000000 ) ) ;
#432 = PERSON_AND_ORGANIZATION_ROLE ( 'creator' ) ;
#433 = LINE ( 'NONE', #363, #228 ) ;
#434 = ORIENTED_EDGE ( 'NONE', *, *, #351, .F. ) ;
#435 = DATE_AND_TIME ( #333, #164 ) ;
ENDSEC;
END-ISO-10303-21;
