ISO-10303-21;
HEADER;
FILE_DESCRIPTION (( 'STEP AP203' ),
    '1' );
FILE_NAME ('FN-HAR-012_W4-fuse-to-dc5521_R0.5.STEP',
    '2026-07-26T13:53:10',
    ( '' ),
    ( '' ),
    'SwSTEP 2.0',
    'SolidWorks 2022',
    '' );
FILE_SCHEMA (( 'CONFIG_CONTROL_DESIGN' ));
ENDSEC;

DATA;
#1 = LINE ( 'NONE', #172, #43 ) ;
#2 = CC_DESIGN_APPROVAL ( #327, ( #57 ) ) ;
#3 = EDGE_LOOP ( 'NONE', ( #313, #93, #28, #351 ) ) ;
#4 = ORIENTED_EDGE ( 'NONE', *, *, #322, .F. ) ;
#5 = VERTEX_POINT ( 'NONE', #42 ) ;
#6 = ORIENTED_EDGE ( 'NONE', *, *, #340, .T. ) ;
#7 = CC_DESIGN_APPROVAL ( #82, ( #132 ) ) ;
#8 = VERTEX_POINT ( 'NONE', #276 ) ;
#9 = CC_DESIGN_DATE_AND_TIME_ASSIGNMENT ( #44, #108, ( #132 ) ) ;
#10 = CARTESIAN_POINT ( 'NONE',  ( 0.000000000000000000, 2.500000000000000000, 0.000000000000000000 ) ) ;
#11 = DIRECTION ( 'NONE',  ( 0.000000000000000000, 0.000000000000000000, -1.000000000000000000 ) ) ;
#12 = CALENDAR_DATE ( 2026, 26, 7 ) ;
#13 = DIRECTION ( 'NONE',  ( 1.000000000000000000, 0.000000000000000000, -0.000000000000000000 ) ) ;
#14 = CARTESIAN_POINT ( 'NONE',  ( 14.50000000000000000, 2.500000000000000000, -7.750000000000000000 ) ) ;
#15 = VECTOR ( 'NONE', #191, 1000.000000000000000 ) ;
#16 = LINE ( 'NONE', #296, #342 ) ;
#17 = CARTESIAN_POINT ( 'NONE',  ( -1.000000000000000000, 2.500000000000000000, -12.25000000000000000 ) ) ;
#18 = LINE ( 'NONE', #284, #364 ) ;
#19 = VERTEX_POINT ( 'NONE', #40 ) ;
#20 = LINE ( 'NONE', #49, #21 ) ;
#21 = VECTOR ( 'NONE', #134, 1000.000000000000000 ) ;
#22 = PRODUCT_DEFINITION_FORMATION_WITH_SPECIFIED_SOURCE ( '任何', '', #158, .NOT_KNOWN. ) ;
#23 = DIRECTION ( 'NONE',  ( 1.000000000000000000, -0.000000000000000000, 0.000000000000000000 ) ) ;
#24 = CARTESIAN_POINT ( 'NONE',  ( -14.50000000000000000, 2.500000000000000000, 7.750000000000000000 ) ) ;
#25 = EDGE_CURVE ( 'NONE', #32, #355, #356, .T. ) ;
#26 = LINE ( 'NONE', #139, #315 ) ;
#27 =( LENGTH_UNIT ( ) NAMED_UNIT ( * ) SI_UNIT ( .MILLI., .METRE. ) );
#28 = ORIENTED_EDGE ( 'NONE', *, *, #103, .F. ) ;
#29 = ADVANCED_FACE ( 'NONE', ( #317 ), #133, .F. ) ;
#30 = VECTOR ( 'NONE', #137, 1000.000000000000000 ) ;
#31 = VERTEX_POINT ( 'NONE', #72 ) ;
#32 = VERTEX_POINT ( 'NONE', #17 ) ;
#33 = ADVANCED_FACE ( 'NONE', ( #329 ), #127, .F. ) ;
#34 = DATE_AND_TIME ( #346, #188 ) ;
#35 = VECTOR ( 'NONE', #244, 1000.000000000000000 ) ;
#36 = ORIENTED_EDGE ( 'NONE', *, *, #92, .T. ) ;
#37 = CC_DESIGN_PERSON_AND_ORGANIZATION_ASSIGNMENT ( #358, #273, ( #22 ) ) ;
#38 = PERSON_AND_ORGANIZATION_ROLE ( 'classification_officer' ) ;
#39 = CARTESIAN_POINT ( 'NONE',  ( -14.50000000000000000, 2.500000000000000000, 12.25000000000000000 ) ) ;
#40 = CARTESIAN_POINT ( 'NONE',  ( -1.000000000000000000, 0.000000000000000000, 7.750000000000000000 ) ) ;
#41 = APPROVAL_DATE_TIME ( #216, #327 ) ;
#42 = CARTESIAN_POINT ( 'NONE',  ( 14.50000000000000000, 0.000000000000000000, -7.750000000000000000 ) ) ;
#43 = VECTOR ( 'NONE', #170, 1000.000000000000000 ) ;
#44 = DATE_AND_TIME ( #190, #156 ) ;
#45 = DIRECTION ( 'NONE',  ( -0.000000000000000000, -0.000000000000000000, 1.000000000000000000 ) ) ;
#46 = DIRECTION ( 'NONE',  ( -1.000000000000000000, 0.000000000000000000, -0.000000000000000000 ) ) ;
#47 = APPROVAL_STATUS ( 'not_yet_approved' ) ;
#48 = ORIENTED_EDGE ( 'NONE', *, *, #69, .F. ) ;
#49 = CARTESIAN_POINT ( 'NONE',  ( 3.500000000000003109, 2.500000000000000000, 12.25000000000000000 ) ) ;
#50 = CC_DESIGN_DATE_AND_TIME_ASSIGNMENT ( #350, #185, ( #57 ) ) ;
#51 = VECTOR ( 'NONE', #54, 1000.000000000000000 ) ;
#52 = DIRECTION ( 'NONE',  ( -1.000000000000000000, -0.000000000000000000, -0.000000000000000000 ) ) ;
#53 = EDGE_CURVE ( 'NONE', #5, #171, #73, .T. ) ;
#54 = DIRECTION ( 'NONE',  ( -0.000000000000000000, -1.000000000000000000, 0.000000000000000000 ) ) ;
#55 = LINE ( 'NONE', #323, #200 ) ;
#56 = CLOSED_SHELL ( 'NONE', ( #207, #283, #267, #153, #140, #295, #33, #334, #29, #197 ) ) ;
#57 = SECURITY_CLASSIFICATION ( '', '', #361 ) ;
#58 = PLANE ( 'NONE',  #326 ) ;
#59 = CARTESIAN_POINT ( 'NONE',  ( 0.000000000000000000, 0.000000000000000000, -7.750000000000000000 ) ) ;
#60 = EDGE_LOOP ( 'NONE', ( #270, #349, #256, #291, #265, #91, #4, #98 ) ) ;
#61 = CARTESIAN_POINT ( 'NONE',  ( -14.50000000000000000, 0.000000000000000000, 12.25000000000000000 ) ) ;
#62 = ORIENTED_EDGE ( 'NONE', *, *, #299, .F. ) ;
#63 = PERSON_AND_ORGANIZATION ( #169, #174 ) ;
#64 = EDGE_LOOP ( 'NONE', ( #282, #48, #145, #362 ) ) ;
#65 = LINE ( 'NONE', #59, #247 ) ;
#66 = EDGE_CURVE ( 'NONE', #206, #171, #16, .T. ) ;
#67 = VERTEX_POINT ( 'NONE', #129 ) ;
#68 = PERSON_AND_ORGANIZATION_ROLE ( 'design_owner' ) ;
#69 = EDGE_CURVE ( 'NONE', #249, #211, #254, .T. ) ;
#70 = ORIENTED_EDGE ( 'NONE', *, *, #262, .T. ) ;
#71 = AXIS2_PLACEMENT_3D ( 'NONE', #304, #11, #152 ) ;
#72 = CARTESIAN_POINT ( 'NONE',  ( 14.50000000000000000, 2.500000000000000000, -7.750000000000000000 ) ) ;
#73 = LINE ( 'NONE', #181, #260 ) ;
#74 = LINE ( 'NONE', #324, #318 ) ;
#75 = APPROVAL_ROLE ( '' ) ;
#76 = ORIENTED_EDGE ( 'NONE', *, *, #128, .T. ) ;
#77 = PLANE ( 'NONE',  #154 ) ;
#78 = VECTOR ( 'NONE', #261, 1000.000000000000000 ) ;
#79 = DIRECTION ( 'NONE',  ( 1.000000000000000000, 0.000000000000000000, 0.000000000000000000 ) ) ;
#80 = DIRECTION ( 'NONE',  ( 1.000000000000000000, 0.000000000000000000, 0.000000000000000000 ) ) ;
#81 = COORDINATED_UNIVERSAL_TIME_OFFSET ( 8, 0, .AHEAD. ) ;
#82 = APPROVAL ( #202, '未指定' ) ;
#83 = DIRECTION ( 'NONE',  ( 0.000000000000000000, -1.000000000000000000, 0.000000000000000000 ) ) ;
#84 = AXIS2_PLACEMENT_3D ( 'NONE', #320, #155, #162 ) ;
#85 =( GEOMETRIC_REPRESENTATION_CONTEXT ( 3 ) GLOBAL_UNCERTAINTY_ASSIGNED_CONTEXT ( ( #242 ) ) GLOBAL_UNIT_ASSIGNED_CONTEXT ( ( #27, #269, #309 ) ) REPRESENTATION_CONTEXT ( 'NONE', 'WORKASPACE' ) );
#86 = DIRECTION ( 'NONE',  ( -0.000000000000000000, -1.000000000000000000, -0.000000000000000000 ) ) ;
#87 = CARTESIAN_POINT ( 'NONE',  ( -1.000000000000000000, 2.500000000000000000, 12.25000000000000000 ) ) ;
#88 = DIRECTION ( 'NONE',  ( -0.000000000000000000, -0.000000000000000000, 1.000000000000000000 ) ) ;
#89 = AXIS2_PLACEMENT_3D ( 'NONE', #131, #83, #101 ) ;
#90 = APPLICATION_PROTOCOL_DEFINITION ( 'international standard', 'config_control_design', 1994, #138 ) ;
#91 = ORIENTED_EDGE ( 'NONE', *, *, #262, .F. ) ;
#92 = EDGE_CURVE ( 'NONE', #8, #95, #74, .T. ) ;
#93 = ORIENTED_EDGE ( 'NONE', *, *, #340, .F. ) ;
#94 = VECTOR ( 'NONE', #80, 1000.000000000000000 ) ;
#95 = VERTEX_POINT ( 'NONE', #212 ) ;
#96 = PERSON_AND_ORGANIZATION_ROLE ( 'creator' ) ;
#97 = DESIGN_CONTEXT ( 'detailed design', #310, 'design' ) ;
#98 = ORIENTED_EDGE ( 'NONE', *, *, #354, .F. ) ;
#99 = CALENDAR_DATE ( 2026, 26, 7 ) ;
#100 = DIRECTION ( 'NONE',  ( 0.000000000000000000, 0.000000000000000000, -1.000000000000000000 ) ) ;
#101 = DIRECTION ( 'NONE',  ( 0.000000000000000000, -0.000000000000000000, -1.000000000000000000 ) ) ;
#102 = CARTESIAN_POINT ( 'NONE',  ( -1.000000000000000000, 2.500000000000000000, -12.25000000000000000 ) ) ;
#103 = EDGE_CURVE ( 'NONE', #249, #8, #359, .T. ) ;
#104 = COORDINATED_UNIVERSAL_TIME_OFFSET ( 8, 0, .AHEAD. ) ;
#105 = LINE ( 'NONE', #217, #15 ) ;
#106 = AXIS2_PLACEMENT_3D ( 'NONE', #10, #222, #338 ) ;
#107 = LINE ( 'NONE', #213, #255 ) ;
#108 = DATE_TIME_ROLE ( 'creation_date' ) ;
#109 = CARTESIAN_POINT ( 'NONE',  ( 0.000000000000000000, 2.500000000000000000, -12.25000000000000000 ) ) ;
#110 = DIRECTION ( 'NONE',  ( 0.000000000000000000, 0.000000000000000000, 1.000000000000000000 ) ) ;
#111 = DIRECTION ( 'NONE',  ( 1.000000000000000000, 0.000000000000000000, -0.000000000000000000 ) ) ;
#112 = DIRECTION ( 'NONE',  ( 0.000000000000000000, 0.000000000000000000, 1.000000000000000000 ) ) ;
#113 = LINE ( 'NONE', #259, #277 ) ;
#114 = DIRECTION ( 'NONE',  ( 1.000000000000000000, 0.000000000000000000, 0.000000000000000000 ) ) ;
#115 = LOCAL_TIME ( 21, 53, 10.00000000000000000, #104 ) ;
#116 = CC_DESIGN_PERSON_AND_ORGANIZATION_ASSIGNMENT ( #214, #294, ( #22 ) ) ;
#117 = ORIENTED_EDGE ( 'NONE', *, *, #223, .T. ) ;
#118 = ORIENTED_EDGE ( 'NONE', *, *, #141, .T. ) ;
#119 = APPROVAL_ROLE ( '' ) ;
#120 = ORIENTED_EDGE ( 'NONE', *, *, #290, .F. ) ;
#121 = PERSON_AND_ORGANIZATION ( #169, #174 ) ;
#122 = ORIENTED_EDGE ( 'NONE', *, *, #341, .T. ) ;
#123 = LINE ( 'NONE', #61, #204 ) ;
#124 = EDGE_LOOP ( 'NONE', ( #142, #280, #209, #118 ) ) ;
#125 = CARTESIAN_POINT ( 'NONE',  ( -14.50000000000000000, 2.500000000000000000, 12.25000000000000000 ) ) ;
#126 = CARTESIAN_POINT ( 'NONE',  ( -14.50000000000000000, 0.000000000000000000, 7.750000000000000000 ) ) ;
#127 = PLANE ( 'NONE',  #84 ) ;
#128 = EDGE_CURVE ( 'NONE', #189, #249, #297, .T. ) ;
#129 = CARTESIAN_POINT ( 'NONE',  ( -1.000000000000000000, 2.500000000000000000, 7.750000000000000000 ) ) ;
#130 = DIRECTION ( 'NONE',  ( -0.000000000000000000, -1.000000000000000000, -0.000000000000000000 ) ) ;
#131 = CARTESIAN_POINT ( 'NONE',  ( 0.000000000000000000, 0.000000000000000000, 0.000000000000000000 ) ) ;
#132 = PRODUCT_DEFINITION ( '未知', '', #22, #97 ) ;
#133 = PLANE ( 'NONE',  #179 ) ;
#134 = DIRECTION ( 'NONE',  ( -0.000000000000000000, -1.000000000000000000, -0.000000000000000000 ) ) ;
#135 = CARTESIAN_POINT ( 'NONE',  ( -14.50000000000000000, 2.500000000000000000, 12.25000000000000000 ) ) ;
#136 = EDGE_CURVE ( 'NONE', #355, #19, #105, .T. ) ;
#137 = DIRECTION ( 'NONE',  ( 0.000000000000000000, 1.000000000000000000, 0.000000000000000000 ) ) ;
#138 = APPLICATION_CONTEXT ( 'configuration controlled 3d designs of mechanical parts and assemblies' ) ;
#139 = CARTESIAN_POINT ( 'NONE',  ( 14.50000000000000000, 2.500000000000000000, -7.750000000000000000 ) ) ;
#140 = ADVANCED_FACE ( 'NONE', ( #303 ), #274, .F. ) ;
#141 = EDGE_CURVE ( 'NONE', #31, #5, #196, .T. ) ;
#142 = ORIENTED_EDGE ( 'NONE', *, *, #53, .T. ) ;
#143 = ORIENTED_EDGE ( 'NONE', *, *, #279, .F. ) ;
#144 = DIRECTION ( 'NONE',  ( 0.000000000000000000, 0.000000000000000000, 1.000000000000000000 ) ) ;
#145 = ORIENTED_EDGE ( 'NONE', *, *, #128, .F. ) ;
#146 = CARTESIAN_POINT ( 'NONE',  ( 0.000000000000000000, 2.500000000000000000, -7.750000000000000000 ) ) ;
#147 = AXIS2_PLACEMENT_3D ( 'NONE', #109, #112, #111 ) ;
#148 = EDGE_LOOP ( 'NONE', ( #36, #122, #348, #243, #345, #288, #76, #208 ) ) ;
#149 = DIRECTION ( 'NONE',  ( -0.000000000000000000, -1.000000000000000000, -0.000000000000000000 ) ) ;
#150 = CARTESIAN_POINT ( 'NONE',  ( -1.000000000000000000, 0.000000000000000000, 12.25000000000000000 ) ) ;
#151 = CARTESIAN_POINT ( 'NONE',  ( -14.50000000000000000, 2.500000000000000000, 7.750000000000000000 ) ) ;
#152 = DIRECTION ( 'NONE',  ( -1.000000000000000000, 0.000000000000000000, -0.000000000000000000 ) ) ;
#153 = ADVANCED_FACE ( 'NONE', ( #335 ), #198, .F. ) ;
#154 = AXIS2_PLACEMENT_3D ( 'NONE', #184, #250, #46 ) ;
#155 = DIRECTION ( 'NONE',  ( -1.000000000000000000, 0.000000000000000000, 0.000000000000000000 ) ) ;
#156 = LOCAL_TIME ( 21, 53, 10.00000000000000000, #177 ) ;
#157 = DIRECTION ( 'NONE',  ( 0.000000000000000000, 0.000000000000000000, -1.000000000000000000 ) ) ;
#158 = PRODUCT ( 'FN-HAR-012_W4-fuse-to-dc5521_R0.5', 'FN-HAR-012_W4-fuse-to-dc5521_R0.5', '', ( #314 ) ) ;
#159 = VERTEX_POINT ( 'NONE', #305 ) ;
#160 = DIRECTION ( 'NONE',  ( -1.000000000000000000, -0.000000000000000000, -0.000000000000000000 ) ) ;
#161 = CALENDAR_DATE ( 2026, 26, 7 ) ;
#162 = DIRECTION ( 'NONE',  ( 0.000000000000000000, 0.000000000000000000, 1.000000000000000000 ) ) ;
#163 = CARTESIAN_POINT ( 'NONE',  ( 14.50000000000000000, 2.500000000000000000, -12.25000000000000000 ) ) ;
#164 = LOCAL_TIME ( 21, 53, 10.00000000000000000, #241 ) ;
#165 = CARTESIAN_POINT ( 'NONE',  ( 3.500000000000003109, 2.500000000000000000, -7.750000000000000000 ) ) ;
#166 = CARTESIAN_POINT ( 'NONE',  ( 3.500000000000003109, 0.000000000000000000, 12.25000000000000000 ) ) ;
#167 = EDGE_CURVE ( 'NONE', #19, #293, #199, .T. ) ;
#168 = AXIS2_PLACEMENT_3D ( 'NONE', #135, #367, #193 ) ;
#169 = PERSON ( '未指定', '未指定', '未指定', ('未指定'), ('未指定'), ('未指定') ) ;
#170 = DIRECTION ( 'NONE',  ( -1.000000000000000000, -0.000000000000000000, -0.000000000000000000 ) ) ;
#171 = VERTEX_POINT ( 'NONE', #220 ) ;
#172 = CARTESIAN_POINT ( 'NONE',  ( 0.000000000000000000, 0.000000000000000000, -12.25000000000000000 ) ) ;
#173 = APPLICATION_PROTOCOL_DEFINITION ( 'international standard', 'config_control_design', 1994, #310 ) ;
#174 = ORGANIZATION ( '未指定', '未指定', '' ) ;
#175 = EDGE_LOOP ( 'NONE', ( #178, #120, #176, #231 ) ) ;
#176 = ORIENTED_EDGE ( 'NONE', *, *, #66, .T. ) ;
#177 = COORDINATED_UNIVERSAL_TIME_OFFSET ( 8, 0, .AHEAD. ) ;
#178 = ORIENTED_EDGE ( 'NONE', *, *, #25, .F. ) ;
#179 = AXIS2_PLACEMENT_3D ( 'NONE', #151, #215, #13 ) ;
#180 = VECTOR ( 'NONE', #149, 1000.000000000000000 ) ;
#181 = CARTESIAN_POINT ( 'NONE',  ( 14.50000000000000000, 0.000000000000000000, -7.750000000000000000 ) ) ;
#182 = CC_DESIGN_PERSON_AND_ORGANIZATION_ASSIGNMENT ( #63, #68, ( #158 ) ) ;
#183 = DIRECTION ( 'NONE',  ( 0.000000000000000000, 0.000000000000000000, -1.000000000000000000 ) ) ;
#184 = CARTESIAN_POINT ( 'NONE',  ( 0.000000000000000000, 2.500000000000000000, -7.750000000000000000 ) ) ;
#185 = DATE_TIME_ROLE ( 'classification_date' ) ;
#186 = CARTESIAN_POINT ( 'NONE',  ( -1.000000000000000000, 2.500000000000000000, 12.25000000000000000 ) ) ;
#187 = PERSON_AND_ORGANIZATION ( #169, #174 ) ;
#188 = LOCAL_TIME ( 21, 53, 10.00000000000000000, #234 ) ;
#189 = VERTEX_POINT ( 'NONE', #24 ) ;
#190 = CALENDAR_DATE ( 2026, 26, 7 ) ;
#191 = DIRECTION ( 'NONE',  ( -0.000000000000000000, -0.000000000000000000, 1.000000000000000000 ) ) ;
#192 = FACE_OUTER_BOUND ( 'NONE', #3, .T. ) ;
#193 = DIRECTION ( 'NONE',  ( 0.000000000000000000, 0.000000000000000000, -1.000000000000000000 ) ) ;
#194 = DIRECTION ( 'NONE',  ( -1.000000000000000000, 0.000000000000000000, 0.000000000000000000 ) ) ;
#195 = CARTESIAN_POINT ( 'NONE',  ( 14.50000000000000000, 2.500000000000000000, -7.750000000000000000 ) ) ;
#196 = LINE ( 'NONE', #195, #78 ) ;
#197 = ADVANCED_FACE ( 'NONE', ( #332 ), #308, .F. ) ;
#198 = PLANE ( 'NONE',  #147 ) ;
#199 = LINE ( 'NONE', #307, #287 ) ;
#200 = VECTOR ( 'NONE', #157, 1000.000000000000000 ) ;
#201 = LINE ( 'NONE', #146, #285 ) ;
#202 = APPROVAL_STATUS ( 'not_yet_approved' ) ;
#203 = EDGE_LOOP ( 'NONE', ( #312, #251, #236, #233 ) ) ;
#204 = VECTOR ( 'NONE', #88, 1000.000000000000000 ) ;
#205 = CC_DESIGN_APPROVAL ( #369, ( #22 ) ) ;
#206 = VERTEX_POINT ( 'NONE', #163 ) ;
#207 = ADVANCED_FACE ( 'NONE', ( #368 ), #58, .F. ) ;
#208 = ORIENTED_EDGE ( 'NONE', *, *, #103, .T. ) ;
#209 = ORIENTED_EDGE ( 'NONE', *, *, #258, .F. ) ;
#210 = SHAPE_DEFINITION_REPRESENTATION ( #336, #226 ) ;
#211 = VERTEX_POINT ( 'NONE', #224 ) ;
#212 = CARTESIAN_POINT ( 'NONE',  ( 3.500000000000002220, 2.500000000000000000, -7.750000000000000000 ) ) ;
#213 = CARTESIAN_POINT ( 'NONE',  ( -14.50000000000000000, 2.500000000000000000, 7.750000000000000000 ) ) ;
#214 = PERSON_AND_ORGANIZATION ( #169, #174 ) ;
#215 = DIRECTION ( 'NONE',  ( 0.000000000000000000, 0.000000000000000000, 1.000000000000000000 ) ) ;
#216 = DATE_AND_TIME ( #99, #115 ) ;
#217 = CARTESIAN_POINT ( 'NONE',  ( -1.000000000000000000, 0.000000000000000000, 12.25000000000000000 ) ) ;
#218 = DIRECTION ( 'NONE',  ( -1.000000000000000000, -0.000000000000000000, -0.000000000000000000 ) ) ;
#219 = APPROVAL_DATE_TIME ( #253, #369 ) ;
#220 = CARTESIAN_POINT ( 'NONE',  ( 14.50000000000000000, 0.000000000000000000, -12.25000000000000000 ) ) ;
#221 = PLANE ( 'NONE',  #229 ) ;
#222 = DIRECTION ( 'NONE',  ( 0.000000000000000000, -1.000000000000000000, 0.000000000000000000 ) ) ;
#223 = EDGE_CURVE ( 'NONE', #159, #95, #363, .T. ) ;
#224 = CARTESIAN_POINT ( 'NONE',  ( -14.50000000000000000, 0.000000000000000000, 12.25000000000000000 ) ) ;
#225 = VECTOR ( 'NONE', #79, 1000.000000000000000 ) ;
#226 = ADVANCED_BREP_SHAPE_REPRESENTATION ( 'FN-HAR-012_W4-fuse-to-dc5521_R0.5', ( #228, #347 ), #85 ) ;
#227 = CARTESIAN_POINT ( 'NONE',  ( -1.000000000000000000, 2.500000000000000000, 7.750000000000000000 ) ) ;
#228 = MANIFOLD_SOLID_BREP ( '凸台-拉伸3', #56 ) ;
#229 = AXIS2_PLACEMENT_3D ( 'NONE', #14, #194, #110 ) ;
#230 = EDGE_CURVE ( 'NONE', #189, #293, #113, .T. ) ;
#231 = ORIENTED_EDGE ( 'NONE', *, *, #366, .T. ) ;
#232 = CARTESIAN_POINT ( 'NONE',  ( -1.000000000000000000, 0.000000000000000000, -12.25000000000000000 ) ) ;
#233 = ORIENTED_EDGE ( 'NONE', *, *, #341, .F. ) ;
#234 = COORDINATED_UNIVERSAL_TIME_OFFSET ( 8, 0, .AHEAD. ) ;
#235 = EDGE_CURVE ( 'NONE', #67, #19, #306, .T. ) ;
#236 = ORIENTED_EDGE ( 'NONE', *, *, #141, .F. ) ;
#237 = ORIENTED_EDGE ( 'NONE', *, *, #92, .F. ) ;
#238 = DIRECTION ( 'NONE',  ( 1.000000000000000000, 0.000000000000000000, 0.000000000000000000 ) ) ;
#239 = PRODUCT_RELATED_PRODUCT_CATEGORY ( 'detail', '', ( #158 ) ) ;
#240 = VERTEX_POINT ( 'NONE', #166 ) ;
#241 = COORDINATED_UNIVERSAL_TIME_OFFSET ( 8, 0, .AHEAD. ) ;
#242 = UNCERTAINTY_MEASURE_WITH_UNIT (LENGTH_MEASURE( 1.000000000000000082E-05 ), #27, 'distance_accuracy_value', 'NONE');
#243 = ORIENTED_EDGE ( 'NONE', *, *, #290, .T. ) ;
#244 = DIRECTION ( 'NONE',  ( -0.000000000000000000, -0.000000000000000000, 1.000000000000000000 ) ) ;
#245 = VECTOR ( 'NONE', #301, 1000.000000000000000 ) ;
#246 = APPROVAL_STATUS ( 'not_yet_approved' ) ;
#247 = VECTOR ( 'NONE', #238, 1000.000000000000000 ) ;
#248 = CC_DESIGN_SECURITY_CLASSIFICATION ( #57, ( #22 ) ) ;
#249 = VERTEX_POINT ( 'NONE', #286 ) ;
#250 = DIRECTION ( 'NONE',  ( 0.000000000000000000, 0.000000000000000000, -1.000000000000000000 ) ) ;
#251 = ORIENTED_EDGE ( 'NONE', *, *, #357, .T. ) ;
#252 = CARTESIAN_POINT ( 'NONE',  ( -1.000000000000000000, 2.500000000000000000, 12.25000000000000000 ) ) ;
#253 = DATE_AND_TIME ( #161, #365 ) ;
#254 = LINE ( 'NONE', #39, #180 ) ;
#255 = VECTOR ( 'NONE', #218, 1000.000000000000000 ) ;
#256 = ORIENTED_EDGE ( 'NONE', *, *, #366, .F. ) ;
#257 = DIRECTION ( 'NONE',  ( 0.000000000000000000, 0.000000000000000000, -1.000000000000000000 ) ) ;
#258 = EDGE_CURVE ( 'NONE', #31, #206, #26, .T. ) ;
#259 = CARTESIAN_POINT ( 'NONE',  ( -14.50000000000000000, 2.500000000000000000, 7.750000000000000000 ) ) ;
#260 = VECTOR ( 'NONE', #100, 1000.000000000000000 ) ;
#261 = DIRECTION ( 'NONE',  ( -0.000000000000000000, -1.000000000000000000, -0.000000000000000000 ) ) ;
#262 = EDGE_CURVE ( 'NONE', #240, #159, #55, .T. ) ;
#263 = CARTESIAN_POINT ( 'NONE',  ( 0.000000000000000000, 0.000000000000000000, 0.000000000000000000 ) ) ;
#264 = ORIENTED_EDGE ( 'NONE', *, *, #230, .F. ) ;
#265 = ORIENTED_EDGE ( 'NONE', *, *, #357, .F. ) ;
#266 = PERSON_AND_ORGANIZATION ( #169, #174 ) ;
#267 = ADVANCED_FACE ( 'NONE', ( #360 ), #221, .F. ) ;
#268 = ORIENTED_EDGE ( 'NONE', *, *, #235, .T. ) ;
#269 =( NAMED_UNIT ( * ) PLANE_ANGLE_UNIT ( ) SI_UNIT ( $, .RADIAN. ) );
#270 = ORIENTED_EDGE ( 'NONE', *, *, #167, .F. ) ;
#271 = VECTOR ( 'NONE', #45, 1000.000000000000000 ) ;
#272 = ORIENTED_EDGE ( 'NONE', *, *, #167, .T. ) ;
#273 = PERSON_AND_ORGANIZATION_ROLE ( 'design_supplier' ) ;
#274 = PLANE ( 'NONE',  #106 ) ;
#275 = PLANE ( 'NONE',  #71 ) ;
#276 = CARTESIAN_POINT ( 'NONE',  ( 3.500000000000003109, 2.500000000000000000, 12.25000000000000000 ) ) ;
#277 = VECTOR ( 'NONE', #86, 1000.000000000000000 ) ;
#278 = ORIENTED_EDGE ( 'NONE', *, *, #25, .T. ) ;
#279 = EDGE_CURVE ( 'NONE', #32, #67, #333, .T. ) ;
#280 = ORIENTED_EDGE ( 'NONE', *, *, #66, .F. ) ;
#281 = FACE_OUTER_BOUND ( 'NONE', #60, .T. ) ;
#282 = ORIENTED_EDGE ( 'NONE', *, *, #354, .T. ) ;
#283 = ADVANCED_FACE ( 'NONE', ( #325 ), #77, .F. ) ;
#284 = CARTESIAN_POINT ( 'NONE',  ( 0.000000000000000000, 2.500000000000000000, -12.25000000000000000 ) ) ;
#285 = VECTOR ( 'NONE', #114, 1000.000000000000000 ) ;
#286 = CARTESIAN_POINT ( 'NONE',  ( -14.50000000000000000, 2.500000000000000000, 12.25000000000000000 ) ) ;
#287 = VECTOR ( 'NONE', #52, 1000.000000000000000 ) ;
#288 = ORIENTED_EDGE ( 'NONE', *, *, #299, .T. ) ;
#289 = EDGE_LOOP ( 'NONE', ( #62, #268, #272, #264 ) ) ;
#290 = EDGE_CURVE ( 'NONE', #206, #32, #18, .T. ) ;
#291 = ORIENTED_EDGE ( 'NONE', *, *, #53, .F. ) ;
#292 = APPROVAL_DATE_TIME ( #34, #82 ) ;
#293 = VERTEX_POINT ( 'NONE', #126 ) ;
#294 = PERSON_AND_ORGANIZATION_ROLE ( 'creator' ) ;
#295 = ADVANCED_FACE ( 'NONE', ( #281 ), #352, .T. ) ;
#296 = CARTESIAN_POINT ( 'NONE',  ( 14.50000000000000000, 2.500000000000000000, -12.25000000000000000 ) ) ;
#297 = LINE ( 'NONE', #125, #271 ) ;
#298 = ORIENTED_EDGE ( 'NONE', *, *, #136, .T. ) ;
#299 = EDGE_CURVE ( 'NONE', #67, #189, #107, .T. ) ;
#300 = PERSON_AND_ORGANIZATION ( #169, #174 ) ;
#301 = DIRECTION ( 'NONE',  ( -0.000000000000000000, -1.000000000000000000, -0.000000000000000000 ) ) ;
#302 = CC_DESIGN_PERSON_AND_ORGANIZATION_ASSIGNMENT ( #187, #38, ( #57 ) ) ;
#303 = FACE_OUTER_BOUND ( 'NONE', #148, .T. ) ;
#304 = CARTESIAN_POINT ( 'NONE',  ( -1.000000000000000000, 2.500000000000000000, 12.25000000000000000 ) ) ;
#305 = CARTESIAN_POINT ( 'NONE',  ( 3.500000000000003109, 0.000000000000000000, -7.750000000000000000 ) ) ;
#306 = LINE ( 'NONE', #227, #51 ) ;
#307 = CARTESIAN_POINT ( 'NONE',  ( -14.50000000000000000, 0.000000000000000000, 7.750000000000000000 ) ) ;
#308 = PLANE ( 'NONE',  #168 ) ;
#309 =( NAMED_UNIT ( * ) SI_UNIT ( $, .STERADIAN. ) SOLID_ANGLE_UNIT ( ) );
#310 = APPLICATION_CONTEXT ( 'configuration controlled 3d designs of mechanical parts and assemblies' ) ;
#311 = CC_DESIGN_PERSON_AND_ORGANIZATION_ASSIGNMENT ( #121, #96, ( #132 ) ) ;
#312 = ORIENTED_EDGE ( 'NONE', *, *, #223, .F. ) ;
#313 = ORIENTED_EDGE ( 'NONE', *, *, #322, .T. ) ;
#314 = MECHANICAL_CONTEXT ( 'NONE', #138, 'mechanical' ) ;
#315 = VECTOR ( 'NONE', #339, 1000.000000000000000 ) ;
#316 = EDGE_LOOP ( 'NONE', ( #70, #117, #237, #6 ) ) ;
#317 = FACE_OUTER_BOUND ( 'NONE', #289, .T. ) ;
#318 = VECTOR ( 'NONE', #183, 1000.000000000000000 ) ;
#319 = APPROVAL_PERSON_ORGANIZATION ( #353, #369, #75 ) ;
#320 = CARTESIAN_POINT ( 'NONE',  ( 3.500000000000003109, 2.500000000000000000, 12.25000000000000000 ) ) ;
#321 = ORIENTED_EDGE ( 'NONE', *, *, #235, .F. ) ;
#322 = EDGE_CURVE ( 'NONE', #211, #240, #330, .T. ) ;
#323 = CARTESIAN_POINT ( 'NONE',  ( 3.500000000000003109, 0.000000000000000000, 12.25000000000000000 ) ) ;
#324 = CARTESIAN_POINT ( 'NONE',  ( 3.500000000000003109, 2.500000000000000000, 12.25000000000000000 ) ) ;
#325 = FACE_OUTER_BOUND ( 'NONE', #203, .T. ) ;
#326 = AXIS2_PLACEMENT_3D ( 'NONE', #87, #23, #257 ) ;
#327 = APPROVAL ( #246, '未指定' ) ;
#328 = APPROVAL_PERSON_ORGANIZATION ( #300, #327, #331 ) ;
#329 = FACE_OUTER_BOUND ( 'NONE', #316, .T. ) ;
#330 = LINE ( 'NONE', #150, #94 ) ;
#331 = APPROVAL_ROLE ( '' ) ;
#332 = FACE_OUTER_BOUND ( 'NONE', #64, .T. ) ;
#333 = LINE ( 'NONE', #252, #35 ) ;
#334 = ADVANCED_FACE ( 'NONE', ( #192 ), #275, .F. ) ;
#335 = FACE_OUTER_BOUND ( 'NONE', #175, .T. ) ;
#336 = PRODUCT_DEFINITION_SHAPE ( 'NONE', 'NONE',  #132 ) ;
#337 = APPROVAL_PERSON_ORGANIZATION ( #266, #82, #119 ) ;
#338 = DIRECTION ( 'NONE',  ( 0.000000000000000000, -0.000000000000000000, -1.000000000000000000 ) ) ;
#339 = DIRECTION ( 'NONE',  ( 0.000000000000000000, 0.000000000000000000, -1.000000000000000000 ) ) ;
#340 = EDGE_CURVE ( 'NONE', #8, #240, #20, .T. ) ;
#341 = EDGE_CURVE ( 'NONE', #95, #31, #201, .T. ) ;
#342 = VECTOR ( 'NONE', #130, 1000.000000000000000 ) ;
#343 = DIRECTION ( 'NONE',  ( 1.000000000000000000, 0.000000000000000000, 0.000000000000000000 ) ) ;
#344 = EDGE_LOOP ( 'NONE', ( #321, #143, #278, #298 ) ) ;
#345 = ORIENTED_EDGE ( 'NONE', *, *, #279, .T. ) ;
#346 = CALENDAR_DATE ( 2026, 26, 7 ) ;
#347 = AXIS2_PLACEMENT_3D ( 'NONE', #263, #144, #343 ) ;
#348 = ORIENTED_EDGE ( 'NONE', *, *, #258, .T. ) ;
#349 = ORIENTED_EDGE ( 'NONE', *, *, #136, .F. ) ;
#350 = DATE_AND_TIME ( #12, #164 ) ;
#351 = ORIENTED_EDGE ( 'NONE', *, *, #69, .T. ) ;
#352 = PLANE ( 'NONE',  #89 ) ;
#353 = PERSON_AND_ORGANIZATION ( #169, #174 ) ;
#354 = EDGE_CURVE ( 'NONE', #293, #211, #123, .T. ) ;
#355 = VERTEX_POINT ( 'NONE', #232 ) ;
#356 = LINE ( 'NONE', #102, #245 ) ;
#357 = EDGE_CURVE ( 'NONE', #159, #5, #65, .T. ) ;
#358 = PERSON_AND_ORGANIZATION ( #169, #174 ) ;
#359 = LINE ( 'NONE', #186, #225 ) ;
#360 = FACE_OUTER_BOUND ( 'NONE', #124, .T. ) ;
#361 = SECURITY_CLASSIFICATION_LEVEL ( 'unclassified' ) ;
#362 = ORIENTED_EDGE ( 'NONE', *, *, #230, .T. ) ;
#363 = LINE ( 'NONE', #165, #30 ) ;
#364 = VECTOR ( 'NONE', #160, 1000.000000000000000 ) ;
#365 = LOCAL_TIME ( 21, 53, 10.00000000000000000, #81 ) ;
#366 = EDGE_CURVE ( 'NONE', #171, #355, #1, .T. ) ;
#367 = DIRECTION ( 'NONE',  ( 1.000000000000000000, -0.000000000000000000, 0.000000000000000000 ) ) ;
#368 = FACE_OUTER_BOUND ( 'NONE', #344, .T. ) ;
#369 = APPROVAL ( #47, '未指定' ) ;
ENDSEC;
END-ISO-10303-21;
