ISO-10303-21;
HEADER;
FILE_DESCRIPTION (( 'STEP AP203' ),
    '1' );
FILE_NAME ('FN-HAR-011_W3-battery-to-fuse_R0.5.STEP',
    '2026-07-26T13:52:57',
    ( '' ),
    ( '' ),
    'SwSTEP 2.0',
    'SolidWorks 2022',
    '' );
FILE_SCHEMA (( 'CONFIG_CONTROL_DESIGN' ));
ENDSEC;

DATA;
#1 = DIRECTION ( 'NONE',  ( 1.000000000000000000, 0.000000000000000000, 0.000000000000000000 ) ) ;
#2 = ORIENTED_EDGE ( 'NONE', *, *, #11, .T. ) ;
#3 = AXIS2_PLACEMENT_3D ( 'NONE', #90, #61, #316 ) ;
#4 = DIRECTION ( 'NONE',  ( -0.000000000000000000, -1.000000000000000000, -0.000000000000000000 ) ) ;
#5 = LINE ( 'NONE', #267, #55 ) ;
#6 = DIRECTION ( 'NONE',  ( 1.000000000000000000, 0.000000000000000000, 0.000000000000000000 ) ) ;
#7 = SECURITY_CLASSIFICATION ( '', '', #72 ) ;
#8 = CARTESIAN_POINT ( 'NONE',  ( 0.000000000000000000, 2.500000000000000000, 0.000000000000000000 ) ) ;
#9 = APPROVAL ( #244, '未指定' ) ;
#10 = ADVANCED_BREP_SHAPE_REPRESENTATION ( 'FN-HAR-011_W3-battery-to-fuse_R0.5', ( #354, #287 ), #177 ) ;
#11 = EDGE_CURVE ( 'NONE', #197, #250, #340, .T. ) ;
#12 = CARTESIAN_POINT ( 'NONE',  ( -8.750000000000000000, 2.500000000000000000, 8.250000000000000000 ) ) ;
#13 = LINE ( 'NONE', #120, #62 ) ;
#14 = FACE_OUTER_BOUND ( 'NONE', #86, .T. ) ;
#15 = AXIS2_PLACEMENT_3D ( 'NONE', #218, #97, #240 ) ;
#16 = PERSON_AND_ORGANIZATION_ROLE ( 'classification_officer' ) ;
#17 = ORIENTED_EDGE ( 'NONE', *, *, #125, .T. ) ;
#18 = APPROVAL ( #254, '未指定' ) ;
#19 = AXIS2_PLACEMENT_3D ( 'NONE', #150, #185, #264 ) ;
#20 = EDGE_CURVE ( 'NONE', #278, #166, #255, .T. ) ;
#21 = EDGE_CURVE ( 'NONE', #168, #226, #170, .T. ) ;
#22 = ORIENTED_EDGE ( 'NONE', *, *, #246, .F. ) ;
#23 = ORIENTED_EDGE ( 'NONE', *, *, #182, .F. ) ;
#24 = ORIENTED_EDGE ( 'NONE', *, *, #272, .T. ) ;
#25 = ORIENTED_EDGE ( 'NONE', *, *, #21, .T. ) ;
#26 = ORIENTED_EDGE ( 'NONE', *, *, #225, .T. ) ;
#27 = AXIS2_PLACEMENT_3D ( 'NONE', #124, #313, #58 ) ;
#28 = CARTESIAN_POINT ( 'NONE',  ( -8.750000000000000000, 2.500000000000000000, 12.75000000000000000 ) ) ;
#29 = ORIENTED_EDGE ( 'NONE', *, *, #206, .T. ) ;
#30 = CARTESIAN_POINT ( 'NONE',  ( -8.750000000000000000, 0.000000000000000000, 12.75000000000000000 ) ) ;
#31 = ORIENTED_EDGE ( 'NONE', *, *, #339, .T. ) ;
#32 = EDGE_CURVE ( 'NONE', #232, #276, #13, .T. ) ;
#33 = DIRECTION ( 'NONE',  ( 0.000000000000000000, 0.000000000000000000, -1.000000000000000000 ) ) ;
#34 = VECTOR ( 'NONE', #159, 1000.000000000000000 ) ;
#35 = DIRECTION ( 'NONE',  ( 0.000000000000000000, 0.000000000000000000, -1.000000000000000000 ) ) ;
#36 = CARTESIAN_POINT ( 'NONE',  ( 8.750000000000000000, 2.500000000000000000, -8.250000000000000000 ) ) ;
#37 = PLANE ( 'NONE',  #38 ) ;
#38 = AXIS2_PLACEMENT_3D ( 'NONE', #99, #186, #152 ) ;
#39 = LINE ( 'NONE', #352, #334 ) ;
#40 = CARTESIAN_POINT ( 'NONE',  ( -3.750000000000000000, 2.500000000000000000, 8.250000000000000000 ) ) ;
#41 = CARTESIAN_POINT ( 'NONE',  ( -8.750000000000000000, 0.000000000000000000, 8.250000000000000000 ) ) ;
#42 = CARTESIAN_POINT ( 'NONE',  ( 8.750000000000000000, 0.000000000000000000, -8.250000000000000000 ) ) ;
#43 = VECTOR ( 'NONE', #243, 1000.000000000000000 ) ;
#44 = PERSON_AND_ORGANIZATION_ROLE ( 'design_supplier' ) ;
#45 = CARTESIAN_POINT ( 'NONE',  ( -3.750000000000000000, 0.000000000000000000, -8.250000000000000000 ) ) ;
#46 = SHAPE_DEFINITION_REPRESENTATION ( #52, #10 ) ;
#47 = EDGE_CURVE ( 'NONE', #232, #114, #94, .T. ) ;
#48 = ORIENTED_EDGE ( 'NONE', *, *, #20, .T. ) ;
#49 = CARTESIAN_POINT ( 'NONE',  ( -3.750000000000000000, 0.000000000000000000, 12.75000000000000000 ) ) ;
#50 = ORIENTED_EDGE ( 'NONE', *, *, #20, .F. ) ;
#51 = VERTEX_POINT ( 'NONE', #286 ) ;
#52 = PRODUCT_DEFINITION_SHAPE ( 'NONE', 'NONE',  #156 ) ;
#53 = DIRECTION ( 'NONE',  ( -1.000000000000000000, -0.000000000000000000, -0.000000000000000000 ) ) ;
#54 = ORIENTED_EDGE ( 'NONE', *, *, #182, .T. ) ;
#55 = VECTOR ( 'NONE', #233, 1000.000000000000000 ) ;
#56 = VERTEX_POINT ( 'NONE', #345 ) ;
#57 = LINE ( 'NONE', #304, #98 ) ;
#58 = DIRECTION ( 'NONE',  ( 0.000000000000000000, 0.000000000000000000, -1.000000000000000000 ) ) ;
#59 = CC_DESIGN_PERSON_AND_ORGANIZATION_ASSIGNMENT ( #101, #326, ( #189 ) ) ;
#60 = ADVANCED_FACE ( 'NONE', ( #14 ), #236, .F. ) ;
#61 = DIRECTION ( 'NONE',  ( 0.000000000000000000, 0.000000000000000000, 1.000000000000000000 ) ) ;
#62 = VECTOR ( 'NONE', #117, 1000.000000000000000 ) ;
#63 = PLANE ( 'NONE',  #27 ) ;
#64 = DIRECTION ( 'NONE',  ( 0.000000000000000000, 0.000000000000000000, -1.000000000000000000 ) ) ;
#65 = PLANE ( 'NONE',  #356 ) ;
#66 = VECTOR ( 'NONE', #204, 1000.000000000000000 ) ;
#67 = LINE ( 'NONE', #184, #129 ) ;
#68 = ADVANCED_FACE ( 'NONE', ( #258 ), #208, .F. ) ;
#69 = PLANE ( 'NONE',  #19 ) ;
#70 = DIRECTION ( 'NONE',  ( -1.000000000000000000, 0.000000000000000000, 0.000000000000000000 ) ) ;
#71 = CARTESIAN_POINT ( 'NONE',  ( 0.7500000000000006661, 0.000000000000000000, -8.249999999999998224 ) ) ;
#72 = SECURITY_CLASSIFICATION_LEVEL ( 'unclassified' ) ;
#73 = LINE ( 'NONE', #45, #310 ) ;
#74 = VECTOR ( 'NONE', #1, 1000.000000000000000 ) ;
#75 = CC_DESIGN_PERSON_AND_ORGANIZATION_ASSIGNMENT ( #221, #44, ( #189 ) ) ;
#76 = ADVANCED_FACE ( 'NONE', ( #259 ), #63, .F. ) ;
#77 = EDGE_CURVE ( 'NONE', #166, #199, #325, .T. ) ;
#78 = CARTESIAN_POINT ( 'NONE',  ( -3.750000000000000000, 0.000000000000000000, -8.250000000000000000 ) ) ;
#79 = EDGE_LOOP ( 'NONE', ( #252, #54, #142, #112, #17, #48, #106, #24 ) ) ;
#80 = ORIENTED_EDGE ( 'NONE', *, *, #194, .F. ) ;
#81 = ORGANIZATION ( '未指定', '未指定', '' ) ;
#82 = DATE_TIME_ROLE ( 'classification_date' ) ;
#83 = ORIENTED_EDGE ( 'NONE', *, *, #157, .F. ) ;
#84 = EDGE_LOOP ( 'NONE', ( #50, #368, #202, #140 ) ) ;
#85 = ORIENTED_EDGE ( 'NONE', *, *, #11, .F. ) ;
#86 = EDGE_LOOP ( 'NONE', ( #249, #311, #253, #23 ) ) ;
#87 = LOCAL_TIME ( 21, 52, 57.00000000000000000, #227 ) ;
#88 = CC_DESIGN_APPROVAL ( #18, ( #7 ) ) ;
#89 = CC_DESIGN_DATE_AND_TIME_ASSIGNMENT ( #271, #82, ( #7 ) ) ;
#90 = CARTESIAN_POINT ( 'NONE',  ( -3.750000000000000000, 2.500000000000000000, -12.75000000000000000 ) ) ;
#91 = ADVANCED_FACE ( 'NONE', ( #178 ), #119, .T. ) ;
#92 = DIRECTION ( 'NONE',  ( -1.000000000000000000, 0.000000000000000000, -0.000000000000000000 ) ) ;
#93 = PRODUCT ( 'FN-HAR-011_W3-battery-to-fuse_R0.5', 'FN-HAR-011_W3-battery-to-fuse_R0.5', '', ( #329 ) ) ;
#94 = LINE ( 'NONE', #127, #183 ) ;
#95 = DIRECTION ( 'NONE',  ( 1.000000000000000000, 0.000000000000000000, -0.000000000000000000 ) ) ;
#96 = CARTESIAN_POINT ( 'NONE',  ( -3.750000000000000000, 2.500000000000000000, -12.75000000000000000 ) ) ;
#97 = DIRECTION ( 'NONE',  ( 0.000000000000000000, -1.000000000000000000, 0.000000000000000000 ) ) ;
#98 = VECTOR ( 'NONE', #230, 1000.000000000000000 ) ;
#99 = CARTESIAN_POINT ( 'NONE',  ( -3.750000000000000000, 2.500000000000000000, 12.75000000000000000 ) ) ;
#100 = CARTESIAN_POINT ( 'NONE',  ( -3.750000000000000000, 2.500000000000000000, -8.250000000000000000 ) ) ;
#101 = PERSON_AND_ORGANIZATION ( #136, #81 ) ;
#102 = CALENDAR_DATE ( 2026, 26, 7 ) ;
#103 = VECTOR ( 'NONE', #314, 1000.000000000000000 ) ;
#104 = APPROVAL_DATE_TIME ( #337, #18 ) ;
#105 = DIRECTION ( 'NONE',  ( 1.000000000000000000, 0.000000000000000000, 0.000000000000000000 ) ) ;
#106 = ORIENTED_EDGE ( 'NONE', *, *, #137, .T. ) ;
#107 = PERSON_AND_ORGANIZATION ( #136, #81 ) ;
#108 = ORIENTED_EDGE ( 'NONE', *, *, #47, .F. ) ;
#109 = ORIENTED_EDGE ( 'NONE', *, *, #115, .T. ) ;
#110 = ORIENTED_EDGE ( 'NONE', *, *, #194, .T. ) ;
#111 = VECTOR ( 'NONE', #147, 1000.000000000000000 ) ;
#112 = ORIENTED_EDGE ( 'NONE', *, *, #32, .T. ) ;
#113 = CALENDAR_DATE ( 2026, 26, 7 ) ;
#114 = VERTEX_POINT ( 'NONE', #153 ) ;
#115 = EDGE_CURVE ( 'NONE', #51, #369, #5, .T. ) ;
#116 = EDGE_CURVE ( 'NONE', #369, #114, #353, .T. ) ;
#117 = DIRECTION ( 'NONE',  ( -1.000000000000000000, -0.000000000000000000, -0.000000000000000000 ) ) ;
#118 = VECTOR ( 'NONE', #4, 1000.000000000000000 ) ;
#119 = PLANE ( 'NONE',  #15 ) ;
#120 = CARTESIAN_POINT ( 'NONE',  ( -3.750000000000000000, 2.500000000000000000, -12.75000000000000000 ) ) ;
#121 = DIRECTION ( 'NONE',  ( 0.000000000000000000, -1.000000000000000000, 0.000000000000000000 ) ) ;
#122 = LINE ( 'NONE', #96, #242 ) ;
#123 = CARTESIAN_POINT ( 'NONE',  ( -3.750000000000000000, 2.500000000000000000, -12.75000000000000000 ) ) ;
#124 = CARTESIAN_POINT ( 'NONE',  ( -3.750000000000000000, 2.500000000000000000, -8.250000000000000000 ) ) ;
#125 = EDGE_CURVE ( 'NONE', #276, #278, #216, .T. ) ;
#126 = CARTESIAN_POINT ( 'NONE',  ( -8.750000000000000000, 0.000000000000000000, 12.75000000000000000 ) ) ;
#127 = CARTESIAN_POINT ( 'NONE',  ( 8.750000000000000000, 2.500000000000000000, -12.75000000000000000 ) ) ;
#128 = CLOSED_SHELL ( 'NONE', ( #76, #60, #312, #68, #322, #91, #284, #315, #257, #151 ) ) ;
#129 = VECTOR ( 'NONE', #355, 1000.000000000000000 ) ;
#130 = DATE_AND_TIME ( #295, #347 ) ;
#131 = PERSON_AND_ORGANIZATION ( #136, #81 ) ;
#132 = DESIGN_CONTEXT ( 'detailed design', #307, 'design' ) ;
#133 =( NAMED_UNIT ( * ) SI_UNIT ( $, .STERADIAN. ) SOLID_ANGLE_UNIT ( ) );
#134 = COORDINATED_UNIVERSAL_TIME_OFFSET ( 8, 0, .AHEAD. ) ;
#135 = APPROVAL_ROLE ( '' ) ;
#136 = PERSON ( '未指定', '未指定', '未指定', ('未指定'), ('未指定'), ('未指定') ) ;
#137 = EDGE_CURVE ( 'NONE', #166, #168, #207, .T. ) ;
#138 = DATE_AND_TIME ( #165, #201 ) ;
#139 = ORIENTED_EDGE ( 'NONE', *, *, #145, .F. ) ;
#140 = ORIENTED_EDGE ( 'NONE', *, *, #77, .F. ) ;
#141 = ORIENTED_EDGE ( 'NONE', *, *, #351, .F. ) ;
#142 = ORIENTED_EDGE ( 'NONE', *, *, #145, .T. ) ;
#143 = APPROVAL_PERSON_ORGANIZATION ( #131, #9, #360 ) ;
#144 = ORIENTED_EDGE ( 'NONE', *, *, #212, .T. ) ;
#145 = EDGE_CURVE ( 'NONE', #51, #232, #289, .T. ) ;
#146 = LINE ( 'NONE', #342, #66 ) ;
#147 = DIRECTION ( 'NONE',  ( -0.000000000000000000, -0.000000000000000000, 1.000000000000000000 ) ) ;
#148 = CARTESIAN_POINT ( 'NONE',  ( -8.750000000000000000, 2.500000000000000000, 8.250000000000000000 ) ) ;
#149 = VECTOR ( 'NONE', #64, 1000.000000000000000 ) ;
#150 = CARTESIAN_POINT ( 'NONE',  ( -8.750000000000000000, 2.500000000000000000, 12.75000000000000000 ) ) ;
#151 = ADVANCED_FACE ( 'NONE', ( #323 ), #69, .F. ) ;
#152 = DIRECTION ( 'NONE',  ( -1.000000000000000000, 0.000000000000000000, -0.000000000000000000 ) ) ;
#153 = CARTESIAN_POINT ( 'NONE',  ( 8.750000000000000000, 0.000000000000000000, -12.75000000000000000 ) ) ;
#154 = VECTOR ( 'NONE', #205, 1000.000000000000000 ) ;
#155 = CARTESIAN_POINT ( 'NONE',  ( -3.750000000000000000, 0.000000000000000000, 8.250000000000000000 ) ) ;
#156 = PRODUCT_DEFINITION ( '未知', '', #189, #132 ) ;
#157 = EDGE_CURVE ( 'NONE', #278, #250, #294, .T. ) ;
#158 = FACE_OUTER_BOUND ( 'NONE', #333, .T. ) ;
#159 = DIRECTION ( 'NONE',  ( -0.000000000000000000, -1.000000000000000000, 0.000000000000000000 ) ) ;
#160 = DATE_AND_TIME ( #327, #87 ) ;
#161 = CARTESIAN_POINT ( 'NONE',  ( 0.7500000000000006661, 2.500000000000000000, 12.75000000000000000 ) ) ;
#162 = AXIS2_PLACEMENT_3D ( 'NONE', #266, #70, #179 ) ;
#163 =( NAMED_UNIT ( * ) PLANE_ANGLE_UNIT ( ) SI_UNIT ( $, .RADIAN. ) );
#164 = PERSON_AND_ORGANIZATION_ROLE ( 'design_owner' ) ;
#165 = CALENDAR_DATE ( 2026, 26, 7 ) ;
#166 = VERTEX_POINT ( 'NONE', #357 ) ;
#167 = ORIENTED_EDGE ( 'NONE', *, *, #116, .F. ) ;
#168 = VERTEX_POINT ( 'NONE', #173 ) ;
#169 = ORIENTED_EDGE ( 'NONE', *, *, #21, .F. ) ;
#170 = LINE ( 'NONE', #28, #154 ) ;
#171 = VECTOR ( 'NONE', #6, 1000.000000000000000 ) ;
#172 = ORIENTED_EDGE ( 'NONE', *, *, #32, .F. ) ;
#173 = CARTESIAN_POINT ( 'NONE',  ( -8.750000000000000000, 2.500000000000000000, 12.75000000000000000 ) ) ;
#174 = DIRECTION ( 'NONE',  ( -0.000000000000000000, -1.000000000000000000, -0.000000000000000000 ) ) ;
#175 = EDGE_CURVE ( 'NONE', #199, #226, #281, .T. ) ;
#176 = DIRECTION ( 'NONE',  ( -0.000000000000000000, -0.000000000000000000, 1.000000000000000000 ) ) ;
#177 =( GEOMETRIC_REPRESENTATION_CONTEXT ( 3 ) GLOBAL_UNCERTAINTY_ASSIGNED_CONTEXT ( ( #324 ) ) GLOBAL_UNIT_ASSIGNED_CONTEXT ( ( #273, #163, #133 ) ) REPRESENTATION_CONTEXT ( 'NONE', 'WORKASPACE' ) );
#178 = FACE_OUTER_BOUND ( 'NONE', #305, .T. ) ;
#179 = DIRECTION ( 'NONE',  ( 0.000000000000000000, 0.000000000000000000, 1.000000000000000000 ) ) ;
#180 = CARTESIAN_POINT ( 'NONE',  ( -3.750000000000000000, 2.500000000000000000, 8.250000000000000000 ) ) ;
#181 = CARTESIAN_POINT ( 'NONE',  ( 0.7500000000000006661, 2.500000000000000000, 12.75000000000000000 ) ) ;
#182 = EDGE_CURVE ( 'NONE', #56, #51, #343, .T. ) ;
#183 = VECTOR ( 'NONE', #174, 1000.000000000000000 ) ;
#184 = CARTESIAN_POINT ( 'NONE',  ( -8.750000000000000000, 0.000000000000000000, 8.250000000000000000 ) ) ;
#185 = DIRECTION ( 'NONE',  ( 1.000000000000000000, -0.000000000000000000, 0.000000000000000000 ) ) ;
#186 = DIRECTION ( 'NONE',  ( 0.000000000000000000, 0.000000000000000000, -1.000000000000000000 ) ) ;
#187 = LINE ( 'NONE', #161, #234 ) ;
#188 = COORDINATED_UNIVERSAL_TIME_OFFSET ( 8, 0, .AHEAD. ) ;
#189 = PRODUCT_DEFINITION_FORMATION_WITH_SPECIFIED_SOURCE ( '任何', '', #93, .NOT_KNOWN. ) ;
#190 = PERSON_AND_ORGANIZATION ( #136, #81 ) ;
#191 = DIRECTION ( 'NONE',  ( 0.000000000000000000, 0.000000000000000000, 1.000000000000000000 ) ) ;
#192 = PERSON_AND_ORGANIZATION_ROLE ( 'creator' ) ;
#193 = EDGE_LOOP ( 'NONE', ( #26, #80, #274, #25 ) ) ;
#194 = EDGE_CURVE ( 'NONE', #282, #364, #187, .T. ) ;
#195 = LINE ( 'NONE', #49, #171 ) ;
#197 = VERTEX_POINT ( 'NONE', #269 ) ;
#196 = AXIS2_PLACEMENT_3D ( 'NONE', #8, #121, #290 ) ;
#198 = PERSON_AND_ORGANIZATION ( #136, #81 ) ;
#199 = VERTEX_POINT ( 'NONE', #41 ) ;
#200 = VERTEX_POINT ( 'NONE', #71 ) ;
#201 = LOCAL_TIME ( 21, 52, 57.00000000000000000, #332 ) ;
#202 = ORIENTED_EDGE ( 'NONE', *, *, #265, .T. ) ;
#203 = CC_DESIGN_SECURITY_CLASSIFICATION ( #7, ( #189 ) ) ;
#204 = DIRECTION ( 'NONE',  ( 0.000000000000000000, 1.000000000000000000, 0.000000000000000000 ) ) ;
#205 = DIRECTION ( 'NONE',  ( -0.000000000000000000, -1.000000000000000000, -0.000000000000000000 ) ) ;
#206 = EDGE_CURVE ( 'NONE', #200, #56, #146, .T. ) ;
#207 = LINE ( 'NONE', #344, #321 ) ;
#208 = PLANE ( 'NONE',  #3 ) ;
#209 = CARTESIAN_POINT ( 'NONE',  ( 0.7500000000000006661, 2.500000000000000000, 12.75000000000000000 ) ) ;
#210 = VECTOR ( 'NONE', #35, 1000.000000000000000 ) ;
#211 = PRODUCT_RELATED_PRODUCT_CATEGORY ( 'detail', '', ( #93 ) ) ;
#212 = EDGE_CURVE ( 'NONE', #114, #197, #57, .T. ) ;
#213 = PLANE ( 'NONE',  #196 ) ;
#214 = VECTOR ( 'NONE', #53, 1000.000000000000000 ) ;
#215 = AXIS2_PLACEMENT_3D ( 'NONE', #285, #33, #92 ) ;
#216 = LINE ( 'NONE', #100, #43 ) ;
#217 = CARTESIAN_POINT ( 'NONE',  ( 0.7500000000000006661, 2.500000000000000000, 12.75000000000000000 ) ) ;
#218 = CARTESIAN_POINT ( 'NONE',  ( 0.000000000000000000, 0.000000000000000000, 0.000000000000000000 ) ) ;
#219 = APPROVAL_STATUS ( 'not_yet_approved' ) ;
#220 = PERSON_AND_ORGANIZATION ( #136, #81 ) ;
#221 = PERSON_AND_ORGANIZATION ( #136, #81 ) ;
#222 = CC_DESIGN_PERSON_AND_ORGANIZATION_ASSIGNMENT ( #190, #164, ( #93 ) ) ;
#223 = COORDINATED_UNIVERSAL_TIME_OFFSET ( 8, 0, .AHEAD. ) ;
#224 = ORIENTED_EDGE ( 'NONE', *, *, #246, .T. ) ;
#225 = EDGE_CURVE ( 'NONE', #226, #364, #195, .T. ) ;
#226 = VERTEX_POINT ( 'NONE', #126 ) ;
#227 = COORDINATED_UNIVERSAL_TIME_OFFSET ( 8, 0, .AHEAD. ) ;
#229 = ORIENTED_EDGE ( 'NONE', *, *, #261, .F. ) ;
#228 = CC_DESIGN_APPROVAL ( #9, ( #156 ) ) ;
#230 = DIRECTION ( 'NONE',  ( -1.000000000000000000, -0.000000000000000000, -0.000000000000000000 ) ) ;
#231 = EDGE_LOOP ( 'NONE', ( #83, #366, #31, #2 ) ) ;
#232 = VERTEX_POINT ( 'NONE', #237 ) ;
#233 = DIRECTION ( 'NONE',  ( -0.000000000000000000, -1.000000000000000000, -0.000000000000000000 ) ) ;
#234 = VECTOR ( 'NONE', #296, 1000.000000000000000 ) ;
#235 = CARTESIAN_POINT ( 'NONE',  ( 8.750000000000000000, 0.000000000000000000, -8.250000000000000000 ) ) ;
#236 = PLANE ( 'NONE',  #215 ) ;
#237 = CARTESIAN_POINT ( 'NONE',  ( 8.750000000000000000, 2.500000000000000000, -12.75000000000000000 ) ) ;
#238 = FACE_OUTER_BOUND ( 'NONE', #84, .T. ) ;
#239 = LINE ( 'NONE', #350, #317 ) ;
#240 = DIRECTION ( 'NONE',  ( 0.000000000000000000, -0.000000000000000000, -1.000000000000000000 ) ) ;
#241 = PLANE ( 'NONE',  #162 ) ;
#242 = VECTOR ( 'NONE', #268, 1000.000000000000000 ) ;
#243 = DIRECTION ( 'NONE',  ( -0.000000000000000000, -0.000000000000000000, 1.000000000000000000 ) ) ;
#244 = APPROVAL_STATUS ( 'not_yet_approved' ) ;
#245 = LOCAL_TIME ( 21, 52, 57.00000000000000000, #188 ) ;
#246 = EDGE_CURVE ( 'NONE', #364, #200, #239, .T. ) ;
#247 = DIRECTION ( 'NONE',  ( 1.000000000000000000, 0.000000000000000000, 0.000000000000000000 ) ) ;
#248 = EDGE_LOOP ( 'NONE', ( #330, #108, #139, #109 ) ) ;
#249 = ORIENTED_EDGE ( 'NONE', *, *, #206, .F. ) ;
#250 = VERTEX_POINT ( 'NONE', #155 ) ;
#251 = EDGE_LOOP ( 'NONE', ( #341, #172, #362, #144 ) ) ;
#252 = ORIENTED_EDGE ( 'NONE', *, *, #261, .T. ) ;
#253 = ORIENTED_EDGE ( 'NONE', *, *, #115, .F. ) ;
#254 = APPROVAL_STATUS ( 'not_yet_approved' ) ;
#255 = LINE ( 'NONE', #365, #214 ) ;
#256 = CARTESIAN_POINT ( 'NONE',  ( -3.750000000000000000, 2.500000000000000000, -8.250000000000000000 ) ) ;
#257 = ADVANCED_FACE ( 'NONE', ( #238 ), #260, .F. ) ;
#258 = FACE_OUTER_BOUND ( 'NONE', #251, .T. ) ;
#259 = FACE_OUTER_BOUND ( 'NONE', #231, .T. ) ;
#260 = PLANE ( 'NONE',  #303 ) ;
#261 = EDGE_CURVE ( 'NONE', #282, #56, #319, .T. ) ;
#262 = FACE_OUTER_BOUND ( 'NONE', #79, .T. ) ;
#263 = DIRECTION ( 'NONE',  ( 1.000000000000000000, 0.000000000000000000, 0.000000000000000000 ) ) ;
#264 = DIRECTION ( 'NONE',  ( 0.000000000000000000, 0.000000000000000000, -1.000000000000000000 ) ) ;
#265 = EDGE_CURVE ( 'NONE', #250, #199, #67, .T. ) ;
#266 = CARTESIAN_POINT ( 'NONE',  ( 8.750000000000000000, 2.500000000000000000, -8.250000000000000000 ) ) ;
#267 = CARTESIAN_POINT ( 'NONE',  ( 8.750000000000000000, 2.500000000000000000, -8.250000000000000000 ) ) ;
#268 = DIRECTION ( 'NONE',  ( -0.000000000000000000, -1.000000000000000000, -0.000000000000000000 ) ) ;
#269 = CARTESIAN_POINT ( 'NONE',  ( -3.750000000000000000, 0.000000000000000000, -12.75000000000000000 ) ) ;
#270 = CC_DESIGN_PERSON_AND_ORGANIZATION_ASSIGNMENT ( #220, #16, ( #7 ) ) ;
#271 = DATE_AND_TIME ( #102, #245 ) ;
#272 = EDGE_CURVE ( 'NONE', #168, #282, #39, .T. ) ;
#273 =( LENGTH_UNIT ( ) NAMED_UNIT ( * ) SI_UNIT ( .MILLI., .METRE. ) );
#274 = ORIENTED_EDGE ( 'NONE', *, *, #272, .F. ) ;
#275 = VECTOR ( 'NONE', #308, 1000.000000000000000 ) ;
#276 = VERTEX_POINT ( 'NONE', #123 ) ;
#277 = ORIENTED_EDGE ( 'NONE', *, *, #265, .F. ) ;
#278 = VERTEX_POINT ( 'NONE', #180 ) ;
#280 = ORIENTED_EDGE ( 'NONE', *, *, #212, .F. ) ;
#279 = APPROVAL_PERSON_ORGANIZATION ( #107, #338, #135 ) ;
#281 = LINE ( 'NONE', #30, #111 ) ;
#282 = VERTEX_POINT ( 'NONE', #209 ) ;
#283 = APPLICATION_CONTEXT ( 'configuration controlled 3d designs of mechanical parts and assemblies' ) ;
#284 = ADVANCED_FACE ( 'NONE', ( #158 ), #65, .F. ) ;
#285 = CARTESIAN_POINT ( 'NONE',  ( -3.750000000000000000, 2.500000000000000000, -8.250000000000000000 ) ) ;
#286 = CARTESIAN_POINT ( 'NONE',  ( 8.750000000000000000, 2.500000000000000000, -8.250000000000000000 ) ) ;
#287 = AXIS2_PLACEMENT_3D ( 'NONE', #300, #191, #105 ) ;
#288 = LOCAL_TIME ( 21, 52, 57.00000000000000000, #134 ) ;
#289 = LINE ( 'NONE', #36, #103 ) ;
#290 = DIRECTION ( 'NONE',  ( 0.000000000000000000, -0.000000000000000000, -1.000000000000000000 ) ) ;
#291 = FACE_OUTER_BOUND ( 'NONE', #193, .T. ) ;
#292 = FACE_OUTER_BOUND ( 'NONE', #248, .T. ) ;
#293 = DIRECTION ( 'NONE',  ( 0.000000000000000000, 0.000000000000000000, 1.000000000000000000 ) ) ;
#294 = LINE ( 'NONE', #40, #34 ) ;
#295 = CALENDAR_DATE ( 2026, 26, 7 ) ;
#296 = DIRECTION ( 'NONE',  ( -0.000000000000000000, -1.000000000000000000, -0.000000000000000000 ) ) ;
#297 = PERSON_AND_ORGANIZATION ( #136, #81 ) ;
#298 = APPLICATION_PROTOCOL_DEFINITION ( 'international standard', 'config_control_design', 1994, #283 ) ;
#299 = APPLICATION_PROTOCOL_DEFINITION ( 'international standard', 'config_control_design', 1994, #307 ) ;
#300 = CARTESIAN_POINT ( 'NONE',  ( 0.000000000000000000, 0.000000000000000000, 0.000000000000000000 ) ) ;
#301 = ORIENTED_EDGE ( 'NONE', *, *, #175, .T. ) ;
#302 = ORIENTED_EDGE ( 'NONE', *, *, #137, .F. ) ;
#303 = AXIS2_PLACEMENT_3D ( 'NONE', #12, #348, #95 ) ;
#304 = CARTESIAN_POINT ( 'NONE',  ( -3.750000000000000000, 0.000000000000000000, -12.75000000000000000 ) ) ;
#305 = EDGE_LOOP ( 'NONE', ( #306, #331, #277, #85, #280, #167, #141, #22 ) ) ;
#306 = ORIENTED_EDGE ( 'NONE', *, *, #225, .F. ) ;
#307 = APPLICATION_CONTEXT ( 'configuration controlled 3d designs of mechanical parts and assemblies' ) ;
#308 = DIRECTION ( 'NONE',  ( -0.000000000000000000, -0.000000000000000000, 1.000000000000000000 ) ) ;
#309 = CC_DESIGN_DATE_AND_TIME_ASSIGNMENT ( #138, #363, ( #156 ) ) ;
#310 = VECTOR ( 'NONE', #247, 1000.000000000000000 ) ;
#311 = ORIENTED_EDGE ( 'NONE', *, *, #351, .T. ) ;
#312 = ADVANCED_FACE ( 'NONE', ( #292 ), #241, .F. ) ;
#313 = DIRECTION ( 'NONE',  ( 1.000000000000000000, -0.000000000000000000, 0.000000000000000000 ) ) ;
#314 = DIRECTION ( 'NONE',  ( 0.000000000000000000, 0.000000000000000000, -1.000000000000000000 ) ) ;
#315 = ADVANCED_FACE ( 'NONE', ( #291 ), #37, .F. ) ;
#316 = DIRECTION ( 'NONE',  ( 1.000000000000000000, 0.000000000000000000, -0.000000000000000000 ) ) ;
#317 = VECTOR ( 'NONE', #346, 1000.000000000000000 ) ;
#318 = DIRECTION ( 'NONE',  ( -1.000000000000000000, 0.000000000000000000, 0.000000000000000000 ) ) ;
#319 = LINE ( 'NONE', #217, #149 ) ;
#320 = CC_DESIGN_PERSON_AND_ORGANIZATION_ASSIGNMENT ( #297, #192, ( #156 ) ) ;
#321 = VECTOR ( 'NONE', #176, 1000.000000000000000 ) ;
#322 = ADVANCED_FACE ( 'NONE', ( #262 ), #213, .F. ) ;
#323 = FACE_OUTER_BOUND ( 'NONE', #335, .T. ) ;
#324 = UNCERTAINTY_MEASURE_WITH_UNIT (LENGTH_MEASURE( 1.000000000000000082E-05 ), #273, 'distance_accuracy_value', 'NONE');
#325 = LINE ( 'NONE', #148, #118 ) ;
#326 = PERSON_AND_ORGANIZATION_ROLE ( 'creator' ) ;
#327 = CALENDAR_DATE ( 2026, 26, 7 ) ;
#328 = CC_DESIGN_APPROVAL ( #338, ( #189 ) ) ;
#329 = MECHANICAL_CONTEXT ( 'NONE', #283, 'mechanical' ) ;
#330 = ORIENTED_EDGE ( 'NONE', *, *, #116, .T. ) ;
#331 = ORIENTED_EDGE ( 'NONE', *, *, #175, .F. ) ;
#332 = COORDINATED_UNIVERSAL_TIME_OFFSET ( 8, 0, .AHEAD. ) ;
#333 = EDGE_LOOP ( 'NONE', ( #224, #29, #229, #110 ) ) ;
#334 = VECTOR ( 'NONE', #263, 1000.000000000000000 ) ;
#335 = EDGE_LOOP ( 'NONE', ( #301, #169, #302, #336 ) ) ;
#336 = ORIENTED_EDGE ( 'NONE', *, *, #77, .T. ) ;
#337 = DATE_AND_TIME ( #113, #288 ) ;
#338 = APPROVAL ( #219, '未指定' ) ;
#339 = EDGE_CURVE ( 'NONE', #276, #197, #122, .T. ) ;
#340 = LINE ( 'NONE', #78, #275 ) ;
#341 = ORIENTED_EDGE ( 'NONE', *, *, #339, .F. ) ;
#342 = CARTESIAN_POINT ( 'NONE',  ( 0.7500000000000006661, 2.500000000000000000, -8.250000000000000000 ) ) ;
#343 = LINE ( 'NONE', #256, #74 ) ;
#344 = CARTESIAN_POINT ( 'NONE',  ( -8.750000000000000000, 2.500000000000000000, 12.75000000000000000 ) ) ;
#345 = CARTESIAN_POINT ( 'NONE',  ( 0.7500000000000006661, 2.500000000000000000, -8.250000000000000000 ) ) ;
#346 = DIRECTION ( 'NONE',  ( 0.000000000000000000, 0.000000000000000000, -1.000000000000000000 ) ) ;
#347 = LOCAL_TIME ( 21, 52, 57.00000000000000000, #223 ) ;
#348 = DIRECTION ( 'NONE',  ( 0.000000000000000000, 0.000000000000000000, 1.000000000000000000 ) ) ;
#349 = APPROVAL_PERSON_ORGANIZATION ( #198, #18, #367 ) ;
#350 = CARTESIAN_POINT ( 'NONE',  ( 0.7500000000000006661, 0.000000000000000000, 12.75000000000000000 ) ) ;
#351 = EDGE_CURVE ( 'NONE', #200, #369, #73, .T. ) ;
#352 = CARTESIAN_POINT ( 'NONE',  ( -3.750000000000000000, 2.500000000000000000, 12.75000000000000000 ) ) ;
#353 = LINE ( 'NONE', #235, #210 ) ;
#354 = MANIFOLD_SOLID_BREP ( '凸台-拉伸3', #128 ) ;
#355 = DIRECTION ( 'NONE',  ( -1.000000000000000000, -0.000000000000000000, -0.000000000000000000 ) ) ;
#356 = AXIS2_PLACEMENT_3D ( 'NONE', #181, #318, #293 ) ;
#357 = CARTESIAN_POINT ( 'NONE',  ( -8.750000000000000000, 2.500000000000000000, 8.250000000000000000 ) ) ;
#358 = APPROVAL_DATE_TIME ( #160, #338 ) ;
#359 = APPROVAL_DATE_TIME ( #130, #9 ) ;
#360 = APPROVAL_ROLE ( '' ) ;
#361 = CARTESIAN_POINT ( 'NONE',  ( 0.7500000000000006661, 0.000000000000000000, 12.75000000000000000 ) ) ;
#362 = ORIENTED_EDGE ( 'NONE', *, *, #47, .T. ) ;
#363 = DATE_TIME_ROLE ( 'creation_date' ) ;
#364 = VERTEX_POINT ( 'NONE', #361 ) ;
#365 = CARTESIAN_POINT ( 'NONE',  ( -8.750000000000000000, 2.500000000000000000, 8.250000000000000000 ) ) ;
#366 = ORIENTED_EDGE ( 'NONE', *, *, #125, .F. ) ;
#367 = APPROVAL_ROLE ( '' ) ;
#368 = ORIENTED_EDGE ( 'NONE', *, *, #157, .T. ) ;
#369 = VERTEX_POINT ( 'NONE', #42 ) ;
ENDSEC;
END-ISO-10303-21;
