ISO-10303-21;
HEADER;
FILE_DESCRIPTION (( 'STEP AP203' ),
    '1' );
FILE_NAME ('FN-PCB-004_carrier_ROTATED-CCW_4HOLE_R0.5.STEP',
    '2026-07-26T13:51:06',
    ( '' ),
    ( '' ),
    'SwSTEP 2.0',
    'SolidWorks 2022',
    '' );
FILE_SCHEMA (( 'CONFIG_CONTROL_DESIGN' ));
ENDSEC;

DATA;
#1 = ORIENTED_EDGE ( 'NONE', *, *, #380, .T. ) ;
#2 = DIRECTION ( 'NONE',  ( 0.000000000000000000, -1.000000000000000000, 0.000000000000000000 ) ) ;
#3 = VECTOR ( 'NONE', #39, 1000.000000000000000 ) ;
#4 = CARTESIAN_POINT ( 'NONE',  ( -57.50000000000000000, 1.600000000000000089, -85.00000000000000000 ) ) ;
#5 = VERTEX_POINT ( 'NONE', #123 ) ;
#6 = FACE_OUTER_BOUND ( 'NONE', #49, .T. ) ;
#7 = LINE ( 'NONE', #184, #524 ) ;
#8 = ORIENTED_EDGE ( 'NONE', *, *, #47, .F. ) ;
#9 = DIRECTION ( 'NONE',  ( 0.000000000000000000, -1.000000000000000000, 0.000000000000000000 ) ) ;
#10 = CARTESIAN_POINT ( 'NONE',  ( -57.50000000000000000, 1.600000000000000089, -85.00000000000000000 ) ) ;
#11 = LINE ( 'NONE', #4, #187 ) ;
#12 = ORIENTED_EDGE ( 'NONE', *, *, #16, .F. ) ;
#13 = DIRECTION ( 'NONE',  ( 0.000000000000000000, 1.000000000000000000, 0.000000000000000000 ) ) ;
#14 = CARTESIAN_POINT ( 'NONE',  ( 54.00000000000000000, 1.599999999999999867, 83.10000000000000853 ) ) ;
#15 = CIRCLE ( 'NONE', #229, 1.600000000000004086 ) ;
#16 = EDGE_CURVE ( 'NONE', #409, #243, #343, .T. ) ;
#17 = ORIENTED_EDGE ( 'NONE', *, *, #77, .F. ) ;
#18 = CIRCLE ( 'NONE', #318, 1.600000000000004086 ) ;
#19 = ORIENTED_EDGE ( 'NONE', *, *, #53, .T. ) ;
#20 = APPROVAL_ROLE ( '' ) ;
#21 = ORIENTED_EDGE ( 'NONE', *, *, #133, .F. ) ;
#22 = CARTESIAN_POINT ( 'NONE',  ( 57.50000000000000000, 1.600000000000000089, -85.00000000000000000 ) ) ;
#23 = ORIENTED_EDGE ( 'NONE', *, *, #419, .T. ) ;
#24 = CARTESIAN_POINT ( 'NONE',  ( 54.00000000000000000, 1.599999999999999867, 79.90000000000000568 ) ) ;
#25 = APPROVAL_ROLE ( '' ) ;
#26 = CIRCLE ( 'NONE', #381, 1.600000000000004086 ) ;
#27 = VERTEX_POINT ( 'NONE', #518 ) ;
#28 = DIRECTION ( 'NONE',  ( 0.000000000000000000, -1.000000000000000000, 0.000000000000000000 ) ) ;
#29 = DATE_AND_TIME ( #405, #454 ) ;
#30 = PERSON_AND_ORGANIZATION_ROLE ( 'design_supplier' ) ;
#31 = ADVANCED_FACE ( 'NONE', ( #157 ), #309, .F. ) ;
#32 = DATE_TIME_ROLE ( 'creation_date' ) ;
#33 = LINE ( 'NONE', #210, #166 ) ;
#34 = DIRECTION ( 'NONE',  ( 0.000000000000000000, 0.000000000000000000, 1.000000000000000000 ) ) ;
#35 = AXIS2_PLACEMENT_3D ( 'NONE', #222, #505, #143 ) ;
#36 = ORIENTED_EDGE ( 'NONE', *, *, #474, .T. ) ;
#37 = EDGE_CURVE ( 'NONE', #386, #368, #404, .T. ) ;
#38 = CARTESIAN_POINT ( 'NONE',  ( -54.00000000000000000, 0.000000000000000000, 81.50000000000000000 ) ) ;
#39 = DIRECTION ( 'NONE',  ( -0.000000000000000000, -1.000000000000000000, -0.000000000000000000 ) ) ;
#40 = ORIENTED_EDGE ( 'NONE', *, *, #42, .F. ) ;
#41 = CARTESIAN_POINT ( 'NONE',  ( -57.50000000000000000, 1.600000000000000089, -85.00000000000000000 ) ) ;
#42 = EDGE_CURVE ( 'NONE', #271, #194, #285, .T. ) ;
#43 = EDGE_LOOP ( 'NONE', ( #36, #169, #479, #332 ) ) ;
#44 = LINE ( 'NONE', #417, #403 ) ;
#45 = CARTESIAN_POINT ( 'NONE',  ( -57.50000000000000000, 1.600000000000000089, 85.00000000000000000 ) ) ;
#46 = ORIENTED_EDGE ( 'NONE', *, *, #297, .F. ) ;
#47 = EDGE_CURVE ( 'NONE', #83, #5, #137, .T. ) ;
#48 = APPROVAL_PERSON_ORGANIZATION ( #358, #136, #20 ) ;
#49 = EDGE_LOOP ( 'NONE', ( #58, #383, #92, #311 ) ) ;
#50 = EDGE_CURVE ( 'NONE', #254, #231, #329, .T. ) ;
#51 = LINE ( 'NONE', #382, #185 ) ;
#52 = CARTESIAN_POINT ( 'NONE',  ( 54.00000000000000000, 0.000000000000000000, -81.50000000000000000 ) ) ;
#53 = EDGE_CURVE ( 'NONE', #106, #482, #253, .T. ) ;
#54 = CARTESIAN_POINT ( 'NONE',  ( 54.00000000000000000, 1.599999999999999867, 81.50000000000000000 ) ) ;
#55 = EDGE_LOOP ( 'NONE', ( #429, #161 ) ) ;
#56 = DESIGN_CONTEXT ( 'detailed design', #119, 'design' ) ;
#57 = VECTOR ( 'NONE', #250, 1000.000000000000000 ) ;
#58 = ORIENTED_EDGE ( 'NONE', *, *, #506, .F. ) ;
#59 = AXIS2_PLACEMENT_3D ( 'NONE', #277, #28, #394 ) ;
#60 = DATE_AND_TIME ( #269, #370 ) ;
#61 = ORIENTED_EDGE ( 'NONE', *, *, #53, .F. ) ;
#62 = APPROVAL_STATUS ( 'not_yet_approved' ) ;
#63 = DIRECTION ( 'NONE',  ( 0.000000000000000000, -1.000000000000000000, 0.000000000000000000 ) ) ;
#64 = EDGE_LOOP ( 'NONE', ( #8, #198, #225, #447 ) ) ;
#65 = ORIENTED_EDGE ( 'NONE', *, *, #130, .F. ) ;
#66 = PLANE ( 'NONE',  #70 ) ;
#67 = COORDINATED_UNIVERSAL_TIME_OFFSET ( 8, 0, .AHEAD. ) ;
#68 = AXIS2_PLACEMENT_3D ( 'NONE', #360, #526, #75 ) ;
#69 = APPROVAL_ROLE ( '' ) ;
#70 = AXIS2_PLACEMENT_3D ( 'NONE', #439, #203, #489 ) ;
#71 = APPROVAL_DATE_TIME ( #317, #136 ) ;
#72 = EDGE_CURVE ( 'NONE', #260, #5, #359, .T. ) ;
#73 = DATE_AND_TIME ( #445, #221 ) ;
#74 = DIRECTION ( 'NONE',  ( 0.000000000000000000, 0.000000000000000000, -1.000000000000000000 ) ) ;
#75 = DIRECTION ( 'NONE',  ( 0.000000000000000000, 0.000000000000000000, 1.000000000000000000 ) ) ;
#76 = CARTESIAN_POINT ( 'NONE',  ( 54.00000000000000000, 0.000000000000000000, 81.50000000000000000 ) ) ;
#77 = EDGE_CURVE ( 'NONE', #27, #94, #261, .T. ) ;
#78 = AXIS2_PLACEMENT_3D ( 'NONE', #170, #220, #426 ) ;
#79 = AXIS2_PLACEMENT_3D ( 'NONE', #52, #13, #223 ) ;
#80 = DIRECTION ( 'NONE',  ( 0.000000000000000000, 0.000000000000000000, 1.000000000000000000 ) ) ;
#81 = CARTESIAN_POINT ( 'NONE',  ( -57.50000000000000000, 1.600000000000000089, 85.00000000000000000 ) ) ;
#82 = CARTESIAN_POINT ( 'NONE',  ( 54.00000000000000000, 3.600000000000000089, 83.10000000000000853 ) ) ;
#83 = VERTEX_POINT ( 'NONE', #418 ) ;
#84 = CARTESIAN_POINT ( 'NONE',  ( 54.00000000000000000, 3.600000000000000089, -83.10000000000000853 ) ) ;
#85 = PERSON ( '未指定', '未指定', '未指定', ('未指定'), ('未指定'), ('未指定') ) ;
#86 = DIRECTION ( 'NONE',  ( 0.000000000000000000, 0.000000000000000000, -1.000000000000000000 ) ) ;
#87 = DIRECTION ( 'NONE',  ( -0.000000000000000000, 1.000000000000000000, -0.000000000000000000 ) ) ;
#88 = ORIENTED_EDGE ( 'NONE', *, *, #47, .T. ) ;
#89 = DIRECTION ( 'NONE',  ( 0.000000000000000000, -1.000000000000000000, 0.000000000000000000 ) ) ;
#90 = PRODUCT_RELATED_PRODUCT_CATEGORY ( 'detail', '', ( #361 ) ) ;
#91 = FACE_OUTER_BOUND ( 'NONE', #181, .T. ) ;
#92 = ORIENTED_EDGE ( 'NONE', *, *, #313, .T. ) ;
#93 = EDGE_CURVE ( 'NONE', #485, #304, #378, .T. ) ;
#94 = VERTEX_POINT ( 'NONE', #294 ) ;
#95 = VECTOR ( 'NONE', #63, 1000.000000000000000 ) ;
#96 = APPLICATION_CONTEXT ( 'configuration controlled 3d designs of mechanical parts and assemblies' ) ;
#97 = ORIENTED_EDGE ( 'NONE', *, *, #342, .F. ) ;
#98 = ORIENTED_EDGE ( 'NONE', *, *, #438, .F. ) ;
#99 = AXIS2_PLACEMENT_3D ( 'NONE', #371, #173, #468 ) ;
#100 = AXIS2_PLACEMENT_3D ( 'NONE', #432, #149, #487 ) ;
#101 = AXIS2_PLACEMENT_3D ( 'NONE', #76, #247, #34 ) ;
#102 = CYLINDRICAL_SURFACE ( 'NONE', #471, 1.600000000000004086 ) ;
#103 = ORIENTED_EDGE ( 'NONE', *, *, #16, .T. ) ;
#104 = DATE_TIME_ROLE ( 'classification_date' ) ;
#105 =( NAMED_UNIT ( * ) PLANE_ANGLE_UNIT ( ) SI_UNIT ( $, .RADIAN. ) );
#106 = VERTEX_POINT ( 'NONE', #14 ) ;
#107 = CARTESIAN_POINT ( 'NONE',  ( 54.00000000000000000, 3.600000000000000089, -81.50000000000000000 ) ) ;
#108 = PERSON_AND_ORGANIZATION ( #85, #467 ) ;
#109 = ORIENTED_EDGE ( 'NONE', *, *, #506, .T. ) ;
#110 = DIRECTION ( 'NONE',  ( 0.000000000000000000, -1.000000000000000000, 0.000000000000000000 ) ) ;
#111 = VECTOR ( 'NONE', #140, 1000.000000000000000 ) ;
#112 = ORIENTED_EDGE ( 'NONE', *, *, #50, .F. ) ;
#113 = AXIS2_PLACEMENT_3D ( 'NONE', #45, #218, #259 ) ;
#114 = EDGE_CURVE ( 'NONE', #330, #254, #11, .T. ) ;
#115 = FACE_OUTER_BOUND ( 'NONE', #171, .T. ) ;
#116 = CIRCLE ( 'NONE', #209, 1.600000000000004086 ) ;
#117 = DIRECTION ( 'NONE',  ( 0.000000000000000000, 0.000000000000000000, -1.000000000000000000 ) ) ;
#118 = CARTESIAN_POINT ( 'NONE',  ( 54.00000000000000000, 0.000000000000000000, 83.10000000000000853 ) ) ;
#119 = APPLICATION_CONTEXT ( 'configuration controlled 3d designs of mechanical parts and assemblies' ) ;
#120 = CYLINDRICAL_SURFACE ( 'NONE', #424, 1.600000000000004086 ) ;
#121 = EDGE_LOOP ( 'NONE', ( #103, #296 ) ) ;
#122 = LINE ( 'NONE', #423, #527 ) ;
#123 = CARTESIAN_POINT ( 'NONE',  ( -54.00000000000000000, 0.000000000000000000, 83.10000000000000853 ) ) ;
#124 = AXIS2_PLACEMENT_3D ( 'NONE', #212, #461, #86 ) ;
#125 = CC_DESIGN_APPROVAL ( #136, ( #514 ) ) ;
#126 = CARTESIAN_POINT ( 'NONE',  ( -57.50000000000000000, 1.600000000000000089, 85.00000000000000000 ) ) ;
#127 = ORIENTED_EDGE ( 'NONE', *, *, #156, .F. ) ;
#128 = DIRECTION ( 'NONE',  ( 0.000000000000000000, 0.000000000000000000, -1.000000000000000000 ) ) ;
#129 = FACE_OUTER_BOUND ( 'NONE', #189, .T. ) ;
#130 = EDGE_CURVE ( 'NONE', #386, #231, #289, .T. ) ;
#131 = DIRECTION ( 'NONE',  ( 0.000000000000000000, 0.000000000000000000, -1.000000000000000000 ) ) ;
#132 = CARTESIAN_POINT ( 'NONE',  ( 57.50000000000000000, 1.600000000000000089, -85.00000000000000000 ) ) ;
#133 = EDGE_CURVE ( 'NONE', #482, #497, #451, .T. ) ;
#134 = VECTOR ( 'NONE', #213, 1000.000000000000000 ) ;
#135 = ORIENTED_EDGE ( 'NONE', *, *, #232, .F. ) ;
#136 = APPROVAL ( #165, '未指定' ) ;
#137 = LINE ( 'NONE', #335, #111 ) ;
#138 = VECTOR ( 'NONE', #192, 1000.000000000000000 ) ;
#139 = ORIENTED_EDGE ( 'NONE', *, *, #168, .T. ) ;
#140 = DIRECTION ( 'NONE',  ( 0.000000000000000000, -1.000000000000000000, 0.000000000000000000 ) ) ;
#141 = EDGE_CURVE ( 'NONE', #5, #260, #336, .T. ) ;
#142 = ORIENTED_EDGE ( 'NONE', *, *, #474, .F. ) ;
#143 = DIRECTION ( 'NONE',  ( 0.000000000000000000, -0.000000000000000000, -1.000000000000000000 ) ) ;
#144 = VECTOR ( 'NONE', #441, 1000.000000000000000 ) ;
#145 = ORIENTED_EDGE ( 'NONE', *, *, #114, .T. ) ;
#146 = SHAPE_DEFINITION_REPRESENTATION ( #459, #264 ) ;
#147 = ORIENTED_EDGE ( 'NONE', *, *, #324, .T. ) ;
#148 = APPROVAL_DATE_TIME ( #60, #391 ) ;
#149 = DIRECTION ( 'NONE',  ( 0.000000000000000000, 1.000000000000000000, 0.000000000000000000 ) ) ;
#150 = EDGE_LOOP ( 'NONE', ( #17, #528 ) ) ;
#151 = VECTOR ( 'NONE', #347, 1000.000000000000000 ) ;
#152 = CALENDAR_DATE ( 2026, 26, 7 ) ;
#153 = DIRECTION ( 'NONE',  ( 0.000000000000000000, 0.000000000000000000, -1.000000000000000000 ) ) ;
#154 = CARTESIAN_POINT ( 'NONE',  ( -57.50000000000000000, 0.000000000000000000, -85.00000000000000000 ) ) ;
#155 = PERSON_AND_ORGANIZATION ( #85, #467 ) ;
#156 = EDGE_CURVE ( 'NONE', #248, #106, #182, .T. ) ;
#157 = FACE_OUTER_BOUND ( 'NONE', #523, .T. ) ;
#158 =( LENGTH_UNIT ( ) NAMED_UNIT ( * ) SI_UNIT ( .MILLI., .METRE. ) );
#159 = EDGE_LOOP ( 'NONE', ( #112, #142, #301, #494 ) ) ;
#160 = FACE_OUTER_BOUND ( 'NONE', #503, .T. ) ;
#161 = ORIENTED_EDGE ( 'NONE', *, *, #141, .T. ) ;
#162 = CARTESIAN_POINT ( 'NONE',  ( 0.000000000000000000, 0.000000000000000000, 0.000000000000000000 ) ) ;
#163 = LINE ( 'NONE', #320, #138 ) ;
#164 = VECTOR ( 'NONE', #374, 1000.000000000000000 ) ;
#165 = APPROVAL_STATUS ( 'not_yet_approved' ) ;
#166 = VECTOR ( 'NONE', #207, 1000.000000000000000 ) ;
#167 = CARTESIAN_POINT ( 'NONE',  ( 54.00000000000000000, 1.599999999999999867, -81.50000000000000000 ) ) ;
#168 = EDGE_CURVE ( 'NONE', #235, #304, #7, .T. ) ;
#169 = ORIENTED_EDGE ( 'NONE', *, *, #114, .F. ) ;
#170 = CARTESIAN_POINT ( 'NONE',  ( 54.00000000000000000, 1.599999999999999867, -81.50000000000000000 ) ) ;
#171 = EDGE_LOOP ( 'NONE', ( #61, #302, #390, #21 ) ) ;
#172 = CARTESIAN_POINT ( 'NONE',  ( -54.00000000000000000, 1.599999999999999867, -81.50000000000000000 ) ) ;
#173 = DIRECTION ( 'NONE',  ( 0.000000000000000000, 1.000000000000000000, 0.000000000000000000 ) ) ;
#174 = CYLINDRICAL_SURFACE ( 'NONE', #268, 1.600000000000004086 ) ;
#175 = DIRECTION ( 'NONE',  ( -1.000000000000000000, -0.000000000000000000, -0.000000000000000000 ) ) ;
#176 = EDGE_LOOP ( 'NONE', ( #449, #344 ) ) ;
#177 = FACE_BOUND ( 'NONE', #208, .T. ) ;
#178 = CYLINDRICAL_SURFACE ( 'NONE', #124, 1.600000000000004086 ) ;
#179 = ADVANCED_FACE ( 'NONE', ( #129 ), #178, .F. ) ;
#180 = CLOSED_SHELL ( 'NONE', ( #511, #287, #31, #196, #252, #183, #267, #315, #462, #401, #251, #179, #428, #532 ) ) ;
#181 = EDGE_LOOP ( 'NONE', ( #372, #98, #427, #379 ) ) ;
#182 = CIRCLE ( 'NONE', #226, 1.600000000000004086 ) ;
#183 = ADVANCED_FACE ( 'NONE', ( #91 ), #255, .F. ) ;
#184 = CARTESIAN_POINT ( 'NONE',  ( 57.50000000000000000, 0.000000000000000000, 85.00000000000000000 ) ) ;
#185 = VECTOR ( 'NONE', #299, 1000.000000000000000 ) ;
#186 = FACE_BOUND ( 'NONE', #433, .T. ) ;
#187 = VECTOR ( 'NONE', #325, 1000.000000000000000 ) ;
#188 = CIRCLE ( 'NONE', #100, 1.600000000000004086 ) ;
#189 = EDGE_LOOP ( 'NONE', ( #362, #411, #23, #135 ) ) ;
#190 = EDGE_CURVE ( 'NONE', #485, #330, #421, .T. ) ;
#191 = CARTESIAN_POINT ( 'NONE',  ( 54.00000000000000000, 3.600000000000000089, 81.50000000000000000 ) ) ;
#192 = DIRECTION ( 'NONE',  ( 0.000000000000000000, 0.000000000000000000, -1.000000000000000000 ) ) ;
#193 = MANIFOLD_SOLID_BREP ( '切除-拉伸1', #180 ) ;
#194 = VERTEX_POINT ( 'NONE', #216 ) ;
#195 = CARTESIAN_POINT ( 'NONE',  ( -57.50000000000000000, 0.000000000000000000, 85.00000000000000000 ) ) ;
#196 = ADVANCED_FACE ( 'NONE', ( #504 ), #365, .F. ) ;
#197 = AXIS2_PLACEMENT_3D ( 'NONE', #38, #292, #80 ) ;
#198 = ORIENTED_EDGE ( 'NONE', *, *, #342, .T. ) ;
#199 = AXIS2_PLACEMENT_3D ( 'NONE', #272, #236, #117 ) ;
#200 = ORIENTED_EDGE ( 'NONE', *, *, #334, .F. ) ;
#201 = AXIS2_PLACEMENT_3D ( 'NONE', #162, #519, #310 ) ;
#202 = EDGE_LOOP ( 'NONE', ( #139, #326, #509, #282 ) ) ;
#203 = DIRECTION ( 'NONE',  ( -1.000000000000000000, 0.000000000000000000, 0.000000000000000000 ) ) ;
#204 = APPROVAL_DATE_TIME ( #29, #490 ) ;
#205 = EDGE_LOOP ( 'NONE', ( #265, #65, #46, #145 ) ) ;
#206 = CYLINDRICAL_SURFACE ( 'NONE', #300, 1.600000000000004086 ) ;
#207 = DIRECTION ( 'NONE',  ( 0.000000000000000000, -1.000000000000000000, 0.000000000000000000 ) ) ;
#208 = EDGE_LOOP ( 'NONE', ( #147, #500 ) ) ;
#209 = AXIS2_PLACEMENT_3D ( 'NONE', #167, #323, #331 ) ;
#210 = CARTESIAN_POINT ( 'NONE',  ( -54.00000000000000000, 3.600000000000000089, -83.10000000000000853 ) ) ;
#211 = CARTESIAN_POINT ( 'NONE',  ( 0.000000000000000000, 0.000000000000000000, 0.000000000000000000 ) ) ;
#212 = CARTESIAN_POINT ( 'NONE',  ( 54.00000000000000000, 3.600000000000000089, -81.50000000000000000 ) ) ;
#213 = DIRECTION ( 'NONE',  ( -0.000000000000000000, -1.000000000000000000, -0.000000000000000000 ) ) ;
#214 = CARTESIAN_POINT ( 'NONE',  ( 57.50000000000000000, 1.600000000000000089, 85.00000000000000000 ) ) ;
#215 = VECTOR ( 'NONE', #412, 1000.000000000000000 ) ;
#216 = CARTESIAN_POINT ( 'NONE',  ( 54.00000000000000000, 1.599999999999999867, -83.10000000000000853 ) ) ;
#217 = DIRECTION ( 'NONE',  ( 0.000000000000000000, -0.000000000000000000, -1.000000000000000000 ) ) ;
#218 = DIRECTION ( 'NONE',  ( 0.000000000000000000, 0.000000000000000000, -1.000000000000000000 ) ) ;
#219 = EDGE_LOOP ( 'NONE', ( #1, #88, #393, #507 ) ) ;
#220 = DIRECTION ( 'NONE',  ( -0.000000000000000000, 1.000000000000000000, -0.000000000000000000 ) ) ;
#221 = LOCAL_TIME ( 21, 51, 6.000000000000000000, #314 ) ;
#222 = CARTESIAN_POINT ( 'NONE',  ( 0.000000000000000000, 1.600000000000000089, 0.000000000000000000 ) ) ;
#223 = DIRECTION ( 'NONE',  ( 0.000000000000000000, 0.000000000000000000, 1.000000000000000000 ) ) ;
#224 = DIRECTION ( 'NONE',  ( -0.000000000000000000, 1.000000000000000000, -0.000000000000000000 ) ) ;
#225 = ORIENTED_EDGE ( 'NONE', *, *, #375, .T. ) ;
#226 = AXIS2_PLACEMENT_3D ( 'NONE', #491, #452, #496 ) ;
#227 = EDGE_LOOP ( 'NONE', ( #127, #200 ) ) ;
#228 = CC_DESIGN_DATE_AND_TIME_ASSIGNMENT ( #73, #32, ( #283 ) ) ;
#229 = AXIS2_PLACEMENT_3D ( 'NONE', #495, #456, #366 ) ;
#230 = ORIENTED_EDGE ( 'NONE', *, *, #313, .F. ) ;
#231 = VERTEX_POINT ( 'NONE', #356 ) ;
#232 = EDGE_CURVE ( 'NONE', #437, #476, #399, .T. ) ;
#233 = CARTESIAN_POINT ( 'NONE',  ( 54.00000000000000000, 0.000000000000000000, 79.90000000000000568 ) ) ;
#234 = CARTESIAN_POINT ( 'NONE',  ( -54.00000000000000000, 1.599999999999999867, 81.50000000000000000 ) ) ;
#235 = VERTEX_POINT ( 'NONE', #305 ) ;
#236 = DIRECTION ( 'NONE',  ( 0.000000000000000000, -1.000000000000000000, 0.000000000000000000 ) ) ;
#237 = ORIENTED_EDGE ( 'NONE', *, *, #190, .T. ) ;
#238 = LINE ( 'NONE', #483, #363 ) ;
#239 = DIRECTION ( 'NONE',  ( 0.000000000000000000, 0.000000000000000000, -1.000000000000000000 ) ) ;
#240 = AXIS2_PLACEMENT_3D ( 'NONE', #234, #87, #288 ) ;
#241 = COORDINATED_UNIVERSAL_TIME_OFFSET ( 8, 0, .AHEAD. ) ;
#242 = FACE_OUTER_BOUND ( 'NONE', #205, .T. ) ;
#243 = VERTEX_POINT ( 'NONE', #520 ) ;
#244 =( NAMED_UNIT ( * ) SI_UNIT ( $, .STERADIAN. ) SOLID_ANGLE_UNIT ( ) );
#245 = CARTESIAN_POINT ( 'NONE',  ( -57.50000000000000000, 1.600000000000000089, 85.00000000000000000 ) ) ;
#246 = APPROVAL_STATUS ( 'not_yet_approved' ) ;
#247 = DIRECTION ( 'NONE',  ( 0.000000000000000000, 1.000000000000000000, 0.000000000000000000 ) ) ;
#248 = VERTEX_POINT ( 'NONE', #24 ) ;
#249 = CC_DESIGN_APPROVAL ( #490, ( #283 ) ) ;
#250 = DIRECTION ( 'NONE',  ( 0.000000000000000000, -1.000000000000000000, 0.000000000000000000 ) ) ;
#251 = ADVANCED_FACE ( 'NONE', ( #321 ), #413, .F. ) ;
#252 = ADVANCED_FACE ( 'NONE', ( #242 ), #350, .F. ) ;
#253 = LINE ( 'NONE', #82, #57 ) ;
#254 = VERTEX_POINT ( 'NONE', #154 ) ;
#255 = PLANE ( 'NONE',  #113 ) ;
#256 = FACE_OUTER_BOUND ( 'NONE', #159, .T. ) ;
#257 = DIRECTION ( 'NONE',  ( -0.000000000000000000, -0.000000000000000000, 1.000000000000000000 ) ) ;
#258 = ORIENTED_EDGE ( 'NONE', *, *, #357, .T. ) ;
#259 = DIRECTION ( 'NONE',  ( -1.000000000000000000, 0.000000000000000000, -0.000000000000000000 ) ) ;
#260 = VERTEX_POINT ( 'NONE', #308 ) ;
#261 = CIRCLE ( 'NONE', #420, 1.600000000000004086 ) ;
#262 = FACE_BOUND ( 'NONE', #349, .T. ) ;
#263 = CARTESIAN_POINT ( 'NONE',  ( -57.50000000000000000, 1.600000000000000089, -85.00000000000000000 ) ) ;
#264 = ADVANCED_BREP_SHAPE_REPRESENTATION ( 'FN-PCB-004_carrier_ROTATED-CCW_4HOLE_R0.5', ( #193, #201 ), #488 ) ;
#265 = ORIENTED_EDGE ( 'NONE', *, *, #50, .T. ) ;
#266 = EDGE_CURVE ( 'NONE', #271, #437, #238, .T. ) ;
#267 = ADVANCED_FACE ( 'NONE', ( #273 ), #66, .F. ) ;
#268 = AXIS2_PLACEMENT_3D ( 'NONE', #498, #293, #131 ) ;
#269 = CALENDAR_DATE ( 2026, 26, 7 ) ;
#270 = CARTESIAN_POINT ( 'NONE',  ( 54.00000000000000000, 3.600000000000000089, 81.50000000000000000 ) ) ;
#271 = VERTEX_POINT ( 'NONE', #354 ) ;
#272 = CARTESIAN_POINT ( 'NONE',  ( -54.00000000000000000, 3.600000000000000089, 81.50000000000000000 ) ) ;
#273 = FACE_OUTER_BOUND ( 'NONE', #202, .T. ) ;
#274 = DIRECTION ( 'NONE',  ( 0.000000000000000000, -1.000000000000000000, 0.000000000000000000 ) ) ;
#275 = APPLICATION_PROTOCOL_DEFINITION ( 'international standard', 'config_control_design', 1994, #119 ) ;
#276 = ORIENTED_EDGE ( 'NONE', *, *, #419, .F. ) ;
#277 = CARTESIAN_POINT ( 'NONE',  ( -54.00000000000000000, 3.600000000000000089, 81.50000000000000000 ) ) ;
#278 = AXIS2_PLACEMENT_3D ( 'NONE', #522, #516, #316 ) ;
#279 = PERSON_AND_ORGANIZATION ( #85, #467 ) ;
#280 = DIRECTION ( 'NONE',  ( 0.000000000000000000, 0.000000000000000000, -1.000000000000000000 ) ) ;
#281 = LINE ( 'NONE', #245, #144 ) ;
#282 = ORIENTED_EDGE ( 'NONE', *, *, #438, .T. ) ;
#283 = PRODUCT_DEFINITION ( '未知', '', #514, #56 ) ;
#284 = FACE_BOUND ( 'NONE', #176, .T. ) ;
#285 = CIRCLE ( 'NONE', #78, 1.600000000000004086 ) ;
#286 = CARTESIAN_POINT ( 'NONE',  ( -54.00000000000000000, 0.000000000000000000, -81.50000000000000000 ) ) ;
#287 = ADVANCED_FACE ( 'NONE', ( #160 ), #120, .F. ) ;
#288 = DIRECTION ( 'NONE',  ( 0.000000000000000000, 0.000000000000000000, -1.000000000000000000 ) ) ;
#289 = LINE ( 'NONE', #126, #134 ) ;
#290 = ORIENTED_EDGE ( 'NONE', *, *, #77, .T. ) ;
#291 = CARTESIAN_POINT ( 'NONE',  ( -54.00000000000000000, 0.000000000000000000, -83.10000000000000853 ) ) ;
#292 = DIRECTION ( 'NONE',  ( 0.000000000000000000, 1.000000000000000000, 0.000000000000000000 ) ) ;
#293 = DIRECTION ( 'NONE',  ( 0.000000000000000000, -1.000000000000000000, 0.000000000000000000 ) ) ;
#294 = CARTESIAN_POINT ( 'NONE',  ( -54.00000000000000000, 1.599999999999999867, -79.90000000000000568 ) ) ;
#295 = EDGE_CURVE ( 'NONE', #497, #482, #338, .T. ) ;
#296 = ORIENTED_EDGE ( 'NONE', *, *, #481, .T. ) ;
#297 = EDGE_CURVE ( 'NONE', #330, #386, #281, .T. ) ;
#298 = VECTOR ( 'NONE', #257, 1000.000000000000000 ) ;
#299 = DIRECTION ( 'NONE',  ( -1.000000000000000000, -0.000000000000000000, -0.000000000000000000 ) ) ;
#300 = AXIS2_PLACEMENT_3D ( 'NONE', #270, #392, #280 ) ;
#301 = ORIENTED_EDGE ( 'NONE', *, *, #168, .F. ) ;
#302 = ORIENTED_EDGE ( 'NONE', *, *, #334, .T. ) ;
#303 = FACE_OUTER_BOUND ( 'NONE', #402, .T. ) ;
#304 = VERTEX_POINT ( 'NONE', #446 ) ;
#305 = CARTESIAN_POINT ( 'NONE',  ( 57.50000000000000000, 0.000000000000000000, 85.00000000000000000 ) ) ;
#306 = AXIS2_PLACEMENT_3D ( 'NONE', #211, #2, #217 ) ;
#307 = DATE_AND_TIME ( #152, #493 ) ;
#308 = CARTESIAN_POINT ( 'NONE',  ( -54.00000000000000000, 0.000000000000000000, 79.90000000000000568 ) ) ;
#309 = CYLINDRICAL_SURFACE ( 'NONE', #397, 1.600000000000004086 ) ;
#310 = DIRECTION ( 'NONE',  ( 1.000000000000000000, 0.000000000000000000, 0.000000000000000000 ) ) ;
#311 = ORIENTED_EDGE ( 'NONE', *, *, #481, .F. ) ;
#312 = CARTESIAN_POINT ( 'NONE',  ( -57.50000000000000000, 1.600000000000000089, 85.00000000000000000 ) ) ;
#313 = EDGE_CURVE ( 'NONE', #27, #409, #33, .T. ) ;
#314 = COORDINATED_UNIVERSAL_TIME_OFFSET ( 8, 0, .AHEAD. ) ;
#315 = ADVANCED_FACE ( 'NONE', ( #407 ), #460, .F. ) ;
#316 = DIRECTION ( 'NONE',  ( 0.000000000000000000, 0.000000000000000000, -1.000000000000000000 ) ) ;
#317 = DATE_AND_TIME ( #486, #352 ) ;
#318 = AXIS2_PLACEMENT_3D ( 'NONE', #54, #224, #74 ) ;
#319 = CC_DESIGN_DATE_AND_TIME_ASSIGNMENT ( #307, #104, ( #431 ) ) ;
#320 = CARTESIAN_POINT ( 'NONE',  ( 57.50000000000000000, 1.600000000000000089, 85.00000000000000000 ) ) ;
#321 = FACE_OUTER_BOUND ( 'NONE', #64, .T. ) ;
#322 = EDGE_LOOP ( 'NONE', ( #443, #469, #337, #237 ) ) ;
#323 = DIRECTION ( 'NONE',  ( -0.000000000000000000, 1.000000000000000000, -0.000000000000000000 ) ) ;
#324 = EDGE_CURVE ( 'NONE', #476, #437, #328, .T. ) ;
#325 = DIRECTION ( 'NONE',  ( -0.000000000000000000, -1.000000000000000000, -0.000000000000000000 ) ) ;
#326 = ORIENTED_EDGE ( 'NONE', *, *, #93, .F. ) ;
#327 = DIRECTION ( 'NONE',  ( -0.000000000000000000, 1.000000000000000000, -0.000000000000000000 ) ) ;
#328 = CIRCLE ( 'NONE', #79, 1.600000000000004086 ) ;
#329 = LINE ( 'NONE', #533, #298 ) ;
#330 = VERTEX_POINT ( 'NONE', #263 ) ;
#331 = DIRECTION ( 'NONE',  ( 0.000000000000000000, 0.000000000000000000, -1.000000000000000000 ) ) ;
#332 = ORIENTED_EDGE ( 'NONE', *, *, #93, .T. ) ;
#333 = PLANE ( 'NONE',  #306 ) ;
#334 = EDGE_CURVE ( 'NONE', #106, #248, #18, .T. ) ;
#335 = CARTESIAN_POINT ( 'NONE',  ( -54.00000000000000000, 3.600000000000000089, 83.10000000000000853 ) ) ;
#336 = CIRCLE ( 'NONE', #99, 1.600000000000004086 ) ;
#337 = ORIENTED_EDGE ( 'NONE', *, *, #341, .T. ) ;
#338 = CIRCLE ( 'NONE', #101, 1.600000000000004086 ) ;
#339 = DIRECTION ( 'NONE',  ( 0.000000000000000000, 1.000000000000000000, 0.000000000000000000 ) ) ;
#340 = PLANE ( 'NONE',  #35 ) ;
#341 = EDGE_CURVE ( 'NONE', #368, #485, #163, .T. ) ;
#342 = EDGE_CURVE ( 'NONE', #83, #422, #442, .T. ) ;
#343 = CIRCLE ( 'NONE', #384, 1.600000000000004086 ) ;
#344 = ORIENTED_EDGE ( 'NONE', *, *, #133, .T. ) ;
#345 = AXIS2_PLACEMENT_3D ( 'NONE', #10, #473, #346 ) ;
#346 = DIRECTION ( 'NONE',  ( 1.000000000000000000, 0.000000000000000000, -0.000000000000000000 ) ) ;
#347 = DIRECTION ( 'NONE',  ( 1.000000000000000000, 0.000000000000000000, 0.000000000000000000 ) ) ;
#348 = LINE ( 'NONE', #195, #151 ) ;
#349 = EDGE_LOOP ( 'NONE', ( #475, #40 ) ) ;
#350 = PLANE ( 'NONE',  #278 ) ;
#351 = SECURITY_CLASSIFICATION_LEVEL ( 'unclassified' ) ;
#352 = LOCAL_TIME ( 21, 51, 6.000000000000000000, #67 ) ;
#353 = DIRECTION ( 'NONE',  ( 0.000000000000000000, 0.000000000000000000, 1.000000000000000000 ) ) ;
#354 = CARTESIAN_POINT ( 'NONE',  ( 54.00000000000000000, 1.599999999999999867, -79.90000000000000568 ) ) ;
#355 = PERSON_AND_ORGANIZATION_ROLE ( 'creator' ) ;
#356 = CARTESIAN_POINT ( 'NONE',  ( -57.50000000000000000, 0.000000000000000000, 85.00000000000000000 ) ) ;
#357 = EDGE_CURVE ( 'NONE', #194, #271, #116, .T. ) ;
#358 = PERSON_AND_ORGANIZATION ( #85, #467 ) ;
#359 = CIRCLE ( 'NONE', #197, 1.600000000000004086 ) ;
#360 = CARTESIAN_POINT ( 'NONE',  ( 54.00000000000000000, 0.000000000000000000, -81.50000000000000000 ) ) ;
#361 = PRODUCT ( 'FN-PCB-004_carrier_ROTATED-CCW_4HOLE_R0.5', 'FN-PCB-004_carrier_ROTATED-CCW_4HOLE_R0.5', '', ( #484 ) ) ;
#362 = ORIENTED_EDGE ( 'NONE', *, *, #266, .F. ) ;
#363 = VECTOR ( 'NONE', #410, 1000.000000000000000 ) ;
#364 = DIRECTION ( 'NONE',  ( 0.000000000000000000, 0.000000000000000000, -1.000000000000000000 ) ) ;
#365 = CYLINDRICAL_SURFACE ( 'NONE', #199, 1.600000000000004086 ) ;
#366 = DIRECTION ( 'NONE',  ( 0.000000000000000000, 0.000000000000000000, -1.000000000000000000 ) ) ;
#367 = CARTESIAN_POINT ( 'NONE',  ( 54.00000000000000000, 0.000000000000000000, 81.50000000000000000 ) ) ;
#368 = VERTEX_POINT ( 'NONE', #214 ) ;
#369 = CARTESIAN_POINT ( 'NONE',  ( -54.00000000000000000, 1.599999999999999867, 79.90000000000000568 ) ) ;
#370 = LOCAL_TIME ( 21, 51, 6.000000000000000000, #531 ) ;
#371 = CARTESIAN_POINT ( 'NONE',  ( -54.00000000000000000, 0.000000000000000000, 81.50000000000000000 ) ) ;
#372 = ORIENTED_EDGE ( 'NONE', *, *, #492, .T. ) ;
#373 = FACE_BOUND ( 'NONE', #121, .T. ) ;
#374 = DIRECTION ( 'NONE',  ( 1.000000000000000000, 0.000000000000000000, 0.000000000000000000 ) ) ;
#375 = EDGE_CURVE ( 'NONE', #422, #260, #122, .T. ) ;
#376 = CC_DESIGN_PERSON_AND_ORGANIZATION_ASSIGNMENT ( #279, #30, ( #514 ) ) ;
#377 = ORIENTED_EDGE ( 'NONE', *, *, #387, .F. ) ;
#378 = LINE ( 'NONE', #132, #3 ) ;
#379 = ORIENTED_EDGE ( 'NONE', *, *, #130, .T. ) ;
#380 = EDGE_CURVE ( 'NONE', #422, #83, #15, .T. ) ;
#381 = AXIS2_PLACEMENT_3D ( 'NONE', #172, #327, #128 ) ;
#382 = CARTESIAN_POINT ( 'NONE',  ( -57.50000000000000000, 0.000000000000000000, -85.00000000000000000 ) ) ;
#383 = ORIENTED_EDGE ( 'NONE', *, *, #406, .T. ) ;
#384 = AXIS2_PLACEMENT_3D ( 'NONE', #286, #396, #353 ) ;
#385 = VECTOR ( 'NONE', #175, 1000.000000000000000 ) ;
#386 = VERTEX_POINT ( 'NONE', #81 ) ;
#387 = EDGE_CURVE ( 'NONE', #248, #497, #44, .T. ) ;
#388 = ORIENTED_EDGE ( 'NONE', *, *, #324, .F. ) ;
#389 = FACE_BOUND ( 'NONE', #150, .T. ) ;
#390 = ORIENTED_EDGE ( 'NONE', *, *, #387, .T. ) ;
#391 = APPROVAL ( #62, '未指定' ) ;
#392 = DIRECTION ( 'NONE',  ( 0.000000000000000000, -1.000000000000000000, 0.000000000000000000 ) ) ;
#393 = ORIENTED_EDGE ( 'NONE', *, *, #72, .F. ) ;
#394 = DIRECTION ( 'NONE',  ( 0.000000000000000000, 0.000000000000000000, -1.000000000000000000 ) ) ;
#395 = PERSON_AND_ORGANIZATION ( #85, #467 ) ;
#396 = DIRECTION ( 'NONE',  ( 0.000000000000000000, 1.000000000000000000, 0.000000000000000000 ) ) ;
#397 = AXIS2_PLACEMENT_3D ( 'NONE', #107, #274, #239 ) ;
#398 = PERSON_AND_ORGANIZATION ( #85, #467 ) ;
#399 = CIRCLE ( 'NONE', #68, 1.600000000000004086 ) ;
#400 = APPLICATION_PROTOCOL_DEFINITION ( 'international standard', 'config_control_design', 1994, #96 ) ;
#401 = ADVANCED_FACE ( 'NONE', ( #284, #373, #177, #450, #256 ), #333, .T. ) ;
#402 = EDGE_LOOP ( 'NONE', ( #430, #19, #515, #377 ) ) ;
#403 = VECTOR ( 'NONE', #415, 1000.000000000000000 ) ;
#404 = LINE ( 'NONE', #312, #164 ) ;
#405 = CALENDAR_DATE ( 2026, 26, 7 ) ;
#406 = EDGE_CURVE ( 'NONE', #94, #27, #26, .T. ) ;
#407 = FACE_OUTER_BOUND ( 'NONE', #43, .T. ) ;
#408 = PERSON_AND_ORGANIZATION_ROLE ( 'creator' ) ;
#409 = VERTEX_POINT ( 'NONE', #291 ) ;
#410 = DIRECTION ( 'NONE',  ( 0.000000000000000000, -1.000000000000000000, 0.000000000000000000 ) ) ;
#411 = ORIENTED_EDGE ( 'NONE', *, *, #42, .T. ) ;
#412 = DIRECTION ( 'NONE',  ( -0.000000000000000000, -1.000000000000000000, -0.000000000000000000 ) ) ;
#413 = CYLINDRICAL_SURFACE ( 'NONE', #59, 1.600000000000004086 ) ;
#414 = VECTOR ( 'NONE', #9, 1000.000000000000000 ) ;
#415 = DIRECTION ( 'NONE',  ( 0.000000000000000000, -1.000000000000000000, 0.000000000000000000 ) ) ;
#416 = DIRECTION ( 'NONE',  ( 0.000000000000000000, 0.000000000000000000, 1.000000000000000000 ) ) ;
#417 = CARTESIAN_POINT ( 'NONE',  ( 54.00000000000000000, 3.600000000000000089, 79.90000000000000568 ) ) ;
#418 = CARTESIAN_POINT ( 'NONE',  ( -54.00000000000000000, 1.599999999999999867, 83.10000000000000853 ) ) ;
#419 = EDGE_CURVE ( 'NONE', #194, #476, #458, .T. ) ;
#420 = AXIS2_PLACEMENT_3D ( 'NONE', #499, #464, #502 ) ;
#421 = LINE ( 'NONE', #41, #385 ) ;
#422 = VERTEX_POINT ( 'NONE', #369 ) ;
#423 = CARTESIAN_POINT ( 'NONE',  ( -54.00000000000000000, 3.600000000000000089, 79.90000000000000568 ) ) ;
#424 = AXIS2_PLACEMENT_3D ( 'NONE', #448, #110, #364 ) ;
#425 = CC_DESIGN_PERSON_AND_ORGANIZATION_ASSIGNMENT ( #521, #355, ( #283 ) ) ;
#426 = DIRECTION ( 'NONE',  ( 0.000000000000000000, 0.000000000000000000, -1.000000000000000000 ) ) ;
#427 = ORIENTED_EDGE ( 'NONE', *, *, #37, .F. ) ;
#428 = ADVANCED_FACE ( 'NONE', ( #6 ), #174, .F. ) ;
#429 = ORIENTED_EDGE ( 'NONE', *, *, #72, .T. ) ;
#430 = ORIENTED_EDGE ( 'NONE', *, *, #156, .T. ) ;
#431 = SECURITY_CLASSIFICATION ( '', '', #351 ) ;
#432 = CARTESIAN_POINT ( 'NONE',  ( -54.00000000000000000, 0.000000000000000000, -81.50000000000000000 ) ) ;
#433 = EDGE_LOOP ( 'NONE', ( #530, #97 ) ) ;
#434 = AXIS2_PLACEMENT_3D ( 'NONE', #367, #339, #416 ) ;
#435 = FACE_BOUND ( 'NONE', #227, .T. ) ;
#436 = CC_DESIGN_PERSON_AND_ORGANIZATION_ASSIGNMENT ( #395, #408, ( #514 ) ) ;
#437 = VERTEX_POINT ( 'NONE', #463 ) ;
#438 = EDGE_CURVE ( 'NONE', #368, #235, #501, .T. ) ;
#439 = CARTESIAN_POINT ( 'NONE',  ( 57.50000000000000000, 1.600000000000000089, 85.00000000000000000 ) ) ;
#440 = PERSON_AND_ORGANIZATION ( #85, #467 ) ;
#441 = DIRECTION ( 'NONE',  ( -0.000000000000000000, -0.000000000000000000, 1.000000000000000000 ) ) ;
#442 = CIRCLE ( 'NONE', #240, 1.600000000000004086 ) ;
#443 = ORIENTED_EDGE ( 'NONE', *, *, #297, .T. ) ;
#444 = CC_DESIGN_SECURITY_CLASSIFICATION ( #431, ( #514 ) ) ;
#445 = CALENDAR_DATE ( 2026, 26, 7 ) ;
#446 = CARTESIAN_POINT ( 'NONE',  ( 57.50000000000000000, 0.000000000000000000, -85.00000000000000000 ) ) ;
#447 = ORIENTED_EDGE ( 'NONE', *, *, #141, .F. ) ;
#448 = CARTESIAN_POINT ( 'NONE',  ( -54.00000000000000000, 3.600000000000000089, -81.50000000000000000 ) ) ;
#449 = ORIENTED_EDGE ( 'NONE', *, *, #295, .T. ) ;
#450 = FACE_BOUND ( 'NONE', #55, .T. ) ;
#451 = CIRCLE ( 'NONE', #434, 1.600000000000004086 ) ;
#452 = DIRECTION ( 'NONE',  ( -0.000000000000000000, 1.000000000000000000, -0.000000000000000000 ) ) ;
#453 = COORDINATED_UNIVERSAL_TIME_OFFSET ( 8, 0, .AHEAD. ) ;
#454 = LOCAL_TIME ( 21, 51, 6.000000000000000000, #241 ) ;
#455 = APPROVAL_PERSON_ORGANIZATION ( #398, #391, #25 ) ;
#456 = DIRECTION ( 'NONE',  ( -0.000000000000000000, 1.000000000000000000, -0.000000000000000000 ) ) ;
#457 = DIRECTION ( 'NONE',  ( 0.000000000000000000, 0.000000000000000000, -1.000000000000000000 ) ) ;
#458 = LINE ( 'NONE', #84, #414 ) ;
#459 = PRODUCT_DEFINITION_SHAPE ( 'NONE', 'NONE',  #283 ) ;
#460 = PLANE ( 'NONE',  #345 ) ;
#461 = DIRECTION ( 'NONE',  ( 0.000000000000000000, -1.000000000000000000, 0.000000000000000000 ) ) ;
#462 = ADVANCED_FACE ( 'NONE', ( #435, #389, #262, #186, #470 ), #340, .F. ) ;
#463 = CARTESIAN_POINT ( 'NONE',  ( 54.00000000000000000, 0.000000000000000000, -79.90000000000000568 ) ) ;
#464 = DIRECTION ( 'NONE',  ( -0.000000000000000000, 1.000000000000000000, -0.000000000000000000 ) ) ;
#465 = CARTESIAN_POINT ( 'NONE',  ( 57.50000000000000000, 1.600000000000000089, 85.00000000000000000 ) ) ;
#466 = UNCERTAINTY_MEASURE_WITH_UNIT (LENGTH_MEASURE( 1.000000000000000082E-05 ), #158, 'distance_accuracy_value', 'NONE');
#467 = ORGANIZATION ( '未指定', '未指定', '' ) ;
#468 = DIRECTION ( 'NONE',  ( 0.000000000000000000, 0.000000000000000000, 1.000000000000000000 ) ) ;
#469 = ORIENTED_EDGE ( 'NONE', *, *, #37, .T. ) ;
#470 = FACE_OUTER_BOUND ( 'NONE', #322, .T. ) ;
#471 = AXIS2_PLACEMENT_3D ( 'NONE', #191, #510, #153 ) ;
#472 = CARTESIAN_POINT ( 'NONE',  ( 54.00000000000000000, 0.000000000000000000, -83.10000000000000853 ) ) ;
#473 = DIRECTION ( 'NONE',  ( 0.000000000000000000, 0.000000000000000000, 1.000000000000000000 ) ) ;
#474 = EDGE_CURVE ( 'NONE', #304, #254, #51, .T. ) ;
#475 = ORIENTED_EDGE ( 'NONE', *, *, #357, .F. ) ;
#476 = VERTEX_POINT ( 'NONE', #472 ) ;
#477 = LINE ( 'NONE', #513, #95 ) ;
#478 = APPROVAL_PERSON_ORGANIZATION ( #440, #490, #69 ) ;
#479 = ORIENTED_EDGE ( 'NONE', *, *, #190, .F. ) ;
#480 = CC_DESIGN_APPROVAL ( #391, ( #431 ) ) ;
#481 = EDGE_CURVE ( 'NONE', #243, #409, #188, .T. ) ;
#482 = VERTEX_POINT ( 'NONE', #118 ) ;
#483 = CARTESIAN_POINT ( 'NONE',  ( 54.00000000000000000, 3.600000000000000089, -79.90000000000000568 ) ) ;
#484 = MECHANICAL_CONTEXT ( 'NONE', #96, 'mechanical' ) ;
#485 = VERTEX_POINT ( 'NONE', #22 ) ;
#486 = CALENDAR_DATE ( 2026, 26, 7 ) ;
#487 = DIRECTION ( 'NONE',  ( 0.000000000000000000, 0.000000000000000000, 1.000000000000000000 ) ) ;
#488 =( GEOMETRIC_REPRESENTATION_CONTEXT ( 3 ) GLOBAL_UNCERTAINTY_ASSIGNED_CONTEXT ( ( #466 ) ) GLOBAL_UNIT_ASSIGNED_CONTEXT ( ( #158, #105, #244 ) ) REPRESENTATION_CONTEXT ( 'NONE', 'WORKASPACE' ) );
#489 = DIRECTION ( 'NONE',  ( 0.000000000000000000, 0.000000000000000000, 1.000000000000000000 ) ) ;
#490 = APPROVAL ( #246, '未指定' ) ;
#491 = CARTESIAN_POINT ( 'NONE',  ( 54.00000000000000000, 1.599999999999999867, 81.50000000000000000 ) ) ;
#492 = EDGE_CURVE ( 'NONE', #231, #235, #348, .T. ) ;
#493 = LOCAL_TIME ( 21, 51, 6.000000000000000000, #453 ) ;
#494 = ORIENTED_EDGE ( 'NONE', *, *, #492, .F. ) ;
#495 = CARTESIAN_POINT ( 'NONE',  ( -54.00000000000000000, 1.599999999999999867, 81.50000000000000000 ) ) ;
#496 = DIRECTION ( 'NONE',  ( 0.000000000000000000, 0.000000000000000000, -1.000000000000000000 ) ) ;
#497 = VERTEX_POINT ( 'NONE', #233 ) ;
#498 = CARTESIAN_POINT ( 'NONE',  ( -54.00000000000000000, 3.600000000000000089, -81.50000000000000000 ) ) ;
#499 = CARTESIAN_POINT ( 'NONE',  ( -54.00000000000000000, 1.599999999999999867, -81.50000000000000000 ) ) ;
#500 = ORIENTED_EDGE ( 'NONE', *, *, #232, .T. ) ;
#501 = LINE ( 'NONE', #465, #215 ) ;
#502 = DIRECTION ( 'NONE',  ( 0.000000000000000000, 0.000000000000000000, -1.000000000000000000 ) ) ;
#503 = EDGE_LOOP ( 'NONE', ( #290, #109, #12, #230 ) ) ;
#504 = FACE_OUTER_BOUND ( 'NONE', #219, .T. ) ;
#505 = DIRECTION ( 'NONE',  ( 0.000000000000000000, -1.000000000000000000, 0.000000000000000000 ) ) ;
#506 = EDGE_CURVE ( 'NONE', #94, #243, #477, .T. ) ;
#507 = ORIENTED_EDGE ( 'NONE', *, *, #375, .F. ) ;
#508 = CC_DESIGN_PERSON_AND_ORGANIZATION_ASSIGNMENT ( #155, #517, ( #431 ) ) ;
#509 = ORIENTED_EDGE ( 'NONE', *, *, #341, .F. ) ;
#510 = DIRECTION ( 'NONE',  ( 0.000000000000000000, -1.000000000000000000, 0.000000000000000000 ) ) ;
#511 = ADVANCED_FACE ( 'NONE', ( #303 ), #102, .F. ) ;
#512 = ORIENTED_EDGE ( 'NONE', *, *, #266, .T. ) ;
#513 = CARTESIAN_POINT ( 'NONE',  ( -54.00000000000000000, 3.600000000000000089, -79.90000000000000568 ) ) ;
#514 = PRODUCT_DEFINITION_FORMATION_WITH_SPECIFIED_SOURCE ( '任何', '', #361, .NOT_KNOWN. ) ;
#515 = ORIENTED_EDGE ( 'NONE', *, *, #295, .F. ) ;
#516 = DIRECTION ( 'NONE',  ( 1.000000000000000000, -0.000000000000000000, 0.000000000000000000 ) ) ;
#517 = PERSON_AND_ORGANIZATION_ROLE ( 'classification_officer' ) ;
#518 = CARTESIAN_POINT ( 'NONE',  ( -54.00000000000000000, 1.599999999999999867, -83.10000000000000853 ) ) ;
#519 = DIRECTION ( 'NONE',  ( 0.000000000000000000, 0.000000000000000000, 1.000000000000000000 ) ) ;
#520 = CARTESIAN_POINT ( 'NONE',  ( -54.00000000000000000, 0.000000000000000000, -79.90000000000000568 ) ) ;
#521 = PERSON_AND_ORGANIZATION ( #85, #467 ) ;
#522 = CARTESIAN_POINT ( 'NONE',  ( -57.50000000000000000, 1.600000000000000089, 85.00000000000000000 ) ) ;
#523 = EDGE_LOOP ( 'NONE', ( #258, #512, #388, #276 ) ) ;
#524 = VECTOR ( 'NONE', #457, 1000.000000000000000 ) ;
#525 = PERSON_AND_ORGANIZATION_ROLE ( 'design_owner' ) ;
#526 = DIRECTION ( 'NONE',  ( 0.000000000000000000, 1.000000000000000000, 0.000000000000000000 ) ) ;
#527 = VECTOR ( 'NONE', #89, 1000.000000000000000 ) ;
#528 = ORIENTED_EDGE ( 'NONE', *, *, #406, .F. ) ;
#529 = CC_DESIGN_PERSON_AND_ORGANIZATION_ASSIGNMENT ( #108, #525, ( #361 ) ) ;
#530 = ORIENTED_EDGE ( 'NONE', *, *, #380, .F. ) ;
#531 = COORDINATED_UNIVERSAL_TIME_OFFSET ( 8, 0, .AHEAD. ) ;
#532 = ADVANCED_FACE ( 'NONE', ( #115 ), #206, .F. ) ;
#533 = CARTESIAN_POINT ( 'NONE',  ( -57.50000000000000000, 0.000000000000000000, 85.00000000000000000 ) ) ;
ENDSEC;
END-ISO-10303-21;
