ISO-10303-21;
HEADER;
FILE_DESCRIPTION (( 'STEP AP203' ),
    '1' );
FILE_NAME ('FN-PWR-002_cn3791-module-envelope_R0.5.STEP',
    '2026-07-26T13:51:45',
    ( '' ),
    ( '' ),
    'SwSTEP 2.0',
    'SolidWorks 2022',
    '' );
FILE_SCHEMA (( 'CONFIG_CONTROL_DESIGN' ));
ENDSEC;

DATA;
#1 = VECTOR ( 'NONE', #91, 1000.000000000000000 ) ;
#2 = LINE ( 'NONE', #97, #96 ) ;
#3 = CC_DESIGN_PERSON_AND_ORGANIZATION_ASSIGNMENT ( #170, #103, ( #69 ) ) ;
#4 = ORIENTED_EDGE ( 'NONE', *, *, #74, .T. ) ;
#5 = CC_DESIGN_APPROVAL ( #164, ( #207 ) ) ;
#6 = DIRECTION ( 'NONE',  ( 0.000000000000000000, 0.000000000000000000, 1.000000000000000000 ) ) ;
#7 = PLANE ( 'NONE',  #160 ) ;
#8 = EDGE_CURVE ( 'NONE', #225, #124, #166, .T. ) ;
#9 = FACE_OUTER_BOUND ( 'NONE', #60, .T. ) ;
#10 = LOCAL_TIME ( 21, 51, 45.00000000000000000, #47 ) ;
#11 = PERSON_AND_ORGANIZATION ( #115, #149 ) ;
#12 = DATE_AND_TIME ( #193, #142 ) ;
#13 = APPROVAL_DATE_TIME ( #68, #46 ) ;
#14 = COORDINATED_UNIVERSAL_TIME_OFFSET ( 8, 0, .AHEAD. ) ;
#15 = PRODUCT_RELATED_PRODUCT_CATEGORY ( 'detail', '', ( #220 ) ) ;
#16 = AXIS2_PLACEMENT_3D ( 'NONE', #94, #186, #205 ) ;
#17 = ORIENTED_EDGE ( 'NONE', *, *, #8, .T. ) ;
#18 = DATE_AND_TIME ( #86, #196 ) ;
#19 = EDGE_LOOP ( 'NONE', ( #161, #167, #122, #200 ) ) ;
#20 = EDGE_CURVE ( 'NONE', #159, #107, #184, .T. ) ;
#21 = MANIFOLD_SOLID_BREP ( '凸台-拉伸1', #75 ) ;
#22 = CARTESIAN_POINT ( 'NONE',  ( -23.00000000000000000, 10.00000000000000000, 10.50000000000000000 ) ) ;
#23 = CARTESIAN_POINT ( 'NONE',  ( 23.00000000000000000, 10.00000000000000000, 10.50000000000000000 ) ) ;
#24 = COORDINATED_UNIVERSAL_TIME_OFFSET ( 8, 0, .AHEAD. ) ;
#25 =( LENGTH_UNIT ( ) NAMED_UNIT ( * ) SI_UNIT ( .MILLI., .METRE. ) );
#26 = LINE ( 'NONE', #197, #27 ) ;
#27 = VECTOR ( 'NONE', #232, 1000.000000000000000 ) ;
#28 = FACE_OUTER_BOUND ( 'NONE', #199, .T. ) ;
#29 = PERSON_AND_ORGANIZATION_ROLE ( 'creator' ) ;
#30 = APPROVAL_ROLE ( '' ) ;
#31 = ORIENTED_EDGE ( 'NONE', *, *, #74, .F. ) ;
#32 =( GEOMETRIC_REPRESENTATION_CONTEXT ( 3 ) GLOBAL_UNCERTAINTY_ASSIGNED_CONTEXT ( ( #120 ) ) GLOBAL_UNIT_ASSIGNED_CONTEXT ( ( #25, #64, #156 ) ) REPRESENTATION_CONTEXT ( 'NONE', 'WORKASPACE' ) );
#33 = ORIENTED_EDGE ( 'NONE', *, *, #190, .F. ) ;
#34 = VERTEX_POINT ( 'NONE', #129 ) ;
#35 = ORIENTED_EDGE ( 'NONE', *, *, #63, .F. ) ;
#36 = ORIENTED_EDGE ( 'NONE', *, *, #130, .T. ) ;
#37 = EDGE_CURVE ( 'NONE', #34, #225, #111, .T. ) ;
#38 = VECTOR ( 'NONE', #169, 1000.000000000000000 ) ;
#39 = CARTESIAN_POINT ( 'NONE',  ( -23.00000000000000000, 0.000000000000000000, 10.50000000000000000 ) ) ;
#40 = EDGE_LOOP ( 'NONE', ( #183, #204, #208, #55 ) ) ;
#41 = DIRECTION ( 'NONE',  ( 1.000000000000000000, 0.000000000000000000, 0.000000000000000000 ) ) ;
#42 = ADVANCED_BREP_SHAPE_REPRESENTATION ( 'FN-PWR-002_cn3791-module-envelope_R0.5', ( #21, #213 ), #32 ) ;
#43 = DIRECTION ( 'NONE',  ( 0.000000000000000000, 0.000000000000000000, -1.000000000000000000 ) ) ;
#44 = DIRECTION ( 'NONE',  ( 1.000000000000000000, -0.000000000000000000, 0.000000000000000000 ) ) ;
#45 = EDGE_CURVE ( 'NONE', #76, #159, #187, .T. ) ;
#46 = APPROVAL ( #233, '未指定' ) ;
#47 = COORDINATED_UNIVERSAL_TIME_OFFSET ( 8, 0, .AHEAD. ) ;
#48 = SECURITY_CLASSIFICATION_LEVEL ( 'unclassified' ) ;
#49 = DIRECTION ( 'NONE',  ( -1.000000000000000000, 0.000000000000000000, -0.000000000000000000 ) ) ;
#50 = APPROVAL_PERSON_ORGANIZATION ( #175, #46, #85 ) ;
#51 = DATE_AND_TIME ( #224, #218 ) ;
#52 = APPLICATION_PROTOCOL_DEFINITION ( 'international standard', 'config_control_design', 1994, #125 ) ;
#53 = ORIENTED_EDGE ( 'NONE', *, *, #190, .T. ) ;
#54 = AXIS2_PLACEMENT_3D ( 'NONE', #81, #44, #84 ) ;
#55 = ORIENTED_EDGE ( 'NONE', *, *, #236, .F. ) ;
#56 = ORIENTED_EDGE ( 'NONE', *, *, #45, .F. ) ;
#57 = AXIS2_PLACEMENT_3D ( 'NONE', #105, #98, #65 ) ;
#58 = CC_DESIGN_DATE_AND_TIME_ASSIGNMENT ( #18, #89, ( #207 ) ) ;
#59 = CARTESIAN_POINT ( 'NONE',  ( -23.00000000000000000, 10.00000000000000000, -10.50000000000000000 ) ) ;
#60 = EDGE_LOOP ( 'NONE', ( #17, #33, #88, #143 ) ) ;
#61 = CARTESIAN_POINT ( 'NONE',  ( -23.00000000000000000, 10.00000000000000000, -10.50000000000000000 ) ) ;
#62 = CC_DESIGN_APPROVAL ( #46, ( #69 ) ) ;
#63 = EDGE_CURVE ( 'NONE', #179, #201, #2, .T. ) ;
#64 =( NAMED_UNIT ( * ) PLANE_ANGLE_UNIT ( ) SI_UNIT ( $, .RADIAN. ) );
#65 = DIRECTION ( 'NONE',  ( 0.000000000000000000, -0.000000000000000000, -1.000000000000000000 ) ) ;
#66 = APPROVAL_DATE_TIME ( #51, #164 ) ;
#67 = CARTESIAN_POINT ( 'NONE',  ( 23.00000000000000000, 10.00000000000000000, 10.50000000000000000 ) ) ;
#68 = DATE_AND_TIME ( #100, #163 ) ;
#69 = PRODUCT_DEFINITION_FORMATION_WITH_SPECIFIED_SOURCE ( '任何', '', #220, .NOT_KNOWN. ) ;
#70 = ADVANCED_FACE ( 'NONE', ( #110 ), #128, .T. ) ;
#71 = ORIENTED_EDGE ( 'NONE', *, *, #45, .T. ) ;
#72 = CARTESIAN_POINT ( 'NONE',  ( -23.00000000000000000, 10.00000000000000000, 10.50000000000000000 ) ) ;
#73 = CARTESIAN_POINT ( 'NONE',  ( 23.00000000000000000, 10.00000000000000000, -10.50000000000000000 ) ) ;
#74 = EDGE_CURVE ( 'NONE', #159, #179, #95, .T. ) ;
#75 = CLOSED_SHELL ( 'NONE', ( #172, #141, #108, #180, #214, #70 ) ) ;
#76 = VERTEX_POINT ( 'NONE', #59 ) ;
#77 = CARTESIAN_POINT ( 'NONE',  ( 23.00000000000000000, 10.00000000000000000, 10.50000000000000000 ) ) ;
#78 = LINE ( 'NONE', #151, #144 ) ;
#79 = CARTESIAN_POINT ( 'NONE',  ( -23.00000000000000000, 10.00000000000000000, 10.50000000000000000 ) ) ;
#80 = CC_DESIGN_PERSON_AND_ORGANIZATION_ASSIGNMENT ( #83, #191, ( #222 ) ) ;
#81 = CARTESIAN_POINT ( 'NONE',  ( -23.00000000000000000, 10.00000000000000000, 10.50000000000000000 ) ) ;
#82 = AXIS2_PLACEMENT_3D ( 'NONE', #77, #150, #6 ) ;
#83 = PERSON_AND_ORGANIZATION ( #115, #149 ) ;
#84 = DIRECTION ( 'NONE',  ( 0.000000000000000000, 0.000000000000000000, -1.000000000000000000 ) ) ;
#85 = APPROVAL_ROLE ( '' ) ;
#86 = CALENDAR_DATE ( 2026, 26, 7 ) ;
#87 = CC_DESIGN_DATE_AND_TIME_ASSIGNMENT ( #12, #117, ( #222 ) ) ;
#88 = ORIENTED_EDGE ( 'NONE', *, *, #130, .F. ) ;
#89 = DATE_TIME_ROLE ( 'classification_date' ) ;
#90 = PRODUCT_DEFINITION_SHAPE ( 'NONE', 'NONE',  #222 ) ;
#91 = DIRECTION ( 'NONE',  ( -1.000000000000000000, -0.000000000000000000, -0.000000000000000000 ) ) ;
#92 = VECTOR ( 'NONE', #228, 1000.000000000000000 ) ;
#93 = CARTESIAN_POINT ( 'NONE',  ( -23.00000000000000000, 0.000000000000000000, -10.50000000000000000 ) ) ;
#94 = CARTESIAN_POINT ( 'NONE',  ( 0.000000000000000000, 0.000000000000000000, 0.000000000000000000 ) ) ;
#95 = LINE ( 'NONE', #72, #178 ) ;
#96 = VECTOR ( 'NONE', #203, 1000.000000000000000 ) ;
#97 = CARTESIAN_POINT ( 'NONE',  ( 23.00000000000000000, 10.00000000000000000, 10.50000000000000000 ) ) ;
#98 = DIRECTION ( 'NONE',  ( 0.000000000000000000, -1.000000000000000000, 0.000000000000000000 ) ) ;
#99 = EDGE_CURVE ( 'NONE', #124, #107, #206, .T. ) ;
#100 = CALENDAR_DATE ( 2026, 26, 7 ) ;
#101 = PLANE ( 'NONE',  #57 ) ;
#102 = PLANE ( 'NONE',  #54 ) ;
#103 = PERSON_AND_ORGANIZATION_ROLE ( 'design_supplier' ) ;
#104 = CARTESIAN_POINT ( 'NONE',  ( -23.00000000000000000, 0.000000000000000000, 10.50000000000000000 ) ) ;
#105 = CARTESIAN_POINT ( 'NONE',  ( 0.000000000000000000, 10.00000000000000000, 0.000000000000000000 ) ) ;
#106 = SHAPE_DEFINITION_REPRESENTATION ( #90, #42 ) ;
#107 = VERTEX_POINT ( 'NONE', #148 ) ;
#108 = ADVANCED_FACE ( 'NONE', ( #229 ), #131, .F. ) ;
#109 = ORIENTED_EDGE ( 'NONE', *, *, #20, .F. ) ;
#110 = FACE_OUTER_BOUND ( 'NONE', #40, .T. ) ;
#111 = LINE ( 'NONE', #73, #234 ) ;
#112 = DIRECTION ( 'NONE',  ( 0.000000000000000000, 0.000000000000000000, 1.000000000000000000 ) ) ;
#113 = APPROVAL_ROLE ( '' ) ;
#114 = FACE_OUTER_BOUND ( 'NONE', #235, .T. ) ;
#115 = PERSON ( '未指定', '未指定', '未指定', ('未指定'), ('未指定'), ('未指定') ) ;
#116 = LINE ( 'NONE', #23, #237 ) ;
#117 = DATE_TIME_ROLE ( 'creation_date' ) ;
#118 = EDGE_CURVE ( 'NONE', #201, #225, #78, .T. ) ;
#119 = MECHANICAL_CONTEXT ( 'NONE', #125, 'mechanical' ) ;
#120 = UNCERTAINTY_MEASURE_WITH_UNIT (LENGTH_MEASURE( 1.000000000000000082E-05 ), #25, 'distance_accuracy_value', 'NONE');
#121 = CC_DESIGN_PERSON_AND_ORGANIZATION_ASSIGNMENT ( #219, #29, ( #69 ) ) ;
#122 = ORIENTED_EDGE ( 'NONE', *, *, #123, .F. ) ;
#123 = EDGE_CURVE ( 'NONE', #179, #34, #116, .T. ) ;
#124 = VERTEX_POINT ( 'NONE', #176 ) ;
#125 = APPLICATION_CONTEXT ( 'configuration controlled 3d designs of mechanical parts and assemblies' ) ;
#126 = ORIENTED_EDGE ( 'NONE', *, *, #20, .T. ) ;
#127 = AXIS2_PLACEMENT_3D ( 'NONE', #230, #171, #231 ) ;
#128 = PLANE ( 'NONE',  #16 ) ;
#129 = CARTESIAN_POINT ( 'NONE',  ( 23.00000000000000000, 10.00000000000000000, -10.50000000000000000 ) ) ;
#130 = EDGE_CURVE ( 'NONE', #34, #76, #26, .T. ) ;
#131 = PLANE ( 'NONE',  #82 ) ;
#132 = PERSON_AND_ORGANIZATION ( #115, #149 ) ;
#133 = APPLICATION_PROTOCOL_DEFINITION ( 'international standard', 'config_control_design', 1994, #223 ) ;
#134 = CC_DESIGN_APPROVAL ( #185, ( #222 ) ) ;
#135 = DIRECTION ( 'NONE',  ( 0.000000000000000000, 0.000000000000000000, -1.000000000000000000 ) ) ;
#136 = CARTESIAN_POINT ( 'NONE',  ( 23.00000000000000000, 0.000000000000000000, 10.50000000000000000 ) ) ;
#137 = APPROVAL_PERSON_ORGANIZATION ( #11, #185, #113 ) ;
#138 = CARTESIAN_POINT ( 'NONE',  ( 0.000000000000000000, 0.000000000000000000, 0.000000000000000000 ) ) ;
#139 = ORIENTED_EDGE ( 'NONE', *, *, #236, .T. ) ;
#140 = CC_DESIGN_PERSON_AND_ORGANIZATION_ASSIGNMENT ( #177, #181, ( #207 ) ) ;
#141 = ADVANCED_FACE ( 'NONE', ( #152 ), #7, .F. ) ;
#142 = LOCAL_TIME ( 21, 51, 45.00000000000000000, #158 ) ;
#143 = ORIENTED_EDGE ( 'NONE', *, *, #37, .T. ) ;
#144 = VECTOR ( 'NONE', #43, 1000.000000000000000 ) ;
#145 = DIRECTION ( 'NONE',  ( 1.000000000000000000, 0.000000000000000000, 0.000000000000000000 ) ) ;
#146 = CC_DESIGN_PERSON_AND_ORGANIZATION_ASSIGNMENT ( #132, #211, ( #220 ) ) ;
#147 = DIRECTION ( 'NONE',  ( -0.000000000000000000, -1.000000000000000000, -0.000000000000000000 ) ) ;
#148 = CARTESIAN_POINT ( 'NONE',  ( -23.00000000000000000, 0.000000000000000000, 10.50000000000000000 ) ) ;
#149 = ORGANIZATION ( '未指定', '未指定', '' ) ;
#150 = DIRECTION ( 'NONE',  ( -1.000000000000000000, 0.000000000000000000, 0.000000000000000000 ) ) ;
#151 = CARTESIAN_POINT ( 'NONE',  ( 23.00000000000000000, 0.000000000000000000, 10.50000000000000000 ) ) ;
#152 = FACE_OUTER_BOUND ( 'NONE', #210, .T. ) ;
#153 = DESIGN_CONTEXT ( 'detailed design', #223, 'design' ) ;
#154 = VECTOR ( 'NONE', #147, 1000.000000000000000 ) ;
#155 = PLANE ( 'NONE',  #127 ) ;
#156 =( NAMED_UNIT ( * ) SI_UNIT ( $, .STERADIAN. ) SOLID_ANGLE_UNIT ( ) );
#157 = DIRECTION ( 'NONE',  ( 0.000000000000000000, 0.000000000000000000, -1.000000000000000000 ) ) ;
#158 = COORDINATED_UNIVERSAL_TIME_OFFSET ( 8, 0, .AHEAD. ) ;
#159 = VERTEX_POINT ( 'NONE', #192 ) ;
#160 = AXIS2_PLACEMENT_3D ( 'NONE', #79, #157, #49 ) ;
#161 = ORIENTED_EDGE ( 'NONE', *, *, #118, .T. ) ;
#162 = DIRECTION ( 'NONE',  ( -0.000000000000000000, -1.000000000000000000, -0.000000000000000000 ) ) ;
#163 = LOCAL_TIME ( 21, 51, 45.00000000000000000, #24 ) ;
#164 = APPROVAL ( #198, '未指定' ) ;
#165 = CARTESIAN_POINT ( 'NONE',  ( -23.00000000000000000, 10.00000000000000000, 10.50000000000000000 ) ) ;
#166 = LINE ( 'NONE', #93, #1 ) ;
#167 = ORIENTED_EDGE ( 'NONE', *, *, #37, .F. ) ;
#168 = CC_DESIGN_SECURITY_CLASSIFICATION ( #207, ( #69 ) ) ;
#169 = DIRECTION ( 'NONE',  ( -0.000000000000000000, -0.000000000000000000, 1.000000000000000000 ) ) ;
#170 = PERSON_AND_ORGANIZATION ( #115, #149 ) ;
#171 = DIRECTION ( 'NONE',  ( 0.000000000000000000, 0.000000000000000000, 1.000000000000000000 ) ) ;
#172 = ADVANCED_FACE ( 'NONE', ( #114 ), #102, .F. ) ;
#173 = LINE ( 'NONE', #104, #221 ) ;
#174 = APPROVAL_STATUS ( 'not_yet_approved' ) ;
#175 = PERSON_AND_ORGANIZATION ( #115, #149 ) ;
#176 = CARTESIAN_POINT ( 'NONE',  ( -23.00000000000000000, 0.000000000000000000, -10.50000000000000000 ) ) ;
#177 = PERSON_AND_ORGANIZATION ( #115, #149 ) ;
#178 = VECTOR ( 'NONE', #145, 1000.000000000000000 ) ;
#179 = VERTEX_POINT ( 'NONE', #67 ) ;
#180 = ADVANCED_FACE ( 'NONE', ( #9 ), #155, .F. ) ;
#181 = PERSON_AND_ORGANIZATION_ROLE ( 'classification_officer' ) ;
#182 = APPROVAL_PERSON_ORGANIZATION ( #226, #164, #30 ) ;
#183 = ORIENTED_EDGE ( 'NONE', *, *, #99, .F. ) ;
#184 = LINE ( 'NONE', #22, #154 ) ;
#185 = APPROVAL ( #174, '未指定' ) ;
#186 = DIRECTION ( 'NONE',  ( 0.000000000000000000, -1.000000000000000000, 0.000000000000000000 ) ) ;
#187 = LINE ( 'NONE', #165, #92 ) ;
#188 = CARTESIAN_POINT ( 'NONE',  ( 23.00000000000000000, 0.000000000000000000, -10.50000000000000000 ) ) ;
#189 = DATE_AND_TIME ( #212, #10 ) ;
#190 = EDGE_CURVE ( 'NONE', #76, #124, #215, .T. ) ;
#191 = PERSON_AND_ORGANIZATION_ROLE ( 'creator' ) ;
#192 = CARTESIAN_POINT ( 'NONE',  ( -23.00000000000000000, 10.00000000000000000, 10.50000000000000000 ) ) ;
#193 = CALENDAR_DATE ( 2026, 26, 7 ) ;
#194 = VECTOR ( 'NONE', #195, 1000.000000000000000 ) ;
#195 = DIRECTION ( 'NONE',  ( -0.000000000000000000, -1.000000000000000000, -0.000000000000000000 ) ) ;
#196 = LOCAL_TIME ( 21, 51, 45.00000000000000000, #14 ) ;
#197 = CARTESIAN_POINT ( 'NONE',  ( -23.00000000000000000, 10.00000000000000000, -10.50000000000000000 ) ) ;
#198 = APPROVAL_STATUS ( 'not_yet_approved' ) ;
#199 = EDGE_LOOP ( 'NONE', ( #71, #4, #209, #36 ) ) ;
#200 = ORIENTED_EDGE ( 'NONE', *, *, #63, .T. ) ;
#201 = VERTEX_POINT ( 'NONE', #136 ) ;
#202 = COORDINATED_UNIVERSAL_TIME_OFFSET ( 8, 0, .AHEAD. ) ;
#203 = DIRECTION ( 'NONE',  ( -0.000000000000000000, -1.000000000000000000, -0.000000000000000000 ) ) ;
#204 = ORIENTED_EDGE ( 'NONE', *, *, #8, .F. ) ;
#205 = DIRECTION ( 'NONE',  ( 0.000000000000000000, -0.000000000000000000, -1.000000000000000000 ) ) ;
#206 = LINE ( 'NONE', #39, #38 ) ;
#207 = SECURITY_CLASSIFICATION ( '', '', #48 ) ;
#208 = ORIENTED_EDGE ( 'NONE', *, *, #118, .F. ) ;
#209 = ORIENTED_EDGE ( 'NONE', *, *, #123, .T. ) ;
#210 = EDGE_LOOP ( 'NONE', ( #139, #35, #31, #126 ) ) ;
#211 = PERSON_AND_ORGANIZATION_ROLE ( 'design_owner' ) ;
#212 = CALENDAR_DATE ( 2026, 26, 7 ) ;
#213 = AXIS2_PLACEMENT_3D ( 'NONE', #138, #112, #217 ) ;
#214 = ADVANCED_FACE ( 'NONE', ( #28 ), #101, .F. ) ;
#215 = LINE ( 'NONE', #61, #194 ) ;
#216 = APPROVAL_DATE_TIME ( #189, #185 ) ;
#217 = DIRECTION ( 'NONE',  ( 1.000000000000000000, 0.000000000000000000, 0.000000000000000000 ) ) ;
#218 = LOCAL_TIME ( 21, 51, 45.00000000000000000, #202 ) ;
#219 = PERSON_AND_ORGANIZATION ( #115, #149 ) ;
#220 = PRODUCT ( 'FN-PWR-002_cn3791-module-envelope_R0.5', 'FN-PWR-002_cn3791-module-envelope_R0.5', '', ( #119 ) ) ;
#221 = VECTOR ( 'NONE', #41, 1000.000000000000000 ) ;
#222 = PRODUCT_DEFINITION ( '未知', '', #69, #153 ) ;
#223 = APPLICATION_CONTEXT ( 'configuration controlled 3d designs of mechanical parts and assemblies' ) ;
#224 = CALENDAR_DATE ( 2026, 26, 7 ) ;
#225 = VERTEX_POINT ( 'NONE', #188 ) ;
#226 = PERSON_AND_ORGANIZATION ( #115, #149 ) ;
#227 = ORIENTED_EDGE ( 'NONE', *, *, #99, .T. ) ;
#228 = DIRECTION ( 'NONE',  ( -0.000000000000000000, -0.000000000000000000, 1.000000000000000000 ) ) ;
#229 = FACE_OUTER_BOUND ( 'NONE', #19, .T. ) ;
#230 = CARTESIAN_POINT ( 'NONE',  ( -23.00000000000000000, 10.00000000000000000, -10.50000000000000000 ) ) ;
#231 = DIRECTION ( 'NONE',  ( 1.000000000000000000, 0.000000000000000000, -0.000000000000000000 ) ) ;
#232 = DIRECTION ( 'NONE',  ( -1.000000000000000000, -0.000000000000000000, -0.000000000000000000 ) ) ;
#233 = APPROVAL_STATUS ( 'not_yet_approved' ) ;
#234 = VECTOR ( 'NONE', #162, 1000.000000000000000 ) ;
#235 = EDGE_LOOP ( 'NONE', ( #227, #109, #56, #53 ) ) ;
#236 = EDGE_CURVE ( 'NONE', #107, #201, #173, .T. ) ;
#237 = VECTOR ( 'NONE', #135, 1000.000000000000000 ) ;
ENDSEC;
END-ISO-10303-21;
