ISO-10303-21;
HEADER;
FILE_DESCRIPTION (( 'STEP AP203' ),
    '1' );
FILE_NAME ('FN-PLT-005_fr4-5MM_8HOLE-NOMINAL_R0.5.STEP',
    '2026-07-26T13:50:55',
    ( '' ),
    ( '' ),
    'SwSTEP 2.0',
    'SolidWorks 2022',
    '' );
FILE_SCHEMA (( 'CONFIG_CONTROL_DESIGN' ));
ENDSEC;

DATA;
#1 = DIRECTION ( 'NONE',  ( 0.000000000000000000, 0.000000000000000000, 1.000000000000000000 ) ) ;
#2 = ORIENTED_EDGE ( 'NONE', *, *, #500, .T. ) ;
#3 = DIRECTION ( 'NONE',  ( -0.000000000000000000, -0.000000000000000000, 1.000000000000000000 ) ) ;
#4 = CIRCLE ( 'NONE', #65, 1.750000000000001554 ) ;
#5 = DIRECTION ( 'NONE',  ( 0.000000000000000000, -1.000000000000000000, 0.000000000000000000 ) ) ;
#6 = AXIS2_PLACEMENT_3D ( 'NONE', #748, #809, #350 ) ;
#7 = ORIENTED_EDGE ( 'NONE', *, *, #590, .F. ) ;
#8 = CARTESIAN_POINT ( 'NONE',  ( 60.14999999999999858, 5.000000000000000000, -28.84999999999999787 ) ) ;
#9 = PERSON_AND_ORGANIZATION ( #783, #328 ) ;
#10 = DIRECTION ( 'NONE',  ( 0.000000000000000000, -1.000000000000000000, 0.000000000000000000 ) ) ;
#11 = FACE_OUTER_BOUND ( 'NONE', #219, .T. ) ;
#12 = ORIENTED_EDGE ( 'NONE', *, *, #436, .F. ) ;
#13 = ORIENTED_EDGE ( 'NONE', *, *, #170, .F. ) ;
#14 = CARTESIAN_POINT ( 'NONE',  ( -60.14999999999999858, 5.000000000000000000, 80.00000000000000000 ) ) ;
#15 = DIRECTION ( 'NONE',  ( 0.000000000000000000, 0.000000000000000000, 1.000000000000000000 ) ) ;
#16 = FACE_OUTER_BOUND ( 'NONE', #180, .T. ) ;
#17 = EDGE_CURVE ( 'NONE', #574, #564, #336, .T. ) ;
#18 = DIRECTION ( 'NONE',  ( 0.000000000000000000, 0.000000000000000000, -1.000000000000000000 ) ) ;
#19 = VECTOR ( 'NONE', #774, 1000.000000000000000 ) ;
#20 = ORIENTED_EDGE ( 'NONE', *, *, #315, .F. ) ;
#21 = DIRECTION ( 'NONE',  ( 0.000000000000000000, 0.000000000000000000, -1.000000000000000000 ) ) ;
#22 = DIRECTION ( 'NONE',  ( 0.000000000000000000, 0.000000000000000000, -1.000000000000000000 ) ) ;
#23 = LINE ( 'NONE', #154, #354 ) ;
#24 = EDGE_CURVE ( 'NONE', #38, #474, #367, .T. ) ;
#25 = EDGE_LOOP ( 'NONE', ( #60, #649 ) ) ;
#26 = CYLINDRICAL_SURFACE ( 'NONE', #815, 1.750000000000001554 ) ;
#27 = DIRECTION ( 'NONE',  ( 0.000000000000000000, 0.000000000000000000, -1.000000000000000000 ) ) ;
#28 = DIRECTION ( 'NONE',  ( 0.000000000000000000, 1.000000000000000000, 0.000000000000000000 ) ) ;
#29 = ORIENTED_EDGE ( 'NONE', *, *, #376, .T. ) ;
#30 = AXIS2_PLACEMENT_3D ( 'NONE', #206, #730, #737 ) ;
#31 = FACE_BOUND ( 'NONE', #116, .T. ) ;
#32 = APPROVAL ( #301, '未指定' ) ;
#33 = CARTESIAN_POINT ( 'NONE',  ( 60.14999999999999858, 7.000000000000000000, 30.60000000000000142 ) ) ;
#34 = AXIS2_PLACEMENT_3D ( 'NONE', #483, #232, #752 ) ;
#35 = EDGE_LOOP ( 'NONE', ( #819, #49 ) ) ;
#36 = CIRCLE ( 'NONE', #693, 1.750000000000001554 ) ;
#37 = DIRECTION ( 'NONE',  ( 0.000000000000000000, 1.000000000000000000, 0.000000000000000000 ) ) ;
#38 = VERTEX_POINT ( 'NONE', #790 ) ;
#39 = DIRECTION ( 'NONE',  ( 0.000000000000000000, -1.000000000000000000, 0.000000000000000000 ) ) ;
#40 = ORIENTED_EDGE ( 'NONE', *, *, #626, .T. ) ;
#41 = APPLICATION_PROTOCOL_DEFINITION ( 'international standard', 'config_control_design', 1994, #385 ) ;
#42 = ORIENTED_EDGE ( 'NONE', *, *, #523, .F. ) ;
#43 = FACE_OUTER_BOUND ( 'NONE', #94, .T. ) ;
#44 = VECTOR ( 'NONE', #728, 1000.000000000000000 ) ;
#45 = AXIS2_PLACEMENT_3D ( 'NONE', #472, #539, #798 ) ;
#46 = EDGE_CURVE ( 'NONE', #408, #200, #4, .T. ) ;
#47 = APPLICATION_PROTOCOL_DEFINITION ( 'international standard', 'config_control_design', 1994, #195 ) ;
#48 = ORIENTED_EDGE ( 'NONE', *, *, #476, .F. ) ;
#49 = ORIENTED_EDGE ( 'NONE', *, *, #714, .T. ) ;
#50 = ADVANCED_FACE ( 'NONE', ( #147 ), #400, .F. ) ;
#51 = EDGE_CURVE ( 'NONE', #192, #705, #289, .T. ) ;
#52 = PRODUCT_RELATED_PRODUCT_CATEGORY ( 'detail', '', ( #270 ) ) ;
#53 = AXIS2_PLACEMENT_3D ( 'NONE', #667, #333, #27 ) ;
#54 = DIRECTION ( 'NONE',  ( 0.000000000000000000, -1.000000000000000000, 0.000000000000000000 ) ) ;
#55 = AXIS2_PLACEMENT_3D ( 'NONE', #255, #512, #74 ) ;
#56 = AXIS2_PLACEMENT_3D ( 'NONE', #427, #690, #552 ) ;
#57 = MANIFOLD_SOLID_BREP ( '切除-拉伸1', #337 ) ;
#58 = EDGE_LOOP ( 'NONE', ( #717, #814, #7, #546 ) ) ;
#59 = DIRECTION ( 'NONE',  ( 1.000000000000000000, 0.000000000000000000, 0.000000000000000000 ) ) ;
#60 = ORIENTED_EDGE ( 'NONE', *, *, #688, .F. ) ;
#61 = CARTESIAN_POINT ( 'NONE',  ( -136.0000000000000000, 5.000000000000000000, -96.50000000000000000 ) ) ;
#62 = FACE_OUTER_BOUND ( 'NONE', #731, .T. ) ;
#63 = ORIENTED_EDGE ( 'NONE', *, *, #681, .T. ) ;
#64 = CARTESIAN_POINT ( 'NONE',  ( -60.14999999999999858, 0.000000000000000000, 32.35000000000000142 ) ) ;
#65 = AXIS2_PLACEMENT_3D ( 'NONE', #597, #393, #462 ) ;
#66 = DIRECTION ( 'NONE',  ( -0.000000000000000000, -1.000000000000000000, -0.000000000000000000 ) ) ;
#67 = EDGE_LOOP ( 'NONE', ( #516, #704 ) ) ;
#68 = DIRECTION ( 'NONE',  ( 0.000000000000000000, 0.000000000000000000, -1.000000000000000000 ) ) ;
#69 = EDGE_CURVE ( 'NONE', #564, #320, #502, .T. ) ;
#70 = CIRCLE ( 'NONE', #793, 1.750000000000001554 ) ;
#71 = DIRECTION ( 'NONE',  ( 0.000000000000000000, 0.000000000000000000, -1.000000000000000000 ) ) ;
#72 = ORIENTED_EDGE ( 'NONE', *, *, #626, .F. ) ;
#73 = CARTESIAN_POINT ( 'NONE',  ( 60.14999999999999858, 0.000000000000000000, 81.75000000000000000 ) ) ;
#74 = DIRECTION ( 'NONE',  ( 0.000000000000000000, 0.000000000000000000, 1.000000000000000000 ) ) ;
#75 = DIRECTION ( 'NONE',  ( 0.000000000000000000, 0.000000000000000000, -1.000000000000000000 ) ) ;
#76 = CYLINDRICAL_SURFACE ( 'NONE', #208, 1.750000000000001554 ) ;
#77 = VERTEX_POINT ( 'NONE', #199 ) ;
#78 = EDGE_CURVE ( 'NONE', #780, #791, #23, .T. ) ;
#79 = DIRECTION ( 'NONE',  ( 0.000000000000000000, -1.000000000000000000, 0.000000000000000000 ) ) ;
#80 = EDGE_CURVE ( 'NONE', #169, #635, #529, .T. ) ;
#81 = CARTESIAN_POINT ( 'NONE',  ( -60.14999999999999858, 7.000000000000000000, 30.60000000000000142 ) ) ;
#82 = EDGE_LOOP ( 'NONE', ( #193, #29, #745, #816 ) ) ;
#83 = CARTESIAN_POINT ( 'NONE',  ( 0.000000000000000000, 0.000000000000000000, 0.000000000000000000 ) ) ;
#84 = EDGE_CURVE ( 'NONE', #711, #434, #280, .T. ) ;
#85 = DIRECTION ( 'NONE',  ( 0.000000000000000000, 0.000000000000000000, 1.000000000000000000 ) ) ;
#86 = ORIENTED_EDGE ( 'NONE', *, *, #826, .F. ) ;
#87 = ORIENTED_EDGE ( 'NONE', *, *, #817, .F. ) ;
#88 = LINE ( 'NONE', #286, #560 ) ;
#89 = CARTESIAN_POINT ( 'NONE',  ( -60.14999999999999858, 7.000000000000000000, 81.75000000000000000 ) ) ;
#90 = EDGE_LOOP ( 'NONE', ( #86, #610, #421, #42 ) ) ;
#91 = DIRECTION ( 'NONE',  ( 0.000000000000000000, 0.000000000000000000, -1.000000000000000000 ) ) ;
#92 = DIRECTION ( 'NONE',  ( 0.000000000000000000, 0.000000000000000000, -1.000000000000000000 ) ) ;
#93 = ORIENTED_EDGE ( 'NONE', *, *, #265, .T. ) ;
#94 = EDGE_LOOP ( 'NONE', ( #372, #40, #307, #753 ) ) ;
#95 = DIRECTION ( 'NONE',  ( 0.000000000000000000, -0.000000000000000000, -1.000000000000000000 ) ) ;
#96 = ADVANCED_FACE ( 'NONE', ( #672 ), #76, .F. ) ;
#97 = DIRECTION ( 'NONE',  ( 0.000000000000000000, 1.000000000000000000, 0.000000000000000000 ) ) ;
#98 = VECTOR ( 'NONE', #464, 1000.000000000000000 ) ;
#99 = EDGE_LOOP ( 'NONE', ( #386, #158 ) ) ;
#100 = PRODUCT_DEFINITION_FORMATION_WITH_SPECIFIED_SOURCE ( '任何', '', #270, .NOT_KNOWN. ) ;
#101 = CARTESIAN_POINT ( 'NONE',  ( -60.14999999999999858, 5.000000000000000000, 81.75000000000000000 ) ) ;
#102 = VERTEX_POINT ( 'NONE', #726 ) ;
#103 = CYLINDRICAL_SURFACE ( 'NONE', #226, 1.750000000000001554 ) ;
#104 = DIRECTION ( 'NONE',  ( 0.000000000000000000, 0.000000000000000000, 1.000000000000000000 ) ) ;
#105 = DIRECTION ( 'NONE',  ( 0.000000000000000000, 0.000000000000000000, -1.000000000000000000 ) ) ;
#106 = ADVANCED_FACE ( 'NONE', ( #330 ), #608, .F. ) ;
#107 = ORIENTED_EDGE ( 'NONE', *, *, #471, .T. ) ;
#108 = AXIS2_PLACEMENT_3D ( 'NONE', #686, #97, #384 ) ;
#109 = DIRECTION ( 'NONE',  ( 1.000000000000000000, 0.000000000000000000, 0.000000000000000000 ) ) ;
#110 = VECTOR ( 'NONE', #554, 1000.000000000000000 ) ;
#111 = CC_DESIGN_APPROVAL ( #32, ( #100 ) ) ;
#112 = ORIENTED_EDGE ( 'NONE', *, *, #243, .T. ) ;
#113 = EDGE_CURVE ( 'NONE', #474, #38, #151, .T. ) ;
#114 = CARTESIAN_POINT ( 'NONE',  ( 60.14999999999999858, 7.000000000000000000, -32.35000000000000142 ) ) ;
#115 = VERTEX_POINT ( 'NONE', #544 ) ;
#116 = EDGE_LOOP ( 'NONE', ( #107, #404 ) ) ;
#117 = DIRECTION ( 'NONE',  ( 0.000000000000000000, 0.000000000000000000, -1.000000000000000000 ) ) ;
#118 = DIRECTION ( 'NONE',  ( 0.000000000000000000, -1.000000000000000000, 0.000000000000000000 ) ) ;
#119 = ORIENTED_EDGE ( 'NONE', *, *, #775, .F. ) ;
#120 = EDGE_LOOP ( 'NONE', ( #259, #603 ) ) ;
#121 = DATE_AND_TIME ( #776, #314 ) ;
#122 = CIRCLE ( 'NONE', #617, 1.750000000000001554 ) ;
#123 = DIRECTION ( 'NONE',  ( 0.000000000000000000, 1.000000000000000000, 0.000000000000000000 ) ) ;
#124 = ORIENTED_EDGE ( 'NONE', *, *, #78, .F. ) ;
#125 = ORIENTED_EDGE ( 'NONE', *, *, #315, .T. ) ;
#126 = DIRECTION ( 'NONE',  ( 0.000000000000000000, 0.000000000000000000, -1.000000000000000000 ) ) ;
#127 = FACE_BOUND ( 'NONE', #605, .T. ) ;
#128 = VERTEX_POINT ( 'NONE', #131 ) ;
#129 = DIRECTION ( 'NONE',  ( 0.000000000000000000, -1.000000000000000000, 0.000000000000000000 ) ) ;
#130 = CARTESIAN_POINT ( 'NONE',  ( -136.0000000000000000, 0.000000000000000000, 96.50000000000000000 ) ) ;
#131 = CARTESIAN_POINT ( 'NONE',  ( 60.14999999999999858, 5.000000000000000000, 32.35000000000000142 ) ) ;
#132 = AXIS2_PLACEMENT_3D ( 'NONE', #81, #342, #71 ) ;
#133 = PRODUCT_DEFINITION_SHAPE ( 'NONE', 'NONE',  #424 ) ;
#134 = CARTESIAN_POINT ( 'NONE',  ( -60.14999999999999858, 7.000000000000000000, -32.35000000000000142 ) ) ;
#135 = DIRECTION ( 'NONE',  ( -0.000000000000000000, 1.000000000000000000, -0.000000000000000000 ) ) ;
#136 = CIRCLE ( 'NONE', #517, 1.750000000000001554 ) ;
#137 = CIRCLE ( 'NONE', #701, 1.750000000000005107 ) ;
#138 = DIRECTION ( 'NONE',  ( 0.000000000000000000, -1.000000000000000000, 0.000000000000000000 ) ) ;
#139 = VERTEX_POINT ( 'NONE', #656 ) ;
#140 = ADVANCED_FACE ( 'NONE', ( #799 ), #218, .F. ) ;
#141 = DIRECTION ( 'NONE',  ( 0.000000000000000000, 1.000000000000000000, 0.000000000000000000 ) ) ;
#142 = EDGE_CURVE ( 'NONE', #434, #139, #698, .T. ) ;
#143 = CARTESIAN_POINT ( 'NONE',  ( 60.14999999999999858, 5.000000000000000000, -81.75000000000000000 ) ) ;
#144 = DIRECTION ( 'NONE',  ( 0.000000000000000000, 1.000000000000000000, 0.000000000000000000 ) ) ;
#145 = ORIENTED_EDGE ( 'NONE', *, *, #308, .F. ) ;
#146 = DIRECTION ( 'NONE',  ( 0.000000000000000000, 0.000000000000000000, 1.000000000000000000 ) ) ;
#147 = FACE_OUTER_BOUND ( 'NONE', #749, .T. ) ;
#148 = EDGE_LOOP ( 'NONE', ( #479, #740 ) ) ;
#149 = ORIENTED_EDGE ( 'NONE', *, *, #523, .T. ) ;
#150 = DIRECTION ( 'NONE',  ( 0.000000000000000000, -1.000000000000000000, 0.000000000000000000 ) ) ;
#151 = CIRCLE ( 'NONE', #654, 1.750000000000001554 ) ;
#152 = CARTESIAN_POINT ( 'NONE',  ( -60.14999999999999858, 7.000000000000000000, 80.00000000000000000 ) ) ;
#153 = DIRECTION ( 'NONE',  ( 0.000000000000000000, 0.000000000000000000, -1.000000000000000000 ) ) ;
#154 = CARTESIAN_POINT ( 'NONE',  ( -136.0000000000000000, 5.000000000000000000, 96.50000000000000000 ) ) ;
#155 = VECTOR ( 'NONE', #290, 1000.000000000000000 ) ;
#156 = VECTOR ( 'NONE', #677, 1000.000000000000000 ) ;
#157 = SECURITY_CLASSIFICATION ( '', '', #312 ) ;
#158 = ORIENTED_EDGE ( 'NONE', *, *, #551, .F. ) ;
#159 = LINE ( 'NONE', #477, #156 ) ;
#160 = DIRECTION ( 'NONE',  ( -0.000000000000000000, 1.000000000000000000, -0.000000000000000000 ) ) ;
#161 = ORIENTED_EDGE ( 'NONE', *, *, #113, .T. ) ;
#162 = FACE_BOUND ( 'NONE', #35, .T. ) ;
#163 = ADVANCED_FACE ( 'NONE', ( #11 ), #222, .F. ) ;
#164 = LINE ( 'NONE', #682, #482 ) ;
#165 = ORIENTED_EDGE ( 'NONE', *, *, #376, .F. ) ;
#166 = CARTESIAN_POINT ( 'NONE',  ( -60.14999999999999858, 5.000000000000000000, -30.60000000000000142 ) ) ;
#167 = VECTOR ( 'NONE', #216, 1000.000000000000000 ) ;
#168 = CIRCLE ( 'NONE', #188, 1.750000000000001554 ) ;
#169 = VERTEX_POINT ( 'NONE', #403 ) ;
#170 = EDGE_CURVE ( 'NONE', #557, #320, #473, .T. ) ;
#171 = CIRCLE ( 'NONE', #583, 1.750000000000001554 ) ;
#172 = LOCAL_TIME ( 21, 50, 55.00000000000000000, #821 ) ;
#173 = PERSON_AND_ORGANIZATION_ROLE ( 'classification_officer' ) ;
#174 = DIRECTION ( 'NONE',  ( 0.000000000000000000, 1.000000000000000000, 0.000000000000000000 ) ) ;
#175 = CALENDAR_DATE ( 2026, 26, 7 ) ;
#176 = EDGE_CURVE ( 'NONE', #463, #828, #310, .T. ) ;
#177 = ORIENTED_EDGE ( 'NONE', *, *, #170, .T. ) ;
#178 = PERSON_AND_ORGANIZATION ( #783, #328 ) ;
#179 = ORIENTED_EDGE ( 'NONE', *, *, #826, .T. ) ;
#180 = EDGE_LOOP ( 'NONE', ( #254, #245, #615, #363 ) ) ;
#181 = VECTOR ( 'NONE', #3, 1000.000000000000000 ) ;
#182 = CARTESIAN_POINT ( 'NONE',  ( -60.14999999999999858, 0.000000000000000000, 28.84999999999999787 ) ) ;
#183 =( GEOMETRIC_REPRESENTATION_CONTEXT ( 3 ) GLOBAL_UNCERTAINTY_ASSIGNED_CONTEXT ( ( #526 ) ) GLOBAL_UNIT_ASSIGNED_CONTEXT ( ( #627, #305, #375 ) ) REPRESENTATION_CONTEXT ( 'NONE', 'WORKASPACE' ) );
#184 = DIRECTION ( 'NONE',  ( 0.000000000000000000, 0.000000000000000000, -1.000000000000000000 ) ) ;
#185 = ORIENTED_EDGE ( 'NONE', *, *, #78, .T. ) ;
#186 = APPROVAL_DATE_TIME ( #433, #32 ) ;
#187 = CARTESIAN_POINT ( 'NONE',  ( -60.14999999999999858, 5.000000000000000000, -80.00000000000000000 ) ) ;
#188 = AXIS2_PLACEMENT_3D ( 'NONE', #202, #716, #409 ) ;
#189 = AXIS2_PLACEMENT_3D ( 'NONE', #625, #440, #117 ) ;
#190 = CARTESIAN_POINT ( 'NONE',  ( 60.14999999999999858, 0.000000000000000000, -78.25000000000000000 ) ) ;
#191 = DIRECTION ( 'NONE',  ( -1.000000000000000000, 0.000000000000000000, -0.000000000000000000 ) ) ;
#192 = VERTEX_POINT ( 'NONE', #256 ) ;
#193 = ORIENTED_EDGE ( 'NONE', *, *, #317, .T. ) ;
#194 = CARTESIAN_POINT ( 'NONE',  ( -60.14999999999999858, 5.000000000000000000, -81.75000000000000000 ) ) ;
#195 = APPLICATION_CONTEXT ( 'configuration controlled 3d designs of mechanical parts and assemblies' ) ;
#196 = CARTESIAN_POINT ( 'NONE',  ( 60.14999999999999858, 0.000000000000000000, -28.84999999999999787 ) ) ;
#197 = CARTESIAN_POINT ( 'NONE',  ( -60.14999999999999858, 7.000000000000000000, -80.00000000000000000 ) ) ;
#198 = ADVANCED_FACE ( 'NONE', ( #62 ), #644, .F. ) ;
#199 = CARTESIAN_POINT ( 'NONE',  ( -60.14999999999999858, 0.000000000000000000, -32.35000000000000142 ) ) ;
#200 = VERTEX_POINT ( 'NONE', #515 ) ;
#201 = DIRECTION ( 'NONE',  ( 0.000000000000000000, 0.000000000000000000, 1.000000000000000000 ) ) ;
#202 = CARTESIAN_POINT ( 'NONE',  ( -60.14999999999999858, 0.000000000000000000, 80.00000000000000000 ) ) ;
#203 = CARTESIAN_POINT ( 'NONE',  ( 60.14999999999999858, 5.000000000000000000, -80.00000000000000000 ) ) ;
#204 = DIRECTION ( 'NONE',  ( 0.000000000000000000, 0.000000000000000000, -1.000000000000000000 ) ) ;
#205 = ADVANCED_FACE ( 'NONE', ( #127, #769, #513, #448, #639, #253, #306, #453, #441 ), #325, .F. ) ;
#206 = CARTESIAN_POINT ( 'NONE',  ( -60.14999999999999858, 5.000000000000000000, 30.60000000000000142 ) ) ;
#207 = ORIENTED_EDGE ( 'NONE', *, *, #69, .T. ) ;
#208 = AXIS2_PLACEMENT_3D ( 'NONE', #347, #138, #796 ) ;
#209 = EDGE_CURVE ( 'NONE', #200, #169, #504, .T. ) ;
#210 = DATE_TIME_ROLE ( 'classification_date' ) ;
#211 = CC_DESIGN_PERSON_AND_ORGANIZATION_ASSIGNMENT ( #366, #250, ( #100 ) ) ;
#212 = DIRECTION ( 'NONE',  ( 0.000000000000000000, 0.000000000000000000, -1.000000000000000000 ) ) ;
#213 = AXIS2_PLACEMENT_3D ( 'NONE', #203, #670, #21 ) ;
#214 = CIRCLE ( 'NONE', #451, 1.750000000000001554 ) ;
#215 = DIRECTION ( 'NONE',  ( 0.000000000000000000, -1.000000000000000000, 0.000000000000000000 ) ) ;
#216 = DIRECTION ( 'NONE',  ( -1.000000000000000000, -0.000000000000000000, -0.000000000000000000 ) ) ;
#217 = DIRECTION ( 'NONE',  ( 0.000000000000000000, 0.000000000000000000, -1.000000000000000000 ) ) ;
#218 = CYLINDRICAL_SURFACE ( 'NONE', #132, 1.750000000000005107 ) ;
#219 = EDGE_LOOP ( 'NONE', ( #267, #356, #642, #223 ) ) ;
#220 = ORIENTED_EDGE ( 'NONE', *, *, #46, .T. ) ;
#221 = DIRECTION ( 'NONE',  ( 0.000000000000000000, 0.000000000000000000, -1.000000000000000000 ) ) ;
#222 = CYLINDRICAL_SURFACE ( 'NONE', #613, 1.750000000000001554 ) ;
#223 = ORIENTED_EDGE ( 'NONE', *, *, #261, .F. ) ;
#224 = ORIENTED_EDGE ( 'NONE', *, *, #296, .T. ) ;
#225 = FACE_BOUND ( 'NONE', #148, .T. ) ;
#226 = AXIS2_PLACEMENT_3D ( 'NONE', #542, #352, #611 ) ;
#227 = DIRECTION ( 'NONE',  ( 0.000000000000000000, 1.000000000000000000, 0.000000000000000000 ) ) ;
#228 = LINE ( 'NONE', #355, #155 ) ;
#229 = ORIENTED_EDGE ( 'NONE', *, *, #622, .T. ) ;
#230 = EDGE_CURVE ( 'NONE', #249, #474, #373, .T. ) ;
#231 = FACE_OUTER_BOUND ( 'NONE', #800, .T. ) ;
#232 = DIRECTION ( 'NONE',  ( 0.000000000000000000, -1.000000000000000000, 0.000000000000000000 ) ) ;
#233 = CARTESIAN_POINT ( 'NONE',  ( -60.14999999999999858, 0.000000000000000000, -78.25000000000000000 ) ) ;
#234 = ORIENTED_EDGE ( 'NONE', *, *, #357, .T. ) ;
#235 = CARTESIAN_POINT ( 'NONE',  ( 60.14999999999999858, 7.000000000000000000, 30.60000000000000142 ) ) ;
#236 = ADVANCED_FACE ( 'NONE', ( #707 ), #377, .F. ) ;
#237 = EDGE_LOOP ( 'NONE', ( #541, #224, #632, #374 ) ) ;
#238 = EDGE_CURVE ( 'NONE', #791, #304, #470, .T. ) ;
#239 = PERSON_AND_ORGANIZATION_ROLE ( 'creator' ) ;
#240 = VECTOR ( 'NONE', #10, 1000.000000000000000 ) ;
#241 = CIRCLE ( 'NONE', #806, 1.750000000000005107 ) ;
#242 = EDGE_LOOP ( 'NONE', ( #370, #285, #12, #298 ) ) ;
#243 = EDGE_CURVE ( 'NONE', #557, #574, #691, .T. ) ;
#244 = MECHANICAL_CONTEXT ( 'NONE', #195, 'mechanical' ) ;
#245 = ORIENTED_EDGE ( 'NONE', *, *, #764, .T. ) ;
#246 = ORIENTED_EDGE ( 'NONE', *, *, #551, .T. ) ;
#247 = ORIENTED_EDGE ( 'NONE', *, *, #51, .F. ) ;
#248 = CALENDAR_DATE ( 2026, 26, 7 ) ;
#249 = VERTEX_POINT ( 'NONE', #735 ) ;
#250 = PERSON_AND_ORGANIZATION_ROLE ( 'design_supplier' ) ;
#251 = ADVANCED_FACE ( 'NONE', ( #519 ), #527, .F. ) ;
#252 = LOCAL_TIME ( 21, 50, 55.00000000000000000, #499 ) ;
#253 = FACE_BOUND ( 'NONE', #25, .T. ) ;
#254 = ORIENTED_EDGE ( 'NONE', *, *, #532, .F. ) ;
#255 = CARTESIAN_POINT ( 'NONE',  ( 136.0000000000000000, 5.000000000000000000, 96.50000000000000000 ) ) ;
#256 = CARTESIAN_POINT ( 'NONE',  ( -60.14999999999999858, 5.000000000000000000, 28.84999999999999787 ) ) ;
#257 = CARTESIAN_POINT ( 'NONE',  ( -60.14999999999999858, 0.000000000000000000, -81.75000000000000000 ) ) ;
#258 = CARTESIAN_POINT ( 'NONE',  ( -136.0000000000000000, 5.000000000000000000, 96.50000000000000000 ) ) ;
#259 = ORIENTED_EDGE ( 'NONE', *, *, #743, .F. ) ;
#260 = CARTESIAN_POINT ( 'NONE',  ( 136.0000000000000000, 5.000000000000000000, -96.50000000000000000 ) ) ;
#261 = EDGE_CURVE ( 'NONE', #694, #77, #606, .T. ) ;
#262 = CARTESIAN_POINT ( 'NONE',  ( -136.0000000000000000, 5.000000000000000000, 96.50000000000000000 ) ) ;
#263 = VECTOR ( 'NONE', #5, 1000.000000000000000 ) ;
#264 = DIRECTION ( 'NONE',  ( 0.000000000000000000, -1.000000000000000000, 0.000000000000000000 ) ) ;
#265 = EDGE_CURVE ( 'NONE', #780, #645, #396, .T. ) ;
#266 = CYLINDRICAL_SURFACE ( 'NONE', #676, 1.750000000000001554 ) ;
#267 = ORIENTED_EDGE ( 'NONE', *, *, #743, .T. ) ;
#268 = DIRECTION ( 'NONE',  ( -0.000000000000000000, 1.000000000000000000, -0.000000000000000000 ) ) ;
#269 = CARTESIAN_POINT ( 'NONE',  ( 60.14999999999999858, 5.000000000000000000, 80.00000000000000000 ) ) ;
#270 = PRODUCT ( 'FN-PLT-005_fr4-5MM_8HOLE-NOMINAL_R0.5', 'FN-PLT-005_fr4-5MM_8HOLE-NOMINAL_R0.5', '', ( #244 ) ) ;
#271 = CARTESIAN_POINT ( 'NONE',  ( -60.14999999999999858, 7.000000000000000000, -30.60000000000000142 ) ) ;
#272 = DIRECTION ( 'NONE',  ( -0.000000000000000000, 1.000000000000000000, -0.000000000000000000 ) ) ;
#273 = VERTEX_POINT ( 'NONE', #194 ) ;
#274 = APPROVAL_DATE_TIME ( #121, #723 ) ;
#275 = CARTESIAN_POINT ( 'NONE',  ( 60.14999999999999858, 7.000000000000000000, 78.25000000000000000 ) ) ;
#276 = DIRECTION ( 'NONE',  ( 0.000000000000000000, -1.000000000000000000, 0.000000000000000000 ) ) ;
#277 = LINE ( 'NONE', #655, #313 ) ;
#278 = CIRCLE ( 'NONE', #754, 1.750000000000001554 ) ;
#279 = AXIS2_PLACEMENT_3D ( 'NONE', #528, #452, #126 ) ;
#280 = LINE ( 'NONE', #89, #493 ) ;
#281 = CC_DESIGN_APPROVAL ( #723, ( #157 ) ) ;
#282 = CYLINDRICAL_SURFACE ( 'NONE', #496, 1.750000000000005107 ) ;
#283 = CARTESIAN_POINT ( 'NONE',  ( 60.14999999999999858, 7.000000000000000000, -78.25000000000000000 ) ) ;
#284 = ORIENTED_EDGE ( 'NONE', *, *, #808, .T. ) ;
#285 = ORIENTED_EDGE ( 'NONE', *, *, #775, .T. ) ;
#286 = CARTESIAN_POINT ( 'NONE',  ( -136.0000000000000000, 5.000000000000000000, -96.50000000000000000 ) ) ;
#287 = DIRECTION ( 'NONE',  ( 1.000000000000000000, 0.000000000000000000, 0.000000000000000000 ) ) ;
#288 = ADVANCED_FACE ( 'NONE', ( #689 ), #103, .F. ) ;
#289 = CIRCLE ( 'NONE', #30, 1.750000000000005107 ) ;
#290 = DIRECTION ( 'NONE',  ( 0.000000000000000000, -1.000000000000000000, 0.000000000000000000 ) ) ;
#291 = ORIENTED_EDGE ( 'NONE', *, *, #238, .F. ) ;
#292 = PLANE ( 'NONE',  #757 ) ;
#293 = AXIS2_PLACEMENT_3D ( 'NONE', #295, #811, #22 ) ;
#294 = ORIENTED_EDGE ( 'NONE', *, *, #445, .T. ) ;
#295 = CARTESIAN_POINT ( 'NONE',  ( -60.14999999999999858, 5.000000000000000000, -30.60000000000000142 ) ) ;
#296 = EDGE_CURVE ( 'NONE', #705, #463, #699, .T. ) ;
#297 = ADVANCED_FACE ( 'NONE', ( #43 ), #820, .F. ) ;
#298 = ORIENTED_EDGE ( 'NONE', *, *, #321, .F. ) ;
#299 = CARTESIAN_POINT ( 'NONE',  ( -60.14999999999999858, 7.000000000000000000, -78.25000000000000000 ) ) ;
#300 = ORIENTED_EDGE ( 'NONE', *, *, #688, .T. ) ;
#301 = APPROVAL_STATUS ( 'not_yet_approved' ) ;
#302 = AXIS2_PLACEMENT_3D ( 'NONE', #565, #521, #388 ) ;
#303 = DATE_AND_TIME ( #248, #397 ) ;
#304 = VERTEX_POINT ( 'NONE', #555 ) ;
#305 =( NAMED_UNIT ( * ) PLANE_ANGLE_UNIT ( ) SI_UNIT ( $, .RADIAN. ) );
#306 = FACE_BOUND ( 'NONE', #379, .T. ) ;
#307 = ORIENTED_EDGE ( 'NONE', *, *, #584, .T. ) ;
#308 = EDGE_CURVE ( 'NONE', #320, #564, #311, .T. ) ;
#309 = ORIENTED_EDGE ( 'NONE', *, *, #437, .F. ) ;
#310 = CIRCLE ( 'NONE', #438, 1.750000000000001554 ) ;
#311 = CIRCLE ( 'NONE', #412, 1.750000000000001554 ) ;
#312 = SECURITY_CLASSIFICATION_LEVEL ( 'unclassified' ) ;
#313 = VECTOR ( 'NONE', #829, 1000.000000000000000 ) ;
#314 = LOCAL_TIME ( 21, 50, 55.00000000000000000, #382 ) ;
#315 = EDGE_CURVE ( 'NONE', #705, #192, #739, .T. ) ;
#316 = VERTEX_POINT ( 'NONE', #489 ) ;
#317 = EDGE_CURVE ( 'NONE', #200, #408, #136, .T. ) ;
#318 = VERTEX_POINT ( 'NONE', #233 ) ;
#319 = DIRECTION ( 'NONE',  ( 0.000000000000000000, 0.000000000000000000, 1.000000000000000000 ) ) ;
#320 = VERTEX_POINT ( 'NONE', #420 ) ;
#321 = EDGE_CURVE ( 'NONE', #273, #594, #228, .T. ) ;
#322 = DIRECTION ( 'NONE',  ( 0.000000000000000000, 0.000000000000000000, -1.000000000000000000 ) ) ;
#323 = CARTESIAN_POINT ( 'NONE',  ( -136.0000000000000000, 5.000000000000000000, -96.50000000000000000 ) ) ;
#324 = FACE_OUTER_BOUND ( 'NONE', #668, .T. ) ;
#325 = PLANE ( 'NONE',  #302 ) ;
#326 = AXIS2_PLACEMENT_3D ( 'NONE', #593, #586, #15 ) ;
#327 = CARTESIAN_POINT ( 'NONE',  ( -60.14999999999999858, 5.000000000000000000, 78.25000000000000000 ) ) ;
#328 = ORGANIZATION ( '未指定', '未指定', '' ) ;
#329 = CYLINDRICAL_SURFACE ( 'NONE', #600, 1.750000000000001554 ) ;
#330 = FACE_OUTER_BOUND ( 'NONE', #237, .T. ) ;
#331 = ORIENTED_EDGE ( 'NONE', *, *, #414, .T. ) ;
#332 = PLANE ( 'NONE',  #756 ) ;
#333 = DIRECTION ( 'NONE',  ( 0.000000000000000000, -1.000000000000000000, 0.000000000000000000 ) ) ;
#334 = EDGE_LOOP ( 'NONE', ( #640, #229, #284, #631 ) ) ;
#335 = DIRECTION ( 'NONE',  ( 0.000000000000000000, 0.000000000000000000, 1.000000000000000000 ) ) ;
#336 = LINE ( 'NONE', #283, #407 ) ;
#337 = CLOSED_SHELL ( 'NONE', ( #106, #802, #163, #251, #561, #747, #359, #823, #772, #198, #236, #623, #205, #750, #530, #771, #288, #297, #50, #650, #96, #140 ) ) ;
#338 = ORIENTED_EDGE ( 'NONE', *, *, #692, .F. ) ;
#339 = DIRECTION ( 'NONE',  ( 1.000000000000000000, -0.000000000000000000, 0.000000000000000000 ) ) ;
#340 = AXIS2_PLACEMENT_3D ( 'NONE', #459, #150, #653 ) ;
#341 = CIRCLE ( 'NONE', #56, 1.750000000000001554 ) ;
#342 = DIRECTION ( 'NONE',  ( 0.000000000000000000, -1.000000000000000000, 0.000000000000000000 ) ) ;
#343 = ORIENTED_EDGE ( 'NONE', *, *, #808, .F. ) ;
#344 = VERTEX_POINT ( 'NONE', #744 ) ;
#345 = DIRECTION ( 'NONE',  ( -0.000000000000000000, -1.000000000000000000, -0.000000000000000000 ) ) ;
#346 = CARTESIAN_POINT ( 'NONE',  ( -60.14999999999999858, 5.000000000000000000, 32.35000000000000142 ) ) ;
#347 = CARTESIAN_POINT ( 'NONE',  ( 60.14999999999999858, 7.000000000000000000, -30.60000000000000142 ) ) ;
#348 = CARTESIAN_POINT ( 'NONE',  ( -60.14999999999999858, 0.000000000000000000, 30.60000000000000142 ) ) ;
#349 = EDGE_CURVE ( 'NONE', #318, #594, #792, .T. ) ;
#350 = DIRECTION ( 'NONE',  ( 0.000000000000000000, 0.000000000000000000, 1.000000000000000000 ) ) ;
#351 = ORIENTED_EDGE ( 'NONE', *, *, #17, .T. ) ;
#352 = DIRECTION ( 'NONE',  ( 0.000000000000000000, -1.000000000000000000, 0.000000000000000000 ) ) ;
#353 = DIRECTION ( 'NONE',  ( 0.000000000000000000, -1.000000000000000000, 0.000000000000000000 ) ) ;
#354 = VECTOR ( 'NONE', #287, 1000.000000000000000 ) ;
#355 = CARTESIAN_POINT ( 'NONE',  ( -60.14999999999999858, 7.000000000000000000, -81.75000000000000000 ) ) ;
#356 = ORIENTED_EDGE ( 'NONE', *, *, #532, .T. ) ;
#357 = EDGE_CURVE ( 'NONE', #687, #344, #582, .T. ) ;
#358 = CARTESIAN_POINT ( 'NONE',  ( -60.14999999999999858, 5.000000000000000000, -32.35000000000000142 ) ) ;
#359 = ADVANCED_FACE ( 'NONE', ( #804 ), #362, .F. ) ;
#360 = VECTOR ( 'NONE', #129, 1000.000000000000000 ) ;
#361 = CIRCLE ( 'NONE', #534, 1.750000000000005107 ) ;
#362 = CYLINDRICAL_SURFACE ( 'NONE', #429, 1.750000000000005107 ) ;
#363 = ORIENTED_EDGE ( 'NONE', *, *, #562, .F. ) ;
#364 = FACE_BOUND ( 'NONE', #67, .T. ) ;
#365 = ORIENTED_EDGE ( 'NONE', *, *, #176, .T. ) ;
#366 = PERSON_AND_ORGANIZATION ( #783, #328 ) ;
#367 = CIRCLE ( 'NONE', #577, 1.750000000000001554 ) ;
#368 = APPROVAL_DATE_TIME ( #303, #392 ) ;
#369 = AXIS2_PLACEMENT_3D ( 'NONE', #432, #695, #105 ) ;
#370 = ORIENTED_EDGE ( 'NONE', *, *, #592, .T. ) ;
#371 = CARTESIAN_POINT ( 'NONE',  ( 0.000000000000000000, 0.000000000000000000, 0.000000000000000000 ) ) ;
#372 = ORIENTED_EDGE ( 'NONE', *, *, #230, .F. ) ;
#373 = LINE ( 'NONE', #510, #450 ) ;
#374 = ORIENTED_EDGE ( 'NONE', *, *, #443, .F. ) ;
#375 =( NAMED_UNIT ( * ) SI_UNIT ( $, .STERADIAN. ) SOLID_ANGLE_UNIT ( ) );
#376 = EDGE_CURVE ( 'NONE', #408, #635, #164, .T. ) ;
#377 = PLANE ( 'NONE',  #55 ) ;
#378 = CC_DESIGN_PERSON_AND_ORGANIZATION_ASSIGNMENT ( #494, #759, ( #270 ) ) ;
#379 = EDGE_LOOP ( 'NONE', ( #401, #487 ) ) ;
#380 = VECTOR ( 'NONE', #345, 1000.000000000000000 ) ;
#381 = AXIS2_PLACEMENT_3D ( 'NONE', #269, #661, #591 ) ;
#382 = COORDINATED_UNIVERSAL_TIME_OFFSET ( 8, 0, .AHEAD. ) ;
#383 = CARTESIAN_POINT ( 'NONE',  ( -60.14999999999999858, 7.000000000000000000, -28.84999999999999787 ) ) ;
#384 = DIRECTION ( 'NONE',  ( 0.000000000000000000, 0.000000000000000000, 1.000000000000000000 ) ) ;
#385 = APPLICATION_CONTEXT ( 'configuration controlled 3d designs of mechanical parts and assemblies' ) ;
#386 = ORIENTED_EDGE ( 'NONE', *, *, #243, .F. ) ;
#387 = LINE ( 'NONE', #383, #240 ) ;
#388 = DIRECTION ( 'NONE',  ( 0.000000000000000000, -0.000000000000000000, -1.000000000000000000 ) ) ;
#389 = ORIENTED_EDGE ( 'NONE', *, *, #296, .F. ) ;
#390 = DIRECTION ( 'NONE',  ( -0.000000000000000000, -1.000000000000000000, -0.000000000000000000 ) ) ;
#391 = CARTESIAN_POINT ( 'NONE',  ( -60.14999999999999858, 7.000000000000000000, -30.60000000000000142 ) ) ;
#392 = APPROVAL ( #509, '未指定' ) ;
#393 = DIRECTION ( 'NONE',  ( -0.000000000000000000, 1.000000000000000000, -0.000000000000000000 ) ) ;
#394 = ORIENTED_EDGE ( 'NONE', *, *, #349, .F. ) ;
#395 = APPROVAL_ROLE ( '' ) ;
#396 = LINE ( 'NONE', #262, #765 ) ;
#397 = LOCAL_TIME ( 21, 50, 55.00000000000000000, #768 ) ;
#398 = DIRECTION ( 'NONE',  ( 0.000000000000000000, -1.000000000000000000, 0.000000000000000000 ) ) ;
#399 = EDGE_CURVE ( 'NONE', #77, #801, #559, .T. ) ;
#400 = CYLINDRICAL_SURFACE ( 'NONE', #762, 1.750000000000001554 ) ;
#401 = ORIENTED_EDGE ( 'NONE', *, *, #506, .F. ) ;
#402 = CYLINDRICAL_SURFACE ( 'NONE', #484, 1.750000000000001554 ) ;
#403 = CARTESIAN_POINT ( 'NONE',  ( 60.14999999999999858, 0.000000000000000000, -32.35000000000000142 ) ) ;
#404 = ORIENTED_EDGE ( 'NONE', *, *, #142, .T. ) ;
#405 = FACE_BOUND ( 'NONE', #797, .T. ) ;
#406 = DIRECTION ( 'NONE',  ( 0.000000000000000000, 1.000000000000000000, 0.000000000000000000 ) ) ;
#407 = VECTOR ( 'NONE', #540, 1000.000000000000000 ) ;
#408 = VERTEX_POINT ( 'NONE', #8 ) ;
#409 = DIRECTION ( 'NONE',  ( 0.000000000000000000, 0.000000000000000000, 1.000000000000000000 ) ) ;
#410 = ORIENTED_EDGE ( 'NONE', *, *, #469, .T. ) ;
#411 = CARTESIAN_POINT ( 'NONE',  ( 136.0000000000000000, 5.000000000000000000, 96.50000000000000000 ) ) ;
#412 = AXIS2_PLACEMENT_3D ( 'NONE', #428, #174, #697 ) ;
#413 = VECTOR ( 'NONE', #91, 1000.000000000000000 ) ;
#414 = EDGE_CURVE ( 'NONE', #115, #273, #548, .T. ) ;
#415 = CARTESIAN_POINT ( 'NONE',  ( 60.14999999999999858, 0.000000000000000000, -30.60000000000000142 ) ) ;
#416 = EDGE_LOOP ( 'NONE', ( #442, #738 ) ) ;
#417 = DIRECTION ( 'NONE',  ( 0.000000000000000000, -1.000000000000000000, 0.000000000000000000 ) ) ;
#418 = ORIENTED_EDGE ( 'NONE', *, *, #24, .T. ) ;
#419 = FACE_OUTER_BOUND ( 'NONE', #242, .T. ) ;
#420 = CARTESIAN_POINT ( 'NONE',  ( 60.14999999999999858, 0.000000000000000000, -81.75000000000000000 ) ) ;
#421 = ORIENTED_EDGE ( 'NONE', *, *, #579, .T. ) ;
#422 = CC_DESIGN_PERSON_AND_ORGANIZATION_ASSIGNMENT ( #573, #173, ( #157 ) ) ;
#423 = FACE_OUTER_BOUND ( 'NONE', #501, .T. ) ;
#424 = PRODUCT_DEFINITION ( '未知', '', #100, #595 ) ;
#425 = CARTESIAN_POINT ( 'NONE',  ( 60.14999999999999858, 0.000000000000000000, 30.60000000000000142 ) ) ;
#426 = EDGE_LOOP ( 'NONE', ( #418, #161 ) ) ;
#427 = CARTESIAN_POINT ( 'NONE',  ( -60.14999999999999858, 0.000000000000000000, 30.60000000000000142 ) ) ;
#428 = CARTESIAN_POINT ( 'NONE',  ( 60.14999999999999858, 0.000000000000000000, -80.00000000000000000 ) ) ;
#429 = AXIS2_PLACEMENT_3D ( 'NONE', #33, #486, #92 ) ;
#430 = VERTEX_POINT ( 'NONE', #327 ) ;
#431 = CALENDAR_DATE ( 2026, 26, 7 ) ;
#432 = CARTESIAN_POINT ( 'NONE',  ( -60.14999999999999858, 5.000000000000000000, 30.60000000000000142 ) ) ;
#433 = DATE_AND_TIME ( #175, #172 ) ;
#434 = VERTEX_POINT ( 'NONE', #454 ) ;
#435 = CALENDAR_DATE ( 2026, 26, 7 ) ;
#436 = EDGE_CURVE ( 'NONE', #594, #318, #122, .T. ) ;
#437 = EDGE_CURVE ( 'NONE', #316, #645, #522, .T. ) ;
#438 = AXIS2_PLACEMENT_3D ( 'NONE', #348, #227, #1 ) ;
#439 = AXIS2_PLACEMENT_3D ( 'NONE', #166, #488, #481 ) ;
#440 = DIRECTION ( 'NONE',  ( 0.000000000000000000, -1.000000000000000000, 0.000000000000000000 ) ) ;
#441 = FACE_OUTER_BOUND ( 'NONE', #767, .T. ) ;
#442 = ORIENTED_EDGE ( 'NONE', *, *, #592, .F. ) ;
#443 = EDGE_CURVE ( 'NONE', #192, #828, #786, .T. ) ;
#444 = LINE ( 'NONE', #696, #824 ) ;
#445 = EDGE_CURVE ( 'NONE', #763, #102, #712, .T. ) ;
#446 = ORIENTED_EDGE ( 'NONE', *, *, #584, .F. ) ;
#447 = VERTEX_POINT ( 'NONE', #581 ) ;
#448 = FACE_BOUND ( 'NONE', #99, .T. ) ;
#449 = LINE ( 'NONE', #599, #98 ) ;
#450 = VECTOR ( 'NONE', #118, 1000.000000000000000 ) ;
#451 = AXIS2_PLACEMENT_3D ( 'NONE', #724, #456, #787 ) ;
#452 = DIRECTION ( 'NONE',  ( -0.000000000000000000, 1.000000000000000000, -0.000000000000000000 ) ) ;
#453 = FACE_BOUND ( 'NONE', #416, .T. ) ;
#454 = CARTESIAN_POINT ( 'NONE',  ( -60.14999999999999858, 0.000000000000000000, 81.75000000000000000 ) ) ;
#455 = EDGE_LOOP ( 'NONE', ( #165, #220, #805, #566 ) ) ;
#456 = DIRECTION ( 'NONE',  ( -0.000000000000000000, 1.000000000000000000, -0.000000000000000000 ) ) ;
#457 = DIRECTION ( 'NONE',  ( 0.000000000000000000, 0.000000000000000000, 1.000000000000000000 ) ) ;
#458 = EDGE_LOOP ( 'NONE', ( #389, #125, #538, #734 ) ) ;
#459 = CARTESIAN_POINT ( 'NONE',  ( 60.14999999999999858, 7.000000000000000000, -80.00000000000000000 ) ) ;
#460 = CARTESIAN_POINT ( 'NONE',  ( 60.14999999999999858, 7.000000000000000000, 80.00000000000000000 ) ) ;
#461 = VECTOR ( 'NONE', #417, 1000.000000000000000 ) ;
#462 = DIRECTION ( 'NONE',  ( 0.000000000000000000, 0.000000000000000000, -1.000000000000000000 ) ) ;
#463 = VERTEX_POINT ( 'NONE', #64 ) ;
#464 = DIRECTION ( 'NONE',  ( 0.000000000000000000, 0.000000000000000000, -1.000000000000000000 ) ) ;
#465 = VECTOR ( 'NONE', #390, 1000.000000000000000 ) ;
#466 = AXIS2_PLACEMENT_3D ( 'NONE', #371, #104, #109 ) ;
#467 = DIRECTION ( 'NONE',  ( -0.000000000000000000, 1.000000000000000000, -0.000000000000000000 ) ) ;
#468 = CARTESIAN_POINT ( 'NONE',  ( 60.14999999999999858, 0.000000000000000000, -80.00000000000000000 ) ) ;
#469 = EDGE_CURVE ( 'NONE', #304, #102, #449, .T. ) ;
#470 = LINE ( 'NONE', #665, #380 ) ;
#471 = EDGE_CURVE ( 'NONE', #139, #434, #168, .T. ) ;
#472 = CARTESIAN_POINT ( 'NONE',  ( 60.14999999999999858, 7.000000000000000000, -30.60000000000000142 ) ) ;
#473 = LINE ( 'NONE', #733, #461 ) ;
#474 = VERTEX_POINT ( 'NONE', #73 ) ;
#475 = EDGE_LOOP ( 'NONE', ( #760, #365 ) ) ;
#476 = EDGE_CURVE ( 'NONE', #587, #316, #652, .T. ) ;
#477 = CARTESIAN_POINT ( 'NONE',  ( -60.14999999999999858, 7.000000000000000000, 78.25000000000000000 ) ) ;
#478 = CARTESIAN_POINT ( 'NONE',  ( 60.14999999999999858, 0.000000000000000000, 80.00000000000000000 ) ) ;
#479 = ORIENTED_EDGE ( 'NONE', *, *, #436, .T. ) ;
#480 = VERTEX_POINT ( 'NONE', #588 ) ;
#481 = DIRECTION ( 'NONE',  ( 0.000000000000000000, 0.000000000000000000, -1.000000000000000000 ) ) ;
#482 = VECTOR ( 'NONE', #614, 1000.000000000000000 ) ;
#483 = CARTESIAN_POINT ( 'NONE',  ( 60.14999999999999858, 7.000000000000000000, 80.00000000000000000 ) ) ;
#484 = AXIS2_PLACEMENT_3D ( 'NONE', #460, #264, #212 ) ;
#485 = APPROVAL_PERSON_ORGANIZATION ( #9, #723, #395 ) ;
#486 = DIRECTION ( 'NONE',  ( 0.000000000000000000, -1.000000000000000000, 0.000000000000000000 ) ) ;
#487 = ORIENTED_EDGE ( 'NONE', *, *, #660, .F. ) ;
#488 = DIRECTION ( 'NONE',  ( -0.000000000000000000, 1.000000000000000000, -0.000000000000000000 ) ) ;
#489 = CARTESIAN_POINT ( 'NONE',  ( -136.0000000000000000, 0.000000000000000000, -96.50000000000000000 ) ) ;
#490 = EDGE_LOOP ( 'NONE', ( #2, #48, #87, #294 ) ) ;
#491 = FACE_OUTER_BOUND ( 'NONE', #58, .T. ) ;
#492 = EDGE_LOOP ( 'NONE', ( #553, #72 ) ) ;
#493 = VECTOR ( 'NONE', #536, 1000.000000000000000 ) ;
#494 = PERSON_AND_ORGANIZATION ( #783, #328 ) ;
#495 = AXIS2_PLACEMENT_3D ( 'NONE', #425, #28, #545 ) ;
#496 = AXIS2_PLACEMENT_3D ( 'NONE', #235, #39, #736 ) ;
#497 = ORIENTED_EDGE ( 'NONE', *, *, #817, .T. ) ;
#498 = DATE_TIME_ROLE ( 'creation_date' ) ;
#499 = COORDINATED_UNIVERSAL_TIME_OFFSET ( 8, 0, .AHEAD. ) ;
#500 = EDGE_CURVE ( 'NONE', #102, #316, #674, .T. ) ;
#501 = EDGE_LOOP ( 'NONE', ( #309, #758, #646, #518 ) ) ;
#502 = CIRCLE ( 'NONE', #722, 1.750000000000001554 ) ;
#503 = PERSON_AND_ORGANIZATION_ROLE ( 'creator' ) ;
#504 = LINE ( 'NONE', #114, #673 ) ;
#505 = ORIENTED_EDGE ( 'NONE', *, *, #230, .T. ) ;
#506 = EDGE_CURVE ( 'NONE', #447, #128, #637, .T. ) ;
#507 = CC_DESIGN_APPROVAL ( #392, ( #424 ) ) ;
#508 = CC_DESIGN_DATE_AND_TIME_ASSIGNMENT ( #718, #210, ( #157 ) ) ;
#509 = APPROVAL_STATUS ( 'not_yet_approved' ) ;
#510 = CARTESIAN_POINT ( 'NONE',  ( 60.14999999999999858, 7.000000000000000000, 81.75000000000000000 ) ) ;
#511 = ORIENTED_EDGE ( 'NONE', *, *, #69, .F. ) ;
#512 = DIRECTION ( 'NONE',  ( -1.000000000000000000, 0.000000000000000000, 0.000000000000000000 ) ) ;
#513 = FACE_BOUND ( 'NONE', #120, .T. ) ;
#514 = LINE ( 'NONE', #275, #709 ) ;
#515 = CARTESIAN_POINT ( 'NONE',  ( 60.14999999999999858, 5.000000000000000000, -32.35000000000000142 ) ) ;
#516 = ORIENTED_EDGE ( 'NONE', *, *, #399, .T. ) ;
#517 = AXIS2_PLACEMENT_3D ( 'NONE', #549, #160, #609 ) ;
#518 = ORIENTED_EDGE ( 'NONE', *, *, #556, .F. ) ;
#519 = FACE_OUTER_BOUND ( 'NONE', #810, .T. ) ;
#520 = DIRECTION ( 'NONE',  ( 0.000000000000000000, 0.000000000000000000, -1.000000000000000000 ) ) ;
#521 = DIRECTION ( 'NONE',  ( 0.000000000000000000, -1.000000000000000000, 0.000000000000000000 ) ) ;
#522 = LINE ( 'NONE', #576, #181 ) ;
#523 = EDGE_CURVE ( 'NONE', #344, #687, #278, .T. ) ;
#524 = CARTESIAN_POINT ( 'NONE',  ( 60.14999999999999858, 5.000000000000000000, -80.00000000000000000 ) ) ;
#525 = DIRECTION ( 'NONE',  ( 0.000000000000000000, 1.000000000000000000, 0.000000000000000000 ) ) ;
#526 = UNCERTAINTY_MEASURE_WITH_UNIT (LENGTH_MEASURE( 1.000000000000000082E-05 ), #627, 'distance_accuracy_value', 'NONE');
#527 = CYLINDRICAL_SURFACE ( 'NONE', #340, 1.750000000000001554 ) ;
#528 = CARTESIAN_POINT ( 'NONE',  ( 60.14999999999999858, 5.000000000000000000, 80.00000000000000000 ) ) ;
#529 = CIRCLE ( 'NONE', #569, 1.750000000000005107 ) ;
#530 = ADVANCED_FACE ( 'NONE', ( #324 ), #266, .F. ) ;
#531 = DIRECTION ( 'NONE',  ( 0.000000000000000000, 0.000000000000000000, -1.000000000000000000 ) ) ;
#532 = EDGE_CURVE ( 'NONE', #571, #801, #387, .T. ) ;
#533 = CARTESIAN_POINT ( 'NONE',  ( -136.0000000000000000, 5.000000000000000000, -96.50000000000000000 ) ) ;
#534 = AXIS2_PLACEMENT_3D ( 'NONE', #607, #37, #146 ) ;
#535 = FACE_OUTER_BOUND ( 'NONE', #490, .T. ) ;
#536 = DIRECTION ( 'NONE',  ( 0.000000000000000000, -1.000000000000000000, 0.000000000000000000 ) ) ;
#537 = DIRECTION ( 'NONE',  ( 0.000000000000000000, 0.000000000000000000, 1.000000000000000000 ) ) ;
#538 = ORIENTED_EDGE ( 'NONE', *, *, #443, .T. ) ;
#539 = DIRECTION ( 'NONE',  ( 0.000000000000000000, -1.000000000000000000, 0.000000000000000000 ) ) ;
#540 = DIRECTION ( 'NONE',  ( 0.000000000000000000, -1.000000000000000000, 0.000000000000000000 ) ) ;
#541 = ORIENTED_EDGE ( 'NONE', *, *, #51, .T. ) ;
#542 = CARTESIAN_POINT ( 'NONE',  ( -60.14999999999999858, 7.000000000000000000, 80.00000000000000000 ) ) ;
#543 = CYLINDRICAL_SURFACE ( 'NONE', #45, 1.750000000000001554 ) ;
#544 = CARTESIAN_POINT ( 'NONE',  ( -60.14999999999999858, 5.000000000000000000, -78.25000000000000000 ) ) ;
#545 = DIRECTION ( 'NONE',  ( 0.000000000000000000, 0.000000000000000000, 1.000000000000000000 ) ) ;
#546 = ORIENTED_EDGE ( 'NONE', *, *, #476, .T. ) ;
#547 = DIRECTION ( 'NONE',  ( 0.000000000000000000, 0.000000000000000000, -1.000000000000000000 ) ) ;
#548 = CIRCLE ( 'NONE', #700, 1.750000000000001554 ) ;
#549 = CARTESIAN_POINT ( 'NONE',  ( 60.14999999999999858, 5.000000000000000000, -30.60000000000000142 ) ) ;
#550 = ORIENTED_EDGE ( 'NONE', *, *, #556, .T. ) ;
#551 = EDGE_CURVE ( 'NONE', #574, #557, #171, .T. ) ;
#552 = DIRECTION ( 'NONE',  ( 0.000000000000000000, 0.000000000000000000, 1.000000000000000000 ) ) ;
#553 = ORIENTED_EDGE ( 'NONE', *, *, #681, .F. ) ;
#554 = DIRECTION ( 'NONE',  ( 0.000000000000000000, -1.000000000000000000, 0.000000000000000000 ) ) ;
#555 = CARTESIAN_POINT ( 'NONE',  ( 136.0000000000000000, 0.000000000000000000, 96.50000000000000000 ) ) ;
#556 = EDGE_CURVE ( 'NONE', #645, #304, #719, .T. ) ;
#557 = VERTEX_POINT ( 'NONE', #143 ) ;
#558 = COORDINATED_UNIVERSAL_TIME_OFFSET ( 8, 0, .AHEAD. ) ;
#559 = CIRCLE ( 'NONE', #108, 1.750000000000005107 ) ;
#560 = VECTOR ( 'NONE', #803, 1000.000000000000000 ) ;
#561 = ADVANCED_FACE ( 'NONE', ( #578 ), #402, .F. ) ;
#562 = EDGE_CURVE ( 'NONE', #801, #77, #137, .T. ) ;
#563 = ORIENTED_EDGE ( 'NONE', *, *, #321, .T. ) ;
#564 = VERTEX_POINT ( 'NONE', #190 ) ;
#565 = CARTESIAN_POINT ( 'NONE',  ( 0.000000000000000000, 5.000000000000000000, 0.000000000000000000 ) ) ;
#566 = ORIENTED_EDGE ( 'NONE', *, *, #714, .F. ) ;
#567 = EDGE_LOOP ( 'NONE', ( #827, #179, #664, #770 ) ) ;
#568 = CC_DESIGN_PERSON_AND_ORGANIZATION_ASSIGNMENT ( #636, #503, ( #424 ) ) ;
#569 = AXIS2_PLACEMENT_3D ( 'NONE', #415, #406, #678 ) ;
#570 = PERSON_AND_ORGANIZATION ( #783, #328 ) ;
#571 = VERTEX_POINT ( 'NONE', #713 ) ;
#572 = CC_DESIGN_SECURITY_CLASSIFICATION ( #157, ( #100 ) ) ;
#573 = PERSON_AND_ORGANIZATION ( #783, #328 ) ;
#574 = VERTEX_POINT ( 'NONE', #575 ) ;
#575 = CARTESIAN_POINT ( 'NONE',  ( 60.14999999999999858, 5.000000000000000000, -78.25000000000000000 ) ) ;
#576 = CARTESIAN_POINT ( 'NONE',  ( -136.0000000000000000, 0.000000000000000000, 96.50000000000000000 ) ) ;
#577 = AXIS2_PLACEMENT_3D ( 'NONE', #478, #788, #85 ) ;
#578 = FACE_OUTER_BOUND ( 'NONE', #679, .T. ) ;
#579 = EDGE_CURVE ( 'NONE', #447, #687, #666, .T. ) ;
#580 = ORIENTED_EDGE ( 'NONE', *, *, #317, .F. ) ;
#581 = CARTESIAN_POINT ( 'NONE',  ( 60.14999999999999858, 5.000000000000000000, 28.84999999999999787 ) ) ;
#582 = CIRCLE ( 'NONE', #495, 1.750000000000001554 ) ;
#583 = AXIS2_PLACEMENT_3D ( 'NONE', #524, #643, #204 ) ;
#584 = EDGE_CURVE ( 'NONE', #480, #38, #514, .T. ) ;
#585 = CARTESIAN_POINT ( 'NONE',  ( 60.14999999999999858, 5.000000000000000000, 30.60000000000000142 ) ) ;
#586 = DIRECTION ( 'NONE',  ( 0.000000000000000000, 1.000000000000000000, 0.000000000000000000 ) ) ;
#587 = VERTEX_POINT ( 'NONE', #61 ) ;
#588 = CARTESIAN_POINT ( 'NONE',  ( 60.14999999999999858, 5.000000000000000000, 78.25000000000000000 ) ) ;
#589 = EDGE_LOOP ( 'NONE', ( #675, #207 ) ) ;
#590 = EDGE_CURVE ( 'NONE', #587, #780, #277, .T. ) ;
#591 = DIRECTION ( 'NONE',  ( 0.000000000000000000, 0.000000000000000000, -1.000000000000000000 ) ) ;
#592 = EDGE_CURVE ( 'NONE', #273, #115, #214, .T. ) ;
#593 = CARTESIAN_POINT ( 'NONE',  ( -60.14999999999999858, 0.000000000000000000, 80.00000000000000000 ) ) ;
#594 = VERTEX_POINT ( 'NONE', #257 ) ;
#595 = DESIGN_CONTEXT ( 'detailed design', #385, 'design' ) ;
#596 = CARTESIAN_POINT ( 'NONE',  ( -60.14999999999999858, 0.000000000000000000, -30.60000000000000142 ) ) ;
#597 = CARTESIAN_POINT ( 'NONE',  ( 60.14999999999999858, 5.000000000000000000, -30.60000000000000142 ) ) ;
#598 = ORIENTED_EDGE ( 'NONE', *, *, #46, .F. ) ;
#599 = CARTESIAN_POINT ( 'NONE',  ( 136.0000000000000000, 0.000000000000000000, 96.50000000000000000 ) ) ;
#600 = AXIS2_PLACEMENT_3D ( 'NONE', #391, #398, #68 ) ;
#601 = FACE_OUTER_BOUND ( 'NONE', #82, .T. ) ;
#602 = CARTESIAN_POINT ( 'NONE',  ( 60.14999999999999858, 7.000000000000000000, -80.00000000000000000 ) ) ;
#603 = ORIENTED_EDGE ( 'NONE', *, *, #764, .F. ) ;
#604 = DIRECTION ( 'NONE',  ( 0.000000000000000000, 0.000000000000000000, -1.000000000000000000 ) ) ;
#605 = EDGE_LOOP ( 'NONE', ( #247, #20 ) ) ;
#606 = LINE ( 'NONE', #134, #44 ) ;
#607 = CARTESIAN_POINT ( 'NONE',  ( 60.14999999999999858, 0.000000000000000000, -30.60000000000000142 ) ) ;
#608 = CYLINDRICAL_SURFACE ( 'NONE', #53, 1.750000000000005107 ) ;
#609 = DIRECTION ( 'NONE',  ( 0.000000000000000000, 0.000000000000000000, -1.000000000000000000 ) ) ;
#610 = ORIENTED_EDGE ( 'NONE', *, *, #660, .T. ) ;
#611 = DIRECTION ( 'NONE',  ( 0.000000000000000000, 0.000000000000000000, -1.000000000000000000 ) ) ;
#612 = FACE_BOUND ( 'NONE', #589, .T. ) ;
#613 = AXIS2_PLACEMENT_3D ( 'NONE', #271, #276, #531 ) ;
#614 = DIRECTION ( 'NONE',  ( 0.000000000000000000, -1.000000000000000000, 0.000000000000000000 ) ) ;
#615 = ORIENTED_EDGE ( 'NONE', *, *, #261, .T. ) ;
#616 = FACE_BOUND ( 'NONE', #475, .T. ) ;
#617 = AXIS2_PLACEMENT_3D ( 'NONE', #651, #781, #201 ) ;
#618 = CIRCLE ( 'NONE', #439, 1.750000000000001554 ) ;
#619 = APPROVAL_PERSON_ORGANIZATION ( #570, #32, #755 ) ;
#620 = ORIENTED_EDGE ( 'NONE', *, *, #84, .T. ) ;
#621 = CARTESIAN_POINT ( 'NONE',  ( 136.0000000000000000, 5.000000000000000000, -96.50000000000000000 ) ) ;
#622 = EDGE_CURVE ( 'NONE', #711, #430, #70, .T. ) ;
#623 = ADVANCED_FACE ( 'NONE', ( #535 ), #332, .F. ) ;
#624 = ORIENTED_EDGE ( 'NONE', *, *, #24, .F. ) ;
#625 = CARTESIAN_POINT ( 'NONE',  ( -60.14999999999999858, 7.000000000000000000, -80.00000000000000000 ) ) ;
#626 = EDGE_CURVE ( 'NONE', #249, #480, #779, .T. ) ;
#627 =( LENGTH_UNIT ( ) NAMED_UNIT ( * ) SI_UNIT ( .MILLI., .METRE. ) );
#628 = CIRCLE ( 'NONE', #381, 1.750000000000001554 ) ;
#629 = LOCAL_TIME ( 21, 50, 55.00000000000000000, #558 ) ;
#630 = ORIENTED_EDGE ( 'NONE', *, *, #445, .F. ) ;
#631 = ORIENTED_EDGE ( 'NONE', *, *, #142, .F. ) ;
#632 = ORIENTED_EDGE ( 'NONE', *, *, #706, .F. ) ;
#633 = CARTESIAN_POINT ( 'NONE',  ( -60.14999999999999858, 7.000000000000000000, 32.35000000000000142 ) ) ;
#634 = PERSON_AND_ORGANIZATION ( #783, #328 ) ;
#635 = VERTEX_POINT ( 'NONE', #196 ) ;
#636 = PERSON_AND_ORGANIZATION ( #783, #328 ) ;
#637 = CIRCLE ( 'NONE', #657, 1.750000000000005107 ) ;
#638 = VECTOR ( 'NONE', #66, 1000.000000000000000 ) ;
#639 = FACE_BOUND ( 'NONE', #492, .T. ) ;
#640 = ORIENTED_EDGE ( 'NONE', *, *, #84, .F. ) ;
#641 = CIRCLE ( 'NONE', #293, 1.750000000000001554 ) ;
#642 = ORIENTED_EDGE ( 'NONE', *, *, #399, .F. ) ;
#643 = DIRECTION ( 'NONE',  ( -0.000000000000000000, 1.000000000000000000, -0.000000000000000000 ) ) ;
#644 = PLANE ( 'NONE',  #778 ) ;
#645 = VERTEX_POINT ( 'NONE', #130 ) ;
#646 = ORIENTED_EDGE ( 'NONE', *, *, #469, .F. ) ;
#647 = SHAPE_DEFINITION_REPRESENTATION ( #133, #822 ) ;
#648 = CARTESIAN_POINT ( 'NONE',  ( 60.14999999999999858, 7.000000000000000000, 28.84999999999999787 ) ) ;
#649 = ORIENTED_EDGE ( 'NONE', *, *, #622, .F. ) ;
#650 = ADVANCED_FACE ( 'NONE', ( #16 ), #329, .F. ) ;
#651 = CARTESIAN_POINT ( 'NONE',  ( -60.14999999999999858, 0.000000000000000000, -80.00000000000000000 ) ) ;
#652 = LINE ( 'NONE', #533, #638 ) ;
#653 = DIRECTION ( 'NONE',  ( 0.000000000000000000, 0.000000000000000000, -1.000000000000000000 ) ) ;
#654 = AXIS2_PLACEMENT_3D ( 'NONE', #663, #525, #457 ) ;
#655 = CARTESIAN_POINT ( 'NONE',  ( -136.0000000000000000, 5.000000000000000000, 96.50000000000000000 ) ) ;
#656 = CARTESIAN_POINT ( 'NONE',  ( -60.14999999999999858, 0.000000000000000000, 78.25000000000000000 ) ) ;
#657 = AXIS2_PLACEMENT_3D ( 'NONE', #669, #272, #604 ) ;
#658 = APPROVAL_PERSON_ORGANIZATION ( #634, #392, #818 ) ;
#659 = APPROVAL_STATUS ( 'not_yet_approved' ) ;
#660 = EDGE_CURVE ( 'NONE', #128, #447, #241, .T. ) ;
#661 = DIRECTION ( 'NONE',  ( -0.000000000000000000, 1.000000000000000000, -0.000000000000000000 ) ) ;
#662 = CC_DESIGN_DATE_AND_TIME_ASSIGNMENT ( #761, #498, ( #424 ) ) ;
#663 = CARTESIAN_POINT ( 'NONE',  ( 60.14999999999999858, 0.000000000000000000, 80.00000000000000000 ) ) ;
#664 = ORIENTED_EDGE ( 'NONE', *, *, #357, .F. ) ;
#665 = CARTESIAN_POINT ( 'NONE',  ( 136.0000000000000000, 5.000000000000000000, 96.50000000000000000 ) ) ;
#666 = LINE ( 'NONE', #648, #263 ) ;
#667 = CARTESIAN_POINT ( 'NONE',  ( -60.14999999999999858, 7.000000000000000000, 30.60000000000000142 ) ) ;
#668 = EDGE_LOOP ( 'NONE', ( #119, #331, #563, #394 ) ) ;
#669 = CARTESIAN_POINT ( 'NONE',  ( 60.14999999999999858, 5.000000000000000000, 30.60000000000000142 ) ) ;
#670 = DIRECTION ( 'NONE',  ( -0.000000000000000000, 1.000000000000000000, -0.000000000000000000 ) ) ;
#671 = PLANE ( 'NONE',  #741 ) ;
#672 = FACE_OUTER_BOUND ( 'NONE', #455, .T. ) ;
#673 = VECTOR ( 'NONE', #710, 1000.000000000000000 ) ;
#674 = LINE ( 'NONE', #727, #167 ) ;
#675 = ORIENTED_EDGE ( 'NONE', *, *, #308, .T. ) ;
#676 = AXIS2_PLACEMENT_3D ( 'NONE', #197, #685, #153 ) ;
#677 = DIRECTION ( 'NONE',  ( 0.000000000000000000, -1.000000000000000000, 0.000000000000000000 ) ) ;
#678 = DIRECTION ( 'NONE',  ( 0.000000000000000000, 0.000000000000000000, 1.000000000000000000 ) ) ;
#679 = EDGE_LOOP ( 'NONE', ( #63, #505, #624, #446 ) ) ;
#680 = CARTESIAN_POINT ( 'NONE',  ( -136.0000000000000000, 5.000000000000000000, 96.50000000000000000 ) ) ;
#681 = EDGE_CURVE ( 'NONE', #480, #249, #628, .T. ) ;
#682 = CARTESIAN_POINT ( 'NONE',  ( 60.14999999999999858, 7.000000000000000000, -28.84999999999999787 ) ) ;
#683 = EDGE_LOOP ( 'NONE', ( #410, #630, #338, #812 ) ) ;
#684 = FACE_BOUND ( 'NONE', #426, .T. ) ;
#685 = DIRECTION ( 'NONE',  ( 0.000000000000000000, -1.000000000000000000, 0.000000000000000000 ) ) ;
#686 = CARTESIAN_POINT ( 'NONE',  ( -60.14999999999999858, 0.000000000000000000, -30.60000000000000142 ) ) ;
#687 = VERTEX_POINT ( 'NONE', #729 ) ;
#688 = EDGE_CURVE ( 'NONE', #430, #711, #36, .T. ) ;
#689 = FACE_OUTER_BOUND ( 'NONE', #334, .T. ) ;
#690 = DIRECTION ( 'NONE',  ( 0.000000000000000000, 1.000000000000000000, 0.000000000000000000 ) ) ;
#691 = CIRCLE ( 'NONE', #213, 1.750000000000001554 ) ;
#692 = EDGE_CURVE ( 'NONE', #791, #763, #708, .T. ) ;
#693 = AXIS2_PLACEMENT_3D ( 'NONE', #14, #795, #217 ) ;
#694 = VERTEX_POINT ( 'NONE', #358 ) ;
#695 = DIRECTION ( 'NONE',  ( -0.000000000000000000, 1.000000000000000000, -0.000000000000000000 ) ) ;
#696 = CARTESIAN_POINT ( 'NONE',  ( 60.14999999999999858, 7.000000000000000000, 32.35000000000000142 ) ) ;
#697 = DIRECTION ( 'NONE',  ( 0.000000000000000000, 0.000000000000000000, 1.000000000000000000 ) ) ;
#698 = CIRCLE ( 'NONE', #326, 1.750000000000001554 ) ;
#699 = LINE ( 'NONE', #633, #19 ) ;
#700 = AXIS2_PLACEMENT_3D ( 'NONE', #187, #268, #322 ) ;
#701 = AXIS2_PLACEMENT_3D ( 'NONE', #596, #123, #319 ) ;
#702 = ORIENTED_EDGE ( 'NONE', *, *, #692, .T. ) ;
#703 = CYLINDRICAL_SURFACE ( 'NONE', #189, 1.750000000000001554 ) ;
#704 = ORIENTED_EDGE ( 'NONE', *, *, #562, .T. ) ;
#705 = VERTEX_POINT ( 'NONE', #346 ) ;
#706 = EDGE_CURVE ( 'NONE', #828, #463, #341, .T. ) ;
#707 = FACE_OUTER_BOUND ( 'NONE', #683, .T. ) ;
#708 = LINE ( 'NONE', #732, #413 ) ;
#709 = VECTOR ( 'NONE', #79, 1000.000000000000000 ) ;
#710 = DIRECTION ( 'NONE',  ( 0.000000000000000000, -1.000000000000000000, 0.000000000000000000 ) ) ;
#711 = VERTEX_POINT ( 'NONE', #101 ) ;
#712 = LINE ( 'NONE', #260, #465 ) ;
#713 = CARTESIAN_POINT ( 'NONE',  ( -60.14999999999999858, 5.000000000000000000, -28.84999999999999787 ) ) ;
#714 = EDGE_CURVE ( 'NONE', #635, #169, #361, .T. ) ;
#715 = CARTESIAN_POINT ( 'NONE',  ( -60.14999999999999858, 7.000000000000000000, 28.84999999999999787 ) ) ;
#716 = DIRECTION ( 'NONE',  ( 0.000000000000000000, 1.000000000000000000, 0.000000000000000000 ) ) ;
#717 = ORIENTED_EDGE ( 'NONE', *, *, #437, .T. ) ;
#718 = DATE_AND_TIME ( #435, #629 ) ;
#719 = LINE ( 'NONE', #789, #766 ) ;
#720 = DIRECTION ( 'NONE',  ( 0.000000000000000000, 0.000000000000000000, 1.000000000000000000 ) ) ;
#721 = ORIENTED_EDGE ( 'NONE', *, *, #471, .F. ) ;
#722 = AXIS2_PLACEMENT_3D ( 'NONE', #468, #144, #720 ) ;
#723 = APPROVAL ( #659, '未指定' ) ;
#724 = CARTESIAN_POINT ( 'NONE',  ( -60.14999999999999858, 5.000000000000000000, -80.00000000000000000 ) ) ;
#725 = CC_DESIGN_PERSON_AND_ORGANIZATION_ASSIGNMENT ( #178, #239, ( #100 ) ) ;
#726 = CARTESIAN_POINT ( 'NONE',  ( 136.0000000000000000, 0.000000000000000000, -96.50000000000000000 ) ) ;
#727 = CARTESIAN_POINT ( 'NONE',  ( -136.0000000000000000, 0.000000000000000000, -96.50000000000000000 ) ) ;
#728 = DIRECTION ( 'NONE',  ( 0.000000000000000000, -1.000000000000000000, 0.000000000000000000 ) ) ;
#729 = CARTESIAN_POINT ( 'NONE',  ( 60.14999999999999858, 0.000000000000000000, 28.84999999999999787 ) ) ;
#730 = DIRECTION ( 'NONE',  ( -0.000000000000000000, 1.000000000000000000, -0.000000000000000000 ) ) ;
#731 = EDGE_LOOP ( 'NONE', ( #550, #291, #124, #93 ) ) ;
#732 = CARTESIAN_POINT ( 'NONE',  ( 136.0000000000000000, 5.000000000000000000, 96.50000000000000000 ) ) ;
#733 = CARTESIAN_POINT ( 'NONE',  ( 60.14999999999999858, 7.000000000000000000, -81.75000000000000000 ) ) ;
#734 = ORIENTED_EDGE ( 'NONE', *, *, #176, .F. ) ;
#735 = CARTESIAN_POINT ( 'NONE',  ( 60.14999999999999858, 5.000000000000000000, 81.75000000000000000 ) ) ;
#736 = DIRECTION ( 'NONE',  ( 0.000000000000000000, 0.000000000000000000, -1.000000000000000000 ) ) ;
#737 = DIRECTION ( 'NONE',  ( 0.000000000000000000, 0.000000000000000000, -1.000000000000000000 ) ) ;
#738 = ORIENTED_EDGE ( 'NONE', *, *, #414, .F. ) ;
#739 = CIRCLE ( 'NONE', #369, 1.750000000000005107 ) ;
#740 = ORIENTED_EDGE ( 'NONE', *, *, #349, .T. ) ;
#741 = AXIS2_PLACEMENT_3D ( 'NONE', #83, #751, #95 ) ;
#742 = FACE_OUTER_BOUND ( 'NONE', #90, .T. ) ;
#743 = EDGE_CURVE ( 'NONE', #694, #571, #641, .T. ) ;
#744 = CARTESIAN_POINT ( 'NONE',  ( 60.14999999999999858, 0.000000000000000000, 32.35000000000000142 ) ) ;
#745 = ORIENTED_EDGE ( 'NONE', *, *, #80, .F. ) ;
#746 = CARTESIAN_POINT ( 'NONE',  ( -136.0000000000000000, 5.000000000000000000, 96.50000000000000000 ) ) ;
#747 = ADVANCED_FACE ( 'NONE', ( #231 ), #26, .F. ) ;
#748 = CARTESIAN_POINT ( 'NONE',  ( -60.14999999999999858, 0.000000000000000000, -80.00000000000000000 ) ) ;
#749 = EDGE_LOOP ( 'NONE', ( #773, #246, #177, #511 ) ) ;
#750 = ADVANCED_FACE ( 'NONE', ( #616, #162, #364, #612, #684, #31, #405, #225, #423 ), #671, .T. ) ;
#751 = DIRECTION ( 'NONE',  ( 0.000000000000000000, -1.000000000000000000, 0.000000000000000000 ) ) ;
#752 = DIRECTION ( 'NONE',  ( 0.000000000000000000, 0.000000000000000000, -1.000000000000000000 ) ) ;
#753 = ORIENTED_EDGE ( 'NONE', *, *, #113, .F. ) ;
#754 = AXIS2_PLACEMENT_3D ( 'NONE', #794, #141, #537 ) ;
#755 = APPROVAL_ROLE ( '' ) ;
#756 = AXIS2_PLACEMENT_3D ( 'NONE', #323, #335, #785 ) ;
#757 = AXIS2_PLACEMENT_3D ( 'NONE', #680, #339, #547 ) ;
#758 = ORIENTED_EDGE ( 'NONE', *, *, #500, .F. ) ;
#759 = PERSON_AND_ORGANIZATION_ROLE ( 'design_owner' ) ;
#760 = ORIENTED_EDGE ( 'NONE', *, *, #706, .T. ) ;
#761 = DATE_AND_TIME ( #431, #252 ) ;
#762 = AXIS2_PLACEMENT_3D ( 'NONE', #602, #215, #18 ) ;
#763 = VERTEX_POINT ( 'NONE', #621 ) ;
#764 = EDGE_CURVE ( 'NONE', #571, #694, #618, .T. ) ;
#765 = VECTOR ( 'NONE', #784, 1000.000000000000000 ) ;
#766 = VECTOR ( 'NONE', #59, 1000.000000000000000 ) ;
#767 = EDGE_LOOP ( 'NONE', ( #825, #185, #702, #497 ) ) ;
#768 = COORDINATED_UNIVERSAL_TIME_OFFSET ( 8, 0, .AHEAD. ) ;
#769 = FACE_BOUND ( 'NONE', #782, .T. ) ;
#770 = ORIENTED_EDGE ( 'NONE', *, *, #579, .F. ) ;
#771 = ADVANCED_FACE ( 'NONE', ( #742 ), #282, .F. ) ;
#772 = ADVANCED_FACE ( 'NONE', ( #491 ), #292, .F. ) ;
#773 = ORIENTED_EDGE ( 'NONE', *, *, #17, .F. ) ;
#774 = DIRECTION ( 'NONE',  ( 0.000000000000000000, -1.000000000000000000, 0.000000000000000000 ) ) ;
#775 = EDGE_CURVE ( 'NONE', #115, #318, #807, .T. ) ;
#776 = CALENDAR_DATE ( 2026, 26, 7 ) ;
#777 = CARTESIAN_POINT ( 'NONE',  ( -60.14999999999999858, 5.000000000000000000, 80.00000000000000000 ) ) ;
#778 = AXIS2_PLACEMENT_3D ( 'NONE', #258, #184, #191 ) ;
#779 = CIRCLE ( 'NONE', #279, 1.750000000000001554 ) ;
#780 = VERTEX_POINT ( 'NONE', #746 ) ;
#781 = DIRECTION ( 'NONE',  ( 0.000000000000000000, 1.000000000000000000, 0.000000000000000000 ) ) ;
#782 = EDGE_LOOP ( 'NONE', ( #580, #598 ) ) ;
#783 = PERSON ( '未指定', '未指定', '未指定', ('未指定'), ('未指定'), ('未指定') ) ;
#784 = DIRECTION ( 'NONE',  ( -0.000000000000000000, -1.000000000000000000, -0.000000000000000000 ) ) ;
#785 = DIRECTION ( 'NONE',  ( 1.000000000000000000, 0.000000000000000000, -0.000000000000000000 ) ) ;
#786 = LINE ( 'NONE', #715, #360 ) ;
#787 = DIRECTION ( 'NONE',  ( 0.000000000000000000, 0.000000000000000000, -1.000000000000000000 ) ) ;
#788 = DIRECTION ( 'NONE',  ( 0.000000000000000000, 1.000000000000000000, 0.000000000000000000 ) ) ;
#789 = CARTESIAN_POINT ( 'NONE',  ( -136.0000000000000000, 0.000000000000000000, 96.50000000000000000 ) ) ;
#790 = CARTESIAN_POINT ( 'NONE',  ( 60.14999999999999858, 0.000000000000000000, 78.25000000000000000 ) ) ;
#791 = VERTEX_POINT ( 'NONE', #411 ) ;
#792 = CIRCLE ( 'NONE', #6, 1.750000000000001554 ) ;
#793 = AXIS2_PLACEMENT_3D ( 'NONE', #777, #135, #520 ) ;
#794 = CARTESIAN_POINT ( 'NONE',  ( 60.14999999999999858, 0.000000000000000000, 30.60000000000000142 ) ) ;
#795 = DIRECTION ( 'NONE',  ( -0.000000000000000000, 1.000000000000000000, -0.000000000000000000 ) ) ;
#796 = DIRECTION ( 'NONE',  ( 0.000000000000000000, 0.000000000000000000, -1.000000000000000000 ) ) ;
#797 = EDGE_LOOP ( 'NONE', ( #234, #149 ) ) ;
#798 = DIRECTION ( 'NONE',  ( 0.000000000000000000, 0.000000000000000000, -1.000000000000000000 ) ) ;
#799 = FACE_OUTER_BOUND ( 'NONE', #458, .T. ) ;
#800 = EDGE_LOOP ( 'NONE', ( #300, #620, #721, #343 ) ) ;
#801 = VERTEX_POINT ( 'NONE', #813 ) ;
#802 = ADVANCED_FACE ( 'NONE', ( #601 ), #543, .F. ) ;
#803 = DIRECTION ( 'NONE',  ( -1.000000000000000000, -0.000000000000000000, -0.000000000000000000 ) ) ;
#804 = FACE_OUTER_BOUND ( 'NONE', #567, .T. ) ;
#805 = ORIENTED_EDGE ( 'NONE', *, *, #209, .T. ) ;
#806 = AXIS2_PLACEMENT_3D ( 'NONE', #585, #467, #75 ) ;
#807 = LINE ( 'NONE', #299, #110 ) ;
#808 = EDGE_CURVE ( 'NONE', #430, #139, #159, .T. ) ;
#809 = DIRECTION ( 'NONE',  ( 0.000000000000000000, 1.000000000000000000, 0.000000000000000000 ) ) ;
#810 = EDGE_LOOP ( 'NONE', ( #112, #351, #145, #13 ) ) ;
#811 = DIRECTION ( 'NONE',  ( -0.000000000000000000, 1.000000000000000000, -0.000000000000000000 ) ) ;
#812 = ORIENTED_EDGE ( 'NONE', *, *, #238, .T. ) ;
#813 = CARTESIAN_POINT ( 'NONE',  ( -60.14999999999999858, 0.000000000000000000, -28.84999999999999787 ) ) ;
#814 = ORIENTED_EDGE ( 'NONE', *, *, #265, .F. ) ;
#815 = AXIS2_PLACEMENT_3D ( 'NONE', #152, #353, #221 ) ;
#816 = ORIENTED_EDGE ( 'NONE', *, *, #209, .F. ) ;
#817 = EDGE_CURVE ( 'NONE', #763, #587, #88, .T. ) ;
#818 = APPROVAL_ROLE ( '' ) ;
#819 = ORIENTED_EDGE ( 'NONE', *, *, #80, .T. ) ;
#820 = CYLINDRICAL_SURFACE ( 'NONE', #34, 1.750000000000001554 ) ;
#821 = COORDINATED_UNIVERSAL_TIME_OFFSET ( 8, 0, .AHEAD. ) ;
#822 = ADVANCED_BREP_SHAPE_REPRESENTATION ( 'FN-PLT-005_fr4-5MM_8HOLE-NOMINAL_R0.5', ( #57, #466 ), #183 ) ;
#823 = ADVANCED_FACE ( 'NONE', ( #419 ), #703, .F. ) ;
#824 = VECTOR ( 'NONE', #54, 1000.000000000000000 ) ;
#825 = ORIENTED_EDGE ( 'NONE', *, *, #590, .T. ) ;
#826 = EDGE_CURVE ( 'NONE', #128, #344, #444, .T. ) ;
#827 = ORIENTED_EDGE ( 'NONE', *, *, #506, .T. ) ;
#828 = VERTEX_POINT ( 'NONE', #182 ) ;
#829 = DIRECTION ( 'NONE',  ( -0.000000000000000000, -0.000000000000000000, 1.000000000000000000 ) ) ;
ENDSEC;
END-ISO-10303-21;
