ISO-10303-21;
HEADER;
FILE_DESCRIPTION (( 'STEP AP203' ),
    '1' );
FILE_NAME ('FN-SUP-002_edge-support-pad_DRAFT_R0.5.STEP',
    '2026-07-26T13:52:12',
    ( '' ),
    ( '' ),
    'SwSTEP 2.0',
    'SolidWorks 2022',
    '' );
FILE_SCHEMA (( 'CONFIG_CONTROL_DESIGN' ));
ENDSEC;

DATA;
#1 = PRODUCT_DEFINITION_SHAPE ( 'NONE', 'NONE',  #228 ) ;
#2 = APPROVAL_PERSON_ORGANIZATION ( #210, #88, #92 ) ;
#3 = APPROVAL_PERSON_ORGANIZATION ( #131, #209, #136 ) ;
#4 = ORIENTED_EDGE ( 'NONE', *, *, #90, .T. ) ;
#5 = COORDINATED_UNIVERSAL_TIME_OFFSET ( 8, 0, .AHEAD. ) ;
#6 = CARTESIAN_POINT ( 'NONE',  ( 6.000000000000000000, 6.000000000000000000, 6.000000000000000000 ) ) ;
#7 = PERSON_AND_ORGANIZATION_ROLE ( 'classification_officer' ) ;
#8 = PERSON ( '未指定', '未指定', '未指定', ('未指定'), ('未指定'), ('未指定') ) ;
#9 = VERTEX_POINT ( 'NONE', #52 ) ;
#10 = DIRECTION ( 'NONE',  ( -1.000000000000000000, 0.000000000000000000, 0.000000000000000000 ) ) ;
#11 = ORIENTED_EDGE ( 'NONE', *, *, #66, .T. ) ;
#12 = ORIENTED_EDGE ( 'NONE', *, *, #237, .T. ) ;
#13 = ORIENTED_EDGE ( 'NONE', *, *, #81, .T. ) ;
#14 = DIRECTION ( 'NONE',  ( 0.000000000000000000, 0.000000000000000000, -1.000000000000000000 ) ) ;
#15 = VECTOR ( 'NONE', #215, 1000.000000000000000 ) ;
#16 = ADVANCED_FACE ( 'NONE', ( #170 ), #156, .F. ) ;
#17 = DIRECTION ( 'NONE',  ( -1.000000000000000000, 0.000000000000000000, -0.000000000000000000 ) ) ;
#18 = AXIS2_PLACEMENT_3D ( 'NONE', #222, #96, #153 ) ;
#19 = DIRECTION ( 'NONE',  ( -1.000000000000000000, -0.000000000000000000, -0.000000000000000000 ) ) ;
#20 = CC_DESIGN_PERSON_AND_ORGANIZATION_ASSIGNMENT ( #189, #124, ( #228 ) ) ;
#21 = LOCAL_TIME ( 21, 52, 12.00000000000000000, #168 ) ;
#22 = CARTESIAN_POINT ( 'NONE',  ( 0.000000000000000000, 0.000000000000000000, 0.000000000000000000 ) ) ;
#23 = ADVANCED_FACE ( 'NONE', ( #182 ), #176, .F. ) ;
#24 = APPROVAL_DATE_TIME ( #41, #127 ) ;
#25 = LOCAL_TIME ( 21, 52, 12.00000000000000000, #195 ) ;
#26 = ORIENTED_EDGE ( 'NONE', *, *, #106, .T. ) ;
#27 = APPROVAL_STATUS ( 'not_yet_approved' ) ;
#28 = EDGE_LOOP ( 'NONE', ( #47, #180, #197, #98 ) ) ;
#29 = DIRECTION ( 'NONE',  ( 1.000000000000000000, 0.000000000000000000, 0.000000000000000000 ) ) ;
#30 = EDGE_LOOP ( 'NONE', ( #120, #82, #100, #91 ) ) ;
#31 = DIRECTION ( 'NONE',  ( 1.000000000000000000, -0.000000000000000000, 0.000000000000000000 ) ) ;
#32 = CC_DESIGN_APPROVAL ( #209, ( #118 ) ) ;
#33 = EDGE_LOOP ( 'NONE', ( #12, #178, #45, #155 ) ) ;
#34 = LINE ( 'NONE', #234, #15 ) ;
#35 = VERTEX_POINT ( 'NONE', #142 ) ;
#36 = PLANE ( 'NONE',  #174 ) ;
#37 = AXIS2_PLACEMENT_3D ( 'NONE', #122, #10, #101 ) ;
#38 = DIRECTION ( 'NONE',  ( -0.000000000000000000, -0.000000000000000000, 1.000000000000000000 ) ) ;
#39 = PRODUCT ( 'FN-SUP-002_edge-support-pad_DRAFT_R0.5', 'FN-SUP-002_edge-support-pad_DRAFT_R0.5', '', ( #148 ) ) ;
#40 = CC_DESIGN_APPROVAL ( #127, ( #228 ) ) ;
#41 = DATE_AND_TIME ( #149, #104 ) ;
#42 = SHAPE_DEFINITION_REPRESENTATION ( #1, #77 ) ;
#43 = EDGE_CURVE ( 'NONE', #93, #175, #194, .T. ) ;
#44 = DATE_AND_TIME ( #89, #25 ) ;
#45 = ORIENTED_EDGE ( 'NONE', *, *, #106, .F. ) ;
#46 = APPROVAL_DATE_TIME ( #115, #209 ) ;
#47 = ORIENTED_EDGE ( 'NONE', *, *, #199, .T. ) ;
#48 = PLANE ( 'NONE',  #86 ) ;
#49 = DIRECTION ( 'NONE',  ( -0.000000000000000000, -1.000000000000000000, -0.000000000000000000 ) ) ;
#50 = VERTEX_POINT ( 'NONE', #139 ) ;
#51 = CARTESIAN_POINT ( 'NONE',  ( -6.000000000000000000, 6.000000000000000000, 6.000000000000000000 ) ) ;
#52 = CARTESIAN_POINT ( 'NONE',  ( -6.000000000000000000, 0.000000000000000000, -6.000000000000000000 ) ) ;
#53 = CC_DESIGN_PERSON_AND_ORGANIZATION_ASSIGNMENT ( #128, #207, ( #39 ) ) ;
#54 = LINE ( 'NONE', #119, #187 ) ;
#55 = LINE ( 'NONE', #102, #219 ) ;
#56 = PRODUCT_RELATED_PRODUCT_CATEGORY ( 'detail', '', ( #39 ) ) ;
#57 = VECTOR ( 'NONE', #29, 1000.000000000000000 ) ;
#58 = EDGE_CURVE ( 'NONE', #175, #169, #54, .T. ) ;
#59 = APPROVAL_STATUS ( 'not_yet_approved' ) ;
#60 = UNCERTAINTY_MEASURE_WITH_UNIT (LENGTH_MEASURE( 1.000000000000000082E-05 ), #202, 'distance_accuracy_value', 'NONE');
#61 = CALENDAR_DATE ( 2026, 26, 7 ) ;
#62 = CARTESIAN_POINT ( 'NONE',  ( -6.000000000000000000, 6.000000000000000000, -6.000000000000000000 ) ) ;
#63 = ORIENTED_EDGE ( 'NONE', *, *, #125, .F. ) ;
#64 = CC_DESIGN_PERSON_AND_ORGANIZATION_ASSIGNMENT ( #214, #208, ( #118 ) ) ;
#65 = DIRECTION ( 'NONE',  ( -0.000000000000000000, -1.000000000000000000, -0.000000000000000000 ) ) ;
#66 = EDGE_CURVE ( 'NONE', #232, #169, #83, .T. ) ;
#67 = CARTESIAN_POINT ( 'NONE',  ( 0.000000000000000000, 6.000000000000000000, 0.000000000000000000 ) ) ;
#68 = FACE_OUTER_BOUND ( 'NONE', #227, .T. ) ;
#69 = CARTESIAN_POINT ( 'NONE',  ( 6.000000000000000000, 0.000000000000000000, 6.000000000000000000 ) ) ;
#70 = LINE ( 'NONE', #145, #206 ) ;
#71 = LINE ( 'NONE', #223, #230 ) ;
#72 = APPLICATION_CONTEXT ( 'configuration controlled 3d designs of mechanical parts and assemblies' ) ;
#73 = DIRECTION ( 'NONE',  ( 1.000000000000000000, 0.000000000000000000, 0.000000000000000000 ) ) ;
#74 = COORDINATED_UNIVERSAL_TIME_OFFSET ( 8, 0, .AHEAD. ) ;
#75 = PERSON_AND_ORGANIZATION ( #8, #112 ) ;
#76 = DATE_AND_TIME ( #226, #84 ) ;
#77 = ADVANCED_BREP_SHAPE_REPRESENTATION ( 'FN-SUP-002_edge-support-pad_DRAFT_R0.5', ( #97, #126 ), #188 ) ;
#78 = CARTESIAN_POINT ( 'NONE',  ( -6.000000000000000000, 6.000000000000000000, 6.000000000000000000 ) ) ;
#79 = CARTESIAN_POINT ( 'NONE',  ( -6.000000000000000000, 6.000000000000000000, 6.000000000000000000 ) ) ;
#80 = ORIENTED_EDGE ( 'NONE', *, *, #43, .F. ) ;
#81 = EDGE_CURVE ( 'NONE', #35, #9, #121, .T. ) ;
#82 = ORIENTED_EDGE ( 'NONE', *, *, #237, .F. ) ;
#83 = LINE ( 'NONE', #179, #201 ) ;
#84 = LOCAL_TIME ( 21, 52, 12.00000000000000000, #5 ) ;
#85 = CARTESIAN_POINT ( 'NONE',  ( -6.000000000000000000, 0.000000000000000000, 6.000000000000000000 ) ) ;
#86 = AXIS2_PLACEMENT_3D ( 'NONE', #51, #31, #99 ) ;
#87 = PERSON_AND_ORGANIZATION_ROLE ( 'design_supplier' ) ;
#88 = APPROVAL ( #27, '未指定' ) ;
#89 = CALENDAR_DATE ( 2026, 26, 7 ) ;
#90 = EDGE_CURVE ( 'NONE', #175, #113, #137, .T. ) ;
#91 = ORIENTED_EDGE ( 'NONE', *, *, #66, .F. ) ;
#92 = APPROVAL_ROLE ( '' ) ;
#93 = VERTEX_POINT ( 'NONE', #78 ) ;
#94 = CARTESIAN_POINT ( 'NONE',  ( -6.000000000000000000, 6.000000000000000000, 6.000000000000000000 ) ) ;
#95 = ORIENTED_EDGE ( 'NONE', *, *, #43, .T. ) ;
#96 = DIRECTION ( 'NONE',  ( 0.000000000000000000, -1.000000000000000000, 0.000000000000000000 ) ) ;
#97 = MANIFOLD_SOLID_BREP ( '凸台-拉伸1', #218 ) ;
#98 = ORIENTED_EDGE ( 'NONE', *, *, #58, .T. ) ;
#99 = DIRECTION ( 'NONE',  ( 0.000000000000000000, 0.000000000000000000, -1.000000000000000000 ) ) ;
#100 = ORIENTED_EDGE ( 'NONE', *, *, #199, .F. ) ;
#101 = DIRECTION ( 'NONE',  ( 0.000000000000000000, 0.000000000000000000, 1.000000000000000000 ) ) ;
#102 = CARTESIAN_POINT ( 'NONE',  ( 6.000000000000000000, 0.000000000000000000, 6.000000000000000000 ) ) ;
#103 = LINE ( 'NONE', #160, #211 ) ;
#104 = LOCAL_TIME ( 21, 52, 12.00000000000000000, #74 ) ;
#105 = VECTOR ( 'NONE', #19, 1000.000000000000000 ) ;
#106 = EDGE_CURVE ( 'NONE', #113, #35, #34, .T. ) ;
#107 = CARTESIAN_POINT ( 'NONE',  ( -6.000000000000000000, 0.000000000000000000, -6.000000000000000000 ) ) ;
#108 = APPLICATION_CONTEXT ( 'configuration controlled 3d designs of mechanical parts and assemblies' ) ;
#109 = CC_DESIGN_DATE_AND_TIME_ASSIGNMENT ( #44, #138, ( #228 ) ) ;
#110 = PERSON_AND_ORGANIZATION ( #8, #112 ) ;
#111 = VECTOR ( 'NONE', #49, 1000.000000000000000 ) ;
#112 = ORGANIZATION ( '未指定', '未指定', '' ) ;
#113 = VERTEX_POINT ( 'NONE', #217 ) ;
#114 = CARTESIAN_POINT ( 'NONE',  ( -6.000000000000000000, 6.000000000000000000, 6.000000000000000000 ) ) ;
#115 = DATE_AND_TIME ( #172, #21 ) ;
#116 = LINE ( 'NONE', #114, #147 ) ;
#117 = DESIGN_CONTEXT ( 'detailed design', #108, 'design' ) ;
#118 = PRODUCT_DEFINITION_FORMATION_WITH_SPECIFIED_SOURCE ( '任何', '', #39, .NOT_KNOWN. ) ;
#119 = CARTESIAN_POINT ( 'NONE',  ( 6.000000000000000000, 6.000000000000000000, 6.000000000000000000 ) ) ;
#120 = ORIENTED_EDGE ( 'NONE', *, *, #225, .F. ) ;
#121 = LINE ( 'NONE', #154, #111 ) ;
#122 = CARTESIAN_POINT ( 'NONE',  ( 6.000000000000000000, 6.000000000000000000, 6.000000000000000000 ) ) ;
#123 = DIRECTION ( 'NONE',  ( 0.000000000000000000, 0.000000000000000000, -1.000000000000000000 ) ) ;
#124 = PERSON_AND_ORGANIZATION_ROLE ( 'creator' ) ;
#125 = EDGE_CURVE ( 'NONE', #93, #232, #116, .T. ) ;
#126 = AXIS2_PLACEMENT_3D ( 'NONE', #22, #130, #73 ) ;
#127 = APPROVAL ( #59, '未指定' ) ;
#128 = PERSON_AND_ORGANIZATION ( #8, #112 ) ;
#129 = APPROVAL_PERSON_ORGANIZATION ( #205, #127, #164 ) ;
#130 = DIRECTION ( 'NONE',  ( 0.000000000000000000, 0.000000000000000000, 1.000000000000000000 ) ) ;
#131 = PERSON_AND_ORGANIZATION ( #8, #112 ) ;
#132 = ADVANCED_FACE ( 'NONE', ( #196 ), #48, .F. ) ;
#133 = DATE_AND_TIME ( #61, #183 ) ;
#134 = VECTOR ( 'NONE', #14, 1000.000000000000000 ) ;
#135 = EDGE_LOOP ( 'NONE', ( #220, #95, #4, #26 ) ) ;
#136 = APPROVAL_ROLE ( '' ) ;
#137 = LINE ( 'NONE', #6, #134 ) ;
#138 = DATE_TIME_ROLE ( 'creation_date' ) ;
#139 = CARTESIAN_POINT ( 'NONE',  ( 6.000000000000000000, 0.000000000000000000, -6.000000000000000000 ) ) ;
#140 = DIRECTION ( 'NONE',  ( -0.000000000000000000, -1.000000000000000000, -0.000000000000000000 ) ) ;
#141 = CC_DESIGN_PERSON_AND_ORGANIZATION_ASSIGNMENT ( #110, #87, ( #118 ) ) ;
#142 = CARTESIAN_POINT ( 'NONE',  ( -6.000000000000000000, 6.000000000000000000, -6.000000000000000000 ) ) ;
#143 = PLANE ( 'NONE',  #191 ) ;
#144 = ADVANCED_FACE ( 'NONE', ( #235 ), #221, .T. ) ;
#145 = CARTESIAN_POINT ( 'NONE',  ( -6.000000000000000000, 0.000000000000000000, 6.000000000000000000 ) ) ;
#146 = LINE ( 'NONE', #107, #105 ) ;
#147 = VECTOR ( 'NONE', #140, 1000.000000000000000 ) ;
#148 = MECHANICAL_CONTEXT ( 'NONE', #72, 'mechanical' ) ;
#149 = CALENDAR_DATE ( 2026, 26, 7 ) ;
#150 = ADVANCED_FACE ( 'NONE', ( #200 ), #36, .F. ) ;
#151 = COORDINATED_UNIVERSAL_TIME_OFFSET ( 8, 0, .AHEAD. ) ;
#152 = APPROVAL_DATE_TIME ( #76, #88 ) ;
#153 = DIRECTION ( 'NONE',  ( 0.000000000000000000, -0.000000000000000000, -1.000000000000000000 ) ) ;
#154 = CARTESIAN_POINT ( 'NONE',  ( -6.000000000000000000, 6.000000000000000000, -6.000000000000000000 ) ) ;
#155 = ORIENTED_EDGE ( 'NONE', *, *, #212, .T. ) ;
#156 = PLANE ( 'NONE',  #37 ) ;
#157 = EDGE_LOOP ( 'NONE', ( #171, #63, #233, #13 ) ) ;
#158 = SECURITY_CLASSIFICATION ( '', '', #165 ) ;
#159 = DIRECTION ( 'NONE',  ( 0.000000000000000000, 0.000000000000000000, 1.000000000000000000 ) ) ;
#160 = CARTESIAN_POINT ( 'NONE',  ( 6.000000000000000000, 6.000000000000000000, -6.000000000000000000 ) ) ;
#161 = DIRECTION ( 'NONE',  ( -0.000000000000000000, -1.000000000000000000, -0.000000000000000000 ) ) ;
#162 = APPLICATION_PROTOCOL_DEFINITION ( 'international standard', 'config_control_design', 1994, #72 ) ;
#163 = ADVANCED_FACE ( 'NONE', ( #68 ), #143, .F. ) ;
#164 = APPROVAL_ROLE ( '' ) ;
#165 = SECURITY_CLASSIFICATION_LEVEL ( 'unclassified' ) ;
#166 = AXIS2_PLACEMENT_3D ( 'NONE', #67, #229, #216 ) ;
#167 = CC_DESIGN_SECURITY_CLASSIFICATION ( #158, ( #118 ) ) ;
#168 = COORDINATED_UNIVERSAL_TIME_OFFSET ( 8, 0, .AHEAD. ) ;
#169 = VERTEX_POINT ( 'NONE', #69 ) ;
#170 = FACE_OUTER_BOUND ( 'NONE', #28, .T. ) ;
#171 = ORIENTED_EDGE ( 'NONE', *, *, #225, .T. ) ;
#172 = CALENDAR_DATE ( 2026, 26, 7 ) ;
#173 = DIRECTION ( 'NONE',  ( 0.000000000000000000, 0.000000000000000000, -1.000000000000000000 ) ) ;
#174 = AXIS2_PLACEMENT_3D ( 'NONE', #62, #159, #236 ) ;
#175 = VERTEX_POINT ( 'NONE', #224 ) ;
#176 = PLANE ( 'NONE',  #166 ) ;
#177 = CC_DESIGN_PERSON_AND_ORGANIZATION_ASSIGNMENT ( #75, #7, ( #158 ) ) ;
#178 = ORIENTED_EDGE ( 'NONE', *, *, #81, .F. ) ;
#179 = CARTESIAN_POINT ( 'NONE',  ( -6.000000000000000000, 0.000000000000000000, 6.000000000000000000 ) ) ;
#180 = ORIENTED_EDGE ( 'NONE', *, *, #212, .F. ) ;
#181 = EDGE_CURVE ( 'NONE', #35, #93, #71, .T. ) ;
#182 = FACE_OUTER_BOUND ( 'NONE', #135, .T. ) ;
#183 = LOCAL_TIME ( 21, 52, 12.00000000000000000, #151 ) ;
#184 =( NAMED_UNIT ( * ) SI_UNIT ( $, .STERADIAN. ) SOLID_ANGLE_UNIT ( ) );
#185 = CC_DESIGN_APPROVAL ( #88, ( #158 ) ) ;
#186 = CC_DESIGN_DATE_AND_TIME_ASSIGNMENT ( #133, #231, ( #158 ) ) ;
#187 = VECTOR ( 'NONE', #65, 1000.000000000000000 ) ;
#188 =( GEOMETRIC_REPRESENTATION_CONTEXT ( 3 ) GLOBAL_UNCERTAINTY_ASSIGNED_CONTEXT ( ( #60 ) ) GLOBAL_UNIT_ASSIGNED_CONTEXT ( ( #202, #203, #184 ) ) REPRESENTATION_CONTEXT ( 'NONE', 'WORKASPACE' ) );
#189 = PERSON_AND_ORGANIZATION ( #8, #112 ) ;
#190 = APPLICATION_PROTOCOL_DEFINITION ( 'international standard', 'config_control_design', 1994, #108 ) ;
#191 = AXIS2_PLACEMENT_3D ( 'NONE', #94, #173, #17 ) ;
#192 = ORIENTED_EDGE ( 'NONE', *, *, #125, .T. ) ;
#193 = APPROVAL_STATUS ( 'not_yet_approved' ) ;
#194 = LINE ( 'NONE', #79, #57 ) ;
#195 = COORDINATED_UNIVERSAL_TIME_OFFSET ( 8, 0, .AHEAD. ) ;
#196 = FACE_OUTER_BOUND ( 'NONE', #157, .T. ) ;
#197 = ORIENTED_EDGE ( 'NONE', *, *, #90, .F. ) ;
#198 = DIRECTION ( 'NONE',  ( 1.000000000000000000, 0.000000000000000000, 0.000000000000000000 ) ) ;
#199 = EDGE_CURVE ( 'NONE', #169, #50, #55, .T. ) ;
#200 = FACE_OUTER_BOUND ( 'NONE', #33, .T. ) ;
#201 = VECTOR ( 'NONE', #198, 1000.000000000000000 ) ;
#202 =( LENGTH_UNIT ( ) NAMED_UNIT ( * ) SI_UNIT ( .MILLI., .METRE. ) );
#203 =( NAMED_UNIT ( * ) PLANE_ANGLE_UNIT ( ) SI_UNIT ( $, .RADIAN. ) );
#204 = DIRECTION ( 'NONE',  ( -0.000000000000000000, -0.000000000000000000, 1.000000000000000000 ) ) ;
#205 = PERSON_AND_ORGANIZATION ( #8, #112 ) ;
#206 = VECTOR ( 'NONE', #38, 1000.000000000000000 ) ;
#207 = PERSON_AND_ORGANIZATION_ROLE ( 'design_owner' ) ;
#208 = PERSON_AND_ORGANIZATION_ROLE ( 'creator' ) ;
#209 = APPROVAL ( #193, '未指定' ) ;
#210 = PERSON_AND_ORGANIZATION ( #8, #112 ) ;
#211 = VECTOR ( 'NONE', #161, 1000.000000000000000 ) ;
#212 = EDGE_CURVE ( 'NONE', #113, #50, #103, .T. ) ;
#213 = ORIENTED_EDGE ( 'NONE', *, *, #58, .F. ) ;
#214 = PERSON_AND_ORGANIZATION ( #8, #112 ) ;
#215 = DIRECTION ( 'NONE',  ( -1.000000000000000000, -0.000000000000000000, -0.000000000000000000 ) ) ;
#216 = DIRECTION ( 'NONE',  ( 0.000000000000000000, -0.000000000000000000, -1.000000000000000000 ) ) ;
#217 = CARTESIAN_POINT ( 'NONE',  ( 6.000000000000000000, 6.000000000000000000, -6.000000000000000000 ) ) ;
#218 = CLOSED_SHELL ( 'NONE', ( #132, #163, #16, #150, #23, #144 ) ) ;
#219 = VECTOR ( 'NONE', #123, 1000.000000000000000 ) ;
#220 = ORIENTED_EDGE ( 'NONE', *, *, #181, .T. ) ;
#221 = PLANE ( 'NONE',  #18 ) ;
#222 = CARTESIAN_POINT ( 'NONE',  ( 0.000000000000000000, 0.000000000000000000, 0.000000000000000000 ) ) ;
#223 = CARTESIAN_POINT ( 'NONE',  ( -6.000000000000000000, 6.000000000000000000, 6.000000000000000000 ) ) ;
#224 = CARTESIAN_POINT ( 'NONE',  ( 6.000000000000000000, 6.000000000000000000, 6.000000000000000000 ) ) ;
#225 = EDGE_CURVE ( 'NONE', #9, #232, #70, .T. ) ;
#226 = CALENDAR_DATE ( 2026, 26, 7 ) ;
#227 = EDGE_LOOP ( 'NONE', ( #11, #213, #80, #192 ) ) ;
#228 = PRODUCT_DEFINITION ( '未知', '', #118, #117 ) ;
#229 = DIRECTION ( 'NONE',  ( 0.000000000000000000, -1.000000000000000000, 0.000000000000000000 ) ) ;
#230 = VECTOR ( 'NONE', #204, 1000.000000000000000 ) ;
#231 = DATE_TIME_ROLE ( 'classification_date' ) ;
#232 = VERTEX_POINT ( 'NONE', #85 ) ;
#233 = ORIENTED_EDGE ( 'NONE', *, *, #181, .F. ) ;
#234 = CARTESIAN_POINT ( 'NONE',  ( -6.000000000000000000, 6.000000000000000000, -6.000000000000000000 ) ) ;
#235 = FACE_OUTER_BOUND ( 'NONE', #30, .T. ) ;
#236 = DIRECTION ( 'NONE',  ( 1.000000000000000000, 0.000000000000000000, -0.000000000000000000 ) ) ;
#237 = EDGE_CURVE ( 'NONE', #50, #9, #146, .T. ) ;
ENDSEC;
END-ISO-10303-21;
