ISO-10303-21;
HEADER;
FILE_DESCRIPTION (( 'STEP AP203' ),
    '1' );
FILE_NAME ('FN-ZON-003_fuse-service-disconnect_R0.5.STEP',
    '2026-07-26T13:52:03',
    ( '' ),
    ( '' ),
    'SwSTEP 2.0',
    'SolidWorks 2022',
    '' );
FILE_SCHEMA (( 'CONFIG_CONTROL_DESIGN' ));
ENDSEC;

DATA;
#1 = ORIENTED_EDGE ( 'NONE', *, *, #206, .F. ) ;
#2 = ORIENTED_EDGE ( 'NONE', *, *, #37, .F. ) ;
#3 = APPROVAL ( #66, '未指定' ) ;
#4 = CARTESIAN_POINT ( 'NONE',  ( -19.00000000000000000, 15.00000000000000000, -9.000000000000000000 ) ) ;
#5 = PLANE ( 'NONE',  #119 ) ;
#6 = MECHANICAL_CONTEXT ( 'NONE', #148, 'mechanical' ) ;
#7 = ORIENTED_EDGE ( 'NONE', *, *, #183, .F. ) ;
#8 = VECTOR ( 'NONE', #33, 1000.000000000000000 ) ;
#9 = CARTESIAN_POINT ( 'NONE',  ( -19.00000000000000000, 15.00000000000000000, 9.000000000000000000 ) ) ;
#10 = PERSON_AND_ORGANIZATION ( #147, #177 ) ;
#11 = CALENDAR_DATE ( 2026, 26, 7 ) ;
#12 = VERTEX_POINT ( 'NONE', #96 ) ;
#13 = DIRECTION ( 'NONE',  ( 1.000000000000000000, 0.000000000000000000, 0.000000000000000000 ) ) ;
#14 = FACE_OUTER_BOUND ( 'NONE', #201, .T. ) ;
#15 = CARTESIAN_POINT ( 'NONE',  ( -19.00000000000000000, 15.00000000000000000, 9.000000000000000000 ) ) ;
#16 = APPROVAL_STATUS ( 'not_yet_approved' ) ;
#17 = VECTOR ( 'NONE', #159, 1000.000000000000000 ) ;
#18 = AXIS2_PLACEMENT_3D ( 'NONE', #121, #195, #26 ) ;
#19 = LOCAL_TIME ( 21, 52, 3.000000000000000000, #186 ) ;
#20 = ADVANCED_BREP_SHAPE_REPRESENTATION ( 'FN-ZON-003_fuse-service-disconnect_R0.5', ( #204, #115 ), #167 ) ;
#21 = ORIENTED_EDGE ( 'NONE', *, *, #85, .T. ) ;
#22 = FACE_OUTER_BOUND ( 'NONE', #38, .T. ) ;
#23 = APPROVAL ( #101, '未指定' ) ;
#24 = LINE ( 'NONE', #15, #70 ) ;
#25 = PERSON_AND_ORGANIZATION ( #147, #177 ) ;
#26 = DIRECTION ( 'NONE',  ( 1.000000000000000000, 0.000000000000000000, -0.000000000000000000 ) ) ;
#27 = LINE ( 'NONE', #29, #8 ) ;
#28 = ORIENTED_EDGE ( 'NONE', *, *, #189, .F. ) ;
#29 = CARTESIAN_POINT ( 'NONE',  ( 19.00000000000000000, 15.00000000000000000, 9.000000000000000000 ) ) ;
#30 = DATE_AND_TIME ( #200, #208 ) ;
#31 = DIRECTION ( 'NONE',  ( 0.000000000000000000, -0.000000000000000000, -1.000000000000000000 ) ) ;
#32 = DIRECTION ( 'NONE',  ( -1.000000000000000000, -0.000000000000000000, -0.000000000000000000 ) ) ;
#33 = DIRECTION ( 'NONE',  ( 0.000000000000000000, 0.000000000000000000, -1.000000000000000000 ) ) ;
#34 = EDGE_CURVE ( 'NONE', #137, #179, #224, .T. ) ;
#35 = CALENDAR_DATE ( 2026, 26, 7 ) ;
#36 = VECTOR ( 'NONE', #69, 1000.000000000000000 ) ;
#37 = EDGE_CURVE ( 'NONE', #129, #179, #150, .T. ) ;
#38 = EDGE_LOOP ( 'NONE', ( #84, #104, #142, #102 ) ) ;
#39 = VECTOR ( 'NONE', #135, 1000.000000000000000 ) ;
#40 = ORIENTED_EDGE ( 'NONE', *, *, #223, .F. ) ;
#41 = APPROVAL_PERSON_ORGANIZATION ( #53, #100, #47 ) ;
#42 = FACE_OUTER_BOUND ( 'NONE', #80, .T. ) ;
#43 = PERSON_AND_ORGANIZATION ( #147, #177 ) ;
#44 = ORIENTED_EDGE ( 'NONE', *, *, #76, .F. ) ;
#45 = CARTESIAN_POINT ( 'NONE',  ( 19.00000000000000000, 15.00000000000000000, 9.000000000000000000 ) ) ;
#46 = DIRECTION ( 'NONE',  ( -0.000000000000000000, -1.000000000000000000, -0.000000000000000000 ) ) ;
#47 = APPROVAL_ROLE ( '' ) ;
#48 = VECTOR ( 'NONE', #198, 1000.000000000000000 ) ;
#49 = CC_DESIGN_APPROVAL ( #100, ( #112 ) ) ;
#50 = DIRECTION ( 'NONE',  ( 0.000000000000000000, -1.000000000000000000, 0.000000000000000000 ) ) ;
#51 = PLANE ( 'NONE',  #236 ) ;
#52 = CC_DESIGN_DATE_AND_TIME_ASSIGNMENT ( #30, #106, ( #72 ) ) ;
#53 = PERSON_AND_ORGANIZATION ( #147, #177 ) ;
#54 = SECURITY_CLASSIFICATION_LEVEL ( 'unclassified' ) ;
#55 = PRODUCT_DEFINITION_SHAPE ( 'NONE', 'NONE',  #72 ) ;
#56 = DESIGN_CONTEXT ( 'detailed design', #75, 'design' ) ;
#57 = LOCAL_TIME ( 21, 52, 3.000000000000000000, #64 ) ;
#58 = LINE ( 'NONE', #118, #39 ) ;
#59 = EDGE_LOOP ( 'NONE', ( #98, #140, #1, #87 ) ) ;
#60 = APPROVAL_DATE_TIME ( #227, #23 ) ;
#61 = LOCAL_TIME ( 21, 52, 3.000000000000000000, #221 ) ;
#62 = EDGE_LOOP ( 'NONE', ( #230, #191, #44, #169 ) ) ;
#63 = CC_DESIGN_PERSON_AND_ORGANIZATION_ASSIGNMENT ( #207, #114, ( #112 ) ) ;
#64 = COORDINATED_UNIVERSAL_TIME_OFFSET ( 8, 0, .AHEAD. ) ;
#65 = CARTESIAN_POINT ( 'NONE',  ( -19.00000000000000000, 0.000000000000000000, 9.000000000000000000 ) ) ;
#66 = APPROVAL_STATUS ( 'not_yet_approved' ) ;
#67 = PERSON_AND_ORGANIZATION_ROLE ( 'creator' ) ;
#68 = ORIENTED_EDGE ( 'NONE', *, *, #34, .T. ) ;
#69 = DIRECTION ( 'NONE',  ( -0.000000000000000000, -1.000000000000000000, -0.000000000000000000 ) ) ;
#70 = VECTOR ( 'NONE', #92, 1000.000000000000000 ) ;
#71 = DIRECTION ( 'NONE',  ( 0.000000000000000000, -0.000000000000000000, -1.000000000000000000 ) ) ;
#72 = PRODUCT_DEFINITION ( '未知', '', #97, #56 ) ;
#73 = APPROVAL_DATE_TIME ( #165, #100 ) ;
#74 = AXIS2_PLACEMENT_3D ( 'NONE', #181, #218, #31 ) ;
#75 = APPLICATION_CONTEXT ( 'configuration controlled 3d designs of mechanical parts and assemblies' ) ;
#76 = EDGE_CURVE ( 'NONE', #129, #12, #58, .T. ) ;
#77 = ADVANCED_FACE ( 'NONE', ( #22 ), #211, .F. ) ;
#78 = VECTOR ( 'NONE', #171, 1000.000000000000000 ) ;
#79 = VERTEX_POINT ( 'NONE', #4 ) ;
#80 = EDGE_LOOP ( 'NONE', ( #68, #2, #40, #225 ) ) ;
#81 = CC_DESIGN_DATE_AND_TIME_ASSIGNMENT ( #93, #216, ( #112 ) ) ;
#82 = ORIENTED_EDGE ( 'NONE', *, *, #76, .T. ) ;
#83 = FACE_OUTER_BOUND ( 'NONE', #152, .T. ) ;
#84 = ORIENTED_EDGE ( 'NONE', *, *, #91, .T. ) ;
#85 = EDGE_CURVE ( 'NONE', #215, #79, #229, .T. ) ;
#86 = DIRECTION ( 'NONE',  ( 0.000000000000000000, 0.000000000000000000, -1.000000000000000000 ) ) ;
#87 = ORIENTED_EDGE ( 'NONE', *, *, #188, .F. ) ;
#88 = LINE ( 'NONE', #205, #146 ) ;
#89 = PERSON_AND_ORGANIZATION_ROLE ( 'design_supplier' ) ;
#90 = LINE ( 'NONE', #203, #117 ) ;
#91 = EDGE_CURVE ( 'NONE', #158, #137, #90, .T. ) ;
#92 = DIRECTION ( 'NONE',  ( -0.000000000000000000, -0.000000000000000000, 1.000000000000000000 ) ) ;
#93 = DATE_AND_TIME ( #11, #19 ) ;
#94 = ADVANCED_FACE ( 'NONE', ( #14 ), #109, .F. ) ;
#95 = UNCERTAINTY_MEASURE_WITH_UNIT (LENGTH_MEASURE( 1.000000000000000082E-05 ), #143, 'distance_accuracy_value', 'NONE');
#96 = CARTESIAN_POINT ( 'NONE',  ( 19.00000000000000000, 15.00000000000000000, 9.000000000000000000 ) ) ;
#97 = PRODUCT_DEFINITION_FORMATION_WITH_SPECIFIED_SOURCE ( '任何', '', #113, .NOT_KNOWN. ) ;
#98 = ORIENTED_EDGE ( 'NONE', *, *, #34, .F. ) ;
#99 = PLANE ( 'NONE',  #187 ) ;
#100 = APPROVAL ( #16, '未指定' ) ;
#101 = APPROVAL_STATUS ( 'not_yet_approved' ) ;
#102 = ORIENTED_EDGE ( 'NONE', *, *, #189, .T. ) ;
#103 = DIRECTION ( 'NONE',  ( -1.000000000000000000, 0.000000000000000000, -0.000000000000000000 ) ) ;
#104 = ORIENTED_EDGE ( 'NONE', *, *, #151, .F. ) ;
#105 = CARTESIAN_POINT ( 'NONE',  ( 19.00000000000000000, 15.00000000000000000, -9.000000000000000000 ) ) ;
#106 = DATE_TIME_ROLE ( 'creation_date' ) ;
#107 = ORIENTED_EDGE ( 'NONE', *, *, #206, .T. ) ;
#108 = DIRECTION ( 'NONE',  ( 0.000000000000000000, 0.000000000000000000, 1.000000000000000000 ) ) ;
#109 = PLANE ( 'NONE',  #74 ) ;
#110 = LINE ( 'NONE', #193, #17 ) ;
#111 = APPROVAL_DATE_TIME ( #178, #3 ) ;
#112 = SECURITY_CLASSIFICATION ( '', '', #54 ) ;
#113 = PRODUCT ( 'FN-ZON-003_fuse-service-disconnect_R0.5', 'FN-ZON-003_fuse-service-disconnect_R0.5', '', ( #6 ) ) ;
#114 = PERSON_AND_ORGANIZATION_ROLE ( 'classification_officer' ) ;
#115 = AXIS2_PLACEMENT_3D ( 'NONE', #184, #108, #173 ) ;
#116 = CC_DESIGN_PERSON_AND_ORGANIZATION_ASSIGNMENT ( #157, #138, ( #113 ) ) ;
#117 = VECTOR ( 'NONE', #32, 1000.000000000000000 ) ;
#118 = CARTESIAN_POINT ( 'NONE',  ( -19.00000000000000000, 15.00000000000000000, 9.000000000000000000 ) ) ;
#119 = AXIS2_PLACEMENT_3D ( 'NONE', #180, #50, #71 ) ;
#120 = CC_DESIGN_SECURITY_CLASSIFICATION ( #112, ( #97 ) ) ;
#121 = CARTESIAN_POINT ( 'NONE',  ( -19.00000000000000000, 15.00000000000000000, -9.000000000000000000 ) ) ;
#122 = ADVANCED_FACE ( 'NONE', ( #231 ), #5, .T. ) ;
#123 = DIRECTION ( 'NONE',  ( 0.000000000000000000, 0.000000000000000000, -1.000000000000000000 ) ) ;
#124 = CARTESIAN_POINT ( 'NONE',  ( -19.00000000000000000, 15.00000000000000000, -9.000000000000000000 ) ) ;
#125 = COORDINATED_UNIVERSAL_TIME_OFFSET ( 8, 0, .AHEAD. ) ;
#126 = ORIENTED_EDGE ( 'NONE', *, *, #134, .T. ) ;
#127 = LINE ( 'NONE', #196, #168 ) ;
#128 = VECTOR ( 'NONE', #233, 1000.000000000000000 ) ;
#129 = VERTEX_POINT ( 'NONE', #9 ) ;
#130 = PLANE ( 'NONE',  #190 ) ;
#131 = CC_DESIGN_APPROVAL ( #3, ( #97 ) ) ;
#132 = APPROVAL_PERSON_ORGANIZATION ( #10, #3, #160 ) ;
#133 = APPLICATION_PROTOCOL_DEFINITION ( 'international standard', 'config_control_design', 1994, #148 ) ;
#134 = EDGE_CURVE ( 'NONE', #12, #174, #127, .T. ) ;
#135 = DIRECTION ( 'NONE',  ( 1.000000000000000000, 0.000000000000000000, 0.000000000000000000 ) ) ;
#136 = DIRECTION ( 'NONE',  ( 0.000000000000000000, 0.000000000000000000, -1.000000000000000000 ) ) ;
#137 = VERTEX_POINT ( 'NONE', #144 ) ;
#138 = PERSON_AND_ORGANIZATION_ROLE ( 'design_owner' ) ;
#139 = SHAPE_DEFINITION_REPRESENTATION ( #55, #20 ) ;
#140 = ORIENTED_EDGE ( 'NONE', *, *, #91, .F. ) ;
#141 = FACE_OUTER_BOUND ( 'NONE', #62, .T. ) ;
#142 = ORIENTED_EDGE ( 'NONE', *, *, #85, .F. ) ;
#143 =( LENGTH_UNIT ( ) NAMED_UNIT ( * ) SI_UNIT ( .MILLI., .METRE. ) );
#144 = CARTESIAN_POINT ( 'NONE',  ( -19.00000000000000000, 0.000000000000000000, -9.000000000000000000 ) ) ;
#145 = ADVANCED_FACE ( 'NONE', ( #141 ), #130, .F. ) ;
#146 = VECTOR ( 'NONE', #86, 1000.000000000000000 ) ;
#147 = PERSON ( '未指定', '未指定', '未指定', ('未指定'), ('未指定'), ('未指定') ) ;
#148 = APPLICATION_CONTEXT ( 'configuration controlled 3d designs of mechanical parts and assemblies' ) ;
#149 = CLOSED_SHELL ( 'NONE', ( #237, #145, #228, #77, #94, #122 ) ) ;
#150 = LINE ( 'NONE', #155, #78 ) ;
#151 = EDGE_CURVE ( 'NONE', #79, #137, #110, .T. ) ;
#152 = EDGE_LOOP ( 'NONE', ( #107, #28, #7, #126 ) ) ;
#153 =( NAMED_UNIT ( * ) PLANE_ANGLE_UNIT ( ) SI_UNIT ( $, .RADIAN. ) );
#154 = COORDINATED_UNIVERSAL_TIME_OFFSET ( 8, 0, .AHEAD. ) ;
#155 = CARTESIAN_POINT ( 'NONE',  ( -19.00000000000000000, 15.00000000000000000, 9.000000000000000000 ) ) ;
#156 = DIRECTION ( 'NONE',  ( -1.000000000000000000, 0.000000000000000000, 0.000000000000000000 ) ) ;
#157 = PERSON_AND_ORGANIZATION ( #147, #177 ) ;
#158 = VERTEX_POINT ( 'NONE', #199 ) ;
#159 = DIRECTION ( 'NONE',  ( -0.000000000000000000, -1.000000000000000000, -0.000000000000000000 ) ) ;
#160 = APPROVAL_ROLE ( '' ) ;
#161 = ORIENTED_EDGE ( 'NONE', *, *, #223, .T. ) ;
#162 = DIRECTION ( 'NONE',  ( 1.000000000000000000, -0.000000000000000000, 0.000000000000000000 ) ) ;
#163 = DIRECTION ( 'NONE',  ( 0.000000000000000000, 0.000000000000000000, 1.000000000000000000 ) ) ;
#164 = CC_DESIGN_PERSON_AND_ORGANIZATION_ASSIGNMENT ( #232, #89, ( #97 ) ) ;
#165 = DATE_AND_TIME ( #35, #57 ) ;
#166 = PRODUCT_RELATED_PRODUCT_CATEGORY ( 'detail', '', ( #113 ) ) ;
#167 =( GEOMETRIC_REPRESENTATION_CONTEXT ( 3 ) GLOBAL_UNCERTAINTY_ASSIGNED_CONTEXT ( ( #95 ) ) GLOBAL_UNIT_ASSIGNED_CONTEXT ( ( #143, #153, #226 ) ) REPRESENTATION_CONTEXT ( 'NONE', 'WORKASPACE' ) );
#168 = VECTOR ( 'NONE', #46, 1000.000000000000000 ) ;
#169 = ORIENTED_EDGE ( 'NONE', *, *, #37, .T. ) ;
#170 = CARTESIAN_POINT ( 'NONE',  ( -19.00000000000000000, 15.00000000000000000, 9.000000000000000000 ) ) ;
#171 = DIRECTION ( 'NONE',  ( -0.000000000000000000, -1.000000000000000000, -0.000000000000000000 ) ) ;
#172 = CARTESIAN_POINT ( 'NONE',  ( -19.00000000000000000, 0.000000000000000000, 9.000000000000000000 ) ) ;
#173 = DIRECTION ( 'NONE',  ( 1.000000000000000000, 0.000000000000000000, 0.000000000000000000 ) ) ;
#174 = VERTEX_POINT ( 'NONE', #202 ) ;
#175 = LINE ( 'NONE', #172, #192 ) ;
#176 = APPROVAL_ROLE ( '' ) ;
#177 = ORGANIZATION ( '未指定', '未指定', '' ) ;
#178 = DATE_AND_TIME ( #235, #61 ) ;
#179 = VERTEX_POINT ( 'NONE', #213 ) ;
#180 = CARTESIAN_POINT ( 'NONE',  ( 0.000000000000000000, 0.000000000000000000, 0.000000000000000000 ) ) ;
#181 = CARTESIAN_POINT ( 'NONE',  ( 0.000000000000000000, 15.00000000000000000, 0.000000000000000000 ) ) ;
#182 = CARTESIAN_POINT ( 'NONE',  ( 19.00000000000000000, 15.00000000000000000, -9.000000000000000000 ) ) ;
#183 = EDGE_CURVE ( 'NONE', #12, #215, #27, .T. ) ;
#184 = CARTESIAN_POINT ( 'NONE',  ( 0.000000000000000000, 0.000000000000000000, 0.000000000000000000 ) ) ;
#185 = LOCAL_TIME ( 21, 52, 3.000000000000000000, #154 ) ;
#186 = COORDINATED_UNIVERSAL_TIME_OFFSET ( 8, 0, .AHEAD. ) ;
#187 = AXIS2_PLACEMENT_3D ( 'NONE', #170, #162, #123 ) ;
#188 = EDGE_CURVE ( 'NONE', #179, #174, #175, .T. ) ;
#189 = EDGE_CURVE ( 'NONE', #215, #158, #219, .T. ) ;
#190 = AXIS2_PLACEMENT_3D ( 'NONE', #234, #136, #103 ) ;
#191 = ORIENTED_EDGE ( 'NONE', *, *, #134, .F. ) ;
#192 = VECTOR ( 'NONE', #13, 1000.000000000000000 ) ;
#193 = CARTESIAN_POINT ( 'NONE',  ( -19.00000000000000000, 15.00000000000000000, -9.000000000000000000 ) ) ;
#194 = APPLICATION_PROTOCOL_DEFINITION ( 'international standard', 'config_control_design', 1994, #75 ) ;
#195 = DIRECTION ( 'NONE',  ( 0.000000000000000000, 0.000000000000000000, 1.000000000000000000 ) ) ;
#196 = CARTESIAN_POINT ( 'NONE',  ( 19.00000000000000000, 15.00000000000000000, 9.000000000000000000 ) ) ;
#197 = PERSON_AND_ORGANIZATION_ROLE ( 'creator' ) ;
#198 = DIRECTION ( 'NONE',  ( -1.000000000000000000, -0.000000000000000000, -0.000000000000000000 ) ) ;
#199 = CARTESIAN_POINT ( 'NONE',  ( 19.00000000000000000, 0.000000000000000000, -9.000000000000000000 ) ) ;
#200 = CALENDAR_DATE ( 2026, 26, 7 ) ;
#201 = EDGE_LOOP ( 'NONE', ( #161, #82, #210, #21 ) ) ;
#202 = CARTESIAN_POINT ( 'NONE',  ( 19.00000000000000000, 0.000000000000000000, 9.000000000000000000 ) ) ;
#203 = CARTESIAN_POINT ( 'NONE',  ( -19.00000000000000000, 0.000000000000000000, -9.000000000000000000 ) ) ;
#204 = MANIFOLD_SOLID_BREP ( '凸台-拉伸1', #149 ) ;
#205 = CARTESIAN_POINT ( 'NONE',  ( 19.00000000000000000, 0.000000000000000000, 9.000000000000000000 ) ) ;
#206 = EDGE_CURVE ( 'NONE', #174, #158, #88, .T. ) ;
#207 = PERSON_AND_ORGANIZATION ( #147, #177 ) ;
#208 = LOCAL_TIME ( 21, 52, 3.000000000000000000, #125 ) ;
#209 = CC_DESIGN_PERSON_AND_ORGANIZATION_ASSIGNMENT ( #220, #67, ( #97 ) ) ;
#210 = ORIENTED_EDGE ( 'NONE', *, *, #183, .T. ) ;
#211 = PLANE ( 'NONE',  #18 ) ;
#212 = CC_DESIGN_APPROVAL ( #23, ( #72 ) ) ;
#213 = CARTESIAN_POINT ( 'NONE',  ( -19.00000000000000000, 0.000000000000000000, 9.000000000000000000 ) ) ;
#214 = CALENDAR_DATE ( 2026, 26, 7 ) ;
#215 = VERTEX_POINT ( 'NONE', #182 ) ;
#216 = DATE_TIME_ROLE ( 'classification_date' ) ;
#217 = APPROVAL_PERSON_ORGANIZATION ( #25, #23, #176 ) ;
#218 = DIRECTION ( 'NONE',  ( 0.000000000000000000, -1.000000000000000000, 0.000000000000000000 ) ) ;
#219 = LINE ( 'NONE', #105, #36 ) ;
#220 = PERSON_AND_ORGANIZATION ( #147, #177 ) ;
#221 = COORDINATED_UNIVERSAL_TIME_OFFSET ( 8, 0, .AHEAD. ) ;
#222 = CC_DESIGN_PERSON_AND_ORGANIZATION_ASSIGNMENT ( #43, #197, ( #72 ) ) ;
#223 = EDGE_CURVE ( 'NONE', #79, #129, #24, .T. ) ;
#224 = LINE ( 'NONE', #65, #128 ) ;
#225 = ORIENTED_EDGE ( 'NONE', *, *, #151, .T. ) ;
#226 =( NAMED_UNIT ( * ) SI_UNIT ( $, .STERADIAN. ) SOLID_ANGLE_UNIT ( ) );
#227 = DATE_AND_TIME ( #214, #185 ) ;
#228 = ADVANCED_FACE ( 'NONE', ( #83 ), #51, .F. ) ;
#229 = LINE ( 'NONE', #124, #48 ) ;
#230 = ORIENTED_EDGE ( 'NONE', *, *, #188, .T. ) ;
#231 = FACE_OUTER_BOUND ( 'NONE', #59, .T. ) ;
#232 = PERSON_AND_ORGANIZATION ( #147, #177 ) ;
#233 = DIRECTION ( 'NONE',  ( -0.000000000000000000, -0.000000000000000000, 1.000000000000000000 ) ) ;
#234 = CARTESIAN_POINT ( 'NONE',  ( -19.00000000000000000, 15.00000000000000000, 9.000000000000000000 ) ) ;
#235 = CALENDAR_DATE ( 2026, 26, 7 ) ;
#236 = AXIS2_PLACEMENT_3D ( 'NONE', #45, #156, #163 ) ;
#237 = ADVANCED_FACE ( 'NONE', ( #42 ), #99, .F. ) ;
ENDSEC;
END-ISO-10303-21;
