ISO-10303-21;
HEADER;
FILE_DESCRIPTION (( 'STEP AP203' ),
    '1' );
FILE_NAME ('FN-GNS-006_mast-base-plate-90x80x8_4HOLE-NOMINAL_R0.8.STEP',
    '2026-07-27T02:53:27',
    ( '' ),
    ( '' ),
    'SwSTEP 2.0',
    'SolidWorks 2022',
    '' );
FILE_SCHEMA (( 'CONFIG_CONTROL_DESIGN' ));
ENDSEC;

DATA;
#1 = AXIS2_PLACEMENT_3D ( 'NONE', #517, #278, #476 ) ;
#2 = AXIS2_PLACEMENT_3D ( 'NONE', #516, #111, #341 ) ;
#3 = AXIS2_PLACEMENT_3D ( 'NONE', #499, #5, #8 ) ;
#4 = CARTESIAN_POINT ( 'NONE',  ( -32.00000000000000000, 8.000000000000000000, -25.00000000000000000 ) ) ;
#5 = DIRECTION ( 'NONE',  ( 0.000000000000000000, 0.000000000000000000, 1.000000000000000000 ) ) ;
#6 = ORIENTED_EDGE ( 'NONE', *, *, #515, .T. ) ;
#7 = EDGE_CURVE ( 'NONE', #159, #403, #383, .T. ) ;
#8 = DIRECTION ( 'NONE',  ( 1.000000000000000000, 0.000000000000000000, -0.000000000000000000 ) ) ;
#9 = EDGE_LOOP ( 'NONE', ( #32, #267 ) ) ;
#10 = LOCAL_TIME ( 10, 53, 27.00000000000000000, #367 ) ;
#11 = DIRECTION ( 'NONE',  ( 0.000000000000000000, 0.000000000000000000, -1.000000000000000000 ) ) ;
#12 = ORIENTED_EDGE ( 'NONE', *, *, #363, .F. ) ;
#13 = CYLINDRICAL_SURFACE ( 'NONE', #2, 4.250000000000003553 ) ;
#14 = EDGE_LOOP ( 'NONE', ( #392, #106 ) ) ;
#15 = CARTESIAN_POINT ( 'NONE',  ( 32.00000000000000000, 8.000000000000000000, 20.74999999999999645 ) ) ;
#16 = CC_DESIGN_PERSON_AND_ORGANIZATION_ASSIGNMENT ( #52, #134, ( #281 ) ) ;
#17 = ORIENTED_EDGE ( 'NONE', *, *, #55, .T. ) ;
#18 = DATE_AND_TIME ( #460, #450 ) ;
#19 = CARTESIAN_POINT ( 'NONE',  ( -32.00000000000000000, 0.000000000000000000, 29.25000000000000000 ) ) ;
#20 = AXIS2_PLACEMENT_3D ( 'NONE', #200, #247, #395 ) ;
#21 = VERTEX_POINT ( 'NONE', #137 ) ;
#22 = CALENDAR_DATE ( 2026, 27, 7 ) ;
#23 = ORIENTED_EDGE ( 'NONE', *, *, #414, .T. ) ;
#24 = CARTESIAN_POINT ( 'NONE',  ( 0.000000000000000000, 8.000000000000000000, 0.000000000000000000 ) ) ;
#25 = FACE_BOUND ( 'NONE', #14, .T. ) ;
#26 = CARTESIAN_POINT ( 'NONE',  ( 32.00000000000000000, 8.000000000000000000, 20.74999999999999645 ) ) ;
#27 = PLANE ( 'NONE',  #289 ) ;
#28 = DIRECTION ( 'NONE',  ( 0.000000000000000000, 0.000000000000000000, -1.000000000000000000 ) ) ;
#29 = AXIS2_PLACEMENT_3D ( 'NONE', #4, #533, #208 ) ;
#30 = LINE ( 'NONE', #400, #229 ) ;
#31 = ADVANCED_BREP_SHAPE_REPRESENTATION ( 'FN-GNS-006_mast-base-plate-90x80x8_4HOLE-NOMINAL_R0.8', ( #361, #465 ), #153 ) ;
#32 = ORIENTED_EDGE ( 'NONE', *, *, #446, .F. ) ;
#33 = DIRECTION ( 'NONE',  ( 0.000000000000000000, 1.000000000000000000, 0.000000000000000000 ) ) ;
#34 = ADVANCED_FACE ( 'NONE', ( #299 ), #462, .F. ) ;
#35 = EDGE_CURVE ( 'NONE', #203, #378, #496, .T. ) ;
#36 = ORIENTED_EDGE ( 'NONE', *, *, #283, .F. ) ;
#37 = CARTESIAN_POINT ( 'NONE',  ( -32.00000000000000000, 8.000000000000000000, -29.25000000000000000 ) ) ;
#38 = ORIENTED_EDGE ( 'NONE', *, *, #78, .T. ) ;
#39 = CARTESIAN_POINT ( 'NONE',  ( 45.00000000000000000, 0.000000000000000000, -40.00000000000000000 ) ) ;
#40 = ORGANIZATION ( '未指定', '未指定', '' ) ;
#41 = ORIENTED_EDGE ( 'NONE', *, *, #272, .T. ) ;
#42 = APPROVAL ( #340, '未指定' ) ;
#43 = APPROVAL_STATUS ( 'not_yet_approved' ) ;
#44 = AXIS2_PLACEMENT_3D ( 'NONE', #194, #324, #404 ) ;
#45 = APPROVAL_DATE_TIME ( #415, #237 ) ;
#46 = EDGE_CURVE ( 'NONE', #117, #403, #425, .T. ) ;
#47 = ORIENTED_EDGE ( 'NONE', *, *, #412, .F. ) ;
#48 =( NAMED_UNIT ( * ) SI_UNIT ( $, .STERADIAN. ) SOLID_ANGLE_UNIT ( ) );
#49 = ORIENTED_EDGE ( 'NONE', *, *, #491, .T. ) ;
#50 = VECTOR ( 'NONE', #235, 1000.000000000000000 ) ;
#51 = APPLICATION_CONTEXT ( 'configuration controlled 3d designs of mechanical parts and assemblies' ) ;
#52 = PERSON_AND_ORGANIZATION ( #349, #40 ) ;
#53 = CARTESIAN_POINT ( 'NONE',  ( 32.00000000000000000, 8.000000000000000000, -25.00000000000000000 ) ) ;
#54 = ORIENTED_EDGE ( 'NONE', *, *, #46, .F. ) ;
#55 = EDGE_CURVE ( 'NONE', #159, #524, #434, .T. ) ;
#56 = LOCAL_TIME ( 10, 53, 27.00000000000000000, #220 ) ;
#57 = DIRECTION ( 'NONE',  ( 0.000000000000000000, 0.000000000000000000, 1.000000000000000000 ) ) ;
#58 = CARTESIAN_POINT ( 'NONE',  ( 45.00000000000000000, 8.000000000000000000, 40.00000000000000000 ) ) ;
#59 = CC_DESIGN_PERSON_AND_ORGANIZATION_ASSIGNMENT ( #107, #426, ( #281 ) ) ;
#60 = PLANE ( 'NONE',  #248 ) ;
#61 = ORIENTED_EDGE ( 'NONE', *, *, #387, .T. ) ;
#62 = DATE_TIME_ROLE ( 'classification_date' ) ;
#63 = CIRCLE ( 'NONE', #355, 4.249999999999996447 ) ;
#64 = DIRECTION ( 'NONE',  ( 0.000000000000000000, 1.000000000000000000, 0.000000000000000000 ) ) ;
#65 = ORIENTED_EDGE ( 'NONE', *, *, #96, .F. ) ;
#66 = COORDINATED_UNIVERSAL_TIME_OFFSET ( 8, 0, .AHEAD. ) ;
#67 = VERTEX_POINT ( 'NONE', #394 ) ;
#68 = CIRCLE ( 'NONE', #20, 4.249999999999996447 ) ;
#69 = FACE_BOUND ( 'NONE', #325, .T. ) ;
#70 = CIRCLE ( 'NONE', #358, 4.250000000000003553 ) ;
#71 = CARTESIAN_POINT ( 'NONE',  ( 32.00000000000000000, 0.000000000000000000, 20.74999999999999645 ) ) ;
#72 = EDGE_CURVE ( 'NONE', #388, #159, #520, .T. ) ;
#73 = DIRECTION ( 'NONE',  ( -0.000000000000000000, -1.000000000000000000, -0.000000000000000000 ) ) ;
#74 = CARTESIAN_POINT ( 'NONE',  ( 45.00000000000000000, 0.000000000000000000, 40.00000000000000000 ) ) ;
#75 = CARTESIAN_POINT ( 'NONE',  ( -32.00000000000000000, 0.000000000000000000, -20.75000000000000355 ) ) ;
#76 = CARTESIAN_POINT ( 'NONE',  ( -45.00000000000000000, 8.000000000000000000, -40.00000000000000000 ) ) ;
#77 = AXIS2_PLACEMENT_3D ( 'NONE', #217, #308, #424 ) ;
#78 = EDGE_CURVE ( 'NONE', #203, #130, #30, .T. ) ;
#79 = CARTESIAN_POINT ( 'NONE',  ( 45.00000000000000000, 8.000000000000000000, 40.00000000000000000 ) ) ;
#80 = VERTEX_POINT ( 'NONE', #276 ) ;
#81 = FACE_OUTER_BOUND ( 'NONE', #149, .T. ) ;
#82 = ORIENTED_EDGE ( 'NONE', *, *, #507, .T. ) ;
#83 = DIRECTION ( 'NONE',  ( -0.000000000000000000, -1.000000000000000000, -0.000000000000000000 ) ) ;
#84 = VERTEX_POINT ( 'NONE', #523 ) ;
#85 = APPLICATION_CONTEXT ( 'configuration controlled 3d designs of mechanical parts and assemblies' ) ;
#86 = CIRCLE ( 'NONE', #255, 4.249999999999996447 ) ;
#87 = ORIENTED_EDGE ( 'NONE', *, *, #369, .F. ) ;
#88 = CARTESIAN_POINT ( 'NONE',  ( -32.00000000000000000, 8.000000000000000000, 20.75000000000000355 ) ) ;
#89 = PERSON_AND_ORGANIZATION_ROLE ( 'design_owner' ) ;
#90 = CARTESIAN_POINT ( 'NONE',  ( -32.00000000000000000, 8.000000000000000000, 25.00000000000000000 ) ) ;
#91 = CC_DESIGN_PERSON_AND_ORGANIZATION_ASSIGNMENT ( #177, #184, ( #201 ) ) ;
#92 = AXIS2_PLACEMENT_3D ( 'NONE', #58, #179, #339 ) ;
#93 = CARTESIAN_POINT ( 'NONE',  ( 32.00000000000000000, 0.000000000000000000, 25.00000000000000000 ) ) ;
#94 = ORIENTED_EDGE ( 'NONE', *, *, #456, .T. ) ;
#95 = COORDINATED_UNIVERSAL_TIME_OFFSET ( 8, 0, .AHEAD. ) ;
#96 = EDGE_CURVE ( 'NONE', #388, #117, #315, .T. ) ;
#97 = ORIENTED_EDGE ( 'NONE', *, *, #7, .T. ) ;
#98 = FACE_BOUND ( 'NONE', #508, .T. ) ;
#99 = AXIS2_PLACEMENT_3D ( 'NONE', #380, #138, #11 ) ;
#100 = VERTEX_POINT ( 'NONE', #437 ) ;
#101 = CIRCLE ( 'NONE', #205, 4.250000000000003553 ) ;
#102 = PERSON_AND_ORGANIZATION ( #349, #40 ) ;
#103 = LINE ( 'NONE', #185, #140 ) ;
#104 = VERTEX_POINT ( 'NONE', #71 ) ;
#105 = CYLINDRICAL_SURFACE ( 'NONE', #449, 4.249999999999996447 ) ;
#106 = ORIENTED_EDGE ( 'NONE', *, *, #329, .T. ) ;
#107 = PERSON_AND_ORGANIZATION ( #349, #40 ) ;
#108 = PLANE ( 'NONE',  #77 ) ;
#109 = DIRECTION ( 'NONE',  ( -1.000000000000000000, -0.000000000000000000, -0.000000000000000000 ) ) ;
#110 = AXIS2_PLACEMENT_3D ( 'NONE', #113, #33, #277 ) ;
#111 = DIRECTION ( 'NONE',  ( -0.000000000000000000, -1.000000000000000000, -0.000000000000000000 ) ) ;
#112 = FACE_BOUND ( 'NONE', #442, .T. ) ;
#113 = CARTESIAN_POINT ( 'NONE',  ( -32.00000000000000000, 0.000000000000000000, 25.00000000000000000 ) ) ;
#114 = DIRECTION ( 'NONE',  ( -0.000000000000000000, -1.000000000000000000, -0.000000000000000000 ) ) ;
#115 = LINE ( 'NONE', #443, #368 ) ;
#116 = EDGE_CURVE ( 'NONE', #321, #429, #234, .T. ) ;
#117 = VERTEX_POINT ( 'NONE', #74 ) ;
#118 = CARTESIAN_POINT ( 'NONE',  ( -45.00000000000000000, 8.000000000000000000, 40.00000000000000000 ) ) ;
#119 = ORIENTED_EDGE ( 'NONE', *, *, #96, .T. ) ;
#120 = CARTESIAN_POINT ( 'NONE',  ( -32.00000000000000000, 8.000000000000000000, -25.00000000000000000 ) ) ;
#121 = ORIENTED_EDGE ( 'NONE', *, *, #387, .F. ) ;
#122 = DIRECTION ( 'NONE',  ( 0.000000000000000000, 1.000000000000000000, 0.000000000000000000 ) ) ;
#123 = ORIENTED_EDGE ( 'NONE', *, *, #446, .T. ) ;
#124 = APPLICATION_PROTOCOL_DEFINITION ( 'international standard', 'config_control_design', 1994, #51 ) ;
#125 = LOCAL_TIME ( 10, 53, 27.00000000000000000, #384 ) ;
#126 = ADVANCED_FACE ( 'NONE', ( #396, #25, #151, #189, #112 ), #27, .T. ) ;
#127 = CARTESIAN_POINT ( 'NONE',  ( -32.00000000000000000, 8.000000000000000000, 20.75000000000000355 ) ) ;
#128 = CARTESIAN_POINT ( 'NONE',  ( -45.00000000000000000, 8.000000000000000000, -40.00000000000000000 ) ) ;
#129 = AXIS2_PLACEMENT_3D ( 'NONE', #461, #64, #57 ) ;
#130 = VERTEX_POINT ( 'NONE', #192 ) ;
#131 = CIRCLE ( 'NONE', #110, 4.249999999999996447 ) ;
#132 = ORIENTED_EDGE ( 'NONE', *, *, #353, .T. ) ;
#133 = PRODUCT ( 'FN-GNS-006_mast-base-plate-90x80x8_4HOLE-NOMINAL_R0.8', 'FN-GNS-006_mast-base-plate-90x80x8_4HOLE-NOMINAL_R0.8', '', ( #452 ) ) ;
#134 = PERSON_AND_ORGANIZATION_ROLE ( 'creator' ) ;
#135 = DIRECTION ( 'NONE',  ( 0.000000000000000000, 0.000000000000000000, 1.000000000000000000 ) ) ;
#136 = CC_DESIGN_PERSON_AND_ORGANIZATION_ASSIGNMENT ( #454, #89, ( #133 ) ) ;
#137 = CARTESIAN_POINT ( 'NONE',  ( -45.00000000000000000, 0.000000000000000000, -40.00000000000000000 ) ) ;
#138 = DIRECTION ( 'NONE',  ( -0.000000000000000000, -1.000000000000000000, -0.000000000000000000 ) ) ;
#139 = VECTOR ( 'NONE', #156, 1000.000000000000000 ) ;
#140 = VECTOR ( 'NONE', #338, 1000.000000000000000 ) ;
#141 = DIRECTION ( 'NONE',  ( 0.000000000000000000, 1.000000000000000000, 0.000000000000000000 ) ) ;
#142 = VECTOR ( 'NONE', #242, 1000.000000000000000 ) ;
#143 = DATE_TIME_ROLE ( 'creation_date' ) ;
#144 = DIRECTION ( 'NONE',  ( -0.000000000000000000, -1.000000000000000000, -0.000000000000000000 ) ) ;
#145 = ORIENTED_EDGE ( 'NONE', *, *, #390, .T. ) ;
#146 = EDGE_CURVE ( 'NONE', #359, #429, #419, .T. ) ;
#147 = PRODUCT_RELATED_PRODUCT_CATEGORY ( 'detail', '', ( #133 ) ) ;
#148 = CARTESIAN_POINT ( 'NONE',  ( -45.00000000000000000, 8.000000000000000000, 40.00000000000000000 ) ) ;
#149 = EDGE_LOOP ( 'NONE', ( #123, #259, #457, #331 ) ) ;
#150 = DIRECTION ( 'NONE',  ( -0.000000000000000000, -1.000000000000000000, -0.000000000000000000 ) ) ;
#151 = FACE_OUTER_BOUND ( 'NONE', #423, .T. ) ;
#152 = AXIS2_PLACEMENT_3D ( 'NONE', #336, #180, #464 ) ;
#153 =( GEOMETRIC_REPRESENTATION_CONTEXT ( 3 ) GLOBAL_UNCERTAINTY_ASSIGNED_CONTEXT ( ( #471 ) ) GLOBAL_UNIT_ASSIGNED_CONTEXT ( ( #256, #291, #48 ) ) REPRESENTATION_CONTEXT ( 'NONE', 'WORKASPACE' ) );
#154 = LINE ( 'NONE', #438, #216 ) ;
#155 = EDGE_CURVE ( 'NONE', #171, #388, #347, .T. ) ;
#156 = DIRECTION ( 'NONE',  ( 0.000000000000000000, 0.000000000000000000, -1.000000000000000000 ) ) ;
#157 = DIRECTION ( 'NONE',  ( -0.000000000000000000, -1.000000000000000000, -0.000000000000000000 ) ) ;
#158 = DIRECTION ( 'NONE',  ( -0.000000000000000000, -1.000000000000000000, -0.000000000000000000 ) ) ;
#159 = VERTEX_POINT ( 'NONE', #350 ) ;
#160 = CARTESIAN_POINT ( 'NONE',  ( -45.00000000000000000, 0.000000000000000000, -40.00000000000000000 ) ) ;
#161 = ORIENTED_EDGE ( 'NONE', *, *, #353, .F. ) ;
#162 = CYLINDRICAL_SURFACE ( 'NONE', #433, 4.249999999999996447 ) ;
#163 = ORIENTED_EDGE ( 'NONE', *, *, #183, .T. ) ;
#164 = DIRECTION ( 'NONE',  ( 0.000000000000000000, 1.000000000000000000, 0.000000000000000000 ) ) ;
#165 = ORIENTED_EDGE ( 'NONE', *, *, #272, .F. ) ;
#166 = CIRCLE ( 'NONE', #307, 4.249999999999996447 ) ;
#167 = DIRECTION ( 'NONE',  ( 0.000000000000000000, 1.000000000000000000, 0.000000000000000000 ) ) ;
#168 = ADVANCED_FACE ( 'NONE', ( #334 ), #393, .F. ) ;
#169 = DIRECTION ( 'NONE',  ( -0.000000000000000000, -1.000000000000000000, -0.000000000000000000 ) ) ;
#170 = CARTESIAN_POINT ( 'NONE',  ( -45.00000000000000000, 0.000000000000000000, 40.00000000000000000 ) ) ;
#171 = VERTEX_POINT ( 'NONE', #148 ) ;
#172 = FACE_OUTER_BOUND ( 'NONE', #206, .T. ) ;
#173 = ORIENTED_EDGE ( 'NONE', *, *, #155, .T. ) ;
#174 = ADVANCED_FACE ( 'NONE', ( #275 ), #108, .F. ) ;
#175 = CARTESIAN_POINT ( 'NONE',  ( 32.00000000000000000, 8.000000000000000000, -29.25000000000000355 ) ) ;
#176 = CARTESIAN_POINT ( 'NONE',  ( 45.00000000000000000, 8.000000000000000000, -40.00000000000000000 ) ) ;
#177 = PERSON_AND_ORGANIZATION ( #349, #40 ) ;
#178 = DIRECTION ( 'NONE',  ( 0.000000000000000000, 1.000000000000000000, 0.000000000000000000 ) ) ;
#179 = DIRECTION ( 'NONE',  ( -1.000000000000000000, 0.000000000000000000, 0.000000000000000000 ) ) ;
#180 = DIRECTION ( 'NONE',  ( -0.000000000000000000, -1.000000000000000000, -0.000000000000000000 ) ) ;
#181 = PRODUCT_DEFINITION_SHAPE ( 'NONE', 'NONE',  #201 ) ;
#182 = CARTESIAN_POINT ( 'NONE',  ( 45.00000000000000000, 0.000000000000000000, 40.00000000000000000 ) ) ;
#183 = EDGE_CURVE ( 'NONE', #130, #104, #398, .T. ) ;
#184 = PERSON_AND_ORGANIZATION_ROLE ( 'creator' ) ;
#185 = CARTESIAN_POINT ( 'NONE',  ( -32.00000000000000000, 8.000000000000000000, 29.25000000000000000 ) ) ;
#186 = VERTEX_POINT ( 'NONE', #266 ) ;
#187 = DATE_AND_TIME ( #22, #125 ) ;
#188 = LINE ( 'NONE', #175, #431 ) ;
#189 = FACE_BOUND ( 'NONE', #222, .T. ) ;
#190 = ADVANCED_FACE ( 'NONE', ( #271, #432, #69, #506, #98 ), #60, .F. ) ;
#191 = PLANE ( 'NONE',  #44 ) ;
#192 = CARTESIAN_POINT ( 'NONE',  ( 32.00000000000000000, 0.000000000000000000, 29.25000000000000355 ) ) ;
#193 = APPROVAL_PERSON_ORGANIZATION ( #102, #195, #227 ) ;
#194 = CARTESIAN_POINT ( 'NONE',  ( -45.00000000000000000, 8.000000000000000000, 40.00000000000000000 ) ) ;
#195 = APPROVAL ( #430, '未指定' ) ;
#196 = DIRECTION ( 'NONE',  ( 1.000000000000000000, 0.000000000000000000, 0.000000000000000000 ) ) ;
#197 = ORIENTED_EDGE ( 'NONE', *, *, #500, .F. ) ;
#198 = LINE ( 'NONE', #160, #241 ) ;
#199 = ORIENTED_EDGE ( 'NONE', *, *, #223, .F. ) ;
#200 = CARTESIAN_POINT ( 'NONE',  ( -32.00000000000000000, 8.000000000000000000, 25.00000000000000000 ) ) ;
#201 = PRODUCT_DEFINITION ( '未知', '', #281, #436 ) ;
#202 = VECTOR ( 'NONE', #221, 1000.000000000000000 ) ;
#203 = VERTEX_POINT ( 'NONE', #376 ) ;
#204 = CARTESIAN_POINT ( 'NONE',  ( 32.00000000000000000, 8.000000000000000000, 25.00000000000000000 ) ) ;
#205 = AXIS2_PLACEMENT_3D ( 'NONE', #93, #167, #214 ) ;
#206 = EDGE_LOOP ( 'NONE', ( #362, #444, #351, #97 ) ) ;
#207 = CARTESIAN_POINT ( 'NONE',  ( 32.00000000000000000, 8.000000000000000000, -20.74999999999999645 ) ) ;
#208 = DIRECTION ( 'NONE',  ( 0.000000000000000000, 0.000000000000000000, 1.000000000000000000 ) ) ;
#209 = APPROVAL_ROLE ( '' ) ;
#210 = EDGE_CURVE ( 'NONE', #100, #186, #188, .T. ) ;
#211 = AXIS2_PLACEMENT_3D ( 'NONE', #531, #122, #238 ) ;
#212 = DIRECTION ( 'NONE',  ( 0.000000000000000000, 0.000000000000000000, -1.000000000000000000 ) ) ;
#213 = VERTEX_POINT ( 'NONE', #19 ) ;
#214 = DIRECTION ( 'NONE',  ( 0.000000000000000000, 0.000000000000000000, 1.000000000000000000 ) ) ;
#215 = EDGE_LOOP ( 'NONE', ( #514, #497, #47, #481 ) ) ;
#216 = VECTOR ( 'NONE', #83, 1000.000000000000000 ) ;
#217 = CARTESIAN_POINT ( 'NONE',  ( -45.00000000000000000, 8.000000000000000000, 40.00000000000000000 ) ) ;
#218 = VERTEX_POINT ( 'NONE', #382 ) ;
#219 = CC_DESIGN_APPROVAL ( #42, ( #281 ) ) ;
#220 = COORDINATED_UNIVERSAL_TIME_OFFSET ( 8, 0, .AHEAD. ) ;
#221 = DIRECTION ( 'NONE',  ( -0.000000000000000000, -1.000000000000000000, -0.000000000000000000 ) ) ;
#222 = EDGE_LOOP ( 'NONE', ( #418, #163 ) ) ;
#223 = EDGE_CURVE ( 'NONE', #218, #359, #224, .T. ) ;
#224 = LINE ( 'NONE', #262, #202 ) ;
#225 = ADVANCED_FACE ( 'NONE', ( #474 ), #421, .F. ) ;
#226 = EDGE_LOOP ( 'NONE', ( #286, #371, #401, #280 ) ) ;
#227 = APPROVAL_ROLE ( '' ) ;
#228 = FACE_OUTER_BOUND ( 'NONE', #246, .T. ) ;
#229 = VECTOR ( 'NONE', #236, 1000.000000000000000 ) ;
#230 = ORIENTED_EDGE ( 'NONE', *, *, #390, .F. ) ;
#231 = CIRCLE ( 'NONE', #529, 4.250000000000003553 ) ;
#232 = ORIENTED_EDGE ( 'NONE', *, *, #257, .T. ) ;
#233 = FACE_OUTER_BOUND ( 'NONE', #302, .T. ) ;
#234 = LINE ( 'NONE', #312, #357 ) ;
#235 = DIRECTION ( 'NONE',  ( -0.000000000000000000, -1.000000000000000000, -0.000000000000000000 ) ) ;
#236 = DIRECTION ( 'NONE',  ( -0.000000000000000000, -1.000000000000000000, -0.000000000000000000 ) ) ;
#237 = APPROVAL ( #43, '未指定' ) ;
#238 = DIRECTION ( 'NONE',  ( 0.000000000000000000, 0.000000000000000000, 1.000000000000000000 ) ) ;
#239 = CARTESIAN_POINT ( 'NONE',  ( 45.00000000000000000, 8.000000000000000000, 40.00000000000000000 ) ) ;
#240 = SHAPE_DEFINITION_REPRESENTATION ( #181, #31 ) ;
#241 = VECTOR ( 'NONE', #319, 1000.000000000000000 ) ;
#242 = DIRECTION ( 'NONE',  ( -0.000000000000000000, -0.000000000000000000, 1.000000000000000000 ) ) ;
#243 = EDGE_LOOP ( 'NONE', ( #199, #49, #469, #417 ) ) ;
#244 = CARTESIAN_POINT ( 'NONE',  ( -32.00000000000000000, 0.000000000000000000, -25.00000000000000000 ) ) ;
#245 = CC_DESIGN_DATE_AND_TIME_ASSIGNMENT ( #463, #62, ( #292 ) ) ;
#246 = EDGE_LOOP ( 'NONE', ( #232, #38, #501, #165 ) ) ;
#247 = DIRECTION ( 'NONE',  ( 0.000000000000000000, 1.000000000000000000, 0.000000000000000000 ) ) ;
#248 = AXIS2_PLACEMENT_3D ( 'NONE', #24, #513, #344 ) ;
#249 = ORIENTED_EDGE ( 'NONE', *, *, #329, .F. ) ;
#250 = EDGE_LOOP ( 'NONE', ( #94, #173, #381, #17 ) ) ;
#251 = DIRECTION ( 'NONE',  ( 1.000000000000000000, 0.000000000000000000, 0.000000000000000000 ) ) ;
#252 = APPLICATION_PROTOCOL_DEFINITION ( 'international standard', 'config_control_design', 1994, #85 ) ;
#253 = ADVANCED_FACE ( 'NONE', ( #503 ), #13, .F. ) ;
#254 = DIRECTION ( 'NONE',  ( 0.000000000000000000, 0.000000000000000000, 1.000000000000000000 ) ) ;
#255 = AXIS2_PLACEMENT_3D ( 'NONE', #120, #279, #440 ) ;
#256 =( LENGTH_UNIT ( ) NAMED_UNIT ( * ) SI_UNIT ( .MILLI., .METRE. ) );
#257 = EDGE_CURVE ( 'NONE', #378, #203, #399, .T. ) ;
#258 = VERTEX_POINT ( 'NONE', #301 ) ;
#259 = ORIENTED_EDGE ( 'NONE', *, *, #223, .T. ) ;
#260 = PERSON_AND_ORGANIZATION_ROLE ( 'classification_officer' ) ;
#261 = AXIS2_PLACEMENT_3D ( 'NONE', #337, #141, #466 ) ;
#262 = CARTESIAN_POINT ( 'NONE',  ( -32.00000000000000000, 8.000000000000000000, -20.75000000000000355 ) ) ;
#263 = ORIENTED_EDGE ( 'NONE', *, *, #183, .F. ) ;
#264 = CC_DESIGN_SECURITY_CLASSIFICATION ( #292, ( #281 ) ) ;
#265 = ADVANCED_FACE ( 'NONE', ( #228 ), #298, .F. ) ;
#266 = CARTESIAN_POINT ( 'NONE',  ( 32.00000000000000000, 0.000000000000000000, -29.25000000000000355 ) ) ;
#267 = ORIENTED_EDGE ( 'NONE', *, *, #491, .F. ) ;
#268 = APPROVAL_DATE_TIME ( #18, #42 ) ;
#269 = CARTESIAN_POINT ( 'NONE',  ( -32.00000000000000000, 8.000000000000000000, 25.00000000000000000 ) ) ;
#270 = ORIENTED_EDGE ( 'NONE', *, *, #317, .T. ) ;
#271 = FACE_OUTER_BOUND ( 'NONE', #250, .T. ) ;
#272 = EDGE_CURVE ( 'NONE', #378, #104, #305, .T. ) ;
#273 = CARTESIAN_POINT ( 'NONE',  ( 45.00000000000000000, 8.000000000000000000, 40.00000000000000000 ) ) ;
#274 = VECTOR ( 'NONE', #293, 1000.000000000000000 ) ;
#275 = FACE_OUTER_BOUND ( 'NONE', #333, .T. ) ;
#276 = CARTESIAN_POINT ( 'NONE',  ( 32.00000000000000000, 0.000000000000000000, -20.74999999999999645 ) ) ;
#277 = DIRECTION ( 'NONE',  ( 0.000000000000000000, 0.000000000000000000, 1.000000000000000000 ) ) ;
#278 = DIRECTION ( 'NONE',  ( 0.000000000000000000, 1.000000000000000000, 0.000000000000000000 ) ) ;
#279 = DIRECTION ( 'NONE',  ( 0.000000000000000000, 1.000000000000000000, 0.000000000000000000 ) ) ;
#280 = ORIENTED_EDGE ( 'NONE', *, *, #210, .F. ) ;
#281 = PRODUCT_DEFINITION_FORMATION_WITH_SPECIFIED_SOURCE ( '任何', '', #133, .NOT_KNOWN. ) ;
#282 = DIRECTION ( 'NONE',  ( -0.000000000000000000, -0.000000000000000000, 1.000000000000000000 ) ) ;
#283 = EDGE_CURVE ( 'NONE', #84, #213, #103, .T. ) ;
#284 = ORIENTED_EDGE ( 'NONE', *, *, #408, .T. ) ;
#285 = DIRECTION ( 'NONE',  ( 0.000000000000000000, 0.000000000000000000, 1.000000000000000000 ) ) ;
#286 = ORIENTED_EDGE ( 'NONE', *, *, #363, .T. ) ;
#287 = PLANE ( 'NONE',  #3 ) ;
#288 = ADVANCED_FACE ( 'NONE', ( #468 ), #105, .F. ) ;
#289 = AXIS2_PLACEMENT_3D ( 'NONE', #478, #345, #309 ) ;
#290 = ORIENTED_EDGE ( 'NONE', *, *, #327, .T. ) ;
#291 =( NAMED_UNIT ( * ) PLANE_ANGLE_UNIT ( ) SI_UNIT ( $, .RADIAN. ) );
#292 = SECURITY_CLASSIFICATION ( '', '', #505 ) ;
#293 = DIRECTION ( 'NONE',  ( -0.000000000000000000, -1.000000000000000000, -0.000000000000000000 ) ) ;
#294 = VECTOR ( 'NONE', #251, 1000.000000000000000 ) ;
#295 = ORIENTED_EDGE ( 'NONE', *, *, #146, .T. ) ;
#296 = ORIENTED_EDGE ( 'NONE', *, *, #78, .F. ) ;
#297 = PERSON_AND_ORGANIZATION ( #349, #40 ) ;
#298 = CYLINDRICAL_SURFACE ( 'NONE', #152, 4.250000000000003553 ) ;
#299 = FACE_OUTER_BOUND ( 'NONE', #306, .T. ) ;
#300 = AXIS2_PLACEMENT_3D ( 'NONE', #53, #150, #303 ) ;
#301 = CARTESIAN_POINT ( 'NONE',  ( -32.00000000000000000, 0.000000000000000000, 20.75000000000000355 ) ) ;
#302 = EDGE_LOOP ( 'NONE', ( #296, #304, #41, #263 ) ) ;
#303 = DIRECTION ( 'NONE',  ( 0.000000000000000000, 0.000000000000000000, -1.000000000000000000 ) ) ;
#304 = ORIENTED_EDGE ( 'NONE', *, *, #35, .T. ) ;
#305 = LINE ( 'NONE', #15, #375 ) ;
#306 = EDGE_LOOP ( 'NONE', ( #532, #451, #504, #119 ) ) ;
#307 = AXIS2_PLACEMENT_3D ( 'NONE', #244, #164, #397 ) ;
#308 = DIRECTION ( 'NONE',  ( 1.000000000000000000, -0.000000000000000000, 0.000000000000000000 ) ) ;
#309 = DIRECTION ( 'NONE',  ( 0.000000000000000000, -0.000000000000000000, -1.000000000000000000 ) ) ;
#310 = APPROVAL_PERSON_ORGANIZATION ( #502, #42, #458 ) ;
#311 = CARTESIAN_POINT ( 'NONE',  ( 32.00000000000000000, 0.000000000000000000, -25.00000000000000000 ) ) ;
#312 = CARTESIAN_POINT ( 'NONE',  ( -32.00000000000000000, 8.000000000000000000, -29.25000000000000000 ) ) ;
#313 = DATE_AND_TIME ( #521, #511 ) ;
#314 = DIRECTION ( 'NONE',  ( 0.000000000000000000, 0.000000000000000000, 1.000000000000000000 ) ) ;
#315 = LINE ( 'NONE', #273, #374 ) ;
#316 = ADVANCED_FACE ( 'NONE', ( #233 ), #489, .F. ) ;
#317 = EDGE_CURVE ( 'NONE', #429, #359, #166, .T. ) ;
#318 = EDGE_LOOP ( 'NONE', ( #406, #65, #527, #132 ) ) ;
#319 = DIRECTION ( 'NONE',  ( -1.000000000000000000, -0.000000000000000000, -0.000000000000000000 ) ) ;
#320 = VECTOR ( 'NONE', #335, 1000.000000000000000 ) ;
#321 = VERTEX_POINT ( 'NONE', #37 ) ;
#322 = CARTESIAN_POINT ( 'NONE',  ( -32.00000000000000000, 8.000000000000000000, -25.00000000000000000 ) ) ;
#323 = ORIENTED_EDGE ( 'NONE', *, *, #507, .F. ) ;
#324 = DIRECTION ( 'NONE',  ( 0.000000000000000000, 0.000000000000000000, -1.000000000000000000 ) ) ;
#325 = EDGE_LOOP ( 'NONE', ( #459, #447 ) ) ;
#326 = DIRECTION ( 'NONE',  ( 1.000000000000000000, 0.000000000000000000, 0.000000000000000000 ) ) ;
#327 = EDGE_CURVE ( 'NONE', #524, #21, #154, .T. ) ;
#328 = DIRECTION ( 'NONE',  ( 0.000000000000000000, 1.000000000000000000, 0.000000000000000000 ) ) ;
#329 = EDGE_CURVE ( 'NONE', #213, #258, #63, .T. ) ;
#330 = LINE ( 'NONE', #170, #294 ) ;
#331 = ORIENTED_EDGE ( 'NONE', *, *, #116, .F. ) ;
#332 = CYLINDRICAL_SURFACE ( 'NONE', #498, 4.249999999999996447 ) ;
#333 = EDGE_LOOP ( 'NONE', ( #145, #161, #490, #290 ) ) ;
#334 = FACE_OUTER_BOUND ( 'NONE', #373, .T. ) ;
#335 = DIRECTION ( 'NONE',  ( -0.000000000000000000, -1.000000000000000000, -0.000000000000000000 ) ) ;
#336 = CARTESIAN_POINT ( 'NONE',  ( 32.00000000000000000, 8.000000000000000000, 25.00000000000000000 ) ) ;
#337 = CARTESIAN_POINT ( 'NONE',  ( 32.00000000000000000, 8.000000000000000000, 25.00000000000000000 ) ) ;
#338 = DIRECTION ( 'NONE',  ( -0.000000000000000000, -1.000000000000000000, -0.000000000000000000 ) ) ;
#339 = DIRECTION ( 'NONE',  ( 0.000000000000000000, 0.000000000000000000, 1.000000000000000000 ) ) ;
#340 = APPROVAL_STATUS ( 'not_yet_approved' ) ;
#341 = DIRECTION ( 'NONE',  ( 0.000000000000000000, 0.000000000000000000, -1.000000000000000000 ) ) ;
#342 = ORIENTED_EDGE ( 'NONE', *, *, #453, .F. ) ;
#343 = ADVANCED_FACE ( 'NONE', ( #352 ), #191, .F. ) ;
#344 = DIRECTION ( 'NONE',  ( 0.000000000000000000, -0.000000000000000000, -1.000000000000000000 ) ) ;
#345 = DIRECTION ( 'NONE',  ( 0.000000000000000000, -1.000000000000000000, 0.000000000000000000 ) ) ;
#346 = CARTESIAN_POINT ( 'NONE',  ( -45.00000000000000000, 8.000000000000000000, 40.00000000000000000 ) ) ;
#347 = LINE ( 'NONE', #439, #365 ) ;
#348 = DIRECTION ( 'NONE',  ( 0.000000000000000000, 1.000000000000000000, 0.000000000000000000 ) ) ;
#349 = PERSON ( '未指定', '未指定', '未指定', ('未指定'), ('未指定'), ('未指定') ) ;
#350 = CARTESIAN_POINT ( 'NONE',  ( 45.00000000000000000, 8.000000000000000000, -40.00000000000000000 ) ) ;
#351 = ORIENTED_EDGE ( 'NONE', *, *, #55, .F. ) ;
#352 = FACE_OUTER_BOUND ( 'NONE', #318, .T. ) ;
#353 = EDGE_CURVE ( 'NONE', #171, #67, #360, .T. ) ;
#354 = EDGE_LOOP ( 'NONE', ( #36, #82, #6, #249 ) ) ;
#355 = AXIS2_PLACEMENT_3D ( 'NONE', #435, #445, #285 ) ;
#356 = DIRECTION ( 'NONE',  ( 0.000000000000000000, 0.000000000000000000, 1.000000000000000000 ) ) ;
#357 = VECTOR ( 'NONE', #114, 1000.000000000000000 ) ;
#358 = AXIS2_PLACEMENT_3D ( 'NONE', #477, #402, #356 ) ;
#359 = VERTEX_POINT ( 'NONE', #75 ) ;
#360 = LINE ( 'NONE', #346, #50 ) ;
#361 = MANIFOLD_SOLID_BREP ( '凸台-拉伸1', #473 ) ;
#362 = ORIENTED_EDGE ( 'NONE', *, *, #453, .T. ) ;
#363 = EDGE_CURVE ( 'NONE', #100, #488, #405, .T. ) ;
#364 = LINE ( 'NONE', #127, #274 ) ;
#365 = VECTOR ( 'NONE', #196, 1000.000000000000000 ) ;
#366 = AXIS2_PLACEMENT_3D ( 'NONE', #510, #178, #135 ) ;
#367 = COORDINATED_UNIVERSAL_TIME_OFFSET ( 8, 0, .AHEAD. ) ;
#368 = VECTOR ( 'NONE', #157, 1000.000000000000000 ) ;
#369 = EDGE_CURVE ( 'NONE', #485, #84, #68, .T. ) ;
#370 = DIRECTION ( 'NONE',  ( 0.000000000000000000, 0.000000000000000000, -1.000000000000000000 ) ) ;
#371 = ORIENTED_EDGE ( 'NONE', *, *, #420, .T. ) ;
#372 = AXIS2_PLACEMENT_3D ( 'NONE', #204, #73, #28 ) ;
#373 = EDGE_LOOP ( 'NONE', ( #410, #23, #416, #121 ) ) ;
#374 = VECTOR ( 'NONE', #158, 1000.000000000000000 ) ;
#375 = VECTOR ( 'NONE', #144, 1000.000000000000000 ) ;
#376 = CARTESIAN_POINT ( 'NONE',  ( 32.00000000000000000, 8.000000000000000000, 29.25000000000000355 ) ) ;
#377 = CIRCLE ( 'NONE', #475, 4.249999999999996447 ) ;
#378 = VERTEX_POINT ( 'NONE', #26 ) ;
#379 = CALENDAR_DATE ( 2026, 27, 7 ) ;
#380 = CARTESIAN_POINT ( 'NONE',  ( -32.00000000000000000, 8.000000000000000000, 25.00000000000000000 ) ) ;
#381 = ORIENTED_EDGE ( 'NONE', *, *, #72, .T. ) ;
#382 = CARTESIAN_POINT ( 'NONE',  ( -32.00000000000000000, 8.000000000000000000, -20.75000000000000355 ) ) ;
#383 = LINE ( 'NONE', #176, #320 ) ;
#384 = COORDINATED_UNIVERSAL_TIME_OFFSET ( 8, 0, .AHEAD. ) ;
#385 = VECTOR ( 'NONE', #109, 1000.000000000000000 ) ;
#386 = DIRECTION ( 'NONE',  ( -0.000000000000000000, -1.000000000000000000, -0.000000000000000000 ) ) ;
#387 = EDGE_CURVE ( 'NONE', #80, #186, #483, .T. ) ;
#388 = VERTEX_POINT ( 'NONE', #79 ) ;
#389 = VECTOR ( 'NONE', #282, 1000.000000000000000 ) ;
#390 = EDGE_CURVE ( 'NONE', #21, #67, #407, .T. ) ;
#391 = APPROVAL_DATE_TIME ( #313, #195 ) ;
#392 = ORIENTED_EDGE ( 'NONE', *, *, #412, .T. ) ;
#393 = CYLINDRICAL_SURFACE ( 'NONE', #300, 4.250000000000003553 ) ;
#394 = CARTESIAN_POINT ( 'NONE',  ( -45.00000000000000000, 0.000000000000000000, 40.00000000000000000 ) ) ;
#395 = DIRECTION ( 'NONE',  ( 0.000000000000000000, 0.000000000000000000, 1.000000000000000000 ) ) ;
#396 = FACE_BOUND ( 'NONE', #530, .T. ) ;
#397 = DIRECTION ( 'NONE',  ( 0.000000000000000000, 0.000000000000000000, 1.000000000000000000 ) ) ;
#398 = CIRCLE ( 'NONE', #129, 4.250000000000003553 ) ;
#399 = CIRCLE ( 'NONE', #366, 4.250000000000003553 ) ;
#400 = CARTESIAN_POINT ( 'NONE',  ( 32.00000000000000000, 8.000000000000000000, 29.25000000000000355 ) ) ;
#401 = ORIENTED_EDGE ( 'NONE', *, *, #408, .F. ) ;
#402 = DIRECTION ( 'NONE',  ( 0.000000000000000000, 1.000000000000000000, 0.000000000000000000 ) ) ;
#403 = VERTEX_POINT ( 'NONE', #39 ) ;
#404 = DIRECTION ( 'NONE',  ( -1.000000000000000000, 0.000000000000000000, -0.000000000000000000 ) ) ;
#405 = CIRCLE ( 'NONE', #211, 4.250000000000003553 ) ;
#406 = ORIENTED_EDGE ( 'NONE', *, *, #500, .T. ) ;
#407 = LINE ( 'NONE', #518, #142 ) ;
#408 = EDGE_CURVE ( 'NONE', #186, #80, #70, .T. ) ;
#409 = AXIS2_PLACEMENT_3D ( 'NONE', #311, #348, #314 ) ;
#410 = ORIENTED_EDGE ( 'NONE', *, *, #420, .F. ) ;
#411 = CARTESIAN_POINT ( 'NONE',  ( -32.00000000000000000, 8.000000000000000000, -25.00000000000000000 ) ) ;
#412 = EDGE_CURVE ( 'NONE', #258, #213, #131, .T. ) ;
#413 = PERSON_AND_ORGANIZATION ( #349, #40 ) ;
#414 = EDGE_CURVE ( 'NONE', #488, #100, #231, .T. ) ;
#415 = DATE_AND_TIME ( #455, #10 ) ;
#416 = ORIENTED_EDGE ( 'NONE', *, *, #210, .T. ) ;
#417 = ORIENTED_EDGE ( 'NONE', *, *, #146, .F. ) ;
#418 = ORIENTED_EDGE ( 'NONE', *, *, #484, .T. ) ;
#419 = CIRCLE ( 'NONE', #1, 4.249999999999996447 ) ;
#420 = EDGE_CURVE ( 'NONE', #488, #80, #115, .T. ) ;
#421 = CYLINDRICAL_SURFACE ( 'NONE', #99, 4.249999999999996447 ) ;
#422 = CC_DESIGN_APPROVAL ( #237, ( #201 ) ) ;
#423 = EDGE_LOOP ( 'NONE', ( #230, #342, #54, #197 ) ) ;
#424 = DIRECTION ( 'NONE',  ( 0.000000000000000000, 0.000000000000000000, -1.000000000000000000 ) ) ;
#425 = LINE ( 'NONE', #182, #448 ) ;
#426 = PERSON_AND_ORGANIZATION_ROLE ( 'design_supplier' ) ;
#427 = DIRECTION ( 'NONE',  ( -0.000000000000000000, -1.000000000000000000, -0.000000000000000000 ) ) ;
#428 = CC_DESIGN_PERSON_AND_ORGANIZATION_ASSIGNMENT ( #297, #260, ( #292 ) ) ;
#429 = VERTEX_POINT ( 'NONE', #479 ) ;
#430 = APPROVAL_STATUS ( 'not_yet_approved' ) ;
#431 = VECTOR ( 'NONE', #386, 1000.000000000000000 ) ;
#432 = FACE_BOUND ( 'NONE', #512, .T. ) ;
#433 = AXIS2_PLACEMENT_3D ( 'NONE', #322, #486, #212 ) ;
#434 = LINE ( 'NONE', #76, #385 ) ;
#435 = CARTESIAN_POINT ( 'NONE',  ( -32.00000000000000000, 0.000000000000000000, 25.00000000000000000 ) ) ;
#436 = DESIGN_CONTEXT ( 'detailed design', #85, 'design' ) ;
#437 = CARTESIAN_POINT ( 'NONE',  ( 32.00000000000000000, 8.000000000000000000, -29.25000000000000355 ) ) ;
#438 = CARTESIAN_POINT ( 'NONE',  ( -45.00000000000000000, 8.000000000000000000, -40.00000000000000000 ) ) ;
#439 = CARTESIAN_POINT ( 'NONE',  ( -45.00000000000000000, 8.000000000000000000, 40.00000000000000000 ) ) ;
#440 = DIRECTION ( 'NONE',  ( 0.000000000000000000, 0.000000000000000000, 1.000000000000000000 ) ) ;
#441 = CIRCLE ( 'NONE', #29, 4.249999999999996447 ) ;
#442 = EDGE_LOOP ( 'NONE', ( #284, #61 ) ) ;
#443 = CARTESIAN_POINT ( 'NONE',  ( 32.00000000000000000, 8.000000000000000000, -20.74999999999999645 ) ) ;
#444 = ORIENTED_EDGE ( 'NONE', *, *, #327, .F. ) ;
#445 = DIRECTION ( 'NONE',  ( 0.000000000000000000, 1.000000000000000000, 0.000000000000000000 ) ) ;
#446 = EDGE_CURVE ( 'NONE', #321, #218, #86, .T. ) ;
#447 = ORIENTED_EDGE ( 'NONE', *, *, #35, .F. ) ;
#448 = VECTOR ( 'NONE', #480, 1000.000000000000000 ) ;
#449 = AXIS2_PLACEMENT_3D ( 'NONE', #269, #427, #470 ) ;
#450 = LOCAL_TIME ( 10, 53, 27.00000000000000000, #95 ) ;
#451 = ORIENTED_EDGE ( 'NONE', *, *, #7, .F. ) ;
#452 = MECHANICAL_CONTEXT ( 'NONE', #51, 'mechanical' ) ;
#453 = EDGE_CURVE ( 'NONE', #403, #21, #198, .T. ) ;
#454 = PERSON_AND_ORGANIZATION ( #349, #40 ) ;
#455 = CALENDAR_DATE ( 2026, 27, 7 ) ;
#456 = EDGE_CURVE ( 'NONE', #524, #171, #482, .T. ) ;
#457 = ORIENTED_EDGE ( 'NONE', *, *, #317, .F. ) ;
#458 = APPROVAL_ROLE ( '' ) ;
#459 = ORIENTED_EDGE ( 'NONE', *, *, #257, .F. ) ;
#460 = CALENDAR_DATE ( 2026, 27, 7 ) ;
#461 = CARTESIAN_POINT ( 'NONE',  ( 32.00000000000000000, 0.000000000000000000, 25.00000000000000000 ) ) ;
#462 = PLANE ( 'NONE',  #92 ) ;
#463 = DATE_AND_TIME ( #379, #56 ) ;
#464 = DIRECTION ( 'NONE',  ( 0.000000000000000000, 0.000000000000000000, -1.000000000000000000 ) ) ;
#465 = AXIS2_PLACEMENT_3D ( 'NONE', #494, #254, #326 ) ;
#466 = DIRECTION ( 'NONE',  ( 0.000000000000000000, 0.000000000000000000, 1.000000000000000000 ) ) ;
#467 = ADVANCED_FACE ( 'NONE', ( #81 ), #162, .F. ) ;
#468 = FACE_OUTER_BOUND ( 'NONE', #215, .T. ) ;
#469 = ORIENTED_EDGE ( 'NONE', *, *, #116, .T. ) ;
#470 = DIRECTION ( 'NONE',  ( 0.000000000000000000, 0.000000000000000000, -1.000000000000000000 ) ) ;
#471 = UNCERTAINTY_MEASURE_WITH_UNIT (LENGTH_MEASURE( 1.000000000000000082E-05 ), #256, 'distance_accuracy_value', 'NONE');
#472 = ORIENTED_EDGE ( 'NONE', *, *, #414, .F. ) ;
#473 = CLOSED_SHELL ( 'NONE', ( #253, #467, #265, #288, #190, #126, #174, #343, #34, #487, #225, #316, #509, #168 ) ) ;
#474 = FACE_OUTER_BOUND ( 'NONE', #354, .T. ) ;
#475 = AXIS2_PLACEMENT_3D ( 'NONE', #90, #328, #495 ) ;
#476 = DIRECTION ( 'NONE',  ( 0.000000000000000000, 0.000000000000000000, 1.000000000000000000 ) ) ;
#477 = CARTESIAN_POINT ( 'NONE',  ( 32.00000000000000000, 0.000000000000000000, -25.00000000000000000 ) ) ;
#478 = CARTESIAN_POINT ( 'NONE',  ( 0.000000000000000000, 0.000000000000000000, 0.000000000000000000 ) ) ;
#479 = CARTESIAN_POINT ( 'NONE',  ( -32.00000000000000000, 0.000000000000000000, -29.25000000000000000 ) ) ;
#480 = DIRECTION ( 'NONE',  ( 0.000000000000000000, 0.000000000000000000, -1.000000000000000000 ) ) ;
#481 = ORIENTED_EDGE ( 'NONE', *, *, #515, .F. ) ;
#482 = LINE ( 'NONE', #118, #389 ) ;
#483 = CIRCLE ( 'NONE', #409, 4.250000000000003553 ) ;
#484 = EDGE_CURVE ( 'NONE', #104, #130, #101, .T. ) ;
#485 = VERTEX_POINT ( 'NONE', #88 ) ;
#486 = DIRECTION ( 'NONE',  ( -0.000000000000000000, -1.000000000000000000, -0.000000000000000000 ) ) ;
#487 = ADVANCED_FACE ( 'NONE', ( #172 ), #287, .F. ) ;
#488 = VERTEX_POINT ( 'NONE', #207 ) ;
#489 = CYLINDRICAL_SURFACE ( 'NONE', #372, 4.250000000000003553 ) ;
#490 = ORIENTED_EDGE ( 'NONE', *, *, #456, .F. ) ;
#491 = EDGE_CURVE ( 'NONE', #218, #321, #441, .T. ) ;
#492 = CC_DESIGN_APPROVAL ( #195, ( #292 ) ) ;
#493 = FACE_OUTER_BOUND ( 'NONE', #243, .T. ) ;
#494 = CARTESIAN_POINT ( 'NONE',  ( 0.000000000000000000, 0.000000000000000000, 0.000000000000000000 ) ) ;
#495 = DIRECTION ( 'NONE',  ( 0.000000000000000000, 0.000000000000000000, 1.000000000000000000 ) ) ;
#496 = CIRCLE ( 'NONE', #261, 4.250000000000003553 ) ;
#497 = ORIENTED_EDGE ( 'NONE', *, *, #283, .T. ) ;
#498 = AXIS2_PLACEMENT_3D ( 'NONE', #411, #169, #370 ) ;
#499 = CARTESIAN_POINT ( 'NONE',  ( -45.00000000000000000, 8.000000000000000000, -40.00000000000000000 ) ) ;
#500 = EDGE_CURVE ( 'NONE', #67, #117, #330, .T. ) ;
#501 = ORIENTED_EDGE ( 'NONE', *, *, #484, .F. ) ;
#502 = PERSON_AND_ORGANIZATION ( #349, #40 ) ;
#503 = FACE_OUTER_BOUND ( 'NONE', #226, .T. ) ;
#504 = ORIENTED_EDGE ( 'NONE', *, *, #72, .F. ) ;
#505 = SECURITY_CLASSIFICATION_LEVEL ( 'unclassified' ) ;
#506 = FACE_BOUND ( 'NONE', #9, .T. ) ;
#507 = EDGE_CURVE ( 'NONE', #84, #485, #377, .T. ) ;
#508 = EDGE_LOOP ( 'NONE', ( #12, #472 ) ) ;
#509 = ADVANCED_FACE ( 'NONE', ( #493 ), #332, .F. ) ;
#510 = CARTESIAN_POINT ( 'NONE',  ( 32.00000000000000000, 8.000000000000000000, 25.00000000000000000 ) ) ;
#511 = LOCAL_TIME ( 10, 53, 27.00000000000000000, #66 ) ;
#512 = EDGE_LOOP ( 'NONE', ( #87, #323 ) ) ;
#513 = DIRECTION ( 'NONE',  ( 0.000000000000000000, -1.000000000000000000, 0.000000000000000000 ) ) ;
#514 = ORIENTED_EDGE ( 'NONE', *, *, #369, .T. ) ;
#515 = EDGE_CURVE ( 'NONE', #485, #258, #364, .T. ) ;
#516 = CARTESIAN_POINT ( 'NONE',  ( 32.00000000000000000, 8.000000000000000000, -25.00000000000000000 ) ) ;
#517 = CARTESIAN_POINT ( 'NONE',  ( -32.00000000000000000, 0.000000000000000000, -25.00000000000000000 ) ) ;
#518 = CARTESIAN_POINT ( 'NONE',  ( -45.00000000000000000, 0.000000000000000000, 40.00000000000000000 ) ) ;
#519 = APPROVAL_PERSON_ORGANIZATION ( #413, #237, #209 ) ;
#520 = LINE ( 'NONE', #239, #139 ) ;
#521 = CALENDAR_DATE ( 2026, 27, 7 ) ;
#522 = DIRECTION ( 'NONE',  ( 0.000000000000000000, 1.000000000000000000, 0.000000000000000000 ) ) ;
#523 = CARTESIAN_POINT ( 'NONE',  ( -32.00000000000000000, 8.000000000000000000, 29.25000000000000000 ) ) ;
#524 = VERTEX_POINT ( 'NONE', #128 ) ;
#525 = CARTESIAN_POINT ( 'NONE',  ( 32.00000000000000000, 8.000000000000000000, -25.00000000000000000 ) ) ;
#526 = CC_DESIGN_DATE_AND_TIME_ASSIGNMENT ( #187, #143, ( #201 ) ) ;
#527 = ORIENTED_EDGE ( 'NONE', *, *, #155, .F. ) ;
#528 = DIRECTION ( 'NONE',  ( 0.000000000000000000, 0.000000000000000000, 1.000000000000000000 ) ) ;
#529 = AXIS2_PLACEMENT_3D ( 'NONE', #525, #522, #528 ) ;
#530 = EDGE_LOOP ( 'NONE', ( #270, #295 ) ) ;
#531 = CARTESIAN_POINT ( 'NONE',  ( 32.00000000000000000, 8.000000000000000000, -25.00000000000000000 ) ) ;
#532 = ORIENTED_EDGE ( 'NONE', *, *, #46, .T. ) ;
#533 = DIRECTION ( 'NONE',  ( 0.000000000000000000, 1.000000000000000000, 0.000000000000000000 ) ) ;
ENDSEC;
END-ISO-10303-21;
