ISO-10303-21;
HEADER;
FILE_DESCRIPTION (( 'STEP AP203' ),
    '1' );
FILE_NAME ('FN-SEC-002_lower-wall-coupon-280x65x3_4PORT-NOMINAL_R0.8.STEP',
    '2026-07-27T02:53:14',
    ( '' ),
    ( '' ),
    'SwSTEP 2.0',
    'SolidWorks 2022',
    '' );
FILE_SCHEMA (( 'CONFIG_CONTROL_DESIGN' ));
ENDSEC;

DATA;
#1 = ORIENTED_EDGE ( 'NONE', *, *, #510, .T. ) ;
#2 = VECTOR ( 'NONE', #306, 1000.000000000000000 ) ;
#3 = ADVANCED_FACE ( 'NONE', ( #333 ), #95, .F. ) ;
#4 = ORIENTED_EDGE ( 'NONE', *, *, #143, .F. ) ;
#5 = ORIENTED_EDGE ( 'NONE', *, *, #143, .T. ) ;
#6 = AXIS2_PLACEMENT_3D ( 'NONE', #165, #325, #489 ) ;
#7 = ORIENTED_EDGE ( 'NONE', *, *, #242, .T. ) ;
#8 = CARTESIAN_POINT ( 'NONE',  ( -140.0000000000000000, -32.50000000000000000, 0.000000000000000000 ) ) ;
#9 = CARTESIAN_POINT ( 'NONE',  ( -118.0000000000000000, 0.000000000000000000, 0.000000000000000000 ) ) ;
#10 = CYLINDRICAL_SURFACE ( 'NONE', #372, 3.250000000000002665 ) ;
#11 = ORIENTED_EDGE ( 'NONE', *, *, #15, .T. ) ;
#12 = AXIS2_PLACEMENT_3D ( 'NONE', #401, #449, #32 ) ;
#13 = PLANE ( 'NONE',  #478 ) ;
#14 = DIRECTION ( 'NONE',  ( 0.000000000000000000, 0.000000000000000000, 1.000000000000000000 ) ) ;
#15 = EDGE_CURVE ( 'NONE', #526, #362, #377, .T. ) ;
#16 = CARTESIAN_POINT ( 'NONE',  ( 140.0000000000000000, -32.50000000000000000, 3.000000000000000000 ) ) ;
#17 = VECTOR ( 'NONE', #342, 1000.000000000000000 ) ;
#18 = CARTESIAN_POINT ( 'NONE',  ( -85.25000000000000000, 0.000000000000000000, 0.000000000000000000 ) ) ;
#19 = DATE_TIME_ROLE ( 'classification_date' ) ;
#20 = CARTESIAN_POINT ( 'NONE',  ( -140.0000000000000000, -32.50000000000000000, 0.000000000000000000 ) ) ;
#21 = DATE_AND_TIME ( #505, #279 ) ;
#22 = CARTESIAN_POINT ( 'NONE',  ( 140.0000000000000000, -32.50000000000000000, 3.000000000000000000 ) ) ;
#23 = CIRCLE ( 'NONE', #502, 3.250000000000002665 ) ;
#24 = CARTESIAN_POINT ( 'NONE',  ( 110.0000000000000000, 0.000000000000000000, 3.000000000000000000 ) ) ;
#25 = PERSON_AND_ORGANIZATION ( #458, #196 ) ;
#26 = CARTESIAN_POINT ( 'NONE',  ( 110.0000000000000000, 0.000000000000000000, 3.000000000000000000 ) ) ;
#27 = DATE_TIME_ROLE ( 'creation_date' ) ;
#28 = DIRECTION ( 'NONE',  ( -0.000000000000000000, -0.000000000000000000, -1.000000000000000000 ) ) ;
#29 = APPROVAL_ROLE ( '' ) ;
#30 = EDGE_CURVE ( 'NONE', #501, #40, #360, .T. ) ;
#31 = LOCAL_TIME ( 10, 53, 14.00000000000000000, #315 ) ;
#32 = DIRECTION ( 'NONE',  ( 1.000000000000000000, 0.000000000000000000, 0.000000000000000000 ) ) ;
#33 = FACE_BOUND ( 'NONE', #52, .T. ) ;
#34 = ORIENTED_EDGE ( 'NONE', *, *, #113, .T. ) ;
#35 = CARTESIAN_POINT ( 'NONE',  ( 101.7500000000000000, 0.000000000000000000, 3.000000000000000000 ) ) ;
#36 = ORIENTED_EDGE ( 'NONE', *, *, #221, .F. ) ;
#37 = DIRECTION ( 'NONE',  ( -0.000000000000000000, -0.000000000000000000, -1.000000000000000000 ) ) ;
#38 = AXIS2_PLACEMENT_3D ( 'NONE', #71, #236, #443 ) ;
#39 = ORIENTED_EDGE ( 'NONE', *, *, #494, .F. ) ;
#40 = VERTEX_POINT ( 'NONE', #294 ) ;
#41 = VECTOR ( 'NONE', #195, 1000.000000000000000 ) ;
#42 = VERTEX_POINT ( 'NONE', #219 ) ;
#43 = PRODUCT_DEFINITION_SHAPE ( 'NONE', 'NONE',  #468 ) ;
#44 = APPROVAL ( #521, '未指定' ) ;
#45 = ORIENTED_EDGE ( 'NONE', *, *, #278, .F. ) ;
#46 = SECURITY_CLASSIFICATION ( '', '', #426 ) ;
#47 = CARTESIAN_POINT ( 'NONE',  ( 0.000000000000000000, 0.000000000000000000, 3.000000000000000000 ) ) ;
#48 = ORIENTED_EDGE ( 'NONE', *, *, #94, .T. ) ;
#49 = DIRECTION ( 'NONE',  ( -1.000000000000000000, 0.000000000000000000, 0.000000000000000000 ) ) ;
#50 = CARTESIAN_POINT ( 'NONE',  ( -114.7499999999999858, 3.980102097228907599E-16, 3.000000000000000000 ) ) ;
#51 = FACE_OUTER_BOUND ( 'NONE', #57, .T. ) ;
#52 = EDGE_LOOP ( 'NONE', ( #5, #250 ) ) ;
#53 = APPROVAL_STATUS ( 'not_yet_approved' ) ;
#54 = EDGE_CURVE ( 'NONE', #413, #81, #233, .T. ) ;
#55 = CIRCLE ( 'NONE', #435, 3.250000000000002665 ) ;
#56 = CARTESIAN_POINT ( 'NONE',  ( 60.00000000000000000, 0.000000000000000000, 3.000000000000000000 ) ) ;
#57 = EDGE_LOOP ( 'NONE', ( #283, #244, #460, #166 ) ) ;
#58 = DIRECTION ( 'NONE',  ( -0.000000000000000000, -0.000000000000000000, -1.000000000000000000 ) ) ;
#59 = FACE_OUTER_BOUND ( 'NONE', #201, .T. ) ;
#60 = PERSON_AND_ORGANIZATION_ROLE ( 'design_supplier' ) ;
#61 = LINE ( 'NONE', #299, #324 ) ;
#62 = EDGE_CURVE ( 'NONE', #488, #42, #462, .T. ) ;
#63 = CARTESIAN_POINT ( 'NONE',  ( 60.00000000000000000, 0.000000000000000000, 0.000000000000000000 ) ) ;
#64 = VECTOR ( 'NONE', #367, 1000.000000000000000 ) ;
#65 = CARTESIAN_POINT ( 'NONE',  ( -140.0000000000000000, 32.50000000000000000, 0.000000000000000000 ) ) ;
#66 = PERSON_AND_ORGANIZATION_ROLE ( 'creator' ) ;
#67 = CIRCLE ( 'NONE', #439, 8.250000000000007105 ) ;
#68 = CARTESIAN_POINT ( 'NONE',  ( -140.0000000000000000, 32.50000000000000000, 3.000000000000000000 ) ) ;
#69 = EDGE_CURVE ( 'NONE', #228, #501, #425, .T. ) ;
#70 = CARTESIAN_POINT ( 'NONE',  ( 0.000000000000000000, 0.000000000000000000, 0.000000000000000000 ) ) ;
#71 = CARTESIAN_POINT ( 'NONE',  ( 110.0000000000000000, 0.000000000000000000, 3.000000000000000000 ) ) ;
#72 = ORIENTED_EDGE ( 'NONE', *, *, #62, .T. ) ;
#73 = EDGE_CURVE ( 'NONE', #298, #42, #223, .T. ) ;
#74 = VECTOR ( 'NONE', #336, 1000.000000000000000 ) ;
#75 = DIRECTION ( 'NONE',  ( -0.000000000000000000, -0.000000000000000000, -1.000000000000000000 ) ) ;
#76 = ORIENTED_EDGE ( 'NONE', *, *, #30, .F. ) ;
#77 = DIRECTION ( 'NONE',  ( 1.000000000000000000, 0.000000000000000000, 0.000000000000000000 ) ) ;
#78 = ORIENTED_EDGE ( 'NONE', *, *, #127, .T. ) ;
#79 = EDGE_CURVE ( 'NONE', #42, #362, #268, .T. ) ;
#80 = CARTESIAN_POINT ( 'NONE',  ( 140.0000000000000000, 32.50000000000000000, 0.000000000000000000 ) ) ;
#81 = VERTEX_POINT ( 'NONE', #105 ) ;
#82 = FACE_OUTER_BOUND ( 'NONE', #203, .T. ) ;
#83 = VERTEX_POINT ( 'NONE', #264 ) ;
#84 = PRODUCT ( 'FN-SEC-002_lower-wall-coupon-280x65x3_4PORT-NOMINAL_R0.8', 'FN-SEC-002_lower-wall-coupon-280x65x3_4PORT-NOMINAL_R0.8', '', ( #356 ) ) ;
#85 = VERTEX_POINT ( 'NONE', #18 ) ;
#86 = CARTESIAN_POINT ( 'NONE',  ( 60.00000000000000000, 0.000000000000000000, 0.000000000000000000 ) ) ;
#87 = EDGE_CURVE ( 'NONE', #228, #326, #507, .T. ) ;
#88 = ORIENTED_EDGE ( 'NONE', *, *, #296, .F. ) ;
#89 = AXIS2_PLACEMENT_3D ( 'NONE', #56, #183, #388 ) ;
#90 = CARTESIAN_POINT ( 'NONE',  ( -140.0000000000000000, -32.50000000000000000, 3.000000000000000000 ) ) ;
#91 = CARTESIAN_POINT ( 'NONE',  ( 140.0000000000000000, -32.50000000000000000, 3.000000000000000000 ) ) ;
#92 = VECTOR ( 'NONE', #107, 1000.000000000000000 ) ;
#93 = DIRECTION ( 'NONE',  ( -0.000000000000000000, -0.000000000000000000, -1.000000000000000000 ) ) ;
#94 = EDGE_CURVE ( 'NONE', #326, #40, #343, .T. ) ;
#95 = CYLINDRICAL_SURFACE ( 'NONE', #129, 3.250000000000002665 ) ;
#96 = APPROVAL_ROLE ( '' ) ;
#97 = CARTESIAN_POINT ( 'NONE',  ( 60.00000000000000000, 0.000000000000000000, 3.000000000000000000 ) ) ;
#98 = EDGE_LOOP ( 'NONE', ( #518, #477, #4, #121 ) ) ;
#99 = PRODUCT_DEFINITION_FORMATION_WITH_SPECIFIED_SOURCE ( '任何', '', #84, .NOT_KNOWN. ) ;
#100 = DIRECTION ( 'NONE',  ( -1.000000000000000000, 0.000000000000000000, 0.000000000000000000 ) ) ;
#101 = AXIS2_PLACEMENT_3D ( 'NONE', #24, #440, #189 ) ;
#102 = DIRECTION ( 'NONE',  ( 1.000000000000000000, 0.000000000000000000, 0.000000000000000000 ) ) ;
#103 = EDGE_CURVE ( 'NONE', #81, #413, #67, .T. ) ;
#104 = CARTESIAN_POINT ( 'NONE',  ( -118.0000000000000000, 0.000000000000000000, 3.000000000000000000 ) ) ;
#105 = CARTESIAN_POINT ( 'NONE',  ( 68.25000000000000000, 1.010333609296567930E-15, 0.000000000000000000 ) ) ;
#106 = COORDINATED_UNIVERSAL_TIME_OFFSET ( 8, 0, .AHEAD. ) ;
#107 = DIRECTION ( 'NONE',  ( 0.000000000000000000, 1.000000000000000000, 0.000000000000000000 ) ) ;
#108 = APPLICATION_CONTEXT ( 'configuration controlled 3d designs of mechanical parts and assemblies' ) ;
#109 = APPLICATION_PROTOCOL_DEFINITION ( 'international standard', 'config_control_design', 1994, #168 ) ;
#110 = CARTESIAN_POINT ( 'NONE',  ( 140.0000000000000000, -32.50000000000000000, 0.000000000000000000 ) ) ;
#111 = CIRCLE ( 'NONE', #101, 8.249999999999992895 ) ;
#112 = CARTESIAN_POINT ( 'NONE',  ( 51.74999999999999289, 0.000000000000000000, 3.000000000000000000 ) ) ;
#113 = EDGE_CURVE ( 'NONE', #281, #115, #142, .T. ) ;
#114 = LINE ( 'NONE', #118, #470 ) ;
#115 = VERTEX_POINT ( 'NONE', #234 ) ;
#116 = AXIS2_PLACEMENT_3D ( 'NONE', #432, #463, #100 ) ;
#117 = CC_DESIGN_SECURITY_CLASSIFICATION ( #46, ( #99 ) ) ;
#118 = CARTESIAN_POINT ( 'NONE',  ( 101.7500000000000000, 0.000000000000000000, 3.000000000000000000 ) ) ;
#119 = VERTEX_POINT ( 'NONE', #112 ) ;
#120 = CARTESIAN_POINT ( 'NONE',  ( -78.75000000000000000, 3.980102097228913516E-16, 3.000000000000000000 ) ) ;
#121 = ORIENTED_EDGE ( 'NONE', *, *, #94, .F. ) ;
#122 = DIRECTION ( 'NONE',  ( -0.000000000000000000, -0.000000000000000000, -1.000000000000000000 ) ) ;
#123 = ORIENTED_EDGE ( 'NONE', *, *, #155, .T. ) ;
#124 = EDGE_CURVE ( 'NONE', #281, #258, #516, .T. ) ;
#125 = CIRCLE ( 'NONE', #89, 8.250000000000007105 ) ;
#126 = VERTEX_POINT ( 'NONE', #436 ) ;
#127 = EDGE_CURVE ( 'NONE', #362, #115, #266, .T. ) ;
#128 = ORIENTED_EDGE ( 'NONE', *, *, #320, .T. ) ;
#129 = AXIS2_PLACEMENT_3D ( 'NONE', #418, #459, #214 ) ;
#130 = ORIENTED_EDGE ( 'NONE', *, *, #15, .F. ) ;
#131 = CARTESIAN_POINT ( 'NONE',  ( -121.2500000000000000, 0.000000000000000000, 3.000000000000000000 ) ) ;
#132 = ORIENTED_EDGE ( 'NONE', *, *, #162, .T. ) ;
#133 = AXIS2_PLACEMENT_3D ( 'NONE', #348, #515, #49 ) ;
#134 = DIRECTION ( 'NONE',  ( 0.000000000000000000, 0.000000000000000000, -1.000000000000000000 ) ) ;
#135 = VERTEX_POINT ( 'NONE', #393 ) ;
#136 = PERSON_AND_ORGANIZATION ( #458, #196 ) ;
#137 = CLOSED_SHELL ( 'NONE', ( #186, #411, #357, #3, #249, #224, #427, #148, #472, #238, #446, #373, #199, #208 ) ) ;
#138 = CARTESIAN_POINT ( 'NONE',  ( -114.7499999999999858, 3.980102097228913516E-16, 0.000000000000000000 ) ) ;
#139 = ORIENTED_EDGE ( 'NONE', *, *, #510, .F. ) ;
#140 = PERSON_AND_ORGANIZATION_ROLE ( 'classification_officer' ) ;
#141 = DIRECTION ( 'NONE',  ( 1.000000000000000000, 0.000000000000000000, 0.000000000000000000 ) ) ;
#142 = LINE ( 'NONE', #68, #206 ) ;
#143 = EDGE_CURVE ( 'NONE', #40, #501, #341, .T. ) ;
#144 = CIRCLE ( 'NONE', #337, 3.250000000000002665 ) ;
#145 = CARTESIAN_POINT ( 'NONE',  ( -140.0000000000000000, -32.50000000000000000, 3.000000000000000000 ) ) ;
#146 = PLANE ( 'NONE',  #182 ) ;
#147 = CALENDAR_DATE ( 2026, 27, 7 ) ;
#148 = ADVANCED_FACE ( 'NONE', ( #59 ), #146, .F. ) ;
#149 = DIRECTION ( 'NONE',  ( 0.000000000000000000, 1.000000000000000000, 0.000000000000000000 ) ) ;
#150 = CARTESIAN_POINT ( 'NONE',  ( 110.0000000000000000, 0.000000000000000000, 3.000000000000000000 ) ) ;
#151 = SHAPE_DEFINITION_REPRESENTATION ( #43, #442 ) ;
#152 = DIRECTION ( 'NONE',  ( 0.000000000000000000, 0.000000000000000000, 1.000000000000000000 ) ) ;
#153 = APPROVAL_ROLE ( '' ) ;
#154 = AXIS2_PLACEMENT_3D ( 'NONE', #70, #231, #392 ) ;
#155 = EDGE_CURVE ( 'NONE', #258, #488, #474, .T. ) ;
#156 = DIRECTION ( 'NONE',  ( -0.000000000000000000, -0.000000000000000000, -1.000000000000000000 ) ) ;
#157 = APPROVAL_DATE_TIME ( #353, #484 ) ;
#158 = VECTOR ( 'NONE', #102, 1000.000000000000000 ) ;
#159 = CARTESIAN_POINT ( 'NONE',  ( -114.7499999999999858, 3.980102097228913516E-16, 3.000000000000000000 ) ) ;
#160 = ORIENTED_EDGE ( 'NONE', *, *, #171, .T. ) ;
#161 = CARTESIAN_POINT ( 'NONE',  ( -118.0000000000000000, 0.000000000000000000, 3.000000000000000000 ) ) ;
#162 = EDGE_CURVE ( 'NONE', #237, #359, #525, .T. ) ;
#163 = ORIENTED_EDGE ( 'NONE', *, *, #113, .F. ) ;
#164 = LOCAL_TIME ( 10, 53, 14.00000000000000000, #106 ) ;
#165 = CARTESIAN_POINT ( 'NONE',  ( -82.00000000000000000, 0.000000000000000000, 3.000000000000000000 ) ) ;
#166 = ORIENTED_EDGE ( 'NONE', *, *, #331, .F. ) ;
#167 = MANIFOLD_SOLID_BREP ( '凸台-拉伸1', #137 ) ;
#168 = APPLICATION_CONTEXT ( 'configuration controlled 3d designs of mechanical parts and assemblies' ) ;
#169 = CARTESIAN_POINT ( 'NONE',  ( -140.0000000000000000, 32.50000000000000000, 3.000000000000000000 ) ) ;
#170 = EDGE_LOOP ( 'NONE', ( #246, #211 ) ) ;
#171 = EDGE_CURVE ( 'NONE', #255, #126, #111, .T. ) ;
#172 = ORIENTED_EDGE ( 'NONE', *, *, #155, .F. ) ;
#173 = APPROVAL_PERSON_ORGANIZATION ( #194, #44, #153 ) ;
#174 = ORIENTED_EDGE ( 'NONE', *, *, #508, .T. ) ;
#175 = EDGE_LOOP ( 'NONE', ( #323, #497, #311, #405 ) ) ;
#176 = DIRECTION ( 'NONE',  ( 0.000000000000000000, 0.000000000000000000, -1.000000000000000000 ) ) ;
#177 = DIRECTION ( 'NONE',  ( 1.000000000000000000, 0.000000000000000000, 0.000000000000000000 ) ) ;
#178 = CARTESIAN_POINT ( 'NONE',  ( 140.0000000000000000, -32.50000000000000000, 3.000000000000000000 ) ) ;
#179 = ORIENTED_EDGE ( 'NONE', *, *, #316, .T. ) ;
#180 = CARTESIAN_POINT ( 'NONE',  ( -82.00000000000000000, 0.000000000000000000, 3.000000000000000000 ) ) ;
#181 = DIRECTION ( 'NONE',  ( 1.000000000000000000, 0.000000000000000000, 0.000000000000000000 ) ) ;
#182 = AXIS2_PLACEMENT_3D ( 'NONE', #226, #387, #514 ) ;
#183 = DIRECTION ( 'NONE',  ( 0.000000000000000000, 0.000000000000000000, 1.000000000000000000 ) ) ;
#184 = PRODUCT_RELATED_PRODUCT_CATEGORY ( 'detail', '', ( #84 ) ) ;
#185 = DIRECTION ( 'NONE',  ( 0.000000000000000000, 0.000000000000000000, 1.000000000000000000 ) ) ;
#186 = ADVANCED_FACE ( 'NONE', ( #354 ), #349, .F. ) ;
#187 = CARTESIAN_POINT ( 'NONE',  ( -118.0000000000000000, 0.000000000000000000, 3.000000000000000000 ) ) ;
#188 = LINE ( 'NONE', #22, #408 ) ;
#189 = DIRECTION ( 'NONE',  ( 1.000000000000000000, 0.000000000000000000, 0.000000000000000000 ) ) ;
#190 = DATE_AND_TIME ( #350, #445 ) ;
#191 = PERSON_AND_ORGANIZATION ( #458, #196 ) ;
#192 = DIRECTION ( 'NONE',  ( 1.000000000000000000, 0.000000000000000000, 0.000000000000000000 ) ) ;
#193 = EDGE_CURVE ( 'NONE', #126, #255, #409, .T. ) ;
#194 = PERSON_AND_ORGANIZATION ( #458, #196 ) ;
#195 = DIRECTION ( 'NONE',  ( -1.000000000000000000, -0.000000000000000000, -0.000000000000000000 ) ) ;
#196 = ORGANIZATION ( '未指定', '未指定', '' ) ;
#197 = FACE_BOUND ( 'NONE', #332, .T. ) ;
#198 = ORIENTED_EDGE ( 'NONE', *, *, #79, .F. ) ;
#199 = ADVANCED_FACE ( 'NONE', ( #523 ), #520, .F. ) ;
#200 = FACE_OUTER_BOUND ( 'NONE', #287, .T. ) ;
#201 = EDGE_LOOP ( 'NONE', ( #329, #330, #172, #368 ) ) ;
#202 = PLANE ( 'NONE',  #454 ) ;
#203 = EDGE_LOOP ( 'NONE', ( #88, #371, #198, #216 ) ) ;
#204 = DIRECTION ( 'NONE',  ( -1.000000000000000000, 0.000000000000000000, -0.000000000000000000 ) ) ;
#205 = ORIENTED_EDGE ( 'NONE', *, *, #221, .T. ) ;
#206 = VECTOR ( 'NONE', #352, 1000.000000000000000 ) ;
#207 = EDGE_LOOP ( 'NONE', ( #78, #163, #384, #11 ) ) ;
#208 = ADVANCED_FACE ( 'NONE', ( #481 ), #273, .F. ) ;
#209 = ORIENTED_EDGE ( 'NONE', *, *, #370, .T. ) ;
#210 = CC_DESIGN_APPROVAL ( #44, ( #99 ) ) ;
#211 = ORIENTED_EDGE ( 'NONE', *, *, #103, .T. ) ;
#212 = DIRECTION ( 'NONE',  ( 1.000000000000000000, 0.000000000000000000, 0.000000000000000000 ) ) ;
#213 = APPROVAL ( #53, '未指定' ) ;
#214 = DIRECTION ( 'NONE',  ( -1.000000000000000000, 0.000000000000000000, 0.000000000000000000 ) ) ;
#215 = LINE ( 'NONE', #473, #74 ) ;
#216 = ORIENTED_EDGE ( 'NONE', *, *, #73, .F. ) ;
#217 = APPROVAL_DATE_TIME ( #190, #44 ) ;
#218 = FACE_OUTER_BOUND ( 'NONE', #285, .T. ) ;
#219 = CARTESIAN_POINT ( 'NONE',  ( 140.0000000000000000, -32.50000000000000000, 0.000000000000000000 ) ) ;
#220 = CIRCLE ( 'NONE', #522, 8.249999999999992895 ) ;
#221 = EDGE_CURVE ( 'NONE', #135, #490, #531, .T. ) ;
#222 = PLANE ( 'NONE',  #286 ) ;
#223 = LINE ( 'NONE', #20, #158 ) ;
#224 = ADVANCED_FACE ( 'NONE', ( #248, #33, #82, #375, #524 ), #202, .T. ) ;
#225 = DIRECTION ( 'NONE',  ( 1.000000000000000000, 0.000000000000000000, 0.000000000000000000 ) ) ;
#226 = CARTESIAN_POINT ( 'NONE',  ( -140.0000000000000000, -32.50000000000000000, 3.000000000000000000 ) ) ;
#227 = COORDINATED_UNIVERSAL_TIME_OFFSET ( 8, 0, .AHEAD. ) ;
#228 = VERTEX_POINT ( 'NONE', #159 ) ;
#229 = DIRECTION ( 'NONE',  ( -0.000000000000000000, -0.000000000000000000, -1.000000000000000000 ) ) ;
#230 = CARTESIAN_POINT ( 'NONE',  ( -118.0000000000000000, 0.000000000000000000, 0.000000000000000000 ) ) ;
#231 = DIRECTION ( 'NONE',  ( 0.000000000000000000, 0.000000000000000000, 1.000000000000000000 ) ) ;
#232 = DIRECTION ( 'NONE',  ( 1.000000000000000000, 0.000000000000000000, 0.000000000000000000 ) ) ;
#233 = CIRCLE ( 'NONE', #491, 8.250000000000007105 ) ;
#234 = CARTESIAN_POINT ( 'NONE',  ( -140.0000000000000000, 32.50000000000000000, 0.000000000000000000 ) ) ;
#235 = APPLICATION_PROTOCOL_DEFINITION ( 'international standard', 'config_control_design', 1994, #108 ) ;
#236 = DIRECTION ( 'NONE',  ( -0.000000000000000000, -0.000000000000000000, -1.000000000000000000 ) ) ;
#237 = VERTEX_POINT ( 'NONE', #120 ) ;
#238 = ADVANCED_FACE ( 'NONE', ( #292 ), #282, .F. ) ;
#239 = VECTOR ( 'NONE', #75, 1000.000000000000000 ) ;
#240 = DIRECTION ( 'NONE',  ( 0.000000000000000000, 0.000000000000000000, -1.000000000000000000 ) ) ;
#241 = ORIENTED_EDGE ( 'NONE', *, *, #69, .F. ) ;
#242 = EDGE_CURVE ( 'NONE', #255, #490, #114, .T. ) ;
#243 = LINE ( 'NONE', #404, #64 ) ;
#244 = ORIENTED_EDGE ( 'NONE', *, *, #414, .T. ) ;
#245 = DIRECTION ( 'NONE',  ( 0.000000000000000000, 0.000000000000000000, 1.000000000000000000 ) ) ;
#246 = ORIENTED_EDGE ( 'NONE', *, *, #54, .T. ) ;
#247 = VECTOR ( 'NONE', #229, 1000.000000000000000 ) ;
#248 = FACE_BOUND ( 'NONE', #170, .T. ) ;
#249 = ADVANCED_FACE ( 'NONE', ( #200, #197, #447, #486, #483 ), #527, .F. ) ;
#250 = ORIENTED_EDGE ( 'NONE', *, *, #30, .T. ) ;
#251 = ORIENTED_EDGE ( 'NONE', *, *, #193, .T. ) ;
#252 = ORIENTED_EDGE ( 'NONE', *, *, #499, .T. ) ;
#253 = CC_DESIGN_DATE_AND_TIME_ASSIGNMENT ( #394, #27, ( #468 ) ) ;
#254 = VECTOR ( 'NONE', #301, 1000.000000000000000 ) ;
#255 = VERTEX_POINT ( 'NONE', #35 ) ;
#256 = DIRECTION ( 'NONE',  ( 0.000000000000000000, 0.000000000000000000, 1.000000000000000000 ) ) ;
#257 = VECTOR ( 'NONE', #509, 1000.000000000000000 ) ;
#258 = VERTEX_POINT ( 'NONE', #90 ) ;
#259 = FACE_OUTER_BOUND ( 'NONE', #485, .T. ) ;
#260 = DIRECTION ( 'NONE',  ( -0.000000000000000000, -0.000000000000000000, -1.000000000000000000 ) ) ;
#261 = DIRECTION ( 'NONE',  ( 0.000000000000000000, 0.000000000000000000, 1.000000000000000000 ) ) ;
#262 = DIRECTION ( 'NONE',  ( 0.000000000000000000, 0.000000000000000000, 1.000000000000000000 ) ) ;
#263 = CARTESIAN_POINT ( 'NONE',  ( -82.00000000000000000, 0.000000000000000000, 0.000000000000000000 ) ) ;
#264 = CARTESIAN_POINT ( 'NONE',  ( -78.75000000000000000, 3.980102097228913516E-16, 0.000000000000000000 ) ) ;
#265 =( LENGTH_UNIT ( ) NAMED_UNIT ( * ) SI_UNIT ( .MILLI., .METRE. ) );
#266 = LINE ( 'NONE', #65, #41 ) ;
#267 = PERSON_AND_ORGANIZATION ( #458, #196 ) ;
#268 = LINE ( 'NONE', #110, #92 ) ;
#269 = DATE_AND_TIME ( #147, #389 ) ;
#270 = AXIS2_PLACEMENT_3D ( 'NONE', #271, #156, #317 ) ;
#271 = CARTESIAN_POINT ( 'NONE',  ( 60.00000000000000000, 0.000000000000000000, 3.000000000000000000 ) ) ;
#272 = VECTOR ( 'NONE', #346, 1000.000000000000000 ) ;
#273 = CYLINDRICAL_SURFACE ( 'NONE', #38, 8.249999999999992895 ) ;
#274 = CC_DESIGN_PERSON_AND_ORGANIZATION_ASSIGNMENT ( #423, #140, ( #46 ) ) ;
#275 = ORIENTED_EDGE ( 'NONE', *, *, #414, .F. ) ;
#276 = CARTESIAN_POINT ( 'NONE',  ( 0.000000000000000000, 0.000000000000000000, 0.000000000000000000 ) ) ;
#277 = ORIENTED_EDGE ( 'NONE', *, *, #431, .F. ) ;
#278 = EDGE_CURVE ( 'NONE', #326, #228, #144, .T. ) ;
#279 = LOCAL_TIME ( 10, 53, 14.00000000000000000, #307 ) ;
#280 = CARTESIAN_POINT ( 'NONE',  ( -82.00000000000000000, 0.000000000000000000, 0.000000000000000000 ) ) ;
#281 = VERTEX_POINT ( 'NONE', #169 ) ;
#282 = PLANE ( 'NONE',  #400 ) ;
#283 = ORIENTED_EDGE ( 'NONE', *, *, #528, .T. ) ;
#284 = FACE_OUTER_BOUND ( 'NONE', #410, .T. ) ;
#285 = EDGE_LOOP ( 'NONE', ( #379, #39, #374, #34 ) ) ;
#286 = AXIS2_PLACEMENT_3D ( 'NONE', #145, #295, #134 ) ;
#287 = EDGE_LOOP ( 'NONE', ( #504, #123, #448, #252 ) ) ;
#288 = AXIS2_PLACEMENT_3D ( 'NONE', #26, #28, #476 ) ;
#289 = AXIS2_PLACEMENT_3D ( 'NONE', #313, #433, #390 ) ;
#290 = EDGE_LOOP ( 'NONE', ( #407, #130, #415, #72 ) ) ;
#291 = EDGE_LOOP ( 'NONE', ( #335, #251, #7, #36 ) ) ;
#292 = FACE_OUTER_BOUND ( 'NONE', #207, .T. ) ;
#293 = AXIS2_PLACEMENT_3D ( 'NONE', #280, #245, #77 ) ;
#294 = CARTESIAN_POINT ( 'NONE',  ( -121.2500000000000000, 0.000000000000000000, 0.000000000000000000 ) ) ;
#295 = DIRECTION ( 'NONE',  ( 1.000000000000000000, 0.000000000000000000, 0.000000000000000000 ) ) ;
#296 = EDGE_CURVE ( 'NONE', #115, #298, #358, .T. ) ;
#297 = AXIS2_PLACEMENT_3D ( 'NONE', #187, #152, #437 ) ;
#298 = VERTEX_POINT ( 'NONE', #334 ) ;
#299 = CARTESIAN_POINT ( 'NONE',  ( -140.0000000000000000, -32.50000000000000000, 3.000000000000000000 ) ) ;
#300 = ORIENTED_EDGE ( 'NONE', *, *, #242, .F. ) ;
#301 = DIRECTION ( 'NONE',  ( -1.000000000000000000, -0.000000000000000000, -0.000000000000000000 ) ) ;
#302 = DIRECTION ( 'NONE',  ( 0.000000000000000000, 0.000000000000000000, 1.000000000000000000 ) ) ;
#303 = CIRCLE ( 'NONE', #293, 3.250000000000002665 ) ;
#304 = CARTESIAN_POINT ( 'NONE',  ( -140.0000000000000000, 32.50000000000000000, 3.000000000000000000 ) ) ;
#305 = UNCERTAINTY_MEASURE_WITH_UNIT (LENGTH_MEASURE( 1.000000000000000082E-05 ), #265, 'distance_accuracy_value', 'NONE');
#306 = DIRECTION ( 'NONE',  ( -0.000000000000000000, -0.000000000000000000, -1.000000000000000000 ) ) ;
#307 = COORDINATED_UNIVERSAL_TIME_OFFSET ( 8, 0, .AHEAD. ) ;
#308 = CC_DESIGN_DATE_AND_TIME_ASSIGNMENT ( #269, #19, ( #46 ) ) ;
#309 = CYLINDRICAL_SURFACE ( 'NONE', #116, 8.250000000000007105 ) ;
#310 = DIRECTION ( 'NONE',  ( 0.000000000000000000, 0.000000000000000000, 1.000000000000000000 ) ) ;
#311 = ORIENTED_EDGE ( 'NONE', *, *, #320, .F. ) ;
#312 = CALENDAR_DATE ( 2026, 27, 7 ) ;
#313 = CARTESIAN_POINT ( 'NONE',  ( -82.00000000000000000, 0.000000000000000000, 3.000000000000000000 ) ) ;
#314 = CIRCLE ( 'NONE', #355, 8.250000000000007105 ) ;
#315 = COORDINATED_UNIVERSAL_TIME_OFFSET ( 8, 0, .AHEAD. ) ;
#316 = EDGE_CURVE ( 'NONE', #359, #85, #500, .T. ) ;
#317 = DIRECTION ( 'NONE',  ( -1.000000000000000000, 0.000000000000000000, 0.000000000000000000 ) ) ;
#318 = PERSON_AND_ORGANIZATION ( #458, #196 ) ;
#319 = DIRECTION ( 'NONE',  ( 0.000000000000000000, -1.000000000000000000, 0.000000000000000000 ) ) ;
#320 = EDGE_CURVE ( 'NONE', #85, #83, #303, .T. ) ;
#321 = ORIENTED_EDGE ( 'NONE', *, *, #103, .F. ) ;
#322 = DIRECTION ( 'NONE',  ( -0.000000000000000000, -1.000000000000000000, -0.000000000000000000 ) ) ;
#323 = ORIENTED_EDGE ( 'NONE', *, *, #431, .T. ) ;
#324 = VECTOR ( 'NONE', #58, 1000.000000000000000 ) ;
#325 = DIRECTION ( 'NONE',  ( -0.000000000000000000, -0.000000000000000000, -1.000000000000000000 ) ) ;
#326 = VERTEX_POINT ( 'NONE', #131 ) ;
#327 = VECTOR ( 'NONE', #260, 1000.000000000000000 ) ;
#328 = CARTESIAN_POINT ( 'NONE',  ( 118.2500000000000000, 1.010333609296566156E-15, 3.000000000000000000 ) ) ;
#329 = ORIENTED_EDGE ( 'NONE', *, *, #73, .T. ) ;
#330 = ORIENTED_EDGE ( 'NONE', *, *, #62, .F. ) ;
#331 = EDGE_CURVE ( 'NONE', #119, #413, #243, .T. ) ;
#332 = EDGE_LOOP ( 'NONE', ( #45, #498 ) ) ;
#333 = FACE_OUTER_BOUND ( 'NONE', #98, .T. ) ;
#334 = CARTESIAN_POINT ( 'NONE',  ( -140.0000000000000000, -32.50000000000000000, 0.000000000000000000 ) ) ;
#335 = ORIENTED_EDGE ( 'NONE', *, *, #370, .F. ) ;
#336 = DIRECTION ( 'NONE',  ( -0.000000000000000000, -0.000000000000000000, -1.000000000000000000 ) ) ;
#337 = AXIS2_PLACEMENT_3D ( 'NONE', #161, #398, #212 ) ;
#338 = VERTEX_POINT ( 'NONE', #533 ) ;
#339 = CC_DESIGN_PERSON_AND_ORGANIZATION_ASSIGNMENT ( #430, #391, ( #99 ) ) ;
#340 = DIRECTION ( 'NONE',  ( 0.000000000000000000, 0.000000000000000000, 1.000000000000000000 ) ) ;
#341 = CIRCLE ( 'NONE', #412, 3.250000000000002665 ) ;
#342 = DIRECTION ( 'NONE',  ( -0.000000000000000000, -0.000000000000000000, -1.000000000000000000 ) ) ;
#343 = LINE ( 'NONE', #429, #2 ) ;
#344 = CARTESIAN_POINT ( 'NONE',  ( 110.0000000000000000, 0.000000000000000000, 0.000000000000000000 ) ) ;
#345 = CC_DESIGN_APPROVAL ( #484, ( #468 ) ) ;
#346 = DIRECTION ( 'NONE',  ( -0.000000000000000000, -1.000000000000000000, -0.000000000000000000 ) ) ;
#347 = CC_DESIGN_APPROVAL ( #213, ( #46 ) ) ;
#348 = CARTESIAN_POINT ( 'NONE',  ( -82.00000000000000000, 0.000000000000000000, 3.000000000000000000 ) ) ;
#349 = CYLINDRICAL_SURFACE ( 'NONE', #288, 8.249999999999992895 ) ;
#350 = CALENDAR_DATE ( 2026, 27, 7 ) ;
#351 = PERSON_AND_ORGANIZATION_ROLE ( 'design_owner' ) ;
#352 = DIRECTION ( 'NONE',  ( -0.000000000000000000, -0.000000000000000000, -1.000000000000000000 ) ) ;
#353 = DATE_AND_TIME ( #312, #31 ) ;
#354 = FACE_OUTER_BOUND ( 'NONE', #402, .T. ) ;
#355 = AXIS2_PLACEMENT_3D ( 'NONE', #97, #424, #141 ) ;
#356 = MECHANICAL_CONTEXT ( 'NONE', #108, 'mechanical' ) ;
#357 = ADVANCED_FACE ( 'NONE', ( #492 ), #530, .F. ) ;
#358 = LINE ( 'NONE', #8, #487 ) ;
#359 = VERTEX_POINT ( 'NONE', #451 ) ;
#360 = CIRCLE ( 'NONE', #464, 3.250000000000002665 ) ;
#361 = DIRECTION ( 'NONE',  ( -1.000000000000000000, 0.000000000000000000, -0.000000000000000000 ) ) ;
#362 = VERTEX_POINT ( 'NONE', #80 ) ;
#363 = CARTESIAN_POINT ( 'NONE',  ( -85.25000000000000000, 0.000000000000000000, 3.000000000000000000 ) ) ;
#364 = EDGE_LOOP ( 'NONE', ( #493, #399 ) ) ;
#365 = VECTOR ( 'NONE', #122, 1000.000000000000000 ) ;
#366 = AXIS2_PLACEMENT_3D ( 'NONE', #150, #310, #192 ) ;
#367 = DIRECTION ( 'NONE',  ( -0.000000000000000000, -0.000000000000000000, -1.000000000000000000 ) ) ;
#368 = ORIENTED_EDGE ( 'NONE', *, *, #494, .T. ) ;
#369 = ORIENTED_EDGE ( 'NONE', *, *, #455, .F. ) ;
#370 = EDGE_CURVE ( 'NONE', #126, #135, #406, .T. ) ;
#371 = ORIENTED_EDGE ( 'NONE', *, *, #127, .F. ) ;
#372 = AXIS2_PLACEMENT_3D ( 'NONE', #104, #93, #469 ) ;
#373 = ADVANCED_FACE ( 'NONE', ( #284 ), #383, .F. ) ;
#374 = ORIENTED_EDGE ( 'NONE', *, *, #124, .F. ) ;
#375 = FACE_BOUND ( 'NONE', #456, .T. ) ;
#376 = DESIGN_CONTEXT ( 'detailed design', #168, 'design' ) ;
#377 = LINE ( 'NONE', #422, #327 ) ;
#378 = DIRECTION ( 'NONE',  ( 1.000000000000000000, 0.000000000000000000, 0.000000000000000000 ) ) ;
#379 = ORIENTED_EDGE ( 'NONE', *, *, #296, .T. ) ;
#380 = LINE ( 'NONE', #419, #247 ) ;
#381 =( GEOMETRIC_REPRESENTATION_CONTEXT ( 3 ) GLOBAL_UNCERTAINTY_ASSIGNED_CONTEXT ( ( #305 ) ) GLOBAL_UNIT_ASSIGNED_CONTEXT ( ( #265, #519, #434 ) ) REPRESENTATION_CONTEXT ( 'NONE', 'WORKASPACE' ) );
#382 = EDGE_LOOP ( 'NONE', ( #275, #1, #532, #321 ) ) ;
#383 = CYLINDRICAL_SURFACE ( 'NONE', #133, 3.250000000000002665 ) ;
#384 = ORIENTED_EDGE ( 'NONE', *, *, #499, .F. ) ;
#385 = CARTESIAN_POINT ( 'NONE',  ( 140.0000000000000000, 32.50000000000000000, 3.000000000000000000 ) ) ;
#386 = EDGE_CURVE ( 'NONE', #488, #526, #188, .T. ) ;
#387 = DIRECTION ( 'NONE',  ( 0.000000000000000000, 1.000000000000000000, 0.000000000000000000 ) ) ;
#388 = DIRECTION ( 'NONE',  ( 1.000000000000000000, 0.000000000000000000, 0.000000000000000000 ) ) ;
#389 = LOCAL_TIME ( 10, 53, 14.00000000000000000, #227 ) ;
#390 = DIRECTION ( 'NONE',  ( 1.000000000000000000, 0.000000000000000000, 0.000000000000000000 ) ) ;
#391 = PERSON_AND_ORGANIZATION_ROLE ( 'creator' ) ;
#392 = DIRECTION ( 'NONE',  ( 1.000000000000000000, 0.000000000000000000, 0.000000000000000000 ) ) ;
#393 = CARTESIAN_POINT ( 'NONE',  ( 118.2500000000000000, 1.010333609296566550E-15, 0.000000000000000000 ) ) ;
#394 = DATE_AND_TIME ( #482, #164 ) ;
#395 = CARTESIAN_POINT ( 'NONE',  ( -140.0000000000000000, -32.50000000000000000, 3.000000000000000000 ) ) ;
#396 = EDGE_CURVE ( 'NONE', #490, #135, #220, .T. ) ;
#397 = APPROVAL_STATUS ( 'not_yet_approved' ) ;
#398 = DIRECTION ( 'NONE',  ( 0.000000000000000000, 0.000000000000000000, 1.000000000000000000 ) ) ;
#399 = ORIENTED_EDGE ( 'NONE', *, *, #193, .F. ) ;
#400 = AXIS2_PLACEMENT_3D ( 'NONE', #461, #319, #417 ) ;
#401 = CARTESIAN_POINT ( 'NONE',  ( 110.0000000000000000, 0.000000000000000000, 0.000000000000000000 ) ) ;
#402 = EDGE_LOOP ( 'NONE', ( #160, #209, #465, #300 ) ) ;
#403 = CC_DESIGN_PERSON_AND_ORGANIZATION_ASSIGNMENT ( #191, #351, ( #84 ) ) ;
#404 = CARTESIAN_POINT ( 'NONE',  ( 51.74999999999999289, 0.000000000000000000, 3.000000000000000000 ) ) ;
#405 = ORIENTED_EDGE ( 'NONE', *, *, #316, .F. ) ;
#406 = LINE ( 'NONE', #328, #365 ) ;
#407 = ORIENTED_EDGE ( 'NONE', *, *, #79, .T. ) ;
#408 = VECTOR ( 'NONE', #149, 1000.000000000000000 ) ;
#409 = CIRCLE ( 'NONE', #366, 8.249999999999992895 ) ;
#410 = EDGE_LOOP ( 'NONE', ( #369, #132, #179, #420 ) ) ;
#411 = ADVANCED_FACE ( 'NONE', ( #51 ), #309, .F. ) ;
#412 = AXIS2_PLACEMENT_3D ( 'NONE', #230, #302, #471 ) ;
#413 = VERTEX_POINT ( 'NONE', #503 ) ;
#414 = EDGE_CURVE ( 'NONE', #338, #81, #215, .T. ) ;
#415 = ORIENTED_EDGE ( 'NONE', *, *, #386, .F. ) ;
#416 = AXIS2_PLACEMENT_3D ( 'NONE', #47, #176, #361 ) ;
#417 = DIRECTION ( 'NONE',  ( 0.000000000000000000, -0.000000000000000000, -1.000000000000000000 ) ) ;
#418 = CARTESIAN_POINT ( 'NONE',  ( -118.0000000000000000, 0.000000000000000000, 3.000000000000000000 ) ) ;
#419 = CARTESIAN_POINT ( 'NONE',  ( -78.75000000000000000, 3.980102097228907599E-16, 3.000000000000000000 ) ) ;
#420 = ORIENTED_EDGE ( 'NONE', *, *, #508, .F. ) ;
#421 = DIRECTION ( 'NONE',  ( 1.000000000000000000, 0.000000000000000000, 0.000000000000000000 ) ) ;
#422 = CARTESIAN_POINT ( 'NONE',  ( 140.0000000000000000, 32.50000000000000000, 3.000000000000000000 ) ) ;
#423 = PERSON_AND_ORGANIZATION ( #458, #196 ) ;
#424 = DIRECTION ( 'NONE',  ( 0.000000000000000000, 0.000000000000000000, 1.000000000000000000 ) ) ;
#425 = LINE ( 'NONE', #50, #17 ) ;
#426 = SECURITY_CLASSIFICATION_LEVEL ( 'unclassified' ) ;
#427 = ADVANCED_FACE ( 'NONE', ( #218 ), #222, .F. ) ;
#428 = DIRECTION ( 'NONE',  ( -1.000000000000000000, 0.000000000000000000, 0.000000000000000000 ) ) ;
#429 = CARTESIAN_POINT ( 'NONE',  ( -121.2500000000000000, 0.000000000000000000, 3.000000000000000000 ) ) ;
#430 = PERSON_AND_ORGANIZATION ( #458, #196 ) ;
#431 = EDGE_CURVE ( 'NONE', #359, #237, #55, .T. ) ;
#432 = CARTESIAN_POINT ( 'NONE',  ( 60.00000000000000000, 0.000000000000000000, 3.000000000000000000 ) ) ;
#433 = DIRECTION ( 'NONE',  ( 0.000000000000000000, 0.000000000000000000, 1.000000000000000000 ) ) ;
#434 =( NAMED_UNIT ( * ) SI_UNIT ( $, .STERADIAN. ) SOLID_ANGLE_UNIT ( ) );
#435 = AXIS2_PLACEMENT_3D ( 'NONE', #180, #512, #378 ) ;
#436 = CARTESIAN_POINT ( 'NONE',  ( 118.2500000000000000, 1.010333609296566550E-15, 3.000000000000000000 ) ) ;
#437 = DIRECTION ( 'NONE',  ( 1.000000000000000000, 0.000000000000000000, 0.000000000000000000 ) ) ;
#438 = CC_DESIGN_PERSON_AND_ORGANIZATION_ASSIGNMENT ( #25, #60, ( #99 ) ) ;
#439 = AXIS2_PLACEMENT_3D ( 'NONE', #63, #185, #511 ) ;
#440 = DIRECTION ( 'NONE',  ( 0.000000000000000000, 0.000000000000000000, 1.000000000000000000 ) ) ;
#441 = ORIENTED_EDGE ( 'NONE', *, *, #162, .F. ) ;
#442 = ADVANCED_BREP_SHAPE_REPRESENTATION ( 'FN-SEC-002_lower-wall-coupon-280x65x3_4PORT-NOMINAL_R0.8', ( #167, #154 ), #381 ) ;
#443 = DIRECTION ( 'NONE',  ( -1.000000000000000000, 0.000000000000000000, 0.000000000000000000 ) ) ;
#444 = ORIENTED_EDGE ( 'NONE', *, *, #87, .T. ) ;
#445 = LOCAL_TIME ( 10, 53, 14.00000000000000000, #480 ) ;
#446 = ADVANCED_FACE ( 'NONE', ( #259 ), #10, .F. ) ;
#447 = FACE_BOUND ( 'NONE', #529, .T. ) ;
#448 = ORIENTED_EDGE ( 'NONE', *, *, #386, .T. ) ;
#449 = DIRECTION ( 'NONE',  ( 0.000000000000000000, 0.000000000000000000, 1.000000000000000000 ) ) ;
#450 = EDGE_LOOP ( 'NONE', ( #495, #139 ) ) ;
#451 = CARTESIAN_POINT ( 'NONE',  ( -85.25000000000000000, 0.000000000000000000, 3.000000000000000000 ) ) ;
#452 = CC_DESIGN_PERSON_AND_ORGANIZATION_ASSIGNMENT ( #318, #66, ( #468 ) ) ;
#453 = ORIENTED_EDGE ( 'NONE', *, *, #396, .T. ) ;
#454 = AXIS2_PLACEMENT_3D ( 'NONE', #276, #240, #204 ) ;
#455 = EDGE_CURVE ( 'NONE', #237, #83, #380, .T. ) ;
#456 = EDGE_LOOP ( 'NONE', ( #128, #174 ) ) ;
#457 = VECTOR ( 'NONE', #232, 1000.000000000000000 ) ;
#458 = PERSON ( '未指定', '未指定', '未指定', ('未指定'), ('未指定'), ('未指定') ) ;
#459 = DIRECTION ( 'NONE',  ( -0.000000000000000000, -0.000000000000000000, -1.000000000000000000 ) ) ;
#460 = ORIENTED_EDGE ( 'NONE', *, *, #54, .F. ) ;
#461 = CARTESIAN_POINT ( 'NONE',  ( -140.0000000000000000, 32.50000000000000000, 3.000000000000000000 ) ) ;
#462 = LINE ( 'NONE', #91, #257 ) ;
#463 = DIRECTION ( 'NONE',  ( -0.000000000000000000, -0.000000000000000000, -1.000000000000000000 ) ) ;
#464 = AXIS2_PLACEMENT_3D ( 'NONE', #9, #262, #177 ) ;
#465 = ORIENTED_EDGE ( 'NONE', *, *, #396, .F. ) ;
#466 = LINE ( 'NONE', #304, #254 ) ;
#467 = EDGE_LOOP ( 'NONE', ( #453, #205 ) ) ;
#468 = PRODUCT_DEFINITION ( '未知', '', #99, #376 ) ;
#469 = DIRECTION ( 'NONE',  ( -1.000000000000000000, 0.000000000000000000, 0.000000000000000000 ) ) ;
#470 = VECTOR ( 'NONE', #37, 1000.000000000000000 ) ;
#471 = DIRECTION ( 'NONE',  ( 1.000000000000000000, 0.000000000000000000, 0.000000000000000000 ) ) ;
#472 = ADVANCED_FACE ( 'NONE', ( #475 ), #13, .F. ) ;
#473 = CARTESIAN_POINT ( 'NONE',  ( 68.25000000000000000, 1.010333609296567536E-15, 3.000000000000000000 ) ) ;
#474 = LINE ( 'NONE', #479, #457 ) ;
#475 = FACE_OUTER_BOUND ( 'NONE', #290, .T. ) ;
#476 = DIRECTION ( 'NONE',  ( -1.000000000000000000, 0.000000000000000000, 0.000000000000000000 ) ) ;
#477 = ORIENTED_EDGE ( 'NONE', *, *, #69, .T. ) ;
#478 = AXIS2_PLACEMENT_3D ( 'NONE', #16, #428, #340 ) ;
#479 = CARTESIAN_POINT ( 'NONE',  ( -140.0000000000000000, -32.50000000000000000, 3.000000000000000000 ) ) ;
#480 = COORDINATED_UNIVERSAL_TIME_OFFSET ( 8, 0, .AHEAD. ) ;
#481 = FACE_OUTER_BOUND ( 'NONE', #291, .T. ) ;
#482 = CALENDAR_DATE ( 2026, 27, 7 ) ;
#483 = FACE_BOUND ( 'NONE', #364, .T. ) ;
#484 = APPROVAL ( #397, '未指定' ) ;
#485 = EDGE_LOOP ( 'NONE', ( #241, #444, #48, #76 ) ) ;
#486 = FACE_BOUND ( 'NONE', #450, .T. ) ;
#487 = VECTOR ( 'NONE', #322, 1000.000000000000000 ) ;
#488 = VERTEX_POINT ( 'NONE', #178 ) ;
#489 = DIRECTION ( 'NONE',  ( -1.000000000000000000, 0.000000000000000000, 0.000000000000000000 ) ) ;
#490 = VERTEX_POINT ( 'NONE', #506 ) ;
#491 = AXIS2_PLACEMENT_3D ( 'NONE', #86, #14, #181 ) ;
#492 = FACE_OUTER_BOUND ( 'NONE', #175, .T. ) ;
#493 = ORIENTED_EDGE ( 'NONE', *, *, #171, .F. ) ;
#494 = EDGE_CURVE ( 'NONE', #258, #298, #61, .T. ) ;
#495 = ORIENTED_EDGE ( 'NONE', *, *, #528, .F. ) ;
#496 = APPROVAL_PERSON_ORGANIZATION ( #267, #484, #29 ) ;
#497 = ORIENTED_EDGE ( 'NONE', *, *, #455, .T. ) ;
#498 = ORIENTED_EDGE ( 'NONE', *, *, #87, .F. ) ;
#499 = EDGE_CURVE ( 'NONE', #526, #281, #466, .T. ) ;
#500 = LINE ( 'NONE', #363, #239 ) ;
#501 = VERTEX_POINT ( 'NONE', #138 ) ;
#502 = AXIS2_PLACEMENT_3D ( 'NONE', #263, #261, #225 ) ;
#503 = CARTESIAN_POINT ( 'NONE',  ( 51.74999999999999289, 0.000000000000000000, 0.000000000000000000 ) ) ;
#504 = ORIENTED_EDGE ( 'NONE', *, *, #124, .T. ) ;
#505 = CALENDAR_DATE ( 2026, 27, 7 ) ;
#506 = CARTESIAN_POINT ( 'NONE',  ( 101.7500000000000000, 0.000000000000000000, 0.000000000000000000 ) ) ;
#507 = CIRCLE ( 'NONE', #297, 3.250000000000002665 ) ;
#508 = EDGE_CURVE ( 'NONE', #83, #85, #23, .T. ) ;
#509 = DIRECTION ( 'NONE',  ( -0.000000000000000000, -0.000000000000000000, -1.000000000000000000 ) ) ;
#510 = EDGE_CURVE ( 'NONE', #338, #119, #314, .T. ) ;
#511 = DIRECTION ( 'NONE',  ( 1.000000000000000000, 0.000000000000000000, 0.000000000000000000 ) ) ;
#512 = DIRECTION ( 'NONE',  ( 0.000000000000000000, 0.000000000000000000, 1.000000000000000000 ) ) ;
#513 = APPROVAL_PERSON_ORGANIZATION ( #136, #213, #96 ) ;
#514 = DIRECTION ( 'NONE',  ( 0.000000000000000000, -0.000000000000000000, 1.000000000000000000 ) ) ;
#515 = DIRECTION ( 'NONE',  ( -0.000000000000000000, -0.000000000000000000, -1.000000000000000000 ) ) ;
#516 = LINE ( 'NONE', #395, #272 ) ;
#517 = APPROVAL_DATE_TIME ( #21, #213 ) ;
#518 = ORIENTED_EDGE ( 'NONE', *, *, #278, .T. ) ;
#519 =( NAMED_UNIT ( * ) PLANE_ANGLE_UNIT ( ) SI_UNIT ( $, .RADIAN. ) );
#520 = CYLINDRICAL_SURFACE ( 'NONE', #270, 8.250000000000007105 ) ;
#521 = APPROVAL_STATUS ( 'not_yet_approved' ) ;
#522 = AXIS2_PLACEMENT_3D ( 'NONE', #344, #256, #421 ) ;
#523 = FACE_OUTER_BOUND ( 'NONE', #382, .T. ) ;
#524 = FACE_BOUND ( 'NONE', #467, .T. ) ;
#525 = CIRCLE ( 'NONE', #289, 3.250000000000002665 ) ;
#526 = VERTEX_POINT ( 'NONE', #385 ) ;
#527 = PLANE ( 'NONE',  #416 ) ;
#528 = EDGE_CURVE ( 'NONE', #119, #338, #125, .T. ) ;
#529 = EDGE_LOOP ( 'NONE', ( #277, #441 ) ) ;
#530 = CYLINDRICAL_SURFACE ( 'NONE', #6, 3.250000000000002665 ) ;
#531 = CIRCLE ( 'NONE', #12, 8.249999999999992895 ) ;
#532 = ORIENTED_EDGE ( 'NONE', *, *, #331, .T. ) ;
#533 = CARTESIAN_POINT ( 'NONE',  ( 68.25000000000000000, 1.010333609296567930E-15, 3.000000000000000000 ) ) ;
ENDSEC;
END-ISO-10303-21;
