ISO-10303-21;
HEADER;
FILE_DESCRIPTION (( 'STEP AP203' ),
    '1' );
FILE_NAME ('FN-SEC-001_enclosure-rear-wall-coupon-300x80x4_2HOLE-NOMINAL_R0.8.STEP',
    '2026-07-27T02:53:00',
    ( '' ),
    ( '' ),
    'SwSTEP 2.0',
    'SolidWorks 2022',
    '' );
FILE_SCHEMA (( 'CONFIG_CONTROL_DESIGN' ));
ENDSEC;

DATA;
#1 = PLANE ( 'NONE',  #53 ) ;
#2 = CIRCLE ( 'NONE', #293, 3.250000000000002665 ) ;
#3 = CARTESIAN_POINT ( 'NONE',  ( -125.0000000000000000, 0.000000000000000000, 4.000000000000000000 ) ) ;
#4 = ORIENTED_EDGE ( 'NONE', *, *, #226, .F. ) ;
#5 = DIRECTION ( 'NONE',  ( -0.000000000000000000, -0.000000000000000000, -1.000000000000000000 ) ) ;
#6 = CARTESIAN_POINT ( 'NONE',  ( 125.0000000000000000, 0.000000000000000000, 0.000000000000000000 ) ) ;
#7 = ORIENTED_EDGE ( 'NONE', *, *, #58, .T. ) ;
#8 = ADVANCED_FACE ( 'NONE', ( #67 ), #37, .F. ) ;
#9 = CARTESIAN_POINT ( 'NONE',  ( -150.0000000000000000, -40.00000000000000000, 4.000000000000000000 ) ) ;
#10 = CALENDAR_DATE ( 2026, 27, 7 ) ;
#11 = DIRECTION ( 'NONE',  ( -0.000000000000000000, -0.000000000000000000, -1.000000000000000000 ) ) ;
#12 = CARTESIAN_POINT ( 'NONE',  ( 150.0000000000000000, -40.00000000000000000, 4.000000000000000000 ) ) ;
#13 = PERSON_AND_ORGANIZATION ( #77, #105 ) ;
#14 = LOCAL_TIME ( 10, 53, 0.000000000000000000, #287 ) ;
#15 = DIRECTION ( 'NONE',  ( 1.000000000000000000, 0.000000000000000000, 0.000000000000000000 ) ) ;
#16 = CARTESIAN_POINT ( 'NONE',  ( -125.0000000000000000, 0.000000000000000000, 0.000000000000000000 ) ) ;
#17 = DATE_AND_TIME ( #341, #14 ) ;
#18 = EDGE_CURVE ( 'NONE', #219, #276, #158, .T. ) ;
#19 = PLANE ( 'NONE',  #331 ) ;
#20 = PERSON_AND_ORGANIZATION ( #77, #105 ) ;
#21 = CARTESIAN_POINT ( 'NONE',  ( -121.7500000000000000, 3.980102097228907599E-16, 4.000000000000000000 ) ) ;
#22 = PERSON_AND_ORGANIZATION ( #77, #105 ) ;
#23 = EDGE_LOOP ( 'NONE', ( #62, #238, #148, #91 ) ) ;
#24 = ADVANCED_FACE ( 'NONE', ( #250, #189, #155 ), #1, .T. ) ;
#25 = FACE_OUTER_BOUND ( 'NONE', #23, .T. ) ;
#26 = ORIENTED_EDGE ( 'NONE', *, *, #379, .T. ) ;
#27 = DIRECTION ( 'NONE',  ( -0.000000000000000000, -0.000000000000000000, -1.000000000000000000 ) ) ;
#28 = ORIENTED_EDGE ( 'NONE', *, *, #121, .T. ) ;
#29 = CIRCLE ( 'NONE', #248, 3.250000000000002665 ) ;
#30 = APPROVAL ( #339, '未指定' ) ;
#31 = EDGE_CURVE ( 'NONE', #335, #145, #118, .T. ) ;
#32 = VECTOR ( 'NONE', #5, 1000.000000000000000 ) ;
#33 = AXIS2_PLACEMENT_3D ( 'NONE', #200, #110, #117 ) ;
#34 = EDGE_LOOP ( 'NONE', ( #152, #345 ) ) ;
#35 = VERTEX_POINT ( 'NONE', #132 ) ;
#36 = CC_DESIGN_APPROVAL ( #294, ( #301 ) ) ;
#37 = PLANE ( 'NONE',  #90 ) ;
#38 = DIRECTION ( 'NONE',  ( -1.000000000000000000, 0.000000000000000000, -0.000000000000000000 ) ) ;
#39 = EDGE_LOOP ( 'NONE', ( #274, #353, #86, #28 ) ) ;
#40 = DIRECTION ( 'NONE',  ( -1.000000000000000000, 0.000000000000000000, 0.000000000000000000 ) ) ;
#41 = CC_DESIGN_PERSON_AND_ORGANIZATION_ASSIGNMENT ( #51, #115, ( #49 ) ) ;
#42 = DIRECTION ( 'NONE',  ( 1.000000000000000000, 0.000000000000000000, 0.000000000000000000 ) ) ;
#43 = DIRECTION ( 'NONE',  ( 1.000000000000000000, 0.000000000000000000, 0.000000000000000000 ) ) ;
#44 = CARTESIAN_POINT ( 'NONE',  ( -150.0000000000000000, -40.00000000000000000, 4.000000000000000000 ) ) ;
#45 = APPLICATION_CONTEXT ( 'configuration controlled 3d designs of mechanical parts and assemblies' ) ;
#46 = VECTOR ( 'NONE', #308, 1000.000000000000000 ) ;
#47 = LINE ( 'NONE', #21, #217 ) ;
#48 = ADVANCED_FACE ( 'NONE', ( #305, #358, #99 ), #258, .F. ) ;
#49 = PRODUCT_DEFINITION_FORMATION_WITH_SPECIFIED_SOURCE ( '任何', '', #154, .NOT_KNOWN. ) ;
#50 = DIRECTION ( 'NONE',  ( -0.000000000000000000, -0.000000000000000000, -1.000000000000000000 ) ) ;
#51 = PERSON_AND_ORGANIZATION ( #77, #105 ) ;
#52 = LOCAL_TIME ( 10, 53, 0.000000000000000000, #337 ) ;
#53 = AXIS2_PLACEMENT_3D ( 'NONE', #300, #161, #302 ) ;
#54 = LINE ( 'NONE', #209, #100 ) ;
#55 = ORIENTED_EDGE ( 'NONE', *, *, #31, .T. ) ;
#56 = CYLINDRICAL_SURFACE ( 'NONE', #380, 3.250000000000002665 ) ;
#57 = ORIENTED_EDGE ( 'NONE', *, *, #134, .F. ) ;
#58 = EDGE_CURVE ( 'NONE', #347, #298, #332, .T. ) ;
#59 = ORIENTED_EDGE ( 'NONE', *, *, #156, .T. ) ;
#60 = CARTESIAN_POINT ( 'NONE',  ( 150.0000000000000000, -40.00000000000000000, 4.000000000000000000 ) ) ;
#61 = APPLICATION_CONTEXT ( 'configuration controlled 3d designs of mechanical parts and assemblies' ) ;
#62 = ORIENTED_EDGE ( 'NONE', *, *, #88, .T. ) ;
#63 = DIRECTION ( 'NONE',  ( 0.000000000000000000, 1.000000000000000000, 0.000000000000000000 ) ) ;
#64 = AXIS2_PLACEMENT_3D ( 'NONE', #93, #131, #193 ) ;
#65 = CC_DESIGN_SECURITY_CLASSIFICATION ( #301, ( #49 ) ) ;
#66 = DIRECTION ( 'NONE',  ( 0.000000000000000000, 0.000000000000000000, -1.000000000000000000 ) ) ;
#67 = FACE_OUTER_BOUND ( 'NONE', #39, .T. ) ;
#68 = CC_DESIGN_DATE_AND_TIME_ASSIGNMENT ( #171, #139, ( #244 ) ) ;
#69 = EDGE_CURVE ( 'NONE', #276, #317, #165, .T. ) ;
#70 = CARTESIAN_POINT ( 'NONE',  ( -150.0000000000000000, -40.00000000000000000, 4.000000000000000000 ) ) ;
#71 = PLANE ( 'NONE',  #126 ) ;
#72 = APPLICATION_PROTOCOL_DEFINITION ( 'international standard', 'config_control_design', 1994, #45 ) ;
#73 = DIRECTION ( 'NONE',  ( 0.000000000000000000, 0.000000000000000000, 1.000000000000000000 ) ) ;
#74 = DIRECTION ( 'NONE',  ( 0.000000000000000000, -0.000000000000000000, 1.000000000000000000 ) ) ;
#75 = APPROVAL_DATE_TIME ( #167, #294 ) ;
#76 = CARTESIAN_POINT ( 'NONE',  ( 150.0000000000000000, 40.00000000000000000, 4.000000000000000000 ) ) ;
#77 = PERSON ( '未指定', '未指定', '未指定', ('未指定'), ('未指定'), ('未指定') ) ;
#78 = APPROVAL_DATE_TIME ( #17, #30 ) ;
#79 = DIRECTION ( 'NONE',  ( 1.000000000000000000, 0.000000000000000000, 0.000000000000000000 ) ) ;
#80 = SHAPE_DEFINITION_REPRESENTATION ( #92, #164 ) ;
#81 = EDGE_CURVE ( 'NONE', #218, #145, #169, .T. ) ;
#82 = ORIENTED_EDGE ( 'NONE', *, *, #307, .F. ) ;
#83 = CLOSED_SHELL ( 'NONE', ( #208, #295, #48, #24, #8, #320, #159, #194, #375, #271 ) ) ;
#84 = LINE ( 'NONE', #76, #362 ) ;
#85 = CIRCLE ( 'NONE', #64, 3.250000000000002665 ) ;
#86 = ORIENTED_EDGE ( 'NONE', *, *, #348, .F. ) ;
#87 = EDGE_CURVE ( 'NONE', #349, #191, #366, .T. ) ;
#88 = EDGE_CURVE ( 'NONE', #317, #35, #54, .T. ) ;
#89 = DESIGN_CONTEXT ( 'detailed design', #61, 'design' ) ;
#90 = AXIS2_PLACEMENT_3D ( 'NONE', #44, #280, #66 ) ;
#91 = ORIENTED_EDGE ( 'NONE', *, *, #352, .T. ) ;
#92 = PRODUCT_DEFINITION_SHAPE ( 'NONE', 'NONE',  #244 ) ;
#93 = CARTESIAN_POINT ( 'NONE',  ( 125.0000000000000000, 0.000000000000000000, 4.000000000000000000 ) ) ;
#94 = ORIENTED_EDGE ( 'NONE', *, *, #359, .T. ) ;
#95 = DIRECTION ( 'NONE',  ( -1.000000000000000000, 0.000000000000000000, 0.000000000000000000 ) ) ;
#96 = EDGE_LOOP ( 'NONE', ( #278, #4, #376, #207 ) ) ;
#97 = CYLINDRICAL_SURFACE ( 'NONE', #343, 3.250000000000002665 ) ;
#98 = DIRECTION ( 'NONE',  ( 0.000000000000000000, 0.000000000000000000, 1.000000000000000000 ) ) ;
#99 = FACE_BOUND ( 'NONE', #129, .T. ) ;
#100 = VECTOR ( 'NONE', #175, 1000.000000000000000 ) ;
#101 = DIRECTION ( 'NONE',  ( -1.000000000000000000, -0.000000000000000000, -0.000000000000000000 ) ) ;
#102 = ORIENTED_EDGE ( 'NONE', *, *, #216, .F. ) ;
#103 = DIRECTION ( 'NONE',  ( 0.000000000000000000, 1.000000000000000000, 0.000000000000000000 ) ) ;
#104 = SECURITY_CLASSIFICATION_LEVEL ( 'unclassified' ) ;
#105 = ORGANIZATION ( '未指定', '未指定', '' ) ;
#106 = ORIENTED_EDGE ( 'NONE', *, *, #58, .F. ) ;
#107 = APPROVAL_ROLE ( '' ) ;
#108 = DIRECTION ( 'NONE',  ( -0.000000000000000000, -0.000000000000000000, -1.000000000000000000 ) ) ;
#109 = PERSON_AND_ORGANIZATION ( #77, #105 ) ;
#110 = DIRECTION ( 'NONE',  ( -1.000000000000000000, 0.000000000000000000, 0.000000000000000000 ) ) ;
#111 = MECHANICAL_CONTEXT ( 'NONE', #45, 'mechanical' ) ;
#112 = CARTESIAN_POINT ( 'NONE',  ( 128.2500000000000000, 3.980102097228907599E-16, 4.000000000000000000 ) ) ;
#113 = CC_DESIGN_PERSON_AND_ORGANIZATION_ASSIGNMENT ( #173, #142, ( #49 ) ) ;
#114 = EDGE_CURVE ( 'NONE', #183, #246, #47, .T. ) ;
#115 = PERSON_AND_ORGANIZATION_ROLE ( 'design_supplier' ) ;
#116 = ORIENTED_EDGE ( 'NONE', *, *, #364, .T. ) ;
#117 = DIRECTION ( 'NONE',  ( 0.000000000000000000, 0.000000000000000000, 1.000000000000000000 ) ) ;
#118 = CIRCLE ( 'NONE', #150, 3.250000000000002665 ) ;
#119 = CARTESIAN_POINT ( 'NONE',  ( -150.0000000000000000, 40.00000000000000000, 4.000000000000000000 ) ) ;
#120 = ORIENTED_EDGE ( 'NONE', *, *, #134, .T. ) ;
#121 = EDGE_CURVE ( 'NONE', #373, #219, #340, .T. ) ;
#122 = CIRCLE ( 'NONE', #355, 3.250000000000002665 ) ;
#123 = LINE ( 'NONE', #328, #32 ) ;
#124 = ORIENTED_EDGE ( 'NONE', *, *, #326, .F. ) ;
#125 = EDGE_LOOP ( 'NONE', ( #57, #319, #273, #187 ) ) ;
#126 = AXIS2_PLACEMENT_3D ( 'NONE', #9, #103, #74 ) ;
#127 = ORIENTED_EDGE ( 'NONE', *, *, #121, .F. ) ;
#128 = CARTESIAN_POINT ( 'NONE',  ( -150.0000000000000000, 40.00000000000000000, 4.000000000000000000 ) ) ;
#129 = EDGE_LOOP ( 'NONE', ( #290, #334 ) ) ;
#130 = FACE_OUTER_BOUND ( 'NONE', #125, .T. ) ;
#131 = DIRECTION ( 'NONE',  ( 0.000000000000000000, 0.000000000000000000, 1.000000000000000000 ) ) ;
#132 = CARTESIAN_POINT ( 'NONE',  ( 150.0000000000000000, 40.00000000000000000, 0.000000000000000000 ) ) ;
#133 = ORIENTED_EDGE ( 'NONE', *, *, #226, .T. ) ;
#134 = EDGE_CURVE ( 'NONE', #303, #335, #239, .T. ) ;
#135 = AXIS2_PLACEMENT_3D ( 'NONE', #256, #225, #38 ) ;
#136 = DIRECTION ( 'NONE',  ( 0.000000000000000000, 0.000000000000000000, 1.000000000000000000 ) ) ;
#137 = CARTESIAN_POINT ( 'NONE',  ( -150.0000000000000000, -40.00000000000000000, 0.000000000000000000 ) ) ;
#138 = CYLINDRICAL_SURFACE ( 'NONE', #168, 3.250000000000002665 ) ;
#139 = DATE_TIME_ROLE ( 'creation_date' ) ;
#140 = DIRECTION ( 'NONE',  ( -0.000000000000000000, -0.000000000000000000, -1.000000000000000000 ) ) ;
#141 =( GEOMETRIC_REPRESENTATION_CONTEXT ( 3 ) GLOBAL_UNCERTAINTY_ASSIGNED_CONTEXT ( ( #382 ) ) GLOBAL_UNIT_ASSIGNED_CONTEXT ( ( #329, #163, #361 ) ) REPRESENTATION_CONTEXT ( 'NONE', 'WORKASPACE' ) );
#142 = PERSON_AND_ORGANIZATION_ROLE ( 'creator' ) ;
#143 = CARTESIAN_POINT ( 'NONE',  ( 125.0000000000000000, 0.000000000000000000, 4.000000000000000000 ) ) ;
#144 = DATE_AND_TIME ( #230, #220 ) ;
#145 = VERTEX_POINT ( 'NONE', #374 ) ;
#146 = DIRECTION ( 'NONE',  ( 0.000000000000000000, 0.000000000000000000, 1.000000000000000000 ) ) ;
#147 = EDGE_CURVE ( 'NONE', #214, #35, #84, .T. ) ;
#148 = ORIENTED_EDGE ( 'NONE', *, *, #359, .F. ) ;
#149 = VECTOR ( 'NONE', #42, 1000.000000000000000 ) ;
#150 = AXIS2_PLACEMENT_3D ( 'NONE', #6, #73, #254 ) ;
#151 = ORIENTED_EDGE ( 'NONE', *, *, #326, .T. ) ;
#152 = ORIENTED_EDGE ( 'NONE', *, *, #307, .T. ) ;
#153 = CC_DESIGN_APPROVAL ( #269, ( #244 ) ) ;
#154 = PRODUCT ( 'FN-SEC-001_enclosure-rear-wall-coupon-300x80x4_2HOLE-NOMINAL_R0.8', 'FN-SEC-001_enclosure-rear-wall-coupon-300x80x4_2HOLE-NOMINAL_R0.8', '', ( #111 ) ) ;
#155 = FACE_BOUND ( 'NONE', #236, .T. ) ;
#156 = EDGE_CURVE ( 'NONE', #145, #335, #170, .T. ) ;
#157 = CIRCLE ( 'NONE', #369, 3.250000000000002665 ) ;
#158 = LINE ( 'NONE', #137, #179 ) ;
#159 = ADVANCED_FACE ( 'NONE', ( #25 ), #338, .F. ) ;
#160 = MANIFOLD_SOLID_BREP ( '凸台-拉伸1', #83 ) ;
#161 = DIRECTION ( 'NONE',  ( 0.000000000000000000, 0.000000000000000000, -1.000000000000000000 ) ) ;
#162 = CARTESIAN_POINT ( 'NONE',  ( -150.0000000000000000, -40.00000000000000000, 0.000000000000000000 ) ) ;
#163 =( NAMED_UNIT ( * ) PLANE_ANGLE_UNIT ( ) SI_UNIT ( $, .RADIAN. ) );
#164 = ADVANCED_BREP_SHAPE_REPRESENTATION ( 'FN-SEC-001_enclosure-rear-wall-coupon-300x80x4_2HOLE-NOMINAL_R0.8', ( #160, #365 ), #141 ) ;
#165 = LINE ( 'NONE', #363, #46 ) ;
#166 = CARTESIAN_POINT ( 'NONE',  ( 128.2500000000000000, 3.980102097228913516E-16, 4.000000000000000000 ) ) ;
#167 = DATE_AND_TIME ( #10, #52 ) ;
#168 = AXIS2_PLACEMENT_3D ( 'NONE', #286, #336, #255 ) ;
#169 = LINE ( 'NONE', #281, #270 ) ;
#170 = CIRCLE ( 'NONE', #205, 3.250000000000002665 ) ;
#171 = DATE_AND_TIME ( #257, #188 ) ;
#172 = DIRECTION ( 'NONE',  ( 1.000000000000000000, 0.000000000000000000, 0.000000000000000000 ) ) ;
#173 = PERSON_AND_ORGANIZATION ( #77, #105 ) ;
#174 = VECTOR ( 'NONE', #101, 1000.000000000000000 ) ;
#175 = DIRECTION ( 'NONE',  ( 0.000000000000000000, 1.000000000000000000, 0.000000000000000000 ) ) ;
#176 = APPLICATION_PROTOCOL_DEFINITION ( 'international standard', 'config_control_design', 1994, #61 ) ;
#177 = CARTESIAN_POINT ( 'NONE',  ( -128.2500000000000000, 0.000000000000000000, 0.000000000000000000 ) ) ;
#178 = CIRCLE ( 'NONE', #184, 3.250000000000002665 ) ;
#179 = VECTOR ( 'NONE', #195, 1000.000000000000000 ) ;
#180 = DIRECTION ( 'NONE',  ( 0.000000000000000000, 0.000000000000000000, 1.000000000000000000 ) ) ;
#181 = ORIENTED_EDGE ( 'NONE', *, *, #352, .F. ) ;
#182 = CARTESIAN_POINT ( 'NONE',  ( -125.0000000000000000, 0.000000000000000000, 0.000000000000000000 ) ) ;
#183 = VERTEX_POINT ( 'NONE', #203 ) ;
#184 = AXIS2_PLACEMENT_3D ( 'NONE', #182, #146, #172 ) ;
#185 = ORIENTED_EDGE ( 'NONE', *, *, #81, .F. ) ;
#186 = CARTESIAN_POINT ( 'NONE',  ( 150.0000000000000000, -40.00000000000000000, 4.000000000000000000 ) ) ;
#187 = ORIENTED_EDGE ( 'NONE', *, *, #31, .F. ) ;
#188 = LOCAL_TIME ( 10, 53, 0.000000000000000000, #206 ) ;
#189 = FACE_OUTER_BOUND ( 'NONE', #96, .T. ) ;
#190 = DIRECTION ( 'NONE',  ( -0.000000000000000000, -0.000000000000000000, -1.000000000000000000 ) ) ;
#191 = VERTEX_POINT ( 'NONE', #177 ) ;
#192 = CARTESIAN_POINT ( 'NONE',  ( 125.0000000000000000, 0.000000000000000000, 4.000000000000000000 ) ) ;
#193 = DIRECTION ( 'NONE',  ( 1.000000000000000000, 0.000000000000000000, 0.000000000000000000 ) ) ;
#194 = ADVANCED_FACE ( 'NONE', ( #318 ), #19, .F. ) ;
#195 = DIRECTION ( 'NONE',  ( -0.000000000000000000, -1.000000000000000000, -0.000000000000000000 ) ) ;
#196 = ORIENTED_EDGE ( 'NONE', *, *, #87, .T. ) ;
#197 = DIRECTION ( 'NONE',  ( 0.000000000000000000, 0.000000000000000000, 1.000000000000000000 ) ) ;
#198 = DIRECTION ( 'NONE',  ( -0.000000000000000000, -0.000000000000000000, -1.000000000000000000 ) ) ;
#199 = COORDINATED_UNIVERSAL_TIME_OFFSET ( 8, 0, .AHEAD. ) ;
#200 = CARTESIAN_POINT ( 'NONE',  ( 150.0000000000000000, -40.00000000000000000, 4.000000000000000000 ) ) ;
#201 = PRODUCT_RELATED_PRODUCT_CATEGORY ( 'detail', '', ( #154 ) ) ;
#202 = COORDINATED_UNIVERSAL_TIME_OFFSET ( 8, 0, .AHEAD. ) ;
#203 = CARTESIAN_POINT ( 'NONE',  ( -121.7500000000000000, 3.980102097228913516E-16, 4.000000000000000000 ) ) ;
#204 = VECTOR ( 'NONE', #231, 1000.000000000000000 ) ;
#205 = AXIS2_PLACEMENT_3D ( 'NONE', #291, #180, #15 ) ;
#206 = COORDINATED_UNIVERSAL_TIME_OFFSET ( 8, 0, .AHEAD. ) ;
#207 = ORIENTED_EDGE ( 'NONE', *, *, #69, .F. ) ;
#208 = ADVANCED_FACE ( 'NONE', ( #312 ), #56, .F. ) ;
#209 = CARTESIAN_POINT ( 'NONE',  ( 150.0000000000000000, -40.00000000000000000, 0.000000000000000000 ) ) ;
#210 = LOCAL_TIME ( 10, 53, 0.000000000000000000, #202 ) ;
#211 = APPROVAL_PERSON_ORGANIZATION ( #288, #269, #232 ) ;
#212 = EDGE_LOOP ( 'NONE', ( #296, #181, #106, #229 ) ) ;
#213 = CC_DESIGN_DATE_AND_TIME_ASSIGNMENT ( #144, #234, ( #301 ) ) ;
#214 = VERTEX_POINT ( 'NONE', #261 ) ;
#215 = LINE ( 'NONE', #60, #284 ) ;
#216 = EDGE_CURVE ( 'NONE', #246, #191, #178, .T. ) ;
#217 = VECTOR ( 'NONE', #27, 1000.000000000000000 ) ;
#218 = VERTEX_POINT ( 'NONE', #267 ) ;
#219 = VERTEX_POINT ( 'NONE', #283 ) ;
#220 = LOCAL_TIME ( 10, 53, 0.000000000000000000, #199 ) ;
#221 = LINE ( 'NONE', #224, #174 ) ;
#222 = AXIS2_PLACEMENT_3D ( 'NONE', #323, #354, #95 ) ;
#223 = EDGE_LOOP ( 'NONE', ( #133, #127, #268, #243 ) ) ;
#224 = CARTESIAN_POINT ( 'NONE',  ( -150.0000000000000000, 40.00000000000000000, 4.000000000000000000 ) ) ;
#225 = DIRECTION ( 'NONE',  ( 0.000000000000000000, 0.000000000000000000, -1.000000000000000000 ) ) ;
#226 = EDGE_CURVE ( 'NONE', #35, #219, #377, .T. ) ;
#227 = EDGE_LOOP ( 'NONE', ( #124, #292 ) ) ;
#228 = APPROVAL_STATUS ( 'not_yet_approved' ) ;
#229 = ORIENTED_EDGE ( 'NONE', *, *, #266, .T. ) ;
#230 = CALENDAR_DATE ( 2026, 27, 7 ) ;
#231 = DIRECTION ( 'NONE',  ( -1.000000000000000000, -0.000000000000000000, -0.000000000000000000 ) ) ;
#232 = APPROVAL_ROLE ( '' ) ;
#233 = DIRECTION ( 'NONE',  ( -1.000000000000000000, 0.000000000000000000, 0.000000000000000000 ) ) ;
#234 = DATE_TIME_ROLE ( 'classification_date' ) ;
#235 = EDGE_CURVE ( 'NONE', #218, #303, #2, .T. ) ;
#236 = EDGE_LOOP ( 'NONE', ( #59, #55 ) ) ;
#237 = DIRECTION ( 'NONE',  ( 0.000000000000000000, -1.000000000000000000, 0.000000000000000000 ) ) ;
#238 = ORIENTED_EDGE ( 'NONE', *, *, #147, .F. ) ;
#239 = LINE ( 'NONE', #112, #297 ) ;
#240 = EDGE_LOOP ( 'NONE', ( #289, #116, #196, #102 ) ) ;
#241 = APPROVAL_PERSON_ORGANIZATION ( #13, #294, #342 ) ;
#242 = APPROVAL_PERSON_ORGANIZATION ( #22, #30, #107 ) ;
#243 = ORIENTED_EDGE ( 'NONE', *, *, #147, .T. ) ;
#244 = PRODUCT_DEFINITION ( '未知', '', #49, #89 ) ;
#245 = CARTESIAN_POINT ( 'NONE',  ( -128.2500000000000000, 0.000000000000000000, 4.000000000000000000 ) ) ;
#246 = VERTEX_POINT ( 'NONE', #381 ) ;
#247 = CARTESIAN_POINT ( 'NONE',  ( -150.0000000000000000, -40.00000000000000000, 4.000000000000000000 ) ) ;
#248 = AXIS2_PLACEMENT_3D ( 'NONE', #16, #314, #360 ) ;
#249 = ORIENTED_EDGE ( 'NONE', *, *, #348, .T. ) ;
#250 = FACE_BOUND ( 'NONE', #34, .T. ) ;
#251 = VECTOR ( 'NONE', #357, 1000.000000000000000 ) ;
#252 = LINE ( 'NONE', #383, #251 ) ;
#253 = CC_DESIGN_PERSON_AND_ORGANIZATION_ASSIGNMENT ( #109, #260, ( #154 ) ) ;
#254 = DIRECTION ( 'NONE',  ( 1.000000000000000000, 0.000000000000000000, 0.000000000000000000 ) ) ;
#255 = DIRECTION ( 'NONE',  ( -1.000000000000000000, 0.000000000000000000, 0.000000000000000000 ) ) ;
#256 = CARTESIAN_POINT ( 'NONE',  ( 0.000000000000000000, 0.000000000000000000, 4.000000000000000000 ) ) ;
#257 = CALENDAR_DATE ( 2026, 27, 7 ) ;
#258 = PLANE ( 'NONE',  #135 ) ;
#259 = CARTESIAN_POINT ( 'NONE',  ( -125.0000000000000000, 0.000000000000000000, 4.000000000000000000 ) ) ;
#260 = PERSON_AND_ORGANIZATION_ROLE ( 'design_owner' ) ;
#261 = CARTESIAN_POINT ( 'NONE',  ( 150.0000000000000000, 40.00000000000000000, 4.000000000000000000 ) ) ;
#262 = FACE_OUTER_BOUND ( 'NONE', #212, .T. ) ;
#263 = DATE_AND_TIME ( #367, #210 ) ;
#264 = CARTESIAN_POINT ( 'NONE',  ( 125.0000000000000000, 0.000000000000000000, 4.000000000000000000 ) ) ;
#265 = PERSON_AND_ORGANIZATION ( #77, #105 ) ;
#266 = EDGE_CURVE ( 'NONE', #347, #276, #123, .T. ) ;
#267 = CARTESIAN_POINT ( 'NONE',  ( 121.7500000000000000, 0.000000000000000000, 4.000000000000000000 ) ) ;
#268 = ORIENTED_EDGE ( 'NONE', *, *, #379, .F. ) ;
#269 = APPROVAL ( #228, '未指定' ) ;
#270 = VECTOR ( 'NONE', #11, 1000.000000000000000 ) ;
#271 = ADVANCED_FACE ( 'NONE', ( #130 ), #97, .F. ) ;
#272 = EDGE_LOOP ( 'NONE', ( #151, #327, #82, #356 ) ) ;
#273 = ORIENTED_EDGE ( 'NONE', *, *, #81, .T. ) ;
#274 = ORIENTED_EDGE ( 'NONE', *, *, #18, .T. ) ;
#275 = LINE ( 'NONE', #186, #299 ) ;
#276 = VERTEX_POINT ( 'NONE', #162 ) ;
#277 = CC_DESIGN_PERSON_AND_ORGANIZATION_ASSIGNMENT ( #265, #371, ( #301 ) ) ;
#278 = ORIENTED_EDGE ( 'NONE', *, *, #18, .F. ) ;
#279 = FACE_OUTER_BOUND ( 'NONE', #272, .T. ) ;
#280 = DIRECTION ( 'NONE',  ( 1.000000000000000000, 0.000000000000000000, 0.000000000000000000 ) ) ;
#281 = CARTESIAN_POINT ( 'NONE',  ( 121.7500000000000000, 0.000000000000000000, 4.000000000000000000 ) ) ;
#282 = CARTESIAN_POINT ( 'NONE',  ( 128.2500000000000000, 3.980102097228913516E-16, 0.000000000000000000 ) ) ;
#283 = CARTESIAN_POINT ( 'NONE',  ( -150.0000000000000000, 40.00000000000000000, 0.000000000000000000 ) ) ;
#284 = VECTOR ( 'NONE', #190, 1000.000000000000000 ) ;
#285 = DIRECTION ( 'NONE',  ( -0.000000000000000000, -0.000000000000000000, -1.000000000000000000 ) ) ;
#286 = CARTESIAN_POINT ( 'NONE',  ( -125.0000000000000000, 0.000000000000000000, 4.000000000000000000 ) ) ;
#287 = COORDINATED_UNIVERSAL_TIME_OFFSET ( 8, 0, .AHEAD. ) ;
#288 = PERSON_AND_ORGANIZATION ( #77, #105 ) ;
#289 = ORIENTED_EDGE ( 'NONE', *, *, #114, .F. ) ;
#290 = ORIENTED_EDGE ( 'NONE', *, *, #235, .F. ) ;
#291 = CARTESIAN_POINT ( 'NONE',  ( 125.0000000000000000, 0.000000000000000000, 0.000000000000000000 ) ) ;
#292 = ORIENTED_EDGE ( 'NONE', *, *, #364, .F. ) ;
#293 = AXIS2_PLACEMENT_3D ( 'NONE', #264, #370, #79 ) ;
#294 = APPROVAL ( #372, '未指定' ) ;
#295 = ADVANCED_FACE ( 'NONE', ( #279 ), #138, .F. ) ;
#296 = ORIENTED_EDGE ( 'NONE', *, *, #69, .T. ) ;
#297 = VECTOR ( 'NONE', #50, 1000.000000000000000 ) ;
#298 = VERTEX_POINT ( 'NONE', #12 ) ;
#299 = VECTOR ( 'NONE', #63, 1000.000000000000000 ) ;
#300 = CARTESIAN_POINT ( 'NONE',  ( 0.000000000000000000, 0.000000000000000000, 0.000000000000000000 ) ) ;
#301 = SECURITY_CLASSIFICATION ( '', '', #104 ) ;
#302 = DIRECTION ( 'NONE',  ( -1.000000000000000000, 0.000000000000000000, -0.000000000000000000 ) ) ;
#303 = VERTEX_POINT ( 'NONE', #166 ) ;
#304 = DIRECTION ( 'NONE',  ( -0.000000000000000000, -0.000000000000000000, -1.000000000000000000 ) ) ;
#305 = FACE_OUTER_BOUND ( 'NONE', #324, .T. ) ;
#306 = CARTESIAN_POINT ( 'NONE',  ( 0.000000000000000000, 0.000000000000000000, 0.000000000000000000 ) ) ;
#307 = EDGE_CURVE ( 'NONE', #191, #246, #29, .T. ) ;
#308 = DIRECTION ( 'NONE',  ( 1.000000000000000000, 0.000000000000000000, 0.000000000000000000 ) ) ;
#309 = DIRECTION ( 'NONE',  ( 1.000000000000000000, 0.000000000000000000, 0.000000000000000000 ) ) ;
#310 = CARTESIAN_POINT ( 'NONE',  ( -150.0000000000000000, 40.00000000000000000, 4.000000000000000000 ) ) ;
#311 = APPROVAL_DATE_TIME ( #263, #269 ) ;
#312 = FACE_OUTER_BOUND ( 'NONE', #330, .T. ) ;
#313 = PERSON_AND_ORGANIZATION_ROLE ( 'creator' ) ;
#314 = DIRECTION ( 'NONE',  ( 0.000000000000000000, 0.000000000000000000, 1.000000000000000000 ) ) ;
#315 = VECTOR ( 'NONE', #285, 1000.000000000000000 ) ;
#316 = CARTESIAN_POINT ( 'NONE',  ( -128.2500000000000000, 0.000000000000000000, 4.000000000000000000 ) ) ;
#317 = VERTEX_POINT ( 'NONE', #333 ) ;
#318 = FACE_OUTER_BOUND ( 'NONE', #223, .T. ) ;
#319 = ORIENTED_EDGE ( 'NONE', *, *, #346, .T. ) ;
#320 = ADVANCED_FACE ( 'NONE', ( #262 ), #71, .F. ) ;
#321 = ORIENTED_EDGE ( 'NONE', *, *, #235, .T. ) ;
#322 = VECTOR ( 'NONE', #108, 1000.000000000000000 ) ;
#323 = CARTESIAN_POINT ( 'NONE',  ( -125.0000000000000000, 0.000000000000000000, 4.000000000000000000 ) ) ;
#324 = EDGE_LOOP ( 'NONE', ( #249, #7, #94, #26 ) ) ;
#325 = CYLINDRICAL_SURFACE ( 'NONE', #222, 3.250000000000002665 ) ;
#326 = EDGE_CURVE ( 'NONE', #349, #183, #157, .T. ) ;
#327 = ORIENTED_EDGE ( 'NONE', *, *, #114, .T. ) ;
#328 = CARTESIAN_POINT ( 'NONE',  ( -150.0000000000000000, -40.00000000000000000, 4.000000000000000000 ) ) ;
#329 =( LENGTH_UNIT ( ) NAMED_UNIT ( * ) SI_UNIT ( .MILLI., .METRE. ) );
#330 = EDGE_LOOP ( 'NONE', ( #321, #120, #384, #185 ) ) ;
#331 = AXIS2_PLACEMENT_3D ( 'NONE', #310, #237, #344 ) ;
#332 = LINE ( 'NONE', #70, #149 ) ;
#333 = CARTESIAN_POINT ( 'NONE',  ( 150.0000000000000000, -40.00000000000000000, 0.000000000000000000 ) ) ;
#334 = ORIENTED_EDGE ( 'NONE', *, *, #346, .F. ) ;
#335 = VERTEX_POINT ( 'NONE', #282 ) ;
#336 = DIRECTION ( 'NONE',  ( -0.000000000000000000, -0.000000000000000000, -1.000000000000000000 ) ) ;
#337 = COORDINATED_UNIVERSAL_TIME_OFFSET ( 8, 0, .AHEAD. ) ;
#338 = PLANE ( 'NONE',  #33 ) ;
#339 = APPROVAL_STATUS ( 'not_yet_approved' ) ;
#340 = LINE ( 'NONE', #119, #315 ) ;
#341 = CALENDAR_DATE ( 2026, 27, 7 ) ;
#342 = APPROVAL_ROLE ( '' ) ;
#343 = AXIS2_PLACEMENT_3D ( 'NONE', #192, #304, #40 ) ;
#344 = DIRECTION ( 'NONE',  ( 0.000000000000000000, -0.000000000000000000, -1.000000000000000000 ) ) ;
#345 = ORIENTED_EDGE ( 'NONE', *, *, #216, .T. ) ;
#346 = EDGE_CURVE ( 'NONE', #303, #218, #85, .T. ) ;
#347 = VERTEX_POINT ( 'NONE', #247 ) ;
#348 = EDGE_CURVE ( 'NONE', #373, #347, #252, .T. ) ;
#349 = VERTEX_POINT ( 'NONE', #245 ) ;
#350 = FACE_OUTER_BOUND ( 'NONE', #240, .T. ) ;
#351 = DIRECTION ( 'NONE',  ( 1.000000000000000000, 0.000000000000000000, 0.000000000000000000 ) ) ;
#352 = EDGE_CURVE ( 'NONE', #298, #317, #215, .T. ) ;
#353 = ORIENTED_EDGE ( 'NONE', *, *, #266, .F. ) ;
#354 = DIRECTION ( 'NONE',  ( -0.000000000000000000, -0.000000000000000000, -1.000000000000000000 ) ) ;
#355 = AXIS2_PLACEMENT_3D ( 'NONE', #3, #98, #351 ) ;
#356 = ORIENTED_EDGE ( 'NONE', *, *, #87, .F. ) ;
#357 = DIRECTION ( 'NONE',  ( -0.000000000000000000, -1.000000000000000000, -0.000000000000000000 ) ) ;
#358 = FACE_BOUND ( 'NONE', #227, .T. ) ;
#359 = EDGE_CURVE ( 'NONE', #298, #214, #275, .T. ) ;
#360 = DIRECTION ( 'NONE',  ( 1.000000000000000000, 0.000000000000000000, 0.000000000000000000 ) ) ;
#361 =( NAMED_UNIT ( * ) SI_UNIT ( $, .STERADIAN. ) SOLID_ANGLE_UNIT ( ) );
#362 = VECTOR ( 'NONE', #198, 1000.000000000000000 ) ;
#363 = CARTESIAN_POINT ( 'NONE',  ( -150.0000000000000000, -40.00000000000000000, 0.000000000000000000 ) ) ;
#364 = EDGE_CURVE ( 'NONE', #183, #349, #122, .T. ) ;
#365 = AXIS2_PLACEMENT_3D ( 'NONE', #306, #136, #43 ) ;
#366 = LINE ( 'NONE', #316, #322 ) ;
#367 = CALENDAR_DATE ( 2026, 27, 7 ) ;
#368 = CARTESIAN_POINT ( 'NONE',  ( -150.0000000000000000, 40.00000000000000000, 0.000000000000000000 ) ) ;
#369 = AXIS2_PLACEMENT_3D ( 'NONE', #259, #197, #309 ) ;
#370 = DIRECTION ( 'NONE',  ( 0.000000000000000000, 0.000000000000000000, 1.000000000000000000 ) ) ;
#371 = PERSON_AND_ORGANIZATION_ROLE ( 'classification_officer' ) ;
#372 = APPROVAL_STATUS ( 'not_yet_approved' ) ;
#373 = VERTEX_POINT ( 'NONE', #128 ) ;
#374 = CARTESIAN_POINT ( 'NONE',  ( 121.7500000000000000, 0.000000000000000000, 0.000000000000000000 ) ) ;
#375 = ADVANCED_FACE ( 'NONE', ( #350 ), #325, .F. ) ;
#376 = ORIENTED_EDGE ( 'NONE', *, *, #88, .F. ) ;
#377 = LINE ( 'NONE', #368, #204 ) ;
#378 = CC_DESIGN_APPROVAL ( #30, ( #49 ) ) ;
#379 = EDGE_CURVE ( 'NONE', #214, #373, #221, .T. ) ;
#380 = AXIS2_PLACEMENT_3D ( 'NONE', #143, #140, #233 ) ;
#381 = CARTESIAN_POINT ( 'NONE',  ( -121.7500000000000000, 3.980102097228913516E-16, 0.000000000000000000 ) ) ;
#382 = UNCERTAINTY_MEASURE_WITH_UNIT (LENGTH_MEASURE( 1.000000000000000082E-05 ), #329, 'distance_accuracy_value', 'NONE');
#383 = CARTESIAN_POINT ( 'NONE',  ( -150.0000000000000000, -40.00000000000000000, 4.000000000000000000 ) ) ;
#384 = ORIENTED_EDGE ( 'NONE', *, *, #156, .F. ) ;
#385 = CC_DESIGN_PERSON_AND_ORGANIZATION_ASSIGNMENT ( #20, #313, ( #244 ) ) ;
ENDSEC;
END-ISO-10303-21;
