ISO-10303-21;
HEADER;
FILE_DESCRIPTION (( 'STEP AP203' ),
    '1' );
FILE_NAME ('FN-BAT-002_battery-envelope_USER-MEASURED_R0.4.STEP',
    '2026-07-26T11:25:58',
    ( '' ),
    ( '' ),
    'SwSTEP 2.0',
    'SolidWorks 2022',
    '' );
FILE_SCHEMA (( 'CONFIG_CONTROL_DESIGN' ));
ENDSEC;

DATA;
#1 = PLANE ( 'NONE',  #167 ) ;
#2 = CARTESIAN_POINT ( 'NONE',  ( -33.00000000000000000, 40.00000000000000000, 30.50000000000000000 ) ) ;
#3 = CC_DESIGN_PERSON_AND_ORGANIZATION_ASSIGNMENT ( #165, #4, ( #196 ) ) ;
#4 = PERSON_AND_ORGANIZATION_ROLE ( 'design_supplier' ) ;
#5 = APPROVAL_STATUS ( 'not_yet_approved' ) ;
#6 = ORIENTED_EDGE ( 'NONE', *, *, #181, .F. ) ;
#7 = PERSON_AND_ORGANIZATION ( #115, #195 ) ;
#8 = CARTESIAN_POINT ( 'NONE',  ( -33.00000000000000000, 40.00000000000000000, -30.50000000000000000 ) ) ;
#9 = SECURITY_CLASSIFICATION ( '', '', #156 ) ;
#10 = VECTOR ( 'NONE', #14, 1000.000000000000000 ) ;
#11 = DIRECTION ( 'NONE',  ( -0.000000000000000000, -0.000000000000000000, 1.000000000000000000 ) ) ;
#12 = CARTESIAN_POINT ( 'NONE',  ( -33.00000000000000000, 0.000000000000000000, 30.50000000000000000 ) ) ;
#13 = AXIS2_PLACEMENT_3D ( 'NONE', #147, #180, #220 ) ;
#14 = DIRECTION ( 'NONE',  ( -0.000000000000000000, -1.000000000000000000, -0.000000000000000000 ) ) ;
#15 = EDGE_CURVE ( 'NONE', #49, #93, #137, .T. ) ;
#16 = DIRECTION ( 'NONE',  ( 0.000000000000000000, -1.000000000000000000, 0.000000000000000000 ) ) ;
#17 = LINE ( 'NONE', #45, #231 ) ;
#18 = APPROVAL_DATE_TIME ( #219, #30 ) ;
#19 = PLANE ( 'NONE',  #64 ) ;
#20 = EDGE_CURVE ( 'NONE', #101, #49, #63, .T. ) ;
#21 = EDGE_LOOP ( 'NONE', ( #79, #38, #91, #218 ) ) ;
#22 = PERSON_AND_ORGANIZATION_ROLE ( 'creator' ) ;
#23 = CC_DESIGN_DATE_AND_TIME_ASSIGNMENT ( #133, #185, ( #9 ) ) ;
#24 =( NAMED_UNIT ( * ) SI_UNIT ( $, .STERADIAN. ) SOLID_ANGLE_UNIT ( ) );
#25 = DIRECTION ( 'NONE',  ( 1.000000000000000000, 0.000000000000000000, 0.000000000000000000 ) ) ;
#26 = VECTOR ( 'NONE', #25, 1000.000000000000000 ) ;
#27 = ORIENTED_EDGE ( 'NONE', *, *, #145, .F. ) ;
#28 = CC_DESIGN_APPROVAL ( #192, ( #196 ) ) ;
#29 = EDGE_CURVE ( 'NONE', #93, #132, #210, .T. ) ;
#30 = APPROVAL ( #148, '未指定' ) ;
#31 = DIRECTION ( 'NONE',  ( -1.000000000000000000, -0.000000000000000000, -0.000000000000000000 ) ) ;
#32 = DIRECTION ( 'NONE',  ( 0.000000000000000000, 0.000000000000000000, 1.000000000000000000 ) ) ;
#33 = DIRECTION ( 'NONE',  ( 0.000000000000000000, 0.000000000000000000, -1.000000000000000000 ) ) ;
#34 = CARTESIAN_POINT ( 'NONE',  ( -33.00000000000000000, 40.00000000000000000, 30.50000000000000000 ) ) ;
#35 = AXIS2_PLACEMENT_3D ( 'NONE', #68, #162, #87 ) ;
#36 = CARTESIAN_POINT ( 'NONE',  ( -33.00000000000000000, 40.00000000000000000, 30.50000000000000000 ) ) ;
#37 = DIRECTION ( 'NONE',  ( 1.000000000000000000, 0.000000000000000000, 0.000000000000000000 ) ) ;
#38 = ORIENTED_EDGE ( 'NONE', *, *, #69, .F. ) ;
#39 = ORIENTED_EDGE ( 'NONE', *, *, #75, .F. ) ;
#40 = EDGE_CURVE ( 'NONE', #178, #150, #80, .T. ) ;
#41 = PERSON_AND_ORGANIZATION_ROLE ( 'design_owner' ) ;
#42 = CC_DESIGN_PERSON_AND_ORGANIZATION_ASSIGNMENT ( #113, #89, ( #196 ) ) ;
#43 = VECTOR ( 'NONE', #233, 1000.000000000000000 ) ;
#44 = EDGE_CURVE ( 'NONE', #177, #101, #104, .T. ) ;
#45 = CARTESIAN_POINT ( 'NONE',  ( -33.00000000000000000, 40.00000000000000000, -30.50000000000000000 ) ) ;
#46 = PERSON_AND_ORGANIZATION ( #115, #195 ) ;
#47 = CARTESIAN_POINT ( 'NONE',  ( -33.00000000000000000, 0.000000000000000000, -30.50000000000000000 ) ) ;
#48 = CARTESIAN_POINT ( 'NONE',  ( 33.00000000000000000, 0.000000000000000000, -30.50000000000000000 ) ) ;
#49 = VERTEX_POINT ( 'NONE', #47 ) ;
#50 = CALENDAR_DATE ( 2026, 26, 7 ) ;
#51 = CARTESIAN_POINT ( 'NONE',  ( 33.00000000000000000, 0.000000000000000000, 30.50000000000000000 ) ) ;
#52 = LOCAL_TIME ( 19, 25, 58.00000000000000000, #73 ) ;
#53 = EDGE_LOOP ( 'NONE', ( #205, #27, #39, #166 ) ) ;
#54 = COORDINATED_UNIVERSAL_TIME_OFFSET ( 8, 0, .AHEAD. ) ;
#55 = ORIENTED_EDGE ( 'NONE', *, *, #15, .F. ) ;
#56 = COORDINATED_UNIVERSAL_TIME_OFFSET ( 8, 0, .AHEAD. ) ;
#57 = DIRECTION ( 'NONE',  ( 0.000000000000000000, 0.000000000000000000, -1.000000000000000000 ) ) ;
#58 = ORIENTED_EDGE ( 'NONE', *, *, #29, .T. ) ;
#59 = APPROVAL_DATE_TIME ( #77, #192 ) ;
#60 = CARTESIAN_POINT ( 'NONE',  ( -33.00000000000000000, 40.00000000000000000, 30.50000000000000000 ) ) ;
#61 = APPLICATION_PROTOCOL_DEFINITION ( 'international standard', 'config_control_design', 1994, #217 ) ;
#62 = APPROVAL_ROLE ( '' ) ;
#63 = LINE ( 'NONE', #228, #74 ) ;
#64 = AXIS2_PLACEMENT_3D ( 'NONE', #216, #16, #84 ) ;
#65 = LOCAL_TIME ( 19, 25, 58.00000000000000000, #56 ) ;
#66 = VECTOR ( 'NONE', #200, 1000.000000000000000 ) ;
#67 = CARTESIAN_POINT ( 'NONE',  ( 0.000000000000000000, 40.00000000000000000, 0.000000000000000000 ) ) ;
#68 = CARTESIAN_POINT ( 'NONE',  ( -33.00000000000000000, 40.00000000000000000, 30.50000000000000000 ) ) ;
#69 = EDGE_CURVE ( 'NONE', #150, #93, #127, .T. ) ;
#70 = FACE_OUTER_BOUND ( 'NONE', #53, .T. ) ;
#71 = DIRECTION ( 'NONE',  ( -0.000000000000000000, -1.000000000000000000, -0.000000000000000000 ) ) ;
#72 = EDGE_LOOP ( 'NONE', ( #151, #135, #146, #111 ) ) ;
#73 = COORDINATED_UNIVERSAL_TIME_OFFSET ( 8, 0, .AHEAD. ) ;
#74 = VECTOR ( 'NONE', #139, 1000.000000000000000 ) ;
#75 = EDGE_CURVE ( 'NONE', #177, #178, #17, .T. ) ;
#76 = DATE_AND_TIME ( #149, #214 ) ;
#77 = DATE_AND_TIME ( #138, #123 ) ;
#78 = ORIENTED_EDGE ( 'NONE', *, *, #106, .F. ) ;
#79 = ORIENTED_EDGE ( 'NONE', *, *, #15, .T. ) ;
#80 = LINE ( 'NONE', #60, #43 ) ;
#81 = ADVANCED_FACE ( 'NONE', ( #142 ), #1, .F. ) ;
#82 = AXIS2_PLACEMENT_3D ( 'NONE', #131, #206, #37 ) ;
#83 = CARTESIAN_POINT ( 'NONE',  ( -33.00000000000000000, 40.00000000000000000, 30.50000000000000000 ) ) ;
#84 = DIRECTION ( 'NONE',  ( 0.000000000000000000, -0.000000000000000000, -1.000000000000000000 ) ) ;
#85 = ORIENTED_EDGE ( 'NONE', *, *, #69, .T. ) ;
#86 = FACE_OUTER_BOUND ( 'NONE', #198, .T. ) ;
#87 = DIRECTION ( 'NONE',  ( -1.000000000000000000, 0.000000000000000000, -0.000000000000000000 ) ) ;
#88 = ADVANCED_FACE ( 'NONE', ( #70 ), #103, .F. ) ;
#89 = PERSON_AND_ORGANIZATION_ROLE ( 'creator' ) ;
#90 = ADVANCED_FACE ( 'NONE', ( #237 ), #19, .T. ) ;
#91 = ORIENTED_EDGE ( 'NONE', *, *, #40, .F. ) ;
#92 = VECTOR ( 'NONE', #57, 1000.000000000000000 ) ;
#93 = VERTEX_POINT ( 'NONE', #160 ) ;
#94 = PERSON_AND_ORGANIZATION ( #115, #195 ) ;
#95 = COORDINATED_UNIVERSAL_TIME_OFFSET ( 8, 0, .AHEAD. ) ;
#96 = LINE ( 'NONE', #36, #26 ) ;
#97 = LINE ( 'NONE', #188, #157 ) ;
#98 = CC_DESIGN_PERSON_AND_ORGANIZATION_ASSIGNMENT ( #153, #22, ( #204 ) ) ;
#99 = AXIS2_PLACEMENT_3D ( 'NONE', #67, #125, #173 ) ;
#100 = ADVANCED_FACE ( 'NONE', ( #86 ), #110, .F. ) ;
#101 = VERTEX_POINT ( 'NONE', #48 ) ;
#102 = UNCERTAINTY_MEASURE_WITH_UNIT (LENGTH_MEASURE( 1.000000000000000082E-05 ), #187, 'distance_accuracy_value', 'NONE');
#103 = PLANE ( 'NONE',  #109 ) ;
#104 = LINE ( 'NONE', #105, #66 ) ;
#105 = CARTESIAN_POINT ( 'NONE',  ( 33.00000000000000000, 40.00000000000000000, -30.50000000000000000 ) ) ;
#106 = EDGE_CURVE ( 'NONE', #132, #101, #213, .T. ) ;
#107 = PLANE ( 'NONE',  #13 ) ;
#108 = VECTOR ( 'NONE', #33, 1000.000000000000000 ) ;
#109 = AXIS2_PLACEMENT_3D ( 'NONE', #183, #32, #182 ) ;
#110 = PLANE ( 'NONE',  #35 ) ;
#111 = ORIENTED_EDGE ( 'NONE', *, *, #75, .T. ) ;
#112 = PRODUCT_DEFINITION_SHAPE ( 'NONE', 'NONE',  #204 ) ;
#113 = PERSON_AND_ORGANIZATION ( #115, #195 ) ;
#114 = ADVANCED_FACE ( 'NONE', ( #163 ), #107, .F. ) ;
#115 = PERSON ( '未指定', '未指定', '未指定', ('未指定'), ('未指定'), ('未指定') ) ;
#116 = MANIFOLD_SOLID_BREP ( '凸台-拉伸1', #141 ) ;
#117 = LINE ( 'NONE', #175, #92 ) ;
#118 = ORIENTED_EDGE ( 'NONE', *, *, #106, .T. ) ;
#119 = DATE_AND_TIME ( #227, #52 ) ;
#120 = CC_DESIGN_APPROVAL ( #159, ( #204 ) ) ;
#121 = DIRECTION ( 'NONE',  ( 1.000000000000000000, 0.000000000000000000, 0.000000000000000000 ) ) ;
#122 = PERSON_AND_ORGANIZATION ( #115, #195 ) ;
#123 = LOCAL_TIME ( 19, 25, 58.00000000000000000, #54 ) ;
#124 = ORIENTED_EDGE ( 'NONE', *, *, #44, .F. ) ;
#125 = DIRECTION ( 'NONE',  ( 0.000000000000000000, -1.000000000000000000, 0.000000000000000000 ) ) ;
#126 =( GEOMETRIC_REPRESENTATION_CONTEXT ( 3 ) GLOBAL_UNCERTAINTY_ASSIGNED_CONTEXT ( ( #102 ) ) GLOBAL_UNIT_ASSIGNED_CONTEXT ( ( #187, #168, #24 ) ) REPRESENTATION_CONTEXT ( 'NONE', 'WORKASPACE' ) );
#127 = LINE ( 'NONE', #2, #155 ) ;
#128 = CC_DESIGN_PERSON_AND_ORGANIZATION_ASSIGNMENT ( #122, #41, ( #224 ) ) ;
#129 = CARTESIAN_POINT ( 'NONE',  ( 33.00000000000000000, 0.000000000000000000, 30.50000000000000000 ) ) ;
#130 = LINE ( 'NONE', #201, #10 ) ;
#131 = CARTESIAN_POINT ( 'NONE',  ( 0.000000000000000000, 0.000000000000000000, 0.000000000000000000 ) ) ;
#132 = VERTEX_POINT ( 'NONE', #51 ) ;
#133 = DATE_AND_TIME ( #50, #65 ) ;
#134 = APPROVAL_ROLE ( '' ) ;
#135 = ORIENTED_EDGE ( 'NONE', *, *, #181, .T. ) ;
#136 = CARTESIAN_POINT ( 'NONE',  ( 33.00000000000000000, 40.00000000000000000, 30.50000000000000000 ) ) ;
#137 = LINE ( 'NONE', #194, #161 ) ;
#138 = CALENDAR_DATE ( 2026, 26, 7 ) ;
#139 = DIRECTION ( 'NONE',  ( -1.000000000000000000, -0.000000000000000000, -0.000000000000000000 ) ) ;
#140 = DESIGN_CONTEXT ( 'detailed design', #232, 'design' ) ;
#141 = CLOSED_SHELL ( 'NONE', ( #81, #100, #114, #88, #170, #90 ) ) ;
#142 = FACE_OUTER_BOUND ( 'NONE', #21, .T. ) ;
#143 = DIRECTION ( 'NONE',  ( 1.000000000000000000, -0.000000000000000000, 0.000000000000000000 ) ) ;
#144 = PERSON_AND_ORGANIZATION_ROLE ( 'classification_officer' ) ;
#145 = EDGE_CURVE ( 'NONE', #178, #49, #130, .T. ) ;
#146 = ORIENTED_EDGE ( 'NONE', *, *, #235, .T. ) ;
#147 = CARTESIAN_POINT ( 'NONE',  ( 33.00000000000000000, 40.00000000000000000, 30.50000000000000000 ) ) ;
#148 = APPROVAL_STATUS ( 'not_yet_approved' ) ;
#149 = CALENDAR_DATE ( 2026, 26, 7 ) ;
#150 = VERTEX_POINT ( 'NONE', #83 ) ;
#151 = ORIENTED_EDGE ( 'NONE', *, *, #40, .T. ) ;
#152 = CC_DESIGN_APPROVAL ( #30, ( #9 ) ) ;
#153 = PERSON_AND_ORGANIZATION ( #115, #195 ) ;
#154 = CC_DESIGN_PERSON_AND_ORGANIZATION_ASSIGNMENT ( #46, #144, ( #9 ) ) ;
#155 = VECTOR ( 'NONE', #71, 1000.000000000000000 ) ;
#156 = SECURITY_CLASSIFICATION_LEVEL ( 'unclassified' ) ;
#157 = VECTOR ( 'NONE', #193, 1000.000000000000000 ) ;
#158 = FACE_OUTER_BOUND ( 'NONE', #72, .T. ) ;
#159 = APPROVAL ( #5, '未指定' ) ;
#160 = CARTESIAN_POINT ( 'NONE',  ( -33.00000000000000000, 0.000000000000000000, 30.50000000000000000 ) ) ;
#161 = VECTOR ( 'NONE', #11, 1000.000000000000000 ) ;
#162 = DIRECTION ( 'NONE',  ( 0.000000000000000000, 0.000000000000000000, -1.000000000000000000 ) ) ;
#163 = FACE_OUTER_BOUND ( 'NONE', #179, .T. ) ;
#164 = ADVANCED_BREP_SHAPE_REPRESENTATION ( 'FN-BAT-002_battery-envelope_USER-MEASURED_R0.4', ( #116, #82 ), #126 ) ;
#165 = PERSON_AND_ORGANIZATION ( #115, #195 ) ;
#166 = ORIENTED_EDGE ( 'NONE', *, *, #44, .T. ) ;
#167 = AXIS2_PLACEMENT_3D ( 'NONE', #34, #143, #199 ) ;
#168 =( NAMED_UNIT ( * ) PLANE_ANGLE_UNIT ( ) SI_UNIT ( $, .RADIAN. ) );
#169 = ORIENTED_EDGE ( 'NONE', *, *, #20, .F. ) ;
#170 = ADVANCED_FACE ( 'NONE', ( #158 ), #234, .F. ) ;
#171 = DATE_TIME_ROLE ( 'creation_date' ) ;
#172 = PERSON_AND_ORGANIZATION ( #115, #195 ) ;
#173 = DIRECTION ( 'NONE',  ( 0.000000000000000000, -0.000000000000000000, -1.000000000000000000 ) ) ;
#174 = LOCAL_TIME ( 19, 25, 58.00000000000000000, #95 ) ;
#175 = CARTESIAN_POINT ( 'NONE',  ( 33.00000000000000000, 40.00000000000000000, 30.50000000000000000 ) ) ;
#176 = PRODUCT_RELATED_PRODUCT_CATEGORY ( 'detail', '', ( #224 ) ) ;
#177 = VERTEX_POINT ( 'NONE', #226 ) ;
#178 = VERTEX_POINT ( 'NONE', #8 ) ;
#179 = EDGE_LOOP ( 'NONE', ( #118, #124, #202, #215 ) ) ;
#180 = DIRECTION ( 'NONE',  ( -1.000000000000000000, 0.000000000000000000, 0.000000000000000000 ) ) ;
#181 = EDGE_CURVE ( 'NONE', #150, #208, #96, .T. ) ;
#182 = DIRECTION ( 'NONE',  ( 1.000000000000000000, 0.000000000000000000, -0.000000000000000000 ) ) ;
#183 = CARTESIAN_POINT ( 'NONE',  ( -33.00000000000000000, 40.00000000000000000, -30.50000000000000000 ) ) ;
#184 = ORIENTED_EDGE ( 'NONE', *, *, #211, .F. ) ;
#185 = DATE_TIME_ROLE ( 'classification_date' ) ;
#186 = ORIENTED_EDGE ( 'NONE', *, *, #29, .F. ) ;
#187 =( LENGTH_UNIT ( ) NAMED_UNIT ( * ) SI_UNIT ( .MILLI., .METRE. ) );
#188 = CARTESIAN_POINT ( 'NONE',  ( 33.00000000000000000, 40.00000000000000000, 30.50000000000000000 ) ) ;
#189 = EDGE_LOOP ( 'NONE', ( #55, #169, #78, #186 ) ) ;
#190 = APPROVAL_PERSON_ORGANIZATION ( #94, #159, #134 ) ;
#191 = SHAPE_DEFINITION_REPRESENTATION ( #112, #164 ) ;
#192 = APPROVAL ( #229, '未指定' ) ;
#193 = DIRECTION ( 'NONE',  ( -0.000000000000000000, -1.000000000000000000, -0.000000000000000000 ) ) ;
#194 = CARTESIAN_POINT ( 'NONE',  ( -33.00000000000000000, 0.000000000000000000, 30.50000000000000000 ) ) ;
#195 = ORGANIZATION ( '未指定', '未指定', '' ) ;
#196 = PRODUCT_DEFINITION_FORMATION_WITH_SPECIFIED_SOURCE ( '任何', '', #224, .NOT_KNOWN. ) ;
#197 = VECTOR ( 'NONE', #121, 1000.000000000000000 ) ;
#198 = EDGE_LOOP ( 'NONE', ( #58, #184, #6, #85 ) ) ;
#199 = DIRECTION ( 'NONE',  ( 0.000000000000000000, 0.000000000000000000, -1.000000000000000000 ) ) ;
#200 = DIRECTION ( 'NONE',  ( -0.000000000000000000, -1.000000000000000000, -0.000000000000000000 ) ) ;
#201 = CARTESIAN_POINT ( 'NONE',  ( -33.00000000000000000, 40.00000000000000000, -30.50000000000000000 ) ) ;
#202 = ORIENTED_EDGE ( 'NONE', *, *, #235, .F. ) ;
#203 = APPLICATION_PROTOCOL_DEFINITION ( 'international standard', 'config_control_design', 1994, #232 ) ;
#204 = PRODUCT_DEFINITION ( '未知', '', #196, #140 ) ;
#205 = ORIENTED_EDGE ( 'NONE', *, *, #20, .T. ) ;
#206 = DIRECTION ( 'NONE',  ( 0.000000000000000000, 0.000000000000000000, 1.000000000000000000 ) ) ;
#207 = COORDINATED_UNIVERSAL_TIME_OFFSET ( 8, 0, .AHEAD. ) ;
#208 = VERTEX_POINT ( 'NONE', #136 ) ;
#209 = APPROVAL_DATE_TIME ( #76, #159 ) ;
#210 = LINE ( 'NONE', #12, #197 ) ;
#211 = EDGE_CURVE ( 'NONE', #208, #132, #97, .T. ) ;
#212 = CC_DESIGN_DATE_AND_TIME_ASSIGNMENT ( #119, #171, ( #204 ) ) ;
#213 = LINE ( 'NONE', #129, #108 ) ;
#214 = LOCAL_TIME ( 19, 25, 58.00000000000000000, #207 ) ;
#215 = ORIENTED_EDGE ( 'NONE', *, *, #211, .T. ) ;
#216 = CARTESIAN_POINT ( 'NONE',  ( 0.000000000000000000, 0.000000000000000000, 0.000000000000000000 ) ) ;
#217 = APPLICATION_CONTEXT ( 'configuration controlled 3d designs of mechanical parts and assemblies' ) ;
#218 = ORIENTED_EDGE ( 'NONE', *, *, #145, .T. ) ;
#219 = DATE_AND_TIME ( #225, #174 ) ;
#220 = DIRECTION ( 'NONE',  ( 0.000000000000000000, 0.000000000000000000, 1.000000000000000000 ) ) ;
#221 = APPROVAL_PERSON_ORGANIZATION ( #7, #192, #62 ) ;
#222 = APPROVAL_ROLE ( '' ) ;
#223 = MECHANICAL_CONTEXT ( 'NONE', #217, 'mechanical' ) ;
#224 = PRODUCT ( 'FN-BAT-002_battery-envelope_USER-MEASURED_R0.4', 'FN-BAT-002_battery-envelope_USER-MEASURED_R0.4', '', ( #223 ) ) ;
#225 = CALENDAR_DATE ( 2026, 26, 7 ) ;
#226 = CARTESIAN_POINT ( 'NONE',  ( 33.00000000000000000, 40.00000000000000000, -30.50000000000000000 ) ) ;
#227 = CALENDAR_DATE ( 2026, 26, 7 ) ;
#228 = CARTESIAN_POINT ( 'NONE',  ( -33.00000000000000000, 0.000000000000000000, -30.50000000000000000 ) ) ;
#229 = APPROVAL_STATUS ( 'not_yet_approved' ) ;
#230 = CC_DESIGN_SECURITY_CLASSIFICATION ( #9, ( #196 ) ) ;
#231 = VECTOR ( 'NONE', #31, 1000.000000000000000 ) ;
#232 = APPLICATION_CONTEXT ( 'configuration controlled 3d designs of mechanical parts and assemblies' ) ;
#233 = DIRECTION ( 'NONE',  ( -0.000000000000000000, -0.000000000000000000, 1.000000000000000000 ) ) ;
#234 = PLANE ( 'NONE',  #99 ) ;
#235 = EDGE_CURVE ( 'NONE', #208, #177, #117, .T. ) ;
#236 = APPROVAL_PERSON_ORGANIZATION ( #172, #30, #222 ) ;
#237 = FACE_OUTER_BOUND ( 'NONE', #189, .T. ) ;
ENDSEC;
END-ISO-10303-21;
