ISO-10303-21;
HEADER;
FILE_DESCRIPTION (( 'STEP AP203' ),
    '1' );
FILE_NAME ('FN-ENC-003_open-tray-layout-reference_R0.4.STEP',
    '2026-07-26T11:25:20',
    ( '' ),
    ( '' ),
    'SwSTEP 2.0',
    'SolidWorks 2022',
    '' );
FILE_SCHEMA (( 'CONFIG_CONTROL_DESIGN' ));
ENDSEC;

DATA;
#1 = PRODUCT_DEFINITION ( '未知', '', #35, #145 ) ;
#2 = ORIENTED_EDGE ( 'NONE', *, *, #212, .F. ) ;
#3 = VECTOR ( 'NONE', #206, 1000.000000000000000 ) ;
#4 = CC_DESIGN_APPROVAL ( #313, ( #156 ) ) ;
#5 = LINE ( 'NONE', #231, #265 ) ;
#6 = ADVANCED_FACE ( 'NONE', ( #250 ), #372, .F. ) ;
#7 = DIRECTION ( 'NONE',  ( 0.000000000000000000, 0.000000000000000000, -1.000000000000000000 ) ) ;
#8 = CARTESIAN_POINT ( 'NONE',  ( 138.0327499999999930, 3.000000000000000000, 0.000000000000000000 ) ) ;
#9 = PERSON_AND_ORGANIZATION ( #116, #311 ) ;
#10 = VECTOR ( 'NONE', #52, 1000.000000000000000 ) ;
#11 = DIRECTION ( 'NONE',  ( -1.000000000000000000, 0.000000000000000000, -0.000000000000000000 ) ) ;
#12 = PERSON_AND_ORGANIZATION_ROLE ( 'creator' ) ;
#13 = LINE ( 'NONE', #154, #277 ) ;
#14 = PERSON_AND_ORGANIZATION_ROLE ( 'design_supplier' ) ;
#15 = CARTESIAN_POINT ( 'NONE',  ( -138.0327499999999930, 91.09999999999999432, 98.50000000000000000 ) ) ;
#16 = PERSON_AND_ORGANIZATION ( #116, #311 ) ;
#17 = VECTOR ( 'NONE', #22, 1000.000000000000000 ) ;
#18 = LINE ( 'NONE', #242, #17 ) ;
#19 = ORIENTED_EDGE ( 'NONE', *, *, #114, .T. ) ;
#20 = ADVANCED_FACE ( 'NONE', ( #104, #136 ), #67, .F. ) ;
#21 = CARTESIAN_POINT ( 'NONE',  ( -158.9499999999999886, 91.09999999999999432, 119.4500000000000028 ) ) ;
#22 = DIRECTION ( 'NONE',  ( -0.000000000000000000, -1.000000000000000000, -0.000000000000000000 ) ) ;
#23 = CARTESIAN_POINT ( 'NONE',  ( 0.000000000000000000, 0.000000000000000000, 0.000000000000000000 ) ) ;
#24 = PLANE ( 'NONE',  #59 ) ;
#25 = EDGE_CURVE ( 'NONE', #338, #125, #260, .T. ) ;
#26 = LINE ( 'NONE', #308, #208 ) ;
#27 = VERTEX_POINT ( 'NONE', #128 ) ;
#28 = MANIFOLD_SOLID_BREP ( '凸台-拉伸2', #179 ) ;
#29 =( NAMED_UNIT ( * ) PLANE_ANGLE_UNIT ( ) SI_UNIT ( $, .RADIAN. ) );
#30 = EDGE_LOOP ( 'NONE', ( #215, #191, #123, #33 ) ) ;
#31 = APPLICATION_PROTOCOL_DEFINITION ( 'international standard', 'config_control_design', 1994, #185 ) ;
#32 = EDGE_LOOP ( 'NONE', ( #312, #55, #223, #282 ) ) ;
#33 = ORIENTED_EDGE ( 'NONE', *, *, #226, .F. ) ;
#34 = PLANE ( 'NONE',  #244 ) ;
#35 = PRODUCT_DEFINITION_FORMATION_WITH_SPECIFIED_SOURCE ( '任何', '', #79, .NOT_KNOWN. ) ;
#36 = LINE ( 'NONE', #163, #85 ) ;
#37 = APPROVAL_STATUS ( 'not_yet_approved' ) ;
#38 = CARTESIAN_POINT ( 'NONE',  ( 158.9499999999999886, 3.000000000000000000, 119.4500000000000028 ) ) ;
#39 = CALENDAR_DATE ( 2026, 26, 7 ) ;
#40 = CARTESIAN_POINT ( 'NONE',  ( -138.0327499999999930, 91.09999999999999432, -98.50000000000000000 ) ) ;
#41 = DATE_TIME_ROLE ( 'classification_date' ) ;
#42 = VECTOR ( 'NONE', #315, 1000.000000000000000 ) ;
#43 = AXIS2_PLACEMENT_3D ( 'NONE', #23, #54, #306 ) ;
#44 = EDGE_CURVE ( 'NONE', #345, #256, #100, .T. ) ;
#45 = CARTESIAN_POINT ( 'NONE',  ( 138.0327499999999930, 91.09999999999999432, 98.50000000000000000 ) ) ;
#46 = ADVANCED_FACE ( 'NONE', ( #290 ), #107, .T. ) ;
#47 = APPROVAL_ROLE ( '' ) ;
#48 = CARTESIAN_POINT ( 'NONE',  ( 138.0327499999999930, 91.09999999999999432, 98.50000000000000000 ) ) ;
#49 = DIRECTION ( 'NONE',  ( -0.000000000000000000, -1.000000000000000000, -0.000000000000000000 ) ) ;
#50 = CARTESIAN_POINT ( 'NONE',  ( -138.0327499999999930, 91.09999999999999432, -98.50000000000000000 ) ) ;
#51 = ADVANCED_FACE ( 'NONE', ( #357 ), #324, .F. ) ;
#52 = DIRECTION ( 'NONE',  ( -0.000000000000000000, -1.000000000000000000, -0.000000000000000000 ) ) ;
#53 = ORIENTED_EDGE ( 'NONE', *, *, #318, .F. ) ;
#54 = DIRECTION ( 'NONE',  ( 0.000000000000000000, -1.000000000000000000, 0.000000000000000000 ) ) ;
#55 = ORIENTED_EDGE ( 'NONE', *, *, #349, .F. ) ;
#56 = EDGE_CURVE ( 'NONE', #173, #376, #109, .T. ) ;
#57 = LINE ( 'NONE', #50, #316 ) ;
#58 = VERTEX_POINT ( 'NONE', #40 ) ;
#59 = AXIS2_PLACEMENT_3D ( 'NONE', #121, #198, #218 ) ;
#60 = CARTESIAN_POINT ( 'NONE',  ( -158.9499999999999886, 91.09999999999999432, -119.4500000000000028 ) ) ;
#61 = ORIENTED_EDGE ( 'NONE', *, *, #327, .T. ) ;
#62 = VERTEX_POINT ( 'NONE', #233 ) ;
#63 = CARTESIAN_POINT ( 'NONE',  ( -138.0327499999999930, 91.09999999999999432, 98.50000000000000000 ) ) ;
#64 = VECTOR ( 'NONE', #69, 1000.000000000000000 ) ;
#65 = CARTESIAN_POINT ( 'NONE',  ( -138.0327499999999930, 3.000000000000000000, 0.000000000000000000 ) ) ;
#66 = APPROVAL_DATE_TIME ( #299, #139 ) ;
#67 = PLANE ( 'NONE',  #167 ) ;
#68 = PERSON_AND_ORGANIZATION_ROLE ( 'classification_officer' ) ;
#69 = DIRECTION ( 'NONE',  ( 0.000000000000000000, 0.000000000000000000, 1.000000000000000000 ) ) ;
#70 = AXIS2_PLACEMENT_3D ( 'NONE', #63, #183, #158 ) ;
#71 = DIRECTION ( 'NONE',  ( -0.000000000000000000, -1.000000000000000000, -0.000000000000000000 ) ) ;
#72 = APPROVAL_DATE_TIME ( #261, #160 ) ;
#73 = LINE ( 'NONE', #15, #77 ) ;
#74 = VERTEX_POINT ( 'NONE', #213 ) ;
#75 = DATE_AND_TIME ( #360, #348 ) ;
#76 = CC_DESIGN_PERSON_AND_ORGANIZATION_ASSIGNMENT ( #184, #102, ( #79 ) ) ;
#77 = VECTOR ( 'NONE', #271, 1000.000000000000000 ) ;
#78 = DIRECTION ( 'NONE',  ( 1.000000000000000000, 0.000000000000000000, 0.000000000000000000 ) ) ;
#79 = PRODUCT ( 'FN-ENC-003_open-tray-layout-reference_R0.4', 'FN-ENC-003_open-tray-layout-reference_R0.4', '', ( #326 ) ) ;
#80 = FACE_OUTER_BOUND ( 'NONE', #30, .T. ) ;
#81 = DIRECTION ( 'NONE',  ( 0.000000000000000000, 0.000000000000000000, 1.000000000000000000 ) ) ;
#82 = EDGE_CURVE ( 'NONE', #115, #125, #207, .T. ) ;
#83 = ORIENTED_EDGE ( 'NONE', *, *, #283, .T. ) ;
#84 = CARTESIAN_POINT ( 'NONE',  ( 0.000000000000000000, 3.000000000000000000, 98.50000000000000000 ) ) ;
#85 = VECTOR ( 'NONE', #210, 1000.000000000000000 ) ;
#86 = EDGE_LOOP ( 'NONE', ( #118, #19, #307, #240 ) ) ;
#87 = FACE_OUTER_BOUND ( 'NONE', #286, .T. ) ;
#88 = CARTESIAN_POINT ( 'NONE',  ( -158.9499999999999886, 0.000000000000000000, -119.4500000000000028 ) ) ;
#89 = ORIENTED_EDGE ( 'NONE', *, *, #194, .T. ) ;
#90 = ADVANCED_FACE ( 'NONE', ( #264 ), #34, .F. ) ;
#91 = CARTESIAN_POINT ( 'NONE',  ( 158.9499999999999886, 0.000000000000000000, 119.4500000000000028 ) ) ;
#92 = VERTEX_POINT ( 'NONE', #134 ) ;
#93 = CC_DESIGN_PERSON_AND_ORGANIZATION_ASSIGNMENT ( #9, #12, ( #1 ) ) ;
#94 = CARTESIAN_POINT ( 'NONE',  ( -138.0327499999999930, 91.09999999999999432, 98.50000000000000000 ) ) ;
#95 = ORIENTED_EDGE ( 'NONE', *, *, #175, .F. ) ;
#96 = APPROVAL_PERSON_ORGANIZATION ( #108, #139, #111 ) ;
#97 = ORIENTED_EDGE ( 'NONE', *, *, #194, .F. ) ;
#98 = EDGE_CURVE ( 'NONE', #92, #287, #352, .T. ) ;
#99 = DIRECTION ( 'NONE',  ( -0.000000000000000000, -1.000000000000000000, -0.000000000000000000 ) ) ;
#100 = LINE ( 'NONE', #38, #110 ) ;
#101 = AXIS2_PLACEMENT_3D ( 'NONE', #220, #238, #7 ) ;
#102 = PERSON_AND_ORGANIZATION_ROLE ( 'design_owner' ) ;
#103 = VECTOR ( 'NONE', #339, 1000.000000000000000 ) ;
#104 = FACE_OUTER_BOUND ( 'NONE', #330, .T. ) ;
#105 = PLANE ( 'NONE',  #187 ) ;
#106 = PERSON_AND_ORGANIZATION ( #116, #311 ) ;
#107 = PLANE ( 'NONE',  #70 ) ;
#108 = PERSON_AND_ORGANIZATION ( #116, #311 ) ;
#109 = LINE ( 'NONE', #232, #42 ) ;
#110 = VECTOR ( 'NONE', #71, 1000.000000000000000 ) ;
#111 = APPROVAL_ROLE ( '' ) ;
#112 = ORIENTED_EDGE ( 'NONE', *, *, #205, .T. ) ;
#113 = APPLICATION_CONTEXT ( 'configuration controlled 3d designs of mechanical parts and assemblies' ) ;
#114 = EDGE_CURVE ( 'NONE', #74, #62, #209, .T. ) ;
#115 = VERTEX_POINT ( 'NONE', #235 ) ;
#116 = PERSON ( '未指定', '未指定', '未指定', ('未指定'), ('未指定'), ('未指定') ) ;
#117 = DIRECTION ( 'NONE',  ( 1.000000000000000000, 0.000000000000000000, 0.000000000000000000 ) ) ;
#118 = ORIENTED_EDGE ( 'NONE', *, *, #127, .T. ) ;
#119 = CARTESIAN_POINT ( 'NONE',  ( 158.9499999999999886, 91.09999999999999432, 119.4500000000000028 ) ) ;
#120 = ORIENTED_EDGE ( 'NONE', *, *, #82, .F. ) ;
#121 = CARTESIAN_POINT ( 'NONE',  ( 138.0327499999999930, 91.09999999999999432, 98.50000000000000000 ) ) ;
#122 = ADVANCED_BREP_SHAPE_REPRESENTATION ( 'FN-ENC-003_open-tray-layout-reference_R0.4', ( #28, #174 ), #368 ) ;
#123 = ORIENTED_EDGE ( 'NONE', *, *, #329, .F. ) ;
#124 = LINE ( 'NONE', #377, #10 ) ;
#125 = VERTEX_POINT ( 'NONE', #289 ) ;
#126 = ORIENTED_EDGE ( 'NONE', *, *, #226, .T. ) ;
#127 = EDGE_CURVE ( 'NONE', #125, #74, #36, .T. ) ;
#128 = CARTESIAN_POINT ( 'NONE',  ( -158.9499999999999886, 0.000000000000000000, 119.4500000000000028 ) ) ;
#129 = DIRECTION ( 'NONE',  ( 1.000000000000000000, 0.000000000000000000, -0.000000000000000000 ) ) ;
#130 = CALENDAR_DATE ( 2026, 26, 7 ) ;
#131 = DIRECTION ( 'NONE',  ( 0.000000000000000000, 0.000000000000000000, -1.000000000000000000 ) ) ;
#132 = CARTESIAN_POINT ( 'NONE',  ( 0.000000000000000000, 0.000000000000000000, 0.000000000000000000 ) ) ;
#133 = CC_DESIGN_APPROVAL ( #139, ( #1 ) ) ;
#134 = CARTESIAN_POINT ( 'NONE',  ( -158.9499999999999886, 91.09999999999999432, -119.4500000000000028 ) ) ;
#135 = APPROVAL_ROLE ( '' ) ;
#136 = FACE_BOUND ( 'NONE', #172, .T. ) ;
#137 = SHAPE_DEFINITION_REPRESENTATION ( #229, #122 ) ;
#138 = VECTOR ( 'NONE', #186, 1000.000000000000000 ) ;
#139 = APPROVAL ( #291, '未指定' ) ;
#140 = FACE_OUTER_BOUND ( 'NONE', #151, .T. ) ;
#141 = EDGE_CURVE ( 'NONE', #376, #363, #323, .T. ) ;
#142 = CARTESIAN_POINT ( 'NONE',  ( 158.9499999999999886, 3.000000000000000000, 119.4500000000000028 ) ) ;
#143 = LOCAL_TIME ( 19, 25, 20.00000000000000000, #159 ) ;
#144 = ORIENTED_EDGE ( 'NONE', *, *, #146, .T. ) ;
#145 = DESIGN_CONTEXT ( 'detailed design', #113, 'design' ) ;
#146 = EDGE_CURVE ( 'NONE', #199, #115, #296, .T. ) ;
#147 = LINE ( 'NONE', #91, #325 ) ;
#148 = ORIENTED_EDGE ( 'NONE', *, *, #292, .T. ) ;
#149 = EDGE_CURVE ( 'NONE', #199, #338, #13, .T. ) ;
#150 = VECTOR ( 'NONE', #320, 1000.000000000000000 ) ;
#151 = EDGE_LOOP ( 'NONE', ( #340, #120, #148, #89 ) ) ;
#152 = EDGE_LOOP ( 'NONE', ( #284, #225, #53, #301 ) ) ;
#153 = ORIENTED_EDGE ( 'NONE', *, *, #98, .T. ) ;
#154 = CARTESIAN_POINT ( 'NONE',  ( 138.0327499999999930, 91.09999999999999432, 98.50000000000000000 ) ) ;
#155 = VECTOR ( 'NONE', #189, 1000.000000000000000 ) ;
#156 = SECURITY_CLASSIFICATION ( '', '', #211 ) ;
#157 = CARTESIAN_POINT ( 'NONE',  ( -158.9499999999999886, 0.000000000000000000, -119.4500000000000028 ) ) ;
#158 = DIRECTION ( 'NONE',  ( 0.000000000000000000, 0.000000000000000000, -1.000000000000000000 ) ) ;
#159 = COORDINATED_UNIVERSAL_TIME_OFFSET ( 8, 0, .AHEAD. ) ;
#160 = APPROVAL ( #295, '未指定' ) ;
#161 = DIRECTION ( 'NONE',  ( 0.000000000000000000, -0.000000000000000000, -1.000000000000000000 ) ) ;
#162 = PERSON_AND_ORGANIZATION ( #116, #311 ) ;
#163 = CARTESIAN_POINT ( 'NONE',  ( 0.000000000000000000, 3.000000000000000000, -98.50000000000000000 ) ) ;
#164 = APPROVAL_DATE_TIME ( #358, #313 ) ;
#165 = ORIENTED_EDGE ( 'NONE', *, *, #292, .F. ) ;
#166 = CARTESIAN_POINT ( 'NONE',  ( -158.9499999999999886, 0.000000000000000000, 119.4500000000000028 ) ) ;
#167 = AXIS2_PLACEMENT_3D ( 'NONE', #181, #262, #161 ) ;
#168 = DIRECTION ( 'NONE',  ( 0.000000000000000000, 0.000000000000000000, 1.000000000000000000 ) ) ;
#169 = ORIENTED_EDGE ( 'NONE', *, *, #334, .F. ) ;
#170 = CC_DESIGN_PERSON_AND_ORGANIZATION_ASSIGNMENT ( #356, #331, ( #35 ) ) ;
#171 = FACE_OUTER_BOUND ( 'NONE', #152, .T. ) ;
#172 = EDGE_LOOP ( 'NONE', ( #252, #165, #272, #310 ) ) ;
#173 = VERTEX_POINT ( 'NONE', #351 ) ;
#174 = AXIS2_PLACEMENT_3D ( 'NONE', #132, #263, #285 ) ;
#175 = EDGE_CURVE ( 'NONE', #378, #62, #5, .T. ) ;
#176 = ORIENTED_EDGE ( 'NONE', *, *, #114, .F. ) ;
#177 = ORIENTED_EDGE ( 'NONE', *, *, #44, .F. ) ;
#178 = CARTESIAN_POINT ( 'NONE',  ( -158.9499999999999886, 3.000000000000000000, 119.4500000000000028 ) ) ;
#179 = CLOSED_SHELL ( 'NONE', ( #6, #90, #369, #51, #346, #46, #259, #275, #180, #20, #192 ) ) ;
#180 = ADVANCED_FACE ( 'NONE', ( #140 ), #365, .T. ) ;
#181 = CARTESIAN_POINT ( 'NONE',  ( 0.000000000000000000, 91.09999999999999432, 0.000000000000000000 ) ) ;
#182 = APPLICATION_PROTOCOL_DEFINITION ( 'international standard', 'config_control_design', 1994, #113 ) ;
#183 = DIRECTION ( 'NONE',  ( 1.000000000000000000, -0.000000000000000000, 0.000000000000000000 ) ) ;
#184 = PERSON_AND_ORGANIZATION ( #116, #311 ) ;
#185 = APPLICATION_CONTEXT ( 'configuration controlled 3d designs of mechanical parts and assemblies' ) ;
#186 = DIRECTION ( 'NONE',  ( -1.000000000000000000, -0.000000000000000000, -0.000000000000000000 ) ) ;
#187 = AXIS2_PLACEMENT_3D ( 'NONE', #321, #294, #273 ) ;
#188 = LOCAL_TIME ( 19, 25, 20.00000000000000000, #237 ) ;
#189 = DIRECTION ( 'NONE',  ( -0.000000000000000000, -1.000000000000000000, -0.000000000000000000 ) ) ;
#190 = LINE ( 'NONE', #166, #221 ) ;
#191 = ORIENTED_EDGE ( 'NONE', *, *, #141, .F. ) ;
#192 = ADVANCED_FACE ( 'NONE', ( #333 ), #300, .F. ) ;
#193 = VECTOR ( 'NONE', #49, 1000.000000000000000 ) ;
#194 = EDGE_CURVE ( 'NONE', #58, #74, #270, .T. ) ;
#195 = DIRECTION ( 'NONE',  ( 0.000000000000000000, 0.000000000000000000, -1.000000000000000000 ) ) ;
#196 = VECTOR ( 'NONE', #336, 1000.000000000000000 ) ;
#197 = ORIENTED_EDGE ( 'NONE', *, *, #355, .T. ) ;
#198 = DIRECTION ( 'NONE',  ( -1.000000000000000000, 0.000000000000000000, 0.000000000000000000 ) ) ;
#199 = VERTEX_POINT ( 'NONE', #48 ) ;
#200 = ORIENTED_EDGE ( 'NONE', *, *, #149, .T. ) ;
#201 = DIRECTION ( 'NONE',  ( -0.000000000000000000, -0.000000000000000000, 1.000000000000000000 ) ) ;
#202 = ORIENTED_EDGE ( 'NONE', *, *, #98, .F. ) ;
#203 = VECTOR ( 'NONE', #249, 1000.000000000000000 ) ;
#204 = ORIENTED_EDGE ( 'NONE', *, *, #175, .T. ) ;
#205 = EDGE_CURVE ( 'NONE', #58, #378, #73, .T. ) ;
#206 = DIRECTION ( 'NONE',  ( 0.000000000000000000, 0.000000000000000000, -1.000000000000000000 ) ) ;
#207 = LINE ( 'NONE', #359, #155 ) ;
#208 = VECTOR ( 'NONE', #201, 1000.000000000000000 ) ;
#209 = LINE ( 'NONE', #65, #64 ) ;
#210 = DIRECTION ( 'NONE',  ( -1.000000000000000000, 0.000000000000000000, 0.000000000000000000 ) ) ;
#211 = SECURITY_CLASSIFICATION_LEVEL ( 'unclassified' ) ;
#212 = EDGE_CURVE ( 'NONE', #287, #27, #18, .T. ) ;
#213 = CARTESIAN_POINT ( 'NONE',  ( -138.0327499999999930, 3.000000000000000000, -98.50000000000000000 ) ) ;
#214 = COORDINATED_UNIVERSAL_TIME_OFFSET ( 8, 0, .AHEAD. ) ;
#215 = ORIENTED_EDGE ( 'NONE', *, *, #327, .F. ) ;
#216 = CC_DESIGN_DATE_AND_TIME_ASSIGNMENT ( #234, #269, ( #1 ) ) ;
#217 = AXIS2_PLACEMENT_3D ( 'NONE', #293, #317, #129 ) ;
#218 = DIRECTION ( 'NONE',  ( 0.000000000000000000, 0.000000000000000000, 1.000000000000000000 ) ) ;
#219 = CARTESIAN_POINT ( 'NONE',  ( 138.0327499999999930, 3.000000000000030198, 98.50000000000000000 ) ) ;
#220 = CARTESIAN_POINT ( 'NONE',  ( -158.9499999999999886, 3.000000000000000000, 119.4500000000000028 ) ) ;
#221 = VECTOR ( 'NONE', #78, 1000.000000000000000 ) ;
#222 = FACE_OUTER_BOUND ( 'NONE', #314, .T. ) ;
#223 = ORIENTED_EDGE ( 'NONE', *, *, #355, .F. ) ;
#224 =( NAMED_UNIT ( * ) SI_UNIT ( $, .STERADIAN. ) SOLID_ANGLE_UNIT ( ) );
#225 = ORIENTED_EDGE ( 'NONE', *, *, #56, .F. ) ;
#226 = EDGE_CURVE ( 'NONE', #27, #256, #190, .T. ) ;
#227 = LINE ( 'NONE', #60, #103 ) ;
#228 = EDGE_LOOP ( 'NONE', ( #176, #97, #112, #204 ) ) ;
#229 = PRODUCT_DEFINITION_SHAPE ( 'NONE', 'NONE',  #1 ) ;
#230 = ORIENTED_EDGE ( 'NONE', *, *, #212, .T. ) ;
#231 = CARTESIAN_POINT ( 'NONE',  ( -138.0327499999999930, 91.09999999999999432, 98.50000000000000000 ) ) ;
#232 = CARTESIAN_POINT ( 'NONE',  ( 158.9499999999999886, 3.000000000000000000, -119.4500000000000028 ) ) ;
#233 = CARTESIAN_POINT ( 'NONE',  ( -138.0327499999999930, 3.000000000000030198, 98.50000000000000000 ) ) ;
#234 = DATE_AND_TIME ( #39, #303 ) ;
#235 = CARTESIAN_POINT ( 'NONE',  ( 138.0327499999999930, 91.09999999999999432, -98.50000000000000000 ) ) ;
#236 = EDGE_CURVE ( 'NONE', #287, #345, #274, .T. ) ;
#237 = COORDINATED_UNIVERSAL_TIME_OFFSET ( 8, 0, .AHEAD. ) ;
#238 = DIRECTION ( 'NONE',  ( 1.000000000000000000, -0.000000000000000000, 0.000000000000000000 ) ) ;
#239 = COORDINATED_UNIVERSAL_TIME_OFFSET ( 8, 0, .AHEAD. ) ;
#240 = ORIENTED_EDGE ( 'NONE', *, *, #25, .T. ) ;
#241 = CC_DESIGN_APPROVAL ( #160, ( #35 ) ) ;
#242 = CARTESIAN_POINT ( 'NONE',  ( -158.9499999999999886, 3.000000000000000000, 119.4500000000000028 ) ) ;
#243 = ORIENTED_EDGE ( 'NONE', *, *, #25, .F. ) ;
#244 = AXIS2_PLACEMENT_3D ( 'NONE', #178, #131, #11 ) ;
#245 = VECTOR ( 'NONE', #367, 1000.000000000000000 ) ;
#246 = PLANE ( 'NONE',  #257 ) ;
#247 = CARTESIAN_POINT ( 'NONE',  ( 0.000000000000000000, 3.000000000000000000, 0.000000000000000000 ) ) ;
#248 = UNCERTAINTY_MEASURE_WITH_UNIT (LENGTH_MEASURE( 1.000000000000000082E-05 ), #254, 'distance_accuracy_value', 'NONE');
#249 = DIRECTION ( 'NONE',  ( 1.000000000000000000, 0.000000000000000000, 0.000000000000000000 ) ) ;
#250 = FACE_OUTER_BOUND ( 'NONE', #350, .T. ) ;
#251 = CARTESIAN_POINT ( 'NONE',  ( -138.0327499999999930, 91.09999999999999432, 98.50000000000000000 ) ) ;
#252 = ORIENTED_EDGE ( 'NONE', *, *, #205, .F. ) ;
#253 = ORIENTED_EDGE ( 'NONE', *, *, #349, .T. ) ;
#254 =( LENGTH_UNIT ( ) NAMED_UNIT ( * ) SI_UNIT ( .MILLI., .METRE. ) );
#255 = ORIENTED_EDGE ( 'NONE', *, *, #236, .T. ) ;
#256 = VERTEX_POINT ( 'NONE', #373 ) ;
#257 = AXIS2_PLACEMENT_3D ( 'NONE', #142, #281, #168 ) ;
#258 = DIRECTION ( 'NONE',  ( -0.000000000000000000, -1.000000000000000000, -0.000000000000000000 ) ) ;
#259 = ADVANCED_FACE ( 'NONE', ( #87 ), #105, .T. ) ;
#260 = LINE ( 'NONE', #8, #3 ) ;
#261 = DATE_AND_TIME ( #364, #143 ) ;
#262 = DIRECTION ( 'NONE',  ( 0.000000000000000000, -1.000000000000000000, 0.000000000000000000 ) ) ;
#263 = DIRECTION ( 'NONE',  ( 0.000000000000000000, 0.000000000000000000, 1.000000000000000000 ) ) ;
#264 = FACE_OUTER_BOUND ( 'NONE', #280, .T. ) ;
#265 = VECTOR ( 'NONE', #99, 1000.000000000000000 ) ;
#266 = APPROVAL_PERSON_ORGANIZATION ( #162, #313, #135 ) ;
#267 = COORDINATED_UNIVERSAL_TIME_OFFSET ( 8, 0, .AHEAD. ) ;
#268 = DIRECTION ( 'NONE',  ( 0.000000000000000000, 0.000000000000000000, -1.000000000000000000 ) ) ;
#269 = DATE_TIME_ROLE ( 'creation_date' ) ;
#270 = LINE ( 'NONE', #361, #193 ) ;
#271 = DIRECTION ( 'NONE',  ( -0.000000000000000000, -0.000000000000000000, 1.000000000000000000 ) ) ;
#272 = ORIENTED_EDGE ( 'NONE', *, *, #146, .F. ) ;
#273 = DIRECTION ( 'NONE',  ( -1.000000000000000000, 0.000000000000000000, -0.000000000000000000 ) ) ;
#274 = LINE ( 'NONE', #21, #245 ) ;
#275 = ADVANCED_FACE ( 'NONE', ( #222 ), #24, .T. ) ;
#276 = PRODUCT_RELATED_PRODUCT_CATEGORY ( 'detail', '', ( #79 ) ) ;
#277 = VECTOR ( 'NONE', #258, 1000.000000000000000 ) ;
#278 = PLANE ( 'NONE',  #43 ) ;
#279 = CARTESIAN_POINT ( 'NONE',  ( 158.9499999999999886, 0.000000000000000000, -119.4500000000000028 ) ) ;
#280 = EDGE_LOOP ( 'NONE', ( #126, #177, #366, #230 ) ) ;
#281 = DIRECTION ( 'NONE',  ( -1.000000000000000000, 0.000000000000000000, 0.000000000000000000 ) ) ;
#282 = ORIENTED_EDGE ( 'NONE', *, *, #56, .T. ) ;
#283 = EDGE_CURVE ( 'NONE', #378, #199, #344, .T. ) ;
#284 = ORIENTED_EDGE ( 'NONE', *, *, #329, .T. ) ;
#285 = DIRECTION ( 'NONE',  ( 1.000000000000000000, 0.000000000000000000, 0.000000000000000000 ) ) ;
#286 = EDGE_LOOP ( 'NONE', ( #169, #95, #83, #200 ) ) ;
#287 = VERTEX_POINT ( 'NONE', #374 ) ;
#288 = VECTOR ( 'NONE', #117, 1000.000000000000000 ) ;
#289 = CARTESIAN_POINT ( 'NONE',  ( 138.0327499999999930, 3.000000000000030198, -98.50000000000000000 ) ) ;
#290 = FACE_OUTER_BOUND ( 'NONE', #228, .T. ) ;
#291 = APPROVAL_STATUS ( 'not_yet_approved' ) ;
#292 = EDGE_CURVE ( 'NONE', #115, #58, #57, .T. ) ;
#293 = CARTESIAN_POINT ( 'NONE',  ( -158.9499999999999886, 3.000000000000000000, -119.4500000000000028 ) ) ;
#294 = DIRECTION ( 'NONE',  ( 0.000000000000000000, 0.000000000000000000, -1.000000000000000000 ) ) ;
#295 = APPROVAL_STATUS ( 'not_yet_approved' ) ;
#296 = LINE ( 'NONE', #45, #302 ) ;
#297 = APPROVAL_PERSON_ORGANIZATION ( #16, #160, #47 ) ;
#298 = LOCAL_TIME ( 19, 25, 20.00000000000000000, #239 ) ;
#299 = DATE_AND_TIME ( #319, #298 ) ;
#300 = PLANE ( 'NONE',  #347 ) ;
#301 = ORIENTED_EDGE ( 'NONE', *, *, #44, .T. ) ;
#302 = VECTOR ( 'NONE', #268, 1000.000000000000000 ) ;
#303 = LOCAL_TIME ( 19, 25, 20.00000000000000000, #267 ) ;
#304 = CC_DESIGN_PERSON_AND_ORGANIZATION_ASSIGNMENT ( #322, #68, ( #156 ) ) ;
#305 = LINE ( 'NONE', #84, #288 ) ;
#306 = DIRECTION ( 'NONE',  ( 0.000000000000000000, -0.000000000000000000, -1.000000000000000000 ) ) ;
#307 = ORIENTED_EDGE ( 'NONE', *, *, #334, .T. ) ;
#308 = CARTESIAN_POINT ( 'NONE',  ( -158.9499999999999886, 0.000000000000000000, 119.4500000000000028 ) ) ;
#309 = ORIENTED_EDGE ( 'NONE', *, *, #318, .T. ) ;
#310 = ORIENTED_EDGE ( 'NONE', *, *, #283, .F. ) ;
#311 = ORGANIZATION ( '未指定', '未指定', '' ) ;
#312 = ORIENTED_EDGE ( 'NONE', *, *, #141, .T. ) ;
#313 = APPROVAL ( #37, '未指定' ) ;
#314 = EDGE_LOOP ( 'NONE', ( #243, #343, #144, #379 ) ) ;
#315 = DIRECTION ( 'NONE',  ( -0.000000000000000000, -1.000000000000000000, -0.000000000000000000 ) ) ;
#316 = VECTOR ( 'NONE', #371, 1000.000000000000000 ) ;
#317 = DIRECTION ( 'NONE',  ( 0.000000000000000000, 0.000000000000000000, 1.000000000000000000 ) ) ;
#318 = EDGE_CURVE ( 'NONE', #345, #173, #342, .T. ) ;
#319 = CALENDAR_DATE ( 2026, 26, 7 ) ;
#320 = DIRECTION ( 'NONE',  ( -0.000000000000000000, -0.000000000000000000, 1.000000000000000000 ) ) ;
#321 = CARTESIAN_POINT ( 'NONE',  ( -138.0327499999999930, 91.09999999999999432, 98.50000000000000000 ) ) ;
#322 = PERSON_AND_ORGANIZATION ( #116, #311 ) ;
#323 = LINE ( 'NONE', #157, #138 ) ;
#324 = PLANE ( 'NONE',  #217 ) ;
#325 = VECTOR ( 'NONE', #195, 1000.000000000000000 ) ;
#326 = MECHANICAL_CONTEXT ( 'NONE', #185, 'mechanical' ) ;
#327 = EDGE_CURVE ( 'NONE', #363, #27, #26, .T. ) ;
#328 = DIRECTION ( 'NONE',  ( 0.000000000000000000, -1.000000000000000000, 0.000000000000000000 ) ) ;
#329 = EDGE_CURVE ( 'NONE', #256, #376, #147, .T. ) ;
#330 = EDGE_LOOP ( 'NONE', ( #153, #255, #309, #197 ) ) ;
#331 = PERSON_AND_ORGANIZATION_ROLE ( 'creator' ) ;
#332 = DIRECTION ( 'NONE',  ( 1.000000000000000000, 0.000000000000000000, -0.000000000000000000 ) ) ;
#333 = FACE_OUTER_BOUND ( 'NONE', #86, .T. ) ;
#334 = EDGE_CURVE ( 'NONE', #62, #338, #305, .T. ) ;
#335 = DIRECTION ( 'NONE',  ( 0.000000000000000000, -0.000000000000000000, -1.000000000000000000 ) ) ;
#336 = DIRECTION ( 'NONE',  ( 0.000000000000000000, 0.000000000000000000, -1.000000000000000000 ) ) ;
#337 = CARTESIAN_POINT ( 'NONE',  ( 158.9499999999999886, 91.09999999999999432, 119.4500000000000028 ) ) ;
#338 = VERTEX_POINT ( 'NONE', #219 ) ;
#339 = DIRECTION ( 'NONE',  ( -1.000000000000000000, -0.000000000000000000, -0.000000000000000000 ) ) ;
#340 = ORIENTED_EDGE ( 'NONE', *, *, #127, .F. ) ;
#341 = CC_DESIGN_DATE_AND_TIME_ASSIGNMENT ( #75, #41, ( #156 ) ) ;
#342 = LINE ( 'NONE', #119, #196 ) ;
#343 = ORIENTED_EDGE ( 'NONE', *, *, #149, .F. ) ;
#344 = LINE ( 'NONE', #94, #203 ) ;
#345 = VERTEX_POINT ( 'NONE', #337 ) ;
#346 = ADVANCED_FACE ( 'NONE', ( #80 ), #278, .T. ) ;
#347 = AXIS2_PLACEMENT_3D ( 'NONE', #247, #328, #335 ) ;
#348 = LOCAL_TIME ( 19, 25, 20.00000000000000000, #214 ) ;
#349 = EDGE_CURVE ( 'NONE', #92, #363, #124, .T. ) ;
#350 = EDGE_LOOP ( 'NONE', ( #61, #2, #202, #253 ) ) ;
#351 = CARTESIAN_POINT ( 'NONE',  ( 158.9499999999999886, 91.09999999999999432, -119.4500000000000028 ) ) ;
#352 = LINE ( 'NONE', #354, #150 ) ;
#353 = AXIS2_PLACEMENT_3D ( 'NONE', #370, #81, #332 ) ;
#354 = CARTESIAN_POINT ( 'NONE',  ( -158.9499999999999886, 91.09999999999999432, 119.4500000000000028 ) ) ;
#355 = EDGE_CURVE ( 'NONE', #173, #92, #227, .T. ) ;
#356 = PERSON_AND_ORGANIZATION ( #116, #311 ) ;
#357 = FACE_OUTER_BOUND ( 'NONE', #32, .T. ) ;
#358 = DATE_AND_TIME ( #130, #188 ) ;
#359 = CARTESIAN_POINT ( 'NONE',  ( 138.0327499999999930, 91.09999999999999432, -98.50000000000000000 ) ) ;
#360 = CALENDAR_DATE ( 2026, 26, 7 ) ;
#361 = CARTESIAN_POINT ( 'NONE',  ( -138.0327499999999930, 91.09999999999999432, -98.50000000000000000 ) ) ;
#362 = CC_DESIGN_SECURITY_CLASSIFICATION ( #156, ( #35 ) ) ;
#363 = VERTEX_POINT ( 'NONE', #88 ) ;
#364 = CALENDAR_DATE ( 2026, 26, 7 ) ;
#365 = PLANE ( 'NONE',  #353 ) ;
#366 = ORIENTED_EDGE ( 'NONE', *, *, #236, .F. ) ;
#367 = DIRECTION ( 'NONE',  ( 1.000000000000000000, 0.000000000000000000, 0.000000000000000000 ) ) ;
#368 =( GEOMETRIC_REPRESENTATION_CONTEXT ( 3 ) GLOBAL_UNCERTAINTY_ASSIGNED_CONTEXT ( ( #248 ) ) GLOBAL_UNIT_ASSIGNED_CONTEXT ( ( #254, #29, #224 ) ) REPRESENTATION_CONTEXT ( 'NONE', 'WORKASPACE' ) );
#369 = ADVANCED_FACE ( 'NONE', ( #171 ), #246, .F. ) ;
#370 = CARTESIAN_POINT ( 'NONE',  ( -138.0327499999999930, 91.09999999999999432, -98.50000000000000000 ) ) ;
#371 = DIRECTION ( 'NONE',  ( -1.000000000000000000, -0.000000000000000000, -0.000000000000000000 ) ) ;
#372 = PLANE ( 'NONE',  #101 ) ;
#373 = CARTESIAN_POINT ( 'NONE',  ( 158.9499999999999886, 0.000000000000000000, 119.4500000000000028 ) ) ;
#374 = CARTESIAN_POINT ( 'NONE',  ( -158.9499999999999886, 91.09999999999999432, 119.4500000000000028 ) ) ;
#375 = CC_DESIGN_PERSON_AND_ORGANIZATION_ASSIGNMENT ( #106, #14, ( #35 ) ) ;
#376 = VERTEX_POINT ( 'NONE', #279 ) ;
#377 = CARTESIAN_POINT ( 'NONE',  ( -158.9499999999999886, 3.000000000000000000, -119.4500000000000028 ) ) ;
#378 = VERTEX_POINT ( 'NONE', #251 ) ;
#379 = ORIENTED_EDGE ( 'NONE', *, *, #82, .T. ) ;
ENDSEC;
END-ISO-10303-21;
