ISO-10303-21;
HEADER;
FILE_DESCRIPTION (( 'STEP AP203' ),
    '1' );
FILE_NAME ('FN-ENV-001_carrier-installed-height_R0.4.STEP',
    '2026-07-26T11:25:49',
    ( '' ),
    ( '' ),
    'SwSTEP 2.0',
    'SolidWorks 2022',
    '' );
FILE_SCHEMA (( 'CONFIG_CONTROL_DESIGN' ));
ENDSEC;

DATA;
#1 = CC_DESIGN_DATE_AND_TIME_ASSIGNMENT ( #31, #62, ( #73 ) ) ;
#2 = EDGE_LOOP ( 'NONE', ( #137, #71, #122, #113 ) ) ;
#3 = ORIENTED_EDGE ( 'NONE', *, *, #200, .F. ) ;
#4 = CC_DESIGN_APPROVAL ( #47, ( #73 ) ) ;
#5 = ORIENTED_EDGE ( 'NONE', *, *, #120, .T. ) ;
#6 = DIRECTION ( 'NONE',  ( -0.000000000000000000, -1.000000000000000000, -0.000000000000000000 ) ) ;
#7 = DESIGN_CONTEXT ( 'detailed design', #215, 'design' ) ;
#8 = LINE ( 'NONE', #233, #187 ) ;
#9 = LINE ( 'NONE', #234, #72 ) ;
#10 = EDGE_CURVE ( 'NONE', #143, #229, #205, .T. ) ;
#11 = PLANE ( 'NONE',  #203 ) ;
#12 = CARTESIAN_POINT ( 'NONE',  ( -57.50000000000000000, 35.00000000000000000, 85.00000000000000000 ) ) ;
#13 = EDGE_CURVE ( 'NONE', #41, #143, #24, .T. ) ;
#14 = APPROVAL_STATUS ( 'not_yet_approved' ) ;
#15 = CALENDAR_DATE ( 2026, 26, 7 ) ;
#16 =( NAMED_UNIT ( * ) SI_UNIT ( $, .STERADIAN. ) SOLID_ANGLE_UNIT ( ) );
#17 =( GEOMETRIC_REPRESENTATION_CONTEXT ( 3 ) GLOBAL_UNCERTAINTY_ASSIGNED_CONTEXT ( ( #157 ) ) GLOBAL_UNIT_ASSIGNED_CONTEXT ( ( #161, #65, #16 ) ) REPRESENTATION_CONTEXT ( 'NONE', 'WORKASPACE' ) );
#18 = FACE_OUTER_BOUND ( 'NONE', #92, .T. ) ;
#19 = AXIS2_PLACEMENT_3D ( 'NONE', #237, #52, #197 ) ;
#20 = CALENDAR_DATE ( 2026, 26, 7 ) ;
#21 = CARTESIAN_POINT ( 'NONE',  ( -57.50000000000000000, 35.00000000000000000, -85.00000000000000000 ) ) ;
#22 = CALENDAR_DATE ( 2026, 26, 7 ) ;
#23 = EDGE_LOOP ( 'NONE', ( #144, #167, #40, #226 ) ) ;
#24 = LINE ( 'NONE', #108, #198 ) ;
#25 = LINE ( 'NONE', #171, #179 ) ;
#26 = CARTESIAN_POINT ( 'NONE',  ( -57.50000000000000000, 0.000000000000000000, 85.00000000000000000 ) ) ;
#27 = ADVANCED_FACE ( 'NONE', ( #18 ), #185, .F. ) ;
#28 = DIRECTION ( 'NONE',  ( 0.000000000000000000, 0.000000000000000000, -1.000000000000000000 ) ) ;
#29 = DIRECTION ( 'NONE',  ( -1.000000000000000000, 0.000000000000000000, 0.000000000000000000 ) ) ;
#30 = CC_DESIGN_APPROVAL ( #145, ( #66 ) ) ;
#31 = DATE_AND_TIME ( #15, #86 ) ;
#32 = PERSON_AND_ORGANIZATION ( #162, #180 ) ;
#33 = CC_DESIGN_PERSON_AND_ORGANIZATION_ASSIGNMENT ( #85, #106, ( #66 ) ) ;
#34 = VECTOR ( 'NONE', #60, 1000.000000000000000 ) ;
#35 = CALENDAR_DATE ( 2026, 26, 7 ) ;
#36 = COORDINATED_UNIVERSAL_TIME_OFFSET ( 8, 0, .AHEAD. ) ;
#37 = ORIENTED_EDGE ( 'NONE', *, *, #94, .T. ) ;
#38 = ADVANCED_BREP_SHAPE_REPRESENTATION ( 'FN-ENV-001_carrier-installed-height_R0.4', ( #134, #19 ), #17 ) ;
#39 = ORIENTED_EDGE ( 'NONE', *, *, #10, .T. ) ;
#40 = ORIENTED_EDGE ( 'NONE', *, *, #83, .T. ) ;
#41 = VERTEX_POINT ( 'NONE', #69 ) ;
#42 = CC_DESIGN_PERSON_AND_ORGANIZATION_ASSIGNMENT ( #224, #158, ( #64 ) ) ;
#43 = VECTOR ( 'NONE', #152, 1000.000000000000000 ) ;
#44 = LINE ( 'NONE', #170, #206 ) ;
#45 = FACE_OUTER_BOUND ( 'NONE', #140, .T. ) ;
#46 = DIRECTION ( 'NONE',  ( -0.000000000000000000, -1.000000000000000000, -0.000000000000000000 ) ) ;
#47 = APPROVAL ( #14, '未指定' ) ;
#48 = CLOSED_SHELL ( 'NONE', ( #194, #210, #91, #27, #213, #191 ) ) ;
#49 = APPLICATION_PROTOCOL_DEFINITION ( 'international standard', 'config_control_design', 1994, #215 ) ;
#50 = CARTESIAN_POINT ( 'NONE',  ( -57.50000000000000000, 0.000000000000000000, -85.00000000000000000 ) ) ;
#51 = APPROVAL_STATUS ( 'not_yet_approved' ) ;
#52 = DIRECTION ( 'NONE',  ( 0.000000000000000000, 0.000000000000000000, 1.000000000000000000 ) ) ;
#53 = ORIENTED_EDGE ( 'NONE', *, *, #155, .F. ) ;
#54 = VERTEX_POINT ( 'NONE', #227 ) ;
#55 = VECTOR ( 'NONE', #102, 1000.000000000000000 ) ;
#56 = ORIENTED_EDGE ( 'NONE', *, *, #236, .F. ) ;
#57 = EDGE_LOOP ( 'NONE', ( #5, #93, #56, #39 ) ) ;
#58 = CARTESIAN_POINT ( 'NONE',  ( 0.000000000000000000, 35.00000000000000000, 0.000000000000000000 ) ) ;
#59 = CARTESIAN_POINT ( 'NONE',  ( -57.50000000000000000, 35.00000000000000000, -85.00000000000000000 ) ) ;
#60 = DIRECTION ( 'NONE',  ( 0.000000000000000000, 0.000000000000000000, -1.000000000000000000 ) ) ;
#61 = AXIS2_PLACEMENT_3D ( 'NONE', #12, #189, #28 ) ;
#62 = DATE_TIME_ROLE ( 'creation_date' ) ;
#63 = PERSON_AND_ORGANIZATION_ROLE ( 'creator' ) ;
#64 = PRODUCT ( 'FN-ENV-001_carrier-installed-height_R0.4', 'FN-ENV-001_carrier-installed-height_R0.4', '', ( #100 ) ) ;
#65 =( NAMED_UNIT ( * ) PLANE_ANGLE_UNIT ( ) SI_UNIT ( $, .RADIAN. ) );
#66 = SECURITY_CLASSIFICATION ( '', '', #178 ) ;
#67 = ORIENTED_EDGE ( 'NONE', *, *, #136, .T. ) ;
#68 = CC_DESIGN_PERSON_AND_ORGANIZATION_ASSIGNMENT ( #154, #63, ( #73 ) ) ;
#69 = CARTESIAN_POINT ( 'NONE',  ( 57.50000000000000000, 35.00000000000000000, -85.00000000000000000 ) ) ;
#70 = VECTOR ( 'NONE', #188, 1000.000000000000000 ) ;
#71 = ORIENTED_EDGE ( 'NONE', *, *, #136, .F. ) ;
#72 = VECTOR ( 'NONE', #211, 1000.000000000000000 ) ;
#73 = PRODUCT_DEFINITION ( '未知', '', #129, #7 ) ;
#74 = APPROVAL_ROLE ( '' ) ;
#75 = VERTEX_POINT ( 'NONE', #147 ) ;
#76 = CARTESIAN_POINT ( 'NONE',  ( 57.50000000000000000, 0.000000000000000000, 85.00000000000000000 ) ) ;
#77 = DIRECTION ( 'NONE',  ( 0.000000000000000000, -1.000000000000000000, 0.000000000000000000 ) ) ;
#78 = FACE_OUTER_BOUND ( 'NONE', #2, .T. ) ;
#79 = DIRECTION ( 'NONE',  ( 0.000000000000000000, 0.000000000000000000, -1.000000000000000000 ) ) ;
#80 = AXIS2_PLACEMENT_3D ( 'NONE', #21, #88, #165 ) ;
#81 = LOCAL_TIME ( 19, 25, 49.00000000000000000, #36 ) ;
#82 = APPROVAL_ROLE ( '' ) ;
#83 = EDGE_CURVE ( 'NONE', #75, #41, #127, .T. ) ;
#84 = PERSON_AND_ORGANIZATION ( #162, #180 ) ;
#85 = PERSON_AND_ORGANIZATION ( #162, #180 ) ;
#86 = LOCAL_TIME ( 19, 25, 49.00000000000000000, #118 ) ;
#87 = DATE_TIME_ROLE ( 'classification_date' ) ;
#88 = DIRECTION ( 'NONE',  ( 0.000000000000000000, 0.000000000000000000, 1.000000000000000000 ) ) ;
#89 = ORIENTED_EDGE ( 'NONE', *, *, #155, .T. ) ;
#90 = APPROVAL_DATE_TIME ( #168, #145 ) ;
#91 = ADVANCED_FACE ( 'NONE', ( #78 ), #230, .F. ) ;
#92 = EDGE_LOOP ( 'NONE', ( #207, #110, #111, #67 ) ) ;
#93 = ORIENTED_EDGE ( 'NONE', *, *, #94, .F. ) ;
#94 = EDGE_CURVE ( 'NONE', #123, #169, #25, .T. ) ;
#95 = PLANE ( 'NONE',  #175 ) ;
#96 = DIRECTION ( 'NONE',  ( -1.000000000000000000, -0.000000000000000000, -0.000000000000000000 ) ) ;
#97 = CARTESIAN_POINT ( 'NONE',  ( -57.50000000000000000, 35.00000000000000000, 85.00000000000000000 ) ) ;
#98 = CC_DESIGN_DATE_AND_TIME_ASSIGNMENT ( #141, #87, ( #66 ) ) ;
#99 = LINE ( 'NONE', #190, #112 ) ;
#100 = MECHANICAL_CONTEXT ( 'NONE', #177, 'mechanical' ) ;
#101 = LINE ( 'NONE', #201, #55 ) ;
#102 = DIRECTION ( 'NONE',  ( -0.000000000000000000, -0.000000000000000000, 1.000000000000000000 ) ) ;
#103 = APPROVAL ( #51, '未指定' ) ;
#104 = PERSON_AND_ORGANIZATION_ROLE ( 'design_supplier' ) ;
#105 = APPROVAL_PERSON_ORGANIZATION ( #131, #103, #156 ) ;
#106 = PERSON_AND_ORGANIZATION_ROLE ( 'classification_officer' ) ;
#107 = PERSON_AND_ORGANIZATION ( #162, #180 ) ;
#108 = CARTESIAN_POINT ( 'NONE',  ( -57.50000000000000000, 35.00000000000000000, -85.00000000000000000 ) ) ;
#109 = ORIENTED_EDGE ( 'NONE', *, *, #120, .F. ) ;
#110 = ORIENTED_EDGE ( 'NONE', *, *, #10, .F. ) ;
#111 = ORIENTED_EDGE ( 'NONE', *, *, #13, .F. ) ;
#112 = VECTOR ( 'NONE', #96, 1000.000000000000000 ) ;
#113 = ORIENTED_EDGE ( 'NONE', *, *, #166, .T. ) ;
#114 = FACE_OUTER_BOUND ( 'NONE', #23, .T. ) ;
#115 = CARTESIAN_POINT ( 'NONE',  ( 57.50000000000000000, 35.00000000000000000, 85.00000000000000000 ) ) ;
#116 = CARTESIAN_POINT ( 'NONE',  ( -57.50000000000000000, 0.000000000000000000, 85.00000000000000000 ) ) ;
#117 = PERSON_AND_ORGANIZATION ( #162, #180 ) ;
#118 = COORDINATED_UNIVERSAL_TIME_OFFSET ( 8, 0, .AHEAD. ) ;
#119 = COORDINATED_UNIVERSAL_TIME_OFFSET ( 8, 0, .AHEAD. ) ;
#120 = EDGE_CURVE ( 'NONE', #229, #169, #44, .T. ) ;
#121 = APPROVAL_STATUS ( 'not_yet_approved' ) ;
#122 = ORIENTED_EDGE ( 'NONE', *, *, #83, .F. ) ;
#123 = VERTEX_POINT ( 'NONE', #128 ) ;
#124 = CARTESIAN_POINT ( 'NONE',  ( -57.50000000000000000, 35.00000000000000000, -85.00000000000000000 ) ) ;
#125 = CARTESIAN_POINT ( 'NONE',  ( 57.50000000000000000, 35.00000000000000000, 85.00000000000000000 ) ) ;
#126 = DIRECTION ( 'NONE',  ( 0.000000000000000000, -1.000000000000000000, 0.000000000000000000 ) ) ;
#127 = LINE ( 'NONE', #212, #34 ) ;
#128 = CARTESIAN_POINT ( 'NONE',  ( -57.50000000000000000, 35.00000000000000000, 85.00000000000000000 ) ) ;
#129 = PRODUCT_DEFINITION_FORMATION_WITH_SPECIFIED_SOURCE ( '任何', '', #64, .NOT_KNOWN. ) ;
#130 = LINE ( 'NONE', #115, #192 ) ;
#131 = PERSON_AND_ORGANIZATION ( #162, #180 ) ;
#132 = CALENDAR_DATE ( 2026, 26, 7 ) ;
#133 = AXIS2_PLACEMENT_3D ( 'NONE', #216, #77, #232 ) ;
#134 = MANIFOLD_SOLID_BREP ( '凸台-拉伸1', #48 ) ;
#135 = COORDINATED_UNIVERSAL_TIME_OFFSET ( 8, 0, .AHEAD. ) ;
#136 = EDGE_CURVE ( 'NONE', #41, #164, #8, .T. ) ;
#137 = ORIENTED_EDGE ( 'NONE', *, *, #200, .T. ) ;
#138 = COORDINATED_UNIVERSAL_TIME_OFFSET ( 8, 0, .AHEAD. ) ;
#139 = CC_DESIGN_PERSON_AND_ORGANIZATION_ASSIGNMENT ( #32, #104, ( #129 ) ) ;
#140 = EDGE_LOOP ( 'NONE', ( #89, #204, #225, #37 ) ) ;
#141 = DATE_AND_TIME ( #20, #81 ) ;
#142 = APPROVAL_PERSON_ORGANIZATION ( #107, #145, #74 ) ;
#143 = VERTEX_POINT ( 'NONE', #59 ) ;
#144 = ORIENTED_EDGE ( 'NONE', *, *, #236, .T. ) ;
#145 = APPROVAL ( #121, '未指定' ) ;
#146 = FACE_OUTER_BOUND ( 'NONE', #228, .T. ) ;
#147 = CARTESIAN_POINT ( 'NONE',  ( 57.50000000000000000, 35.00000000000000000, 85.00000000000000000 ) ) ;
#148 = LOCAL_TIME ( 19, 25, 49.00000000000000000, #138 ) ;
#149 = LINE ( 'NONE', #26, #159 ) ;
#150 = DIRECTION ( 'NONE',  ( -1.000000000000000000, 0.000000000000000000, -0.000000000000000000 ) ) ;
#151 = EDGE_CURVE ( 'NONE', #164, #229, #99, .T. ) ;
#152 = DIRECTION ( 'NONE',  ( 0.000000000000000000, 0.000000000000000000, -1.000000000000000000 ) ) ;
#153 = CC_DESIGN_SECURITY_CLASSIFICATION ( #66, ( #129 ) ) ;
#154 = PERSON_AND_ORGANIZATION ( #162, #180 ) ;
#155 = EDGE_CURVE ( 'NONE', #169, #54, #149, .T. ) ;
#156 = APPROVAL_ROLE ( '' ) ;
#157 = UNCERTAINTY_MEASURE_WITH_UNIT (LENGTH_MEASURE( 1.000000000000000082E-05 ), #161, 'distance_accuracy_value', 'NONE');
#158 = PERSON_AND_ORGANIZATION_ROLE ( 'design_owner' ) ;
#159 = VECTOR ( 'NONE', #172, 1000.000000000000000 ) ;
#160 = CC_DESIGN_APPROVAL ( #103, ( #129 ) ) ;
#161 =( LENGTH_UNIT ( ) NAMED_UNIT ( * ) SI_UNIT ( .MILLI., .METRE. ) );
#162 = PERSON ( '未指定', '未指定', '未指定', ('未指定'), ('未指定'), ('未指定') ) ;
#163 = LOCAL_TIME ( 19, 25, 49.00000000000000000, #119 ) ;
#164 = VERTEX_POINT ( 'NONE', #173 ) ;
#165 = DIRECTION ( 'NONE',  ( 1.000000000000000000, 0.000000000000000000, -0.000000000000000000 ) ) ;
#166 = EDGE_CURVE ( 'NONE', #75, #54, #130, .T. ) ;
#167 = ORIENTED_EDGE ( 'NONE', *, *, #208, .T. ) ;
#168 = DATE_AND_TIME ( #22, #148 ) ;
#169 = VERTEX_POINT ( 'NONE', #116 ) ;
#170 = CARTESIAN_POINT ( 'NONE',  ( -57.50000000000000000, 0.000000000000000000, 85.00000000000000000 ) ) ;
#171 = CARTESIAN_POINT ( 'NONE',  ( -57.50000000000000000, 35.00000000000000000, 85.00000000000000000 ) ) ;
#172 = DIRECTION ( 'NONE',  ( 1.000000000000000000, 0.000000000000000000, 0.000000000000000000 ) ) ;
#173 = CARTESIAN_POINT ( 'NONE',  ( 57.50000000000000000, 0.000000000000000000, -85.00000000000000000 ) ) ;
#174 = PLANE ( 'NONE',  #61 ) ;
#175 = AXIS2_PLACEMENT_3D ( 'NONE', #58, #126, #223 ) ;
#176 = DATE_AND_TIME ( #132, #209 ) ;
#177 = APPLICATION_CONTEXT ( 'configuration controlled 3d designs of mechanical parts and assemblies' ) ;
#178 = SECURITY_CLASSIFICATION_LEVEL ( 'unclassified' ) ;
#179 = VECTOR ( 'NONE', #46, 1000.000000000000000 ) ;
#180 = ORGANIZATION ( '未指定', '未指定', '' ) ;
#181 = PRODUCT_DEFINITION_SHAPE ( 'NONE', 'NONE',  #73 ) ;
#182 = DIRECTION ( 'NONE',  ( -1.000000000000000000, -0.000000000000000000, -0.000000000000000000 ) ) ;
#183 = CC_DESIGN_PERSON_AND_ORGANIZATION_ASSIGNMENT ( #117, #199, ( #129 ) ) ;
#184 = SHAPE_DEFINITION_REPRESENTATION ( #181, #38 ) ;
#185 = PLANE ( 'NONE',  #80 ) ;
#186 = ORIENTED_EDGE ( 'NONE', *, *, #151, .F. ) ;
#187 = VECTOR ( 'NONE', #6, 1000.000000000000000 ) ;
#188 = DIRECTION ( 'NONE',  ( -0.000000000000000000, -1.000000000000000000, -0.000000000000000000 ) ) ;
#189 = DIRECTION ( 'NONE',  ( 1.000000000000000000, -0.000000000000000000, 0.000000000000000000 ) ) ;
#190 = CARTESIAN_POINT ( 'NONE',  ( -57.50000000000000000, 0.000000000000000000, -85.00000000000000000 ) ) ;
#191 = ADVANCED_FACE ( 'NONE', ( #146 ), #193, .T. ) ;
#192 = VECTOR ( 'NONE', #217, 1000.000000000000000 ) ;
#193 = PLANE ( 'NONE',  #133 ) ;
#194 = ADVANCED_FACE ( 'NONE', ( #195 ), #174, .F. ) ;
#195 = FACE_OUTER_BOUND ( 'NONE', #57, .T. ) ;
#196 = DIRECTION ( 'NONE',  ( 0.000000000000000000, 0.000000000000000000, 1.000000000000000000 ) ) ;
#197 = DIRECTION ( 'NONE',  ( 1.000000000000000000, 0.000000000000000000, 0.000000000000000000 ) ) ;
#198 = VECTOR ( 'NONE', #182, 1000.000000000000000 ) ;
#199 = PERSON_AND_ORGANIZATION_ROLE ( 'creator' ) ;
#200 = EDGE_CURVE ( 'NONE', #54, #164, #231, .T. ) ;
#201 = CARTESIAN_POINT ( 'NONE',  ( -57.50000000000000000, 35.00000000000000000, 85.00000000000000000 ) ) ;
#202 = APPLICATION_PROTOCOL_DEFINITION ( 'international standard', 'config_control_design', 1994, #177 ) ;
#203 = AXIS2_PLACEMENT_3D ( 'NONE', #97, #79, #150 ) ;
#204 = ORIENTED_EDGE ( 'NONE', *, *, #166, .F. ) ;
#205 = LINE ( 'NONE', #124, #70 ) ;
#206 = VECTOR ( 'NONE', #214, 1000.000000000000000 ) ;
#207 = ORIENTED_EDGE ( 'NONE', *, *, #151, .T. ) ;
#208 = EDGE_CURVE ( 'NONE', #123, #75, #9, .T. ) ;
#209 = LOCAL_TIME ( 19, 25, 49.00000000000000000, #135 ) ;
#210 = ADVANCED_FACE ( 'NONE', ( #45 ), #11, .F. ) ;
#211 = DIRECTION ( 'NONE',  ( 1.000000000000000000, 0.000000000000000000, 0.000000000000000000 ) ) ;
#212 = CARTESIAN_POINT ( 'NONE',  ( 57.50000000000000000, 35.00000000000000000, 85.00000000000000000 ) ) ;
#213 = ADVANCED_FACE ( 'NONE', ( #114 ), #95, .F. ) ;
#214 = DIRECTION ( 'NONE',  ( -0.000000000000000000, -0.000000000000000000, 1.000000000000000000 ) ) ;
#215 = APPLICATION_CONTEXT ( 'configuration controlled 3d designs of mechanical parts and assemblies' ) ;
#216 = CARTESIAN_POINT ( 'NONE',  ( 0.000000000000000000, 0.000000000000000000, 0.000000000000000000 ) ) ;
#217 = DIRECTION ( 'NONE',  ( -0.000000000000000000, -1.000000000000000000, -0.000000000000000000 ) ) ;
#218 = APPROVAL_DATE_TIME ( #235, #103 ) ;
#219 = AXIS2_PLACEMENT_3D ( 'NONE', #125, #29, #196 ) ;
#220 = APPROVAL_PERSON_ORGANIZATION ( #84, #47, #82 ) ;
#221 = APPROVAL_DATE_TIME ( #176, #47 ) ;
#222 = PRODUCT_RELATED_PRODUCT_CATEGORY ( 'detail', '', ( #64 ) ) ;
#223 = DIRECTION ( 'NONE',  ( 0.000000000000000000, -0.000000000000000000, -1.000000000000000000 ) ) ;
#224 = PERSON_AND_ORGANIZATION ( #162, #180 ) ;
#225 = ORIENTED_EDGE ( 'NONE', *, *, #208, .F. ) ;
#226 = ORIENTED_EDGE ( 'NONE', *, *, #13, .T. ) ;
#227 = CARTESIAN_POINT ( 'NONE',  ( 57.50000000000000000, 0.000000000000000000, 85.00000000000000000 ) ) ;
#228 = EDGE_LOOP ( 'NONE', ( #109, #186, #3, #53 ) ) ;
#229 = VERTEX_POINT ( 'NONE', #50 ) ;
#230 = PLANE ( 'NONE',  #219 ) ;
#231 = LINE ( 'NONE', #76, #43 ) ;
#232 = DIRECTION ( 'NONE',  ( 0.000000000000000000, -0.000000000000000000, -1.000000000000000000 ) ) ;
#233 = CARTESIAN_POINT ( 'NONE',  ( 57.50000000000000000, 35.00000000000000000, -85.00000000000000000 ) ) ;
#234 = CARTESIAN_POINT ( 'NONE',  ( -57.50000000000000000, 35.00000000000000000, 85.00000000000000000 ) ) ;
#235 = DATE_AND_TIME ( #35, #163 ) ;
#236 = EDGE_CURVE ( 'NONE', #143, #123, #101, .T. ) ;
#237 = CARTESIAN_POINT ( 'NONE',  ( 0.000000000000000000, 0.000000000000000000, 0.000000000000000000 ) ) ;
ENDSEC;
END-ISO-10303-21;
