ISO-10303-21;
HEADER;
FILE_DESCRIPTION (( 'STEP AP203' ),
    '1' );
FILE_NAME ('FN-HAR-002_battery-charge-route_R0.4.STEP',
    '2026-07-26T11:27:01',
    ( '' ),
    ( '' ),
    'SwSTEP 2.0',
    'SolidWorks 2022',
    '' );
FILE_SCHEMA (( 'CONFIG_CONTROL_DESIGN' ));
ENDSEC;

DATA;
#1 = CARTESIAN_POINT ( 'NONE',  ( -8.250000000000000000, 2.500000000000000000, 11.25000000000000000 ) ) ;
#2 = APPROVAL_PERSON_ORGANIZATION ( #122, #310, #154 ) ;
#3 = CARTESIAN_POINT ( 'NONE',  ( -4.750000000000000000, 2.500000000000000000, 7.250000000000000000 ) ) ;
#4 = AXIS2_PLACEMENT_3D ( 'NONE', #336, #27, #25 ) ;
#5 = EDGE_CURVE ( 'NONE', #240, #220, #74, .T. ) ;
#6 = ORIENTED_EDGE ( 'NONE', *, *, #211, .F. ) ;
#7 = DIRECTION ( 'NONE',  ( -1.000000000000000000, 0.000000000000000000, 0.000000000000000000 ) ) ;
#8 = ORIENTED_EDGE ( 'NONE', *, *, #14, .F. ) ;
#9 = CARTESIAN_POINT ( 'NONE',  ( 8.250000000000000000, 0.000000000000000000, 7.250000000000000000 ) ) ;
#10 = ORIENTED_EDGE ( 'NONE', *, *, #228, .T. ) ;
#11 = DIRECTION ( 'NONE',  ( -1.000000000000000000, -0.000000000000000000, -0.000000000000000000 ) ) ;
#12 = ADVANCED_FACE ( 'NONE', ( #42 ), #162, .F. ) ;
#13 = ORIENTED_EDGE ( 'NONE', *, *, #31, .F. ) ;
#14 = EDGE_CURVE ( 'NONE', #259, #127, #265, .T. ) ;
#15 = PERSON_AND_ORGANIZATION ( #123, #170 ) ;
#16 = DIRECTION ( 'NONE',  ( -0.000000000000000000, -0.000000000000000000, 1.000000000000000000 ) ) ;
#17 = ORIENTED_EDGE ( 'NONE', *, *, #131, .T. ) ;
#18 = PERSON_AND_ORGANIZATION ( #123, #170 ) ;
#19 = DIRECTION ( 'NONE',  ( -1.000000000000000000, 0.000000000000000000, -0.000000000000000000 ) ) ;
#20 = ORIENTED_EDGE ( 'NONE', *, *, #100, .T. ) ;
#21 = APPROVAL_PERSON_ORGANIZATION ( #191, #37, #331 ) ;
#22 = DIRECTION ( 'NONE',  ( 0.000000000000000000, 0.000000000000000000, 1.000000000000000000 ) ) ;
#23 = AXIS2_PLACEMENT_3D ( 'NONE', #137, #166, #159 ) ;
#24 = CARTESIAN_POINT ( 'NONE',  ( 4.750000000000000000, 0.000000000000000000, -11.25000000000000000 ) ) ;
#25 = DIRECTION ( 'NONE',  ( 1.000000000000000000, 0.000000000000000000, -0.000000000000000000 ) ) ;
#26 = COORDINATED_UNIVERSAL_TIME_OFFSET ( 8, 0, .AHEAD. ) ;
#27 = DIRECTION ( 'NONE',  ( 0.000000000000000000, 0.000000000000000000, 1.000000000000000000 ) ) ;
#28 = VECTOR ( 'NONE', #222, 1000.000000000000000 ) ;
#29 = ADVANCED_FACE ( 'NONE', ( #95 ), #192, .F. ) ;
#30 = PLANE ( 'NONE',  #357 ) ;
#31 = EDGE_CURVE ( 'NONE', #130, #315, #246, .T. ) ;
#32 = CARTESIAN_POINT ( 'NONE',  ( -8.250000000000000000, 0.000000000000000000, 3.750000000000000000 ) ) ;
#33 = EDGE_CURVE ( 'NONE', #240, #259, #299, .T. ) ;
#34 = CARTESIAN_POINT ( 'NONE',  ( 8.250000000000000000, 0.000000000000000000, -11.25000000000000000 ) ) ;
#35 = CC_DESIGN_APPROVAL ( #180, ( #306 ) ) ;
#36 = ORIENTED_EDGE ( 'NONE', *, *, #153, .T. ) ;
#37 = APPROVAL ( #54, '未指定' ) ;
#38 = AXIS2_PLACEMENT_3D ( 'NONE', #303, #135, #351 ) ;
#39 = EDGE_LOOP ( 'NONE', ( #214, #103, #243, #289 ) ) ;
#40 = ORIENTED_EDGE ( 'NONE', *, *, #269, .T. ) ;
#41 = PLANE ( 'NONE',  #257 ) ;
#42 = FACE_OUTER_BOUND ( 'NONE', #297, .T. ) ;
#43 = PRODUCT_RELATED_PRODUCT_CATEGORY ( 'detail', '', ( #339 ) ) ;
#44 = ORIENTED_EDGE ( 'NONE', *, *, #284, .T. ) ;
#45 = APPLICATION_PROTOCOL_DEFINITION ( 'international standard', 'config_control_design', 1994, #355 ) ;
#46 = ORIENTED_EDGE ( 'NONE', *, *, #296, .T. ) ;
#47 = ORIENTED_EDGE ( 'NONE', *, *, #31, .T. ) ;
#48 = VERTEX_POINT ( 'NONE', #360 ) ;
#49 = ADVANCED_FACE ( 'NONE', ( #221 ), #329, .F. ) ;
#50 = DATE_AND_TIME ( #298, #101 ) ;
#51 = CALENDAR_DATE ( 2026, 26, 7 ) ;
#52 = DIRECTION ( 'NONE',  ( 1.000000000000000000, 0.000000000000000000, 0.000000000000000000 ) ) ;
#53 = AXIS2_PLACEMENT_3D ( 'NONE', #209, #242, #19 ) ;
#54 = APPROVAL_STATUS ( 'not_yet_approved' ) ;
#55 = LINE ( 'NONE', #248, #186 ) ;
#56 = CARTESIAN_POINT ( 'NONE',  ( -4.750000000000000000, 0.000000000000000000, 11.25000000000000000 ) ) ;
#57 = CARTESIAN_POINT ( 'NONE',  ( 4.750000000000000888, 2.500000000000000000, 3.750000000000000000 ) ) ;
#58 = VECTOR ( 'NONE', #318, 1000.000000000000000 ) ;
#59 = EDGE_CURVE ( 'NONE', #220, #237, #277, .T. ) ;
#60 = PRODUCT_DEFINITION_SHAPE ( 'NONE', 'NONE',  #368 ) ;
#61 = FACE_OUTER_BOUND ( 'NONE', #319, .T. ) ;
#62 = FACE_OUTER_BOUND ( 'NONE', #99, .T. ) ;
#63 = APPLICATION_PROTOCOL_DEFINITION ( 'international standard', 'config_control_design', 1994, #338 ) ;
#64 = ORIENTED_EDGE ( 'NONE', *, *, #109, .T. ) ;
#65 = CC_DESIGN_SECURITY_CLASSIFICATION ( #292, ( #306 ) ) ;
#66 = CARTESIAN_POINT ( 'NONE',  ( -8.250000000000000000, 2.500000000000000000, 3.750000000000000000 ) ) ;
#67 = EDGE_LOOP ( 'NONE', ( #317, #17, #218, #343 ) ) ;
#68 = CARTESIAN_POINT ( 'NONE',  ( 4.750000000000000000, 0.000000000000000000, 7.250000000000000000 ) ) ;
#69 = ORIENTED_EDGE ( 'NONE', *, *, #365, .T. ) ;
#70 = CARTESIAN_POINT ( 'NONE',  ( -8.250000000000000000, 2.500000000000000000, 11.25000000000000000 ) ) ;
#71 = ORIENTED_EDGE ( 'NONE', *, *, #284, .F. ) ;
#72 = CARTESIAN_POINT ( 'NONE',  ( 4.750000000000000000, 2.500000000000000000, 7.250000000000000000 ) ) ;
#73 = VECTOR ( 'NONE', #16, 1000.000000000000000 ) ;
#74 = LINE ( 'NONE', #70, #369 ) ;
#75 = APPROVAL_DATE_TIME ( #138, #180 ) ;
#76 = CARTESIAN_POINT ( 'NONE',  ( -8.250000000000000000, 2.500000000000000000, 3.750000000000000000 ) ) ;
#77 = ORIENTED_EDGE ( 'NONE', *, *, #199, .T. ) ;
#78 = PERSON_AND_ORGANIZATION_ROLE ( 'classification_officer' ) ;
#79 = DIRECTION ( 'NONE',  ( 0.000000000000000000, 0.000000000000000000, -1.000000000000000000 ) ) ;
#80 = CARTESIAN_POINT ( 'NONE',  ( -4.750000000000000000, 2.500000000000000000, 7.250000000000000000 ) ) ;
#81 = CLOSED_SHELL ( 'NONE', ( #29, #301, #139, #49, #118, #111, #83, #12, #359, #134 ) ) ;
#82 = PERSON_AND_ORGANIZATION_ROLE ( 'design_supplier' ) ;
#83 = ADVANCED_FACE ( 'NONE', ( #189 ), #239, .F. ) ;
#84 = CARTESIAN_POINT ( 'NONE',  ( 4.750000000000000000, 0.000000000000000000, -11.25000000000000000 ) ) ;
#85 = AXIS2_PLACEMENT_3D ( 'NONE', #316, #312, #290 ) ;
#86 = VECTOR ( 'NONE', #194, 1000.000000000000000 ) ;
#87 = LINE ( 'NONE', #201, #245 ) ;
#88 = DIRECTION ( 'NONE',  ( -1.000000000000000000, -0.000000000000000000, -0.000000000000000000 ) ) ;
#89 = LINE ( 'NONE', #9, #120 ) ;
#90 = ORIENTED_EDGE ( 'NONE', *, *, #33, .T. ) ;
#91 = DATE_AND_TIME ( #341, #254 ) ;
#92 = EDGE_CURVE ( 'NONE', #182, #187, #244, .T. ) ;
#93 = EDGE_LOOP ( 'NONE', ( #155, #6, #353, #90 ) ) ;
#94 = DIRECTION ( 'NONE',  ( -1.000000000000000000, -0.000000000000000000, -0.000000000000000000 ) ) ;
#95 = FACE_OUTER_BOUND ( 'NONE', #67, .T. ) ;
#96 = ORIENTED_EDGE ( 'NONE', *, *, #199, .F. ) ;
#97 = PLANE ( 'NONE',  #85 ) ;
#98 = CARTESIAN_POINT ( 'NONE',  ( 0.000000000000000000, 0.000000000000000000, 0.000000000000000000 ) ) ;
#99 = EDGE_LOOP ( 'NONE', ( #157, #64, #46, #69, #36, #324, #294, #20 ) ) ;
#100 = EDGE_CURVE ( 'NONE', #237, #48, #102, .T. ) ;
#101 = LOCAL_TIME ( 19, 27, 1.000000000000000000, #113 ) ;
#102 = LINE ( 'NONE', #356, #337 ) ;
#103 = ORIENTED_EDGE ( 'NONE', *, *, #59, .F. ) ;
#104 = AXIS2_PLACEMENT_3D ( 'NONE', #367, #144, #285 ) ;
#105 = VECTOR ( 'NONE', #142, 1000.000000000000000 ) ;
#106 = DIRECTION ( 'NONE',  ( 1.000000000000000000, 0.000000000000000000, -0.000000000000000000 ) ) ;
#107 = APPROVAL_STATUS ( 'not_yet_approved' ) ;
#108 = LINE ( 'NONE', #80, #232 ) ;
#109 = EDGE_CURVE ( 'NONE', #268, #266, #126, .T. ) ;
#110 = PERSON_AND_ORGANIZATION ( #123, #170 ) ;
#111 = ADVANCED_FACE ( 'NONE', ( #129 ), #348, .T. ) ;
#112 = CARTESIAN_POINT ( 'NONE',  ( 4.750000000000000888, 2.500000000000000000, 3.750000000000000000 ) ) ;
#113 = COORDINATED_UNIVERSAL_TIME_OFFSET ( 8, 0, .AHEAD. ) ;
#114 = CARTESIAN_POINT ( 'NONE',  ( -4.750000000000000000, 0.000000000000000000, 11.25000000000000000 ) ) ;
#115 = CC_DESIGN_APPROVAL ( #37, ( #292 ) ) ;
#116 = AXIS2_PLACEMENT_3D ( 'NONE', #76, #22, #106 ) ;
#117 = PLANE ( 'NONE',  #4 ) ;
#118 = ADVANCED_FACE ( 'NONE', ( #62 ), #30, .F. ) ;
#119 = LINE ( 'NONE', #304, #200 ) ;
#120 = VECTOR ( 'NONE', #320, 1000.000000000000000 ) ;
#121 = ORIENTED_EDGE ( 'NONE', *, *, #293, .F. ) ;
#122 = PERSON_AND_ORGANIZATION ( #123, #170 ) ;
#123 = PERSON ( '未指定', '未指定', '未指定', ('未指定'), ('未指定'), ('未指定') ) ;
#124 = ORIENTED_EDGE ( 'NONE', *, *, #334, .T. ) ;
#125 = LINE ( 'NONE', #72, #58 ) ;
#126 = LINE ( 'NONE', #345, #152 ) ;
#127 = VERTEX_POINT ( 'NONE', #114 ) ;
#128 =( LENGTH_UNIT ( ) NAMED_UNIT ( * ) SI_UNIT ( .MILLI., .METRE. ) );
#129 = FACE_OUTER_BOUND ( 'NONE', #241, .T. ) ;
#130 = VERTEX_POINT ( 'NONE', #171 ) ;
#131 = EDGE_CURVE ( 'NONE', #187, #163, #55, .T. ) ;
#132 = PERSON_AND_ORGANIZATION_ROLE ( 'design_owner' ) ;
#133 = ORIENTED_EDGE ( 'NONE', *, *, #147, .T. ) ;
#134 = ADVANCED_FACE ( 'NONE', ( #61 ), #117, .F. ) ;
#135 = DIRECTION ( 'NONE',  ( 0.000000000000000000, 0.000000000000000000, -1.000000000000000000 ) ) ;
#136 = ORIENTED_EDGE ( 'NONE', *, *, #225, .T. ) ;
#137 = CARTESIAN_POINT ( 'NONE',  ( 8.250000000000000000, 2.500000000000000000, 7.250000000000000000 ) ) ;
#138 = DATE_AND_TIME ( #270, #352 ) ;
#139 = ADVANCED_FACE ( 'NONE', ( #330 ), #196, .F. ) ;
#140 = DIRECTION ( 'NONE',  ( 0.000000000000000000, -0.000000000000000000, -1.000000000000000000 ) ) ;
#141 = LOCAL_TIME ( 19, 27, 1.000000000000000000, #26 ) ;
#142 = DIRECTION ( 'NONE',  ( -1.000000000000000000, -0.000000000000000000, -0.000000000000000000 ) ) ;
#143 = SECURITY_CLASSIFICATION_LEVEL ( 'unclassified' ) ;
#144 = DIRECTION ( 'NONE',  ( 1.000000000000000000, -0.000000000000000000, 0.000000000000000000 ) ) ;
#145 = DIRECTION ( 'NONE',  ( -0.000000000000000000, -1.000000000000000000, -0.000000000000000000 ) ) ;
#146 = CC_DESIGN_PERSON_AND_ORGANIZATION_ASSIGNMENT ( #15, #132, ( #339 ) ) ;
#147 = EDGE_CURVE ( 'NONE', #268, #291, #119, .T. ) ;
#148 = CARTESIAN_POINT ( 'NONE',  ( -4.750000000000000000, 2.500000000000000000, 11.25000000000000000 ) ) ;
#149 = APPROVAL_PERSON_ORGANIZATION ( #18, #180, #224 ) ;
#150 = DIRECTION ( 'NONE',  ( 0.000000000000000000, 0.000000000000000000, -1.000000000000000000 ) ) ;
#151 = ORIENTED_EDGE ( 'NONE', *, *, #92, .F. ) ;
#152 = VECTOR ( 'NONE', #11, 1000.000000000000000 ) ;
#153 = EDGE_CURVE ( 'NONE', #323, #240, #226, .T. ) ;
#154 = APPROVAL_ROLE ( '' ) ;
#155 = ORIENTED_EDGE ( 'NONE', *, *, #14, .T. ) ;
#156 = CARTESIAN_POINT ( 'NONE',  ( 8.250000000000000000, 0.000000000000000000, 7.250000000000000000 ) ) ;
#157 = ORIENTED_EDGE ( 'NONE', *, *, #293, .T. ) ;
#158 =( NAMED_UNIT ( * ) SI_UNIT ( $, .STERADIAN. ) SOLID_ANGLE_UNIT ( ) );
#159 = DIRECTION ( 'NONE',  ( 0.000000000000000000, 0.000000000000000000, 1.000000000000000000 ) ) ;
#160 = ORIENTED_EDGE ( 'NONE', *, *, #296, .F. ) ;
#161 = DIRECTION ( 'NONE',  ( 0.000000000000000000, 0.000000000000000000, 1.000000000000000000 ) ) ;
#162 = PLANE ( 'NONE',  #23 ) ;
#163 = VERTEX_POINT ( 'NONE', #32 ) ;
#164 = CARTESIAN_POINT ( 'NONE',  ( -8.250000000000000000, 0.000000000000000000, 7.250000000000000000 ) ) ;
#165 = CALENDAR_DATE ( 2026, 26, 7 ) ;
#166 = DIRECTION ( 'NONE',  ( -1.000000000000000000, 0.000000000000000000, 0.000000000000000000 ) ) ;
#167 = DIRECTION ( 'NONE',  ( 1.000000000000000000, 0.000000000000000000, 0.000000000000000000 ) ) ;
#168 = LINE ( 'NONE', #24, #105 ) ;
#169 = COORDINATED_UNIVERSAL_TIME_OFFSET ( 8, 0, .AHEAD. ) ;
#170 = ORGANIZATION ( '未指定', '未指定', '' ) ;
#171 = CARTESIAN_POINT ( 'NONE',  ( -4.750000000000000000, 0.000000000000000000, 7.250000000000000000 ) ) ;
#172 = EDGE_CURVE ( 'NONE', #291, #182, #168, .T. ) ;
#173 = VECTOR ( 'NONE', #150, 1000.000000000000000 ) ;
#174 = CC_DESIGN_DATE_AND_TIME_ASSIGNMENT ( #50, #280, ( #368 ) ) ;
#175 = DIRECTION ( 'NONE',  ( 0.000000000000000000, 0.000000000000000000, -1.000000000000000000 ) ) ;
#176 = DIRECTION ( 'NONE',  ( 0.000000000000000000, -0.000000000000000000, -1.000000000000000000 ) ) ;
#177 = ORIENTED_EDGE ( 'NONE', *, *, #225, .F. ) ;
#178 = LINE ( 'NONE', #262, #215 ) ;
#179 = ORIENTED_EDGE ( 'NONE', *, *, #92, .T. ) ;
#180 = APPROVAL ( #107, '未指定' ) ;
#181 = DIRECTION ( 'NONE',  ( -0.000000000000000000, -1.000000000000000000, -0.000000000000000000 ) ) ;
#182 = VERTEX_POINT ( 'NONE', #84 ) ;
#183 = CARTESIAN_POINT ( 'NONE',  ( -4.750000000000000000, 2.500000000000000000, 11.25000000000000000 ) ) ;
#184 = ORIENTED_EDGE ( 'NONE', *, *, #228, .F. ) ;
#185 = DIRECTION ( 'NONE',  ( 1.000000000000000000, 0.000000000000000000, 0.000000000000000000 ) ) ;
#186 = VECTOR ( 'NONE', #88, 1000.000000000000000 ) ;
#187 = VERTEX_POINT ( 'NONE', #305 ) ;
#188 = PERSON_AND_ORGANIZATION ( #123, #170 ) ;
#189 = FACE_OUTER_BOUND ( 'NONE', #340, .T. ) ;
#190 = ORIENTED_EDGE ( 'NONE', *, *, #131, .F. ) ;
#191 = PERSON_AND_ORGANIZATION ( #123, #170 ) ;
#192 = PLANE ( 'NONE',  #116 ) ;
#193 = APPROVAL_DATE_TIME ( #354, #37 ) ;
#194 = DIRECTION ( 'NONE',  ( 0.000000000000000000, 1.000000000000000000, -0.000000000000000000 ) ) ;
#195 = DATE_TIME_ROLE ( 'classification_date' ) ;
#196 = PLANE ( 'NONE',  #104 ) ;
#197 = LINE ( 'NONE', #112, #86 ) ;
#198 = AXIS2_PLACEMENT_3D ( 'NONE', #264, #161, #295 ) ;
#199 = EDGE_CURVE ( 'NONE', #163, #259, #87, .T. ) ;
#200 = VECTOR ( 'NONE', #202, 1000.000000000000000 ) ;
#201 = CARTESIAN_POINT ( 'NONE',  ( -8.250000000000000000, 0.000000000000000000, 11.25000000000000000 ) ) ;
#202 = DIRECTION ( 'NONE',  ( -0.000000000000000000, -1.000000000000000000, -0.000000000000000000 ) ) ;
#203 = EDGE_CURVE ( 'NONE', #187, #210, #197, .T. ) ;
#204 = MECHANICAL_CONTEXT ( 'NONE', #355, 'mechanical' ) ;
#205 = ORIENTED_EDGE ( 'NONE', *, *, #172, .F. ) ;
#206 = CARTESIAN_POINT ( 'NONE',  ( 8.250000000000000000, 2.500000000000000000, 7.250000000000000000 ) ) ;
#207 = ORIENTED_EDGE ( 'NONE', *, *, #153, .F. ) ;
#208 = VECTOR ( 'NONE', #326, 1000.000000000000000 ) ;
#209 = CARTESIAN_POINT ( 'NONE',  ( -8.250000000000000000, 2.500000000000000000, 11.25000000000000000 ) ) ;
#210 = VERTEX_POINT ( 'NONE', #57 ) ;
#211 = EDGE_CURVE ( 'NONE', #220, #127, #223, .T. ) ;
#212 =( NAMED_UNIT ( * ) PLANE_ANGLE_UNIT ( ) SI_UNIT ( $, .RADIAN. ) );
#213 = CC_DESIGN_APPROVAL ( #310, ( #368 ) ) ;
#214 = ORIENTED_EDGE ( 'NONE', *, *, #269, .F. ) ;
#215 = VECTOR ( 'NONE', #94, 1000.000000000000000 ) ;
#216 = APPROVAL_DATE_TIME ( #91, #310 ) ;
#217 = CARTESIAN_POINT ( 'NONE',  ( -8.250000000000000000, 0.000000000000000000, 11.25000000000000000 ) ) ;
#218 = ORIENTED_EDGE ( 'NONE', *, *, #334, .F. ) ;
#219 = EDGE_CURVE ( 'NONE', #127, #130, #307, .T. ) ;
#220 = VERTEX_POINT ( 'NONE', #253 ) ;
#221 = FACE_OUTER_BOUND ( 'NONE', #93, .T. ) ;
#222 = DIRECTION ( 'NONE',  ( -0.000000000000000000, -1.000000000000000000, -0.000000000000000000 ) ) ;
#223 = LINE ( 'NONE', #148, #322 ) ;
#224 = APPROVAL_ROLE ( '' ) ;
#225 = EDGE_CURVE ( 'NONE', #266, #182, #333, .T. ) ;
#226 = LINE ( 'NONE', #335, #258 ) ;
#227 = LOCAL_TIME ( 19, 27, 1.000000000000000000, #302 ) ;
#228 = EDGE_CURVE ( 'NONE', #48, #315, #252, .T. ) ;
#229 = CARTESIAN_POINT ( 'NONE',  ( -8.250000000000000000, 0.000000000000000000, 11.25000000000000000 ) ) ;
#230 =( GEOMETRIC_REPRESENTATION_CONTEXT ( 3 ) GLOBAL_UNCERTAINTY_ASSIGNED_CONTEXT ( ( #271 ) ) GLOBAL_UNIT_ASSIGNED_CONTEXT ( ( #128, #212, #158 ) ) REPRESENTATION_CONTEXT ( 'NONE', 'WORKASPACE' ) );
#231 = CARTESIAN_POINT ( 'NONE',  ( 8.250000000000000000, 2.500000000000000000, -11.25000000000000000 ) ) ;
#232 = VECTOR ( 'NONE', #347, 1000.000000000000000 ) ;
#233 = LINE ( 'NONE', #66, #279 ) ;
#234 = CC_DESIGN_DATE_AND_TIME_ASSIGNMENT ( #366, #195, ( #292 ) ) ;
#235 = ORIENTED_EDGE ( 'NONE', *, *, #172, .T. ) ;
#236 = FACE_OUTER_BOUND ( 'NONE', #346, .T. ) ;
#237 = VERTEX_POINT ( 'NONE', #3 ) ;
#238 = DIRECTION ( 'NONE',  ( 0.000000000000000000, 0.000000000000000000, 1.000000000000000000 ) ) ;
#239 = PLANE ( 'NONE',  #38 ) ;
#240 = VERTEX_POINT ( 'NONE', #1 ) ;
#241 = EDGE_LOOP ( 'NONE', ( #71, #13, #300, #8, #96, #190, #151, #205 ) ) ;
#242 = DIRECTION ( 'NONE',  ( 0.000000000000000000, 0.000000000000000000, -1.000000000000000000 ) ) ;
#243 = ORIENTED_EDGE ( 'NONE', *, *, #211, .T. ) ;
#244 = LINE ( 'NONE', #68, #73 ) ;
#245 = VECTOR ( 'NONE', #364, 1000.000000000000000 ) ;
#246 = LINE ( 'NONE', #164, #208 ) ;
#247 = CARTESIAN_POINT ( 'NONE',  ( 4.750000000000000000, 2.500000000000000000, -11.25000000000000000 ) ) ;
#248 = CARTESIAN_POINT ( 'NONE',  ( -8.250000000000000000, 0.000000000000000000, 3.750000000000000000 ) ) ;
#249 = DIRECTION ( 'NONE',  ( 0.000000000000000000, -1.000000000000000000, 0.000000000000000000 ) ) ;
#250 = DESIGN_CONTEXT ( 'detailed design', #338, 'design' ) ;
#251 = VECTOR ( 'NONE', #79, 1000.000000000000000 ) ;
#252 = LINE ( 'NONE', #362, #28 ) ;
#253 = CARTESIAN_POINT ( 'NONE',  ( -4.750000000000000000, 2.500000000000000000, 11.25000000000000000 ) ) ;
#254 = LOCAL_TIME ( 19, 27, 1.000000000000000000, #350 ) ;
#255 = CC_DESIGN_PERSON_AND_ORGANIZATION_ASSIGNMENT ( #328, #82, ( #306 ) ) ;
#256 = CARTESIAN_POINT ( 'NONE',  ( -8.250000000000000000, 2.500000000000000000, 3.750000000000000000 ) ) ;
#257 = AXIS2_PLACEMENT_3D ( 'NONE', #260, #7, #238 ) ;
#258 = VECTOR ( 'NONE', #281, 1000.000000000000000 ) ;
#259 = VERTEX_POINT ( 'NONE', #229 ) ;
#260 = CARTESIAN_POINT ( 'NONE',  ( -4.750000000000000000, 2.500000000000000000, 11.25000000000000000 ) ) ;
#261 = ORIENTED_EDGE ( 'NONE', *, *, #203, .T. ) ;
#262 = CARTESIAN_POINT ( 'NONE',  ( -8.250000000000000000, 2.500000000000000000, 3.750000000000000000 ) ) ;
#263 = EDGE_LOOP ( 'NONE', ( #77, #349, #207, #124 ) ) ;
#264 = CARTESIAN_POINT ( 'NONE',  ( 0.000000000000000000, 0.000000000000000000, 0.000000000000000000 ) ) ;
#265 = LINE ( 'NONE', #217, #276 ) ;
#266 = VERTEX_POINT ( 'NONE', #309 ) ;
#267 = DIRECTION ( 'NONE',  ( -0.000000000000000000, -1.000000000000000000, -0.000000000000000000 ) ) ;
#268 = VERTEX_POINT ( 'NONE', #231 ) ;
#269 = EDGE_CURVE ( 'NONE', #237, #130, #108, .T. ) ;
#270 = CALENDAR_DATE ( 2026, 26, 7 ) ;
#271 = UNCERTAINTY_MEASURE_WITH_UNIT (LENGTH_MEASURE( 1.000000000000000082E-05 ), #128, 'distance_accuracy_value', 'NONE');
#272 = CARTESIAN_POINT ( 'NONE',  ( -8.250000000000000000, 2.500000000000000000, 11.25000000000000000 ) ) ;
#273 = MANIFOLD_SOLID_BREP ( '凸台-拉伸3', #81 ) ;
#274 = ADVANCED_BREP_SHAPE_REPRESENTATION ( 'FN-HAR-002_battery-charge-route_R0.4', ( #273, #198 ), #230 ) ;
#275 = PERSON_AND_ORGANIZATION ( #123, #170 ) ;
#276 = VECTOR ( 'NONE', #167, 1000.000000000000000 ) ;
#277 = LINE ( 'NONE', #183, #251 ) ;
#278 = CARTESIAN_POINT ( 'NONE',  ( 0.000000000000000000, 2.500000000000000000, 0.000000000000000000 ) ) ;
#279 = VECTOR ( 'NONE', #181, 1000.000000000000000 ) ;
#280 = DATE_TIME_ROLE ( 'creation_date' ) ;
#281 = DIRECTION ( 'NONE',  ( -0.000000000000000000, -0.000000000000000000, 1.000000000000000000 ) ) ;
#282 = VECTOR ( 'NONE', #145, 1000.000000000000000 ) ;
#283 = DIRECTION ( 'NONE',  ( -0.000000000000000000, -1.000000000000000000, -0.000000000000000000 ) ) ;
#284 = EDGE_CURVE ( 'NONE', #315, #291, #89, .T. ) ;
#285 = DIRECTION ( 'NONE',  ( 0.000000000000000000, 0.000000000000000000, -1.000000000000000000 ) ) ;
#286 = ORIENTED_EDGE ( 'NONE', *, *, #100, .F. ) ;
#287 = APPROVAL_STATUS ( 'not_yet_approved' ) ;
#288 = AXIS2_PLACEMENT_3D ( 'NONE', #98, #311, #140 ) ;
#289 = ORIENTED_EDGE ( 'NONE', *, *, #219, .T. ) ;
#290 = DIRECTION ( 'NONE',  ( 0.000000000000000000, 0.000000000000000000, -1.000000000000000000 ) ) ;
#291 = VERTEX_POINT ( 'NONE', #34 ) ;
#292 = SECURITY_CLASSIFICATION ( '', '', #143 ) ;
#293 = EDGE_CURVE ( 'NONE', #48, #268, #344, .T. ) ;
#294 = ORIENTED_EDGE ( 'NONE', *, *, #59, .T. ) ;
#295 = DIRECTION ( 'NONE',  ( 1.000000000000000000, 0.000000000000000000, 0.000000000000000000 ) ) ;
#296 = EDGE_CURVE ( 'NONE', #266, #210, #125, .T. ) ;
#297 = EDGE_LOOP ( 'NONE', ( #44, #327, #121, #10 ) ) ;
#298 = CALENDAR_DATE ( 2026, 26, 7 ) ;
#299 = LINE ( 'NONE', #272, #332 ) ;
#300 = ORIENTED_EDGE ( 'NONE', *, *, #219, .F. ) ;
#301 = ADVANCED_FACE ( 'NONE', ( #314 ), #41, .F. ) ;
#302 = COORDINATED_UNIVERSAL_TIME_OFFSET ( 8, 0, .AHEAD. ) ;
#303 = CARTESIAN_POINT ( 'NONE',  ( -8.250000000000000000, 2.500000000000000000, 7.250000000000000000 ) ) ;
#304 = CARTESIAN_POINT ( 'NONE',  ( 8.250000000000000000, 2.500000000000000000, -11.25000000000000000 ) ) ;
#305 = CARTESIAN_POINT ( 'NONE',  ( 4.750000000000000000, 0.000000000000000000, 3.750000000000000000 ) ) ;
#306 = PRODUCT_DEFINITION_FORMATION_WITH_SPECIFIED_SOURCE ( '任何', '', #339, .NOT_KNOWN. ) ;
#307 = LINE ( 'NONE', #56, #308 ) ;
#308 = VECTOR ( 'NONE', #175, 1000.000000000000000 ) ;
#309 = CARTESIAN_POINT ( 'NONE',  ( 4.750000000000000000, 2.500000000000000000, -11.25000000000000000 ) ) ;
#310 = APPROVAL ( #287, '未指定' ) ;
#311 = DIRECTION ( 'NONE',  ( 0.000000000000000000, -1.000000000000000000, 0.000000000000000000 ) ) ;
#312 = DIRECTION ( 'NONE',  ( 1.000000000000000000, -0.000000000000000000, 0.000000000000000000 ) ) ;
#313 = ORIENTED_EDGE ( 'NONE', *, *, #109, .F. ) ;
#314 = FACE_OUTER_BOUND ( 'NONE', #39, .T. ) ;
#315 = VERTEX_POINT ( 'NONE', #156 ) ;
#316 = CARTESIAN_POINT ( 'NONE',  ( 4.750000000000000000, 2.500000000000000000, 7.250000000000000000 ) ) ;
#317 = ORIENTED_EDGE ( 'NONE', *, *, #203, .F. ) ;
#318 = DIRECTION ( 'NONE',  ( -0.000000000000000000, -0.000000000000000000, 1.000000000000000000 ) ) ;
#319 = EDGE_LOOP ( 'NONE', ( #235, #177, #313, #133 ) ) ;
#320 = DIRECTION ( 'NONE',  ( 0.000000000000000000, 0.000000000000000000, -1.000000000000000000 ) ) ;
#321 = CC_DESIGN_PERSON_AND_ORGANIZATION_ASSIGNMENT ( #275, #325, ( #368 ) ) ;
#322 = VECTOR ( 'NONE', #283, 1000.000000000000000 ) ;
#323 = VERTEX_POINT ( 'NONE', #256 ) ;
#324 = ORIENTED_EDGE ( 'NONE', *, *, #5, .T. ) ;
#325 = PERSON_AND_ORGANIZATION_ROLE ( 'creator' ) ;
#326 = DIRECTION ( 'NONE',  ( 1.000000000000000000, 0.000000000000000000, 0.000000000000000000 ) ) ;
#327 = ORIENTED_EDGE ( 'NONE', *, *, #147, .F. ) ;
#328 = PERSON_AND_ORGANIZATION ( #123, #170 ) ;
#329 = PLANE ( 'NONE',  #53 ) ;
#330 = FACE_OUTER_BOUND ( 'NONE', #263, .T. ) ;
#331 = APPROVAL_ROLE ( '' ) ;
#332 = VECTOR ( 'NONE', #267, 1000.000000000000000 ) ;
#333 = LINE ( 'NONE', #247, #282 ) ;
#334 = EDGE_CURVE ( 'NONE', #323, #163, #233, .T. ) ;
#335 = CARTESIAN_POINT ( 'NONE',  ( -8.250000000000000000, 2.500000000000000000, 11.25000000000000000 ) ) ;
#336 = CARTESIAN_POINT ( 'NONE',  ( 4.750000000000000000, 2.500000000000000000, -11.25000000000000000 ) ) ;
#337 = VECTOR ( 'NONE', #52, 1000.000000000000000 ) ;
#338 = APPLICATION_CONTEXT ( 'configuration controlled 3d designs of mechanical parts and assemblies' ) ;
#339 = PRODUCT ( 'FN-HAR-002_battery-charge-route_R0.4', 'FN-HAR-002_battery-charge-route_R0.4', '', ( #204 ) ) ;
#340 = EDGE_LOOP ( 'NONE', ( #184, #286, #40, #47 ) ) ;
#341 = CALENDAR_DATE ( 2026, 26, 7 ) ;
#342 = CC_DESIGN_PERSON_AND_ORGANIZATION_ASSIGNMENT ( #188, #78, ( #292 ) ) ;
#343 = ORIENTED_EDGE ( 'NONE', *, *, #365, .F. ) ;
#344 = LINE ( 'NONE', #206, #173 ) ;
#345 = CARTESIAN_POINT ( 'NONE',  ( 4.750000000000000000, 2.500000000000000000, -11.25000000000000000 ) ) ;
#346 = EDGE_LOOP ( 'NONE', ( #179, #261, #160, #136 ) ) ;
#347 = DIRECTION ( 'NONE',  ( 0.000000000000000000, -1.000000000000000000, 0.000000000000000000 ) ) ;
#348 = PLANE ( 'NONE',  #288 ) ;
#349 = ORIENTED_EDGE ( 'NONE', *, *, #33, .F. ) ;
#350 = COORDINATED_UNIVERSAL_TIME_OFFSET ( 8, 0, .AHEAD. ) ;
#351 = DIRECTION ( 'NONE',  ( -1.000000000000000000, 0.000000000000000000, -0.000000000000000000 ) ) ;
#352 = LOCAL_TIME ( 19, 27, 1.000000000000000000, #169 ) ;
#353 = ORIENTED_EDGE ( 'NONE', *, *, #5, .F. ) ;
#354 = DATE_AND_TIME ( #165, #227 ) ;
#355 = APPLICATION_CONTEXT ( 'configuration controlled 3d designs of mechanical parts and assemblies' ) ;
#356 = CARTESIAN_POINT ( 'NONE',  ( -8.250000000000000000, 2.500000000000000000, 7.250000000000000000 ) ) ;
#357 = AXIS2_PLACEMENT_3D ( 'NONE', #278, #249, #176 ) ;
#358 = PERSON_AND_ORGANIZATION_ROLE ( 'creator' ) ;
#359 = ADVANCED_FACE ( 'NONE', ( #236 ), #97, .F. ) ;
#360 = CARTESIAN_POINT ( 'NONE',  ( 8.250000000000000000, 2.500000000000000000, 7.250000000000000000 ) ) ;
#361 = SHAPE_DEFINITION_REPRESENTATION ( #60, #274 ) ;
#362 = CARTESIAN_POINT ( 'NONE',  ( 8.250000000000000000, 2.500000000000000000, 7.250000000000000000 ) ) ;
#363 = CC_DESIGN_PERSON_AND_ORGANIZATION_ASSIGNMENT ( #110, #358, ( #306 ) ) ;
#364 = DIRECTION ( 'NONE',  ( -0.000000000000000000, -0.000000000000000000, 1.000000000000000000 ) ) ;
#365 = EDGE_CURVE ( 'NONE', #210, #323, #178, .T. ) ;
#366 = DATE_AND_TIME ( #51, #141 ) ;
#367 = CARTESIAN_POINT ( 'NONE',  ( -8.250000000000000000, 2.500000000000000000, 11.25000000000000000 ) ) ;
#368 = PRODUCT_DEFINITION ( '未知', '', #306, #250 ) ;
#369 = VECTOR ( 'NONE', #185, 1000.000000000000000 ) ;
ENDSEC;
END-ISO-10303-21;
