ISO-10303-21;
HEADER;
FILE_DESCRIPTION (( 'STEP AP203' ),
    '1' );
FILE_NAME ('FN-HAR-005_tilt-rs485-route_R0.4.STEP',
    '2026-07-26T11:27:35',
    ( '' ),
    ( '' ),
    'SwSTEP 2.0',
    'SolidWorks 2022',
    '' );
FILE_SCHEMA (( 'CONFIG_CONTROL_DESIGN' ));
ENDSEC;

DATA;
#1 = LINE ( 'NONE', #114, #295 ) ;
#2 = DIRECTION ( 'NONE',  ( -0.000000000000000000, -1.000000000000000000, -0.000000000000000000 ) ) ;
#3 = PERSON_AND_ORGANIZATION ( #313, #165 ) ;
#4 = CC_DESIGN_PERSON_AND_ORGANIZATION_ASSIGNMENT ( #3, #190, ( #198 ) ) ;
#5 = CARTESIAN_POINT ( 'NONE',  ( -1.750000000000000000, 2.500000000000000000, -6.500000000000000888 ) ) ;
#6 = ORIENTED_EDGE ( 'NONE', *, *, #356, .F. ) ;
#7 = VECTOR ( 'NONE', #86, 1000.000000000000000 ) ;
#8 = DIRECTION ( 'NONE',  ( 1.000000000000000000, -0.000000000000000000, 0.000000000000000000 ) ) ;
#9 = ADVANCED_FACE ( 'NONE', ( #258 ), #319, .T. ) ;
#10 = CALENDAR_DATE ( 2026, 26, 7 ) ;
#11 = DIRECTION ( 'NONE',  ( 1.000000000000000000, 0.000000000000000000, -0.000000000000000000 ) ) ;
#12 = DESIGN_CONTEXT ( 'detailed design', #335, 'design' ) ;
#13 = FACE_OUTER_BOUND ( 'NONE', #273, .T. ) ;
#14 = PERSON_AND_ORGANIZATION_ROLE ( 'design_supplier' ) ;
#15 = DIRECTION ( 'NONE',  ( 0.000000000000000000, -0.000000000000000000, -1.000000000000000000 ) ) ;
#16 = UNCERTAINTY_MEASURE_WITH_UNIT (LENGTH_MEASURE( 1.000000000000000082E-05 ), #274, 'distance_accuracy_value', 'NONE');
#17 = ADVANCED_FACE ( 'NONE', ( #62 ), #314, .F. ) ;
#18 = CARTESIAN_POINT ( 'NONE',  ( 2.250000000000000000, 2.500000000000000000, -10.50000000000000000 ) ) ;
#19 = VECTOR ( 'NONE', #214, 1000.000000000000000 ) ;
#20 = ORIENTED_EDGE ( 'NONE', *, *, #257, .F. ) ;
#21 = LINE ( 'NONE', #322, #246 ) ;
#22 = VERTEX_POINT ( 'NONE', #66 ) ;
#23 = LINE ( 'NONE', #85, #95 ) ;
#24 = VECTOR ( 'NONE', #203, 1000.000000000000000 ) ;
#25 = ORIENTED_EDGE ( 'NONE', *, *, #129, .F. ) ;
#26 = PERSON_AND_ORGANIZATION ( #313, #165 ) ;
#27 = ADVANCED_FACE ( 'NONE', ( #199 ), #277, .F. ) ;
#28 = ORIENTED_EDGE ( 'NONE', *, *, #50, .F. ) ;
#29 = CALENDAR_DATE ( 2026, 26, 7 ) ;
#30 = DIRECTION ( 'NONE',  ( 0.000000000000000000, 0.000000000000000000, -1.000000000000000000 ) ) ;
#31 = EDGE_CURVE ( 'NONE', #330, #134, #202, .T. ) ;
#32 = DIRECTION ( 'NONE',  ( -0.000000000000000000, -1.000000000000000000, -0.000000000000000000 ) ) ;
#33 = DIRECTION ( 'NONE',  ( -0.000000000000000000, -0.000000000000000000, 1.000000000000000000 ) ) ;
#34 = AXIS2_PLACEMENT_3D ( 'NONE', #117, #231, #201 ) ;
#35 = LINE ( 'NONE', #367, #239 ) ;
#36 = LINE ( 'NONE', #60, #307 ) ;
#37 = APPROVAL_DATE_TIME ( #287, #352 ) ;
#38 = LINE ( 'NONE', #281, #40 ) ;
#39 = DIRECTION ( 'NONE',  ( -1.000000000000000000, -0.000000000000000000, -0.000000000000000000 ) ) ;
#40 = VECTOR ( 'NONE', #344, 1000.000000000000000 ) ;
#41 = CARTESIAN_POINT ( 'NONE',  ( 2.250000000000000000, 2.500000000000000000, 10.50000000000000000 ) ) ;
#42 = PLANE ( 'NONE',  #111 ) ;
#43 = DIRECTION ( 'NONE',  ( -0.000000000000000000, -0.000000000000000000, 1.000000000000000000 ) ) ;
#44 = VECTOR ( 'NONE', #152, 1000.000000000000000 ) ;
#45 = LINE ( 'NONE', #157, #19 ) ;
#46 = VECTOR ( 'NONE', #326, 1000.000000000000000 ) ;
#47 = ORIENTED_EDGE ( 'NONE', *, *, #31, .F. ) ;
#48 = FACE_OUTER_BOUND ( 'NONE', #333, .T. ) ;
#49 = ORIENTED_EDGE ( 'NONE', *, *, #31, .T. ) ;
#50 = EDGE_CURVE ( 'NONE', #268, #83, #67, .T. ) ;
#51 = APPROVAL_ROLE ( '' ) ;
#52 = ORIENTED_EDGE ( 'NONE', *, *, #325, .T. ) ;
#53 =( NAMED_UNIT ( * ) SI_UNIT ( $, .STERADIAN. ) SOLID_ANGLE_UNIT ( ) );
#54 = AXIS2_PLACEMENT_3D ( 'NONE', #237, #355, #211 ) ;
#55 = ORIENTED_EDGE ( 'NONE', *, *, #345, .F. ) ;
#56 = APPLICATION_PROTOCOL_DEFINITION ( 'international standard', 'config_control_design', 1994, #294 ) ;
#57 = ADVANCED_FACE ( 'NONE', ( #146 ), #312, .F. ) ;
#58 = ORIENTED_EDGE ( 'NONE', *, *, #61, .F. ) ;
#59 = LINE ( 'NONE', #144, #235 ) ;
#60 = CARTESIAN_POINT ( 'NONE',  ( 2.250000000000000444, 2.500000000000000000, 6.500000000000000000 ) ) ;
#61 = EDGE_CURVE ( 'NONE', #162, #330, #151, .T. ) ;
#62 = FACE_OUTER_BOUND ( 'NONE', #266, .T. ) ;
#63 = APPROVAL_PERSON_ORGANIZATION ( #90, #186, #208 ) ;
#64 = APPROVAL_PERSON_ORGANIZATION ( #338, #352, #71 ) ;
#65 = APPROVAL_STATUS ( 'not_yet_approved' ) ;
#66 = CARTESIAN_POINT ( 'NONE',  ( -1.750000000000001554, 0.000000000000000000, -6.500000000000000000 ) ) ;
#67 = LINE ( 'NONE', #342, #288 ) ;
#68 = DIRECTION ( 'NONE',  ( 1.000000000000000000, 0.000000000000000000, -0.000000000000000000 ) ) ;
#69 = VECTOR ( 'NONE', #238, 1000.000000000000000 ) ;
#70 = LINE ( 'NONE', #262, #279 ) ;
#71 = APPROVAL_ROLE ( '' ) ;
#72 = LINE ( 'NONE', #182, #44 ) ;
#73 = LINE ( 'NONE', #184, #252 ) ;
#74 = APPROVAL ( #303, '未指定' ) ;
#75 = VERTEX_POINT ( 'NONE', #172 ) ;
#76 = DIRECTION ( 'NONE',  ( 0.000000000000000000, 0.000000000000000000, 1.000000000000000000 ) ) ;
#77 = ORIENTED_EDGE ( 'NONE', *, *, #240, .F. ) ;
#78 = DIRECTION ( 'NONE',  ( -1.000000000000000000, -0.000000000000000000, -0.000000000000000000 ) ) ;
#79 = CALENDAR_DATE ( 2026, 26, 7 ) ;
#80 = EDGE_LOOP ( 'NONE', ( #360, #137, #107, #216 ) ) ;
#81 = PERSON_AND_ORGANIZATION ( #313, #165 ) ;
#82 = VECTOR ( 'NONE', #233, 1000.000000000000000 ) ;
#83 = VERTEX_POINT ( 'NONE', #251 ) ;
#84 = VERTEX_POINT ( 'NONE', #148 ) ;
#85 = CARTESIAN_POINT ( 'NONE',  ( -1.750000000000000000, 2.500000000000000000, -10.50000000000000000 ) ) ;
#86 = DIRECTION ( 'NONE',  ( 0.000000000000000000, 1.000000000000000000, 0.000000000000000000 ) ) ;
#87 = CARTESIAN_POINT ( 'NONE',  ( -21.25000000000000000, 0.000000000000000000, -6.500000000000000000 ) ) ;
#88 = AXIS2_PLACEMENT_3D ( 'NONE', #219, #263, #76 ) ;
#89 = CARTESIAN_POINT ( 'NONE',  ( -21.25000000000000000, 2.500000000000000000, -6.500000000000000000 ) ) ;
#90 = PERSON_AND_ORGANIZATION ( #313, #165 ) ;
#91 = CARTESIAN_POINT ( 'NONE',  ( 2.250000000000000000, 2.500000000000000000, -10.50000000000000000 ) ) ;
#92 = DATE_AND_TIME ( #10, #353 ) ;
#93 = DIRECTION ( 'NONE',  ( 0.000000000000000000, 0.000000000000000000, 1.000000000000000000 ) ) ;
#94 = ADVANCED_BREP_SHAPE_REPRESENTATION ( 'FN-HAR-005_tilt-rs485-route_R0.4', ( #298, #299 ), #328 ) ;
#95 = VECTOR ( 'NONE', #78, 1000.000000000000000 ) ;
#96 = CC_DESIGN_PERSON_AND_ORGANIZATION_ASSIGNMENT ( #321, #176, ( #178 ) ) ;
#97 = CARTESIAN_POINT ( 'NONE',  ( -21.25000000000000000, 2.500000000000000000, -6.500000000000000000 ) ) ;
#98 = CARTESIAN_POINT ( 'NONE',  ( -1.750000000000000000, 2.500000000000000000, 6.500000000000000000 ) ) ;
#99 = EDGE_CURVE ( 'NONE', #213, #162, #229, .T. ) ;
#100 = ORIENTED_EDGE ( 'NONE', *, *, #345, .T. ) ;
#101 = FACE_OUTER_BOUND ( 'NONE', #160, .T. ) ;
#102 = ORIENTED_EDGE ( 'NONE', *, *, #221, .T. ) ;
#103 = AXIS2_PLACEMENT_3D ( 'NONE', #104, #93, #11 ) ;
#104 = CARTESIAN_POINT ( 'NONE',  ( -1.750000000000000000, 2.500000000000000000, -10.50000000000000000 ) ) ;
#105 = ORIENTED_EDGE ( 'NONE', *, *, #365, .T. ) ;
#106 = MECHANICAL_CONTEXT ( 'NONE', #294, 'mechanical' ) ;
#107 = ORIENTED_EDGE ( 'NONE', *, *, #123, .T. ) ;
#108 = DATE_AND_TIME ( #29, #230 ) ;
#109 = VERTEX_POINT ( 'NONE', #167 ) ;
#110 = DIRECTION ( 'NONE',  ( -0.000000000000000000, -1.000000000000000000, -0.000000000000000000 ) ) ;
#111 = AXIS2_PLACEMENT_3D ( 'NONE', #209, #293, #15 ) ;
#112 = DIRECTION ( 'NONE',  ( -1.000000000000000000, 0.000000000000000000, -0.000000000000000000 ) ) ;
#113 = DIRECTION ( 'NONE',  ( 0.000000000000000000, 0.000000000000000000, -1.000000000000000000 ) ) ;
#114 = CARTESIAN_POINT ( 'NONE',  ( 21.25000000000000000, 2.500000000000000000, 6.500000000000000000 ) ) ;
#115 = ORIENTED_EDGE ( 'NONE', *, *, #327, .F. ) ;
#116 = PRODUCT_DEFINITION_SHAPE ( 'NONE', 'NONE',  #158 ) ;
#117 = CARTESIAN_POINT ( 'NONE',  ( 0.000000000000000000, 0.000000000000000000, 0.000000000000000000 ) ) ;
#118 = LOCAL_TIME ( 19, 27, 35.00000000000000000, #343 ) ;
#119 = COORDINATED_UNIVERSAL_TIME_OFFSET ( 8, 0, .AHEAD. ) ;
#120 = DIRECTION ( 'NONE',  ( 0.000000000000000000, 0.000000000000000000, -1.000000000000000000 ) ) ;
#121 = DIRECTION ( 'NONE',  ( 0.000000000000000000, 0.000000000000000000, 1.000000000000000000 ) ) ;
#122 = DATE_AND_TIME ( #284, #217 ) ;
#123 = EDGE_CURVE ( 'NONE', #139, #83, #36, .T. ) ;
#124 = CARTESIAN_POINT ( 'NONE',  ( 2.250000000000000000, 0.000000000000000000, -10.50000000000000000 ) ) ;
#125 = VECTOR ( 'NONE', #311, 1000.000000000000000 ) ;
#126 = EDGE_CURVE ( 'NONE', #84, #134, #368, .T. ) ;
#127 = PLANE ( 'NONE',  #54 ) ;
#128 = CARTESIAN_POINT ( 'NONE',  ( -1.750000000000000000, 2.500000000000000000, 10.50000000000000000 ) ) ;
#129 = EDGE_CURVE ( 'NONE', #22, #310, #228, .T. ) ;
#130 = ORIENTED_EDGE ( 'NONE', *, *, #278, .T. ) ;
#131 = VERTEX_POINT ( 'NONE', #200 ) ;
#132 = FACE_OUTER_BOUND ( 'NONE', #80, .T. ) ;
#133 = EDGE_CURVE ( 'NONE', #306, #268, #38, .T. ) ;
#134 = VERTEX_POINT ( 'NONE', #87 ) ;
#135 = LOCAL_TIME ( 19, 27, 35.00000000000000000, #272 ) ;
#136 = DATE_AND_TIME ( #79, #135 ) ;
#137 = ORIENTED_EDGE ( 'NONE', *, *, #297, .F. ) ;
#138 = PERSON_AND_ORGANIZATION_ROLE ( 'creator' ) ;
#139 = VERTEX_POINT ( 'NONE', #161 ) ;
#140 = ADVANCED_FACE ( 'NONE', ( #13 ), #301, .F. ) ;
#141 = LINE ( 'NONE', #163, #125 ) ;
#142 = DIRECTION ( 'NONE',  ( -1.000000000000000000, -0.000000000000000000, -0.000000000000000000 ) ) ;
#143 = CC_DESIGN_PERSON_AND_ORGANIZATION_ASSIGNMENT ( #150, #181, ( #271 ) ) ;
#144 = CARTESIAN_POINT ( 'NONE',  ( 2.250000000000000000, 0.000000000000000000, 10.50000000000000000 ) ) ;
#145 = CC_DESIGN_APPROVAL ( #74, ( #158 ) ) ;
#146 = FACE_OUTER_BOUND ( 'NONE', #196, .T. ) ;
#147 = CARTESIAN_POINT ( 'NONE',  ( -21.25000000000000000, 2.500000000000000000, -10.50000000000000000 ) ) ;
#148 = CARTESIAN_POINT ( 'NONE',  ( -21.25000000000000000, 2.500000000000000000, -6.500000000000000000 ) ) ;
#149 = DIRECTION ( 'NONE',  ( 0.000000000000000000, -1.000000000000000000, 0.000000000000000000 ) ) ;
#150 = PERSON_AND_ORGANIZATION ( #313, #165 ) ;
#151 = LINE ( 'NONE', #349, #362 ) ;
#152 = DIRECTION ( 'NONE',  ( 1.000000000000000000, 0.000000000000000000, 0.000000000000000000 ) ) ;
#153 = APPROVAL_DATE_TIME ( #92, #186 ) ;
#154 = CARTESIAN_POINT ( 'NONE',  ( 21.25000000000000000, 0.000000000000000000, 6.500000000000000000 ) ) ;
#155 = DIRECTION ( 'NONE',  ( 0.000000000000000000, 0.000000000000000000, 1.000000000000000000 ) ) ;
#156 = VECTOR ( 'NONE', #255, 1000.000000000000000 ) ;
#157 = CARTESIAN_POINT ( 'NONE',  ( -1.750000000000000000, 2.500000000000000000, 10.50000000000000000 ) ) ;
#158 = PRODUCT_DEFINITION ( '未知', '', #271, #12 ) ;
#159 = AXIS2_PLACEMENT_3D ( 'NONE', #232, #30, #173 ) ;
#160 = EDGE_LOOP ( 'NONE', ( #49, #245, #77, #188 ) ) ;
#161 = CARTESIAN_POINT ( 'NONE',  ( 2.250000000000000444, 2.500000000000000000, 6.500000000000000000 ) ) ;
#162 = VERTEX_POINT ( 'NONE', #124 ) ;
#163 = CARTESIAN_POINT ( 'NONE',  ( -1.750000000000000000, 0.000000000000000000, 10.50000000000000000 ) ) ;
#164 = EDGE_LOOP ( 'NONE', ( #226, #363, #250, #334 ) ) ;
#165 = ORGANIZATION ( '未指定', '未指定', '' ) ;
#166 = ORIENTED_EDGE ( 'NONE', *, *, #133, .F. ) ;
#167 = CARTESIAN_POINT ( 'NONE',  ( -21.25000000000000000, 2.500000000000000000, -10.50000000000000000 ) ) ;
#168 = LINE ( 'NONE', #147, #156 ) ;
#169 = ORIENTED_EDGE ( 'NONE', *, *, #325, .F. ) ;
#170 = CARTESIAN_POINT ( 'NONE',  ( 0.000000000000000000, 0.000000000000000000, 0.000000000000000000 ) ) ;
#171 = VECTOR ( 'NONE', #110, 1000.000000000000000 ) ;
#172 = CARTESIAN_POINT ( 'NONE',  ( -1.750000000000000000, 2.500000000000000000, 10.50000000000000000 ) ) ;
#173 = DIRECTION ( 'NONE',  ( -1.000000000000000000, 0.000000000000000000, -0.000000000000000000 ) ) ;
#174 = EDGE_CURVE ( 'NONE', #134, #22, #177, .T. ) ;
#175 = ORIENTED_EDGE ( 'NONE', *, *, #204, .T. ) ;
#176 = PERSON_AND_ORGANIZATION_ROLE ( 'classification_officer' ) ;
#177 = LINE ( 'NONE', #234, #82 ) ;
#178 = SECURITY_CLASSIFICATION ( '', '', #318 ) ;
#179 = DATE_TIME_ROLE ( 'classification_date' ) ;
#180 = DIRECTION ( 'NONE',  ( -1.000000000000000000, 0.000000000000000000, 0.000000000000000000 ) ) ;
#181 = PERSON_AND_ORGANIZATION_ROLE ( 'creator' ) ;
#182 = CARTESIAN_POINT ( 'NONE',  ( -21.25000000000000000, 2.500000000000000000, -6.500000000000000000 ) ) ;
#183 = ADVANCED_FACE ( 'NONE', ( #48 ), #42, .F. ) ;
#184 = CARTESIAN_POINT ( 'NONE',  ( 2.250000000000000000, 2.500000000000000000, 10.50000000000000000 ) ) ;
#185 = CLOSED_SHELL ( 'NONE', ( #17, #212, #57, #140, #183, #9, #236, #210, #27, #291 ) ) ;
#186 = APPROVAL ( #259, '未指定' ) ;
#187 = EDGE_CURVE ( 'NONE', #243, #306, #21, .T. ) ;
#188 = ORIENTED_EDGE ( 'NONE', *, *, #337, .T. ) ;
#189 = FACE_OUTER_BOUND ( 'NONE', #339, .T. ) ;
#190 = PERSON_AND_ORGANIZATION_ROLE ( 'design_owner' ) ;
#191 = ORIENTED_EDGE ( 'NONE', *, *, #123, .F. ) ;
#192 = APPROVAL_DATE_TIME ( #136, #74 ) ;
#193 = ORIENTED_EDGE ( 'NONE', *, *, #126, .T. ) ;
#194 = VECTOR ( 'NONE', #2, 1000.000000000000000 ) ;
#195 = APPLICATION_PROTOCOL_DEFINITION ( 'international standard', 'config_control_design', 1994, #335 ) ;
#196 = EDGE_LOOP ( 'NONE', ( #270, #115, #359, #100 ) ) ;
#197 = DIRECTION ( 'NONE',  ( 1.000000000000000000, 0.000000000000000000, 0.000000000000000000 ) ) ;
#198 = PRODUCT ( 'FN-HAR-005_tilt-rs485-route_R0.4', 'FN-HAR-005_tilt-rs485-route_R0.4', '', ( #106 ) ) ;
#199 = FACE_OUTER_BOUND ( 'NONE', #304, .T. ) ;
#200 = CARTESIAN_POINT ( 'NONE',  ( 21.25000000000000000, 2.500000000000000000, 6.500000000000000000 ) ) ;
#201 = DIRECTION ( 'NONE',  ( 0.000000000000000000, -0.000000000000000000, -1.000000000000000000 ) ) ;
#202 = LINE ( 'NONE', #256, #369 ) ;
#203 = DIRECTION ( 'NONE',  ( -0.000000000000000000, -1.000000000000000000, -0.000000000000000000 ) ) ;
#204 = EDGE_CURVE ( 'NONE', #220, #131, #70, .T. ) ;
#205 = PLANE ( 'NONE',  #332 ) ;
#206 = VECTOR ( 'NONE', #43, 1000.000000000000000 ) ;
#207 = CC_DESIGN_APPROVAL ( #186, ( #178 ) ) ;
#208 = APPROVAL_ROLE ( '' ) ;
#209 = CARTESIAN_POINT ( 'NONE',  ( 0.000000000000000000, 2.500000000000000000, 0.000000000000000000 ) ) ;
#210 = ADVANCED_FACE ( 'NONE', ( #267 ), #244, .F. ) ;
#211 = DIRECTION ( 'NONE',  ( 0.000000000000000000, 0.000000000000000000, -1.000000000000000000 ) ) ;
#212 = ADVANCED_FACE ( 'NONE', ( #189 ), #205, .F. ) ;
#213 = VERTEX_POINT ( 'NONE', #18 ) ;
#214 = DIRECTION ( 'NONE',  ( -0.000000000000000000, -0.000000000000000000, 1.000000000000000000 ) ) ;
#215 = CC_DESIGN_PERSON_AND_ORGANIZATION_ASSIGNMENT ( #292, #14, ( #271 ) ) ;
#216 = ORIENTED_EDGE ( 'NONE', *, *, #358, .T. ) ;
#217 = LOCAL_TIME ( 19, 27, 35.00000000000000000, #119 ) ;
#218 = APPROVAL_PERSON_ORGANIZATION ( #81, #74, #51 ) ;
#219 = CARTESIAN_POINT ( 'NONE',  ( 21.25000000000000000, 2.500000000000000000, 10.50000000000000000 ) ) ;
#220 = VERTEX_POINT ( 'NONE', #324 ) ;
#221 = EDGE_CURVE ( 'NONE', #75, #220, #289, .T. ) ;
#222 = DIRECTION ( 'NONE',  ( 0.000000000000000000, 0.000000000000000000, 1.000000000000000000 ) ) ;
#223 = ORIENTED_EDGE ( 'NONE', *, *, #327, .T. ) ;
#224 = DATE_TIME_ROLE ( 'creation_date' ) ;
#225 = ORIENTED_EDGE ( 'NONE', *, *, #174, .T. ) ;
#226 = ORIENTED_EDGE ( 'NONE', *, *, #61, .T. ) ;
#227 =( NAMED_UNIT ( * ) PLANE_ANGLE_UNIT ( ) SI_UNIT ( $, .RADIAN. ) );
#228 = LINE ( 'NONE', #5, #7 ) ;
#229 = LINE ( 'NONE', #91, #24 ) ;
#230 = LOCAL_TIME ( 19, 27, 35.00000000000000000, #249 ) ;
#231 = DIRECTION ( 'NONE',  ( 0.000000000000000000, -1.000000000000000000, 0.000000000000000000 ) ) ;
#232 = CARTESIAN_POINT ( 'NONE',  ( -1.750000000000000000, 2.500000000000000000, 10.50000000000000000 ) ) ;
#233 = DIRECTION ( 'NONE',  ( 1.000000000000000000, 0.000000000000000000, 0.000000000000000000 ) ) ;
#234 = CARTESIAN_POINT ( 'NONE',  ( -21.25000000000000000, 0.000000000000000000, -6.500000000000000000 ) ) ;
#235 = VECTOR ( 'NONE', #305, 1000.000000000000000 ) ;
#236 = ADVANCED_FACE ( 'NONE', ( #132 ), #361, .F. ) ;
#237 = CARTESIAN_POINT ( 'NONE',  ( -21.25000000000000000, 2.500000000000000000, -6.500000000000000000 ) ) ;
#238 = DIRECTION ( 'NONE',  ( 1.000000000000000000, 0.000000000000000000, 0.000000000000000000 ) ) ;
#239 = VECTOR ( 'NONE', #280, 1000.000000000000000 ) ;
#240 = EDGE_CURVE ( 'NONE', #109, #84, #354, .T. ) ;
#241 = ORIENTED_EDGE ( 'NONE', *, *, #204, .F. ) ;
#242 = PRODUCT_RELATED_PRODUCT_CATEGORY ( 'detail', '', ( #198 ) ) ;
#243 = VERTEX_POINT ( 'NONE', #350 ) ;
#244 = PLANE ( 'NONE',  #103 ) ;
#245 = ORIENTED_EDGE ( 'NONE', *, *, #126, .F. ) ;
#246 = VECTOR ( 'NONE', #264, 1000.000000000000000 ) ;
#247 = CC_DESIGN_DATE_AND_TIME_ASSIGNMENT ( #122, #179, ( #178 ) ) ;
#248 = EDGE_LOOP ( 'NONE', ( #58, #286, #28, #166, #265, #169, #316, #47 ) ) ;
#249 = COORDINATED_UNIVERSAL_TIME_OFFSET ( 8, 0, .AHEAD. ) ;
#250 = ORIENTED_EDGE ( 'NONE', *, *, #365, .F. ) ;
#251 = CARTESIAN_POINT ( 'NONE',  ( 2.250000000000000444, 0.000000000000000000, 6.500000000000000000 ) ) ;
#252 = VECTOR ( 'NONE', #331, 1000.000000000000000 ) ;
#253 = LINE ( 'NONE', #269, #171 ) ;
#254 = CARTESIAN_POINT ( 'NONE',  ( -21.25000000000000000, 2.500000000000000000, -6.500000000000000000 ) ) ;
#255 = DIRECTION ( 'NONE',  ( -0.000000000000000000, -1.000000000000000000, -0.000000000000000000 ) ) ;
#256 = CARTESIAN_POINT ( 'NONE',  ( -21.25000000000000000, 0.000000000000000000, -6.500000000000000000 ) ) ;
#257 = EDGE_CURVE ( 'NONE', #131, #139, #357, .T. ) ;
#258 = FACE_OUTER_BOUND ( 'NONE', #248, .T. ) ;
#259 = APPROVAL_STATUS ( 'not_yet_approved' ) ;
#260 = ORIENTED_EDGE ( 'NONE', *, *, #50, .T. ) ;
#261 = DIRECTION ( 'NONE',  ( 0.000000000000000000, 0.000000000000000000, -1.000000000000000000 ) ) ;
#262 = CARTESIAN_POINT ( 'NONE',  ( 21.25000000000000000, 2.500000000000000000, 10.50000000000000000 ) ) ;
#263 = DIRECTION ( 'NONE',  ( -1.000000000000000000, 0.000000000000000000, 0.000000000000000000 ) ) ;
#264 = DIRECTION ( 'NONE',  ( 1.000000000000000000, 0.000000000000000000, 0.000000000000000000 ) ) ;
#265 = ORIENTED_EDGE ( 'NONE', *, *, #187, .F. ) ;
#266 = EDGE_LOOP ( 'NONE', ( #25, #52, #55, #336 ) ) ;
#267 = FACE_OUTER_BOUND ( 'NONE', #164, .T. ) ;
#268 = VERTEX_POINT ( 'NONE', #154 ) ;
#269 = CARTESIAN_POINT ( 'NONE',  ( -1.750000000000000000, 2.500000000000000000, 10.50000000000000000 ) ) ;
#270 = ORIENTED_EDGE ( 'NONE', *, *, #187, .T. ) ;
#271 = PRODUCT_DEFINITION_FORMATION_WITH_SPECIFIED_SOURCE ( '任何', '', #198, .NOT_KNOWN. ) ;
#272 = COORDINATED_UNIVERSAL_TIME_OFFSET ( 8, 0, .AHEAD. ) ;
#273 = EDGE_LOOP ( 'NONE', ( #341, #6, #241, #223 ) ) ;
#274 =( LENGTH_UNIT ( ) NAMED_UNIT ( * ) SI_UNIT ( .MILLI., .METRE. ) );
#275 = ORIENTED_EDGE ( 'NONE', *, *, #297, .T. ) ;
#276 = CARTESIAN_POINT ( 'NONE',  ( -1.750000000000000000, 2.500000000000000000, -6.500000000000000888 ) ) ;
#277 = PLANE ( 'NONE',  #346 ) ;
#278 = EDGE_CURVE ( 'NONE', #84, #310, #72, .T. ) ;
#279 = VECTOR ( 'NONE', #261, 1000.000000000000000 ) ;
#280 = DIRECTION ( 'NONE',  ( -0.000000000000000000, -1.000000000000000000, -0.000000000000000000 ) ) ;
#281 = CARTESIAN_POINT ( 'NONE',  ( 21.25000000000000000, 0.000000000000000000, 10.50000000000000000 ) ) ;
#282 = CALENDAR_DATE ( 2026, 26, 7 ) ;
#283 = ORIENTED_EDGE ( 'NONE', *, *, #129, .T. ) ;
#284 = CALENDAR_DATE ( 2026, 26, 7 ) ;
#285 = CC_DESIGN_PERSON_AND_ORGANIZATION_ASSIGNMENT ( #26, #138, ( #158 ) ) ;
#286 = ORIENTED_EDGE ( 'NONE', *, *, #358, .F. ) ;
#287 = DATE_AND_TIME ( #282, #118 ) ;
#288 = VECTOR ( 'NONE', #39, 1000.000000000000000 ) ;
#289 = LINE ( 'NONE', #128, #69 ) ;
#290 = CARTESIAN_POINT ( 'NONE',  ( -1.750000000000000000, 2.500000000000000000, 6.500000000000000000 ) ) ;
#291 = ADVANCED_FACE ( 'NONE', ( #101 ), #127, .F. ) ;
#292 = PERSON_AND_ORGANIZATION ( #313, #165 ) ;
#293 = DIRECTION ( 'NONE',  ( 0.000000000000000000, -1.000000000000000000, 0.000000000000000000 ) ) ;
#294 = APPLICATION_CONTEXT ( 'configuration controlled 3d designs of mechanical parts and assemblies' ) ;
#295 = VECTOR ( 'NONE', #32, 1000.000000000000000 ) ;
#296 = CARTESIAN_POINT ( 'NONE',  ( 21.25000000000000000, 0.000000000000000000, 10.50000000000000000 ) ) ;
#297 = EDGE_CURVE ( 'NONE', #139, #213, #73, .T. ) ;
#298 = MANIFOLD_SOLID_BREP ( '凸台-拉伸3', #185 ) ;
#299 = AXIS2_PLACEMENT_3D ( 'NONE', #170, #222, #197 ) ;
#300 = ORIENTED_EDGE ( 'NONE', *, *, #309, .T. ) ;
#301 = PLANE ( 'NONE',  #88 ) ;
#302 = ORIENTED_EDGE ( 'NONE', *, *, #278, .F. ) ;
#303 = APPROVAL_STATUS ( 'not_yet_approved' ) ;
#304 = EDGE_LOOP ( 'NONE', ( #225, #283, #302, #193 ) ) ;
#305 = DIRECTION ( 'NONE',  ( 0.000000000000000000, 0.000000000000000000, -1.000000000000000000 ) ) ;
#306 = VERTEX_POINT ( 'NONE', #296 ) ;
#307 = VECTOR ( 'NONE', #149, 1000.000000000000000 ) ;
#308 = CARTESIAN_POINT ( 'NONE',  ( -21.25000000000000000, 0.000000000000000000, -10.50000000000000000 ) ) ;
#309 = EDGE_CURVE ( 'NONE', #310, #75, #45, .T. ) ;
#310 = VERTEX_POINT ( 'NONE', #276 ) ;
#311 = DIRECTION ( 'NONE',  ( -0.000000000000000000, -0.000000000000000000, 1.000000000000000000 ) ) ;
#312 = PLANE ( 'NONE',  #159 ) ;
#313 = PERSON ( '未指定', '未指定', '未指定', ('未指定'), ('未指定'), ('未指定') ) ;
#314 = PLANE ( 'NONE',  #351 ) ;
#315 = AXIS2_PLACEMENT_3D ( 'NONE', #41, #180, #121 ) ;
#316 = ORIENTED_EDGE ( 'NONE', *, *, #174, .F. ) ;
#317 = CC_DESIGN_DATE_AND_TIME_ASSIGNMENT ( #108, #224, ( #158 ) ) ;
#318 = SECURITY_CLASSIFICATION_LEVEL ( 'unclassified' ) ;
#319 = PLANE ( 'NONE',  #34 ) ;
#320 = ORIENTED_EDGE ( 'NONE', *, *, #356, .T. ) ;
#321 = PERSON_AND_ORGANIZATION ( #313, #165 ) ;
#322 = CARTESIAN_POINT ( 'NONE',  ( -1.750000000000000000, 0.000000000000000000, 10.50000000000000000 ) ) ;
#323 = COORDINATED_UNIVERSAL_TIME_OFFSET ( 8, 0, .AHEAD. ) ;
#324 = CARTESIAN_POINT ( 'NONE',  ( 21.25000000000000000, 2.500000000000000000, 10.50000000000000000 ) ) ;
#325 = EDGE_CURVE ( 'NONE', #22, #243, #141, .T. ) ;
#326 = DIRECTION ( 'NONE',  ( -1.000000000000000000, -0.000000000000000000, -0.000000000000000000 ) ) ;
#327 = EDGE_CURVE ( 'NONE', #220, #306, #35, .T. ) ;
#328 =( GEOMETRIC_REPRESENTATION_CONTEXT ( 3 ) GLOBAL_UNCERTAINTY_ASSIGNED_CONTEXT ( ( #16 ) ) GLOBAL_UNIT_ASSIGNED_CONTEXT ( ( #274, #227, #53 ) ) REPRESENTATION_CONTEXT ( 'NONE', 'WORKASPACE' ) );
#329 = CC_DESIGN_SECURITY_CLASSIFICATION ( #178, ( #271 ) ) ;
#330 = VERTEX_POINT ( 'NONE', #308 ) ;
#331 = DIRECTION ( 'NONE',  ( 0.000000000000000000, 0.000000000000000000, -1.000000000000000000 ) ) ;
#332 = AXIS2_PLACEMENT_3D ( 'NONE', #98, #155, #68 ) ;
#333 = EDGE_LOOP ( 'NONE', ( #105, #366, #130, #300, #102, #175, #364, #275 ) ) ;
#334 = ORIENTED_EDGE ( 'NONE', *, *, #99, .T. ) ;
#335 = APPLICATION_CONTEXT ( 'configuration controlled 3d designs of mechanical parts and assemblies' ) ;
#336 = ORIENTED_EDGE ( 'NONE', *, *, #309, .F. ) ;
#337 = EDGE_CURVE ( 'NONE', #109, #330, #168, .T. ) ;
#338 = PERSON_AND_ORGANIZATION ( #313, #165 ) ;
#339 = EDGE_LOOP ( 'NONE', ( #191, #20, #320, #260 ) ) ;
#340 = CC_DESIGN_APPROVAL ( #352, ( #271 ) ) ;
#341 = ORIENTED_EDGE ( 'NONE', *, *, #133, .T. ) ;
#342 = CARTESIAN_POINT ( 'NONE',  ( -1.750000000000000000, 0.000000000000000000, 6.500000000000000000 ) ) ;
#343 = COORDINATED_UNIVERSAL_TIME_OFFSET ( 8, 0, .AHEAD. ) ;
#344 = DIRECTION ( 'NONE',  ( 0.000000000000000000, 0.000000000000000000, -1.000000000000000000 ) ) ;
#345 = EDGE_CURVE ( 'NONE', #75, #243, #253, .T. ) ;
#346 = AXIS2_PLACEMENT_3D ( 'NONE', #89, #120, #112 ) ;
#347 = CARTESIAN_POINT ( 'NONE',  ( -1.750000000000000000, 2.500000000000000000, 10.50000000000000000 ) ) ;
#348 = SHAPE_DEFINITION_REPRESENTATION ( #116, #94 ) ;
#349 = CARTESIAN_POINT ( 'NONE',  ( -1.750000000000000000, 0.000000000000000000, -10.50000000000000000 ) ) ;
#350 = CARTESIAN_POINT ( 'NONE',  ( -1.750000000000000000, 0.000000000000000000, 10.50000000000000000 ) ) ;
#351 = AXIS2_PLACEMENT_3D ( 'NONE', #347, #8, #113 ) ;
#352 = APPROVAL ( #65, '未指定' ) ;
#353 = LOCAL_TIME ( 19, 27, 35.00000000000000000, #323 ) ;
#354 = LINE ( 'NONE', #97, #206 ) ;
#355 = DIRECTION ( 'NONE',  ( 1.000000000000000000, -0.000000000000000000, 0.000000000000000000 ) ) ;
#356 = EDGE_CURVE ( 'NONE', #131, #268, #1, .T. ) ;
#357 = LINE ( 'NONE', #290, #46 ) ;
#358 = EDGE_CURVE ( 'NONE', #83, #162, #59, .T. ) ;
#359 = ORIENTED_EDGE ( 'NONE', *, *, #221, .F. ) ;
#360 = ORIENTED_EDGE ( 'NONE', *, *, #99, .F. ) ;
#361 = PLANE ( 'NONE',  #315 ) ;
#362 = VECTOR ( 'NONE', #142, 1000.000000000000000 ) ;
#363 = ORIENTED_EDGE ( 'NONE', *, *, #337, .F. ) ;
#364 = ORIENTED_EDGE ( 'NONE', *, *, #257, .T. ) ;
#365 = EDGE_CURVE ( 'NONE', #213, #109, #23, .T. ) ;
#366 = ORIENTED_EDGE ( 'NONE', *, *, #240, .T. ) ;
#367 = CARTESIAN_POINT ( 'NONE',  ( 21.25000000000000000, 2.500000000000000000, 10.50000000000000000 ) ) ;
#368 = LINE ( 'NONE', #254, #194 ) ;
#369 = VECTOR ( 'NONE', #33, 1000.000000000000000 ) ;
ENDSEC;
END-ISO-10303-21;
