ISO-10303-21;
HEADER;
FILE_DESCRIPTION (( 'STEP AP203' ),
    '1' );
FILE_NAME ('FN-HLD-001_battery-tray-zone_R0.4.STEP',
    '2026-07-26T11:26:07',
    ( '' ),
    ( '' ),
    'SwSTEP 2.0',
    'SolidWorks 2022',
    '' );
FILE_SCHEMA (( 'CONFIG_CONTROL_DESIGN' ));
ENDSEC;

DATA;
#1 = CALENDAR_DATE ( 2026, 26, 7 ) ;
#2 = VERTEX_POINT ( 'NONE', #224 ) ;
#3 = APPROVAL_DATE_TIME ( #57, #167 ) ;
#4 = APPROVAL_DATE_TIME ( #94, #212 ) ;
#5 = APPLICATION_CONTEXT ( 'configuration controlled 3d designs of mechanical parts and assemblies' ) ;
#6 = CARTESIAN_POINT ( 'NONE',  ( -36.00000000000000000, 3.000000000000000000, 33.50000000000000000 ) ) ;
#7 = AXIS2_PLACEMENT_3D ( 'NONE', #117, #236, #29 ) ;
#8 = ORIENTED_EDGE ( 'NONE', *, *, #12, .T. ) ;
#9 = FACE_OUTER_BOUND ( 'NONE', #66, .T. ) ;
#10 = PLANE ( 'NONE',  #36 ) ;
#11 = PLANE ( 'NONE',  #7 ) ;
#12 = EDGE_CURVE ( 'NONE', #79, #34, #42, .T. ) ;
#13 = APPLICATION_PROTOCOL_DEFINITION ( 'international standard', 'config_control_design', 1994, #5 ) ;
#14 = APPLICATION_CONTEXT ( 'configuration controlled 3d designs of mechanical parts and assemblies' ) ;
#15 = PERSON_AND_ORGANIZATION ( #20, #202 ) ;
#16 = COORDINATED_UNIVERSAL_TIME_OFFSET ( 8, 0, .AHEAD. ) ;
#17 = APPROVAL ( #214, '未指定' ) ;
#18 = PERSON_AND_ORGANIZATION ( #20, #202 ) ;
#19 = COORDINATED_UNIVERSAL_TIME_OFFSET ( 8, 0, .AHEAD. ) ;
#20 = PERSON ( '未指定', '未指定', '未指定', ('未指定'), ('未指定'), ('未指定') ) ;
#21 = VERTEX_POINT ( 'NONE', #83 ) ;
#22 = CARTESIAN_POINT ( 'NONE',  ( -36.00000000000000000, 0.000000000000000000, 33.50000000000000000 ) ) ;
#23 = ORIENTED_EDGE ( 'NONE', *, *, #30, .F. ) ;
#24 = ORIENTED_EDGE ( 'NONE', *, *, #226, .T. ) ;
#25 = APPROVAL_PERSON_ORGANIZATION ( #70, #17, #48 ) ;
#26 = DIRECTION ( 'NONE',  ( 0.000000000000000000, 0.000000000000000000, -1.000000000000000000 ) ) ;
#27 =( NAMED_UNIT ( * ) SI_UNIT ( $, .STERADIAN. ) SOLID_ANGLE_UNIT ( ) );
#28 = EDGE_CURVE ( 'NONE', #144, #148, #151, .T. ) ;
#29 = DIRECTION ( 'NONE',  ( 0.000000000000000000, -0.000000000000000000, -1.000000000000000000 ) ) ;
#30 = EDGE_CURVE ( 'NONE', #2, #21, #98, .T. ) ;
#31 = APPROVAL_ROLE ( '' ) ;
#32 =( GEOMETRIC_REPRESENTATION_CONTEXT ( 3 ) GLOBAL_UNCERTAINTY_ASSIGNED_CONTEXT ( ( #208 ) ) GLOBAL_UNIT_ASSIGNED_CONTEXT ( ( #119, #123, #27 ) ) REPRESENTATION_CONTEXT ( 'NONE', 'WORKASPACE' ) );
#33 = PERSON_AND_ORGANIZATION_ROLE ( 'creator' ) ;
#34 = VERTEX_POINT ( 'NONE', #130 ) ;
#35 = PERSON_AND_ORGANIZATION_ROLE ( 'design_supplier' ) ;
#36 = AXIS2_PLACEMENT_3D ( 'NONE', #85, #154, #104 ) ;
#37 = DIRECTION ( 'NONE',  ( -1.000000000000000000, 0.000000000000000000, 0.000000000000000000 ) ) ;
#38 = FACE_OUTER_BOUND ( 'NONE', #229, .T. ) ;
#39 = DIRECTION ( 'NONE',  ( 0.000000000000000000, 0.000000000000000000, 1.000000000000000000 ) ) ;
#40 = VECTOR ( 'NONE', #138, 1000.000000000000000 ) ;
#41 = LOCAL_TIME ( 19, 26, 7.000000000000000000, #146 ) ;
#42 = LINE ( 'NONE', #43, #82 ) ;
#43 = CARTESIAN_POINT ( 'NONE',  ( -36.00000000000000000, 3.000000000000000000, -33.50000000000000000 ) ) ;
#44 = CARTESIAN_POINT ( 'NONE',  ( -36.00000000000000000, 3.000000000000000000, 33.50000000000000000 ) ) ;
#45 = ADVANCED_FACE ( 'NONE', ( #203 ), #116, .F. ) ;
#46 = LINE ( 'NONE', #210, #40 ) ;
#47 = PERSON_AND_ORGANIZATION_ROLE ( 'design_owner' ) ;
#48 = APPROVAL_ROLE ( '' ) ;
#49 = LOCAL_TIME ( 19, 26, 7.000000000000000000, #19 ) ;
#50 = SECURITY_CLASSIFICATION_LEVEL ( 'unclassified' ) ;
#51 = COORDINATED_UNIVERSAL_TIME_OFFSET ( 8, 0, .AHEAD. ) ;
#52 = APPROVAL_DATE_TIME ( #92, #17 ) ;
#53 = LOCAL_TIME ( 19, 26, 7.000000000000000000, #16 ) ;
#54 = ORIENTED_EDGE ( 'NONE', *, *, #188, .T. ) ;
#55 = ADVANCED_FACE ( 'NONE', ( #84 ), #170, .F. ) ;
#56 = PRODUCT_RELATED_PRODUCT_CATEGORY ( 'detail', '', ( #161 ) ) ;
#57 = DATE_AND_TIME ( #222, #41 ) ;
#58 = ORIENTED_EDGE ( 'NONE', *, *, #28, .T. ) ;
#59 = ADVANCED_BREP_SHAPE_REPRESENTATION ( 'FN-HLD-001_battery-tray-zone_R0.4', ( #109, #163 ), #32 ) ;
#60 = ORIENTED_EDGE ( 'NONE', *, *, #96, .F. ) ;
#61 = VECTOR ( 'NONE', #228, 1000.000000000000000 ) ;
#62 = CARTESIAN_POINT ( 'NONE',  ( -36.00000000000000000, 3.000000000000000000, -33.50000000000000000 ) ) ;
#63 = CC_DESIGN_DATE_AND_TIME_ASSIGNMENT ( #177, #72, ( #88 ) ) ;
#64 = LINE ( 'NONE', #205, #114 ) ;
#65 = ORIENTED_EDGE ( 'NONE', *, *, #190, .F. ) ;
#66 = EDGE_LOOP ( 'NONE', ( #24, #134, #150, #112 ) ) ;
#67 = DIRECTION ( 'NONE',  ( 1.000000000000000000, 0.000000000000000000, 0.000000000000000000 ) ) ;
#68 = DIRECTION ( 'NONE',  ( 0.000000000000000000, 0.000000000000000000, 1.000000000000000000 ) ) ;
#69 = LINE ( 'NONE', #173, #103 ) ;
#70 = PERSON_AND_ORGANIZATION ( #20, #202 ) ;
#71 = CARTESIAN_POINT ( 'NONE',  ( -36.00000000000000000, 0.000000000000000000, 33.50000000000000000 ) ) ;
#72 = DATE_TIME_ROLE ( 'classification_date' ) ;
#73 = EDGE_CURVE ( 'NONE', #148, #79, #227, .T. ) ;
#74 = PERSON_AND_ORGANIZATION ( #20, #202 ) ;
#75 = APPROVAL_PERSON_ORGANIZATION ( #140, #212, #31 ) ;
#76 = CC_DESIGN_SECURITY_CLASSIFICATION ( #88, ( #186 ) ) ;
#77 = DATE_TIME_ROLE ( 'creation_date' ) ;
#78 = ORIENTED_EDGE ( 'NONE', *, *, #73, .T. ) ;
#79 = VERTEX_POINT ( 'NONE', #115 ) ;
#80 = CC_DESIGN_DATE_AND_TIME_ASSIGNMENT ( #164, #77, ( #184 ) ) ;
#81 = DIRECTION ( 'NONE',  ( -1.000000000000000000, 0.000000000000000000, -0.000000000000000000 ) ) ;
#82 = VECTOR ( 'NONE', #111, 1000.000000000000000 ) ;
#83 = CARTESIAN_POINT ( 'NONE',  ( 36.00000000000000000, 0.000000000000000000, -33.50000000000000000 ) ) ;
#84 = FACE_OUTER_BOUND ( 'NONE', #187, .T. ) ;
#85 = CARTESIAN_POINT ( 'NONE',  ( -36.00000000000000000, 3.000000000000000000, -33.50000000000000000 ) ) ;
#86 = CARTESIAN_POINT ( 'NONE',  ( -36.00000000000000000, 3.000000000000000000, 33.50000000000000000 ) ) ;
#87 = APPLICATION_PROTOCOL_DEFINITION ( 'international standard', 'config_control_design', 1994, #14 ) ;
#88 = SECURITY_CLASSIFICATION ( '', '', #50 ) ;
#89 = LINE ( 'NONE', #211, #129 ) ;
#90 = DIRECTION ( 'NONE',  ( -0.000000000000000000, -1.000000000000000000, -0.000000000000000000 ) ) ;
#91 = CC_DESIGN_PERSON_AND_ORGANIZATION_ASSIGNMENT ( #128, #107, ( #186 ) ) ;
#92 = DATE_AND_TIME ( #198, #53 ) ;
#93 = ADVANCED_FACE ( 'NONE', ( #38 ), #185, .T. ) ;
#94 = DATE_AND_TIME ( #142, #49 ) ;
#95 = CARTESIAN_POINT ( 'NONE',  ( 36.00000000000000000, 3.000000000000000000, 33.50000000000000000 ) ) ;
#96 = EDGE_CURVE ( 'NONE', #34, #183, #132, .T. ) ;
#97 = CARTESIAN_POINT ( 'NONE',  ( 0.000000000000000000, 0.000000000000000000, 0.000000000000000000 ) ) ;
#98 = LINE ( 'NONE', #209, #166 ) ;
#99 = CC_DESIGN_PERSON_AND_ORGANIZATION_ASSIGNMENT ( #15, #162, ( #88 ) ) ;
#100 = EDGE_LOOP ( 'NONE', ( #181, #65, #108, #8 ) ) ;
#101 = CC_DESIGN_PERSON_AND_ORGANIZATION_ASSIGNMENT ( #106, #35, ( #186 ) ) ;
#102 = DIRECTION ( 'NONE',  ( 1.000000000000000000, -0.000000000000000000, 0.000000000000000000 ) ) ;
#103 = VECTOR ( 'NONE', #90, 1000.000000000000000 ) ;
#104 = DIRECTION ( 'NONE',  ( 1.000000000000000000, 0.000000000000000000, -0.000000000000000000 ) ) ;
#105 = CARTESIAN_POINT ( 'NONE',  ( 36.00000000000000000, 3.000000000000000000, 33.50000000000000000 ) ) ;
#106 = PERSON_AND_ORGANIZATION ( #20, #202 ) ;
#107 = PERSON_AND_ORGANIZATION_ROLE ( 'creator' ) ;
#108 = ORIENTED_EDGE ( 'NONE', *, *, #231, .F. ) ;
#109 = MANIFOLD_SOLID_BREP ( '凸台-拉伸1', #174 ) ;
#110 = ORIENTED_EDGE ( 'NONE', *, *, #28, .F. ) ;
#111 = DIRECTION ( 'NONE',  ( -0.000000000000000000, -1.000000000000000000, -0.000000000000000000 ) ) ;
#112 = ORIENTED_EDGE ( 'NONE', *, *, #235, .T. ) ;
#113 = DIRECTION ( 'NONE',  ( -0.000000000000000000, -1.000000000000000000, -0.000000000000000000 ) ) ;
#114 = VECTOR ( 'NONE', #113, 1000.000000000000000 ) ;
#115 = CARTESIAN_POINT ( 'NONE',  ( -36.00000000000000000, 3.000000000000000000, -33.50000000000000000 ) ) ;
#116 = PLANE ( 'NONE',  #153 ) ;
#117 = CARTESIAN_POINT ( 'NONE',  ( 0.000000000000000000, 3.000000000000000000, 0.000000000000000000 ) ) ;
#118 = AXIS2_PLACEMENT_3D ( 'NONE', #6, #169, #81 ) ;
#119 =( LENGTH_UNIT ( ) NAMED_UNIT ( * ) SI_UNIT ( .MILLI., .METRE. ) );
#120 = LINE ( 'NONE', #157, #195 ) ;
#121 = EDGE_CURVE ( 'NONE', #144, #2, #64, .T. ) ;
#122 = CARTESIAN_POINT ( 'NONE',  ( -36.00000000000000000, 0.000000000000000000, 33.50000000000000000 ) ) ;
#123 =( NAMED_UNIT ( * ) PLANE_ANGLE_UNIT ( ) SI_UNIT ( $, .RADIAN. ) );
#124 = APPROVAL_ROLE ( '' ) ;
#125 = AXIS2_PLACEMENT_3D ( 'NONE', #86, #102, #26 ) ;
#126 = SHAPE_DEFINITION_REPRESENTATION ( #218, #59 ) ;
#127 = ORIENTED_EDGE ( 'NONE', *, *, #147, .F. ) ;
#128 = PERSON_AND_ORGANIZATION ( #20, #202 ) ;
#129 = VECTOR ( 'NONE', #234, 1000.000000000000000 ) ;
#130 = CARTESIAN_POINT ( 'NONE',  ( -36.00000000000000000, 0.000000000000000000, -33.50000000000000000 ) ) ;
#131 = DIRECTION ( 'NONE',  ( -1.000000000000000000, -0.000000000000000000, -0.000000000000000000 ) ) ;
#132 = LINE ( 'NONE', #22, #61 ) ;
#133 = DIRECTION ( 'NONE',  ( 0.000000000000000000, 0.000000000000000000, -1.000000000000000000 ) ) ;
#134 = ORIENTED_EDGE ( 'NONE', *, *, #12, .F. ) ;
#135 = MECHANICAL_CONTEXT ( 'NONE', #14, 'mechanical' ) ;
#136 = CARTESIAN_POINT ( 'NONE',  ( 36.00000000000000000, 3.000000000000000000, -33.50000000000000000 ) ) ;
#137 = ADVANCED_FACE ( 'NONE', ( #9 ), #10, .F. ) ;
#138 = DIRECTION ( 'NONE',  ( -0.000000000000000000, -0.000000000000000000, 1.000000000000000000 ) ) ;
#139 = AXIS2_PLACEMENT_3D ( 'NONE', #97, #168, #189 ) ;
#140 = PERSON_AND_ORGANIZATION ( #20, #202 ) ;
#141 = ORIENTED_EDGE ( 'NONE', *, *, #30, .T. ) ;
#142 = CALENDAR_DATE ( 2026, 26, 7 ) ;
#143 = CC_DESIGN_PERSON_AND_ORGANIZATION_ASSIGNMENT ( #74, #33, ( #184 ) ) ;
#144 = VERTEX_POINT ( 'NONE', #105 ) ;
#145 = ORIENTED_EDGE ( 'NONE', *, *, #235, .F. ) ;
#146 = COORDINATED_UNIVERSAL_TIME_OFFSET ( 8, 0, .AHEAD. ) ;
#147 = EDGE_CURVE ( 'NONE', #221, #144, #155, .T. ) ;
#148 = VERTEX_POINT ( 'NONE', #136 ) ;
#149 = CC_DESIGN_APPROVAL ( #167, ( #186 ) ) ;
#150 = ORIENTED_EDGE ( 'NONE', *, *, #73, .F. ) ;
#151 = LINE ( 'NONE', #204, #216 ) ;
#152 = DIRECTION ( 'NONE',  ( 0.000000000000000000, 0.000000000000000000, -1.000000000000000000 ) ) ;
#153 = AXIS2_PLACEMENT_3D ( 'NONE', #95, #37, #39 ) ;
#154 = DIRECTION ( 'NONE',  ( 0.000000000000000000, 0.000000000000000000, 1.000000000000000000 ) ) ;
#155 = LINE ( 'NONE', #44, #199 ) ;
#156 = PERSON_AND_ORGANIZATION ( #20, #202 ) ;
#157 = CARTESIAN_POINT ( 'NONE',  ( -36.00000000000000000, 0.000000000000000000, -33.50000000000000000 ) ) ;
#158 = CARTESIAN_POINT ( 'NONE',  ( 0.000000000000000000, 0.000000000000000000, 0.000000000000000000 ) ) ;
#159 = COORDINATED_UNIVERSAL_TIME_OFFSET ( 8, 0, .AHEAD. ) ;
#160 = APPROVAL_STATUS ( 'not_yet_approved' ) ;
#161 = PRODUCT ( 'FN-HLD-001_battery-tray-zone_R0.4', 'FN-HLD-001_battery-tray-zone_R0.4', '', ( #135 ) ) ;
#162 = PERSON_AND_ORGANIZATION_ROLE ( 'classification_officer' ) ;
#163 = AXIS2_PLACEMENT_3D ( 'NONE', #158, #68, #213 ) ;
#164 = DATE_AND_TIME ( #201, #225 ) ;
#165 = ORIENTED_EDGE ( 'NONE', *, *, #121, .T. ) ;
#166 = VECTOR ( 'NONE', #133, 1000.000000000000000 ) ;
#167 = APPROVAL ( #200, '未指定' ) ;
#168 = DIRECTION ( 'NONE',  ( 0.000000000000000000, -1.000000000000000000, 0.000000000000000000 ) ) ;
#169 = DIRECTION ( 'NONE',  ( 0.000000000000000000, 0.000000000000000000, -1.000000000000000000 ) ) ;
#170 = PLANE ( 'NONE',  #118 ) ;
#171 = EDGE_LOOP ( 'NONE', ( #141, #145, #110, #165 ) ) ;
#172 = CC_DESIGN_PERSON_AND_ORGANIZATION_ASSIGNMENT ( #156, #47, ( #161 ) ) ;
#173 = CARTESIAN_POINT ( 'NONE',  ( -36.00000000000000000, 3.000000000000000000, 33.50000000000000000 ) ) ;
#174 = CLOSED_SHELL ( 'NONE', ( #237, #55, #45, #137, #206, #93 ) ) ;
#175 = CC_DESIGN_APPROVAL ( #212, ( #88 ) ) ;
#176 = PLANE ( 'NONE',  #125 ) ;
#177 = DATE_AND_TIME ( #1, #196 ) ;
#178 = APPROVAL_PERSON_ORGANIZATION ( #18, #167, #124 ) ;
#179 = EDGE_LOOP ( 'NONE', ( #182, #223, #58, #78 ) ) ;
#180 = ORIENTED_EDGE ( 'NONE', *, *, #121, .F. ) ;
#181 = ORIENTED_EDGE ( 'NONE', *, *, #96, .T. ) ;
#182 = ORIENTED_EDGE ( 'NONE', *, *, #231, .T. ) ;
#183 = VERTEX_POINT ( 'NONE', #122 ) ;
#184 = PRODUCT_DEFINITION ( '未知', '', #186, #197 ) ;
#185 = PLANE ( 'NONE',  #139 ) ;
#186 = PRODUCT_DEFINITION_FORMATION_WITH_SPECIFIED_SOURCE ( '任何', '', #161, .NOT_KNOWN. ) ;
#187 = EDGE_LOOP ( 'NONE', ( #54, #180, #127, #207 ) ) ;
#188 = EDGE_CURVE ( 'NONE', #183, #2, #230, .T. ) ;
#189 = DIRECTION ( 'NONE',  ( 0.000000000000000000, -0.000000000000000000, -1.000000000000000000 ) ) ;
#190 = EDGE_CURVE ( 'NONE', #221, #183, #69, .T. ) ;
#191 = CC_DESIGN_APPROVAL ( #17, ( #184 ) ) ;
#192 = CARTESIAN_POINT ( 'NONE',  ( -36.00000000000000000, 3.000000000000000000, 33.50000000000000000 ) ) ;
#193 = DIRECTION ( 'NONE',  ( -1.000000000000000000, -0.000000000000000000, -0.000000000000000000 ) ) ;
#194 = DIRECTION ( 'NONE',  ( 1.000000000000000000, 0.000000000000000000, 0.000000000000000000 ) ) ;
#195 = VECTOR ( 'NONE', #193, 1000.000000000000000 ) ;
#196 = LOCAL_TIME ( 19, 26, 7.000000000000000000, #51 ) ;
#197 = DESIGN_CONTEXT ( 'detailed design', #5, 'design' ) ;
#198 = CALENDAR_DATE ( 2026, 26, 7 ) ;
#199 = VECTOR ( 'NONE', #194, 1000.000000000000000 ) ;
#200 = APPROVAL_STATUS ( 'not_yet_approved' ) ;
#201 = CALENDAR_DATE ( 2026, 26, 7 ) ;
#202 = ORGANIZATION ( '未指定', '未指定', '' ) ;
#203 = FACE_OUTER_BOUND ( 'NONE', #171, .T. ) ;
#204 = CARTESIAN_POINT ( 'NONE',  ( 36.00000000000000000, 3.000000000000000000, 33.50000000000000000 ) ) ;
#205 = CARTESIAN_POINT ( 'NONE',  ( 36.00000000000000000, 3.000000000000000000, 33.50000000000000000 ) ) ;
#206 = ADVANCED_FACE ( 'NONE', ( #233 ), #11, .F. ) ;
#207 = ORIENTED_EDGE ( 'NONE', *, *, #190, .T. ) ;
#208 = UNCERTAINTY_MEASURE_WITH_UNIT (LENGTH_MEASURE( 1.000000000000000082E-05 ), #119, 'distance_accuracy_value', 'NONE');
#209 = CARTESIAN_POINT ( 'NONE',  ( 36.00000000000000000, 0.000000000000000000, 33.50000000000000000 ) ) ;
#210 = CARTESIAN_POINT ( 'NONE',  ( -36.00000000000000000, 3.000000000000000000, 33.50000000000000000 ) ) ;
#211 = CARTESIAN_POINT ( 'NONE',  ( 36.00000000000000000, 3.000000000000000000, -33.50000000000000000 ) ) ;
#212 = APPROVAL ( #160, '未指定' ) ;
#213 = DIRECTION ( 'NONE',  ( 1.000000000000000000, 0.000000000000000000, 0.000000000000000000 ) ) ;
#214 = APPROVAL_STATUS ( 'not_yet_approved' ) ;
#215 = FACE_OUTER_BOUND ( 'NONE', #100, .T. ) ;
#216 = VECTOR ( 'NONE', #152, 1000.000000000000000 ) ;
#217 = ORIENTED_EDGE ( 'NONE', *, *, #188, .F. ) ;
#218 = PRODUCT_DEFINITION_SHAPE ( 'NONE', 'NONE',  #184 ) ;
#219 = ORIENTED_EDGE ( 'NONE', *, *, #226, .F. ) ;
#220 = VECTOR ( 'NONE', #131, 1000.000000000000000 ) ;
#221 = VERTEX_POINT ( 'NONE', #192 ) ;
#222 = CALENDAR_DATE ( 2026, 26, 7 ) ;
#223 = ORIENTED_EDGE ( 'NONE', *, *, #147, .T. ) ;
#224 = CARTESIAN_POINT ( 'NONE',  ( 36.00000000000000000, 0.000000000000000000, 33.50000000000000000 ) ) ;
#225 = LOCAL_TIME ( 19, 26, 7.000000000000000000, #159 ) ;
#226 = EDGE_CURVE ( 'NONE', #21, #34, #120, .T. ) ;
#227 = LINE ( 'NONE', #62, #220 ) ;
#228 = DIRECTION ( 'NONE',  ( -0.000000000000000000, -0.000000000000000000, 1.000000000000000000 ) ) ;
#229 = EDGE_LOOP ( 'NONE', ( #60, #219, #23, #217 ) ) ;
#230 = LINE ( 'NONE', #71, #232 ) ;
#231 = EDGE_CURVE ( 'NONE', #79, #221, #46, .T. ) ;
#232 = VECTOR ( 'NONE', #67, 1000.000000000000000 ) ;
#233 = FACE_OUTER_BOUND ( 'NONE', #179, .T. ) ;
#234 = DIRECTION ( 'NONE',  ( -0.000000000000000000, -1.000000000000000000, -0.000000000000000000 ) ) ;
#235 = EDGE_CURVE ( 'NONE', #148, #21, #89, .T. ) ;
#236 = DIRECTION ( 'NONE',  ( 0.000000000000000000, -1.000000000000000000, 0.000000000000000000 ) ) ;
#237 = ADVANCED_FACE ( 'NONE', ( #215 ), #176, .F. ) ;
ENDSEC;
END-ISO-10303-21;
