ISO-10303-21;
HEADER;
FILE_DESCRIPTION (( 'STEP AP203' ),
    '1' );
FILE_NAME ('FN-HAR-008_xls1-rf-exit_R0.4.STEP',
    '2026-07-26T11:28:05',
    ( '' ),
    ( '' ),
    'SwSTEP 2.0',
    'SolidWorks 2022',
    '' );
FILE_SCHEMA (( 'CONFIG_CONTROL_DESIGN' ));
ENDSEC;

DATA;
#1 = APPROVAL_PERSON_ORGANIZATION ( #125, #162, #104 ) ;
#2 = CARTESIAN_POINT ( 'NONE',  ( 4.000000000000000000, 2.500000000000000000, 1.250000000000000000 ) ) ;
#3 = CC_DESIGN_SECURITY_CLASSIFICATION ( #205, ( #109 ) ) ;
#4 = FACE_OUTER_BOUND ( 'NONE', #87, .T. ) ;
#5 = CALENDAR_DATE ( 2026, 26, 7 ) ;
#6 = CC_DESIGN_PERSON_AND_ORGANIZATION_ASSIGNMENT ( #190, #175, ( #109 ) ) ;
#7 = APPROVAL_STATUS ( 'not_yet_approved' ) ;
#8 = PLANE ( 'NONE',  #134 ) ;
#9 = DATE_TIME_ROLE ( 'classification_date' ) ;
#10 = ORIENTED_EDGE ( 'NONE', *, *, #135, .F. ) ;
#11 = PERSON_AND_ORGANIZATION ( #35, #108 ) ;
#12 = ORIENTED_EDGE ( 'NONE', *, *, #146, .T. ) ;
#13 = DESIGN_CONTEXT ( 'detailed design', #37, 'design' ) ;
#14 = ORIENTED_EDGE ( 'NONE', *, *, #167, .T. ) ;
#15 = ADVANCED_FACE ( 'NONE', ( #36 ), #181, .F. ) ;
#16 = ORIENTED_EDGE ( 'NONE', *, *, #49, .F. ) ;
#17 = EDGE_CURVE ( 'NONE', #103, #200, #75, .T. ) ;
#18 = DIRECTION ( 'NONE',  ( -1.000000000000000000, -0.000000000000000000, -0.000000000000000000 ) ) ;
#19 = LOCAL_TIME ( 19, 28, 5.000000000000000000, #27 ) ;
#20 = CARTESIAN_POINT ( 'NONE',  ( -4.000000000000000000, 2.500000000000000000, 1.250000000000000000 ) ) ;
#21 = EDGE_CURVE ( 'NONE', #85, #233, #192, .T. ) ;
#22 = PLANE ( 'NONE',  #79 ) ;
#23 = CARTESIAN_POINT ( 'NONE',  ( 4.000000000000000000, 0.000000000000000000, -1.250000000000000000 ) ) ;
#24 = PRODUCT ( 'FN-HAR-008_xls1-rf-exit_R0.4', 'FN-HAR-008_xls1-rf-exit_R0.4', '', ( #137 ) ) ;
#25 = VECTOR ( 'NONE', #126, 1000.000000000000000 ) ;
#26 = CARTESIAN_POINT ( 'NONE',  ( 4.000000000000000000, 0.000000000000000000, 1.250000000000000000 ) ) ;
#27 = COORDINATED_UNIVERSAL_TIME_OFFSET ( 8, 0, .AHEAD. ) ;
#28 = SHAPE_DEFINITION_REPRESENTATION ( #189, #45 ) ;
#29 = DATE_AND_TIME ( #231, #95 ) ;
#30 =( GEOMETRIC_REPRESENTATION_CONTEXT ( 3 ) GLOBAL_UNCERTAINTY_ASSIGNED_CONTEXT ( ( #193 ) ) GLOBAL_UNIT_ASSIGNED_CONTEXT ( ( #39, #207, #112 ) ) REPRESENTATION_CONTEXT ( 'NONE', 'WORKASPACE' ) );
#31 = FACE_OUTER_BOUND ( 'NONE', #141, .T. ) ;
#32 = COORDINATED_UNIVERSAL_TIME_OFFSET ( 8, 0, .AHEAD. ) ;
#33 = ORIENTED_EDGE ( 'NONE', *, *, #146, .F. ) ;
#34 = ORIENTED_EDGE ( 'NONE', *, *, #140, .T. ) ;
#35 = PERSON ( '未指定', '未指定', '未指定', ('未指定'), ('未指定'), ('未指定') ) ;
#36 = FACE_OUTER_BOUND ( 'NONE', #122, .T. ) ;
#37 = APPLICATION_CONTEXT ( 'configuration controlled 3d designs of mechanical parts and assemblies' ) ;
#38 = ORIENTED_EDGE ( 'NONE', *, *, #148, .F. ) ;
#39 =( LENGTH_UNIT ( ) NAMED_UNIT ( * ) SI_UNIT ( .MILLI., .METRE. ) );
#40 = CARTESIAN_POINT ( 'NONE',  ( -4.000000000000000000, 2.500000000000000000, 1.250000000000000000 ) ) ;
#41 = VECTOR ( 'NONE', #182, 1000.000000000000000 ) ;
#42 = CARTESIAN_POINT ( 'NONE',  ( -4.000000000000000000, 0.000000000000000000, -1.250000000000000000 ) ) ;
#43 = CARTESIAN_POINT ( 'NONE',  ( 4.000000000000000000, 2.500000000000000000, -1.250000000000000000 ) ) ;
#44 = PLANE ( 'NONE',  #64 ) ;
#45 = ADVANCED_BREP_SHAPE_REPRESENTATION ( 'FN-HAR-008_xls1-rf-exit_R0.4', ( #202, #161 ), #30 ) ;
#46 = ADVANCED_FACE ( 'NONE', ( #31 ), #8, .F. ) ;
#47 = APPROVAL_DATE_TIME ( #136, #91 ) ;
#48 = DATE_AND_TIME ( #101, #60 ) ;
#49 = EDGE_CURVE ( 'NONE', #85, #172, #124, .T. ) ;
#50 = ORIENTED_EDGE ( 'NONE', *, *, #21, .T. ) ;
#51 = APPLICATION_PROTOCOL_DEFINITION ( 'international standard', 'config_control_design', 1994, #37 ) ;
#52 = VECTOR ( 'NONE', #145, 1000.000000000000000 ) ;
#53 = DIRECTION ( 'NONE',  ( 1.000000000000000000, 0.000000000000000000, 0.000000000000000000 ) ) ;
#54 = APPLICATION_PROTOCOL_DEFINITION ( 'international standard', 'config_control_design', 1994, #219 ) ;
#55 = CARTESIAN_POINT ( 'NONE',  ( 4.000000000000000000, 2.500000000000000000, -1.250000000000000000 ) ) ;
#56 = ORIENTED_EDGE ( 'NONE', *, *, #57, .T. ) ;
#57 = EDGE_CURVE ( 'NONE', #92, #103, #105, .T. ) ;
#58 = ORIENTED_EDGE ( 'NONE', *, *, #140, .F. ) ;
#59 = CC_DESIGN_PERSON_AND_ORGANIZATION_ASSIGNMENT ( #188, #228, ( #197 ) ) ;
#60 = LOCAL_TIME ( 19, 28, 5.000000000000000000, #98 ) ;
#61 = LINE ( 'NONE', #40, #177 ) ;
#62 = DIRECTION ( 'NONE',  ( -0.000000000000000000, -1.000000000000000000, -0.000000000000000000 ) ) ;
#63 = DIRECTION ( 'NONE',  ( 1.000000000000000000, 0.000000000000000000, 0.000000000000000000 ) ) ;
#64 = AXIS2_PLACEMENT_3D ( 'NONE', #93, #113, #150 ) ;
#65 = FACE_OUTER_BOUND ( 'NONE', #74, .T. ) ;
#66 = CARTESIAN_POINT ( 'NONE',  ( 4.000000000000000000, 2.500000000000000000, 1.250000000000000000 ) ) ;
#67 = COORDINATED_UNIVERSAL_TIME_OFFSET ( 8, 0, .AHEAD. ) ;
#68 = PERSON_AND_ORGANIZATION_ROLE ( 'design_owner' ) ;
#69 = ADVANCED_FACE ( 'NONE', ( #131 ), #183, .F. ) ;
#70 = DIRECTION ( 'NONE',  ( 0.000000000000000000, -0.000000000000000000, -1.000000000000000000 ) ) ;
#71 = DATE_AND_TIME ( #229, #19 ) ;
#72 = CC_DESIGN_APPROVAL ( #91, ( #197 ) ) ;
#73 = VERTEX_POINT ( 'NONE', #77 ) ;
#74 = EDGE_LOOP ( 'NONE', ( #10, #38, #33, #153 ) ) ;
#75 = LINE ( 'NONE', #234, #143 ) ;
#76 = VECTOR ( 'NONE', #62, 1000.000000000000000 ) ;
#77 = CARTESIAN_POINT ( 'NONE',  ( -4.000000000000000000, 0.000000000000000000, -1.250000000000000000 ) ) ;
#78 = DIRECTION ( 'NONE',  ( 0.000000000000000000, -0.000000000000000000, -1.000000000000000000 ) ) ;
#79 = AXIS2_PLACEMENT_3D ( 'NONE', #130, #237, #78 ) ;
#80 = DIRECTION ( 'NONE',  ( 1.000000000000000000, -0.000000000000000000, 0.000000000000000000 ) ) ;
#81 = PERSON_AND_ORGANIZATION ( #35, #108 ) ;
#82 = AXIS2_PLACEMENT_3D ( 'NONE', #203, #80, #201 ) ;
#83 = CC_DESIGN_DATE_AND_TIME_ASSIGNMENT ( #71, #9, ( #205 ) ) ;
#84 = CARTESIAN_POINT ( 'NONE',  ( 0.000000000000000000, 0.000000000000000000, 0.000000000000000000 ) ) ;
#85 = VERTEX_POINT ( 'NONE', #43 ) ;
#86 = PERSON_AND_ORGANIZATION ( #35, #108 ) ;
#87 = EDGE_LOOP ( 'NONE', ( #127, #58, #16, #50 ) ) ;
#88 = CC_DESIGN_PERSON_AND_ORGANIZATION_ASSIGNMENT ( #97, #68, ( #24 ) ) ;
#89 = ORIENTED_EDGE ( 'NONE', *, *, #167, .F. ) ;
#90 = DIRECTION ( 'NONE',  ( -1.000000000000000000, 0.000000000000000000, -0.000000000000000000 ) ) ;
#91 = APPROVAL ( #195, '未指定' ) ;
#92 = VERTEX_POINT ( 'NONE', #20 ) ;
#93 = CARTESIAN_POINT ( 'NONE',  ( 4.000000000000000000, 2.500000000000000000, 1.250000000000000000 ) ) ;
#94 = DIRECTION ( 'NONE',  ( -0.000000000000000000, -0.000000000000000000, 1.000000000000000000 ) ) ;
#95 = LOCAL_TIME ( 19, 28, 5.000000000000000000, #121 ) ;
#96 = DIRECTION ( 'NONE',  ( 0.000000000000000000, 0.000000000000000000, 1.000000000000000000 ) ) ;
#97 = PERSON_AND_ORGANIZATION ( #35, #108 ) ;
#98 = COORDINATED_UNIVERSAL_TIME_OFFSET ( 8, 0, .AHEAD. ) ;
#99 = EDGE_CURVE ( 'NONE', #172, #92, #61, .T. ) ;
#100 = VECTOR ( 'NONE', #18, 1000.000000000000000 ) ;
#101 = CALENDAR_DATE ( 2026, 26, 7 ) ;
#102 = ORIENTED_EDGE ( 'NONE', *, *, #99, .T. ) ;
#103 = VERTEX_POINT ( 'NONE', #224 ) ;
#104 = APPROVAL_ROLE ( '' ) ;
#105 = LINE ( 'NONE', #176, #191 ) ;
#106 = CLOSED_SHELL ( 'NONE', ( #69, #15, #111, #208, #46, #187 ) ) ;
#107 = EDGE_CURVE ( 'NONE', #110, #85, #184, .T. ) ;
#108 = ORGANIZATION ( '未指定', '未指定', '' ) ;
#109 = PRODUCT_DEFINITION_FORMATION_WITH_SPECIFIED_SOURCE ( '任何', '', #24, .NOT_KNOWN. ) ;
#110 = VERTEX_POINT ( 'NONE', #66 ) ;
#111 = ADVANCED_FACE ( 'NONE', ( #119 ), #44, .F. ) ;
#112 =( NAMED_UNIT ( * ) SI_UNIT ( $, .STERADIAN. ) SOLID_ANGLE_UNIT ( ) );
#113 = DIRECTION ( 'NONE',  ( -1.000000000000000000, 0.000000000000000000, 0.000000000000000000 ) ) ;
#114 = VECTOR ( 'NONE', #204, 1000.000000000000000 ) ;
#115 = CC_DESIGN_APPROVAL ( #142, ( #205 ) ) ;
#116 = LINE ( 'NONE', #132, #76 ) ;
#117 = LINE ( 'NONE', #26, #164 ) ;
#118 = CC_DESIGN_PERSON_AND_ORGANIZATION_ASSIGNMENT ( #81, #151, ( #205 ) ) ;
#119 = FACE_OUTER_BOUND ( 'NONE', #144, .T. ) ;
#120 = DATE_TIME_ROLE ( 'creation_date' ) ;
#121 = COORDINATED_UNIVERSAL_TIME_OFFSET ( 8, 0, .AHEAD. ) ;
#122 = EDGE_LOOP ( 'NONE', ( #174, #179, #89, #56 ) ) ;
#123 = APPROVAL_ROLE ( '' ) ;
#124 = LINE ( 'NONE', #232, #199 ) ;
#125 = PERSON_AND_ORGANIZATION ( #35, #108 ) ;
#126 = DIRECTION ( 'NONE',  ( -0.000000000000000000, -1.000000000000000000, -0.000000000000000000 ) ) ;
#127 = ORIENTED_EDGE ( 'NONE', *, *, #148, .T. ) ;
#128 = APPROVAL_PERSON_ORGANIZATION ( #86, #142, #139 ) ;
#129 = ORIENTED_EDGE ( 'NONE', *, *, #99, .F. ) ;
#130 = CARTESIAN_POINT ( 'NONE',  ( 0.000000000000000000, 0.000000000000000000, 0.000000000000000000 ) ) ;
#131 = FACE_OUTER_BOUND ( 'NONE', #194, .T. ) ;
#132 = CARTESIAN_POINT ( 'NONE',  ( 4.000000000000000000, 2.500000000000000000, 1.250000000000000000 ) ) ;
#133 = DIRECTION ( 'NONE',  ( 1.000000000000000000, 0.000000000000000000, -0.000000000000000000 ) ) ;
#134 = AXIS2_PLACEMENT_3D ( 'NONE', #230, #156, #70 ) ;
#135 = EDGE_CURVE ( 'NONE', #73, #103, #166, .T. ) ;
#136 = DATE_AND_TIME ( #170, #214 ) ;
#137 = MECHANICAL_CONTEXT ( 'NONE', #219, 'mechanical' ) ;
#138 = PERSON_AND_ORGANIZATION ( #35, #108 ) ;
#139 = APPROVAL_ROLE ( '' ) ;
#140 = EDGE_CURVE ( 'NONE', #172, #73, #236, .T. ) ;
#141 = EDGE_LOOP ( 'NONE', ( #102, #14, #215, #220 ) ) ;
#142 = APPROVAL ( #7, '未指定' ) ;
#143 = VECTOR ( 'NONE', #53, 1000.000000000000000 ) ;
#144 = EDGE_LOOP ( 'NONE', ( #12, #218, #158, #198 ) ) ;
#145 = DIRECTION ( 'NONE',  ( -0.000000000000000000, -1.000000000000000000, -0.000000000000000000 ) ) ;
#146 = EDGE_CURVE ( 'NONE', #200, #233, #117, .T. ) ;
#147 = DIRECTION ( 'NONE',  ( 0.000000000000000000, 0.000000000000000000, -1.000000000000000000 ) ) ;
#148 = EDGE_CURVE ( 'NONE', #233, #73, #168, .T. ) ;
#149 = CARTESIAN_POINT ( 'NONE',  ( 4.000000000000000000, 0.000000000000000000, 1.250000000000000000 ) ) ;
#150 = DIRECTION ( 'NONE',  ( 0.000000000000000000, 0.000000000000000000, 1.000000000000000000 ) ) ;
#151 = PERSON_AND_ORGANIZATION_ROLE ( 'classification_officer' ) ;
#152 = APPROVAL_DATE_TIME ( #209, #142 ) ;
#153 = ORIENTED_EDGE ( 'NONE', *, *, #17, .F. ) ;
#154 = DIRECTION ( 'NONE',  ( 1.000000000000000000, 0.000000000000000000, 0.000000000000000000 ) ) ;
#155 = PRODUCT_RELATED_PRODUCT_CATEGORY ( 'detail', '', ( #24 ) ) ;
#156 = DIRECTION ( 'NONE',  ( 0.000000000000000000, -1.000000000000000000, 0.000000000000000000 ) ) ;
#157 = APPROVAL_PERSON_ORGANIZATION ( #138, #91, #123 ) ;
#158 = ORIENTED_EDGE ( 'NONE', *, *, #107, .F. ) ;
#159 = ORIENTED_EDGE ( 'NONE', *, *, #57, .F. ) ;
#160 = CC_DESIGN_PERSON_AND_ORGANIZATION_ASSIGNMENT ( #11, #213, ( #109 ) ) ;
#161 = AXIS2_PLACEMENT_3D ( 'NONE', #84, #216, #154 ) ;
#162 = APPROVAL ( #173, '未指定' ) ;
#163 = DIRECTION ( 'NONE',  ( 0.000000000000000000, 0.000000000000000000, -1.000000000000000000 ) ) ;
#164 = VECTOR ( 'NONE', #147, 1000.000000000000000 ) ;
#165 = CARTESIAN_POINT ( 'NONE',  ( -4.000000000000000000, 2.500000000000000000, -1.250000000000000000 ) ) ;
#166 = LINE ( 'NONE', #227, #41 ) ;
#167 = EDGE_CURVE ( 'NONE', #92, #110, #186, .T. ) ;
#168 = LINE ( 'NONE', #42, #100 ) ;
#169 = AXIS2_PLACEMENT_3D ( 'NONE', #217, #163, #90 ) ;
#170 = CALENDAR_DATE ( 2026, 26, 7 ) ;
#171 = SECURITY_CLASSIFICATION_LEVEL ( 'unclassified' ) ;
#172 = VERTEX_POINT ( 'NONE', #165 ) ;
#173 = APPROVAL_STATUS ( 'not_yet_approved' ) ;
#174 = ORIENTED_EDGE ( 'NONE', *, *, #17, .T. ) ;
#175 = PERSON_AND_ORGANIZATION_ROLE ( 'creator' ) ;
#176 = CARTESIAN_POINT ( 'NONE',  ( -4.000000000000000000, 2.500000000000000000, 1.250000000000000000 ) ) ;
#177 = VECTOR ( 'NONE', #94, 1000.000000000000000 ) ;
#178 = EDGE_CURVE ( 'NONE', #110, #200, #116, .T. ) ;
#179 = ORIENTED_EDGE ( 'NONE', *, *, #178, .F. ) ;
#180 = VECTOR ( 'NONE', #63, 1000.000000000000000 ) ;
#181 = PLANE ( 'NONE',  #169 ) ;
#182 = DIRECTION ( 'NONE',  ( -0.000000000000000000, -0.000000000000000000, 1.000000000000000000 ) ) ;
#183 = PLANE ( 'NONE',  #82 ) ;
#184 = LINE ( 'NONE', #2, #114 ) ;
#185 = CARTESIAN_POINT ( 'NONE',  ( -4.000000000000000000, 2.500000000000000000, -1.250000000000000000 ) ) ;
#186 = LINE ( 'NONE', #225, #180 ) ;
#187 = ADVANCED_FACE ( 'NONE', ( #65 ), #22, .T. ) ;
#188 = PERSON_AND_ORGANIZATION ( #35, #108 ) ;
#189 = PRODUCT_DEFINITION_SHAPE ( 'NONE', 'NONE',  #197 ) ;
#190 = PERSON_AND_ORGANIZATION ( #35, #108 ) ;
#191 = VECTOR ( 'NONE', #206, 1000.000000000000000 ) ;
#192 = LINE ( 'NONE', #55, #25 ) ;
#193 = UNCERTAINTY_MEASURE_WITH_UNIT (LENGTH_MEASURE( 1.000000000000000082E-05 ), #39, 'distance_accuracy_value', 'NONE');
#194 = EDGE_LOOP ( 'NONE', ( #235, #159, #129, #34 ) ) ;
#195 = APPROVAL_STATUS ( 'not_yet_approved' ) ;
#196 = DIRECTION ( 'NONE',  ( -1.000000000000000000, -0.000000000000000000, -0.000000000000000000 ) ) ;
#197 = PRODUCT_DEFINITION ( '未知', '', #109, #13 ) ;
#198 = ORIENTED_EDGE ( 'NONE', *, *, #178, .T. ) ;
#199 = VECTOR ( 'NONE', #196, 1000.000000000000000 ) ;
#200 = VERTEX_POINT ( 'NONE', #149 ) ;
#201 = DIRECTION ( 'NONE',  ( 0.000000000000000000, 0.000000000000000000, -1.000000000000000000 ) ) ;
#202 = MANIFOLD_SOLID_BREP ( '凸台-拉伸1', #106 ) ;
#203 = CARTESIAN_POINT ( 'NONE',  ( -4.000000000000000000, 2.500000000000000000, 1.250000000000000000 ) ) ;
#204 = DIRECTION ( 'NONE',  ( 0.000000000000000000, 0.000000000000000000, -1.000000000000000000 ) ) ;
#205 = SECURITY_CLASSIFICATION ( '', '', #171 ) ;
#206 = DIRECTION ( 'NONE',  ( -0.000000000000000000, -1.000000000000000000, -0.000000000000000000 ) ) ;
#207 =( NAMED_UNIT ( * ) PLANE_ANGLE_UNIT ( ) SI_UNIT ( $, .RADIAN. ) );
#208 = ADVANCED_FACE ( 'NONE', ( #4 ), #226, .F. ) ;
#209 = DATE_AND_TIME ( #5, #221 ) ;
#210 = CC_DESIGN_APPROVAL ( #162, ( #109 ) ) ;
#211 = AXIS2_PLACEMENT_3D ( 'NONE', #185, #96, #133 ) ;
#212 = APPROVAL_DATE_TIME ( #29, #162 ) ;
#213 = PERSON_AND_ORGANIZATION_ROLE ( 'design_supplier' ) ;
#214 = LOCAL_TIME ( 19, 28, 5.000000000000000000, #32 ) ;
#215 = ORIENTED_EDGE ( 'NONE', *, *, #107, .T. ) ;
#216 = DIRECTION ( 'NONE',  ( 0.000000000000000000, 0.000000000000000000, 1.000000000000000000 ) ) ;
#217 = CARTESIAN_POINT ( 'NONE',  ( -4.000000000000000000, 2.500000000000000000, 1.250000000000000000 ) ) ;
#218 = ORIENTED_EDGE ( 'NONE', *, *, #21, .F. ) ;
#219 = APPLICATION_CONTEXT ( 'configuration controlled 3d designs of mechanical parts and assemblies' ) ;
#220 = ORIENTED_EDGE ( 'NONE', *, *, #49, .T. ) ;
#221 = LOCAL_TIME ( 19, 28, 5.000000000000000000, #67 ) ;
#222 = CARTESIAN_POINT ( 'NONE',  ( -4.000000000000000000, 2.500000000000000000, -1.250000000000000000 ) ) ;
#223 = CC_DESIGN_DATE_AND_TIME_ASSIGNMENT ( #48, #120, ( #197 ) ) ;
#224 = CARTESIAN_POINT ( 'NONE',  ( -4.000000000000000000, 0.000000000000000000, 1.250000000000000000 ) ) ;
#225 = CARTESIAN_POINT ( 'NONE',  ( -4.000000000000000000, 2.500000000000000000, 1.250000000000000000 ) ) ;
#226 = PLANE ( 'NONE',  #211 ) ;
#227 = CARTESIAN_POINT ( 'NONE',  ( -4.000000000000000000, 0.000000000000000000, 1.250000000000000000 ) ) ;
#228 = PERSON_AND_ORGANIZATION_ROLE ( 'creator' ) ;
#229 = CALENDAR_DATE ( 2026, 26, 7 ) ;
#230 = CARTESIAN_POINT ( 'NONE',  ( 0.000000000000000000, 2.500000000000000000, 0.000000000000000000 ) ) ;
#231 = CALENDAR_DATE ( 2026, 26, 7 ) ;
#232 = CARTESIAN_POINT ( 'NONE',  ( -4.000000000000000000, 2.500000000000000000, -1.250000000000000000 ) ) ;
#233 = VERTEX_POINT ( 'NONE', #23 ) ;
#234 = CARTESIAN_POINT ( 'NONE',  ( -4.000000000000000000, 0.000000000000000000, 1.250000000000000000 ) ) ;
#235 = ORIENTED_EDGE ( 'NONE', *, *, #135, .T. ) ;
#236 = LINE ( 'NONE', #222, #52 ) ;
#237 = DIRECTION ( 'NONE',  ( 0.000000000000000000, -1.000000000000000000, 0.000000000000000000 ) ) ;
ENDSEC;
END-ISO-10303-21;
