ISO-10303-21;
HEADER;
FILE_DESCRIPTION (( 'STEP AP203' ),
    '1' );
FILE_NAME ('FN-HAR-001_pv-input-route_R0.4.STEP',
    '2026-07-26T11:26:52',
    ( '' ),
    ( '' ),
    'SwSTEP 2.0',
    'SolidWorks 2022',
    '' );
FILE_SCHEMA (( 'CONFIG_CONTROL_DESIGN' ));
ENDSEC;

DATA;
#1 = ORIENTED_EDGE ( 'NONE', *, *, #151, .T. ) ;
#2 = PRODUCT_DEFINITION_FORMATION_WITH_SPECIFIED_SOURCE ( '任何', '', #128, .NOT_KNOWN. ) ;
#3 = CARTESIAN_POINT ( 'NONE',  ( -10.25000000000000000, 0.000000000000000000, -1.750000000000000000 ) ) ;
#4 = EDGE_CURVE ( 'NONE', #118, #87, #186, .T. ) ;
#5 = LINE ( 'NONE', #202, #85 ) ;
#6 = LINE ( 'NONE', #75, #181 ) ;
#7 = ORIENTED_EDGE ( 'NONE', *, *, #8, .F. ) ;
#8 = EDGE_CURVE ( 'NONE', #117, #118, #9, .T. ) ;
#9 = LINE ( 'NONE', #96, #91 ) ;
#10 = APPROVAL ( #123, '未指定' ) ;
#11 = APPLICATION_PROTOCOL_DEFINITION ( 'international standard', 'config_control_design', 1994, #97 ) ;
#12 = VECTOR ( 'NONE', #57, 1000.000000000000000 ) ;
#13 = PERSON_AND_ORGANIZATION ( #155, #141 ) ;
#14 = APPLICATION_CONTEXT ( 'configuration controlled 3d designs of mechanical parts and assemblies' ) ;
#15 = CARTESIAN_POINT ( 'NONE',  ( -10.25000000000000000, 2.500000000000000000, -1.750000000000000000 ) ) ;
#16 = DATE_AND_TIME ( #86, #103 ) ;
#17 = EDGE_CURVE ( 'NONE', #114, #106, #25, .T. ) ;
#18 = PERSON_AND_ORGANIZATION ( #155, #141 ) ;
#19 = ORIENTED_EDGE ( 'NONE', *, *, #17, .F. ) ;
#20 = APPROVAL ( #44, '未指定' ) ;
#21 = CC_DESIGN_APPROVAL ( #104, ( #2 ) ) ;
#22 = DIRECTION ( 'NONE',  ( -1.000000000000000000, -0.000000000000000000, -0.000000000000000000 ) ) ;
#23 = ORIENTED_EDGE ( 'NONE', *, *, #151, .F. ) ;
#24 = DIRECTION ( 'NONE',  ( -0.000000000000000000, -1.000000000000000000, -0.000000000000000000 ) ) ;
#25 = LINE ( 'NONE', #170, #46 ) ;
#26 = ORIENTED_EDGE ( 'NONE', *, *, #8, .T. ) ;
#27 = MANIFOLD_SOLID_BREP ( '凸台-拉伸1', #30 ) ;
#28 = CARTESIAN_POINT ( 'NONE',  ( 10.25000000000000000, 2.500000000000000000, 1.750000000000000000 ) ) ;
#29 = ADVANCED_FACE ( 'NONE', ( #59 ), #223, .F. ) ;
#30 = CLOSED_SHELL ( 'NONE', ( #29, #178, #82, #234, #220, #156 ) ) ;
#31 = LINE ( 'NONE', #120, #121 ) ;
#32 = DIRECTION ( 'NONE',  ( -1.000000000000000000, 0.000000000000000000, -0.000000000000000000 ) ) ;
#33 = APPROVAL_PERSON_ORGANIZATION ( #18, #104, #68 ) ;
#34 = COORDINATED_UNIVERSAL_TIME_OFFSET ( 8, 0, .AHEAD. ) ;
#35 = ORIENTED_EDGE ( 'NONE', *, *, #200, .T. ) ;
#36 = EDGE_CURVE ( 'NONE', #87, #106, #167, .T. ) ;
#37 = CARTESIAN_POINT ( 'NONE',  ( -10.25000000000000000, 2.500000000000000000, -1.750000000000000000 ) ) ;
#38 = AXIS2_PLACEMENT_3D ( 'NONE', #154, #48, #193 ) ;
#39 = ORIENTED_EDGE ( 'NONE', *, *, #197, .T. ) ;
#40 = PLANE ( 'NONE',  #54 ) ;
#41 = UNCERTAINTY_MEASURE_WITH_UNIT (LENGTH_MEASURE( 1.000000000000000082E-05 ), #51, 'distance_accuracy_value', 'NONE');
#42 = DIRECTION ( 'NONE',  ( -0.000000000000000000, -1.000000000000000000, -0.000000000000000000 ) ) ;
#43 = CARTESIAN_POINT ( 'NONE',  ( 10.25000000000000000, 2.500000000000000000, 1.750000000000000000 ) ) ;
#44 = APPROVAL_STATUS ( 'not_yet_approved' ) ;
#45 = DIRECTION ( 'NONE',  ( 0.000000000000000000, -0.000000000000000000, -1.000000000000000000 ) ) ;
#46 = VECTOR ( 'NONE', #165, 1000.000000000000000 ) ;
#47 = LOCAL_TIME ( 19, 26, 52.00000000000000000, #88 ) ;
#48 = DIRECTION ( 'NONE',  ( 0.000000000000000000, -1.000000000000000000, 0.000000000000000000 ) ) ;
#49 = FACE_OUTER_BOUND ( 'NONE', #76, .T. ) ;
#50 = CC_DESIGN_PERSON_AND_ORGANIZATION_ASSIGNMENT ( #205, #171, ( #128 ) ) ;
#51 =( LENGTH_UNIT ( ) NAMED_UNIT ( * ) SI_UNIT ( .MILLI., .METRE. ) );
#52 = CALENDAR_DATE ( 2026, 26, 7 ) ;
#53 = PERSON_AND_ORGANIZATION ( #155, #141 ) ;
#54 = AXIS2_PLACEMENT_3D ( 'NONE', #61, #201, #204 ) ;
#55 = ORIENTED_EDGE ( 'NONE', *, *, #110, .T. ) ;
#56 = EDGE_LOOP ( 'NONE', ( #233, #187, #125, #69 ) ) ;
#57 = DIRECTION ( 'NONE',  ( -0.000000000000000000, -1.000000000000000000, -0.000000000000000000 ) ) ;
#58 = EDGE_CURVE ( 'NONE', #132, #113, #224, .T. ) ;
#59 = FACE_OUTER_BOUND ( 'NONE', #71, .T. ) ;
#60 = CARTESIAN_POINT ( 'NONE',  ( 10.25000000000000000, 0.000000000000000000, 1.750000000000000000 ) ) ;
#61 = CARTESIAN_POINT ( 'NONE',  ( 10.25000000000000000, 2.500000000000000000, 1.750000000000000000 ) ) ;
#62 = CC_DESIGN_DATE_AND_TIME_ASSIGNMENT ( #16, #84, ( #130 ) ) ;
#63 = FACE_OUTER_BOUND ( 'NONE', #139, .T. ) ;
#64 = DIRECTION ( 'NONE',  ( 0.000000000000000000, 0.000000000000000000, -1.000000000000000000 ) ) ;
#65 = CC_DESIGN_SECURITY_CLASSIFICATION ( #112, ( #2 ) ) ;
#66 = DIRECTION ( 'NONE',  ( 1.000000000000000000, 0.000000000000000000, 0.000000000000000000 ) ) ;
#67 = MECHANICAL_CONTEXT ( 'NONE', #14, 'mechanical' ) ;
#68 = APPROVAL_ROLE ( '' ) ;
#69 = ORIENTED_EDGE ( 'NONE', *, *, #148, .T. ) ;
#70 = SHAPE_DEFINITION_REPRESENTATION ( #219, #235 ) ;
#71 = EDGE_LOOP ( 'NONE', ( #35, #23, #7, #55 ) ) ;
#72 = DIRECTION ( 'NONE',  ( 0.000000000000000000, 0.000000000000000000, -1.000000000000000000 ) ) ;
#73 = LINE ( 'NONE', #127, #160 ) ;
#74 = AXIS2_PLACEMENT_3D ( 'NONE', #230, #98, #66 ) ;
#75 = CARTESIAN_POINT ( 'NONE',  ( -10.25000000000000000, 2.500000000000000000, -1.750000000000000000 ) ) ;
#76 = EDGE_LOOP ( 'NONE', ( #216, #179, #190, #1 ) ) ;
#77 = CARTESIAN_POINT ( 'NONE',  ( -10.25000000000000000, 2.500000000000000000, 1.750000000000000000 ) ) ;
#78 = EDGE_CURVE ( 'NONE', #106, #132, #73, .T. ) ;
#79 = PERSON_AND_ORGANIZATION ( #155, #141 ) ;
#80 = VECTOR ( 'NONE', #229, 1000.000000000000000 ) ;
#81 = PERSON_AND_ORGANIZATION_ROLE ( 'creator' ) ;
#82 = ADVANCED_FACE ( 'NONE', ( #225 ), #40, .F. ) ;
#83 = PLANE ( 'NONE',  #38 ) ;
#84 = DATE_TIME_ROLE ( 'creation_date' ) ;
#85 = VECTOR ( 'NONE', #42, 1000.000000000000000 ) ;
#86 = CALENDAR_DATE ( 2026, 26, 7 ) ;
#87 = VERTEX_POINT ( 'NONE', #43 ) ;
#88 = COORDINATED_UNIVERSAL_TIME_OFFSET ( 8, 0, .AHEAD. ) ;
#89 = PERSON_AND_ORGANIZATION ( #155, #141 ) ;
#90 = CC_DESIGN_PERSON_AND_ORGANIZATION_ASSIGNMENT ( #108, #215, ( #112 ) ) ;
#91 = VECTOR ( 'NONE', #189, 1000.000000000000000 ) ;
#92 = CARTESIAN_POINT ( 'NONE',  ( 10.25000000000000000, 0.000000000000000000, -1.750000000000000000 ) ) ;
#93 = ORIENTED_EDGE ( 'NONE', *, *, #4, .T. ) ;
#94 = VECTOR ( 'NONE', #22, 1000.000000000000000 ) ;
#95 = ORIENTED_EDGE ( 'NONE', *, *, #200, .F. ) ;
#96 = CARTESIAN_POINT ( 'NONE',  ( -10.25000000000000000, 2.500000000000000000, 1.750000000000000000 ) ) ;
#97 = APPLICATION_CONTEXT ( 'configuration controlled 3d designs of mechanical parts and assemblies' ) ;
#98 = DIRECTION ( 'NONE',  ( 0.000000000000000000, 0.000000000000000000, 1.000000000000000000 ) ) ;
#99 = VECTOR ( 'NONE', #210, 1000.000000000000000 ) ;
#100 = COORDINATED_UNIVERSAL_TIME_OFFSET ( 8, 0, .AHEAD. ) ;
#101 = CARTESIAN_POINT ( 'NONE',  ( -10.25000000000000000, 2.500000000000000000, -1.750000000000000000 ) ) ;
#102 = CARTESIAN_POINT ( 'NONE',  ( -10.25000000000000000, 2.500000000000000000, 1.750000000000000000 ) ) ;
#103 = LOCAL_TIME ( 19, 26, 52.00000000000000000, #236 ) ;
#104 = APPROVAL ( #135, '未指定' ) ;
#105 = APPROVAL_DATE_TIME ( #164, #10 ) ;
#106 = VERTEX_POINT ( 'NONE', #60 ) ;
#107 = ORIENTED_EDGE ( 'NONE', *, *, #172, .T. ) ;
#108 = PERSON_AND_ORGANIZATION ( #155, #141 ) ;
#109 = SECURITY_CLASSIFICATION_LEVEL ( 'unclassified' ) ;
#110 = EDGE_CURVE ( 'NONE', #117, #113, #6, .T. ) ;
#111 = EDGE_LOOP ( 'NONE', ( #95, #147, #218, #19 ) ) ;
#112 = SECURITY_CLASSIFICATION ( '', '', #109 ) ;
#113 = VERTEX_POINT ( 'NONE', #221 ) ;
#114 = VERTEX_POINT ( 'NONE', #144 ) ;
#115 = DIRECTION ( 'NONE',  ( -0.000000000000000000, -1.000000000000000000, -0.000000000000000000 ) ) ;
#116 = AXIS2_PLACEMENT_3D ( 'NONE', #102, #64, #32 ) ;
#117 = VERTEX_POINT ( 'NONE', #37 ) ;
#118 = VERTEX_POINT ( 'NONE', #129 ) ;
#119 = CALENDAR_DATE ( 2026, 26, 7 ) ;
#120 = CARTESIAN_POINT ( 'NONE',  ( -10.25000000000000000, 0.000000000000000000, 1.750000000000000000 ) ) ;
#121 = VECTOR ( 'NONE', #134, 1000.000000000000000 ) ;
#122 = DATE_AND_TIME ( #52, #47 ) ;
#123 = APPROVAL_STATUS ( 'not_yet_approved' ) ;
#124 = ORIENTED_EDGE ( 'NONE', *, *, #78, .T. ) ;
#125 = ORIENTED_EDGE ( 'NONE', *, *, #197, .F. ) ;
#126 = FACE_OUTER_BOUND ( 'NONE', #111, .T. ) ;
#127 = CARTESIAN_POINT ( 'NONE',  ( 10.25000000000000000, 0.000000000000000000, 1.750000000000000000 ) ) ;
#128 = PRODUCT ( 'FN-HAR-001_pv-input-route_R0.4', 'FN-HAR-001_pv-input-route_R0.4', '', ( #67 ) ) ;
#129 = CARTESIAN_POINT ( 'NONE',  ( -10.25000000000000000, 2.500000000000000000, 1.750000000000000000 ) ) ;
#130 = PRODUCT_DEFINITION ( '未知', '', #2, #136 ) ;
#131 = VECTOR ( 'NONE', #24, 1000.000000000000000 ) ;
#132 = VERTEX_POINT ( 'NONE', #92 ) ;
#133 =( NAMED_UNIT ( * ) SI_UNIT ( $, .STERADIAN. ) SOLID_ANGLE_UNIT ( ) );
#134 = DIRECTION ( 'NONE',  ( -0.000000000000000000, -0.000000000000000000, 1.000000000000000000 ) ) ;
#135 = APPROVAL_STATUS ( 'not_yet_approved' ) ;
#136 = DESIGN_CONTEXT ( 'detailed design', #97, 'design' ) ;
#137 = PERSON_AND_ORGANIZATION_ROLE ( 'design_supplier' ) ;
#138 = VERTEX_POINT ( 'NONE', #166 ) ;
#139 = EDGE_LOOP ( 'NONE', ( #26, #93, #107, #39 ) ) ;
#140 = CC_DESIGN_PERSON_AND_ORGANIZATION_ASSIGNMENT ( #89, #163, ( #2 ) ) ;
#141 = ORGANIZATION ( '未指定', '未指定', '' ) ;
#142 = ORIENTED_EDGE ( 'NONE', *, *, #148, .F. ) ;
#143 = CC_DESIGN_PERSON_AND_ORGANIZATION_ASSIGNMENT ( #13, #81, ( #130 ) ) ;
#144 = CARTESIAN_POINT ( 'NONE',  ( -10.25000000000000000, 0.000000000000000000, 1.750000000000000000 ) ) ;
#145 = LINE ( 'NONE', #222, #12 ) ;
#146 = DIRECTION ( 'NONE',  ( 1.000000000000000000, 0.000000000000000000, 0.000000000000000000 ) ) ;
#147 = ORIENTED_EDGE ( 'NONE', *, *, #58, .F. ) ;
#148 = EDGE_CURVE ( 'NONE', #138, #132, #5, .T. ) ;
#149 = CARTESIAN_POINT ( 'NONE',  ( 10.25000000000000000, 2.500000000000000000, 1.750000000000000000 ) ) ;
#150 = PLANE ( 'NONE',  #188 ) ;
#151 = EDGE_CURVE ( 'NONE', #118, #114, #145, .T. ) ;
#152 = LINE ( 'NONE', #28, #99 ) ;
#153 = PLANE ( 'NONE',  #232 ) ;
#154 = CARTESIAN_POINT ( 'NONE',  ( 0.000000000000000000, 2.500000000000000000, 0.000000000000000000 ) ) ;
#155 = PERSON ( '未指定', '未指定', '未指定', ('未指定'), ('未指定'), ('未指定') ) ;
#156 = ADVANCED_FACE ( 'NONE', ( #126 ), #150, .T. ) ;
#157 = DATE_TIME_ROLE ( 'classification_date' ) ;
#158 = COORDINATED_UNIVERSAL_TIME_OFFSET ( 8, 0, .AHEAD. ) ;
#159 = ORIENTED_EDGE ( 'NONE', *, *, #172, .F. ) ;
#160 = VECTOR ( 'NONE', #198, 1000.000000000000000 ) ;
#161 = CALENDAR_DATE ( 2026, 26, 7 ) ;
#162 = CC_DESIGN_PERSON_AND_ORGANIZATION_ASSIGNMENT ( #53, #137, ( #2 ) ) ;
#163 = PERSON_AND_ORGANIZATION_ROLE ( 'creator' ) ;
#164 = DATE_AND_TIME ( #183, #168 ) ;
#165 = DIRECTION ( 'NONE',  ( 1.000000000000000000, 0.000000000000000000, 0.000000000000000000 ) ) ;
#166 = CARTESIAN_POINT ( 'NONE',  ( 10.25000000000000000, 2.500000000000000000, -1.750000000000000000 ) ) ;
#167 = LINE ( 'NONE', #149, #131 ) ;
#168 = LOCAL_TIME ( 19, 26, 52.00000000000000000, #34 ) ;
#169 = EDGE_LOOP ( 'NONE', ( #124, #142, #159, #196 ) ) ;
#170 = CARTESIAN_POINT ( 'NONE',  ( -10.25000000000000000, 0.000000000000000000, 1.750000000000000000 ) ) ;
#171 = PERSON_AND_ORGANIZATION_ROLE ( 'design_owner' ) ;
#172 = EDGE_CURVE ( 'NONE', #87, #138, #152, .T. ) ;
#173 = VECTOR ( 'NONE', #146, 1000.000000000000000 ) ;
#174 = APPROVAL_ROLE ( '' ) ;
#175 = APPROVAL_DATE_TIME ( #191, #20 ) ;
#176 =( NAMED_UNIT ( * ) PLANE_ANGLE_UNIT ( ) SI_UNIT ( $, .RADIAN. ) );
#177 = FACE_OUTER_BOUND ( 'NONE', #56, .T. ) ;
#178 = ADVANCED_FACE ( 'NONE', ( #49 ), #228, .F. ) ;
#179 = ORIENTED_EDGE ( 'NONE', *, *, #36, .F. ) ;
#180 = PERSON_AND_ORGANIZATION ( #155, #141 ) ;
#181 = VECTOR ( 'NONE', #115, 1000.000000000000000 ) ;
#182 = CC_DESIGN_APPROVAL ( #10, ( #112 ) ) ;
#183 = CALENDAR_DATE ( 2026, 26, 7 ) ;
#184 = CC_DESIGN_APPROVAL ( #20, ( #130 ) ) ;
#185 = DIRECTION ( 'NONE',  ( 1.000000000000000000, -0.000000000000000000, 0.000000000000000000 ) ) ;
#186 = LINE ( 'NONE', #199, #173 ) ;
#187 = ORIENTED_EDGE ( 'NONE', *, *, #110, .F. ) ;
#188 = AXIS2_PLACEMENT_3D ( 'NONE', #206, #192, #45 ) ;
#189 = DIRECTION ( 'NONE',  ( -0.000000000000000000, -0.000000000000000000, 1.000000000000000000 ) ) ;
#190 = ORIENTED_EDGE ( 'NONE', *, *, #4, .F. ) ;
#191 = DATE_AND_TIME ( #119, #217 ) ;
#192 = DIRECTION ( 'NONE',  ( 0.000000000000000000, -1.000000000000000000, 0.000000000000000000 ) ) ;
#193 = DIRECTION ( 'NONE',  ( 0.000000000000000000, -0.000000000000000000, -1.000000000000000000 ) ) ;
#194 = APPLICATION_PROTOCOL_DEFINITION ( 'international standard', 'config_control_design', 1994, #14 ) ;
#195 = APPROVAL_ROLE ( '' ) ;
#196 = ORIENTED_EDGE ( 'NONE', *, *, #36, .T. ) ;
#197 = EDGE_CURVE ( 'NONE', #138, #117, #227, .T. ) ;
#198 = DIRECTION ( 'NONE',  ( 0.000000000000000000, 0.000000000000000000, -1.000000000000000000 ) ) ;
#199 = CARTESIAN_POINT ( 'NONE',  ( -10.25000000000000000, 2.500000000000000000, 1.750000000000000000 ) ) ;
#200 = EDGE_CURVE ( 'NONE', #113, #114, #31, .T. ) ;
#201 = DIRECTION ( 'NONE',  ( -1.000000000000000000, 0.000000000000000000, 0.000000000000000000 ) ) ;
#202 = CARTESIAN_POINT ( 'NONE',  ( 10.25000000000000000, 2.500000000000000000, -1.750000000000000000 ) ) ;
#203 =( GEOMETRIC_REPRESENTATION_CONTEXT ( 3 ) GLOBAL_UNCERTAINTY_ASSIGNED_CONTEXT ( ( #41 ) ) GLOBAL_UNIT_ASSIGNED_CONTEXT ( ( #51, #176, #133 ) ) REPRESENTATION_CONTEXT ( 'NONE', 'WORKASPACE' ) );
#204 = DIRECTION ( 'NONE',  ( 0.000000000000000000, 0.000000000000000000, 1.000000000000000000 ) ) ;
#205 = PERSON_AND_ORGANIZATION ( #155, #141 ) ;
#206 = CARTESIAN_POINT ( 'NONE',  ( 0.000000000000000000, 0.000000000000000000, 0.000000000000000000 ) ) ;
#207 = APPROVAL_PERSON_ORGANIZATION ( #79, #20, #174 ) ;
#208 = APPROVAL_PERSON_ORGANIZATION ( #180, #10, #195 ) ;
#209 = DIRECTION ( 'NONE',  ( 0.000000000000000000, 0.000000000000000000, 1.000000000000000000 ) ) ;
#210 = DIRECTION ( 'NONE',  ( 0.000000000000000000, 0.000000000000000000, -1.000000000000000000 ) ) ;
#211 = DIRECTION ( 'NONE',  ( 1.000000000000000000, 0.000000000000000000, -0.000000000000000000 ) ) ;
#212 = CC_DESIGN_DATE_AND_TIME_ASSIGNMENT ( #122, #157, ( #112 ) ) ;
#213 = AXIS2_PLACEMENT_3D ( 'NONE', #77, #185, #72 ) ;
#214 = DATE_AND_TIME ( #161, #226 ) ;
#215 = PERSON_AND_ORGANIZATION_ROLE ( 'classification_officer' ) ;
#216 = ORIENTED_EDGE ( 'NONE', *, *, #17, .T. ) ;
#217 = LOCAL_TIME ( 19, 26, 52.00000000000000000, #100 ) ;
#218 = ORIENTED_EDGE ( 'NONE', *, *, #78, .F. ) ;
#219 = PRODUCT_DEFINITION_SHAPE ( 'NONE', 'NONE',  #130 ) ;
#220 = ADVANCED_FACE ( 'NONE', ( #63 ), #83, .F. ) ;
#221 = CARTESIAN_POINT ( 'NONE',  ( -10.25000000000000000, 0.000000000000000000, -1.750000000000000000 ) ) ;
#222 = CARTESIAN_POINT ( 'NONE',  ( -10.25000000000000000, 2.500000000000000000, 1.750000000000000000 ) ) ;
#223 = PLANE ( 'NONE',  #213 ) ;
#224 = LINE ( 'NONE', #3, #94 ) ;
#225 = FACE_OUTER_BOUND ( 'NONE', #169, .T. ) ;
#226 = LOCAL_TIME ( 19, 26, 52.00000000000000000, #158 ) ;
#227 = LINE ( 'NONE', #101, #80 ) ;
#228 = PLANE ( 'NONE',  #116 ) ;
#229 = DIRECTION ( 'NONE',  ( -1.000000000000000000, -0.000000000000000000, -0.000000000000000000 ) ) ;
#230 = CARTESIAN_POINT ( 'NONE',  ( 0.000000000000000000, 0.000000000000000000, 0.000000000000000000 ) ) ;
#231 = APPROVAL_DATE_TIME ( #214, #104 ) ;
#232 = AXIS2_PLACEMENT_3D ( 'NONE', #15, #209, #211 ) ;
#233 = ORIENTED_EDGE ( 'NONE', *, *, #58, .T. ) ;
#234 = ADVANCED_FACE ( 'NONE', ( #177 ), #153, .F. ) ;
#235 = ADVANCED_BREP_SHAPE_REPRESENTATION ( 'FN-HAR-001_pv-input-route_R0.4', ( #27, #74 ), #203 ) ;
#236 = COORDINATED_UNIVERSAL_TIME_OFFSET ( 8, 0, .AHEAD. ) ;
#237 = PRODUCT_RELATED_PRODUCT_CATEGORY ( 'detail', '', ( #128 ) ) ;
ENDSEC;
END-ISO-10303-21;
