ISO-10303-21;
HEADER;
FILE_DESCRIPTION (( 'STEP AP203' ),
    '1' );
FILE_NAME ('FN-HAR-007_gnss-coax-exit_R0.4.STEP',
    '2026-07-26T11:27:56',
    ( '' ),
    ( '' ),
    'SwSTEP 2.0',
    'SolidWorks 2022',
    '' );
FILE_SCHEMA (( 'CONFIG_CONTROL_DESIGN' ));
ENDSEC;

DATA;
#1 = FACE_OUTER_BOUND ( 'NONE', #32, .T. ) ;
#2 = ORIENTED_EDGE ( 'NONE', *, *, #98, .T. ) ;
#3 = APPROVAL_STATUS ( 'not_yet_approved' ) ;
#4 = ADVANCED_FACE ( 'NONE', ( #166 ), #125, .F. ) ;
#5 =( LENGTH_UNIT ( ) NAMED_UNIT ( * ) SI_UNIT ( .MILLI., .METRE. ) );
#6 = CARTESIAN_POINT ( 'NONE',  ( -4.000000000000000000, 2.500000000000000000, 1.250000000000000000 ) ) ;
#7 = ADVANCED_BREP_SHAPE_REPRESENTATION ( 'FN-HAR-007_gnss-coax-exit_R0.4', ( #71, #147 ), #141 ) ;
#8 = AXIS2_PLACEMENT_3D ( 'NONE', #78, #218, #137 ) ;
#9 = CARTESIAN_POINT ( 'NONE',  ( -4.000000000000000000, 2.500000000000000000, -1.250000000000000000 ) ) ;
#10 = ORIENTED_EDGE ( 'NONE', *, *, #231, .F. ) ;
#11 = AXIS2_PLACEMENT_3D ( 'NONE', #6, #29, #46 ) ;
#12 = ADVANCED_FACE ( 'NONE', ( #149 ), #138, .F. ) ;
#13 = DIRECTION ( 'NONE',  ( -1.000000000000000000, -0.000000000000000000, -0.000000000000000000 ) ) ;
#14 = APPROVAL_PERSON_ORGANIZATION ( #170, #114, #217 ) ;
#15 = VERTEX_POINT ( 'NONE', #54 ) ;
#16 = ORIENTED_EDGE ( 'NONE', *, *, #148, .T. ) ;
#17 = EDGE_CURVE ( 'NONE', #112, #99, #37, .T. ) ;
#18 = PLANE ( 'NONE',  #26 ) ;
#19 = EDGE_CURVE ( 'NONE', #133, #112, #195, .T. ) ;
#20 = ORIENTED_EDGE ( 'NONE', *, *, #19, .F. ) ;
#21 = DIRECTION ( 'NONE',  ( 0.000000000000000000, -0.000000000000000000, -1.000000000000000000 ) ) ;
#22 = CC_DESIGN_DATE_AND_TIME_ASSIGNMENT ( #215, #200, ( #24 ) ) ;
#23 = ORIENTED_EDGE ( 'NONE', *, *, #82, .T. ) ;
#24 = SECURITY_CLASSIFICATION ( '', '', #140 ) ;
#25 = MECHANICAL_CONTEXT ( 'NONE', #84, 'mechanical' ) ;
#26 = AXIS2_PLACEMENT_3D ( 'NONE', #60, #129, #95 ) ;
#27 = APPROVAL_DATE_TIME ( #176, #86 ) ;
#28 = CC_DESIGN_DATE_AND_TIME_ASSIGNMENT ( #187, #100, ( #106 ) ) ;
#29 = DIRECTION ( 'NONE',  ( 1.000000000000000000, -0.000000000000000000, 0.000000000000000000 ) ) ;
#30 = PERSON_AND_ORGANIZATION ( #31, #41 ) ;
#31 = PERSON ( '未指定', '未指定', '未指定', ('未指定'), ('未指定'), ('未指定') ) ;
#32 = EDGE_LOOP ( 'NONE', ( #16, #142, #169, #182 ) ) ;
#33 = CARTESIAN_POINT ( 'NONE',  ( -4.000000000000000000, 0.000000000000000000, 1.250000000000000000 ) ) ;
#34 = LINE ( 'NONE', #58, #51 ) ;
#35 = CALENDAR_DATE ( 2026, 26, 7 ) ;
#36 = CARTESIAN_POINT ( 'NONE',  ( 4.000000000000000000, 2.500000000000000000, 1.250000000000000000 ) ) ;
#37 = LINE ( 'NONE', #33, #210 ) ;
#38 = PERSON_AND_ORGANIZATION ( #31, #41 ) ;
#39 = LINE ( 'NONE', #113, #229 ) ;
#40 = VECTOR ( 'NONE', #207, 1000.000000000000000 ) ;
#41 = ORGANIZATION ( '未指定', '未指定', '' ) ;
#42 = CC_DESIGN_PERSON_AND_ORGANIZATION_ASSIGNMENT ( #74, #59, ( #24 ) ) ;
#43 = APPLICATION_CONTEXT ( 'configuration controlled 3d designs of mechanical parts and assemblies' ) ;
#44 = LOCAL_TIME ( 19, 27, 56.00000000000000000, #192 ) ;
#45 = PERSON_AND_ORGANIZATION_ROLE ( 'creator' ) ;
#46 = DIRECTION ( 'NONE',  ( 0.000000000000000000, 0.000000000000000000, -1.000000000000000000 ) ) ;
#47 = APPROVAL_ROLE ( '' ) ;
#48 = LINE ( 'NONE', #135, #81 ) ;
#49 = ORIENTED_EDGE ( 'NONE', *, *, #17, .F. ) ;
#50 = LOCAL_TIME ( 19, 27, 56.00000000000000000, #53 ) ;
#51 = VECTOR ( 'NONE', #13, 1000.000000000000000 ) ;
#52 = ORIENTED_EDGE ( 'NONE', *, *, #98, .F. ) ;
#53 = COORDINATED_UNIVERSAL_TIME_OFFSET ( 8, 0, .AHEAD. ) ;
#54 = CARTESIAN_POINT ( 'NONE',  ( 4.000000000000000000, 0.000000000000000000, 1.250000000000000000 ) ) ;
#55 = APPROVAL_DATE_TIME ( #160, #114 ) ;
#56 = CARTESIAN_POINT ( 'NONE',  ( -4.000000000000000000, 2.500000000000000000, 1.250000000000000000 ) ) ;
#57 = APPROVAL_ROLE ( '' ) ;
#58 = CARTESIAN_POINT ( 'NONE',  ( -4.000000000000000000, 2.500000000000000000, -1.250000000000000000 ) ) ;
#59 = PERSON_AND_ORGANIZATION_ROLE ( 'classification_officer' ) ;
#60 = CARTESIAN_POINT ( 'NONE',  ( 4.000000000000000000, 2.500000000000000000, 1.250000000000000000 ) ) ;
#61 = PRODUCT_RELATED_PRODUCT_CATEGORY ( 'detail', '', ( #221 ) ) ;
#62 = ORIENTED_EDGE ( 'NONE', *, *, #148, .F. ) ;
#63 = DIRECTION ( 'NONE',  ( -0.000000000000000000, -1.000000000000000000, -0.000000000000000000 ) ) ;
#64 = CARTESIAN_POINT ( 'NONE',  ( -4.000000000000000000, 0.000000000000000000, 1.250000000000000000 ) ) ;
#65 = EDGE_CURVE ( 'NONE', #123, #214, #108, .T. ) ;
#66 = FACE_OUTER_BOUND ( 'NONE', #93, .T. ) ;
#67 = EDGE_CURVE ( 'NONE', #88, #112, #107, .T. ) ;
#68 = CC_DESIGN_PERSON_AND_ORGANIZATION_ASSIGNMENT ( #144, #89, ( #130 ) ) ;
#69 = ORIENTED_EDGE ( 'NONE', *, *, #79, .T. ) ;
#70 = PERSON_AND_ORGANIZATION ( #31, #41 ) ;
#71 = MANIFOLD_SOLID_BREP ( '凸台-拉伸1', #131 ) ;
#72 = CC_DESIGN_APPROVAL ( #114, ( #130 ) ) ;
#73 = ORIENTED_EDGE ( 'NONE', *, *, #231, .T. ) ;
#74 = PERSON_AND_ORGANIZATION ( #31, #41 ) ;
#75 = DIRECTION ( 'NONE',  ( 0.000000000000000000, 0.000000000000000000, -1.000000000000000000 ) ) ;
#76 = CARTESIAN_POINT ( 'NONE',  ( 4.000000000000000000, 2.500000000000000000, 1.250000000000000000 ) ) ;
#77 = ORIENTED_EDGE ( 'NONE', *, *, #145, .F. ) ;
#78 = CARTESIAN_POINT ( 'NONE',  ( 0.000000000000000000, 2.500000000000000000, 0.000000000000000000 ) ) ;
#79 = EDGE_CURVE ( 'NONE', #236, #99, #159, .T. ) ;
#80 = DIRECTION ( 'NONE',  ( 0.000000000000000000, -1.000000000000000000, 0.000000000000000000 ) ) ;
#81 = VECTOR ( 'NONE', #208, 1000.000000000000000 ) ;
#82 = EDGE_CURVE ( 'NONE', #123, #15, #177, .T. ) ;
#83 = PERSON_AND_ORGANIZATION ( #31, #41 ) ;
#84 = APPLICATION_CONTEXT ( 'configuration controlled 3d designs of mechanical parts and assemblies' ) ;
#85 = PERSON_AND_ORGANIZATION ( #31, #41 ) ;
#86 = APPROVAL ( #157, '未指定' ) ;
#87 = CARTESIAN_POINT ( 'NONE',  ( 4.000000000000000000, 2.500000000000000000, 1.250000000000000000 ) ) ;
#88 = VERTEX_POINT ( 'NONE', #9 ) ;
#89 = PERSON_AND_ORGANIZATION_ROLE ( 'design_supplier' ) ;
#90 = VECTOR ( 'NONE', #230, 1000.000000000000000 ) ;
#91 = CARTESIAN_POINT ( 'NONE',  ( -4.000000000000000000, 2.500000000000000000, 1.250000000000000000 ) ) ;
#92 = DIRECTION ( 'NONE',  ( -1.000000000000000000, 0.000000000000000000, -0.000000000000000000 ) ) ;
#93 = EDGE_LOOP ( 'NONE', ( #49, #20, #52, #10 ) ) ;
#94 = APPROVAL_DATE_TIME ( #110, #134 ) ;
#95 = DIRECTION ( 'NONE',  ( 0.000000000000000000, 0.000000000000000000, 1.000000000000000000 ) ) ;
#96 = VECTOR ( 'NONE', #233, 1000.000000000000000 ) ;
#97 = CC_DESIGN_PERSON_AND_ORGANIZATION_ASSIGNMENT ( #83, #205, ( #221 ) ) ;
#98 = EDGE_CURVE ( 'NONE', #15, #133, #227, .T. ) ;
#99 = VERTEX_POINT ( 'NONE', #216 ) ;
#100 = DATE_TIME_ROLE ( 'creation_date' ) ;
#101 = ORIENTED_EDGE ( 'NONE', *, *, #235, .F. ) ;
#102 = CARTESIAN_POINT ( 'NONE',  ( 4.000000000000000000, 2.500000000000000000, -1.250000000000000000 ) ) ;
#103 = COORDINATED_UNIVERSAL_TIME_OFFSET ( 8, 0, .AHEAD. ) ;
#104 = CARTESIAN_POINT ( 'NONE',  ( 0.000000000000000000, 0.000000000000000000, 0.000000000000000000 ) ) ;
#105 = ORIENTED_EDGE ( 'NONE', *, *, #67, .F. ) ;
#106 = PRODUCT_DEFINITION ( '未知', '', #130, #185 ) ;
#107 = LINE ( 'NONE', #164, #96 ) ;
#108 = LINE ( 'NONE', #36, #189 ) ;
#109 = DIRECTION ( 'NONE',  ( -0.000000000000000000, -0.000000000000000000, 1.000000000000000000 ) ) ;
#110 = DATE_AND_TIME ( #35, #50 ) ;
#111 = ORIENTED_EDGE ( 'NONE', *, *, #17, .T. ) ;
#112 = VERTEX_POINT ( 'NONE', #179 ) ;
#113 = CARTESIAN_POINT ( 'NONE',  ( -4.000000000000000000, 2.500000000000000000, 1.250000000000000000 ) ) ;
#114 = APPROVAL ( #3, '未指定' ) ;
#115 = VECTOR ( 'NONE', #126, 1000.000000000000000 ) ;
#116 = AXIS2_PLACEMENT_3D ( 'NONE', #212, #193, #209 ) ;
#117 = CALENDAR_DATE ( 2026, 26, 7 ) ;
#118 = ORIENTED_EDGE ( 'NONE', *, *, #226, .T. ) ;
#119 = VECTOR ( 'NONE', #178, 1000.000000000000000 ) ;
#120 = EDGE_LOOP ( 'NONE', ( #2, #153, #128, #23 ) ) ;
#121 = CARTESIAN_POINT ( 'NONE',  ( 4.000000000000000000, 2.500000000000000000, -1.250000000000000000 ) ) ;
#122 = LOCAL_TIME ( 19, 27, 56.00000000000000000, #234 ) ;
#123 = VERTEX_POINT ( 'NONE', #87 ) ;
#124 = COORDINATED_UNIVERSAL_TIME_OFFSET ( 8, 0, .AHEAD. ) ;
#125 = PLANE ( 'NONE',  #116 ) ;
#126 = DIRECTION ( 'NONE',  ( -0.000000000000000000, -1.000000000000000000, -0.000000000000000000 ) ) ;
#127 = ORIENTED_EDGE ( 'NONE', *, *, #82, .F. ) ;
#128 = ORIENTED_EDGE ( 'NONE', *, *, #65, .F. ) ;
#129 = DIRECTION ( 'NONE',  ( -1.000000000000000000, 0.000000000000000000, 0.000000000000000000 ) ) ;
#130 = PRODUCT_DEFINITION_FORMATION_WITH_SPECIFIED_SOURCE ( '任何', '', #221, .NOT_KNOWN. ) ;
#131 = CLOSED_SHELL ( 'NONE', ( #219, #12, #151, #4, #165, #202 ) ) ;
#132 = LOCAL_TIME ( 19, 27, 56.00000000000000000, #124 ) ;
#133 = VERTEX_POINT ( 'NONE', #163 ) ;
#134 = APPROVAL ( #211, '未指定' ) ;
#135 = CARTESIAN_POINT ( 'NONE',  ( -4.000000000000000000, 2.500000000000000000, 1.250000000000000000 ) ) ;
#136 = CARTESIAN_POINT ( 'NONE',  ( -4.000000000000000000, 2.500000000000000000, 1.250000000000000000 ) ) ;
#137 = DIRECTION ( 'NONE',  ( 0.000000000000000000, -0.000000000000000000, -1.000000000000000000 ) ) ;
#138 = PLANE ( 'NONE',  #194 ) ;
#139 = APPROVAL_PERSON_ORGANIZATION ( #30, #86, #47 ) ;
#140 = SECURITY_CLASSIFICATION_LEVEL ( 'unclassified' ) ;
#141 =( GEOMETRIC_REPRESENTATION_CONTEXT ( 3 ) GLOBAL_UNCERTAINTY_ASSIGNED_CONTEXT ( ( #213 ) ) GLOBAL_UNIT_ASSIGNED_CONTEXT ( ( #5, #204, #152 ) ) REPRESENTATION_CONTEXT ( 'NONE', 'WORKASPACE' ) );
#142 = ORIENTED_EDGE ( 'NONE', *, *, #235, .T. ) ;
#143 = ORIENTED_EDGE ( 'NONE', *, *, #79, .F. ) ;
#144 = PERSON_AND_ORGANIZATION ( #31, #41 ) ;
#145 = EDGE_CURVE ( 'NONE', #214, #88, #34, .T. ) ;
#146 = CARTESIAN_POINT ( 'NONE',  ( 4.000000000000000000, 0.000000000000000000, 1.250000000000000000 ) ) ;
#147 = AXIS2_PLACEMENT_3D ( 'NONE', #104, #175, #190 ) ;
#148 = EDGE_CURVE ( 'NONE', #88, #236, #39, .T. ) ;
#149 = FACE_OUTER_BOUND ( 'NONE', #232, .T. ) ;
#150 = APPROVAL_PERSON_ORGANIZATION ( #38, #134, #57 ) ;
#151 = ADVANCED_FACE ( 'NONE', ( #183 ), #18, .F. ) ;
#152 =( NAMED_UNIT ( * ) SI_UNIT ( $, .STERADIAN. ) SOLID_ANGLE_UNIT ( ) );
#153 = ORIENTED_EDGE ( 'NONE', *, *, #226, .F. ) ;
#154 = APPLICATION_PROTOCOL_DEFINITION ( 'international standard', 'config_control_design', 1994, #43 ) ;
#155 = APPLICATION_PROTOCOL_DEFINITION ( 'international standard', 'config_control_design', 1994, #84 ) ;
#156 = CC_DESIGN_PERSON_AND_ORGANIZATION_ASSIGNMENT ( #85, #45, ( #106 ) ) ;
#157 = APPROVAL_STATUS ( 'not_yet_approved' ) ;
#158 = CALENDAR_DATE ( 2026, 26, 7 ) ;
#159 = LINE ( 'NONE', #91, #119 ) ;
#160 = DATE_AND_TIME ( #228, #132 ) ;
#161 = DIRECTION ( 'NONE',  ( -1.000000000000000000, -0.000000000000000000, -0.000000000000000000 ) ) ;
#162 = VECTOR ( 'NONE', #63, 1000.000000000000000 ) ;
#163 = CARTESIAN_POINT ( 'NONE',  ( 4.000000000000000000, 0.000000000000000000, -1.250000000000000000 ) ) ;
#164 = CARTESIAN_POINT ( 'NONE',  ( -4.000000000000000000, 2.500000000000000000, -1.250000000000000000 ) ) ;
#165 = ADVANCED_FACE ( 'NONE', ( #1 ), #168, .F. ) ;
#166 = FACE_OUTER_BOUND ( 'NONE', #188, .T. ) ;
#167 = CALENDAR_DATE ( 2026, 26, 7 ) ;
#168 = PLANE ( 'NONE',  #8 ) ;
#169 = ORIENTED_EDGE ( 'NONE', *, *, #65, .T. ) ;
#170 = PERSON_AND_ORGANIZATION ( #31, #41 ) ;
#171 = LOCAL_TIME ( 19, 27, 56.00000000000000000, #103 ) ;
#172 = PLANE ( 'NONE',  #11 ) ;
#173 = CC_DESIGN_PERSON_AND_ORGANIZATION_ASSIGNMENT ( #70, #197, ( #130 ) ) ;
#174 = LINE ( 'NONE', #64, #40 ) ;
#175 = DIRECTION ( 'NONE',  ( 0.000000000000000000, 0.000000000000000000, 1.000000000000000000 ) ) ;
#176 = DATE_AND_TIME ( #158, #44 ) ;
#177 = LINE ( 'NONE', #76, #115 ) ;
#178 = DIRECTION ( 'NONE',  ( -0.000000000000000000, -1.000000000000000000, -0.000000000000000000 ) ) ;
#179 = CARTESIAN_POINT ( 'NONE',  ( -4.000000000000000000, 0.000000000000000000, -1.250000000000000000 ) ) ;
#180 = SHAPE_DEFINITION_REPRESENTATION ( #186, #7 ) ;
#181 = EDGE_LOOP ( 'NONE', ( #111, #143, #62, #206 ) ) ;
#182 = ORIENTED_EDGE ( 'NONE', *, *, #145, .T. ) ;
#183 = FACE_OUTER_BOUND ( 'NONE', #120, .T. ) ;
#184 = CC_DESIGN_APPROVAL ( #134, ( #24 ) ) ;
#185 = DESIGN_CONTEXT ( 'detailed design', #43, 'design' ) ;
#186 = PRODUCT_DEFINITION_SHAPE ( 'NONE', 'NONE',  #106 ) ;
#187 = DATE_AND_TIME ( #117, #171 ) ;
#188 = EDGE_LOOP ( 'NONE', ( #199, #105, #77, #118 ) ) ;
#189 = VECTOR ( 'NONE', #196, 1000.000000000000000 ) ;
#190 = DIRECTION ( 'NONE',  ( 1.000000000000000000, 0.000000000000000000, 0.000000000000000000 ) ) ;
#191 = CARTESIAN_POINT ( 'NONE',  ( 0.000000000000000000, 0.000000000000000000, 0.000000000000000000 ) ) ;
#192 = COORDINATED_UNIVERSAL_TIME_OFFSET ( 8, 0, .AHEAD. ) ;
#193 = DIRECTION ( 'NONE',  ( 0.000000000000000000, 0.000000000000000000, 1.000000000000000000 ) ) ;
#194 = AXIS2_PLACEMENT_3D ( 'NONE', #56, #75, #92 ) ;
#195 = LINE ( 'NONE', #198, #203 ) ;
#196 = DIRECTION ( 'NONE',  ( 0.000000000000000000, 0.000000000000000000, -1.000000000000000000 ) ) ;
#197 = PERSON_AND_ORGANIZATION_ROLE ( 'creator' ) ;
#198 = CARTESIAN_POINT ( 'NONE',  ( -4.000000000000000000, 0.000000000000000000, -1.250000000000000000 ) ) ;
#199 = ORIENTED_EDGE ( 'NONE', *, *, #19, .T. ) ;
#200 = DATE_TIME_ROLE ( 'classification_date' ) ;
#201 = DIRECTION ( 'NONE',  ( -0.000000000000000000, -0.000000000000000000, 1.000000000000000000 ) ) ;
#202 = ADVANCED_FACE ( 'NONE', ( #66 ), #225, .T. ) ;
#203 = VECTOR ( 'NONE', #161, 1000.000000000000000 ) ;
#204 =( NAMED_UNIT ( * ) PLANE_ANGLE_UNIT ( ) SI_UNIT ( $, .RADIAN. ) );
#205 = PERSON_AND_ORGANIZATION_ROLE ( 'design_owner' ) ;
#206 = ORIENTED_EDGE ( 'NONE', *, *, #67, .T. ) ;
#207 = DIRECTION ( 'NONE',  ( 1.000000000000000000, 0.000000000000000000, 0.000000000000000000 ) ) ;
#208 = DIRECTION ( 'NONE',  ( 1.000000000000000000, 0.000000000000000000, 0.000000000000000000 ) ) ;
#209 = DIRECTION ( 'NONE',  ( 1.000000000000000000, 0.000000000000000000, -0.000000000000000000 ) ) ;
#210 = VECTOR ( 'NONE', #109, 1000.000000000000000 ) ;
#211 = APPROVAL_STATUS ( 'not_yet_approved' ) ;
#212 = CARTESIAN_POINT ( 'NONE',  ( -4.000000000000000000, 2.500000000000000000, -1.250000000000000000 ) ) ;
#213 = UNCERTAINTY_MEASURE_WITH_UNIT (LENGTH_MEASURE( 1.000000000000000082E-05 ), #5, 'distance_accuracy_value', 'NONE');
#214 = VERTEX_POINT ( 'NONE', #102 ) ;
#215 = DATE_AND_TIME ( #167, #122 ) ;
#216 = CARTESIAN_POINT ( 'NONE',  ( -4.000000000000000000, 0.000000000000000000, 1.250000000000000000 ) ) ;
#217 = APPROVAL_ROLE ( '' ) ;
#218 = DIRECTION ( 'NONE',  ( 0.000000000000000000, -1.000000000000000000, 0.000000000000000000 ) ) ;
#219 = ADVANCED_FACE ( 'NONE', ( #224 ), #172, .F. ) ;
#220 = CC_DESIGN_APPROVAL ( #86, ( #106 ) ) ;
#221 = PRODUCT ( 'FN-HAR-007_gnss-coax-exit_R0.4', 'FN-HAR-007_gnss-coax-exit_R0.4', '', ( #25 ) ) ;
#222 = AXIS2_PLACEMENT_3D ( 'NONE', #191, #80, #21 ) ;
#223 = LINE ( 'NONE', #121, #162 ) ;
#224 = FACE_OUTER_BOUND ( 'NONE', #181, .T. ) ;
#225 = PLANE ( 'NONE',  #222 ) ;
#226 = EDGE_CURVE ( 'NONE', #214, #133, #223, .T. ) ;
#227 = LINE ( 'NONE', #146, #90 ) ;
#228 = CALENDAR_DATE ( 2026, 26, 7 ) ;
#229 = VECTOR ( 'NONE', #201, 1000.000000000000000 ) ;
#230 = DIRECTION ( 'NONE',  ( 0.000000000000000000, 0.000000000000000000, -1.000000000000000000 ) ) ;
#231 = EDGE_CURVE ( 'NONE', #99, #15, #174, .T. ) ;
#232 = EDGE_LOOP ( 'NONE', ( #73, #127, #101, #69 ) ) ;
#233 = DIRECTION ( 'NONE',  ( -0.000000000000000000, -1.000000000000000000, -0.000000000000000000 ) ) ;
#234 = COORDINATED_UNIVERSAL_TIME_OFFSET ( 8, 0, .AHEAD. ) ;
#235 = EDGE_CURVE ( 'NONE', #236, #123, #48, .T. ) ;
#236 = VERTEX_POINT ( 'NONE', #136 ) ;
#237 = CC_DESIGN_SECURITY_CLASSIFICATION ( #24, ( #130 ) ) ;
ENDSEC;
END-ISO-10303-21;
