ISO-10303-21;
HEADER;
FILE_DESCRIPTION (( 'STEP AP203' ),
    '1' );
FILE_NAME ('FN-HAR-003_battery-load-to-fuse_R0.4.STEP',
    '2026-07-26T11:27:14',
    ( '' ),
    ( '' ),
    'SwSTEP 2.0',
    'SolidWorks 2022',
    '' );
FILE_SCHEMA (( 'CONFIG_CONTROL_DESIGN' ));
ENDSEC;

DATA;
#1 = VECTOR ( 'NONE', #154, 1000.000000000000000 ) ;
#2 = VERTEX_POINT ( 'NONE', #339 ) ;
#3 = ORIENTED_EDGE ( 'NONE', *, *, #153, .T. ) ;
#4 = DIRECTION ( 'NONE',  ( 0.000000000000000000, -1.000000000000000000, 0.000000000000000000 ) ) ;
#5 = DIRECTION ( 'NONE',  ( 1.000000000000000000, 0.000000000000000000, 0.000000000000000000 ) ) ;
#6 = LINE ( 'NONE', #361, #310 ) ;
#7 = PLANE ( 'NONE',  #324 ) ;
#8 = CARTESIAN_POINT ( 'NONE',  ( 0.5000000000000000000, 2.500000000000000000, -8.500000000000000000 ) ) ;
#9 = COORDINATED_UNIVERSAL_TIME_OFFSET ( 8, 0, .AHEAD. ) ;
#10 = ORIENTED_EDGE ( 'NONE', *, *, #293, .T. ) ;
#11 = ORIENTED_EDGE ( 'NONE', *, *, #293, .F. ) ;
#12 = DIRECTION ( 'NONE',  ( 0.000000000000000000, -0.000000000000000000, -1.000000000000000000 ) ) ;
#13 = DATE_TIME_ROLE ( 'creation_date' ) ;
#14 = EDGE_CURVE ( 'NONE', #96, #194, #43, .T. ) ;
#15 = EDGE_CURVE ( 'NONE', #299, #306, #175, .T. ) ;
#16 = CC_DESIGN_APPROVAL ( #82, ( #309 ) ) ;
#17 = AXIS2_PLACEMENT_3D ( 'NONE', #150, #180, #288 ) ;
#18 = DIRECTION ( 'NONE',  ( -1.000000000000000000, 0.000000000000000000, -0.000000000000000000 ) ) ;
#19 = DESIGN_CONTEXT ( 'detailed design', #362, 'design' ) ;
#20 = VECTOR ( 'NONE', #368, 1000.000000000000000 ) ;
#21 = PERSON_AND_ORGANIZATION ( #115, #343 ) ;
#22 = ADVANCED_FACE ( 'NONE', ( #36 ), #313, .F. ) ;
#23 = PERSON_AND_ORGANIZATION ( #115, #343 ) ;
#24 = VECTOR ( 'NONE', #265, 1000.000000000000000 ) ;
#25 = DIRECTION ( 'NONE',  ( 0.000000000000000000, 0.000000000000000000, 1.000000000000000000 ) ) ;
#26 = COORDINATED_UNIVERSAL_TIME_OFFSET ( 8, 0, .AHEAD. ) ;
#27 = DATE_TIME_ROLE ( 'classification_date' ) ;
#28 = CARTESIAN_POINT ( 'NONE',  ( 0.5000000000000004441, 2.500000000000000000, 12.50000000000000000 ) ) ;
#29 = EDGE_LOOP ( 'NONE', ( #251, #81, #332, #363 ) ) ;
#30 = EDGE_CURVE ( 'NONE', #165, #219, #131, .T. ) ;
#31 = PERSON_AND_ORGANIZATION ( #115, #343 ) ;
#32 = ORIENTED_EDGE ( 'NONE', *, *, #276, .T. ) ;
#33 = CARTESIAN_POINT ( 'NONE',  ( -3.500000000000000000, 2.500000000000000000, 8.500000000000000000 ) ) ;
#34 = CC_DESIGN_SECURITY_CLASSIFICATION ( #309, ( #216 ) ) ;
#35 = VECTOR ( 'NONE', #40, 1000.000000000000000 ) ;
#36 = FACE_OUTER_BOUND ( 'NONE', #170, .T. ) ;
#37 = SHAPE_DEFINITION_REPRESENTATION ( #320, #231 ) ;
#38 = EDGE_CURVE ( 'NONE', #273, #306, #157, .T. ) ;
#39 = EDGE_LOOP ( 'NONE', ( #140, #184, #245, #62 ) ) ;
#40 = DIRECTION ( 'NONE',  ( 1.000000000000000000, 0.000000000000000000, 0.000000000000000000 ) ) ;
#41 = CARTESIAN_POINT ( 'NONE',  ( -8.500000000000000000, 2.500000000000000000, 8.500000000000001776 ) ) ;
#42 = VECTOR ( 'NONE', #127, 1000.000000000000000 ) ;
#43 = LINE ( 'NONE', #98, #296 ) ;
#44 = DIRECTION ( 'NONE',  ( 0.000000000000000000, -1.000000000000000000, 0.000000000000000000 ) ) ;
#45 = UNCERTAINTY_MEASURE_WITH_UNIT (LENGTH_MEASURE( 1.000000000000000082E-05 ), #312, 'distance_accuracy_value', 'NONE');
#46 = DATE_AND_TIME ( #142, #146 ) ;
#47 = CARTESIAN_POINT ( 'NONE',  ( 0.000000000000000000, 0.000000000000000000, 0.000000000000000000 ) ) ;
#48 = AXIS2_PLACEMENT_3D ( 'NONE', #76, #238, #349 ) ;
#49 = LOCAL_TIME ( 19, 27, 14.00000000000000000, #282 ) ;
#50 = VECTOR ( 'NONE', #235, 1000.000000000000000 ) ;
#51 = ORIENTED_EDGE ( 'NONE', *, *, #307, .T. ) ;
#52 = CARTESIAN_POINT ( 'NONE',  ( -8.500000000000000000, 2.500000000000000000, 8.500000000000001776 ) ) ;
#53 = EDGE_CURVE ( 'NONE', #267, #165, #263, .T. ) ;
#54 = ORIENTED_EDGE ( 'NONE', *, *, #30, .T. ) ;
#55 = DIRECTION ( 'NONE',  ( 1.000000000000000000, -0.000000000000000000, 0.000000000000000000 ) ) ;
#56 = ORIENTED_EDGE ( 'NONE', *, *, #80, .T. ) ;
#57 = VECTOR ( 'NONE', #60, 1000.000000000000000 ) ;
#58 = MECHANICAL_CONTEXT ( 'NONE', #347, 'mechanical' ) ;
#59 = EDGE_CURVE ( 'NONE', #221, #299, #266, .T. ) ;
#60 = DIRECTION ( 'NONE',  ( -0.000000000000000000, -1.000000000000000000, -0.000000000000000000 ) ) ;
#61 = ORIENTED_EDGE ( 'NONE', *, *, #128, .T. ) ;
#62 = ORIENTED_EDGE ( 'NONE', *, *, #30, .F. ) ;
#63 = DATE_AND_TIME ( #223, #49 ) ;
#64 = CARTESIAN_POINT ( 'NONE',  ( 8.500000000000000000, 2.500000000000000000, -8.500000000000000000 ) ) ;
#65 = AXIS2_PLACEMENT_3D ( 'NONE', #297, #220, #331 ) ;
#66 = ORIENTED_EDGE ( 'NONE', *, *, #186, .F. ) ;
#67 = PERSON_AND_ORGANIZATION ( #115, #343 ) ;
#68 = FACE_OUTER_BOUND ( 'NONE', #358, .T. ) ;
#69 = ORIENTED_EDGE ( 'NONE', *, *, #153, .F. ) ;
#70 = PERSON_AND_ORGANIZATION_ROLE ( 'creator' ) ;
#71 = FACE_OUTER_BOUND ( 'NONE', #326, .T. ) ;
#72 = LINE ( 'NONE', #289, #283 ) ;
#73 = CARTESIAN_POINT ( 'NONE',  ( 0.000000000000000000, 2.500000000000000000, 0.000000000000000000 ) ) ;
#74 = PERSON_AND_ORGANIZATION ( #115, #343 ) ;
#75 = VECTOR ( 'NONE', #303, 1000.000000000000000 ) ;
#76 = CARTESIAN_POINT ( 'NONE',  ( 8.500000000000000000, 2.500000000000000000, -8.500000000000000000 ) ) ;
#77 = DIRECTION ( 'NONE',  ( 0.000000000000000000, 0.000000000000000000, 1.000000000000000000 ) ) ;
#78 = VECTOR ( 'NONE', #118, 1000.000000000000000 ) ;
#79 = APPROVAL ( #133, '未指定' ) ;
#80 = EDGE_CURVE ( 'NONE', #311, #145, #348, .T. ) ;
#81 = ORIENTED_EDGE ( 'NONE', *, *, #350, .F. ) ;
#82 = APPROVAL ( #367, '未指定' ) ;
#83 = VECTOR ( 'NONE', #256, 1000.000000000000000 ) ;
#84 = FACE_OUTER_BOUND ( 'NONE', #39, .T. ) ;
#85 = APPROVAL_ROLE ( '' ) ;
#86 = CARTESIAN_POINT ( 'NONE',  ( -8.500000000000000000, 0.000000000000000000, 12.50000000000000000 ) ) ;
#87 = ORIENTED_EDGE ( 'NONE', *, *, #186, .T. ) ;
#88 = AXIS2_PLACEMENT_3D ( 'NONE', #52, #108, #354 ) ;
#89 = CARTESIAN_POINT ( 'NONE',  ( 0.5000000000000004441, 0.000000000000000000, 12.50000000000000000 ) ) ;
#90 = EDGE_LOOP ( 'NONE', ( #111, #122, #109, #32 ) ) ;
#91 = ORIENTED_EDGE ( 'NONE', *, *, #59, .F. ) ;
#92 = CARTESIAN_POINT ( 'NONE',  ( 0.5000000000000004441, 2.500000000000000000, 12.50000000000000000 ) ) ;
#93 = APPROVAL_DATE_TIME ( #352, #79 ) ;
#94 = LINE ( 'NONE', #286, #254 ) ;
#95 = VECTOR ( 'NONE', #250, 1000.000000000000000 ) ;
#96 = VERTEX_POINT ( 'NONE', #101 ) ;
#97 = MANIFOLD_SOLID_BREP ( '凸台-拉伸3', #103 ) ;
#98 = CARTESIAN_POINT ( 'NONE',  ( -8.500000000000000000, 0.000000000000000000, 8.500000000000001776 ) ) ;
#99 = CARTESIAN_POINT ( 'NONE',  ( 8.500000000000000000, 0.000000000000000000, -8.500000000000000000 ) ) ;
#100 = ADVANCED_FACE ( 'NONE', ( #71 ), #208, .F. ) ;
#101 = CARTESIAN_POINT ( 'NONE',  ( -3.500000000000000000, 0.000000000000000000, 8.500000000000000000 ) ) ;
#102 = CALENDAR_DATE ( 2026, 26, 7 ) ;
#103 = CLOSED_SHELL ( 'NONE', ( #330, #336, #280, #100, #268, #270, #105, #213, #239, #22 ) ) ;
#104 = AXIS2_PLACEMENT_3D ( 'NONE', #207, #321, #18 ) ;
#105 = ADVANCED_FACE ( 'NONE', ( #68 ), #151, .F. ) ;
#106 = AXIS2_PLACEMENT_3D ( 'NONE', #47, #4, #346 ) ;
#107 = ORIENTED_EDGE ( 'NONE', *, *, #148, .F. ) ;
#108 = DIRECTION ( 'NONE',  ( 0.000000000000000000, 0.000000000000000000, 1.000000000000000000 ) ) ;
#109 = ORIENTED_EDGE ( 'NONE', *, *, #15, .T. ) ;
#110 = CARTESIAN_POINT ( 'NONE',  ( 0.5000000000000000000, 2.500000000000000000, -8.500000000000000000 ) ) ;
#111 = ORIENTED_EDGE ( 'NONE', *, *, #128, .F. ) ;
#112 = LINE ( 'NONE', #357, #163 ) ;
#113 = ORIENTED_EDGE ( 'NONE', *, *, #276, .F. ) ;
#114 = APPROVAL_PERSON_ORGANIZATION ( #74, #79, #236 ) ;
#115 = PERSON ( '未指定', '未指定', '未指定', ('未指定'), ('未指定'), ('未指定') ) ;
#116 = CARTESIAN_POINT ( 'NONE',  ( -3.500000000000000000, 2.500000000000000000, 8.500000000000000000 ) ) ;
#117 = ORIENTED_EDGE ( 'NONE', *, *, #38, .T. ) ;
#118 = DIRECTION ( 'NONE',  ( -0.000000000000000000, -1.000000000000000000, -0.000000000000000000 ) ) ;
#119 = EDGE_CURVE ( 'NONE', #219, #2, #172, .T. ) ;
#120 = CARTESIAN_POINT ( 'NONE',  ( -3.500000000000000000, 2.500000000000000000, -8.500000000000000000 ) ) ;
#121 = PRODUCT ( 'FN-HAR-003_battery-load-to-fuse_R0.4', 'FN-HAR-003_battery-load-to-fuse_R0.4', '', ( #58 ) ) ;
#122 = ORIENTED_EDGE ( 'NONE', *, *, #201, .F. ) ;
#123 = DIRECTION ( 'NONE',  ( 0.000000000000000000, 0.000000000000000000, 1.000000000000000000 ) ) ;
#124 = DIRECTION ( 'NONE',  ( -0.000000000000000000, -0.000000000000000000, 1.000000000000000000 ) ) ;
#125 = CALENDAR_DATE ( 2026, 26, 7 ) ;
#126 = VECTOR ( 'NONE', #229, 1000.000000000000000 ) ;
#127 = DIRECTION ( 'NONE',  ( 0.000000000000000000, 1.000000000000000000, 0.000000000000000000 ) ) ;
#128 = EDGE_CURVE ( 'NONE', #198, #96, #278, .T. ) ;
#129 = LINE ( 'NONE', #99, #139 ) ;
#130 = DATE_AND_TIME ( #125, #199 ) ;
#131 = LINE ( 'NONE', #120, #35 ) ;
#132 = FACE_OUTER_BOUND ( 'NONE', #29, .T. ) ;
#133 = APPROVAL_STATUS ( 'not_yet_approved' ) ;
#134 = PRODUCT_DEFINITION ( '未知', '', #216, #19 ) ;
#135 = FACE_OUTER_BOUND ( 'NONE', #243, .T. ) ;
#136 = PERSON_AND_ORGANIZATION_ROLE ( 'design_owner' ) ;
#137 = ORIENTED_EDGE ( 'NONE', *, *, #201, .T. ) ;
#138 = DIRECTION ( 'NONE',  ( -0.000000000000000000, -1.000000000000000000, -0.000000000000000000 ) ) ;
#139 = VECTOR ( 'NONE', #233, 1000.000000000000000 ) ;
#140 = ORIENTED_EDGE ( 'NONE', *, *, #53, .F. ) ;
#141 = DIRECTION ( 'NONE',  ( -0.000000000000000000, -1.000000000000000000, 0.000000000000000000 ) ) ;
#142 = CALENDAR_DATE ( 2026, 26, 7 ) ;
#143 = CARTESIAN_POINT ( 'NONE',  ( -3.500000000000000000, 0.000000000000000000, -12.50000000000000000 ) ) ;
#144 = CARTESIAN_POINT ( 'NONE',  ( 0.5000000000000004441, 2.500000000000000000, 12.50000000000000000 ) ) ;
#145 = VERTEX_POINT ( 'NONE', #246 ) ;
#146 = LOCAL_TIME ( 19, 27, 14.00000000000000000, #26 ) ;
#147 = CARTESIAN_POINT ( 'NONE',  ( -8.500000000000000000, 0.000000000000000000, 12.50000000000000000 ) ) ;
#148 = EDGE_CURVE ( 'NONE', #177, #174, #167, .T. ) ;
#149 = DIRECTION ( 'NONE',  ( 1.000000000000000000, 0.000000000000000000, 0.000000000000000000 ) ) ;
#150 = CARTESIAN_POINT ( 'NONE',  ( -8.500000000000000000, 2.500000000000000000, 12.50000000000000000 ) ) ;
#151 = PLANE ( 'NONE',  #264 ) ;
#152 = DIRECTION ( 'NONE',  ( 0.000000000000000000, 0.000000000000000000, -1.000000000000000000 ) ) ;
#153 = EDGE_CURVE ( 'NONE', #174, #165, #360, .T. ) ;
#154 = DIRECTION ( 'NONE',  ( -1.000000000000000000, -0.000000000000000000, -0.000000000000000000 ) ) ;
#155 = PERSON_AND_ORGANIZATION ( #115, #343 ) ;
#156 = AXIS2_PLACEMENT_3D ( 'NONE', #181, #77, #185 ) ;
#157 = LINE ( 'NONE', #225, #1 ) ;
#158 = PERSON_AND_ORGANIZATION_ROLE ( 'creator' ) ;
#159 = CC_DESIGN_DATE_AND_TIME_ASSIGNMENT ( #171, #27, ( #309 ) ) ;
#160 = PLANE ( 'NONE',  #106 ) ;
#161 = ORIENTED_EDGE ( 'NONE', *, *, #164, .F. ) ;
#162 = PERSON_AND_ORGANIZATION ( #115, #343 ) ;
#163 = VECTOR ( 'NONE', #138, 1000.000000000000000 ) ;
#164 = EDGE_CURVE ( 'NONE', #267, #2, #257, .T. ) ;
#165 = VERTEX_POINT ( 'NONE', #110 ) ;
#166 = APPLICATION_PROTOCOL_DEFINITION ( 'international standard', 'config_control_design', 1994, #362 ) ;
#167 = LINE ( 'NONE', #305, #187 ) ;
#168 = LOCAL_TIME ( 19, 27, 14.00000000000000000, #342 ) ;
#169 = CC_DESIGN_PERSON_AND_ORGANIZATION_ASSIGNMENT ( #162, #176, ( #216 ) ) ;
#170 = EDGE_LOOP ( 'NONE', ( #344, #196, #66, #192 ) ) ;
#171 = DATE_AND_TIME ( #178, #323 ) ;
#172 = LINE ( 'NONE', #64, #78 ) ;
#173 = ORIENTED_EDGE ( 'NONE', *, *, #80, .F. ) ;
#174 = VERTEX_POINT ( 'NONE', #92 ) ;
#175 = LINE ( 'NONE', #202, #275 ) ;
#176 = PERSON_AND_ORGANIZATION_ROLE ( 'design_supplier' ) ;
#177 = VERTEX_POINT ( 'NONE', #249 ) ;
#178 = CALENDAR_DATE ( 2026, 26, 7 ) ;
#179 = EDGE_CURVE ( 'NONE', #304, #194, #308, .T. ) ;
#180 = DIRECTION ( 'NONE',  ( 1.000000000000000000, -0.000000000000000000, 0.000000000000000000 ) ) ;
#181 = CARTESIAN_POINT ( 'NONE',  ( -3.500000000000000000, 2.500000000000000000, -12.50000000000000000 ) ) ;
#182 = CC_DESIGN_APPROVAL ( #79, ( #216 ) ) ;
#183 = CARTESIAN_POINT ( 'NONE',  ( 0.5000000000000004441, 0.000000000000000000, -8.500000000000000000 ) ) ;
#184 = ORIENTED_EDGE ( 'NONE', *, *, #164, .T. ) ;
#185 = DIRECTION ( 'NONE',  ( 1.000000000000000000, 0.000000000000000000, -0.000000000000000000 ) ) ;
#186 = EDGE_CURVE ( 'NONE', #304, #177, #341, .T. ) ;
#187 = VECTOR ( 'NONE', #149, 1000.000000000000000 ) ;
#188 =( GEOMETRIC_REPRESENTATION_CONTEXT ( 3 ) GLOBAL_UNCERTAINTY_ASSIGNED_CONTEXT ( ( #45 ) ) GLOBAL_UNIT_ASSIGNED_CONTEXT ( ( #312, #193, #203 ) ) REPRESENTATION_CONTEXT ( 'NONE', 'WORKASPACE' ) );
#189 = CARTESIAN_POINT ( 'NONE',  ( 8.500000000000000000, 2.500000000000000000, -12.50000000000000000 ) ) ;
#190 = PLANE ( 'NONE',  #65 ) ;
#191 = CC_DESIGN_DATE_AND_TIME_ASSIGNMENT ( #130, #13, ( #134 ) ) ;
#192 = ORIENTED_EDGE ( 'NONE', *, *, #179, .T. ) ;
#193 =( NAMED_UNIT ( * ) PLANE_ANGLE_UNIT ( ) SI_UNIT ( $, .RADIAN. ) );
#194 = VERTEX_POINT ( 'NONE', #274 ) ;
#195 = DIRECTION ( 'NONE',  ( -0.000000000000000000, -1.000000000000000000, -0.000000000000000000 ) ) ;
#196 = ORIENTED_EDGE ( 'NONE', *, *, #353, .F. ) ;
#197 = ORIENTED_EDGE ( 'NONE', *, *, #15, .F. ) ;
#198 = VERTEX_POINT ( 'NONE', #116 ) ;
#199 = LOCAL_TIME ( 19, 27, 14.00000000000000000, #9 ) ;
#200 = COORDINATED_UNIVERSAL_TIME_OFFSET ( 8, 0, .AHEAD. ) ;
#201 = EDGE_CURVE ( 'NONE', #299, #198, #94, .T. ) ;
#202 = CARTESIAN_POINT ( 'NONE',  ( -3.500000000000000000, 2.500000000000000000, -12.50000000000000000 ) ) ;
#203 =( NAMED_UNIT ( * ) SI_UNIT ( $, .STERADIAN. ) SOLID_ANGLE_UNIT ( ) );
#204 = DIRECTION ( 'NONE',  ( -0.000000000000000000, -0.000000000000000000, 1.000000000000000000 ) ) ;
#205 = CARTESIAN_POINT ( 'NONE',  ( -3.500000000000000000, 0.000000000000000000, 12.50000000000000000 ) ) ;
#206 = LINE ( 'NONE', #41, #24 ) ;
#207 = CARTESIAN_POINT ( 'NONE',  ( -3.500000000000000000, 2.500000000000000000, 12.50000000000000000 ) ) ;
#208 = PLANE ( 'NONE',  #156 ) ;
#209 = SECURITY_CLASSIFICATION_LEVEL ( 'unclassified' ) ;
#210 = APPROVAL_PERSON_ORGANIZATION ( #31, #82, #248 ) ;
#211 = CC_DESIGN_PERSON_AND_ORGANIZATION_ASSIGNMENT ( #21, #136, ( #121 ) ) ;
#212 = CARTESIAN_POINT ( 'NONE',  ( -3.500000000000000000, 0.000000000000000000, -8.500000000000000000 ) ) ;
#213 = ADVANCED_FACE ( 'NONE', ( #315 ), #290, .F. ) ;
#214 = CC_DESIGN_PERSON_AND_ORGANIZATION_ASSIGNMENT ( #67, #259, ( #309 ) ) ;
#215 = LINE ( 'NONE', #147, #83 ) ;
#216 = PRODUCT_DEFINITION_FORMATION_WITH_SPECIFIED_SOURCE ( '任何', '', #121, .NOT_KNOWN. ) ;
#217 = DIRECTION ( 'NONE',  ( 0.000000000000000000, 0.000000000000000000, -1.000000000000000000 ) ) ;
#218 = AXIS2_PLACEMENT_3D ( 'NONE', #300, #123, #314 ) ;
#219 = VERTEX_POINT ( 'NONE', #325 ) ;
#220 = DIRECTION ( 'NONE',  ( 0.000000000000000000, 0.000000000000000000, -1.000000000000000000 ) ) ;
#221 = VERTEX_POINT ( 'NONE', #189 ) ;
#222 = ORIENTED_EDGE ( 'NONE', *, *, #301, .T. ) ;
#223 = CALENDAR_DATE ( 2026, 26, 7 ) ;
#224 = ORIENTED_EDGE ( 'NONE', *, *, #179, .F. ) ;
#225 = CARTESIAN_POINT ( 'NONE',  ( -3.500000000000000000, 0.000000000000000000, -12.50000000000000000 ) ) ;
#226 = CARTESIAN_POINT ( 'NONE',  ( 8.500000000000000000, 0.000000000000000000, -12.50000000000000000 ) ) ;
#227 = DIRECTION ( 'NONE',  ( -1.000000000000000000, 0.000000000000000000, 0.000000000000000000 ) ) ;
#228 = ORIENTED_EDGE ( 'NONE', *, *, #59, .T. ) ;
#229 = DIRECTION ( 'NONE',  ( -0.000000000000000000, -1.000000000000000000, -0.000000000000000000 ) ) ;
#230 = PLANE ( 'NONE',  #48 ) ;
#231 = ADVANCED_BREP_SHAPE_REPRESENTATION ( 'FN-HAR-003_battery-load-to-fuse_R0.4', ( #97, #218 ), #188 ) ;
#232 = CARTESIAN_POINT ( 'NONE',  ( -3.500000000000000000, 2.500000000000000000, -12.50000000000000000 ) ) ;
#233 = DIRECTION ( 'NONE',  ( 0.000000000000000000, 0.000000000000000000, -1.000000000000000000 ) ) ;
#234 = FACE_OUTER_BOUND ( 'NONE', #255, .T. ) ;
#235 = DIRECTION ( 'NONE',  ( 1.000000000000000000, 0.000000000000000000, 0.000000000000000000 ) ) ;
#236 = APPROVAL_ROLE ( '' ) ;
#237 = VECTOR ( 'NONE', #5, 1000.000000000000000 ) ;
#238 = DIRECTION ( 'NONE',  ( -1.000000000000000000, 0.000000000000000000, 0.000000000000000000 ) ) ;
#239 = ADVANCED_FACE ( 'NONE', ( #135 ), #327, .F. ) ;
#240 = VECTOR ( 'NONE', #351, 1000.000000000000000 ) ;
#241 = LINE ( 'NONE', #345, #126 ) ;
#242 = PRODUCT_RELATED_PRODUCT_CATEGORY ( 'detail', '', ( #121 ) ) ;
#243 = EDGE_LOOP ( 'NONE', ( #11, #61, #329, #224 ) ) ;
#244 = APPROVAL_STATUS ( 'not_yet_approved' ) ;
#245 = ORIENTED_EDGE ( 'NONE', *, *, #119, .F. ) ;
#246 = CARTESIAN_POINT ( 'NONE',  ( 0.5000000000000004441, 0.000000000000000000, 12.50000000000000000 ) ) ;
#247 = EDGE_CURVE ( 'NONE', #194, #311, #215, .T. ) ;
#248 = APPROVAL_ROLE ( '' ) ;
#249 = CARTESIAN_POINT ( 'NONE',  ( -8.500000000000000000, 2.500000000000000000, 12.50000000000000000 ) ) ;
#250 = DIRECTION ( 'NONE',  ( 0.000000000000000000, 0.000000000000000000, -1.000000000000000000 ) ) ;
#251 = ORIENTED_EDGE ( 'NONE', *, *, #292, .T. ) ;
#252 = CARTESIAN_POINT ( 'NONE',  ( -8.500000000000000000, 2.500000000000000000, 12.50000000000000000 ) ) ;
#253 = CC_DESIGN_APPROVAL ( #260, ( #134 ) ) ;
#254 = VECTOR ( 'NONE', #204, 1000.000000000000000 ) ;
#255 = EDGE_LOOP ( 'NONE', ( #173, #279, #258, #113, #291, #337, #161, #261 ) ) ;
#256 = DIRECTION ( 'NONE',  ( -0.000000000000000000, -0.000000000000000000, 1.000000000000000000 ) ) ;
#257 = LINE ( 'NONE', #338, #237 ) ;
#258 = ORIENTED_EDGE ( 'NONE', *, *, #14, .F. ) ;
#259 = PERSON_AND_ORGANIZATION_ROLE ( 'classification_officer' ) ;
#260 = APPROVAL ( #244, '未指定' ) ;
#261 = ORIENTED_EDGE ( 'NONE', *, *, #317, .F. ) ;
#262 = PLANE ( 'NONE',  #294 ) ;
#263 = LINE ( 'NONE', #8, #42 ) ;
#264 = AXIS2_PLACEMENT_3D ( 'NONE', #144, #227, #25 ) ;
#265 = DIRECTION ( 'NONE',  ( -1.000000000000000000, -0.000000000000000000, -0.000000000000000000 ) ) ;
#266 = LINE ( 'NONE', #232, #240 ) ;
#267 = VERTEX_POINT ( 'NONE', #183 ) ;
#268 = ADVANCED_FACE ( 'NONE', ( #322 ), #7, .F. ) ;
#269 = VECTOR ( 'NONE', #124, 1000.000000000000000 ) ;
#270 = ADVANCED_FACE ( 'NONE', ( #234 ), #160, .T. ) ;
#271 = ORIENTED_EDGE ( 'NONE', *, *, #53, .T. ) ;
#272 = APPLICATION_PROTOCOL_DEFINITION ( 'international standard', 'config_control_design', 1994, #347 ) ;
#273 = VERTEX_POINT ( 'NONE', #226 ) ;
#274 = CARTESIAN_POINT ( 'NONE',  ( -8.500000000000000000, 0.000000000000000000, 8.500000000000001776 ) ) ;
#275 = VECTOR ( 'NONE', #284, 1000.000000000000000 ) ;
#276 = EDGE_CURVE ( 'NONE', #306, #96, #340, .T. ) ;
#277 = ORIENTED_EDGE ( 'NONE', *, *, #307, .F. ) ;
#278 = LINE ( 'NONE', #33, #356 ) ;
#279 = ORIENTED_EDGE ( 'NONE', *, *, #247, .F. ) ;
#280 = ADVANCED_FACE ( 'NONE', ( #132 ), #230, .F. ) ;
#281 = EDGE_LOOP ( 'NONE', ( #3, #54, #222, #228, #137, #10, #87, #318 ) ) ;
#282 = COORDINATED_UNIVERSAL_TIME_OFFSET ( 8, 0, .AHEAD. ) ;
#283 = VECTOR ( 'NONE', #152, 1000.000000000000000 ) ;
#284 = DIRECTION ( 'NONE',  ( -0.000000000000000000, -1.000000000000000000, -0.000000000000000000 ) ) ;
#285 = DIRECTION ( 'NONE',  ( -1.000000000000000000, -0.000000000000000000, -0.000000000000000000 ) ) ;
#286 = CARTESIAN_POINT ( 'NONE',  ( -3.500000000000000000, 2.500000000000000000, -8.500000000000000000 ) ) ;
#287 = PERSON_AND_ORGANIZATION ( #115, #343 ) ;
#288 = DIRECTION ( 'NONE',  ( 0.000000000000000000, 0.000000000000000000, -1.000000000000000000 ) ) ;
#289 = CARTESIAN_POINT ( 'NONE',  ( 8.500000000000000000, 2.500000000000000000, -8.500000000000000000 ) ) ;
#290 = PLANE ( 'NONE',  #104 ) ;
#291 = ORIENTED_EDGE ( 'NONE', *, *, #38, .F. ) ;
#292 = EDGE_CURVE ( 'NONE', #2, #273, #129, .T. ) ;
#293 = EDGE_CURVE ( 'NONE', #198, #304, #206, .T. ) ;
#294 = AXIS2_PLACEMENT_3D ( 'NONE', #366, #55, #217 ) ;
#295 = CC_DESIGN_PERSON_AND_ORGANIZATION_ASSIGNMENT ( #155, #158, ( #216 ) ) ;
#296 = VECTOR ( 'NONE', #285, 1000.000000000000000 ) ;
#297 = CARTESIAN_POINT ( 'NONE',  ( -3.500000000000000000, 2.500000000000000000, -8.500000000000000000 ) ) ;
#298 = ORIENTED_EDGE ( 'NONE', *, *, #317, .T. ) ;
#299 = VERTEX_POINT ( 'NONE', #319 ) ;
#300 = CARTESIAN_POINT ( 'NONE',  ( 0.000000000000000000, 0.000000000000000000, 0.000000000000000000 ) ) ;
#301 = EDGE_CURVE ( 'NONE', #219, #221, #72, .T. ) ;
#302 = ORIENTED_EDGE ( 'NONE', *, *, #350, .T. ) ;
#303 = DIRECTION ( 'NONE',  ( 0.000000000000000000, 0.000000000000000000, -1.000000000000000000 ) ) ;
#304 = VERTEX_POINT ( 'NONE', #333 ) ;
#305 = CARTESIAN_POINT ( 'NONE',  ( -3.500000000000000000, 2.500000000000000000, 12.50000000000000000 ) ) ;
#306 = VERTEX_POINT ( 'NONE', #143 ) ;
#307 = EDGE_CURVE ( 'NONE', #174, #145, #241, .T. ) ;
#308 = LINE ( 'NONE', #365, #57 ) ;
#309 = SECURITY_CLASSIFICATION ( '', '', #209 ) ;
#310 = VECTOR ( 'NONE', #195, 1000.000000000000000 ) ;
#311 = VERTEX_POINT ( 'NONE', #86 ) ;
#312 =( LENGTH_UNIT ( ) NAMED_UNIT ( * ) SI_UNIT ( .MILLI., .METRE. ) );
#313 = PLANE ( 'NONE',  #17 ) ;
#314 = DIRECTION ( 'NONE',  ( 1.000000000000000000, 0.000000000000000000, 0.000000000000000000 ) ) ;
#315 = FACE_OUTER_BOUND ( 'NONE', #335, .T. ) ;
#316 = APPROVAL_DATE_TIME ( #46, #260 ) ;
#317 = EDGE_CURVE ( 'NONE', #145, #267, #328, .T. ) ;
#318 = ORIENTED_EDGE ( 'NONE', *, *, #148, .T. ) ;
#319 = CARTESIAN_POINT ( 'NONE',  ( -3.500000000000000000, 2.500000000000000000, -12.50000000000000000 ) ) ;
#320 = PRODUCT_DEFINITION_SHAPE ( 'NONE', 'NONE',  #134 ) ;
#321 = DIRECTION ( 'NONE',  ( 0.000000000000000000, 0.000000000000000000, -1.000000000000000000 ) ) ;
#322 = FACE_OUTER_BOUND ( 'NONE', #281, .T. ) ;
#323 = LOCAL_TIME ( 19, 27, 14.00000000000000000, #200 ) ;
#324 = AXIS2_PLACEMENT_3D ( 'NONE', #73, #44, #12 ) ;
#325 = CARTESIAN_POINT ( 'NONE',  ( 8.500000000000000000, 2.500000000000000000, -8.500000000000000000 ) ) ;
#326 = EDGE_LOOP ( 'NONE', ( #197, #91, #302, #117 ) ) ;
#327 = PLANE ( 'NONE',  #88 ) ;
#328 = LINE ( 'NONE', #89, #95 ) ;
#329 = ORIENTED_EDGE ( 'NONE', *, *, #14, .T. ) ;
#330 = ADVANCED_FACE ( 'NONE', ( #355 ), #262, .F. ) ;
#331 = DIRECTION ( 'NONE',  ( -1.000000000000000000, 0.000000000000000000, -0.000000000000000000 ) ) ;
#332 = ORIENTED_EDGE ( 'NONE', *, *, #301, .F. ) ;
#333 = CARTESIAN_POINT ( 'NONE',  ( -8.500000000000000000, 2.500000000000000000, 8.500000000000001776 ) ) ;
#334 = ORIENTED_EDGE ( 'NONE', *, *, #353, .T. ) ;
#335 = EDGE_LOOP ( 'NONE', ( #56, #277, #107, #334 ) ) ;
#336 = ADVANCED_FACE ( 'NONE', ( #84 ), #190, .F. ) ;
#337 = ORIENTED_EDGE ( 'NONE', *, *, #292, .F. ) ;
#338 = CARTESIAN_POINT ( 'NONE',  ( -3.500000000000000000, 0.000000000000000000, -8.500000000000000000 ) ) ;
#339 = CARTESIAN_POINT ( 'NONE',  ( 8.500000000000000000, 0.000000000000000000, -8.500000000000000000 ) ) ;
#340 = LINE ( 'NONE', #212, #269 ) ;
#341 = LINE ( 'NONE', #252, #20 ) ;
#342 = COORDINATED_UNIVERSAL_TIME_OFFSET ( 8, 0, .AHEAD. ) ;
#343 = ORGANIZATION ( '未指定', '未指定', '' ) ;
#344 = ORIENTED_EDGE ( 'NONE', *, *, #247, .T. ) ;
#345 = CARTESIAN_POINT ( 'NONE',  ( 0.5000000000000004441, 2.500000000000000000, 12.50000000000000000 ) ) ;
#346 = DIRECTION ( 'NONE',  ( 0.000000000000000000, -0.000000000000000000, -1.000000000000000000 ) ) ;
#347 = APPLICATION_CONTEXT ( 'configuration controlled 3d designs of mechanical parts and assemblies' ) ;
#348 = LINE ( 'NONE', #205, #50 ) ;
#349 = DIRECTION ( 'NONE',  ( 0.000000000000000000, 0.000000000000000000, 1.000000000000000000 ) ) ;
#350 = EDGE_CURVE ( 'NONE', #221, #273, #6, .T. ) ;
#351 = DIRECTION ( 'NONE',  ( -1.000000000000000000, -0.000000000000000000, -0.000000000000000000 ) ) ;
#352 = DATE_AND_TIME ( #102, #168 ) ;
#353 = EDGE_CURVE ( 'NONE', #177, #311, #112, .T. ) ;
#354 = DIRECTION ( 'NONE',  ( 1.000000000000000000, 0.000000000000000000, -0.000000000000000000 ) ) ;
#355 = FACE_OUTER_BOUND ( 'NONE', #90, .T. ) ;
#356 = VECTOR ( 'NONE', #141, 1000.000000000000000 ) ;
#357 = CARTESIAN_POINT ( 'NONE',  ( -8.500000000000000000, 2.500000000000000000, 12.50000000000000000 ) ) ;
#358 = EDGE_LOOP ( 'NONE', ( #298, #271, #69, #51 ) ) ;
#359 = CC_DESIGN_PERSON_AND_ORGANIZATION_ASSIGNMENT ( #287, #70, ( #134 ) ) ;
#360 = LINE ( 'NONE', #28, #75 ) ;
#361 = CARTESIAN_POINT ( 'NONE',  ( 8.500000000000000000, 2.500000000000000000, -12.50000000000000000 ) ) ;
#362 = APPLICATION_CONTEXT ( 'configuration controlled 3d designs of mechanical parts and assemblies' ) ;
#363 = ORIENTED_EDGE ( 'NONE', *, *, #119, .T. ) ;
#364 = APPROVAL_DATE_TIME ( #63, #82 ) ;
#365 = CARTESIAN_POINT ( 'NONE',  ( -8.500000000000000000, 2.500000000000000000, 8.500000000000001776 ) ) ;
#366 = CARTESIAN_POINT ( 'NONE',  ( -3.500000000000000000, 2.500000000000000000, -8.500000000000000000 ) ) ;
#367 = APPROVAL_STATUS ( 'not_yet_approved' ) ;
#368 = DIRECTION ( 'NONE',  ( -0.000000000000000000, -0.000000000000000000, 1.000000000000000000 ) ) ;
#369 = APPROVAL_PERSON_ORGANIZATION ( #23, #260, #85 ) ;
ENDSEC;
END-ISO-10303-21;
