ISO-10303-21;
HEADER;
FILE_DESCRIPTION (( 'STEP AP203' ),
    '1' );
FILE_NAME ('FN-HLD-002_cn3791-clip-zone_R0.4.STEP',
    '2026-07-26T11:26:26',
    ( '' ),
    ( '' ),
    'SwSTEP 2.0',
    'SolidWorks 2022',
    '' );
FILE_SCHEMA (( 'CONFIG_CONTROL_DESIGN' ));
ENDSEC;

DATA;
#1 = DATE_TIME_ROLE ( 'creation_date' ) ;
#2 = PRODUCT ( 'FN-HLD-002_cn3791-clip-zone_R0.4', 'FN-HLD-002_cn3791-clip-zone_R0.4', '', ( #178 ) ) ;
#3 = LOCAL_TIME ( 19, 26, 26.00000000000000000, #193 ) ;
#4 = VECTOR ( 'NONE', #161, 1000.000000000000000 ) ;
#5 = CC_DESIGN_PERSON_AND_ORGANIZATION_ASSIGNMENT ( #167, #116, ( #176 ) ) ;
#6 = ORIENTED_EDGE ( 'NONE', *, *, #99, .T. ) ;
#7 = ORIENTED_EDGE ( 'NONE', *, *, #103, .F. ) ;
#8 = UNCERTAINTY_MEASURE_WITH_UNIT (LENGTH_MEASURE( 1.000000000000000082E-05 ), #138, 'distance_accuracy_value', 'NONE');
#9 =( GEOMETRIC_REPRESENTATION_CONTEXT ( 3 ) GLOBAL_UNCERTAINTY_ASSIGNED_CONTEXT ( ( #8 ) ) GLOBAL_UNIT_ASSIGNED_CONTEXT ( ( #138, #74, #191 ) ) REPRESENTATION_CONTEXT ( 'NONE', 'WORKASPACE' ) );
#10 = ORIENTED_EDGE ( 'NONE', *, *, #81, .T. ) ;
#11 = CARTESIAN_POINT ( 'NONE',  ( 28.00000000000000000, 3.000000000000000000, 15.50000000000000000 ) ) ;
#12 = CARTESIAN_POINT ( 'NONE',  ( -28.00000000000000000, 3.000000000000000000, -15.50000000000000000 ) ) ;
#13 = APPROVAL ( #143, '未指定' ) ;
#14 = PLANE ( 'NONE',  #71 ) ;
#15 = LOCAL_TIME ( 19, 26, 26.00000000000000000, #95 ) ;
#16 = PERSON_AND_ORGANIZATION_ROLE ( 'creator' ) ;
#17 = CARTESIAN_POINT ( 'NONE',  ( 0.000000000000000000, 3.000000000000000000, 0.000000000000000000 ) ) ;
#18 = DIRECTION ( 'NONE',  ( 1.000000000000000000, 0.000000000000000000, 0.000000000000000000 ) ) ;
#19 = DIRECTION ( 'NONE',  ( -0.000000000000000000, -1.000000000000000000, -0.000000000000000000 ) ) ;
#20 = CC_DESIGN_DATE_AND_TIME_ASSIGNMENT ( #57, #126, ( #195 ) ) ;
#21 = CC_DESIGN_SECURITY_CLASSIFICATION ( #195, ( #102 ) ) ;
#22 = PERSON_AND_ORGANIZATION ( #153, #64 ) ;
#23 = APPROVAL_ROLE ( '' ) ;
#24 = VERTEX_POINT ( 'NONE', #67 ) ;
#25 = EDGE_LOOP ( 'NONE', ( #120, #33, #226, #6 ) ) ;
#26 = PRODUCT_DEFINITION_SHAPE ( 'NONE', 'NONE',  #176 ) ;
#27 = AXIS2_PLACEMENT_3D ( 'NONE', #123, #194, #73 ) ;
#28 = CARTESIAN_POINT ( 'NONE',  ( 0.000000000000000000, 0.000000000000000000, 0.000000000000000000 ) ) ;
#29 = ADVANCED_FACE ( 'NONE', ( #170 ), #47, .T. ) ;
#30 = ORIENTED_EDGE ( 'NONE', *, *, #185, .T. ) ;
#31 = EDGE_CURVE ( 'NONE', #208, #24, #86, .T. ) ;
#32 = AXIS2_PLACEMENT_3D ( 'NONE', #201, #180, #18 ) ;
#33 = ORIENTED_EDGE ( 'NONE', *, *, #66, .F. ) ;
#34 = DIRECTION ( 'NONE',  ( -1.000000000000000000, -0.000000000000000000, -0.000000000000000000 ) ) ;
#35 = LINE ( 'NONE', #175, #90 ) ;
#36 = APPROVAL_DATE_TIME ( #221, #13 ) ;
#37 = PLANE ( 'NONE',  #27 ) ;
#38 = PERSON_AND_ORGANIZATION ( #153, #64 ) ;
#39 = EDGE_CURVE ( 'NONE', #154, #69, #164, .T. ) ;
#40 = PLANE ( 'NONE',  #101 ) ;
#41 = APPROVAL_ROLE ( '' ) ;
#42 = VECTOR ( 'NONE', #228, 1000.000000000000000 ) ;
#43 = CARTESIAN_POINT ( 'NONE',  ( -28.00000000000000000, 3.000000000000000000, 15.50000000000000000 ) ) ;
#44 = ORIENTED_EDGE ( 'NONE', *, *, #81, .F. ) ;
#45 = PERSON_AND_ORGANIZATION ( #153, #64 ) ;
#46 = ORIENTED_EDGE ( 'NONE', *, *, #83, .T. ) ;
#47 = PLANE ( 'NONE',  #131 ) ;
#48 = VECTOR ( 'NONE', #162, 1000.000000000000000 ) ;
#49 = ORIENTED_EDGE ( 'NONE', *, *, #31, .T. ) ;
#50 = EDGE_CURVE ( 'NONE', #157, #205, #198, .T. ) ;
#51 = EDGE_LOOP ( 'NONE', ( #137, #181, #203, #7 ) ) ;
#52 = ADVANCED_FACE ( 'NONE', ( #54 ), #37, .F. ) ;
#53 = ORIENTED_EDGE ( 'NONE', *, *, #83, .F. ) ;
#54 = FACE_OUTER_BOUND ( 'NONE', #184, .T. ) ;
#55 = LINE ( 'NONE', #227, #174 ) ;
#56 = CARTESIAN_POINT ( 'NONE',  ( -28.00000000000000000, 0.000000000000000000, 15.50000000000000000 ) ) ;
#57 = DATE_AND_TIME ( #145, #187 ) ;
#58 = FACE_OUTER_BOUND ( 'NONE', #68, .T. ) ;
#59 = COORDINATED_UNIVERSAL_TIME_OFFSET ( 8, 0, .AHEAD. ) ;
#60 = CARTESIAN_POINT ( 'NONE',  ( -28.00000000000000000, 0.000000000000000000, 15.50000000000000000 ) ) ;
#61 = APPROVAL_STATUS ( 'not_yet_approved' ) ;
#62 = ORIENTED_EDGE ( 'NONE', *, *, #117, .F. ) ;
#63 = PERSON_AND_ORGANIZATION_ROLE ( 'design_owner' ) ;
#64 = ORGANIZATION ( '未指定', '未指定', '' ) ;
#65 = CALENDAR_DATE ( 2026, 26, 7 ) ;
#66 = EDGE_CURVE ( 'NONE', #205, #208, #55, .T. ) ;
#67 = CARTESIAN_POINT ( 'NONE',  ( 28.00000000000000000, 0.000000000000000000, -15.50000000000000000 ) ) ;
#68 = EDGE_LOOP ( 'NONE', ( #155, #159, #30, #46 ) ) ;
#69 = VERTEX_POINT ( 'NONE', #60 ) ;
#70 = CC_DESIGN_APPROVAL ( #136, ( #102 ) ) ;
#71 = AXIS2_PLACEMENT_3D ( 'NONE', #75, #94, #142 ) ;
#72 = DIRECTION ( 'NONE',  ( -0.000000000000000000, -0.000000000000000000, 1.000000000000000000 ) ) ;
#73 = DIRECTION ( 'NONE',  ( 0.000000000000000000, 0.000000000000000000, 1.000000000000000000 ) ) ;
#74 =( NAMED_UNIT ( * ) PLANE_ANGLE_UNIT ( ) SI_UNIT ( $, .RADIAN. ) );
#75 = CARTESIAN_POINT ( 'NONE',  ( -28.00000000000000000, 3.000000000000000000, 15.50000000000000000 ) ) ;
#76 = PERSON_AND_ORGANIZATION ( #153, #64 ) ;
#77 = LINE ( 'NONE', #209, #4 ) ;
#78 = DATE_AND_TIME ( #233, #97 ) ;
#79 = FACE_OUTER_BOUND ( 'NONE', #25, .T. ) ;
#80 = DATE_AND_TIME ( #65, #15 ) ;
#81 = EDGE_CURVE ( 'NONE', #106, #154, #190, .T. ) ;
#82 = VECTOR ( 'NONE', #91, 1000.000000000000000 ) ;
#83 = EDGE_CURVE ( 'NONE', #186, #106, #35, .T. ) ;
#84 = APPLICATION_CONTEXT ( 'configuration controlled 3d designs of mechanical parts and assemblies' ) ;
#85 = PRODUCT_RELATED_PRODUCT_CATEGORY ( 'detail', '', ( #2 ) ) ;
#86 = LINE ( 'NONE', #135, #218 ) ;
#87 = DIRECTION ( 'NONE',  ( 0.000000000000000000, -0.000000000000000000, -1.000000000000000000 ) ) ;
#88 = ORIENTED_EDGE ( 'NONE', *, *, #117, .T. ) ;
#89 = PLANE ( 'NONE',  #199 ) ;
#90 = VECTOR ( 'NONE', #34, 1000.000000000000000 ) ;
#91 = DIRECTION ( 'NONE',  ( -0.000000000000000000, -1.000000000000000000, -0.000000000000000000 ) ) ;
#92 = DIRECTION ( 'NONE',  ( 1.000000000000000000, 0.000000000000000000, -0.000000000000000000 ) ) ;
#93 = PERSON_AND_ORGANIZATION ( #153, #64 ) ;
#94 = DIRECTION ( 'NONE',  ( 1.000000000000000000, -0.000000000000000000, 0.000000000000000000 ) ) ;
#95 = COORDINATED_UNIVERSAL_TIME_OFFSET ( 8, 0, .AHEAD. ) ;
#96 = DIRECTION ( 'NONE',  ( 0.000000000000000000, -0.000000000000000000, -1.000000000000000000 ) ) ;
#97 = LOCAL_TIME ( 19, 26, 26.00000000000000000, #59 ) ;
#98 = PERSON_AND_ORGANIZATION ( #153, #64 ) ;
#99 = EDGE_CURVE ( 'NONE', #157, #69, #173, .T. ) ;
#100 = CC_DESIGN_PERSON_AND_ORGANIZATION_ASSIGNMENT ( #22, #16, ( #102 ) ) ;
#101 = AXIS2_PLACEMENT_3D ( 'NONE', #114, #144, #92 ) ;
#102 = PRODUCT_DEFINITION_FORMATION_WITH_SPECIFIED_SOURCE ( '任何', '', #2, .NOT_KNOWN. ) ;
#103 = EDGE_CURVE ( 'NONE', #69, #208, #197, .T. ) ;
#104 = ORIENTED_EDGE ( 'NONE', *, *, #66, .T. ) ;
#105 = AXIS2_PLACEMENT_3D ( 'NONE', #147, #160, #229 ) ;
#106 = VERTEX_POINT ( 'NONE', #12 ) ;
#107 = DIRECTION ( 'NONE',  ( -0.000000000000000000, -1.000000000000000000, -0.000000000000000000 ) ) ;
#108 = VECTOR ( 'NONE', #130, 1000.000000000000000 ) ;
#109 = CARTESIAN_POINT ( 'NONE',  ( -28.00000000000000000, 3.000000000000000000, 15.50000000000000000 ) ) ;
#110 = DATE_AND_TIME ( #236, #3 ) ;
#111 = APPROVAL_PERSON_ORGANIZATION ( #217, #136, #41 ) ;
#112 = CARTESIAN_POINT ( 'NONE',  ( -28.00000000000000000, 0.000000000000000000, -15.50000000000000000 ) ) ;
#113 = CARTESIAN_POINT ( 'NONE',  ( -28.00000000000000000, 0.000000000000000000, -15.50000000000000000 ) ) ;
#114 = CARTESIAN_POINT ( 'NONE',  ( -28.00000000000000000, 3.000000000000000000, -15.50000000000000000 ) ) ;
#115 = CC_DESIGN_APPROVAL ( #182, ( #195 ) ) ;
#116 = PERSON_AND_ORGANIZATION_ROLE ( 'creator' ) ;
#117 = EDGE_CURVE ( 'NONE', #186, #24, #77, .T. ) ;
#118 = VECTOR ( 'NONE', #141, 1000.000000000000000 ) ;
#119 = APPROVAL_PERSON_ORGANIZATION ( #93, #13, #23 ) ;
#120 = ORIENTED_EDGE ( 'NONE', *, *, #103, .T. ) ;
#121 = APPROVAL_PERSON_ORGANIZATION ( #38, #182, #165 ) ;
#122 = ORIENTED_EDGE ( 'NONE', *, *, #99, .F. ) ;
#123 = CARTESIAN_POINT ( 'NONE',  ( 28.00000000000000000, 3.000000000000000000, 15.50000000000000000 ) ) ;
#124 = CARTESIAN_POINT ( 'NONE',  ( 28.00000000000000000, 3.000000000000000000, 15.50000000000000000 ) ) ;
#125 = LINE ( 'NONE', #112, #42 ) ;
#126 = DATE_TIME_ROLE ( 'classification_date' ) ;
#127 = DIRECTION ( 'NONE',  ( 0.000000000000000000, -1.000000000000000000, 0.000000000000000000 ) ) ;
#128 = SHAPE_DEFINITION_REPRESENTATION ( #26, #188 ) ;
#129 = CC_DESIGN_PERSON_AND_ORGANIZATION_ASSIGNMENT ( #98, #163, ( #102 ) ) ;
#130 = DIRECTION ( 'NONE',  ( 1.000000000000000000, 0.000000000000000000, 0.000000000000000000 ) ) ;
#131 = AXIS2_PLACEMENT_3D ( 'NONE', #28, #169, #87 ) ;
#132 = APPLICATION_PROTOCOL_DEFINITION ( 'international standard', 'config_control_design', 1994, #146 ) ;
#133 = ORIENTED_EDGE ( 'NONE', *, *, #39, .T. ) ;
#134 = CC_DESIGN_APPROVAL ( #13, ( #176 ) ) ;
#135 = CARTESIAN_POINT ( 'NONE',  ( 28.00000000000000000, 0.000000000000000000, 15.50000000000000000 ) ) ;
#136 = APPROVAL ( #149, '未指定' ) ;
#137 = ORIENTED_EDGE ( 'NONE', *, *, #39, .F. ) ;
#138 =( LENGTH_UNIT ( ) NAMED_UNIT ( * ) SI_UNIT ( .MILLI., .METRE. ) );
#139 = ORIENTED_EDGE ( 'NONE', *, *, #151, .T. ) ;
#140 = FACE_OUTER_BOUND ( 'NONE', #224, .T. ) ;
#141 = DIRECTION ( 'NONE',  ( -0.000000000000000000, -0.000000000000000000, 1.000000000000000000 ) ) ;
#142 = DIRECTION ( 'NONE',  ( 0.000000000000000000, 0.000000000000000000, -1.000000000000000000 ) ) ;
#143 = APPROVAL_STATUS ( 'not_yet_approved' ) ;
#144 = DIRECTION ( 'NONE',  ( 0.000000000000000000, 0.000000000000000000, 1.000000000000000000 ) ) ;
#145 = CALENDAR_DATE ( 2026, 26, 7 ) ;
#146 = APPLICATION_CONTEXT ( 'configuration controlled 3d designs of mechanical parts and assemblies' ) ;
#147 = CARTESIAN_POINT ( 'NONE',  ( -28.00000000000000000, 3.000000000000000000, 15.50000000000000000 ) ) ;
#148 = APPLICATION_PROTOCOL_DEFINITION ( 'international standard', 'config_control_design', 1994, #84 ) ;
#149 = APPROVAL_STATUS ( 'not_yet_approved' ) ;
#150 = VECTOR ( 'NONE', #72, 1000.000000000000000 ) ;
#151 = EDGE_CURVE ( 'NONE', #24, #154, #125, .T. ) ;
#152 = CALENDAR_DATE ( 2026, 26, 7 ) ;
#153 = PERSON ( '未指定', '未指定', '未指定', ('未指定'), ('未指定'), ('未指定') ) ;
#154 = VERTEX_POINT ( 'NONE', #113 ) ;
#155 = ORIENTED_EDGE ( 'NONE', *, *, #156, .T. ) ;
#156 = EDGE_CURVE ( 'NONE', #106, #157, #192, .T. ) ;
#157 = VERTEX_POINT ( 'NONE', #43 ) ;
#158 = DESIGN_CONTEXT ( 'detailed design', #84, 'design' ) ;
#159 = ORIENTED_EDGE ( 'NONE', *, *, #50, .T. ) ;
#160 = DIRECTION ( 'NONE',  ( 0.000000000000000000, 0.000000000000000000, -1.000000000000000000 ) ) ;
#161 = DIRECTION ( 'NONE',  ( -0.000000000000000000, -1.000000000000000000, -0.000000000000000000 ) ) ;
#162 = DIRECTION ( 'NONE',  ( 1.000000000000000000, 0.000000000000000000, 0.000000000000000000 ) ) ;
#163 = PERSON_AND_ORGANIZATION_ROLE ( 'design_supplier' ) ;
#164 = LINE ( 'NONE', #212, #150 ) ;
#165 = APPROVAL_ROLE ( '' ) ;
#166 = PLANE ( 'NONE',  #105 ) ;
#167 = PERSON_AND_ORGANIZATION ( #153, #64 ) ;
#168 = VECTOR ( 'NONE', #179, 1000.000000000000000 ) ;
#169 = DIRECTION ( 'NONE',  ( 0.000000000000000000, -1.000000000000000000, 0.000000000000000000 ) ) ;
#170 = FACE_OUTER_BOUND ( 'NONE', #51, .T. ) ;
#171 = ORIENTED_EDGE ( 'NONE', *, *, #156, .F. ) ;
#172 = ADVANCED_FACE ( 'NONE', ( #140 ), #40, .F. ) ;
#173 = LINE ( 'NONE', #232, #204 ) ;
#174 = VECTOR ( 'NONE', #107, 1000.000000000000000 ) ;
#175 = CARTESIAN_POINT ( 'NONE',  ( -28.00000000000000000, 3.000000000000000000, -15.50000000000000000 ) ) ;
#176 = PRODUCT_DEFINITION ( '未知', '', #102, #158 ) ;
#177 = CARTESIAN_POINT ( 'NONE',  ( 28.00000000000000000, 0.000000000000000000, 15.50000000000000000 ) ) ;
#178 = MECHANICAL_CONTEXT ( 'NONE', #146, 'mechanical' ) ;
#179 = DIRECTION ( 'NONE',  ( 0.000000000000000000, 0.000000000000000000, -1.000000000000000000 ) ) ;
#180 = DIRECTION ( 'NONE',  ( 0.000000000000000000, 0.000000000000000000, 1.000000000000000000 ) ) ;
#181 = ORIENTED_EDGE ( 'NONE', *, *, #151, .F. ) ;
#182 = APPROVAL ( #61, '未指定' ) ;
#183 = CLOSED_SHELL ( 'NONE', ( #207, #237, #52, #172, #211, #29 ) ) ;
#184 = EDGE_LOOP ( 'NONE', ( #49, #62, #202, #104 ) ) ;
#185 = EDGE_CURVE ( 'NONE', #205, #186, #214, .T. ) ;
#186 = VERTEX_POINT ( 'NONE', #210 ) ;
#187 = LOCAL_TIME ( 19, 26, 26.00000000000000000, #200 ) ;
#188 = ADVANCED_BREP_SHAPE_REPRESENTATION ( 'FN-HLD-002_cn3791-clip-zone_R0.4', ( #220, #32 ), #9 ) ;
#189 = EDGE_LOOP ( 'NONE', ( #133, #122, #171, #10 ) ) ;
#190 = LINE ( 'NONE', #216, #82 ) ;
#191 =( NAMED_UNIT ( * ) SI_UNIT ( $, .STERADIAN. ) SOLID_ANGLE_UNIT ( ) );
#192 = LINE ( 'NONE', #230, #118 ) ;
#193 = COORDINATED_UNIVERSAL_TIME_OFFSET ( 8, 0, .AHEAD. ) ;
#194 = DIRECTION ( 'NONE',  ( -1.000000000000000000, 0.000000000000000000, 0.000000000000000000 ) ) ;
#195 = SECURITY_CLASSIFICATION ( '', '', #231 ) ;
#196 = COORDINATED_UNIVERSAL_TIME_OFFSET ( 8, 0, .AHEAD. ) ;
#197 = LINE ( 'NONE', #56, #108 ) ;
#198 = LINE ( 'NONE', #109, #48 ) ;
#199 = AXIS2_PLACEMENT_3D ( 'NONE', #17, #127, #96 ) ;
#200 = COORDINATED_UNIVERSAL_TIME_OFFSET ( 8, 0, .AHEAD. ) ;
#201 = CARTESIAN_POINT ( 'NONE',  ( 0.000000000000000000, 0.000000000000000000, 0.000000000000000000 ) ) ;
#202 = ORIENTED_EDGE ( 'NONE', *, *, #185, .F. ) ;
#203 = ORIENTED_EDGE ( 'NONE', *, *, #31, .F. ) ;
#204 = VECTOR ( 'NONE', #19, 1000.000000000000000 ) ;
#205 = VERTEX_POINT ( 'NONE', #124 ) ;
#206 = DIRECTION ( 'NONE',  ( 0.000000000000000000, 0.000000000000000000, -1.000000000000000000 ) ) ;
#207 = ADVANCED_FACE ( 'NONE', ( #234 ), #14, .F. ) ;
#208 = VERTEX_POINT ( 'NONE', #177 ) ;
#209 = CARTESIAN_POINT ( 'NONE',  ( 28.00000000000000000, 3.000000000000000000, -15.50000000000000000 ) ) ;
#210 = CARTESIAN_POINT ( 'NONE',  ( 28.00000000000000000, 3.000000000000000000, -15.50000000000000000 ) ) ;
#211 = ADVANCED_FACE ( 'NONE', ( #58 ), #89, .F. ) ;
#212 = CARTESIAN_POINT ( 'NONE',  ( -28.00000000000000000, 0.000000000000000000, 15.50000000000000000 ) ) ;
#213 = PERSON_AND_ORGANIZATION_ROLE ( 'classification_officer' ) ;
#214 = LINE ( 'NONE', #11, #168 ) ;
#215 = APPROVAL_DATE_TIME ( #78, #182 ) ;
#216 = CARTESIAN_POINT ( 'NONE',  ( -28.00000000000000000, 3.000000000000000000, -15.50000000000000000 ) ) ;
#217 = PERSON_AND_ORGANIZATION ( #153, #64 ) ;
#218 = VECTOR ( 'NONE', #206, 1000.000000000000000 ) ;
#219 = APPROVAL_DATE_TIME ( #110, #136 ) ;
#220 = MANIFOLD_SOLID_BREP ( '凸台-拉伸1', #183 ) ;
#221 = DATE_AND_TIME ( #152, #235 ) ;
#222 = CC_DESIGN_PERSON_AND_ORGANIZATION_ASSIGNMENT ( #45, #63, ( #2 ) ) ;
#223 = CC_DESIGN_DATE_AND_TIME_ASSIGNMENT ( #80, #1, ( #176 ) ) ;
#224 = EDGE_LOOP ( 'NONE', ( #139, #44, #53, #88 ) ) ;
#225 = CC_DESIGN_PERSON_AND_ORGANIZATION_ASSIGNMENT ( #76, #213, ( #195 ) ) ;
#226 = ORIENTED_EDGE ( 'NONE', *, *, #50, .F. ) ;
#227 = CARTESIAN_POINT ( 'NONE',  ( 28.00000000000000000, 3.000000000000000000, 15.50000000000000000 ) ) ;
#228 = DIRECTION ( 'NONE',  ( -1.000000000000000000, -0.000000000000000000, -0.000000000000000000 ) ) ;
#229 = DIRECTION ( 'NONE',  ( -1.000000000000000000, 0.000000000000000000, -0.000000000000000000 ) ) ;
#230 = CARTESIAN_POINT ( 'NONE',  ( -28.00000000000000000, 3.000000000000000000, 15.50000000000000000 ) ) ;
#231 = SECURITY_CLASSIFICATION_LEVEL ( 'unclassified' ) ;
#232 = CARTESIAN_POINT ( 'NONE',  ( -28.00000000000000000, 3.000000000000000000, 15.50000000000000000 ) ) ;
#233 = CALENDAR_DATE ( 2026, 26, 7 ) ;
#234 = FACE_OUTER_BOUND ( 'NONE', #189, .T. ) ;
#235 = LOCAL_TIME ( 19, 26, 26.00000000000000000, #196 ) ;
#236 = CALENDAR_DATE ( 2026, 26, 7 ) ;
#237 = ADVANCED_FACE ( 'NONE', ( #79 ), #166, .F. ) ;
ENDSEC;
END-ISO-10303-21;
