ISO-10303-21;
HEADER;
FILE_DESCRIPTION (( 'STEP AP203' ),
    '1' );
FILE_NAME ('FN-HAR-006_soil-rs485-entry-route_R0.4.STEP',
    '2026-07-26T11:27:47',
    ( '' ),
    ( '' ),
    'SwSTEP 2.0',
    'SolidWorks 2022',
    '' );
FILE_SCHEMA (( 'CONFIG_CONTROL_DESIGN' ));
ENDSEC;

DATA;
#1 = LINE ( 'NONE', #163, #17 ) ;
#2 = ORIENTED_EDGE ( 'NONE', *, *, #118, .F. ) ;
#3 = PERSON_AND_ORGANIZATION_ROLE ( 'design_supplier' ) ;
#4 = CC_DESIGN_PERSON_AND_ORGANIZATION_ASSIGNMENT ( #216, #6, ( #112 ) ) ;
#5 = ORIENTED_EDGE ( 'NONE', *, *, #281, .T. ) ;
#6 = PERSON_AND_ORGANIZATION_ROLE ( 'creator' ) ;
#7 = ORIENTED_EDGE ( 'NONE', *, *, #136, .F. ) ;
#8 = CARTESIAN_POINT ( 'NONE',  ( 5.750000000000000000, 2.500000000000000000, 72.50000000000000000 ) ) ;
#9 = ORIENTED_EDGE ( 'NONE', *, *, #129, .T. ) ;
#10 = CARTESIAN_POINT ( 'NONE',  ( 5.750000000000000000, 2.500000000000000000, 72.50000000000000000 ) ) ;
#11 = EDGE_CURVE ( 'NONE', #143, #126, #77, .T. ) ;
#12 = VECTOR ( 'NONE', #298, 1000.000000000000000 ) ;
#13 = CARTESIAN_POINT ( 'NONE',  ( -9.750000000000000000, 2.500000000000000000, -72.50000000000000000 ) ) ;
#14 = APPLICATION_CONTEXT ( 'configuration controlled 3d designs of mechanical parts and assemblies' ) ;
#15 = CARTESIAN_POINT ( 'NONE',  ( 5.750000000000000000, 2.500000000000000000, -68.50000000000001421 ) ) ;
#16 = FACE_OUTER_BOUND ( 'NONE', #80, .T. ) ;
#17 = VECTOR ( 'NONE', #46, 1000.000000000000000 ) ;
#18 = LINE ( 'NONE', #15, #279 ) ;
#19 = DIRECTION ( 'NONE',  ( 0.000000000000000000, 0.000000000000000000, -1.000000000000000000 ) ) ;
#20 =( LENGTH_UNIT ( ) NAMED_UNIT ( * ) SI_UNIT ( .MILLI., .METRE. ) );
#21 = APPROVAL_PERSON_ORGANIZATION ( #120, #75, #104 ) ;
#22 = EDGE_CURVE ( 'NONE', #257, #29, #151, .T. ) ;
#23 = CARTESIAN_POINT ( 'NONE',  ( 5.750000000000000000, 2.500000000000000000, -68.50000000000001421 ) ) ;
#24 = COORDINATED_UNIVERSAL_TIME_OFFSET ( 8, 0, .AHEAD. ) ;
#25 = PRODUCT_RELATED_PRODUCT_CATEGORY ( 'detail', '', ( #210 ) ) ;
#26 = LINE ( 'NONE', #234, #303 ) ;
#27 = AXIS2_PLACEMENT_3D ( 'NONE', #107, #204, #229 ) ;
#28 = VECTOR ( 'NONE', #135, 1000.000000000000000 ) ;
#29 = VERTEX_POINT ( 'NONE', #8 ) ;
#30 = CC_DESIGN_PERSON_AND_ORGANIZATION_ASSIGNMENT ( #138, #162, ( #210 ) ) ;
#31 = EDGE_LOOP ( 'NONE', ( #291, #99, #215, #152, #264, #150 ) ) ;
#32 = PERSON_AND_ORGANIZATION ( #103, #91 ) ;
#33 = LINE ( 'NONE', #106, #28 ) ;
#34 = ORIENTED_EDGE ( 'NONE', *, *, #52, .F. ) ;
#35 = APPROVAL_STATUS ( 'not_yet_approved' ) ;
#36 = DIRECTION ( 'NONE',  ( -1.000000000000000000, -0.000000000000000000, -0.000000000000000000 ) ) ;
#37 = EDGE_LOOP ( 'NONE', ( #5, #121, #34, #101 ) ) ;
#38 = PLANE ( 'NONE',  #202 ) ;
#39 = DESIGN_CONTEXT ( 'detailed design', #14, 'design' ) ;
#40 = CARTESIAN_POINT ( 'NONE',  ( -9.750000000000000000, 2.500000000000000000, -72.50000000000000000 ) ) ;
#41 = CARTESIAN_POINT ( 'NONE',  ( 9.750000000000000000, 2.500000000000000000, 72.50000000000000000 ) ) ;
#42 = CARTESIAN_POINT ( 'NONE',  ( 9.750000000000000000, 0.000000000000000000, 72.50000000000000000 ) ) ;
#43 = AXIS2_PLACEMENT_3D ( 'NONE', #10, #145, #170 ) ;
#44 = FACE_OUTER_BOUND ( 'NONE', #243, .T. ) ;
#45 = ADVANCED_FACE ( 'NONE', ( #193 ), #242, .F. ) ;
#46 = DIRECTION ( 'NONE',  ( -1.000000000000000000, -0.000000000000000000, -0.000000000000000000 ) ) ;
#47 = DIRECTION ( 'NONE',  ( -0.000000000000000000, -1.000000000000000000, -0.000000000000000000 ) ) ;
#48 = PRODUCT_DEFINITION ( '未知', '', #112, #39 ) ;
#49 = CALENDAR_DATE ( 2026, 26, 7 ) ;
#50 = DIRECTION ( 'NONE',  ( 0.000000000000000000, 0.000000000000000000, -1.000000000000000000 ) ) ;
#51 = MECHANICAL_CONTEXT ( 'NONE', #300, 'mechanical' ) ;
#52 = EDGE_CURVE ( 'NONE', #221, #220, #238, .T. ) ;
#53 = VECTOR ( 'NONE', #130, 1000.000000000000000 ) ;
#54 = VERTEX_POINT ( 'NONE', #258 ) ;
#55 = DIRECTION ( 'NONE',  ( -0.000000000000000000, -1.000000000000000000, -0.000000000000000000 ) ) ;
#56 = ORIENTED_EDGE ( 'NONE', *, *, #68, .T. ) ;
#57 = SECURITY_CLASSIFICATION_LEVEL ( 'unclassified' ) ;
#58 = CARTESIAN_POINT ( 'NONE',  ( 5.750000000000000000, 2.500000000000000000, 72.50000000000000000 ) ) ;
#59 = EDGE_LOOP ( 'NONE', ( #217, #119, #7, #9 ) ) ;
#60 = CALENDAR_DATE ( 2026, 26, 7 ) ;
#61 = DIRECTION ( 'NONE',  ( 0.000000000000000000, 0.000000000000000000, -1.000000000000000000 ) ) ;
#62 = EDGE_CURVE ( 'NONE', #29, #143, #201, .T. ) ;
#63 = DIRECTION ( 'NONE',  ( 0.000000000000000000, 1.000000000000000000, 0.000000000000000000 ) ) ;
#64 = CARTESIAN_POINT ( 'NONE',  ( -9.750000000000000000, 2.500000000000000000, -68.50000000000000000 ) ) ;
#65 = DIRECTION ( 'NONE',  ( -1.000000000000000000, 0.000000000000000000, 0.000000000000000000 ) ) ;
#66 = AXIS2_PLACEMENT_3D ( 'NONE', #271, #83, #19 ) ;
#67 = VECTOR ( 'NONE', #157, 1000.000000000000000 ) ;
#68 = EDGE_CURVE ( 'NONE', #220, #265, #223, .T. ) ;
#69 = DATE_AND_TIME ( #277, #214 ) ;
#70 = CARTESIAN_POINT ( 'NONE',  ( -9.750000000000000000, 0.000000000000000000, -72.50000000000000000 ) ) ;
#71 = APPROVAL_DATE_TIME ( #263, #169 ) ;
#72 = VERTEX_POINT ( 'NONE', #147 ) ;
#73 = DATE_TIME_ROLE ( 'classification_date' ) ;
#74 = CARTESIAN_POINT ( 'NONE',  ( 9.750000000000000000, 2.500000000000000000, 72.50000000000000000 ) ) ;
#75 = APPROVAL ( #35, '未指定' ) ;
#76 = COORDINATED_UNIVERSAL_TIME_OFFSET ( 8, 0, .AHEAD. ) ;
#77 = LINE ( 'NONE', #74, #274 ) ;
#78 = ORIENTED_EDGE ( 'NONE', *, *, #146, .F. ) ;
#79 = VECTOR ( 'NONE', #267, 1000.000000000000000 ) ;
#80 = EDGE_LOOP ( 'NONE', ( #261, #140, #290, #56 ) ) ;
#81 = DIRECTION ( 'NONE',  ( -0.000000000000000000, -1.000000000000000000, -0.000000000000000000 ) ) ;
#82 = EDGE_CURVE ( 'NONE', #265, #72, #33, .T. ) ;
#83 = DIRECTION ( 'NONE',  ( 1.000000000000000000, -0.000000000000000000, 0.000000000000000000 ) ) ;
#84 = CC_DESIGN_APPROVAL ( #169, ( #112 ) ) ;
#85 = CC_DESIGN_SECURITY_CLASSIFICATION ( #122, ( #112 ) ) ;
#86 = DIRECTION ( 'NONE',  ( 0.000000000000000000, 0.000000000000000000, -1.000000000000000000 ) ) ;
#87 = PLANE ( 'NONE',  #27 ) ;
#88 = DIRECTION ( 'NONE',  ( 0.000000000000000000, 0.000000000000000000, 1.000000000000000000 ) ) ;
#89 = VECTOR ( 'NONE', #81, 1000.000000000000000 ) ;
#90 = DIRECTION ( 'NONE',  ( 1.000000000000000000, 0.000000000000000000, 0.000000000000000000 ) ) ;
#91 = ORGANIZATION ( '未指定', '未指定', '' ) ;
#92 = PERSON_AND_ORGANIZATION_ROLE ( 'classification_officer' ) ;
#93 = UNCERTAINTY_MEASURE_WITH_UNIT (LENGTH_MEASURE( 1.000000000000000082E-05 ), #20, 'distance_accuracy_value', 'NONE');
#94 = APPROVAL_PERSON_ORGANIZATION ( #302, #169, #144 ) ;
#95 = ORIENTED_EDGE ( 'NONE', *, *, #123, .T. ) ;
#96 = COORDINATED_UNIVERSAL_TIME_OFFSET ( 8, 0, .AHEAD. ) ;
#97 = CARTESIAN_POINT ( 'NONE',  ( 5.750000000000000000, 2.500000000000000000, -72.50000000000000000 ) ) ;
#98 = SHAPE_DEFINITION_REPRESENTATION ( #233, #115 ) ;
#99 = ORIENTED_EDGE ( 'NONE', *, *, #299, .F. ) ;
#100 = ADVANCED_FACE ( 'NONE', ( #156 ), #38, .T. ) ;
#101 = ORIENTED_EDGE ( 'NONE', *, *, #146, .T. ) ;
#102 = ORIENTED_EDGE ( 'NONE', *, *, #52, .T. ) ;
#103 = PERSON ( '未指定', '未指定', '未指定', ('未指定'), ('未指定'), ('未指定') ) ;
#104 = APPROVAL_ROLE ( '' ) ;
#105 = AXIS2_PLACEMENT_3D ( 'NONE', #206, #295, #86 ) ;
#106 = CARTESIAN_POINT ( 'NONE',  ( -9.750000000000000000, 0.000000000000000000, -68.50000000000000000 ) ) ;
#107 = CARTESIAN_POINT ( 'NONE',  ( 0.000000000000000000, 2.500000000000000000, 0.000000000000000000 ) ) ;
#108 = PLANE ( 'NONE',  #105 ) ;
#109 = DIRECTION ( 'NONE',  ( 1.000000000000000000, 0.000000000000000000, 0.000000000000000000 ) ) ;
#110 = FACE_OUTER_BOUND ( 'NONE', #198, .T. ) ;
#111 = FACE_OUTER_BOUND ( 'NONE', #37, .T. ) ;
#112 = PRODUCT_DEFINITION_FORMATION_WITH_SPECIFIED_SOURCE ( '任何', '', #210, .NOT_KNOWN. ) ;
#113 = CARTESIAN_POINT ( 'NONE',  ( 0.000000000000000000, 0.000000000000000000, 0.000000000000000000 ) ) ;
#114 = DATE_AND_TIME ( #49, #240 ) ;
#115 = ADVANCED_BREP_SHAPE_REPRESENTATION ( 'FN-HAR-006_soil-rs485-entry-route_R0.4', ( #161, #249 ), #116 ) ;
#116 =( GEOMETRIC_REPRESENTATION_CONTEXT ( 3 ) GLOBAL_UNCERTAINTY_ASSIGNED_CONTEXT ( ( #93 ) ) GLOBAL_UNIT_ASSIGNED_CONTEXT ( ( #20, #139, #235 ) ) REPRESENTATION_CONTEXT ( 'NONE', 'WORKASPACE' ) );
#117 = CARTESIAN_POINT ( 'NONE',  ( -9.750000000000000000, 0.000000000000000000, -68.50000000000000000 ) ) ;
#118 = EDGE_CURVE ( 'NONE', #143, #221, #292, .T. ) ;
#119 = ORIENTED_EDGE ( 'NONE', *, *, #185, .T. ) ;
#120 = PERSON_AND_ORGANIZATION ( #103, #91 ) ;
#121 = ORIENTED_EDGE ( 'NONE', *, *, #68, .F. ) ;
#122 = SECURITY_CLASSIFICATION ( '', '', #57 ) ;
#123 = EDGE_CURVE ( 'NONE', #218, #126, #131, .T. ) ;
#124 = VERTEX_POINT ( 'NONE', #64 ) ;
#125 = ORIENTED_EDGE ( 'NONE', *, *, #118, .T. ) ;
#126 = VERTEX_POINT ( 'NONE', #42 ) ;
#127 = DIRECTION ( 'NONE',  ( -0.000000000000000000, -1.000000000000000000, -0.000000000000000000 ) ) ;
#128 = CLOSED_SHELL ( 'NONE', ( #205, #45, #177, #244, #189, #100, #153, #237 ) ) ;
#129 = EDGE_CURVE ( 'NONE', #124, #72, #228, .T. ) ;
#130 = DIRECTION ( 'NONE',  ( -0.000000000000000000, -1.000000000000000000, -0.000000000000000000 ) ) ;
#131 = LINE ( 'NONE', #158, #67 ) ;
#132 = PLANE ( 'NONE',  #159 ) ;
#133 = CC_DESIGN_DATE_AND_TIME_ASSIGNMENT ( #283, #73, ( #122 ) ) ;
#134 = APPROVAL_PERSON_ORGANIZATION ( #211, #181, #190 ) ;
#135 = DIRECTION ( 'NONE',  ( -0.000000000000000000, -0.000000000000000000, 1.000000000000000000 ) ) ;
#136 = EDGE_CURVE ( 'NONE', #124, #257, #227, .T. ) ;
#137 = LINE ( 'NONE', #117, #173 ) ;
#138 = PERSON_AND_ORGANIZATION ( #103, #91 ) ;
#139 =( NAMED_UNIT ( * ) PLANE_ANGLE_UNIT ( ) SI_UNIT ( $, .RADIAN. ) );
#140 = ORIENTED_EDGE ( 'NONE', *, *, #129, .F. ) ;
#141 = LINE ( 'NONE', #255, #188 ) ;
#142 = VECTOR ( 'NONE', #36, 1000.000000000000000 ) ;
#143 = VERTEX_POINT ( 'NONE', #208 ) ;
#144 = APPROVAL_ROLE ( '' ) ;
#145 = DIRECTION ( 'NONE',  ( 0.000000000000000000, 0.000000000000000000, -1.000000000000000000 ) ) ;
#146 = EDGE_CURVE ( 'NONE', #221, #54, #230, .T. ) ;
#147 = CARTESIAN_POINT ( 'NONE',  ( -9.750000000000000000, 0.000000000000000000, -68.50000000000000000 ) ) ;
#148 = COORDINATED_UNIVERSAL_TIME_OFFSET ( 8, 0, .AHEAD. ) ;
#149 = AXIS2_PLACEMENT_3D ( 'NONE', #252, #184, #166 ) ;
#150 = ORIENTED_EDGE ( 'NONE', *, *, #82, .F. ) ;
#151 = LINE ( 'NONE', #58, #175 ) ;
#152 = ORIENTED_EDGE ( 'NONE', *, *, #287, .F. ) ;
#153 = ADVANCED_FACE ( 'NONE', ( #226 ), #132, .F. ) ;
#154 = LOCAL_TIME ( 19, 27, 47.00000000000000000, #96 ) ;
#155 = CARTESIAN_POINT ( 'NONE',  ( -9.750000000000000000, 2.500000000000000000, -68.50000000000000000 ) ) ;
#156 = FACE_OUTER_BOUND ( 'NONE', #31, .T. ) ;
#157 = DIRECTION ( 'NONE',  ( 1.000000000000000000, 0.000000000000000000, 0.000000000000000000 ) ) ;
#158 = CARTESIAN_POINT ( 'NONE',  ( 5.750000000000000000, 0.000000000000000000, 72.50000000000000000 ) ) ;
#159 = AXIS2_PLACEMENT_3D ( 'NONE', #270, #61, #247 ) ;
#160 = CARTESIAN_POINT ( 'NONE',  ( 9.750000000000000000, 2.500000000000000000, -72.50000000000000000 ) ) ;
#161 = MANIFOLD_SOLID_BREP ( '凸台-拉伸2', #128 ) ;
#162 = PERSON_AND_ORGANIZATION_ROLE ( 'design_owner' ) ;
#163 = CARTESIAN_POINT ( 'NONE',  ( 5.750000000000000000, 0.000000000000000000, -72.50000000000000000 ) ) ;
#164 = DIRECTION ( 'NONE',  ( 0.000000000000000000, 0.000000000000000000, 1.000000000000000000 ) ) ;
#165 = DIRECTION ( 'NONE',  ( -0.000000000000000000, -0.000000000000000000, 1.000000000000000000 ) ) ;
#166 = DIRECTION ( 'NONE',  ( 1.000000000000000000, 0.000000000000000000, -0.000000000000000000 ) ) ;
#167 = CALENDAR_DATE ( 2026, 26, 7 ) ;
#168 = VERTEX_POINT ( 'NONE', #207 ) ;
#169 = APPROVAL ( #280, '未指定' ) ;
#170 = DIRECTION ( 'NONE',  ( -1.000000000000000000, 0.000000000000000000, -0.000000000000000000 ) ) ;
#171 = DATE_AND_TIME ( #167, #294 ) ;
#172 = EDGE_LOOP ( 'NONE', ( #102, #195, #288, #197, #286, #125 ) ) ;
#173 = VECTOR ( 'NONE', #275, 1000.000000000000000 ) ;
#174 = ORIENTED_EDGE ( 'NONE', *, *, #11, .F. ) ;
#175 = VECTOR ( 'NONE', #222, 1000.000000000000000 ) ;
#176 = ORIENTED_EDGE ( 'NONE', *, *, #185, .F. ) ;
#177 = ADVANCED_FACE ( 'NONE', ( #110 ), #297, .F. ) ;
#178 = CARTESIAN_POINT ( 'NONE',  ( 5.750000000000000000, 2.500000000000000000, 72.50000000000000000 ) ) ;
#179 = FACE_OUTER_BOUND ( 'NONE', #172, .T. ) ;
#180 = LINE ( 'NONE', #183, #200 ) ;
#181 = APPROVAL ( #253, '未指定' ) ;
#182 = CARTESIAN_POINT ( 'NONE',  ( -9.750000000000000000, 2.500000000000000000, -68.50000000000000000 ) ) ;
#183 = CARTESIAN_POINT ( 'NONE',  ( -9.750000000000000000, 2.500000000000000000, -68.50000000000000000 ) ) ;
#184 = DIRECTION ( 'NONE',  ( 0.000000000000000000, 0.000000000000000000, 1.000000000000000000 ) ) ;
#185 = EDGE_CURVE ( 'NONE', #168, #257, #18, .T. ) ;
#186 = COORDINATED_UNIVERSAL_TIME_OFFSET ( 8, 0, .AHEAD. ) ;
#187 = APPROVAL_DATE_TIME ( #69, #181 ) ;
#188 = VECTOR ( 'NONE', #165, 1000.000000000000000 ) ;
#189 = ADVANCED_FACE ( 'NONE', ( #179 ), #87, .F. ) ;
#190 = APPROVAL_ROLE ( '' ) ;
#191 = ORIENTED_EDGE ( 'NONE', *, *, #22, .F. ) ;
#192 = CALENDAR_DATE ( 2026, 26, 7 ) ;
#193 = FACE_OUTER_BOUND ( 'NONE', #285, .T. ) ;
#194 = ORIENTED_EDGE ( 'NONE', *, *, #299, .T. ) ;
#195 = ORIENTED_EDGE ( 'NONE', *, *, #209, .T. ) ;
#196 = APPROVAL_DATE_TIME ( #171, #75 ) ;
#197 = ORIENTED_EDGE ( 'NONE', *, *, #22, .T. ) ;
#198 = EDGE_LOOP ( 'NONE', ( #78, #2, #199, #194 ) ) ;
#199 = ORIENTED_EDGE ( 'NONE', *, *, #11, .T. ) ;
#200 = VECTOR ( 'NONE', #246, 1000.000000000000000 ) ;
#201 = LINE ( 'NONE', #178, #79 ) ;
#202 = AXIS2_PLACEMENT_3D ( 'NONE', #268, #251, #245 ) ;
#203 = CARTESIAN_POINT ( 'NONE',  ( 9.750000000000000000, 2.500000000000000000, -72.50000000000000000 ) ) ;
#204 = DIRECTION ( 'NONE',  ( 0.000000000000000000, -1.000000000000000000, 0.000000000000000000 ) ) ;
#205 = ADVANCED_FACE ( 'NONE', ( #44 ), #293, .F. ) ;
#206 = CARTESIAN_POINT ( 'NONE',  ( -9.750000000000000000, 2.500000000000000000, -68.50000000000000000 ) ) ;
#207 = CARTESIAN_POINT ( 'NONE',  ( 5.750000000000000000, 0.000000000000000000, -68.50000000000000000 ) ) ;
#208 = CARTESIAN_POINT ( 'NONE',  ( 9.750000000000000000, 2.500000000000000000, 72.50000000000000000 ) ) ;
#209 = EDGE_CURVE ( 'NONE', #220, #124, #180, .T. ) ;
#210 = PRODUCT ( 'FN-HAR-006_soil-rs485-entry-route_R0.4', 'FN-HAR-006_soil-rs485-entry-route_R0.4', '', ( #51 ) ) ;
#211 = PERSON_AND_ORGANIZATION ( #103, #91 ) ;
#212 = CC_DESIGN_PERSON_AND_ORGANIZATION_ASSIGNMENT ( #32, #92, ( #122 ) ) ;
#213 = DATE_TIME_ROLE ( 'creation_date' ) ;
#214 = LOCAL_TIME ( 19, 27, 47.00000000000000000, #186 ) ;
#215 = ORIENTED_EDGE ( 'NONE', *, *, #123, .F. ) ;
#216 = PERSON_AND_ORGANIZATION ( #103, #91 ) ;
#217 = ORIENTED_EDGE ( 'NONE', *, *, #276, .T. ) ;
#218 = VERTEX_POINT ( 'NONE', #272 ) ;
#219 = CC_DESIGN_APPROVAL ( #75, ( #122 ) ) ;
#220 = VERTEX_POINT ( 'NONE', #40 ) ;
#221 = VERTEX_POINT ( 'NONE', #160 ) ;
#222 = DIRECTION ( 'NONE',  ( -0.000000000000000000, -0.000000000000000000, 1.000000000000000000 ) ) ;
#223 = LINE ( 'NONE', #13, #250 ) ;
#224 = VECTOR ( 'NONE', #109, 1000.000000000000000 ) ;
#225 = CC_DESIGN_DATE_AND_TIME_ASSIGNMENT ( #114, #213, ( #48 ) ) ;
#226 = FACE_OUTER_BOUND ( 'NONE', #59, .T. ) ;
#227 = LINE ( 'NONE', #182, #224 ) ;
#228 = LINE ( 'NONE', #155, #53 ) ;
#229 = DIRECTION ( 'NONE',  ( 0.000000000000000000, -0.000000000000000000, -1.000000000000000000 ) ) ;
#230 = LINE ( 'NONE', #203, #89 ) ;
#231 = APPLICATION_PROTOCOL_DEFINITION ( 'international standard', 'config_control_design', 1994, #14 ) ;
#232 = LINE ( 'NONE', #282, #262 ) ;
#233 = PRODUCT_DEFINITION_SHAPE ( 'NONE', 'NONE',  #48 ) ;
#234 = CARTESIAN_POINT ( 'NONE',  ( 5.750000000000000000, 2.500000000000000000, 72.50000000000000000 ) ) ;
#235 =( NAMED_UNIT ( * ) SI_UNIT ( $, .STERADIAN. ) SOLID_ANGLE_UNIT ( ) );
#236 = ORIENTED_EDGE ( 'NONE', *, *, #62, .F. ) ;
#237 = ADVANCED_FACE ( 'NONE', ( #16 ), #108, .F. ) ;
#238 = LINE ( 'NONE', #97, #142 ) ;
#239 = EDGE_CURVE ( 'NONE', #29, #218, #26, .T. ) ;
#240 = LOCAL_TIME ( 19, 27, 47.00000000000000000, #24 ) ;
#241 = ORIENTED_EDGE ( 'NONE', *, *, #287, .T. ) ;
#242 = PLANE ( 'NONE',  #43 ) ;
#243 = EDGE_LOOP ( 'NONE', ( #176, #241, #260, #191 ) ) ;
#244 = ADVANCED_FACE ( 'NONE', ( #111 ), #301, .F. ) ;
#245 = DIRECTION ( 'NONE',  ( 0.000000000000000000, -0.000000000000000000, -1.000000000000000000 ) ) ;
#246 = DIRECTION ( 'NONE',  ( -0.000000000000000000, -0.000000000000000000, 1.000000000000000000 ) ) ;
#247 = DIRECTION ( 'NONE',  ( -1.000000000000000000, 0.000000000000000000, -0.000000000000000000 ) ) ;
#248 = CARTESIAN_POINT ( 'NONE',  ( 9.750000000000000000, 2.500000000000000000, 72.50000000000000000 ) ) ;
#249 = AXIS2_PLACEMENT_3D ( 'NONE', #113, #164, #90 ) ;
#250 = VECTOR ( 'NONE', #55, 1000.000000000000000 ) ;
#251 = DIRECTION ( 'NONE',  ( 0.000000000000000000, -1.000000000000000000, 0.000000000000000000 ) ) ;
#252 = CARTESIAN_POINT ( 'NONE',  ( 5.750000000000000000, 2.500000000000000000, -72.50000000000000000 ) ) ;
#253 = APPROVAL_STATUS ( 'not_yet_approved' ) ;
#254 = PERSON_AND_ORGANIZATION_ROLE ( 'creator' ) ;
#255 = CARTESIAN_POINT ( 'NONE',  ( 5.750000000000000000, 0.000000000000000000, 72.50000000000000000 ) ) ;
#256 = APPLICATION_PROTOCOL_DEFINITION ( 'international standard', 'config_control_design', 1994, #300 ) ;
#257 = VERTEX_POINT ( 'NONE', #23 ) ;
#258 = CARTESIAN_POINT ( 'NONE',  ( 9.750000000000000000, 0.000000000000000000, -72.50000000000000000 ) ) ;
#259 = CC_DESIGN_PERSON_AND_ORGANIZATION_ASSIGNMENT ( #278, #254, ( #48 ) ) ;
#260 = ORIENTED_EDGE ( 'NONE', *, *, #239, .F. ) ;
#261 = ORIENTED_EDGE ( 'NONE', *, *, #82, .T. ) ;
#262 = VECTOR ( 'NONE', #50, 1000.000000000000000 ) ;
#263 = DATE_AND_TIME ( #60, #269 ) ;
#264 = ORIENTED_EDGE ( 'NONE', *, *, #276, .F. ) ;
#265 = VERTEX_POINT ( 'NONE', #70 ) ;
#266 = PERSON_AND_ORGANIZATION ( #103, #91 ) ;
#267 = DIRECTION ( 'NONE',  ( 1.000000000000000000, 0.000000000000000000, 0.000000000000000000 ) ) ;
#268 = CARTESIAN_POINT ( 'NONE',  ( 0.000000000000000000, 0.000000000000000000, 0.000000000000000000 ) ) ;
#269 = LOCAL_TIME ( 19, 27, 47.00000000000000000, #148 ) ;
#270 = CARTESIAN_POINT ( 'NONE',  ( -9.750000000000000000, 2.500000000000000000, -68.50000000000000000 ) ) ;
#271 = CARTESIAN_POINT ( 'NONE',  ( 5.750000000000000000, 2.500000000000000000, 72.50000000000000000 ) ) ;
#272 = CARTESIAN_POINT ( 'NONE',  ( 5.750000000000000000, 0.000000000000000000, 72.50000000000000000 ) ) ;
#273 = AXIS2_PLACEMENT_3D ( 'NONE', #41, #65, #88 ) ;
#274 = VECTOR ( 'NONE', #127, 1000.000000000000000 ) ;
#275 = DIRECTION ( 'NONE',  ( 1.000000000000000000, 0.000000000000000000, 0.000000000000000000 ) ) ;
#276 = EDGE_CURVE ( 'NONE', #72, #168, #137, .T. ) ;
#277 = CALENDAR_DATE ( 2026, 26, 7 ) ;
#278 = PERSON_AND_ORGANIZATION ( #103, #91 ) ;
#279 = VECTOR ( 'NONE', #63, 1000.000000000000000 ) ;
#280 = APPROVAL_STATUS ( 'not_yet_approved' ) ;
#281 = EDGE_CURVE ( 'NONE', #54, #265, #1, .T. ) ;
#282 = CARTESIAN_POINT ( 'NONE',  ( 9.750000000000000000, 0.000000000000000000, 72.50000000000000000 ) ) ;
#283 = DATE_AND_TIME ( #192, #154 ) ;
#284 = CC_DESIGN_APPROVAL ( #181, ( #48 ) ) ;
#285 = EDGE_LOOP ( 'NONE', ( #95, #174, #236, #289 ) ) ;
#286 = ORIENTED_EDGE ( 'NONE', *, *, #62, .T. ) ;
#287 = EDGE_CURVE ( 'NONE', #168, #218, #141, .T. ) ;
#288 = ORIENTED_EDGE ( 'NONE', *, *, #136, .T. ) ;
#289 = ORIENTED_EDGE ( 'NONE', *, *, #239, .T. ) ;
#290 = ORIENTED_EDGE ( 'NONE', *, *, #209, .F. ) ;
#291 = ORIENTED_EDGE ( 'NONE', *, *, #281, .F. ) ;
#292 = LINE ( 'NONE', #248, #12 ) ;
#293 = PLANE ( 'NONE',  #66 ) ;
#294 = LOCAL_TIME ( 19, 27, 47.00000000000000000, #76 ) ;
#295 = DIRECTION ( 'NONE',  ( 1.000000000000000000, -0.000000000000000000, 0.000000000000000000 ) ) ;
#296 = CC_DESIGN_PERSON_AND_ORGANIZATION_ASSIGNMENT ( #266, #3, ( #112 ) ) ;
#297 = PLANE ( 'NONE',  #273 ) ;
#298 = DIRECTION ( 'NONE',  ( 0.000000000000000000, 0.000000000000000000, -1.000000000000000000 ) ) ;
#299 = EDGE_CURVE ( 'NONE', #126, #54, #232, .T. ) ;
#300 = APPLICATION_CONTEXT ( 'configuration controlled 3d designs of mechanical parts and assemblies' ) ;
#301 = PLANE ( 'NONE',  #149 ) ;
#302 = PERSON_AND_ORGANIZATION ( #103, #91 ) ;
#303 = VECTOR ( 'NONE', #47, 1000.000000000000000 ) ;
ENDSEC;
END-ISO-10303-21;
