ISO-10303-21;
HEADER;
FILE_DESCRIPTION (( 'STEP AP203' ),
    '1' );
FILE_NAME ('FN-HAR-004_fuse-to-dc5521_R0.4.STEP',
    '2026-07-26T11:27:23',
    ( '' ),
    ( '' ),
    'SwSTEP 2.0',
    'SolidWorks 2022',
    '' );
FILE_SCHEMA (( 'CONFIG_CONTROL_DESIGN' ));
ENDSEC;

DATA;
#1 = EDGE_CURVE ( 'NONE', #282, #98, #2, .T. ) ;
#2 = LINE ( 'NONE', #249, #297 ) ;
#3 = CARTESIAN_POINT ( 'NONE',  ( 0.000000000000000000, 0.000000000000000000, -12.00000000000000000 ) ) ;
#4 = ADVANCED_FACE ( 'NONE', ( #224 ), #79, .T. ) ;
#5 = CARTESIAN_POINT ( 'NONE',  ( -14.25000000000000000, 2.500000000000000000, 8.000000000000000000 ) ) ;
#6 = CARTESIAN_POINT ( 'NONE',  ( -14.25000000000000000, 2.500000000000000000, 8.000000000000000000 ) ) ;
#7 = DIRECTION ( 'NONE',  ( 0.000000000000000000, 0.000000000000000000, 1.000000000000000000 ) ) ;
#8 = COORDINATED_UNIVERSAL_TIME_OFFSET ( 8, 0, .AHEAD. ) ;
#9 = ORIENTED_EDGE ( 'NONE', *, *, #104, .F. ) ;
#10 = CALENDAR_DATE ( 2026, 26, 7 ) ;
#11 = DIRECTION ( 'NONE',  ( 1.000000000000000000, 0.000000000000000000, 0.000000000000000000 ) ) ;
#12 = SECURITY_CLASSIFICATION_LEVEL ( 'unclassified' ) ;
#13 = PLANE ( 'NONE',  #230 ) ;
#14 = VECTOR ( 'NONE', #140, 1000.000000000000000 ) ;
#15 = DIRECTION ( 'NONE',  ( -1.000000000000000000, 0.000000000000000000, 0.000000000000000000 ) ) ;
#16 = LINE ( 'NONE', #239, #209 ) ;
#17 = AXIS2_PLACEMENT_3D ( 'NONE', #128, #27, #248 ) ;
#18 = ORIENTED_EDGE ( 'NONE', *, *, #344, .F. ) ;
#19 = ORIENTED_EDGE ( 'NONE', *, *, #221, .T. ) ;
#20 = EDGE_CURVE ( 'NONE', #276, #245, #284, .T. ) ;
#21 = ORIENTED_EDGE ( 'NONE', *, *, #1, .T. ) ;
#22 = ADVANCED_FACE ( 'NONE', ( #61 ), #35, .F. ) ;
#23 = EDGE_LOOP ( 'NONE', ( #279, #115, #332, #129, #136, #219, #164, #96 ) ) ;
#24 = APPROVAL_ROLE ( '' ) ;
#25 = VERTEX_POINT ( 'NONE', #81 ) ;
#26 = CC_DESIGN_PERSON_AND_ORGANIZATION_ASSIGNMENT ( #139, #255, ( #82 ) ) ;
#27 = DIRECTION ( 'NONE',  ( 1.000000000000000000, -0.000000000000000000, 0.000000000000000000 ) ) ;
#28 = CARTESIAN_POINT ( 'NONE',  ( -14.25000000000000000, 2.500000000000000000, 8.000000000000000000 ) ) ;
#29 = AXIS2_PLACEMENT_3D ( 'NONE', #145, #323, #40 ) ;
#30 = ORIENTED_EDGE ( 'NONE', *, *, #328, .T. ) ;
#31 = APPROVAL_DATE_TIME ( #253, #330 ) ;
#32 = ADVANCED_FACE ( 'NONE', ( #339 ), #144, .F. ) ;
#33 = CARTESIAN_POINT ( 'NONE',  ( -0.7500000000000000000, 0.000000000000000000, 12.00000000000000000 ) ) ;
#34 = CARTESIAN_POINT ( 'NONE',  ( 0.000000000000000000, 2.500000000000000000, -8.000000000000000000 ) ) ;
#35 = PLANE ( 'NONE',  #351 ) ;
#36 = PERSON_AND_ORGANIZATION_ROLE ( 'classification_officer' ) ;
#37 = ORIENTED_EDGE ( 'NONE', *, *, #104, .T. ) ;
#38 = CARTESIAN_POINT ( 'NONE',  ( 14.25000000000000000, 0.000000000000000000, -12.00000000000000000 ) ) ;
#39 = DATE_AND_TIME ( #10, #89 ) ;
#40 = DIRECTION ( 'NONE',  ( -1.000000000000000000, 0.000000000000000000, -0.000000000000000000 ) ) ;
#41 = LINE ( 'NONE', #211, #177 ) ;
#42 = DIRECTION ( 'NONE',  ( 1.000000000000000000, 0.000000000000000000, 0.000000000000000000 ) ) ;
#43 = CARTESIAN_POINT ( 'NONE',  ( -14.25000000000000000, 0.000000000000000000, 8.000000000000000000 ) ) ;
#44 = ORIENTED_EDGE ( 'NONE', *, *, #217, .T. ) ;
#45 = VECTOR ( 'NONE', #227, 1000.000000000000000 ) ;
#46 = VERTEX_POINT ( 'NONE', #202 ) ;
#47 = EDGE_LOOP ( 'NONE', ( #134, #37, #19, #95 ) ) ;
#48 = LINE ( 'NONE', #318, #190 ) ;
#49 = APPROVAL ( #233, '未指定' ) ;
#50 = CC_DESIGN_APPROVAL ( #330, ( #82 ) ) ;
#51 = ORIENTED_EDGE ( 'NONE', *, *, #352, .T. ) ;
#52 = DIRECTION ( 'NONE',  ( -0.000000000000000000, -1.000000000000000000, -0.000000000000000000 ) ) ;
#53 = ADVANCED_BREP_SHAPE_REPRESENTATION ( 'FN-HAR-004_fuse-to-dc5521_R0.4', ( #99, #288 ), #204 ) ;
#54 = ORIENTED_EDGE ( 'NONE', *, *, #344, .T. ) ;
#55 = CARTESIAN_POINT ( 'NONE',  ( -0.7500000000000000000, 2.500000000000000000, 8.000000000000000000 ) ) ;
#56 = CARTESIAN_POINT ( 'NONE',  ( 0.000000000000000000, 2.500000000000000000, -12.00000000000000000 ) ) ;
#57 = CARTESIAN_POINT ( 'NONE',  ( -0.7500000000000000000, 2.500000000000000000, -12.00000000000000000 ) ) ;
#58 = AXIS2_PLACEMENT_3D ( 'NONE', #296, #232, #109 ) ;
#59 = LINE ( 'NONE', #33, #14 ) ;
#60 =( NAMED_UNIT ( * ) PLANE_ANGLE_UNIT ( ) SI_UNIT ( $, .RADIAN. ) );
#61 = FACE_OUTER_BOUND ( 'NONE', #361, .T. ) ;
#62 = DIRECTION ( 'NONE',  ( 0.000000000000000000, -0.000000000000000000, -1.000000000000000000 ) ) ;
#63 = APPROVAL_ROLE ( '' ) ;
#64 = CARTESIAN_POINT ( 'NONE',  ( 3.250000000000002665, 2.500000000000000000, 12.00000000000000000 ) ) ;
#65 = VECTOR ( 'NONE', #101, 1000.000000000000000 ) ;
#66 = DATE_TIME_ROLE ( 'classification_date' ) ;
#67 = FACE_OUTER_BOUND ( 'NONE', #309, .T. ) ;
#68 = DATE_AND_TIME ( #299, #152 ) ;
#69 = CARTESIAN_POINT ( 'NONE',  ( 0.000000000000000000, 0.000000000000000000, -8.000000000000000000 ) ) ;
#70 = DIRECTION ( 'NONE',  ( 1.000000000000000000, -0.000000000000000000, 0.000000000000000000 ) ) ;
#71 = ORIENTED_EDGE ( 'NONE', *, *, #289, .T. ) ;
#72 = CLOSED_SHELL ( 'NONE', ( #307, #258, #246, #32, #22, #4, #192, #195, #119, #295 ) ) ;
#73 = ORIENTED_EDGE ( 'NONE', *, *, #328, .F. ) ;
#74 = VERTEX_POINT ( 'NONE', #165 ) ;
#75 = ORIENTED_EDGE ( 'NONE', *, *, #217, .F. ) ;
#76 = LINE ( 'NONE', #198, #65 ) ;
#77 = CARTESIAN_POINT ( 'NONE',  ( 14.25000000000000000, 2.500000000000000000, -12.00000000000000000 ) ) ;
#78 = EDGE_CURVE ( 'NONE', #368, #25, #316, .T. ) ;
#79 = PLANE ( 'NONE',  #58 ) ;
#80 = DIRECTION ( 'NONE',  ( -1.000000000000000000, -0.000000000000000000, -0.000000000000000000 ) ) ;
#81 = CARTESIAN_POINT ( 'NONE',  ( -14.25000000000000000, 2.500000000000000000, 8.000000000000000000 ) ) ;
#82 = PRODUCT_DEFINITION ( '未知', '', #259, #220 ) ;
#83 = APPROVAL_PERSON_ORGANIZATION ( #108, #330, #24 ) ;
#84 = ORIENTED_EDGE ( 'NONE', *, *, #267, .T. ) ;
#85 = PERSON_AND_ORGANIZATION ( #179, #216 ) ;
#86 = CARTESIAN_POINT ( 'NONE',  ( 14.25000000000000000, 0.000000000000000000, -8.000000000000000000 ) ) ;
#87 = DIRECTION ( 'NONE',  ( -1.000000000000000000, 0.000000000000000000, 0.000000000000000000 ) ) ;
#88 = CARTESIAN_POINT ( 'NONE',  ( -0.7500000000000000000, 2.500000000000000000, 12.00000000000000000 ) ) ;
#89 = LOCAL_TIME ( 19, 27, 23.00000000000000000, #146 ) ;
#90 = LOCAL_TIME ( 19, 27, 23.00000000000000000, #148 ) ;
#91 = FACE_OUTER_BOUND ( 'NONE', #200, .T. ) ;
#92 = LINE ( 'NONE', #184, #280 ) ;
#93 = FACE_OUTER_BOUND ( 'NONE', #205, .T. ) ;
#94 = APPROVAL_PERSON_ORGANIZATION ( #174, #137, #63 ) ;
#95 = ORIENTED_EDGE ( 'NONE', *, *, #355, .F. ) ;
#96 = ORIENTED_EDGE ( 'NONE', *, *, #285, .F. ) ;
#97 = VECTOR ( 'NONE', #187, 1000.000000000000000 ) ;
#98 = VERTEX_POINT ( 'NONE', #175 ) ;
#99 = MANIFOLD_SOLID_BREP ( '凸台-拉伸3', #72 ) ;
#100 = ORIENTED_EDGE ( 'NONE', *, *, #256, .T. ) ;
#101 = DIRECTION ( 'NONE',  ( -1.000000000000000000, -0.000000000000000000, -0.000000000000000000 ) ) ;
#102 = ORIENTED_EDGE ( 'NONE', *, *, #285, .T. ) ;
#103 = DIRECTION ( 'NONE',  ( -0.000000000000000000, -1.000000000000000000, -0.000000000000000000 ) ) ;
#104 = EDGE_CURVE ( 'NONE', #368, #191, #226, .T. ) ;
#105 = VECTOR ( 'NONE', #52, 1000.000000000000000 ) ;
#106 = CC_DESIGN_APPROVAL ( #49, ( #363 ) ) ;
#107 = ORIENTED_EDGE ( 'NONE', *, *, #338, .F. ) ;
#108 = PERSON_AND_ORGANIZATION ( #179, #216 ) ;
#109 = DIRECTION ( 'NONE',  ( 0.000000000000000000, -0.000000000000000000, -1.000000000000000000 ) ) ;
#110 = DIRECTION ( 'NONE',  ( 0.000000000000000000, 1.000000000000000000, 0.000000000000000000 ) ) ;
#111 = DIRECTION ( 'NONE',  ( 1.000000000000000000, 0.000000000000000000, -0.000000000000000000 ) ) ;
#112 = AXIS2_PLACEMENT_3D ( 'NONE', #5, #7, #111 ) ;
#113 = CARTESIAN_POINT ( 'NONE',  ( -0.7500000000000000000, 2.500000000000000000, -12.00000000000000000 ) ) ;
#114 = EDGE_CURVE ( 'NONE', #242, #191, #59, .T. ) ;
#115 = ORIENTED_EDGE ( 'NONE', *, *, #114, .F. ) ;
#116 = COORDINATED_UNIVERSAL_TIME_OFFSET ( 8, 0, .AHEAD. ) ;
#117 = PLANE ( 'NONE',  #133 ) ;
#118 = SHAPE_DEFINITION_REPRESENTATION ( #241, #53 ) ;
#119 = ADVANCED_FACE ( 'NONE', ( #257 ), #254, .F. ) ;
#120 = LINE ( 'NONE', #236, #223 ) ;
#121 = VECTOR ( 'NONE', #171, 1000.000000000000000 ) ;
#122 = CC_DESIGN_SECURITY_CLASSIFICATION ( #363, ( #259 ) ) ;
#123 = DIRECTION ( 'NONE',  ( -0.000000000000000000, -1.000000000000000000, -0.000000000000000000 ) ) ;
#124 = CARTESIAN_POINT ( 'NONE',  ( 0.000000000000000000, 2.500000000000000000, -8.000000000000000000 ) ) ;
#125 = EDGE_CURVE ( 'NONE', #366, #242, #142, .T. ) ;
#126 = DIRECTION ( 'NONE',  ( 0.000000000000000000, 0.000000000000000000, -1.000000000000000000 ) ) ;
#127 = VECTOR ( 'NONE', #301, 1000.000000000000000 ) ;
#128 = CARTESIAN_POINT ( 'NONE',  ( -0.7500000000000000000, 2.500000000000000000, 12.00000000000000000 ) ) ;
#129 = ORIENTED_EDGE ( 'NONE', *, *, #131, .F. ) ;
#130 = VERTEX_POINT ( 'NONE', #231 ) ;
#131 = EDGE_CURVE ( 'NONE', #222, #245, #346, .T. ) ;
#132 = ORIENTED_EDGE ( 'NONE', *, *, #114, .T. ) ;
#133 = AXIS2_PLACEMENT_3D ( 'NONE', #235, #15, #212 ) ;
#134 = ORIENTED_EDGE ( 'NONE', *, *, #78, .F. ) ;
#135 = ORIENTED_EDGE ( 'NONE', *, *, #131, .T. ) ;
#136 = ORIENTED_EDGE ( 'NONE', *, *, #238, .F. ) ;
#137 = APPROVAL ( #302, '未指定' ) ;
#138 = ORIENTED_EDGE ( 'NONE', *, *, #311, .T. ) ;
#139 = PERSON_AND_ORGANIZATION ( #179, #216 ) ;
#140 = DIRECTION ( 'NONE',  ( -0.000000000000000000, -0.000000000000000000, 1.000000000000000000 ) ) ;
#141 = DIRECTION ( 'NONE',  ( -0.000000000000000000, -0.000000000000000000, 1.000000000000000000 ) ) ;
#142 = LINE ( 'NONE', #113, #317 ) ;
#143 = LOCAL_TIME ( 19, 27, 23.00000000000000000, #340 ) ;
#144 = PLANE ( 'NONE',  #185 ) ;
#145 = CARTESIAN_POINT ( 'NONE',  ( -0.7500000000000000000, 2.500000000000000000, 12.00000000000000000 ) ) ;
#146 = COORDINATED_UNIVERSAL_TIME_OFFSET ( 8, 0, .AHEAD. ) ;
#147 = FACE_OUTER_BOUND ( 'NONE', #161, .T. ) ;
#148 = COORDINATED_UNIVERSAL_TIME_OFFSET ( 8, 0, .AHEAD. ) ;
#149 = CC_DESIGN_PERSON_AND_ORGANIZATION_ASSIGNMENT ( #176, #263, ( #259 ) ) ;
#150 = DIRECTION ( 'NONE',  ( -1.000000000000000000, 0.000000000000000000, -0.000000000000000000 ) ) ;
#151 = AXIS2_PLACEMENT_3D ( 'NONE', #329, #70, #126 ) ;
#152 = LOCAL_TIME ( 19, 27, 23.00000000000000000, #116 ) ;
#153 = CARTESIAN_POINT ( 'NONE',  ( 3.250000000000002665, 0.000000000000000000, 12.00000000000000000 ) ) ;
#154 = FACE_OUTER_BOUND ( 'NONE', #159, .T. ) ;
#155 = LINE ( 'NONE', #69, #127 ) ;
#156 = CC_DESIGN_DATE_AND_TIME_ASSIGNMENT ( #347, #66, ( #363 ) ) ;
#157 = PLANE ( 'NONE',  #17 ) ;
#158 = VECTOR ( 'NONE', #178, 1000.000000000000000 ) ;
#159 = EDGE_LOOP ( 'NONE', ( #9, #162, #334, #132 ) ) ;
#160 = EDGE_CURVE ( 'NONE', #366, #368, #348, .T. ) ;
#161 = EDGE_LOOP ( 'NONE', ( #343, #18, #75, #193 ) ) ;
#162 = ORIENTED_EDGE ( 'NONE', *, *, #160, .F. ) ;
#163 = VECTOR ( 'NONE', #123, 1000.000000000000000 ) ;
#164 = ORIENTED_EDGE ( 'NONE', *, *, #168, .F. ) ;
#165 = CARTESIAN_POINT ( 'NONE',  ( 14.25000000000000000, 2.500000000000000000, -8.000000000000000000 ) ) ;
#166 = LINE ( 'NONE', #203, #362 ) ;
#167 = DIRECTION ( 'NONE',  ( -1.000000000000000000, -0.000000000000000000, -0.000000000000000000 ) ) ;
#168 = EDGE_CURVE ( 'NONE', #218, #282, #120, .T. ) ;
#169 =( LENGTH_UNIT ( ) NAMED_UNIT ( * ) SI_UNIT ( .MILLI., .METRE. ) );
#170 = AXIS2_PLACEMENT_3D ( 'NONE', #300, #87, #182 ) ;
#171 = DIRECTION ( 'NONE',  ( -0.000000000000000000, -1.000000000000000000, -0.000000000000000000 ) ) ;
#172 = MECHANICAL_CONTEXT ( 'NONE', #274, 'mechanical' ) ;
#173 = ORIENTED_EDGE ( 'NONE', *, *, #320, .T. ) ;
#174 = PERSON_AND_ORGANIZATION ( #179, #216 ) ;
#175 = CARTESIAN_POINT ( 'NONE',  ( 3.250000000000002665, 0.000000000000000000, -8.000000000000000000 ) ) ;
#176 = PERSON_AND_ORGANIZATION ( #179, #216 ) ;
#177 = VECTOR ( 'NONE', #350, 1000.000000000000000 ) ;
#178 = DIRECTION ( 'NONE',  ( -0.000000000000000000, -0.000000000000000000, 1.000000000000000000 ) ) ;
#179 = PERSON ( '未指定', '未指定', '未指定', ('未指定'), ('未指定'), ('未指定') ) ;
#180 = PLANE ( 'NONE',  #170 ) ;
#181 = CALENDAR_DATE ( 2026, 26, 7 ) ;
#182 = DIRECTION ( 'NONE',  ( 0.000000000000000000, 0.000000000000000000, 1.000000000000000000 ) ) ;
#183 = APPROVAL_DATE_TIME ( #266, #49 ) ;
#184 = CARTESIAN_POINT ( 'NONE',  ( -14.25000000000000000, 0.000000000000000000, 12.00000000000000000 ) ) ;
#185 = AXIS2_PLACEMENT_3D ( 'NONE', #56, #260, #199 ) ;
#186 = PRODUCT_RELATED_PRODUCT_CATEGORY ( 'detail', '', ( #250 ) ) ;
#187 = DIRECTION ( 'NONE',  ( -1.000000000000000000, -0.000000000000000000, -0.000000000000000000 ) ) ;
#188 = APPLICATION_CONTEXT ( 'configuration controlled 3d designs of mechanical parts and assemblies' ) ;
#189 = EDGE_LOOP ( 'NONE', ( #331, #107, #335, #51 ) ) ;
#190 = VECTOR ( 'NONE', #141, 1000.000000000000000 ) ;
#191 = VERTEX_POINT ( 'NONE', #237 ) ;
#192 = ADVANCED_FACE ( 'NONE', ( #353 ), #180, .F. ) ;
#193 = ORIENTED_EDGE ( 'NONE', *, *, #360, .T. ) ;
#194 = APPLICATION_PROTOCOL_DEFINITION ( 'international standard', 'config_control_design', 1994, #274 ) ;
#195 = ADVANCED_FACE ( 'NONE', ( #147 ), #208, .F. ) ;
#196 = VERTEX_POINT ( 'NONE', #64 ) ;
#197 = VECTOR ( 'NONE', #321, 1000.000000000000000 ) ;
#198 = CARTESIAN_POINT ( 'NONE',  ( 0.000000000000000000, 2.500000000000000000, -12.00000000000000000 ) ) ;
#199 = DIRECTION ( 'NONE',  ( 1.000000000000000000, 0.000000000000000000, -0.000000000000000000 ) ) ;
#200 = EDGE_LOOP ( 'NONE', ( #135, #278, #364, #84 ) ) ;
#201 = LINE ( 'NONE', #308, #45 ) ;
#202 = CARTESIAN_POINT ( 'NONE',  ( 3.250000000000002220, 2.500000000000000000, -8.000000000000000000 ) ) ;
#203 = CARTESIAN_POINT ( 'NONE',  ( 3.250000000000002665, 2.500000000000000000, -8.000000000000000000 ) ) ;
#204 =( GEOMETRIC_REPRESENTATION_CONTEXT ( 3 ) GLOBAL_UNCERTAINTY_ASSIGNED_CONTEXT ( ( #265 ) ) GLOBAL_UNIT_ASSIGNED_CONTEXT ( ( #169, #60, #337 ) ) REPRESENTATION_CONTEXT ( 'NONE', 'WORKASPACE' ) );
#205 = EDGE_LOOP ( 'NONE', ( #102, #252, #293, #306 ) ) ;
#206 = DATE_TIME_ROLE ( 'creation_date' ) ;
#207 = DIRECTION ( 'NONE',  ( -0.000000000000000000, -1.000000000000000000, -0.000000000000000000 ) ) ;
#208 = PLANE ( 'NONE',  #29 ) ;
#209 = VECTOR ( 'NONE', #356, 1000.000000000000000 ) ;
#210 = CC_DESIGN_PERSON_AND_ORGANIZATION_ASSIGNMENT ( #322, #213, ( #259 ) ) ;
#211 = CARTESIAN_POINT ( 'NONE',  ( 14.25000000000000000, 2.500000000000000000, -8.000000000000000000 ) ) ;
#212 = DIRECTION ( 'NONE',  ( 0.000000000000000000, 0.000000000000000000, 1.000000000000000000 ) ) ;
#213 = PERSON_AND_ORGANIZATION_ROLE ( 'creator' ) ;
#214 = CARTESIAN_POINT ( 'NONE',  ( -14.25000000000000000, 0.000000000000000000, 8.000000000000000000 ) ) ;
#215 = PLANE ( 'NONE',  #151 ) ;
#216 = ORGANIZATION ( '未指定', '未指定', '' ) ;
#217 = EDGE_CURVE ( 'NONE', #130, #196, #273, .T. ) ;
#218 = VERTEX_POINT ( 'NONE', #264 ) ;
#219 = ORIENTED_EDGE ( 'NONE', *, *, #1, .F. ) ;
#220 = DESIGN_CONTEXT ( 'detailed design', #188, 'design' ) ;
#221 = EDGE_CURVE ( 'NONE', #191, #243, #304, .T. ) ;
#222 = VERTEX_POINT ( 'NONE', #298 ) ;
#223 = VECTOR ( 'NONE', #42, 1000.000000000000000 ) ;
#224 = FACE_OUTER_BOUND ( 'NONE', #23, .T. ) ;
#225 = APPROVAL_STATUS ( 'not_yet_approved' ) ;
#226 = LINE ( 'NONE', #287, #358 ) ;
#227 = DIRECTION ( 'NONE',  ( -0.000000000000000000, -1.000000000000000000, -0.000000000000000000 ) ) ;
#228 = ORIENTED_EDGE ( 'NONE', *, *, #267, .F. ) ;
#229 = CARTESIAN_POINT ( 'NONE',  ( 0.000000000000000000, 0.000000000000000000, 0.000000000000000000 ) ) ;
#230 = AXIS2_PLACEMENT_3D ( 'NONE', #124, #325, #150 ) ;
#231 = CARTESIAN_POINT ( 'NONE',  ( -14.25000000000000000, 2.500000000000000000, 12.00000000000000000 ) ) ;
#232 = DIRECTION ( 'NONE',  ( 0.000000000000000000, -1.000000000000000000, 0.000000000000000000 ) ) ;
#233 = APPROVAL_STATUS ( 'not_yet_approved' ) ;
#234 = CC_DESIGN_PERSON_AND_ORGANIZATION_ASSIGNMENT ( #294, #36, ( #363 ) ) ;
#235 = CARTESIAN_POINT ( 'NONE',  ( 14.25000000000000000, 2.500000000000000000, -8.000000000000000000 ) ) ;
#236 = CARTESIAN_POINT ( 'NONE',  ( -0.7500000000000000000, 0.000000000000000000, 12.00000000000000000 ) ) ;
#237 = CARTESIAN_POINT ( 'NONE',  ( -0.7500000000000000000, 0.000000000000000000, 8.000000000000000000 ) ) ;
#238 = EDGE_CURVE ( 'NONE', #98, #222, #155, .T. ) ;
#239 = CARTESIAN_POINT ( 'NONE',  ( 3.250000000000002665, 2.500000000000000000, 12.00000000000000000 ) ) ;
#240 = VECTOR ( 'NONE', #80, 1000.000000000000000 ) ;
#241 = PRODUCT_DEFINITION_SHAPE ( 'NONE', 'NONE',  #82 ) ;
#242 = VERTEX_POINT ( 'NONE', #327 ) ;
#243 = VERTEX_POINT ( 'NONE', #43 ) ;
#244 = ORIENTED_EDGE ( 'NONE', *, *, #238, .T. ) ;
#245 = VERTEX_POINT ( 'NONE', #38 ) ;
#246 = ADVANCED_FACE ( 'NONE', ( #91 ), #117, .F. ) ;
#247 = ORIENTED_EDGE ( 'NONE', *, *, #160, .T. ) ;
#248 = DIRECTION ( 'NONE',  ( 0.000000000000000000, 0.000000000000000000, -1.000000000000000000 ) ) ;
#249 = CARTESIAN_POINT ( 'NONE',  ( 3.250000000000002665, 0.000000000000000000, 12.00000000000000000 ) ) ;
#250 = PRODUCT ( 'FN-HAR-004_fuse-to-dc5521_R0.4', 'FN-HAR-004_fuse-to-dc5521_R0.4', '', ( #172 ) ) ;
#251 = PERSON_AND_ORGANIZATION ( #179, #216 ) ;
#252 = ORIENTED_EDGE ( 'NONE', *, *, #360, .F. ) ;
#253 = DATE_AND_TIME ( #291, #143 ) ;
#254 = PLANE ( 'NONE',  #112 ) ;
#255 = PERSON_AND_ORGANIZATION_ROLE ( 'creator' ) ;
#256 = EDGE_CURVE ( 'NONE', #74, #276, #41, .T. ) ;
#257 = FACE_OUTER_BOUND ( 'NONE', #47, .T. ) ;
#258 = ADVANCED_FACE ( 'NONE', ( #67 ), #13, .F. ) ;
#259 = PRODUCT_DEFINITION_FORMATION_WITH_SPECIFIED_SOURCE ( '任何', '', #250, .NOT_KNOWN. ) ;
#260 = DIRECTION ( 'NONE',  ( 0.000000000000000000, 0.000000000000000000, 1.000000000000000000 ) ) ;
#261 = CC_DESIGN_DATE_AND_TIME_ASSIGNMENT ( #39, #206, ( #82 ) ) ;
#262 = CARTESIAN_POINT ( 'NONE',  ( -0.7500000000000000000, 2.500000000000000000, 12.00000000000000000 ) ) ;
#263 = PERSON_AND_ORGANIZATION_ROLE ( 'design_supplier' ) ;
#264 = CARTESIAN_POINT ( 'NONE',  ( -14.25000000000000000, 0.000000000000000000, 12.00000000000000000 ) ) ;
#265 = UNCERTAINTY_MEASURE_WITH_UNIT (LENGTH_MEASURE( 1.000000000000000082E-05 ), #169, 'distance_accuracy_value', 'NONE');
#266 = DATE_AND_TIME ( #349, #90 ) ;
#267 = EDGE_CURVE ( 'NONE', #74, #222, #270, .T. ) ;
#268 = VECTOR ( 'NONE', #167, 1000.000000000000000 ) ;
#269 = LOCAL_TIME ( 19, 27, 23.00000000000000000, #8 ) ;
#270 = LINE ( 'NONE', #272, #163 ) ;
#271 = APPROVAL_DATE_TIME ( #68, #137 ) ;
#272 = CARTESIAN_POINT ( 'NONE',  ( 14.25000000000000000, 2.500000000000000000, -8.000000000000000000 ) ) ;
#273 = LINE ( 'NONE', #262, #345 ) ;
#274 = APPLICATION_CONTEXT ( 'configuration controlled 3d designs of mechanical parts and assemblies' ) ;
#275 = APPROVAL_PERSON_ORGANIZATION ( #85, #49, #326 ) ;
#276 = VERTEX_POINT ( 'NONE', #354 ) ;
#277 = ORIENTED_EDGE ( 'NONE', *, *, #311, .F. ) ;
#278 = ORIENTED_EDGE ( 'NONE', *, *, #20, .F. ) ;
#279 = ORIENTED_EDGE ( 'NONE', *, *, #221, .F. ) ;
#280 = VECTOR ( 'NONE', #303, 1000.000000000000000 ) ;
#281 = APPLICATION_PROTOCOL_DEFINITION ( 'international standard', 'config_control_design', 1994, #188 ) ;
#282 = VERTEX_POINT ( 'NONE', #153 ) ;
#283 = DIRECTION ( 'NONE',  ( 0.000000000000000000, 0.000000000000000000, 1.000000000000000000 ) ) ;
#284 = LINE ( 'NONE', #77, #121 ) ;
#285 = EDGE_CURVE ( 'NONE', #243, #218, #92, .T. ) ;
#286 = LINE ( 'NONE', #3, #240 ) ;
#287 = CARTESIAN_POINT ( 'NONE',  ( -0.7500000000000000000, 2.500000000000000000, 8.000000000000000000 ) ) ;
#288 = AXIS2_PLACEMENT_3D ( 'NONE', #229, #283, #310 ) ;
#289 = EDGE_CURVE ( 'NONE', #196, #46, #16, .T. ) ;
#290 = CC_DESIGN_APPROVAL ( #137, ( #259 ) ) ;
#291 = CALENDAR_DATE ( 2026, 26, 7 ) ;
#292 = DIRECTION ( 'NONE',  ( 0.000000000000000000, -1.000000000000000000, 0.000000000000000000 ) ) ;
#293 = ORIENTED_EDGE ( 'NONE', *, *, #320, .F. ) ;
#294 = PERSON_AND_ORGANIZATION ( #179, #216 ) ;
#295 = ADVANCED_FACE ( 'NONE', ( #93 ), #215, .F. ) ;
#296 = CARTESIAN_POINT ( 'NONE',  ( 0.000000000000000000, 0.000000000000000000, 0.000000000000000000 ) ) ;
#297 = VECTOR ( 'NONE', #314, 1000.000000000000000 ) ;
#298 = CARTESIAN_POINT ( 'NONE',  ( 14.25000000000000000, 0.000000000000000000, -8.000000000000000000 ) ) ;
#299 = CALENDAR_DATE ( 2026, 26, 7 ) ;
#300 = CARTESIAN_POINT ( 'NONE',  ( 3.250000000000002665, 2.500000000000000000, 12.00000000000000000 ) ) ;
#301 = DIRECTION ( 'NONE',  ( 1.000000000000000000, 0.000000000000000000, 0.000000000000000000 ) ) ;
#302 = APPROVAL_STATUS ( 'not_yet_approved' ) ;
#303 = DIRECTION ( 'NONE',  ( -0.000000000000000000, -0.000000000000000000, 1.000000000000000000 ) ) ;
#304 = LINE ( 'NONE', #214, #97 ) ;
#305 = EDGE_LOOP ( 'NONE', ( #21, #30, #319, #54 ) ) ;
#306 = ORIENTED_EDGE ( 'NONE', *, *, #355, .T. ) ;
#307 = ADVANCED_FACE ( 'NONE', ( #154 ), #157, .F. ) ;
#308 = CARTESIAN_POINT ( 'NONE',  ( -14.25000000000000000, 2.500000000000000000, 12.00000000000000000 ) ) ;
#309 = EDGE_LOOP ( 'NONE', ( #73, #244, #228, #277 ) ) ;
#310 = DIRECTION ( 'NONE',  ( 1.000000000000000000, 0.000000000000000000, 0.000000000000000000 ) ) ;
#311 = EDGE_CURVE ( 'NONE', #46, #74, #313, .T. ) ;
#312 = CARTESIAN_POINT ( 'NONE',  ( 0.000000000000000000, 2.500000000000000000, 0.000000000000000000 ) ) ;
#313 = LINE ( 'NONE', #34, #336 ) ;
#314 = DIRECTION ( 'NONE',  ( 0.000000000000000000, 0.000000000000000000, -1.000000000000000000 ) ) ;
#315 = PERSON_AND_ORGANIZATION_ROLE ( 'design_owner' ) ;
#316 = LINE ( 'NONE', #28, #268 ) ;
#317 = VECTOR ( 'NONE', #207, 1000.000000000000000 ) ;
#318 = CARTESIAN_POINT ( 'NONE',  ( -14.25000000000000000, 2.500000000000000000, 12.00000000000000000 ) ) ;
#319 = ORIENTED_EDGE ( 'NONE', *, *, #289, .F. ) ;
#320 = EDGE_CURVE ( 'NONE', #25, #130, #48, .T. ) ;
#321 = DIRECTION ( 'NONE',  ( 0.000000000000000000, 0.000000000000000000, -1.000000000000000000 ) ) ;
#322 = PERSON_AND_ORGANIZATION ( #179, #216 ) ;
#323 = DIRECTION ( 'NONE',  ( 0.000000000000000000, 0.000000000000000000, -1.000000000000000000 ) ) ;
#324 = VECTOR ( 'NONE', #103, 1000.000000000000000 ) ;
#325 = DIRECTION ( 'NONE',  ( 0.000000000000000000, 0.000000000000000000, -1.000000000000000000 ) ) ;
#326 = APPROVAL_ROLE ( '' ) ;
#327 = CARTESIAN_POINT ( 'NONE',  ( -0.7500000000000000000, 0.000000000000000000, -12.00000000000000000 ) ) ;
#328 = EDGE_CURVE ( 'NONE', #98, #46, #166, .T. ) ;
#329 = CARTESIAN_POINT ( 'NONE',  ( -14.25000000000000000, 2.500000000000000000, 12.00000000000000000 ) ) ;
#330 = APPROVAL ( #225, '未指定' ) ;
#331 = ORIENTED_EDGE ( 'NONE', *, *, #125, .F. ) ;
#332 = ORIENTED_EDGE ( 'NONE', *, *, #352, .F. ) ;
#333 = ORIENTED_EDGE ( 'NONE', *, *, #338, .T. ) ;
#334 = ORIENTED_EDGE ( 'NONE', *, *, #125, .T. ) ;
#335 = ORIENTED_EDGE ( 'NONE', *, *, #20, .T. ) ;
#336 = VECTOR ( 'NONE', #369, 1000.000000000000000 ) ;
#337 =( NAMED_UNIT ( * ) SI_UNIT ( $, .STERADIAN. ) SOLID_ANGLE_UNIT ( ) );
#338 = EDGE_CURVE ( 'NONE', #276, #366, #76, .T. ) ;
#339 = FACE_OUTER_BOUND ( 'NONE', #189, .T. ) ;
#340 = COORDINATED_UNIVERSAL_TIME_OFFSET ( 8, 0, .AHEAD. ) ;
#341 = DIRECTION ( 'NONE',  ( -0.000000000000000000, -1.000000000000000000, 0.000000000000000000 ) ) ;
#342 = CARTESIAN_POINT ( 'NONE',  ( 3.250000000000002665, 2.500000000000000000, 12.00000000000000000 ) ) ;
#343 = ORIENTED_EDGE ( 'NONE', *, *, #168, .T. ) ;
#344 = EDGE_CURVE ( 'NONE', #196, #282, #367, .T. ) ;
#345 = VECTOR ( 'NONE', #11, 1000.000000000000000 ) ;
#346 = LINE ( 'NONE', #86, #197 ) ;
#347 = DATE_AND_TIME ( #181, #269 ) ;
#348 = LINE ( 'NONE', #88, #158 ) ;
#349 = CALENDAR_DATE ( 2026, 26, 7 ) ;
#350 = DIRECTION ( 'NONE',  ( 0.000000000000000000, 0.000000000000000000, -1.000000000000000000 ) ) ;
#351 = AXIS2_PLACEMENT_3D ( 'NONE', #312, #292, #62 ) ;
#352 = EDGE_CURVE ( 'NONE', #245, #242, #286, .T. ) ;
#353 = FACE_OUTER_BOUND ( 'NONE', #305, .T. ) ;
#354 = CARTESIAN_POINT ( 'NONE',  ( 14.25000000000000000, 2.500000000000000000, -12.00000000000000000 ) ) ;
#355 = EDGE_CURVE ( 'NONE', #25, #243, #365, .T. ) ;
#356 = DIRECTION ( 'NONE',  ( 0.000000000000000000, 0.000000000000000000, -1.000000000000000000 ) ) ;
#357 = CC_DESIGN_PERSON_AND_ORGANIZATION_ASSIGNMENT ( #251, #315, ( #250 ) ) ;
#358 = VECTOR ( 'NONE', #341, 1000.000000000000000 ) ;
#359 = ORIENTED_EDGE ( 'NONE', *, *, #78, .T. ) ;
#360 = EDGE_CURVE ( 'NONE', #130, #218, #201, .T. ) ;
#361 = EDGE_LOOP ( 'NONE', ( #71, #138, #100, #333, #247, #359, #173, #44 ) ) ;
#362 = VECTOR ( 'NONE', #110, 1000.000000000000000 ) ;
#363 = SECURITY_CLASSIFICATION ( '', '', #12 ) ;
#364 = ORIENTED_EDGE ( 'NONE', *, *, #256, .F. ) ;
#365 = LINE ( 'NONE', #6, #324 ) ;
#366 = VERTEX_POINT ( 'NONE', #57 ) ;
#367 = LINE ( 'NONE', #342, #105 ) ;
#368 = VERTEX_POINT ( 'NONE', #55 ) ;
#369 = DIRECTION ( 'NONE',  ( 1.000000000000000000, 0.000000000000000000, 0.000000000000000000 ) ) ;
ENDSEC;
END-ISO-10303-21;
