ISO-10303-21;
HEADER;
FILE_DESCRIPTION (( 'STEP AP203' ),
    '1' );
FILE_NAME ('FN-PCB-003_carrier_ROTATED-CCW_4HOLE_R0.4.STEP',
    '2026-07-26T11:25:40',
    ( '' ),
    ( '' ),
    'SwSTEP 2.0',
    'SolidWorks 2022',
    '' );
FILE_SCHEMA (( 'CONFIG_CONTROL_DESIGN' ));
ENDSEC;

DATA;
#1 = DIRECTION ( 'NONE',  ( -0.000000000000000000, -1.000000000000000000, -0.000000000000000000 ) ) ;
#2 = CIRCLE ( 'NONE', #77, 1.600000000000004086 ) ;
#3 = EDGE_LOOP ( 'NONE', ( #215, #400, #496, #238 ) ) ;
#4 = PERSON_AND_ORGANIZATION ( #32, #174 ) ;
#5 = ADVANCED_FACE ( 'NONE', ( #129 ), #447, .F. ) ;
#6 = PRODUCT_DEFINITION_SHAPE ( 'NONE', 'NONE',  #360 ) ;
#7 = DIRECTION ( 'NONE',  ( -0.000000000000000000, -1.000000000000000000, -0.000000000000000000 ) ) ;
#8 = DATE_TIME_ROLE ( 'creation_date' ) ;
#9 = DIRECTION ( 'NONE',  ( 0.000000000000000000, 0.000000000000000000, 1.000000000000000000 ) ) ;
#10 = CC_DESIGN_APPROVAL ( #434, ( #252 ) ) ;
#11 = LINE ( 'NONE', #420, #398 ) ;
#12 = PERSON_AND_ORGANIZATION_ROLE ( 'design_supplier' ) ;
#13 = CARTESIAN_POINT ( 'NONE',  ( -54.00000000000000000, 0.000000000000000000, -79.90000000000000568 ) ) ;
#14 = CYLINDRICAL_SURFACE ( 'NONE', #326, 1.600000000000004086 ) ;
#15 = COORDINATED_UNIVERSAL_TIME_OFFSET ( 8, 0, .AHEAD. ) ;
#16 = ADVANCED_FACE ( 'NONE', ( #410 ), #82, .F. ) ;
#17 = CARTESIAN_POINT ( 'NONE',  ( -57.50000000000000000, 0.000000000000000000, 85.00000000000000000 ) ) ;
#18 = DIRECTION ( 'NONE',  ( 0.000000000000000000, 1.000000000000000000, 0.000000000000000000 ) ) ;
#19 = ORIENTED_EDGE ( 'NONE', *, *, #378, .F. ) ;
#20 = LINE ( 'NONE', #223, #166 ) ;
#21 = AXIS2_PLACEMENT_3D ( 'NONE', #387, #64, #461 ) ;
#22 = ORIENTED_EDGE ( 'NONE', *, *, #396, .T. ) ;
#23 = EDGE_CURVE ( 'NONE', #376, #425, #126, .T. ) ;
#24 = LINE ( 'NONE', #352, #218 ) ;
#25 = ORIENTED_EDGE ( 'NONE', *, *, #288, .T. ) ;
#26 = DIRECTION ( 'NONE',  ( -1.000000000000000000, 0.000000000000000000, -0.000000000000000000 ) ) ;
#27 = CC_DESIGN_DATE_AND_TIME_ASSIGNMENT ( #177, #212, ( #282 ) ) ;
#28 = ORIENTED_EDGE ( 'NONE', *, *, #102, .T. ) ;
#29 = AXIS2_PLACEMENT_3D ( 'NONE', #409, #250, #331 ) ;
#30 = DIRECTION ( 'NONE',  ( 1.000000000000000000, 0.000000000000000000, -0.000000000000000000 ) ) ;
#31 = APPROVAL_PERSON_ORGANIZATION ( #306, #203, #170 ) ;
#32 = PERSON ( '未指定', '未指定', '未指定', ('未指定'), ('未指定'), ('未指定') ) ;
#33 = DIRECTION ( 'NONE',  ( 0.000000000000000000, 0.000000000000000000, -1.000000000000000000 ) ) ;
#34 = EDGE_CURVE ( 'NONE', #74, #425, #127, .T. ) ;
#35 = ORIENTED_EDGE ( 'NONE', *, *, #133, .T. ) ;
#36 = CC_DESIGN_DATE_AND_TIME_ASSIGNMENT ( #51, #8, ( #360 ) ) ;
#37 = DIRECTION ( 'NONE',  ( 0.000000000000000000, -1.000000000000000000, 0.000000000000000000 ) ) ;
#38 = VERTEX_POINT ( 'NONE', #450 ) ;
#39 = DATE_AND_TIME ( #405, #142 ) ;
#40 = AXIS2_PLACEMENT_3D ( 'NONE', #232, #37, #435 ) ;
#41 = CC_DESIGN_PERSON_AND_ORGANIZATION_ASSIGNMENT ( #327, #480, ( #73 ) ) ;
#42 = DIRECTION ( 'NONE',  ( -0.000000000000000000, -1.000000000000000000, -0.000000000000000000 ) ) ;
#43 = ORIENTED_EDGE ( 'NONE', *, *, #294, .F. ) ;
#44 = DIRECTION ( 'NONE',  ( 0.000000000000000000, -1.000000000000000000, 0.000000000000000000 ) ) ;
#45 = PERSON_AND_ORGANIZATION ( #32, #174 ) ;
#46 = EDGE_CURVE ( 'NONE', #489, #376, #209, .T. ) ;
#47 = AXIS2_PLACEMENT_3D ( 'NONE', #446, #369, #371 ) ;
#48 = VERTEX_POINT ( 'NONE', #88 ) ;
#49 = EDGE_LOOP ( 'NONE', ( #225, #124 ) ) ;
#50 = DIRECTION ( 'NONE',  ( 0.000000000000000000, 0.000000000000000000, -1.000000000000000000 ) ) ;
#51 = DATE_AND_TIME ( #448, #125 ) ;
#52 = CARTESIAN_POINT ( 'NONE',  ( 54.00000000000000000, 0.000000000000000000, 83.10000000000000853 ) ) ;
#53 = AXIS2_PLACEMENT_3D ( 'NONE', #423, #508, #144 ) ;
#54 = LINE ( 'NONE', #219, #244 ) ;
#55 = EDGE_CURVE ( 'NONE', #351, #526, #389, .T. ) ;
#56 = DIRECTION ( 'NONE',  ( 1.000000000000000000, -0.000000000000000000, 0.000000000000000000 ) ) ;
#57 = CALENDAR_DATE ( 2026, 26, 7 ) ;
#58 = LINE ( 'NONE', #97, #242 ) ;
#59 = DIRECTION ( 'NONE',  ( 0.000000000000000000, -1.000000000000000000, 0.000000000000000000 ) ) ;
#60 = VERTEX_POINT ( 'NONE', #372 ) ;
#61 = CYLINDRICAL_SURFACE ( 'NONE', #71, 1.600000000000004086 ) ;
#62 = ORIENTED_EDGE ( 'NONE', *, *, #102, .F. ) ;
#63 = CIRCLE ( 'NONE', #495, 1.600000000000004086 ) ;
#64 = DIRECTION ( 'NONE',  ( -0.000000000000000000, 1.000000000000000000, -0.000000000000000000 ) ) ;
#65 = ORIENTED_EDGE ( 'NONE', *, *, #246, .T. ) ;
#66 = CARTESIAN_POINT ( 'NONE',  ( 54.00000000000000000, 3.600000000000000089, -83.10000000000000853 ) ) ;
#67 = ORIENTED_EDGE ( 'NONE', *, *, #208, .T. ) ;
#68 = CARTESIAN_POINT ( 'NONE',  ( -54.00000000000000000, 0.000000000000000000, 83.10000000000000853 ) ) ;
#69 = ORIENTED_EDGE ( 'NONE', *, *, #368, .F. ) ;
#70 = FACE_OUTER_BOUND ( 'NONE', #116, .T. ) ;
#71 = AXIS2_PLACEMENT_3D ( 'NONE', #510, #503, #188 ) ;
#72 = ORIENTED_EDGE ( 'NONE', *, *, #414, .F. ) ;
#73 = PRODUCT ( 'FN-PCB-003_carrier_ROTATED-CCW_4HOLE_R0.4', 'FN-PCB-003_carrier_ROTATED-CCW_4HOLE_R0.4', '', ( #239 ) ) ;
#74 = VERTEX_POINT ( 'NONE', #336 ) ;
#75 = COORDINATED_UNIVERSAL_TIME_OFFSET ( 8, 0, .AHEAD. ) ;
#76 = DIRECTION ( 'NONE',  ( 0.000000000000000000, -1.000000000000000000, 0.000000000000000000 ) ) ;
#77 = AXIS2_PLACEMENT_3D ( 'NONE', #296, #449, #460 ) ;
#78 = AXIS2_PLACEMENT_3D ( 'NONE', #101, #190, #267 ) ;
#79 = EDGE_LOOP ( 'NONE', ( #25, #201, #191, #19 ) ) ;
#80 = LINE ( 'NONE', #249, #84 ) ;
#81 = EDGE_CURVE ( 'NONE', #366, #474, #367, .T. ) ;
#82 = CYLINDRICAL_SURFACE ( 'NONE', #281, 1.600000000000004086 ) ;
#83 = DATE_AND_TIME ( #493, #307 ) ;
#84 = VECTOR ( 'NONE', #76, 1000.000000000000000 ) ;
#85 = CARTESIAN_POINT ( 'NONE',  ( 54.00000000000000000, 3.600000000000000089, 81.50000000000000000 ) ) ;
#86 = AXIS2_PLACEMENT_3D ( 'NONE', #200, #401, #30 ) ;
#87 = ORIENTED_EDGE ( 'NONE', *, *, #230, .F. ) ;
#88 = CARTESIAN_POINT ( 'NONE',  ( 54.00000000000000000, 0.000000000000000000, -83.10000000000000853 ) ) ;
#89 = CARTESIAN_POINT ( 'NONE',  ( 54.00000000000000000, 1.599999999999999867, 81.50000000000000000 ) ) ;
#90 = LINE ( 'NONE', #180, #261 ) ;
#91 = LINE ( 'NONE', #213, #419 ) ;
#92 = CARTESIAN_POINT ( 'NONE',  ( -57.50000000000000000, 1.600000000000000089, -85.00000000000000000 ) ) ;
#93 = DIRECTION ( 'NONE',  ( 0.000000000000000000, 0.000000000000000000, -1.000000000000000000 ) ) ;
#94 = AXIS2_PLACEMENT_3D ( 'NONE', #334, #491, #293 ) ;
#95 = CARTESIAN_POINT ( 'NONE',  ( -54.00000000000000000, 0.000000000000000000, -83.10000000000000853 ) ) ;
#96 = CC_DESIGN_SECURITY_CLASSIFICATION ( #282, ( #252 ) ) ;
#97 = CARTESIAN_POINT ( 'NONE',  ( -57.50000000000000000, 0.000000000000000000, -85.00000000000000000 ) ) ;
#98 = DIRECTION ( 'NONE',  ( 0.000000000000000000, 0.000000000000000000, -1.000000000000000000 ) ) ;
#99 = DIRECTION ( 'NONE',  ( 0.000000000000000000, 0.000000000000000000, -1.000000000000000000 ) ) ;
#100 = VERTEX_POINT ( 'NONE', #256 ) ;
#101 = CARTESIAN_POINT ( 'NONE',  ( 54.00000000000000000, 3.600000000000000089, -81.50000000000000000 ) ) ;
#102 = EDGE_CURVE ( 'NONE', #467, #60, #437, .T. ) ;
#103 = CYLINDRICAL_SURFACE ( 'NONE', #153, 1.600000000000004086 ) ;
#104 = VERTEX_POINT ( 'NONE', #531 ) ;
#105 = PLANE ( 'NONE',  #202 ) ;
#106 = DIRECTION ( 'NONE',  ( 0.000000000000000000, -1.000000000000000000, 0.000000000000000000 ) ) ;
#107 = ORIENTED_EDGE ( 'NONE', *, *, #81, .F. ) ;
#108 = CLOSED_SHELL ( 'NONE', ( #237, #342, #403, #16, #433, #492, #264, #533, #192, #506, #349, #471, #475, #5 ) ) ;
#109 = CIRCLE ( 'NONE', #235, 1.600000000000004086 ) ;
#110 = PERSON_AND_ORGANIZATION ( #32, #174 ) ;
#111 = ORIENTED_EDGE ( 'NONE', *, *, #304, .F. ) ;
#112 = APPLICATION_PROTOCOL_DEFINITION ( 'international standard', 'config_control_design', 1994, #277 ) ;
#113 = EDGE_LOOP ( 'NONE', ( #65, #323, #69, #185 ) ) ;
#114 = EDGE_CURVE ( 'NONE', #474, #366, #397, .T. ) ;
#115 = CARTESIAN_POINT ( 'NONE',  ( -57.50000000000000000, 1.600000000000000089, 85.00000000000000000 ) ) ;
#116 = EDGE_LOOP ( 'NONE', ( #157, #278, #313, #432 ) ) ;
#117 = DIRECTION ( 'NONE',  ( 1.000000000000000000, 0.000000000000000000, 0.000000000000000000 ) ) ;
#118 = EDGE_CURVE ( 'NONE', #489, #74, #443, .T. ) ;
#119 = ORIENTED_EDGE ( 'NONE', *, *, #224, .T. ) ;
#120 = PERSON_AND_ORGANIZATION ( #32, #174 ) ;
#121 = ORIENTED_EDGE ( 'NONE', *, *, #385, .F. ) ;
#122 = CARTESIAN_POINT ( 'NONE',  ( 57.50000000000000000, 1.600000000000000089, 85.00000000000000000 ) ) ;
#123 = ORIENTED_EDGE ( 'NONE', *, *, #396, .F. ) ;
#124 = ORIENTED_EDGE ( 'NONE', *, *, #294, .T. ) ;
#125 = LOCAL_TIME ( 19, 25, 40.00000000000000000, #15 ) ;
#126 = LINE ( 'NONE', #483, #356 ) ;
#127 = LINE ( 'NONE', #207, #259 ) ;
#128 = APPROVAL_STATUS ( 'not_yet_approved' ) ;
#129 = FACE_OUTER_BOUND ( 'NONE', #481, .T. ) ;
#130 = DIRECTION ( 'NONE',  ( -0.000000000000000000, 1.000000000000000000, -0.000000000000000000 ) ) ;
#131 = ORIENTED_EDGE ( 'NONE', *, *, #254, .F. ) ;
#132 = FACE_OUTER_BOUND ( 'NONE', #394, .T. ) ;
#133 = EDGE_CURVE ( 'NONE', #351, #309, #80, .T. ) ;
#134 = FACE_OUTER_BOUND ( 'NONE', #361, .T. ) ;
#135 = CYLINDRICAL_SURFACE ( 'NONE', #78, 1.600000000000004086 ) ;
#136 = PERSON_AND_ORGANIZATION_ROLE ( 'creator' ) ;
#137 = DIRECTION ( 'NONE',  ( -0.000000000000000000, -0.000000000000000000, 1.000000000000000000 ) ) ;
#138 = DIRECTION ( 'NONE',  ( 0.000000000000000000, -1.000000000000000000, 0.000000000000000000 ) ) ;
#139 = PERSON_AND_ORGANIZATION ( #32, #174 ) ;
#140 = FACE_OUTER_BOUND ( 'NONE', #79, .T. ) ;
#141 = ORIENTED_EDGE ( 'NONE', *, *, #453, .F. ) ;
#142 = LOCAL_TIME ( 19, 25, 40.00000000000000000, #75 ) ;
#143 = EDGE_CURVE ( 'NONE', #438, #525, #243, .T. ) ;
#144 = DIRECTION ( 'NONE',  ( 0.000000000000000000, 0.000000000000000000, -1.000000000000000000 ) ) ;
#145 = DIRECTION ( 'NONE',  ( -0.000000000000000000, -1.000000000000000000, -0.000000000000000000 ) ) ;
#146 = FACE_OUTER_BOUND ( 'NONE', #440, .T. ) ;
#147 = EDGE_LOOP ( 'NONE', ( #28, #328, #151, #111 ) ) ;
#148 = CARTESIAN_POINT ( 'NONE',  ( -54.00000000000000000, 3.600000000000000089, -81.50000000000000000 ) ) ;
#149 = ORIENTED_EDGE ( 'NONE', *, *, #524, .F. ) ;
#150 = FACE_BOUND ( 'NONE', #284, .T. ) ;
#151 = ORIENTED_EDGE ( 'NONE', *, *, #484, .F. ) ;
#152 = VECTOR ( 'NONE', #382, 1000.000000000000000 ) ;
#153 = AXIS2_PLACEMENT_3D ( 'NONE', #268, #312, #93 ) ;
#154 = EDGE_CURVE ( 'NONE', #48, #100, #164, .T. ) ;
#155 = ORIENTED_EDGE ( 'NONE', *, *, #230, .T. ) ;
#156 = ORIENTED_EDGE ( 'NONE', *, *, #23, .T. ) ;
#157 = ORIENTED_EDGE ( 'NONE', *, *, #488, .F. ) ;
#158 = AXIS2_PLACEMENT_3D ( 'NONE', #392, #384, #176 ) ;
#159 = ORIENTED_EDGE ( 'NONE', *, *, #378, .T. ) ;
#160 = CARTESIAN_POINT ( 'NONE',  ( 54.00000000000000000, 0.000000000000000000, 81.50000000000000000 ) ) ;
#161 = CC_DESIGN_PERSON_AND_ORGANIZATION_ASSIGNMENT ( #45, #136, ( #252 ) ) ;
#162 = DIRECTION ( 'NONE',  ( 0.000000000000000000, 0.000000000000000000, -1.000000000000000000 ) ) ;
#163 = ORIENTED_EDGE ( 'NONE', *, *, #55, .T. ) ;
#164 = CIRCLE ( 'NONE', #528, 1.600000000000004086 ) ;
#165 = CIRCLE ( 'NONE', #205, 1.600000000000004086 ) ;
#166 = VECTOR ( 'NONE', #346, 1000.000000000000000 ) ;
#167 = ORIENTED_EDGE ( 'NONE', *, *, #23, .F. ) ;
#168 = COORDINATED_UNIVERSAL_TIME_OFFSET ( 8, 0, .AHEAD. ) ;
#169 = DIRECTION ( 'NONE',  ( 0.000000000000000000, 0.000000000000000000, -1.000000000000000000 ) ) ;
#170 = APPROVAL_ROLE ( '' ) ;
#171 = DIRECTION ( 'NONE',  ( 0.000000000000000000, 0.000000000000000000, -1.000000000000000000 ) ) ;
#172 = FACE_BOUND ( 'NONE', #354, .T. ) ;
#173 = AXIS2_PLACEMENT_3D ( 'NONE', #85, #255, #171 ) ;
#174 = ORGANIZATION ( '未指定', '未指定', '' ) ;
#175 = FACE_OUTER_BOUND ( 'NONE', #479, .T. ) ;
#176 = DIRECTION ( 'NONE',  ( 0.000000000000000000, 0.000000000000000000, -1.000000000000000000 ) ) ;
#177 = DATE_AND_TIME ( #504, #319 ) ;
#178 = LINE ( 'NONE', #345, #289 ) ;
#179 = ADVANCED_BREP_SHAPE_REPRESENTATION ( 'FN-PCB-003_carrier_ROTATED-CCW_4HOLE_R0.4', ( #388, #406 ), #421 ) ;
#180 = CARTESIAN_POINT ( 'NONE',  ( -57.50000000000000000, 0.000000000000000000, 85.00000000000000000 ) ) ;
#181 = APPROVAL_DATE_TIME ( #222, #434 ) ;
#182 = EDGE_CURVE ( 'NONE', #60, #467, #509, .T. ) ;
#183 = CARTESIAN_POINT ( 'NONE',  ( -54.00000000000000000, 0.000000000000000000, 81.50000000000000000 ) ) ;
#184 = FACE_OUTER_BOUND ( 'NONE', #3, .T. ) ;
#185 = ORIENTED_EDGE ( 'NONE', *, *, #414, .T. ) ;
#186 = AXIS2_PLACEMENT_3D ( 'NONE', #355, #273, #33 ) ;
#187 = FACE_BOUND ( 'NONE', #240, .T. ) ;
#188 = DIRECTION ( 'NONE',  ( 0.000000000000000000, 0.000000000000000000, -1.000000000000000000 ) ) ;
#189 = EDGE_LOOP ( 'NONE', ( #67, #444, #364, #156 ) ) ;
#190 = DIRECTION ( 'NONE',  ( 0.000000000000000000, -1.000000000000000000, 0.000000000000000000 ) ) ;
#191 = ORIENTED_EDGE ( 'NONE', *, *, #114, .F. ) ;
#192 = ADVANCED_FACE ( 'NONE', ( #418, #172, #455, #187, #175 ), #105, .F. ) ;
#193 = ORIENTED_EDGE ( 'NONE', *, *, #333, .T. ) ;
#194 = AXIS2_PLACEMENT_3D ( 'NONE', #413, #287, #50 ) ;
#195 = DIRECTION ( 'NONE',  ( 0.000000000000000000, 0.000000000000000000, 1.000000000000000000 ) ) ;
#196 = ORIENTED_EDGE ( 'NONE', *, *, #288, .F. ) ;
#197 = CARTESIAN_POINT ( 'NONE',  ( -54.00000000000000000, 1.599999999999999867, -83.10000000000000853 ) ) ;
#198 = EDGE_CURVE ( 'NONE', #100, #48, #63, .T. ) ;
#199 = VERTEX_POINT ( 'NONE', #464 ) ;
#200 = CARTESIAN_POINT ( 'NONE',  ( -57.50000000000000000, 1.600000000000000089, -85.00000000000000000 ) ) ;
#201 = ORIENTED_EDGE ( 'NONE', *, *, #271, .T. ) ;
#202 = AXIS2_PLACEMENT_3D ( 'NONE', #498, #513, #220 ) ;
#203 = APPROVAL ( #128, '未指定' ) ;
#204 = DIRECTION ( 'NONE',  ( 0.000000000000000000, 0.000000000000000000, -1.000000000000000000 ) ) ;
#205 = AXIS2_PLACEMENT_3D ( 'NONE', #183, #18, #417 ) ;
#206 = DIRECTION ( 'NONE',  ( 0.000000000000000000, 1.000000000000000000, 0.000000000000000000 ) ) ;
#207 = CARTESIAN_POINT ( 'NONE',  ( 57.50000000000000000, 0.000000000000000000, 85.00000000000000000 ) ) ;
#208 = EDGE_CURVE ( 'NONE', #425, #525, #58, .T. ) ;
#209 = LINE ( 'NONE', #292, #234 ) ;
#210 = CIRCLE ( 'NONE', #186, 1.600000000000004086 ) ;
#211 = CARTESIAN_POINT ( 'NONE',  ( -54.00000000000000000, 3.600000000000000089, 81.50000000000000000 ) ) ;
#212 = DATE_TIME_ROLE ( 'classification_date' ) ;
#213 = CARTESIAN_POINT ( 'NONE',  ( -57.50000000000000000, 0.000000000000000000, 85.00000000000000000 ) ) ;
#214 = EDGE_CURVE ( 'NONE', #376, #438, #263, .T. ) ;
#215 = ORIENTED_EDGE ( 'NONE', *, *, #385, .T. ) ;
#216 = CARTESIAN_POINT ( 'NONE',  ( 57.50000000000000000, 1.600000000000000089, 85.00000000000000000 ) ) ;
#217 = VECTOR ( 'NONE', #42, 1000.000000000000000 ) ;
#218 = VECTOR ( 'NONE', #138, 1000.000000000000000 ) ;
#219 = CARTESIAN_POINT ( 'NONE',  ( -54.00000000000000000, 3.600000000000000089, 79.90000000000000568 ) ) ;
#220 = DIRECTION ( 'NONE',  ( 0.000000000000000000, -0.000000000000000000, -1.000000000000000000 ) ) ;
#221 = LINE ( 'NONE', #228, #478 ) ;
#222 = DATE_AND_TIME ( #57, #451 ) ;
#223 = CARTESIAN_POINT ( 'NONE',  ( 54.00000000000000000, 3.600000000000000089, -79.90000000000000568 ) ) ;
#224 = EDGE_CURVE ( 'NONE', #438, #269, #178, .T. ) ;
#225 = ORIENTED_EDGE ( 'NONE', *, *, #315, .T. ) ;
#226 = CARTESIAN_POINT ( 'NONE',  ( 54.00000000000000000, 3.600000000000000089, -81.50000000000000000 ) ) ;
#227 = ORIENTED_EDGE ( 'NONE', *, *, #488, .T. ) ;
#228 = CARTESIAN_POINT ( 'NONE',  ( -54.00000000000000000, 3.600000000000000089, 83.10000000000000853 ) ) ;
#229 = ORIENTED_EDGE ( 'NONE', *, *, #46, .F. ) ;
#230 = EDGE_CURVE ( 'NONE', #104, #291, #520, .T. ) ;
#231 = EDGE_LOOP ( 'NONE', ( #196, #87 ) ) ;
#232 = CARTESIAN_POINT ( 'NONE',  ( 0.000000000000000000, 0.000000000000000000, 0.000000000000000000 ) ) ;
#233 = ORIENTED_EDGE ( 'NONE', *, *, #484, .T. ) ;
#234 = VECTOR ( 'NONE', #169, 1000.000000000000000 ) ;
#235 = AXIS2_PLACEMENT_3D ( 'NONE', #457, #511, #9 ) ;
#236 = CC_DESIGN_APPROVAL ( #317, ( #360 ) ) ;
#237 = ADVANCED_FACE ( 'NONE', ( #140 ), #339, .F. ) ;
#238 = ORIENTED_EDGE ( 'NONE', *, *, #518, .F. ) ;
#239 = MECHANICAL_CONTEXT ( 'NONE', #248, 'mechanical' ) ;
#240 = EDGE_LOOP ( 'NONE', ( #62, #318 ) ) ;
#241 =( LENGTH_UNIT ( ) NAMED_UNIT ( * ) SI_UNIT ( .MILLI., .METRE. ) );
#242 = VECTOR ( 'NONE', #458, 1000.000000000000000 ) ;
#243 = LINE ( 'NONE', #407, #217 ) ;
#244 = VECTOR ( 'NONE', #299, 1000.000000000000000 ) ;
#245 = AXIS2_PLACEMENT_3D ( 'NONE', #314, #468, #456 ) ;
#246 = EDGE_CURVE ( 'NONE', #463, #74, #91, .T. ) ;
#247 = CARTESIAN_POINT ( 'NONE',  ( 54.00000000000000000, 0.000000000000000000, -81.50000000000000000 ) ) ;
#248 = APPLICATION_CONTEXT ( 'configuration controlled 3d designs of mechanical parts and assemblies' ) ;
#249 = CARTESIAN_POINT ( 'NONE',  ( -54.00000000000000000, 3.600000000000000089, -79.90000000000000568 ) ) ;
#250 = DIRECTION ( 'NONE',  ( 0.000000000000000000, -1.000000000000000000, 0.000000000000000000 ) ) ;
#251 = VECTOR ( 'NONE', #1, 1000.000000000000000 ) ;
#252 = PRODUCT_DEFINITION_FORMATION_WITH_SPECIFIED_SOURCE ( '任何', '', #73, .NOT_KNOWN. ) ;
#253 = COORDINATED_UNIVERSAL_TIME_OFFSET ( 8, 0, .AHEAD. ) ;
#254 = EDGE_CURVE ( 'NONE', #523, #316, #165, .T. ) ;
#255 = DIRECTION ( 'NONE',  ( 0.000000000000000000, -1.000000000000000000, 0.000000000000000000 ) ) ;
#256 = CARTESIAN_POINT ( 'NONE',  ( 54.00000000000000000, 0.000000000000000000, -79.90000000000000568 ) ) ;
#257 = DIRECTION ( 'NONE',  ( -0.000000000000000000, -0.000000000000000000, 1.000000000000000000 ) ) ;
#258 = CARTESIAN_POINT ( 'NONE',  ( 57.50000000000000000, 0.000000000000000000, -85.00000000000000000 ) ) ;
#259 = VECTOR ( 'NONE', #487, 1000.000000000000000 ) ;
#260 = AXIS2_PLACEMENT_3D ( 'NONE', #89, #130, #99 ) ;
#261 = VECTOR ( 'NONE', #257, 1000.000000000000000 ) ;
#262 = LINE ( 'NONE', #466, #380 ) ;
#263 = LINE ( 'NONE', #92, #152 ) ;
#264 = ADVANCED_FACE ( 'NONE', ( #134 ), #303, .F. ) ;
#265 = CARTESIAN_POINT ( 'NONE',  ( -57.50000000000000000, 1.600000000000000089, 85.00000000000000000 ) ) ;
#266 = EDGE_LOOP ( 'NONE', ( #141, #272, #344, #402 ) ) ;
#267 = DIRECTION ( 'NONE',  ( 0.000000000000000000, 0.000000000000000000, -1.000000000000000000 ) ) ;
#268 = CARTESIAN_POINT ( 'NONE',  ( -54.00000000000000000, 3.600000000000000089, -81.50000000000000000 ) ) ;
#269 = VERTEX_POINT ( 'NONE', #337 ) ;
#270 = FACE_OUTER_BOUND ( 'NONE', #266, .T. ) ;
#271 = EDGE_CURVE ( 'NONE', #104, #366, #377, .T. ) ;
#272 = ORIENTED_EDGE ( 'NONE', *, *, #524, .T. ) ;
#273 = DIRECTION ( 'NONE',  ( -0.000000000000000000, 1.000000000000000000, -0.000000000000000000 ) ) ;
#274 = ORIENTED_EDGE ( 'NONE', *, *, #224, .F. ) ;
#275 = CC_DESIGN_PERSON_AND_ORGANIZATION_ASSIGNMENT ( #110, #276, ( #360 ) ) ;
#276 = PERSON_AND_ORGANIZATION_ROLE ( 'creator' ) ;
#277 = APPLICATION_CONTEXT ( 'configuration controlled 3d designs of mechanical parts and assemblies' ) ;
#278 = ORIENTED_EDGE ( 'NONE', *, *, #208, .F. ) ;
#279 = FACE_BOUND ( 'NONE', #442, .T. ) ;
#280 = ORIENTED_EDGE ( 'NONE', *, *, #143, .T. ) ;
#281 = AXIS2_PLACEMENT_3D ( 'NONE', #211, #44, #373 ) ;
#282 = SECURITY_CLASSIFICATION ( '', '', #335 ) ;
#283 = CC_DESIGN_PERSON_AND_ORGANIZATION_ASSIGNMENT ( #139, #12, ( #252 ) ) ;
#284 = EDGE_LOOP ( 'NONE', ( #290, #519 ) ) ;
#285 = APPROVAL_STATUS ( 'not_yet_approved' ) ;
#286 = EDGE_LOOP ( 'NONE', ( #121, #149 ) ) ;
#287 = DIRECTION ( 'NONE',  ( -0.000000000000000000, 1.000000000000000000, -0.000000000000000000 ) ) ;
#288 = EDGE_CURVE ( 'NONE', #291, #104, #338, .T. ) ;
#289 = VECTOR ( 'NONE', #137, 1000.000000000000000 ) ;
#290 = ORIENTED_EDGE ( 'NONE', *, *, #114, .T. ) ;
#291 = VERTEX_POINT ( 'NONE', #347 ) ;
#292 = CARTESIAN_POINT ( 'NONE',  ( 57.50000000000000000, 1.600000000000000089, 85.00000000000000000 ) ) ;
#293 = DIRECTION ( 'NONE',  ( 0.000000000000000000, 0.000000000000000000, 1.000000000000000000 ) ) ;
#294 = EDGE_CURVE ( 'NONE', #309, #321, #109, .T. ) ;
#295 = PERSON_AND_ORGANIZATION ( #32, #174 ) ;
#296 = CARTESIAN_POINT ( 'NONE',  ( -54.00000000000000000, 0.000000000000000000, -81.50000000000000000 ) ) ;
#297 = ORIENTED_EDGE ( 'NONE', *, *, #214, .T. ) ;
#298 = AXIS2_PLACEMENT_3D ( 'NONE', #408, #532, #162 ) ;
#299 = DIRECTION ( 'NONE',  ( 0.000000000000000000, -1.000000000000000000, 0.000000000000000000 ) ) ;
#300 = DIRECTION ( 'NONE',  ( 0.000000000000000000, 0.000000000000000000, -1.000000000000000000 ) ) ;
#301 = FACE_OUTER_BOUND ( 'NONE', #113, .T. ) ;
#302 = APPROVAL_DATE_TIME ( #83, #203 ) ;
#303 = PLANE ( 'NONE',  #485 ) ;
#304 = EDGE_CURVE ( 'NONE', #467, #316, #54, .T. ) ;
#305 = PLANE ( 'NONE',  #470 ) ;
#306 = PERSON_AND_ORGANIZATION ( #32, #174 ) ;
#307 = LOCAL_TIME ( 19, 25, 40.00000000000000000, #501 ) ;
#308 = DIRECTION ( 'NONE',  ( -1.000000000000000000, 0.000000000000000000, 0.000000000000000000 ) ) ;
#309 = VERTEX_POINT ( 'NONE', #13 ) ;
#310 = DIRECTION ( 'NONE',  ( 0.000000000000000000, 0.000000000000000000, 1.000000000000000000 ) ) ;
#311 = CARTESIAN_POINT ( 'NONE',  ( 57.50000000000000000, 1.600000000000000089, -85.00000000000000000 ) ) ;
#312 = DIRECTION ( 'NONE',  ( 0.000000000000000000, -1.000000000000000000, 0.000000000000000000 ) ) ;
#313 = ORIENTED_EDGE ( 'NONE', *, *, #34, .F. ) ;
#314 = CARTESIAN_POINT ( 'NONE',  ( -54.00000000000000000, 0.000000000000000000, 81.50000000000000000 ) ) ;
#315 = EDGE_CURVE ( 'NONE', #321, #309, #2, .T. ) ;
#316 = VERTEX_POINT ( 'NONE', #454 ) ;
#317 = APPROVAL ( #285, '未指定' ) ;
#318 = ORIENTED_EDGE ( 'NONE', *, *, #182, .F. ) ;
#319 = LOCAL_TIME ( 19, 25, 40.00000000000000000, #253 ) ;
#320 = CARTESIAN_POINT ( 'NONE',  ( 0.000000000000000000, 0.000000000000000000, 0.000000000000000000 ) ) ;
#321 = VERTEX_POINT ( 'NONE', #95 ) ;
#322 =( NAMED_UNIT ( * ) SI_UNIT ( $, .STERADIAN. ) SOLID_ANGLE_UNIT ( ) );
#323 = ORIENTED_EDGE ( 'NONE', *, *, #118, .F. ) ;
#324 = DIRECTION ( 'NONE',  ( 0.000000000000000000, -1.000000000000000000, 0.000000000000000000 ) ) ;
#325 = ORIENTED_EDGE ( 'NONE', *, *, #445, .F. ) ;
#326 = AXIS2_PLACEMENT_3D ( 'NONE', #148, #415, #300 ) ;
#327 = PERSON_AND_ORGANIZATION ( #32, #174 ) ;
#328 = ORIENTED_EDGE ( 'NONE', *, *, #445, .T. ) ;
#329 = DIRECTION ( 'NONE',  ( 0.000000000000000000, 1.000000000000000000, 0.000000000000000000 ) ) ;
#330 = EDGE_LOOP ( 'NONE', ( #325, #512, #404, #131 ) ) ;
#331 = DIRECTION ( 'NONE',  ( 0.000000000000000000, 0.000000000000000000, -1.000000000000000000 ) ) ;
#332 = VECTOR ( 'NONE', #324, 1000.000000000000000 ) ;
#333 = EDGE_CURVE ( 'NONE', #526, #321, #262, .T. ) ;
#334 = CARTESIAN_POINT ( 'NONE',  ( 54.00000000000000000, 0.000000000000000000, 81.50000000000000000 ) ) ;
#335 = SECURITY_CLASSIFICATION_LEVEL ( 'unclassified' ) ;
#336 = CARTESIAN_POINT ( 'NONE',  ( 57.50000000000000000, 0.000000000000000000, 85.00000000000000000 ) ) ;
#337 = CARTESIAN_POINT ( 'NONE',  ( -57.50000000000000000, 1.600000000000000089, 85.00000000000000000 ) ) ;
#338 = CIRCLE ( 'NONE', #260, 1.600000000000004086 ) ;
#339 = CYLINDRICAL_SURFACE ( 'NONE', #173, 1.600000000000004086 ) ;
#340 = CARTESIAN_POINT ( 'NONE',  ( 54.00000000000000000, 0.000000000000000000, -81.50000000000000000 ) ) ;
#341 = LINE ( 'NONE', #265, #422 ) ;
#342 = ADVANCED_FACE ( 'NONE', ( #146 ), #103, .F. ) ;
#343 = CARTESIAN_POINT ( 'NONE',  ( -57.50000000000000000, 1.600000000000000089, 85.00000000000000000 ) ) ;
#344 = ORIENTED_EDGE ( 'NONE', *, *, #518, .T. ) ;
#345 = CARTESIAN_POINT ( 'NONE',  ( -57.50000000000000000, 1.600000000000000089, 85.00000000000000000 ) ) ;
#346 = DIRECTION ( 'NONE',  ( 0.000000000000000000, -1.000000000000000000, 0.000000000000000000 ) ) ;
#347 = CARTESIAN_POINT ( 'NONE',  ( 54.00000000000000000, 1.599999999999999867, 79.90000000000000568 ) ) ;
#348 = ORIENTED_EDGE ( 'NONE', *, *, #46, .T. ) ;
#349 = ADVANCED_FACE ( 'NONE', ( #459 ), #61, .F. ) ;
#350 = FACE_OUTER_BOUND ( 'NONE', #430, .T. ) ;
#351 = VERTEX_POINT ( 'NONE', #429 ) ;
#352 = CARTESIAN_POINT ( 'NONE',  ( 54.00000000000000000, 3.600000000000000089, 79.90000000000000568 ) ) ;
#353 = PRODUCT_RELATED_PRODUCT_CATEGORY ( 'detail', '', ( #73 ) ) ;
#354 = EDGE_LOOP ( 'NONE', ( #123, #357 ) ) ;
#355 = CARTESIAN_POINT ( 'NONE',  ( 54.00000000000000000, 1.599999999999999867, -81.50000000000000000 ) ) ;
#356 = VECTOR ( 'NONE', #7, 1000.000000000000000 ) ;
#357 = ORIENTED_EDGE ( 'NONE', *, *, #55, .F. ) ;
#358 = AXIS2_PLACEMENT_3D ( 'NONE', #226, #106, #379 ) ;
#359 = LINE ( 'NONE', #66, #332 ) ;
#360 = PRODUCT_DEFINITION ( '未知', '', #252, #515 ) ;
#361 = EDGE_LOOP ( 'NONE', ( #507, #167, #229, #386 ) ) ;
#362 = CC_DESIGN_PERSON_AND_ORGANIZATION_ASSIGNMENT ( #295, #490, ( #282 ) ) ;
#363 = FACE_OUTER_BOUND ( 'NONE', #189, .T. ) ;
#364 = ORIENTED_EDGE ( 'NONE', *, *, #214, .F. ) ;
#365 = FACE_BOUND ( 'NONE', #473, .T. ) ;
#366 = VERTEX_POINT ( 'NONE', #52 ) ;
#367 = CIRCLE ( 'NONE', #94, 1.600000000000004086 ) ;
#368 = EDGE_CURVE ( 'NONE', #269, #489, #11, .T. ) ;
#369 = DIRECTION ( 'NONE',  ( -0.000000000000000000, 1.000000000000000000, -0.000000000000000000 ) ) ;
#370 = DIRECTION ( 'NONE',  ( 0.000000000000000000, 0.000000000000000000, 1.000000000000000000 ) ) ;
#371 = DIRECTION ( 'NONE',  ( 0.000000000000000000, 0.000000000000000000, -1.000000000000000000 ) ) ;
#372 = CARTESIAN_POINT ( 'NONE',  ( -54.00000000000000000, 1.599999999999999867, 83.10000000000000853 ) ) ;
#373 = DIRECTION ( 'NONE',  ( 0.000000000000000000, 0.000000000000000000, -1.000000000000000000 ) ) ;
#374 = APPROVAL_STATUS ( 'not_yet_approved' ) ;
#375 = CARTESIAN_POINT ( 'NONE',  ( 54.00000000000000000, 3.600000000000000089, 83.10000000000000853 ) ) ;
#376 = VERTEX_POINT ( 'NONE', #311 ) ;
#377 = LINE ( 'NONE', #375, #497 ) ;
#378 = EDGE_CURVE ( 'NONE', #291, #474, #24, .T. ) ;
#379 = DIRECTION ( 'NONE',  ( 0.000000000000000000, 0.000000000000000000, -1.000000000000000000 ) ) ;
#380 = VECTOR ( 'NONE', #427, 1000.000000000000000 ) ;
#381 = CC_DESIGN_APPROVAL ( #203, ( #282 ) ) ;
#382 = DIRECTION ( 'NONE',  ( -1.000000000000000000, -0.000000000000000000, -0.000000000000000000 ) ) ;
#383 = PLANE ( 'NONE',  #399 ) ;
#384 = DIRECTION ( 'NONE',  ( -0.000000000000000000, 1.000000000000000000, -0.000000000000000000 ) ) ;
#385 = EDGE_CURVE ( 'NONE', #38, #199, #522, .T. ) ;
#386 = ORIENTED_EDGE ( 'NONE', *, *, #118, .T. ) ;
#387 = CARTESIAN_POINT ( 'NONE',  ( -54.00000000000000000, 1.599999999999999867, -81.50000000000000000 ) ) ;
#388 = MANIFOLD_SOLID_BREP ( '切除-拉伸1', #108 ) ;
#389 = CIRCLE ( 'NONE', #47, 1.600000000000004086 ) ;
#390 = APPROVAL_PERSON_ORGANIZATION ( #120, #317, #441 ) ;
#391 = ORIENTED_EDGE ( 'NONE', *, *, #368, .T. ) ;
#392 = CARTESIAN_POINT ( 'NONE',  ( 54.00000000000000000, 1.599999999999999867, -81.50000000000000000 ) ) ;
#393 = ORIENTED_EDGE ( 'NONE', *, *, #254, .T. ) ;
#394 = EDGE_LOOP ( 'NONE', ( #428, #163, #193, #43 ) ) ;
#395 = CARTESIAN_POINT ( 'NONE',  ( -57.50000000000000000, 0.000000000000000000, -85.00000000000000000 ) ) ;
#396 = EDGE_CURVE ( 'NONE', #526, #351, #411, .T. ) ;
#397 = CIRCLE ( 'NONE', #477, 1.600000000000004086 ) ;
#398 = VECTOR ( 'NONE', #500, 1000.000000000000000 ) ;
#399 = AXIS2_PLACEMENT_3D ( 'NONE', #115, #204, #26 ) ;
#400 = ORIENTED_EDGE ( 'NONE', *, *, #453, .T. ) ;
#401 = DIRECTION ( 'NONE',  ( 0.000000000000000000, 0.000000000000000000, 1.000000000000000000 ) ) ;
#402 = ORIENTED_EDGE ( 'NONE', *, *, #198, .F. ) ;
#403 = ADVANCED_FACE ( 'NONE', ( #184 ), #514, .F. ) ;
#404 = ORIENTED_EDGE ( 'NONE', *, *, #304, .T. ) ;
#405 = CALENDAR_DATE ( 2026, 26, 7 ) ;
#406 = AXIS2_PLACEMENT_3D ( 'NONE', #320, #195, #117 ) ;
#407 = CARTESIAN_POINT ( 'NONE',  ( -57.50000000000000000, 1.600000000000000089, -85.00000000000000000 ) ) ;
#408 = CARTESIAN_POINT ( 'NONE',  ( -54.00000000000000000, 1.599999999999999867, 81.50000000000000000 ) ) ;
#409 = CARTESIAN_POINT ( 'NONE',  ( 54.00000000000000000, 3.600000000000000089, 81.50000000000000000 ) ) ;
#410 = FACE_OUTER_BOUND ( 'NONE', #147, .T. ) ;
#411 = CIRCLE ( 'NONE', #21, 1.600000000000004086 ) ;
#412 = ORIENTED_EDGE ( 'NONE', *, *, #198, .T. ) ;
#413 = CARTESIAN_POINT ( 'NONE',  ( -54.00000000000000000, 1.599999999999999867, 81.50000000000000000 ) ) ;
#414 = EDGE_CURVE ( 'NONE', #269, #463, #341, .T. ) ;
#415 = DIRECTION ( 'NONE',  ( 0.000000000000000000, -1.000000000000000000, 0.000000000000000000 ) ) ;
#416 = APPROVAL_ROLE ( '' ) ;
#417 = DIRECTION ( 'NONE',  ( 0.000000000000000000, 0.000000000000000000, 1.000000000000000000 ) ) ;
#418 = FACE_BOUND ( 'NONE', #231, .T. ) ;
#419 = VECTOR ( 'NONE', #502, 1000.000000000000000 ) ;
#420 = CARTESIAN_POINT ( 'NONE',  ( -57.50000000000000000, 1.600000000000000089, 85.00000000000000000 ) ) ;
#421 =( GEOMETRIC_REPRESENTATION_CONTEXT ( 3 ) GLOBAL_UNCERTAINTY_ASSIGNED_CONTEXT ( ( #521 ) ) GLOBAL_UNIT_ASSIGNED_CONTEXT ( ( #241, #436, #322 ) ) REPRESENTATION_CONTEXT ( 'NONE', 'WORKASPACE' ) );
#422 = VECTOR ( 'NONE', #145, 1000.000000000000000 ) ;
#423 = CARTESIAN_POINT ( 'NONE',  ( 54.00000000000000000, 1.599999999999999867, 81.50000000000000000 ) ) ;
#424 = CARTESIAN_POINT ( 'NONE',  ( -57.50000000000000000, 1.600000000000000089, -85.00000000000000000 ) ) ;
#425 = VERTEX_POINT ( 'NONE', #258 ) ;
#426 = CARTESIAN_POINT ( 'NONE',  ( 54.00000000000000000, 0.000000000000000000, 79.90000000000000568 ) ) ;
#427 = DIRECTION ( 'NONE',  ( 0.000000000000000000, -1.000000000000000000, 0.000000000000000000 ) ) ;
#428 = ORIENTED_EDGE ( 'NONE', *, *, #133, .F. ) ;
#429 = CARTESIAN_POINT ( 'NONE',  ( -54.00000000000000000, 1.599999999999999867, -79.90000000000000568 ) ) ;
#430 = EDGE_LOOP ( 'NONE', ( #227, #72, #274, #280 ) ) ;
#431 = FACE_BOUND ( 'NONE', #49, .T. ) ;
#432 = ORIENTED_EDGE ( 'NONE', *, *, #246, .F. ) ;
#433 = ADVANCED_FACE ( 'NONE', ( #350 ), #305, .F. ) ;
#434 = APPROVAL ( #374, '未指定' ) ;
#435 = DIRECTION ( 'NONE',  ( 0.000000000000000000, -0.000000000000000000, -1.000000000000000000 ) ) ;
#436 =( NAMED_UNIT ( * ) PLANE_ANGLE_UNIT ( ) SI_UNIT ( $, .RADIAN. ) );
#437 = CIRCLE ( 'NONE', #194, 1.600000000000004086 ) ;
#438 = VERTEX_POINT ( 'NONE', #424 ) ;
#439 = PLANE ( 'NONE',  #86 ) ;
#440 = EDGE_LOOP ( 'NONE', ( #22, #35, #472, #530 ) ) ;
#441 = APPROVAL_ROLE ( '' ) ;
#442 = EDGE_LOOP ( 'NONE', ( #469, #412 ) ) ;
#443 = LINE ( 'NONE', #122, #251 ) ;
#444 = ORIENTED_EDGE ( 'NONE', *, *, #143, .F. ) ;
#445 = EDGE_CURVE ( 'NONE', #60, #523, #221, .T. ) ;
#446 = CARTESIAN_POINT ( 'NONE',  ( -54.00000000000000000, 1.599999999999999867, -81.50000000000000000 ) ) ;
#447 = CYLINDRICAL_SURFACE ( 'NONE', #29, 1.600000000000004086 ) ;
#448 = CALENDAR_DATE ( 2026, 26, 7 ) ;
#449 = DIRECTION ( 'NONE',  ( 0.000000000000000000, 1.000000000000000000, 0.000000000000000000 ) ) ;
#450 = CARTESIAN_POINT ( 'NONE',  ( 54.00000000000000000, 1.599999999999999867, -83.10000000000000853 ) ) ;
#451 = LOCAL_TIME ( 19, 25, 40.00000000000000000, #168 ) ;
#452 = SHAPE_DEFINITION_REPRESENTATION ( #6, #179 ) ;
#453 = EDGE_CURVE ( 'NONE', #199, #100, #20, .T. ) ;
#454 = CARTESIAN_POINT ( 'NONE',  ( -54.00000000000000000, 0.000000000000000000, 79.90000000000000568 ) ) ;
#455 = FACE_BOUND ( 'NONE', #286, .T. ) ;
#456 = DIRECTION ( 'NONE',  ( 0.000000000000000000, 0.000000000000000000, 1.000000000000000000 ) ) ;
#457 = CARTESIAN_POINT ( 'NONE',  ( -54.00000000000000000, 0.000000000000000000, -81.50000000000000000 ) ) ;
#458 = DIRECTION ( 'NONE',  ( -1.000000000000000000, -0.000000000000000000, -0.000000000000000000 ) ) ;
#459 = FACE_OUTER_BOUND ( 'NONE', #330, .T. ) ;
#460 = DIRECTION ( 'NONE',  ( 0.000000000000000000, 0.000000000000000000, 1.000000000000000000 ) ) ;
#461 = DIRECTION ( 'NONE',  ( 0.000000000000000000, 0.000000000000000000, -1.000000000000000000 ) ) ;
#462 = DIRECTION ( 'NONE',  ( 0.000000000000000000, 0.000000000000000000, 1.000000000000000000 ) ) ;
#463 = VERTEX_POINT ( 'NONE', #17 ) ;
#464 = CARTESIAN_POINT ( 'NONE',  ( 54.00000000000000000, 1.599999999999999867, -79.90000000000000568 ) ) ;
#465 = CARTESIAN_POINT ( 'NONE',  ( -54.00000000000000000, 1.599999999999999867, 79.90000000000000568 ) ) ;
#466 = CARTESIAN_POINT ( 'NONE',  ( -54.00000000000000000, 3.600000000000000089, -83.10000000000000853 ) ) ;
#467 = VERTEX_POINT ( 'NONE', #465 ) ;
#468 = DIRECTION ( 'NONE',  ( 0.000000000000000000, 1.000000000000000000, 0.000000000000000000 ) ) ;
#469 = ORIENTED_EDGE ( 'NONE', *, *, #154, .T. ) ;
#470 = AXIS2_PLACEMENT_3D ( 'NONE', #343, #56, #98 ) ;
#471 = ADVANCED_FACE ( 'NONE', ( #270 ), #135, .F. ) ;
#472 = ORIENTED_EDGE ( 'NONE', *, *, #315, .F. ) ;
#473 = EDGE_LOOP ( 'NONE', ( #233, #393 ) ) ;
#474 = VERTEX_POINT ( 'NONE', #426 ) ;
#475 = ADVANCED_FACE ( 'NONE', ( #132 ), #14, .F. ) ;
#476 = APPLICATION_PROTOCOL_DEFINITION ( 'international standard', 'config_control_design', 1994, #248 ) ;
#477 = AXIS2_PLACEMENT_3D ( 'NONE', #160, #329, #482 ) ;
#478 = VECTOR ( 'NONE', #59, 1000.000000000000000 ) ;
#479 = EDGE_LOOP ( 'NONE', ( #119, #391, #348, #297 ) ) ;
#480 = PERSON_AND_ORGANIZATION_ROLE ( 'design_owner' ) ;
#481 = EDGE_LOOP ( 'NONE', ( #516, #155, #159, #107 ) ) ;
#482 = DIRECTION ( 'NONE',  ( 0.000000000000000000, 0.000000000000000000, 1.000000000000000000 ) ) ;
#483 = CARTESIAN_POINT ( 'NONE',  ( 57.50000000000000000, 1.600000000000000089, -85.00000000000000000 ) ) ;
#484 = EDGE_CURVE ( 'NONE', #316, #523, #486, .T. ) ;
#485 = AXIS2_PLACEMENT_3D ( 'NONE', #505, #308, #462 ) ;
#486 = CIRCLE ( 'NONE', #245, 1.600000000000004086 ) ;
#487 = DIRECTION ( 'NONE',  ( 0.000000000000000000, 0.000000000000000000, -1.000000000000000000 ) ) ;
#488 = EDGE_CURVE ( 'NONE', #525, #463, #90, .T. ) ;
#489 = VERTEX_POINT ( 'NONE', #216 ) ;
#490 = PERSON_AND_ORGANIZATION_ROLE ( 'classification_officer' ) ;
#491 = DIRECTION ( 'NONE',  ( 0.000000000000000000, 1.000000000000000000, 0.000000000000000000 ) ) ;
#492 = ADVANCED_FACE ( 'NONE', ( #301 ), #383, .F. ) ;
#493 = CALENDAR_DATE ( 2026, 26, 7 ) ;
#494 = DIRECTION ( 'NONE',  ( 0.000000000000000000, -1.000000000000000000, 0.000000000000000000 ) ) ;
#495 = AXIS2_PLACEMENT_3D ( 'NONE', #340, #499, #310 ) ;
#496 = ORIENTED_EDGE ( 'NONE', *, *, #154, .F. ) ;
#497 = VECTOR ( 'NONE', #494, 1000.000000000000000 ) ;
#498 = CARTESIAN_POINT ( 'NONE',  ( 0.000000000000000000, 1.600000000000000089, 0.000000000000000000 ) ) ;
#499 = DIRECTION ( 'NONE',  ( 0.000000000000000000, 1.000000000000000000, 0.000000000000000000 ) ) ;
#500 = DIRECTION ( 'NONE',  ( 1.000000000000000000, 0.000000000000000000, 0.000000000000000000 ) ) ;
#501 = COORDINATED_UNIVERSAL_TIME_OFFSET ( 8, 0, .AHEAD. ) ;
#502 = DIRECTION ( 'NONE',  ( 1.000000000000000000, 0.000000000000000000, 0.000000000000000000 ) ) ;
#503 = DIRECTION ( 'NONE',  ( 0.000000000000000000, -1.000000000000000000, 0.000000000000000000 ) ) ;
#504 = CALENDAR_DATE ( 2026, 26, 7 ) ;
#505 = CARTESIAN_POINT ( 'NONE',  ( 57.50000000000000000, 1.600000000000000089, 85.00000000000000000 ) ) ;
#506 = ADVANCED_FACE ( 'NONE', ( #150, #431, #279, #365, #70 ), #527, .T. ) ;
#507 = ORIENTED_EDGE ( 'NONE', *, *, #34, .T. ) ;
#508 = DIRECTION ( 'NONE',  ( -0.000000000000000000, 1.000000000000000000, -0.000000000000000000 ) ) ;
#509 = CIRCLE ( 'NONE', #298, 1.600000000000004086 ) ;
#510 = CARTESIAN_POINT ( 'NONE',  ( -54.00000000000000000, 3.600000000000000089, 81.50000000000000000 ) ) ;
#511 = DIRECTION ( 'NONE',  ( 0.000000000000000000, 1.000000000000000000, 0.000000000000000000 ) ) ;
#512 = ORIENTED_EDGE ( 'NONE', *, *, #182, .T. ) ;
#513 = DIRECTION ( 'NONE',  ( 0.000000000000000000, -1.000000000000000000, 0.000000000000000000 ) ) ;
#514 = CYLINDRICAL_SURFACE ( 'NONE', #358, 1.600000000000004086 ) ;
#515 = DESIGN_CONTEXT ( 'detailed design', #277, 'design' ) ;
#516 = ORIENTED_EDGE ( 'NONE', *, *, #271, .F. ) ;
#517 = APPROVAL_DATE_TIME ( #39, #317 ) ;
#518 = EDGE_CURVE ( 'NONE', #38, #48, #359, .T. ) ;
#519 = ORIENTED_EDGE ( 'NONE', *, *, #81, .T. ) ;
#520 = CIRCLE ( 'NONE', #53, 1.600000000000004086 ) ;
#521 = UNCERTAINTY_MEASURE_WITH_UNIT (LENGTH_MEASURE( 1.000000000000000082E-05 ), #241, 'distance_accuracy_value', 'NONE');
#522 = CIRCLE ( 'NONE', #158, 1.600000000000004086 ) ;
#523 = VERTEX_POINT ( 'NONE', #68 ) ;
#524 = EDGE_CURVE ( 'NONE', #199, #38, #210, .T. ) ;
#525 = VERTEX_POINT ( 'NONE', #395 ) ;
#526 = VERTEX_POINT ( 'NONE', #197 ) ;
#527 = PLANE ( 'NONE',  #40 ) ;
#528 = AXIS2_PLACEMENT_3D ( 'NONE', #247, #206, #370 ) ;
#529 = APPROVAL_PERSON_ORGANIZATION ( #4, #434, #416 ) ;
#530 = ORIENTED_EDGE ( 'NONE', *, *, #333, .F. ) ;
#531 = CARTESIAN_POINT ( 'NONE',  ( 54.00000000000000000, 1.599999999999999867, 83.10000000000000853 ) ) ;
#532 = DIRECTION ( 'NONE',  ( -0.000000000000000000, 1.000000000000000000, -0.000000000000000000 ) ) ;
#533 = ADVANCED_FACE ( 'NONE', ( #363 ), #439, .F. ) ;
ENDSEC;
END-ISO-10303-21;
