ISO-10303-21;
HEADER;
FILE_DESCRIPTION (( 'STEP AP203' ),
    '1' );
FILE_NAME ('FN-PLT-004_fr4-rect_8HOLE-NOMINAL_R0.4.STEP',
    '2026-07-26T11:25:31',
    ( '' ),
    ( '' ),
    'SwSTEP 2.0',
    'SolidWorks 2022',
    '' );
FILE_SCHEMA (( 'CONFIG_CONTROL_DESIGN' ));
ENDSEC;

DATA;
#1 = EDGE_CURVE ( 'NONE', #512, #377, #407, .T. ) ;
#2 = LINE ( 'NONE', #711, #323 ) ;
#3 = CARTESIAN_POINT ( 'NONE',  ( -136.0000000000000000, 3.000000000000000000, -96.50000000000000000 ) ) ;
#4 = ORIENTED_EDGE ( 'NONE', *, *, #588, .T. ) ;
#5 = UNCERTAINTY_MEASURE_WITH_UNIT (LENGTH_MEASURE( 1.000000000000000082E-05 ), #726, 'distance_accuracy_value', 'NONE');
#6 = DIRECTION ( 'NONE',  ( 0.000000000000000000, 0.000000000000000000, 1.000000000000000000 ) ) ;
#7 = DIRECTION ( 'NONE',  ( 0.000000000000000000, 0.000000000000000000, -1.000000000000000000 ) ) ;
#8 = CC_DESIGN_PERSON_AND_ORGANIZATION_ASSIGNMENT ( #778, #194, ( #578 ) ) ;
#9 = CIRCLE ( 'NONE', #212, 1.750000000000001554 ) ;
#10 = ORIENTED_EDGE ( 'NONE', *, *, #798, .T. ) ;
#11 = ORIENTED_EDGE ( 'NONE', *, *, #160, .F. ) ;
#12 = AXIS2_PLACEMENT_3D ( 'NONE', #83, #577, #6 ) ;
#13 = APPROVAL_PERSON_ORGANIZATION ( #556, #396, #228 ) ;
#14 = DIRECTION ( 'NONE',  ( 0.000000000000000000, 0.000000000000000000, -1.000000000000000000 ) ) ;
#15 = CARTESIAN_POINT ( 'NONE',  ( 60.14999999999999858, 5.000000000000000000, 28.84999999999999787 ) ) ;
#16 = ORIENTED_EDGE ( 'NONE', *, *, #81, .T. ) ;
#17 = CARTESIAN_POINT ( 'NONE',  ( -60.14999999999999858, 5.000000000000000000, -30.60000000000000142 ) ) ;
#18 = PERSON_AND_ORGANIZATION ( #765, #300 ) ;
#19 = ORIENTED_EDGE ( 'NONE', *, *, #218, .F. ) ;
#20 = EDGE_CURVE ( 'NONE', #646, #264, #88, .T. ) ;
#21 = DIRECTION ( 'NONE',  ( 0.000000000000000000, 0.000000000000000000, -1.000000000000000000 ) ) ;
#22 = DIRECTION ( 'NONE',  ( 0.000000000000000000, -1.000000000000000000, 0.000000000000000000 ) ) ;
#23 = VERTEX_POINT ( 'NONE', #540 ) ;
#24 = VECTOR ( 'NONE', #246, 1000.000000000000000 ) ;
#25 = ORIENTED_EDGE ( 'NONE', *, *, #694, .F. ) ;
#26 = AXIS2_PLACEMENT_3D ( 'NONE', #107, #181, #559 ) ;
#27 = DIRECTION ( 'NONE',  ( -1.000000000000000000, -0.000000000000000000, -0.000000000000000000 ) ) ;
#28 = PERSON_AND_ORGANIZATION_ROLE ( 'design_owner' ) ;
#29 = ORIENTED_EDGE ( 'NONE', *, *, #229, .F. ) ;
#30 = ORIENTED_EDGE ( 'NONE', *, *, #662, .T. ) ;
#31 = EDGE_CURVE ( 'NONE', #720, #808, #9, .T. ) ;
#32 = CARTESIAN_POINT ( 'NONE',  ( 60.14999999999999858, 0.000000000000000000, -30.60000000000000142 ) ) ;
#33 = APPLICATION_PROTOCOL_DEFINITION ( 'international standard', 'config_control_design', 1994, #351 ) ;
#34 = EDGE_CURVE ( 'NONE', #616, #384, #597, .T. ) ;
#35 = VERTEX_POINT ( 'NONE', #666 ) ;
#36 = EDGE_LOOP ( 'NONE', ( #10, #794 ) ) ;
#37 = CARTESIAN_POINT ( 'NONE',  ( -60.14999999999999858, 0.000000000000000000, 30.60000000000000142 ) ) ;
#38 = DATE_AND_TIME ( #591, #430 ) ;
#39 = CC_DESIGN_PERSON_AND_ORGANIZATION_ASSIGNMENT ( #243, #157, ( #772 ) ) ;
#40 = CYLINDRICAL_SURFACE ( 'NONE', #237, 1.750000000000001554 ) ;
#41 = CIRCLE ( 'NONE', #453, 1.750000000000001554 ) ;
#42 = DIRECTION ( 'NONE',  ( 0.000000000000000000, 0.000000000000000000, 1.000000000000000000 ) ) ;
#43 = DATE_TIME_ROLE ( 'classification_date' ) ;
#44 = AXIS2_PLACEMENT_3D ( 'NONE', #518, #593, #21 ) ;
#45 = CARTESIAN_POINT ( 'NONE',  ( -60.14999999999999858, 5.000000000000000000, 30.60000000000000142 ) ) ;
#46 = CARTESIAN_POINT ( 'NONE',  ( 60.14999999999999858, 0.000000000000000000, -30.60000000000000142 ) ) ;
#47 = CARTESIAN_POINT ( 'NONE',  ( 136.0000000000000000, 3.000000000000000000, 96.50000000000000000 ) ) ;
#48 = ADVANCED_FACE ( 'NONE', ( #734 ), #293, .F. ) ;
#49 = CARTESIAN_POINT ( 'NONE',  ( -136.0000000000000000, 3.000000000000000000, 96.50000000000000000 ) ) ;
#50 = DIRECTION ( 'NONE',  ( 0.000000000000000000, 0.000000000000000000, 1.000000000000000000 ) ) ;
#51 = AXIS2_PLACEMENT_3D ( 'NONE', #375, #431, #363 ) ;
#52 = CARTESIAN_POINT ( 'NONE',  ( -60.14999999999999858, 0.000000000000000000, 81.75000000000000000 ) ) ;
#53 = CIRCLE ( 'NONE', #427, 1.750000000000001554 ) ;
#54 = LOCAL_TIME ( 19, 25, 31.00000000000000000, #613 ) ;
#55 = FACE_OUTER_BOUND ( 'NONE', #67, .T. ) ;
#56 = CARTESIAN_POINT ( 'NONE',  ( 60.14999999999999858, 3.000000000000000000, -78.25000000000000000 ) ) ;
#57 = EDGE_CURVE ( 'NONE', #553, #689, #334, .T. ) ;
#58 = LINE ( 'NONE', #3, #162 ) ;
#59 = EDGE_LOOP ( 'NONE', ( #592, #539, #536, #562 ) ) ;
#60 = CARTESIAN_POINT ( 'NONE',  ( 60.14999999999999858, 3.000000000000000000, 80.00000000000000000 ) ) ;
#61 = CARTESIAN_POINT ( 'NONE',  ( -60.14999999999999858, 0.000000000000000000, -28.84999999999999787 ) ) ;
#62 = EDGE_LOOP ( 'NONE', ( #640, #576, #138, #19 ) ) ;
#63 = CARTESIAN_POINT ( 'NONE',  ( -60.14999999999999858, 0.000000000000000000, -78.25000000000000000 ) ) ;
#64 = VECTOR ( 'NONE', #691, 1000.000000000000000 ) ;
#65 = DIRECTION ( 'NONE',  ( 0.000000000000000000, -1.000000000000000000, 0.000000000000000000 ) ) ;
#66 = AXIS2_PLACEMENT_3D ( 'NONE', #710, #507, #599 ) ;
#67 = EDGE_LOOP ( 'NONE', ( #495, #779, #238, #742 ) ) ;
#68 = CARTESIAN_POINT ( 'NONE',  ( 60.14999999999999858, 3.000000000000000000, 30.60000000000000142 ) ) ;
#69 = DIRECTION ( 'NONE',  ( 0.000000000000000000, 0.000000000000000000, -1.000000000000000000 ) ) ;
#70 = EDGE_LOOP ( 'NONE', ( #98, #678 ) ) ;
#71 = CARTESIAN_POINT ( 'NONE',  ( -136.0000000000000000, 3.000000000000000000, 96.50000000000000000 ) ) ;
#72 = DIRECTION ( 'NONE',  ( 0.000000000000000000, 0.000000000000000000, -1.000000000000000000 ) ) ;
#73 = ORIENTED_EDGE ( 'NONE', *, *, #31, .T. ) ;
#74 = FACE_BOUND ( 'NONE', #273, .T. ) ;
#75 = AXIS2_PLACEMENT_3D ( 'NONE', #45, #549, #755 ) ;
#76 = EDGE_LOOP ( 'NONE', ( #692, #336 ) ) ;
#77 = ORIENTED_EDGE ( 'NONE', *, *, #244, .F. ) ;
#78 = LOCAL_TIME ( 19, 25, 31.00000000000000000, #451 ) ;
#79 = FACE_OUTER_BOUND ( 'NONE', #537, .T. ) ;
#80 = DATE_TIME_ROLE ( 'creation_date' ) ;
#81 = EDGE_CURVE ( 'NONE', #137, #306, #217, .T. ) ;
#82 = ORIENTED_EDGE ( 'NONE', *, *, #621, .F. ) ;
#83 = CARTESIAN_POINT ( 'NONE',  ( 136.0000000000000000, 3.000000000000000000, 96.50000000000000000 ) ) ;
#84 = DIRECTION ( 'NONE',  ( 0.000000000000000000, -1.000000000000000000, 0.000000000000000000 ) ) ;
#85 = VERTEX_POINT ( 'NONE', #231 ) ;
#86 = DIRECTION ( 'NONE',  ( 0.000000000000000000, 1.000000000000000000, 0.000000000000000000 ) ) ;
#87 = AXIS2_PLACEMENT_3D ( 'NONE', #827, #250, #815 ) ;
#88 = CIRCLE ( 'NONE', #355, 1.750000000000001554 ) ;
#89 = EDGE_LOOP ( 'NONE', ( #391, #669, #595, #406 ) ) ;
#90 = EDGE_CURVE ( 'NONE', #184, #85, #729, .T. ) ;
#91 = AXIS2_PLACEMENT_3D ( 'NONE', #311, #821, #496 ) ;
#92 = ADVANCED_FACE ( 'NONE', ( #290 ), #40, .F. ) ;
#93 = DIRECTION ( 'NONE',  ( -0.000000000000000000, 1.000000000000000000, -0.000000000000000000 ) ) ;
#94 = CARTESIAN_POINT ( 'NONE',  ( -60.14999999999999858, 3.000000000000000000, 81.75000000000000000 ) ) ;
#95 = FACE_OUTER_BOUND ( 'NONE', #89, .T. ) ;
#96 = DIRECTION ( 'NONE',  ( -0.000000000000000000, 1.000000000000000000, -0.000000000000000000 ) ) ;
#97 = APPROVAL_STATUS ( 'not_yet_approved' ) ;
#98 = ORIENTED_EDGE ( 'NONE', *, *, #554, .F. ) ;
#99 = DIRECTION ( 'NONE',  ( 0.000000000000000000, -1.000000000000000000, 0.000000000000000000 ) ) ;
#100 = DIRECTION ( 'NONE',  ( 0.000000000000000000, 1.000000000000000000, 0.000000000000000000 ) ) ;
#101 = VECTOR ( 'NONE', #280, 1000.000000000000000 ) ;
#102 = LINE ( 'NONE', #617, #675 ) ;
#103 = APPROVAL_STATUS ( 'not_yet_approved' ) ;
#104 = DIRECTION ( 'NONE',  ( 0.000000000000000000, -1.000000000000000000, 0.000000000000000000 ) ) ;
#105 = CARTESIAN_POINT ( 'NONE',  ( -60.14999999999999858, 5.000000000000000000, -80.00000000000000000 ) ) ;
#106 = EDGE_LOOP ( 'NONE', ( #440, #696 ) ) ;
#107 = CARTESIAN_POINT ( 'NONE',  ( -60.14999999999999858, 3.000000000000000000, -80.00000000000000000 ) ) ;
#108 = DIRECTION ( 'NONE',  ( 0.000000000000000000, -1.000000000000000000, 0.000000000000000000 ) ) ;
#109 = AXIS2_PLACEMENT_3D ( 'NONE', #387, #612, #604 ) ;
#110 = ADVANCED_FACE ( 'NONE', ( #95 ), #347, .F. ) ;
#111 = DIRECTION ( 'NONE',  ( 0.000000000000000000, 0.000000000000000000, -1.000000000000000000 ) ) ;
#112 = CIRCLE ( 'NONE', #26, 1.750000000000001554 ) ;
#113 = AXIS2_PLACEMENT_3D ( 'NONE', #330, #339, #267 ) ;
#114 = DIRECTION ( 'NONE',  ( 0.000000000000000000, -1.000000000000000000, 0.000000000000000000 ) ) ;
#115 = VERTEX_POINT ( 'NONE', #175 ) ;
#116 = DIRECTION ( 'NONE',  ( 0.000000000000000000, -1.000000000000000000, 0.000000000000000000 ) ) ;
#117 = CARTESIAN_POINT ( 'NONE',  ( 0.000000000000000000, 3.000000000000000000, 0.000000000000000000 ) ) ;
#118 = ORIENTED_EDGE ( 'NONE', *, *, #155, .T. ) ;
#119 = FACE_OUTER_BOUND ( 'NONE', #322, .T. ) ;
#120 = LINE ( 'NONE', #632, #345 ) ;
#121 = VERTEX_POINT ( 'NONE', #61 ) ;
#122 = VECTOR ( 'NONE', #271, 1000.000000000000000 ) ;
#123 = FACE_BOUND ( 'NONE', #36, .T. ) ;
#124 = AXIS2_PLACEMENT_3D ( 'NONE', #392, #441, #270 ) ;
#125 = LINE ( 'NONE', #699, #64 ) ;
#126 = LOCAL_TIME ( 19, 25, 31.00000000000000000, #548 ) ;
#127 = ADVANCED_FACE ( 'NONE', ( #55 ), #561, .F. ) ;
#128 = ORIENTED_EDGE ( 'NONE', *, *, #572, .T. ) ;
#129 = FACE_OUTER_BOUND ( 'NONE', #825, .T. ) ;
#130 = ORIENTED_EDGE ( 'NONE', *, *, #509, .T. ) ;
#131 = CARTESIAN_POINT ( 'NONE',  ( -60.14999999999999858, 5.000000000000000000, 80.00000000000000000 ) ) ;
#132 = EDGE_LOOP ( 'NONE', ( #752, #799, #580, #705 ) ) ;
#133 = EDGE_LOOP ( 'NONE', ( #571, #526, #220, #665 ) ) ;
#134 = CARTESIAN_POINT ( 'NONE',  ( -60.14999999999999858, 3.000000000000000000, -30.60000000000000142 ) ) ;
#135 = DIRECTION ( 'NONE',  ( 0.000000000000000000, 0.000000000000000000, -1.000000000000000000 ) ) ;
#136 = DATE_AND_TIME ( #712, #78 ) ;
#137 = VERTEX_POINT ( 'NONE', #183 ) ;
#138 = ORIENTED_EDGE ( 'NONE', *, *, #327, .F. ) ;
#139 = AXIS2_PLACEMENT_3D ( 'NONE', #17, #655, #14 ) ;
#140 = FACE_BOUND ( 'NONE', #426, .T. ) ;
#141 = APPROVAL_ROLE ( '' ) ;
#142 = VERTEX_POINT ( 'NONE', #575 ) ;
#143 = EDGE_LOOP ( 'NONE', ( #459, #653 ) ) ;
#144 = DIRECTION ( 'NONE',  ( 0.000000000000000000, -1.000000000000000000, 0.000000000000000000 ) ) ;
#145 = EDGE_CURVE ( 'NONE', #142, #708, #305, .T. ) ;
#146 = ORIENTED_EDGE ( 'NONE', *, *, #694, .T. ) ;
#147 = VERTEX_POINT ( 'NONE', #354 ) ;
#148 = CARTESIAN_POINT ( 'NONE',  ( -136.0000000000000000, 3.000000000000000000, -96.50000000000000000 ) ) ;
#149 = AXIS2_PLACEMENT_3D ( 'NONE', #491, #350, #472 ) ;
#150 = EDGE_LOOP ( 'NONE', ( #176, #828 ) ) ;
#151 = VECTOR ( 'NONE', #116, 1000.000000000000000 ) ;
#152 = CARTESIAN_POINT ( 'NONE',  ( -60.14999999999999858, 3.000000000000000000, 30.60000000000000142 ) ) ;
#153 = ORIENTED_EDGE ( 'NONE', *, *, #145, .T. ) ;
#154 = ORIENTED_EDGE ( 'NONE', *, *, #437, .F. ) ;
#155 = EDGE_CURVE ( 'NONE', #633, #506, #58, .T. ) ;
#156 = CARTESIAN_POINT ( 'NONE',  ( 136.0000000000000000, 0.000000000000000000, 96.50000000000000000 ) ) ;
#157 = PERSON_AND_ORGANIZATION_ROLE ( 'classification_officer' ) ;
#158 = CARTESIAN_POINT ( 'NONE',  ( 60.14999999999999858, 3.000000000000000000, -30.60000000000000142 ) ) ;
#159 = DIRECTION ( 'NONE',  ( 0.000000000000000000, -1.000000000000000000, 0.000000000000000000 ) ) ;
#160 = EDGE_CURVE ( 'NONE', #553, #709, #564, .T. ) ;
#161 = ORIENTED_EDGE ( 'NONE', *, *, #346, .T. ) ;
#162 = VECTOR ( 'NONE', #687, 1000.000000000000000 ) ;
#163 = DIRECTION ( 'NONE',  ( 0.000000000000000000, 0.000000000000000000, 1.000000000000000000 ) ) ;
#164 = CIRCLE ( 'NONE', #626, 1.750000000000001554 ) ;
#165 = DIRECTION ( 'NONE',  ( 0.000000000000000000, 1.000000000000000000, 0.000000000000000000 ) ) ;
#166 = PLANE ( 'NONE',  #373 ) ;
#167 = CARTESIAN_POINT ( 'NONE',  ( 60.14999999999999858, 5.000000000000000000, -30.60000000000000142 ) ) ;
#168 = ADVANCED_FACE ( 'NONE', ( #628 ), #639, .F. ) ;
#169 = DIRECTION ( 'NONE',  ( 0.000000000000000000, 0.000000000000000000, -1.000000000000000000 ) ) ;
#170 = CARTESIAN_POINT ( 'NONE',  ( 60.14999999999999858, 3.000000000000000000, 81.75000000000000000 ) ) ;
#171 = CIRCLE ( 'NONE', #511, 1.750000000000005107 ) ;
#172 = ORIENTED_EDGE ( 'NONE', *, *, #572, .F. ) ;
#173 = CARTESIAN_POINT ( 'NONE',  ( 60.14999999999999858, 0.000000000000000000, -32.35000000000000142 ) ) ;
#174 = CIRCLE ( 'NONE', #803, 1.750000000000001554 ) ;
#175 = CARTESIAN_POINT ( 'NONE',  ( 60.14999999999999858, 3.000000000000000000, 78.25000000000000000 ) ) ;
#176 = ORIENTED_EDGE ( 'NONE', *, *, #758, .F. ) ;
#177 = ADVANCED_FACE ( 'NONE', ( #751 ), #313, .F. ) ;
#178 = FACE_OUTER_BOUND ( 'NONE', #503, .T. ) ;
#179 = ORIENTED_EDGE ( 'NONE', *, *, #230, .T. ) ;
#180 = APPROVAL_DATE_TIME ( #483, #396 ) ;
#181 = DIRECTION ( 'NONE',  ( -0.000000000000000000, 1.000000000000000000, -0.000000000000000000 ) ) ;
#182 = EDGE_CURVE ( 'NONE', #377, #147, #125, .T. ) ;
#183 = CARTESIAN_POINT ( 'NONE',  ( -60.14999999999999858, 3.000000000000000000, -32.35000000000000142 ) ) ;
#184 = VERTEX_POINT ( 'NONE', #241 ) ;
#185 = FACE_BOUND ( 'NONE', #463, .T. ) ;
#186 = FACE_OUTER_BOUND ( 'NONE', #59, .T. ) ;
#187 = ORIENTED_EDGE ( 'NONE', *, *, #819, .T. ) ;
#188 = DIRECTION ( 'NONE',  ( -0.000000000000000000, 1.000000000000000000, -0.000000000000000000 ) ) ;
#189 = CARTESIAN_POINT ( 'NONE',  ( 60.14999999999999858, 3.000000000000000000, -80.00000000000000000 ) ) ;
#190 = ORIENTED_EDGE ( 'NONE', *, *, #455, .F. ) ;
#191 = ADVANCED_FACE ( 'NONE', ( #233, #760, #438, #635, #425, #684, #497, #818, #178 ), #236, .F. ) ;
#192 = PLANE ( 'NONE',  #240 ) ;
#193 = CYLINDRICAL_SURFACE ( 'NONE', #385, 1.750000000000005107 ) ;
#194 = PERSON_AND_ORGANIZATION_ROLE ( 'creator' ) ;
#195 = ORIENTED_EDGE ( 'NONE', *, *, #736, .F. ) ;
#196 = APPROVAL ( #525, '未指定' ) ;
#197 = DIRECTION ( 'NONE',  ( 0.000000000000000000, 1.000000000000000000, 0.000000000000000000 ) ) ;
#198 = CIRCLE ( 'NONE', #557, 1.750000000000001554 ) ;
#199 = CARTESIAN_POINT ( 'NONE',  ( 60.14999999999999858, 0.000000000000000000, 78.25000000000000000 ) ) ;
#200 = EDGE_LOOP ( 'NONE', ( #172, #29, #648, #565 ) ) ;
#201 = AXIS2_PLACEMENT_3D ( 'NONE', #805, #744, #417 ) ;
#202 = EDGE_CURVE ( 'NONE', #761, #465, #581, .T. ) ;
#203 = CARTESIAN_POINT ( 'NONE',  ( -60.14999999999999858, 3.000000000000000000, 32.35000000000000142 ) ) ;
#204 = CARTESIAN_POINT ( 'NONE',  ( 60.14999999999999858, 0.000000000000000000, 28.84999999999999787 ) ) ;
#205 = CARTESIAN_POINT ( 'NONE',  ( 60.14999999999999858, 3.000000000000000000, -28.84999999999999787 ) ) ;
#206 = ORIENTED_EDGE ( 'NONE', *, *, #1, .F. ) ;
#207 = ORIENTED_EDGE ( 'NONE', *, *, #20, .F. ) ;
#208 = CARTESIAN_POINT ( 'NONE',  ( 60.14999999999999858, 3.000000000000000000, 80.00000000000000000 ) ) ;
#209 = CARTESIAN_POINT ( 'NONE',  ( 60.14999999999999858, 5.000000000000000000, 78.25000000000000000 ) ) ;
#210 = CIRCLE ( 'NONE', #686, 1.750000000000005107 ) ;
#211 = ORIENTED_EDGE ( 'NONE', *, *, #244, .T. ) ;
#212 = AXIS2_PLACEMENT_3D ( 'NONE', #158, #545, #477 ) ;
#213 = DIRECTION ( 'NONE',  ( -0.000000000000000000, 1.000000000000000000, -0.000000000000000000 ) ) ;
#214 = CC_DESIGN_APPROVAL ( #396, ( #772 ) ) ;
#215 = LINE ( 'NONE', #277, #647 ) ;
#216 = PERSON_AND_ORGANIZATION ( #765, #300 ) ;
#217 = LINE ( 'NONE', #670, #596 ) ;
#218 = EDGE_CURVE ( 'NONE', #465, #384, #695, .T. ) ;
#219 = DIRECTION ( 'NONE',  ( 0.000000000000000000, -1.000000000000000000, 0.000000000000000000 ) ) ;
#220 = ORIENTED_EDGE ( 'NONE', *, *, #428, .F. ) ;
#221 = EDGE_CURVE ( 'NONE', #395, #708, #714, .T. ) ;
#222 = CARTESIAN_POINT ( 'NONE',  ( 60.14999999999999858, 0.000000000000000000, 81.75000000000000000 ) ) ;
#223 = DATE_AND_TIME ( #738, #585 ) ;
#224 = CIRCLE ( 'NONE', #424, 1.750000000000005107 ) ;
#225 = VERTEX_POINT ( 'NONE', #170 ) ;
#226 = AXIS2_PLACEMENT_3D ( 'NONE', #547, #219, #482 ) ;
#227 = DIRECTION ( 'NONE',  ( 0.000000000000000000, 0.000000000000000000, -1.000000000000000000 ) ) ;
#228 = APPROVAL_ROLE ( '' ) ;
#229 = EDGE_CURVE ( 'NONE', #147, #506, #120, .T. ) ;
#230 = EDGE_CURVE ( 'NONE', #23, #264, #367, .T. ) ;
#231 = CARTESIAN_POINT ( 'NONE',  ( -60.14999999999999858, 0.000000000000000000, 32.35000000000000142 ) ) ;
#232 = FACE_OUTER_BOUND ( 'NONE', #722, .T. ) ;
#233 = FACE_BOUND ( 'NONE', #106, .T. ) ;
#234 = ORIENTED_EDGE ( 'NONE', *, *, #560, .T. ) ;
#235 = CARTESIAN_POINT ( 'NONE',  ( 136.0000000000000000, 3.000000000000000000, 96.50000000000000000 ) ) ;
#236 = PLANE ( 'NONE',  #743 ) ;
#237 = AXIS2_PLACEMENT_3D ( 'NONE', #167, #287, #739 ) ;
#238 = ORIENTED_EDGE ( 'NONE', *, *, #704, .F. ) ;
#239 = DIRECTION ( 'NONE',  ( -0.000000000000000000, 1.000000000000000000, -0.000000000000000000 ) ) ;
#240 = AXIS2_PLACEMENT_3D ( 'NONE', #372, #450, #590 ) ;
#241 = CARTESIAN_POINT ( 'NONE',  ( -60.14999999999999858, 0.000000000000000000, 28.84999999999999787 ) ) ;
#242 = VERTEX_POINT ( 'NONE', #505 ) ;
#243 = PERSON_AND_ORGANIZATION ( #765, #300 ) ;
#244 = EDGE_CURVE ( 'NONE', #279, #445, #198, .T. ) ;
#245 = LINE ( 'NONE', #693, #401 ) ;
#246 = DIRECTION ( 'NONE',  ( 0.000000000000000000, -1.000000000000000000, 0.000000000000000000 ) ) ;
#247 = ORIENTED_EDGE ( 'NONE', *, *, #437, .T. ) ;
#248 = CARTESIAN_POINT ( 'NONE',  ( 60.14999999999999858, 3.000000000000000000, -32.35000000000000142 ) ) ;
#249 = DIRECTION ( 'NONE',  ( 0.000000000000000000, 0.000000000000000000, 1.000000000000000000 ) ) ;
#250 = DIRECTION ( 'NONE',  ( 1.000000000000000000, -0.000000000000000000, 0.000000000000000000 ) ) ;
#251 = EDGE_LOOP ( 'NONE', ( #128, #25, #747, #118 ) ) ;
#252 = AXIS2_PLACEMENT_3D ( 'NONE', #410, #104, #749 ) ;
#253 = FACE_BOUND ( 'NONE', #310, .T. ) ;
#254 = DIRECTION ( 'NONE',  ( 1.000000000000000000, 0.000000000000000000, 0.000000000000000000 ) ) ;
#255 = EDGE_CURVE ( 'NONE', #397, #377, #524, .T. ) ;
#256 = AXIS2_PLACEMENT_3D ( 'NONE', #630, #634, #492 ) ;
#257 = ORIENTED_EDGE ( 'NONE', *, *, #455, .T. ) ;
#258 = EDGE_CURVE ( 'NONE', #689, #553, #466, .T. ) ;
#259 = VECTOR ( 'NONE', #22, 1000.000000000000000 ) ;
#260 = ORIENTED_EDGE ( 'NONE', *, *, #276, .F. ) ;
#261 = CARTESIAN_POINT ( 'NONE',  ( 60.14999999999999858, 0.000000000000000000, 32.35000000000000142 ) ) ;
#262 = CARTESIAN_POINT ( 'NONE',  ( 60.14999999999999858, 5.000000000000000000, 30.60000000000000142 ) ) ;
#263 = PRODUCT_DEFINITION_SHAPE ( 'NONE', 'NONE',  #578 ) ;
#264 = VERTEX_POINT ( 'NONE', #790 ) ;
#265 = DIRECTION ( 'NONE',  ( 0.000000000000000000, -1.000000000000000000, 0.000000000000000000 ) ) ;
#266 = CARTESIAN_POINT ( 'NONE',  ( 60.14999999999999858, 0.000000000000000000, 80.00000000000000000 ) ) ;
#267 = DIRECTION ( 'NONE',  ( 1.000000000000000000, 0.000000000000000000, 0.000000000000000000 ) ) ;
#268 = ORIENTED_EDGE ( 'NONE', *, *, #362, .T. ) ;
#269 = ORIENTED_EDGE ( 'NONE', *, *, #656, .F. ) ;
#270 = DIRECTION ( 'NONE',  ( 0.000000000000000000, 0.000000000000000000, 1.000000000000000000 ) ) ;
#271 = DIRECTION ( 'NONE',  ( 1.000000000000000000, 0.000000000000000000, 0.000000000000000000 ) ) ;
#272 =( NAMED_UNIT ( * ) PLANE_ANGLE_UNIT ( ) SI_UNIT ( $, .RADIAN. ) );
#273 = EDGE_LOOP ( 'NONE', ( #331, #247 ) ) ;
#274 = ORIENTED_EDGE ( 'NONE', *, *, #798, .F. ) ;
#275 = AXIS2_PLACEMENT_3D ( 'NONE', #37, #796, #42 ) ;
#276 = EDGE_CURVE ( 'NONE', #242, #395, #721, .T. ) ;
#277 = CARTESIAN_POINT ( 'NONE',  ( 60.14999999999999858, 5.000000000000000000, 81.75000000000000000 ) ) ;
#278 = APPLICATION_PROTOCOL_DEFINITION ( 'international standard', 'config_control_design', 1994, #411 ) ;
#279 = VERTEX_POINT ( 'NONE', #199 ) ;
#280 = DIRECTION ( 'NONE',  ( 0.000000000000000000, -1.000000000000000000, 0.000000000000000000 ) ) ;
#281 = DIRECTION ( 'NONE',  ( -0.000000000000000000, 1.000000000000000000, -0.000000000000000000 ) ) ;
#282 = ORIENTED_EDGE ( 'NONE', *, *, #419, .T. ) ;
#283 = DIRECTION ( 'NONE',  ( -0.000000000000000000, -1.000000000000000000, -0.000000000000000000 ) ) ;
#284 = DIRECTION ( 'NONE',  ( 0.000000000000000000, 0.000000000000000000, 1.000000000000000000 ) ) ;
#285 = VECTOR ( 'NONE', #108, 1000.000000000000000 ) ;
#286 = ADVANCED_FACE ( 'NONE', ( #645 ), #193, .F. ) ;
#287 = DIRECTION ( 'NONE',  ( 0.000000000000000000, -1.000000000000000000, 0.000000000000000000 ) ) ;
#288 = PRODUCT_DEFINITION_FORMATION_WITH_SPECIFIED_SOURCE ( '任何', '', #383, .NOT_KNOWN. ) ;
#289 = DIRECTION ( 'NONE',  ( 0.000000000000000000, 0.000000000000000000, -1.000000000000000000 ) ) ;
#290 = FACE_OUTER_BOUND ( 'NONE', #806, .T. ) ;
#291 = CARTESIAN_POINT ( 'NONE',  ( 60.14999999999999858, 5.000000000000000000, -80.00000000000000000 ) ) ;
#292 = SECURITY_CLASSIFICATION_LEVEL ( 'unclassified' ) ;
#293 = CYLINDRICAL_SURFACE ( 'NONE', #252, 1.750000000000005107 ) ;
#294 = EDGE_CURVE ( 'NONE', #512, #458, #2, .T. ) ;
#295 = LINE ( 'NONE', #433, #374 ) ;
#296 = AXIS2_PLACEMENT_3D ( 'NONE', #558, #213, #674 ) ;
#297 = EDGE_LOOP ( 'NONE', ( #713, #153, #521, #260 ) ) ;
#298 = CIRCLE ( 'NONE', #389, 1.750000000000001554 ) ;
#299 = CARTESIAN_POINT ( 'NONE',  ( -60.14999999999999858, 5.000000000000000000, 28.84999999999999787 ) ) ;
#300 = ORGANIZATION ( '未指定', '未指定', '' ) ;
#301 = EDGE_CURVE ( 'NONE', #341, #512, #718, .T. ) ;
#302 = DIRECTION ( 'NONE',  ( 0.000000000000000000, -1.000000000000000000, 0.000000000000000000 ) ) ;
#303 = VERTEX_POINT ( 'NONE', #777 ) ;
#304 = CARTESIAN_POINT ( 'NONE',  ( -136.0000000000000000, 3.000000000000000000, -96.50000000000000000 ) ) ;
#305 = LINE ( 'NONE', #308, #285 ) ;
#306 = VERTEX_POINT ( 'NONE', #508 ) ;
#307 = CYLINDRICAL_SURFACE ( 'NONE', #256, 1.750000000000001554 ) ;
#308 = CARTESIAN_POINT ( 'NONE',  ( 60.14999999999999858, 5.000000000000000000, 32.35000000000000142 ) ) ;
#309 = EDGE_CURVE ( 'NONE', #121, #306, #171, .T. ) ;
#310 = EDGE_LOOP ( 'NONE', ( #700, #784 ) ) ;
#311 = CARTESIAN_POINT ( 'NONE',  ( 60.14999999999999858, 5.000000000000000000, 80.00000000000000000 ) ) ;
#312 = AXIS2_PLACEMENT_3D ( 'NONE', #810, #627, #685 ) ;
#313 = CYLINDRICAL_SURFACE ( 'NONE', #661, 1.750000000000005107 ) ;
#314 = ORIENTED_EDGE ( 'NONE', *, *, #301, .F. ) ;
#315 = DIRECTION ( 'NONE',  ( 0.000000000000000000, 0.000000000000000000, -1.000000000000000000 ) ) ;
#316 = CARTESIAN_POINT ( 'NONE',  ( -136.0000000000000000, 3.000000000000000000, 96.50000000000000000 ) ) ;
#317 = DIRECTION ( 'NONE',  ( 0.000000000000000000, 0.000000000000000000, -1.000000000000000000 ) ) ;
#318 = ORIENTED_EDGE ( 'NONE', *, *, #301, .T. ) ;
#319 = FACE_OUTER_BOUND ( 'NONE', #728, .T. ) ;
#320 = ADVANCED_FACE ( 'NONE', ( #186 ), #574, .F. ) ;
#321 = CARTESIAN_POINT ( 'NONE',  ( -136.0000000000000000, 0.000000000000000000, 96.50000000000000000 ) ) ;
#322 = EDGE_LOOP ( 'NONE', ( #775, #206, #314, #146 ) ) ;
#323 = VECTOR ( 'NONE', #72, 1000.000000000000000 ) ;
#324 = DIRECTION ( 'NONE',  ( 0.000000000000000000, 0.000000000000000000, 1.000000000000000000 ) ) ;
#325 = EDGE_LOOP ( 'NONE', ( #257, #390, #77, #517 ) ) ;
#326 = CYLINDRICAL_SURFACE ( 'NONE', #44, 1.750000000000001554 ) ;
#327 = EDGE_CURVE ( 'NONE', #384, #616, #369, .T. ) ;
#328 = ORIENTED_EDGE ( 'NONE', *, *, #34, .F. ) ;
#329 = DIRECTION ( 'NONE',  ( -0.000000000000000000, -1.000000000000000000, -0.000000000000000000 ) ) ;
#330 = CARTESIAN_POINT ( 'NONE',  ( 0.000000000000000000, 0.000000000000000000, 0.000000000000000000 ) ) ;
#331 = ORIENTED_EDGE ( 'NONE', *, *, #90, .T. ) ;
#332 = EDGE_CURVE ( 'NONE', #498, #568, #210, .T. ) ;
#333 = VECTOR ( 'NONE', #65, 1000.000000000000000 ) ;
#334 = CIRCLE ( 'NONE', #296, 1.750000000000001554 ) ;
#335 = DIRECTION ( 'NONE',  ( 0.000000000000000000, 0.000000000000000000, 1.000000000000000000 ) ) ;
#336 = ORIENTED_EDGE ( 'NONE', *, *, #723, .T. ) ;
#337 = CC_DESIGN_SECURITY_CLASSIFICATION ( #772, ( #288 ) ) ;
#338 = DIRECTION ( 'NONE',  ( 0.000000000000000000, 1.000000000000000000, 0.000000000000000000 ) ) ;
#339 = DIRECTION ( 'NONE',  ( 0.000000000000000000, 0.000000000000000000, 1.000000000000000000 ) ) ;
#340 = ORIENTED_EDGE ( 'NONE', *, *, #394, .T. ) ;
#341 = VERTEX_POINT ( 'NONE', #608 ) ;
#342 = CYLINDRICAL_SURFACE ( 'NONE', #226, 1.750000000000001554 ) ;
#343 = ORIENTED_EDGE ( 'NONE', *, *, #560, .F. ) ;
#344 = CARTESIAN_POINT ( 'NONE',  ( 60.14999999999999858, 0.000000000000000000, -80.00000000000000000 ) ) ;
#345 = VECTOR ( 'NONE', #422, 1000.000000000000000 ) ;
#346 = EDGE_CURVE ( 'NONE', #568, #498, #224, .T. ) ;
#347 = CYLINDRICAL_SURFACE ( 'NONE', #75, 1.750000000000005107 ) ;
#348 = CIRCLE ( 'NONE', #600, 1.750000000000005107 ) ;
#349 = CYLINDRICAL_SURFACE ( 'NONE', #822, 1.750000000000001554 ) ;
#350 = DIRECTION ( 'NONE',  ( 0.000000000000000000, 1.000000000000000000, 0.000000000000000000 ) ) ;
#351 = APPLICATION_CONTEXT ( 'configuration controlled 3d designs of mechanical parts and assemblies' ) ;
#352 = DIRECTION ( 'NONE',  ( -0.000000000000000000, -0.000000000000000000, 1.000000000000000000 ) ) ;
#353 = ORIENTED_EDGE ( 'NONE', *, *, #258, .T. ) ;
#354 = CARTESIAN_POINT ( 'NONE',  ( 136.0000000000000000, 0.000000000000000000, -96.50000000000000000 ) ) ;
#355 = AXIS2_PLACEMENT_3D ( 'NONE', #610, #165, #420 ) ;
#356 = CIRCLE ( 'NONE', #201, 1.750000000000005107 ) ;
#357 = LINE ( 'NONE', #421, #771 ) ;
#358 =( GEOMETRIC_REPRESENTATION_CONTEXT ( 3 ) GLOBAL_UNCERTAINTY_ASSIGNED_CONTEXT ( ( #5 ) ) GLOBAL_UNIT_ASSIGNED_CONTEXT ( ( #726, #272, #731 ) ) REPRESENTATION_CONTEXT ( 'NONE', 'WORKASPACE' ) );
#359 = CARTESIAN_POINT ( 'NONE',  ( 60.14999999999999858, 0.000000000000000000, 30.60000000000000142 ) ) ;
#360 = EDGE_LOOP ( 'NONE', ( #733, #804 ) ) ;
#361 = DIRECTION ( 'NONE',  ( 0.000000000000000000, -1.000000000000000000, 0.000000000000000000 ) ) ;
#362 = EDGE_CURVE ( 'NONE', #709, #487, #541, .T. ) ;
#363 = DIRECTION ( 'NONE',  ( 0.000000000000000000, 0.000000000000000000, -1.000000000000000000 ) ) ;
#364 = ORIENTED_EDGE ( 'NONE', *, *, #160, .T. ) ;
#365 = CYLINDRICAL_SURFACE ( 'NONE', #717, 1.750000000000001554 ) ;
#366 = CC_DESIGN_DATE_AND_TIME_ASSIGNMENT ( #223, #43, ( #772 ) ) ;
#367 = LINE ( 'NONE', #570, #24 ) ;
#368 = MANIFOLD_SOLID_BREP ( '切除-拉伸1', #698 ) ;
#369 = CIRCLE ( 'NONE', #109, 1.750000000000001554 ) ;
#370 = ORIENTED_EDGE ( 'NONE', *, *, #403, .F. ) ;
#371 = CALENDAR_DATE ( 2026, 26, 7 ) ;
#372 = CARTESIAN_POINT ( 'NONE',  ( 0.000000000000000000, 0.000000000000000000, 0.000000000000000000 ) ) ;
#373 = AXIS2_PLACEMENT_3D ( 'NONE', #49, #429, #679 ) ;
#374 = VECTOR ( 'NONE', #352, 1000.000000000000000 ) ;
#375 = CARTESIAN_POINT ( 'NONE',  ( -60.14999999999999858, 3.000000000000000000, 80.00000000000000000 ) ) ;
#376 = EDGE_CURVE ( 'NONE', #225, #445, #215, .T. ) ;
#377 = VERTEX_POINT ( 'NONE', #156 ) ;
#378 = ADVANCED_FACE ( 'NONE', ( #792 ), #349, .F. ) ;
#379 = DIRECTION ( 'NONE',  ( -0.000000000000000000, 1.000000000000000000, -0.000000000000000000 ) ) ;
#380 = ORIENTED_EDGE ( 'NONE', *, *, #682, .F. ) ;
#381 = CARTESIAN_POINT ( 'NONE',  ( -60.14999999999999858, 0.000000000000000000, -30.60000000000000142 ) ) ;
#382 = ORIENTED_EDGE ( 'NONE', *, *, #31, .F. ) ;
#383 = PRODUCT ( 'FN-PLT-004_fr4-rect_8HOLE-NOMINAL_R0.4', 'FN-PLT-004_fr4-rect_8HOLE-NOMINAL_R0.4', '', ( #456 ) ) ;
#384 = VERTEX_POINT ( 'NONE', #737 ) ;
#385 = AXIS2_PLACEMENT_3D ( 'NONE', #262, #84, #658 ) ;
#386 = LINE ( 'NONE', #436, #812 ) ;
#387 = CARTESIAN_POINT ( 'NONE',  ( -60.14999999999999858, 0.000000000000000000, 80.00000000000000000 ) ) ;
#388 = DIRECTION ( 'NONE',  ( 0.000000000000000000, -1.000000000000000000, 0.000000000000000000 ) ) ;
#389 = AXIS2_PLACEMENT_3D ( 'NONE', #423, #750, #111 ) ;
#390 = ORIENTED_EDGE ( 'NONE', *, *, #376, .T. ) ;
#391 = ORIENTED_EDGE ( 'NONE', *, *, #494, .T. ) ;
#392 = CARTESIAN_POINT ( 'NONE',  ( 60.14999999999999858, 0.000000000000000000, 80.00000000000000000 ) ) ;
#393 = ORIENTED_EDGE ( 'NONE', *, *, #202, .T. ) ;
#394 = EDGE_CURVE ( 'NONE', #487, #709, #41, .T. ) ;
#395 = VERTEX_POINT ( 'NONE', #204 ) ;
#396 = APPROVAL ( #103, '未指定' ) ;
#397 = VERTEX_POINT ( 'NONE', #408 ) ;
#398 = CARTESIAN_POINT ( 'NONE',  ( 60.14999999999999858, 5.000000000000000000, -81.75000000000000000 ) ) ;
#399 = DIRECTION ( 'NONE',  ( 0.000000000000000000, 0.000000000000000000, 1.000000000000000000 ) ) ;
#400 = ORIENTED_EDGE ( 'NONE', *, *, #621, .T. ) ;
#401 = VECTOR ( 'NONE', #361, 1000.000000000000000 ) ;
#402 = ORIENTED_EDGE ( 'NONE', *, *, #428, .T. ) ;
#403 = EDGE_CURVE ( 'NONE', #761, #616, #671, .T. ) ;
#404 = DIRECTION ( 'NONE',  ( -0.000000000000000000, -0.000000000000000000, 1.000000000000000000 ) ) ;
#405 = PERSON_AND_ORGANIZATION ( #765, #300 ) ;
#406 = ORIENTED_EDGE ( 'NONE', *, *, #509, .F. ) ;
#407 = LINE ( 'NONE', #47, #439 ) ;
#408 = CARTESIAN_POINT ( 'NONE',  ( -136.0000000000000000, 0.000000000000000000, 96.50000000000000000 ) ) ;
#409 = CALENDAR_DATE ( 2026, 26, 7 ) ;
#410 = CARTESIAN_POINT ( 'NONE',  ( 60.14999999999999858, 5.000000000000000000, 30.60000000000000142 ) ) ;
#411 = APPLICATION_CONTEXT ( 'configuration controlled 3d designs of mechanical parts and assemblies' ) ;
#412 = CARTESIAN_POINT ( 'NONE',  ( -60.14999999999999858, 5.000000000000000000, 81.75000000000000000 ) ) ;
#413 = ADVANCED_FACE ( 'NONE', ( #538 ), #551, .F. ) ;
#414 = VECTOR ( 'NONE', #144, 1000.000000000000000 ) ;
#415 = CARTESIAN_POINT ( 'NONE',  ( -60.14999999999999858, 0.000000000000000000, 80.00000000000000000 ) ) ;
#416 = AXIS2_PLACEMENT_3D ( 'NONE', #134, #379, #315 ) ;
#417 = DIRECTION ( 'NONE',  ( 0.000000000000000000, 0.000000000000000000, -1.000000000000000000 ) ) ;
#418 = APPROVAL_DATE_TIME ( #480, #196 ) ;
#419 = EDGE_CURVE ( 'NONE', #633, #341, #102, .T. ) ;
#420 = DIRECTION ( 'NONE',  ( 0.000000000000000000, 0.000000000000000000, 1.000000000000000000 ) ) ;
#421 = CARTESIAN_POINT ( 'NONE',  ( 60.14999999999999858, 5.000000000000000000, -28.84999999999999787 ) ) ;
#422 = DIRECTION ( 'NONE',  ( -1.000000000000000000, -0.000000000000000000, -0.000000000000000000 ) ) ;
#423 = CARTESIAN_POINT ( 'NONE',  ( 60.14999999999999858, 3.000000000000000000, -30.60000000000000142 ) ) ;
#424 = AXIS2_PLACEMENT_3D ( 'NONE', #32, #86, #534 ) ;
#425 = FACE_BOUND ( 'NONE', #681, .T. ) ;
#426 = EDGE_LOOP ( 'NONE', ( #340, #268 ) ) ;
#427 = AXIS2_PLACEMENT_3D ( 'NONE', #60, #239, #513 ) ;
#428 = EDGE_CURVE ( 'NONE', #458, #633, #807, .T. ) ;
#429 = DIRECTION ( 'NONE',  ( 0.000000000000000000, 0.000000000000000000, -1.000000000000000000 ) ) ;
#430 = LOCAL_TIME ( 19, 25, 31.00000000000000000, #609 ) ;
#431 = DIRECTION ( 'NONE',  ( -0.000000000000000000, 1.000000000000000000, -0.000000000000000000 ) ) ;
#432 = EDGE_LOOP ( 'NONE', ( #353, #364, #786, #816 ) ) ;
#433 = CARTESIAN_POINT ( 'NONE',  ( -136.0000000000000000, 0.000000000000000000, 96.50000000000000000 ) ) ;
#434 = DIRECTION ( 'NONE',  ( 0.000000000000000000, -0.000000000000000000, -1.000000000000000000 ) ) ;
#435 = ORIENTED_EDGE ( 'NONE', *, *, #554, .T. ) ;
#436 = CARTESIAN_POINT ( 'NONE',  ( -60.14999999999999858, 5.000000000000000000, 32.35000000000000142 ) ) ;
#437 = EDGE_CURVE ( 'NONE', #85, #184, #514, .T. ) ;
#438 = FACE_BOUND ( 'NONE', #448, .T. ) ;
#439 = VECTOR ( 'NONE', #283, 1000.000000000000000 ) ;
#440 = ORIENTED_EDGE ( 'NONE', *, *, #494, .F. ) ;
#441 = DIRECTION ( 'NONE',  ( 0.000000000000000000, 1.000000000000000000, 0.000000000000000000 ) ) ;
#442 = CIRCLE ( 'NONE', #471, 1.750000000000005107 ) ;
#443 = APPROVAL_PERSON_ORGANIZATION ( #18, #196, #783 ) ;
#444 = CARTESIAN_POINT ( 'NONE',  ( 60.14999999999999858, 5.000000000000000000, 80.00000000000000000 ) ) ;
#445 = VERTEX_POINT ( 'NONE', #222 ) ;
#446 = PLANE ( 'NONE',  #12 ) ;
#447 = DIRECTION ( 'NONE',  ( 0.000000000000000000, -1.000000000000000000, 0.000000000000000000 ) ) ;
#448 = EDGE_LOOP ( 'NONE', ( #470, #637 ) ) ;
#449 = ORIENTED_EDGE ( 'NONE', *, *, #218, .T. ) ;
#450 = DIRECTION ( 'NONE',  ( 0.000000000000000000, -1.000000000000000000, 0.000000000000000000 ) ) ;
#451 = COORDINATED_UNIVERSAL_TIME_OFFSET ( 8, 0, .AHEAD. ) ;
#452 = ORIENTED_EDGE ( 'NONE', *, *, #294, .T. ) ;
#453 = AXIS2_PLACEMENT_3D ( 'NONE', #344, #542, #284 ) ;
#454 = CARTESIAN_POINT ( 'NONE',  ( 60.14999999999999858, 0.000000000000000000, -78.25000000000000000 ) ) ;
#455 = EDGE_CURVE ( 'NONE', #115, #225, #677, .T. ) ;
#456 = MECHANICAL_CONTEXT ( 'NONE', #351, 'mechanical' ) ;
#457 = VECTOR ( 'NONE', #489, 1000.000000000000000 ) ;
#458 = VERTEX_POINT ( 'NONE', #461 ) ;
#459 = ORIENTED_EDGE ( 'NONE', *, *, #258, .F. ) ;
#460 = EDGE_LOOP ( 'NONE', ( #618, #161 ) ) ;
#461 = CARTESIAN_POINT ( 'NONE',  ( 136.0000000000000000, 3.000000000000000000, -96.50000000000000000 ) ) ;
#462 = LINE ( 'NONE', #531, #546 ) ;
#463 = EDGE_LOOP ( 'NONE', ( #533, #780 ) ) ;
#464 = ADVANCED_FACE ( 'NONE', ( #800 ), #342, .F. ) ;
#465 = VERTEX_POINT ( 'NONE', #468 ) ;
#466 = CIRCLE ( 'NONE', #528, 1.750000000000001554 ) ;
#467 = AXIS2_PLACEMENT_3D ( 'NONE', #415, #100, #50 ) ;
#468 = CARTESIAN_POINT ( 'NONE',  ( -60.14999999999999858, 3.000000000000000000, 78.25000000000000000 ) ) ;
#469 = DIRECTION ( 'NONE',  ( 0.000000000000000000, 1.000000000000000000, 0.000000000000000000 ) ) ;
#470 = ORIENTED_EDGE ( 'NONE', *, *, #769, .F. ) ;
#471 = AXIS2_PLACEMENT_3D ( 'NONE', #152, #93, #169 ) ;
#472 = DIRECTION ( 'NONE',  ( 0.000000000000000000, 0.000000000000000000, 1.000000000000000000 ) ) ;
#473 = APPROVAL_PERSON_ORGANIZATION ( #535, #774, #141 ) ;
#474 = PRODUCT_RELATED_PRODUCT_CATEGORY ( 'detail', '', ( #383 ) ) ;
#475 = CARTESIAN_POINT ( 'NONE',  ( 60.14999999999999858, 0.000000000000000000, -80.00000000000000000 ) ) ;
#476 = COORDINATED_UNIVERSAL_TIME_OFFSET ( 8, 0, .AHEAD. ) ;
#477 = DIRECTION ( 'NONE',  ( 0.000000000000000000, 0.000000000000000000, -1.000000000000000000 ) ) ;
#478 = EDGE_CURVE ( 'NONE', #689, #487, #479, .T. ) ;
#479 = LINE ( 'NONE', #398, #701 ) ;
#480 = DATE_AND_TIME ( #371, #126 ) ;
#481 = ORIENTED_EDGE ( 'NONE', *, *, #811, .T. ) ;
#482 = DIRECTION ( 'NONE',  ( 0.000000000000000000, 0.000000000000000000, -1.000000000000000000 ) ) ;
#483 = DATE_AND_TIME ( #409, #54 ) ;
#484 = VECTOR ( 'NONE', #254, 1000.000000000000000 ) ;
#485 = EDGE_CURVE ( 'NONE', #142, #242, #356, .T. ) ;
#486 = AXIS2_PLACEMENT_3D ( 'NONE', #475, #676, #335 ) ;
#487 = VERTEX_POINT ( 'NONE', #663 ) ;
#488 = CIRCLE ( 'NONE', #124, 1.750000000000001554 ) ;
#489 = DIRECTION ( 'NONE',  ( -0.000000000000000000, -1.000000000000000000, -0.000000000000000000 ) ) ;
#490 = CC_DESIGN_PERSON_AND_ORGANIZATION_ASSIGNMENT ( #569, #801, ( #288 ) ) ;
#491 = CARTESIAN_POINT ( 'NONE',  ( -60.14999999999999858, 0.000000000000000000, 30.60000000000000142 ) ) ;
#492 = DIRECTION ( 'NONE',  ( 0.000000000000000000, 0.000000000000000000, -1.000000000000000000 ) ) ;
#493 = DIRECTION ( 'NONE',  ( 0.000000000000000000, 1.000000000000000000, 0.000000000000000000 ) ) ;
#494 = EDGE_CURVE ( 'NONE', #303, #795, #442, .T. ) ;
#495 = ORIENTED_EDGE ( 'NONE', *, *, #769, .T. ) ;
#496 = DIRECTION ( 'NONE',  ( 0.000000000000000000, 0.000000000000000000, -1.000000000000000000 ) ) ;
#497 = FACE_BOUND ( 'NONE', #360, .T. ) ;
#498 = VERTEX_POINT ( 'NONE', #173 ) ;
#499 = CC_DESIGN_PERSON_AND_ORGANIZATION_ASSIGNMENT ( #405, #28, ( #383 ) ) ;
#500 = CIRCLE ( 'NONE', #416, 1.750000000000001554 ) ;
#501 = CARTESIAN_POINT ( 'NONE',  ( -136.0000000000000000, 0.000000000000000000, -96.50000000000000000 ) ) ;
#502 = CARTESIAN_POINT ( 'NONE',  ( -60.14999999999999858, 5.000000000000000000, -30.60000000000000142 ) ) ;
#503 = EDGE_LOOP ( 'NONE', ( #282, #318, #452, #402 ) ) ;
#504 = FACE_OUTER_BOUND ( 'NONE', #607, .T. ) ;
#505 = CARTESIAN_POINT ( 'NONE',  ( 60.14999999999999858, 3.000000000000000000, 28.84999999999999787 ) ) ;
#506 = VERTEX_POINT ( 'NONE', #501 ) ;
#507 = DIRECTION ( 'NONE',  ( -0.000000000000000000, 1.000000000000000000, -0.000000000000000000 ) ) ;
#508 = CARTESIAN_POINT ( 'NONE',  ( -60.14999999999999858, 0.000000000000000000, -32.35000000000000142 ) ) ;
#509 = EDGE_CURVE ( 'NONE', #303, #184, #817, .T. ) ;
#510 = DIRECTION ( 'NONE',  ( 0.000000000000000000, -1.000000000000000000, 0.000000000000000000 ) ) ;
#511 = AXIS2_PLACEMENT_3D ( 'NONE', #782, #515, #249 ) ;
#512 = VERTEX_POINT ( 'NONE', #235 ) ;
#513 = DIRECTION ( 'NONE',  ( 0.000000000000000000, 0.000000000000000000, -1.000000000000000000 ) ) ;
#514 = CIRCLE ( 'NONE', #275, 1.750000000000001554 ) ;
#515 = DIRECTION ( 'NONE',  ( 0.000000000000000000, 1.000000000000000000, 0.000000000000000000 ) ) ;
#516 = ORIENTED_EDGE ( 'NONE', *, *, #309, .F. ) ;
#517 = ORIENTED_EDGE ( 'NONE', *, *, #789, .F. ) ;
#518 = CARTESIAN_POINT ( 'NONE',  ( -60.14999999999999858, 5.000000000000000000, 80.00000000000000000 ) ) ;
#519 = APPROVAL_DATE_TIME ( #38, #774 ) ;
#520 = ORIENTED_EDGE ( 'NONE', *, *, #478, .T. ) ;
#521 = ORIENTED_EDGE ( 'NONE', *, *, #221, .F. ) ;
#522 = ADVANCED_FACE ( 'NONE', ( #119 ), #166, .F. ) ;
#523 = FACE_OUTER_BOUND ( 'NONE', #62, .T. ) ;
#524 = LINE ( 'NONE', #321, #122 ) ;
#525 = APPROVAL_STATUS ( 'not_yet_approved' ) ;
#526 = ORIENTED_EDGE ( 'NONE', *, *, #155, .F. ) ;
#527 = EDGE_LOOP ( 'NONE', ( #382, #589 ) ) ;
#528 = AXIS2_PLACEMENT_3D ( 'NONE', #189, #579, #7 ) ;
#529 = CC_DESIGN_PERSON_AND_ORGANIZATION_ASSIGNMENT ( #216, #552, ( #288 ) ) ;
#530 = CYLINDRICAL_SURFACE ( 'NONE', #139, 1.750000000000001554 ) ;
#531 = CARTESIAN_POINT ( 'NONE',  ( -60.14999999999999858, 5.000000000000000000, -78.25000000000000000 ) ) ;
#532 = AXIS2_PLACEMENT_3D ( 'NONE', #208, #96, #289 ) ;
#533 = ORIENTED_EDGE ( 'NONE', *, *, #327, .T. ) ;
#534 = DIRECTION ( 'NONE',  ( 0.000000000000000000, 0.000000000000000000, 1.000000000000000000 ) ) ;
#535 = PERSON_AND_ORGANIZATION ( #765, #300 ) ;
#536 = ORIENTED_EDGE ( 'NONE', *, *, #789, .T. ) ;
#537 = EDGE_LOOP ( 'NONE', ( #370, #393, #449, #328 ) ) ;
#538 = FACE_OUTER_BOUND ( 'NONE', #606, .T. ) ;
#539 = ORIENTED_EDGE ( 'NONE', *, *, #656, .T. ) ;
#540 = CARTESIAN_POINT ( 'NONE',  ( -60.14999999999999858, 3.000000000000000000, -81.75000000000000000 ) ) ;
#541 = CIRCLE ( 'NONE', #486, 1.750000000000001554 ) ;
#542 = DIRECTION ( 'NONE',  ( 0.000000000000000000, 1.000000000000000000, 0.000000000000000000 ) ) ;
#543 = VECTOR ( 'NONE', #27, 1000.000000000000000 ) ;
#544 = EDGE_CURVE ( 'NONE', #458, #147, #622, .T. ) ;
#545 = DIRECTION ( 'NONE',  ( -0.000000000000000000, 1.000000000000000000, -0.000000000000000000 ) ) ;
#546 = VECTOR ( 'NONE', #388, 1000.000000000000000 ) ;
#547 = CARTESIAN_POINT ( 'NONE',  ( 60.14999999999999858, 5.000000000000000000, -80.00000000000000000 ) ) ;
#548 = COORDINATED_UNIVERSAL_TIME_OFFSET ( 8, 0, .AHEAD. ) ;
#549 = DIRECTION ( 'NONE',  ( 0.000000000000000000, -1.000000000000000000, 0.000000000000000000 ) ) ;
#550 = EDGE_CURVE ( 'NONE', #808, #720, #298, .T. ) ;
#551 = CYLINDRICAL_SURFACE ( 'NONE', #785, 1.750000000000001554 ) ;
#552 = PERSON_AND_ORGANIZATION_ROLE ( 'design_supplier' ) ;
#553 = VERTEX_POINT ( 'NONE', #56 ) ;
#554 = EDGE_CURVE ( 'NONE', #23, #35, #112, .T. ) ;
#555 = CYLINDRICAL_SURFACE ( 'NONE', #91, 1.750000000000001554 ) ;
#556 = PERSON_AND_ORGANIZATION ( #765, #300 ) ;
#557 = AXIS2_PLACEMENT_3D ( 'NONE', #266, #586, #642 ) ;
#558 = CARTESIAN_POINT ( 'NONE',  ( 60.14999999999999858, 3.000000000000000000, -80.00000000000000000 ) ) ;
#559 = DIRECTION ( 'NONE',  ( 0.000000000000000000, 0.000000000000000000, -1.000000000000000000 ) ) ;
#560 = EDGE_CURVE ( 'NONE', #808, #568, #357, .T. ) ;
#561 = CYLINDRICAL_SURFACE ( 'NONE', #611, 1.750000000000001554 ) ;
#562 = ORIENTED_EDGE ( 'NONE', *, *, #662, .F. ) ;
#563 = CARTESIAN_POINT ( 'NONE',  ( -136.0000000000000000, 3.000000000000000000, -96.50000000000000000 ) ) ;
#564 = LINE ( 'NONE', #567, #754 ) ;
#565 = ORIENTED_EDGE ( 'NONE', *, *, #255, .F. ) ;
#566 = CARTESIAN_POINT ( 'NONE',  ( 60.14999999999999858, 0.000000000000000000, -28.84999999999999787 ) ) ;
#567 = CARTESIAN_POINT ( 'NONE',  ( 60.14999999999999858, 5.000000000000000000, -78.25000000000000000 ) ) ;
#568 = VERTEX_POINT ( 'NONE', #566 ) ;
#569 = PERSON_AND_ORGANIZATION ( #765, #300 ) ;
#570 = CARTESIAN_POINT ( 'NONE',  ( -60.14999999999999858, 5.000000000000000000, -81.75000000000000000 ) ) ;
#571 = ORIENTED_EDGE ( 'NONE', *, *, #229, .T. ) ;
#572 = EDGE_CURVE ( 'NONE', #506, #397, #295, .T. ) ;
#573 = DIRECTION ( 'NONE',  ( 0.000000000000000000, 0.000000000000000000, -1.000000000000000000 ) ) ;
#574 = CYLINDRICAL_SURFACE ( 'NONE', #623, 1.750000000000001554 ) ;
#575 = CARTESIAN_POINT ( 'NONE',  ( 60.14999999999999858, 3.000000000000000000, 32.35000000000000142 ) ) ;
#576 = ORIENTED_EDGE ( 'NONE', *, *, #403, .T. ) ;
#577 = DIRECTION ( 'NONE',  ( -1.000000000000000000, 0.000000000000000000, 0.000000000000000000 ) ) ;
#578 = PRODUCT_DEFINITION ( '未知', '', #288, #809 ) ;
#579 = DIRECTION ( 'NONE',  ( -0.000000000000000000, 1.000000000000000000, -0.000000000000000000 ) ) ;
#580 = ORIENTED_EDGE ( 'NONE', *, *, #276, .T. ) ;
#581 = CIRCLE ( 'NONE', #51, 1.750000000000001554 ) ;
#582 = EDGE_LOOP ( 'NONE', ( #211, #30 ) ) ;
#583 = CYLINDRICAL_SURFACE ( 'NONE', #625, 1.750000000000001554 ) ;
#584 = CIRCLE ( 'NONE', #746, 1.750000000000001554 ) ;
#585 = LOCAL_TIME ( 19, 25, 31.00000000000000000, #476 ) ;
#586 = DIRECTION ( 'NONE',  ( 0.000000000000000000, 1.000000000000000000, 0.000000000000000000 ) ) ;
#587 = ADVANCED_FACE ( 'NONE', ( #683 ), #555, .F. ) ;
#588 = EDGE_CURVE ( 'NONE', #795, #303, #788, .T. ) ;
#589 = ORIENTED_EDGE ( 'NONE', *, *, #550, .F. ) ;
#590 = DIRECTION ( 'NONE',  ( 0.000000000000000000, -0.000000000000000000, -1.000000000000000000 ) ) ;
#591 = CALENDAR_DATE ( 2026, 26, 7 ) ;
#592 = ORIENTED_EDGE ( 'NONE', *, *, #376, .F. ) ;
#593 = DIRECTION ( 'NONE',  ( 0.000000000000000000, -1.000000000000000000, 0.000000000000000000 ) ) ;
#594 = DIRECTION ( 'NONE',  ( 0.000000000000000000, 0.000000000000000000, -1.000000000000000000 ) ) ;
#595 = ORIENTED_EDGE ( 'NONE', *, *, #90, .F. ) ;
#596 = VECTOR ( 'NONE', #813, 1000.000000000000000 ) ;
#597 = CIRCLE ( 'NONE', #467, 1.750000000000001554 ) ;
#598 = DIRECTION ( 'NONE',  ( 0.000000000000000000, 0.000000000000000000, -1.000000000000000000 ) ) ;
#599 = DIRECTION ( 'NONE',  ( 0.000000000000000000, 0.000000000000000000, -1.000000000000000000 ) ) ;
#600 = AXIS2_PLACEMENT_3D ( 'NONE', #68, #188, #707 ) ;
#601 = CC_DESIGN_APPROVAL ( #774, ( #578 ) ) ;
#602 = ORIENTED_EDGE ( 'NONE', *, *, #182, .T. ) ;
#603 = CC_DESIGN_DATE_AND_TIME_ASSIGNMENT ( #136, #80, ( #578 ) ) ;
#604 = DIRECTION ( 'NONE',  ( 0.000000000000000000, 0.000000000000000000, 1.000000000000000000 ) ) ;
#605 = LINE ( 'NONE', #209, #259 ) ;
#606 = EDGE_LOOP ( 'NONE', ( #435, #187, #274, #654 ) ) ;
#607 = EDGE_LOOP ( 'NONE', ( #620, #481, #179, #207 ) ) ;
#608 = CARTESIAN_POINT ( 'NONE',  ( -136.0000000000000000, 3.000000000000000000, 96.50000000000000000 ) ) ;
#609 = COORDINATED_UNIVERSAL_TIME_OFFSET ( 8, 0, .AHEAD. ) ;
#610 = CARTESIAN_POINT ( 'NONE',  ( -60.14999999999999858, 0.000000000000000000, -80.00000000000000000 ) ) ;
#611 = AXIS2_PLACEMENT_3D ( 'NONE', #502, #624, #69 ) ;
#612 = DIRECTION ( 'NONE',  ( 0.000000000000000000, 1.000000000000000000, 0.000000000000000000 ) ) ;
#613 = COORDINATED_UNIVERSAL_TIME_OFFSET ( 8, 0, .AHEAD. ) ;
#614 = VECTOR ( 'NONE', #641, 1000.000000000000000 ) ;
#615 = ADVANCED_FACE ( 'NONE', ( #753 ), #762, .F. ) ;
#616 = VERTEX_POINT ( 'NONE', #52 ) ;
#617 = CARTESIAN_POINT ( 'NONE',  ( -136.0000000000000000, 3.000000000000000000, 96.50000000000000000 ) ) ;
#618 = ORIENTED_EDGE ( 'NONE', *, *, #332, .T. ) ;
#619 = ADVANCED_BREP_SHAPE_REPRESENTATION ( 'FN-PLT-004_fr4-rect_8HOLE-NOMINAL_R0.4', ( #368, #113 ), #358 ) ;
#620 = ORIENTED_EDGE ( 'NONE', *, *, #819, .F. ) ;
#621 = EDGE_CURVE ( 'NONE', #720, #498, #245, .T. ) ;
#622 = LINE ( 'NONE', #690, #457 ) ;
#623 = AXIS2_PLACEMENT_3D ( 'NONE', #444, #447, #135 ) ;
#624 = DIRECTION ( 'NONE',  ( 0.000000000000000000, -1.000000000000000000, 0.000000000000000000 ) ) ;
#625 = AXIS2_PLACEMENT_3D ( 'NONE', #131, #265, #573 ) ;
#626 = AXIS2_PLACEMENT_3D ( 'NONE', #793, #281, #594 ) ;
#627 = DIRECTION ( 'NONE',  ( -0.000000000000000000, 1.000000000000000000, -0.000000000000000000 ) ) ;
#628 = FACE_OUTER_BOUND ( 'NONE', #251, .T. ) ;
#629 = ORIENTED_EDGE ( 'NONE', *, *, #362, .F. ) ;
#630 = CARTESIAN_POINT ( 'NONE',  ( 60.14999999999999858, 5.000000000000000000, -30.60000000000000142 ) ) ;
#631 = ADVANCED_FACE ( 'NONE', ( #504 ), #365, .F. ) ;
#632 = CARTESIAN_POINT ( 'NONE',  ( -136.0000000000000000, 0.000000000000000000, -96.50000000000000000 ) ) ;
#633 = VERTEX_POINT ( 'NONE', #563 ) ;
#634 = DIRECTION ( 'NONE',  ( 0.000000000000000000, -1.000000000000000000, 0.000000000000000000 ) ) ;
#635 = FACE_BOUND ( 'NONE', #143, .T. ) ;
#636 = ADVANCED_FACE ( 'NONE', ( #232 ), #307, .F. ) ;
#637 = ORIENTED_EDGE ( 'NONE', *, *, #735, .F. ) ;
#638 = FACE_BOUND ( 'NONE', #460, .T. ) ;
#639 = PLANE ( 'NONE',  #87 ) ;
#640 = ORIENTED_EDGE ( 'NONE', *, *, #758, .T. ) ;
#641 = DIRECTION ( 'NONE',  ( 0.000000000000000000, -1.000000000000000000, 0.000000000000000000 ) ) ;
#642 = DIRECTION ( 'NONE',  ( 0.000000000000000000, 0.000000000000000000, 1.000000000000000000 ) ) ;
#643 = ORIENTED_EDGE ( 'NONE', *, *, #735, .T. ) ;
#644 = LINE ( 'NONE', #773, #614 ) ;
#645 = FACE_OUTER_BOUND ( 'NONE', #132, .T. ) ;
#646 = VERTEX_POINT ( 'NONE', #63 ) ;
#647 = VECTOR ( 'NONE', #159, 1000.000000000000000 ) ;
#648 = ORIENTED_EDGE ( 'NONE', *, *, #182, .F. ) ;
#649 = CARTESIAN_POINT ( 'NONE',  ( 60.14999999999999858, 0.000000000000000000, 30.60000000000000142 ) ) ;
#650 = CIRCLE ( 'NONE', #732, 1.750000000000005107 ) ;
#651 = CIRCLE ( 'NONE', #756, 1.750000000000001554 ) ;
#652 = CARTESIAN_POINT ( 'NONE',  ( -60.14999999999999858, 3.000000000000000000, -28.84999999999999787 ) ) ;
#653 = ORIENTED_EDGE ( 'NONE', *, *, #57, .F. ) ;
#654 = ORIENTED_EDGE ( 'NONE', *, *, #230, .F. ) ;
#655 = DIRECTION ( 'NONE',  ( 0.000000000000000000, -1.000000000000000000, 0.000000000000000000 ) ) ;
#656 = EDGE_CURVE ( 'NONE', #225, #115, #53, .T. ) ;
#657 = EDGE_LOOP ( 'NONE', ( #380, #4, #130, #154 ) ) ;
#658 = DIRECTION ( 'NONE',  ( 0.000000000000000000, 0.000000000000000000, -1.000000000000000000 ) ) ;
#659 = DIRECTION ( 'NONE',  ( -0.000000000000000000, 1.000000000000000000, -0.000000000000000000 ) ) ;
#660 = ORIENTED_EDGE ( 'NONE', *, *, #550, .T. ) ;
#661 = AXIS2_PLACEMENT_3D ( 'NONE', #823, #510, #317 ) ;
#662 = EDGE_CURVE ( 'NONE', #445, #279, #488, .T. ) ;
#663 = CARTESIAN_POINT ( 'NONE',  ( 60.14999999999999858, 0.000000000000000000, -81.75000000000000000 ) ) ;
#664 = CARTESIAN_POINT ( 'NONE',  ( -60.14999999999999858, 3.000000000000000000, -80.00000000000000000 ) ) ;
#665 = ORIENTED_EDGE ( 'NONE', *, *, #544, .T. ) ;
#666 = CARTESIAN_POINT ( 'NONE',  ( -60.14999999999999858, 3.000000000000000000, -78.25000000000000000 ) ) ;
#667 = CARTESIAN_POINT ( 'NONE',  ( -60.14999999999999858, 5.000000000000000000, -80.00000000000000000 ) ) ;
#668 = DIRECTION ( 'NONE',  ( 0.000000000000000000, 0.000000000000000000, -1.000000000000000000 ) ) ;
#669 = ORIENTED_EDGE ( 'NONE', *, *, #682, .T. ) ;
#670 = CARTESIAN_POINT ( 'NONE',  ( -60.14999999999999858, 5.000000000000000000, -32.35000000000000142 ) ) ;
#671 = LINE ( 'NONE', #412, #101 ) ;
#672 = SHAPE_DEFINITION_REPRESENTATION ( #263, #619 ) ;
#673 = ADVANCED_FACE ( 'NONE', ( #319 ), #530, .F. ) ;
#674 = DIRECTION ( 'NONE',  ( 0.000000000000000000, 0.000000000000000000, -1.000000000000000000 ) ) ;
#675 = VECTOR ( 'NONE', #404, 1000.000000000000000 ) ;
#676 = DIRECTION ( 'NONE',  ( 0.000000000000000000, 1.000000000000000000, 0.000000000000000000 ) ) ;
#677 = CIRCLE ( 'NONE', #532, 1.750000000000001554 ) ;
#678 = ORIENTED_EDGE ( 'NONE', *, *, #811, .F. ) ;
#679 = DIRECTION ( 'NONE',  ( -1.000000000000000000, 0.000000000000000000, -0.000000000000000000 ) ) ;
#680 = ADVANCED_FACE ( 'NONE', ( #523 ), #583, .F. ) ;
#681 = EDGE_LOOP ( 'NONE', ( #190, #269 ) ) ;
#682 = EDGE_CURVE ( 'NONE', #795, #85, #386, .T. ) ;
#683 = FACE_OUTER_BOUND ( 'NONE', #325, .T. ) ;
#684 = FACE_BOUND ( 'NONE', #150, .T. ) ;
#685 = DIRECTION ( 'NONE',  ( 0.000000000000000000, 0.000000000000000000, -1.000000000000000000 ) ) ;
#686 = AXIS2_PLACEMENT_3D ( 'NONE', #46, #338, #163 ) ;
#687 = DIRECTION ( 'NONE',  ( -0.000000000000000000, -1.000000000000000000, -0.000000000000000000 ) ) ;
#688 = VECTOR ( 'NONE', #329, 1000.000000000000000 ) ;
#689 = VERTEX_POINT ( 'NONE', #781 ) ;
#690 = CARTESIAN_POINT ( 'NONE',  ( 136.0000000000000000, 3.000000000000000000, -96.50000000000000000 ) ) ;
#691 = DIRECTION ( 'NONE',  ( 0.000000000000000000, 0.000000000000000000, -1.000000000000000000 ) ) ;
#692 = ORIENTED_EDGE ( 'NONE', *, *, #221, .T. ) ;
#693 = CARTESIAN_POINT ( 'NONE',  ( 60.14999999999999858, 5.000000000000000000, -32.35000000000000142 ) ) ;
#694 = EDGE_CURVE ( 'NONE', #341, #397, #766, .T. ) ;
#695 = LINE ( 'NONE', #768, #333 ) ;
#696 = ORIENTED_EDGE ( 'NONE', *, *, #588, .F. ) ;
#697 = FACE_BOUND ( 'NONE', #76, .T. ) ;
#698 = CLOSED_SHELL ( 'NONE', ( #110, #636, #127, #464, #587, #680, #48, #413, #168, #522, #706, #615, #191, #740, #631, #286, #727, #320, #378, #673, #92, #177 ) ) ;
#699 = CARTESIAN_POINT ( 'NONE',  ( 136.0000000000000000, 0.000000000000000000, 96.50000000000000000 ) ) ;
#700 = ORIENTED_EDGE ( 'NONE', *, *, #704, .T. ) ;
#701 = VECTOR ( 'NONE', #730, 1000.000000000000000 ) ;
#702 = CC_DESIGN_APPROVAL ( #196, ( #288 ) ) ;
#703 = DIRECTION ( 'NONE',  ( 0.000000000000000000, -1.000000000000000000, 0.000000000000000000 ) ) ;
#704 = EDGE_CURVE ( 'NONE', #306, #121, #650, .T. ) ;
#705 = ORIENTED_EDGE ( 'NONE', *, *, #723, .F. ) ;
#706 = ADVANCED_FACE ( 'NONE', ( #129 ), #446, .F. ) ;
#707 = DIRECTION ( 'NONE',  ( 0.000000000000000000, 0.000000000000000000, -1.000000000000000000 ) ) ;
#708 = VERTEX_POINT ( 'NONE', #261 ) ;
#709 = VERTEX_POINT ( 'NONE', #454 ) ;
#710 = CARTESIAN_POINT ( 'NONE',  ( -60.14999999999999858, 3.000000000000000000, 80.00000000000000000 ) ) ;
#711 = CARTESIAN_POINT ( 'NONE',  ( 136.0000000000000000, 3.000000000000000000, 96.50000000000000000 ) ) ;
#712 = CALENDAR_DATE ( 2026, 26, 7 ) ;
#713 = ORIENTED_EDGE ( 'NONE', *, *, #745, .T. ) ;
#714 = CIRCLE ( 'NONE', #767, 1.750000000000001554 ) ;
#715 = EDGE_LOOP ( 'NONE', ( #11, #770, #520, #629 ) ) ;
#716 = DIRECTION ( 'NONE',  ( 0.000000000000000000, 1.000000000000000000, 0.000000000000000000 ) ) ;
#717 = AXIS2_PLACEMENT_3D ( 'NONE', #105, #814, #227 ) ;
#718 = LINE ( 'NONE', #316, #484 ) ;
#719 = CARTESIAN_POINT ( 'NONE',  ( -60.14999999999999858, 0.000000000000000000, -80.00000000000000000 ) ) ;
#720 = VERTEX_POINT ( 'NONE', #248 ) ;
#721 = LINE ( 'NONE', #15, #414 ) ;
#722 = EDGE_LOOP ( 'NONE', ( #73, #234, #764, #82 ) ) ;
#723 = EDGE_CURVE ( 'NONE', #708, #395, #584, .T. ) ;
#724 = ORIENTED_EDGE ( 'NONE', *, *, #1, .T. ) ;
#725 = DIRECTION ( 'NONE',  ( 0.000000000000000000, 0.000000000000000000, -1.000000000000000000 ) ) ;
#726 =( LENGTH_UNIT ( ) NAMED_UNIT ( * ) SI_UNIT ( .MILLI., .METRE. ) );
#727 = ADVANCED_FACE ( 'NONE', ( #79 ), #326, .F. ) ;
#728 = EDGE_LOOP ( 'NONE', ( #195, #643, #16, #516 ) ) ;
#729 = CIRCLE ( 'NONE', #149, 1.750000000000001554 ) ;
#730 = DIRECTION ( 'NONE',  ( 0.000000000000000000, -1.000000000000000000, 0.000000000000000000 ) ) ;
#731 =( NAMED_UNIT ( * ) SI_UNIT ( $, .STERADIAN. ) SOLID_ANGLE_UNIT ( ) );
#732 = AXIS2_PLACEMENT_3D ( 'NONE', #381, #197, #829 ) ;
#733 = ORIENTED_EDGE ( 'NONE', *, *, #745, .F. ) ;
#734 = FACE_OUTER_BOUND ( 'NONE', #297, .T. ) ;
#735 = EDGE_CURVE ( 'NONE', #791, #137, #500, .T. ) ;
#736 = EDGE_CURVE ( 'NONE', #791, #121, #644, .T. ) ;
#737 = CARTESIAN_POINT ( 'NONE',  ( -60.14999999999999858, 0.000000000000000000, 78.25000000000000000 ) ) ;
#738 = CALENDAR_DATE ( 2026, 26, 7 ) ;
#739 = DIRECTION ( 'NONE',  ( 0.000000000000000000, 0.000000000000000000, -1.000000000000000000 ) ) ;
#740 = ADVANCED_FACE ( 'NONE', ( #74, #638, #253, #140, #787, #185, #697, #123, #776 ), #192, .T. ) ;
#741 = DIRECTION ( 'NONE',  ( 0.000000000000000000, -1.000000000000000000, 0.000000000000000000 ) ) ;
#742 = ORIENTED_EDGE ( 'NONE', *, *, #81, .F. ) ;
#743 = AXIS2_PLACEMENT_3D ( 'NONE', #117, #114, #434 ) ;
#744 = DIRECTION ( 'NONE',  ( -0.000000000000000000, 1.000000000000000000, -0.000000000000000000 ) ) ;
#745 = EDGE_CURVE ( 'NONE', #242, #142, #348, .T. ) ;
#746 = AXIS2_PLACEMENT_3D ( 'NONE', #649, #716, #324 ) ;
#747 = ORIENTED_EDGE ( 'NONE', *, *, #419, .F. ) ;
#748 = DIRECTION ( 'NONE',  ( 0.000000000000000000, 0.000000000000000000, 1.000000000000000000 ) ) ;
#749 = DIRECTION ( 'NONE',  ( 0.000000000000000000, 0.000000000000000000, -1.000000000000000000 ) ) ;
#750 = DIRECTION ( 'NONE',  ( -0.000000000000000000, 1.000000000000000000, -0.000000000000000000 ) ) ;
#751 = FACE_OUTER_BOUND ( 'NONE', #657, .T. ) ;
#752 = ORIENTED_EDGE ( 'NONE', *, *, #145, .F. ) ;
#753 = FACE_OUTER_BOUND ( 'NONE', #133, .T. ) ;
#754 = VECTOR ( 'NONE', #302, 1000.000000000000000 ) ;
#755 = DIRECTION ( 'NONE',  ( 0.000000000000000000, 0.000000000000000000, -1.000000000000000000 ) ) ;
#756 = AXIS2_PLACEMENT_3D ( 'NONE', #719, #469, #399 ) ;
#757 = ORIENTED_EDGE ( 'NONE', *, *, #294, .F. ) ;
#758 = EDGE_CURVE ( 'NONE', #465, #761, #824, .T. ) ;
#759 = DIRECTION ( 'NONE',  ( 0.000000000000000000, -1.000000000000000000, 0.000000000000000000 ) ) ;
#760 = FACE_BOUND ( 'NONE', #527, .T. ) ;
#761 = VERTEX_POINT ( 'NONE', #94 ) ;
#762 = PLANE ( 'NONE',  #802 ) ;
#763 = DIRECTION ( 'NONE',  ( 0.000000000000000000, 0.000000000000000000, 1.000000000000000000 ) ) ;
#764 = ORIENTED_EDGE ( 'NONE', *, *, #332, .F. ) ;
#765 = PERSON ( '未指定', '未指定', '未指定', ('未指定'), ('未指定'), ('未指定') ) ;
#766 = LINE ( 'NONE', #71, #688 ) ;
#767 = AXIS2_PLACEMENT_3D ( 'NONE', #359, #493, #763 ) ;
#768 = CARTESIAN_POINT ( 'NONE',  ( -60.14999999999999858, 5.000000000000000000, 78.25000000000000000 ) ) ;
#769 = EDGE_CURVE ( 'NONE', #137, #791, #164, .T. ) ;
#770 = ORIENTED_EDGE ( 'NONE', *, *, #57, .T. ) ;
#771 = VECTOR ( 'NONE', #759, 1000.000000000000000 ) ;
#772 = SECURITY_CLASSIFICATION ( '', '', #292 ) ;
#773 = CARTESIAN_POINT ( 'NONE',  ( -60.14999999999999858, 5.000000000000000000, -28.84999999999999787 ) ) ;
#774 = APPROVAL ( #97, '未指定' ) ;
#775 = ORIENTED_EDGE ( 'NONE', *, *, #255, .T. ) ;
#776 = FACE_OUTER_BOUND ( 'NONE', #200, .T. ) ;
#777 = CARTESIAN_POINT ( 'NONE',  ( -60.14999999999999858, 3.000000000000000000, 28.84999999999999787 ) ) ;
#778 = PERSON_AND_ORGANIZATION ( #765, #300 ) ;
#779 = ORIENTED_EDGE ( 'NONE', *, *, #736, .T. ) ;
#780 = ORIENTED_EDGE ( 'NONE', *, *, #34, .T. ) ;
#781 = CARTESIAN_POINT ( 'NONE',  ( 60.14999999999999858, 3.000000000000000000, -81.75000000000000000 ) ) ;
#782 = CARTESIAN_POINT ( 'NONE',  ( -60.14999999999999858, 0.000000000000000000, -30.60000000000000142 ) ) ;
#783 = APPROVAL_ROLE ( '' ) ;
#784 = ORIENTED_EDGE ( 'NONE', *, *, #309, .T. ) ;
#785 = AXIS2_PLACEMENT_3D ( 'NONE', #667, #99, #725 ) ;
#786 = ORIENTED_EDGE ( 'NONE', *, *, #394, .F. ) ;
#787 = FACE_BOUND ( 'NONE', #582, .T. ) ;
#788 = CIRCLE ( 'NONE', #312, 1.750000000000005107 ) ;
#789 = EDGE_CURVE ( 'NONE', #115, #279, #605, .T. ) ;
#790 = CARTESIAN_POINT ( 'NONE',  ( -60.14999999999999858, 0.000000000000000000, -81.75000000000000000 ) ) ;
#791 = VERTEX_POINT ( 'NONE', #652 ) ;
#792 = FACE_OUTER_BOUND ( 'NONE', #715, .T. ) ;
#793 = CARTESIAN_POINT ( 'NONE',  ( -60.14999999999999858, 3.000000000000000000, -30.60000000000000142 ) ) ;
#794 = ORIENTED_EDGE ( 'NONE', *, *, #20, .T. ) ;
#795 = VERTEX_POINT ( 'NONE', #203 ) ;
#796 = DIRECTION ( 'NONE',  ( 0.000000000000000000, 1.000000000000000000, 0.000000000000000000 ) ) ;
#797 = ORIENTED_EDGE ( 'NONE', *, *, #346, .F. ) ;
#798 = EDGE_CURVE ( 'NONE', #264, #646, #651, .T. ) ;
#799 = ORIENTED_EDGE ( 'NONE', *, *, #485, .T. ) ;
#800 = FACE_OUTER_BOUND ( 'NONE', #432, .T. ) ;
#801 = PERSON_AND_ORGANIZATION_ROLE ( 'creator' ) ;
#802 = AXIS2_PLACEMENT_3D ( 'NONE', #304, #748, #826 ) ;
#803 = AXIS2_PLACEMENT_3D ( 'NONE', #664, #659, #668 ) ;
#804 = ORIENTED_EDGE ( 'NONE', *, *, #485, .F. ) ;
#805 = CARTESIAN_POINT ( 'NONE',  ( 60.14999999999999858, 3.000000000000000000, 30.60000000000000142 ) ) ;
#806 = EDGE_LOOP ( 'NONE', ( #343, #660, #400, #797 ) ) ;
#807 = LINE ( 'NONE', #148, #543 ) ;
#808 = VERTEX_POINT ( 'NONE', #205 ) ;
#809 = DESIGN_CONTEXT ( 'detailed design', #411, 'design' ) ;
#810 = CARTESIAN_POINT ( 'NONE',  ( -60.14999999999999858, 3.000000000000000000, 30.60000000000000142 ) ) ;
#811 = EDGE_CURVE ( 'NONE', #35, #23, #174, .T. ) ;
#812 = VECTOR ( 'NONE', #703, 1000.000000000000000 ) ;
#813 = DIRECTION ( 'NONE',  ( 0.000000000000000000, -1.000000000000000000, 0.000000000000000000 ) ) ;
#814 = DIRECTION ( 'NONE',  ( 0.000000000000000000, -1.000000000000000000, 0.000000000000000000 ) ) ;
#815 = DIRECTION ( 'NONE',  ( 0.000000000000000000, 0.000000000000000000, -1.000000000000000000 ) ) ;
#816 = ORIENTED_EDGE ( 'NONE', *, *, #478, .F. ) ;
#817 = LINE ( 'NONE', #299, #151 ) ;
#818 = FACE_BOUND ( 'NONE', #70, .T. ) ;
#819 = EDGE_CURVE ( 'NONE', #35, #646, #462, .T. ) ;
#820 = ORIENTED_EDGE ( 'NONE', *, *, #544, .F. ) ;
#821 = DIRECTION ( 'NONE',  ( 0.000000000000000000, -1.000000000000000000, 0.000000000000000000 ) ) ;
#822 = AXIS2_PLACEMENT_3D ( 'NONE', #291, #741, #598 ) ;
#823 = CARTESIAN_POINT ( 'NONE',  ( -60.14999999999999858, 5.000000000000000000, 30.60000000000000142 ) ) ;
#824 = CIRCLE ( 'NONE', #66, 1.750000000000001554 ) ;
#825 = EDGE_LOOP ( 'NONE', ( #602, #820, #757, #724 ) ) ;
#826 = DIRECTION ( 'NONE',  ( 1.000000000000000000, 0.000000000000000000, -0.000000000000000000 ) ) ;
#827 = CARTESIAN_POINT ( 'NONE',  ( -136.0000000000000000, 3.000000000000000000, 96.50000000000000000 ) ) ;
#828 = ORIENTED_EDGE ( 'NONE', *, *, #202, .F. ) ;
#829 = DIRECTION ( 'NONE',  ( 0.000000000000000000, 0.000000000000000000, 1.000000000000000000 ) ) ;
ENDSEC;
END-ISO-10303-21;
