ISO-10303-21;
HEADER;
FILE_DESCRIPTION (( 'STEP AP203' ),
    '1' );
FILE_NAME ('FN-PWR-001_cn3791-module-envelope_R0.4.STEP',
    '2026-07-26T11:26:16',
    ( '' ),
    ( '' ),
    'SwSTEP 2.0',
    'SolidWorks 2022',
    '' );
FILE_SCHEMA (( 'CONFIG_CONTROL_DESIGN' ));
ENDSEC;

DATA;
#1 = VECTOR ( 'NONE', #61, 1000.000000000000000 ) ;
#2 = EDGE_LOOP ( 'NONE', ( #236, #167, #127, #148 ) ) ;
#3 = LINE ( 'NONE', #146, #68 ) ;
#4 = FACE_OUTER_BOUND ( 'NONE', #2, .T. ) ;
#5 = CC_DESIGN_PERSON_AND_ORGANIZATION_ASSIGNMENT ( #214, #59, ( #29 ) ) ;
#6 = EDGE_LOOP ( 'NONE', ( #182, #26, #107, #39 ) ) ;
#7 = CARTESIAN_POINT ( 'NONE',  ( -23.00000000000000000, 0.000000000000000000, -10.50000000000000000 ) ) ;
#8 = VECTOR ( 'NONE', #227, 1000.000000000000000 ) ;
#9 = ORIENTED_EDGE ( 'NONE', *, *, #71, .T. ) ;
#10 = CARTESIAN_POINT ( 'NONE',  ( -23.00000000000000000, 0.000000000000000000, 10.50000000000000000 ) ) ;
#11 = FACE_OUTER_BOUND ( 'NONE', #200, .T. ) ;
#12 = CARTESIAN_POINT ( 'NONE',  ( 0.000000000000000000, 10.00000000000000000, 0.000000000000000000 ) ) ;
#13 = DATE_AND_TIME ( #54, #52 ) ;
#14 = ADVANCED_FACE ( 'NONE', ( #143 ), #44, .F. ) ;
#15 = DIRECTION ( 'NONE',  ( -0.000000000000000000, -1.000000000000000000, -0.000000000000000000 ) ) ;
#16 = COORDINATED_UNIVERSAL_TIME_OFFSET ( 8, 0, .AHEAD. ) ;
#17 = PERSON_AND_ORGANIZATION_ROLE ( 'design_owner' ) ;
#18 = EDGE_CURVE ( 'NONE', #113, #147, #98, .T. ) ;
#19 = ORIENTED_EDGE ( 'NONE', *, *, #185, .F. ) ;
#20 = DATE_TIME_ROLE ( 'classification_date' ) ;
#21 = VECTOR ( 'NONE', #149, 1000.000000000000000 ) ;
#22 = DIRECTION ( 'NONE',  ( -0.000000000000000000, -1.000000000000000000, -0.000000000000000000 ) ) ;
#23 = ORIENTED_EDGE ( 'NONE', *, *, #185, .T. ) ;
#24 = ORIENTED_EDGE ( 'NONE', *, *, #204, .F. ) ;
#25 = DIRECTION ( 'NONE',  ( 1.000000000000000000, 0.000000000000000000, 0.000000000000000000 ) ) ;
#26 = ORIENTED_EDGE ( 'NONE', *, *, #34, .F. ) ;
#27 = EDGE_LOOP ( 'NONE', ( #96, #19, #199, #9 ) ) ;
#28 = CARTESIAN_POINT ( 'NONE',  ( 23.00000000000000000, 10.00000000000000000, 10.50000000000000000 ) ) ;
#29 = PRODUCT_DEFINITION ( '未知', '', #144, #92 ) ;
#30 = DIRECTION ( 'NONE',  ( 0.000000000000000000, 0.000000000000000000, 1.000000000000000000 ) ) ;
#31 = DIRECTION ( 'NONE',  ( 1.000000000000000000, -0.000000000000000000, 0.000000000000000000 ) ) ;
#32 = PERSON_AND_ORGANIZATION_ROLE ( 'design_supplier' ) ;
#33 = CALENDAR_DATE ( 2026, 26, 7 ) ;
#34 = EDGE_CURVE ( 'NONE', #147, #79, #217, .T. ) ;
#35 = PERSON_AND_ORGANIZATION ( #114, #231 ) ;
#36 = MANIFOLD_SOLID_BREP ( '凸台-拉伸1', #216 ) ;
#37 = VECTOR ( 'NONE', #51, 1000.000000000000000 ) ;
#38 = EDGE_CURVE ( 'NONE', #58, #132, #221, .T. ) ;
#39 = ORIENTED_EDGE ( 'NONE', *, *, #204, .T. ) ;
#40 = ORIENTED_EDGE ( 'NONE', *, *, #38, .T. ) ;
#41 = AXIS2_PLACEMENT_3D ( 'NONE', #115, #64, #203 ) ;
#42 = ORIENTED_EDGE ( 'NONE', *, *, #105, .F. ) ;
#43 = CARTESIAN_POINT ( 'NONE',  ( 23.00000000000000000, 10.00000000000000000, -10.50000000000000000 ) ) ;
#44 = PLANE ( 'NONE',  #41 ) ;
#45 =( NAMED_UNIT ( * ) SI_UNIT ( $, .STERADIAN. ) SOLID_ANGLE_UNIT ( ) );
#46 = SECURITY_CLASSIFICATION ( '', '', #140 ) ;
#47 = CARTESIAN_POINT ( 'NONE',  ( -23.00000000000000000, 10.00000000000000000, -10.50000000000000000 ) ) ;
#48 = FACE_OUTER_BOUND ( 'NONE', #183, .T. ) ;
#49 = CC_DESIGN_PERSON_AND_ORGANIZATION_ASSIGNMENT ( #86, #122, ( #46 ) ) ;
#50 = MECHANICAL_CONTEXT ( 'NONE', #53, 'mechanical' ) ;
#51 = DIRECTION ( 'NONE',  ( -0.000000000000000000, -0.000000000000000000, 1.000000000000000000 ) ) ;
#52 = LOCAL_TIME ( 19, 26, 16.00000000000000000, #55 ) ;
#53 = APPLICATION_CONTEXT ( 'configuration controlled 3d designs of mechanical parts and assemblies' ) ;
#54 = CALENDAR_DATE ( 2026, 26, 7 ) ;
#55 = COORDINATED_UNIVERSAL_TIME_OFFSET ( 8, 0, .AHEAD. ) ;
#56 = VECTOR ( 'NONE', #150, 1000.000000000000000 ) ;
#57 = DATE_AND_TIME ( #157, #224 ) ;
#58 = VERTEX_POINT ( 'NONE', #76 ) ;
#59 = PERSON_AND_ORGANIZATION_ROLE ( 'creator' ) ;
#60 = CC_DESIGN_APPROVAL ( #218, ( #29 ) ) ;
#61 = DIRECTION ( 'NONE',  ( -1.000000000000000000, -0.000000000000000000, -0.000000000000000000 ) ) ;
#62 = DIRECTION ( 'NONE',  ( -0.000000000000000000, -1.000000000000000000, -0.000000000000000000 ) ) ;
#63 = VERTEX_POINT ( 'NONE', #112 ) ;
#64 = DIRECTION ( 'NONE',  ( 0.000000000000000000, 0.000000000000000000, 1.000000000000000000 ) ) ;
#65 = ORIENTED_EDGE ( 'NONE', *, *, #71, .F. ) ;
#66 = CARTESIAN_POINT ( 'NONE',  ( -23.00000000000000000, 10.00000000000000000, 10.50000000000000000 ) ) ;
#67 = DIRECTION ( 'NONE',  ( 0.000000000000000000, 0.000000000000000000, 1.000000000000000000 ) ) ;
#68 = VECTOR ( 'NONE', #22, 1000.000000000000000 ) ;
#69 = AXIS2_PLACEMENT_3D ( 'NONE', #230, #31, #134 ) ;
#70 = COORDINATED_UNIVERSAL_TIME_OFFSET ( 8, 0, .AHEAD. ) ;
#71 = EDGE_CURVE ( 'NONE', #58, #109, #219, .T. ) ;
#72 = APPROVAL_STATUS ( 'not_yet_approved' ) ;
#73 = APPROVAL_STATUS ( 'not_yet_approved' ) ;
#74 = ORIENTED_EDGE ( 'NONE', *, *, #160, .T. ) ;
#75 = CC_DESIGN_APPROVAL ( #102, ( #46 ) ) ;
#76 = CARTESIAN_POINT ( 'NONE',  ( 23.00000000000000000, 10.00000000000000000, -10.50000000000000000 ) ) ;
#77 = PRODUCT_RELATED_PRODUCT_CATEGORY ( 'detail', '', ( #223 ) ) ;
#78 = PLANE ( 'NONE',  #137 ) ;
#79 = VERTEX_POINT ( 'NONE', #81 ) ;
#80 = LOCAL_TIME ( 19, 26, 16.00000000000000000, #88 ) ;
#81 = CARTESIAN_POINT ( 'NONE',  ( 23.00000000000000000, 0.000000000000000000, 10.50000000000000000 ) ) ;
#82 = LINE ( 'NONE', #7, #84 ) ;
#83 = DIRECTION ( 'NONE',  ( 0.000000000000000000, -0.000000000000000000, -1.000000000000000000 ) ) ;
#84 = VECTOR ( 'NONE', #152, 1000.000000000000000 ) ;
#85 = LINE ( 'NONE', #10, #37 ) ;
#86 = PERSON_AND_ORGANIZATION ( #114, #231 ) ;
#87 = CARTESIAN_POINT ( 'NONE',  ( -23.00000000000000000, 0.000000000000000000, 10.50000000000000000 ) ) ;
#88 = COORDINATED_UNIVERSAL_TIME_OFFSET ( 8, 0, .AHEAD. ) ;
#89 = COORDINATED_UNIVERSAL_TIME_OFFSET ( 8, 0, .AHEAD. ) ;
#90 = CARTESIAN_POINT ( 'NONE',  ( -23.00000000000000000, 10.00000000000000000, 10.50000000000000000 ) ) ;
#91 = ORIENTED_EDGE ( 'NONE', *, *, #34, .T. ) ;
#92 = DESIGN_CONTEXT ( 'detailed design', #220, 'design' ) ;
#93 = CC_DESIGN_PERSON_AND_ORGANIZATION_ASSIGNMENT ( #192, #32, ( #144 ) ) ;
#94 = DIRECTION ( 'NONE',  ( 1.000000000000000000, 0.000000000000000000, 0.000000000000000000 ) ) ;
#95 = EDGE_CURVE ( 'NONE', #145, #79, #168, .T. ) ;
#96 = ORIENTED_EDGE ( 'NONE', *, *, #237, .T. ) ;
#97 = CC_DESIGN_PERSON_AND_ORGANIZATION_ASSIGNMENT ( #212, #17, ( #223 ) ) ;
#98 = LINE ( 'NONE', #90, #164 ) ;
#99 = AXIS2_PLACEMENT_3D ( 'NONE', #229, #67, #208 ) ;
#100 = DIRECTION ( 'NONE',  ( 0.000000000000000000, 0.000000000000000000, -1.000000000000000000 ) ) ;
#101 = DIRECTION ( 'NONE',  ( 0.000000000000000000, -1.000000000000000000, 0.000000000000000000 ) ) ;
#102 = APPROVAL ( #174, '未指定' ) ;
#103 =( LENGTH_UNIT ( ) NAMED_UNIT ( * ) SI_UNIT ( .MILLI., .METRE. ) );
#104 = CARTESIAN_POINT ( 'NONE',  ( -23.00000000000000000, 10.00000000000000000, -10.50000000000000000 ) ) ;
#105 = EDGE_CURVE ( 'NONE', #132, #113, #166, .T. ) ;
#106 = PERSON_AND_ORGANIZATION ( #114, #231 ) ;
#107 = ORIENTED_EDGE ( 'NONE', *, *, #18, .F. ) ;
#108 = ADVANCED_FACE ( 'NONE', ( #4 ), #78, .T. ) ;
#109 = VERTEX_POINT ( 'NONE', #153 ) ;
#110 = CARTESIAN_POINT ( 'NONE',  ( 23.00000000000000000, 0.000000000000000000, 10.50000000000000000 ) ) ;
#111 = EDGE_CURVE ( 'NONE', #63, #145, #85, .T. ) ;
#112 = CARTESIAN_POINT ( 'NONE',  ( -23.00000000000000000, 0.000000000000000000, -10.50000000000000000 ) ) ;
#113 = VERTEX_POINT ( 'NONE', #66 ) ;
#114 = PERSON ( '未指定', '未指定', '未指定', ('未指定'), ('未指定'), ('未指定') ) ;
#115 = CARTESIAN_POINT ( 'NONE',  ( -23.00000000000000000, 10.00000000000000000, -10.50000000000000000 ) ) ;
#116 =( GEOMETRIC_REPRESENTATION_CONTEXT ( 3 ) GLOBAL_UNCERTAINTY_ASSIGNED_CONTEXT ( ( #141 ) ) GLOBAL_UNIT_ASSIGNED_CONTEXT ( ( #103, #186, #45 ) ) REPRESENTATION_CONTEXT ( 'NONE', 'WORKASPACE' ) );
#117 = PLANE ( 'NONE',  #180 ) ;
#118 = CARTESIAN_POINT ( 'NONE',  ( 23.00000000000000000, 10.00000000000000000, 10.50000000000000000 ) ) ;
#119 = PLANE ( 'NONE',  #151 ) ;
#120 = DATE_AND_TIME ( #121, #80 ) ;
#121 = CALENDAR_DATE ( 2026, 26, 7 ) ;
#122 = PERSON_AND_ORGANIZATION_ROLE ( 'classification_officer' ) ;
#123 = SHAPE_DEFINITION_REPRESENTATION ( #226, #125 ) ;
#124 = PERSON_AND_ORGANIZATION_ROLE ( 'creator' ) ;
#125 = ADVANCED_BREP_SHAPE_REPRESENTATION ( 'FN-PWR-001_cn3791-module-envelope_R0.4', ( #36, #99 ), #116 ) ;
#126 = PLANE ( 'NONE',  #193 ) ;
#127 = ORIENTED_EDGE ( 'NONE', *, *, #213, .F. ) ;
#128 = CARTESIAN_POINT ( 'NONE',  ( -23.00000000000000000, 0.000000000000000000, 10.50000000000000000 ) ) ;
#129 = CARTESIAN_POINT ( 'NONE',  ( -23.00000000000000000, 10.00000000000000000, 10.50000000000000000 ) ) ;
#130 = CC_DESIGN_DATE_AND_TIME_ASSIGNMENT ( #13, #195, ( #29 ) ) ;
#131 = CARTESIAN_POINT ( 'NONE',  ( 23.00000000000000000, 10.00000000000000000, 10.50000000000000000 ) ) ;
#132 = VERTEX_POINT ( 'NONE', #47 ) ;
#133 = DIRECTION ( 'NONE',  ( -1.000000000000000000, 0.000000000000000000, -0.000000000000000000 ) ) ;
#134 = DIRECTION ( 'NONE',  ( 0.000000000000000000, 0.000000000000000000, -1.000000000000000000 ) ) ;
#135 = ADVANCED_FACE ( 'NONE', ( #48 ), #119, .F. ) ;
#136 = APPROVAL ( #72, '未指定' ) ;
#137 = AXIS2_PLACEMENT_3D ( 'NONE', #202, #101, #209 ) ;
#138 = APPLICATION_PROTOCOL_DEFINITION ( 'international standard', 'config_control_design', 1994, #220 ) ;
#139 = PERSON_AND_ORGANIZATION ( #114, #231 ) ;
#140 = SECURITY_CLASSIFICATION_LEVEL ( 'unclassified' ) ;
#141 = UNCERTAINTY_MEASURE_WITH_UNIT (LENGTH_MEASURE( 1.000000000000000082E-05 ), #103, 'distance_accuracy_value', 'NONE');
#142 = VECTOR ( 'NONE', #62, 1000.000000000000000 ) ;
#143 = FACE_OUTER_BOUND ( 'NONE', #27, .T. ) ;
#144 = PRODUCT_DEFINITION_FORMATION_WITH_SPECIFIED_SOURCE ( '任何', '', #223, .NOT_KNOWN. ) ;
#145 = VERTEX_POINT ( 'NONE', #87 ) ;
#146 = CARTESIAN_POINT ( 'NONE',  ( -23.00000000000000000, 10.00000000000000000, 10.50000000000000000 ) ) ;
#147 = VERTEX_POINT ( 'NONE', #118 ) ;
#148 = ORIENTED_EDGE ( 'NONE', *, *, #95, .F. ) ;
#149 = DIRECTION ( 'NONE',  ( -0.000000000000000000, -1.000000000000000000, -0.000000000000000000 ) ) ;
#150 = DIRECTION ( 'NONE',  ( 0.000000000000000000, 0.000000000000000000, -1.000000000000000000 ) ) ;
#151 = AXIS2_PLACEMENT_3D ( 'NONE', #28, #190, #30 ) ;
#152 = DIRECTION ( 'NONE',  ( -1.000000000000000000, -0.000000000000000000, -0.000000000000000000 ) ) ;
#153 = CARTESIAN_POINT ( 'NONE',  ( 23.00000000000000000, 0.000000000000000000, -10.50000000000000000 ) ) ;
#154 = CC_DESIGN_DATE_AND_TIME_ASSIGNMENT ( #196, #20, ( #46 ) ) ;
#155 = APPROVAL_ROLE ( '' ) ;
#156 = CARTESIAN_POINT ( 'NONE',  ( 23.00000000000000000, 10.00000000000000000, 10.50000000000000000 ) ) ;
#157 = CALENDAR_DATE ( 2026, 26, 7 ) ;
#158 = APPROVAL_PERSON_ORGANIZATION ( #233, #218, #171 ) ;
#159 = APPROVAL_DATE_TIME ( #191, #136 ) ;
#160 = EDGE_CURVE ( 'NONE', #147, #58, #187, .T. ) ;
#161 = APPROVAL_DATE_TIME ( #57, #102 ) ;
#162 = CC_DESIGN_PERSON_AND_ORGANIZATION_ASSIGNMENT ( #106, #124, ( #144 ) ) ;
#163 = ORIENTED_EDGE ( 'NONE', *, *, #160, .F. ) ;
#164 = VECTOR ( 'NONE', #94, 1000.000000000000000 ) ;
#165 = ORIENTED_EDGE ( 'NONE', *, *, #111, .T. ) ;
#166 = LINE ( 'NONE', #129, #8 ) ;
#167 = ORIENTED_EDGE ( 'NONE', *, *, #237, .F. ) ;
#168 = LINE ( 'NONE', #128, #201 ) ;
#169 = CC_DESIGN_APPROVAL ( #136, ( #144 ) ) ;
#170 = ADVANCED_FACE ( 'NONE', ( #228 ), #232, .F. ) ;
#171 = APPROVAL_ROLE ( '' ) ;
#172 = APPROVAL_DATE_TIME ( #120, #218 ) ;
#173 = LOCAL_TIME ( 19, 26, 16.00000000000000000, #16 ) ;
#174 = APPROVAL_STATUS ( 'not_yet_approved' ) ;
#175 = EDGE_LOOP ( 'NONE', ( #165, #24, #42, #23 ) ) ;
#176 = APPROVAL_ROLE ( '' ) ;
#177 = APPROVAL_PERSON_ORGANIZATION ( #139, #102, #155 ) ;
#178 = FACE_OUTER_BOUND ( 'NONE', #6, .T. ) ;
#179 = ORIENTED_EDGE ( 'NONE', *, *, #213, .T. ) ;
#180 = AXIS2_PLACEMENT_3D ( 'NONE', #12, #189, #83 ) ;
#181 = CARTESIAN_POINT ( 'NONE',  ( -23.00000000000000000, 10.00000000000000000, -10.50000000000000000 ) ) ;
#182 = ORIENTED_EDGE ( 'NONE', *, *, #95, .T. ) ;
#183 = EDGE_LOOP ( 'NONE', ( #179, #65, #163, #91 ) ) ;
#184 = CARTESIAN_POINT ( 'NONE',  ( -23.00000000000000000, 10.00000000000000000, 10.50000000000000000 ) ) ;
#185 = EDGE_CURVE ( 'NONE', #132, #63, #210, .T. ) ;
#186 =( NAMED_UNIT ( * ) PLANE_ANGLE_UNIT ( ) SI_UNIT ( $, .RADIAN. ) );
#187 = LINE ( 'NONE', #156, #56 ) ;
#188 = LOCAL_TIME ( 19, 26, 16.00000000000000000, #70 ) ;
#189 = DIRECTION ( 'NONE',  ( 0.000000000000000000, -1.000000000000000000, 0.000000000000000000 ) ) ;
#190 = DIRECTION ( 'NONE',  ( -1.000000000000000000, 0.000000000000000000, 0.000000000000000000 ) ) ;
#191 = DATE_AND_TIME ( #33, #188 ) ;
#192 = PERSON_AND_ORGANIZATION ( #114, #231 ) ;
#193 = AXIS2_PLACEMENT_3D ( 'NONE', #184, #100, #133 ) ;
#194 = CALENDAR_DATE ( 2026, 26, 7 ) ;
#195 = DATE_TIME_ROLE ( 'creation_date' ) ;
#196 = DATE_AND_TIME ( #194, #173 ) ;
#197 = VECTOR ( 'NONE', #215, 1000.000000000000000 ) ;
#198 = LINE ( 'NONE', #110, #197 ) ;
#199 = ORIENTED_EDGE ( 'NONE', *, *, #38, .F. ) ;
#200 = EDGE_LOOP ( 'NONE', ( #225, #205, #74, #40 ) ) ;
#201 = VECTOR ( 'NONE', #25, 1000.000000000000000 ) ;
#202 = CARTESIAN_POINT ( 'NONE',  ( 0.000000000000000000, 0.000000000000000000, 0.000000000000000000 ) ) ;
#203 = DIRECTION ( 'NONE',  ( 1.000000000000000000, 0.000000000000000000, -0.000000000000000000 ) ) ;
#204 = EDGE_CURVE ( 'NONE', #113, #145, #3, .T. ) ;
#205 = ORIENTED_EDGE ( 'NONE', *, *, #18, .T. ) ;
#206 = VECTOR ( 'NONE', #15, 1000.000000000000000 ) ;
#207 = CC_DESIGN_SECURITY_CLASSIFICATION ( #46, ( #144 ) ) ;
#208 = DIRECTION ( 'NONE',  ( 1.000000000000000000, 0.000000000000000000, 0.000000000000000000 ) ) ;
#209 = DIRECTION ( 'NONE',  ( 0.000000000000000000, -0.000000000000000000, -1.000000000000000000 ) ) ;
#210 = LINE ( 'NONE', #104, #206 ) ;
#211 = APPLICATION_PROTOCOL_DEFINITION ( 'international standard', 'config_control_design', 1994, #53 ) ;
#212 = PERSON_AND_ORGANIZATION ( #114, #231 ) ;
#213 = EDGE_CURVE ( 'NONE', #79, #109, #198, .T. ) ;
#214 = PERSON_AND_ORGANIZATION ( #114, #231 ) ;
#215 = DIRECTION ( 'NONE',  ( 0.000000000000000000, 0.000000000000000000, -1.000000000000000000 ) ) ;
#216 = CLOSED_SHELL ( 'NONE', ( #170, #222, #135, #14, #234, #108 ) ) ;
#217 = LINE ( 'NONE', #131, #21 ) ;
#218 = APPROVAL ( #73, '未指定' ) ;
#219 = LINE ( 'NONE', #43, #142 ) ;
#220 = APPLICATION_CONTEXT ( 'configuration controlled 3d designs of mechanical parts and assemblies' ) ;
#221 = LINE ( 'NONE', #181, #1 ) ;
#222 = ADVANCED_FACE ( 'NONE', ( #178 ), #126, .F. ) ;
#223 = PRODUCT ( 'FN-PWR-001_cn3791-module-envelope_R0.4', 'FN-PWR-001_cn3791-module-envelope_R0.4', '', ( #50 ) ) ;
#224 = LOCAL_TIME ( 19, 26, 16.00000000000000000, #89 ) ;
#225 = ORIENTED_EDGE ( 'NONE', *, *, #105, .T. ) ;
#226 = PRODUCT_DEFINITION_SHAPE ( 'NONE', 'NONE',  #29 ) ;
#227 = DIRECTION ( 'NONE',  ( -0.000000000000000000, -0.000000000000000000, 1.000000000000000000 ) ) ;
#228 = FACE_OUTER_BOUND ( 'NONE', #175, .T. ) ;
#229 = CARTESIAN_POINT ( 'NONE',  ( 0.000000000000000000, 0.000000000000000000, 0.000000000000000000 ) ) ;
#230 = CARTESIAN_POINT ( 'NONE',  ( -23.00000000000000000, 10.00000000000000000, 10.50000000000000000 ) ) ;
#231 = ORGANIZATION ( '未指定', '未指定', '' ) ;
#232 = PLANE ( 'NONE',  #69 ) ;
#233 = PERSON_AND_ORGANIZATION ( #114, #231 ) ;
#234 = ADVANCED_FACE ( 'NONE', ( #11 ), #117, .F. ) ;
#235 = APPROVAL_PERSON_ORGANIZATION ( #35, #136, #176 ) ;
#236 = ORIENTED_EDGE ( 'NONE', *, *, #111, .F. ) ;
#237 = EDGE_CURVE ( 'NONE', #109, #63, #82, .T. ) ;
ENDSEC;
END-ISO-10303-21;
