ISO-10303-21;
HEADER;
FILE_DESCRIPTION (( 'STEP AP203' ),
    '1' );
FILE_NAME ('FN-SUP-001_edge-support-pad_DRAFT_R0.4.STEP',
    '2026-07-26T11:26:43',
    ( '' ),
    ( '' ),
    'SwSTEP 2.0',
    'SolidWorks 2022',
    '' );
FILE_SCHEMA (( 'CONFIG_CONTROL_DESIGN' ));
ENDSEC;

DATA;
#1 = PLANE ( 'NONE',  #174 ) ;
#2 = PERSON_AND_ORGANIZATION_ROLE ( 'creator' ) ;
#3 = DATE_AND_TIME ( #201, #6 ) ;
#4 = LINE ( 'NONE', #184, #42 ) ;
#5 = ADVANCED_FACE ( 'NONE', ( #125 ), #172, .T. ) ;
#6 = LOCAL_TIME ( 19, 26, 43.00000000000000000, #197 ) ;
#7 = EDGE_LOOP ( 'NONE', ( #189, #141, #69, #9 ) ) ;
#8 = CARTESIAN_POINT ( 'NONE',  ( 6.000000000000000000, 6.000000000000000000, 6.000000000000000000 ) ) ;
#9 = ORIENTED_EDGE ( 'NONE', *, *, #158, .T. ) ;
#10 = EDGE_CURVE ( 'NONE', #233, #159, #226, .T. ) ;
#11 = DIRECTION ( 'NONE',  ( -1.000000000000000000, 0.000000000000000000, 0.000000000000000000 ) ) ;
#12 = PLANE ( 'NONE',  #46 ) ;
#13 = DIRECTION ( 'NONE',  ( -1.000000000000000000, 0.000000000000000000, -0.000000000000000000 ) ) ;
#14 = APPROVAL ( #15, '未指定' ) ;
#15 = APPROVAL_STATUS ( 'not_yet_approved' ) ;
#16 = DIRECTION ( 'NONE',  ( -0.000000000000000000, -1.000000000000000000, -0.000000000000000000 ) ) ;
#17 = PERSON_AND_ORGANIZATION_ROLE ( 'design_supplier' ) ;
#18 = FACE_OUTER_BOUND ( 'NONE', #71, .T. ) ;
#19 = PERSON_AND_ORGANIZATION_ROLE ( 'creator' ) ;
#20 = EDGE_CURVE ( 'NONE', #216, #194, #109, .T. ) ;
#21 = LINE ( 'NONE', #143, #73 ) ;
#22 = PERSON_AND_ORGANIZATION_ROLE ( 'design_owner' ) ;
#23 = CC_DESIGN_PERSON_AND_ORGANIZATION_ASSIGNMENT ( #206, #19, ( #101 ) ) ;
#24 = ORIENTED_EDGE ( 'NONE', *, *, #227, .T. ) ;
#25 = VECTOR ( 'NONE', #217, 1000.000000000000000 ) ;
#26 = SECURITY_CLASSIFICATION ( '', '', #131 ) ;
#27 = EDGE_LOOP ( 'NONE', ( #175, #126, #192, #214 ) ) ;
#28 = ORIENTED_EDGE ( 'NONE', *, *, #78, .F. ) ;
#29 = CARTESIAN_POINT ( 'NONE',  ( -6.000000000000000000, 0.000000000000000000, 6.000000000000000000 ) ) ;
#30 = CARTESIAN_POINT ( 'NONE',  ( -6.000000000000000000, 6.000000000000000000, 6.000000000000000000 ) ) ;
#31 = DIRECTION ( 'NONE',  ( -0.000000000000000000, -1.000000000000000000, -0.000000000000000000 ) ) ;
#32 = PERSON_AND_ORGANIZATION ( #195, #140 ) ;
#33 = DIRECTION ( 'NONE',  ( 0.000000000000000000, 0.000000000000000000, -1.000000000000000000 ) ) ;
#34 = PERSON_AND_ORGANIZATION ( #195, #140 ) ;
#35 = LINE ( 'NONE', #127, #134 ) ;
#36 = CC_DESIGN_APPROVAL ( #200, ( #135 ) ) ;
#37 = PERSON_AND_ORGANIZATION ( #195, #140 ) ;
#38 = CARTESIAN_POINT ( 'NONE',  ( -6.000000000000000000, 6.000000000000000000, -6.000000000000000000 ) ) ;
#39 = MECHANICAL_CONTEXT ( 'NONE', #88, 'mechanical' ) ;
#40 = COORDINATED_UNIVERSAL_TIME_OFFSET ( 8, 0, .AHEAD. ) ;
#41 = AXIS2_PLACEMENT_3D ( 'NONE', #70, #89, #193 ) ;
#42 = VECTOR ( 'NONE', #234, 1000.000000000000000 ) ;
#43 = EDGE_CURVE ( 'NONE', #191, #233, #87, .T. ) ;
#44 = VERTEX_POINT ( 'NONE', #212 ) ;
#45 = EDGE_CURVE ( 'NONE', #48, #233, #84, .T. ) ;
#46 = AXIS2_PLACEMENT_3D ( 'NONE', #30, #182, #196 ) ;
#47 = LOCAL_TIME ( 19, 26, 43.00000000000000000, #40 ) ;
#48 = VERTEX_POINT ( 'NONE', #107 ) ;
#49 = ORIENTED_EDGE ( 'NONE', *, *, #78, .T. ) ;
#50 = ORIENTED_EDGE ( 'NONE', *, *, #10, .F. ) ;
#51 = CARTESIAN_POINT ( 'NONE',  ( -6.000000000000000000, 0.000000000000000000, -6.000000000000000000 ) ) ;
#52 =( NAMED_UNIT ( * ) PLANE_ANGLE_UNIT ( ) SI_UNIT ( $, .RADIAN. ) );
#53 = PRODUCT ( 'FN-SUP-001_edge-support-pad_DRAFT_R0.4', 'FN-SUP-001_edge-support-pad_DRAFT_R0.4', '', ( #39 ) ) ;
#54 = CALENDAR_DATE ( 2026, 26, 7 ) ;
#55 = DIRECTION ( 'NONE',  ( -1.000000000000000000, -0.000000000000000000, -0.000000000000000000 ) ) ;
#56 = DATE_AND_TIME ( #149, #232 ) ;
#57 = LINE ( 'NONE', #117, #164 ) ;
#58 = APPROVAL_STATUS ( 'not_yet_approved' ) ;
#59 = DIRECTION ( 'NONE',  ( 1.000000000000000000, 0.000000000000000000, 0.000000000000000000 ) ) ;
#60 = ADVANCED_FACE ( 'NONE', ( #176 ), #178, .F. ) ;
#61 = APPROVAL_STATUS ( 'not_yet_approved' ) ;
#62 = PERSON_AND_ORGANIZATION ( #195, #140 ) ;
#63 = CC_DESIGN_PERSON_AND_ORGANIZATION_ASSIGNMENT ( #97, #76, ( #26 ) ) ;
#64 = CLOSED_SHELL ( 'NONE', ( #66, #215, #60, #145, #237, #5 ) ) ;
#65 = APPROVAL_PERSON_ORGANIZATION ( #37, #14, #151 ) ;
#66 = ADVANCED_FACE ( 'NONE', ( #91 ), #12, .F. ) ;
#67 = ORIENTED_EDGE ( 'NONE', *, *, #227, .F. ) ;
#68 = CARTESIAN_POINT ( 'NONE',  ( -6.000000000000000000, 0.000000000000000000, -6.000000000000000000 ) ) ;
#69 = ORIENTED_EDGE ( 'NONE', *, *, #80, .F. ) ;
#70 = CARTESIAN_POINT ( 'NONE',  ( 0.000000000000000000, 0.000000000000000000, 0.000000000000000000 ) ) ;
#71 = EDGE_LOOP ( 'NONE', ( #24, #156, #103, #49 ) ) ;
#72 = DIRECTION ( 'NONE',  ( 1.000000000000000000, 0.000000000000000000, -0.000000000000000000 ) ) ;
#73 = VECTOR ( 'NONE', #16, 1000.000000000000000 ) ;
#74 = APPROVAL_ROLE ( '' ) ;
#75 = PLANE ( 'NONE',  #190 ) ;
#76 = PERSON_AND_ORGANIZATION_ROLE ( 'classification_officer' ) ;
#77 = DIRECTION ( 'NONE',  ( 0.000000000000000000, 0.000000000000000000, 1.000000000000000000 ) ) ;
#78 = EDGE_CURVE ( 'NONE', #154, #159, #132, .T. ) ;
#79 = APPROVAL_ROLE ( '' ) ;
#80 = EDGE_CURVE ( 'NONE', #194, #191, #57, .T. ) ;
#81 = DATE_AND_TIME ( #204, #202 ) ;
#82 = CC_DESIGN_APPROVAL ( #171, ( #101 ) ) ;
#83 = CC_DESIGN_PERSON_AND_ORGANIZATION_ASSIGNMENT ( #169, #22, ( #53 ) ) ;
#84 = LINE ( 'NONE', #68, #106 ) ;
#85 = CARTESIAN_POINT ( 'NONE',  ( 6.000000000000000000, 6.000000000000000000, 6.000000000000000000 ) ) ;
#86 = EDGE_CURVE ( 'NONE', #216, #44, #35, .T. ) ;
#87 = LINE ( 'NONE', #228, #224 ) ;
#88 = APPLICATION_CONTEXT ( 'configuration controlled 3d designs of mechanical parts and assemblies' ) ;
#89 = DIRECTION ( 'NONE',  ( 0.000000000000000000, -1.000000000000000000, 0.000000000000000000 ) ) ;
#90 = ORIENTED_EDGE ( 'NONE', *, *, #104, .F. ) ;
#91 = FACE_OUTER_BOUND ( 'NONE', #155, .T. ) ;
#92 = FACE_OUTER_BOUND ( 'NONE', #27, .T. ) ;
#93 = APPROVAL_DATE_TIME ( #220, #171 ) ;
#94 = AXIS2_PLACEMENT_3D ( 'NONE', #8, #11, #129 ) ;
#95 = APPROVAL_PERSON_ORGANIZATION ( #62, #200, #79 ) ;
#96 = PRODUCT_RELATED_PRODUCT_CATEGORY ( 'detail', '', ( #53 ) ) ;
#97 = PERSON_AND_ORGANIZATION ( #195, #140 ) ;
#98 = CARTESIAN_POINT ( 'NONE',  ( 6.000000000000000000, 6.000000000000000000, -6.000000000000000000 ) ) ;
#99 = DIRECTION ( 'NONE',  ( 0.000000000000000000, 0.000000000000000000, 1.000000000000000000 ) ) ;
#100 = AXIS2_PLACEMENT_3D ( 'NONE', #205, #99, #187 ) ;
#101 = PRODUCT_DEFINITION ( '未知', '', #135, #186 ) ;
#102 = EDGE_CURVE ( 'NONE', #154, #216, #203, .T. ) ;
#103 = ORIENTED_EDGE ( 'NONE', *, *, #102, .F. ) ;
#104 = EDGE_CURVE ( 'NONE', #191, #154, #4, .T. ) ;
#105 = ORIENTED_EDGE ( 'NONE', *, *, #20, .F. ) ;
#106 = VECTOR ( 'NONE', #123, 1000.000000000000000 ) ;
#107 = CARTESIAN_POINT ( 'NONE',  ( 6.000000000000000000, 0.000000000000000000, -6.000000000000000000 ) ) ;
#108 = ORIENTED_EDGE ( 'NONE', *, *, #230, .T. ) ;
#109 = LINE ( 'NONE', #85, #144 ) ;
#110 = CARTESIAN_POINT ( 'NONE',  ( -6.000000000000000000, 6.000000000000000000, 6.000000000000000000 ) ) ;
#111 = FACE_OUTER_BOUND ( 'NONE', #7, .T. ) ;
#112 = COORDINATED_UNIVERSAL_TIME_OFFSET ( 8, 0, .AHEAD. ) ;
#113 = LINE ( 'NONE', #221, #25 ) ;
#114 = CALENDAR_DATE ( 2026, 26, 7 ) ;
#115 = APPLICATION_CONTEXT ( 'configuration controlled 3d designs of mechanical parts and assemblies' ) ;
#116 = CARTESIAN_POINT ( 'NONE',  ( -6.000000000000000000, 6.000000000000000000, 6.000000000000000000 ) ) ;
#117 = CARTESIAN_POINT ( 'NONE',  ( -6.000000000000000000, 6.000000000000000000, -6.000000000000000000 ) ) ;
#118 = COORDINATED_UNIVERSAL_TIME_OFFSET ( 8, 0, .AHEAD. ) ;
#119 = DATE_AND_TIME ( #114, #213 ) ;
#120 =( GEOMETRIC_REPRESENTATION_CONTEXT ( 3 ) GLOBAL_UNCERTAINTY_ASSIGNED_CONTEXT ( ( #121 ) ) GLOBAL_UNIT_ASSIGNED_CONTEXT ( ( #146, #52, #166 ) ) REPRESENTATION_CONTEXT ( 'NONE', 'WORKASPACE' ) );
#121 = UNCERTAINTY_MEASURE_WITH_UNIT (LENGTH_MEASURE( 1.000000000000000082E-05 ), #146, 'distance_accuracy_value', 'NONE');
#122 = ORIENTED_EDGE ( 'NONE', *, *, #10, .T. ) ;
#123 = DIRECTION ( 'NONE',  ( -1.000000000000000000, -0.000000000000000000, -0.000000000000000000 ) ) ;
#124 = ORIENTED_EDGE ( 'NONE', *, *, #43, .T. ) ;
#125 = FACE_OUTER_BOUND ( 'NONE', #138, .T. ) ;
#126 = ORIENTED_EDGE ( 'NONE', *, *, #102, .T. ) ;
#127 = CARTESIAN_POINT ( 'NONE',  ( 6.000000000000000000, 6.000000000000000000, 6.000000000000000000 ) ) ;
#128 = COORDINATED_UNIVERSAL_TIME_OFFSET ( 8, 0, .AHEAD. ) ;
#129 = DIRECTION ( 'NONE',  ( 0.000000000000000000, 0.000000000000000000, 1.000000000000000000 ) ) ;
#130 = CC_DESIGN_DATE_AND_TIME_ASSIGNMENT ( #56, #152, ( #101 ) ) ;
#131 = SECURITY_CLASSIFICATION_LEVEL ( 'unclassified' ) ;
#132 = LINE ( 'NONE', #116, #236 ) ;
#133 = APPLICATION_PROTOCOL_DEFINITION ( 'international standard', 'config_control_design', 1994, #88 ) ;
#134 = VECTOR ( 'NONE', #219, 1000.000000000000000 ) ;
#135 = PRODUCT_DEFINITION_FORMATION_WITH_SPECIFIED_SOURCE ( '任何', '', #53, .NOT_KNOWN. ) ;
#136 = CC_DESIGN_PERSON_AND_ORGANIZATION_ASSIGNMENT ( #32, #17, ( #135 ) ) ;
#137 = MANIFOLD_SOLID_BREP ( '凸台-拉伸1', #64 ) ;
#138 = EDGE_LOOP ( 'NONE', ( #50, #142, #177, #67 ) ) ;
#139 = DIRECTION ( 'NONE',  ( -0.000000000000000000, -1.000000000000000000, -0.000000000000000000 ) ) ;
#140 = ORGANIZATION ( '未指定', '未指定', '' ) ;
#141 = ORIENTED_EDGE ( 'NONE', *, *, #43, .F. ) ;
#142 = ORIENTED_EDGE ( 'NONE', *, *, #45, .F. ) ;
#143 = CARTESIAN_POINT ( 'NONE',  ( 6.000000000000000000, 6.000000000000000000, -6.000000000000000000 ) ) ;
#144 = VECTOR ( 'NONE', #210, 1000.000000000000000 ) ;
#145 = ADVANCED_FACE ( 'NONE', ( #111 ), #1, .F. ) ;
#146 =( LENGTH_UNIT ( ) NAMED_UNIT ( * ) SI_UNIT ( .MILLI., .METRE. ) );
#147 = CARTESIAN_POINT ( 'NONE',  ( 6.000000000000000000, 6.000000000000000000, 6.000000000000000000 ) ) ;
#148 = PLANE ( 'NONE',  #208 ) ;
#149 = CALENDAR_DATE ( 2026, 26, 7 ) ;
#150 = CARTESIAN_POINT ( 'NONE',  ( -6.000000000000000000, 6.000000000000000000, -6.000000000000000000 ) ) ;
#151 = APPROVAL_ROLE ( '' ) ;
#152 = DATE_TIME_ROLE ( 'creation_date' ) ;
#153 = VECTOR ( 'NONE', #161, 1000.000000000000000 ) ;
#154 = VERTEX_POINT ( 'NONE', #185 ) ;
#155 = EDGE_LOOP ( 'NONE', ( #122, #28, #90, #124 ) ) ;
#156 = ORIENTED_EDGE ( 'NONE', *, *, #86, .F. ) ;
#157 = DIRECTION ( 'NONE',  ( -0.000000000000000000, -0.000000000000000000, 1.000000000000000000 ) ) ;
#158 = EDGE_CURVE ( 'NONE', #194, #48, #21, .T. ) ;
#159 = VERTEX_POINT ( 'NONE', #180 ) ;
#160 = PRODUCT_DEFINITION_SHAPE ( 'NONE', 'NONE',  #101 ) ;
#161 = DIRECTION ( 'NONE',  ( 1.000000000000000000, 0.000000000000000000, 0.000000000000000000 ) ) ;
#162 = CC_DESIGN_DATE_AND_TIME_ASSIGNMENT ( #119, #181, ( #26 ) ) ;
#163 = DIRECTION ( 'NONE',  ( 0.000000000000000000, -1.000000000000000000, 0.000000000000000000 ) ) ;
#164 = VECTOR ( 'NONE', #55, 1000.000000000000000 ) ;
#165 = APPROVAL_DATE_TIME ( #81, #14 ) ;
#166 =( NAMED_UNIT ( * ) SI_UNIT ( $, .STERADIAN. ) SOLID_ANGLE_UNIT ( ) );
#167 = PERSON_AND_ORGANIZATION ( #195, #140 ) ;
#168 = LINE ( 'NONE', #235, #211 ) ;
#169 = PERSON_AND_ORGANIZATION ( #195, #140 ) ;
#170 = CC_DESIGN_SECURITY_CLASSIFICATION ( #26, ( #135 ) ) ;
#171 = APPROVAL ( #61, '未指定' ) ;
#172 = PLANE ( 'NONE',  #41 ) ;
#173 = VECTOR ( 'NONE', #157, 1000.000000000000000 ) ;
#174 = AXIS2_PLACEMENT_3D ( 'NONE', #38, #77, #72 ) ;
#175 = ORIENTED_EDGE ( 'NONE', *, *, #104, .T. ) ;
#176 = FACE_OUTER_BOUND ( 'NONE', #231, .T. ) ;
#177 = ORIENTED_EDGE ( 'NONE', *, *, #230, .F. ) ;
#178 = PLANE ( 'NONE',  #94 ) ;
#179 = CARTESIAN_POINT ( 'NONE',  ( 0.000000000000000000, 6.000000000000000000, 0.000000000000000000 ) ) ;
#180 = CARTESIAN_POINT ( 'NONE',  ( -6.000000000000000000, 0.000000000000000000, 6.000000000000000000 ) ) ;
#181 = DATE_TIME_ROLE ( 'classification_date' ) ;
#182 = DIRECTION ( 'NONE',  ( 1.000000000000000000, -0.000000000000000000, 0.000000000000000000 ) ) ;
#183 = APPROVAL_PERSON_ORGANIZATION ( #167, #171, #74 ) ;
#184 = CARTESIAN_POINT ( 'NONE',  ( -6.000000000000000000, 6.000000000000000000, 6.000000000000000000 ) ) ;
#185 = CARTESIAN_POINT ( 'NONE',  ( -6.000000000000000000, 6.000000000000000000, 6.000000000000000000 ) ) ;
#186 = DESIGN_CONTEXT ( 'detailed design', #115, 'design' ) ;
#187 = DIRECTION ( 'NONE',  ( 1.000000000000000000, 0.000000000000000000, 0.000000000000000000 ) ) ;
#188 = ADVANCED_BREP_SHAPE_REPRESENTATION ( 'FN-SUP-001_edge-support-pad_DRAFT_R0.4', ( #137, #100 ), #120 ) ;
#189 = ORIENTED_EDGE ( 'NONE', *, *, #45, .T. ) ;
#190 = AXIS2_PLACEMENT_3D ( 'NONE', #179, #163, #218 ) ;
#191 = VERTEX_POINT ( 'NONE', #150 ) ;
#192 = ORIENTED_EDGE ( 'NONE', *, *, #20, .T. ) ;
#193 = DIRECTION ( 'NONE',  ( 0.000000000000000000, -0.000000000000000000, -1.000000000000000000 ) ) ;
#194 = VERTEX_POINT ( 'NONE', #98 ) ;
#195 = PERSON ( '未指定', '未指定', '未指定', ('未指定'), ('未指定'), ('未指定') ) ;
#196 = DIRECTION ( 'NONE',  ( 0.000000000000000000, 0.000000000000000000, -1.000000000000000000 ) ) ;
#197 = COORDINATED_UNIVERSAL_TIME_OFFSET ( 8, 0, .AHEAD. ) ;
#198 = APPROVAL_DATE_TIME ( #3, #200 ) ;
#199 = CARTESIAN_POINT ( 'NONE',  ( -6.000000000000000000, 6.000000000000000000, 6.000000000000000000 ) ) ;
#200 = APPROVAL ( #58, '未指定' ) ;
#201 = CALENDAR_DATE ( 2026, 26, 7 ) ;
#202 = LOCAL_TIME ( 19, 26, 43.00000000000000000, #118 ) ;
#203 = LINE ( 'NONE', #199, #153 ) ;
#204 = CALENDAR_DATE ( 2026, 26, 7 ) ;
#205 = CARTESIAN_POINT ( 'NONE',  ( 0.000000000000000000, 0.000000000000000000, 0.000000000000000000 ) ) ;
#206 = PERSON_AND_ORGANIZATION ( #195, #140 ) ;
#207 = CC_DESIGN_PERSON_AND_ORGANIZATION_ASSIGNMENT ( #34, #2, ( #135 ) ) ;
#208 = AXIS2_PLACEMENT_3D ( 'NONE', #110, #33, #13 ) ;
#209 = ORIENTED_EDGE ( 'NONE', *, *, #158, .F. ) ;
#210 = DIRECTION ( 'NONE',  ( 0.000000000000000000, 0.000000000000000000, -1.000000000000000000 ) ) ;
#211 = VECTOR ( 'NONE', #59, 1000.000000000000000 ) ;
#212 = CARTESIAN_POINT ( 'NONE',  ( 6.000000000000000000, 0.000000000000000000, 6.000000000000000000 ) ) ;
#213 = LOCAL_TIME ( 19, 26, 43.00000000000000000, #128 ) ;
#214 = ORIENTED_EDGE ( 'NONE', *, *, #80, .T. ) ;
#215 = ADVANCED_FACE ( 'NONE', ( #18 ), #148, .F. ) ;
#216 = VERTEX_POINT ( 'NONE', #147 ) ;
#217 = DIRECTION ( 'NONE',  ( 0.000000000000000000, 0.000000000000000000, -1.000000000000000000 ) ) ;
#218 = DIRECTION ( 'NONE',  ( 0.000000000000000000, -0.000000000000000000, -1.000000000000000000 ) ) ;
#219 = DIRECTION ( 'NONE',  ( -0.000000000000000000, -1.000000000000000000, -0.000000000000000000 ) ) ;
#220 = DATE_AND_TIME ( #54, #47 ) ;
#221 = CARTESIAN_POINT ( 'NONE',  ( 6.000000000000000000, 0.000000000000000000, 6.000000000000000000 ) ) ;
#222 = APPLICATION_PROTOCOL_DEFINITION ( 'international standard', 'config_control_design', 1994, #115 ) ;
#223 = SHAPE_DEFINITION_REPRESENTATION ( #160, #188 ) ;
#224 = VECTOR ( 'NONE', #139, 1000.000000000000000 ) ;
#225 = CC_DESIGN_APPROVAL ( #14, ( #26 ) ) ;
#226 = LINE ( 'NONE', #29, #173 ) ;
#227 = EDGE_CURVE ( 'NONE', #159, #44, #168, .T. ) ;
#228 = CARTESIAN_POINT ( 'NONE',  ( -6.000000000000000000, 6.000000000000000000, -6.000000000000000000 ) ) ;
#229 = ORIENTED_EDGE ( 'NONE', *, *, #86, .T. ) ;
#230 = EDGE_CURVE ( 'NONE', #44, #48, #113, .T. ) ;
#231 = EDGE_LOOP ( 'NONE', ( #108, #209, #105, #229 ) ) ;
#232 = LOCAL_TIME ( 19, 26, 43.00000000000000000, #112 ) ;
#233 = VERTEX_POINT ( 'NONE', #51 ) ;
#234 = DIRECTION ( 'NONE',  ( -0.000000000000000000, -0.000000000000000000, 1.000000000000000000 ) ) ;
#235 = CARTESIAN_POINT ( 'NONE',  ( -6.000000000000000000, 0.000000000000000000, 6.000000000000000000 ) ) ;
#236 = VECTOR ( 'NONE', #31, 1000.000000000000000 ) ;
#237 = ADVANCED_FACE ( 'NONE', ( #92 ), #75, .F. ) ;
ENDSEC;
END-ISO-10303-21;
