ISO-10303-21;
HEADER;
FILE_DESCRIPTION (( 'STEP AP203' ),
    '1' );
FILE_NAME ('FN-ZON-002_fuse-service-disconnect_R0.4.STEP',
    '2026-07-26T11:26:34',
    ( '' ),
    ( '' ),
    'SwSTEP 2.0',
    'SolidWorks 2022',
    '' );
FILE_SCHEMA (( 'CONFIG_CONTROL_DESIGN' ));
ENDSEC;

DATA;
#1 = COORDINATED_UNIVERSAL_TIME_OFFSET ( 8, 0, .AHEAD. ) ;
#2 = AXIS2_PLACEMENT_3D ( 'NONE', #229, #48, #158 ) ;
#3 = CALENDAR_DATE ( 2026, 26, 7 ) ;
#4 = CC_DESIGN_DATE_AND_TIME_ASSIGNMENT ( #73, #179, ( #69 ) ) ;
#5 = CARTESIAN_POINT ( 'NONE',  ( -19.00000000000000000, 15.00000000000000000, 9.000000000000000000 ) ) ;
#6 = DIRECTION ( 'NONE',  ( -0.000000000000000000, -0.000000000000000000, 1.000000000000000000 ) ) ;
#7 = CARTESIAN_POINT ( 'NONE',  ( -19.00000000000000000, 15.00000000000000000, -9.000000000000000000 ) ) ;
#8 = EDGE_LOOP ( 'NONE', ( #28, #59, #45, #131 ) ) ;
#9 = EDGE_CURVE ( 'NONE', #169, #44, #201, .T. ) ;
#10 = ORIENTED_EDGE ( 'NONE', *, *, #184, .T. ) ;
#11 = ADVANCED_FACE ( 'NONE', ( #30 ), #132, .F. ) ;
#12 = DIRECTION ( 'NONE',  ( 0.000000000000000000, -0.000000000000000000, -1.000000000000000000 ) ) ;
#13 = CARTESIAN_POINT ( 'NONE',  ( 19.00000000000000000, 15.00000000000000000, -9.000000000000000000 ) ) ;
#14 = VECTOR ( 'NONE', #33, 1000.000000000000000 ) ;
#15 = CARTESIAN_POINT ( 'NONE',  ( 19.00000000000000000, 0.000000000000000000, 9.000000000000000000 ) ) ;
#16 = LINE ( 'NONE', #70, #64 ) ;
#17 = DATE_AND_TIME ( #213, #26 ) ;
#18 = COORDINATED_UNIVERSAL_TIME_OFFSET ( 8, 0, .AHEAD. ) ;
#19 = EDGE_CURVE ( 'NONE', #199, #44, #166, .T. ) ;
#20 = PERSON_AND_ORGANIZATION_ROLE ( 'design_supplier' ) ;
#21 = EDGE_CURVE ( 'NONE', #44, #150, #119, .T. ) ;
#22 = PERSON_AND_ORGANIZATION ( #128, #146 ) ;
#23 = VECTOR ( 'NONE', #138, 1000.000000000000000 ) ;
#24 = ORIENTED_EDGE ( 'NONE', *, *, #49, .T. ) ;
#25 = DIRECTION ( 'NONE',  ( 0.000000000000000000, -1.000000000000000000, 0.000000000000000000 ) ) ;
#26 = LOCAL_TIME ( 19, 26, 34.00000000000000000, #18 ) ;
#27 = LINE ( 'NONE', #7, #215 ) ;
#28 = ORIENTED_EDGE ( 'NONE', *, *, #19, .F. ) ;
#29 = PRODUCT_DEFINITION_FORMATION_WITH_SPECIFIED_SOURCE ( '任何', '', #197, .NOT_KNOWN. ) ;
#30 = FACE_OUTER_BOUND ( 'NONE', #219, .T. ) ;
#31 = LINE ( 'NONE', #15, #14 ) ;
#32 = FACE_OUTER_BOUND ( 'NONE', #8, .T. ) ;
#33 = DIRECTION ( 'NONE',  ( 0.000000000000000000, 0.000000000000000000, -1.000000000000000000 ) ) ;
#34 = ADVANCED_FACE ( 'NONE', ( #96 ), #75, .F. ) ;
#35 =( LENGTH_UNIT ( ) NAMED_UNIT ( * ) SI_UNIT ( .MILLI., .METRE. ) );
#36 = VECTOR ( 'NONE', #149, 1000.000000000000000 ) ;
#37 = DIRECTION ( 'NONE',  ( -0.000000000000000000, -1.000000000000000000, -0.000000000000000000 ) ) ;
#38 = APPROVAL_DATE_TIME ( #89, #113 ) ;
#39 = CC_DESIGN_APPROVAL ( #76, ( #69 ) ) ;
#40 = COORDINATED_UNIVERSAL_TIME_OFFSET ( 8, 0, .AHEAD. ) ;
#41 = EDGE_CURVE ( 'NONE', #95, #167, #77, .T. ) ;
#42 = PRODUCT_DEFINITION_SHAPE ( 'NONE', 'NONE',  #69 ) ;
#43 = CARTESIAN_POINT ( 'NONE',  ( 0.000000000000000000, 15.00000000000000000, 0.000000000000000000 ) ) ;
#44 = VERTEX_POINT ( 'NONE', #186 ) ;
#45 = ORIENTED_EDGE ( 'NONE', *, *, #236, .F. ) ;
#46 = LOCAL_TIME ( 19, 26, 34.00000000000000000, #1 ) ;
#47 = DIRECTION ( 'NONE',  ( -1.000000000000000000, 0.000000000000000000, -0.000000000000000000 ) ) ;
#48 = DIRECTION ( 'NONE',  ( 1.000000000000000000, -0.000000000000000000, 0.000000000000000000 ) ) ;
#49 = EDGE_CURVE ( 'NONE', #169, #198, #182, .T. ) ;
#50 = DIRECTION ( 'NONE',  ( 1.000000000000000000, 0.000000000000000000, -0.000000000000000000 ) ) ;
#51 = PLANE ( 'NONE',  #163 ) ;
#52 = DIRECTION ( 'NONE',  ( -0.000000000000000000, -0.000000000000000000, 1.000000000000000000 ) ) ;
#53 = PERSON_AND_ORGANIZATION ( #128, #146 ) ;
#54 = DATE_TIME_ROLE ( 'classification_date' ) ;
#55 = VECTOR ( 'NONE', #134, 1000.000000000000000 ) ;
#56 = ORIENTED_EDGE ( 'NONE', *, *, #184, .F. ) ;
#57 = SECURITY_CLASSIFICATION_LEVEL ( 'unclassified' ) ;
#58 = MECHANICAL_CONTEXT ( 'NONE', #194, 'mechanical' ) ;
#59 = ORIENTED_EDGE ( 'NONE', *, *, #109, .F. ) ;
#60 = CC_DESIGN_APPROVAL ( #113, ( #226 ) ) ;
#61 = ORIENTED_EDGE ( 'NONE', *, *, #109, .T. ) ;
#62 = ORIENTED_EDGE ( 'NONE', *, *, #81, .T. ) ;
#63 = CARTESIAN_POINT ( 'NONE',  ( -19.00000000000000000, 0.000000000000000000, 9.000000000000000000 ) ) ;
#64 = VECTOR ( 'NONE', #68, 1000.000000000000000 ) ;
#65 = VERTEX_POINT ( 'NONE', #136 ) ;
#66 = PLANE ( 'NONE',  #224 ) ;
#67 = CARTESIAN_POINT ( 'NONE',  ( -19.00000000000000000, 15.00000000000000000, 9.000000000000000000 ) ) ;
#68 = DIRECTION ( 'NONE',  ( -0.000000000000000000, -1.000000000000000000, -0.000000000000000000 ) ) ;
#69 = PRODUCT_DEFINITION ( '未知', '', #29, #217 ) ;
#70 = CARTESIAN_POINT ( 'NONE',  ( 19.00000000000000000, 15.00000000000000000, 9.000000000000000000 ) ) ;
#71 = COORDINATED_UNIVERSAL_TIME_OFFSET ( 8, 0, .AHEAD. ) ;
#72 = APPROVAL_DATE_TIME ( #176, #76 ) ;
#73 = DATE_AND_TIME ( #3, #98 ) ;
#74 = PERSON_AND_ORGANIZATION_ROLE ( 'creator' ) ;
#75 = PLANE ( 'NONE',  #202 ) ;
#76 = APPROVAL ( #234, '未指定' ) ;
#77 = LINE ( 'NONE', #82, #36 ) ;
#78 = ORIENTED_EDGE ( 'NONE', *, *, #236, .T. ) ;
#79 = ORIENTED_EDGE ( 'NONE', *, *, #41, .T. ) ;
#80 = MANIFOLD_SOLID_BREP ( '凸台-拉伸1', #103 ) ;
#81 = EDGE_CURVE ( 'NONE', #167, #199, #27, .T. ) ;
#82 = CARTESIAN_POINT ( 'NONE',  ( -19.00000000000000000, 15.00000000000000000, -9.000000000000000000 ) ) ;
#83 = AXIS2_PLACEMENT_3D ( 'NONE', #188, #110, #216 ) ;
#84 = CARTESIAN_POINT ( 'NONE',  ( 19.00000000000000000, 15.00000000000000000, 9.000000000000000000 ) ) ;
#85 = LINE ( 'NONE', #123, #23 ) ;
#86 = CC_DESIGN_PERSON_AND_ORGANIZATION_ASSIGNMENT ( #53, #20, ( #29 ) ) ;
#87 = LINE ( 'NONE', #189, #155 ) ;
#88 = LOCAL_TIME ( 19, 26, 34.00000000000000000, #92 ) ;
#89 = DATE_AND_TIME ( #143, #177 ) ;
#90 = ORIENTED_EDGE ( 'NONE', *, *, #9, .F. ) ;
#91 = PERSON_AND_ORGANIZATION_ROLE ( 'classification_officer' ) ;
#92 = COORDINATED_UNIVERSAL_TIME_OFFSET ( 8, 0, .AHEAD. ) ;
#93 =( GEOMETRIC_REPRESENTATION_CONTEXT ( 3 ) GLOBAL_UNCERTAINTY_ASSIGNED_CONTEXT ( ( #181 ) ) GLOBAL_UNIT_ASSIGNED_CONTEXT ( ( #35, #121, #157 ) ) REPRESENTATION_CONTEXT ( 'NONE', 'WORKASPACE' ) );
#94 = EDGE_LOOP ( 'NONE', ( #78, #185, #153, #183 ) ) ;
#95 = VERTEX_POINT ( 'NONE', #13 ) ;
#96 = FACE_OUTER_BOUND ( 'NONE', #114, .T. ) ;
#97 = ORIENTED_EDGE ( 'NONE', *, *, #19, .T. ) ;
#98 = LOCAL_TIME ( 19, 26, 34.00000000000000000, #40 ) ;
#99 = DIRECTION ( 'NONE',  ( 0.000000000000000000, -0.000000000000000000, -1.000000000000000000 ) ) ;
#100 = CARTESIAN_POINT ( 'NONE',  ( -19.00000000000000000, 15.00000000000000000, 9.000000000000000000 ) ) ;
#101 = CC_DESIGN_SECURITY_CLASSIFICATION ( #226, ( #29 ) ) ;
#102 = DIRECTION ( 'NONE',  ( 0.000000000000000000, 0.000000000000000000, -1.000000000000000000 ) ) ;
#103 = CLOSED_SHELL ( 'NONE', ( #170, #34, #130, #228, #11, #127 ) ) ;
#104 = AXIS2_PLACEMENT_3D ( 'NONE', #233, #190, #12 ) ;
#105 = CARTESIAN_POINT ( 'NONE',  ( 19.00000000000000000, 15.00000000000000000, 9.000000000000000000 ) ) ;
#106 = PERSON_AND_ORGANIZATION ( #128, #146 ) ;
#107 = PERSON_AND_ORGANIZATION ( #128, #146 ) ;
#108 = SHAPE_DEFINITION_REPRESENTATION ( #42, #118 ) ;
#109 = EDGE_CURVE ( 'NONE', #65, #199, #85, .T. ) ;
#110 = DIRECTION ( 'NONE',  ( 0.000000000000000000, 0.000000000000000000, 1.000000000000000000 ) ) ;
#111 = APPROVAL_ROLE ( '' ) ;
#112 = ORIENTED_EDGE ( 'NONE', *, *, #81, .F. ) ;
#113 = APPROVAL ( #211, '未指定' ) ;
#114 = EDGE_LOOP ( 'NONE', ( #165, #223, #222, #204 ) ) ;
#115 = CARTESIAN_POINT ( 'NONE',  ( -19.00000000000000000, 0.000000000000000000, 9.000000000000000000 ) ) ;
#116 = DIRECTION ( 'NONE',  ( 1.000000000000000000, 0.000000000000000000, 0.000000000000000000 ) ) ;
#117 = APPROVAL_PERSON_ORGANIZATION ( #162, #76, #164 ) ;
#118 = ADVANCED_BREP_SHAPE_REPRESENTATION ( 'FN-ZON-002_fuse-service-disconnect_R0.4', ( #80, #83 ), #93 ) ;
#119 = LINE ( 'NONE', #63, #200 ) ;
#120 = FACE_OUTER_BOUND ( 'NONE', #133, .T. ) ;
#121 =( NAMED_UNIT ( * ) PLANE_ANGLE_UNIT ( ) SI_UNIT ( $, .RADIAN. ) );
#122 = CARTESIAN_POINT ( 'NONE',  ( 19.00000000000000000, 15.00000000000000000, 9.000000000000000000 ) ) ;
#123 = CARTESIAN_POINT ( 'NONE',  ( -19.00000000000000000, 0.000000000000000000, -9.000000000000000000 ) ) ;
#124 = DIRECTION ( 'NONE',  ( -1.000000000000000000, 0.000000000000000000, 0.000000000000000000 ) ) ;
#125 = APPROVAL_DATE_TIME ( #192, #210 ) ;
#126 = APPROVAL_ROLE ( '' ) ;
#127 = ADVANCED_FACE ( 'NONE', ( #32 ), #140, .T. ) ;
#128 = PERSON ( '未指定', '未指定', '未指定', ('未指定'), ('未指定'), ('未指定') ) ;
#129 = APPLICATION_PROTOCOL_DEFINITION ( 'international standard', 'config_control_design', 1994, #208 ) ;
#130 = ADVANCED_FACE ( 'NONE', ( #207 ), #66, .F. ) ;
#131 = ORIENTED_EDGE ( 'NONE', *, *, #21, .F. ) ;
#132 = PLANE ( 'NONE',  #214 ) ;
#133 = EDGE_LOOP ( 'NONE', ( #61, #112, #151, #220 ) ) ;
#134 = DIRECTION ( 'NONE',  ( -0.000000000000000000, -1.000000000000000000, -0.000000000000000000 ) ) ;
#135 = VECTOR ( 'NONE', #52, 1000.000000000000000 ) ;
#136 = CARTESIAN_POINT ( 'NONE',  ( 19.00000000000000000, 0.000000000000000000, -9.000000000000000000 ) ) ;
#137 = CARTESIAN_POINT ( 'NONE',  ( -19.00000000000000000, 15.00000000000000000, -9.000000000000000000 ) ) ;
#138 = DIRECTION ( 'NONE',  ( -1.000000000000000000, -0.000000000000000000, -0.000000000000000000 ) ) ;
#139 = CARTESIAN_POINT ( 'NONE',  ( -19.00000000000000000, 0.000000000000000000, -9.000000000000000000 ) ) ;
#140 = PLANE ( 'NONE',  #104 ) ;
#141 = LINE ( 'NONE', #84, #174 ) ;
#142 = CALENDAR_DATE ( 2026, 26, 7 ) ;
#143 = CALENDAR_DATE ( 2026, 26, 7 ) ;
#144 = CC_DESIGN_DATE_AND_TIME_ASSIGNMENT ( #17, #54, ( #226 ) ) ;
#145 = VECTOR ( 'NONE', #6, 1000.000000000000000 ) ;
#146 = ORGANIZATION ( '未指定', '未指定', '' ) ;
#147 = PERSON_AND_ORGANIZATION ( #128, #146 ) ;
#148 = PRODUCT_RELATED_PRODUCT_CATEGORY ( 'detail', '', ( #197 ) ) ;
#149 = DIRECTION ( 'NONE',  ( -1.000000000000000000, -0.000000000000000000, -0.000000000000000000 ) ) ;
#150 = VERTEX_POINT ( 'NONE', #227 ) ;
#151 = ORIENTED_EDGE ( 'NONE', *, *, #41, .F. ) ;
#152 = CC_DESIGN_PERSON_AND_ORGANIZATION_ASSIGNMENT ( #106, #91, ( #226 ) ) ;
#153 = ORIENTED_EDGE ( 'NONE', *, *, #218, .F. ) ;
#154 = CARTESIAN_POINT ( 'NONE',  ( -19.00000000000000000, 15.00000000000000000, 9.000000000000000000 ) ) ;
#155 = VECTOR ( 'NONE', #37, 1000.000000000000000 ) ;
#156 = CC_DESIGN_PERSON_AND_ORGANIZATION_ASSIGNMENT ( #22, #74, ( #29 ) ) ;
#157 =( NAMED_UNIT ( * ) SI_UNIT ( $, .STERADIAN. ) SOLID_ANGLE_UNIT ( ) );
#158 = DIRECTION ( 'NONE',  ( 0.000000000000000000, 0.000000000000000000, -1.000000000000000000 ) ) ;
#159 = ORIENTED_EDGE ( 'NONE', *, *, #218, .T. ) ;
#160 = FACE_OUTER_BOUND ( 'NONE', #187, .T. ) ;
#161 = PERSON_AND_ORGANIZATION_ROLE ( 'design_owner' ) ;
#162 = PERSON_AND_ORGANIZATION ( #128, #146 ) ;
#163 = AXIS2_PLACEMENT_3D ( 'NONE', #137, #205, #50 ) ;
#164 = APPROVAL_ROLE ( '' ) ;
#165 = ORIENTED_EDGE ( 'NONE', *, *, #21, .T. ) ;
#166 = LINE ( 'NONE', #115, #145 ) ;
#167 = VERTEX_POINT ( 'NONE', #209 ) ;
#168 = DIRECTION ( 'NONE',  ( 0.000000000000000000, 0.000000000000000000, -1.000000000000000000 ) ) ;
#169 = VERTEX_POINT ( 'NONE', #67 ) ;
#170 = ADVANCED_FACE ( 'NONE', ( #160 ), #206, .F. ) ;
#171 = LINE ( 'NONE', #100, #135 ) ;
#172 = DIRECTION ( 'NONE',  ( -0.000000000000000000, -1.000000000000000000, -0.000000000000000000 ) ) ;
#173 = EDGE_CURVE ( 'NONE', #95, #65, #87, .T. ) ;
#174 = VECTOR ( 'NONE', #102, 1000.000000000000000 ) ;
#175 = APPROVAL_STATUS ( 'not_yet_approved' ) ;
#176 = DATE_AND_TIME ( #235, #46 ) ;
#177 = LOCAL_TIME ( 19, 26, 34.00000000000000000, #71 ) ;
#178 = PERSON_AND_ORGANIZATION ( #128, #146 ) ;
#179 = DATE_TIME_ROLE ( 'creation_date' ) ;
#180 = PERSON_AND_ORGANIZATION_ROLE ( 'creator' ) ;
#181 = UNCERTAINTY_MEASURE_WITH_UNIT (LENGTH_MEASURE( 1.000000000000000082E-05 ), #35, 'distance_accuracy_value', 'NONE');
#182 = LINE ( 'NONE', #154, #212 ) ;
#183 = ORIENTED_EDGE ( 'NONE', *, *, #195, .T. ) ;
#184 = EDGE_CURVE ( 'NONE', #167, #169, #171, .T. ) ;
#185 = ORIENTED_EDGE ( 'NONE', *, *, #173, .F. ) ;
#186 = CARTESIAN_POINT ( 'NONE',  ( -19.00000000000000000, 0.000000000000000000, 9.000000000000000000 ) ) ;
#187 = EDGE_LOOP ( 'NONE', ( #97, #90, #56, #62 ) ) ;
#188 = CARTESIAN_POINT ( 'NONE',  ( 0.000000000000000000, 0.000000000000000000, 0.000000000000000000 ) ) ;
#189 = CARTESIAN_POINT ( 'NONE',  ( 19.00000000000000000, 15.00000000000000000, -9.000000000000000000 ) ) ;
#190 = DIRECTION ( 'NONE',  ( 0.000000000000000000, -1.000000000000000000, 0.000000000000000000 ) ) ;
#191 = DIRECTION ( 'NONE',  ( 0.000000000000000000, 0.000000000000000000, 1.000000000000000000 ) ) ;
#192 = DATE_AND_TIME ( #142, #88 ) ;
#193 = APPROVAL_PERSON_ORGANIZATION ( #107, #113, #126 ) ;
#194 = APPLICATION_CONTEXT ( 'configuration controlled 3d designs of mechanical parts and assemblies' ) ;
#195 = EDGE_CURVE ( 'NONE', #198, #150, #16, .T. ) ;
#196 = PERSON_AND_ORGANIZATION ( #128, #146 ) ;
#197 = PRODUCT ( 'FN-ZON-002_fuse-service-disconnect_R0.4', 'FN-ZON-002_fuse-service-disconnect_R0.4', '', ( #58 ) ) ;
#198 = VERTEX_POINT ( 'NONE', #105 ) ;
#199 = VERTEX_POINT ( 'NONE', #139 ) ;
#200 = VECTOR ( 'NONE', #116, 1000.000000000000000 ) ;
#201 = LINE ( 'NONE', #5, #55 ) ;
#202 = AXIS2_PLACEMENT_3D ( 'NONE', #203, #168, #47 ) ;
#203 = CARTESIAN_POINT ( 'NONE',  ( -19.00000000000000000, 15.00000000000000000, 9.000000000000000000 ) ) ;
#204 = ORIENTED_EDGE ( 'NONE', *, *, #9, .T. ) ;
#205 = DIRECTION ( 'NONE',  ( 0.000000000000000000, 0.000000000000000000, 1.000000000000000000 ) ) ;
#206 = PLANE ( 'NONE',  #2 ) ;
#207 = FACE_OUTER_BOUND ( 'NONE', #94, .T. ) ;
#208 = APPLICATION_CONTEXT ( 'configuration controlled 3d designs of mechanical parts and assemblies' ) ;
#209 = CARTESIAN_POINT ( 'NONE',  ( -19.00000000000000000, 15.00000000000000000, -9.000000000000000000 ) ) ;
#210 = APPROVAL ( #175, '未指定' ) ;
#211 = APPROVAL_STATUS ( 'not_yet_approved' ) ;
#212 = VECTOR ( 'NONE', #225, 1000.000000000000000 ) ;
#213 = CALENDAR_DATE ( 2026, 26, 7 ) ;
#214 = AXIS2_PLACEMENT_3D ( 'NONE', #43, #25, #99 ) ;
#215 = VECTOR ( 'NONE', #172, 1000.000000000000000 ) ;
#216 = DIRECTION ( 'NONE',  ( 1.000000000000000000, 0.000000000000000000, 0.000000000000000000 ) ) ;
#217 = DESIGN_CONTEXT ( 'detailed design', #208, 'design' ) ;
#218 = EDGE_CURVE ( 'NONE', #198, #95, #141, .T. ) ;
#219 = EDGE_LOOP ( 'NONE', ( #10, #24, #159, #79 ) ) ;
#220 = ORIENTED_EDGE ( 'NONE', *, *, #173, .T. ) ;
#221 = APPROVAL_PERSON_ORGANIZATION ( #178, #210, #111 ) ;
#222 = ORIENTED_EDGE ( 'NONE', *, *, #49, .F. ) ;
#223 = ORIENTED_EDGE ( 'NONE', *, *, #195, .F. ) ;
#224 = AXIS2_PLACEMENT_3D ( 'NONE', #122, #124, #191 ) ;
#225 = DIRECTION ( 'NONE',  ( 1.000000000000000000, 0.000000000000000000, 0.000000000000000000 ) ) ;
#226 = SECURITY_CLASSIFICATION ( '', '', #57 ) ;
#227 = CARTESIAN_POINT ( 'NONE',  ( 19.00000000000000000, 0.000000000000000000, 9.000000000000000000 ) ) ;
#228 = ADVANCED_FACE ( 'NONE', ( #120 ), #51, .F. ) ;
#229 = CARTESIAN_POINT ( 'NONE',  ( -19.00000000000000000, 15.00000000000000000, 9.000000000000000000 ) ) ;
#230 = APPLICATION_PROTOCOL_DEFINITION ( 'international standard', 'config_control_design', 1994, #194 ) ;
#231 = CC_DESIGN_PERSON_AND_ORGANIZATION_ASSIGNMENT ( #196, #180, ( #69 ) ) ;
#232 = CC_DESIGN_APPROVAL ( #210, ( #29 ) ) ;
#233 = CARTESIAN_POINT ( 'NONE',  ( 0.000000000000000000, 0.000000000000000000, 0.000000000000000000 ) ) ;
#234 = APPROVAL_STATUS ( 'not_yet_approved' ) ;
#235 = CALENDAR_DATE ( 2026, 26, 7 ) ;
#236 = EDGE_CURVE ( 'NONE', #150, #65, #31, .T. ) ;
#237 = CC_DESIGN_PERSON_AND_ORGANIZATION_ASSIGNMENT ( #147, #161, ( #197 ) ) ;
ENDSEC;
END-ISO-10303-21;
