ISO-10303-21;
HEADER;
FILE_DESCRIPTION (( 'STEP AP203' ),
    '1' );
FILE_NAME ('FN-ANT-002_xls1-bracket-70x80x6_PENDING_R0.6.STEP',
    '2026-07-26T15:42:48',
    ( '' ),
    ( '' ),
    'SwSTEP 2.0',
    'SolidWorks 2022',
    '' );
FILE_SCHEMA (( 'CONFIG_CONTROL_DESIGN' ));
ENDSEC;

DATA;
#1 = FACE_OUTER_BOUND ( 'NONE', #130, .T. ) ;
#2 = VECTOR ( 'NONE', #25, 1000.000000000000000 ) ;
#3 = CARTESIAN_POINT ( 'NONE',  ( 35.00000000000000000, 6.000000000000000000, 40.00000000000000000 ) ) ;
#4 = CARTESIAN_POINT ( 'NONE',  ( 35.00000000000000000, 6.000000000000000000, -40.00000000000000000 ) ) ;
#5 = DESIGN_CONTEXT ( 'detailed design', #28, 'design' ) ;
#6 = FACE_OUTER_BOUND ( 'NONE', #74, .T. ) ;
#7 = PRODUCT_DEFINITION ( '未知', '', #199, #5 ) ;
#8 = CARTESIAN_POINT ( 'NONE',  ( -35.00000000000000000, 6.000000000000000000, 40.00000000000000000 ) ) ;
#9 = PERSON_AND_ORGANIZATION ( #121, #68 ) ;
#10 = CC_DESIGN_APPROVAL ( #169, ( #199 ) ) ;
#11 = APPROVAL_ROLE ( '' ) ;
#12 = SHAPE_DEFINITION_REPRESENTATION ( #40, #215 ) ;
#13 = PERSON_AND_ORGANIZATION_ROLE ( 'design_supplier' ) ;
#14 = EDGE_CURVE ( 'NONE', #217, #203, #112, .T. ) ;
#15 = DATE_AND_TIME ( #128, #133 ) ;
#16 =( GEOMETRIC_REPRESENTATION_CONTEXT ( 3 ) GLOBAL_UNCERTAINTY_ASSIGNED_CONTEXT ( ( #48 ) ) GLOBAL_UNIT_ASSIGNED_CONTEXT ( ( #52, #45, #120 ) ) REPRESENTATION_CONTEXT ( 'NONE', 'WORKASPACE' ) );
#17 = ORIENTED_EDGE ( 'NONE', *, *, #146, .T. ) ;
#18 = LINE ( 'NONE', #3, #54 ) ;
#19 = APPLICATION_CONTEXT ( 'configuration controlled 3d designs of mechanical parts and assemblies' ) ;
#20 = VERTEX_POINT ( 'NONE', #219 ) ;
#21 = AXIS2_PLACEMENT_3D ( 'NONE', #148, #153, #226 ) ;
#22 = ORIENTED_EDGE ( 'NONE', *, *, #60, .F. ) ;
#23 = EDGE_LOOP ( 'NONE', ( #218, #59, #184, #181 ) ) ;
#24 = CARTESIAN_POINT ( 'NONE',  ( -35.00000000000000000, 6.000000000000000000, 40.00000000000000000 ) ) ;
#25 = DIRECTION ( 'NONE',  ( -0.000000000000000000, -0.000000000000000000, 1.000000000000000000 ) ) ;
#26 = DIRECTION ( 'NONE',  ( 1.000000000000000000, -0.000000000000000000, 0.000000000000000000 ) ) ;
#27 = CARTESIAN_POINT ( 'NONE',  ( -35.00000000000000000, 6.000000000000000000, -40.00000000000000000 ) ) ;
#28 = APPLICATION_CONTEXT ( 'configuration controlled 3d designs of mechanical parts and assemblies' ) ;
#29 = CC_DESIGN_PERSON_AND_ORGANIZATION_ASSIGNMENT ( #106, #13, ( #199 ) ) ;
#30 = AXIS2_PLACEMENT_3D ( 'NONE', #24, #67, #49 ) ;
#31 = CARTESIAN_POINT ( 'NONE',  ( 35.00000000000000000, 6.000000000000000000, -40.00000000000000000 ) ) ;
#32 = APPROVAL_DATE_TIME ( #154, #57 ) ;
#33 = PERSON_AND_ORGANIZATION ( #121, #68 ) ;
#34 = ADVANCED_FACE ( 'NONE', ( #202 ), #129, .F. ) ;
#35 = PERSON_AND_ORGANIZATION ( #121, #68 ) ;
#36 = COORDINATED_UNIVERSAL_TIME_OFFSET ( 8, 0, .AHEAD. ) ;
#37 = AXIS2_PLACEMENT_3D ( 'NONE', #51, #205, #224 ) ;
#38 = CARTESIAN_POINT ( 'NONE',  ( 35.00000000000000000, 6.000000000000000000, 40.00000000000000000 ) ) ;
#39 = ORIENTED_EDGE ( 'NONE', *, *, #60, .T. ) ;
#40 = PRODUCT_DEFINITION_SHAPE ( 'NONE', 'NONE',  #7 ) ;
#41 = DIRECTION ( 'NONE',  ( 0.000000000000000000, 0.000000000000000000, -1.000000000000000000 ) ) ;
#42 = EDGE_CURVE ( 'NONE', #203, #201, #180, .T. ) ;
#43 = ORIENTED_EDGE ( 'NONE', *, *, #190, .T. ) ;
#44 = CARTESIAN_POINT ( 'NONE',  ( -35.00000000000000000, 0.000000000000000000, -40.00000000000000000 ) ) ;
#45 =( NAMED_UNIT ( * ) PLANE_ANGLE_UNIT ( ) SI_UNIT ( $, .RADIAN. ) );
#46 = CARTESIAN_POINT ( 'NONE',  ( -35.00000000000000000, 6.000000000000000000, -40.00000000000000000 ) ) ;
#47 = CARTESIAN_POINT ( 'NONE',  ( -35.00000000000000000, 0.000000000000000000, 40.00000000000000000 ) ) ;
#48 = UNCERTAINTY_MEASURE_WITH_UNIT (LENGTH_MEASURE( 1.000000000000000082E-05 ), #52, 'distance_accuracy_value', 'NONE');
#49 = DIRECTION ( 'NONE',  ( -1.000000000000000000, 0.000000000000000000, -0.000000000000000000 ) ) ;
#50 = CC_DESIGN_PERSON_AND_ORGANIZATION_ASSIGNMENT ( #9, #87, ( #93 ) ) ;
#51 = CARTESIAN_POINT ( 'NONE',  ( 0.000000000000000000, 0.000000000000000000, 0.000000000000000000 ) ) ;
#52 =( LENGTH_UNIT ( ) NAMED_UNIT ( * ) SI_UNIT ( .MILLI., .METRE. ) );
#53 = PERSON_AND_ORGANIZATION_ROLE ( 'classification_officer' ) ;
#54 = VECTOR ( 'NONE', #81, 1000.000000000000000 ) ;
#55 = SECURITY_CLASSIFICATION_LEVEL ( 'unclassified' ) ;
#56 = COORDINATED_UNIVERSAL_TIME_OFFSET ( 8, 0, .AHEAD. ) ;
#57 = APPROVAL ( #123, '未指定' ) ;
#58 = CARTESIAN_POINT ( 'NONE',  ( -35.00000000000000000, 6.000000000000000000, 40.00000000000000000 ) ) ;
#59 = ORIENTED_EDGE ( 'NONE', *, *, #190, .F. ) ;
#60 = EDGE_CURVE ( 'NONE', #217, #216, #183, .T. ) ;
#61 = DIRECTION ( 'NONE',  ( 1.000000000000000000, 0.000000000000000000, 0.000000000000000000 ) ) ;
#62 = DIRECTION ( 'NONE',  ( -1.000000000000000000, 0.000000000000000000, 0.000000000000000000 ) ) ;
#63 = ORIENTED_EDGE ( 'NONE', *, *, #146, .F. ) ;
#64 = LINE ( 'NONE', #167, #2 ) ;
#65 = VECTOR ( 'NONE', #83, 1000.000000000000000 ) ;
#66 = DIRECTION ( 'NONE',  ( 1.000000000000000000, 0.000000000000000000, 0.000000000000000000 ) ) ;
#67 = DIRECTION ( 'NONE',  ( 0.000000000000000000, 0.000000000000000000, -1.000000000000000000 ) ) ;
#68 = ORGANIZATION ( '未指定', '未指定', '' ) ;
#69 = DIRECTION ( 'NONE',  ( -1.000000000000000000, -0.000000000000000000, -0.000000000000000000 ) ) ;
#70 = VECTOR ( 'NONE', #163, 1000.000000000000000 ) ;
#71 = APPROVAL_PERSON_ORGANIZATION ( #125, #169, #198 ) ;
#72 = APPROVAL_STATUS ( 'not_yet_approved' ) ;
#73 = CC_DESIGN_PERSON_AND_ORGANIZATION_ASSIGNMENT ( #140, #53, ( #194 ) ) ;
#74 = EDGE_LOOP ( 'NONE', ( #147, #22, #220, #17 ) ) ;
#75 = ORIENTED_EDGE ( 'NONE', *, *, #14, .T. ) ;
#76 = APPROVAL_PERSON_ORGANIZATION ( #33, #57, #11 ) ;
#77 = ORIENTED_EDGE ( 'NONE', *, *, #171, .T. ) ;
#78 = ORIENTED_EDGE ( 'NONE', *, *, #104, .F. ) ;
#79 = AXIS2_PLACEMENT_3D ( 'NONE', #27, #222, #119 ) ;
#80 = PLANE ( 'NONE',  #98 ) ;
#81 = DIRECTION ( 'NONE',  ( -0.000000000000000000, -1.000000000000000000, -0.000000000000000000 ) ) ;
#82 = EDGE_CURVE ( 'NONE', #203, #145, #18, .T. ) ;
#83 = DIRECTION ( 'NONE',  ( -0.000000000000000000, -0.000000000000000000, 1.000000000000000000 ) ) ;
#84 = CARTESIAN_POINT ( 'NONE',  ( -35.00000000000000000, 0.000000000000000000, -40.00000000000000000 ) ) ;
#85 = APPROVAL_ROLE ( '' ) ;
#86 = AXIS2_PLACEMENT_3D ( 'NONE', #38, #62, #111 ) ;
#87 = PERSON_AND_ORGANIZATION_ROLE ( 'design_owner' ) ;
#88 = CALENDAR_DATE ( 2026, 26, 7 ) ;
#89 = DATE_AND_TIME ( #108, #236 ) ;
#90 = ORIENTED_EDGE ( 'NONE', *, *, #223, .F. ) ;
#91 = CC_DESIGN_SECURITY_CLASSIFICATION ( #194, ( #199 ) ) ;
#92 = CARTESIAN_POINT ( 'NONE',  ( -35.00000000000000000, 6.000000000000000000, 40.00000000000000000 ) ) ;
#93 = PRODUCT ( 'FN-ANT-002_xls1-bracket-70x80x6_PENDING_R0.6', 'FN-ANT-002_xls1-bracket-70x80x6_PENDING_R0.6', '', ( #158 ) ) ;
#94 = ORIENTED_EDGE ( 'NONE', *, *, #42, .F. ) ;
#95 = CLOSED_SHELL ( 'NONE', ( #182, #206, #34, #109, #230, #162 ) ) ;
#96 = DIRECTION ( 'NONE',  ( -0.000000000000000000, -1.000000000000000000, -0.000000000000000000 ) ) ;
#97 = PLANE ( 'NONE',  #37 ) ;
#98 = AXIS2_PLACEMENT_3D ( 'NONE', #8, #26, #99 ) ;
#99 = DIRECTION ( 'NONE',  ( 0.000000000000000000, 0.000000000000000000, -1.000000000000000000 ) ) ;
#100 = LINE ( 'NONE', #114, #65 ) ;
#101 = PLANE ( 'NONE',  #21 ) ;
#102 = DIRECTION ( 'NONE',  ( 1.000000000000000000, 0.000000000000000000, 0.000000000000000000 ) ) ;
#103 = COORDINATED_UNIVERSAL_TIME_OFFSET ( 8, 0, .AHEAD. ) ;
#104 = EDGE_CURVE ( 'NONE', #201, #20, #188, .T. ) ;
#105 = APPLICATION_PROTOCOL_DEFINITION ( 'international standard', 'config_control_design', 1994, #28 ) ;
#106 = PERSON_AND_ORGANIZATION ( #121, #68 ) ;
#107 = LOCAL_TIME ( 23, 42, 48.00000000000000000, #36 ) ;
#108 = CALENDAR_DATE ( 2026, 26, 7 ) ;
#109 = ADVANCED_FACE ( 'NONE', ( #189 ), #134, .F. ) ;
#110 = ORIENTED_EDGE ( 'NONE', *, *, #82, .F. ) ;
#111 = DIRECTION ( 'NONE',  ( 0.000000000000000000, 0.000000000000000000, 1.000000000000000000 ) ) ;
#112 = LINE ( 'NONE', #58, #186 ) ;
#113 = CC_DESIGN_DATE_AND_TIME_ASSIGNMENT ( #124, #157, ( #194 ) ) ;
#114 = CARTESIAN_POINT ( 'NONE',  ( -35.00000000000000000, 6.000000000000000000, 40.00000000000000000 ) ) ;
#115 = VECTOR ( 'NONE', #41, 1000.000000000000000 ) ;
#116 = LINE ( 'NONE', #136, #138 ) ;
#117 = CC_DESIGN_APPROVAL ( #151, ( #194 ) ) ;
#118 = CARTESIAN_POINT ( 'NONE',  ( 35.00000000000000000, 0.000000000000000000, 40.00000000000000000 ) ) ;
#119 = DIRECTION ( 'NONE',  ( 1.000000000000000000, 0.000000000000000000, -0.000000000000000000 ) ) ;
#120 =( NAMED_UNIT ( * ) SI_UNIT ( $, .STERADIAN. ) SOLID_ANGLE_UNIT ( ) );
#121 = PERSON ( '未指定', '未指定', '未指定', ('未指定'), ('未指定'), ('未指定') ) ;
#122 = VECTOR ( 'NONE', #69, 1000.000000000000000 ) ;
#123 = APPROVAL_STATUS ( 'not_yet_approved' ) ;
#124 = DATE_AND_TIME ( #88, #107 ) ;
#125 = PERSON_AND_ORGANIZATION ( #121, #68 ) ;
#126 = VECTOR ( 'NONE', #96, 1000.000000000000000 ) ;
#127 = EDGE_CURVE ( 'NONE', #145, #142, #187, .T. ) ;
#128 = CALENDAR_DATE ( 2026, 26, 7 ) ;
#129 = PLANE ( 'NONE',  #86 ) ;
#130 = EDGE_LOOP ( 'NONE', ( #161, #75, #159, #232 ) ) ;
#131 = CC_DESIGN_PERSON_AND_ORGANIZATION_ASSIGNMENT ( #227, #174, ( #199 ) ) ;
#132 = EDGE_LOOP ( 'NONE', ( #43, #63, #78, #160 ) ) ;
#133 = LOCAL_TIME ( 23, 42, 48.00000000000000000, #56 ) ;
#134 = PLANE ( 'NONE',  #79 ) ;
#135 = CARTESIAN_POINT ( 'NONE',  ( 35.00000000000000000, 6.000000000000000000, 40.00000000000000000 ) ) ;
#136 = CARTESIAN_POINT ( 'NONE',  ( -35.00000000000000000, 6.000000000000000000, -40.00000000000000000 ) ) ;
#137 = LINE ( 'NONE', #31, #126 ) ;
#138 = VECTOR ( 'NONE', #191, 1000.000000000000000 ) ;
#139 = DATE_TIME_ROLE ( 'creation_date' ) ;
#140 = PERSON_AND_ORGANIZATION ( #121, #68 ) ;
#141 = LOCAL_TIME ( 23, 42, 48.00000000000000000, #195 ) ;
#142 = VERTEX_POINT ( 'NONE', #165 ) ;
#143 = ORIENTED_EDGE ( 'NONE', *, *, #127, .T. ) ;
#144 = EDGE_CURVE ( 'NONE', #233, #216, #64, .T. ) ;
#145 = VERTEX_POINT ( 'NONE', #149 ) ;
#146 = EDGE_CURVE ( 'NONE', #20, #233, #116, .T. ) ;
#147 = ORIENTED_EDGE ( 'NONE', *, *, #144, .T. ) ;
#148 = CARTESIAN_POINT ( 'NONE',  ( 0.000000000000000000, 6.000000000000000000, 0.000000000000000000 ) ) ;
#149 = CARTESIAN_POINT ( 'NONE',  ( 35.00000000000000000, 0.000000000000000000, 40.00000000000000000 ) ) ;
#150 = FACE_OUTER_BOUND ( 'NONE', #23, .T. ) ;
#151 = APPROVAL ( #72, '未指定' ) ;
#152 = DIRECTION ( 'NONE',  ( 0.000000000000000000, 0.000000000000000000, -1.000000000000000000 ) ) ;
#153 = DIRECTION ( 'NONE',  ( 0.000000000000000000, -1.000000000000000000, 0.000000000000000000 ) ) ;
#154 = DATE_AND_TIME ( #192, #228 ) ;
#155 = PERSON_AND_ORGANIZATION ( #121, #68 ) ;
#156 = APPLICATION_PROTOCOL_DEFINITION ( 'international standard', 'config_control_design', 1994, #19 ) ;
#157 = DATE_TIME_ROLE ( 'classification_date' ) ;
#158 = MECHANICAL_CONTEXT ( 'NONE', #19, 'mechanical' ) ;
#159 = ORIENTED_EDGE ( 'NONE', *, *, #42, .T. ) ;
#160 = ORIENTED_EDGE ( 'NONE', *, *, #223, .T. ) ;
#161 = ORIENTED_EDGE ( 'NONE', *, *, #213, .T. ) ;
#162 = ADVANCED_FACE ( 'NONE', ( #150 ), #97, .T. ) ;
#163 = DIRECTION ( 'NONE',  ( -0.000000000000000000, -1.000000000000000000, -0.000000000000000000 ) ) ;
#164 = ORIENTED_EDGE ( 'NONE', *, *, #82, .T. ) ;
#165 = CARTESIAN_POINT ( 'NONE',  ( 35.00000000000000000, 0.000000000000000000, -40.00000000000000000 ) ) ;
#166 = VECTOR ( 'NONE', #66, 1000.000000000000000 ) ;
#167 = CARTESIAN_POINT ( 'NONE',  ( -35.00000000000000000, 0.000000000000000000, 40.00000000000000000 ) ) ;
#168 = DIRECTION ( 'NONE',  ( -1.000000000000000000, -0.000000000000000000, -0.000000000000000000 ) ) ;
#169 = APPROVAL ( #212, '未指定' ) ;
#170 = LINE ( 'NONE', #84, #200 ) ;
#171 = EDGE_CURVE ( 'NONE', #216, #145, #221, .T. ) ;
#172 = FACE_OUTER_BOUND ( 'NONE', #234, .T. ) ;
#173 = APPROVAL_PERSON_ORGANIZATION ( #155, #151, #85 ) ;
#174 = PERSON_AND_ORGANIZATION_ROLE ( 'creator' ) ;
#175 = APPROVAL_DATE_TIME ( #89, #151 ) ;
#176 = PERSON_AND_ORGANIZATION_ROLE ( 'creator' ) ;
#177 = CALENDAR_DATE ( 2026, 26, 7 ) ;
#178 = PRODUCT_RELATED_PRODUCT_CATEGORY ( 'detail', '', ( #93 ) ) ;
#179 = ORIENTED_EDGE ( 'NONE', *, *, #14, .F. ) ;
#180 = LINE ( 'NONE', #237, #115 ) ;
#181 = ORIENTED_EDGE ( 'NONE', *, *, #171, .F. ) ;
#182 = ADVANCED_FACE ( 'NONE', ( #6 ), #80, .F. ) ;
#183 = LINE ( 'NONE', #92, #70 ) ;
#184 = ORIENTED_EDGE ( 'NONE', *, *, #127, .F. ) ;
#185 = AXIS2_PLACEMENT_3D ( 'NONE', #214, #229, #102 ) ;
#186 = VECTOR ( 'NONE', #61, 1000.000000000000000 ) ;
#187 = LINE ( 'NONE', #118, #211 ) ;
#188 = LINE ( 'NONE', #46, #122 ) ;
#189 = FACE_OUTER_BOUND ( 'NONE', #132, .T. ) ;
#190 = EDGE_CURVE ( 'NONE', #142, #233, #170, .T. ) ;
#191 = DIRECTION ( 'NONE',  ( -0.000000000000000000, -1.000000000000000000, -0.000000000000000000 ) ) ;
#192 = CALENDAR_DATE ( 2026, 26, 7 ) ;
#193 = APPROVAL_DATE_TIME ( #196, #169 ) ;
#194 = SECURITY_CLASSIFICATION ( '', '', #55 ) ;
#195 = COORDINATED_UNIVERSAL_TIME_OFFSET ( 8, 0, .AHEAD. ) ;
#196 = DATE_AND_TIME ( #177, #141 ) ;
#197 = CC_DESIGN_DATE_AND_TIME_ASSIGNMENT ( #15, #139, ( #7 ) ) ;
#198 = APPROVAL_ROLE ( '' ) ;
#199 = PRODUCT_DEFINITION_FORMATION_WITH_SPECIFIED_SOURCE ( '任何', '', #93, .NOT_KNOWN. ) ;
#200 = VECTOR ( 'NONE', #168, 1000.000000000000000 ) ;
#201 = VERTEX_POINT ( 'NONE', #4 ) ;
#202 = FACE_OUTER_BOUND ( 'NONE', #204, .T. ) ;
#203 = VERTEX_POINT ( 'NONE', #135 ) ;
#204 = EDGE_LOOP ( 'NONE', ( #143, #90, #94, #164 ) ) ;
#205 = DIRECTION ( 'NONE',  ( 0.000000000000000000, -1.000000000000000000, 0.000000000000000000 ) ) ;
#206 = ADVANCED_FACE ( 'NONE', ( #172 ), #207, .F. ) ;
#207 = PLANE ( 'NONE',  #30 ) ;
#208 = CC_DESIGN_APPROVAL ( #57, ( #7 ) ) ;
#209 = CARTESIAN_POINT ( 'NONE',  ( -35.00000000000000000, 6.000000000000000000, 40.00000000000000000 ) ) ;
#210 = MANIFOLD_SOLID_BREP ( '凸台-拉伸1', #95 ) ;
#211 = VECTOR ( 'NONE', #152, 1000.000000000000000 ) ;
#212 = APPROVAL_STATUS ( 'not_yet_approved' ) ;
#213 = EDGE_CURVE ( 'NONE', #20, #217, #100, .T. ) ;
#214 = CARTESIAN_POINT ( 'NONE',  ( 0.000000000000000000, 0.000000000000000000, 0.000000000000000000 ) ) ;
#215 = ADVANCED_BREP_SHAPE_REPRESENTATION ( 'FN-ANT-002_xls1-bracket-70x80x6_PENDING_R0.6', ( #210, #185 ), #16 ) ;
#216 = VERTEX_POINT ( 'NONE', #225 ) ;
#217 = VERTEX_POINT ( 'NONE', #209 ) ;
#218 = ORIENTED_EDGE ( 'NONE', *, *, #144, .F. ) ;
#219 = CARTESIAN_POINT ( 'NONE',  ( -35.00000000000000000, 6.000000000000000000, -40.00000000000000000 ) ) ;
#220 = ORIENTED_EDGE ( 'NONE', *, *, #213, .F. ) ;
#221 = LINE ( 'NONE', #47, #166 ) ;
#222 = DIRECTION ( 'NONE',  ( 0.000000000000000000, 0.000000000000000000, 1.000000000000000000 ) ) ;
#223 = EDGE_CURVE ( 'NONE', #201, #142, #137, .T. ) ;
#224 = DIRECTION ( 'NONE',  ( 0.000000000000000000, -0.000000000000000000, -1.000000000000000000 ) ) ;
#225 = CARTESIAN_POINT ( 'NONE',  ( -35.00000000000000000, 0.000000000000000000, 40.00000000000000000 ) ) ;
#226 = DIRECTION ( 'NONE',  ( 0.000000000000000000, -0.000000000000000000, -1.000000000000000000 ) ) ;
#227 = PERSON_AND_ORGANIZATION ( #121, #68 ) ;
#228 = LOCAL_TIME ( 23, 42, 48.00000000000000000, #103 ) ;
#229 = DIRECTION ( 'NONE',  ( 0.000000000000000000, 0.000000000000000000, 1.000000000000000000 ) ) ;
#230 = ADVANCED_FACE ( 'NONE', ( #1 ), #101, .F. ) ;
#231 = COORDINATED_UNIVERSAL_TIME_OFFSET ( 8, 0, .AHEAD. ) ;
#232 = ORIENTED_EDGE ( 'NONE', *, *, #104, .T. ) ;
#233 = VERTEX_POINT ( 'NONE', #44 ) ;
#234 = EDGE_LOOP ( 'NONE', ( #77, #110, #179, #39 ) ) ;
#235 = CC_DESIGN_PERSON_AND_ORGANIZATION_ASSIGNMENT ( #35, #176, ( #7 ) ) ;
#236 = LOCAL_TIME ( 23, 42, 48.00000000000000000, #231 ) ;
#237 = CARTESIAN_POINT ( 'NONE',  ( 35.00000000000000000, 6.000000000000000000, 40.00000000000000000 ) ) ;
ENDSEC;
END-ISO-10303-21;
