ISO-10303-21;
HEADER;
FILE_DESCRIPTION (( 'STEP AP203' ),
    '1' );
FILE_NAME ('FN-ANT-003_xls1-whip-D12x180_PENDING_R0.6.STEP',
    '2026-07-26T15:42:54',
    ( '' ),
    ( '' ),
    'SwSTEP 2.0',
    'SolidWorks 2022',
    '' );
FILE_SCHEMA (( 'CONFIG_CONTROL_DESIGN' ));
ENDSEC;

DATA;
#1 = CYLINDRICAL_SURFACE ( 'NONE', #146, 6.000000000000000888 ) ;
#2 = VERTEX_POINT ( 'NONE', #60 ) ;
#3 = AXIS2_PLACEMENT_3D ( 'NONE', #20, #51, #73 ) ;
#4 = VERTEX_POINT ( 'NONE', #86 ) ;
#5 = CARTESIAN_POINT ( 'NONE',  ( 0.000000000000000000, 180.0000000000000000, -6.000000000000000888 ) ) ;
#6 = EDGE_CURVE ( 'NONE', #113, #2, #163, .T. ) ;
#7 = DATE_TIME_ROLE ( 'classification_date' ) ;
#8 = APPROVAL_STATUS ( 'not_yet_approved' ) ;
#9 = DATE_TIME_ROLE ( 'creation_date' ) ;
#10 = CC_DESIGN_DATE_AND_TIME_ASSIGNMENT ( #54, #9, ( #91 ) ) ;
#11 = CALENDAR_DATE ( 2026, 26, 7 ) ;
#12 = CALENDAR_DATE ( 2026, 26, 7 ) ;
#13 = PRODUCT_RELATED_PRODUCT_CATEGORY ( 'detail', '', ( #26 ) ) ;
#14 = AXIS2_PLACEMENT_3D ( 'NONE', #97, #19, #164 ) ;
#15 = ORIENTED_EDGE ( 'NONE', *, *, #99, .F. ) ;
#16 = ORIENTED_EDGE ( 'NONE', *, *, #56, .F. ) ;
#17 = DIRECTION ( 'NONE',  ( 0.000000000000000000, 1.000000000000000000, 0.000000000000000000 ) ) ;
#18 = FACE_OUTER_BOUND ( 'NONE', #68, .T. ) ;
#19 = DIRECTION ( 'NONE',  ( -0.000000000000000000, -1.000000000000000000, -0.000000000000000000 ) ) ;
#20 = CARTESIAN_POINT ( 'NONE',  ( 0.000000000000000000, 0.000000000000000000, 0.000000000000000000 ) ) ;
#21 = EDGE_CURVE ( 'NONE', #175, #113, #117, .T. ) ;
#22 = CARTESIAN_POINT ( 'NONE',  ( 0.000000000000000000, 0.000000000000000000, 0.000000000000000000 ) ) ;
#23 = UNCERTAINTY_MEASURE_WITH_UNIT (LENGTH_MEASURE( 1.000000000000000082E-05 ), #126, 'distance_accuracy_value', 'NONE');
#24 = APPROVAL_STATUS ( 'not_yet_approved' ) ;
#25 = PERSON ( '未指定', '未指定', '未指定', ('未指定'), ('未指定'), ('未指定') ) ;
#26 = PRODUCT ( 'FN-ANT-003_xls1-whip-D12x180_PENDING_R0.6', 'FN-ANT-003_xls1-whip-D12x180_PENDING_R0.6', '', ( #93 ) ) ;
#27 = PRODUCT_DEFINITION_FORMATION_WITH_SPECIFIED_SOURCE ( '任何', '', #26, .NOT_KNOWN. ) ;
#28 = PERSON_AND_ORGANIZATION ( #25, #37 ) ;
#29 = ADVANCED_FACE ( 'NONE', ( #18 ), #48, .F. ) ;
#30 = CC_DESIGN_PERSON_AND_ORGANIZATION_ASSIGNMENT ( #141, #158, ( #27 ) ) ;
#31 = APPROVAL ( #106, '未指定' ) ;
#32 = CARTESIAN_POINT ( 'NONE',  ( 7.347880794884119736E-16, 180.0000000000000000, 6.000000000000000888 ) ) ;
#33 = APPROVAL_PERSON_ORGANIZATION ( #80, #151, #64 ) ;
#34 = DIRECTION ( 'NONE',  ( 0.000000000000000000, 0.000000000000000000, 1.000000000000000000 ) ) ;
#35 = DIRECTION ( 'NONE',  ( 0.000000000000000000, -0.000000000000000000, 1.000000000000000000 ) ) ;
#36 = CARTESIAN_POINT ( 'NONE',  ( 0.000000000000000000, 180.0000000000000000, 0.000000000000000000 ) ) ;
#37 = ORGANIZATION ( '未指定', '未指定', '' ) ;
#38 = APPROVAL_ROLE ( '' ) ;
#39 = EDGE_CURVE ( 'NONE', #175, #4, #71, .T. ) ;
#40 = DATE_AND_TIME ( #132, #58 ) ;
#41 = APPLICATION_PROTOCOL_DEFINITION ( 'international standard', 'config_control_design', 1994, #157 ) ;
#42 = APPROVAL_DATE_TIME ( #170, #31 ) ;
#43 = ADVANCED_FACE ( 'NONE', ( #148 ), #139, .T. ) ;
#44 = AXIS2_PLACEMENT_3D ( 'NONE', #84, #17, #98 ) ;
#45 = APPROVAL ( #24, '未指定' ) ;
#46 = CC_DESIGN_DATE_AND_TIME_ASSIGNMENT ( #55, #7, ( #107 ) ) ;
#47 = DIRECTION ( 'NONE',  ( 0.000000000000000000, 0.000000000000000000, -1.000000000000000000 ) ) ;
#48 = PLANE ( 'NONE',  #137 ) ;
#49 = FACE_OUTER_BOUND ( 'NONE', #134, .T. ) ;
#50 = ORIENTED_EDGE ( 'NONE', *, *, #21, .T. ) ;
#51 = DIRECTION ( 'NONE',  ( 0.000000000000000000, 1.000000000000000000, 0.000000000000000000 ) ) ;
#52 = PERSON_AND_ORGANIZATION ( #25, #37 ) ;
#53 =( GEOMETRIC_REPRESENTATION_CONTEXT ( 3 ) GLOBAL_UNCERTAINTY_ASSIGNED_CONTEXT ( ( #23 ) ) GLOBAL_UNIT_ASSIGNED_CONTEXT ( ( #126, #156, #168 ) ) REPRESENTATION_CONTEXT ( 'NONE', 'WORKASPACE' ) );
#54 = DATE_AND_TIME ( #116, #96 ) ;
#55 = DATE_AND_TIME ( #172, #129 ) ;
#56 = EDGE_CURVE ( 'NONE', #113, #175, #74, .T. ) ;
#57 = CC_DESIGN_APPROVAL ( #31, ( #107 ) ) ;
#58 = LOCAL_TIME ( 23, 42, 54.00000000000000000, #128 ) ;
#59 = DIRECTION ( 'NONE',  ( -0.000000000000000000, -1.000000000000000000, -0.000000000000000000 ) ) ;
#60 = CARTESIAN_POINT ( 'NONE',  ( 7.347880794884119736E-16, 0.000000000000000000, 6.000000000000000888 ) ) ;
#61 = ORIENTED_EDGE ( 'NONE', *, *, #6, .F. ) ;
#62 = CC_DESIGN_PERSON_AND_ORGANIZATION_ASSIGNMENT ( #142, #92, ( #91 ) ) ;
#63 = DIRECTION ( 'NONE',  ( -0.000000000000000000, -1.000000000000000000, -0.000000000000000000 ) ) ;
#64 = APPROVAL_ROLE ( '' ) ;
#65 = DATE_AND_TIME ( #12, #150 ) ;
#66 = PERSON_AND_ORGANIZATION_ROLE ( 'design_owner' ) ;
#67 = PERSON_AND_ORGANIZATION_ROLE ( 'classification_officer' ) ;
#68 = EDGE_LOOP ( 'NONE', ( #15, #82 ) ) ;
#69 = ORIENTED_EDGE ( 'NONE', *, *, #145, .T. ) ;
#70 = CARTESIAN_POINT ( 'NONE',  ( 0.000000000000000000, 0.000000000000000000, 0.000000000000000000 ) ) ;
#71 = LINE ( 'NONE', #5, #160 ) ;
#72 = CARTESIAN_POINT ( 'NONE',  ( 0.000000000000000000, 180.0000000000000000, 0.000000000000000000 ) ) ;
#73 = DIRECTION ( 'NONE',  ( 0.000000000000000000, 0.000000000000000000, 1.000000000000000000 ) ) ;
#74 = CIRCLE ( 'NONE', #140, 6.000000000000000888 ) ;
#75 = ORIENTED_EDGE ( 'NONE', *, *, #39, .F. ) ;
#76 = COORDINATED_UNIVERSAL_TIME_OFFSET ( 8, 0, .AHEAD. ) ;
#77 = CC_DESIGN_APPROVAL ( #151, ( #27 ) ) ;
#78 = APPROVAL_DATE_TIME ( #40, #45 ) ;
#79 = CC_DESIGN_PERSON_AND_ORGANIZATION_ASSIGNMENT ( #101, #66, ( #26 ) ) ;
#80 = PERSON_AND_ORGANIZATION ( #25, #37 ) ;
#81 = AXIS2_PLACEMENT_3D ( 'NONE', #109, #135, #34 ) ;
#82 = ORIENTED_EDGE ( 'NONE', *, *, #145, .F. ) ;
#83 = DIRECTION ( 'NONE',  ( 0.000000000000000000, 1.000000000000000000, 0.000000000000000000 ) ) ;
#84 = CARTESIAN_POINT ( 'NONE',  ( 0.000000000000000000, 180.0000000000000000, 0.000000000000000000 ) ) ;
#85 = CC_DESIGN_SECURITY_CLASSIFICATION ( #107, ( #27 ) ) ;
#86 = CARTESIAN_POINT ( 'NONE',  ( 0.000000000000000000, 0.000000000000000000, -6.000000000000000888 ) ) ;
#87 = CYLINDRICAL_SURFACE ( 'NONE', #14, 6.000000000000000888 ) ;
#88 = ORIENTED_EDGE ( 'NONE', *, *, #99, .T. ) ;
#89 = SHAPE_DEFINITION_REPRESENTATION ( #167, #152 ) ;
#90 = COORDINATED_UNIVERSAL_TIME_OFFSET ( 8, 0, .AHEAD. ) ;
#91 = PRODUCT_DEFINITION ( '未知', '', #27, #102 ) ;
#92 = PERSON_AND_ORGANIZATION_ROLE ( 'creator' ) ;
#93 = MECHANICAL_CONTEXT ( 'NONE', #147, 'mechanical' ) ;
#94 = CLOSED_SHELL ( 'NONE', ( #121, #108, #43, #29 ) ) ;
#95 = ORIENTED_EDGE ( 'NONE', *, *, #56, .T. ) ;
#96 = LOCAL_TIME ( 23, 42, 54.00000000000000000, #76 ) ;
#97 = CARTESIAN_POINT ( 'NONE',  ( 0.000000000000000000, 180.0000000000000000, 0.000000000000000000 ) ) ;
#98 = DIRECTION ( 'NONE',  ( 0.000000000000000000, 0.000000000000000000, 1.000000000000000000 ) ) ;
#99 = EDGE_CURVE ( 'NONE', #4, #2, #161, .T. ) ;
#100 = DIRECTION ( 'NONE',  ( 0.000000000000000000, 0.000000000000000000, 1.000000000000000000 ) ) ;
#101 = PERSON_AND_ORGANIZATION ( #25, #37 ) ;
#102 = DESIGN_CONTEXT ( 'detailed design', #157, 'design' ) ;
#103 = PERSON_AND_ORGANIZATION_ROLE ( 'creator' ) ;
#104 = AXIS2_PLACEMENT_3D ( 'NONE', #22, #100, #144 ) ;
#105 = COORDINATED_UNIVERSAL_TIME_OFFSET ( 8, 0, .AHEAD. ) ;
#106 = APPROVAL_STATUS ( 'not_yet_approved' ) ;
#107 = SECURITY_CLASSIFICATION ( '', '', #115 ) ;
#108 = ADVANCED_FACE ( 'NONE', ( #49 ), #87, .T. ) ;
#109 = CARTESIAN_POINT ( 'NONE',  ( 0.000000000000000000, 0.000000000000000000, 0.000000000000000000 ) ) ;
#110 = MANIFOLD_SOLID_BREP ( '凸台-拉伸1', #94 ) ;
#111 = CARTESIAN_POINT ( 'NONE',  ( 0.000000000000000000, 180.0000000000000000, -6.000000000000000888 ) ) ;
#112 = EDGE_LOOP ( 'NONE', ( #16, #174, #69, #75 ) ) ;
#113 = VERTEX_POINT ( 'NONE', #32 ) ;
#114 = DIRECTION ( 'NONE',  ( 0.000000000000000000, 1.000000000000000000, 0.000000000000000000 ) ) ;
#115 = SECURITY_CLASSIFICATION_LEVEL ( 'unclassified' ) ;
#116 = CALENDAR_DATE ( 2026, 26, 7 ) ;
#117 = CIRCLE ( 'NONE', #44, 6.000000000000000888 ) ;
#118 = APPROVAL_DATE_TIME ( #65, #151 ) ;
#119 = APPROVAL_ROLE ( '' ) ;
#120 = LOCAL_TIME ( 23, 42, 54.00000000000000000, #131 ) ;
#121 = ADVANCED_FACE ( 'NONE', ( #124 ), #1, .T. ) ;
#122 = VECTOR ( 'NONE', #63, 1000.000000000000000 ) ;
#123 = CARTESIAN_POINT ( 'NONE',  ( 0.000000000000000000, 180.0000000000000000, 0.000000000000000000 ) ) ;
#124 = FACE_OUTER_BOUND ( 'NONE', #112, .T. ) ;
#125 = EDGE_LOOP ( 'NONE', ( #50, #95 ) ) ;
#126 =( LENGTH_UNIT ( ) NAMED_UNIT ( * ) SI_UNIT ( .MILLI., .METRE. ) );
#127 = CARTESIAN_POINT ( 'NONE',  ( 7.347880794884119736E-16, 180.0000000000000000, 6.000000000000000888 ) ) ;
#128 = COORDINATED_UNIVERSAL_TIME_OFFSET ( 8, 0, .AHEAD. ) ;
#129 = LOCAL_TIME ( 23, 42, 54.00000000000000000, #105 ) ;
#130 = APPLICATION_PROTOCOL_DEFINITION ( 'international standard', 'config_control_design', 1994, #147 ) ;
#131 = COORDINATED_UNIVERSAL_TIME_OFFSET ( 8, 0, .AHEAD. ) ;
#132 = CALENDAR_DATE ( 2026, 26, 7 ) ;
#133 = APPROVAL_PERSON_ORGANIZATION ( #166, #45, #119 ) ;
#134 = EDGE_LOOP ( 'NONE', ( #61, #149, #136, #88 ) ) ;
#135 = DIRECTION ( 'NONE',  ( 0.000000000000000000, 1.000000000000000000, 0.000000000000000000 ) ) ;
#136 = ORIENTED_EDGE ( 'NONE', *, *, #39, .T. ) ;
#137 = AXIS2_PLACEMENT_3D ( 'NONE', #70, #83, #35 ) ;
#138 = CC_DESIGN_PERSON_AND_ORGANIZATION_ASSIGNMENT ( #143, #67, ( #107 ) ) ;
#139 = PLANE ( 'NONE',  #171 ) ;
#140 = AXIS2_PLACEMENT_3D ( 'NONE', #72, #162, #153 ) ;
#141 = PERSON_AND_ORGANIZATION ( #25, #37 ) ;
#142 = PERSON_AND_ORGANIZATION ( #25, #37 ) ;
#143 = PERSON_AND_ORGANIZATION ( #25, #37 ) ;
#144 = DIRECTION ( 'NONE',  ( 1.000000000000000000, 0.000000000000000000, 0.000000000000000000 ) ) ;
#145 = EDGE_CURVE ( 'NONE', #2, #4, #159, .T. ) ;
#146 = AXIS2_PLACEMENT_3D ( 'NONE', #36, #165, #47 ) ;
#147 = APPLICATION_CONTEXT ( 'configuration controlled 3d designs of mechanical parts and assemblies' ) ;
#148 = FACE_OUTER_BOUND ( 'NONE', #125, .T. ) ;
#149 = ORIENTED_EDGE ( 'NONE', *, *, #21, .F. ) ;
#150 = LOCAL_TIME ( 23, 42, 54.00000000000000000, #90 ) ;
#151 = APPROVAL ( #8, '未指定' ) ;
#152 = ADVANCED_BREP_SHAPE_REPRESENTATION ( 'FN-ANT-003_xls1-whip-D12x180_PENDING_R0.6', ( #110, #104 ), #53 ) ;
#153 = DIRECTION ( 'NONE',  ( 0.000000000000000000, 0.000000000000000000, 1.000000000000000000 ) ) ;
#154 = DIRECTION ( 'NONE',  ( 0.000000000000000000, -0.000000000000000000, 1.000000000000000000 ) ) ;
#155 = CC_DESIGN_APPROVAL ( #45, ( #91 ) ) ;
#156 =( NAMED_UNIT ( * ) PLANE_ANGLE_UNIT ( ) SI_UNIT ( $, .RADIAN. ) );
#157 = APPLICATION_CONTEXT ( 'configuration controlled 3d designs of mechanical parts and assemblies' ) ;
#158 = PERSON_AND_ORGANIZATION_ROLE ( 'design_supplier' ) ;
#159 = CIRCLE ( 'NONE', #3, 6.000000000000000888 ) ;
#160 = VECTOR ( 'NONE', #59, 1000.000000000000000 ) ;
#161 = CIRCLE ( 'NONE', #81, 6.000000000000000888 ) ;
#162 = DIRECTION ( 'NONE',  ( 0.000000000000000000, 1.000000000000000000, 0.000000000000000000 ) ) ;
#163 = LINE ( 'NONE', #127, #122 ) ;
#164 = DIRECTION ( 'NONE',  ( 0.000000000000000000, 0.000000000000000000, -1.000000000000000000 ) ) ;
#165 = DIRECTION ( 'NONE',  ( -0.000000000000000000, -1.000000000000000000, -0.000000000000000000 ) ) ;
#166 = PERSON_AND_ORGANIZATION ( #25, #37 ) ;
#167 = PRODUCT_DEFINITION_SHAPE ( 'NONE', 'NONE',  #91 ) ;
#168 =( NAMED_UNIT ( * ) SI_UNIT ( $, .STERADIAN. ) SOLID_ANGLE_UNIT ( ) );
#169 = CC_DESIGN_PERSON_AND_ORGANIZATION_ASSIGNMENT ( #52, #103, ( #27 ) ) ;
#170 = DATE_AND_TIME ( #11, #120 ) ;
#171 = AXIS2_PLACEMENT_3D ( 'NONE', #123, #114, #154 ) ;
#172 = CALENDAR_DATE ( 2026, 26, 7 ) ;
#173 = APPROVAL_PERSON_ORGANIZATION ( #28, #31, #38 ) ;
#174 = ORIENTED_EDGE ( 'NONE', *, *, #6, .T. ) ;
#175 = VERTEX_POINT ( 'NONE', #111 ) ;
ENDSEC;
END-ISO-10303-21;
