ISO-10303-21;
HEADER;
FILE_DESCRIPTION (( 'STEP AP203' ),
    '1' );
FILE_NAME ('FN-BRK-004_solar-left-lower-strut_D14_CONCEPT_R0.6.STEP',
    '2026-07-26T15:46:32',
    ( '' ),
    ( '' ),
    'SwSTEP 2.0',
    'SolidWorks 2022',
    '' );
FILE_SCHEMA (( 'CONFIG_CONTROL_DESIGN' ));
ENDSEC;

DATA;
#1 = CARTESIAN_POINT ( 'NONE',  ( -7.000000000000000000, 3.309241912952187725, -92.78815321594859711 ) ) ;
#2 = CARTESIAN_POINT ( 'NONE',  ( 7.000000000000000000, 23.85448740271417378, -136.9867491939566833 ) ) ;
#3 = CARTESIAN_POINT ( 'NONE',  ( -7.000000000000000000, 3.309241912952187725, -92.78815321594859711 ) ) ;
#4 = APPROVAL ( #30, '未指定' ) ;
#5 = CARTESIAN_POINT ( 'NONE',  ( 7.000000000000000000, 0.000000000000000000, 0.000000000000000000 ) ) ;
#6 = CARTESIAN_POINT ( 'NONE',  ( 0.000000000000000000, 10.00000000000000000, -139.0000000000000000 ) ) ;
#7 = CARTESIAN_POINT ( 'NONE',  ( 7.000000000000000000, 14.00000000000000000, 0.000000000000000000 ) ) ;
#8 = LOCAL_TIME ( 23, 46, 32.00000000000000000, #68 ) ;
#9 = AXIS2_PLACEMENT_3D ( 'NONE', #117, #27, #99 ) ;
#10 = CARTESIAN_POINT ( 'NONE',  ( 7.000000000000000000, -0.02409142019282340536, -46.45481988514683280 ) ) ;
#11 = PRODUCT ( 'FN-BRK-004_solar-left-lower-strut_D14_CONCEPT_R0.6', 'FN-BRK-004_solar-left-lower-strut_D14_CONCEPT_R0.6', '', ( #15 ) ) ;
#12 = COORDINATED_UNIVERSAL_TIME_OFFSET ( 8, 0, .AHEAD. ) ;
#13 = CARTESIAN_POINT ( 'NONE',  ( -7.000000000000002665, -3.854487402714176447, -141.0132508060433167 ) ) ;
#14 = DATE_AND_TIME ( #48, #188 ) ;
#15 = MECHANICAL_CONTEXT ( 'NONE', #182, 'mechanical' ) ;
#16 = APPROVAL_ROLE ( '' ) ;
#17 = SECURITY_CLASSIFICATION_LEVEL ( 'unclassified' ) ;
#18 = CARTESIAN_POINT ( 'NONE',  ( 0.000000000000000000, 0.000000000000000000, 0.000000000000000000 ) ) ;
#19 = VERTEX_POINT ( 'NONE', #55 ) ;
#20 = PRODUCT_DEFINITION ( '未知', '', #122, #31 ) ;
#21 = VERTEX_POINT ( 'NONE', #159 ) ;
#22 = FACE_OUTER_BOUND ( 'NONE', #106, .T. ) ;
#23 = CARTESIAN_POINT ( 'NONE',  ( -7.000000000000002665, -14.00000000000000000, 0.000000000000000000 ) ) ;
#24 = CARTESIAN_POINT ( 'NONE',  ( -7.000000000000002665, -3.854487402714176447, -141.0132508060433167 ) ) ;
#25 = CARTESIAN_POINT ( 'NONE',  ( 7.000000000000000000, -0.02409142019282340536, -46.45481988514683280 ) ) ;
#26 = CARTESIAN_POINT ( 'NONE',  ( -7.000000000000000000, 3.309241912952187725, -92.78815321594859711 ) ) ;
#27 = DIRECTION ( 'NONE',  ( 0.000000000000000000, 0.000000000000000000, 1.000000000000000000 ) ) ;
#28 = APPROVAL_DATE_TIME ( #104, #86 ) ;
#29 = PERSON_AND_ORGANIZATION ( #128, #107 ) ;
#30 = APPROVAL_STATUS ( 'not_yet_approved' ) ;
#31 = DESIGN_CONTEXT ( 'detailed design', #81, 'design' ) ;
#32 = CC_DESIGN_PERSON_AND_ORGANIZATION_ASSIGNMENT ( #62, #206, ( #122 ) ) ;
#33 = ORIENTED_EDGE ( 'NONE', *, *, #94, .F. ) ;
#34 = CARTESIAN_POINT ( 'NONE',  ( 7.000000000000000000, 0.000000000000000000, 0.000000000000000000 ) ) ;
#35 = CC_DESIGN_DATE_AND_TIME_ASSIGNMENT ( #141, #207, ( #45 ) ) ;
#36 =( BOUNDED_SURFACE ( )  B_SPLINE_SURFACE ( 3, 3, (
 ( #34, #71, #111, #176 ),
 ( #127, #177, #195, #2 ),
 ( #89, #160, #88, #108 ),
 ( #69, #161, #3, #143 ),
 ( #23, #90, #170, #13 ),
 ( #75, #59, #154, #151 ),
 ( #57, #25, #132, #167 ) ),
 .UNSPECIFIED., .T., .F., .F. )
 B_SPLINE_SURFACE_WITH_KNOTS ( ( 4, 3, 4 ),
 ( 4, 4 ),
 ( 0.000000000000000000, 0.5000000000000000000, 1.000000000000000000 ),
 ( 0.000000000000000000, 1.000000000000000000 ),
 .UNSPECIFIED. )
 GEOMETRIC_REPRESENTATION_ITEM ( )  RATIONAL_B_SPLINE_SURFACE ( (
 ( 1.000000000000000000, 1.000000000000000000, 1.000000000000000000, 1.000000000000000000),
 ( 0.3333333333333333703, 0.3333333333333333703, 0.3333333333333333703, 0.3333333333333333703),
 ( 0.3333333333333333703, 0.3333333333333333703, 0.3333333333333333703, 0.3333333333333333703),
 ( 1.000000000000000000, 1.000000000000000000, 1.000000000000000000, 1.000000000000000000),
 ( 0.3333333333333333703, 0.3333333333333333703, 0.3333333333333333703, 0.3333333333333333703),
 ( 0.3333333333333333703, 0.3333333333333333703, 0.3333333333333333703, 0.3333333333333333703),
 ( 1.000000000000000000, 1.000000000000000000, 1.000000000000000000, 1.000000000000000000) ) )
 REPRESENTATION_ITEM ( '' )  SURFACE ( )  );
#37 = EDGE_LOOP ( 'NONE', ( #193, #147 ) ) ;
#38 = ORIENTED_EDGE ( 'NONE', *, *, #222, .F. ) ;
#39 = FACE_OUTER_BOUND ( 'NONE', #70, .T. ) ;
#40 =( GEOMETRIC_REPRESENTATION_CONTEXT ( 3 ) GLOBAL_UNCERTAINTY_ASSIGNED_CONTEXT ( ( #145 ) ) GLOBAL_UNIT_ASSIGNED_CONTEXT ( ( #100, #186, #142 ) ) REPRESENTATION_CONTEXT ( 'NONE', 'WORKASPACE' ) );
#41 = CARTESIAN_POINT ( 'NONE',  ( 7.000000000000000000, 17.25973989358837102, -91.43561359973135438 ) ) ;
#42 = CC_DESIGN_DATE_AND_TIME_ASSIGNMENT ( #138, #66, ( #20 ) ) ;
#43 = CARTESIAN_POINT ( 'NONE',  ( -7.000000000000000000, 10.00000000000000000, -139.0000000000000000 ) ) ;
#44 = PLANE ( 'NONE',  #9 ) ;
#45 = SECURITY_CLASSIFICATION ( '', '', #17 ) ;
#46 = CARTESIAN_POINT ( 'NONE',  ( -7.000000000000002665, -14.02409142003165066, -47.12935415285387108 ) ) ;
#47 = CALENDAR_DATE ( 2026, 26, 7 ) ;
#48 = CALENDAR_DATE ( 2026, 26, 7 ) ;
#49 = PERSON_AND_ORGANIZATION ( #128, #107 ) ;
#50 = ADVANCED_FACE ( 'NONE', ( #146 ), #123, .F. ) ;
#51 = COORDINATED_UNIVERSAL_TIME_OFFSET ( 8, 0, .AHEAD. ) ;
#52 = APPROVAL_PERSON_ORGANIZATION ( #174, #86, #16 ) ;
#53 = EDGE_LOOP ( 'NONE', ( #197, #212 ) ) ;
#54 = ORIENTED_EDGE ( 'NONE', *, *, #165, .F. ) ;
#55 = CARTESIAN_POINT ( 'NONE',  ( 7.000000000000000000, 0.000000000000000000, 0.000000000000000000 ) ) ;
#56 = CC_DESIGN_APPROVAL ( #205, ( #20 ) ) ;
#57 = CARTESIAN_POINT ( 'NONE',  ( 7.000000000000000000, 0.000000000000000000, 0.000000000000000000 ) ) ;
#58 = DIRECTION ( 'NONE',  ( 0.000000000000000000, -0.1438036290030939579, 0.9896062430510130792 ) ) ;
#59 = CARTESIAN_POINT ( 'NONE',  ( 7.000000000000000000, -14.02409142003165066, -47.12935415285387108 ) ) ;
#60 = CARTESIAN_POINT ( 'NONE',  ( 7.000000000000000000, -0.02409142019282340536, -46.45481988514683280 ) ) ;
#61 = CARTESIAN_POINT ( 'NONE',  ( -7.000000000000000000, 10.00000000000000000, -139.0000000000000000 ) ) ;
#62 = PERSON_AND_ORGANIZATION ( #128, #107 ) ;
#63 = DIRECTION ( 'NONE',  ( 0.000000000000000000, 0.000000000000000000, 1.000000000000000000 ) ) ;
#64 = CALENDAR_DATE ( 2026, 26, 7 ) ;
#65 = AXIS2_PLACEMENT_3D ( 'NONE', #125, #130, #194 ) ;
#66 = DATE_TIME_ROLE ( 'creation_date' ) ;
#67 = CIRCLE ( 'NONE', #98, 7.000000000000000000 ) ;
#68 = COORDINATED_UNIVERSAL_TIME_OFFSET ( 8, 0, .AHEAD. ) ;
#69 = CARTESIAN_POINT ( 'NONE',  ( -7.000000000000000000, 8.572527594031473190E-16, 0.000000000000000000 ) ) ;
#70 = EDGE_LOOP ( 'NONE', ( #38, #54, #112, #163 ) ) ;
#71 = CARTESIAN_POINT ( 'NONE',  ( 7.000000000000000000, -0.02409142019282340536, -46.45481988514683280 ) ) ;
#72 = ORIENTED_EDGE ( 'NONE', *, *, #222, .T. ) ;
#73 = CARTESIAN_POINT ( 'NONE',  ( 7.000000000000000000, 0.000000000000000000, 0.000000000000000000 ) ) ;
#74 = ADVANCED_FACE ( 'NONE', ( #22 ), #36, .F. ) ;
#75 = CARTESIAN_POINT ( 'NONE',  ( 7.000000000000000000, -14.00000000000000000, 0.000000000000000000 ) ) ;
#76 = CARTESIAN_POINT ( 'NONE',  ( 7.000000000000000000, -3.854487402714176447, -141.0132508060433167 ) ) ;
#77 = CLOSED_SHELL ( 'NONE', ( #74, #139, #50, #214 ) ) ;
#78 = DIRECTION ( 'NONE',  ( 0.000000000000000000, 0.000000000000000000, 1.000000000000000000 ) ) ;
#79 = PRODUCT_DEFINITION_SHAPE ( 'NONE', 'NONE',  #20 ) ;
#80 = CARTESIAN_POINT ( 'NONE',  ( -6.999999999999998224, 13.97590857964600275, -45.78028561743978742 ) ) ;
#81 = APPLICATION_CONTEXT ( 'configuration controlled 3d designs of mechanical parts and assemblies' ) ;
#82 = CARTESIAN_POINT ( 'NONE',  ( -7.000000000000000000, 8.572527594031473190E-16, 0.000000000000000000 ) ) ;
#83 = APPROVAL_ROLE ( '' ) ;
#84 = COORDINATED_UNIVERSAL_TIME_OFFSET ( 8, 0, .AHEAD. ) ;
#85 = PERSON_AND_ORGANIZATION_ROLE ( 'classification_officer' ) ;
#86 = APPROVAL ( #140, '未指定' ) ;
#87 = ADVANCED_BREP_SHAPE_REPRESENTATION ( 'FN-BRK-004_solar-left-lower-strut_D14_CONCEPT_R0.6', ( #164, #133 ), #40 ) ;
#88 = CARTESIAN_POINT ( 'NONE',  ( -6.999999999999998224, 17.25973989358837102, -91.43561359973134017 ) ) ;
#89 = CARTESIAN_POINT ( 'NONE',  ( -6.999999999999998224, 14.00000000000000000, 0.000000000000000000 ) ) ;
#90 = CARTESIAN_POINT ( 'NONE',  ( -7.000000000000002665, -14.02409142003165066, -47.12935415285387108 ) ) ;
#91 = CARTESIAN_POINT ( 'NONE',  ( 7.000000000000000000, -14.00000000000000000, 0.000000000000000000 ) ) ;
#92 = CC_DESIGN_SECURITY_CLASSIFICATION ( #45, ( #122 ) ) ;
#93 = CARTESIAN_POINT ( 'NONE',  ( 7.000000000000000000, 3.309241912952187725, -92.78815321594859711 ) ) ;
#94 = EDGE_CURVE ( 'NONE', #19, #21, #178, .T. ) ;
#95 = CARTESIAN_POINT ( 'NONE',  ( 7.000000000000000000, -14.02409142003165066, -47.12935415285387108 ) ) ;
#96 = DIRECTION ( 'NONE',  ( 1.000000000000000000, 0.000000000000000000, 0.000000000000000000 ) ) ;
#97 = AXIS2_PLACEMENT_3D ( 'NONE', #6, #58, #200 ) ;
#98 = AXIS2_PLACEMENT_3D ( 'NONE', #198, #78, #153 ) ;
#99 = DIRECTION ( 'NONE',  ( 1.000000000000000000, 0.000000000000000000, -0.000000000000000000 ) ) ;
#100 =( LENGTH_UNIT ( ) NAMED_UNIT ( * ) SI_UNIT ( .MILLI., .METRE. ) );
#101 = CARTESIAN_POINT ( 'NONE',  ( -7.000000000000000000, 10.00000000000000000, -139.0000000000000000 ) ) ;
#102 = PERSON_AND_ORGANIZATION ( #128, #107 ) ;
#103 = APPROVAL_ROLE ( '' ) ;
#104 = DATE_AND_TIME ( #64, #220 ) ;
#105 = EDGE_CURVE ( 'NONE', #21, #129, #196, .T. ) ;
#106 = EDGE_LOOP ( 'NONE', ( #211, #72, #113, #33 ) ) ;
#107 = ORGANIZATION ( '未指定', '未指定', '' ) ;
#108 = CARTESIAN_POINT ( 'NONE',  ( -6.999999999999998224, 23.85448740271417378, -136.9867491939566833 ) ) ;
#109 = AXIS2_PLACEMENT_3D ( 'NONE', #184, #150, #213 ) ;
#110 =( BOUNDED_SURFACE ( )  B_SPLINE_SURFACE ( 3, 3, (
 ( #168, #10, #115, #171 ),
 ( #7, #199, #41, #183 ),
 ( #202, #80, #181, #135 ),
 ( #218, #180, #26, #61 ),
 ( #136, #46, #179, #24 ),
 ( #91, #95, #217, #76 ),
 ( #5, #60, #93, #152 ) ),
 .UNSPECIFIED., .T., .F., .F. )
 B_SPLINE_SURFACE_WITH_KNOTS ( ( 4, 3, 4 ),
 ( 4, 4 ),
 ( 0.000000000000000000, 0.5000000000000000000, 1.000000000000000000 ),
 ( 0.000000000000000000, 1.000000000000000000 ),
 .UNSPECIFIED. )
 GEOMETRIC_REPRESENTATION_ITEM ( )  RATIONAL_B_SPLINE_SURFACE ( (
 ( 1.000000000000000000, 1.000000000000000000, 1.000000000000000000, 1.000000000000000000),
 ( 0.3333333333333333703, 0.3333333333333333703, 0.3333333333333333703, 0.3333333333333333703),
 ( 0.3333333333333333703, 0.3333333333333333703, 0.3333333333333333703, 0.3333333333333333703),
 ( 1.000000000000000000, 1.000000000000000000, 1.000000000000000000, 1.000000000000000000),
 ( 0.3333333333333333703, 0.3333333333333333703, 0.3333333333333333703, 0.3333333333333333703),
 ( 0.3333333333333333703, 0.3333333333333333703, 0.3333333333333333703, 0.3333333333333333703),
 ( 1.000000000000000000, 1.000000000000000000, 1.000000000000000000, 1.000000000000000000) ) )
 REPRESENTATION_ITEM ( '' )  SURFACE ( )  );
#111 = CARTESIAN_POINT ( 'NONE',  ( 7.000000000000000000, 3.309241912952187725, -92.78815321594859711 ) ) ;
#112 = ORIENTED_EDGE ( 'NONE', *, *, #94, .T. ) ;
#113 = ORIENTED_EDGE ( 'NONE', *, *, #144, .T. ) ;
#114 = FACE_OUTER_BOUND ( 'NONE', #53, .T. ) ;
#115 = CARTESIAN_POINT ( 'NONE',  ( 7.000000000000000000, 3.309241912952187725, -92.78815321594859711 ) ) ;
#116 = CARTESIAN_POINT ( 'NONE',  ( 7.000000000000000000, 3.309241912952187725, -92.78815321594859711 ) ) ;
#117 = CARTESIAN_POINT ( 'NONE',  ( 0.000000000000000000, 0.000000000000000000, 0.000000000000000000 ) ) ;
#118 = SHAPE_DEFINITION_REPRESENTATION ( #79, #87 ) ;
#119 = APPROVAL_DATE_TIME ( #223, #205 ) ;
#120 = APPLICATION_PROTOCOL_DEFINITION ( 'international standard', 'config_control_design', 1994, #182 ) ;
#121 = LOCAL_TIME ( 23, 46, 32.00000000000000000, #224 ) ;
#122 = PRODUCT_DEFINITION_FORMATION_WITH_SPECIFIED_SOURCE ( '任何', '', #11, .NOT_KNOWN. ) ;
#123 = PLANE ( 'NONE',  #65 ) ;
#124 = CC_DESIGN_PERSON_AND_ORGANIZATION_ASSIGNMENT ( #102, #185, ( #20 ) ) ;
#125 = CARTESIAN_POINT ( 'NONE',  ( 0.000000000000000000, 10.00000000000000000, -139.0000000000000000 ) ) ;
#126 = AXIS2_PLACEMENT_3D ( 'NONE', #131, #216, #96 ) ;
#127 = CARTESIAN_POINT ( 'NONE',  ( 7.000000000000000000, 14.00000000000000000, 0.000000000000000000 ) ) ;
#128 = PERSON ( '未指定', '未指定', '未指定', ('未指定'), ('未指定'), ('未指定') ) ;
#129 = VERTEX_POINT ( 'NONE', #43 ) ;
#130 = DIRECTION ( 'NONE',  ( 0.000000000000000000, -0.1438036290030939579, 0.9896062430510129682 ) ) ;
#131 = CARTESIAN_POINT ( 'NONE',  ( 0.000000000000000000, 10.00000000000000000, -139.0000000000000000 ) ) ;
#132 = CARTESIAN_POINT ( 'NONE',  ( 7.000000000000000000, 3.309241912952187725, -92.78815321594859711 ) ) ;
#133 = AXIS2_PLACEMENT_3D ( 'NONE', #18, #63, #156 ) ;
#134 = CARTESIAN_POINT ( 'NONE',  ( 7.000000000000000000, 10.00000000000000000, -139.0000000000000000 ) ) ;
#135 = CARTESIAN_POINT ( 'NONE',  ( -6.999999999999998224, 23.85448740271417378, -136.9867491939566833 ) ) ;
#136 = CARTESIAN_POINT ( 'NONE',  ( -7.000000000000002665, -14.00000000000000000, 0.000000000000000000 ) ) ;
#137 = CC_DESIGN_APPROVAL ( #4, ( #45 ) ) ;
#138 = DATE_AND_TIME ( #172, #173 ) ;
#139 = ADVANCED_FACE ( 'NONE', ( #39 ), #110, .F. ) ;
#140 = APPROVAL_STATUS ( 'not_yet_approved' ) ;
#141 = DATE_AND_TIME ( #47, #121 ) ;
#142 =( NAMED_UNIT ( * ) SI_UNIT ( $, .STERADIAN. ) SOLID_ANGLE_UNIT ( ) );
#143 = CARTESIAN_POINT ( 'NONE',  ( -7.000000000000000000, 10.00000000000000000, -139.0000000000000000 ) ) ;
#144 = EDGE_CURVE ( 'NONE', #129, #21, #225, .T. ) ;
#145 = UNCERTAINTY_MEASURE_WITH_UNIT (LENGTH_MEASURE( 1.000000000000000082E-05 ), #100, 'distance_accuracy_value', 'NONE');
#146 = FACE_OUTER_BOUND ( 'NONE', #37, .T. ) ;
#147 = ORIENTED_EDGE ( 'NONE', *, *, #144, .F. ) ;
#148 = APPROVAL_PERSON_ORGANIZATION ( #29, #205, #103 ) ;
#149 = EDGE_CURVE ( 'NONE', #209, #19, #157, .T. ) ;
#150 = DIRECTION ( 'NONE',  ( 0.000000000000000000, 0.000000000000000000, 1.000000000000000000 ) ) ;
#151 = CARTESIAN_POINT ( 'NONE',  ( 7.000000000000000000, -3.854487402714176447, -141.0132508060433167 ) ) ;
#152 = CARTESIAN_POINT ( 'NONE',  ( 7.000000000000000000, 10.00000000000000000, -139.0000000000000000 ) ) ;
#153 = DIRECTION ( 'NONE',  ( 1.000000000000000000, 0.000000000000000000, 0.000000000000000000 ) ) ;
#154 = CARTESIAN_POINT ( 'NONE',  ( 7.000000000000000000, -10.64125606768399912, -94.14069283216583983 ) ) ;
#155 = CARTESIAN_POINT ( 'NONE',  ( -7.000000000000000000, -0.02409142019282254840, -46.45481988514683280 ) ) ;
#156 = DIRECTION ( 'NONE',  ( 1.000000000000000000, 0.000000000000000000, 0.000000000000000000 ) ) ;
#157 = CIRCLE ( 'NONE', #109, 7.000000000000000000 ) ;
#158 = APPROVAL_STATUS ( 'not_yet_approved' ) ;
#159 = CARTESIAN_POINT ( 'NONE',  ( 7.000000000000000000, 10.00000000000000000, -139.0000000000000000 ) ) ;
#160 = CARTESIAN_POINT ( 'NONE',  ( -6.999999999999998224, 13.97590857964600275, -45.78028561743978742 ) ) ;
#161 = CARTESIAN_POINT ( 'NONE',  ( -7.000000000000000000, -0.02409142019282254840, -46.45481988514683280 ) ) ;
#162 = CC_DESIGN_PERSON_AND_ORGANIZATION_ASSIGNMENT ( #203, #85, ( #45 ) ) ;
#163 = ORIENTED_EDGE ( 'NONE', *, *, #105, .T. ) ;
#164 = MANIFOLD_SOLID_BREP ( '扫描1', #77 ) ;
#165 = EDGE_CURVE ( 'NONE', #19, #209, #67, .T. ) ;
#166 = APPROVAL_PERSON_ORGANIZATION ( #191, #4, #83 ) ;
#167 = CARTESIAN_POINT ( 'NONE',  ( 7.000000000000000000, 10.00000000000000000, -139.0000000000000000 ) ) ;
#168 = CARTESIAN_POINT ( 'NONE',  ( 7.000000000000000000, 0.000000000000000000, 0.000000000000000000 ) ) ;
#169 = CC_DESIGN_PERSON_AND_ORGANIZATION_ASSIGNMENT ( #189, #187, ( #11 ) ) ;
#170 = CARTESIAN_POINT ( 'NONE',  ( -7.000000000000002665, -10.64125606768400090, -94.14069283216583983 ) ) ;
#171 = CARTESIAN_POINT ( 'NONE',  ( 7.000000000000000000, 10.00000000000000000, -139.0000000000000000 ) ) ;
#172 = CALENDAR_DATE ( 2026, 26, 7 ) ;
#173 = LOCAL_TIME ( 23, 46, 32.00000000000000000, #51 ) ;
#174 = PERSON_AND_ORGANIZATION ( #128, #107 ) ;
#175 = PERSON_AND_ORGANIZATION_ROLE ( 'design_supplier' ) ;
#176 = CARTESIAN_POINT ( 'NONE',  ( 7.000000000000000000, 10.00000000000000000, -139.0000000000000000 ) ) ;
#177 = CARTESIAN_POINT ( 'NONE',  ( 7.000000000000000000, 13.97590857964600275, -45.78028561743978742 ) ) ;
#178 = B_SPLINE_CURVE_WITH_KNOTS ( 'NONE', 3,
 ( #73, #215, #116, #134 ),
 .UNSPECIFIED., .F., .F.,
 ( 4, 4 ),
 ( 0.000000000000000000, 1.000000000000000000 ),
 .UNSPECIFIED. ) ;
#179 = CARTESIAN_POINT ( 'NONE',  ( -7.000000000000002665, -10.64125606768400090, -94.14069283216583983 ) ) ;
#180 = CARTESIAN_POINT ( 'NONE',  ( -7.000000000000000000, -0.02409142019282254840, -46.45481988514683280 ) ) ;
#181 = CARTESIAN_POINT ( 'NONE',  ( -6.999999999999998224, 17.25973989358837102, -91.43561359973134017 ) ) ;
#182 = APPLICATION_CONTEXT ( 'configuration controlled 3d designs of mechanical parts and assemblies' ) ;
#183 = CARTESIAN_POINT ( 'NONE',  ( 7.000000000000000000, 23.85448740271417378, -136.9867491939566833 ) ) ;
#184 = CARTESIAN_POINT ( 'NONE',  ( 0.000000000000000000, 0.000000000000000000, 0.000000000000000000 ) ) ;
#185 = PERSON_AND_ORGANIZATION_ROLE ( 'creator' ) ;
#186 =( NAMED_UNIT ( * ) PLANE_ANGLE_UNIT ( ) SI_UNIT ( $, .RADIAN. ) );
#187 = PERSON_AND_ORGANIZATION_ROLE ( 'design_owner' ) ;
#188 = LOCAL_TIME ( 23, 46, 32.00000000000000000, #12 ) ;
#189 = PERSON_AND_ORGANIZATION ( #128, #107 ) ;
#190 = B_SPLINE_CURVE_WITH_KNOTS ( 'NONE', 3,
 ( #82, #155, #1, #101 ),
 .UNSPECIFIED., .F., .F.,
 ( 4, 4 ),
 ( 0.000000000000000000, 1.000000000000000000 ),
 .UNSPECIFIED. ) ;
#191 = PERSON_AND_ORGANIZATION ( #128, #107 ) ;
#192 = CC_DESIGN_APPROVAL ( #86, ( #122 ) ) ;
#193 = ORIENTED_EDGE ( 'NONE', *, *, #105, .F. ) ;
#194 = DIRECTION ( 'NONE',  ( 1.000000000000000000, 0.000000000000000000, 0.000000000000000000 ) ) ;
#195 = CARTESIAN_POINT ( 'NONE',  ( 7.000000000000000000, 17.25973989358837102, -91.43561359973135438 ) ) ;
#196 = CIRCLE ( 'NONE', #97, 7.000000000000000000 ) ;
#197 = ORIENTED_EDGE ( 'NONE', *, *, #165, .T. ) ;
#198 = CARTESIAN_POINT ( 'NONE',  ( 0.000000000000000000, 0.000000000000000000, 0.000000000000000000 ) ) ;
#199 = CARTESIAN_POINT ( 'NONE',  ( 7.000000000000000000, 13.97590857964600275, -45.78028561743978742 ) ) ;
#200 = DIRECTION ( 'NONE',  ( 1.000000000000000000, 0.000000000000000000, 0.000000000000000000 ) ) ;
#201 = CARTESIAN_POINT ( 'NONE',  ( -7.000000000000000000, 8.572527594031473190E-16, 0.000000000000000000 ) ) ;
#202 = CARTESIAN_POINT ( 'NONE',  ( -6.999999999999998224, 14.00000000000000000, 0.000000000000000000 ) ) ;
#203 = PERSON_AND_ORGANIZATION ( #128, #107 ) ;
#204 = APPROVAL_DATE_TIME ( #14, #4 ) ;
#205 = APPROVAL ( #158, '未指定' ) ;
#206 = PERSON_AND_ORGANIZATION_ROLE ( 'creator' ) ;
#207 = DATE_TIME_ROLE ( 'classification_date' ) ;
#208 = CALENDAR_DATE ( 2026, 26, 7 ) ;
#209 = VERTEX_POINT ( 'NONE', #201 ) ;
#210 = PRODUCT_RELATED_PRODUCT_CATEGORY ( 'detail', '', ( #11 ) ) ;
#211 = ORIENTED_EDGE ( 'NONE', *, *, #149, .F. ) ;
#212 = ORIENTED_EDGE ( 'NONE', *, *, #149, .T. ) ;
#213 = DIRECTION ( 'NONE',  ( 1.000000000000000000, 0.000000000000000000, 0.000000000000000000 ) ) ;
#214 = ADVANCED_FACE ( 'NONE', ( #114 ), #44, .T. ) ;
#215 = CARTESIAN_POINT ( 'NONE',  ( 7.000000000000000000, -0.02409142019282340536, -46.45481988514683280 ) ) ;
#216 = DIRECTION ( 'NONE',  ( 0.000000000000000000, -0.1438036290030939579, 0.9896062430510130792 ) ) ;
#217 = CARTESIAN_POINT ( 'NONE',  ( 7.000000000000000000, -10.64125606768399912, -94.14069283216583983 ) ) ;
#218 = CARTESIAN_POINT ( 'NONE',  ( -7.000000000000000000, 8.572527594031473190E-16, 0.000000000000000000 ) ) ;
#219 = CC_DESIGN_PERSON_AND_ORGANIZATION_ASSIGNMENT ( #49, #175, ( #122 ) ) ;
#220 = LOCAL_TIME ( 23, 46, 32.00000000000000000, #84 ) ;
#221 = APPLICATION_PROTOCOL_DEFINITION ( 'international standard', 'config_control_design', 1994, #81 ) ;
#222 = EDGE_CURVE ( 'NONE', #209, #129, #190, .T. ) ;
#223 = DATE_AND_TIME ( #208, #8 ) ;
#224 = COORDINATED_UNIVERSAL_TIME_OFFSET ( 8, 0, .AHEAD. ) ;
#225 = CIRCLE ( 'NONE', #126, 7.000000000000000000 ) ;
ENDSEC;
END-ISO-10303-21;
