ISO-10303-21;
HEADER;
FILE_DESCRIPTION (( 'STEP AP203' ),
    '1' );
FILE_NAME ('FN-BRK-005_solar-right-lower-strut_D14_CONCEPT_R0.6.STEP',
    '2026-07-26T15:46:36',
    ( '' ),
    ( '' ),
    'SwSTEP 2.0',
    'SolidWorks 2022',
    '' );
FILE_SCHEMA (( 'CONFIG_CONTROL_DESIGN' ));
ENDSEC;

DATA;
#1 = APPROVAL_DATE_TIME ( #90, #136 ) ;
#2 = LOCAL_TIME ( 23, 46, 36.00000000000000000, #171 ) ;
#3 = DATE_AND_TIME ( #79, #167 ) ;
#4 = ORIENTED_EDGE ( 'NONE', *, *, #141, .F. ) ;
#5 = CARTESIAN_POINT ( 'NONE',  ( -7.000000000000002665, -10.64125606768400090, -94.14069283216583983 ) ) ;
#6 = APPROVAL_STATUS ( 'not_yet_approved' ) ;
#7 = ORIENTED_EDGE ( 'NONE', *, *, #173, .F. ) ;
#8 = APPROVAL_ROLE ( '' ) ;
#9 = CARTESIAN_POINT ( 'NONE',  ( 7.000000000000000000, 14.00000000000000000, 0.000000000000000000 ) ) ;
#10 = CARTESIAN_POINT ( 'NONE',  ( 7.000000000000000000, -14.02409142003165066, -47.12935415285387108 ) ) ;
#11 = CARTESIAN_POINT ( 'NONE',  ( 7.000000000000000000, -0.02409142019282340536, -46.45481988514683280 ) ) ;
#12 = CARTESIAN_POINT ( 'NONE',  ( 7.000000000000000000, 10.00000000000000000, -139.0000000000000000 ) ) ;
#13 = CARTESIAN_POINT ( 'NONE',  ( 7.000000000000000000, 13.97590857964600275, -45.78028561743978742 ) ) ;
#14 = APPROVAL ( #87, '未指定' ) ;
#15 = PERSON_AND_ORGANIZATION ( #196, #177 ) ;
#16 = APPROVAL_ROLE ( '' ) ;
#17 = PRODUCT ( 'FN-BRK-005_solar-right-lower-strut_D14_CONCEPT_R0.6', 'FN-BRK-005_solar-right-lower-strut_D14_CONCEPT_R0.6', '', ( #206 ) ) ;
#18 = CALENDAR_DATE ( 2026, 26, 7 ) ;
#19 = PERSON_AND_ORGANIZATION ( #196, #177 ) ;
#20 = ADVANCED_FACE ( 'NONE', ( #190 ), #194, .T. ) ;
#21 = CC_DESIGN_DATE_AND_TIME_ASSIGNMENT ( #89, #157, ( #191 ) ) ;
#22 = CARTESIAN_POINT ( 'NONE',  ( -6.999999999999998224, 17.25973989358837102, -91.43561359973134017 ) ) ;
#23 = FACE_OUTER_BOUND ( 'NONE', #111, .T. ) ;
#24 = ORIENTED_EDGE ( 'NONE', *, *, #78, .T. ) ;
#25 = CARTESIAN_POINT ( 'NONE',  ( -6.999999999999998224, 14.00000000000000000, 0.000000000000000000 ) ) ;
#26 = CARTESIAN_POINT ( 'NONE',  ( -7.000000000000000000, 8.572527594031473190E-16, 0.000000000000000000 ) ) ;
#27 = ADVANCED_FACE ( 'NONE', ( #23 ), #118, .F. ) ;
#28 = CARTESIAN_POINT ( 'NONE',  ( 7.000000000000000000, 23.85448740271417378, -136.9867491939566833 ) ) ;
#29 = CARTESIAN_POINT ( 'NONE',  ( 7.000000000000000000, 14.00000000000000000, 0.000000000000000000 ) ) ;
#30 = PERSON_AND_ORGANIZATION ( #196, #177 ) ;
#31 = APPLICATION_PROTOCOL_DEFINITION ( 'international standard', 'config_control_design', 1994, #85 ) ;
#32 = CIRCLE ( 'NONE', #75, 7.000000000000000000 ) ;
#33 = PERSON_AND_ORGANIZATION_ROLE ( 'design_owner' ) ;
#34 = ORIENTED_EDGE ( 'NONE', *, *, #116, .F. ) ;
#35 = CC_DESIGN_APPROVAL ( #136, ( #191 ) ) ;
#36 = DIRECTION ( 'NONE',  ( 1.000000000000000000, 0.000000000000000000, -0.000000000000000000 ) ) ;
#37 = CARTESIAN_POINT ( 'NONE',  ( 7.000000000000000000, -0.02409142019282340536, -46.45481988514683280 ) ) ;
#38 = CARTESIAN_POINT ( 'NONE',  ( 0.000000000000000000, 0.000000000000000000, 0.000000000000000000 ) ) ;
#39 = DATE_TIME_ROLE ( 'classification_date' ) ;
#40 = EDGE_LOOP ( 'NONE', ( #24, #51 ) ) ;
#41 = CARTESIAN_POINT ( 'NONE',  ( -7.000000000000000000, -0.02409142019282254840, -46.45481988514683280 ) ) ;
#42 = CARTESIAN_POINT ( 'NONE',  ( 7.000000000000000000, -0.02409142019282340536, -46.45481988514683280 ) ) ;
#43 = AXIS2_PLACEMENT_3D ( 'NONE', #129, #216, #80 ) ;
#44 = CARTESIAN_POINT ( 'NONE',  ( -7.000000000000000000, 3.309241912952187725, -92.78815321594859711 ) ) ;
#45 = CARTESIAN_POINT ( 'NONE',  ( -7.000000000000000000, 8.572527594031473190E-16, 0.000000000000000000 ) ) ;
#46 = CARTESIAN_POINT ( 'NONE',  ( 0.000000000000000000, 10.00000000000000000, -139.0000000000000000 ) ) ;
#47 = CARTESIAN_POINT ( 'NONE',  ( 7.000000000000000000, 10.00000000000000000, -139.0000000000000000 ) ) ;
#48 = PERSON_AND_ORGANIZATION ( #196, #177 ) ;
#49 = SECURITY_CLASSIFICATION ( '', '', #139 ) ;
#50 = PERSON_AND_ORGANIZATION_ROLE ( 'creator' ) ;
#51 = ORIENTED_EDGE ( 'NONE', *, *, #116, .T. ) ;
#52 = DIRECTION ( 'NONE',  ( 1.000000000000000000, 0.000000000000000000, 0.000000000000000000 ) ) ;
#53 = CARTESIAN_POINT ( 'NONE',  ( 7.000000000000000000, -10.64125606768399912, -94.14069283216583983 ) ) ;
#54 = VERTEX_POINT ( 'NONE', #217 ) ;
#55 = DIRECTION ( 'NONE',  ( 0.000000000000000000, -0.1438036290030939579, 0.9896062430510130792 ) ) ;
#56 = ORIENTED_EDGE ( 'NONE', *, *, #78, .F. ) ;
#57 = CARTESIAN_POINT ( 'NONE',  ( -6.999999999999998224, 23.85448740271417378, -136.9867491939566833 ) ) ;
#58 = CC_DESIGN_DATE_AND_TIME_ASSIGNMENT ( #146, #39, ( #49 ) ) ;
#59 = CC_DESIGN_PERSON_AND_ORGANIZATION_ASSIGNMENT ( #19, #101, ( #191 ) ) ;
#60 = CARTESIAN_POINT ( 'NONE',  ( 7.000000000000000000, 0.000000000000000000, 0.000000000000000000 ) ) ;
#61 = LOCAL_TIME ( 23, 46, 36.00000000000000000, #172 ) ;
#62 = CARTESIAN_POINT ( 'NONE',  ( -7.000000000000000000, 10.00000000000000000, -139.0000000000000000 ) ) ;
#63 = CARTESIAN_POINT ( 'NONE',  ( -7.000000000000000000, 10.00000000000000000, -139.0000000000000000 ) ) ;
#64 = PERSON_AND_ORGANIZATION_ROLE ( 'design_supplier' ) ;
#65 = ADVANCED_FACE ( 'NONE', ( #107 ), #132, .F. ) ;
#66 =( BOUNDED_SURFACE ( )  B_SPLINE_SURFACE ( 3, 3, (
 ( #138, #200, #137, #82 ),
 ( #29, #13, #135, #28 ),
 ( #186, #222, #168, #57 ),
 ( #45, #99, #151, #63 ),
 ( #86, #201, #84, #119 ),
 ( #187, #10, #169, #185 ),
 ( #218, #11, #197, #47 ) ),
 .UNSPECIFIED., .T., .F., .F. )
 B_SPLINE_SURFACE_WITH_KNOTS ( ( 4, 3, 4 ),
 ( 4, 4 ),
 ( 0.000000000000000000, 0.5000000000000000000, 1.000000000000000000 ),
 ( 0.000000000000000000, 1.000000000000000000 ),
 .UNSPECIFIED. )
 GEOMETRIC_REPRESENTATION_ITEM ( )  RATIONAL_B_SPLINE_SURFACE ( (
 ( 1.000000000000000000, 1.000000000000000000, 1.000000000000000000, 1.000000000000000000),
 ( 0.3333333333333333703, 0.3333333333333333703, 0.3333333333333333703, 0.3333333333333333703),
 ( 0.3333333333333333703, 0.3333333333333333703, 0.3333333333333333703, 0.3333333333333333703),
 ( 1.000000000000000000, 1.000000000000000000, 1.000000000000000000, 1.000000000000000000),
 ( 0.3333333333333333703, 0.3333333333333333703, 0.3333333333333333703, 0.3333333333333333703),
 ( 0.3333333333333333703, 0.3333333333333333703, 0.3333333333333333703, 0.3333333333333333703),
 ( 1.000000000000000000, 1.000000000000000000, 1.000000000000000000, 1.000000000000000000) ) )
 REPRESENTATION_ITEM ( '' )  SURFACE ( )  );
#67 = APPLICATION_PROTOCOL_DEFINITION ( 'international standard', 'config_control_design', 1994, #134 ) ;
#68 = DATE_AND_TIME ( #158, #113 ) ;
#69 = AXIS2_PLACEMENT_3D ( 'NONE', #130, #77, #96 ) ;
#70 = LOCAL_TIME ( 23, 46, 36.00000000000000000, #160 ) ;
#71 = UNCERTAINTY_MEASURE_WITH_UNIT (LENGTH_MEASURE( 1.000000000000000082E-05 ), #97, 'distance_accuracy_value', 'NONE');
#72 = B_SPLINE_CURVE_WITH_KNOTS ( 'NONE', 3,
 ( #202, #42, #219, #115 ),
 .UNSPECIFIED., .F., .F.,
 ( 4, 4 ),
 ( 0.000000000000000000, 1.000000000000000000 ),
 .UNSPECIFIED. ) ;
#73 = CARTESIAN_POINT ( 'NONE',  ( -7.000000000000000000, 3.309241912952187725, -92.78815321594859711 ) ) ;
#74 = CARTESIAN_POINT ( 'NONE',  ( -7.000000000000000000, 10.00000000000000000, -139.0000000000000000 ) ) ;
#75 = AXIS2_PLACEMENT_3D ( 'NONE', #166, #55, #52 ) ;
#76 = COORDINATED_UNIVERSAL_TIME_OFFSET ( 8, 0, .AHEAD. ) ;
#77 = DIRECTION ( 'NONE',  ( 0.000000000000000000, -0.1438036290030939579, 0.9896062430510129682 ) ) ;
#78 = EDGE_CURVE ( 'NONE', #147, #164, #156, .T. ) ;
#79 = CALENDAR_DATE ( 2026, 26, 7 ) ;
#80 = DIRECTION ( 'NONE',  ( 1.000000000000000000, 0.000000000000000000, 0.000000000000000000 ) ) ;
#81 = CARTESIAN_POINT ( 'NONE',  ( 7.000000000000000000, -14.00000000000000000, 0.000000000000000000 ) ) ;
#82 = CARTESIAN_POINT ( 'NONE',  ( 7.000000000000000000, 10.00000000000000000, -139.0000000000000000 ) ) ;
#83 =( NAMED_UNIT ( * ) SI_UNIT ( $, .STERADIAN. ) SOLID_ANGLE_UNIT ( ) );
#84 = CARTESIAN_POINT ( 'NONE',  ( -7.000000000000002665, -10.64125606768400090, -94.14069283216583983 ) ) ;
#85 = APPLICATION_CONTEXT ( 'configuration controlled 3d designs of mechanical parts and assemblies' ) ;
#86 = CARTESIAN_POINT ( 'NONE',  ( -7.000000000000002665, -14.00000000000000000, 0.000000000000000000 ) ) ;
#87 = APPROVAL_STATUS ( 'not_yet_approved' ) ;
#88 = CALENDAR_DATE ( 2026, 26, 7 ) ;
#89 = DATE_AND_TIME ( #18, #61 ) ;
#90 = DATE_AND_TIME ( #88, #2 ) ;
#91 = CARTESIAN_POINT ( 'NONE',  ( 7.000000000000000000, 23.85448740271417378, -136.9867491939566833 ) ) ;
#92 = CARTESIAN_POINT ( 'NONE',  ( 7.000000000000000000, 0.000000000000000000, 0.000000000000000000 ) ) ;
#93 = AXIS2_PLACEMENT_3D ( 'NONE', #46, #98, #154 ) ;
#94 = CARTESIAN_POINT ( 'NONE',  ( -7.000000000000002665, -14.00000000000000000, 0.000000000000000000 ) ) ;
#95 = CARTESIAN_POINT ( 'NONE',  ( -6.999999999999998224, 23.85448740271417378, -136.9867491939566833 ) ) ;
#96 = DIRECTION ( 'NONE',  ( 1.000000000000000000, 0.000000000000000000, 0.000000000000000000 ) ) ;
#97 =( LENGTH_UNIT ( ) NAMED_UNIT ( * ) SI_UNIT ( .MILLI., .METRE. ) );
#98 = DIRECTION ( 'NONE',  ( 0.000000000000000000, -0.1438036290030939579, 0.9896062430510130792 ) ) ;
#99 = CARTESIAN_POINT ( 'NONE',  ( -7.000000000000000000, -0.02409142019282254840, -46.45481988514683280 ) ) ;
#100 = CC_DESIGN_PERSON_AND_ORGANIZATION_ASSIGNMENT ( #215, #105, ( #49 ) ) ;
#101 = PERSON_AND_ORGANIZATION_ROLE ( 'creator' ) ;
#102 = AXIS2_PLACEMENT_3D ( 'NONE', #126, #189, #114 ) ;
#103 = APPROVAL_ROLE ( '' ) ;
#104 = EDGE_LOOP ( 'NONE', ( #7, #162 ) ) ;
#105 = PERSON_AND_ORGANIZATION_ROLE ( 'classification_officer' ) ;
#106 = EDGE_CURVE ( 'NONE', #54, #124, #32, .T. ) ;
#107 = FACE_OUTER_BOUND ( 'NONE', #104, .T. ) ;
#108 = CARTESIAN_POINT ( 'NONE',  ( 7.000000000000000000, 17.25973989358837102, -91.43561359973135438 ) ) ;
#109 = CC_DESIGN_APPROVAL ( #181, ( #49 ) ) ;
#110 = PRODUCT_DEFINITION_FORMATION_WITH_SPECIFIED_SOURCE ( '任何', '', #17, .NOT_KNOWN. ) ;
#111 = EDGE_LOOP ( 'NONE', ( #34, #178, #180, #127 ) ) ;
#112 = CARTESIAN_POINT ( 'NONE',  ( -7.000000000000002665, -14.02409142003165066, -47.12935415285387108 ) ) ;
#113 = LOCAL_TIME ( 23, 46, 36.00000000000000000, #122 ) ;
#114 = DIRECTION ( 'NONE',  ( 1.000000000000000000, 0.000000000000000000, 0.000000000000000000 ) ) ;
#115 = CARTESIAN_POINT ( 'NONE',  ( 7.000000000000000000, 10.00000000000000000, -139.0000000000000000 ) ) ;
#116 = EDGE_CURVE ( 'NONE', #164, #147, #198, .T. ) ;
#117 = ADVANCED_BREP_SHAPE_REPRESENTATION ( 'FN-BRK-005_solar-right-lower-strut_D14_CONCEPT_R0.6', ( #212, #182 ), #150 ) ;
#118 =( BOUNDED_SURFACE ( )  B_SPLINE_SURFACE ( 3, 3, (
 ( #92, #37, #209, #183 ),
 ( #9, #192, #108, #91 ),
 ( #25, #143, #22, #95 ),
 ( #26, #41, #73, #74 ),
 ( #94, #112, #5, #165 ),
 ( #81, #161, #53, #142 ),
 ( #193, #214, #208, #149 ) ),
 .UNSPECIFIED., .T., .F., .T. )
 B_SPLINE_SURFACE_WITH_KNOTS ( ( 4, 3, 4 ),
 ( 4, 4 ),
 ( 0.000000000000000000, 0.5000000000000000000, 1.000000000000000000 ),
 ( 0.000000000000000000, 1.000000000000000000 ),
 .UNSPECIFIED. )
 GEOMETRIC_REPRESENTATION_ITEM ( )  RATIONAL_B_SPLINE_SURFACE ( (
 ( 1.000000000000000000, 1.000000000000000000, 1.000000000000000000, 1.000000000000000000),
 ( 0.3333333333333333703, 0.3333333333333333703, 0.3333333333333333703, 0.3333333333333333703),
 ( 0.3333333333333333703, 0.3333333333333333703, 0.3333333333333333703, 0.3333333333333333703),
 ( 1.000000000000000000, 1.000000000000000000, 1.000000000000000000, 1.000000000000000000),
 ( 0.3333333333333333703, 0.3333333333333333703, 0.3333333333333333703, 0.3333333333333333703),
 ( 0.3333333333333333703, 0.3333333333333333703, 0.3333333333333333703, 0.3333333333333333703),
 ( 1.000000000000000000, 1.000000000000000000, 1.000000000000000000, 1.000000000000000000) ) )
 REPRESENTATION_ITEM ( '' )  SURFACE ( )  );
#119 = CARTESIAN_POINT ( 'NONE',  ( -7.000000000000002665, -3.854487402714176447, -141.0132508060433167 ) ) ;
#120 = CARTESIAN_POINT ( 'NONE',  ( -7.000000000000000000, 8.572527594031473190E-16, 0.000000000000000000 ) ) ;
#121 = APPROVAL_PERSON_ORGANIZATION ( #125, #181, #8 ) ;
#122 = COORDINATED_UNIVERSAL_TIME_OFFSET ( 8, 0, .AHEAD. ) ;
#123 = ORIENTED_EDGE ( 'NONE', *, *, #173, .T. ) ;
#124 = VERTEX_POINT ( 'NONE', #12 ) ;
#125 = PERSON_AND_ORGANIZATION ( #196, #177 ) ;
#126 = CARTESIAN_POINT ( 'NONE',  ( 0.000000000000000000, 0.000000000000000000, 0.000000000000000000 ) ) ;
#127 = ORIENTED_EDGE ( 'NONE', *, *, #152, .F. ) ;
#128 = B_SPLINE_CURVE_WITH_KNOTS ( 'NONE', 3,
 ( #120, #220, #44, #62 ),
 .UNSPECIFIED., .F., .F.,
 ( 4, 4 ),
 ( 0.000000000000000000, 1.000000000000000000 ),
 .UNSPECIFIED. ) ;
#129 = CARTESIAN_POINT ( 'NONE',  ( 0.000000000000000000, 0.000000000000000000, 0.000000000000000000 ) ) ;
#130 = CARTESIAN_POINT ( 'NONE',  ( 0.000000000000000000, 10.00000000000000000, -139.0000000000000000 ) ) ;
#131 = DESIGN_CONTEXT ( 'detailed design', #85, 'design' ) ;
#132 = PLANE ( 'NONE',  #69 ) ;
#133 = CARTESIAN_POINT ( 'NONE',  ( -7.000000000000000000, 8.572527594031473190E-16, 0.000000000000000000 ) ) ;
#134 = APPLICATION_CONTEXT ( 'configuration controlled 3d designs of mechanical parts and assemblies' ) ;
#135 = CARTESIAN_POINT ( 'NONE',  ( 7.000000000000000000, 17.25973989358837102, -91.43561359973135438 ) ) ;
#136 = APPROVAL ( #225, '未指定' ) ;
#137 = CARTESIAN_POINT ( 'NONE',  ( 7.000000000000000000, 3.309241912952187725, -92.78815321594859711 ) ) ;
#138 = CARTESIAN_POINT ( 'NONE',  ( 7.000000000000000000, 0.000000000000000000, 0.000000000000000000 ) ) ;
#139 = SECURITY_CLASSIFICATION_LEVEL ( 'unclassified' ) ;
#140 = APPROVAL_DATE_TIME ( #68, #14 ) ;
#141 = EDGE_CURVE ( 'NONE', #164, #54, #128, .T. ) ;
#142 = CARTESIAN_POINT ( 'NONE',  ( 7.000000000000000000, -3.854487402714176447, -141.0132508060433167 ) ) ;
#143 = CARTESIAN_POINT ( 'NONE',  ( -6.999999999999998224, 13.97590857964600275, -45.78028561743978742 ) ) ;
#144 = AXIS2_PLACEMENT_3D ( 'NONE', #38, #179, #36 ) ;
#145 = EDGE_LOOP ( 'NONE', ( #4, #56, #207, #123 ) ) ;
#146 = DATE_AND_TIME ( #148, #70 ) ;
#147 = VERTEX_POINT ( 'NONE', #60 ) ;
#148 = CALENDAR_DATE ( 2026, 26, 7 ) ;
#149 = CARTESIAN_POINT ( 'NONE',  ( 7.000000000000000000, 10.00000000000000000, -139.0000000000000000 ) ) ;
#150 =( GEOMETRIC_REPRESENTATION_CONTEXT ( 3 ) GLOBAL_UNCERTAINTY_ASSIGNED_CONTEXT ( ( #71 ) ) GLOBAL_UNIT_ASSIGNED_CONTEXT ( ( #97, #184, #83 ) ) REPRESENTATION_CONTEXT ( 'NONE', 'WORKASPACE' ) );
#151 = CARTESIAN_POINT ( 'NONE',  ( -7.000000000000000000, 3.309241912952187725, -92.78815321594859711 ) ) ;
#152 = EDGE_CURVE ( 'NONE', #147, #124, #72, .T. ) ;
#153 = FACE_OUTER_BOUND ( 'NONE', #145, .T. ) ;
#154 = DIRECTION ( 'NONE',  ( 1.000000000000000000, 0.000000000000000000, 0.000000000000000000 ) ) ;
#155 = PERSON_AND_ORGANIZATION ( #196, #177 ) ;
#156 = CIRCLE ( 'NONE', #43, 7.000000000000000000 ) ;
#157 = DATE_TIME_ROLE ( 'creation_date' ) ;
#158 = CALENDAR_DATE ( 2026, 26, 7 ) ;
#159 = ADVANCED_FACE ( 'NONE', ( #153 ), #66, .F. ) ;
#160 = COORDINATED_UNIVERSAL_TIME_OFFSET ( 8, 0, .AHEAD. ) ;
#161 = CARTESIAN_POINT ( 'NONE',  ( 7.000000000000000000, -14.02409142003165066, -47.12935415285387108 ) ) ;
#162 = ORIENTED_EDGE ( 'NONE', *, *, #106, .F. ) ;
#163 = CIRCLE ( 'NONE', #93, 7.000000000000000000 ) ;
#164 = VERTEX_POINT ( 'NONE', #133 ) ;
#165 = CARTESIAN_POINT ( 'NONE',  ( -7.000000000000002665, -3.854487402714176447, -141.0132508060433167 ) ) ;
#166 = CARTESIAN_POINT ( 'NONE',  ( 0.000000000000000000, 10.00000000000000000, -139.0000000000000000 ) ) ;
#167 = LOCAL_TIME ( 23, 46, 36.00000000000000000, #76 ) ;
#168 = CARTESIAN_POINT ( 'NONE',  ( -6.999999999999998224, 17.25973989358837102, -91.43561359973134017 ) ) ;
#169 = CARTESIAN_POINT ( 'NONE',  ( 7.000000000000000000, -10.64125606768399912, -94.14069283216583983 ) ) ;
#170 = CLOSED_SHELL ( 'NONE', ( #27, #159, #65, #20 ) ) ;
#171 = COORDINATED_UNIVERSAL_TIME_OFFSET ( 8, 0, .AHEAD. ) ;
#172 = COORDINATED_UNIVERSAL_TIME_OFFSET ( 8, 0, .AHEAD. ) ;
#173 = EDGE_CURVE ( 'NONE', #124, #54, #163, .T. ) ;
#174 = DIRECTION ( 'NONE',  ( 1.000000000000000000, 0.000000000000000000, 0.000000000000000000 ) ) ;
#175 = APPROVAL_DATE_TIME ( #3, #181 ) ;
#176 = CC_DESIGN_SECURITY_CLASSIFICATION ( #49, ( #110 ) ) ;
#177 = ORGANIZATION ( '未指定', '未指定', '' ) ;
#178 = ORIENTED_EDGE ( 'NONE', *, *, #141, .T. ) ;
#179 = DIRECTION ( 'NONE',  ( 0.000000000000000000, 0.000000000000000000, 1.000000000000000000 ) ) ;
#180 = ORIENTED_EDGE ( 'NONE', *, *, #106, .T. ) ;
#181 = APPROVAL ( #6, '未指定' ) ;
#182 = AXIS2_PLACEMENT_3D ( 'NONE', #221, #188, #174 ) ;
#183 = CARTESIAN_POINT ( 'NONE',  ( 7.000000000000000000, 10.00000000000000000, -139.0000000000000000 ) ) ;
#184 =( NAMED_UNIT ( * ) PLANE_ANGLE_UNIT ( ) SI_UNIT ( $, .RADIAN. ) );
#185 = CARTESIAN_POINT ( 'NONE',  ( 7.000000000000000000, -3.854487402714176447, -141.0132508060433167 ) ) ;
#186 = CARTESIAN_POINT ( 'NONE',  ( -6.999999999999998224, 14.00000000000000000, 0.000000000000000000 ) ) ;
#187 = CARTESIAN_POINT ( 'NONE',  ( 7.000000000000000000, -14.00000000000000000, 0.000000000000000000 ) ) ;
#188 = DIRECTION ( 'NONE',  ( 0.000000000000000000, 0.000000000000000000, 1.000000000000000000 ) ) ;
#189 = DIRECTION ( 'NONE',  ( 0.000000000000000000, 0.000000000000000000, 1.000000000000000000 ) ) ;
#190 = FACE_OUTER_BOUND ( 'NONE', #40, .T. ) ;
#191 = PRODUCT_DEFINITION ( '未知', '', #110, #131 ) ;
#192 = CARTESIAN_POINT ( 'NONE',  ( 7.000000000000000000, 13.97590857964600275, -45.78028561743978742 ) ) ;
#193 = CARTESIAN_POINT ( 'NONE',  ( 7.000000000000000000, 0.000000000000000000, 0.000000000000000000 ) ) ;
#194 = PLANE ( 'NONE',  #144 ) ;
#195 = CC_DESIGN_PERSON_AND_ORGANIZATION_ASSIGNMENT ( #155, #50, ( #110 ) ) ;
#196 = PERSON ( '未指定', '未指定', '未指定', ('未指定'), ('未指定'), ('未指定') ) ;
#197 = CARTESIAN_POINT ( 'NONE',  ( 7.000000000000000000, 3.309241912952187725, -92.78815321594859711 ) ) ;
#198 = CIRCLE ( 'NONE', #102, 7.000000000000000000 ) ;
#199 = CC_DESIGN_APPROVAL ( #14, ( #110 ) ) ;
#200 = CARTESIAN_POINT ( 'NONE',  ( 7.000000000000000000, -0.02409142019282340536, -46.45481988514683280 ) ) ;
#201 = CARTESIAN_POINT ( 'NONE',  ( -7.000000000000002665, -14.02409142003165066, -47.12935415285387108 ) ) ;
#202 = CARTESIAN_POINT ( 'NONE',  ( 7.000000000000000000, 0.000000000000000000, 0.000000000000000000 ) ) ;
#203 = PRODUCT_DEFINITION_SHAPE ( 'NONE', 'NONE',  #191 ) ;
#204 = APPROVAL_PERSON_ORGANIZATION ( #15, #136, #16 ) ;
#205 = PRODUCT_RELATED_PRODUCT_CATEGORY ( 'detail', '', ( #17 ) ) ;
#206 = MECHANICAL_CONTEXT ( 'NONE', #134, 'mechanical' ) ;
#207 = ORIENTED_EDGE ( 'NONE', *, *, #152, .T. ) ;
#208 = CARTESIAN_POINT ( 'NONE',  ( 7.000000000000000000, 3.309241912952187725, -92.78815321594859711 ) ) ;
#209 = CARTESIAN_POINT ( 'NONE',  ( 7.000000000000000000, 3.309241912952187725, -92.78815321594859711 ) ) ;
#210 = APPROVAL_PERSON_ORGANIZATION ( #48, #14, #103 ) ;
#211 = CC_DESIGN_PERSON_AND_ORGANIZATION_ASSIGNMENT ( #30, #33, ( #17 ) ) ;
#212 = MANIFOLD_SOLID_BREP ( '扫描1', #170 ) ;
#213 = SHAPE_DEFINITION_REPRESENTATION ( #203, #117 ) ;
#214 = CARTESIAN_POINT ( 'NONE',  ( 7.000000000000000000, -0.02409142019282340536, -46.45481988514683280 ) ) ;
#215 = PERSON_AND_ORGANIZATION ( #196, #177 ) ;
#216 = DIRECTION ( 'NONE',  ( 0.000000000000000000, 0.000000000000000000, 1.000000000000000000 ) ) ;
#217 = CARTESIAN_POINT ( 'NONE',  ( -7.000000000000000000, 10.00000000000000000, -139.0000000000000000 ) ) ;
#218 = CARTESIAN_POINT ( 'NONE',  ( 7.000000000000000000, 0.000000000000000000, 0.000000000000000000 ) ) ;
#219 = CARTESIAN_POINT ( 'NONE',  ( 7.000000000000000000, 3.309241912952187725, -92.78815321594859711 ) ) ;
#220 = CARTESIAN_POINT ( 'NONE',  ( -7.000000000000000000, -0.02409142019282254840, -46.45481988514683280 ) ) ;
#221 = CARTESIAN_POINT ( 'NONE',  ( 0.000000000000000000, 0.000000000000000000, 0.000000000000000000 ) ) ;
#222 = CARTESIAN_POINT ( 'NONE',  ( -6.999999999999998224, 13.97590857964600275, -45.78028561743978742 ) ) ;
#223 = PERSON_AND_ORGANIZATION ( #196, #177 ) ;
#224 = CC_DESIGN_PERSON_AND_ORGANIZATION_ASSIGNMENT ( #223, #64, ( #110 ) ) ;
#225 = APPROVAL_STATUS ( 'not_yet_approved' ) ;
ENDSEC;
END-ISO-10303-21;
