ISO-10303-21;
HEADER;
FILE_DESCRIPTION (( 'STEP AP203' ),
    '1' );
FILE_NAME ('FN-BRK-007_solar-right-upper-strut_D14_CONCEPT_R0.6.STEP',
    '2026-07-26T15:46:46',
    ( '' ),
    ( '' ),
    'SwSTEP 2.0',
    'SolidWorks 2022',
    '' );
FILE_SCHEMA (( 'CONFIG_CONTROL_DESIGN' ));
ENDSEC;

DATA;
#1 = EDGE_CURVE ( 'NONE', #57, #143, #183, .T. ) ;
#2 = DATE_AND_TIME ( #77, #78 ) ;
#3 =( BOUNDED_SURFACE ( )  B_SPLINE_SURFACE ( 3, 3, (
 ( #187, #45, #204, #185 ),
 ( #17, #44, #69, #189 ),
 ( #31, #28, #116, #27 ),
 ( #217, #99, #151, #133 ),
 ( #169, #167, #134, #14 ),
 ( #203, #65, #186, #47 ),
 ( #66, #117, #132, #100 ) ),
 .UNSPECIFIED., .T., .F., .F. )
 B_SPLINE_SURFACE_WITH_KNOTS ( ( 4, 3, 4 ),
 ( 4, 4 ),
 ( 0.000000000000000000, 0.5000000000000000000, 1.000000000000000000 ),
 ( 0.000000000000000000, 1.000000000000000000 ),
 .UNSPECIFIED. )
 GEOMETRIC_REPRESENTATION_ITEM ( )  RATIONAL_B_SPLINE_SURFACE ( (
 ( 1.000000000000000000, 1.000000000000000000, 1.000000000000000000, 1.000000000000000000),
 ( 0.3333333333333333703, 0.3333333333333333703, 0.3333333333333333703, 0.3333333333333333703),
 ( 0.3333333333333333703, 0.3333333333333333703, 0.3333333333333333703, 0.3333333333333333703),
 ( 1.000000000000000000, 1.000000000000000000, 1.000000000000000000, 1.000000000000000000),
 ( 0.3333333333333333703, 0.3333333333333333703, 0.3333333333333333703, 0.3333333333333333703),
 ( 0.3333333333333333703, 0.3333333333333333703, 0.3333333333333333703, 0.3333333333333333703),
 ( 1.000000000000000000, 1.000000000000000000, 1.000000000000000000, 1.000000000000000000) ) )
 REPRESENTATION_ITEM ( '' )  SURFACE ( )  );
#4 = LOCAL_TIME ( 23, 46, 46.00000000000000000, #140 ) ;
#5 = CARTESIAN_POINT ( 'NONE',  ( -7.000000000000000000, 1.000000000000000888, 49.00000000000000000 ) ) ;
#6 = DESIGN_CONTEXT ( 'detailed design', #51, 'design' ) ;
#7 = AXIS2_PLACEMENT_3D ( 'NONE', #213, #216, #178 ) ;
#8 = DIRECTION ( 'NONE',  ( 1.000000000000000000, 0.000000000000000000, 0.000000000000000000 ) ) ;
#9 = CARTESIAN_POINT ( 'NONE',  ( -7.000000000000000000, -0.006942937893944382648, 16.33687749330107764 ) ) ;
#10 = PRODUCT_DEFINITION ( '未知', '', #121, #6 ) ;
#11 = CARTESIAN_POINT ( 'NONE',  ( -7.000000000000002665, -14.00694293790811429, 16.53127799819926835 ) ) ;
#12 = LOCAL_TIME ( 23, 46, 46.00000000000000000, #142 ) ;
#13 = CARTESIAN_POINT ( 'NONE',  ( 7.000000000000000000, -0.006942937893945239601, 16.33687749330107764 ) ) ;
#14 = CARTESIAN_POINT ( 'NONE',  ( -7.000000000000002665, -12.98785755079443938, 49.58295895111329088 ) ) ;
#15 =( LENGTH_UNIT ( ) NAMED_UNIT ( * ) SI_UNIT ( .MILLI., .METRE. ) );
#16 = APPLICATION_CONTEXT ( 'configuration controlled 3d designs of mechanical parts and assemblies' ) ;
#17 = CARTESIAN_POINT ( 'NONE',  ( 7.000000000000000000, 14.00000000000000000, 0.000000000000000000 ) ) ;
#18 = ADVANCED_BREP_SHAPE_REPRESENTATION ( 'FN-BRK-007_solar-right-upper-strut_D14_CONCEPT_R0.6', ( #174, #96 ), #55 ) ;
#19 = ADVANCED_FACE ( 'NONE', ( #127 ), #180, .T. ) ;
#20 = EDGE_LOOP ( 'NONE', ( #144, #74, #126, #94 ) ) ;
#21 = CARTESIAN_POINT ( 'NONE',  ( 7.000000000000000000, 1.000000000000000000, 49.00000000000000000 ) ) ;
#22 = CARTESIAN_POINT ( 'NONE',  ( 7.000000000000000000, -14.00694293790811429, 16.53127799819926835 ) ) ;
#23 = CARTESIAN_POINT ( 'NONE',  ( 7.000000000000000000, 0.000000000000000000, 0.000000000000000000 ) ) ;
#24 = EDGE_CURVE ( 'NONE', #122, #57, #104, .T. ) ;
#25 = CARTESIAN_POINT ( 'NONE',  ( 0.000000000000000000, 1.000000000000000000, 49.00000000000000000 ) ) ;
#26 = CARTESIAN_POINT ( 'NONE',  ( -7.000000000000000000, 8.572527594031473190E-16, 0.000000000000000000 ) ) ;
#27 = CARTESIAN_POINT ( 'NONE',  ( -6.999999999999998224, 14.98785755079443760, 48.41704104888671623 ) ) ;
#28 = CARTESIAN_POINT ( 'NONE',  ( -6.999999999999998224, 13.99305706212022749, 16.14247698840287981 ) ) ;
#29 =( NAMED_UNIT ( * ) PLANE_ANGLE_UNIT ( ) SI_UNIT ( $, .RADIAN. ) );
#30 = CLOSED_SHELL ( 'NONE', ( #19, #218, #114, #34 ) ) ;
#31 = CARTESIAN_POINT ( 'NONE',  ( -6.999999999999998224, 14.00000000000000000, 0.000000000000000000 ) ) ;
#32 = PERSON_AND_ORGANIZATION ( #152, #36 ) ;
#33 = ORIENTED_EDGE ( 'NONE', *, *, #177, .F. ) ;
#34 = ADVANCED_FACE ( 'NONE', ( #164 ), #81, .F. ) ;
#35 = PERSON_AND_ORGANIZATION ( #152, #36 ) ;
#36 = ORGANIZATION ( '未指定', '未指定', '' ) ;
#37 = CALENDAR_DATE ( 2026, 26, 7 ) ;
#38 = APPROVAL_STATUS ( 'not_yet_approved' ) ;
#39 = CARTESIAN_POINT ( 'NONE',  ( -7.000000000000000000, 1.000000000000000888, 49.00000000000000000 ) ) ;
#40 = CARTESIAN_POINT ( 'NONE',  ( 7.000000000000000000, 1.000000000000000000, 49.00000000000000000 ) ) ;
#41 = CARTESIAN_POINT ( 'NONE',  ( 7.000000000000000000, -12.98785755079443938, 49.58295895111329088 ) ) ;
#42 = FACE_OUTER_BOUND ( 'NONE', #137, .T. ) ;
#43 = CARTESIAN_POINT ( 'NONE',  ( 7.000000000000000000, 0.3263903954413942543, 32.67021082677518251 ) ) ;
#44 = CARTESIAN_POINT ( 'NONE',  ( 7.000000000000000000, 13.99305706212022749, 16.14247698840287981 ) ) ;
#45 = CARTESIAN_POINT ( 'NONE',  ( 7.000000000000000000, -0.006942937893945239601, 16.33687749330107764 ) ) ;
#46 = PERSON_AND_ORGANIZATION_ROLE ( 'design_owner' ) ;
#47 = CARTESIAN_POINT ( 'NONE',  ( 7.000000000000000000, -12.98785755079443938, 49.58295895111329088 ) ) ;
#48 = CC_DESIGN_DATE_AND_TIME_ASSIGNMENT ( #159, #123, ( #209 ) ) ;
#49 = CARTESIAN_POINT ( 'NONE',  ( 7.000000000000000000, 1.000000000000000000, 49.00000000000000000 ) ) ;
#50 = AXIS2_PLACEMENT_3D ( 'NONE', #166, #79, #199 ) ;
#51 = APPLICATION_CONTEXT ( 'configuration controlled 3d designs of mechanical parts and assemblies' ) ;
#52 = APPROVAL_DATE_TIME ( #2, #163 ) ;
#53 = VERTEX_POINT ( 'NONE', #40 ) ;
#54 = COORDINATED_UNIVERSAL_TIME_OFFSET ( 8, 0, .AHEAD. ) ;
#55 =( GEOMETRIC_REPRESENTATION_CONTEXT ( 3 ) GLOBAL_UNCERTAINTY_ASSIGNED_CONTEXT ( ( #91 ) ) GLOBAL_UNIT_ASSIGNED_CONTEXT ( ( #15, #29, #201 ) ) REPRESENTATION_CONTEXT ( 'NONE', 'WORKASPACE' ) );
#56 = APPROVAL_ROLE ( '' ) ;
#57 = VERTEX_POINT ( 'NONE', #26 ) ;
#58 = COORDINATED_UNIVERSAL_TIME_OFFSET ( 8, 0, .AHEAD. ) ;
#59 = CARTESIAN_POINT ( 'NONE',  ( 0.000000000000000000, 0.000000000000000000, 0.000000000000000000 ) ) ;
#60 = CARTESIAN_POINT ( 'NONE',  ( -7.000000000000000000, 0.3263903954413950870, 32.67021082677518251 ) ) ;
#61 = CARTESIAN_POINT ( 'NONE',  ( 0.000000000000000000, 1.000000000000000000, 49.00000000000000000 ) ) ;
#62 = CARTESIAN_POINT ( 'NONE',  ( -6.999999999999998224, 14.98785755079443760, 48.41704104888671623 ) ) ;
#63 = CC_DESIGN_PERSON_AND_ORGANIZATION_ASSIGNMENT ( #67, #46, ( #205 ) ) ;
#64 = CARTESIAN_POINT ( 'NONE',  ( -7.000000000000000000, 0.3263903954413950870, 32.67021082677518251 ) ) ;
#65 = CARTESIAN_POINT ( 'NONE',  ( 7.000000000000000000, -14.00694293790811429, 16.53127799819926835 ) ) ;
#66 = CARTESIAN_POINT ( 'NONE',  ( 7.000000000000000000, 0.000000000000000000, 0.000000000000000000 ) ) ;
#67 = PERSON_AND_ORGANIZATION ( #152, #36 ) ;
#68 = APPROVAL ( #38, '未指定' ) ;
#69 = CARTESIAN_POINT ( 'NONE',  ( 7.000000000000000000, 14.32233603643233977, 32.28132223838401416 ) ) ;
#70 = APPLICATION_PROTOCOL_DEFINITION ( 'international standard', 'config_control_design', 1994, #51 ) ;
#71 = APPROVAL_DATE_TIME ( #193, #210 ) ;
#72 = CIRCLE ( 'NONE', #7, 7.000000000000000000 ) ;
#73 = COORDINATED_UNIVERSAL_TIME_OFFSET ( 8, 0, .AHEAD. ) ;
#74 = ORIENTED_EDGE ( 'NONE', *, *, #1, .T. ) ;
#75 = PERSON_AND_ORGANIZATION ( #152, #36 ) ;
#76 = ORIENTED_EDGE ( 'NONE', *, *, #170, .T. ) ;
#77 = CALENDAR_DATE ( 2026, 26, 7 ) ;
#78 = LOCAL_TIME ( 23, 46, 46.00000000000000000, #58 ) ;
#79 = DIRECTION ( 'NONE',  ( 0.000000000000000000, 0.000000000000000000, 1.000000000000000000 ) ) ;
#80 = DIRECTION ( 'NONE',  ( 1.000000000000000000, 0.000000000000000000, 0.000000000000000000 ) ) ;
#81 = PLANE ( 'NONE',  #50 ) ;
#82 = APPROVAL_PERSON_ORGANIZATION ( #35, #68, #108 ) ;
#83 = CARTESIAN_POINT ( 'NONE',  ( 7.000000000000000000, 0.3263903954413942543, 32.67021082677518251 ) ) ;
#84 = APPROVAL_PERSON_ORGANIZATION ( #158, #210, #224 ) ;
#85 = DIRECTION ( 'NONE',  ( 1.000000000000000000, 0.000000000000000000, 0.000000000000000000 ) ) ;
#86 = CC_DESIGN_APPROVAL ( #210, ( #121 ) ) ;
#87 = APPROVAL_STATUS ( 'not_yet_approved' ) ;
#88 = DATE_AND_TIME ( #125, #4 ) ;
#89 = B_SPLINE_CURVE_WITH_KNOTS ( 'NONE', 3,
 ( #97, #118, #119, #49 ),
 .UNSPECIFIED., .F., .F.,
 ( 4, 4 ),
 ( 0.000000000000000000, 1.000000000000000000 ),
 .UNSPECIFIED. ) ;
#90 = CARTESIAN_POINT ( 'NONE',  ( -6.999999999999998224, 13.99305706212022749, 16.14247698840287981 ) ) ;
#91 = UNCERTAINTY_MEASURE_WITH_UNIT (LENGTH_MEASURE( 1.000000000000000082E-05 ), #15, 'distance_accuracy_value', 'NONE');
#92 = CARTESIAN_POINT ( 'NONE',  ( 7.000000000000000000, 0.000000000000000000, 0.000000000000000000 ) ) ;
#93 = CARTESIAN_POINT ( 'NONE',  ( 7.000000000000000000, 1.000000000000000000, 49.00000000000000000 ) ) ;
#94 = ORIENTED_EDGE ( 'NONE', *, *, #212, .F. ) ;
#95 = DIRECTION ( 'NONE',  ( 0.000000000000000000, 0.04163992507952025274, 0.9991326821996026064 ) ) ;
#96 = AXIS2_PLACEMENT_3D ( 'NONE', #120, #98, #171 ) ;
#97 = CARTESIAN_POINT ( 'NONE',  ( 7.000000000000000000, 0.000000000000000000, 0.000000000000000000 ) ) ;
#98 = DIRECTION ( 'NONE',  ( 0.000000000000000000, 0.000000000000000000, 1.000000000000000000 ) ) ;
#99 = CARTESIAN_POINT ( 'NONE',  ( -7.000000000000000000, -0.006942937893944382648, 16.33687749330107764 ) ) ;
#100 = CARTESIAN_POINT ( 'NONE',  ( 7.000000000000000000, 1.000000000000000000, 49.00000000000000000 ) ) ;
#101 = CC_DESIGN_APPROVAL ( #163, ( #10 ) ) ;
#102 = PERSON_AND_ORGANIZATION_ROLE ( 'design_supplier' ) ;
#103 = CALENDAR_DATE ( 2026, 26, 7 ) ;
#104 = CIRCLE ( 'NONE', #141, 7.000000000000000000 ) ;
#105 = SECURITY_CLASSIFICATION_LEVEL ( 'unclassified' ) ;
#106 = ORIENTED_EDGE ( 'NONE', *, *, #138, .T. ) ;
#107 = PRODUCT_RELATED_PRODUCT_CATEGORY ( 'detail', '', ( #205 ) ) ;
#108 = APPROVAL_ROLE ( '' ) ;
#109 = CARTESIAN_POINT ( 'NONE',  ( -7.000000000000000000, -0.006942937893944382648, 16.33687749330107764 ) ) ;
#110 = DIRECTION ( 'NONE',  ( -0.000000000000000000, 0.04163992507952025274, 0.9991326821996024954 ) ) ;
#111 = ORIENTED_EDGE ( 'NONE', *, *, #24, .F. ) ;
#112 = PLANE ( 'NONE',  #153 ) ;
#113 = CC_DESIGN_PERSON_AND_ORGANIZATION_ASSIGNMENT ( #225, #135, ( #121 ) ) ;
#114 = ADVANCED_FACE ( 'NONE', ( #42 ), #112, .T. ) ;
#115 = DIRECTION ( 'NONE',  ( 0.000000000000000000, 0.000000000000000000, 1.000000000000000000 ) ) ;
#116 = CARTESIAN_POINT ( 'NONE',  ( -6.999999999999998224, 14.32233603643233977, 32.28132223838400705 ) ) ;
#117 = CARTESIAN_POINT ( 'NONE',  ( 7.000000000000000000, -0.006942937893945239601, 16.33687749330107764 ) ) ;
#118 = CARTESIAN_POINT ( 'NONE',  ( 7.000000000000000000, -0.006942937893945239601, 16.33687749330107764 ) ) ;
#119 = CARTESIAN_POINT ( 'NONE',  ( 7.000000000000000000, 0.3263903954413942543, 32.67021082677518251 ) ) ;
#120 = CARTESIAN_POINT ( 'NONE',  ( 0.000000000000000000, 0.000000000000000000, 0.000000000000000000 ) ) ;
#121 = PRODUCT_DEFINITION_FORMATION_WITH_SPECIFIED_SOURCE ( '任何', '', #205, .NOT_KNOWN. ) ;
#122 = VERTEX_POINT ( 'NONE', #129 ) ;
#123 = DATE_TIME_ROLE ( 'classification_date' ) ;
#124 = ORIENTED_EDGE ( 'NONE', *, *, #138, .F. ) ;
#125 = CALENDAR_DATE ( 2026, 26, 7 ) ;
#126 = ORIENTED_EDGE ( 'NONE', *, *, #170, .F. ) ;
#127 = FACE_OUTER_BOUND ( 'NONE', #20, .T. ) ;
#128 = CARTESIAN_POINT ( 'NONE',  ( 7.000000000000000000, 14.00000000000000000, 0.000000000000000000 ) ) ;
#129 = CARTESIAN_POINT ( 'NONE',  ( 7.000000000000000000, 0.000000000000000000, 0.000000000000000000 ) ) ;
#130 = CARTESIAN_POINT ( 'NONE',  ( 7.000000000000000000, 14.32233603643233977, 32.28132223838401416 ) ) ;
#131 = CARTESIAN_POINT ( 'NONE',  ( -6.999999999999998224, 14.00000000000000000, 0.000000000000000000 ) ) ;
#132 = CARTESIAN_POINT ( 'NONE',  ( 7.000000000000000000, 0.3263903954413942543, 32.67021082677518251 ) ) ;
#133 = CARTESIAN_POINT ( 'NONE',  ( -7.000000000000000000, 1.000000000000000888, 49.00000000000000000 ) ) ;
#134 = CARTESIAN_POINT ( 'NONE',  ( -7.000000000000002665, -13.66955524554955126, 33.05909941516635087 ) ) ;
#135 = PERSON_AND_ORGANIZATION_ROLE ( 'creator' ) ;
#136 = DATE_TIME_ROLE ( 'creation_date' ) ;
#137 = EDGE_LOOP ( 'NONE', ( #76, #106 ) ) ;
#138 = EDGE_CURVE ( 'NONE', #143, #53, #72, .T. ) ;
#139 = PERSON_AND_ORGANIZATION_ROLE ( 'classification_officer' ) ;
#140 = COORDINATED_UNIVERSAL_TIME_OFFSET ( 8, 0, .AHEAD. ) ;
#141 = AXIS2_PLACEMENT_3D ( 'NONE', #165, #115, #8 ) ;
#142 = COORDINATED_UNIVERSAL_TIME_OFFSET ( 8, 0, .AHEAD. ) ;
#143 = VERTEX_POINT ( 'NONE', #5 ) ;
#144 = ORIENTED_EDGE ( 'NONE', *, *, #24, .T. ) ;
#145 = CARTESIAN_POINT ( 'NONE',  ( -7.000000000000000000, 8.572527594031473190E-16, 0.000000000000000000 ) ) ;
#146 = CC_DESIGN_PERSON_AND_ORGANIZATION_ASSIGNMENT ( #156, #139, ( #209 ) ) ;
#147 = CARTESIAN_POINT ( 'NONE',  ( -7.000000000000002665, -12.98785755079443938, 49.58295895111329088 ) ) ;
#148 = ORIENTED_EDGE ( 'NONE', *, *, #1, .F. ) ;
#149 = AXIS2_PLACEMENT_3D ( 'NONE', #61, #95, #85 ) ;
#150 = DIRECTION ( 'NONE',  ( 1.000000000000000000, 0.000000000000000000, 0.000000000000000000 ) ) ;
#151 = CARTESIAN_POINT ( 'NONE',  ( -7.000000000000000000, 0.3263903954413950870, 32.67021082677518251 ) ) ;
#152 = PERSON ( '未指定', '未指定', '未指定', ('未指定'), ('未指定'), ('未指定') ) ;
#153 = AXIS2_PLACEMENT_3D ( 'NONE', #25, #110, #80 ) ;
#154 = MECHANICAL_CONTEXT ( 'NONE', #16, 'mechanical' ) ;
#155 = LOCAL_TIME ( 23, 46, 46.00000000000000000, #54 ) ;
#156 = PERSON_AND_ORGANIZATION ( #152, #36 ) ;
#157 = PRODUCT_DEFINITION_SHAPE ( 'NONE', 'NONE',  #10 ) ;
#158 = PERSON_AND_ORGANIZATION ( #152, #36 ) ;
#159 = DATE_AND_TIME ( #37, #155 ) ;
#160 = AXIS2_PLACEMENT_3D ( 'NONE', #59, #206, #150 ) ;
#161 = CARTESIAN_POINT ( 'NONE',  ( -7.000000000000002665, -14.00000000000000000, 0.000000000000000000 ) ) ;
#162 = CARTESIAN_POINT ( 'NONE',  ( 7.000000000000000000, -14.00000000000000000, 0.000000000000000000 ) ) ;
#163 = APPROVAL ( #190, '未指定' ) ;
#164 = FACE_OUTER_BOUND ( 'NONE', #208, .T. ) ;
#165 = CARTESIAN_POINT ( 'NONE',  ( 0.000000000000000000, 0.000000000000000000, 0.000000000000000000 ) ) ;
#166 = CARTESIAN_POINT ( 'NONE',  ( 0.000000000000000000, 0.000000000000000000, 0.000000000000000000 ) ) ;
#167 = CARTESIAN_POINT ( 'NONE',  ( -7.000000000000002665, -14.00694293790811429, 16.53127799819926835 ) ) ;
#168 = APPLICATION_PROTOCOL_DEFINITION ( 'international standard', 'config_control_design', 1994, #16 ) ;
#169 = CARTESIAN_POINT ( 'NONE',  ( -7.000000000000002665, -14.00000000000000000, 0.000000000000000000 ) ) ;
#170 = EDGE_CURVE ( 'NONE', #53, #143, #195, .T. ) ;
#171 = DIRECTION ( 'NONE',  ( 1.000000000000000000, 0.000000000000000000, 0.000000000000000000 ) ) ;
#172 = DATE_AND_TIME ( #103, #12 ) ;
#173 = CC_DESIGN_SECURITY_CLASSIFICATION ( #209, ( #121 ) ) ;
#174 = MANIFOLD_SOLID_BREP ( '扫描1', #30 ) ;
#175 = SHAPE_DEFINITION_REPRESENTATION ( #157, #18 ) ;
#176 = CARTESIAN_POINT ( 'NONE',  ( 7.000000000000000000, 14.98785755079443760, 48.41704104888671623 ) ) ;
#177 = EDGE_CURVE ( 'NONE', #57, #122, #219, .T. ) ;
#178 = DIRECTION ( 'NONE',  ( 1.000000000000000000, 0.000000000000000000, 0.000000000000000000 ) ) ;
#179 = CARTESIAN_POINT ( 'NONE',  ( 7.000000000000000000, -13.66955524554955126, 33.05909941516636508 ) ) ;
#180 =( BOUNDED_SURFACE ( )  B_SPLINE_SURFACE ( 3, 3, (
 ( #92, #13, #83, #21 ),
 ( #128, #197, #130, #176 ),
 ( #131, #90, #214, #62 ),
 ( #145, #9, #60, #198 ),
 ( #161, #11, #200, #147 ),
 ( #162, #22, #179, #41 ),
 ( #23, #182, #43, #93 ) ),
 .UNSPECIFIED., .T., .F., .F. )
 B_SPLINE_SURFACE_WITH_KNOTS ( ( 4, 3, 4 ),
 ( 4, 4 ),
 ( 0.000000000000000000, 0.5000000000000000000, 1.000000000000000000 ),
 ( 0.000000000000000000, 1.000000000000000000 ),
 .UNSPECIFIED. )
 GEOMETRIC_REPRESENTATION_ITEM ( )  RATIONAL_B_SPLINE_SURFACE ( (
 ( 1.000000000000000000, 1.000000000000000000, 1.000000000000000000, 1.000000000000000000),
 ( 0.3333333333333333703, 0.3333333333333333703, 0.3333333333333333703, 0.3333333333333333703),
 ( 0.3333333333333333703, 0.3333333333333333703, 0.3333333333333333703, 0.3333333333333333703),
 ( 1.000000000000000000, 1.000000000000000000, 1.000000000000000000, 1.000000000000000000),
 ( 0.3333333333333333703, 0.3333333333333333703, 0.3333333333333333703, 0.3333333333333333703),
 ( 0.3333333333333333703, 0.3333333333333333703, 0.3333333333333333703, 0.3333333333333333703),
 ( 1.000000000000000000, 1.000000000000000000, 1.000000000000000000, 1.000000000000000000) ) )
 REPRESENTATION_ITEM ( '' )  SURFACE ( )  );
#181 = LOCAL_TIME ( 23, 46, 46.00000000000000000, #73 ) ;
#182 = CARTESIAN_POINT ( 'NONE',  ( 7.000000000000000000, -0.006942937893945239601, 16.33687749330107764 ) ) ;
#183 = B_SPLINE_CURVE_WITH_KNOTS ( 'NONE', 3,
 ( #196, #109, #64, #39 ),
 .UNSPECIFIED., .F., .F.,
 ( 4, 4 ),
 ( 0.000000000000000000, 1.000000000000000000 ),
 .UNSPECIFIED. ) ;
#184 = ORIENTED_EDGE ( 'NONE', *, *, #177, .T. ) ;
#185 = CARTESIAN_POINT ( 'NONE',  ( 7.000000000000000000, 1.000000000000000000, 49.00000000000000000 ) ) ;
#186 = CARTESIAN_POINT ( 'NONE',  ( 7.000000000000000000, -13.66955524554955126, 33.05909941516636508 ) ) ;
#187 = CARTESIAN_POINT ( 'NONE',  ( 7.000000000000000000, 0.000000000000000000, 0.000000000000000000 ) ) ;
#188 = CC_DESIGN_DATE_AND_TIME_ASSIGNMENT ( #88, #136, ( #10 ) ) ;
#189 = CARTESIAN_POINT ( 'NONE',  ( 7.000000000000000000, 14.98785755079443760, 48.41704104888671623 ) ) ;
#190 = APPROVAL_STATUS ( 'not_yet_approved' ) ;
#191 = PERSON_AND_ORGANIZATION_ROLE ( 'creator' ) ;
#192 = ORIENTED_EDGE ( 'NONE', *, *, #212, .T. ) ;
#193 = DATE_AND_TIME ( #211, #181 ) ;
#194 = CC_DESIGN_PERSON_AND_ORGANIZATION_ASSIGNMENT ( #207, #102, ( #121 ) ) ;
#195 = CIRCLE ( 'NONE', #149, 7.000000000000000000 ) ;
#196 = CARTESIAN_POINT ( 'NONE',  ( -7.000000000000000000, 8.572527594031473190E-16, 0.000000000000000000 ) ) ;
#197 = CARTESIAN_POINT ( 'NONE',  ( 7.000000000000000000, 13.99305706212022749, 16.14247698840287981 ) ) ;
#198 = CARTESIAN_POINT ( 'NONE',  ( -7.000000000000000000, 1.000000000000000888, 49.00000000000000000 ) ) ;
#199 = DIRECTION ( 'NONE',  ( 1.000000000000000000, 0.000000000000000000, -0.000000000000000000 ) ) ;
#200 = CARTESIAN_POINT ( 'NONE',  ( -7.000000000000002665, -13.66955524554955126, 33.05909941516635087 ) ) ;
#201 =( NAMED_UNIT ( * ) SI_UNIT ( $, .STERADIAN. ) SOLID_ANGLE_UNIT ( ) );
#202 = CC_DESIGN_PERSON_AND_ORGANIZATION_ASSIGNMENT ( #75, #191, ( #10 ) ) ;
#203 = CARTESIAN_POINT ( 'NONE',  ( 7.000000000000000000, -14.00000000000000000, 0.000000000000000000 ) ) ;
#204 = CARTESIAN_POINT ( 'NONE',  ( 7.000000000000000000, 0.3263903954413942543, 32.67021082677518251 ) ) ;
#205 = PRODUCT ( 'FN-BRK-007_solar-right-upper-strut_D14_CONCEPT_R0.6', 'FN-BRK-007_solar-right-upper-strut_D14_CONCEPT_R0.6', '', ( #154 ) ) ;
#206 = DIRECTION ( 'NONE',  ( 0.000000000000000000, 0.000000000000000000, 1.000000000000000000 ) ) ;
#207 = PERSON_AND_ORGANIZATION ( #152, #36 ) ;
#208 = EDGE_LOOP ( 'NONE', ( #111, #33 ) ) ;
#209 = SECURITY_CLASSIFICATION ( '', '', #105 ) ;
#210 = APPROVAL ( #87, '未指定' ) ;
#211 = CALENDAR_DATE ( 2026, 26, 7 ) ;
#212 = EDGE_CURVE ( 'NONE', #122, #53, #89, .T. ) ;
#213 = CARTESIAN_POINT ( 'NONE',  ( 0.000000000000000000, 1.000000000000000000, 49.00000000000000000 ) ) ;
#214 = CARTESIAN_POINT ( 'NONE',  ( -6.999999999999998224, 14.32233603643233977, 32.28132223838400705 ) ) ;
#215 = EDGE_LOOP ( 'NONE', ( #148, #184, #192, #124 ) ) ;
#216 = DIRECTION ( 'NONE',  ( 0.000000000000000000, 0.04163992507952025274, 0.9991326821996026064 ) ) ;
#217 = CARTESIAN_POINT ( 'NONE',  ( -7.000000000000000000, 8.572527594031473190E-16, 0.000000000000000000 ) ) ;
#218 = ADVANCED_FACE ( 'NONE', ( #220 ), #3, .T. ) ;
#219 = CIRCLE ( 'NONE', #160, 7.000000000000000000 ) ;
#220 = FACE_OUTER_BOUND ( 'NONE', #215, .T. ) ;
#221 = CC_DESIGN_APPROVAL ( #68, ( #209 ) ) ;
#222 = APPROVAL_DATE_TIME ( #172, #68 ) ;
#223 = APPROVAL_PERSON_ORGANIZATION ( #32, #163, #56 ) ;
#224 = APPROVAL_ROLE ( '' ) ;
#225 = PERSON_AND_ORGANIZATION ( #152, #36 ) ;
ENDSEC;
END-ISO-10303-21;
