ISO-10303-21;
HEADER;
FILE_DESCRIPTION (( 'STEP AP203' ),
    '1' );
FILE_NAME ('FN-BRK-006_solar-left-upper-strut_D14_CONCEPT_R0.6.STEP',
    '2026-07-26T15:46:41',
    ( '' ),
    ( '' ),
    'SwSTEP 2.0',
    'SolidWorks 2022',
    '' );
FILE_SCHEMA (( 'CONFIG_CONTROL_DESIGN' ));
ENDSEC;

DATA;
#1 = COORDINATED_UNIVERSAL_TIME_OFFSET ( 8, 0, .AHEAD. ) ;
#2 = ADVANCED_BREP_SHAPE_REPRESENTATION ( 'FN-BRK-006_solar-left-upper-strut_D14_CONCEPT_R0.6', ( #37, #159 ), #97 ) ;
#3 = CARTESIAN_POINT ( 'NONE',  ( 7.000000000000000000, -0.006942937893945239601, 16.33687749330107764 ) ) ;
#4 = CARTESIAN_POINT ( 'NONE',  ( 7.000000000000000000, 14.32233603643233977, 32.28132223838401416 ) ) ;
#5 = LOCAL_TIME ( 23, 46, 41.00000000000000000, #212 ) ;
#6 = PRODUCT_RELATED_PRODUCT_CATEGORY ( 'detail', '', ( #167 ) ) ;
#7 = CARTESIAN_POINT ( 'NONE',  ( -6.999999999999998224, 14.32233603643233977, 32.28132223838400705 ) ) ;
#8 = ADVANCED_FACE ( 'NONE', ( #25 ), #22, .T. ) ;
#9 = CARTESIAN_POINT ( 'NONE',  ( 7.000000000000000000, -14.00694293790811429, 16.53127799819926835 ) ) ;
#10 = PLANE ( 'NONE',  #121 ) ;
#11 = CARTESIAN_POINT ( 'NONE',  ( -7.000000000000002665, -14.00000000000000000, 0.000000000000000000 ) ) ;
#12 = PLANE ( 'NONE',  #114 ) ;
#13 = CARTESIAN_POINT ( 'NONE',  ( -7.000000000000002665, -13.66955524554955126, 33.05909941516635087 ) ) ;
#14 = PERSON_AND_ORGANIZATION ( #134, #129 ) ;
#15 = PERSON_AND_ORGANIZATION ( #134, #129 ) ;
#16 = APPROVAL_PERSON_ORGANIZATION ( #15, #69, #154 ) ;
#17 = PERSON_AND_ORGANIZATION_ROLE ( 'design_owner' ) ;
#18 = APPROVAL_STATUS ( 'not_yet_approved' ) ;
#19 = CARTESIAN_POINT ( 'NONE',  ( 7.000000000000000000, -0.006942937893945239601, 16.33687749330107764 ) ) ;
#20 = B_SPLINE_CURVE_WITH_KNOTS ( 'NONE', 3,
 ( #223, #78, #148, #98 ),
 .UNSPECIFIED., .F., .F.,
 ( 4, 4 ),
 ( 0.000000000000000000, 1.000000000000000000 ),
 .UNSPECIFIED. ) ;
#21 = CARTESIAN_POINT ( 'NONE',  ( -6.999999999999998224, 14.98785755079443760, 48.41704104888671623 ) ) ;
#22 =( BOUNDED_SURFACE ( )  B_SPLINE_SURFACE ( 3, 3, (
 ( #199, #3, #74, #76 ),
 ( #123, #179, #4, #38 ),
 ( #105, #183, #7, #21 ),
 ( #186, #40, #201, #204 ),
 ( #11, #27, #13, #28 ),
 ( #29, #9, #173, #106 ),
 ( #80, #203, #82, #149 ) ),
 .UNSPECIFIED., .T., .F., .F. )
 B_SPLINE_SURFACE_WITH_KNOTS ( ( 4, 3, 4 ),
 ( 4, 4 ),
 ( 0.000000000000000000, 0.5000000000000000000, 1.000000000000000000 ),
 ( 0.000000000000000000, 1.000000000000000000 ),
 .UNSPECIFIED. )
 GEOMETRIC_REPRESENTATION_ITEM ( )  RATIONAL_B_SPLINE_SURFACE ( (
 ( 1.000000000000000000, 1.000000000000000000, 1.000000000000000000, 1.000000000000000000),
 ( 0.3333333333333333703, 0.3333333333333333703, 0.3333333333333333703, 0.3333333333333333703),
 ( 0.3333333333333333703, 0.3333333333333333703, 0.3333333333333333703, 0.3333333333333333703),
 ( 1.000000000000000000, 1.000000000000000000, 1.000000000000000000, 1.000000000000000000),
 ( 0.3333333333333333703, 0.3333333333333333703, 0.3333333333333333703, 0.3333333333333333703),
 ( 0.3333333333333333703, 0.3333333333333333703, 0.3333333333333333703, 0.3333333333333333703),
 ( 1.000000000000000000, 1.000000000000000000, 1.000000000000000000, 1.000000000000000000) ) )
 REPRESENTATION_ITEM ( '' )  SURFACE ( )  );
#23 = CALENDAR_DATE ( 2026, 26, 7 ) ;
#24 = APPROVAL ( #18, '未指定' ) ;
#25 = FACE_OUTER_BOUND ( 'NONE', #88, .T. ) ;
#26 = DIRECTION ( 'NONE',  ( 1.000000000000000000, 0.000000000000000000, 0.000000000000000000 ) ) ;
#27 = CARTESIAN_POINT ( 'NONE',  ( -7.000000000000002665, -14.00694293790811429, 16.53127799819926835 ) ) ;
#28 = CARTESIAN_POINT ( 'NONE',  ( -7.000000000000002665, -12.98785755079443938, 49.58295895111329088 ) ) ;
#29 = CARTESIAN_POINT ( 'NONE',  ( 7.000000000000000000, -14.00000000000000000, 0.000000000000000000 ) ) ;
#30 = FACE_OUTER_BOUND ( 'NONE', #162, .T. ) ;
#31 = CARTESIAN_POINT ( 'NONE',  ( -7.000000000000002665, -14.00694293790811429, 16.53127799819926835 ) ) ;
#32 = COORDINATED_UNIVERSAL_TIME_OFFSET ( 8, 0, .AHEAD. ) ;
#33 = CARTESIAN_POINT ( 'NONE',  ( 7.000000000000000000, -12.98785755079443938, 49.58295895111329088 ) ) ;
#34 = DIRECTION ( 'NONE',  ( 0.000000000000000000, 0.000000000000000000, 1.000000000000000000 ) ) ;
#35 = AXIS2_PLACEMENT_3D ( 'NONE', #169, #96, #222 ) ;
#36 = SHAPE_DEFINITION_REPRESENTATION ( #109, #2 ) ;
#37 = MANIFOLD_SOLID_BREP ( '扫描1', #91 ) ;
#38 = CARTESIAN_POINT ( 'NONE',  ( 7.000000000000000000, 14.98785755079443760, 48.41704104888671623 ) ) ;
#39 = ORIENTED_EDGE ( 'NONE', *, *, #174, .F. ) ;
#40 = CARTESIAN_POINT ( 'NONE',  ( -7.000000000000000000, -0.006942937893944382648, 16.33687749330107764 ) ) ;
#41 = CARTESIAN_POINT ( 'NONE',  ( 7.000000000000000000, 0.000000000000000000, 0.000000000000000000 ) ) ;
#42 = CARTESIAN_POINT ( 'NONE',  ( 7.000000000000000000, 1.000000000000000000, 49.00000000000000000 ) ) ;
#43 = CC_DESIGN_PERSON_AND_ORGANIZATION_ASSIGNMENT ( #126, #197, ( #172 ) ) ;
#44 = CARTESIAN_POINT ( 'NONE',  ( 0.000000000000000000, 1.000000000000000000, 49.00000000000000000 ) ) ;
#45 = APPLICATION_PROTOCOL_DEFINITION ( 'international standard', 'config_control_design', 1994, #189 ) ;
#46 = UNCERTAINTY_MEASURE_WITH_UNIT (LENGTH_MEASURE( 1.000000000000000082E-05 ), #47, 'distance_accuracy_value', 'NONE');
#47 =( LENGTH_UNIT ( ) NAMED_UNIT ( * ) SI_UNIT ( .MILLI., .METRE. ) );
#48 = CC_DESIGN_APPROVAL ( #24, ( #195 ) ) ;
#49 =( NAMED_UNIT ( * ) PLANE_ANGLE_UNIT ( ) SI_UNIT ( $, .RADIAN. ) );
#50 = DATE_AND_TIME ( #214, #5 ) ;
#51 = PERSON_AND_ORGANIZATION ( #134, #129 ) ;
#52 = EDGE_LOOP ( 'NONE', ( #57, #55 ) ) ;
#53 = APPROVAL_PERSON_ORGANIZATION ( #120, #150, #141 ) ;
#54 = ORIENTED_EDGE ( 'NONE', *, *, #56, .F. ) ;
#55 = ORIENTED_EDGE ( 'NONE', *, *, #56, .T. ) ;
#56 = EDGE_CURVE ( 'NONE', #146, #127, #219, .T. ) ;
#57 = ORIENTED_EDGE ( 'NONE', *, *, #128, .T. ) ;
#58 = VERTEX_POINT ( 'NONE', #135 ) ;
#59 = CARTESIAN_POINT ( 'NONE',  ( 7.000000000000000000, 0.000000000000000000, 0.000000000000000000 ) ) ;
#60 = CARTESIAN_POINT ( 'NONE',  ( 0.000000000000000000, 0.000000000000000000, 0.000000000000000000 ) ) ;
#61 = DIRECTION ( 'NONE',  ( 1.000000000000000000, 0.000000000000000000, 0.000000000000000000 ) ) ;
#62 = CARTESIAN_POINT ( 'NONE',  ( 7.000000000000000000, 14.32233603643233977, 32.28132223838401416 ) ) ;
#63 = EDGE_CURVE ( 'NONE', #161, #58, #145, .T. ) ;
#64 = EDGE_CURVE ( 'NONE', #58, #161, #84, .T. ) ;
#65 = CARTESIAN_POINT ( 'NONE',  ( 7.000000000000000000, -0.006942937893945239601, 16.33687749330107764 ) ) ;
#66 = CARTESIAN_POINT ( 'NONE',  ( -7.000000000000000000, 8.572527594031473190E-16, 0.000000000000000000 ) ) ;
#67 = APPROVAL_DATE_TIME ( #70, #69 ) ;
#68 = CARTESIAN_POINT ( 'NONE',  ( 7.000000000000000000, 0.3263903954413942543, 32.67021082677518251 ) ) ;
#69 = APPROVAL ( #86, '未指定' ) ;
#70 = DATE_AND_TIME ( #211, #119 ) ;
#71 = DATE_AND_TIME ( #23, #132 ) ;
#72 = ADVANCED_FACE ( 'NONE', ( #30 ), #12, .F. ) ;
#73 = ORIENTED_EDGE ( 'NONE', *, *, #64, .T. ) ;
#74 = CARTESIAN_POINT ( 'NONE',  ( 7.000000000000000000, 0.3263903954413942543, 32.67021082677518251 ) ) ;
#75 = CC_DESIGN_SECURITY_CLASSIFICATION ( #142, ( #172 ) ) ;
#76 = CARTESIAN_POINT ( 'NONE',  ( 7.000000000000000000, 1.000000000000000000, 49.00000000000000000 ) ) ;
#77 = DIRECTION ( 'NONE',  ( 0.000000000000000000, 0.04163992507952025274, 0.9991326821996026064 ) ) ;
#78 = CARTESIAN_POINT ( 'NONE',  ( -7.000000000000000000, -0.006942937893944382648, 16.33687749330107764 ) ) ;
#79 = CC_DESIGN_PERSON_AND_ORGANIZATION_ASSIGNMENT ( #163, #104, ( #172 ) ) ;
#80 = CARTESIAN_POINT ( 'NONE',  ( 7.000000000000000000, 0.000000000000000000, 0.000000000000000000 ) ) ;
#81 = CARTESIAN_POINT ( 'NONE',  ( 7.000000000000000000, 1.000000000000000000, 49.00000000000000000 ) ) ;
#82 = CARTESIAN_POINT ( 'NONE',  ( 7.000000000000000000, 0.3263903954413942543, 32.67021082677518251 ) ) ;
#83 = PERSON_AND_ORGANIZATION ( #134, #129 ) ;
#84 = CIRCLE ( 'NONE', #102, 7.000000000000000000 ) ;
#85 = CARTESIAN_POINT ( 'NONE',  ( 7.000000000000000000, -14.00000000000000000, 0.000000000000000000 ) ) ;
#86 = APPROVAL_STATUS ( 'not_yet_approved' ) ;
#87 = DATE_AND_TIME ( #99, #208 ) ;
#88 = EDGE_LOOP ( 'NONE', ( #218, #200, #144, #39 ) ) ;
#89 =( BOUNDED_SURFACE ( )  B_SPLINE_SURFACE ( 3, 3, (
 ( #111, #65, #170, #81 ),
 ( #184, #151, #62, #205 ),
 ( #112, #136, #92, #166 ),
 ( #66, #225, #178, #192 ),
 ( #207, #31, #193, #140 ),
 ( #85, #138, #139, #33 ),
 ( #137, #19, #68, #153 ) ),
 .UNSPECIFIED., .T., .F., .F. )
 B_SPLINE_SURFACE_WITH_KNOTS ( ( 4, 3, 4 ),
 ( 4, 4 ),
 ( 0.000000000000000000, 0.5000000000000000000, 1.000000000000000000 ),
 ( 0.000000000000000000, 1.000000000000000000 ),
 .UNSPECIFIED. )
 GEOMETRIC_REPRESENTATION_ITEM ( )  RATIONAL_B_SPLINE_SURFACE ( (
 ( 1.000000000000000000, 1.000000000000000000, 1.000000000000000000, 1.000000000000000000),
 ( 0.3333333333333333703, 0.3333333333333333703, 0.3333333333333333703, 0.3333333333333333703),
 ( 0.3333333333333333703, 0.3333333333333333703, 0.3333333333333333703, 0.3333333333333333703),
 ( 1.000000000000000000, 1.000000000000000000, 1.000000000000000000, 1.000000000000000000),
 ( 0.3333333333333333703, 0.3333333333333333703, 0.3333333333333333703, 0.3333333333333333703),
 ( 0.3333333333333333703, 0.3333333333333333703, 0.3333333333333333703, 0.3333333333333333703),
 ( 1.000000000000000000, 1.000000000000000000, 1.000000000000000000, 1.000000000000000000) ) )
 REPRESENTATION_ITEM ( '' )  SURFACE ( )  );
#90 = CC_DESIGN_APPROVAL ( #150, ( #142 ) ) ;
#91 = CLOSED_SHELL ( 'NONE', ( #8, #213, #107, #72 ) ) ;
#92 = CARTESIAN_POINT ( 'NONE',  ( -6.999999999999998224, 14.32233603643233977, 32.28132223838400705 ) ) ;
#93 = APPROVAL_PERSON_ORGANIZATION ( #14, #24, #156 ) ;
#94 = CARTESIAN_POINT ( 'NONE',  ( 0.000000000000000000, 0.000000000000000000, 0.000000000000000000 ) ) ;
#95 = CARTESIAN_POINT ( 'NONE',  ( 0.000000000000000000, 1.000000000000000000, 49.00000000000000000 ) ) ;
#96 = DIRECTION ( 'NONE',  ( 0.000000000000000000, 0.000000000000000000, 1.000000000000000000 ) ) ;
#97 =( GEOMETRIC_REPRESENTATION_CONTEXT ( 3 ) GLOBAL_UNCERTAINTY_ASSIGNED_CONTEXT ( ( #46 ) ) GLOBAL_UNIT_ASSIGNED_CONTEXT ( ( #47, #49, #206 ) ) REPRESENTATION_CONTEXT ( 'NONE', 'WORKASPACE' ) );
#98 = CARTESIAN_POINT ( 'NONE',  ( -7.000000000000000000, 1.000000000000000888, 49.00000000000000000 ) ) ;
#99 = CALENDAR_DATE ( 2026, 26, 7 ) ;
#100 = MECHANICAL_CONTEXT ( 'NONE', #182, 'mechanical' ) ;
#101 = APPROVAL_DATE_TIME ( #155, #24 ) ;
#102 = AXIS2_PLACEMENT_3D ( 'NONE', #94, #185, #188 ) ;
#103 = DATE_TIME_ROLE ( 'classification_date' ) ;
#104 = PERSON_AND_ORGANIZATION_ROLE ( 'design_supplier' ) ;
#105 = CARTESIAN_POINT ( 'NONE',  ( -6.999999999999998224, 14.00000000000000000, 0.000000000000000000 ) ) ;
#106 = CARTESIAN_POINT ( 'NONE',  ( 7.000000000000000000, -12.98785755079443938, 49.58295895111329088 ) ) ;
#107 = ADVANCED_FACE ( 'NONE', ( #168 ), #10, .T. ) ;
#108 = DIRECTION ( 'NONE',  ( 0.000000000000000000, 0.000000000000000000, 1.000000000000000000 ) ) ;
#109 = PRODUCT_DEFINITION_SHAPE ( 'NONE', 'NONE',  #195 ) ;
#110 = CARTESIAN_POINT ( 'NONE',  ( 7.000000000000000000, -0.006942937893945239601, 16.33687749330107764 ) ) ;
#111 = CARTESIAN_POINT ( 'NONE',  ( 7.000000000000000000, 0.000000000000000000, 0.000000000000000000 ) ) ;
#112 = CARTESIAN_POINT ( 'NONE',  ( -6.999999999999998224, 14.00000000000000000, 0.000000000000000000 ) ) ;
#113 = AXIS2_PLACEMENT_3D ( 'NONE', #95, #77, #26 ) ;
#114 = AXIS2_PLACEMENT_3D ( 'NONE', #60, #108, #152 ) ;
#115 = CARTESIAN_POINT ( 'NONE',  ( 0.000000000000000000, 0.000000000000000000, 0.000000000000000000 ) ) ;
#116 = CALENDAR_DATE ( 2026, 26, 7 ) ;
#117 = EDGE_CURVE ( 'NONE', #58, #146, #20, .T. ) ;
#118 = COORDINATED_UNIVERSAL_TIME_OFFSET ( 8, 0, .AHEAD. ) ;
#119 = LOCAL_TIME ( 23, 46, 41.00000000000000000, #1 ) ;
#120 = PERSON_AND_ORGANIZATION ( #134, #129 ) ;
#121 = AXIS2_PLACEMENT_3D ( 'NONE', #44, #147, #61 ) ;
#122 = COORDINATED_UNIVERSAL_TIME_OFFSET ( 8, 0, .AHEAD. ) ;
#123 = CARTESIAN_POINT ( 'NONE',  ( 7.000000000000000000, 14.00000000000000000, 0.000000000000000000 ) ) ;
#124 = CC_DESIGN_PERSON_AND_ORGANIZATION_ASSIGNMENT ( #51, #158, ( #142 ) ) ;
#125 = ORIENTED_EDGE ( 'NONE', *, *, #63, .F. ) ;
#126 = PERSON_AND_ORGANIZATION ( #134, #129 ) ;
#127 = VERTEX_POINT ( 'NONE', #130 ) ;
#128 = EDGE_CURVE ( 'NONE', #127, #146, #165, .T. ) ;
#129 = ORGANIZATION ( '未指定', '未指定', '' ) ;
#130 = CARTESIAN_POINT ( 'NONE',  ( 7.000000000000000000, 1.000000000000000000, 49.00000000000000000 ) ) ;
#131 = CARTESIAN_POINT ( 'NONE',  ( -7.000000000000000000, 1.000000000000000888, 49.00000000000000000 ) ) ;
#132 = LOCAL_TIME ( 23, 46, 41.00000000000000000, #122 ) ;
#133 = CARTESIAN_POINT ( 'NONE',  ( 0.000000000000000000, 1.000000000000000000, 49.00000000000000000 ) ) ;
#134 = PERSON ( '未指定', '未指定', '未指定', ('未指定'), ('未指定'), ('未指定') ) ;
#135 = CARTESIAN_POINT ( 'NONE',  ( -7.000000000000000000, 8.572527594031473190E-16, 0.000000000000000000 ) ) ;
#136 = CARTESIAN_POINT ( 'NONE',  ( -6.999999999999998224, 13.99305706212022749, 16.14247698840287981 ) ) ;
#137 = CARTESIAN_POINT ( 'NONE',  ( 7.000000000000000000, 0.000000000000000000, 0.000000000000000000 ) ) ;
#138 = CARTESIAN_POINT ( 'NONE',  ( 7.000000000000000000, -14.00694293790811429, 16.53127799819926835 ) ) ;
#139 = CARTESIAN_POINT ( 'NONE',  ( 7.000000000000000000, -13.66955524554955126, 33.05909941516636508 ) ) ;
#140 = CARTESIAN_POINT ( 'NONE',  ( -7.000000000000002665, -12.98785755079443938, 49.58295895111329088 ) ) ;
#141 = APPROVAL_ROLE ( '' ) ;
#142 = SECURITY_CLASSIFICATION ( '', '', #160 ) ;
#143 = APPROVAL_DATE_TIME ( #71, #150 ) ;
#144 = ORIENTED_EDGE ( 'NONE', *, *, #128, .F. ) ;
#145 = CIRCLE ( 'NONE', #35, 7.000000000000000000 ) ;
#146 = VERTEX_POINT ( 'NONE', #131 ) ;
#147 = DIRECTION ( 'NONE',  ( -0.000000000000000000, 0.04163992507952025274, 0.9991326821996024954 ) ) ;
#148 = CARTESIAN_POINT ( 'NONE',  ( -7.000000000000000000, 0.3263903954413950870, 32.67021082677518251 ) ) ;
#149 = CARTESIAN_POINT ( 'NONE',  ( 7.000000000000000000, 1.000000000000000000, 49.00000000000000000 ) ) ;
#150 = APPROVAL ( #181, '未指定' ) ;
#151 = CARTESIAN_POINT ( 'NONE',  ( 7.000000000000000000, 13.99305706212022749, 16.14247698840287981 ) ) ;
#152 = DIRECTION ( 'NONE',  ( 1.000000000000000000, 0.000000000000000000, -0.000000000000000000 ) ) ;
#153 = CARTESIAN_POINT ( 'NONE',  ( 7.000000000000000000, 1.000000000000000000, 49.00000000000000000 ) ) ;
#154 = APPROVAL_ROLE ( '' ) ;
#155 = DATE_AND_TIME ( #116, #157 ) ;
#156 = APPROVAL_ROLE ( '' ) ;
#157 = LOCAL_TIME ( 23, 46, 41.00000000000000000, #32 ) ;
#158 = PERSON_AND_ORGANIZATION_ROLE ( 'classification_officer' ) ;
#159 = AXIS2_PLACEMENT_3D ( 'NONE', #115, #34, #190 ) ;
#160 = SECURITY_CLASSIFICATION_LEVEL ( 'unclassified' ) ;
#161 = VERTEX_POINT ( 'NONE', #41 ) ;
#162 = EDGE_LOOP ( 'NONE', ( #125, #216 ) ) ;
#163 = PERSON_AND_ORGANIZATION ( #134, #129 ) ;
#164 = ORIENTED_EDGE ( 'NONE', *, *, #174, .T. ) ;
#165 = CIRCLE ( 'NONE', #196, 7.000000000000000000 ) ;
#166 = CARTESIAN_POINT ( 'NONE',  ( -6.999999999999998224, 14.98785755079443760, 48.41704104888671623 ) ) ;
#167 = PRODUCT ( 'FN-BRK-006_solar-left-upper-strut_D14_CONCEPT_R0.6', 'FN-BRK-006_solar-left-upper-strut_D14_CONCEPT_R0.6', '', ( #100 ) ) ;
#168 = FACE_OUTER_BOUND ( 'NONE', #52, .T. ) ;
#169 = CARTESIAN_POINT ( 'NONE',  ( 0.000000000000000000, 0.000000000000000000, 0.000000000000000000 ) ) ;
#170 = CARTESIAN_POINT ( 'NONE',  ( 7.000000000000000000, 0.3263903954413942543, 32.67021082677518251 ) ) ;
#171 = B_SPLINE_CURVE_WITH_KNOTS ( 'NONE', 3,
 ( #59, #110, #187, #42 ),
 .UNSPECIFIED., .F., .F.,
 ( 4, 4 ),
 ( 0.000000000000000000, 1.000000000000000000 ),
 .UNSPECIFIED. ) ;
#172 = PRODUCT_DEFINITION_FORMATION_WITH_SPECIFIED_SOURCE ( '任何', '', #167, .NOT_KNOWN. ) ;
#173 = CARTESIAN_POINT ( 'NONE',  ( 7.000000000000000000, -13.66955524554955126, 33.05909941516636508 ) ) ;
#174 = EDGE_CURVE ( 'NONE', #161, #127, #171, .T. ) ;
#175 = DATE_TIME_ROLE ( 'creation_date' ) ;
#176 = PERSON_AND_ORGANIZATION ( #134, #129 ) ;
#177 = CC_DESIGN_PERSON_AND_ORGANIZATION_ASSIGNMENT ( #176, #17, ( #167 ) ) ;
#178 = CARTESIAN_POINT ( 'NONE',  ( -7.000000000000000000, 0.3263903954413950870, 32.67021082677518251 ) ) ;
#179 = CARTESIAN_POINT ( 'NONE',  ( 7.000000000000000000, 13.99305706212022749, 16.14247698840287981 ) ) ;
#180 = EDGE_LOOP ( 'NONE', ( #198, #73, #164, #54 ) ) ;
#181 = APPROVAL_STATUS ( 'not_yet_approved' ) ;
#182 = APPLICATION_CONTEXT ( 'configuration controlled 3d designs of mechanical parts and assemblies' ) ;
#183 = CARTESIAN_POINT ( 'NONE',  ( -6.999999999999998224, 13.99305706212022749, 16.14247698840287981 ) ) ;
#184 = CARTESIAN_POINT ( 'NONE',  ( 7.000000000000000000, 14.00000000000000000, 0.000000000000000000 ) ) ;
#185 = DIRECTION ( 'NONE',  ( 0.000000000000000000, 0.000000000000000000, 1.000000000000000000 ) ) ;
#186 = CARTESIAN_POINT ( 'NONE',  ( -7.000000000000000000, 8.572527594031473190E-16, 0.000000000000000000 ) ) ;
#187 = CARTESIAN_POINT ( 'NONE',  ( 7.000000000000000000, 0.3263903954413942543, 32.67021082677518251 ) ) ;
#188 = DIRECTION ( 'NONE',  ( 1.000000000000000000, 0.000000000000000000, 0.000000000000000000 ) ) ;
#189 = APPLICATION_CONTEXT ( 'configuration controlled 3d designs of mechanical parts and assemblies' ) ;
#190 = DIRECTION ( 'NONE',  ( 1.000000000000000000, 0.000000000000000000, 0.000000000000000000 ) ) ;
#191 = PERSON_AND_ORGANIZATION_ROLE ( 'creator' ) ;
#192 = CARTESIAN_POINT ( 'NONE',  ( -7.000000000000000000, 1.000000000000000888, 49.00000000000000000 ) ) ;
#193 = CARTESIAN_POINT ( 'NONE',  ( -7.000000000000002665, -13.66955524554955126, 33.05909941516635087 ) ) ;
#194 = CC_DESIGN_DATE_AND_TIME_ASSIGNMENT ( #87, #175, ( #195 ) ) ;
#195 = PRODUCT_DEFINITION ( '未知', '', #172, #215 ) ;
#196 = AXIS2_PLACEMENT_3D ( 'NONE', #133, #220, #221 ) ;
#197 = PERSON_AND_ORGANIZATION_ROLE ( 'creator' ) ;
#198 = ORIENTED_EDGE ( 'NONE', *, *, #117, .F. ) ;
#199 = CARTESIAN_POINT ( 'NONE',  ( 7.000000000000000000, 0.000000000000000000, 0.000000000000000000 ) ) ;
#200 = ORIENTED_EDGE ( 'NONE', *, *, #117, .T. ) ;
#201 = CARTESIAN_POINT ( 'NONE',  ( -7.000000000000000000, 0.3263903954413950870, 32.67021082677518251 ) ) ;
#202 = CC_DESIGN_DATE_AND_TIME_ASSIGNMENT ( #50, #103, ( #142 ) ) ;
#203 = CARTESIAN_POINT ( 'NONE',  ( 7.000000000000000000, -0.006942937893945239601, 16.33687749330107764 ) ) ;
#204 = CARTESIAN_POINT ( 'NONE',  ( -7.000000000000000000, 1.000000000000000888, 49.00000000000000000 ) ) ;
#205 = CARTESIAN_POINT ( 'NONE',  ( 7.000000000000000000, 14.98785755079443760, 48.41704104888671623 ) ) ;
#206 =( NAMED_UNIT ( * ) SI_UNIT ( $, .STERADIAN. ) SOLID_ANGLE_UNIT ( ) );
#207 = CARTESIAN_POINT ( 'NONE',  ( -7.000000000000002665, -14.00000000000000000, 0.000000000000000000 ) ) ;
#208 = LOCAL_TIME ( 23, 46, 41.00000000000000000, #118 ) ;
#209 = CC_DESIGN_PERSON_AND_ORGANIZATION_ASSIGNMENT ( #83, #191, ( #195 ) ) ;
#210 = APPLICATION_PROTOCOL_DEFINITION ( 'international standard', 'config_control_design', 1994, #182 ) ;
#211 = CALENDAR_DATE ( 2026, 26, 7 ) ;
#212 = COORDINATED_UNIVERSAL_TIME_OFFSET ( 8, 0, .AHEAD. ) ;
#213 = ADVANCED_FACE ( 'NONE', ( #224 ), #89, .T. ) ;
#214 = CALENDAR_DATE ( 2026, 26, 7 ) ;
#215 = DESIGN_CONTEXT ( 'detailed design', #189, 'design' ) ;
#216 = ORIENTED_EDGE ( 'NONE', *, *, #64, .F. ) ;
#217 = CC_DESIGN_APPROVAL ( #69, ( #172 ) ) ;
#218 = ORIENTED_EDGE ( 'NONE', *, *, #63, .T. ) ;
#219 = CIRCLE ( 'NONE', #113, 7.000000000000000000 ) ;
#220 = DIRECTION ( 'NONE',  ( 0.000000000000000000, 0.04163992507952025274, 0.9991326821996026064 ) ) ;
#221 = DIRECTION ( 'NONE',  ( 1.000000000000000000, 0.000000000000000000, 0.000000000000000000 ) ) ;
#222 = DIRECTION ( 'NONE',  ( 1.000000000000000000, 0.000000000000000000, 0.000000000000000000 ) ) ;
#223 = CARTESIAN_POINT ( 'NONE',  ( -7.000000000000000000, 8.572527594031473190E-16, 0.000000000000000000 ) ) ;
#224 = FACE_OUTER_BOUND ( 'NONE', #180, .T. ) ;
#225 = CARTESIAN_POINT ( 'NONE',  ( -7.000000000000000000, -0.006942937893944382648, 16.33687749330107764 ) ) ;
ENDSEC;
END-ISO-10303-21;
