ISO-10303-21;
HEADER;
FILE_DESCRIPTION (( 'STEP AP203' ),
    '1' );
FILE_NAME ('FN-BRK-003_enclosure-mount-28x28x18_CONCEPT_R0.6.STEP',
    '2026-07-26T15:42:25',
    ( '' ),
    ( '' ),
    'SwSTEP 2.0',
    'SolidWorks 2022',
    '' );
FILE_SCHEMA (( 'CONFIG_CONTROL_DESIGN' ));
ENDSEC;

DATA;
#1 = EDGE_LOOP ( 'NONE', ( #219, #171, #189, #77 ) ) ;
#2 = CARTESIAN_POINT ( 'NONE',  ( -14.00000000000000000, 18.00000000000000000, 14.00000000000000000 ) ) ;
#3 = CARTESIAN_POINT ( 'NONE',  ( -14.00000000000000000, 0.000000000000000000, 14.00000000000000000 ) ) ;
#4 = EDGE_CURVE ( 'NONE', #187, #117, #6, .T. ) ;
#5 = AXIS2_PLACEMENT_3D ( 'NONE', #118, #43, #186 ) ;
#6 = LINE ( 'NONE', #154, #79 ) ;
#7 =( NAMED_UNIT ( * ) SI_UNIT ( $, .STERADIAN. ) SOLID_ANGLE_UNIT ( ) );
#8 = DIRECTION ( 'NONE',  ( 0.000000000000000000, 0.000000000000000000, -1.000000000000000000 ) ) ;
#9 = APPLICATION_PROTOCOL_DEFINITION ( 'international standard', 'config_control_design', 1994, #222 ) ;
#10 = DIRECTION ( 'NONE',  ( -0.000000000000000000, -0.000000000000000000, 1.000000000000000000 ) ) ;
#11 = ADVANCED_FACE ( 'NONE', ( #82 ), #102, .F. ) ;
#12 = DATE_AND_TIME ( #183, #166 ) ;
#13 = PRODUCT_DEFINITION_FORMATION_WITH_SPECIFIED_SOURCE ( '任何', '', #211, .NOT_KNOWN. ) ;
#14 = PERSON_AND_ORGANIZATION ( #37, #233 ) ;
#15 = ORIENTED_EDGE ( 'NONE', *, *, #180, .F. ) ;
#16 = CALENDAR_DATE ( 2026, 26, 7 ) ;
#17 = VECTOR ( 'NONE', #108, 1000.000000000000000 ) ;
#18 = CALENDAR_DATE ( 2026, 26, 7 ) ;
#19 = ORIENTED_EDGE ( 'NONE', *, *, #149, .T. ) ;
#20 = CC_DESIGN_SECURITY_CLASSIFICATION ( #200, ( #13 ) ) ;
#21 = DESIGN_CONTEXT ( 'detailed design', #41, 'design' ) ;
#22 = EDGE_LOOP ( 'NONE', ( #159, #72, #62, #153 ) ) ;
#23 = ORIENTED_EDGE ( 'NONE', *, *, #57, .T. ) ;
#24 = EDGE_CURVE ( 'NONE', #119, #115, #46, .T. ) ;
#25 = ORIENTED_EDGE ( 'NONE', *, *, #229, .F. ) ;
#26 = LOCAL_TIME ( 23, 42, 25.00000000000000000, #217 ) ;
#27 = ORIENTED_EDGE ( 'NONE', *, *, #4, .T. ) ;
#28 = DIRECTION ( 'NONE',  ( 1.000000000000000000, 0.000000000000000000, 0.000000000000000000 ) ) ;
#29 = DIRECTION ( 'NONE',  ( 0.000000000000000000, 0.000000000000000000, 1.000000000000000000 ) ) ;
#30 = AXIS2_PLACEMENT_3D ( 'NONE', #64, #230, #31 ) ;
#31 = DIRECTION ( 'NONE',  ( 1.000000000000000000, 0.000000000000000000, 0.000000000000000000 ) ) ;
#32 = CARTESIAN_POINT ( 'NONE',  ( -14.00000000000000000, 0.000000000000000000, 14.00000000000000000 ) ) ;
#33 = ADVANCED_FACE ( 'NONE', ( #78 ), #206, .F. ) ;
#34 = CARTESIAN_POINT ( 'NONE',  ( -14.00000000000000000, 0.000000000000000000, -14.00000000000000000 ) ) ;
#35 = PERSON_AND_ORGANIZATION ( #37, #233 ) ;
#36 = COORDINATED_UNIVERSAL_TIME_OFFSET ( 8, 0, .AHEAD. ) ;
#37 = PERSON ( '未指定', '未指定', '未指定', ('未指定'), ('未指定'), ('未指定') ) ;
#38 = APPROVAL_ROLE ( '' ) ;
#39 = VERTEX_POINT ( 'NONE', #172 ) ;
#40 = APPROVAL_DATE_TIME ( #12, #112 ) ;
#41 = APPLICATION_CONTEXT ( 'configuration controlled 3d designs of mechanical parts and assemblies' ) ;
#42 = ORIENTED_EDGE ( 'NONE', *, *, #203, .F. ) ;
#43 = DIRECTION ( 'NONE',  ( 0.000000000000000000, 0.000000000000000000, 1.000000000000000000 ) ) ;
#44 = LINE ( 'NONE', #3, #49 ) ;
#45 = PLANE ( 'NONE',  #81 ) ;
#46 = LINE ( 'NONE', #101, #192 ) ;
#47 = DIRECTION ( 'NONE',  ( 0.000000000000000000, -1.000000000000000000, 0.000000000000000000 ) ) ;
#48 = CARTESIAN_POINT ( 'NONE',  ( 14.00000000000000000, 18.00000000000000000, 14.00000000000000000 ) ) ;
#49 = VECTOR ( 'NONE', #225, 1000.000000000000000 ) ;
#50 = CC_DESIGN_PERSON_AND_ORGANIZATION_ASSIGNMENT ( #160, #129, ( #211 ) ) ;
#51 = PLANE ( 'NONE',  #231 ) ;
#52 = PLANE ( 'NONE',  #199 ) ;
#53 = APPROVAL_STATUS ( 'not_yet_approved' ) ;
#54 = PERSON_AND_ORGANIZATION ( #37, #233 ) ;
#55 = APPLICATION_PROTOCOL_DEFINITION ( 'international standard', 'config_control_design', 1994, #41 ) ;
#56 = COORDINATED_UNIVERSAL_TIME_OFFSET ( 8, 0, .AHEAD. ) ;
#57 = EDGE_CURVE ( 'NONE', #117, #39, #169, .T. ) ;
#58 = ORIENTED_EDGE ( 'NONE', *, *, #67, .T. ) ;
#59 = CC_DESIGN_APPROVAL ( #112, ( #210 ) ) ;
#60 = VERTEX_POINT ( 'NONE', #156 ) ;
#61 = CARTESIAN_POINT ( 'NONE',  ( 14.00000000000000000, 18.00000000000000000, 14.00000000000000000 ) ) ;
#62 = ORIENTED_EDGE ( 'NONE', *, *, #4, .F. ) ;
#63 = VERTEX_POINT ( 'NONE', #137 ) ;
#64 = CARTESIAN_POINT ( 'NONE',  ( 0.000000000000000000, 0.000000000000000000, 0.000000000000000000 ) ) ;
#65 = CARTESIAN_POINT ( 'NONE',  ( 0.000000000000000000, 18.00000000000000000, 0.000000000000000000 ) ) ;
#66 = MECHANICAL_CONTEXT ( 'NONE', #222, 'mechanical' ) ;
#67 = EDGE_CURVE ( 'NONE', #39, #100, #104, .T. ) ;
#68 = VECTOR ( 'NONE', #144, 1000.000000000000000 ) ;
#69 = CC_DESIGN_APPROVAL ( #163, ( #13 ) ) ;
#70 = DIRECTION ( 'NONE',  ( -0.000000000000000000, -1.000000000000000000, -0.000000000000000000 ) ) ;
#71 = LINE ( 'NONE', #34, #68 ) ;
#72 = ORIENTED_EDGE ( 'NONE', *, *, #57, .F. ) ;
#73 = EDGE_CURVE ( 'NONE', #187, #63, #221, .T. ) ;
#74 = SHAPE_DEFINITION_REPRESENTATION ( #142, #139 ) ;
#75 = UNCERTAINTY_MEASURE_WITH_UNIT (LENGTH_MEASURE( 1.000000000000000082E-05 ), #191, 'distance_accuracy_value', 'NONE');
#76 = CARTESIAN_POINT ( 'NONE',  ( 14.00000000000000000, 0.000000000000000000, 14.00000000000000000 ) ) ;
#77 = ORIENTED_EDGE ( 'NONE', *, *, #138, .T. ) ;
#78 = FACE_OUTER_BOUND ( 'NONE', #80, .T. ) ;
#79 = VECTOR ( 'NONE', #28, 1000.000000000000000 ) ;
#80 = EDGE_LOOP ( 'NONE', ( #185, #151, #99, #19 ) ) ;
#81 = AXIS2_PLACEMENT_3D ( 'NONE', #204, #121, #188 ) ;
#82 = FACE_OUTER_BOUND ( 'NONE', #1, .T. ) ;
#83 = DIRECTION ( 'NONE',  ( -1.000000000000000000, 0.000000000000000000, 0.000000000000000000 ) ) ;
#84 = CLOSED_SHELL ( 'NONE', ( #11, #96, #226, #33, #218, #107 ) ) ;
#85 = DIRECTION ( 'NONE',  ( 0.000000000000000000, -0.000000000000000000, -1.000000000000000000 ) ) ;
#86 = CARTESIAN_POINT ( 'NONE',  ( -14.00000000000000000, 18.00000000000000000, -14.00000000000000000 ) ) ;
#87 = DIRECTION ( 'NONE',  ( 0.000000000000000000, -0.000000000000000000, -1.000000000000000000 ) ) ;
#88 = LINE ( 'NONE', #125, #126 ) ;
#89 = PERSON_AND_ORGANIZATION_ROLE ( 'creator' ) ;
#90 = PERSON_AND_ORGANIZATION_ROLE ( 'design_supplier' ) ;
#91 = LOCAL_TIME ( 23, 42, 25.00000000000000000, #56 ) ;
#92 = EDGE_CURVE ( 'NONE', #63, #39, #44, .T. ) ;
#93 = VECTOR ( 'NONE', #10, 1000.000000000000000 ) ;
#94 = VECTOR ( 'NONE', #134, 1000.000000000000000 ) ;
#95 = PERSON_AND_ORGANIZATION ( #37, #233 ) ;
#96 = ADVANCED_FACE ( 'NONE', ( #209 ), #45, .F. ) ;
#97 = EDGE_LOOP ( 'NONE', ( #212, #27, #223, #237 ) ) ;
#98 = DATE_AND_TIME ( #131, #91 ) ;
#99 = ORIENTED_EDGE ( 'NONE', *, *, #24, .F. ) ;
#100 = VERTEX_POINT ( 'NONE', #216 ) ;
#101 = CARTESIAN_POINT ( 'NONE',  ( -14.00000000000000000, 18.00000000000000000, -14.00000000000000000 ) ) ;
#102 = PLANE ( 'NONE',  #116 ) ;
#103 = CC_DESIGN_DATE_AND_TIME_ASSIGNMENT ( #165, #132, ( #200 ) ) ;
#104 = LINE ( 'NONE', #76, #157 ) ;
#105 = LOCAL_TIME ( 23, 42, 25.00000000000000000, #150 ) ;
#106 = FACE_OUTER_BOUND ( 'NONE', #224, .T. ) ;
#107 = ADVANCED_FACE ( 'NONE', ( #143 ), #193, .T. ) ;
#108 = DIRECTION ( 'NONE',  ( -0.000000000000000000, -0.000000000000000000, 1.000000000000000000 ) ) ;
#109 = LINE ( 'NONE', #195, #17 ) ;
#110 =( NAMED_UNIT ( * ) PLANE_ANGLE_UNIT ( ) SI_UNIT ( $, .RADIAN. ) );
#111 = APPROVAL_ROLE ( '' ) ;
#112 = APPROVAL ( #202, '未指定' ) ;
#113 = VECTOR ( 'NONE', #70, 1000.000000000000000 ) ;
#114 = DATE_TIME_ROLE ( 'creation_date' ) ;
#115 = VERTEX_POINT ( 'NONE', #86 ) ;
#116 = AXIS2_PLACEMENT_3D ( 'NONE', #2, #136, #205 ) ;
#117 = VERTEX_POINT ( 'NONE', #214 ) ;
#118 = CARTESIAN_POINT ( 'NONE',  ( -14.00000000000000000, 18.00000000000000000, -14.00000000000000000 ) ) ;
#119 = VERTEX_POINT ( 'NONE', #123 ) ;
#120 = CC_DESIGN_PERSON_AND_ORGANIZATION_ASSIGNMENT ( #54, #89, ( #13 ) ) ;
#121 = DIRECTION ( 'NONE',  ( 0.000000000000000000, 0.000000000000000000, -1.000000000000000000 ) ) ;
#122 = DIRECTION ( 'NONE',  ( -1.000000000000000000, -0.000000000000000000, -0.000000000000000000 ) ) ;
#123 = CARTESIAN_POINT ( 'NONE',  ( 14.00000000000000000, 18.00000000000000000, -14.00000000000000000 ) ) ;
#124 = APPROVAL_PERSON_ORGANIZATION ( #147, #112, #111 ) ;
#125 = CARTESIAN_POINT ( 'NONE',  ( 14.00000000000000000, 18.00000000000000000, -14.00000000000000000 ) ) ;
#126 = VECTOR ( 'NONE', #146, 1000.000000000000000 ) ;
#127 = PRODUCT_RELATED_PRODUCT_CATEGORY ( 'detail', '', ( #211 ) ) ;
#128 = CC_DESIGN_APPROVAL ( #208, ( #200 ) ) ;
#129 = PERSON_AND_ORGANIZATION_ROLE ( 'design_owner' ) ;
#130 = SECURITY_CLASSIFICATION_LEVEL ( 'unclassified' ) ;
#131 = CALENDAR_DATE ( 2026, 26, 7 ) ;
#132 = DATE_TIME_ROLE ( 'classification_date' ) ;
#133 = LOCAL_TIME ( 23, 42, 25.00000000000000000, #36 ) ;
#134 = DIRECTION ( 'NONE',  ( -0.000000000000000000, -1.000000000000000000, -0.000000000000000000 ) ) ;
#135 =( GEOMETRIC_REPRESENTATION_CONTEXT ( 3 ) GLOBAL_UNCERTAINTY_ASSIGNED_CONTEXT ( ( #75 ) ) GLOBAL_UNIT_ASSIGNED_CONTEXT ( ( #191, #110, #7 ) ) REPRESENTATION_CONTEXT ( 'NONE', 'WORKASPACE' ) );
#136 = DIRECTION ( 'NONE',  ( 1.000000000000000000, -0.000000000000000000, 0.000000000000000000 ) ) ;
#137 = CARTESIAN_POINT ( 'NONE',  ( -14.00000000000000000, 0.000000000000000000, 14.00000000000000000 ) ) ;
#138 = EDGE_CURVE ( 'NONE', #115, #60, #232, .T. ) ;
#139 = ADVANCED_BREP_SHAPE_REPRESENTATION ( 'FN-BRK-003_enclosure-mount-28x28x18_CONCEPT_R0.6', ( #207, #30 ), #135 ) ;
#140 = DIRECTION ( 'NONE',  ( 0.000000000000000000, 0.000000000000000000, -1.000000000000000000 ) ) ;
#141 = ORIENTED_EDGE ( 'NONE', *, *, #67, .F. ) ;
#142 = PRODUCT_DEFINITION_SHAPE ( 'NONE', 'NONE',  #210 ) ;
#143 = FACE_OUTER_BOUND ( 'NONE', #179, .T. ) ;
#144 = DIRECTION ( 'NONE',  ( -1.000000000000000000, -0.000000000000000000, -0.000000000000000000 ) ) ;
#145 = CC_DESIGN_PERSON_AND_ORGANIZATION_ASSIGNMENT ( #236, #90, ( #13 ) ) ;
#146 = DIRECTION ( 'NONE',  ( -0.000000000000000000, -1.000000000000000000, -0.000000000000000000 ) ) ;
#147 = PERSON_AND_ORGANIZATION ( #37, #233 ) ;
#148 = PERSON_AND_ORGANIZATION_ROLE ( 'classification_officer' ) ;
#149 = EDGE_CURVE ( 'NONE', #119, #100, #88, .T. ) ;
#150 = COORDINATED_UNIVERSAL_TIME_OFFSET ( 8, 0, .AHEAD. ) ;
#151 = ORIENTED_EDGE ( 'NONE', *, *, #138, .F. ) ;
#152 = CC_DESIGN_PERSON_AND_ORGANIZATION_ASSIGNMENT ( #181, #148, ( #200 ) ) ;
#153 = ORIENTED_EDGE ( 'NONE', *, *, #73, .T. ) ;
#154 = CARTESIAN_POINT ( 'NONE',  ( -14.00000000000000000, 18.00000000000000000, 14.00000000000000000 ) ) ;
#155 = APPROVAL_PERSON_ORGANIZATION ( #35, #163, #38 ) ;
#156 = CARTESIAN_POINT ( 'NONE',  ( -14.00000000000000000, 0.000000000000000000, -14.00000000000000000 ) ) ;
#157 = VECTOR ( 'NONE', #140, 1000.000000000000000 ) ;
#158 = DIRECTION ( 'NONE',  ( -0.000000000000000000, -1.000000000000000000, -0.000000000000000000 ) ) ;
#159 = ORIENTED_EDGE ( 'NONE', *, *, #92, .T. ) ;
#160 = PERSON_AND_ORGANIZATION ( #37, #233 ) ;
#161 = CARTESIAN_POINT ( 'NONE',  ( -14.00000000000000000, 18.00000000000000000, 14.00000000000000000 ) ) ;
#162 = LINE ( 'NONE', #173, #235 ) ;
#163 = APPROVAL ( #178, '未指定' ) ;
#164 = DATE_AND_TIME ( #198, #133 ) ;
#165 = DATE_AND_TIME ( #16, #26 ) ;
#166 = LOCAL_TIME ( 23, 42, 25.00000000000000000, #196 ) ;
#167 = DATE_AND_TIME ( #18, #105 ) ;
#168 = ORIENTED_EDGE ( 'NONE', *, *, #149, .F. ) ;
#169 = LINE ( 'NONE', #61, #182 ) ;
#170 = CARTESIAN_POINT ( 'NONE',  ( -14.00000000000000000, 18.00000000000000000, 14.00000000000000000 ) ) ;
#171 = ORIENTED_EDGE ( 'NONE', *, *, #73, .F. ) ;
#172 = CARTESIAN_POINT ( 'NONE',  ( 14.00000000000000000, 0.000000000000000000, 14.00000000000000000 ) ) ;
#173 = CARTESIAN_POINT ( 'NONE',  ( 14.00000000000000000, 18.00000000000000000, 14.00000000000000000 ) ) ;
#174 = EDGE_CURVE ( 'NONE', #115, #187, #109, .T. ) ;
#175 = DIRECTION ( 'NONE',  ( 0.000000000000000000, -1.000000000000000000, 0.000000000000000000 ) ) ;
#176 = FACE_OUTER_BOUND ( 'NONE', #97, .T. ) ;
#177 = APPROVAL_DATE_TIME ( #167, #163 ) ;
#178 = APPROVAL_STATUS ( 'not_yet_approved' ) ;
#179 = EDGE_LOOP ( 'NONE', ( #42, #15, #141, #227 ) ) ;
#180 = EDGE_CURVE ( 'NONE', #100, #60, #71, .T. ) ;
#181 = PERSON_AND_ORGANIZATION ( #37, #233 ) ;
#182 = VECTOR ( 'NONE', #158, 1000.000000000000000 ) ;
#183 = CALENDAR_DATE ( 2026, 26, 7 ) ;
#184 = CC_DESIGN_PERSON_AND_ORGANIZATION_ASSIGNMENT ( #95, #220, ( #210 ) ) ;
#185 = ORIENTED_EDGE ( 'NONE', *, *, #180, .T. ) ;
#186 = DIRECTION ( 'NONE',  ( 1.000000000000000000, 0.000000000000000000, -0.000000000000000000 ) ) ;
#187 = VERTEX_POINT ( 'NONE', #161 ) ;
#188 = DIRECTION ( 'NONE',  ( -1.000000000000000000, 0.000000000000000000, -0.000000000000000000 ) ) ;
#189 = ORIENTED_EDGE ( 'NONE', *, *, #174, .F. ) ;
#190 = LINE ( 'NONE', #32, #93 ) ;
#191 =( LENGTH_UNIT ( ) NAMED_UNIT ( * ) SI_UNIT ( .MILLI., .METRE. ) );
#192 = VECTOR ( 'NONE', #122, 1000.000000000000000 ) ;
#193 = PLANE ( 'NONE',  #215 ) ;
#194 = CARTESIAN_POINT ( 'NONE',  ( -14.00000000000000000, 18.00000000000000000, -14.00000000000000000 ) ) ;
#195 = CARTESIAN_POINT ( 'NONE',  ( -14.00000000000000000, 18.00000000000000000, 14.00000000000000000 ) ) ;
#196 = COORDINATED_UNIVERSAL_TIME_OFFSET ( 8, 0, .AHEAD. ) ;
#197 = APPROVAL_DATE_TIME ( #164, #208 ) ;
#198 = CALENDAR_DATE ( 2026, 26, 7 ) ;
#199 = AXIS2_PLACEMENT_3D ( 'NONE', #65, #47, #87 ) ;
#200 = SECURITY_CLASSIFICATION ( '', '', #130 ) ;
#201 = CC_DESIGN_DATE_AND_TIME_ASSIGNMENT ( #98, #114, ( #210 ) ) ;
#202 = APPROVAL_STATUS ( 'not_yet_approved' ) ;
#203 = EDGE_CURVE ( 'NONE', #60, #63, #190, .T. ) ;
#204 = CARTESIAN_POINT ( 'NONE',  ( -14.00000000000000000, 18.00000000000000000, 14.00000000000000000 ) ) ;
#205 = DIRECTION ( 'NONE',  ( 0.000000000000000000, 0.000000000000000000, -1.000000000000000000 ) ) ;
#206 = PLANE ( 'NONE',  #5 ) ;
#207 = MANIFOLD_SOLID_BREP ( '凸台-拉伸1', #84 ) ;
#208 = APPROVAL ( #53, '未指定' ) ;
#209 = FACE_OUTER_BOUND ( 'NONE', #22, .T. ) ;
#210 = PRODUCT_DEFINITION ( '未知', '', #13, #21 ) ;
#211 = PRODUCT ( 'FN-BRK-003_enclosure-mount-28x28x18_CONCEPT_R0.6', 'FN-BRK-003_enclosure-mount-28x28x18_CONCEPT_R0.6', '', ( #66 ) ) ;
#212 = ORIENTED_EDGE ( 'NONE', *, *, #174, .T. ) ;
#213 = CARTESIAN_POINT ( 'NONE',  ( 0.000000000000000000, 0.000000000000000000, 0.000000000000000000 ) ) ;
#214 = CARTESIAN_POINT ( 'NONE',  ( 14.00000000000000000, 18.00000000000000000, 14.00000000000000000 ) ) ;
#215 = AXIS2_PLACEMENT_3D ( 'NONE', #213, #175, #85 ) ;
#216 = CARTESIAN_POINT ( 'NONE',  ( 14.00000000000000000, 0.000000000000000000, -14.00000000000000000 ) ) ;
#217 = COORDINATED_UNIVERSAL_TIME_OFFSET ( 8, 0, .AHEAD. ) ;
#218 = ADVANCED_FACE ( 'NONE', ( #176 ), #52, .F. ) ;
#219 = ORIENTED_EDGE ( 'NONE', *, *, #203, .T. ) ;
#220 = PERSON_AND_ORGANIZATION_ROLE ( 'creator' ) ;
#221 = LINE ( 'NONE', #170, #94 ) ;
#222 = APPLICATION_CONTEXT ( 'configuration controlled 3d designs of mechanical parts and assemblies' ) ;
#223 = ORIENTED_EDGE ( 'NONE', *, *, #229, .T. ) ;
#224 = EDGE_LOOP ( 'NONE', ( #58, #168, #25, #23 ) ) ;
#225 = DIRECTION ( 'NONE',  ( 1.000000000000000000, 0.000000000000000000, 0.000000000000000000 ) ) ;
#226 = ADVANCED_FACE ( 'NONE', ( #106 ), #51, .F. ) ;
#227 = ORIENTED_EDGE ( 'NONE', *, *, #92, .F. ) ;
#228 = APPROVAL_PERSON_ORGANIZATION ( #14, #208, #234 ) ;
#229 = EDGE_CURVE ( 'NONE', #117, #119, #162, .T. ) ;
#230 = DIRECTION ( 'NONE',  ( 0.000000000000000000, 0.000000000000000000, 1.000000000000000000 ) ) ;
#231 = AXIS2_PLACEMENT_3D ( 'NONE', #48, #83, #29 ) ;
#232 = LINE ( 'NONE', #194, #113 ) ;
#233 = ORGANIZATION ( '未指定', '未指定', '' ) ;
#234 = APPROVAL_ROLE ( '' ) ;
#235 = VECTOR ( 'NONE', #8, 1000.000000000000000 ) ;
#236 = PERSON_AND_ORGANIZATION ( #37, #233 ) ;
#237 = ORIENTED_EDGE ( 'NONE', *, *, #24, .T. ) ;
ENDSEC;
END-ISO-10303-21;
