ISO-10303-21;
HEADER;
FILE_DESCRIPTION (( 'STEP AP203' ),
    '1' );
FILE_NAME ('FN-ENC-006_lid-envelope_NOMINAL_R0.6.STEP',
    '2026-07-26T15:42:20',
    ( '' ),
    ( '' ),
    'SwSTEP 2.0',
    'SolidWorks 2022',
    '' );
FILE_SCHEMA (( 'CONFIG_CONTROL_DESIGN' ));
ENDSEC;

DATA;
#1 = APPLICATION_PROTOCOL_DEFINITION ( 'international standard', 'config_control_design', 1994, #11 ) ;
#2 = CC_DESIGN_PERSON_AND_ORGANIZATION_ASSIGNMENT ( #62, #130, ( #26 ) ) ;
#3 = SECURITY_CLASSIFICATION_LEVEL ( 'unclassified' ) ;
#4 = VERTEX_POINT ( 'NONE', #211 ) ;
#5 = EDGE_CURVE ( 'NONE', #134, #157, #124, .T. ) ;
#6 = PRODUCT ( 'FN-ENC-006_lid-envelope_NOMINAL_R0.6', 'FN-ENC-006_lid-envelope_NOMINAL_R0.6', '', ( #78 ) ) ;
#7 = ORIENTED_EDGE ( 'NONE', *, *, #125, .T. ) ;
#8 = CALENDAR_DATE ( 2026, 26, 7 ) ;
#9 = DIRECTION ( 'NONE',  ( 0.000000000000000000, 0.000000000000000000, -1.000000000000000000 ) ) ;
#10 = LINE ( 'NONE', #12, #119 ) ;
#11 = APPLICATION_CONTEXT ( 'configuration controlled 3d designs of mechanical parts and assemblies' ) ;
#12 = CARTESIAN_POINT ( 'NONE',  ( 158.9499999999999886, 53.50000000000000000, -119.4500000000000028 ) ) ;
#13 = EDGE_CURVE ( 'NONE', #4, #157, #10, .T. ) ;
#14 = CARTESIAN_POINT ( 'NONE',  ( 158.9499999999999886, 53.50000000000000000, 119.4500000000000028 ) ) ;
#15 = CARTESIAN_POINT ( 'NONE',  ( -158.9499999999999886, 53.50000000000000000, -119.4500000000000028 ) ) ;
#16 = CARTESIAN_POINT ( 'NONE',  ( -158.9499999999999886, 53.50000000000000000, 119.4500000000000028 ) ) ;
#17 = EDGE_CURVE ( 'NONE', #96, #45, #162, .T. ) ;
#18 = DATE_AND_TIME ( #77, #61 ) ;
#19 =( NAMED_UNIT ( * ) SI_UNIT ( $, .STERADIAN. ) SOLID_ANGLE_UNIT ( ) );
#20 = DATE_AND_TIME ( #218, #129 ) ;
#21 = CC_DESIGN_APPROVAL ( #40, ( #64 ) ) ;
#22 = SECURITY_CLASSIFICATION ( '', '', #3 ) ;
#23 = EDGE_CURVE ( 'NONE', #100, #134, #159, .T. ) ;
#24 = PERSON_AND_ORGANIZATION_ROLE ( 'classification_officer' ) ;
#25 = ORIENTED_EDGE ( 'NONE', *, *, #53, .F. ) ;
#26 = PRODUCT_DEFINITION_FORMATION_WITH_SPECIFIED_SOURCE ( '任何', '', #6, .NOT_KNOWN. ) ;
#27 = APPLICATION_CONTEXT ( 'configuration controlled 3d designs of mechanical parts and assemblies' ) ;
#28 = ORIENTED_EDGE ( 'NONE', *, *, #217, .F. ) ;
#29 = CLOSED_SHELL ( 'NONE', ( #174, #90, #168, #190, #154, #133 ) ) ;
#30 = VERTEX_POINT ( 'NONE', #85 ) ;
#31 = ORIENTED_EDGE ( 'NONE', *, *, #23, .F. ) ;
#32 = PLANE ( 'NONE',  #135 ) ;
#33 = FACE_OUTER_BOUND ( 'NONE', #187, .T. ) ;
#34 = AXIS2_PLACEMENT_3D ( 'NONE', #103, #142, #56 ) ;
#35 = CARTESIAN_POINT ( 'NONE',  ( -158.9499999999999886, 53.50000000000000000, -119.4500000000000028 ) ) ;
#36 = DIRECTION ( 'NONE',  ( 0.000000000000000000, -0.000000000000000000, -1.000000000000000000 ) ) ;
#37 = DIRECTION ( 'NONE',  ( 1.000000000000000000, 0.000000000000000000, 0.000000000000000000 ) ) ;
#38 = DATE_AND_TIME ( #200, #121 ) ;
#39 = PERSON ( '未指定', '未指定', '未指定', ('未指定'), ('未指定'), ('未指定') ) ;
#40 = APPROVAL ( #165, '未指定' ) ;
#41 =( LENGTH_UNIT ( ) NAMED_UNIT ( * ) SI_UNIT ( .MILLI., .METRE. ) );
#42 = APPROVAL_ROLE ( '' ) ;
#43 = ORIENTED_EDGE ( 'NONE', *, *, #23, .T. ) ;
#44 = VECTOR ( 'NONE', #60, 1000.000000000000000 ) ;
#45 = VERTEX_POINT ( 'NONE', #210 ) ;
#46 = LOCAL_TIME ( 23, 42, 20.00000000000000000, #52 ) ;
#47 = ORIENTED_EDGE ( 'NONE', *, *, #233, .T. ) ;
#48 = DATE_AND_TIME ( #8, #126 ) ;
#49 = APPROVAL ( #69, '未指定' ) ;
#50 = MANIFOLD_SOLID_BREP ( '凸台-拉伸1', #29 ) ;
#51 = CARTESIAN_POINT ( 'NONE',  ( -158.9499999999999886, 0.000000000000000000, 119.4500000000000028 ) ) ;
#52 = COORDINATED_UNIVERSAL_TIME_OFFSET ( 8, 0, .AHEAD. ) ;
#53 = EDGE_CURVE ( 'NONE', #30, #163, #231, .T. ) ;
#54 = LINE ( 'NONE', #51, #65 ) ;
#55 = PRODUCT_DEFINITION_SHAPE ( 'NONE', 'NONE',  #64 ) ;
#56 = DIRECTION ( 'NONE',  ( 0.000000000000000000, 0.000000000000000000, -1.000000000000000000 ) ) ;
#57 = VECTOR ( 'NONE', #84, 1000.000000000000000 ) ;
#58 = DIRECTION ( 'NONE',  ( 1.000000000000000000, 0.000000000000000000, 0.000000000000000000 ) ) ;
#59 = DIRECTION ( 'NONE',  ( 0.000000000000000000, 0.000000000000000000, 1.000000000000000000 ) ) ;
#60 = DIRECTION ( 'NONE',  ( -0.000000000000000000, -0.000000000000000000, 1.000000000000000000 ) ) ;
#61 = LOCAL_TIME ( 23, 42, 20.00000000000000000, #80 ) ;
#62 = PERSON_AND_ORGANIZATION ( #39, #149 ) ;
#63 = DIRECTION ( 'NONE',  ( 1.000000000000000000, 0.000000000000000000, 0.000000000000000000 ) ) ;
#64 = PRODUCT_DEFINITION ( '未知', '', #26, #192 ) ;
#65 = VECTOR ( 'NONE', #58, 1000.000000000000000 ) ;
#66 = ORIENTED_EDGE ( 'NONE', *, *, #13, .T. ) ;
#67 = VECTOR ( 'NONE', #91, 1000.000000000000000 ) ;
#68 = ORIENTED_EDGE ( 'NONE', *, *, #153, .T. ) ;
#69 = APPROVAL_STATUS ( 'not_yet_approved' ) ;
#70 = EDGE_CURVE ( 'NONE', #163, #134, #54, .T. ) ;
#71 = PERSON_AND_ORGANIZATION ( #39, #149 ) ;
#72 = LINE ( 'NONE', #234, #237 ) ;
#73 = DATE_AND_TIME ( #101, #46 ) ;
#74 = DIRECTION ( 'NONE',  ( 0.000000000000000000, -1.000000000000000000, 0.000000000000000000 ) ) ;
#75 = PLANE ( 'NONE',  #219 ) ;
#76 = FACE_OUTER_BOUND ( 'NONE', #99, .T. ) ;
#77 = CALENDAR_DATE ( 2026, 26, 7 ) ;
#78 = MECHANICAL_CONTEXT ( 'NONE', #11, 'mechanical' ) ;
#79 = VECTOR ( 'NONE', #37, 1000.000000000000000 ) ;
#80 = COORDINATED_UNIVERSAL_TIME_OFFSET ( 8, 0, .AHEAD. ) ;
#81 = EDGE_LOOP ( 'NONE', ( #172, #207, #137, #43 ) ) ;
#82 = CC_DESIGN_DATE_AND_TIME_ASSIGNMENT ( #20, #93, ( #64 ) ) ;
#83 = ORIENTED_EDGE ( 'NONE', *, *, #70, .F. ) ;
#84 = DIRECTION ( 'NONE',  ( -0.000000000000000000, -1.000000000000000000, -0.000000000000000000 ) ) ;
#85 = CARTESIAN_POINT ( 'NONE',  ( -158.9499999999999886, 53.50000000000000000, 119.4500000000000028 ) ) ;
#86 = LINE ( 'NONE', #139, #146 ) ;
#87 = EDGE_LOOP ( 'NONE', ( #171, #185, #155, #83 ) ) ;
#88 = DIRECTION ( 'NONE',  ( -0.000000000000000000, -1.000000000000000000, -0.000000000000000000 ) ) ;
#89 = CC_DESIGN_DATE_AND_TIME_ASSIGNMENT ( #73, #189, ( #22 ) ) ;
#90 = ADVANCED_FACE ( 'NONE', ( #76 ), #104, .F. ) ;
#91 = DIRECTION ( 'NONE',  ( -0.000000000000000000, -0.000000000000000000, 1.000000000000000000 ) ) ;
#92 =( GEOMETRIC_REPRESENTATION_CONTEXT ( 3 ) GLOBAL_UNCERTAINTY_ASSIGNED_CONTEXT ( ( #156 ) ) GLOBAL_UNIT_ASSIGNED_CONTEXT ( ( #41, #236, #19 ) ) REPRESENTATION_CONTEXT ( 'NONE', 'WORKASPACE' ) );
#93 = DATE_TIME_ROLE ( 'creation_date' ) ;
#94 = CC_DESIGN_SECURITY_CLASSIFICATION ( #22, ( #26 ) ) ;
#95 = ORIENTED_EDGE ( 'NONE', *, *, #206, .F. ) ;
#96 = VERTEX_POINT ( 'NONE', #178 ) ;
#97 = VECTOR ( 'NONE', #9, 1000.000000000000000 ) ;
#98 = APPROVAL ( #197, '未指定' ) ;
#99 = EDGE_LOOP ( 'NONE', ( #170, #31, #28, #115 ) ) ;
#100 = VERTEX_POINT ( 'NONE', #161 ) ;
#101 = CALENDAR_DATE ( 2026, 26, 7 ) ;
#102 = DIRECTION ( 'NONE',  ( 0.000000000000000000, 0.000000000000000000, -1.000000000000000000 ) ) ;
#103 = CARTESIAN_POINT ( 'NONE',  ( -158.9499999999999886, 53.50000000000000000, 119.4500000000000028 ) ) ;
#104 = PLANE ( 'NONE',  #123 ) ;
#105 = AXIS2_PLACEMENT_3D ( 'NONE', #229, #74, #36 ) ;
#106 = DIRECTION ( 'NONE',  ( 0.000000000000000000, -1.000000000000000000, 0.000000000000000000 ) ) ;
#107 = DIRECTION ( 'NONE',  ( -1.000000000000000000, 0.000000000000000000, 0.000000000000000000 ) ) ;
#108 = EDGE_CURVE ( 'NONE', #157, #45, #86, .T. ) ;
#109 = LINE ( 'NONE', #16, #67 ) ;
#110 = PERSON_AND_ORGANIZATION_ROLE ( 'design_owner' ) ;
#111 = CARTESIAN_POINT ( 'NONE',  ( -158.9499999999999886, 0.000000000000000000, 119.4500000000000028 ) ) ;
#112 = APPROVAL_DATE_TIME ( #38, #40 ) ;
#113 = VECTOR ( 'NONE', #208, 1000.000000000000000 ) ;
#114 = ORIENTED_EDGE ( 'NONE', *, *, #17, .F. ) ;
#115 = ORIENTED_EDGE ( 'NONE', *, *, #53, .T. ) ;
#116 = DIRECTION ( 'NONE',  ( -1.000000000000000000, -0.000000000000000000, -0.000000000000000000 ) ) ;
#117 = CARTESIAN_POINT ( 'NONE',  ( 158.9499999999999886, 0.000000000000000000, -119.4500000000000028 ) ) ;
#118 = FACE_OUTER_BOUND ( 'NONE', #203, .T. ) ;
#119 = VECTOR ( 'NONE', #88, 1000.000000000000000 ) ;
#120 = DIRECTION ( 'NONE',  ( -1.000000000000000000, 0.000000000000000000, -0.000000000000000000 ) ) ;
#121 = LOCAL_TIME ( 23, 42, 20.00000000000000000, #151 ) ;
#122 = CC_DESIGN_PERSON_AND_ORGANIZATION_ASSIGNMENT ( #145, #110, ( #6 ) ) ;
#123 = AXIS2_PLACEMENT_3D ( 'NONE', #173, #230, #120 ) ;
#124 = LINE ( 'NONE', #176, #97 ) ;
#125 = EDGE_CURVE ( 'NONE', #100, #4, #72, .T. ) ;
#126 = LOCAL_TIME ( 23, 42, 20.00000000000000000, #138 ) ;
#127 = COORDINATED_UNIVERSAL_TIME_OFFSET ( 8, 0, .AHEAD. ) ;
#128 = PERSON_AND_ORGANIZATION_ROLE ( 'creator' ) ;
#129 = LOCAL_TIME ( 23, 42, 20.00000000000000000, #127 ) ;
#130 = PERSON_AND_ORGANIZATION_ROLE ( 'design_supplier' ) ;
#131 = APPROVAL_ROLE ( '' ) ;
#132 = CARTESIAN_POINT ( 'NONE',  ( -158.9499999999999886, 53.50000000000000000, -119.4500000000000028 ) ) ;
#133 = ADVANCED_FACE ( 'NONE', ( #143 ), #177, .T. ) ;
#134 = VERTEX_POINT ( 'NONE', #194 ) ;
#135 = AXIS2_PLACEMENT_3D ( 'NONE', #141, #106, #209 ) ;
#136 = ORIENTED_EDGE ( 'NONE', *, *, #217, .T. ) ;
#137 = ORIENTED_EDGE ( 'NONE', *, *, #125, .F. ) ;
#138 = COORDINATED_UNIVERSAL_TIME_OFFSET ( 8, 0, .AHEAD. ) ;
#139 = CARTESIAN_POINT ( 'NONE',  ( -158.9499999999999886, 0.000000000000000000, -119.4500000000000028 ) ) ;
#140 = APPROVAL_DATE_TIME ( #48, #49 ) ;
#141 = CARTESIAN_POINT ( 'NONE',  ( 0.000000000000000000, 53.50000000000000000, 0.000000000000000000 ) ) ;
#142 = DIRECTION ( 'NONE',  ( 1.000000000000000000, -0.000000000000000000, 0.000000000000000000 ) ) ;
#143 = FACE_OUTER_BOUND ( 'NONE', #87, .T. ) ;
#144 = FACE_OUTER_BOUND ( 'NONE', #226, .T. ) ;
#145 = PERSON_AND_ORGANIZATION ( #39, #149 ) ;
#146 = VECTOR ( 'NONE', #116, 1000.000000000000000 ) ;
#147 = CC_DESIGN_APPROVAL ( #49, ( #22 ) ) ;
#148 = PERSON_AND_ORGANIZATION ( #39, #149 ) ;
#149 = ORGANIZATION ( '未指定', '未指定', '' ) ;
#150 = CARTESIAN_POINT ( 'NONE',  ( 0.000000000000000000, 0.000000000000000000, 0.000000000000000000 ) ) ;
#151 = COORDINATED_UNIVERSAL_TIME_OFFSET ( 8, 0, .AHEAD. ) ;
#152 = CC_DESIGN_PERSON_AND_ORGANIZATION_ASSIGNMENT ( #71, #24, ( #22 ) ) ;
#153 = EDGE_CURVE ( 'NONE', #4, #96, #191, .T. ) ;
#154 = ADVANCED_FACE ( 'NONE', ( #144 ), #32, .F. ) ;
#155 = ORIENTED_EDGE ( 'NONE', *, *, #5, .F. ) ;
#156 = UNCERTAINTY_MEASURE_WITH_UNIT (LENGTH_MEASURE( 1.000000000000000082E-05 ), #41, 'distance_accuracy_value', 'NONE');
#157 = VERTEX_POINT ( 'NONE', #117 ) ;
#158 = PERSON_AND_ORGANIZATION ( #39, #149 ) ;
#159 = LINE ( 'NONE', #164, #182 ) ;
#160 = APPROVAL_PERSON_ORGANIZATION ( #180, #98, #167 ) ;
#161 = CARTESIAN_POINT ( 'NONE',  ( 158.9499999999999886, 53.50000000000000000, 119.4500000000000028 ) ) ;
#162 = LINE ( 'NONE', #15, #57 ) ;
#163 = VERTEX_POINT ( 'NONE', #213 ) ;
#164 = CARTESIAN_POINT ( 'NONE',  ( 158.9499999999999886, 53.50000000000000000, 119.4500000000000028 ) ) ;
#165 = APPROVAL_STATUS ( 'not_yet_approved' ) ;
#166 = AXIS2_PLACEMENT_3D ( 'NONE', #132, #184, #199 ) ;
#167 = APPROVAL_ROLE ( '' ) ;
#168 = ADVANCED_FACE ( 'NONE', ( #193 ), #75, .F. ) ;
#169 = DIRECTION ( 'NONE',  ( 0.000000000000000000, 0.000000000000000000, 1.000000000000000000 ) ) ;
#170 = ORIENTED_EDGE ( 'NONE', *, *, #70, .T. ) ;
#171 = ORIENTED_EDGE ( 'NONE', *, *, #233, .F. ) ;
#172 = ORIENTED_EDGE ( 'NONE', *, *, #5, .T. ) ;
#173 = CARTESIAN_POINT ( 'NONE',  ( -158.9499999999999886, 53.50000000000000000, 119.4500000000000028 ) ) ;
#174 = ADVANCED_FACE ( 'NONE', ( #33 ), #196, .F. ) ;
#175 = CARTESIAN_POINT ( 'NONE',  ( -158.9499999999999886, 53.50000000000000000, 119.4500000000000028 ) ) ;
#176 = CARTESIAN_POINT ( 'NONE',  ( 158.9499999999999886, 0.000000000000000000, 119.4500000000000028 ) ) ;
#177 = PLANE ( 'NONE',  #105 ) ;
#178 = CARTESIAN_POINT ( 'NONE',  ( -158.9499999999999886, 53.50000000000000000, -119.4500000000000028 ) ) ;
#179 = LINE ( 'NONE', #111, #44 ) ;
#180 = PERSON_AND_ORGANIZATION ( #39, #149 ) ;
#181 = APPLICATION_PROTOCOL_DEFINITION ( 'international standard', 'config_control_design', 1994, #27 ) ;
#182 = VECTOR ( 'NONE', #228, 1000.000000000000000 ) ;
#183 = PERSON_AND_ORGANIZATION ( #39, #149 ) ;
#184 = DIRECTION ( 'NONE',  ( 0.000000000000000000, 0.000000000000000000, 1.000000000000000000 ) ) ;
#185 = ORIENTED_EDGE ( 'NONE', *, *, #108, .F. ) ;
#186 = CC_DESIGN_APPROVAL ( #98, ( #26 ) ) ;
#187 = EDGE_LOOP ( 'NONE', ( #47, #25, #95, #202 ) ) ;
#188 = CC_DESIGN_PERSON_AND_ORGANIZATION_ASSIGNMENT ( #183, #235, ( #64 ) ) ;
#189 = DATE_TIME_ROLE ( 'classification_date' ) ;
#190 = ADVANCED_FACE ( 'NONE', ( #118 ), #220, .F. ) ;
#191 = LINE ( 'NONE', #35, #113 ) ;
#192 = DESIGN_CONTEXT ( 'detailed design', #27, 'design' ) ;
#193 = FACE_OUTER_BOUND ( 'NONE', #81, .T. ) ;
#194 = CARTESIAN_POINT ( 'NONE',  ( 158.9499999999999886, 0.000000000000000000, 119.4500000000000028 ) ) ;
#195 = DIRECTION ( 'NONE',  ( -0.000000000000000000, -1.000000000000000000, -0.000000000000000000 ) ) ;
#196 = PLANE ( 'NONE',  #34 ) ;
#197 = APPROVAL_STATUS ( 'not_yet_approved' ) ;
#198 = CARTESIAN_POINT ( 'NONE',  ( -158.9499999999999886, 53.50000000000000000, 119.4500000000000028 ) ) ;
#199 = DIRECTION ( 'NONE',  ( 1.000000000000000000, 0.000000000000000000, -0.000000000000000000 ) ) ;
#200 = CALENDAR_DATE ( 2026, 26, 7 ) ;
#201 = LINE ( 'NONE', #198, #79 ) ;
#202 = ORIENTED_EDGE ( 'NONE', *, *, #17, .T. ) ;
#203 = EDGE_LOOP ( 'NONE', ( #205, #114, #222, #66 ) ) ;
#204 = APPROVAL_PERSON_ORGANIZATION ( #215, #40, #131 ) ;
#205 = ORIENTED_EDGE ( 'NONE', *, *, #108, .T. ) ;
#206 = EDGE_CURVE ( 'NONE', #96, #30, #109, .T. ) ;
#207 = ORIENTED_EDGE ( 'NONE', *, *, #13, .F. ) ;
#208 = DIRECTION ( 'NONE',  ( -1.000000000000000000, -0.000000000000000000, -0.000000000000000000 ) ) ;
#209 = DIRECTION ( 'NONE',  ( 0.000000000000000000, -0.000000000000000000, -1.000000000000000000 ) ) ;
#210 = CARTESIAN_POINT ( 'NONE',  ( -158.9499999999999886, 0.000000000000000000, -119.4500000000000028 ) ) ;
#211 = CARTESIAN_POINT ( 'NONE',  ( 158.9499999999999886, 53.50000000000000000, -119.4500000000000028 ) ) ;
#212 = VECTOR ( 'NONE', #195, 1000.000000000000000 ) ;
#213 = CARTESIAN_POINT ( 'NONE',  ( -158.9499999999999886, 0.000000000000000000, 119.4500000000000028 ) ) ;
#214 = CC_DESIGN_PERSON_AND_ORGANIZATION_ASSIGNMENT ( #148, #128, ( #26 ) ) ;
#215 = PERSON_AND_ORGANIZATION ( #39, #149 ) ;
#216 = APPROVAL_PERSON_ORGANIZATION ( #158, #49, #42 ) ;
#217 = EDGE_CURVE ( 'NONE', #30, #100, #201, .T. ) ;
#218 = CALENDAR_DATE ( 2026, 26, 7 ) ;
#219 = AXIS2_PLACEMENT_3D ( 'NONE', #14, #107, #59 ) ;
#220 = PLANE ( 'NONE',  #166 ) ;
#221 = APPROVAL_DATE_TIME ( #18, #98 ) ;
#222 = ORIENTED_EDGE ( 'NONE', *, *, #153, .F. ) ;
#223 = SHAPE_DEFINITION_REPRESENTATION ( #55, #227 ) ;
#224 = ORIENTED_EDGE ( 'NONE', *, *, #206, .T. ) ;
#225 = AXIS2_PLACEMENT_3D ( 'NONE', #150, #169, #63 ) ;
#226 = EDGE_LOOP ( 'NONE', ( #224, #136, #7, #68 ) ) ;
#227 = ADVANCED_BREP_SHAPE_REPRESENTATION ( 'FN-ENC-006_lid-envelope_NOMINAL_R0.6', ( #50, #225 ), #92 ) ;
#228 = DIRECTION ( 'NONE',  ( -0.000000000000000000, -1.000000000000000000, -0.000000000000000000 ) ) ;
#229 = CARTESIAN_POINT ( 'NONE',  ( 0.000000000000000000, 0.000000000000000000, 0.000000000000000000 ) ) ;
#230 = DIRECTION ( 'NONE',  ( 0.000000000000000000, 0.000000000000000000, -1.000000000000000000 ) ) ;
#231 = LINE ( 'NONE', #175, #212 ) ;
#232 = PRODUCT_RELATED_PRODUCT_CATEGORY ( 'detail', '', ( #6 ) ) ;
#233 = EDGE_CURVE ( 'NONE', #45, #163, #179, .T. ) ;
#234 = CARTESIAN_POINT ( 'NONE',  ( 158.9499999999999886, 53.50000000000000000, 119.4500000000000028 ) ) ;
#235 = PERSON_AND_ORGANIZATION_ROLE ( 'creator' ) ;
#236 =( NAMED_UNIT ( * ) PLANE_ANGLE_UNIT ( ) SI_UNIT ( $, .RADIAN. ) );
#237 = VECTOR ( 'NONE', #102, 1000.000000000000000 ) ;
ENDSEC;
END-ISO-10303-21;
