ISO-10303-21;
HEADER;
FILE_DESCRIPTION (( 'STEP AP203' ),
    '1' );
FILE_NAME ('FN-FRM-007_right-mast-brace_D16_CONCEPT_R0.6.STEP',
    '2026-07-26T15:45:44',
    ( '' ),
    ( '' ),
    'SwSTEP 2.0',
    'SolidWorks 2022',
    '' );
FILE_SCHEMA (( 'CONFIG_CONTROL_DESIGN' ));
ENDSEC;

DATA;
#1 = CARTESIAN_POINT ( 'NONE',  ( -1.639702531240121886, 12.85293670832358259, 43.65105509464942912 ) ) ;
#2 = LOCAL_TIME ( 23, 45, 44.00000000000000000, #353 ) ;
#3 = CALENDAR_DATE ( 2026, 26, 7 ) ;
#4 = EDGE_CURVE ( 'NONE', #46, #332, #13, .T. ) ;
#5 = PERSON_AND_ORGANIZATION ( #434, #274 ) ;
#6 = CARTESIAN_POINT ( 'NONE',  ( 3.738076508884087712, -10.31743534517612382, 35.96697331671990128 ) ) ;
#7 = CARTESIAN_POINT ( 'NONE',  ( -78.40617724088740204, 115.2082363207555034, 33.89769451349880569 ) ) ;
#8 = CARTESIAN_POINT ( 'NONE',  ( -11.14528375811305061, 20.19371167747788931, 23.21137301788855822 ) ) ;
#9 = CARTESIAN_POINT ( 'NONE',  ( -23.80039076508212048, 5.067187686769572430, 52.16107523763798071 ) ) ;
#10 = ORIENTED_EDGE ( 'NONE', *, *, #264, .F. ) ;
#11 = CARTESIAN_POINT ( 'NONE',  ( -8.575327223535095911, 38.10043629803346477, 41.51709932675608172 ) ) ;
#12 = CARTESIAN_POINT ( 'NONE',  ( -8.651449538125369543, 22.20193271751002584, 50.74737446885004033 ) ) ;
#13 = CIRCLE ( 'NONE', #111, 8.000000000000000000 ) ;
#14 = CARTESIAN_POINT ( 'NONE',  ( 8.024999687757375710, -16.03333291693379792, 9.869034881484779476 ) ) ;
#15 = ORIENTED_EDGE ( 'NONE', *, *, #4, .F. ) ;
#16 = CARTESIAN_POINT ( 'NONE',  ( -30.19815136130277011, 29.59753514839406563, 45.69993384090669508 ) ) ;
#17 = CARTESIAN_POINT ( 'NONE',  ( -1.639702531240121886, 12.85293670832358259, 43.65105509464942912 ) ) ;
#18 = CARTESIAN_POINT ( 'NONE',  ( -86.41882494698481310, 104.5584332623408983, 25.02115962998270149 ) ) ;
#19 = CARTESIAN_POINT ( 'NONE',  ( -16.83111328368111614, 11.77481771157833457, 37.90358762702315687 ) ) ;
#20 = CARTESIAN_POINT ( 'NONE',  ( 5.369525464103231727, 3.507299381195454924, 27.05971235555714571 ) ) ;
#21 = CC_DESIGN_PERSON_AND_ORGANIZATION_ASSIGNMENT ( #467, #24, ( #216 ) ) ;
#22 = CARTESIAN_POINT ( 'NONE',  ( -12.43025101886236428, 43.24033469179721578, 42.49863974785478860 ) ) ;
#23 = CARTESIAN_POINT ( 'NONE',  ( -92.90665402683582386, 129.2088720341367321, 0.8880777393387162544 ) ) ;
#24 = PERSON_AND_ORGANIZATION_ROLE ( 'design_supplier' ) ;
#25 = CARTESIAN_POINT ( 'NONE',  ( -78.40617724088740204, 115.2082363207555034, 33.89769451349880569 ) ) ;
#26 = CARTESIAN_POINT ( 'NONE',  ( -54.23580340962619317, 77.64773787965432916, 25.23941480588094421 ) ) ;
#27 = FACE_OUTER_BOUND ( 'NONE', #208, .T. ) ;
#28 = CARTESIAN_POINT ( 'NONE',  ( -10.76745693484073030, -12.31005742021307725, 28.26556226577856279 ) ) ;
#29 = SECURITY_CLASSIFICATION ( '', '', #229 ) ;
#30 = CARTESIAN_POINT ( 'NONE',  ( -78.40617724088740204, 115.2082363207555034, 33.89769451349880569 ) ) ;
#31 = APPLICATION_PROTOCOL_DEFINITION ( 'international standard', 'config_control_design', 1994, #438 ) ;
#32 = CC_DESIGN_DATE_AND_TIME_ASSIGNMENT ( #173, #227, ( #207 ) ) ;
#33 = CARTESIAN_POINT ( 'NONE',  ( -26.13644706848941723, 24.18192942461067929, 44.69016063006418449 ) ) ;
#34 = CARTESIAN_POINT ( 'NONE',  ( -39.71333930158087355, 42.28445240211748768, 45.70393374172234502 ) ) ;
#35 = MECHANICAL_CONTEXT ( 'NONE', #240, 'mechanical' ) ;
#36 = CARTESIAN_POINT ( 'NONE',  ( -106.9933472247032284, 137.3244629686076621, 32.77983891417724038 ) ) ;
#37 = DIRECTION ( 'NONE',  ( 0.4764473504775548762, 0.6980701993632603131, 0.5345053030455880760 ) ) ;
#38 = AXIS2_PLACEMENT_3D ( 'NONE', #481, #476, #224 ) ;
#39 = B_SPLINE_CURVE_WITH_KNOTS ( 'NONE', 3,
 ( #58, #354, #432, #20, #273, #174, #137, #387, #427, #320, #139, #200, #203, #100, #397, #316, #287, #350, #468, #53 ),
 .UNSPECIFIED., .F., .F.,
 ( 4, 2, 2, 2, 2, 2, 2, 2, 2, 4 ),
 ( 0.000000000000000000, 0.1250000000000000000, 0.1875000000000000000, 0.2500000000000000000, 0.3125000000000000000, 0.3750000000000000000, 0.5000000000000000000, 0.6250000000000000000, 0.7500000000000000000, 1.000000000000000000 ),
 .UNSPECIFIED. ) ;
#40 = CARTESIAN_POINT ( 'NONE',  ( -38.35109797735046300, 45.80146396983919743, 68.09432618897086797 ) ) ;
#41 = EDGE_CURVE ( 'NONE', #462, #332, #50, .T. ) ;
#42 = CARTESIAN_POINT ( 'NONE',  ( 5.369525464103231727, 3.507299381195454924, 27.05971235555714571 ) ) ;
#43 = CARTESIAN_POINT ( 'NONE',  ( -48.59999538998135904, 75.46666052002436231, 49.89139881799265908 ) ) ;
#44 = CARTESIAN_POINT ( 'NONE',  ( -19.89196768870068865, 31.85595691823047204, 31.99791541684318474 ) ) ;
#45 = CARTESIAN_POINT ( 'NONE',  ( -134.9807019936325787, 153.3076026581768190, 7.126737373941178788 ) ) ;
#46 = VERTEX_POINT ( 'NONE', #451 ) ;
#47 = CARTESIAN_POINT ( 'NONE',  ( -10.76745693484073030, -12.31005742021307725, 28.26556226577856279 ) ) ;
#48 = CARTESIAN_POINT ( 'NONE',  ( 8.000000000000000000, 0.000000000000000000, 0.000000000000000000 ) ) ;
#49 = CARTESIAN_POINT ( 'NONE',  ( -74.07463708637395428, 72.09951611531806748, 49.74193264049769425 ) ) ;
#50 = B_SPLINE_CURVE_WITH_KNOTS ( 'NONE', 3,
 ( #276, #237, #155, #267, #51, #453, #418, #465, #204, #132, #82, #198, #94, #351, #280, #301, #201, #18, #79, #313 ),
 .UNSPECIFIED., .F., .F.,
 ( 4, 2, 2, 2, 2, 2, 2, 2, 2, 4 ),
 ( 0.000000000000000000, 0.1250000000000000000, 0.1875000000000000000, 0.2500000000000000000, 0.3125000000000000000, 0.3750000000000000000, 0.5000000000000000000, 0.6250000000000000000, 0.7500000000000000000, 1.000000000000000000 ),
 .UNSPECIFIED. ) ;
#51 = CARTESIAN_POINT ( 'NONE',  ( -10.90740287775031092, 3.876537170340367933, 26.01081064880838767 ) ) ;
#52 = CARTESIAN_POINT ( 'NONE',  ( -85.11211580691582412, 140.1494877426409573, 9.585830787260929853 ) ) ;
#53 = CARTESIAN_POINT ( 'NONE',  ( -116.1884211961795614, 165.5845615949060914, 4.276042424364704608 ) ) ;
#54 = APPROVAL ( #327, '未指定' ) ;
#55 = ORIENTED_EDGE ( 'NONE', *, *, #189, .T. ) ;
#56 = CARTESIAN_POINT ( 'NONE',  ( -36.31213653358611282, 53.74951537815172742, 32.03073625120185142 ) ) ;
#57 = APPROVAL_DATE_TIME ( #299, #445 ) ;
#58 = CARTESIAN_POINT ( 'NONE',  ( 8.000000000000000000, 0.000000000000000000, 0.000000000000000000 ) ) ;
#59 = ORIENTED_EDGE ( 'NONE', *, *, #264, .T. ) ;
#60 = CARTESIAN_POINT ( 'NONE',  ( -15.31164566047669418, 25.74886088063515288, 29.17597817158233653 ) ) ;
#61 = CARTESIAN_POINT ( 'NONE',  ( -29.98666444833721201, 50.64888593114521598, 55.29981621910218337 ) ) ;
#62 = CARTESIAN_POINT ( 'NONE',  ( -16.30302638088109646, 27.07070184119336176, 29.96209214183857839 ) ) ;
#63 = DIRECTION ( 'NONE',  ( 0.000000000000000000, 0.000000000000000000, 1.000000000000000000 ) ) ;
#64 = CARTESIAN_POINT ( 'NONE',  ( 1.049500260471962987, 25.26733298603909006, 33.86331091213347122 ) ) ;
#65 = CIRCLE ( 'NONE', #331, 8.000000000000000000 ) ;
#66 = PRODUCT_RELATED_PRODUCT_CATEGORY ( 'detail', '', ( #279 ) ) ;
#67 = CARTESIAN_POINT ( 'NONE',  ( -55.59478287673466923, 84.79304383586010374, 46.67911791112764774 ) ) ;
#68 = CC_DESIGN_SECURITY_CLASSIFICATION ( #29, ( #216 ) ) ;
#69 = CARTESIAN_POINT ( 'NONE',  ( 3.811944206197513285, 21.58407439174194309, 28.77147103801686256 ) ) ;
#70 = ADVANCED_FACE ( 'NONE', ( #129 ), #105, .T. ) ;
#71 = PERSON_AND_ORGANIZATION ( #434, #274 ) ;
#72 = CARTESIAN_POINT ( 'NONE',  ( -36.31213653358611282, 53.74951537815172742, 32.03073625120185142 ) ) ;
#73 = CARTESIAN_POINT ( 'NONE',  ( -116.1884211961795614, 165.5845615949060914, 4.276042424364704608 ) ) ;
#74 = CARTESIAN_POINT ( 'NONE',  ( -12.53564647236783891, 6.047528629817163548, 30.62483704473247315 ) ) ;
#75 = DATE_AND_TIME ( #187, #374 ) ;
#76 = CC_DESIGN_DATE_AND_TIME_ASSIGNMENT ( #191, #150, ( #29 ) ) ;
#77 = CARTESIAN_POINT ( 'NONE',  ( -8.620811441518119622, -15.17225141130773025, 17.28500141598953377 ) ) ;
#78 = CARTESIAN_POINT ( 'NONE',  ( 1.031218777686616628, -6.708291703584792209, 43.59839909172057304 ) ) ;
#79 = CARTESIAN_POINT ( 'NONE',  ( -103.8472697354698653, 127.7963596471200844, 12.48508180287800684 ) ) ;
#80 = CARTESIAN_POINT ( 'NONE',  ( -38.97501216236836541, 78.63334954986139280, 37.49103664560695393 ) ) ;
#81 = CARTESIAN_POINT ( 'NONE',  ( 1.031218777686616628, -6.708291703584792209, 43.59839909172057304 ) ) ;
#82 = CARTESIAN_POINT ( 'NONE',  ( -21.07355389930517120, 17.43140519909451314, 41.83939632870144720 ) ) ;
#83 = CARTESIAN_POINT ( 'NONE',  ( -10.13339109868444154, 18.84452146491875979, 20.32157483856680358 ) ) ;
#84 = CARTESIAN_POINT ( 'NONE',  ( -67.00624119693996761, 62.67498826250054123, 52.99148936105218866 ) ) ;
#85 = CARTESIAN_POINT ( 'NONE',  ( -6.435404372447420585, 3.247205829939125099, 56.18888305244829695 ) ) ;
#86 = CC_DESIGN_APPROVAL ( #54, ( #207 ) ) ;
#87 = CARTESIAN_POINT ( 'NONE',  ( 8.000000000000000000, 15.99999999999999822, 0.000000000000000000 ) ) ;
#88 = CARTESIAN_POINT ( 'NONE',  ( -31.34890577256039279, 47.13187436341626579, 32.90942377183920797 ) ) ;
#89 = CARTESIAN_POINT ( 'NONE',  ( -14.81980660332667732, 30.42640880441654261, 54.20934453997708147 ) ) ;
#90 = CARTESIAN_POINT ( 'NONE',  ( -67.00624119693996761, 62.67498826250054123, 52.99148936105218866 ) ) ;
#91 = ORIENTED_EDGE ( 'NONE', *, *, #403, .F. ) ;
#92 = CARTESIAN_POINT ( 'NONE',  ( -12.43025101886236428, 43.24033469179721578, 42.49863974785478860 ) ) ;
#93 = CARTESIAN_POINT ( 'NONE',  ( -8.651449538125369543, 22.20193271751002584, 50.74737446885004033 ) ) ;
#94 = CARTESIAN_POINT ( 'NONE',  ( -30.19815136130277011, 29.59753514839406563, 45.69993384090669508 ) ) ;
#95 = ADVANCED_FACE ( 'NONE', ( #244 ), #176, .F. ) ;
#96 = CARTESIAN_POINT ( 'NONE',  ( -105.0192980063673787, 166.6923973418232094, -7.126737373941180564 ) ) ;
#97 = CALENDAR_DATE ( 2026, 26, 7 ) ;
#98 = CARTESIAN_POINT ( 'NONE',  ( -29.98666444833721201, 50.64888593114521598, 55.29981621910218337 ) ) ;
#99 = CARTESIAN_POINT ( 'NONE',  ( -75.76902188857023646, 106.3586958511214817, 13.18577978540913520 ) ) ;
#100 = CARTESIAN_POINT ( 'NONE',  ( -29.98666444833721201, 50.64888593114521598, 55.29981621910218337 ) ) ;
#101 = CARTESIAN_POINT ( 'NONE',  ( -2.494925074703072454, 29.99323343293259470, 37.79538957135056165 ) ) ;
#102 = CARTESIAN_POINT ( 'NONE',  ( 1.049500260471962987, 25.26733298603909006, 33.86331091213347122 ) ) ;
#103 = CARTESIAN_POINT ( 'NONE',  ( -92.90665402683582386, 129.2088720341367321, 0.8880777393387162544 ) ) ;
#104 = CARTESIAN_POINT ( 'NONE',  ( -0.03050027100059277477, 26.70733369467228613, 35.29140256624964422 ) ) ;
#105 =( BOUNDED_SURFACE ( )  B_SPLINE_SURFACE ( 3, 3, (
 ( #457, #428, #168, #116, #265, #245, #234, #271, #342, #414, #231, #377, #305, #381, #124, #43, #195, #7, #157, #421 ),
 ( #87, #348, #293, #326, #108, #251, #138, #64, #256, #101, #222, #286, #22, #318, #368, #171, #404, #323, #288, #398 ),
 ( #183, #144, #474, #436, #328, #480, #406, #261, #469, #440, #62, #135, #212, #223, #72, #431, #26, #99, #103, #182 ),
 ( #283, #219, #321, #472, #249, #74, #366, #291, #408, #140, #396, #33, #361, #34, #478, #433, #107, #214, #259, #359 ),
 ( #146, #441, #77, #28, #175, #177, #297, #197, #117, #9, #446, #411, #304, #233, #159, #84, #115, #266, #443, #45 ),
 ( #112, #110, #339, #455, #370, #78, #226, #449, #262, #372, #228, #156, #415, #40, #336, #379, #121, #269, #36, #186 ),
 ( #333, #464, #285, #460, #166, #248, #278, #395, #236, #424, #93, #206, #250, #61, #384, #358, #211, #25, #239, #162 ) ),
 .UNSPECIFIED., .T., .F., .T. )
 B_SPLINE_SURFACE_WITH_KNOTS ( ( 4, 3, 4 ),
 ( 4, 2, 2, 2, 2, 2, 2, 2, 2, 4 ),
 ( 0.000000000000000000, 0.5000000000000000000, 1.000000000000000000 ),
 ( 0.000000000000000000, 0.1250000000000000000, 0.1875000000000000000, 0.2500000000000000000, 0.3125000000000000000, 0.3750000000000000000, 0.5000000000000000000, 0.6250000000000000000, 0.7500000000000000000, 1.000000000000000000 ),
 .UNSPECIFIED. )
 GEOMETRIC_REPRESENTATION_ITEM ( )  RATIONAL_B_SPLINE_SURFACE ( (
 ( 1.000000000000000000, 1.000000000000000000, 1.000000000000000000, 1.000000000000000000, 1.000000000000000000, 1.000000000000000000, 1.000000000000000000, 1.000000000000000000, 1.000000000000000000, 1.000000000000000000, 1.000000000000000000, 1.000000000000000000, 1.000000000000000000, 1.000000000000000000, 1.000000000000000000, 1.000000000000000000, 1.000000000000000000, 1.000000000000000000, 1.000000000000000000, 1.000000000000000000),
 ( 0.3333333333333333703, 0.3333333333333333703, 0.3333333333333333703, 0.3333333333333333703, 0.3333333333333333703, 0.3333333333333333703, 0.3333333333333333703, 0.3333333333333333703, 0.3333333333333333703, 0.3333333333333333703, 0.3333333333333333703, 0.3333333333333333703, 0.3333333333333333703, 0.3333333333333333703, 0.3333333333333333703, 0.3333333333333333703, 0.3333333333333333703, 0.3333333333333333703, 0.3333333333333333703, 0.3333333333333333703),
 ( 0.3333333333333333703, 0.3333333333333333703, 0.3333333333333333703, 0.3333333333333333703, 0.3333333333333333703, 0.3333333333333333703, 0.3333333333333333703, 0.3333333333333333703, 0.3333333333333333703, 0.3333333333333333703, 0.3333333333333333703, 0.3333333333333333703, 0.3333333333333333703, 0.3333333333333333703, 0.3333333333333333703, 0.3333333333333333703, 0.3333333333333333703, 0.3333333333333333703, 0.3333333333333333703, 0.3333333333333333703),
 ( 1.000000000000000000, 1.000000000000000000, 1.000000000000000000, 1.000000000000000000, 1.000000000000000000, 1.000000000000000000, 1.000000000000000000, 1.000000000000000000, 1.000000000000000000, 1.000000000000000000, 1.000000000000000000, 1.000000000000000000, 1.000000000000000000, 1.000000000000000000, 1.000000000000000000, 1.000000000000000000, 1.000000000000000000, 1.000000000000000000, 1.000000000000000000, 1.000000000000000000),
 ( 0.3333333333333333703, 0.3333333333333333703, 0.3333333333333333703, 0.3333333333333333703, 0.3333333333333333703, 0.3333333333333333703, 0.3333333333333333703, 0.3333333333333333703, 0.3333333333333333703, 0.3333333333333333703, 0.3333333333333333703, 0.3333333333333333703, 0.3333333333333333703, 0.3333333333333333703, 0.3333333333333333703, 0.3333333333333333703, 0.3333333333333333703, 0.3333333333333333703, 0.3333333333333333703, 0.3333333333333333703),
 ( 0.3333333333333333703, 0.3333333333333333703, 0.3333333333333333703, 0.3333333333333333703, 0.3333333333333333703, 0.3333333333333333703, 0.3333333333333333703, 0.3333333333333333703, 0.3333333333333333703, 0.3333333333333333703, 0.3333333333333333703, 0.3333333333333333703, 0.3333333333333333703, 0.3333333333333333703, 0.3333333333333333703, 0.3333333333333333703, 0.3333333333333333703, 0.3333333333333333703, 0.3333333333333333703, 0.3333333333333333703),
 ( 1.000000000000000000, 1.000000000000000000, 1.000000000000000000, 1.000000000000000000, 1.000000000000000000, 1.000000000000000000, 1.000000000000000000, 1.000000000000000000, 1.000000000000000000, 1.000000000000000000, 1.000000000000000000, 1.000000000000000000, 1.000000000000000000, 1.000000000000000000, 1.000000000000000000, 1.000000000000000000, 1.000000000000000000, 1.000000000000000000, 1.000000000000000000, 1.000000000000000000) ) )
 REPRESENTATION_ITEM ( '' )  SURFACE ( )  );
#106 = ORIENTED_EDGE ( 'NONE', *, *, #403, .T. ) ;
#107 = CARTESIAN_POINT ( 'NONE',  ( -64.15522024800006307, 74.87362699748619832, 37.49067372318932456 ) ) ;
#108 = CARTESIAN_POINT ( 'NONE',  ( 5.286100067014499970, 19.61853324397537435, 24.58850169625262438 ) ) ;
#109 = CARTESIAN_POINT ( 'NONE',  ( -55.59478287673466923, 84.79304383586010374, 46.67911791112764774 ) ) ;
#110 = CARTESIAN_POINT ( 'NONE',  ( 8.024999687757375710, -16.03333291693379792, 9.869034881484779476 ) ) ;
#111 = AXIS2_PLACEMENT_3D ( 'NONE', #356, #385, #242 ) ;
#112 = CARTESIAN_POINT ( 'NONE',  ( 8.000000000000000000, -15.99999999999999822, 0.000000000000000000 ) ) ;
#113 = APPROVAL_ROLE ( '' ) ;
#114 = CC_DESIGN_PERSON_AND_ORGANIZATION_ASSIGNMENT ( #477, #143, ( #207 ) ) ;
#115 = CARTESIAN_POINT ( 'NONE',  ( -74.07463708637395428, 72.09951611531806748, 49.74193264049769425 ) ) ;
#116 = CARTESIAN_POINT ( 'NONE',  ( 5.369525464103231727, 3.507299381195454924, 27.05971235555714571 ) ) ;
#117 = CARTESIAN_POINT ( 'NONE',  ( -20.03356533440584641, 0.04475377921438856987, 48.35232787012775191 ) ) ;
#118 = PERSON_AND_ORGANIZATION ( #434, #274 ) ;
#119 = EDGE_LOOP ( 'NONE', ( #160, #59, #55, #91 ) ) ;
#120 = CARTESIAN_POINT ( 'NONE',  ( -64.15522024800006307, 74.87362699748619832, 37.49067372318932456 ) ) ;
#121 = CARTESIAN_POINT ( 'NONE',  ( -65.51419971508562412, 82.01893295369195869, 58.93037682843601743 ) ) ;
#122 = CARTESIAN_POINT ( 'NONE',  ( -58.22497861759435978, 72.29997149018734603, 62.29176099037836423 ) ) ;
#123 = AXIS2_PLACEMENT_3D ( 'NONE', #371, #147, #37 ) ;
#124 = CARTESIAN_POINT ( 'NONE',  ( -35.79612419110286936, 58.39483225475461836, 54.20039340335611655 ) ) ;
#125 = CARTESIAN_POINT ( 'NONE',  ( -21.62223091932395036, 55.49630789245121321, 42.50530624923349166 ) ) ;
#126 = CARTESIAN_POINT ( 'NONE',  ( -3.232952321724006595, 14.97726976230570450, 45.74014280934895993 ) ) ;
#127 = CARTESIAN_POINT ( 'NONE',  ( -0.5939766908155444947, -4.541364412251052585, 47.14063414261985230 ) ) ;
#128 = LOCAL_TIME ( 23, 45, 44.00000000000000000, #416 ) ;
#129 = FACE_OUTER_BOUND ( 'NONE', #119, .T. ) ;
#130 = CARTESIAN_POINT ( 'NONE',  ( -15.25749012933452420, -6.323346494225321912, 40.93964903454379112 ) ) ;
#131 = CARTESIAN_POINT ( 'NONE',  ( -19.50185238863844717, 36.66913651815569608, 55.30381612014912918 ) ) ;
#132 = CARTESIAN_POINT ( 'NONE',  ( -19.55601821277940644, 15.40802428370236221, 40.66852670461015862 ) ) ;
#133 = CARTESIAN_POINT ( 'NONE',  ( -13.47550804735641350, 7.300677396476928926, 32.67166889045603995 ) ) ;
#134 = DIRECTION ( 'NONE',  ( 0.000000000000000000, 0.000000000000000000, 1.000000000000000000 ) ) ;
#135 = CARTESIAN_POINT ( 'NONE',  ( -19.89196768870068865, 31.85595691823047204, 31.99791541684318474 ) ) ;
#136 = CARTESIAN_POINT ( 'NONE',  ( -18.31200322916750167, -2.250662361105290277, 46.09799114028866995 ) ) ;
#137 = CARTESIAN_POINT ( 'NONE',  ( 1.188005391160003255, 9.082659478449919277, 38.87265399853210113 ) ) ;
#138 = CARTESIAN_POINT ( 'NONE',  ( 2.969987473135550893, 22.70668336915088759, 30.60467385444434996 ) ) ;
#139 = CARTESIAN_POINT ( 'NONE',  ( -8.651449538125369543, 22.20193271751002584, 50.74737446885004033 ) ) ;
#140 = CARTESIAN_POINT ( 'NONE',  ( -19.55601821277940644, 15.40802428370236221, 40.66852670461015862 ) ) ;
#141 = CARTESIAN_POINT ( 'NONE',  ( 5.286100067014499970, 19.61853324397537435, 24.58850169625262438 ) ) ;
#142 = CARTESIAN_POINT ( 'NONE',  ( -6.739297627007098335, 19.65239683600243836, 49.28793810438365597 ) ) ;
#143 = PERSON_AND_ORGANIZATION_ROLE ( 'creator' ) ;
#144 = CARTESIAN_POINT ( 'NONE',  ( -7.975000312709864758, 15.96666708358483611, 6.964923445338574659 ) ) ;
#145 = APPROVAL_ROLE ( '' ) ;
#146 = CARTESIAN_POINT ( 'NONE',  ( -8.000000000000001776, -15.99999999999999822, 0.000000000000000000 ) ) ;
#147 = DIRECTION ( 'NONE',  ( -0.5345053030455882981, 0.7126737373941177678, -0.4543129153401256892 ) ) ;
#148 = CC_DESIGN_APPROVAL ( #221, ( #29 ) ) ;
#149 = CARTESIAN_POINT ( 'NONE',  ( 0.000000000000000000, 0.000000000000000000, 0.000000000000000000 ) ) ;
#150 = DATE_TIME_ROLE ( 'classification_date' ) ;
#151 =( BOUNDED_SURFACE ( )  B_SPLINE_SURFACE ( 3, 3, (
 ( #213, #435, #282, #360, #307, #322, #430, #17, #126, #347, #12, #89, #131, #98, #179, #399, #67, #30, #324, #437 ),
 ( #215, #362, #401, #475, #141, #69, #289, #102, #104, #254, #252, #11, #92, #125, #243, #80, #268, #422, #52, #96 ),
 ( #232, #205, #391, #352, #83, #8, #158, #238, #378, #60, #386, #44, #357, #88, #56, #272, #199, #209, #23, #284 ),
 ( #306, #466, #202, #346, #311, #172, #133, #303, #19, #169, #419, #349, #16, #165, #281, #463, #120, #314, #429, #235 ),
 ( #246, #319, #196, #47, #470, #426, #130, #136, #394, #382, #459, #277, #343, #454, #161, #90, #49, #152, #241, #300 ),
 ( #194, #14, #344, #230, #6, #81, #127, #163, #85, #412, #275, #456, #376, #308, #461, #122, #388, #270, #425, #298 ),
 ( #448, #192, #341, #42, #452, #417, #380, #1, #263, #142, #439, #442, #257, #181, #292, #334, #109, #290, #405, #73 ) ),
 .UNSPECIFIED., .T., .F., .T. )
 B_SPLINE_SURFACE_WITH_KNOTS ( ( 4, 3, 4 ),
 ( 4, 2, 2, 2, 2, 2, 2, 2, 2, 4 ),
 ( 0.000000000000000000, 0.5000000000000000000, 1.000000000000000000 ),
 ( 0.000000000000000000, 0.1250000000000000000, 0.1875000000000000000, 0.2500000000000000000, 0.3125000000000000000, 0.3750000000000000000, 0.5000000000000000000, 0.6250000000000000000, 0.7500000000000000000, 1.000000000000000000 ),
 .UNSPECIFIED. )
 GEOMETRIC_REPRESENTATION_ITEM ( )  RATIONAL_B_SPLINE_SURFACE ( (
 ( 1.000000000000000000, 1.000000000000000000, 1.000000000000000000, 1.000000000000000000, 1.000000000000000000, 1.000000000000000000, 1.000000000000000000, 1.000000000000000000, 1.000000000000000000, 1.000000000000000000, 1.000000000000000000, 1.000000000000000000, 1.000000000000000000, 1.000000000000000000, 1.000000000000000000, 1.000000000000000000, 1.000000000000000000, 1.000000000000000000, 1.000000000000000000, 1.000000000000000000),
 ( 0.3333333333333333703, 0.3333333333333333703, 0.3333333333333333703, 0.3333333333333333703, 0.3333333333333333703, 0.3333333333333333703, 0.3333333333333333703, 0.3333333333333333703, 0.3333333333333333703, 0.3333333333333333703, 0.3333333333333333703, 0.3333333333333333703, 0.3333333333333333703, 0.3333333333333333703, 0.3333333333333333703, 0.3333333333333333703, 0.3333333333333333703, 0.3333333333333333703, 0.3333333333333333703, 0.3333333333333333703),
 ( 0.3333333333333333703, 0.3333333333333333703, 0.3333333333333333703, 0.3333333333333333703, 0.3333333333333333703, 0.3333333333333333703, 0.3333333333333333703, 0.3333333333333333703, 0.3333333333333333703, 0.3333333333333333703, 0.3333333333333333703, 0.3333333333333333703, 0.3333333333333333703, 0.3333333333333333703, 0.3333333333333333703, 0.3333333333333333703, 0.3333333333333333703, 0.3333333333333333703, 0.3333333333333333703, 0.3333333333333333703),
 ( 1.000000000000000000, 1.000000000000000000, 1.000000000000000000, 1.000000000000000000, 1.000000000000000000, 1.000000000000000000, 1.000000000000000000, 1.000000000000000000, 1.000000000000000000, 1.000000000000000000, 1.000000000000000000, 1.000000000000000000, 1.000000000000000000, 1.000000000000000000, 1.000000000000000000, 1.000000000000000000, 1.000000000000000000, 1.000000000000000000, 1.000000000000000000, 1.000000000000000000),
 ( 0.3333333333333333703, 0.3333333333333333703, 0.3333333333333333703, 0.3333333333333333703, 0.3333333333333333703, 0.3333333333333333703, 0.3333333333333333703, 0.3333333333333333703, 0.3333333333333333703, 0.3333333333333333703, 0.3333333333333333703, 0.3333333333333333703, 0.3333333333333333703, 0.3333333333333333703, 0.3333333333333333703, 0.3333333333333333703, 0.3333333333333333703, 0.3333333333333333703, 0.3333333333333333703, 0.3333333333333333703),
 ( 0.3333333333333333703, 0.3333333333333333703, 0.3333333333333333703, 0.3333333333333333703, 0.3333333333333333703, 0.3333333333333333703, 0.3333333333333333703, 0.3333333333333333703, 0.3333333333333333703, 0.3333333333333333703, 0.3333333333333333703, 0.3333333333333333703, 0.3333333333333333703, 0.3333333333333333703, 0.3333333333333333703, 0.3333333333333333703, 0.3333333333333333703, 0.3333333333333333703, 0.3333333333333333703, 0.3333333333333333703),
 ( 1.000000000000000000, 1.000000000000000000, 1.000000000000000000, 1.000000000000000000, 1.000000000000000000, 1.000000000000000000, 1.000000000000000000, 1.000000000000000000, 1.000000000000000000, 1.000000000000000000, 1.000000000000000000, 1.000000000000000000, 1.000000000000000000, 1.000000000000000000, 1.000000000000000000, 1.000000000000000000, 1.000000000000000000, 1.000000000000000000, 1.000000000000000000, 1.000000000000000000) ) )
 REPRESENTATION_ITEM ( '' )  SURFACE ( )  );
#152 = CARTESIAN_POINT ( 'NONE',  ( -97.06862800539937552, 102.7581706735603433, 36.85653947455626422 ) ) ;
#153 = APPROVAL_ROLE ( '' ) ;
#154 = CC_DESIGN_PERSON_AND_ORGANIZATION_ASSIGNMENT ( #5, #373, ( #29 ) ) ;
#155 = CARTESIAN_POINT ( 'NONE',  ( -8.552514072568003556, 0.7366854300940306466, 14.87993664059851184 ) ) ;
#156 = CARTESIAN_POINT ( 'NONE',  ( -21.06428598311826050, 22.75238131079961335, 66.90158975319809542 ) ) ;
#157 = CARTESIAN_POINT ( 'NONE',  ( -96.05273151580951208, 138.7369753556243097, 21.18283485071908601 ) ) ;
#158 = CARTESIAN_POINT ( 'NONE',  ( -11.69352596537830102, 20.92470128717918243, 24.40368874636828522 ) ) ;
#159 = CARTESIAN_POINT ( 'NONE',  ( -54.00812242782770767, 45.34416323718973985, 57.36748728227484406 ) ) ;
#160 = ORIENTED_EDGE ( 'NONE', *, *, #41, .F. ) ;
#161 = CARTESIAN_POINT ( 'NONE',  ( -54.00812242782770767, 45.34416323718973985, 57.36748728227484406 ) ) ;
#162 = CARTESIAN_POINT ( 'NONE',  ( -116.1884211961795614, 165.5845615949060914, 4.276042424364704608 ) ) ;
#163 = CARTESIAN_POINT ( 'NONE',  ( -4.328905322952206980, 0.4385404306080790127, 53.43879927716539413 ) ) ;
#164 = ORIENTED_EDGE ( 'NONE', *, *, #355, .F. ) ;
#165 = CARTESIAN_POINT ( 'NONE',  ( -39.71333930158087355, 42.28445240211748768, 45.70393374172234502 ) ) ;
#166 = CARTESIAN_POINT ( 'NONE',  ( 4.512088287949293175, 4.650548949399623488, 30.27773750648626105 ) ) ;
#167 = APPROVAL_PERSON_ORGANIZATION ( #118, #221, #113 ) ;
#168 = CARTESIAN_POINT ( 'NONE',  ( 7.396262900717250233, 0.8049827990441486003, 16.68373522216048599 ) ) ;
#169 = CARTESIAN_POINT ( 'NONE',  ( -19.55601821277940644, 15.40802428370236221, 40.66852670461015862 ) ) ;
#170 = PERSON_AND_ORGANIZATION ( #434, #274 ) ;
#171 = CARTESIAN_POINT ( 'NONE',  ( -38.97501216236836541, 78.63334954986139280, 37.49103664560695393 ) ) ;
#172 = CARTESIAN_POINT ( 'NONE',  ( -12.53564647236783891, 6.047528629817163548, 30.62483704473247315 ) ) ;
#173 = DATE_AND_TIME ( #410, #2 ) ;
#174 = CARTESIAN_POINT ( 'NONE',  ( 2.421581491942065067, 7.437891344078575884, 36.18493506486871780 ) ) ;
#175 = CARTESIAN_POINT ( 'NONE',  ( -11.68141465681618030, -11.09144712423802659, 31.70004645904996821 ) ) ;
#176 = PLANE ( 'NONE',  #389 ) ;
#177 = CARTESIAN_POINT ( 'NONE',  ( -13.92600918662262188, -8.098654417843555109, 38.03830107157638452 ) ) ;
#178 =( GEOMETRIC_REPRESENTATION_CONTEXT ( 3 ) GLOBAL_UNCERTAINTY_ASSIGNED_CONTEXT ( ( #185 ) ) GLOBAL_UNIT_ASSIGNED_CONTEXT ( ( #220, #217, #364 ) ) REPRESENTATION_CONTEXT ( 'NONE', 'WORKASPACE' ) );
#179 = CARTESIAN_POINT ( 'NONE',  ( -35.79612419110286936, 58.39483225475461836, 54.20039340335611655 ) ) ;
#180 = DIRECTION ( 'NONE',  ( 0.000000000000000000, 0.000000000000000000, 1.000000000000000000 ) ) ;
#181 = CARTESIAN_POINT ( 'NONE',  ( -29.98666444833721201, 50.64888593114521598, 55.29981621910218337 ) ) ;
#182 = CARTESIAN_POINT ( 'NONE',  ( -112.6424556140082984, 155.5232741520110267, -15.67882222267058978 ) ) ;
#183 = CARTESIAN_POINT ( 'NONE',  ( -7.999999999999999112, 15.99999999999999822, 0.000000000000000000 ) ) ;
#184 = PERSON_AND_ORGANIZATION ( #434, #274 ) ;
#185 = UNCERTAINTY_MEASURE_WITH_UNIT (LENGTH_MEASURE( 1.000000000000000082E-05 ), #220, 'distance_accuracy_value', 'NONE');
#186 = CARTESIAN_POINT ( 'NONE',  ( -127.3575443859917442, 164.4767258479889733, 15.67882222267058978 ) ) ;
#187 = CALENDAR_DATE ( 2026, 26, 7 ) ;
#188 = AXIS2_PLACEMENT_3D ( 'NONE', #260, #180, #294 ) ;
#189 = EDGE_CURVE ( 'NONE', #302, #46, #39, .T. ) ;
#190 = CC_DESIGN_PERSON_AND_ORGANIZATION_ASSIGNMENT ( #170, #247, ( #216 ) ) ;
#191 = DATE_AND_TIME ( #337, #128 ) ;
#192 = CARTESIAN_POINT ( 'NONE',  ( 8.024999687574860374, -0.03333291675858320730, 8.812994359249904264 ) ) ;
#193 = APPROVAL_STATUS ( 'not_yet_approved' ) ;
#194 = CARTESIAN_POINT ( 'NONE',  ( 8.000000000000000000, -15.99999999999999822, 0.000000000000000000 ) ) ;
#195 = CARTESIAN_POINT ( 'NONE',  ( -55.59478287673466923, 84.79304383586010374, 46.67911791112764774 ) ) ;
#196 = CARTESIAN_POINT ( 'NONE',  ( -8.620811441518119622, -15.17225141130773025, 17.28500141598953377 ) ) ;
#197 = CARTESIAN_POINT ( 'NONE',  ( -18.31200322916750167, -2.250662361105290277, 46.09799114028866995 ) ) ;
#198 = CARTESIAN_POINT ( 'NONE',  ( -26.13644706848941723, 24.18192942461067929, 44.69016063006418449 ) ) ;
#199 = CARTESIAN_POINT ( 'NONE',  ( -54.23580340962619317, 77.64773787965432916, 25.23941480588094421 ) ) ;
#200 = CARTESIAN_POINT ( 'NONE',  ( -14.81980660332667732, 30.42640880441654261, 54.20934453997708147 ) ) ;
#201 = CARTESIAN_POINT ( 'NONE',  ( -64.15522024800006307, 74.87362699748619832, 37.49067372318932456 ) ) ;
#202 = CARTESIAN_POINT ( 'NONE',  ( -8.552514072568003556, 0.7366854300940306466, 14.87993664059851184 ) ) ;
#203 = CARTESIAN_POINT ( 'NONE',  ( -19.50185238863844717, 36.66913651815569608, 55.30381612014912918 ) ) ;
#204 = CARTESIAN_POINT ( 'NONE',  ( -16.83111328368111614, 11.77481771157833457, 37.90358762702315687 ) ) ;
#205 = CARTESIAN_POINT ( 'NONE',  ( -7.975000312709864758, 15.96666708358483611, 6.964923445338574659 ) ) ;
#206 = CARTESIAN_POINT ( 'NONE',  ( -14.81980660332667732, 30.42640880441654261, 54.20934453997708147 ) ) ;
#207 = PRODUCT_DEFINITION ( '未知', '', #216, #409 ) ;
#208 = EDGE_LOOP ( 'NONE', ( #309, #225, #15, #390 ) ) ;
#209 = CARTESIAN_POINT ( 'NONE',  ( -75.76902188857023646, 106.3586958511214817, 13.18577978540913520 ) ) ;
#210 = DATE_AND_TIME ( #3, #383 ) ;
#211 = CARTESIAN_POINT ( 'NONE',  ( -55.59478287673466923, 84.79304383586010374, 46.67911791112764774 ) ) ;
#212 = CARTESIAN_POINT ( 'NONE',  ( -23.12654999153391344, 36.16873332204281155, 32.89475746862681405 ) ) ;
#213 = CARTESIAN_POINT ( 'NONE',  ( 8.000000000000000000, 0.000000000000000000, 0.000000000000000000 ) ) ;
#214 = CARTESIAN_POINT ( 'NONE',  ( -86.41882494698481310, 104.5584332623408983, 25.02115962998270149 ) ) ;
#215 = CARTESIAN_POINT ( 'NONE',  ( 8.000000000000000000, 15.99999999999999822, 0.000000000000000000 ) ) ;
#216 = PRODUCT_DEFINITION_FORMATION_WITH_SPECIFIED_SOURCE ( '任何', '', #279, .NOT_KNOWN. ) ;
#217 =( NAMED_UNIT ( * ) PLANE_ANGLE_UNIT ( ) SI_UNIT ( $, .RADIAN. ) );
#218 = DIRECTION ( 'NONE',  ( 1.000000000000000000, 0.000000000000000000, 0.000000000000000000 ) ) ;
#219 = CARTESIAN_POINT ( 'NONE',  ( -7.975000312527350310, -0.03333291659037514176, 8.020963967573456088 ) ) ;
#220 =( LENGTH_UNIT ( ) NAMED_UNIT ( * ) SI_UNIT ( .MILLI., .METRE. ) );
#221 = APPROVAL ( #447, '未指定' ) ;
#222 = CARTESIAN_POINT ( 'NONE',  ( -3.880922019702728321, 31.84122935961029910, 38.87007028198716796 ) ) ;
#223 = CARTESIAN_POINT ( 'NONE',  ( -31.34890577256039279, 47.13187436341626579, 32.90942377183920797 ) ) ;
#224 = DIRECTION ( 'NONE',  ( 0.4764473504775545987, 0.6980701993632605351, 0.5345053030455880760 ) ) ;
#225 = ORIENTED_EDGE ( 'NONE', *, *, #41, .T. ) ;
#226 = CARTESIAN_POINT ( 'NONE',  ( -0.5939766908155444947, -4.541364412251052585, 47.14063414261985230 ) ) ;
#227 = DATE_TIME_ROLE ( 'creation_date' ) ;
#228 = CARTESIAN_POINT ( 'NONE',  ( -13.42197705654801609, 12.56263607540974370, 62.62467865571291981 ) ) ;
#229 = SECURITY_CLASSIFICATION_LEVEL ( 'unclassified' ) ;
#230 = CARTESIAN_POINT ( 'NONE',  ( 4.821595868331708168, -11.76212782444154747, 31.88311199640538263 ) ) ;
#231 = CARTESIAN_POINT ( 'NONE',  ( -8.651449538125369543, 22.20193271751002584, 50.74737446885004033 ) ) ;
#232 = CARTESIAN_POINT ( 'NONE',  ( -7.999999999999999112, 15.99999999999999822, 0.000000000000000000 ) ) ;
#233 = CARTESIAN_POINT ( 'NONE',  ( -48.07777283060136142, 37.43703044081869535, 58.49844371160549628 ) ) ;
#234 = CARTESIAN_POINT ( 'NONE',  ( 1.188005391160003255, 9.082659478449919277, 38.87265399853210113 ) ) ;
#235 = CARTESIAN_POINT ( 'NONE',  ( -123.8115788038204386, 154.4154384050939086, -4.276042424364705496 ) ) ;
#236 = CARTESIAN_POINT ( 'NONE',  ( -3.232952321724006595, 14.97726976230570450, 45.74014280934895993 ) ) ;
#237 = CARTESIAN_POINT ( 'NONE',  ( -7.975000312527350310, -0.03333291659037514176, 8.020963967573456088 ) ) ;
#238 = CARTESIAN_POINT ( 'NONE',  ( -12.93359764574845450, 22.57813019432315826, 26.52250277525676125 ) ) ;
#239 = CARTESIAN_POINT ( 'NONE',  ( -96.05273151580951208, 138.7369753556243097, 21.18283485071908601 ) ) ;
#240 = APPLICATION_CONTEXT ( 'configuration controlled 3d designs of mechanical parts and assemblies' ) ;
#241 = CARTESIAN_POINT ( 'NONE',  ( -114.7878854441039351, 126.3838472601033942, 24.08208586641730520 ) ) ;
#242 = DIRECTION ( 'NONE',  ( 0.4764473504775545987, 0.6980701993632605351, 0.5345053030455880760 ) ) ;
#243 = CARTESIAN_POINT ( 'NONE',  ( -26.94813124398207549, 62.59750832527253550, 41.53201788782885018 ) ) ;
#244 = FACE_OUTER_BOUND ( 'NONE', #393, .T. ) ;
#245 = CARTESIAN_POINT ( 'NONE',  ( 2.421581491942065067, 7.437891344078575884, 36.18493506486871780 ) ) ;
#246 = CARTESIAN_POINT ( 'NONE',  ( -8.000000000000001776, -15.99999999999999822, 0.000000000000000000 ) ) ;
#247 = PERSON_AND_ORGANIZATION_ROLE ( 'creator' ) ;
#248 = CARTESIAN_POINT ( 'NONE',  ( 2.421581491942065067, 7.437891344078575884, 36.18493506486871780 ) ) ;
#249 = CARTESIAN_POINT ( 'NONE',  ( -10.90740287775031092, 3.876537170340367933, 26.01081064880838767 ) ) ;
#250 = CARTESIAN_POINT ( 'NONE',  ( -19.50185238863844717, 36.66913651815569608, 55.30381612014912918 ) ) ;
#251 = CARTESIAN_POINT ( 'NONE',  ( 3.811944206197513285, 21.58407439174194309, 28.77147103801686256 ) ) ;
#252 = CARTESIAN_POINT ( 'NONE',  ( -3.880922019702728321, 31.84122935961029910, 38.87007028198716796 ) ) ;
#253 = CIRCLE ( 'NONE', #38, 8.000000000000000000 ) ;
#254 = CARTESIAN_POINT ( 'NONE',  ( -2.494925074703072454, 29.99323343293259470, 37.79538957135056165 ) ) ;
#255 = APPLICATION_PROTOCOL_DEFINITION ( 'international standard', 'config_control_design', 1994, #240 ) ;
#256 = CARTESIAN_POINT ( 'NONE',  ( -0.03050027100059277477, 26.70733369467228613, 35.29140256624964422 ) ) ;
#257 = CARTESIAN_POINT ( 'NONE',  ( -19.50185238863844717, 36.66913651815569608, 55.30381612014912918 ) ) ;
#258 = ORIENTED_EDGE ( 'NONE', *, *, #4, .T. ) ;
#259 = CARTESIAN_POINT ( 'NONE',  ( -103.8472697354698653, 127.7963596471200844, 12.48508180287800684 ) ) ;
#260 = CARTESIAN_POINT ( 'NONE',  ( 0.000000000000000000, 0.000000000000000000, 0.000000000000000000 ) ) ;
#261 = CARTESIAN_POINT ( 'NONE',  ( -12.93359764574845450, 22.57813019432315826, 26.52250277525676125 ) ) ;
#262 = CARTESIAN_POINT ( 'NONE',  ( -6.435404372447420585, 3.247205829939125099, 56.18888305244829695 ) ) ;
#263 = CARTESIAN_POINT ( 'NONE',  ( -3.232952321724006595, 14.97726976230570450, 45.74014280934895993 ) ) ;
#264 = EDGE_CURVE ( 'NONE', #462, #302, #65, .T. ) ;
#265 = CARTESIAN_POINT ( 'NONE',  ( 4.512088287949293175, 4.650548949399623488, 30.27773750648626105 ) ) ;
#266 = CARTESIAN_POINT ( 'NONE',  ( -97.06862800539937552, 102.7581706735603433, 36.85653947455626422 ) ) ;
#267 = CARTESIAN_POINT ( 'NONE',  ( -10.21952733906920585, 2.959369785423928256, 23.44216262493033298 ) ) ;
#268 = CARTESIAN_POINT ( 'NONE',  ( -45.67536603838369302, 87.56715471802826301, 34.42785899381926384 ) ) ;
#269 = CARTESIAN_POINT ( 'NONE',  ( -89.05598029934779447, 113.4079737319749199, 45.73307435807237908 ) ) ;
#270 = CARTESIAN_POINT ( 'NONE',  ( -89.05598029934779447, 113.4079737319749199, 45.73307435807237908 ) ) ;
#271 = CARTESIAN_POINT ( 'NONE',  ( -1.639702531240121886, 12.85293670832358259, 43.65105509464942912 ) ) ;
#272 = CARTESIAN_POINT ( 'NONE',  ( -47.75627474171397324, 69.00836632224839207, 28.19076501629922760 ) ) ;
#273 = CARTESIAN_POINT ( 'NONE',  ( 4.512088287949293175, 4.650548949399623488, 30.27773750648626105 ) ) ;
#274 = ORGANIZATION ( '未指定', '未指定', '' ) ;
#275 = CARTESIAN_POINT ( 'NONE',  ( -13.42197705654801609, 12.56263607540974370, 62.62467865571291981 ) ) ;
#276 = CARTESIAN_POINT ( 'NONE',  ( -8.000000000000000000, 9.797174393178825657E-16, 0.000000000000000000 ) ) ;
#277 = CARTESIAN_POINT ( 'NONE',  ( -32.38092644827813871, 16.50790193099088654, 57.38240584328519134 ) ) ;
#278 = CARTESIAN_POINT ( 'NONE',  ( 1.188005391160003255, 9.082659478449919277, 38.87265399853210113 ) ) ;
#279 = PRODUCT ( 'FN-FRM-007_right-mast-brace_D16_CONCEPT_R0.6', 'FN-FRM-007_right-mast-brace_D16_CONCEPT_R0.6', '', ( #35 ) ) ;
#280 = CARTESIAN_POINT ( 'NONE',  ( -45.16012948070691380, 49.54683930767073008, 44.69911176673835485 ) ) ;
#281 = CARTESIAN_POINT ( 'NONE',  ( -45.16012948070691380, 49.54683930767073008, 44.69911176673835485 ) ) ;
#282 = CARTESIAN_POINT ( 'NONE',  ( 7.396262900717250233, 0.8049827990441486003, 16.68373522216048599 ) ) ;
#283 = CARTESIAN_POINT ( 'NONE',  ( -8.000000000000000000, 9.797174393178825657E-16, 0.000000000000000000 ) ) ;
#284 = CARTESIAN_POINT ( 'NONE',  ( -112.6424556140082984, 155.5232741520110267, -15.67882222267058978 ) ) ;
#285 = CARTESIAN_POINT ( 'NONE',  ( 7.396262900717250233, 0.8049827990441486003, 16.68373522216048599 ) ) ;
#286 = CARTESIAN_POINT ( 'NONE',  ( -8.575327223535095911, 38.10043629803346477, 41.51709932675608172 ) ) ;
#287 = CARTESIAN_POINT ( 'NONE',  ( -55.59478287673466923, 84.79304383586010374, 46.67911791112764774 ) ) ;
#288 = CARTESIAN_POINT ( 'NONE',  ( -85.11211580691582412, 140.1494877426409573, 9.585830787260929853 ) ) ;
#289 = CARTESIAN_POINT ( 'NONE',  ( 2.969987473135550893, 22.70668336915088759, 30.60467385444434996 ) ) ;
#290 = CARTESIAN_POINT ( 'NONE',  ( -78.40617724088740204, 115.2082363207555034, 33.89769451349880569 ) ) ;
#291 = CARTESIAN_POINT ( 'NONE',  ( -15.62280043745797720, 10.16373391660893155, 36.31024695777271205 ) ) ;
#292 = CARTESIAN_POINT ( 'NONE',  ( -35.79612419110286936, 58.39483225475461836, 54.20039340335611655 ) ) ;
#293 = CARTESIAN_POINT ( 'NONE',  ( 7.464560269667363634, 16.71391964044590850, 14.27867044676946584 ) ) ;
#294 = DIRECTION ( 'NONE',  ( 1.000000000000000000, 0.000000000000000000, 0.000000000000000000 ) ) ;
#295 = LOCAL_TIME ( 23, 45, 44.00000000000000000, #340 ) ;
#296 = CARTESIAN_POINT ( 'NONE',  ( -8.000000000000000000, 9.797174393178825657E-16, 0.000000000000000000 ) ) ;
#297 = CARTESIAN_POINT ( 'NONE',  ( -15.25749012933452420, -6.323346494225321912, 40.93964903454379112 ) ) ;
#298 = CARTESIAN_POINT ( 'NONE',  ( -127.3575443859917442, 164.4767258479889733, 15.67882222267058978 ) ) ;
#299 = DATE_AND_TIME ( #97, #295 ) ;
#300 = CARTESIAN_POINT ( 'NONE',  ( -134.9807019936325787, 153.3076026581768190, 7.126737373941178788 ) ) ;
#301 = CARTESIAN_POINT ( 'NONE',  ( -57.38125796932697398, 65.84167729237445599, 40.59112718867570635 ) ) ;
#302 = VERTEX_POINT ( 'NONE', #48 ) ;
#303 = CARTESIAN_POINT ( 'NONE',  ( -15.62280043745797720, 10.16373391660893155, 36.31024695777271205 ) ) ;
#304 = CARTESIAN_POINT ( 'NONE',  ( -37.26975273107162678, 23.02633697474531616, 58.50511021318659033 ) ) ;
#305 = CARTESIAN_POINT ( 'NONE',  ( -19.50185238863844717, 36.66913651815569608, 55.30381612014912918 ) ) ;
#306 = CARTESIAN_POINT ( 'NONE',  ( -8.000000000000000000, 9.797174393178825657E-16, 0.000000000000000000 ) ) ;
#307 = CARTESIAN_POINT ( 'NONE',  ( 4.512088287949293175, 4.650548949399623488, 30.27773750648626105 ) ) ;
#308 = CARTESIAN_POINT ( 'NONE',  ( -38.35109797735046300, 45.80146396983919743, 68.09432618897086797 ) ) ;
#309 = ORIENTED_EDGE ( 'NONE', *, *, #355, .T. ) ;
#310 = PRODUCT_DEFINITION_SHAPE ( 'NONE', 'NONE',  #207 ) ;
#311 = CARTESIAN_POINT ( 'NONE',  ( -10.90740287775031092, 3.876537170340367933, 26.01081064880838767 ) ) ;
#312 = CARTESIAN_POINT ( 'NONE',  ( 0.000000000000000000, 0.000000000000000000, 0.000000000000000000 ) ) ;
#313 = CARTESIAN_POINT ( 'NONE',  ( -123.8115788038204386, 154.4154384050939086, -4.276042424364706385 ) ) ;
#314 = CARTESIAN_POINT ( 'NONE',  ( -86.41882494698481310, 104.5584332623408983, 25.02115962998270149 ) ) ;
#315 = COORDINATED_UNIVERSAL_TIME_OFFSET ( 8, 0, .AHEAD. ) ;
#316 = CARTESIAN_POINT ( 'NONE',  ( -48.59999538998135904, 75.46666052002436231, 49.89139881799265908 ) ) ;
#317 = ADVANCED_FACE ( 'NONE', ( #27 ), #151, .T. ) ;
#318 = CARTESIAN_POINT ( 'NONE',  ( -21.62223091932395036, 55.49630789245121321, 42.50530624923349166 ) ) ;
#319 = CARTESIAN_POINT ( 'NONE',  ( -7.975000312344835862, -16.03333291676558758, 9.077004489808334853 ) ) ;
#320 = CARTESIAN_POINT ( 'NONE',  ( -6.739297627007098335, 19.65239683600243836, 49.28793810438365597 ) ) ;
#321 = CARTESIAN_POINT ( 'NONE',  ( -8.552514072568003556, 0.7366854300940306466, 14.87993664059851184 ) ) ;
#322 = CARTESIAN_POINT ( 'NONE',  ( 2.421581491942065067, 7.437891344078575884, 36.18493506486871780 ) ) ;
#323 = CARTESIAN_POINT ( 'NONE',  ( -67.75637418242699539, 117.0084989095360584, 22.06231466892523940 ) ) ;
#324 = CARTESIAN_POINT ( 'NONE',  ( -96.05273151580951208, 138.7369753556243097, 21.18283485071908601 ) ) ;
#325 = PLANE ( 'NONE',  #123 ) ;
#326 = CARTESIAN_POINT ( 'NONE',  ( 5.917455059874752621, 18.77672658683245643, 22.23631271470891591 ) ) ;
#327 = APPROVAL_STATUS ( 'not_yet_approved' ) ;
#328 = CARTESIAN_POINT ( 'NONE',  ( -10.13339109868444154, 18.84452146491875979, 20.32157483856680358 ) ) ;
#329 = ADVANCED_BREP_SHAPE_REPRESENTATION ( 'FN-FRM-007_right-mast-brace_D16_CONCEPT_R0.6', ( #420, #188 ), #178 ) ;
#330 = APPROVAL_DATE_TIME ( #75, #54 ) ;
#331 = AXIS2_PLACEMENT_3D ( 'NONE', #312, #63, #392 ) ;
#332 = VERTEX_POINT ( 'NONE', #367 ) ;
#333 = CARTESIAN_POINT ( 'NONE',  ( 8.000000000000000000, 0.000000000000000000, 0.000000000000000000 ) ) ;
#334 = CARTESIAN_POINT ( 'NONE',  ( -48.59999538998135904, 75.46666052002436231, 49.89139881799265908 ) ) ;
#335 = APPROVAL_PERSON_ORGANIZATION ( #413, #445, #153 ) ;
#336 = CARTESIAN_POINT ( 'NONE',  ( -44.64411713822367034, 54.19215618423673675, 66.86876891888337582 ) ) ;
#337 = CALENDAR_DATE ( 2026, 26, 7 ) ;
#338 = ADVANCED_FACE ( 'NONE', ( #479 ), #325, .T. ) ;
#339 = CARTESIAN_POINT ( 'NONE',  ( 7.327965531767136831, -15.10395404235761063, 19.08879999755150436 ) ) ;
#340 = COORDINATED_UNIVERSAL_TIME_OFFSET ( 8, 0, .AHEAD. ) ;
#341 = CARTESIAN_POINT ( 'NONE',  ( 7.396262900717250233, 0.8049827990441486003, 16.68373522216048599 ) ) ;
#342 = CARTESIAN_POINT ( 'NONE',  ( -3.232952321724006595, 14.97726976230570450, 45.74014280934895993 ) ) ;
#343 = CARTESIAN_POINT ( 'NONE',  ( -37.26975273107162678, 23.02633697474531616, 58.50511021318659033 ) ) ;
#344 = CARTESIAN_POINT ( 'NONE',  ( 7.327965531767136831, -15.10395404235761063, 19.08879999755150436 ) ) ;
#345 = EDGE_LOOP ( 'NONE', ( #258, #106 ) ) ;
#346 = CARTESIAN_POINT ( 'NONE',  ( -10.21952733906920585, 2.959369785423928256, 23.44216262493033298 ) ) ;
#347 = CARTESIAN_POINT ( 'NONE',  ( -6.739297627007098335, 19.65239683600243836, 49.28793810438365597 ) ) ;
#348 = CARTESIAN_POINT ( 'NONE',  ( 8.024999687392343262, 15.96666708341662755, 7.756953837015025499 ) ) ;
#349 = CARTESIAN_POINT ( 'NONE',  ( -26.13644706848941723, 24.18192942461067929, 44.69016063006418449 ) ) ;
#350 = CARTESIAN_POINT ( 'NONE',  ( -78.40617724088740204, 115.2082363207555034, 33.89769451349880569 ) ) ;
#351 = CARTESIAN_POINT ( 'NONE',  ( -39.71333930158087355, 42.28445240211748768, 45.70393374172234502 ) ) ;
#352 = CARTESIAN_POINT ( 'NONE',  ( -9.671597743297677852, 18.22879699106092488, 18.61876298408210317 ) ) ;
#353 = COORDINATED_UNIVERSAL_TIME_OFFSET ( 8, 0, .AHEAD. ) ;
#354 = CARTESIAN_POINT ( 'NONE',  ( 8.024999687574860374, -0.03333291675858320730, 8.812994359249904264 ) ) ;
#355 = EDGE_CURVE ( 'NONE', #302, #462, #400, .T. ) ;
#356 = CARTESIAN_POINT ( 'NONE',  ( -120.0000000000000000, 160.0000000000000000, 0.000000000000000000 ) ) ;
#357 = CARTESIAN_POINT ( 'NONE',  ( -23.12654999153391344, 36.16873332204281155, 32.89475746862681405 ) ) ;
#358 = CARTESIAN_POINT ( 'NONE',  ( -48.59999538998135904, 75.46666052002436231, 49.89139881799265908 ) ) ;
#359 = CARTESIAN_POINT ( 'NONE',  ( -123.8115788038204386, 154.4154384050939086, -4.276042424364705496 ) ) ;
#360 = CARTESIAN_POINT ( 'NONE',  ( 5.369525464103231727, 3.507299381195454924, 27.05971235555714571 ) ) ;
#361 = CARTESIAN_POINT ( 'NONE',  ( -30.19815136130277011, 29.59753514839406563, 45.69993384090669508 ) ) ;
#362 = CARTESIAN_POINT ( 'NONE',  ( 8.024999687392343262, 15.96666708341662755, 7.756953837015025499 ) ) ;
#363 = CC_DESIGN_PERSON_AND_ORGANIZATION_ASSIGNMENT ( #71, #365, ( #279 ) ) ;
#364 =( NAMED_UNIT ( * ) SI_UNIT ( $, .STERADIAN. ) SOLID_ANGLE_UNIT ( ) );
#365 = PERSON_AND_ORGANIZATION_ROLE ( 'design_owner' ) ;
#366 = CARTESIAN_POINT ( 'NONE',  ( -13.47550804735641350, 7.300677396476928926, 32.67166889045603995 ) ) ;
#367 = CARTESIAN_POINT ( 'NONE',  ( -123.8115788038204386, 154.4154384050939086, -4.276042424364706385 ) ) ;
#368 = CARTESIAN_POINT ( 'NONE',  ( -26.94813124398207549, 62.59750832527253550, 41.53201788782885018 ) ) ;
#369 = CLOSED_SHELL ( 'NONE', ( #317, #70, #338, #95 ) ) ;
#370 = CARTESIAN_POINT ( 'NONE',  ( 3.738076508884087712, -10.31743534517612382, 35.96697331671990128 ) ) ;
#371 = CARTESIAN_POINT ( 'NONE',  ( -120.0000000000000000, 160.0000000000000000, 0.000000000000000000 ) ) ;
#372 = CARTESIAN_POINT ( 'NONE',  ( -10.98367017931112422, 9.311560239072285583, 60.78048663741675028 ) ) ;
#373 = PERSON_AND_ORGANIZATION_ROLE ( 'classification_officer' ) ;
#374 = LOCAL_TIME ( 23, 45, 44.00000000000000000, #407 ) ;
#375 = APPROVAL_DATE_TIME ( #210, #221 ) ;
#376 = CARTESIAN_POINT ( 'NONE',  ( -26.57345375841453006, 30.09793834451418348, 68.10899249244347686 ) ) ;
#377 = CARTESIAN_POINT ( 'NONE',  ( -14.81980660332667732, 30.42640880441654261, 54.20934453997708147 ) ) ;
#378 = CARTESIAN_POINT ( 'NONE',  ( -13.62866123295638232, 23.50488164394227653, 27.45484738391856183 ) ) ;
#379 = CARTESIAN_POINT ( 'NONE',  ( -58.22497861759435978, 72.29997149018734603, 62.29176099037836423 ) ) ;
#380 = CARTESIAN_POINT ( 'NONE',  ( 1.188005391160003255, 9.082659478449919277, 38.87265399853210113 ) ) ;
#381 = CARTESIAN_POINT ( 'NONE',  ( -29.98666444833721201, 50.64888593114521598, 55.29981621910218337 ) ) ;
#382 = CARTESIAN_POINT ( 'NONE',  ( -23.80039076508212048, 5.067187686769572430, 52.16107523763798071 ) ) ;
#383 = LOCAL_TIME ( 23, 45, 44.00000000000000000, #315 ) ;
#384 = CARTESIAN_POINT ( 'NONE',  ( -35.79612419110286936, 58.39483225475461836, 54.20039340335611655 ) ) ;
#385 = DIRECTION ( 'NONE',  ( -0.5345053030455882981, 0.7126737373941176568, -0.4543129153401256892 ) ) ;
#386 = CARTESIAN_POINT ( 'NONE',  ( -16.30302638088109646, 27.07070184119336176, 29.96209214183857839 ) ) ;
#387 = CARTESIAN_POINT ( 'NONE',  ( -1.639702531240121886, 12.85293670832358259, 43.65105509464942912 ) ) ;
#388 = CARTESIAN_POINT ( 'NONE',  ( -65.51419971508562412, 82.01893295369195869, 58.93037682843601743 ) ) ;
#389 = AXIS2_PLACEMENT_3D ( 'NONE', #471, #134, #473 ) ;
#390 = ORIENTED_EDGE ( 'NONE', *, *, #189, .F. ) ;
#391 = CARTESIAN_POINT ( 'NONE',  ( -8.484216703617887489, 16.64562227149578533, 12.47487186520749169 ) ) ;
#392 = DIRECTION ( 'NONE',  ( 1.000000000000000000, 0.000000000000000000, 0.000000000000000000 ) ) ;
#393 = EDGE_LOOP ( 'NONE', ( #164, #10 ) ) ;
#394 = CARTESIAN_POINT ( 'NONE',  ( -20.03356533440584641, 0.04475377921438856987, 48.35232787012775191 ) ) ;
#395 = CARTESIAN_POINT ( 'NONE',  ( -1.639702531240121886, 12.85293670832358259, 43.65105509464942912 ) ) ;
#396 = CARTESIAN_POINT ( 'NONE',  ( -21.07355389930517120, 17.43140519909451314, 41.83939632870144720 ) ) ;
#397 = CARTESIAN_POINT ( 'NONE',  ( -35.79612419110286936, 58.39483225475461836, 54.20039340335611655 ) ) ;
#398 = CARTESIAN_POINT ( 'NONE',  ( -105.0192980063673787, 166.6923973418232094, -7.126737373941180564 ) ) ;
#399 = CARTESIAN_POINT ( 'NONE',  ( -48.59999538998135904, 75.46666052002436231, 49.89139881799265908 ) ) ;
#400 = CIRCLE ( 'NONE', #458, 8.000000000000000000 ) ;
#401 = CARTESIAN_POINT ( 'NONE',  ( 7.464560269667363634, 16.71391964044590850, 14.27867044676946584 ) ) ;
#402 = APPROVAL_PERSON_ORGANIZATION ( #184, #54, #145 ) ;
#403 = EDGE_CURVE ( 'NONE', #332, #46, #253, .T. ) ;
#404 = CARTESIAN_POINT ( 'NONE',  ( -45.67536603838369302, 87.56715471802826301, 34.42785899381926384 ) ) ;
#405 = CARTESIAN_POINT ( 'NONE',  ( -96.05273151580951208, 138.7369753556243097, 21.18283485071908601 ) ) ;
#406 = CARTESIAN_POINT ( 'NONE',  ( -11.69352596537830102, 20.92470128717918243, 24.40368874636828522 ) ) ;
#407 = COORDINATED_UNIVERSAL_TIME_OFFSET ( 8, 0, .AHEAD. ) ;
#408 = CARTESIAN_POINT ( 'NONE',  ( -16.83111328368111614, 11.77481771157833457, 37.90358762702315687 ) ) ;
#409 = DESIGN_CONTEXT ( 'detailed design', #438, 'design' ) ;
#410 = CALENDAR_DATE ( 2026, 26, 7 ) ;
#411 = CARTESIAN_POINT ( 'NONE',  ( -32.38092644827813871, 16.50790193099088654, 57.38240584328519134 ) ) ;
#412 = CARTESIAN_POINT ( 'NONE',  ( -10.98367017931112422, 9.311560239072285583, 60.78048663741675028 ) ) ;
#413 = PERSON_AND_ORGANIZATION ( #434, #274 ) ;
#414 = CARTESIAN_POINT ( 'NONE',  ( -6.739297627007098335, 19.65239683600243836, 49.28793810438365597 ) ) ;
#415 = CARTESIAN_POINT ( 'NONE',  ( -26.57345375841453006, 30.09793834451418348, 68.10899249244347686 ) ) ;
#416 = COORDINATED_UNIVERSAL_TIME_OFFSET ( 8, 0, .AHEAD. ) ;
#417 = CARTESIAN_POINT ( 'NONE',  ( 2.421581491942065067, 7.437891344078575884, 36.18493506486871780 ) ) ;
#418 = CARTESIAN_POINT ( 'NONE',  ( -13.47550804735641350, 7.300677396476928926, 32.67166889045603995 ) ) ;
#419 = CARTESIAN_POINT ( 'NONE',  ( -21.07355389930517120, 17.43140519909451314, 41.83939632870144720 ) ) ;
#420 = MANIFOLD_SOLID_BREP ( '扫描1', #369 ) ;
#421 = CARTESIAN_POINT ( 'NONE',  ( -116.1884211961795614, 165.5845615949060914, 4.276042424364704608 ) ) ;
#422 = CARTESIAN_POINT ( 'NONE',  ( -67.75637418242699539, 117.0084989095360584, 22.06231466892523940 ) ) ;
#423 = CC_DESIGN_APPROVAL ( #445, ( #216 ) ) ;
#424 = CARTESIAN_POINT ( 'NONE',  ( -6.739297627007098335, 19.65239683600243836, 49.28793810438365597 ) ) ;
#425 = CARTESIAN_POINT ( 'NONE',  ( -106.9933472247032284, 137.3244629686076621, 32.77983891417724038 ) ) ;
#426 = CARTESIAN_POINT ( 'NONE',  ( -13.92600918662262188, -8.098654417843555109, 38.03830107157638452 ) ) ;
#427 = CARTESIAN_POINT ( 'NONE',  ( -3.232952321724006595, 14.97726976230570450, 45.74014280934895993 ) ) ;
#428 = CARTESIAN_POINT ( 'NONE',  ( 8.024999687574860374, -0.03333291675858320730, 8.812994359249904264 ) ) ;
#429 = CARTESIAN_POINT ( 'NONE',  ( -103.8472697354698653, 127.7963596471200844, 12.48508180287800684 ) ) ;
#430 = CARTESIAN_POINT ( 'NONE',  ( 1.188005391160003255, 9.082659478449919277, 38.87265399853210113 ) ) ;
#431 = CARTESIAN_POINT ( 'NONE',  ( -47.75627474171397324, 69.00836632224839207, 28.19076501629922760 ) ) ;
#432 = CARTESIAN_POINT ( 'NONE',  ( 7.396262900717250233, 0.8049827990441486003, 16.68373522216048599 ) ) ;
#433 = CARTESIAN_POINT ( 'NONE',  ( -57.38125796932697398, 65.84167729237445599, 40.59112718867570635 ) ) ;
#434 = PERSON ( '未指定', '未指定', '未指定', ('未指定'), ('未指定'), ('未指定') ) ;
#435 = CARTESIAN_POINT ( 'NONE',  ( 8.024999687574860374, -0.03333291675858320730, 8.812994359249904264 ) ) ;
#436 = CARTESIAN_POINT ( 'NONE',  ( -9.671597743297677852, 18.22879699106092488, 18.61876298408210317 ) ) ;
#437 = CARTESIAN_POINT ( 'NONE',  ( -116.1884211961795614, 165.5845615949060914, 4.276042424364704608 ) ) ;
#438 = APPLICATION_CONTEXT ( 'configuration controlled 3d designs of mechanical parts and assemblies' ) ;
#439 = CARTESIAN_POINT ( 'NONE',  ( -8.651449538125369543, 22.20193271751002584, 50.74737446885004033 ) ) ;
#440 = CARTESIAN_POINT ( 'NONE',  ( -15.31164566047669418, 25.74886088063515288, 29.17597817158233653 ) ) ;
#441 = CARTESIAN_POINT ( 'NONE',  ( -7.975000312344835862, -16.03333291676558758, 9.077004489808334853 ) ) ;
#442 = CARTESIAN_POINT ( 'NONE',  ( -14.81980660332667732, 30.42640880441654261, 54.20934453997708147 ) ) ;
#443 = CARTESIAN_POINT ( 'NONE',  ( -114.7878854441039351, 126.3838472601033942, 24.08208586641730520 ) ) ;
#444 = DIRECTION ( 'NONE',  ( 0.000000000000000000, 0.000000000000000000, 1.000000000000000000 ) ) ;
#445 = APPROVAL ( #193, '未指定' ) ;
#446 = CARTESIAN_POINT ( 'NONE',  ( -25.84408141772924949, 7.792108556995663626, 53.71670051556432668 ) ) ;
#447 = APPROVAL_STATUS ( 'not_yet_approved' ) ;
#448 = CARTESIAN_POINT ( 'NONE',  ( 8.000000000000000000, 0.000000000000000000, 0.000000000000000000 ) ) ;
#449 = CARTESIAN_POINT ( 'NONE',  ( -4.328905322952206980, 0.4385404306080790127, 53.43879927716539413 ) ) ;
#450 = SHAPE_DEFINITION_REPRESENTATION ( #310, #329 ) ;
#451 = CARTESIAN_POINT ( 'NONE',  ( -116.1884211961795614, 165.5845615949060914, 4.276042424364704608 ) ) ;
#452 = CARTESIAN_POINT ( 'NONE',  ( 4.512088287949293175, 4.650548949399623488, 30.27773750648626105 ) ) ;
#453 = CARTESIAN_POINT ( 'NONE',  ( -12.53564647236783891, 6.047528629817163548, 30.62483704473247315 ) ) ;
#454 = CARTESIAN_POINT ( 'NONE',  ( -48.07777283060136142, 37.43703044081869535, 58.49844371160549628 ) ) ;
#455 = CARTESIAN_POINT ( 'NONE',  ( 4.821595868331708168, -11.76212782444154747, 31.88311199640538263 ) ) ;
#456 = CARTESIAN_POINT ( 'NONE',  ( -21.06428598311826050, 22.75238131079961335, 66.90158975319809542 ) ) ;
#457 = CARTESIAN_POINT ( 'NONE',  ( 8.000000000000000000, 0.000000000000000000, 0.000000000000000000 ) ) ;
#458 = AXIS2_PLACEMENT_3D ( 'NONE', #149, #444, #218 ) ;
#459 = CARTESIAN_POINT ( 'NONE',  ( -25.84408141772924949, 7.792108556995663626, 53.71670051556432668 ) ) ;
#460 = CARTESIAN_POINT ( 'NONE',  ( 5.369525464103231727, 3.507299381195454924, 27.05971235555714571 ) ) ;
#461 = CARTESIAN_POINT ( 'NONE',  ( -44.64411713822367034, 54.19215618423673675, 66.86876891888337582 ) ) ;
#462 = VERTEX_POINT ( 'NONE', #296 ) ;
#463 = CARTESIAN_POINT ( 'NONE',  ( -57.38125796932697398, 65.84167729237445599, 40.59112718867570635 ) ) ;
#464 = CARTESIAN_POINT ( 'NONE',  ( 8.024999687574860374, -0.03333291675858320730, 8.812994359249904264 ) ) ;
#465 = CARTESIAN_POINT ( 'NONE',  ( -15.62280043745797720, 10.16373391660893155, 36.31024695777271205 ) ) ;
#466 = CARTESIAN_POINT ( 'NONE',  ( -7.975000312527350310, -0.03333291659037514176, 8.020963967573456088 ) ) ;
#467 = PERSON_AND_ORGANIZATION ( #434, #274 ) ;
#468 = CARTESIAN_POINT ( 'NONE',  ( -96.05273151580951208, 138.7369753556243097, 21.18283485071908601 ) ) ;
#469 = CARTESIAN_POINT ( 'NONE',  ( -13.62866123295638232, 23.50488164394227653, 27.45484738391856183 ) ) ;
#470 = CARTESIAN_POINT ( 'NONE',  ( -11.68141465681618030, -11.09144712423802659, 31.70004645904996821 ) ) ;
#471 = CARTESIAN_POINT ( 'NONE',  ( 0.000000000000000000, 0.000000000000000000, 0.000000000000000000 ) ) ;
#472 = CARTESIAN_POINT ( 'NONE',  ( -10.21952733906920585, 2.959369785423928256, 23.44216262493033298 ) ) ;
#473 = DIRECTION ( 'NONE',  ( 1.000000000000000000, 0.000000000000000000, -0.000000000000000000 ) ) ;
#474 = CARTESIAN_POINT ( 'NONE',  ( -8.484216703617887489, 16.64562227149578533, 12.47487186520749169 ) ) ;
#475 = CARTESIAN_POINT ( 'NONE',  ( 5.917455059874752621, 18.77672658683245643, 22.23631271470891591 ) ) ;
#476 = DIRECTION ( 'NONE',  ( -0.5345053030455882981, 0.7126737373941176568, -0.4543129153401256892 ) ) ;
#477 = PERSON_AND_ORGANIZATION ( #434, #274 ) ;
#478 = CARTESIAN_POINT ( 'NONE',  ( -45.16012948070691380, 49.54683930767073008, 44.69911176673835485 ) ) ;
#479 = FACE_OUTER_BOUND ( 'NONE', #345, .T. ) ;
#480 = CARTESIAN_POINT ( 'NONE',  ( -11.14528375811305061, 20.19371167747788931, 23.21137301788855822 ) ) ;
#481 = CARTESIAN_POINT ( 'NONE',  ( -120.0000000000000000, 160.0000000000000000, 0.000000000000000000 ) ) ;
ENDSEC;
END-ISO-10303-21;
