ISO-10303-21;
HEADER;
FILE_DESCRIPTION (( 'STEP AP203' ),
    '1' );
FILE_NAME ('FN-FRM-005_removable-foot-50x350x30_CONCEPT_R0.6.STEP',
    '2026-07-26T15:42:01',
    ( '' ),
    ( '' ),
    'SwSTEP 2.0',
    'SolidWorks 2022',
    '' );
FILE_SCHEMA (( 'CONFIG_CONTROL_DESIGN' ));
ENDSEC;

DATA;
#1 = APPROVAL_ROLE ( '' ) ;
#2 = VERTEX_POINT ( 'NONE', #131 ) ;
#3 = CLOSED_SHELL ( 'NONE', ( #225, #165, #39, #159, #198, #141 ) ) ;
#4 = CARTESIAN_POINT ( 'NONE',  ( -25.00000000000000000, 30.00000000000000000, 175.0000000000000000 ) ) ;
#5 = CC_DESIGN_APPROVAL ( #62, ( #183 ) ) ;
#6 = LINE ( 'NONE', #229, #137 ) ;
#7 = LINE ( 'NONE', #45, #63 ) ;
#8 = CARTESIAN_POINT ( 'NONE',  ( 0.000000000000000000, 0.000000000000000000, 0.000000000000000000 ) ) ;
#9 = FACE_OUTER_BOUND ( 'NONE', #109, .T. ) ;
#10 = AXIS2_PLACEMENT_3D ( 'NONE', #11, #64, #233 ) ;
#11 = CARTESIAN_POINT ( 'NONE',  ( 0.000000000000000000, 0.000000000000000000, 0.000000000000000000 ) ) ;
#12 = CALENDAR_DATE ( 2026, 26, 7 ) ;
#13 = CC_DESIGN_DATE_AND_TIME_ASSIGNMENT ( #104, #48, ( #19 ) ) ;
#14 =( NAMED_UNIT ( * ) SI_UNIT ( $, .STERADIAN. ) SOLID_ANGLE_UNIT ( ) );
#15 = COORDINATED_UNIVERSAL_TIME_OFFSET ( 8, 0, .AHEAD. ) ;
#16 = VERTEX_POINT ( 'NONE', #212 ) ;
#17 = PRODUCT ( 'FN-FRM-005_removable-foot-50x350x30_CONCEPT_R0.6', 'FN-FRM-005_removable-foot-50x350x30_CONCEPT_R0.6', '', ( #142 ) ) ;
#18 = DESIGN_CONTEXT ( 'detailed design', #201, 'design' ) ;
#19 = PRODUCT_DEFINITION ( '未知', '', #183, #18 ) ;
#20 = ORIENTED_EDGE ( 'NONE', *, *, #170, .T. ) ;
#21 = DIRECTION ( 'NONE',  ( 1.000000000000000000, 0.000000000000000000, 0.000000000000000000 ) ) ;
#22 = LINE ( 'NONE', #187, #228 ) ;
#23 =( GEOMETRIC_REPRESENTATION_CONTEXT ( 3 ) GLOBAL_UNCERTAINTY_ASSIGNED_CONTEXT ( ( #76 ) ) GLOBAL_UNIT_ASSIGNED_CONTEXT ( ( #215, #32, #14 ) ) REPRESENTATION_CONTEXT ( 'NONE', 'WORKASPACE' ) );
#24 = DIRECTION ( 'NONE',  ( -1.000000000000000000, 0.000000000000000000, -0.000000000000000000 ) ) ;
#25 = DIRECTION ( 'NONE',  ( 0.000000000000000000, 0.000000000000000000, -1.000000000000000000 ) ) ;
#26 = CARTESIAN_POINT ( 'NONE',  ( -25.00000000000000000, 30.00000000000000000, -175.0000000000000000 ) ) ;
#27 = EDGE_CURVE ( 'NONE', #161, #16, #168, .T. ) ;
#28 = LOCAL_TIME ( 23, 42, 1.000000000000000000, #162 ) ;
#29 = APPROVAL_ROLE ( '' ) ;
#30 = PLANE ( 'NONE',  #50 ) ;
#31 = PERSON_AND_ORGANIZATION ( #226, #220 ) ;
#32 =( NAMED_UNIT ( * ) PLANE_ANGLE_UNIT ( ) SI_UNIT ( $, .RADIAN. ) );
#33 = ORIENTED_EDGE ( 'NONE', *, *, #108, .T. ) ;
#34 = DATE_AND_TIME ( #37, #114 ) ;
#35 = APPROVAL_PERSON_ORGANIZATION ( #203, #106, #1 ) ;
#36 = EDGE_LOOP ( 'NONE', ( #204, #33, #199, #53 ) ) ;
#37 = CALENDAR_DATE ( 2026, 26, 7 ) ;
#38 = ORIENTED_EDGE ( 'NONE', *, *, #108, .F. ) ;
#39 = ADVANCED_FACE ( 'NONE', ( #97 ), #185, .F. ) ;
#40 = VERTEX_POINT ( 'NONE', #232 ) ;
#41 = VECTOR ( 'NONE', #157, 1000.000000000000000 ) ;
#42 = DIRECTION ( 'NONE',  ( 0.000000000000000000, 0.000000000000000000, -1.000000000000000000 ) ) ;
#43 = FACE_OUTER_BOUND ( 'NONE', #222, .T. ) ;
#44 = DIRECTION ( 'NONE',  ( 0.000000000000000000, 0.000000000000000000, 1.000000000000000000 ) ) ;
#45 = CARTESIAN_POINT ( 'NONE',  ( 25.00000000000000000, 30.00000000000000000, -175.0000000000000000 ) ) ;
#46 = EDGE_CURVE ( 'NONE', #72, #40, #188, .T. ) ;
#47 = CARTESIAN_POINT ( 'NONE',  ( -25.00000000000000000, 30.00000000000000000, 175.0000000000000000 ) ) ;
#48 = DATE_TIME_ROLE ( 'creation_date' ) ;
#49 = DIRECTION ( 'NONE',  ( 0.000000000000000000, 0.000000000000000000, -1.000000000000000000 ) ) ;
#50 = AXIS2_PLACEMENT_3D ( 'NONE', #219, #216, #49 ) ;
#51 = PRODUCT_RELATED_PRODUCT_CATEGORY ( 'detail', '', ( #17 ) ) ;
#52 = SECURITY_CLASSIFICATION_LEVEL ( 'unclassified' ) ;
#53 = ORIENTED_EDGE ( 'NONE', *, *, #227, .T. ) ;
#54 = CC_DESIGN_APPROVAL ( #56, ( #19 ) ) ;
#55 = ORIENTED_EDGE ( 'NONE', *, *, #67, .F. ) ;
#56 = APPROVAL ( #84, '未指定' ) ;
#57 = DIRECTION ( 'NONE',  ( -1.000000000000000000, 0.000000000000000000, 0.000000000000000000 ) ) ;
#58 = DIRECTION ( 'NONE',  ( 1.000000000000000000, 0.000000000000000000, 0.000000000000000000 ) ) ;
#59 = DIRECTION ( 'NONE',  ( 0.000000000000000000, -0.000000000000000000, -1.000000000000000000 ) ) ;
#60 = PLANE ( 'NONE',  #100 ) ;
#61 = CARTESIAN_POINT ( 'NONE',  ( -25.00000000000000000, 0.000000000000000000, 175.0000000000000000 ) ) ;
#62 = APPROVAL ( #120, '未指定' ) ;
#63 = VECTOR ( 'NONE', #115, 1000.000000000000000 ) ;
#64 = DIRECTION ( 'NONE',  ( 0.000000000000000000, 0.000000000000000000, 1.000000000000000000 ) ) ;
#65 = FACE_OUTER_BOUND ( 'NONE', #75, .T. ) ;
#66 = LOCAL_TIME ( 23, 42, 1.000000000000000000, #68 ) ;
#67 = EDGE_CURVE ( 'NONE', #93, #77, #6, .T. ) ;
#68 = COORDINATED_UNIVERSAL_TIME_OFFSET ( 8, 0, .AHEAD. ) ;
#69 = DATE_AND_TIME ( #200, #28 ) ;
#70 = APPROVAL_PERSON_ORGANIZATION ( #196, #62, #29 ) ;
#71 = EDGE_CURVE ( 'NONE', #40, #16, #7, .T. ) ;
#72 = VERTEX_POINT ( 'NONE', #81 ) ;
#73 = VECTOR ( 'NONE', #21, 1000.000000000000000 ) ;
#74 = ORIENTED_EDGE ( 'NONE', *, *, #206, .T. ) ;
#75 = EDGE_LOOP ( 'NONE', ( #223, #107, #129, #127 ) ) ;
#76 = UNCERTAINTY_MEASURE_WITH_UNIT (LENGTH_MEASURE( 1.000000000000000082E-05 ), #215, 'distance_accuracy_value', 'NONE');
#77 = VERTEX_POINT ( 'NONE', #61 ) ;
#78 = DIRECTION ( 'NONE',  ( -0.000000000000000000, -0.000000000000000000, 1.000000000000000000 ) ) ;
#79 = VECTOR ( 'NONE', #138, 1000.000000000000000 ) ;
#80 = CARTESIAN_POINT ( 'NONE',  ( 25.00000000000000000, 30.00000000000000000, 175.0000000000000000 ) ) ;
#81 = CARTESIAN_POINT ( 'NONE',  ( 25.00000000000000000, 30.00000000000000000, 175.0000000000000000 ) ) ;
#82 = DIRECTION ( 'NONE',  ( 0.000000000000000000, -0.000000000000000000, -1.000000000000000000 ) ) ;
#83 = PERSON_AND_ORGANIZATION ( #226, #220 ) ;
#84 = APPROVAL_STATUS ( 'not_yet_approved' ) ;
#85 = AXIS2_PLACEMENT_3D ( 'NONE', #154, #57, #171 ) ;
#86 = DATE_AND_TIME ( #237, #156 ) ;
#87 = PERSON_AND_ORGANIZATION_ROLE ( 'design_supplier' ) ;
#88 = VECTOR ( 'NONE', #173, 1000.000000000000000 ) ;
#89 = APPLICATION_PROTOCOL_DEFINITION ( 'international standard', 'config_control_design', 1994, #117 ) ;
#90 = PERSON_AND_ORGANIZATION ( #226, #220 ) ;
#91 = APPROVAL_STATUS ( 'not_yet_approved' ) ;
#92 = ORIENTED_EDGE ( 'NONE', *, *, #71, .F. ) ;
#93 = VERTEX_POINT ( 'NONE', #190 ) ;
#94 = ORIENTED_EDGE ( 'NONE', *, *, #206, .F. ) ;
#95 = CARTESIAN_POINT ( 'NONE',  ( -25.00000000000000000, 30.00000000000000000, 175.0000000000000000 ) ) ;
#96 = PLANE ( 'NONE',  #189 ) ;
#97 = FACE_OUTER_BOUND ( 'NONE', #178, .T. ) ;
#98 = CARTESIAN_POINT ( 'NONE',  ( 25.00000000000000000, 30.00000000000000000, 175.0000000000000000 ) ) ;
#99 = CARTESIAN_POINT ( 'NONE',  ( 25.00000000000000000, 0.000000000000000000, 175.0000000000000000 ) ) ;
#100 = AXIS2_PLACEMENT_3D ( 'NONE', #95, #166, #24 ) ;
#101 = SECURITY_CLASSIFICATION ( '', '', #52 ) ;
#102 = CALENDAR_DATE ( 2026, 26, 7 ) ;
#103 = APPLICATION_PROTOCOL_DEFINITION ( 'international standard', 'config_control_design', 1994, #201 ) ;
#104 = DATE_AND_TIME ( #12, #66 ) ;
#105 = ORIENTED_EDGE ( 'NONE', *, *, #182, .F. ) ;
#106 = APPROVAL ( #91, '未指定' ) ;
#107 = ORIENTED_EDGE ( 'NONE', *, *, #170, .F. ) ;
#108 = EDGE_CURVE ( 'NONE', #2, #72, #111, .T. ) ;
#109 = EDGE_LOOP ( 'NONE', ( #128, #164, #38, #20 ) ) ;
#110 = EDGE_CURVE ( 'NONE', #72, #161, #135, .T. ) ;
#111 = LINE ( 'NONE', #47, #73 ) ;
#112 = FACE_OUTER_BOUND ( 'NONE', #36, .T. ) ;
#113 = CARTESIAN_POINT ( 'NONE',  ( 25.00000000000000000, 0.000000000000000000, 175.0000000000000000 ) ) ;
#114 = LOCAL_TIME ( 23, 42, 1.000000000000000000, #15 ) ;
#115 = DIRECTION ( 'NONE',  ( -0.000000000000000000, -1.000000000000000000, -0.000000000000000000 ) ) ;
#116 = PLANE ( 'NONE',  #125 ) ;
#117 = APPLICATION_CONTEXT ( 'configuration controlled 3d designs of mechanical parts and assemblies' ) ;
#118 = LINE ( 'NONE', #235, #41 ) ;
#119 = PERSON_AND_ORGANIZATION_ROLE ( 'creator' ) ;
#120 = APPROVAL_STATUS ( 'not_yet_approved' ) ;
#121 = MANIFOLD_SOLID_BREP ( '凸台-拉伸1', #3 ) ;
#122 = PERSON_AND_ORGANIZATION ( #226, #220 ) ;
#123 = EDGE_CURVE ( 'NONE', #184, #2, #214, .T. ) ;
#124 = EDGE_LOOP ( 'NONE', ( #74, #180, #146, #205 ) ) ;
#125 = AXIS2_PLACEMENT_3D ( 'NONE', #8, #150, #82 ) ;
#126 = ORIENTED_EDGE ( 'NONE', *, *, #110, .T. ) ;
#127 = ORIENTED_EDGE ( 'NONE', *, *, #207, .T. ) ;
#128 = ORIENTED_EDGE ( 'NONE', *, *, #182, .T. ) ;
#129 = ORIENTED_EDGE ( 'NONE', *, *, #123, .F. ) ;
#130 = CC_DESIGN_DATE_AND_TIME_ASSIGNMENT ( #34, #160, ( #101 ) ) ;
#131 = CARTESIAN_POINT ( 'NONE',  ( -25.00000000000000000, 30.00000000000000000, 175.0000000000000000 ) ) ;
#132 = CARTESIAN_POINT ( 'NONE',  ( -25.00000000000000000, 30.00000000000000000, -175.0000000000000000 ) ) ;
#133 = AXIS2_PLACEMENT_3D ( 'NONE', #26, #44, #153 ) ;
#134 = LINE ( 'NONE', #211, #88 ) ;
#135 = LINE ( 'NONE', #98, #234 ) ;
#136 = FACE_OUTER_BOUND ( 'NONE', #124, .T. ) ;
#137 = VECTOR ( 'NONE', #78, 1000.000000000000000 ) ;
#138 = DIRECTION ( 'NONE',  ( -0.000000000000000000, -1.000000000000000000, -0.000000000000000000 ) ) ;
#139 = VECTOR ( 'NONE', #151, 1000.000000000000000 ) ;
#140 = PERSON_AND_ORGANIZATION_ROLE ( 'creator' ) ;
#141 = ADVANCED_FACE ( 'NONE', ( #43 ), #116, .T. ) ;
#142 = MECHANICAL_CONTEXT ( 'NONE', #117, 'mechanical' ) ;
#143 = APPROVAL_DATE_TIME ( #69, #106 ) ;
#144 = ORIENTED_EDGE ( 'NONE', *, *, #27, .T. ) ;
#145 = VECTOR ( 'NONE', #25, 1000.000000000000000 ) ;
#146 = ORIENTED_EDGE ( 'NONE', *, *, #227, .F. ) ;
#147 = PERSON_AND_ORGANIZATION_ROLE ( 'classification_officer' ) ;
#148 = PRODUCT_DEFINITION_SHAPE ( 'NONE', 'NONE',  #19 ) ;
#149 = CC_DESIGN_PERSON_AND_ORGANIZATION_ASSIGNMENT ( #90, #147, ( #101 ) ) ;
#150 = DIRECTION ( 'NONE',  ( 0.000000000000000000, -1.000000000000000000, 0.000000000000000000 ) ) ;
#151 = DIRECTION ( 'NONE',  ( -0.000000000000000000, -1.000000000000000000, -0.000000000000000000 ) ) ;
#152 = CARTESIAN_POINT ( 'NONE',  ( -25.00000000000000000, 30.00000000000000000, 175.0000000000000000 ) ) ;
#153 = DIRECTION ( 'NONE',  ( 1.000000000000000000, 0.000000000000000000, -0.000000000000000000 ) ) ;
#154 = CARTESIAN_POINT ( 'NONE',  ( 25.00000000000000000, 30.00000000000000000, 175.0000000000000000 ) ) ;
#155 = DATE_AND_TIME ( #102, #224 ) ;
#156 = LOCAL_TIME ( 23, 42, 1.000000000000000000, #197 ) ;
#157 = DIRECTION ( 'NONE',  ( -1.000000000000000000, -0.000000000000000000, -0.000000000000000000 ) ) ;
#158 = PERSON_AND_ORGANIZATION_ROLE ( 'design_owner' ) ;
#159 = ADVANCED_FACE ( 'NONE', ( #136 ), #192, .F. ) ;
#160 = DATE_TIME_ROLE ( 'classification_date' ) ;
#161 = VERTEX_POINT ( 'NONE', #99 ) ;
#162 = COORDINATED_UNIVERSAL_TIME_OFFSET ( 8, 0, .AHEAD. ) ;
#163 = CC_DESIGN_PERSON_AND_ORGANIZATION_ASSIGNMENT ( #31, #119, ( #183 ) ) ;
#164 = ORIENTED_EDGE ( 'NONE', *, *, #110, .F. ) ;
#165 = ADVANCED_FACE ( 'NONE', ( #9 ), #60, .F. ) ;
#166 = DIRECTION ( 'NONE',  ( 0.000000000000000000, 0.000000000000000000, -1.000000000000000000 ) ) ;
#167 = CARTESIAN_POINT ( 'NONE',  ( 0.000000000000000000, 30.00000000000000000, 0.000000000000000000 ) ) ;
#168 = LINE ( 'NONE', #113, #186 ) ;
#169 = DIRECTION ( 'NONE',  ( -0.000000000000000000, -0.000000000000000000, 1.000000000000000000 ) ) ;
#170 = EDGE_CURVE ( 'NONE', #2, #77, #231, .T. ) ;
#171 = DIRECTION ( 'NONE',  ( 0.000000000000000000, 0.000000000000000000, 1.000000000000000000 ) ) ;
#172 = APPROVAL_PERSON_ORGANIZATION ( #218, #56, #194 ) ;
#173 = DIRECTION ( 'NONE',  ( -1.000000000000000000, -0.000000000000000000, -0.000000000000000000 ) ) ;
#174 = CARTESIAN_POINT ( 'NONE',  ( -25.00000000000000000, 30.00000000000000000, -175.0000000000000000 ) ) ;
#175 = LINE ( 'NONE', #174, #79 ) ;
#176 = COORDINATED_UNIVERSAL_TIME_OFFSET ( 8, 0, .AHEAD. ) ;
#177 = CC_DESIGN_PERSON_AND_ORGANIZATION_ASSIGNMENT ( #122, #158, ( #17 ) ) ;
#178 = EDGE_LOOP ( 'NONE', ( #144, #92, #209, #126 ) ) ;
#179 = CC_DESIGN_APPROVAL ( #106, ( #101 ) ) ;
#180 = ORIENTED_EDGE ( 'NONE', *, *, #207, .F. ) ;
#181 = SHAPE_DEFINITION_REPRESENTATION ( #148, #193 ) ;
#182 = EDGE_CURVE ( 'NONE', #77, #161, #22, .T. ) ;
#183 = PRODUCT_DEFINITION_FORMATION_WITH_SPECIFIED_SOURCE ( '任何', '', #17, .NOT_KNOWN. ) ;
#184 = VERTEX_POINT ( 'NONE', #132 ) ;
#185 = PLANE ( 'NONE',  #85 ) ;
#186 = VECTOR ( 'NONE', #42, 1000.000000000000000 ) ;
#187 = CARTESIAN_POINT ( 'NONE',  ( -25.00000000000000000, 0.000000000000000000, 175.0000000000000000 ) ) ;
#188 = LINE ( 'NONE', #80, #145 ) ;
#189 = AXIS2_PLACEMENT_3D ( 'NONE', #167, #230, #59 ) ;
#190 = CARTESIAN_POINT ( 'NONE',  ( -25.00000000000000000, 0.000000000000000000, -175.0000000000000000 ) ) ;
#191 = CC_DESIGN_PERSON_AND_ORGANIZATION_ASSIGNMENT ( #195, #87, ( #183 ) ) ;
#192 = PLANE ( 'NONE',  #133 ) ;
#193 = ADVANCED_BREP_SHAPE_REPRESENTATION ( 'FN-FRM-005_removable-foot-50x350x30_CONCEPT_R0.6', ( #121, #10 ), #23 ) ;
#194 = APPROVAL_ROLE ( '' ) ;
#195 = PERSON_AND_ORGANIZATION ( #226, #220 ) ;
#196 = PERSON_AND_ORGANIZATION ( #226, #220 ) ;
#197 = COORDINATED_UNIVERSAL_TIME_OFFSET ( 8, 0, .AHEAD. ) ;
#198 = ADVANCED_FACE ( 'NONE', ( #112 ), #96, .F. ) ;
#199 = ORIENTED_EDGE ( 'NONE', *, *, #46, .T. ) ;
#200 = CALENDAR_DATE ( 2026, 26, 7 ) ;
#201 = APPLICATION_CONTEXT ( 'configuration controlled 3d designs of mechanical parts and assemblies' ) ;
#202 = ORIENTED_EDGE ( 'NONE', *, *, #27, .F. ) ;
#203 = PERSON_AND_ORGANIZATION ( #226, #220 ) ;
#204 = ORIENTED_EDGE ( 'NONE', *, *, #123, .T. ) ;
#205 = ORIENTED_EDGE ( 'NONE', *, *, #71, .T. ) ;
#206 = EDGE_CURVE ( 'NONE', #16, #93, #134, .T. ) ;
#207 = EDGE_CURVE ( 'NONE', #184, #93, #175, .T. ) ;
#208 = CC_DESIGN_SECURITY_CLASSIFICATION ( #101, ( #183 ) ) ;
#209 = ORIENTED_EDGE ( 'NONE', *, *, #46, .F. ) ;
#210 = DIRECTION ( 'NONE',  ( -0.000000000000000000, -1.000000000000000000, -0.000000000000000000 ) ) ;
#211 = CARTESIAN_POINT ( 'NONE',  ( -25.00000000000000000, 0.000000000000000000, -175.0000000000000000 ) ) ;
#212 = CARTESIAN_POINT ( 'NONE',  ( 25.00000000000000000, 0.000000000000000000, -175.0000000000000000 ) ) ;
#213 = CC_DESIGN_PERSON_AND_ORGANIZATION_ASSIGNMENT ( #83, #140, ( #19 ) ) ;
#214 = LINE ( 'NONE', #152, #221 ) ;
#215 =( LENGTH_UNIT ( ) NAMED_UNIT ( * ) SI_UNIT ( .MILLI., .METRE. ) );
#216 = DIRECTION ( 'NONE',  ( 1.000000000000000000, -0.000000000000000000, 0.000000000000000000 ) ) ;
#217 = APPROVAL_DATE_TIME ( #86, #56 ) ;
#218 = PERSON_AND_ORGANIZATION ( #226, #220 ) ;
#219 = CARTESIAN_POINT ( 'NONE',  ( -25.00000000000000000, 30.00000000000000000, 175.0000000000000000 ) ) ;
#220 = ORGANIZATION ( '未指定', '未指定', '' ) ;
#221 = VECTOR ( 'NONE', #169, 1000.000000000000000 ) ;
#222 = EDGE_LOOP ( 'NONE', ( #55, #94, #202, #105 ) ) ;
#223 = ORIENTED_EDGE ( 'NONE', *, *, #67, .T. ) ;
#224 = LOCAL_TIME ( 23, 42, 1.000000000000000000, #176 ) ;
#225 = ADVANCED_FACE ( 'NONE', ( #65 ), #30, .F. ) ;
#226 = PERSON ( '未指定', '未指定', '未指定', ('未指定'), ('未指定'), ('未指定') ) ;
#227 = EDGE_CURVE ( 'NONE', #40, #184, #118, .T. ) ;
#228 = VECTOR ( 'NONE', #58, 1000.000000000000000 ) ;
#229 = CARTESIAN_POINT ( 'NONE',  ( -25.00000000000000000, 0.000000000000000000, 175.0000000000000000 ) ) ;
#230 = DIRECTION ( 'NONE',  ( 0.000000000000000000, -1.000000000000000000, 0.000000000000000000 ) ) ;
#231 = LINE ( 'NONE', #4, #139 ) ;
#232 = CARTESIAN_POINT ( 'NONE',  ( 25.00000000000000000, 30.00000000000000000, -175.0000000000000000 ) ) ;
#233 = DIRECTION ( 'NONE',  ( 1.000000000000000000, 0.000000000000000000, 0.000000000000000000 ) ) ;
#234 = VECTOR ( 'NONE', #210, 1000.000000000000000 ) ;
#235 = CARTESIAN_POINT ( 'NONE',  ( -25.00000000000000000, 30.00000000000000000, -175.0000000000000000 ) ) ;
#236 = APPROVAL_DATE_TIME ( #155, #62 ) ;
#237 = CALENDAR_DATE ( 2026, 26, 7 ) ;
ENDSEC;
END-ISO-10303-21;
