ISO-10303-21;
HEADER;
FILE_DESCRIPTION (( 'STEP AP203' ),
    '1' );
FILE_NAME ('FN-FRM-002_rail-30x30x650_CONCEPT_R0.6.STEP',
    '2026-07-26T15:41:42',
    ( '' ),
    ( '' ),
    'SwSTEP 2.0',
    'SolidWorks 2022',
    '' );
FILE_SCHEMA (( 'CONFIG_CONTROL_DESIGN' ));
ENDSEC;

DATA;
#1 = FACE_OUTER_BOUND ( 'NONE', #13, .T. ) ;
#2 = CARTESIAN_POINT ( 'NONE',  ( -15.00000000000000000, 650.0000000000000000, 15.00000000000000000 ) ) ;
#3 = COORDINATED_UNIVERSAL_TIME_OFFSET ( 8, 0, .AHEAD. ) ;
#4 = DIRECTION ( 'NONE',  ( -0.000000000000000000, -1.000000000000000000, -0.000000000000000000 ) ) ;
#5 = DATE_TIME_ROLE ( 'classification_date' ) ;
#6 = CARTESIAN_POINT ( 'NONE',  ( 15.00000000000000000, 650.0000000000000000, 15.00000000000000000 ) ) ;
#7 = PERSON_AND_ORGANIZATION ( #177, #229 ) ;
#8 = CALENDAR_DATE ( 2026, 26, 7 ) ;
#9 = APPROVAL ( #62, '未指定' ) ;
#10 = AXIS2_PLACEMENT_3D ( 'NONE', #2, #39, #38 ) ;
#11 = APPLICATION_CONTEXT ( 'configuration controlled 3d designs of mechanical parts and assemblies' ) ;
#12 = ORIENTED_EDGE ( 'NONE', *, *, #195, .F. ) ;
#13 = EDGE_LOOP ( 'NONE', ( #181, #178, #48, #85 ) ) ;
#14 = VECTOR ( 'NONE', #196, 1000.000000000000000 ) ;
#15 = SECURITY_CLASSIFICATION ( '', '', #96 ) ;
#16 = CARTESIAN_POINT ( 'NONE',  ( -15.00000000000000000, 0.000000000000000000, 15.00000000000000000 ) ) ;
#17 = DIRECTION ( 'NONE',  ( -1.000000000000000000, -0.000000000000000000, -0.000000000000000000 ) ) ;
#18 = SHAPE_DEFINITION_REPRESENTATION ( #119, #102 ) ;
#19 = CARTESIAN_POINT ( 'NONE',  ( -15.00000000000000000, 650.0000000000000000, -15.00000000000000000 ) ) ;
#20 = DATE_TIME_ROLE ( 'creation_date' ) ;
#21 = CARTESIAN_POINT ( 'NONE',  ( 15.00000000000000000, 650.0000000000000000, -15.00000000000000000 ) ) ;
#22 = APPROVAL_ROLE ( '' ) ;
#23 = LINE ( 'NONE', #129, #208 ) ;
#24 = DIRECTION ( 'NONE',  ( 0.000000000000000000, 0.000000000000000000, -1.000000000000000000 ) ) ;
#25 = APPROVAL_PERSON_ORGANIZATION ( #77, #121, #224 ) ;
#26 = COORDINATED_UNIVERSAL_TIME_OFFSET ( 8, 0, .AHEAD. ) ;
#27 = CC_DESIGN_PERSON_AND_ORGANIZATION_ASSIGNMENT ( #7, #111, ( #81 ) ) ;
#28 = AXIS2_PLACEMENT_3D ( 'NONE', #136, #60, #79 ) ;
#29 = AXIS2_PLACEMENT_3D ( 'NONE', #155, #219, #53 ) ;
#30 = ORIENTED_EDGE ( 'NONE', *, *, #45, .T. ) ;
#31 = EDGE_CURVE ( 'NONE', #198, #126, #139, .T. ) ;
#32 = ORIENTED_EDGE ( 'NONE', *, *, #87, .F. ) ;
#33 = LINE ( 'NONE', #182, #44 ) ;
#34 = CC_DESIGN_PERSON_AND_ORGANIZATION_ASSIGNMENT ( #94, #134, ( #128 ) ) ;
#35 = CC_DESIGN_APPROVAL ( #9, ( #128 ) ) ;
#36 = CARTESIAN_POINT ( 'NONE',  ( -15.00000000000000000, 650.0000000000000000, 15.00000000000000000 ) ) ;
#37 = DIRECTION ( 'NONE',  ( 0.000000000000000000, 0.000000000000000000, 1.000000000000000000 ) ) ;
#38 = DIRECTION ( 'NONE',  ( -1.000000000000000000, 0.000000000000000000, -0.000000000000000000 ) ) ;
#39 = DIRECTION ( 'NONE',  ( 0.000000000000000000, 0.000000000000000000, -1.000000000000000000 ) ) ;
#40 = COORDINATED_UNIVERSAL_TIME_OFFSET ( 8, 0, .AHEAD. ) ;
#41 = PLANE ( 'NONE',  #82 ) ;
#42 = DATE_AND_TIME ( #149, #46 ) ;
#43 = APPROVAL_ROLE ( '' ) ;
#44 = VECTOR ( 'NONE', #233, 1000.000000000000000 ) ;
#45 = EDGE_CURVE ( 'NONE', #145, #123, #33, .T. ) ;
#46 = LOCAL_TIME ( 23, 41, 42.00000000000000000, #222 ) ;
#47 = CC_DESIGN_PERSON_AND_ORGANIZATION_ASSIGNMENT ( #109, #207, ( #107 ) ) ;
#48 = ORIENTED_EDGE ( 'NONE', *, *, #31, .F. ) ;
#49 = VECTOR ( 'NONE', #166, 1000.000000000000000 ) ;
#50 = CARTESIAN_POINT ( 'NONE',  ( 15.00000000000000000, 650.0000000000000000, 15.00000000000000000 ) ) ;
#51 = VERTEX_POINT ( 'NONE', #199 ) ;
#52 = CARTESIAN_POINT ( 'NONE',  ( 0.000000000000000000, 650.0000000000000000, 0.000000000000000000 ) ) ;
#53 = DIRECTION ( 'NONE',  ( 0.000000000000000000, 0.000000000000000000, 1.000000000000000000 ) ) ;
#54 =( NAMED_UNIT ( * ) PLANE_ANGLE_UNIT ( ) SI_UNIT ( $, .RADIAN. ) );
#55 = EDGE_CURVE ( 'NONE', #101, #100, #152, .T. ) ;
#56 = DIRECTION ( 'NONE',  ( 1.000000000000000000, 0.000000000000000000, -0.000000000000000000 ) ) ;
#57 = PERSON_AND_ORGANIZATION ( #177, #229 ) ;
#58 = LOCAL_TIME ( 23, 41, 42.00000000000000000, #3 ) ;
#59 = LINE ( 'NONE', #36, #160 ) ;
#60 = DIRECTION ( 'NONE',  ( 0.000000000000000000, 0.000000000000000000, 1.000000000000000000 ) ) ;
#61 = CARTESIAN_POINT ( 'NONE',  ( -15.00000000000000000, 650.0000000000000000, -15.00000000000000000 ) ) ;
#62 = APPROVAL_STATUS ( 'not_yet_approved' ) ;
#63 = VECTOR ( 'NONE', #221, 1000.000000000000000 ) ;
#64 = MANIFOLD_SOLID_BREP ( '凸台-拉伸1', #118 ) ;
#65 = EDGE_CURVE ( 'NONE', #123, #198, #59, .T. ) ;
#66 = PRODUCT_RELATED_PRODUCT_CATEGORY ( 'detail', '', ( #81 ) ) ;
#67 = ORIENTED_EDGE ( 'NONE', *, *, #141, .T. ) ;
#68 = ORIENTED_EDGE ( 'NONE', *, *, #55, .T. ) ;
#69 = ORIENTED_EDGE ( 'NONE', *, *, #72, .T. ) ;
#70 = DIRECTION ( 'NONE',  ( 0.000000000000000000, -0.000000000000000000, -1.000000000000000000 ) ) ;
#71 = CARTESIAN_POINT ( 'NONE',  ( -15.00000000000000000, 650.0000000000000000, 15.00000000000000000 ) ) ;
#72 = EDGE_CURVE ( 'NONE', #100, #142, #187, .T. ) ;
#73 = PERSON_AND_ORGANIZATION ( #177, #229 ) ;
#74 = CARTESIAN_POINT ( 'NONE',  ( -15.00000000000000000, 0.000000000000000000, 15.00000000000000000 ) ) ;
#75 = PERSON_AND_ORGANIZATION ( #177, #229 ) ;
#76 = FACE_OUTER_BOUND ( 'NONE', #183, .T. ) ;
#77 = PERSON_AND_ORGANIZATION ( #177, #229 ) ;
#78 = CARTESIAN_POINT ( 'NONE',  ( 15.00000000000000000, 0.000000000000000000, 15.00000000000000000 ) ) ;
#79 = DIRECTION ( 'NONE',  ( 1.000000000000000000, 0.000000000000000000, 0.000000000000000000 ) ) ;
#80 = DATE_AND_TIME ( #8, #154 ) ;
#81 = PRODUCT ( 'FN-FRM-002_rail-30x30x650_CONCEPT_R0.6', 'FN-FRM-002_rail-30x30x650_CONCEPT_R0.6', '', ( #211 ) ) ;
#82 = AXIS2_PLACEMENT_3D ( 'NONE', #95, #112, #70 ) ;
#83 = ORIENTED_EDGE ( 'NONE', *, *, #55, .F. ) ;
#84 = ORIENTED_EDGE ( 'NONE', *, *, #204, .F. ) ;
#85 = ORIENTED_EDGE ( 'NONE', *, *, #195, .T. ) ;
#86 = PLANE ( 'NONE',  #99 ) ;
#87 = EDGE_CURVE ( 'NONE', #142, #51, #185, .T. ) ;
#88 = CARTESIAN_POINT ( 'NONE',  ( -15.00000000000000000, 0.000000000000000000, 15.00000000000000000 ) ) ;
#89 = VECTOR ( 'NONE', #190, 1000.000000000000000 ) ;
#90 = DIRECTION ( 'NONE',  ( -1.000000000000000000, -0.000000000000000000, -0.000000000000000000 ) ) ;
#91 = PERSON_AND_ORGANIZATION ( #177, #229 ) ;
#92 = VECTOR ( 'NONE', #236, 1000.000000000000000 ) ;
#93 = FACE_OUTER_BOUND ( 'NONE', #231, .T. ) ;
#94 = PERSON_AND_ORGANIZATION ( #177, #229 ) ;
#95 = CARTESIAN_POINT ( 'NONE',  ( 0.000000000000000000, 0.000000000000000000, 0.000000000000000000 ) ) ;
#96 = SECURITY_CLASSIFICATION_LEVEL ( 'unclassified' ) ;
#97 =( GEOMETRIC_REPRESENTATION_CONTEXT ( 3 ) GLOBAL_UNCERTAINTY_ASSIGNED_CONTEXT ( ( #158 ) ) GLOBAL_UNIT_ASSIGNED_CONTEXT ( ( #115, #54, #168 ) ) REPRESENTATION_CONTEXT ( 'NONE', 'WORKASPACE' ) );
#98 = ADVANCED_FACE ( 'NONE', ( #170 ), #41, .T. ) ;
#99 = AXIS2_PLACEMENT_3D ( 'NONE', #167, #37, #56 ) ;
#100 = VERTEX_POINT ( 'NONE', #133 ) ;
#101 = VERTEX_POINT ( 'NONE', #184 ) ;
#102 = ADVANCED_BREP_SHAPE_REPRESENTATION ( 'FN-FRM-002_rail-30x30x650_CONCEPT_R0.6', ( #64, #28 ), #97 ) ;
#103 = ORIENTED_EDGE ( 'NONE', *, *, #65, .T. ) ;
#104 = ORIENTED_EDGE ( 'NONE', *, *, #45, .F. ) ;
#105 = LOCAL_TIME ( 23, 41, 42.00000000000000000, #40 ) ;
#106 = CARTESIAN_POINT ( 'NONE',  ( 15.00000000000000000, 650.0000000000000000, -15.00000000000000000 ) ) ;
#107 = PRODUCT_DEFINITION ( '未知', '', #128, #120 ) ;
#108 = PLANE ( 'NONE',  #165 ) ;
#109 = PERSON_AND_ORGANIZATION ( #177, #229 ) ;
#110 = LINE ( 'NONE', #19, #169 ) ;
#111 = PERSON_AND_ORGANIZATION_ROLE ( 'design_owner' ) ;
#112 = DIRECTION ( 'NONE',  ( 0.000000000000000000, -1.000000000000000000, 0.000000000000000000 ) ) ;
#113 = DIRECTION ( 'NONE',  ( 0.000000000000000000, 0.000000000000000000, -1.000000000000000000 ) ) ;
#114 = APPLICATION_PROTOCOL_DEFINITION ( 'international standard', 'config_control_design', 1994, #125 ) ;
#115 =( LENGTH_UNIT ( ) NAMED_UNIT ( * ) SI_UNIT ( .MILLI., .METRE. ) );
#116 = APPROVAL_DATE_TIME ( #191, #9 ) ;
#117 = ADVANCED_FACE ( 'NONE', ( #202 ), #108, .F. ) ;
#118 = CLOSED_SHELL ( 'NONE', ( #235, #159, #157, #148, #117, #98 ) ) ;
#119 = PRODUCT_DEFINITION_SHAPE ( 'NONE', 'NONE',  #107 ) ;
#120 = DESIGN_CONTEXT ( 'detailed design', #11, 'design' ) ;
#121 = APPROVAL ( #176, '未指定' ) ;
#122 = AXIS2_PLACEMENT_3D ( 'NONE', #192, #135, #24 ) ;
#123 = VERTEX_POINT ( 'NONE', #71 ) ;
#124 = ORIENTED_EDGE ( 'NONE', *, *, #137, .F. ) ;
#125 = APPLICATION_CONTEXT ( 'configuration controlled 3d designs of mechanical parts and assemblies' ) ;
#126 = VERTEX_POINT ( 'NONE', #106 ) ;
#127 = CC_DESIGN_DATE_AND_TIME_ASSIGNMENT ( #172, #5, ( #15 ) ) ;
#128 = PRODUCT_DEFINITION_FORMATION_WITH_SPECIFIED_SOURCE ( '任何', '', #81, .NOT_KNOWN. ) ;
#129 = CARTESIAN_POINT ( 'NONE',  ( -15.00000000000000000, 650.0000000000000000, 15.00000000000000000 ) ) ;
#130 = FACE_OUTER_BOUND ( 'NONE', #213, .T. ) ;
#131 = LINE ( 'NONE', #78, #197 ) ;
#132 = CALENDAR_DATE ( 2026, 26, 7 ) ;
#133 = CARTESIAN_POINT ( 'NONE',  ( -15.00000000000000000, 0.000000000000000000, -15.00000000000000000 ) ) ;
#134 = PERSON_AND_ORGANIZATION_ROLE ( 'creator' ) ;
#135 = DIRECTION ( 'NONE',  ( 1.000000000000000000, -0.000000000000000000, 0.000000000000000000 ) ) ;
#136 = CARTESIAN_POINT ( 'NONE',  ( 0.000000000000000000, 0.000000000000000000, 0.000000000000000000 ) ) ;
#137 = EDGE_CURVE ( 'NONE', #145, #100, #223, .T. ) ;
#138 = APPROVAL_PERSON_ORGANIZATION ( #91, #9, #43 ) ;
#139 = LINE ( 'NONE', #50, #14 ) ;
#140 = ORIENTED_EDGE ( 'NONE', *, *, #141, .F. ) ;
#141 = EDGE_CURVE ( 'NONE', #123, #142, #23, .T. ) ;
#142 = VERTEX_POINT ( 'NONE', #16 ) ;
#143 = VECTOR ( 'NONE', #4, 1000.000000000000000 ) ;
#144 = ORIENTED_EDGE ( 'NONE', *, *, #137, .T. ) ;
#145 = VERTEX_POINT ( 'NONE', #146 ) ;
#146 = CARTESIAN_POINT ( 'NONE',  ( -15.00000000000000000, 650.0000000000000000, -15.00000000000000000 ) ) ;
#147 = PLANE ( 'NONE',  #29 ) ;
#148 = ADVANCED_FACE ( 'NONE', ( #76 ), #86, .F. ) ;
#149 = CALENDAR_DATE ( 2026, 26, 7 ) ;
#150 = LINE ( 'NONE', #173, #63 ) ;
#151 = PERSON_AND_ORGANIZATION_ROLE ( 'design_supplier' ) ;
#152 = LINE ( 'NONE', #200, #180 ) ;
#153 = CALENDAR_DATE ( 2026, 26, 7 ) ;
#154 = LOCAL_TIME ( 23, 41, 42.00000000000000000, #210 ) ;
#155 = CARTESIAN_POINT ( 'NONE',  ( 15.00000000000000000, 650.0000000000000000, 15.00000000000000000 ) ) ;
#156 = APPROVAL_DATE_TIME ( #42, #218 ) ;
#157 = ADVANCED_FACE ( 'NONE', ( #1 ), #147, .F. ) ;
#158 = UNCERTAINTY_MEASURE_WITH_UNIT (LENGTH_MEASURE( 1.000000000000000082E-05 ), #115, 'distance_accuracy_value', 'NONE');
#159 = ADVANCED_FACE ( 'NONE', ( #130 ), #225, .F. ) ;
#160 = VECTOR ( 'NONE', #205, 1000.000000000000000 ) ;
#161 = ORIENTED_EDGE ( 'NONE', *, *, #72, .F. ) ;
#162 = ORIENTED_EDGE ( 'NONE', *, *, #228, .T. ) ;
#163 = ORIENTED_EDGE ( 'NONE', *, *, #31, .T. ) ;
#164 = APPROVAL_PERSON_ORGANIZATION ( #73, #218, #22 ) ;
#165 = AXIS2_PLACEMENT_3D ( 'NONE', #52, #217, #189 ) ;
#166 = DIRECTION ( 'NONE',  ( 1.000000000000000000, 0.000000000000000000, 0.000000000000000000 ) ) ;
#167 = CARTESIAN_POINT ( 'NONE',  ( -15.00000000000000000, 650.0000000000000000, -15.00000000000000000 ) ) ;
#168 =( NAMED_UNIT ( * ) SI_UNIT ( $, .STERADIAN. ) SOLID_ANGLE_UNIT ( ) );
#169 = VECTOR ( 'NONE', #90, 1000.000000000000000 ) ;
#170 = FACE_OUTER_BOUND ( 'NONE', #234, .T. ) ;
#171 = PLANE ( 'NONE',  #122 ) ;
#172 = DATE_AND_TIME ( #132, #194 ) ;
#173 = CARTESIAN_POINT ( 'NONE',  ( 15.00000000000000000, 650.0000000000000000, 15.00000000000000000 ) ) ;
#174 = CC_DESIGN_SECURITY_CLASSIFICATION ( #15, ( #128 ) ) ;
#175 = CC_DESIGN_PERSON_AND_ORGANIZATION_ASSIGNMENT ( #57, #193, ( #15 ) ) ;
#176 = APPROVAL_STATUS ( 'not_yet_approved' ) ;
#177 = PERSON ( '未指定', '未指定', '未指定', ('未指定'), ('未指定'), ('未指定') ) ;
#178 = ORIENTED_EDGE ( 'NONE', *, *, #228, .F. ) ;
#179 = CC_DESIGN_DATE_AND_TIME_ASSIGNMENT ( #227, #20, ( #107 ) ) ;
#180 = VECTOR ( 'NONE', #17, 1000.000000000000000 ) ;
#181 = ORIENTED_EDGE ( 'NONE', *, *, #204, .T. ) ;
#182 = CARTESIAN_POINT ( 'NONE',  ( -15.00000000000000000, 650.0000000000000000, 15.00000000000000000 ) ) ;
#183 = EDGE_LOOP ( 'NONE', ( #68, #124, #216, #162 ) ) ;
#184 = CARTESIAN_POINT ( 'NONE',  ( 15.00000000000000000, 0.000000000000000000, -15.00000000000000000 ) ) ;
#185 = LINE ( 'NONE', #88, #49 ) ;
#186 = EDGE_CURVE ( 'NONE', #126, #145, #110, .T. ) ;
#187 = LINE ( 'NONE', #74, #92 ) ;
#188 = APPROVAL_STATUS ( 'not_yet_approved' ) ;
#189 = DIRECTION ( 'NONE',  ( 0.000000000000000000, -0.000000000000000000, -1.000000000000000000 ) ) ;
#190 = DIRECTION ( 'NONE',  ( -0.000000000000000000, -1.000000000000000000, -0.000000000000000000 ) ) ;
#191 = DATE_AND_TIME ( #153, #58 ) ;
#192 = CARTESIAN_POINT ( 'NONE',  ( -15.00000000000000000, 650.0000000000000000, 15.00000000000000000 ) ) ;
#193 = PERSON_AND_ORGANIZATION_ROLE ( 'classification_officer' ) ;
#194 = LOCAL_TIME ( 23, 41, 42.00000000000000000, #26 ) ;
#195 = EDGE_CURVE ( 'NONE', #198, #51, #150, .T. ) ;
#196 = DIRECTION ( 'NONE',  ( 0.000000000000000000, 0.000000000000000000, -1.000000000000000000 ) ) ;
#197 = VECTOR ( 'NONE', #113, 1000.000000000000000 ) ;
#198 = VERTEX_POINT ( 'NONE', #6 ) ;
#199 = CARTESIAN_POINT ( 'NONE',  ( 15.00000000000000000, 0.000000000000000000, 15.00000000000000000 ) ) ;
#200 = CARTESIAN_POINT ( 'NONE',  ( -15.00000000000000000, 0.000000000000000000, -15.00000000000000000 ) ) ;
#201 = CC_DESIGN_APPROVAL ( #218, ( #107 ) ) ;
#202 = FACE_OUTER_BOUND ( 'NONE', #215, .T. ) ;
#203 = APPROVAL_DATE_TIME ( #80, #121 ) ;
#204 = EDGE_CURVE ( 'NONE', #51, #101, #131, .T. ) ;
#205 = DIRECTION ( 'NONE',  ( 1.000000000000000000, 0.000000000000000000, 0.000000000000000000 ) ) ;
#206 = LINE ( 'NONE', #21, #89 ) ;
#207 = PERSON_AND_ORGANIZATION_ROLE ( 'creator' ) ;
#208 = VECTOR ( 'NONE', #209, 1000.000000000000000 ) ;
#209 = DIRECTION ( 'NONE',  ( -0.000000000000000000, -1.000000000000000000, -0.000000000000000000 ) ) ;
#210 = COORDINATED_UNIVERSAL_TIME_OFFSET ( 8, 0, .AHEAD. ) ;
#211 = MECHANICAL_CONTEXT ( 'NONE', #125, 'mechanical' ) ;
#212 = CC_DESIGN_APPROVAL ( #121, ( #15 ) ) ;
#213 = EDGE_LOOP ( 'NONE', ( #230, #12, #232, #67 ) ) ;
#214 = ORIENTED_EDGE ( 'NONE', *, *, #186, .T. ) ;
#215 = EDGE_LOOP ( 'NONE', ( #30, #103, #163, #214 ) ) ;
#216 = ORIENTED_EDGE ( 'NONE', *, *, #186, .F. ) ;
#217 = DIRECTION ( 'NONE',  ( 0.000000000000000000, -1.000000000000000000, 0.000000000000000000 ) ) ;
#218 = APPROVAL ( #188, '未指定' ) ;
#219 = DIRECTION ( 'NONE',  ( -1.000000000000000000, 0.000000000000000000, 0.000000000000000000 ) ) ;
#220 = APPLICATION_PROTOCOL_DEFINITION ( 'international standard', 'config_control_design', 1994, #11 ) ;
#221 = DIRECTION ( 'NONE',  ( -0.000000000000000000, -1.000000000000000000, -0.000000000000000000 ) ) ;
#222 = COORDINATED_UNIVERSAL_TIME_OFFSET ( 8, 0, .AHEAD. ) ;
#223 = LINE ( 'NONE', #61, #143 ) ;
#224 = APPROVAL_ROLE ( '' ) ;
#225 = PLANE ( 'NONE',  #10 ) ;
#226 = CALENDAR_DATE ( 2026, 26, 7 ) ;
#227 = DATE_AND_TIME ( #226, #105 ) ;
#228 = EDGE_CURVE ( 'NONE', #126, #101, #206, .T. ) ;
#229 = ORGANIZATION ( '未指定', '未指定', '' ) ;
#230 = ORIENTED_EDGE ( 'NONE', *, *, #87, .T. ) ;
#231 = EDGE_LOOP ( 'NONE', ( #69, #140, #104, #144 ) ) ;
#232 = ORIENTED_EDGE ( 'NONE', *, *, #65, .F. ) ;
#233 = DIRECTION ( 'NONE',  ( -0.000000000000000000, -0.000000000000000000, 1.000000000000000000 ) ) ;
#234 = EDGE_LOOP ( 'NONE', ( #161, #83, #84, #32 ) ) ;
#235 = ADVANCED_FACE ( 'NONE', ( #93 ), #171, .F. ) ;
#236 = DIRECTION ( 'NONE',  ( -0.000000000000000000, -0.000000000000000000, 1.000000000000000000 ) ) ;
#237 = CC_DESIGN_PERSON_AND_ORGANIZATION_ASSIGNMENT ( #75, #151, ( #128 ) ) ;
ENDSEC;
END-ISO-10303-21;
