ISO-10303-21;
HEADER;
FILE_DESCRIPTION (( 'STEP AP203' ),
    '1' );
FILE_NAME ('FN-FRM-003_crossmember-330x30x30_CONCEPT_R0.6.STEP',
    '2026-07-26T15:41:48',
    ( '' ),
    ( '' ),
    'SwSTEP 2.0',
    'SolidWorks 2022',
    '' );
FILE_SCHEMA (( 'CONFIG_CONTROL_DESIGN' ));
ENDSEC;

DATA;
#1 = DIRECTION ( 'NONE',  ( 0.000000000000000000, 0.000000000000000000, -1.000000000000000000 ) ) ;
#2 = CARTESIAN_POINT ( 'NONE',  ( -165.0000000000000000, 0.000000000000000000, 15.00000000000000000 ) ) ;
#3 = LOCAL_TIME ( 23, 41, 48.00000000000000000, #74 ) ;
#4 = PLANE ( 'NONE',  #82 ) ;
#5 = PERSON_AND_ORGANIZATION ( #225, #178 ) ;
#6 = VECTOR ( 'NONE', #17, 1000.000000000000000 ) ;
#7 = SECURITY_CLASSIFICATION ( '', '', #40 ) ;
#8 = APPLICATION_PROTOCOL_DEFINITION ( 'international standard', 'config_control_design', 1994, #116 ) ;
#9 = CALENDAR_DATE ( 2026, 26, 7 ) ;
#10 = ADVANCED_BREP_SHAPE_REPRESENTATION ( 'FN-FRM-003_crossmember-330x30x30_CONCEPT_R0.6', ( #207, #149 ), #94 ) ;
#11 = PRODUCT ( 'FN-FRM-003_crossmember-330x30x30_CONCEPT_R0.6', 'FN-FRM-003_crossmember-330x30x30_CONCEPT_R0.6', '', ( #43 ) ) ;
#12 = ORIENTED_EDGE ( 'NONE', *, *, #93, .T. ) ;
#13 = EDGE_LOOP ( 'NONE', ( #137, #98, #172, #30 ) ) ;
#14 = LINE ( 'NONE', #45, #147 ) ;
#15 = EDGE_CURVE ( 'NONE', #197, #193, #14, .T. ) ;
#16 = ORIENTED_EDGE ( 'NONE', *, *, #139, .T. ) ;
#17 = DIRECTION ( 'NONE',  ( -0.000000000000000000, -1.000000000000000000, -0.000000000000000000 ) ) ;
#18 = EDGE_CURVE ( 'NONE', #179, #115, #97, .T. ) ;
#19 = LINE ( 'NONE', #38, #6 ) ;
#20 = DIRECTION ( 'NONE',  ( 1.000000000000000000, -0.000000000000000000, 0.000000000000000000 ) ) ;
#21 = CARTESIAN_POINT ( 'NONE',  ( -165.0000000000000000, 30.00000000000000000, 15.00000000000000000 ) ) ;
#22 = DIRECTION ( 'NONE',  ( 1.000000000000000000, 0.000000000000000000, -0.000000000000000000 ) ) ;
#23 = APPROVAL_DATE_TIME ( #154, #175 ) ;
#24 = EDGE_CURVE ( 'NONE', #199, #231, #173, .T. ) ;
#25 = APPROVAL_PERSON_ORGANIZATION ( #5, #175, #111 ) ;
#26 = DIRECTION ( 'NONE',  ( 0.000000000000000000, 0.000000000000000000, 1.000000000000000000 ) ) ;
#27 = CALENDAR_DATE ( 2026, 26, 7 ) ;
#28 = ORIENTED_EDGE ( 'NONE', *, *, #224, .F. ) ;
#29 = DIRECTION ( 'NONE',  ( 1.000000000000000000, 0.000000000000000000, 0.000000000000000000 ) ) ;
#30 = ORIENTED_EDGE ( 'NONE', *, *, #15, .T. ) ;
#31 = CC_DESIGN_PERSON_AND_ORGANIZATION_ASSIGNMENT ( #90, #92, ( #11 ) ) ;
#32 = AXIS2_PLACEMENT_3D ( 'NONE', #21, #218, #89 ) ;
#33 = ORIENTED_EDGE ( 'NONE', *, *, #110, .T. ) ;
#34 = CARTESIAN_POINT ( 'NONE',  ( 165.0000000000000000, 30.00000000000000000, -15.00000000000000000 ) ) ;
#35 = CARTESIAN_POINT ( 'NONE',  ( 0.000000000000000000, 0.000000000000000000, 0.000000000000000000 ) ) ;
#36 = LINE ( 'NONE', #142, #119 ) ;
#37 = LOCAL_TIME ( 23, 41, 48.00000000000000000, #209 ) ;
#38 = CARTESIAN_POINT ( 'NONE',  ( -165.0000000000000000, 30.00000000000000000, 15.00000000000000000 ) ) ;
#39 = CARTESIAN_POINT ( 'NONE',  ( 0.000000000000000000, 30.00000000000000000, 0.000000000000000000 ) ) ;
#40 = SECURITY_CLASSIFICATION_LEVEL ( 'unclassified' ) ;
#41 = ADVANCED_FACE ( 'NONE', ( #81 ), #84, .F. ) ;
#42 = VECTOR ( 'NONE', #29, 1000.000000000000000 ) ;
#43 = MECHANICAL_CONTEXT ( 'NONE', #145, 'mechanical' ) ;
#44 = PRODUCT_RELATED_PRODUCT_CATEGORY ( 'detail', '', ( #11 ) ) ;
#45 = CARTESIAN_POINT ( 'NONE',  ( -165.0000000000000000, 30.00000000000000000, -15.00000000000000000 ) ) ;
#46 = ORIENTED_EDGE ( 'NONE', *, *, #139, .F. ) ;
#47 = ORIENTED_EDGE ( 'NONE', *, *, #108, .F. ) ;
#48 = SHAPE_DEFINITION_REPRESENTATION ( #78, #10 ) ;
#49 = EDGE_LOOP ( 'NONE', ( #235, #174, #28, #159 ) ) ;
#50 = CARTESIAN_POINT ( 'NONE',  ( 165.0000000000000000, 30.00000000000000000, 15.00000000000000000 ) ) ;
#51 = VECTOR ( 'NONE', #126, 1000.000000000000000 ) ;
#52 = DIRECTION ( 'NONE',  ( 0.000000000000000000, 0.000000000000000000, -1.000000000000000000 ) ) ;
#53 = CARTESIAN_POINT ( 'NONE',  ( 165.0000000000000000, 30.00000000000000000, 15.00000000000000000 ) ) ;
#54 = DIRECTION ( 'NONE',  ( -1.000000000000000000, -0.000000000000000000, -0.000000000000000000 ) ) ;
#55 = CC_DESIGN_SECURITY_CLASSIFICATION ( #7, ( #203 ) ) ;
#56 = CARTESIAN_POINT ( 'NONE',  ( -165.0000000000000000, 30.00000000000000000, 15.00000000000000000 ) ) ;
#57 = DATE_AND_TIME ( #223, #73 ) ;
#58 = CALENDAR_DATE ( 2026, 26, 7 ) ;
#59 = ADVANCED_FACE ( 'NONE', ( #69 ), #205, .T. ) ;
#60 = DATE_TIME_ROLE ( 'creation_date' ) ;
#61 = PERSON_AND_ORGANIZATION ( #225, #178 ) ;
#62 = APPROVAL_STATUS ( 'not_yet_approved' ) ;
#63 = CC_DESIGN_PERSON_AND_ORGANIZATION_ASSIGNMENT ( #189, #129, ( #196 ) ) ;
#64 = CC_DESIGN_APPROVAL ( #143, ( #7 ) ) ;
#65 = ORIENTED_EDGE ( 'NONE', *, *, #163, .F. ) ;
#66 = ORIENTED_EDGE ( 'NONE', *, *, #18, .F. ) ;
#67 = CARTESIAN_POINT ( 'NONE',  ( -165.0000000000000000, 30.00000000000000000, -15.00000000000000000 ) ) ;
#68 = CARTESIAN_POINT ( 'NONE',  ( -165.0000000000000000, 0.000000000000000000, -15.00000000000000000 ) ) ;
#69 = FACE_OUTER_BOUND ( 'NONE', #216, .T. ) ;
#70 = ADVANCED_FACE ( 'NONE', ( #181 ), #180, .F. ) ;
#71 = AXIS2_PLACEMENT_3D ( 'NONE', #67, #102, #22 ) ;
#72 = LINE ( 'NONE', #160, #229 ) ;
#73 = LOCAL_TIME ( 23, 41, 48.00000000000000000, #222 ) ;
#74 = COORDINATED_UNIVERSAL_TIME_OFFSET ( 8, 0, .AHEAD. ) ;
#75 = DIRECTION ( 'NONE',  ( 1.000000000000000000, 0.000000000000000000, 0.000000000000000000 ) ) ;
#76 =( NAMED_UNIT ( * ) SI_UNIT ( $, .STERADIAN. ) SOLID_ANGLE_UNIT ( ) );
#77 = DATE_AND_TIME ( #9, #138 ) ;
#78 = PRODUCT_DEFINITION_SHAPE ( 'NONE', 'NONE',  #196 ) ;
#79 = DIRECTION ( 'NONE',  ( -0.000000000000000000, -1.000000000000000000, -0.000000000000000000 ) ) ;
#80 = EDGE_LOOP ( 'NONE', ( #33, #120, #66, #12 ) ) ;
#81 = FACE_OUTER_BOUND ( 'NONE', #83, .T. ) ;
#82 = AXIS2_PLACEMENT_3D ( 'NONE', #50, #237, #86 ) ;
#83 = EDGE_LOOP ( 'NONE', ( #234, #195, #16, #158 ) ) ;
#84 = PLANE ( 'NONE',  #91 ) ;
#85 = LINE ( 'NONE', #2, #88 ) ;
#86 = DIRECTION ( 'NONE',  ( 0.000000000000000000, 0.000000000000000000, 1.000000000000000000 ) ) ;
#87 = CARTESIAN_POINT ( 'NONE',  ( 165.0000000000000000, 30.00000000000000000, 15.00000000000000000 ) ) ;
#88 = VECTOR ( 'NONE', #150, 1000.000000000000000 ) ;
#89 = DIRECTION ( 'NONE',  ( -1.000000000000000000, 0.000000000000000000, -0.000000000000000000 ) ) ;
#90 = PERSON_AND_ORGANIZATION ( #225, #178 ) ;
#91 = AXIS2_PLACEMENT_3D ( 'NONE', #39, #236, #185 ) ;
#92 = PERSON_AND_ORGANIZATION_ROLE ( 'design_owner' ) ;
#93 = EDGE_CURVE ( 'NONE', #179, #140, #19, .T. ) ;
#94 =( GEOMETRIC_REPRESENTATION_CONTEXT ( 3 ) GLOBAL_UNCERTAINTY_ASSIGNED_CONTEXT ( ( #230 ) ) GLOBAL_UNIT_ASSIGNED_CONTEXT ( ( #130, #166, #76 ) ) REPRESENTATION_CONTEXT ( 'NONE', 'WORKASPACE' ) );
#95 = PERSON_AND_ORGANIZATION ( #225, #178 ) ;
#96 = DATE_AND_TIME ( #27, #169 ) ;
#97 = LINE ( 'NONE', #136, #42 ) ;
#98 = ORIENTED_EDGE ( 'NONE', *, *, #93, .F. ) ;
#99 = DIRECTION ( 'NONE',  ( 0.000000000000000000, 0.000000000000000000, -1.000000000000000000 ) ) ;
#100 = ORIENTED_EDGE ( 'NONE', *, *, #110, .F. ) ;
#101 = ORIENTED_EDGE ( 'NONE', *, *, #118, .F. ) ;
#102 = DIRECTION ( 'NONE',  ( 0.000000000000000000, 0.000000000000000000, 1.000000000000000000 ) ) ;
#103 = DIRECTION ( 'NONE',  ( 0.000000000000000000, -0.000000000000000000, -1.000000000000000000 ) ) ;
#104 = CC_DESIGN_APPROVAL ( #175, ( #203 ) ) ;
#105 = CARTESIAN_POINT ( 'NONE',  ( 165.0000000000000000, 0.000000000000000000, 15.00000000000000000 ) ) ;
#106 = DIRECTION ( 'NONE',  ( 0.000000000000000000, -1.000000000000000000, 0.000000000000000000 ) ) ;
#107 = FACE_OUTER_BOUND ( 'NONE', #80, .T. ) ;
#108 = EDGE_CURVE ( 'NONE', #231, #193, #36, .T. ) ;
#109 = APPROVAL_STATUS ( 'not_yet_approved' ) ;
#110 = EDGE_CURVE ( 'NONE', #140, #199, #85, .T. ) ;
#111 = APPROVAL_ROLE ( '' ) ;
#112 = ADVANCED_FACE ( 'NONE', ( #107 ), #183, .F. ) ;
#113 = VECTOR ( 'NONE', #123, 1000.000000000000000 ) ;
#114 = APPROVAL_DATE_TIME ( #57, #214 ) ;
#115 = VERTEX_POINT ( 'NONE', #162 ) ;
#116 = APPLICATION_CONTEXT ( 'configuration controlled 3d designs of mechanical parts and assemblies' ) ;
#117 = CARTESIAN_POINT ( 'NONE',  ( 165.0000000000000000, 0.000000000000000000, 15.00000000000000000 ) ) ;
#118 = EDGE_CURVE ( 'NONE', #156, #231, #72, .T. ) ;
#119 = VECTOR ( 'NONE', #200, 1000.000000000000000 ) ;
#120 = ORIENTED_EDGE ( 'NONE', *, *, #204, .F. ) ;
#121 = CARTESIAN_POINT ( 'NONE',  ( -165.0000000000000000, 0.000000000000000000, 15.00000000000000000 ) ) ;
#122 = DIRECTION ( 'NONE',  ( -0.000000000000000000, -0.000000000000000000, 1.000000000000000000 ) ) ;
#123 = DIRECTION ( 'NONE',  ( -0.000000000000000000, -1.000000000000000000, -0.000000000000000000 ) ) ;
#124 = CLOSED_SHELL ( 'NONE', ( #210, #112, #191, #70, #41, #59 ) ) ;
#125 = APPROVAL_PERSON_ORGANIZATION ( #171, #214, #152 ) ;
#126 = DIRECTION ( 'NONE',  ( -0.000000000000000000, -0.000000000000000000, 1.000000000000000000 ) ) ;
#127 = CARTESIAN_POINT ( 'NONE',  ( 165.0000000000000000, 0.000000000000000000, -15.00000000000000000 ) ) ;
#128 = APPROVAL_STATUS ( 'not_yet_approved' ) ;
#129 = PERSON_AND_ORGANIZATION_ROLE ( 'creator' ) ;
#130 =( LENGTH_UNIT ( ) NAMED_UNIT ( * ) SI_UNIT ( .MILLI., .METRE. ) );
#131 = CC_DESIGN_PERSON_AND_ORGANIZATION_ASSIGNMENT ( #168, #132, ( #203 ) ) ;
#132 = PERSON_AND_ORGANIZATION_ROLE ( 'design_supplier' ) ;
#133 = VECTOR ( 'NONE', #52, 1000.000000000000000 ) ;
#134 = APPROVAL_ROLE ( '' ) ;
#135 = DESIGN_CONTEXT ( 'detailed design', #116, 'design' ) ;
#136 = CARTESIAN_POINT ( 'NONE',  ( -165.0000000000000000, 30.00000000000000000, 15.00000000000000000 ) ) ;
#137 = ORIENTED_EDGE ( 'NONE', *, *, #163, .T. ) ;
#138 = LOCAL_TIME ( 23, 41, 48.00000000000000000, #170 ) ;
#139 = EDGE_CURVE ( 'NONE', #115, #156, #221, .T. ) ;
#140 = VERTEX_POINT ( 'NONE', #121 ) ;
#141 = PLANE ( 'NONE',  #233 ) ;
#142 = CARTESIAN_POINT ( 'NONE',  ( -165.0000000000000000, 0.000000000000000000, -15.00000000000000000 ) ) ;
#143 = APPROVAL ( #62, '未指定' ) ;
#144 = CARTESIAN_POINT ( 'NONE',  ( -165.0000000000000000, 0.000000000000000000, 15.00000000000000000 ) ) ;
#145 = APPLICATION_CONTEXT ( 'configuration controlled 3d designs of mechanical parts and assemblies' ) ;
#146 = LINE ( 'NONE', #220, #190 ) ;
#147 = VECTOR ( 'NONE', #79, 1000.000000000000000 ) ;
#148 = EDGE_CURVE ( 'NONE', #197, #179, #165, .T. ) ;
#149 = AXIS2_PLACEMENT_3D ( 'NONE', #211, #26, #75 ) ;
#150 = DIRECTION ( 'NONE',  ( 1.000000000000000000, 0.000000000000000000, 0.000000000000000000 ) ) ;
#151 = APPLICATION_PROTOCOL_DEFINITION ( 'international standard', 'config_control_design', 1994, #145 ) ;
#152 = APPROVAL_ROLE ( '' ) ;
#153 = CC_DESIGN_PERSON_AND_ORGANIZATION_ASSIGNMENT ( #95, #186, ( #7 ) ) ;
#154 = DATE_AND_TIME ( #188, #37 ) ;
#155 = DATE_TIME_ROLE ( 'classification_date' ) ;
#156 = VERTEX_POINT ( 'NONE', #34 ) ;
#157 = APPROVAL_PERSON_ORGANIZATION ( #228, #143, #134 ) ;
#158 = ORIENTED_EDGE ( 'NONE', *, *, #224, .T. ) ;
#159 = ORIENTED_EDGE ( 'NONE', *, *, #118, .T. ) ;
#160 = CARTESIAN_POINT ( 'NONE',  ( 165.0000000000000000, 30.00000000000000000, -15.00000000000000000 ) ) ;
#161 = CARTESIAN_POINT ( 'NONE',  ( -165.0000000000000000, 30.00000000000000000, 15.00000000000000000 ) ) ;
#162 = CARTESIAN_POINT ( 'NONE',  ( 165.0000000000000000, 30.00000000000000000, 15.00000000000000000 ) ) ;
#163 = EDGE_CURVE ( 'NONE', #193, #140, #201, .T. ) ;
#164 = CARTESIAN_POINT ( 'NONE',  ( -165.0000000000000000, 30.00000000000000000, 15.00000000000000000 ) ) ;
#165 = LINE ( 'NONE', #161, #226 ) ;
#166 =( NAMED_UNIT ( * ) PLANE_ANGLE_UNIT ( ) SI_UNIT ( $, .RADIAN. ) );
#167 = CC_DESIGN_DATE_AND_TIME_ASSIGNMENT ( #208, #60, ( #196 ) ) ;
#168 = PERSON_AND_ORGANIZATION ( #225, #178 ) ;
#169 = LOCAL_TIME ( 23, 41, 48.00000000000000000, #192 ) ;
#170 = COORDINATED_UNIVERSAL_TIME_OFFSET ( 8, 0, .AHEAD. ) ;
#171 = PERSON_AND_ORGANIZATION ( #225, #178 ) ;
#172 = ORIENTED_EDGE ( 'NONE', *, *, #148, .F. ) ;
#173 = LINE ( 'NONE', #117, #176 ) ;
#174 = ORIENTED_EDGE ( 'NONE', *, *, #15, .F. ) ;
#175 = APPROVAL ( #128, '未指定' ) ;
#176 = VECTOR ( 'NONE', #99, 1000.000000000000000 ) ;
#177 = ORIENTED_EDGE ( 'NONE', *, *, #24, .F. ) ;
#178 = ORGANIZATION ( '未指定', '未指定', '' ) ;
#179 = VERTEX_POINT ( 'NONE', #56 ) ;
#180 = PLANE ( 'NONE',  #71 ) ;
#181 = FACE_OUTER_BOUND ( 'NONE', #49, .T. ) ;
#182 = FACE_OUTER_BOUND ( 'NONE', #13, .T. ) ;
#183 = PLANE ( 'NONE',  #32 ) ;
#184 = CC_DESIGN_DATE_AND_TIME_ASSIGNMENT ( #77, #155, ( #7 ) ) ;
#185 = DIRECTION ( 'NONE',  ( 0.000000000000000000, -0.000000000000000000, -1.000000000000000000 ) ) ;
#186 = PERSON_AND_ORGANIZATION_ROLE ( 'classification_officer' ) ;
#187 = PERSON_AND_ORGANIZATION_ROLE ( 'creator' ) ;
#188 = CALENDAR_DATE ( 2026, 26, 7 ) ;
#189 = PERSON_AND_ORGANIZATION ( #225, #178 ) ;
#190 = VECTOR ( 'NONE', #54, 1000.000000000000000 ) ;
#191 = ADVANCED_FACE ( 'NONE', ( #217 ), #4, .F. ) ;
#192 = COORDINATED_UNIVERSAL_TIME_OFFSET ( 8, 0, .AHEAD. ) ;
#193 = VERTEX_POINT ( 'NONE', #68 ) ;
#194 = APPROVAL_DATE_TIME ( #96, #143 ) ;
#195 = ORIENTED_EDGE ( 'NONE', *, *, #18, .T. ) ;
#196 = PRODUCT_DEFINITION ( '未知', '', #203, #135 ) ;
#197 = VERTEX_POINT ( 'NONE', #206 ) ;
#198 = EDGE_LOOP ( 'NONE', ( #213, #101, #46, #215 ) ) ;
#199 = VERTEX_POINT ( 'NONE', #105 ) ;
#200 = DIRECTION ( 'NONE',  ( -1.000000000000000000, -0.000000000000000000, -0.000000000000000000 ) ) ;
#201 = LINE ( 'NONE', #144, #51 ) ;
#202 = DIRECTION ( 'NONE',  ( -0.000000000000000000, -1.000000000000000000, -0.000000000000000000 ) ) ;
#203 = PRODUCT_DEFINITION_FORMATION_WITH_SPECIFIED_SOURCE ( '任何', '', #11, .NOT_KNOWN. ) ;
#204 = EDGE_CURVE ( 'NONE', #115, #199, #219, .T. ) ;
#205 = PLANE ( 'NONE',  #232 ) ;
#206 = CARTESIAN_POINT ( 'NONE',  ( -165.0000000000000000, 30.00000000000000000, -15.00000000000000000 ) ) ;
#207 = MANIFOLD_SOLID_BREP ( '凸台-拉伸1', #124 ) ;
#208 = DATE_AND_TIME ( #58, #3 ) ;
#209 = COORDINATED_UNIVERSAL_TIME_OFFSET ( 8, 0, .AHEAD. ) ;
#210 = ADVANCED_FACE ( 'NONE', ( #182 ), #141, .F. ) ;
#211 = CARTESIAN_POINT ( 'NONE',  ( 0.000000000000000000, 0.000000000000000000, 0.000000000000000000 ) ) ;
#212 = CC_DESIGN_APPROVAL ( #214, ( #196 ) ) ;
#213 = ORIENTED_EDGE ( 'NONE', *, *, #24, .T. ) ;
#214 = APPROVAL ( #109, '未指定' ) ;
#215 = ORIENTED_EDGE ( 'NONE', *, *, #204, .T. ) ;
#216 = EDGE_LOOP ( 'NONE', ( #65, #47, #177, #100 ) ) ;
#217 = FACE_OUTER_BOUND ( 'NONE', #198, .T. ) ;
#218 = DIRECTION ( 'NONE',  ( 0.000000000000000000, 0.000000000000000000, -1.000000000000000000 ) ) ;
#219 = LINE ( 'NONE', #53, #113 ) ;
#220 = CARTESIAN_POINT ( 'NONE',  ( -165.0000000000000000, 30.00000000000000000, -15.00000000000000000 ) ) ;
#221 = LINE ( 'NONE', #87, #133 ) ;
#222 = COORDINATED_UNIVERSAL_TIME_OFFSET ( 8, 0, .AHEAD. ) ;
#223 = CALENDAR_DATE ( 2026, 26, 7 ) ;
#224 = EDGE_CURVE ( 'NONE', #156, #197, #146, .T. ) ;
#225 = PERSON ( '未指定', '未指定', '未指定', ('未指定'), ('未指定'), ('未指定') ) ;
#226 = VECTOR ( 'NONE', #122, 1000.000000000000000 ) ;
#227 = CC_DESIGN_PERSON_AND_ORGANIZATION_ASSIGNMENT ( #61, #187, ( #203 ) ) ;
#228 = PERSON_AND_ORGANIZATION ( #225, #178 ) ;
#229 = VECTOR ( 'NONE', #202, 1000.000000000000000 ) ;
#230 = UNCERTAINTY_MEASURE_WITH_UNIT (LENGTH_MEASURE( 1.000000000000000082E-05 ), #130, 'distance_accuracy_value', 'NONE');
#231 = VERTEX_POINT ( 'NONE', #127 ) ;
#232 = AXIS2_PLACEMENT_3D ( 'NONE', #35, #106, #103 ) ;
#233 = AXIS2_PLACEMENT_3D ( 'NONE', #164, #20, #1 ) ;
#234 = ORIENTED_EDGE ( 'NONE', *, *, #148, .T. ) ;
#235 = ORIENTED_EDGE ( 'NONE', *, *, #108, .T. ) ;
#236 = DIRECTION ( 'NONE',  ( 0.000000000000000000, -1.000000000000000000, 0.000000000000000000 ) ) ;
#237 = DIRECTION ( 'NONE',  ( -1.000000000000000000, 0.000000000000000000, 0.000000000000000000 ) ) ;
ENDSEC;
END-ISO-10303-21;
