ISO-10303-21;
HEADER;
FILE_DESCRIPTION (( 'STEP AP203' ),
    '1' );
FILE_NAME ('FN-FRM-004_mast-30x30x220_CONCEPT_R0.6.STEP',
    '2026-07-26T15:41:55',
    ( '' ),
    ( '' ),
    'SwSTEP 2.0',
    'SolidWorks 2022',
    '' );
FILE_SCHEMA (( 'CONFIG_CONTROL_DESIGN' ));
ENDSEC;

DATA;
#1 = SECURITY_CLASSIFICATION_LEVEL ( 'unclassified' ) ;
#2 = ORIENTED_EDGE ( 'NONE', *, *, #99, .F. ) ;
#3 = ORIENTED_EDGE ( 'NONE', *, *, #38, .T. ) ;
#4 = CALENDAR_DATE ( 2026, 26, 7 ) ;
#5 = VECTOR ( 'NONE', #215, 1000.000000000000000 ) ;
#6 = CARTESIAN_POINT ( 'NONE',  ( -15.00000000000000000, 220.0000000000000000, 15.00000000000000000 ) ) ;
#7 = ADVANCED_FACE ( 'NONE', ( #116 ), #65, .F. ) ;
#8 = CARTESIAN_POINT ( 'NONE',  ( -15.00000000000000000, 220.0000000000000000, -15.00000000000000000 ) ) ;
#9 = EDGE_LOOP ( 'NONE', ( #92, #3, #162, #90 ) ) ;
#10 = VECTOR ( 'NONE', #195, 1000.000000000000000 ) ;
#11 = CARTESIAN_POINT ( 'NONE',  ( 15.00000000000000000, 220.0000000000000000, 15.00000000000000000 ) ) ;
#12 = LINE ( 'NONE', #168, #106 ) ;
#13 = APPROVAL_DATE_TIME ( #211, #103 ) ;
#14 = CC_DESIGN_DATE_AND_TIME_ASSIGNMENT ( #84, #231, ( #232 ) ) ;
#15 = COORDINATED_UNIVERSAL_TIME_OFFSET ( 8, 0, .AHEAD. ) ;
#16 = CARTESIAN_POINT ( 'NONE',  ( -15.00000000000000000, 220.0000000000000000, 15.00000000000000000 ) ) ;
#17 = LOCAL_TIME ( 23, 41, 55.00000000000000000, #15 ) ;
#18 = DIRECTION ( 'NONE',  ( 0.000000000000000000, 0.000000000000000000, -1.000000000000000000 ) ) ;
#19 = EDGE_CURVE ( 'NONE', #133, #178, #97, .T. ) ;
#20 = ORIENTED_EDGE ( 'NONE', *, *, #144, .F. ) ;
#21 = CC_DESIGN_SECURITY_CLASSIFICATION ( #169, ( #74 ) ) ;
#22 = EDGE_LOOP ( 'NONE', ( #48, #201, #24, #73 ) ) ;
#23 = EDGE_CURVE ( 'NONE', #133, #146, #188, .T. ) ;
#24 = ORIENTED_EDGE ( 'NONE', *, *, #38, .F. ) ;
#25 = VECTOR ( 'NONE', #139, 1000.000000000000000 ) ;
#26 = PRODUCT_RELATED_PRODUCT_CATEGORY ( 'detail', '', ( #132 ) ) ;
#27 = DIRECTION ( 'NONE',  ( 0.000000000000000000, -0.000000000000000000, -1.000000000000000000 ) ) ;
#28 = CARTESIAN_POINT ( 'NONE',  ( -15.00000000000000000, 220.0000000000000000, 15.00000000000000000 ) ) ;
#29 = DIRECTION ( 'NONE',  ( 1.000000000000000000, 0.000000000000000000, 0.000000000000000000 ) ) ;
#30 = DIRECTION ( 'NONE',  ( 0.000000000000000000, 0.000000000000000000, 1.000000000000000000 ) ) ;
#31 = APPROVAL_STATUS ( 'not_yet_approved' ) ;
#32 = CARTESIAN_POINT ( 'NONE',  ( -15.00000000000000000, 220.0000000000000000, -15.00000000000000000 ) ) ;
#33 = AXIS2_PLACEMENT_3D ( 'NONE', #157, #160, #196 ) ;
#34 = PERSON_AND_ORGANIZATION ( #228, #218 ) ;
#35 = APPLICATION_CONTEXT ( 'configuration controlled 3d designs of mechanical parts and assemblies' ) ;
#36 = VERTEX_POINT ( 'NONE', #225 ) ;
#37 = VECTOR ( 'NONE', #61, 1000.000000000000000 ) ;
#38 = EDGE_CURVE ( 'NONE', #36, #133, #153, .T. ) ;
#39 = COORDINATED_UNIVERSAL_TIME_OFFSET ( 8, 0, .AHEAD. ) ;
#40 = EDGE_LOOP ( 'NONE', ( #237, #127, #236, #220 ) ) ;
#41 = VERTEX_POINT ( 'NONE', #149 ) ;
#42 = LINE ( 'NONE', #63, #58 ) ;
#43 = CC_DESIGN_PERSON_AND_ORGANIZATION_ASSIGNMENT ( #197, #85, ( #232 ) ) ;
#44 = DIRECTION ( 'NONE',  ( 0.000000000000000000, -1.000000000000000000, 0.000000000000000000 ) ) ;
#45 = VERTEX_POINT ( 'NONE', #170 ) ;
#46 = DESIGN_CONTEXT ( 'detailed design', #35, 'design' ) ;
#47 = LINE ( 'NONE', #186, #223 ) ;
#48 = ORIENTED_EDGE ( 'NONE', *, *, #144, .T. ) ;
#49 = LOCAL_TIME ( 23, 41, 55.00000000000000000, #69 ) ;
#50 = CARTESIAN_POINT ( 'NONE',  ( -15.00000000000000000, 220.0000000000000000, 15.00000000000000000 ) ) ;
#51 = CC_DESIGN_PERSON_AND_ORGANIZATION_ASSIGNMENT ( #183, #70, ( #74 ) ) ;
#52 = DIRECTION ( 'NONE',  ( 0.000000000000000000, -1.000000000000000000, 0.000000000000000000 ) ) ;
#53 = AXIS2_PLACEMENT_3D ( 'NONE', #11, #114, #30 ) ;
#54 = CC_DESIGN_APPROVAL ( #207, ( #169 ) ) ;
#55 = DIRECTION ( 'NONE',  ( -1.000000000000000000, 0.000000000000000000, -0.000000000000000000 ) ) ;
#56 = FACE_OUTER_BOUND ( 'NONE', #9, .T. ) ;
#57 = PERSON_AND_ORGANIZATION ( #228, #218 ) ;
#58 = VECTOR ( 'NONE', #82, 1000.000000000000000 ) ;
#59 = DATE_TIME_ROLE ( 'classification_date' ) ;
#60 = ORIENTED_EDGE ( 'NONE', *, *, #131, .T. ) ;
#61 = DIRECTION ( 'NONE',  ( 0.000000000000000000, 0.000000000000000000, -1.000000000000000000 ) ) ;
#62 = DIRECTION ( 'NONE',  ( -0.000000000000000000, -0.000000000000000000, 1.000000000000000000 ) ) ;
#63 = CARTESIAN_POINT ( 'NONE',  ( -15.00000000000000000, 0.000000000000000000, 15.00000000000000000 ) ) ;
#64 = CARTESIAN_POINT ( 'NONE',  ( 15.00000000000000000, 0.000000000000000000, 15.00000000000000000 ) ) ;
#65 = PLANE ( 'NONE',  #77 ) ;
#66 = CC_DESIGN_DATE_AND_TIME_ASSIGNMENT ( #184, #59, ( #169 ) ) ;
#67 = COORDINATED_UNIVERSAL_TIME_OFFSET ( 8, 0, .AHEAD. ) ;
#68 = VECTOR ( 'NONE', #76, 1000.000000000000000 ) ;
#69 = COORDINATED_UNIVERSAL_TIME_OFFSET ( 8, 0, .AHEAD. ) ;
#70 = PERSON_AND_ORGANIZATION_ROLE ( 'creator' ) ;
#71 = ORIENTED_EDGE ( 'NONE', *, *, #173, .F. ) ;
#72 = ORIENTED_EDGE ( 'NONE', *, *, #19, .F. ) ;
#73 = ORIENTED_EDGE ( 'NONE', *, *, #210, .T. ) ;
#74 = PRODUCT_DEFINITION_FORMATION_WITH_SPECIFIED_SOURCE ( '任何', '', #132, .NOT_KNOWN. ) ;
#75 = ORIENTED_EDGE ( 'NONE', *, *, #131, .F. ) ;
#76 = DIRECTION ( 'NONE',  ( 0.000000000000000000, 0.000000000000000000, -1.000000000000000000 ) ) ;
#77 = AXIS2_PLACEMENT_3D ( 'NONE', #28, #192, #189 ) ;
#78 = APPROVAL_PERSON_ORGANIZATION ( #34, #207, #181 ) ;
#79 = DIRECTION ( 'NONE',  ( -0.000000000000000000, -1.000000000000000000, -0.000000000000000000 ) ) ;
#80 = EDGE_CURVE ( 'NONE', #45, #41, #12, .T. ) ;
#81 = LINE ( 'NONE', #205, #25 ) ;
#82 = DIRECTION ( 'NONE',  ( 1.000000000000000000, 0.000000000000000000, 0.000000000000000000 ) ) ;
#83 = CC_DESIGN_PERSON_AND_ORGANIZATION_ASSIGNMENT ( #161, #140, ( #132 ) ) ;
#84 = DATE_AND_TIME ( #142, #49 ) ;
#85 = PERSON_AND_ORGANIZATION_ROLE ( 'creator' ) ;
#86 = CALENDAR_DATE ( 2026, 26, 7 ) ;
#87 = AXIS2_PLACEMENT_3D ( 'NONE', #105, #52, #141 ) ;
#88 = ADVANCED_BREP_SHAPE_REPRESENTATION ( 'FN-FRM-004_mast-30x30x220_CONCEPT_R0.6', ( #128, #33 ), #203 ) ;
#89 = APPROVAL_DATE_TIME ( #179, #108 ) ;
#90 = ORIENTED_EDGE ( 'NONE', *, *, #194, .T. ) ;
#91 = ORIENTED_EDGE ( 'NONE', *, *, #194, .F. ) ;
#92 = ORIENTED_EDGE ( 'NONE', *, *, #216, .T. ) ;
#93 = CALENDAR_DATE ( 2026, 26, 7 ) ;
#94 = DIRECTION ( 'NONE',  ( 1.000000000000000000, 0.000000000000000000, -0.000000000000000000 ) ) ;
#95 = CARTESIAN_POINT ( 'NONE',  ( 0.000000000000000000, 0.000000000000000000, 0.000000000000000000 ) ) ;
#96 = CARTESIAN_POINT ( 'NONE',  ( 15.00000000000000000, 220.0000000000000000, 15.00000000000000000 ) ) ;
#97 = LINE ( 'NONE', #96, #37 ) ;
#98 = LINE ( 'NONE', #64, #68 ) ;
#99 = EDGE_CURVE ( 'NONE', #146, #45, #98, .T. ) ;
#100 = LINE ( 'NONE', #50, #5 ) ;
#101 =( NAMED_UNIT ( * ) PLANE_ANGLE_UNIT ( ) SI_UNIT ( $, .RADIAN. ) );
#102 = PERSON_AND_ORGANIZATION ( #228, #218 ) ;
#103 = APPROVAL ( #31, '未指定' ) ;
#104 = CARTESIAN_POINT ( 'NONE',  ( -15.00000000000000000, 220.0000000000000000, 15.00000000000000000 ) ) ;
#105 = CARTESIAN_POINT ( 'NONE',  ( 0.000000000000000000, 220.0000000000000000, 0.000000000000000000 ) ) ;
#106 = VECTOR ( 'NONE', #130, 1000.000000000000000 ) ;
#107 = EDGE_LOOP ( 'NONE', ( #115, #75, #72, #113 ) ) ;
#108 = APPROVAL ( #176, '未指定' ) ;
#109 = APPROVAL_DATE_TIME ( #199, #207 ) ;
#110 = VECTOR ( 'NONE', #122, 1000.000000000000000 ) ;
#111 = LOCAL_TIME ( 23, 41, 55.00000000000000000, #39 ) ;
#112 = SHAPE_DEFINITION_REPRESENTATION ( #137, #88 ) ;
#113 = ORIENTED_EDGE ( 'NONE', *, *, #23, .T. ) ;
#114 = DIRECTION ( 'NONE',  ( -1.000000000000000000, 0.000000000000000000, 0.000000000000000000 ) ) ;
#115 = ORIENTED_EDGE ( 'NONE', *, *, #99, .T. ) ;
#116 = FACE_OUTER_BOUND ( 'NONE', #40, .T. ) ;
#117 = PLANE ( 'NONE',  #53 ) ;
#118 = VECTOR ( 'NONE', #62, 1000.000000000000000 ) ;
#119 = PLANE ( 'NONE',  #156 ) ;
#120 = APPROVAL_PERSON_ORGANIZATION ( #102, #103, #175 ) ;
#121 = CALENDAR_DATE ( 2026, 26, 7 ) ;
#122 = DIRECTION ( 'NONE',  ( -1.000000000000000000, -0.000000000000000000, -0.000000000000000000 ) ) ;
#123 = COORDINATED_UNIVERSAL_TIME_OFFSET ( 8, 0, .AHEAD. ) ;
#124 = ADVANCED_FACE ( 'NONE', ( #221 ), #117, .F. ) ;
#125 = VECTOR ( 'NONE', #29, 1000.000000000000000 ) ;
#126 = PERSON_AND_ORGANIZATION ( #228, #218 ) ;
#127 = ORIENTED_EDGE ( 'NONE', *, *, #210, .F. ) ;
#128 = MANIFOLD_SOLID_BREP ( '凸台-拉伸1', #229 ) ;
#129 = PERSON_AND_ORGANIZATION_ROLE ( 'design_supplier' ) ;
#130 = DIRECTION ( 'NONE',  ( -1.000000000000000000, -0.000000000000000000, -0.000000000000000000 ) ) ;
#131 = EDGE_CURVE ( 'NONE', #178, #45, #81, .T. ) ;
#132 = PRODUCT ( 'FN-FRM-004_mast-30x30x220_CONCEPT_R0.6', 'FN-FRM-004_mast-30x30x220_CONCEPT_R0.6', '', ( #177 ) ) ;
#133 = VERTEX_POINT ( 'NONE', #224 ) ;
#134 = UNCERTAINTY_MEASURE_WITH_UNIT (LENGTH_MEASURE( 1.000000000000000082E-05 ), #143, 'distance_accuracy_value', 'NONE');
#135 = CARTESIAN_POINT ( 'NONE',  ( 15.00000000000000000, 0.000000000000000000, 15.00000000000000000 ) ) ;
#136 = DIRECTION ( 'NONE',  ( 0.000000000000000000, 0.000000000000000000, 1.000000000000000000 ) ) ;
#137 = PRODUCT_DEFINITION_SHAPE ( 'NONE', 'NONE',  #232 ) ;
#138 = APPROVAL_PERSON_ORGANIZATION ( #158, #108, #233 ) ;
#139 = DIRECTION ( 'NONE',  ( -0.000000000000000000, -1.000000000000000000, -0.000000000000000000 ) ) ;
#140 = PERSON_AND_ORGANIZATION_ROLE ( 'design_owner' ) ;
#141 = DIRECTION ( 'NONE',  ( 0.000000000000000000, -0.000000000000000000, -1.000000000000000000 ) ) ;
#142 = CALENDAR_DATE ( 2026, 26, 7 ) ;
#143 =( LENGTH_UNIT ( ) NAMED_UNIT ( * ) SI_UNIT ( .MILLI., .METRE. ) );
#144 = EDGE_CURVE ( 'NONE', #217, #146, #42, .T. ) ;
#145 = EDGE_CURVE ( 'NONE', #204, #41, #47, .T. ) ;
#146 = VERTEX_POINT ( 'NONE', #135 ) ;
#147 = CC_DESIGN_APPROVAL ( #103, ( #232 ) ) ;
#148 = ADVANCED_FACE ( 'NONE', ( #208 ), #190, .T. ) ;
#149 = CARTESIAN_POINT ( 'NONE',  ( -15.00000000000000000, 0.000000000000000000, -15.00000000000000000 ) ) ;
#150 = APPLICATION_CONTEXT ( 'configuration controlled 3d designs of mechanical parts and assemblies' ) ;
#151 = LINE ( 'NONE', #222, #118 ) ;
#152 = LOCAL_TIME ( 23, 41, 55.00000000000000000, #123 ) ;
#153 = LINE ( 'NONE', #6, #125 ) ;
#154 = PLANE ( 'NONE',  #213 ) ;
#155 = DIRECTION ( 'NONE',  ( -0.000000000000000000, -1.000000000000000000, -0.000000000000000000 ) ) ;
#156 = AXIS2_PLACEMENT_3D ( 'NONE', #16, #18, #55 ) ;
#157 = CARTESIAN_POINT ( 'NONE',  ( 0.000000000000000000, 0.000000000000000000, 0.000000000000000000 ) ) ;
#158 = PERSON_AND_ORGANIZATION ( #228, #218 ) ;
#159 = VECTOR ( 'NONE', #79, 1000.000000000000000 ) ;
#160 = DIRECTION ( 'NONE',  ( 0.000000000000000000, 0.000000000000000000, 1.000000000000000000 ) ) ;
#161 = PERSON_AND_ORGANIZATION ( #228, #218 ) ;
#162 = ORIENTED_EDGE ( 'NONE', *, *, #19, .T. ) ;
#163 = ORIENTED_EDGE ( 'NONE', *, *, #80, .T. ) ;
#164 = LOCAL_TIME ( 23, 41, 55.00000000000000000, #67 ) ;
#165 = ADVANCED_FACE ( 'NONE', ( #167 ), #154, .F. ) ;
#166 = CARTESIAN_POINT ( 'NONE',  ( 15.00000000000000000, 220.0000000000000000, 15.00000000000000000 ) ) ;
#167 = FACE_OUTER_BOUND ( 'NONE', #182, .T. ) ;
#168 = CARTESIAN_POINT ( 'NONE',  ( -15.00000000000000000, 0.000000000000000000, -15.00000000000000000 ) ) ;
#169 = SECURITY_CLASSIFICATION ( '', '', #1 ) ;
#170 = CARTESIAN_POINT ( 'NONE',  ( 15.00000000000000000, 0.000000000000000000, -15.00000000000000000 ) ) ;
#171 = ORIENTED_EDGE ( 'NONE', *, *, #145, .F. ) ;
#172 =( NAMED_UNIT ( * ) SI_UNIT ( $, .STERADIAN. ) SOLID_ANGLE_UNIT ( ) );
#173 = EDGE_CURVE ( 'NONE', #41, #217, #151, .T. ) ;
#174 = APPLICATION_PROTOCOL_DEFINITION ( 'international standard', 'config_control_design', 1994, #150 ) ;
#175 = APPROVAL_ROLE ( '' ) ;
#176 = APPROVAL_STATUS ( 'not_yet_approved' ) ;
#177 = MECHANICAL_CONTEXT ( 'NONE', #150, 'mechanical' ) ;
#178 = VERTEX_POINT ( 'NONE', #209 ) ;
#179 = DATE_AND_TIME ( #86, #164 ) ;
#180 = ADVANCED_FACE ( 'NONE', ( #227 ), #119, .F. ) ;
#181 = APPROVAL_ROLE ( '' ) ;
#182 = EDGE_LOOP ( 'NONE', ( #163, #171, #91, #60 ) ) ;
#183 = PERSON_AND_ORGANIZATION ( #228, #218 ) ;
#184 = DATE_AND_TIME ( #93, #111 ) ;
#185 = CC_DESIGN_PERSON_AND_ORGANIZATION_ASSIGNMENT ( #57, #202, ( #169 ) ) ;
#186 = CARTESIAN_POINT ( 'NONE',  ( -15.00000000000000000, 220.0000000000000000, -15.00000000000000000 ) ) ;
#187 = CC_DESIGN_APPROVAL ( #108, ( #74 ) ) ;
#188 = LINE ( 'NONE', #166, #159 ) ;
#189 = DIRECTION ( 'NONE',  ( 0.000000000000000000, 0.000000000000000000, -1.000000000000000000 ) ) ;
#190 = PLANE ( 'NONE',  #191 ) ;
#191 = AXIS2_PLACEMENT_3D ( 'NONE', #95, #44, #27 ) ;
#192 = DIRECTION ( 'NONE',  ( 1.000000000000000000, -0.000000000000000000, 0.000000000000000000 ) ) ;
#193 = APPLICATION_PROTOCOL_DEFINITION ( 'international standard', 'config_control_design', 1994, #35 ) ;
#194 = EDGE_CURVE ( 'NONE', #178, #204, #234, .T. ) ;
#195 = DIRECTION ( 'NONE',  ( -0.000000000000000000, -1.000000000000000000, -0.000000000000000000 ) ) ;
#196 = DIRECTION ( 'NONE',  ( 1.000000000000000000, 0.000000000000000000, 0.000000000000000000 ) ) ;
#197 = PERSON_AND_ORGANIZATION ( #228, #218 ) ;
#198 = PLANE ( 'NONE',  #87 ) ;
#199 = DATE_AND_TIME ( #4, #152 ) ;
#200 = APPROVAL_STATUS ( 'not_yet_approved' ) ;
#201 = ORIENTED_EDGE ( 'NONE', *, *, #23, .F. ) ;
#202 = PERSON_AND_ORGANIZATION_ROLE ( 'classification_officer' ) ;
#203 =( GEOMETRIC_REPRESENTATION_CONTEXT ( 3 ) GLOBAL_UNCERTAINTY_ASSIGNED_CONTEXT ( ( #134 ) ) GLOBAL_UNIT_ASSIGNED_CONTEXT ( ( #143, #101, #172 ) ) REPRESENTATION_CONTEXT ( 'NONE', 'WORKASPACE' ) );
#204 = VERTEX_POINT ( 'NONE', #32 ) ;
#205 = CARTESIAN_POINT ( 'NONE',  ( 15.00000000000000000, 220.0000000000000000, -15.00000000000000000 ) ) ;
#206 = EDGE_LOOP ( 'NONE', ( #71, #219, #2, #20 ) ) ;
#207 = APPROVAL ( #200, '未指定' ) ;
#208 = FACE_OUTER_BOUND ( 'NONE', #206, .T. ) ;
#209 = CARTESIAN_POINT ( 'NONE',  ( 15.00000000000000000, 220.0000000000000000, -15.00000000000000000 ) ) ;
#210 = EDGE_CURVE ( 'NONE', #36, #217, #214, .T. ) ;
#211 = DATE_AND_TIME ( #121, #17 ) ;
#212 = CARTESIAN_POINT ( 'NONE',  ( -15.00000000000000000, 0.000000000000000000, 15.00000000000000000 ) ) ;
#213 = AXIS2_PLACEMENT_3D ( 'NONE', #8, #136, #94 ) ;
#214 = LINE ( 'NONE', #104, #10 ) ;
#215 = DIRECTION ( 'NONE',  ( -0.000000000000000000, -0.000000000000000000, 1.000000000000000000 ) ) ;
#216 = EDGE_CURVE ( 'NONE', #204, #36, #100, .T. ) ;
#217 = VERTEX_POINT ( 'NONE', #212 ) ;
#218 = ORGANIZATION ( '未指定', '未指定', '' ) ;
#219 = ORIENTED_EDGE ( 'NONE', *, *, #80, .F. ) ;
#220 = ORIENTED_EDGE ( 'NONE', *, *, #145, .T. ) ;
#221 = FACE_OUTER_BOUND ( 'NONE', #107, .T. ) ;
#222 = CARTESIAN_POINT ( 'NONE',  ( -15.00000000000000000, 0.000000000000000000, 15.00000000000000000 ) ) ;
#223 = VECTOR ( 'NONE', #155, 1000.000000000000000 ) ;
#224 = CARTESIAN_POINT ( 'NONE',  ( 15.00000000000000000, 220.0000000000000000, 15.00000000000000000 ) ) ;
#225 = CARTESIAN_POINT ( 'NONE',  ( -15.00000000000000000, 220.0000000000000000, 15.00000000000000000 ) ) ;
#226 = ADVANCED_FACE ( 'NONE', ( #56 ), #198, .F. ) ;
#227 = FACE_OUTER_BOUND ( 'NONE', #22, .T. ) ;
#228 = PERSON ( '未指定', '未指定', '未指定', ('未指定'), ('未指定'), ('未指定') ) ;
#229 = CLOSED_SHELL ( 'NONE', ( #7, #180, #124, #165, #226, #148 ) ) ;
#230 = CARTESIAN_POINT ( 'NONE',  ( -15.00000000000000000, 220.0000000000000000, -15.00000000000000000 ) ) ;
#231 = DATE_TIME_ROLE ( 'creation_date' ) ;
#232 = PRODUCT_DEFINITION ( '未知', '', #74, #46 ) ;
#233 = APPROVAL_ROLE ( '' ) ;
#234 = LINE ( 'NONE', #230, #110 ) ;
#235 = CC_DESIGN_PERSON_AND_ORGANIZATION_ASSIGNMENT ( #126, #129, ( #74 ) ) ;
#236 = ORIENTED_EDGE ( 'NONE', *, *, #216, .F. ) ;
#237 = ORIENTED_EDGE ( 'NONE', *, *, #173, .T. ) ;
ENDSEC;
END-ISO-10303-21;
