ISO-10303-21;
HEADER;
FILE_DESCRIPTION (( 'STEP AP203' ),
    '1' );
FILE_NAME ('FN-FRM-006_left-mast-brace_D16_CONCEPT_R0.6.STEP',
    '2026-07-26T15:45:39',
    ( '' ),
    ( '' ),
    'SwSTEP 2.0',
    'SolidWorks 2022',
    '' );
FILE_SCHEMA (( 'CONFIG_CONTROL_DESIGN' ));
ENDSEC;

DATA;
#1 = CARTESIAN_POINT ( 'NONE',  ( 134.9807019936325787, 153.3076026581768190, 7.126737373941180564 ) ) ;
#2 = CARTESIAN_POINT ( 'NONE',  ( 45.16012948070691380, 49.54683930767073008, 44.69911176670144215 ) ) ;
#3 = LOCAL_TIME ( 23, 45, 39.00000000000000000, #190 ) ;
#4 = CARTESIAN_POINT ( 'NONE',  ( 64.15522024800006307, 74.87362699748619832, 37.49067372323514746 ) ) ;
#5 = CARTESIAN_POINT ( 'NONE',  ( 123.8115788038204386, 154.4154384050939086, -4.276042424364704608 ) ) ;
#6 = ADVANCED_FACE ( 'NONE', ( #195 ), #197, .T. ) ;
#7 = CARTESIAN_POINT ( 'NONE',  ( 8.000000000000000000, 0.000000000000000000, 0.000000000000000000 ) ) ;
#8 = DIRECTION ( 'NONE',  ( 0.4764473504775545987, -0.6980701993632605351, -0.5345053030455880760 ) ) ;
#9 = PERSON_AND_ORGANIZATION_ROLE ( 'creator' ) ;
#10 = CARTESIAN_POINT ( 'NONE',  ( -5.917455059874751733, 18.77672658683317763, 22.23631271471467130 ) ) ;
#11 = CARTESIAN_POINT ( 'NONE',  ( 3.232952321724006595, 14.97726976230570450, 45.74014280934895993 ) ) ;
#12 = CARTESIAN_POINT ( 'NONE',  ( 8.484216703617891042, 16.64562227149578533, 12.47487186520749169 ) ) ;
#13 = CARTESIAN_POINT ( 'NONE',  ( -2.421581491942065067, 7.437891344078576772, 36.18493506486871780 ) ) ;
#14 = CARTESIAN_POINT ( 'NONE',  ( -2.421581491942065067, 7.437891344078576772, 36.18493506486871780 ) ) ;
#15 = COORDINATED_UNIVERSAL_TIME_OFFSET ( 8, 0, .AHEAD. ) ;
#16 = CARTESIAN_POINT ( 'NONE',  ( 30.19815136133168920, 29.59753514839406563, 45.69993384090669508 ) ) ;
#17 = CARTESIAN_POINT ( 'NONE',  ( 6.435404372448735977, 3.247205829939127320, 56.18888305245356207 ) ) ;
#18 = PERSON_AND_ORGANIZATION ( #331, #71 ) ;
#19 = CARTESIAN_POINT ( 'NONE',  ( 16.83111328368111614, 11.77481771157833457, 37.90358762702315687 ) ) ;
#20 = CARTESIAN_POINT ( 'NONE',  ( -1.188005391160003255, 9.082659478449919277, 38.87265399853210113 ) ) ;
#21 = CARTESIAN_POINT ( 'NONE',  ( 54.23580340962619317, 77.64773787965432916, 25.23941480593822462 ) ) ;
#22 = CARTESIAN_POINT ( 'NONE',  ( 14.81980660332667732, 30.42640880440512063, 54.20934453997707436 ) ) ;
#23 = CC_DESIGN_DATE_AND_TIME_ASSIGNMENT ( #362, #387, ( #413 ) ) ;
#24 = CARTESIAN_POINT ( 'NONE',  ( 3.232952321724006595, 14.97726976230570450, 45.74014280934895993 ) ) ;
#25 = CARTESIAN_POINT ( 'NONE',  ( 10.90740287775031092, 3.876537170340367044, 26.01081064880838767 ) ) ;
#26 = CARTESIAN_POINT ( 'NONE',  ( 3.232952321724006595, 14.97726976230570450, 45.74014280934895993 ) ) ;
#27 = CARTESIAN_POINT ( 'NONE',  ( -8.000000000000000000, 9.797174393178825657E-16, 0.000000000000000000 ) ) ;
#28 = CARTESIAN_POINT ( 'NONE',  ( 10.21952733906920585, 2.959369785423927368, 23.44216262493033298 ) ) ;
#29 = CARTESIAN_POINT ( 'NONE',  ( 7.975000312709866535, 15.96666708358483611, 6.964923445338579100 ) ) ;
#30 = CARTESIAN_POINT ( 'NONE',  ( -4.512088287949293175, 4.650548949399624377, 30.27773750648626105 ) ) ;
#31 = DESIGN_CONTEXT ( 'detailed design', #185, 'design' ) ;
#32 = CARTESIAN_POINT ( 'NONE',  ( 86.41882494698479888, 104.5584332623408983, 25.02115962989104503 ) ) ;
#33 = CARTESIAN_POINT ( 'NONE',  ( 23.12654999158451474, 36.16873332203557112, 32.89475746861236161 ) ) ;
#34 = CARTESIAN_POINT ( 'NONE',  ( -8.000000000000000000, 9.797174393178825657E-16, 0.000000000000000000 ) ) ;
#35 = CARTESIAN_POINT ( 'NONE',  ( 44.64411713818676475, 54.19215618423673675, 66.86876891888337582 ) ) ;
#36 = FACE_OUTER_BOUND ( 'NONE', #277, .T. ) ;
#37 = CIRCLE ( 'NONE', #192, 8.000000000000000000 ) ;
#38 = CARTESIAN_POINT ( 'NONE',  ( -3.738076508882764770, -10.31743534517612382, 35.96697331671990128 ) ) ;
#39 = CARTESIAN_POINT ( 'NONE',  ( 0.5939766908155429403, -4.541364412249771831, 47.14063414261473639 ) ) ;
#40 = ORIENTED_EDGE ( 'NONE', *, *, #299, .F. ) ;
#41 = CARTESIAN_POINT ( 'NONE',  ( 114.7878854441039351, 126.3838472601033942, 24.08208586641731230 ) ) ;
#42 = CARTESIAN_POINT ( 'NONE',  ( -1.188005391160003255, 9.082659478449919277, 38.87265399853210113 ) ) ;
#43 = PERSON_AND_ORGANIZATION ( #331, #71 ) ;
#44 = CARTESIAN_POINT ( 'NONE',  ( 7.975000312527350310, -0.03333291659037611321, 8.020963967573457865 ) ) ;
#45 = CARTESIAN_POINT ( 'NONE',  ( 8.000000000000000000, 15.99999999999999822, 0.000000000000000000 ) ) ;
#46 = CARTESIAN_POINT ( 'NONE',  ( 85.11211580821398570, 140.1494877426409573, 9.585830787358293748 ) ) ;
#47 = APPROVAL_STATUS ( 'not_yet_approved' ) ;
#48 = CARTESIAN_POINT ( 'NONE',  ( 55.59478287673465502, 84.79304383586010374, 46.67911791112764064 ) ) ;
#49 = CARTESIAN_POINT ( 'NONE',  ( 10.90740287775031092, 3.876537170340367044, 26.01081064880838767 ) ) ;
#50 = CARTESIAN_POINT ( 'NONE',  ( 67.75637418242699539, 117.0084989095360584, 22.06231466897106586 ) ) ;
#51 = VERTEX_POINT ( 'NONE', #217 ) ;
#52 = CARTESIAN_POINT ( 'NONE',  ( 25.84408141772638601, 7.792108556994234547, 53.71670051557860859 ) ) ;
#53 = CARTESIAN_POINT ( 'NONE',  ( 21.07355389930517120, 17.43140519909450958, 41.83939632871287273 ) ) ;
#54 = CARTESIAN_POINT ( 'NONE',  ( 6.739297627007098335, 19.65239683600243836, 49.28793810438365597 ) ) ;
#55 = CC_DESIGN_PERSON_AND_ORGANIZATION_ASSIGNMENT ( #79, #394, ( #329 ) ) ;
#56 = CARTESIAN_POINT ( 'NONE',  ( 11.68141465681485514, -11.09144712423802481, 31.70004645904732499 ) ) ;
#57 = DIRECTION ( 'NONE',  ( 0.5345053030455882981, 0.7126737373941176568, -0.4543129153401256892 ) ) ;
#58 = CARTESIAN_POINT ( 'NONE',  ( 15.62280043745797720, 10.16373391660893155, 36.31024695777271205 ) ) ;
#59 = CARTESIAN_POINT ( 'NONE',  ( 0.000000000000000000, 0.000000000000000000, 0.000000000000000000 ) ) ;
#60 = CARTESIAN_POINT ( 'NONE',  ( 19.89196768869497589, 31.85595691822761211, 31.99791541682605001 ) ) ;
#61 = CARTESIAN_POINT ( 'NONE',  ( 26.13644706848941723, 24.18192942461067929, 44.69016063004134054 ) ) ;
#62 = CARTESIAN_POINT ( 'NONE',  ( 103.8472697354698653, 127.7963596471200844, 12.48508180287800862 ) ) ;
#63 = CARTESIAN_POINT ( 'NONE',  ( 78.40617724088738782, 115.2082363207554891, 33.89769451349880569 ) ) ;
#64 = CARTESIAN_POINT ( 'NONE',  ( -7.464560269667361858, 16.71391964044446965, 14.27867044675795150 ) ) ;
#65 = CARTESIAN_POINT ( 'NONE',  ( 7.975000312527350310, -0.03333291659037611321, 8.020963967573457865 ) ) ;
#66 = LOCAL_TIME ( 23, 45, 39.00000000000000000, #15 ) ;
#67 = CARTESIAN_POINT ( 'NONE',  ( 16.83111328368111614, 11.77481771157833457, 37.90358762702315687 ) ) ;
#68 = CARTESIAN_POINT ( 'NONE',  ( 65.51419971508562412, 82.01893295369195869, 58.93037682845893954 ) ) ;
#69 = PLANE ( 'NONE',  #166 ) ;
#70 = CARTESIAN_POINT ( 'NONE',  ( 97.06862800539937552, 102.7581706735603433, 36.85653947448752632 ) ) ;
#71 = ORGANIZATION ( '未指定', '未指定', '' ) ;
#72 = CARTESIAN_POINT ( 'NONE',  ( 10.76745693484072675, -12.31005742021307725, 28.26556226577856279 ) ) ;
#73 = AXIS2_PLACEMENT_3D ( 'NONE', #295, #140, #447 ) ;
#74 = CARTESIAN_POINT ( 'NONE',  ( 96.05273151606913018, 138.7369753556243097, 21.18283485071908956 ) ) ;
#75 = CARTESIAN_POINT ( 'NONE',  ( 120.0000000000000000, 160.0000000000000000, 0.000000000000000000 ) ) ;
#76 = VERTEX_POINT ( 'NONE', #375 ) ;
#77 = CARTESIAN_POINT ( 'NONE',  ( -7.396262900717249344, 0.8049827990427107505, 16.68373522214897164 ) ) ;
#78 = CARTESIAN_POINT ( 'NONE',  ( 21.07355389930517120, 17.43140519909450958, 41.83939632871287273 ) ) ;
#79 = PERSON_AND_ORGANIZATION ( #331, #71 ) ;
#80 = CARTESIAN_POINT ( 'NONE',  ( -5.286100067015820692, 19.61853324397537435, 24.58850169625262438 ) ) ;
#81 = CARTESIAN_POINT ( 'NONE',  ( -8.024999687757379263, -16.03333291693379792, 9.869034881484779476 ) ) ;
#82 = CARTESIAN_POINT ( 'NONE',  ( 64.15522024800006307, 74.87362699748619832, 37.49067372323514746 ) ) ;
#83 = CARTESIAN_POINT ( 'NONE',  ( 13.92600918662394882, -8.098654417843556885, 38.03830107157902773 ) ) ;
#84 = ADVANCED_FACE ( 'NONE', ( #36 ), #137, .F. ) ;
#85 = ORIENTED_EDGE ( 'NONE', *, *, #439, .T. ) ;
#86 = CARTESIAN_POINT ( 'NONE',  ( 10.98367017930980616, 9.311560239072285583, 60.78048663741147806 ) ) ;
#87 = CC_DESIGN_APPROVAL ( #110, ( #329 ) ) ;
#88 = ORIENTED_EDGE ( 'NONE', *, *, #260, .F. ) ;
#89 = CARTESIAN_POINT ( 'NONE',  ( 89.05598029934779447, 113.4079737319749199, 45.73307435802654197 ) ) ;
#90 = CARTESIAN_POINT ( 'NONE',  ( -7.396262900717249344, 0.8049827990427107505, 16.68373522214897164 ) ) ;
#91 = CARTESIAN_POINT ( 'NONE',  ( 21.07355389930517120, 17.43140519909450958, 41.83939632871287273 ) ) ;
#92 = CARTESIAN_POINT ( 'NONE',  ( 64.15522024800006307, 74.87362699748619832, 37.49067372323514746 ) ) ;
#93 = CARTESIAN_POINT ( 'NONE',  ( -8.024999687757379263, -16.03333291693379792, 9.869034881484779476 ) ) ;
#94 = CARTESIAN_POINT ( 'NONE',  ( 11.14528375811172900, 20.19371167747788931, 23.21137301788591500 ) ) ;
#95 = CARTESIAN_POINT ( 'NONE',  ( 2.494925074704391399, 29.99323343293259470, 37.79538957135583388 ) ) ;
#96 = CARTESIAN_POINT ( 'NONE',  ( 48.59999539001826463, 75.46666052002436231, 49.89139881799266618 ) ) ;
#97 = CARTESIAN_POINT ( 'NONE',  ( 112.6424556140082984, 155.5232741520110267, -15.67882222267058978 ) ) ;
#98 = CC_DESIGN_PERSON_AND_ORGANIZATION_ASSIGNMENT ( #43, #9, ( #329 ) ) ;
#99 = CARTESIAN_POINT ( 'NONE',  ( 103.8472697354698653, 127.7963596471200844, 12.48508180287800862 ) ) ;
#100 = CC_DESIGN_APPROVAL ( #385, ( #413 ) ) ;
#101 = CARTESIAN_POINT ( 'NONE',  ( 7.975000312344834086, -16.03333291676558758, 9.077004489808336629 ) ) ;
#102 = CARTESIAN_POINT ( 'NONE',  ( 32.38092644828384437, 16.50790193099374648, 57.38240584325663463 ) ) ;
#103 = CARTESIAN_POINT ( 'NONE',  ( 8.000000000000000000, -15.99999999999999822, 0.000000000000000000 ) ) ;
#104 = CARTESIAN_POINT ( 'NONE',  ( 26.57345375840007407, 30.09793834451418348, 68.10899249241454356 ) ) ;
#105 = MECHANICAL_CONTEXT ( 'NONE', #302, 'mechanical' ) ;
#106 = CARTESIAN_POINT ( 'NONE',  ( 19.55601821277940644, 15.40802428370236221, 40.66852670461015862 ) ) ;
#107 = SECURITY_CLASSIFICATION_LEVEL ( 'unclassified' ) ;
#108 = ORIENTED_EDGE ( 'NONE', *, *, #296, .T. ) ;
#109 = CARTESIAN_POINT ( 'NONE',  ( 15.25749012933324344, -6.323346494224040271, 40.93964903454379112 ) ) ;
#110 = APPROVAL ( #144, '未指定' ) ;
#111 = CARTESIAN_POINT ( 'NONE',  ( 39.71333930155196867, 42.28445240211748057, 45.70393374172234502 ) ) ;
#112 = APPROVAL_ROLE ( '' ) ;
#113 = CARTESIAN_POINT ( 'NONE',  ( 23.12654999158451474, 36.16873332203557112, 32.89475746861236161 ) ) ;
#114 = CARTESIAN_POINT ( 'NONE',  ( 55.59478287673465502, 84.79304383586010374, 46.67911791112764064 ) ) ;
#115 = CARTESIAN_POINT ( 'NONE',  ( 8.552514072568003556, 0.7366854300940297584, 14.87993664059851184 ) ) ;
#116 = CARTESIAN_POINT ( 'NONE',  ( 106.9933472239243031, 137.3244629686076621, 32.77983891407988892 ) ) ;
#117 = CARTESIAN_POINT ( 'NONE',  ( 105.0192980063673787, 166.6923973418232094, -7.126737373941180564 ) ) ;
#118 = CARTESIAN_POINT ( 'NONE',  ( 11.69352596537958355, 20.92470128717789990, 24.40368874636828522 ) ) ;
#119 = CARTESIAN_POINT ( 'NONE',  ( 96.05273151606913018, 138.7369753556243097, 21.18283485071908956 ) ) ;
#120 = CARTESIAN_POINT ( 'NONE',  ( 26.13644706848941723, 24.18192942461067929, 44.69016063004134054 ) ) ;
#121 = CARTESIAN_POINT ( 'NONE',  ( 57.38125796932697398, 65.84167729237445599, 40.59112718871261194 ) ) ;
#122 = CARTESIAN_POINT ( 'NONE',  ( 116.1884211961795614, 165.5845615949060914, 4.276042424364703720 ) ) ;
#123 = CARTESIAN_POINT ( 'NONE',  ( 103.8472697354698653, 127.7963596471200844, 12.48508180287800862 ) ) ;
#124 = CARTESIAN_POINT ( 'NONE',  ( -2.969987473135550449, 22.70668336914960861, 30.60467385444947297 ) ) ;
#125 = AXIS2_PLACEMENT_3D ( 'NONE', #418, #228, #151 ) ;
#126 = B_SPLINE_CURVE_WITH_KNOTS ( 'NONE', 3,
 ( #27, #164, #90, #248, #415, #14, #42, #303, #11, #206, #168, #475, #388, #244, #399, #401, #48, #147, #74, #363 ),
 .UNSPECIFIED., .F., .F.,
 ( 4, 2, 2, 2, 2, 2, 2, 2, 2, 4 ),
 ( 0.000000000000000000, 0.1250000000000000000, 0.1875000000000000000, 0.2500000000000000000, 0.3125000000000000000, 0.3750000000000000000, 0.5000000000000000000, 0.6250000000000000000, 0.7500000000000000000, 1.000000000000000000 ),
 .UNSPECIFIED. ) ;
#127 = CARTESIAN_POINT ( 'NONE',  ( -2.421581491942065067, 7.437891344078576772, 36.18493506486871780 ) ) ;
#128 = CARTESIAN_POINT ( 'NONE',  ( 8.552514072568003556, 0.7366854300940297584, 14.87993664059851184 ) ) ;
#129 = CARTESIAN_POINT ( 'NONE',  ( -3.811944206196186347, 21.58407439174194309, 28.77147103801685546 ) ) ;
#130 = CC_DESIGN_APPROVAL ( #417, ( #374 ) ) ;
#131 = CARTESIAN_POINT ( 'NONE',  ( 19.50185238863845072, 36.66913651815570319, 55.30381612012021719 ) ) ;
#132 = DIRECTION ( 'NONE',  ( 0.000000000000000000, 0.000000000000000000, 1.000000000000000000 ) ) ;
#133 = CARTESIAN_POINT ( 'NONE',  ( 36.31213653358609861, 53.74951537817017311, 32.03073625116495293 ) ) ;
#134 = CARTESIAN_POINT ( 'NONE',  ( -1.188005391160003255, 9.082659478449919277, 38.87265399853210113 ) ) ;
#135 = CARTESIAN_POINT ( 'NONE',  ( 123.8115788038204386, 154.4154384050939086, -4.276042424364704608 ) ) ;
#136 = CARTESIAN_POINT ( 'NONE',  ( 21.07355389930517120, 17.43140519909450958, 41.83939632871287273 ) ) ;
#137 = PLANE ( 'NONE',  #73 ) ;
#138 = CARTESIAN_POINT ( 'NONE',  ( 15.62280043745797720, 10.16373391660893155, 36.31024695777271205 ) ) ;
#139 =( LENGTH_UNIT ( ) NAMED_UNIT ( * ) SI_UNIT ( .MILLI., .METRE. ) );
#140 = DIRECTION ( 'NONE',  ( 0.000000000000000000, 0.000000000000000000, 1.000000000000000000 ) ) ;
#141 = CARTESIAN_POINT ( 'NONE',  ( 10.21952733906920585, 2.959369785423927368, 23.44216262493033298 ) ) ;
#142 =( GEOMETRIC_REPRESENTATION_CONTEXT ( 3 ) GLOBAL_UNCERTAINTY_ASSIGNED_CONTEXT ( ( #368 ) ) GLOBAL_UNIT_ASSIGNED_CONTEXT ( ( #139, #235, #423 ) ) REPRESENTATION_CONTEXT ( 'NONE', 'WORKASPACE' ) );
#143 = CARTESIAN_POINT ( 'NONE',  ( 12.53564647236783891, 6.047528629817162660, 30.62483704473247315 ) ) ;
#144 = APPROVAL_STATUS ( 'not_yet_approved' ) ;
#145 = EDGE_LOOP ( 'NONE', ( #187, #180, #40, #88 ) ) ;
#146 = CC_DESIGN_PERSON_AND_ORGANIZATION_ASSIGNMENT ( #227, #313, ( #346 ) ) ;
#147 = CARTESIAN_POINT ( 'NONE',  ( 78.40617724088738782, 115.2082363207554891, 33.89769451349880569 ) ) ;
#148 = PERSON_AND_ORGANIZATION_ROLE ( 'classification_officer' ) ;
#149 = CARTESIAN_POINT ( 'NONE',  ( 123.8115788038204386, 154.4154384050939086, -4.276042424364704608 ) ) ;
#150 = CARTESIAN_POINT ( 'NONE',  ( 1.639702531240121886, 12.85293670832358259, 43.65105509464942912 ) ) ;
#151 = DIRECTION ( 'NONE',  ( 0.4764473504775545987, -0.6980701993632605351, -0.5345053030455880760 ) ) ;
#152 = APPROVAL_STATUS ( 'not_yet_approved' ) ;
#153 = CARTESIAN_POINT ( 'NONE',  ( 10.21952733906920585, 2.959369785423927368, 23.44216262493033298 ) ) ;
#154 = CARTESIAN_POINT ( 'NONE',  ( 65.51419971508562412, 82.01893295369195869, 58.93037682845893954 ) ) ;
#155 = APPLICATION_PROTOCOL_DEFINITION ( 'international standard', 'config_control_design', 1994, #185 ) ;
#156 = CARTESIAN_POINT ( 'NONE',  ( 10.13339109868576671, 18.84452146491875979, 20.32157483856944680 ) ) ;
#157 = CARTESIAN_POINT ( 'NONE',  ( -4.821595868331709944, -11.76212782444082983, 31.88311199641113447 ) ) ;
#158 = PERSON_AND_ORGANIZATION ( #331, #71 ) ;
#159 = DIRECTION ( 'NONE',  ( 0.000000000000000000, 0.000000000000000000, 1.000000000000000000 ) ) ;
#160 = CARTESIAN_POINT ( 'NONE',  ( 75.76902188857023646, 106.3586958511214533, 13.18577978529456729 ) ) ;
#161 = CARTESIAN_POINT ( 'NONE',  ( 78.40617724088738782, 115.2082363207554891, 33.89769451349880569 ) ) ;
#162 = CARTESIAN_POINT ( 'NONE',  ( -5.369525464103231727, 3.507299381196175236, 27.05971235556290466 ) ) ;
#163 = CARTESIAN_POINT ( 'NONE',  ( 114.7878854441039351, 126.3838472601033942, 24.08208586641731230 ) ) ;
#164 = CARTESIAN_POINT ( 'NONE',  ( -8.024999687574860374, -0.03333291675858224279, 8.812994359249904264 ) ) ;
#165 = APPROVAL_PERSON_ORGANIZATION ( #308, #110, #341 ) ;
#166 = AXIS2_PLACEMENT_3D ( 'NONE', #224, #220, #377 ) ;
#167 = CARTESIAN_POINT ( 'NONE',  ( 8.651449538125369543, 22.20193271751573505, 50.74737446885003322 ) ) ;
#168 = CARTESIAN_POINT ( 'NONE',  ( 8.651449538125369543, 22.20193271751573505, 50.74737446885003322 ) ) ;
#169 = CARTESIAN_POINT ( 'NONE',  ( 12.43025101887682204, 43.24033469179721578, 42.49863974782587661 ) ) ;
#170 = CARTESIAN_POINT ( 'NONE',  ( 11.69352596537958355, 20.92470128717789990, 24.40368874636828522 ) ) ;
#171 = CARTESIAN_POINT ( 'NONE',  ( 6.739297627007098335, 19.65239683600243836, 49.28793810438365597 ) ) ;
#172 = CARTESIAN_POINT ( 'NONE',  ( 74.07463708637395428, 72.09951611531806748, 49.74193264053207741 ) ) ;
#173 = CARTESIAN_POINT ( 'NONE',  ( 16.30302638088395284, 27.07070184119478995, 29.96209214184714753 ) ) ;
#174 = CARTESIAN_POINT ( 'NONE',  ( 96.05273151606913018, 138.7369753556243097, 21.18283485071908956 ) ) ;
#175 = CARTESIAN_POINT ( 'NONE',  ( 12.53564647236783891, 6.047528629817162660, 30.62483704473247315 ) ) ;
#176 = CARTESIAN_POINT ( 'NONE',  ( 11.68141465681485514, -11.09144712423802481, 31.70004645904732499 ) ) ;
#177 = CARTESIAN_POINT ( 'NONE',  ( 25.84408141772638601, 7.792108556994234547, 53.71670051557860859 ) ) ;
#178 = CARTESIAN_POINT ( 'NONE',  ( 13.47550804735641350, 7.300677396476928926, 32.67166889045603995 ) ) ;
#179 = CARTESIAN_POINT ( 'NONE',  ( 12.53564647236783891, 6.047528629817162660, 30.62483704473247315 ) ) ;
#180 = ORIENTED_EDGE ( 'NONE', *, *, #262, .T. ) ;
#181 = CARTESIAN_POINT ( 'NONE',  ( 89.05598029934779447, 113.4079737319749199, 45.73307435802654197 ) ) ;
#182 = CARTESIAN_POINT ( 'NONE',  ( 12.53564647236783891, 6.047528629817162660, 30.62483704473247315 ) ) ;
#183 = PERSON_AND_ORGANIZATION ( #331, #71 ) ;
#184 = CARTESIAN_POINT ( 'NONE',  ( 7.975000312527350310, -0.03333291659037611321, 8.020963967573457865 ) ) ;
#185 = APPLICATION_CONTEXT ( 'configuration controlled 3d designs of mechanical parts and assemblies' ) ;
#186 = CARTESIAN_POINT ( 'NONE',  ( 57.38125796932697398, 65.84167729237445599, 40.59112718871261194 ) ) ;
#187 = ORIENTED_EDGE ( 'NONE', *, *, #461, .T. ) ;
#188 = CARTESIAN_POINT ( 'NONE',  ( -4.512088287949293175, 4.650548949399624377, 30.27773750648626105 ) ) ;
#189 = CARTESIAN_POINT ( 'NONE',  ( 8.552514072568003556, 0.7366854300940297584, 14.87993664059851184 ) ) ;
#190 = COORDINATED_UNIVERSAL_TIME_OFFSET ( 8, 0, .AHEAD. ) ;
#191 = CARTESIAN_POINT ( 'NONE',  ( 19.55601821277940644, 15.40802428370236221, 40.66852670461015862 ) ) ;
#192 = AXIS2_PLACEMENT_3D ( 'NONE', #75, #57, #8 ) ;
#193 = CARTESIAN_POINT ( 'NONE',  ( 26.57345375840007407, 30.09793834451418348, 68.10899249241454356 ) ) ;
#194 = DATE_AND_TIME ( #304, #3 ) ;
#195 = FACE_OUTER_BOUND ( 'NONE', #279, .T. ) ;
#196 = CARTESIAN_POINT ( 'NONE',  ( 48.07777283059413520, 37.43703044081147624, 58.49844371159103673 ) ) ;
#197 =( BOUNDED_SURFACE ( )  B_SPLINE_SURFACE ( 3, 3, (
 ( #239, #184, #115, #153, #49, #432, #395, #274, #19, #191, #53, #342, #16, #467, #229, #268, #82, #344, #354, #149 ),
 ( #45, #305, #12, #199, #156, #309, #118, #314, #428, #358, #458, #241, #113, #272, #236, #392, #21, #160, #350, #317 ),
 ( #424, #397, #456, #10, #80, #233, #390, #311, #474, #246, #209, #325, #169, #285, #370, #204, #360, #256, #440, #372 ),
 ( #34, #327, #477, #470, #30, #127, #134, #364, #26, #171, #167, #403, #131, #442, #293, #96, #406, #63, #174, #122 ),
 ( #437, #93, #249, #298, #38, #379, #39, #216, #333, #258, #223, #410, #104, #373, #35, #261, #68, #181, #414, #297 ),
 ( #103, #101, #412, #72, #176, #225, #339, #409, #259, #263, #177, #102, #219, #448, #446, #380, #411, #70, #41, #1 ),
 ( #7, #65, #376, #141, #334, #179, #178, #138, #67, #336, #136, #335, #294, #301, #2, #452, #4, #449, #99, #5 ) ),
 .UNSPECIFIED., .T., .F., .F. )
 B_SPLINE_SURFACE_WITH_KNOTS ( ( 4, 3, 4 ),
 ( 4, 2, 2, 2, 2, 2, 2, 2, 2, 4 ),
 ( 0.000000000000000000, 0.5000000000000000000, 1.000000000000000000 ),
 ( 0.000000000000000000, 0.1250000000000000000, 0.1875000000000000000, 0.2500000000000000000, 0.3125000000000000000, 0.3750000000000000000, 0.5000000000000000000, 0.6250000000000000000, 0.7500000000000000000, 1.000000000000000000 ),
 .UNSPECIFIED. )
 GEOMETRIC_REPRESENTATION_ITEM ( )  RATIONAL_B_SPLINE_SURFACE ( (
 ( 1.000000000000000000, 1.000000000000000000, 1.000000000000000000, 1.000000000000000000, 1.000000000000000000, 1.000000000000000000, 1.000000000000000000, 1.000000000000000000, 1.000000000000000000, 1.000000000000000000, 1.000000000000000000, 1.000000000000000000, 1.000000000000000000, 1.000000000000000000, 1.000000000000000000, 1.000000000000000000, 1.000000000000000000, 1.000000000000000000, 1.000000000000000000, 1.000000000000000000),
 ( 0.3333333333333333703, 0.3333333333333333703, 0.3333333333333333703, 0.3333333333333333703, 0.3333333333333333703, 0.3333333333333333703, 0.3333333333333333703, 0.3333333333333333703, 0.3333333333333333703, 0.3333333333333333703, 0.3333333333333333703, 0.3333333333333333703, 0.3333333333333333703, 0.3333333333333333703, 0.3333333333333333703, 0.3333333333333333703, 0.3333333333333333703, 0.3333333333333333703, 0.3333333333333333703, 0.3333333333333333703),
 ( 0.3333333333333333703, 0.3333333333333333703, 0.3333333333333333703, 0.3333333333333333703, 0.3333333333333333703, 0.3333333333333333703, 0.3333333333333333703, 0.3333333333333333703, 0.3333333333333333703, 0.3333333333333333703, 0.3333333333333333703, 0.3333333333333333703, 0.3333333333333333703, 0.3333333333333333703, 0.3333333333333333703, 0.3333333333333333703, 0.3333333333333333703, 0.3333333333333333703, 0.3333333333333333703, 0.3333333333333333703),
 ( 1.000000000000000000, 1.000000000000000000, 1.000000000000000000, 1.000000000000000000, 1.000000000000000000, 1.000000000000000000, 1.000000000000000000, 1.000000000000000000, 1.000000000000000000, 1.000000000000000000, 1.000000000000000000, 1.000000000000000000, 1.000000000000000000, 1.000000000000000000, 1.000000000000000000, 1.000000000000000000, 1.000000000000000000, 1.000000000000000000, 1.000000000000000000, 1.000000000000000000),
 ( 0.3333333333333333703, 0.3333333333333333703, 0.3333333333333333703, 0.3333333333333333703, 0.3333333333333333703, 0.3333333333333333703, 0.3333333333333333703, 0.3333333333333333703, 0.3333333333333333703, 0.3333333333333333703, 0.3333333333333333703, 0.3333333333333333703, 0.3333333333333333703, 0.3333333333333333703, 0.3333333333333333703, 0.3333333333333333703, 0.3333333333333333703, 0.3333333333333333703, 0.3333333333333333703, 0.3333333333333333703),
 ( 0.3333333333333333703, 0.3333333333333333703, 0.3333333333333333703, 0.3333333333333333703, 0.3333333333333333703, 0.3333333333333333703, 0.3333333333333333703, 0.3333333333333333703, 0.3333333333333333703, 0.3333333333333333703, 0.3333333333333333703, 0.3333333333333333703, 0.3333333333333333703, 0.3333333333333333703, 0.3333333333333333703, 0.3333333333333333703, 0.3333333333333333703, 0.3333333333333333703, 0.3333333333333333703, 0.3333333333333333703),
 ( 1.000000000000000000, 1.000000000000000000, 1.000000000000000000, 1.000000000000000000, 1.000000000000000000, 1.000000000000000000, 1.000000000000000000, 1.000000000000000000, 1.000000000000000000, 1.000000000000000000, 1.000000000000000000, 1.000000000000000000, 1.000000000000000000, 1.000000000000000000, 1.000000000000000000, 1.000000000000000000, 1.000000000000000000, 1.000000000000000000, 1.000000000000000000, 1.000000000000000000) ) )
 REPRESENTATION_ITEM ( '' )  SURFACE ( )  );
#198 = CALENDAR_DATE ( 2026, 26, 7 ) ;
#199 = CARTESIAN_POINT ( 'NONE',  ( 9.671597743297683181, 18.22879699106092488, 18.61876298408210317 ) ) ;
#200 = CARTESIAN_POINT ( 'NONE',  ( 19.50185238863845072, 36.66913651815570319, 55.30381612012021719 ) ) ;
#201 = CARTESIAN_POINT ( 'NONE',  ( 23.80039076508211338, 5.067187686772208544, 52.16107523764324583 ) ) ;
#202 = SHAPE_DEFINITION_REPRESENTATION ( #218, #210 ) ;
#203 = CARTESIAN_POINT ( 'NONE',  ( 86.41882494698479888, 104.5584332623408983, 25.02115962989104503 ) ) ;
#204 = CARTESIAN_POINT ( 'NONE',  ( 38.97501216240527100, 78.63334954986139280, 37.49103664560695393 ) ) ;
#205 = CARTESIAN_POINT ( 'NONE',  ( 39.71333930155196867, 42.28445240211748057, 45.70393374172234502 ) ) ;
#206 = CARTESIAN_POINT ( 'NONE',  ( 6.739297627007098335, 19.65239683600243836, 49.28793810438365597 ) ) ;
#207 = LOCAL_TIME ( 23, 45, 39.00000000000000000, #389 ) ;
#208 = CARTESIAN_POINT ( 'NONE',  ( 47.75627474171398035, 69.00836632222993217, 28.19076501633612608 ) ) ;
#209 = CARTESIAN_POINT ( 'NONE',  ( 3.880922019702726988, 31.84122935961886824, 38.87007028199286651 ) ) ;
#210 = ADVANCED_BREP_SHAPE_REPRESENTATION ( 'FN-FRM-006_left-mast-brace_D16_CONCEPT_R0.6', ( #250, #280 ), #142 ) ;
#211 = CARTESIAN_POINT ( 'NONE',  ( 57.38125796932697398, 65.84167729237445599, 40.59112718871261194 ) ) ;
#212 = CARTESIAN_POINT ( 'NONE',  ( 9.671597743297683181, 18.22879699106092488, 18.61876298408210317 ) ) ;
#213 = CARTESIAN_POINT ( 'NONE',  ( 54.00812242782770767, 45.34416323717128705, 57.36748728223793847 ) ) ;
#214 = CARTESIAN_POINT ( 'NONE',  ( -5.917455059874751733, 18.77672658683317763, 22.23631271471467130 ) ) ;
#215 = CC_DESIGN_SECURITY_CLASSIFICATION ( #413, ( #329 ) ) ;
#216 = CARTESIAN_POINT ( 'NONE',  ( 4.328905322952205204, 0.4385404306067979263, 53.43879927717051004 ) ) ;
#217 = CARTESIAN_POINT ( 'NONE',  ( -8.000000000000000000, 9.797174393178825657E-16, 0.000000000000000000 ) ) ;
#218 = PRODUCT_DEFINITION_SHAPE ( 'NONE', 'NONE',  #374 ) ;
#219 = CARTESIAN_POINT ( 'NONE',  ( 37.26975273107885300, 23.02633697475254948, 58.50511021320102856 ) ) ;
#220 = DIRECTION ( 'NONE',  ( 0.5345053030455882981, 0.7126737373941177678, -0.4543129153401256892 ) ) ;
#221 = ORIENTED_EDGE ( 'NONE', *, *, #439, .F. ) ;
#222 = B_SPLINE_CURVE_WITH_KNOTS ( 'NONE', 3,
 ( #282, #436, #264, #347, #381, #143, #343, #58, #367, #324, #78, #120, #434, #284, #422, #186, #92, #203, #319, #232 ),
 .UNSPECIFIED., .F., .F.,
 ( 4, 2, 2, 2, 2, 2, 2, 2, 2, 4 ),
 ( 0.000000000000000000, 0.1250000000000000000, 0.1875000000000000000, 0.2500000000000000000, 0.3125000000000000000, 0.3750000000000000000, 0.5000000000000000000, 0.6250000000000000000, 0.7500000000000000000, 1.000000000000000000 ),
 .UNSPECIFIED. ) ;
#223 = CARTESIAN_POINT ( 'NONE',  ( 13.42197705654801254, 12.56263607541259830, 62.62467865570719994 ) ) ;
#224 = CARTESIAN_POINT ( 'NONE',  ( 120.0000000000000000, 160.0000000000000000, 0.000000000000000000 ) ) ;
#225 = CARTESIAN_POINT ( 'NONE',  ( 13.92600918662394882, -8.098654417843556885, 38.03830107157902773 ) ) ;
#226 = FACE_OUTER_BOUND ( 'NONE', #145, .T. ) ;
#227 = PERSON_AND_ORGANIZATION ( #331, #71 ) ;
#228 = DIRECTION ( 'NONE',  ( 0.5345053030455882981, 0.7126737373941176568, -0.4543129153401256892 ) ) ;
#229 = CARTESIAN_POINT ( 'NONE',  ( 45.16012948070691380, 49.54683930767073008, 44.69911176670144215 ) ) ;
#230 = CARTESIAN_POINT ( 'NONE',  ( 21.62223091930949437, 55.49630789245121321, 42.50530624926240364 ) ) ;
#231 = AXIS2_PLACEMENT_3D ( 'NONE', #59, #132, #290 ) ;
#232 = CARTESIAN_POINT ( 'NONE',  ( 123.8115788038204386, 154.4154384050939086, -4.276042424364704608 ) ) ;
#233 = CARTESIAN_POINT ( 'NONE',  ( -3.811944206196186347, 21.58407439174194309, 28.77147103801685546 ) ) ;
#234 = CARTESIAN_POINT ( 'NONE',  ( -7.327965531767138607, -15.10395404235904948, 19.08879999753999357 ) ) ;
#235 =( NAMED_UNIT ( * ) PLANE_ANGLE_UNIT ( ) SI_UNIT ( $, .RADIAN. ) );
#236 = CARTESIAN_POINT ( 'NONE',  ( 36.31213653358609861, 53.74951537817017311, 32.03073625116495293 ) ) ;
#237 = CARTESIAN_POINT ( 'NONE',  ( 18.31200322916878420, -2.250662361106571474, 46.09799114028866995 ) ) ;
#238 = APPROVAL_DATE_TIME ( #276, #110 ) ;
#239 = CARTESIAN_POINT ( 'NONE',  ( 8.000000000000000000, 0.000000000000000000, 0.000000000000000000 ) ) ;
#240 = CARTESIAN_POINT ( 'NONE',  ( 13.42197705654801254, 12.56263607541259830, 62.62467865570719994 ) ) ;
#241 = CARTESIAN_POINT ( 'NONE',  ( 19.89196768869497589, 31.85595691822761211, 31.99791541682605001 ) ) ;
#242 = CARTESIAN_POINT ( 'NONE',  ( 7.975000312344834086, -16.03333291676558758, 9.077004489808336629 ) ) ;
#243 = APPROVAL_ROLE ( '' ) ;
#244 = CARTESIAN_POINT ( 'NONE',  ( 29.98666444833720846, 50.64888593114520887, 55.29981621913109535 ) ) ;
#245 = CC_DESIGN_PERSON_AND_ORGANIZATION_ASSIGNMENT ( #18, #453, ( #374 ) ) ;
#246 = CARTESIAN_POINT ( 'NONE',  ( 2.494925074704391399, 29.99323343293259470, 37.79538957135583388 ) ) ;
#247 = CARTESIAN_POINT ( 'NONE',  ( 45.16012948070691380, 49.54683930767073008, 44.69911176670144215 ) ) ;
#248 = CARTESIAN_POINT ( 'NONE',  ( -5.369525464103231727, 3.507299381196175236, 27.05971235556290466 ) ) ;
#249 = CARTESIAN_POINT ( 'NONE',  ( -7.327965531767138607, -15.10395404235904948, 19.08879999753999357 ) ) ;
#250 = MANIFOLD_SOLID_BREP ( '扫描1', #291 ) ;
#251 = CARTESIAN_POINT ( 'NONE',  ( 123.8115788038204386, 154.4154384050939086, -4.276042424364704608 ) ) ;
#252 = CARTESIAN_POINT ( 'NONE',  ( 7.975000312527350310, -0.03333291659037611321, 8.020963967573457865 ) ) ;
#253 = CARTESIAN_POINT ( 'NONE',  ( 8.000000000000000000, 15.99999999999999822, 0.000000000000000000 ) ) ;
#254 = CARTESIAN_POINT ( 'NONE',  ( 67.00624119693996761, 62.67498826251898691, 52.99148936108910135 ) ) ;
#255 = CARTESIAN_POINT ( 'NONE',  ( -8.024999687392339709, 15.96666708341662755, 7.756953837015025499 ) ) ;
#256 = CARTESIAN_POINT ( 'NONE',  ( 67.75637418242699539, 117.0084989095360584, 22.06231466897106586 ) ) ;
#257 = CARTESIAN_POINT ( 'NONE',  ( 8.000000000000000000, 0.000000000000000000, 0.000000000000000000 ) ) ;
#258 = CARTESIAN_POINT ( 'NONE',  ( 10.98367017930980616, 9.311560239072285583, 60.78048663741147806 ) ) ;
#259 = CARTESIAN_POINT ( 'NONE',  ( 20.03356533440584641, 0.04475377921175568985, 48.35232787012248679 ) ) ;
#260 = EDGE_CURVE ( 'NONE', #338, #450, #222, .T. ) ;
#261 = CARTESIAN_POINT ( 'NONE',  ( 58.22497861763125826, 72.29997149018734603, 62.29176099037836423 ) ) ;
#262 = EDGE_CURVE ( 'NONE', #51, #76, #126, .T. ) ;
#263 = CARTESIAN_POINT ( 'NONE',  ( 23.80039076508211338, 5.067187686772208544, 52.16107523764324583 ) ) ;
#264 = CARTESIAN_POINT ( 'NONE',  ( 8.552514072568003556, 0.7366854300940297584, 14.87993664059851184 ) ) ;
#265 = COORDINATED_UNIVERSAL_TIME_OFFSET ( 8, 0, .AHEAD. ) ;
#266 = CARTESIAN_POINT ( 'NONE',  ( 8.000000000000000000, 0.000000000000000000, 0.000000000000000000 ) ) ;
#267 = PERSON_AND_ORGANIZATION ( #331, #71 ) ;
#268 = CARTESIAN_POINT ( 'NONE',  ( 57.38125796932697398, 65.84167729237445599, 40.59112718871261194 ) ) ;
#269 = CARTESIAN_POINT ( 'NONE',  ( 21.06428598311825340, 22.75238131079390058, 66.90158975320952095 ) ) ;
#270 = CARTESIAN_POINT ( 'NONE',  ( 45.16012948070691380, 49.54683930767073008, 44.69911176670144215 ) ) ;
#271 = DIRECTION ( 'NONE',  ( 1.000000000000000000, 0.000000000000000000, 0.000000000000000000 ) ) ;
#272 = CARTESIAN_POINT ( 'NONE',  ( 31.34890577250979504, 47.13187436342350622, 32.90942377185366041 ) ) ;
#273 = CARTESIAN_POINT ( 'NONE',  ( 116.1884211961795614, 165.5845615949060914, 4.276042424364703720 ) ) ;
#274 = CARTESIAN_POINT ( 'NONE',  ( 15.62280043745797720, 10.16373391660893155, 36.31024695777271205 ) ) ;
#275 = CARTESIAN_POINT ( 'NONE',  ( 8.000000000000000000, -15.99999999999999822, 0.000000000000000000 ) ) ;
#276 = DATE_AND_TIME ( #198, #66 ) ;
#277 = EDGE_LOOP ( 'NONE', ( #464, #221 ) ) ;
#278 = CARTESIAN_POINT ( 'NONE',  ( 12.43025101887682204, 43.24033469179721578, 42.49863974782587661 ) ) ;
#279 = EDGE_LOOP ( 'NONE', ( #419, #85, #378, #460 ) ) ;
#280 = AXIS2_PLACEMENT_3D ( 'NONE', #357, #159, #271 ) ;
#281 = CARTESIAN_POINT ( 'NONE',  ( 58.22497861763125826, 72.29997149018734603, 62.29176099037836423 ) ) ;
#282 = CARTESIAN_POINT ( 'NONE',  ( 8.000000000000000000, 0.000000000000000000, 0.000000000000000000 ) ) ;
#283 = PRODUCT_RELATED_PRODUCT_CATEGORY ( 'detail', '', ( #346 ) ) ;
#284 = CARTESIAN_POINT ( 'NONE',  ( 39.71333930155196867, 42.28445240211748057, 45.70393374172234502 ) ) ;
#285 = CARTESIAN_POINT ( 'NONE',  ( 21.62223091930949437, 55.49630789245121321, 42.50530624926240364 ) ) ;
#286 = DIRECTION ( 'NONE',  ( 1.000000000000000000, 0.000000000000000000, 0.000000000000000000 ) ) ;
#287 = CARTESIAN_POINT ( 'NONE',  ( 64.15522024800006307, 74.87362699748619832, 37.49067372323514746 ) ) ;
#288 = CARTESIAN_POINT ( 'NONE',  ( 16.83111328368111614, 11.77481771157833457, 37.90358762702315687 ) ) ;
#289 = CARTESIAN_POINT ( 'NONE',  ( -1.049500260471963209, 25.26733298604036904, 33.86331091212834821 ) ) ;
#290 = DIRECTION ( 'NONE',  ( 1.000000000000000000, 0.000000000000000000, 0.000000000000000000 ) ) ;
#291 = CLOSED_SHELL ( 'NONE', ( #337, #6, #480, #84 ) ) ;
#292 = CARTESIAN_POINT ( 'NONE',  ( 54.23580340962619317, 77.64773787965432916, 25.23941480593822462 ) ) ;
#293 = CARTESIAN_POINT ( 'NONE',  ( 35.79612419106596377, 58.39483225475461836, 54.20039340335610945 ) ) ;
#294 = CARTESIAN_POINT ( 'NONE',  ( 30.19815136133168920, 29.59753514839406563, 45.69993384090669508 ) ) ;
#295 = CARTESIAN_POINT ( 'NONE',  ( 0.000000000000000000, 0.000000000000000000, 0.000000000000000000 ) ) ;
#296 = EDGE_CURVE ( 'NONE', #76, #450, #356, .T. ) ;
#297 = CARTESIAN_POINT ( 'NONE',  ( 127.3575443859917442, 164.4767258479889733, 15.67882222267059333 ) ) ;
#298 = CARTESIAN_POINT ( 'NONE',  ( -4.821595868331709944, -11.76212782444082983, 31.88311199641113447 ) ) ;
#299 = EDGE_CURVE ( 'NONE', #450, #76, #37, .T. ) ;
#300 =( BOUNDED_SURFACE ( )  B_SPLINE_SURFACE ( 3, 3, (
 ( #266, #44, #189, #306, #25, #182, #322, #340, #455, #106, #383, #457, #472, #111, #270, #121, #287, #330, #62, #251 ),
 ( #253, #29, #405, #212, #408, #94, #170, #402, #326, #371, #173, #60, #33, #481, #133, #208, #292, #444, #369, #97 ),
 ( #438, #255, #64, #214, #478, #129, #124, #289, #441, #95, #386, #355, #278, #230, #465, #462, #345, #50, #46, #117 ),
 ( #310, #359, #77, #162, #188, #13, #20, #150, #24, #54, #459, #22, #200, #429, #396, #320, #114, #161, #119, #273 ),
 ( #425, #81, #234, #157, #315, #318, #433, #391, #17, #86, #240, #269, #193, #351, #468, #281, #154, #89, #116, #312 ),
 ( #275, #242, #398, #427, #56, #83, #109, #237, #393, #201, #52, #420, #361, #196, #213, #254, #172, #443, #163, #435 ),
 ( #321, #252, #128, #28, #471, #175, #404, #479, #288, #332, #91, #61, #445, #205, #247, #211, #323, #32, #123, #328 ) ),
 .UNSPECIFIED., .T., .F., .T. )
 B_SPLINE_SURFACE_WITH_KNOTS ( ( 4, 3, 4 ),
 ( 4, 2, 2, 2, 2, 2, 2, 2, 2, 4 ),
 ( 0.000000000000000000, 0.5000000000000000000, 1.000000000000000000 ),
 ( 0.000000000000000000, 0.1250000000000000000, 0.1875000000000000000, 0.2500000000000000000, 0.3125000000000000000, 0.3750000000000000000, 0.5000000000000000000, 0.6250000000000000000, 0.7500000000000000000, 1.000000000000000000 ),
 .UNSPECIFIED. )
 GEOMETRIC_REPRESENTATION_ITEM ( )  RATIONAL_B_SPLINE_SURFACE ( (
 ( 1.000000000000000000, 1.000000000000000000, 1.000000000000000000, 1.000000000000000000, 1.000000000000000000, 1.000000000000000000, 1.000000000000000000, 1.000000000000000000, 1.000000000000000000, 1.000000000000000000, 1.000000000000000000, 1.000000000000000000, 1.000000000000000000, 1.000000000000000000, 1.000000000000000000, 1.000000000000000000, 1.000000000000000000, 1.000000000000000000, 1.000000000000000000, 1.000000000000000000),
 ( 0.3333333333333333703, 0.3333333333333333703, 0.3333333333333333703, 0.3333333333333333703, 0.3333333333333333703, 0.3333333333333333703, 0.3333333333333333703, 0.3333333333333333703, 0.3333333333333333703, 0.3333333333333333703, 0.3333333333333333703, 0.3333333333333333703, 0.3333333333333333703, 0.3333333333333333703, 0.3333333333333333703, 0.3333333333333333703, 0.3333333333333333703, 0.3333333333333333703, 0.3333333333333333703, 0.3333333333333333703),
 ( 0.3333333333333333703, 0.3333333333333333703, 0.3333333333333333703, 0.3333333333333333703, 0.3333333333333333703, 0.3333333333333333703, 0.3333333333333333703, 0.3333333333333333703, 0.3333333333333333703, 0.3333333333333333703, 0.3333333333333333703, 0.3333333333333333703, 0.3333333333333333703, 0.3333333333333333703, 0.3333333333333333703, 0.3333333333333333703, 0.3333333333333333703, 0.3333333333333333703, 0.3333333333333333703, 0.3333333333333333703),
 ( 1.000000000000000000, 1.000000000000000000, 1.000000000000000000, 1.000000000000000000, 1.000000000000000000, 1.000000000000000000, 1.000000000000000000, 1.000000000000000000, 1.000000000000000000, 1.000000000000000000, 1.000000000000000000, 1.000000000000000000, 1.000000000000000000, 1.000000000000000000, 1.000000000000000000, 1.000000000000000000, 1.000000000000000000, 1.000000000000000000, 1.000000000000000000, 1.000000000000000000),
 ( 0.3333333333333333703, 0.3333333333333333703, 0.3333333333333333703, 0.3333333333333333703, 0.3333333333333333703, 0.3333333333333333703, 0.3333333333333333703, 0.3333333333333333703, 0.3333333333333333703, 0.3333333333333333703, 0.3333333333333333703, 0.3333333333333333703, 0.3333333333333333703, 0.3333333333333333703, 0.3333333333333333703, 0.3333333333333333703, 0.3333333333333333703, 0.3333333333333333703, 0.3333333333333333703, 0.3333333333333333703),
 ( 0.3333333333333333703, 0.3333333333333333703, 0.3333333333333333703, 0.3333333333333333703, 0.3333333333333333703, 0.3333333333333333703, 0.3333333333333333703, 0.3333333333333333703, 0.3333333333333333703, 0.3333333333333333703, 0.3333333333333333703, 0.3333333333333333703, 0.3333333333333333703, 0.3333333333333333703, 0.3333333333333333703, 0.3333333333333333703, 0.3333333333333333703, 0.3333333333333333703, 0.3333333333333333703, 0.3333333333333333703),
 ( 1.000000000000000000, 1.000000000000000000, 1.000000000000000000, 1.000000000000000000, 1.000000000000000000, 1.000000000000000000, 1.000000000000000000, 1.000000000000000000, 1.000000000000000000, 1.000000000000000000, 1.000000000000000000, 1.000000000000000000, 1.000000000000000000, 1.000000000000000000, 1.000000000000000000, 1.000000000000000000, 1.000000000000000000, 1.000000000000000000, 1.000000000000000000, 1.000000000000000000) ) )
 REPRESENTATION_ITEM ( '' )  SURFACE ( )  );
#301 = CARTESIAN_POINT ( 'NONE',  ( 39.71333930155196867, 42.28445240211748057, 45.70393374172234502 ) ) ;
#302 = APPLICATION_CONTEXT ( 'configuration controlled 3d designs of mechanical parts and assemblies' ) ;
#303 = CARTESIAN_POINT ( 'NONE',  ( 1.639702531240121886, 12.85293670832358259, 43.65105509464942912 ) ) ;
#304 = CALENDAR_DATE ( 2026, 26, 7 ) ;
#305 = CARTESIAN_POINT ( 'NONE',  ( 7.975000312709866535, 15.96666708358483611, 6.964923445338579100 ) ) ;
#306 = CARTESIAN_POINT ( 'NONE',  ( 10.21952733906920585, 2.959369785423927368, 23.44216262493033298 ) ) ;
#307 = CIRCLE ( 'NONE', #231, 8.000000000000000000 ) ;
#308 = PERSON_AND_ORGANIZATION ( #331, #71 ) ;
#309 = CARTESIAN_POINT ( 'NONE',  ( 11.14528375811172900, 20.19371167747788931, 23.21137301788591500 ) ) ;
#310 = CARTESIAN_POINT ( 'NONE',  ( -8.000000000000000000, 9.797174393178825657E-16, 0.000000000000000000 ) ) ;
#311 = CARTESIAN_POINT ( 'NONE',  ( -1.049500260471963209, 25.26733298604036904, 33.86331091212834821 ) ) ;
#312 = CARTESIAN_POINT ( 'NONE',  ( 127.3575443859917442, 164.4767258479889733, 15.67882222267059333 ) ) ;
#313 = PERSON_AND_ORGANIZATION_ROLE ( 'design_owner' ) ;
#314 = CARTESIAN_POINT ( 'NONE',  ( 12.93359764574717019, 22.57813019432443724, 26.52250277525676125 ) ) ;
#315 = CARTESIAN_POINT ( 'NONE',  ( -3.738076508882764770, -10.31743534517612382, 35.96697331671990128 ) ) ;
#316 = APPROVAL_DATE_TIME ( #469, #385 ) ;
#317 = CARTESIAN_POINT ( 'NONE',  ( 112.6424556140082984, 155.5232741520110267, -15.67882222267058978 ) ) ;
#318 = CARTESIAN_POINT ( 'NONE',  ( -1.031218777687943122, -6.708291703584793986, 43.59839909172057304 ) ) ;
#319 = CARTESIAN_POINT ( 'NONE',  ( 103.8472697354698653, 127.7963596471200844, 12.48508180287800862 ) ) ;
#320 = CARTESIAN_POINT ( 'NONE',  ( 48.59999539001826463, 75.46666052002436231, 49.89139881799266618 ) ) ;
#321 = CARTESIAN_POINT ( 'NONE',  ( 8.000000000000000000, 0.000000000000000000, 0.000000000000000000 ) ) ;
#322 = CARTESIAN_POINT ( 'NONE',  ( 13.47550804735641350, 7.300677396476928926, 32.67166889045603995 ) ) ;
#323 = CARTESIAN_POINT ( 'NONE',  ( 64.15522024800006307, 74.87362699748619832, 37.49067372323514746 ) ) ;
#324 = CARTESIAN_POINT ( 'NONE',  ( 19.55601821277940644, 15.40802428370236221, 40.66852670461015862 ) ) ;
#325 = CARTESIAN_POINT ( 'NONE',  ( 8.575327223535099463, 38.10043629801633358, 41.51709932674465620 ) ) ;
#326 = CARTESIAN_POINT ( 'NONE',  ( 13.62866123295638410, 23.50488164394491619, 27.45484738392383406 ) ) ;
#327 = CARTESIAN_POINT ( 'NONE',  ( -8.024999687574860374, -0.03333291675858224279, 8.812994359249904264 ) ) ;
#328 = CARTESIAN_POINT ( 'NONE',  ( 123.8115788038204386, 154.4154384050939086, -4.276042424364704608 ) ) ;
#329 = PRODUCT_DEFINITION_FORMATION_WITH_SPECIFIED_SOURCE ( '任何', '', #346, .NOT_KNOWN. ) ;
#330 = CARTESIAN_POINT ( 'NONE',  ( 86.41882494698479888, 104.5584332623408983, 25.02115962989104503 ) ) ;
#331 = PERSON ( '未指定', '未指定', '未指定', ('未指定'), ('未指定'), ('未指定') ) ;
#332 = CARTESIAN_POINT ( 'NONE',  ( 19.55601821277940644, 15.40802428370236221, 40.66852670461015862 ) ) ;
#333 = CARTESIAN_POINT ( 'NONE',  ( 6.435404372448735977, 3.247205829939127320, 56.18888305245356207 ) ) ;
#334 = CARTESIAN_POINT ( 'NONE',  ( 10.90740287775031092, 3.876537170340367044, 26.01081064880838767 ) ) ;
#335 = CARTESIAN_POINT ( 'NONE',  ( 26.13644706848941723, 24.18192942461067929, 44.69016063004134054 ) ) ;
#336 = CARTESIAN_POINT ( 'NONE',  ( 19.55601821277940644, 15.40802428370236221, 40.66852670461015862 ) ) ;
#337 = ADVANCED_FACE ( 'NONE', ( #226 ), #300, .T. ) ;
#338 = VERTEX_POINT ( 'NONE', #257 ) ;
#339 = CARTESIAN_POINT ( 'NONE',  ( 15.25749012933324344, -6.323346494224040271, 40.93964903454379112 ) ) ;
#340 = CARTESIAN_POINT ( 'NONE',  ( 15.62280043745797720, 10.16373391660893155, 36.31024695777271205 ) ) ;
#341 = APPROVAL_ROLE ( '' ) ;
#342 = CARTESIAN_POINT ( 'NONE',  ( 26.13644706848941723, 24.18192942461067929, 44.69016063004134054 ) ) ;
#343 = CARTESIAN_POINT ( 'NONE',  ( 13.47550804735641350, 7.300677396476928926, 32.67166889045603995 ) ) ;
#344 = CARTESIAN_POINT ( 'NONE',  ( 86.41882494698479888, 104.5584332623408983, 25.02115962989104503 ) ) ;
#345 = CARTESIAN_POINT ( 'NONE',  ( 45.67536603838369302, 87.56715471802826301, 34.42785899379634174 ) ) ;
#346 = PRODUCT ( 'FN-FRM-006_left-mast-brace_D16_CONCEPT_R0.6', 'FN-FRM-006_left-mast-brace_D16_CONCEPT_R0.6', '', ( #105 ) ) ;
#347 = CARTESIAN_POINT ( 'NONE',  ( 10.21952733906920585, 2.959369785423927368, 23.44216262493033298 ) ) ;
#348 = CIRCLE ( 'NONE', #476, 8.000000000000000000 ) ;
#349 = DATE_AND_TIME ( #382, #365 ) ;
#350 = CARTESIAN_POINT ( 'NONE',  ( 92.90665402683582386, 129.2088720341367321, 0.8880777393387196961 ) ) ;
#351 = CARTESIAN_POINT ( 'NONE',  ( 38.35109797736492965, 45.80146396983919743, 68.09432618899978706 ) ) ;
#352 = APPROVAL_DATE_TIME ( #194, #417 ) ;
#353 = APPROVAL_PERSON_ORGANIZATION ( #183, #417, #112 ) ;
#354 = CARTESIAN_POINT ( 'NONE',  ( 103.8472697354698653, 127.7963596471200844, 12.48508180287800862 ) ) ;
#355 = CARTESIAN_POINT ( 'NONE',  ( 8.575327223535099463, 38.10043629801633358, 41.51709932674465620 ) ) ;
#356 = CIRCLE ( 'NONE', #125, 8.000000000000000000 ) ;
#357 = CARTESIAN_POINT ( 'NONE',  ( 0.000000000000000000, 0.000000000000000000, 0.000000000000000000 ) ) ;
#358 = CARTESIAN_POINT ( 'NONE',  ( 15.31164566047669773, 25.74886088063251677, 29.17597817157706785 ) ) ;
#359 = CARTESIAN_POINT ( 'NONE',  ( -8.024999687574860374, -0.03333291675858224279, 8.812994359249904264 ) ) ;
#360 = CARTESIAN_POINT ( 'NONE',  ( 45.67536603838369302, 87.56715471802826301, 34.42785899379634174 ) ) ;
#361 = CARTESIAN_POINT ( 'NONE',  ( 37.26975273107885300, 23.02633697475254948, 58.50511021320102856 ) ) ;
#362 = DATE_AND_TIME ( #421, #207 ) ;
#363 = CARTESIAN_POINT ( 'NONE',  ( 116.1884211961795614, 165.5845615949060914, 4.276042424364704608 ) ) ;
#364 = CARTESIAN_POINT ( 'NONE',  ( 1.639702531240121886, 12.85293670832358259, 43.65105509464942912 ) ) ;
#365 = LOCAL_TIME ( 23, 45, 39.00000000000000000, #265 ) ;
#366 = DIRECTION ( 'NONE',  ( 0.000000000000000000, 0.000000000000000000, 1.000000000000000000 ) ) ;
#367 = CARTESIAN_POINT ( 'NONE',  ( 16.83111328368111614, 11.77481771157833457, 37.90358762702315687 ) ) ;
#368 = UNCERTAINTY_MEASURE_WITH_UNIT (LENGTH_MEASURE( 1.000000000000000082E-05 ), #139, 'distance_accuracy_value', 'NONE');
#369 = CARTESIAN_POINT ( 'NONE',  ( 92.90665402683582386, 129.2088720341367321, 0.8880777393387196961 ) ) ;
#370 = CARTESIAN_POINT ( 'NONE',  ( 26.94813124394516990, 62.59750832527253550, 41.53201788782885018 ) ) ;
#371 = CARTESIAN_POINT ( 'NONE',  ( 15.31164566047669773, 25.74886088063251677, 29.17597817157706785 ) ) ;
#372 = CARTESIAN_POINT ( 'NONE',  ( 105.0192980063673787, 166.6923973418232094, -7.126737373941180564 ) ) ;
#373 = CARTESIAN_POINT ( 'NONE',  ( 38.35109797736492965, 45.80146396983919743, 68.09432618899978706 ) ) ;
#374 = PRODUCT_DEFINITION ( '未知', '', #329, #31 ) ;
#375 = CARTESIAN_POINT ( 'NONE',  ( 116.1884211961795614, 165.5845615949060914, 4.276042424364704608 ) ) ;
#376 = CARTESIAN_POINT ( 'NONE',  ( 8.552514072568003556, 0.7366854300940297584, 14.87993664059851184 ) ) ;
#377 = DIRECTION ( 'NONE',  ( 0.4764473504775548762, -0.6980701993632603131, -0.5345053030455880760 ) ) ;
#378 = ORIENTED_EDGE ( 'NONE', *, *, #260, .T. ) ;
#379 = CARTESIAN_POINT ( 'NONE',  ( -1.031218777687943122, -6.708291703584793986, 43.59839909172057304 ) ) ;
#380 = CARTESIAN_POINT ( 'NONE',  ( 67.00624119693996761, 62.67498826251898691, 52.99148936108910135 ) ) ;
#381 = CARTESIAN_POINT ( 'NONE',  ( 10.90740287775031092, 3.876537170340367044, 26.01081064880838767 ) ) ;
#382 = CALENDAR_DATE ( 2026, 26, 7 ) ;
#383 = CARTESIAN_POINT ( 'NONE',  ( 21.07355389930517120, 17.43140519909450958, 41.83939632871287273 ) ) ;
#384 = ORIENTED_EDGE ( 'NONE', *, *, #299, .T. ) ;
#385 = APPROVAL ( #47, '未指定' ) ;
#386 = CARTESIAN_POINT ( 'NONE',  ( 3.880922019702726988, 31.84122935961886824, 38.87007028199286651 ) ) ;
#387 = DATE_TIME_ROLE ( 'classification_date' ) ;
#388 = CARTESIAN_POINT ( 'NONE',  ( 19.50185238863845072, 36.66913651815570319, 55.30381612012021719 ) ) ;
#389 = COORDINATED_UNIVERSAL_TIME_OFFSET ( 8, 0, .AHEAD. ) ;
#390 = CARTESIAN_POINT ( 'NONE',  ( -2.969987473135550449, 22.70668336914960861, 30.60467385444947297 ) ) ;
#391 = CARTESIAN_POINT ( 'NONE',  ( 4.328905322952205204, 0.4385404306067979263, 53.43879927717051004 ) ) ;
#392 = CARTESIAN_POINT ( 'NONE',  ( 47.75627474171398035, 69.00836632222993217, 28.19076501633612608 ) ) ;
#393 = CARTESIAN_POINT ( 'NONE',  ( 20.03356533440584641, 0.04475377921175568985, 48.35232787012248679 ) ) ;
#394 = PERSON_AND_ORGANIZATION_ROLE ( 'design_supplier' ) ;
#395 = CARTESIAN_POINT ( 'NONE',  ( 13.47550804735641350, 7.300677396476928926, 32.67166889045603995 ) ) ;
#396 = CARTESIAN_POINT ( 'NONE',  ( 35.79612419106596377, 58.39483225475461836, 54.20039340335610945 ) ) ;
#397 = CARTESIAN_POINT ( 'NONE',  ( -8.024999687392339709, 15.96666708341662755, 7.756953837015025499 ) ) ;
#398 = CARTESIAN_POINT ( 'NONE',  ( 8.620811441518117846, -15.17225141130773025, 17.28500141598953377 ) ) ;
#399 = CARTESIAN_POINT ( 'NONE',  ( 35.79612419106596377, 58.39483225475461836, 54.20039340335610945 ) ) ;
#400 = CARTESIAN_POINT ( 'NONE',  ( 0.000000000000000000, 0.000000000000000000, 0.000000000000000000 ) ) ;
#401 = CARTESIAN_POINT ( 'NONE',  ( 48.59999539001826463, 75.46666052002436231, 49.89139881799266618 ) ) ;
#402 = CARTESIAN_POINT ( 'NONE',  ( 12.93359764574717019, 22.57813019432443724, 26.52250277525676125 ) ) ;
#403 = CARTESIAN_POINT ( 'NONE',  ( 14.81980660332667732, 30.42640880440512063, 54.20934453997707436 ) ) ;
#404 = CARTESIAN_POINT ( 'NONE',  ( 13.47550804735641350, 7.300677396476928926, 32.67166889045603995 ) ) ;
#405 = CARTESIAN_POINT ( 'NONE',  ( 8.484216703617891042, 16.64562227149578533, 12.47487186520749169 ) ) ;
#406 = CARTESIAN_POINT ( 'NONE',  ( 55.59478287673465502, 84.79304383586010374, 46.67911791112764064 ) ) ;
#407 = FACE_OUTER_BOUND ( 'NONE', #426, .T. ) ;
#408 = CARTESIAN_POINT ( 'NONE',  ( 10.13339109868576671, 18.84452146491875979, 20.32157483856944680 ) ) ;
#409 = CARTESIAN_POINT ( 'NONE',  ( 18.31200322916878420, -2.250662361106571474, 46.09799114028866995 ) ) ;
#410 = CARTESIAN_POINT ( 'NONE',  ( 21.06428598311825340, 22.75238131079390058, 66.90158975320952095 ) ) ;
#411 = CARTESIAN_POINT ( 'NONE',  ( 74.07463708637395428, 72.09951611531806748, 49.74193264053207741 ) ) ;
#412 = CARTESIAN_POINT ( 'NONE',  ( 8.620811441518117846, -15.17225141130773025, 17.28500141598953377 ) ) ;
#413 = SECURITY_CLASSIFICATION ( '', '', #107 ) ;
#414 = CARTESIAN_POINT ( 'NONE',  ( 106.9933472239243031, 137.3244629686076621, 32.77983891407988892 ) ) ;
#415 = CARTESIAN_POINT ( 'NONE',  ( -4.512088287949293175, 4.650548949399624377, 30.27773750648626105 ) ) ;
#416 = APPLICATION_PROTOCOL_DEFINITION ( 'international standard', 'config_control_design', 1994, #302 ) ;
#417 = APPROVAL ( #152, '未指定' ) ;
#418 = CARTESIAN_POINT ( 'NONE',  ( 120.0000000000000000, 160.0000000000000000, 0.000000000000000000 ) ) ;
#419 = ORIENTED_EDGE ( 'NONE', *, *, #262, .F. ) ;
#420 = CARTESIAN_POINT ( 'NONE',  ( 32.38092644828384437, 16.50790193099374648, 57.38240584325663463 ) ) ;
#421 = CALENDAR_DATE ( 2026, 26, 7 ) ;
#422 = CARTESIAN_POINT ( 'NONE',  ( 45.16012948070691380, 49.54683930767073008, 44.69911176670144215 ) ) ;
#423 =( NAMED_UNIT ( * ) SI_UNIT ( $, .STERADIAN. ) SOLID_ANGLE_UNIT ( ) );
#424 = CARTESIAN_POINT ( 'NONE',  ( -7.999999999999999112, 15.99999999999999822, 0.000000000000000000 ) ) ;
#425 = CARTESIAN_POINT ( 'NONE',  ( -8.000000000000001776, -15.99999999999999822, 0.000000000000000000 ) ) ;
#426 = EDGE_LOOP ( 'NONE', ( #384, #108 ) ) ;
#427 = CARTESIAN_POINT ( 'NONE',  ( 10.76745693484072675, -12.31005742021307725, 28.26556226577856279 ) ) ;
#428 = CARTESIAN_POINT ( 'NONE',  ( 13.62866123295638410, 23.50488164394491619, 27.45484738392383406 ) ) ;
#429 = CARTESIAN_POINT ( 'NONE',  ( 29.98666444833720846, 50.64888593114520887, 55.29981621913109535 ) ) ;
#430 = CALENDAR_DATE ( 2026, 26, 7 ) ;
#431 = APPROVAL_PERSON_ORGANIZATION ( #158, #385, #243 ) ;
#432 = CARTESIAN_POINT ( 'NONE',  ( 12.53564647236783891, 6.047528629817162660, 30.62483704473247315 ) ) ;
#433 = CARTESIAN_POINT ( 'NONE',  ( 0.5939766908155429403, -4.541364412249771831, 47.14063414261473639 ) ) ;
#434 = CARTESIAN_POINT ( 'NONE',  ( 30.19815136133168920, 29.59753514839406563, 45.69993384090669508 ) ) ;
#435 = CARTESIAN_POINT ( 'NONE',  ( 134.9807019936325787, 153.3076026581768190, 7.126737373941180564 ) ) ;
#436 = CARTESIAN_POINT ( 'NONE',  ( 7.975000312527350310, -0.03333291659037611321, 8.020963967573457865 ) ) ;
#437 = CARTESIAN_POINT ( 'NONE',  ( -8.000000000000001776, -15.99999999999999822, 0.000000000000000000 ) ) ;
#438 = CARTESIAN_POINT ( 'NONE',  ( -7.999999999999999112, 15.99999999999999822, 0.000000000000000000 ) ) ;
#439 = EDGE_CURVE ( 'NONE', #51, #338, #348, .T. ) ;
#440 = CARTESIAN_POINT ( 'NONE',  ( 85.11211580821398570, 140.1494877426409573, 9.585830787358293748 ) ) ;
#441 = CARTESIAN_POINT ( 'NONE',  ( 0.03050027099927720212, 26.70733369467228613, 35.29140256624436489 ) ) ;
#442 = CARTESIAN_POINT ( 'NONE',  ( 29.98666444833720846, 50.64888593114520887, 55.29981621913109535 ) ) ;
#443 = CARTESIAN_POINT ( 'NONE',  ( 97.06862800539937552, 102.7581706735603433, 36.85653947448752632 ) ) ;
#444 = CARTESIAN_POINT ( 'NONE',  ( 75.76902188857023646, 106.3586958511214533, 13.18577978529456729 ) ) ;
#445 = CARTESIAN_POINT ( 'NONE',  ( 30.19815136133168920, 29.59753514839406563, 45.69993384090669508 ) ) ;
#446 = CARTESIAN_POINT ( 'NONE',  ( 54.00812242782770767, 45.34416323717128705, 57.36748728223793847 ) ) ;
#447 = DIRECTION ( 'NONE',  ( 1.000000000000000000, 0.000000000000000000, -0.000000000000000000 ) ) ;
#448 = CARTESIAN_POINT ( 'NONE',  ( 48.07777283059413520, 37.43703044081147624, 58.49844371159103673 ) ) ;
#449 = CARTESIAN_POINT ( 'NONE',  ( 86.41882494698479888, 104.5584332623408983, 25.02115962989104503 ) ) ;
#450 = VERTEX_POINT ( 'NONE', #135 ) ;
#451 = LOCAL_TIME ( 23, 45, 39.00000000000000000, #466 ) ;
#452 = CARTESIAN_POINT ( 'NONE',  ( 57.38125796932697398, 65.84167729237445599, 40.59112718871261194 ) ) ;
#453 = PERSON_AND_ORGANIZATION_ROLE ( 'creator' ) ;
#454 = CC_DESIGN_PERSON_AND_ORGANIZATION_ASSIGNMENT ( #267, #148, ( #413 ) ) ;
#455 = CARTESIAN_POINT ( 'NONE',  ( 16.83111328368111614, 11.77481771157833457, 37.90358762702315687 ) ) ;
#456 = CARTESIAN_POINT ( 'NONE',  ( -7.464560269667361858, 16.71391964044446965, 14.27867044675795150 ) ) ;
#457 = CARTESIAN_POINT ( 'NONE',  ( 26.13644706848941723, 24.18192942461067929, 44.69016063004134054 ) ) ;
#458 = CARTESIAN_POINT ( 'NONE',  ( 16.30302638088395284, 27.07070184119478995, 29.96209214184714753 ) ) ;
#459 = CARTESIAN_POINT ( 'NONE',  ( 8.651449538125369543, 22.20193271751573505, 50.74737446885003322 ) ) ;
#460 = ORIENTED_EDGE ( 'NONE', *, *, #296, .F. ) ;
#461 = EDGE_CURVE ( 'NONE', #338, #51, #307, .T. ) ;
#462 = CARTESIAN_POINT ( 'NONE',  ( 38.97501216240527100, 78.63334954986139280, 37.49103664560695393 ) ) ;
#463 = DATE_TIME_ROLE ( 'creation_date' ) ;
#464 = ORIENTED_EDGE ( 'NONE', *, *, #461, .F. ) ;
#465 = CARTESIAN_POINT ( 'NONE',  ( 26.94813124394516990, 62.59750832527253550, 41.53201788782885018 ) ) ;
#466 = COORDINATED_UNIVERSAL_TIME_OFFSET ( 8, 0, .AHEAD. ) ;
#467 = CARTESIAN_POINT ( 'NONE',  ( 39.71333930155196867, 42.28445240211748057, 45.70393374172234502 ) ) ;
#468 = CARTESIAN_POINT ( 'NONE',  ( 44.64411713818676475, 54.19215618423673675, 66.86876891888337582 ) ) ;
#469 = DATE_AND_TIME ( #430, #451 ) ;
#470 = CARTESIAN_POINT ( 'NONE',  ( -5.369525464103231727, 3.507299381196175236, 27.05971235556290466 ) ) ;
#471 = CARTESIAN_POINT ( 'NONE',  ( 10.90740287775031092, 3.876537170340367044, 26.01081064880838767 ) ) ;
#472 = CARTESIAN_POINT ( 'NONE',  ( 30.19815136133168920, 29.59753514839406563, 45.69993384090669508 ) ) ;
#473 = CC_DESIGN_DATE_AND_TIME_ASSIGNMENT ( #349, #463, ( #374 ) ) ;
#474 = CARTESIAN_POINT ( 'NONE',  ( 0.03050027099927720212, 26.70733369467228613, 35.29140256624436489 ) ) ;
#475 = CARTESIAN_POINT ( 'NONE',  ( 14.81980660332667732, 30.42640880440512063, 54.20934453997707436 ) ) ;
#476 = AXIS2_PLACEMENT_3D ( 'NONE', #400, #366, #286 ) ;
#477 = CARTESIAN_POINT ( 'NONE',  ( -7.396262900717249344, 0.8049827990427107505, 16.68373522214897164 ) ) ;
#478 = CARTESIAN_POINT ( 'NONE',  ( -5.286100067015820692, 19.61853324397537435, 24.58850169625262438 ) ) ;
#479 = CARTESIAN_POINT ( 'NONE',  ( 15.62280043745797720, 10.16373391660893155, 36.31024695777271205 ) ) ;
#480 = ADVANCED_FACE ( 'NONE', ( #407 ), #69, .T. ) ;
#481 = CARTESIAN_POINT ( 'NONE',  ( 31.34890577250979504, 47.13187436342350622, 32.90942377185366041 ) ) ;
ENDSEC;
END-ISO-10303-21;
