ISO-10303-21;
HEADER;
FILE_DESCRIPTION (( 'STEP AP203' ),
    '1' );
FILE_NAME ('FN-GNS-003_BTM87SF-envelope_D78x24_PENDING_R0.6.STEP',
    '2026-07-26T15:42:36',
    ( '' ),
    ( '' ),
    'SwSTEP 2.0',
    'SolidWorks 2022',
    '' );
FILE_SCHEMA (( 'CONFIG_CONTROL_DESIGN' ));
ENDSEC;

DATA;
#1 = EDGE_LOOP ( 'NONE', ( #49, #104, #134, #111 ) ) ;
#2 = CC_DESIGN_PERSON_AND_ORGANIZATION_ASSIGNMENT ( #137, #42, ( #73 ) ) ;
#3 = ADVANCED_FACE ( 'NONE', ( #68 ), #40, .T. ) ;
#4 = DATE_TIME_ROLE ( 'creation_date' ) ;
#5 = PERSON_AND_ORGANIZATION_ROLE ( 'creator' ) ;
#6 = PERSON_AND_ORGANIZATION ( #50, #150 ) ;
#7 = APPROVAL_PERSON_ORGANIZATION ( #163, #95, #151 ) ;
#8 = DIRECTION ( 'NONE',  ( 0.000000000000000000, 0.000000000000000000, 1.000000000000000000 ) ) ;
#9 = AXIS2_PLACEMENT_3D ( 'NONE', #53, #96, #159 ) ;
#10 = ADVANCED_BREP_SHAPE_REPRESENTATION ( 'FN-GNS-003_BTM87SF-envelope_D78x24_PENDING_R0.6', ( #110, #118 ), #136 ) ;
#11 = ORIENTED_EDGE ( 'NONE', *, *, #97, .T. ) ;
#12 = PRODUCT_RELATED_PRODUCT_CATEGORY ( 'detail', '', ( #73 ) ) ;
#13 = ORIENTED_EDGE ( 'NONE', *, *, #36, .F. ) ;
#14 = DIRECTION ( 'NONE',  ( 0.000000000000000000, 1.000000000000000000, 0.000000000000000000 ) ) ;
#15 = DIRECTION ( 'NONE',  ( 0.000000000000000000, 0.000000000000000000, 1.000000000000000000 ) ) ;
#16 = CLOSED_SHELL ( 'NONE', ( #141, #74, #3, #154 ) ) ;
#17 = CARTESIAN_POINT ( 'NONE',  ( 4.776122516674677878E-15, 0.000000000000000000, 39.00000000000000000 ) ) ;
#18 = APPROVAL ( #114, '未指定' ) ;
#19 = PERSON_AND_ORGANIZATION ( #50, #150 ) ;
#20 = PERSON_AND_ORGANIZATION ( #50, #150 ) ;
#21 = COORDINATED_UNIVERSAL_TIME_OFFSET ( 8, 0, .AHEAD. ) ;
#22 = APPLICATION_PROTOCOL_DEFINITION ( 'international standard', 'config_control_design', 1994, #80 ) ;
#23 = CC_DESIGN_SECURITY_CLASSIFICATION ( #113, ( #142 ) ) ;
#24 = EDGE_LOOP ( 'NONE', ( #28, #124, #54, #161 ) ) ;
#25 = CC_DESIGN_APPROVAL ( #95, ( #142 ) ) ;
#26 = FACE_OUTER_BOUND ( 'NONE', #1, .T. ) ;
#27 = CARTESIAN_POINT ( 'NONE',  ( 4.776122516674677878E-15, 24.00000000000000000, 39.00000000000000000 ) ) ;
#28 = ORIENTED_EDGE ( 'NONE', *, *, #170, .F. ) ;
#29 = CALENDAR_DATE ( 2026, 26, 7 ) ;
#30 = COORDINATED_UNIVERSAL_TIME_OFFSET ( 8, 0, .AHEAD. ) ;
#31 = APPROVAL_DATE_TIME ( #127, #89 ) ;
#32 =( NAMED_UNIT ( * ) SI_UNIT ( $, .STERADIAN. ) SOLID_ANGLE_UNIT ( ) );
#33 = DATE_AND_TIME ( #112, #94 ) ;
#34 = APPROVAL_PERSON_ORGANIZATION ( #6, #18, #125 ) ;
#35 = CC_DESIGN_DATE_AND_TIME_ASSIGNMENT ( #33, #87, ( #113 ) ) ;
#36 = EDGE_CURVE ( 'NONE', #69, #75, #46, .T. ) ;
#37 = CARTESIAN_POINT ( 'NONE',  ( 4.776122516674677878E-15, 24.00000000000000000, 39.00000000000000000 ) ) ;
#38 = CARTESIAN_POINT ( 'NONE',  ( 0.000000000000000000, 24.00000000000000000, 0.000000000000000000 ) ) ;
#39 = PLANE ( 'NONE',  #9 ) ;
#40 = PLANE ( 'NONE',  #138 ) ;
#41 = CARTESIAN_POINT ( 'NONE',  ( 0.000000000000000000, 24.00000000000000000, 0.000000000000000000 ) ) ;
#42 = PERSON_AND_ORGANIZATION_ROLE ( 'design_owner' ) ;
#43 = APPROVAL_ROLE ( '' ) ;
#44 = LOCAL_TIME ( 23, 42, 36.00000000000000000, #30 ) ;
#45 = PERSON_AND_ORGANIZATION ( #50, #150 ) ;
#46 = CIRCLE ( 'NONE', #108, 39.00000000000000000 ) ;
#47 = SECURITY_CLASSIFICATION_LEVEL ( 'unclassified' ) ;
#48 = CC_DESIGN_DATE_AND_TIME_ASSIGNMENT ( #164, #4, ( #144 ) ) ;
#49 = ORIENTED_EDGE ( 'NONE', *, *, #97, .F. ) ;
#50 = PERSON ( '未指定', '未指定', '未指定', ('未指定'), ('未指定'), ('未指定') ) ;
#51 = DIRECTION ( 'NONE',  ( 0.000000000000000000, 1.000000000000000000, 0.000000000000000000 ) ) ;
#52 = CIRCLE ( 'NONE', #72, 39.00000000000000000 ) ;
#53 = CARTESIAN_POINT ( 'NONE',  ( 0.000000000000000000, 0.000000000000000000, 0.000000000000000000 ) ) ;
#54 = ORIENTED_EDGE ( 'NONE', *, *, #117, .T. ) ;
#55 = CYLINDRICAL_SURFACE ( 'NONE', #129, 39.00000000000000000 ) ;
#56 = PERSON_AND_ORGANIZATION_ROLE ( 'creator' ) ;
#57 = LOCAL_TIME ( 23, 42, 36.00000000000000000, #71 ) ;
#58 = CALENDAR_DATE ( 2026, 26, 7 ) ;
#59 = DATE_AND_TIME ( #29, #67 ) ;
#60 = EDGE_CURVE ( 'NONE', #92, #62, #61, .T. ) ;
#61 = CIRCLE ( 'NONE', #143, 39.00000000000000000 ) ;
#62 = VERTEX_POINT ( 'NONE', #37 ) ;
#63 = CC_DESIGN_PERSON_AND_ORGANIZATION_ASSIGNMENT ( #84, #102, ( #113 ) ) ;
#64 = EDGE_LOOP ( 'NONE', ( #88, #13 ) ) ;
#65 = CYLINDRICAL_SURFACE ( 'NONE', #83, 39.00000000000000000 ) ;
#66 = DIRECTION ( 'NONE',  ( -0.000000000000000000, -1.000000000000000000, -0.000000000000000000 ) ) ;
#67 = LOCAL_TIME ( 23, 42, 36.00000000000000000, #99 ) ;
#68 = FACE_OUTER_BOUND ( 'NONE', #131, .T. ) ;
#69 = VERTEX_POINT ( 'NONE', #17 ) ;
#70 = DIRECTION ( 'NONE',  ( 1.000000000000000000, 0.000000000000000000, 0.000000000000000000 ) ) ;
#71 = COORDINATED_UNIVERSAL_TIME_OFFSET ( 8, 0, .AHEAD. ) ;
#72 = AXIS2_PLACEMENT_3D ( 'NONE', #149, #123, #130 ) ;
#73 = PRODUCT ( 'FN-GNS-003_BTM87SF-envelope_D78x24_PENDING_R0.6', 'FN-GNS-003_BTM87SF-envelope_D78x24_PENDING_R0.6', '', ( #152 ) ) ;
#74 = ADVANCED_FACE ( 'NONE', ( #146 ), #55, .T. ) ;
#75 = VERTEX_POINT ( 'NONE', #121 ) ;
#76 = EDGE_CURVE ( 'NONE', #75, #69, #52, .T. ) ;
#77 =( LENGTH_UNIT ( ) NAMED_UNIT ( * ) SI_UNIT ( .MILLI., .METRE. ) );
#78 = DESIGN_CONTEXT ( 'detailed design', #119, 'design' ) ;
#79 = DIRECTION ( 'NONE',  ( -0.000000000000000000, -1.000000000000000000, -0.000000000000000000 ) ) ;
#80 = APPLICATION_CONTEXT ( 'configuration controlled 3d designs of mechanical parts and assemblies' ) ;
#81 = CARTESIAN_POINT ( 'NONE',  ( 0.000000000000000000, 24.00000000000000000, -39.00000000000000000 ) ) ;
#82 = PERSON_AND_ORGANIZATION_ROLE ( 'design_supplier' ) ;
#83 = AXIS2_PLACEMENT_3D ( 'NONE', #160, #79, #107 ) ;
#84 = PERSON_AND_ORGANIZATION ( #50, #150 ) ;
#85 = APPROVAL_STATUS ( 'not_yet_approved' ) ;
#86 = APPROVAL_STATUS ( 'not_yet_approved' ) ;
#87 = DATE_TIME_ROLE ( 'classification_date' ) ;
#88 = ORIENTED_EDGE ( 'NONE', *, *, #76, .F. ) ;
#89 = APPROVAL ( #85, '未指定' ) ;
#90 = ORIENTED_EDGE ( 'NONE', *, *, #60, .T. ) ;
#91 = LINE ( 'NONE', #27, #105 ) ;
#92 = VERTEX_POINT ( 'NONE', #81 ) ;
#93 = DIRECTION ( 'NONE',  ( 0.000000000000000000, 1.000000000000000000, 0.000000000000000000 ) ) ;
#94 = LOCAL_TIME ( 23, 42, 36.00000000000000000, #153 ) ;
#95 = APPROVAL ( #86, '未指定' ) ;
#96 = DIRECTION ( 'NONE',  ( 0.000000000000000000, 1.000000000000000000, 0.000000000000000000 ) ) ;
#97 = EDGE_CURVE ( 'NONE', #62, #92, #100, .T. ) ;
#98 = APPLICATION_PROTOCOL_DEFINITION ( 'international standard', 'config_control_design', 1994, #119 ) ;
#99 = COORDINATED_UNIVERSAL_TIME_OFFSET ( 8, 0, .AHEAD. ) ;
#100 = CIRCLE ( 'NONE', #173, 39.00000000000000000 ) ;
#101 = PERSON_AND_ORGANIZATION ( #50, #150 ) ;
#102 = PERSON_AND_ORGANIZATION_ROLE ( 'classification_officer' ) ;
#103 = APPROVAL_DATE_TIME ( #166, #18 ) ;
#104 = ORIENTED_EDGE ( 'NONE', *, *, #170, .T. ) ;
#105 = VECTOR ( 'NONE', #66, 1000.000000000000000 ) ;
#106 = CARTESIAN_POINT ( 'NONE',  ( 0.000000000000000000, 0.000000000000000000, 0.000000000000000000 ) ) ;
#107 = DIRECTION ( 'NONE',  ( 0.000000000000000000, 0.000000000000000000, -1.000000000000000000 ) ) ;
#108 = AXIS2_PLACEMENT_3D ( 'NONE', #106, #14, #158 ) ;
#109 = DIRECTION ( 'NONE',  ( -0.000000000000000000, -1.000000000000000000, -0.000000000000000000 ) ) ;
#110 = MANIFOLD_SOLID_BREP ( '凸台-拉伸1', #16 ) ;
#111 = ORIENTED_EDGE ( 'NONE', *, *, #117, .F. ) ;
#112 = CALENDAR_DATE ( 2026, 26, 7 ) ;
#113 = SECURITY_CLASSIFICATION ( '', '', #47 ) ;
#114 = APPROVAL_STATUS ( 'not_yet_approved' ) ;
#115 = PRODUCT_DEFINITION_SHAPE ( 'NONE', 'NONE',  #144 ) ;
#116 = CC_DESIGN_PERSON_AND_ORGANIZATION_ASSIGNMENT ( #101, #5, ( #144 ) ) ;
#117 = EDGE_CURVE ( 'NONE', #92, #75, #169, .T. ) ;
#118 = AXIS2_PLACEMENT_3D ( 'NONE', #126, #8, #70 ) ;
#119 = APPLICATION_CONTEXT ( 'configuration controlled 3d designs of mechanical parts and assemblies' ) ;
#120 = DIRECTION ( 'NONE',  ( -0.000000000000000000, -1.000000000000000000, -0.000000000000000000 ) ) ;
#121 = CARTESIAN_POINT ( 'NONE',  ( 0.000000000000000000, 0.000000000000000000, -39.00000000000000000 ) ) ;
#122 = DIRECTION ( 'NONE',  ( 0.000000000000000000, -0.000000000000000000, 1.000000000000000000 ) ) ;
#123 = DIRECTION ( 'NONE',  ( 0.000000000000000000, 1.000000000000000000, 0.000000000000000000 ) ) ;
#124 = ORIENTED_EDGE ( 'NONE', *, *, #60, .F. ) ;
#125 = APPROVAL_ROLE ( '' ) ;
#126 = CARTESIAN_POINT ( 'NONE',  ( 0.000000000000000000, 0.000000000000000000, 0.000000000000000000 ) ) ;
#127 = DATE_AND_TIME ( #140, #57 ) ;
#128 = CC_DESIGN_PERSON_AND_ORGANIZATION_ASSIGNMENT ( #20, #82, ( #142 ) ) ;
#129 = AXIS2_PLACEMENT_3D ( 'NONE', #174, #120, #147 ) ;
#130 = DIRECTION ( 'NONE',  ( 0.000000000000000000, 0.000000000000000000, 1.000000000000000000 ) ) ;
#131 = EDGE_LOOP ( 'NONE', ( #90, #11 ) ) ;
#132 = DIRECTION ( 'NONE',  ( 0.000000000000000000, 1.000000000000000000, 0.000000000000000000 ) ) ;
#133 = LOCAL_TIME ( 23, 42, 36.00000000000000000, #21 ) ;
#134 = ORIENTED_EDGE ( 'NONE', *, *, #36, .T. ) ;
#135 = FACE_OUTER_BOUND ( 'NONE', #64, .T. ) ;
#136 =( GEOMETRIC_REPRESENTATION_CONTEXT ( 3 ) GLOBAL_UNCERTAINTY_ASSIGNED_CONTEXT ( ( #172 ) ) GLOBAL_UNIT_ASSIGNED_CONTEXT ( ( #77, #175, #32 ) ) REPRESENTATION_CONTEXT ( 'NONE', 'WORKASPACE' ) );
#137 = PERSON_AND_ORGANIZATION ( #50, #150 ) ;
#138 = AXIS2_PLACEMENT_3D ( 'NONE', #41, #93, #122 ) ;
#139 = SHAPE_DEFINITION_REPRESENTATION ( #115, #10 ) ;
#140 = CALENDAR_DATE ( 2026, 26, 7 ) ;
#141 = ADVANCED_FACE ( 'NONE', ( #26 ), #65, .T. ) ;
#142 = PRODUCT_DEFINITION_FORMATION_WITH_SPECIFIED_SOURCE ( '任何', '', #73, .NOT_KNOWN. ) ;
#143 = AXIS2_PLACEMENT_3D ( 'NONE', #171, #132, #15 ) ;
#144 = PRODUCT_DEFINITION ( '未知', '', #142, #78 ) ;
#145 = CARTESIAN_POINT ( 'NONE',  ( 0.000000000000000000, 24.00000000000000000, -39.00000000000000000 ) ) ;
#146 = FACE_OUTER_BOUND ( 'NONE', #24, .T. ) ;
#147 = DIRECTION ( 'NONE',  ( 0.000000000000000000, 0.000000000000000000, -1.000000000000000000 ) ) ;
#148 = CC_DESIGN_APPROVAL ( #89, ( #113 ) ) ;
#149 = CARTESIAN_POINT ( 'NONE',  ( 0.000000000000000000, 0.000000000000000000, 0.000000000000000000 ) ) ;
#150 = ORGANIZATION ( '未指定', '未指定', '' ) ;
#151 = APPROVAL_ROLE ( '' ) ;
#152 = MECHANICAL_CONTEXT ( 'NONE', #80, 'mechanical' ) ;
#153 = COORDINATED_UNIVERSAL_TIME_OFFSET ( 8, 0, .AHEAD. ) ;
#154 = ADVANCED_FACE ( 'NONE', ( #135 ), #39, .F. ) ;
#155 = CC_DESIGN_APPROVAL ( #18, ( #144 ) ) ;
#156 = CC_DESIGN_PERSON_AND_ORGANIZATION_ASSIGNMENT ( #19, #56, ( #142 ) ) ;
#157 = VECTOR ( 'NONE', #109, 1000.000000000000000 ) ;
#158 = DIRECTION ( 'NONE',  ( 0.000000000000000000, 0.000000000000000000, 1.000000000000000000 ) ) ;
#159 = DIRECTION ( 'NONE',  ( 0.000000000000000000, -0.000000000000000000, 1.000000000000000000 ) ) ;
#160 = CARTESIAN_POINT ( 'NONE',  ( 0.000000000000000000, 24.00000000000000000, 0.000000000000000000 ) ) ;
#161 = ORIENTED_EDGE ( 'NONE', *, *, #76, .T. ) ;
#162 = DIRECTION ( 'NONE',  ( 0.000000000000000000, 0.000000000000000000, 1.000000000000000000 ) ) ;
#163 = PERSON_AND_ORGANIZATION ( #50, #150 ) ;
#164 = DATE_AND_TIME ( #165, #133 ) ;
#165 = CALENDAR_DATE ( 2026, 26, 7 ) ;
#166 = DATE_AND_TIME ( #58, #44 ) ;
#167 = APPROVAL_DATE_TIME ( #59, #95 ) ;
#168 = APPROVAL_PERSON_ORGANIZATION ( #45, #89, #43 ) ;
#169 = LINE ( 'NONE', #145, #157 ) ;
#170 = EDGE_CURVE ( 'NONE', #62, #69, #91, .T. ) ;
#171 = CARTESIAN_POINT ( 'NONE',  ( 0.000000000000000000, 24.00000000000000000, 0.000000000000000000 ) ) ;
#172 = UNCERTAINTY_MEASURE_WITH_UNIT (LENGTH_MEASURE( 1.000000000000000082E-05 ), #77, 'distance_accuracy_value', 'NONE');
#173 = AXIS2_PLACEMENT_3D ( 'NONE', #38, #51, #162 ) ;
#174 = CARTESIAN_POINT ( 'NONE',  ( 0.000000000000000000, 24.00000000000000000, 0.000000000000000000 ) ) ;
#175 =( NAMED_UNIT ( * ) PLANE_ANGLE_UNIT ( ) SI_UNIT ( $, .RADIAN. ) );
ENDSEC;
END-ISO-10303-21;
