ISO-10303-21;
HEADER;
FILE_DESCRIPTION (( 'STEP AP203' ),
    '1' );
FILE_NAME ('FN-GNS-002_mast-platform-120x120x6_CONCEPT_R0.6.STEP',
    '2026-07-26T15:42:30',
    ( '' ),
    ( '' ),
    'SwSTEP 2.0',
    'SolidWorks 2022',
    '' );
FILE_SCHEMA (( 'CONFIG_CONTROL_DESIGN' ));
ENDSEC;

DATA;
#1 = CARTESIAN_POINT ( 'NONE',  ( -60.00000000000000000, 6.000000000000000000, 60.00000000000000000 ) ) ;
#2 =( NAMED_UNIT ( * ) SI_UNIT ( $, .STERADIAN. ) SOLID_ANGLE_UNIT ( ) );
#3 = LINE ( 'NONE', #187, #61 ) ;
#4 = CARTESIAN_POINT ( 'NONE',  ( -60.00000000000000000, 0.000000000000000000, -60.00000000000000000 ) ) ;
#5 = DIRECTION ( 'NONE',  ( 0.000000000000000000, 0.000000000000000000, 1.000000000000000000 ) ) ;
#6 = PRODUCT_DEFINITION ( '未知', '', #16, #82 ) ;
#7 = ORIENTED_EDGE ( 'NONE', *, *, #191, .T. ) ;
#8 = EDGE_CURVE ( 'NONE', #225, #201, #75, .T. ) ;
#9 = CALENDAR_DATE ( 2026, 26, 7 ) ;
#10 = VERTEX_POINT ( 'NONE', #214 ) ;
#11 = ORIENTED_EDGE ( 'NONE', *, *, #51, .T. ) ;
#12 = EDGE_CURVE ( 'NONE', #122, #143, #196, .T. ) ;
#13 = AXIS2_PLACEMENT_3D ( 'NONE', #1, #150, #60 ) ;
#14 = ORIENTED_EDGE ( 'NONE', *, *, #12, .T. ) ;
#15 = CALENDAR_DATE ( 2026, 26, 7 ) ;
#16 = PRODUCT_DEFINITION_FORMATION_WITH_SPECIFIED_SOURCE ( '任何', '', #65, .NOT_KNOWN. ) ;
#17 = EDGE_LOOP ( 'NONE', ( #11, #84, #164, #7 ) ) ;
#18 = MECHANICAL_CONTEXT ( 'NONE', #207, 'mechanical' ) ;
#19 = DIRECTION ( 'NONE',  ( -0.000000000000000000, -1.000000000000000000, -0.000000000000000000 ) ) ;
#20 = LINE ( 'NONE', #4, #190 ) ;
#21 = DIRECTION ( 'NONE',  ( -1.000000000000000000, 0.000000000000000000, 0.000000000000000000 ) ) ;
#22 = VECTOR ( 'NONE', #236, 1000.000000000000000 ) ;
#23 = PLANE ( 'NONE',  #101 ) ;
#24 = CARTESIAN_POINT ( 'NONE',  ( -60.00000000000000000, 0.000000000000000000, 60.00000000000000000 ) ) ;
#25 =( NAMED_UNIT ( * ) PLANE_ANGLE_UNIT ( ) SI_UNIT ( $, .RADIAN. ) );
#26 = VECTOR ( 'NONE', #56, 1000.000000000000000 ) ;
#27 = SECURITY_CLASSIFICATION ( '', '', #142 ) ;
#28 = ORIENTED_EDGE ( 'NONE', *, *, #191, .F. ) ;
#29 = PERSON_AND_ORGANIZATION ( #227, #121 ) ;
#30 = DIRECTION ( 'NONE',  ( 1.000000000000000000, 0.000000000000000000, -0.000000000000000000 ) ) ;
#31 = DATE_TIME_ROLE ( 'classification_date' ) ;
#32 = FACE_OUTER_BOUND ( 'NONE', #156, .T. ) ;
#33 = CARTESIAN_POINT ( 'NONE',  ( -60.00000000000000000, 6.000000000000000000, 60.00000000000000000 ) ) ;
#34 = CC_DESIGN_PERSON_AND_ORGANIZATION_ASSIGNMENT ( #47, #127, ( #6 ) ) ;
#35 = ORIENTED_EDGE ( 'NONE', *, *, #233, .F. ) ;
#36 = LOCAL_TIME ( 23, 42, 30.00000000000000000, #103 ) ;
#37 = ORIENTED_EDGE ( 'NONE', *, *, #229, .F. ) ;
#38 = PLANE ( 'NONE',  #13 ) ;
#39 = ADVANCED_FACE ( 'NONE', ( #92 ), #181, .F. ) ;
#40 = DIRECTION ( 'NONE',  ( 0.000000000000000000, 0.000000000000000000, 1.000000000000000000 ) ) ;
#41 = LINE ( 'NONE', #98, #26 ) ;
#42 = PRODUCT_RELATED_PRODUCT_CATEGORY ( 'detail', '', ( #65 ) ) ;
#43 = CC_DESIGN_APPROVAL ( #204, ( #16 ) ) ;
#44 = DATE_AND_TIME ( #9, #133 ) ;
#45 = DIRECTION ( 'NONE',  ( 0.000000000000000000, 0.000000000000000000, -1.000000000000000000 ) ) ;
#46 = CC_DESIGN_APPROVAL ( #226, ( #6 ) ) ;
#47 = PERSON_AND_ORGANIZATION ( #227, #121 ) ;
#48 = ORIENTED_EDGE ( 'NONE', *, *, #59, .F. ) ;
#49 = DIRECTION ( 'NONE',  ( 0.000000000000000000, -1.000000000000000000, 0.000000000000000000 ) ) ;
#50 = APPROVAL_STATUS ( 'not_yet_approved' ) ;
#51 = EDGE_CURVE ( 'NONE', #130, #158, #167, .T. ) ;
#52 = ORIENTED_EDGE ( 'NONE', *, *, #70, .F. ) ;
#53 = APPLICATION_PROTOCOL_DEFINITION ( 'international standard', 'config_control_design', 1994, #207 ) ;
#54 = VERTEX_POINT ( 'NONE', #228 ) ;
#55 = CC_DESIGN_APPROVAL ( #147, ( #27 ) ) ;
#56 = DIRECTION ( 'NONE',  ( -0.000000000000000000, -1.000000000000000000, -0.000000000000000000 ) ) ;
#57 = VECTOR ( 'NONE', #71, 1000.000000000000000 ) ;
#58 = CARTESIAN_POINT ( 'NONE',  ( 60.00000000000000000, 6.000000000000000000, 60.00000000000000000 ) ) ;
#59 = EDGE_CURVE ( 'NONE', #122, #225, #237, .T. ) ;
#60 = DIRECTION ( 'NONE',  ( -1.000000000000000000, 0.000000000000000000, -0.000000000000000000 ) ) ;
#61 = VECTOR ( 'NONE', #80, 1000.000000000000000 ) ;
#62 = FACE_OUTER_BOUND ( 'NONE', #128, .T. ) ;
#63 = FACE_OUTER_BOUND ( 'NONE', #139, .T. ) ;
#64 = CC_DESIGN_DATE_AND_TIME_ASSIGNMENT ( #86, #31, ( #27 ) ) ;
#65 = PRODUCT ( 'FN-GNS-002_mast-platform-120x120x6_CONCEPT_R0.6', 'FN-GNS-002_mast-platform-120x120x6_CONCEPT_R0.6', '', ( #18 ) ) ;
#66 = AXIS2_PLACEMENT_3D ( 'NONE', #194, #90, #30 ) ;
#67 = CALENDAR_DATE ( 2026, 26, 7 ) ;
#68 = PERSON_AND_ORGANIZATION_ROLE ( 'creator' ) ;
#69 = LINE ( 'NONE', #108, #230 ) ;
#70 = EDGE_CURVE ( 'NONE', #158, #10, #69, .T. ) ;
#71 = DIRECTION ( 'NONE',  ( 1.000000000000000000, 0.000000000000000000, 0.000000000000000000 ) ) ;
#72 = ORIENTED_EDGE ( 'NONE', *, *, #70, .T. ) ;
#73 = CALENDAR_DATE ( 2026, 26, 7 ) ;
#74 = ORIENTED_EDGE ( 'NONE', *, *, #173, .T. ) ;
#75 = LINE ( 'NONE', #149, #57 ) ;
#76 = PRODUCT_DEFINITION_SHAPE ( 'NONE', 'NONE',  #6 ) ;
#77 = DIRECTION ( 'NONE',  ( 0.000000000000000000, -0.000000000000000000, -1.000000000000000000 ) ) ;
#78 = EDGE_CURVE ( 'NONE', #54, #122, #141, .T. ) ;
#79 = DIRECTION ( 'NONE',  ( 0.000000000000000000, 0.000000000000000000, -1.000000000000000000 ) ) ;
#80 = DIRECTION ( 'NONE',  ( -0.000000000000000000, -1.000000000000000000, -0.000000000000000000 ) ) ;
#81 = ADVANCED_FACE ( 'NONE', ( #32 ), #106, .F. ) ;
#82 = DESIGN_CONTEXT ( 'detailed design', #220, 'design' ) ;
#83 = APPROVAL_DATE_TIME ( #44, #147 ) ;
#84 = ORIENTED_EDGE ( 'NONE', *, *, #173, .F. ) ;
#85 = ORIENTED_EDGE ( 'NONE', *, *, #12, .F. ) ;
#86 = DATE_AND_TIME ( #168, #224 ) ;
#87 = AXIS2_PLACEMENT_3D ( 'NONE', #231, #49, #180 ) ;
#88 = ORIENTED_EDGE ( 'NONE', *, *, #78, .T. ) ;
#89 = PERSON_AND_ORGANIZATION_ROLE ( 'classification_officer' ) ;
#90 = DIRECTION ( 'NONE',  ( 0.000000000000000000, 0.000000000000000000, 1.000000000000000000 ) ) ;
#91 = DATE_TIME_ROLE ( 'creation_date' ) ;
#92 = FACE_OUTER_BOUND ( 'NONE', #111, .T. ) ;
#93 =( GEOMETRIC_REPRESENTATION_CONTEXT ( 3 ) GLOBAL_UNCERTAINTY_ASSIGNED_CONTEXT ( ( #183 ) ) GLOBAL_UNIT_ASSIGNED_CONTEXT ( ( #219, #25, #2 ) ) REPRESENTATION_CONTEXT ( 'NONE', 'WORKASPACE' ) );
#94 = ADVANCED_BREP_SHAPE_REPRESENTATION ( 'FN-GNS-002_mast-platform-120x120x6_CONCEPT_R0.6', ( #208, #169 ), #93 ) ;
#95 = DIRECTION ( 'NONE',  ( -0.000000000000000000, -0.000000000000000000, 1.000000000000000000 ) ) ;
#96 = CARTESIAN_POINT ( 'NONE',  ( 60.00000000000000000, 0.000000000000000000, 60.00000000000000000 ) ) ;
#97 = CC_DESIGN_PERSON_AND_ORGANIZATION_ASSIGNMENT ( #157, #107, ( #65 ) ) ;
#98 = CARTESIAN_POINT ( 'NONE',  ( 60.00000000000000000, 6.000000000000000000, 60.00000000000000000 ) ) ;
#99 = APPROVAL_PERSON_ORGANIZATION ( #212, #204, #195 ) ;
#100 = CARTESIAN_POINT ( 'NONE',  ( 0.000000000000000000, 0.000000000000000000, 0.000000000000000000 ) ) ;
#101 = AXIS2_PLACEMENT_3D ( 'NONE', #58, #21, #40 ) ;
#102 = CC_DESIGN_PERSON_AND_ORGANIZATION_ASSIGNMENT ( #198, #89, ( #27 ) ) ;
#103 = COORDINATED_UNIVERSAL_TIME_OFFSET ( 8, 0, .AHEAD. ) ;
#104 = ORIENTED_EDGE ( 'NONE', *, *, #209, .F. ) ;
#105 = ADVANCED_FACE ( 'NONE', ( #222 ), #38, .F. ) ;
#106 = PLANE ( 'NONE',  #87 ) ;
#107 = PERSON_AND_ORGANIZATION_ROLE ( 'design_owner' ) ;
#108 = CARTESIAN_POINT ( 'NONE',  ( 60.00000000000000000, 0.000000000000000000, 60.00000000000000000 ) ) ;
#109 = ADVANCED_FACE ( 'NONE', ( #63 ), #154, .F. ) ;
#110 = PERSON_AND_ORGANIZATION ( #227, #121 ) ;
#111 = EDGE_LOOP ( 'NONE', ( #197, #85, #161, #145 ) ) ;
#112 = DIRECTION ( 'NONE',  ( 1.000000000000000000, -0.000000000000000000, 0.000000000000000000 ) ) ;
#113 = CARTESIAN_POINT ( 'NONE',  ( -60.00000000000000000, 6.000000000000000000, 60.00000000000000000 ) ) ;
#114 = DIRECTION ( 'NONE',  ( 0.000000000000000000, 0.000000000000000000, -1.000000000000000000 ) ) ;
#115 = DIRECTION ( 'NONE',  ( -1.000000000000000000, -0.000000000000000000, -0.000000000000000000 ) ) ;
#116 = LINE ( 'NONE', #186, #131 ) ;
#117 = CC_DESIGN_SECURITY_CLASSIFICATION ( #27, ( #16 ) ) ;
#118 = AXIS2_PLACEMENT_3D ( 'NONE', #135, #112, #79 ) ;
#119 = ADVANCED_FACE ( 'NONE', ( #134 ), #132, .T. ) ;
#120 = APPROVAL_DATE_TIME ( #200, #226 ) ;
#121 = ORGANIZATION ( '未指定', '未指定', '' ) ;
#122 = VERTEX_POINT ( 'NONE', #203 ) ;
#123 = DIRECTION ( 'NONE',  ( -1.000000000000000000, -0.000000000000000000, -0.000000000000000000 ) ) ;
#124 = VECTOR ( 'NONE', #218, 1000.000000000000000 ) ;
#125 = ADVANCED_FACE ( 'NONE', ( #62 ), #23, .F. ) ;
#126 = EDGE_LOOP ( 'NONE', ( #37, #104, #52, #199 ) ) ;
#127 = PERSON_AND_ORGANIZATION_ROLE ( 'creator' ) ;
#128 = EDGE_LOOP ( 'NONE', ( #72, #35, #234, #74 ) ) ;
#129 = COORDINATED_UNIVERSAL_TIME_OFFSET ( 8, 0, .AHEAD. ) ;
#130 = VERTEX_POINT ( 'NONE', #172 ) ;
#131 = VECTOR ( 'NONE', #114, 1000.000000000000000 ) ;
#132 = PLANE ( 'NONE',  #153 ) ;
#133 = LOCAL_TIME ( 23, 42, 30.00000000000000000, #178 ) ;
#134 = FACE_OUTER_BOUND ( 'NONE', #126, .T. ) ;
#135 = CARTESIAN_POINT ( 'NONE',  ( -60.00000000000000000, 6.000000000000000000, 60.00000000000000000 ) ) ;
#136 = VECTOR ( 'NONE', #202, 1000.000000000000000 ) ;
#137 = APPROVAL_PERSON_ORGANIZATION ( #29, #147, #140 ) ;
#138 = CC_DESIGN_PERSON_AND_ORGANIZATION_ASSIGNMENT ( #110, #68, ( #16 ) ) ;
#139 = EDGE_LOOP ( 'NONE', ( #179, #28, #48, #14 ) ) ;
#140 = APPROVAL_ROLE ( '' ) ;
#141 = LINE ( 'NONE', #213, #223 ) ;
#142 = SECURITY_CLASSIFICATION_LEVEL ( 'unclassified' ) ;
#143 = VERTEX_POINT ( 'NONE', #206 ) ;
#144 = PERSON_AND_ORGANIZATION ( #227, #121 ) ;
#145 = ORIENTED_EDGE ( 'NONE', *, *, #233, .T. ) ;
#146 = APPROVAL_STATUS ( 'not_yet_approved' ) ;
#147 = APPROVAL ( #50, '未指定' ) ;
#148 = CARTESIAN_POINT ( 'NONE',  ( -60.00000000000000000, 6.000000000000000000, -60.00000000000000000 ) ) ;
#149 = CARTESIAN_POINT ( 'NONE',  ( -60.00000000000000000, 6.000000000000000000, 60.00000000000000000 ) ) ;
#150 = DIRECTION ( 'NONE',  ( 0.000000000000000000, 0.000000000000000000, -1.000000000000000000 ) ) ;
#151 = LINE ( 'NONE', #174, #136 ) ;
#152 = EDGE_CURVE ( 'NONE', #201, #54, #116, .T. ) ;
#153 = AXIS2_PLACEMENT_3D ( 'NONE', #221, #171, #77 ) ;
#154 = PLANE ( 'NONE',  #118 ) ;
#155 = LOCAL_TIME ( 23, 42, 30.00000000000000000, #129 ) ;
#156 = EDGE_LOOP ( 'NONE', ( #184, #216, #177, #88 ) ) ;
#157 = PERSON_AND_ORGANIZATION ( #227, #121 ) ;
#158 = VERTEX_POINT ( 'NONE', #96 ) ;
#159 = CLOSED_SHELL ( 'NONE', ( #109, #105, #125, #39, #81, #119 ) ) ;
#160 = APPLICATION_PROTOCOL_DEFINITION ( 'international standard', 'config_control_design', 1994, #220 ) ;
#161 = ORIENTED_EDGE ( 'NONE', *, *, #78, .F. ) ;
#162 = VECTOR ( 'NONE', #95, 1000.000000000000000 ) ;
#163 = DATE_AND_TIME ( #67, #185 ) ;
#164 = ORIENTED_EDGE ( 'NONE', *, *, #8, .F. ) ;
#165 = CC_DESIGN_PERSON_AND_ORGANIZATION_ASSIGNMENT ( #144, #215, ( #16 ) ) ;
#166 = PERSON_AND_ORGANIZATION ( #227, #121 ) ;
#167 = LINE ( 'NONE', #170, #124 ) ;
#168 = CALENDAR_DATE ( 2026, 26, 7 ) ;
#169 = AXIS2_PLACEMENT_3D ( 'NONE', #100, #5, #175 ) ;
#170 = CARTESIAN_POINT ( 'NONE',  ( -60.00000000000000000, 0.000000000000000000, 60.00000000000000000 ) ) ;
#171 = DIRECTION ( 'NONE',  ( 0.000000000000000000, -1.000000000000000000, 0.000000000000000000 ) ) ;
#172 = CARTESIAN_POINT ( 'NONE',  ( -60.00000000000000000, 0.000000000000000000, 60.00000000000000000 ) ) ;
#173 = EDGE_CURVE ( 'NONE', #201, #158, #41, .T. ) ;
#174 = CARTESIAN_POINT ( 'NONE',  ( 60.00000000000000000, 6.000000000000000000, -60.00000000000000000 ) ) ;
#175 = DIRECTION ( 'NONE',  ( 1.000000000000000000, 0.000000000000000000, 0.000000000000000000 ) ) ;
#176 = COORDINATED_UNIVERSAL_TIME_OFFSET ( 8, 0, .AHEAD. ) ;
#177 = ORIENTED_EDGE ( 'NONE', *, *, #152, .T. ) ;
#178 = COORDINATED_UNIVERSAL_TIME_OFFSET ( 8, 0, .AHEAD. ) ;
#179 = ORIENTED_EDGE ( 'NONE', *, *, #229, .T. ) ;
#180 = DIRECTION ( 'NONE',  ( 0.000000000000000000, -0.000000000000000000, -1.000000000000000000 ) ) ;
#181 = PLANE ( 'NONE',  #66 ) ;
#182 = COORDINATED_UNIVERSAL_TIME_OFFSET ( 8, 0, .AHEAD. ) ;
#183 = UNCERTAINTY_MEASURE_WITH_UNIT (LENGTH_MEASURE( 1.000000000000000082E-05 ), #219, 'distance_accuracy_value', 'NONE');
#184 = ORIENTED_EDGE ( 'NONE', *, *, #59, .T. ) ;
#185 = LOCAL_TIME ( 23, 42, 30.00000000000000000, #182 ) ;
#186 = CARTESIAN_POINT ( 'NONE',  ( 60.00000000000000000, 6.000000000000000000, 60.00000000000000000 ) ) ;
#187 = CARTESIAN_POINT ( 'NONE',  ( -60.00000000000000000, 6.000000000000000000, 60.00000000000000000 ) ) ;
#188 = CC_DESIGN_DATE_AND_TIME_ASSIGNMENT ( #163, #91, ( #6 ) ) ;
#189 = LINE ( 'NONE', #24, #162 ) ;
#190 = VECTOR ( 'NONE', #115, 1000.000000000000000 ) ;
#191 = EDGE_CURVE ( 'NONE', #225, #130, #3, .T. ) ;
#192 = APPROVAL_STATUS ( 'not_yet_approved' ) ;
#193 = APPROVAL_PERSON_ORGANIZATION ( #166, #226, #217 ) ;
#194 = CARTESIAN_POINT ( 'NONE',  ( -60.00000000000000000, 6.000000000000000000, -60.00000000000000000 ) ) ;
#195 = APPROVAL_ROLE ( '' ) ;
#196 = LINE ( 'NONE', #148, #210 ) ;
#197 = ORIENTED_EDGE ( 'NONE', *, *, #209, .T. ) ;
#198 = PERSON_AND_ORGANIZATION ( #227, #121 ) ;
#199 = ORIENTED_EDGE ( 'NONE', *, *, #51, .F. ) ;
#200 = DATE_AND_TIME ( #15, #155 ) ;
#201 = VERTEX_POINT ( 'NONE', #205 ) ;
#202 = DIRECTION ( 'NONE',  ( -0.000000000000000000, -1.000000000000000000, -0.000000000000000000 ) ) ;
#203 = CARTESIAN_POINT ( 'NONE',  ( -60.00000000000000000, 6.000000000000000000, -60.00000000000000000 ) ) ;
#204 = APPROVAL ( #192, '未指定' ) ;
#205 = CARTESIAN_POINT ( 'NONE',  ( 60.00000000000000000, 6.000000000000000000, 60.00000000000000000 ) ) ;
#206 = CARTESIAN_POINT ( 'NONE',  ( -60.00000000000000000, 0.000000000000000000, -60.00000000000000000 ) ) ;
#207 = APPLICATION_CONTEXT ( 'configuration controlled 3d designs of mechanical parts and assemblies' ) ;
#208 = MANIFOLD_SOLID_BREP ( '凸台-拉伸1', #159 ) ;
#209 = EDGE_CURVE ( 'NONE', #10, #143, #20, .T. ) ;
#210 = VECTOR ( 'NONE', #19, 1000.000000000000000 ) ;
#211 = DATE_AND_TIME ( #73, #36 ) ;
#212 = PERSON_AND_ORGANIZATION ( #227, #121 ) ;
#213 = CARTESIAN_POINT ( 'NONE',  ( -60.00000000000000000, 6.000000000000000000, -60.00000000000000000 ) ) ;
#214 = CARTESIAN_POINT ( 'NONE',  ( 60.00000000000000000, 0.000000000000000000, -60.00000000000000000 ) ) ;
#215 = PERSON_AND_ORGANIZATION_ROLE ( 'design_supplier' ) ;
#216 = ORIENTED_EDGE ( 'NONE', *, *, #8, .T. ) ;
#217 = APPROVAL_ROLE ( '' ) ;
#218 = DIRECTION ( 'NONE',  ( 1.000000000000000000, 0.000000000000000000, 0.000000000000000000 ) ) ;
#219 =( LENGTH_UNIT ( ) NAMED_UNIT ( * ) SI_UNIT ( .MILLI., .METRE. ) );
#220 = APPLICATION_CONTEXT ( 'configuration controlled 3d designs of mechanical parts and assemblies' ) ;
#221 = CARTESIAN_POINT ( 'NONE',  ( 0.000000000000000000, 0.000000000000000000, 0.000000000000000000 ) ) ;
#222 = FACE_OUTER_BOUND ( 'NONE', #17, .T. ) ;
#223 = VECTOR ( 'NONE', #123, 1000.000000000000000 ) ;
#224 = LOCAL_TIME ( 23, 42, 30.00000000000000000, #176 ) ;
#225 = VERTEX_POINT ( 'NONE', #113 ) ;
#226 = APPROVAL ( #146, '未指定' ) ;
#227 = PERSON ( '未指定', '未指定', '未指定', ('未指定'), ('未指定'), ('未指定') ) ;
#228 = CARTESIAN_POINT ( 'NONE',  ( 60.00000000000000000, 6.000000000000000000, -60.00000000000000000 ) ) ;
#229 = EDGE_CURVE ( 'NONE', #143, #130, #189, .T. ) ;
#230 = VECTOR ( 'NONE', #45, 1000.000000000000000 ) ;
#231 = CARTESIAN_POINT ( 'NONE',  ( 0.000000000000000000, 6.000000000000000000, 0.000000000000000000 ) ) ;
#232 = APPROVAL_DATE_TIME ( #211, #204 ) ;
#233 = EDGE_CURVE ( 'NONE', #54, #10, #151, .T. ) ;
#234 = ORIENTED_EDGE ( 'NONE', *, *, #152, .F. ) ;
#235 = SHAPE_DEFINITION_REPRESENTATION ( #76, #94 ) ;
#236 = DIRECTION ( 'NONE',  ( -0.000000000000000000, -0.000000000000000000, 1.000000000000000000 ) ) ;
#237 = LINE ( 'NONE', #33, #22 ) ;
ENDSEC;
END-ISO-10303-21;
