ISO-10303-21;
HEADER;
FILE_DESCRIPTION (( 'STEP AP203' ),
    '1' );
FILE_NAME ('FN-GNS-004_BT760-envelope_D180x70_PENDING_R0.6.STEP',
    '2026-07-26T15:42:42',
    ( '' ),
    ( '' ),
    'SwSTEP 2.0',
    'SolidWorks 2022',
    '' );
FILE_SCHEMA (( 'CONFIG_CONTROL_DESIGN' ));
ENDSEC;

DATA;
#1 = FACE_OUTER_BOUND ( 'NONE', #165, .T. ) ;
#2 = CARTESIAN_POINT ( 'NONE',  ( 0.000000000000000000, 70.00000000000000000, -90.00000000000001421 ) ) ;
#3 = CARTESIAN_POINT ( 'NONE',  ( 0.000000000000000000, 70.00000000000000000, 0.000000000000000000 ) ) ;
#4 = APPLICATION_PROTOCOL_DEFINITION ( 'international standard', 'config_control_design', 1994, #115 ) ;
#5 = LINE ( 'NONE', #83, #45 ) ;
#6 = AXIS2_PLACEMENT_3D ( 'NONE', #151, #7, #168 ) ;
#7 = DIRECTION ( 'NONE',  ( 0.000000000000000000, 0.000000000000000000, 1.000000000000000000 ) ) ;
#8 = CYLINDRICAL_SURFACE ( 'NONE', #13, 90.00000000000001421 ) ;
#9 = COORDINATED_UNIVERSAL_TIME_OFFSET ( 8, 0, .AHEAD. ) ;
#10 = COORDINATED_UNIVERSAL_TIME_OFFSET ( 8, 0, .AHEAD. ) ;
#11 = VERTEX_POINT ( 'NONE', #60 ) ;
#12 = CC_DESIGN_PERSON_AND_ORGANIZATION_ASSIGNMENT ( #113, #131, ( #24 ) ) ;
#13 = AXIS2_PLACEMENT_3D ( 'NONE', #157, #61, #86 ) ;
#14 = ORIENTED_EDGE ( 'NONE', *, *, #46, .T. ) ;
#15 = CARTESIAN_POINT ( 'NONE',  ( 0.000000000000000000, 70.00000000000000000, 0.000000000000000000 ) ) ;
#16 = DIRECTION ( 'NONE',  ( 0.000000000000000000, 1.000000000000000000, 0.000000000000000000 ) ) ;
#17 = PERSON ( '未指定', '未指定', '未指定', ('未指定'), ('未指定'), ('未指定') ) ;
#18 = CYLINDRICAL_SURFACE ( 'NONE', #119, 90.00000000000001421 ) ;
#19 = APPROVAL ( #89, '未指定' ) ;
#20 = DIRECTION ( 'NONE',  ( 0.000000000000000000, -0.000000000000000000, 1.000000000000000000 ) ) ;
#21 = ORGANIZATION ( '未指定', '未指定', '' ) ;
#22 = DATE_TIME_ROLE ( 'creation_date' ) ;
#23 = CALENDAR_DATE ( 2026, 26, 7 ) ;
#24 = PRODUCT ( 'FN-GNS-004_BT760-envelope_D180x70_PENDING_R0.6', 'FN-GNS-004_BT760-envelope_D180x70_PENDING_R0.6', '', ( #75 ) ) ;
#25 = CIRCLE ( 'NONE', #108, 90.00000000000001421 ) ;
#26 = CARTESIAN_POINT ( 'NONE',  ( 0.000000000000000000, 70.00000000000000000, 0.000000000000000000 ) ) ;
#27 = ADVANCED_FACE ( 'NONE', ( #66 ), #18, .T. ) ;
#28 = VERTEX_POINT ( 'NONE', #120 ) ;
#29 = ORIENTED_EDGE ( 'NONE', *, *, #111, .F. ) ;
#30 = PRODUCT_DEFINITION ( '未知', '', #34, #144 ) ;
#31 = ORIENTED_EDGE ( 'NONE', *, *, #79, .F. ) ;
#32 = SHAPE_DEFINITION_REPRESENTATION ( #57, #90 ) ;
#33 = PLANE ( 'NONE',  #137 ) ;
#34 = PRODUCT_DEFINITION_FORMATION_WITH_SPECIFIED_SOURCE ( '任何', '', #24, .NOT_KNOWN. ) ;
#35 = APPROVAL_DATE_TIME ( #147, #19 ) ;
#36 = APPROVAL_DATE_TIME ( #102, #93 ) ;
#37 = LOCAL_TIME ( 23, 42, 42.00000000000000000, #49 ) ;
#38 = AXIS2_PLACEMENT_3D ( 'NONE', #56, #107, #97 ) ;
#39 = APPROVAL_ROLE ( '' ) ;
#40 = CC_DESIGN_PERSON_AND_ORGANIZATION_ASSIGNMENT ( #100, #173, ( #30 ) ) ;
#41 = LOCAL_TIME ( 23, 42, 42.00000000000000000, #10 ) ;
#42 = PLANE ( 'NONE',  #65 ) ;
#43 = ORIENTED_EDGE ( 'NONE', *, *, #162, .F. ) ;
#44 = FACE_OUTER_BOUND ( 'NONE', #141, .T. ) ;
#45 = VECTOR ( 'NONE', #139, 1000.000000000000000 ) ;
#46 = EDGE_CURVE ( 'NONE', #155, #11, #5, .T. ) ;
#47 =( LENGTH_UNIT ( ) NAMED_UNIT ( * ) SI_UNIT ( .MILLI., .METRE. ) );
#48 = DATE_AND_TIME ( #159, #105 ) ;
#49 = COORDINATED_UNIVERSAL_TIME_OFFSET ( 8, 0, .AHEAD. ) ;
#50 = APPROVAL_ROLE ( '' ) ;
#51 = CALENDAR_DATE ( 2026, 26, 7 ) ;
#52 = CC_DESIGN_DATE_AND_TIME_ASSIGNMENT ( #158, #22, ( #30 ) ) ;
#53 = AXIS2_PLACEMENT_3D ( 'NONE', #169, #73, #152 ) ;
#54 = MANIFOLD_SOLID_BREP ( '凸台-拉伸1', #104 ) ;
#55 = ORIENTED_EDGE ( 'NONE', *, *, #125, .F. ) ;
#56 = CARTESIAN_POINT ( 'NONE',  ( 0.000000000000000000, 0.000000000000000000, 0.000000000000000000 ) ) ;
#57 = PRODUCT_DEFINITION_SHAPE ( 'NONE', 'NONE',  #30 ) ;
#58 = DIRECTION ( 'NONE',  ( 0.000000000000000000, 1.000000000000000000, 0.000000000000000000 ) ) ;
#59 = CC_DESIGN_APPROVAL ( #82, ( #30 ) ) ;
#60 = CARTESIAN_POINT ( 'NONE',  ( 1.102182119232618069E-14, 0.000000000000000000, 90.00000000000001421 ) ) ;
#61 = DIRECTION ( 'NONE',  ( -0.000000000000000000, -1.000000000000000000, -0.000000000000000000 ) ) ;
#62 = APPROVAL_STATUS ( 'not_yet_approved' ) ;
#63 = CC_DESIGN_DATE_AND_TIME_ASSIGNMENT ( #91, #133, ( #80 ) ) ;
#64 = APPROVAL_PERSON_ORGANIZATION ( #101, #19, #149 ) ;
#65 = AXIS2_PLACEMENT_3D ( 'NONE', #95, #16, #121 ) ;
#66 = FACE_OUTER_BOUND ( 'NONE', #174, .T. ) ;
#67 = APPLICATION_CONTEXT ( 'configuration controlled 3d designs of mechanical parts and assemblies' ) ;
#68 = EDGE_CURVE ( 'NONE', #155, #118, #94, .T. ) ;
#69 = DIRECTION ( 'NONE',  ( 0.000000000000000000, 1.000000000000000000, 0.000000000000000000 ) ) ;
#70 = DIRECTION ( 'NONE',  ( 0.000000000000000000, 0.000000000000000000, 1.000000000000000000 ) ) ;
#71 = CARTESIAN_POINT ( 'NONE',  ( 0.000000000000000000, 70.00000000000000000, -90.00000000000001421 ) ) ;
#72 = LOCAL_TIME ( 23, 42, 42.00000000000000000, #9 ) ;
#73 = DIRECTION ( 'NONE',  ( 0.000000000000000000, 1.000000000000000000, 0.000000000000000000 ) ) ;
#74 = COORDINATED_UNIVERSAL_TIME_OFFSET ( 8, 0, .AHEAD. ) ;
#75 = MECHANICAL_CONTEXT ( 'NONE', #115, 'mechanical' ) ;
#76 = ADVANCED_FACE ( 'NONE', ( #1 ), #8, .T. ) ;
#77 = PERSON_AND_ORGANIZATION ( #17, #21 ) ;
#78 = ADVANCED_FACE ( 'NONE', ( #106 ), #42, .F. ) ;
#79 = EDGE_CURVE ( 'NONE', #11, #28, #166, .T. ) ;
#80 = SECURITY_CLASSIFICATION ( '', '', #156 ) ;
#81 = AXIS2_PLACEMENT_3D ( 'NONE', #99, #110, #70 ) ;
#82 = APPROVAL ( #172, '未指定' ) ;
#83 = CARTESIAN_POINT ( 'NONE',  ( 1.102182119232618069E-14, 70.00000000000000000, 90.00000000000001421 ) ) ;
#84 = ORIENTED_EDGE ( 'NONE', *, *, #68, .T. ) ;
#85 = LINE ( 'NONE', #2, #150 ) ;
#86 = DIRECTION ( 'NONE',  ( 0.000000000000000000, 0.000000000000000000, -1.000000000000000000 ) ) ;
#87 = APPROVAL_PERSON_ORGANIZATION ( #77, #82, #50 ) ;
#88 = APPLICATION_PROTOCOL_DEFINITION ( 'international standard', 'config_control_design', 1994, #67 ) ;
#89 = APPROVAL_STATUS ( 'not_yet_approved' ) ;
#90 = ADVANCED_BREP_SHAPE_REPRESENTATION ( 'FN-GNS-004_BT760-envelope_D180x70_PENDING_R0.6', ( #54, #6 ), #92 ) ;
#91 = DATE_AND_TIME ( #98, #37 ) ;
#92 =( GEOMETRIC_REPRESENTATION_CONTEXT ( 3 ) GLOBAL_UNCERTAINTY_ASSIGNED_CONTEXT ( ( #171 ) ) GLOBAL_UNIT_ASSIGNED_CONTEXT ( ( #47, #130, #124 ) ) REPRESENTATION_CONTEXT ( 'NONE', 'WORKASPACE' ) );
#93 = APPROVAL ( #62, '未指定' ) ;
#94 = CIRCLE ( 'NONE', #81, 90.00000000000001421 ) ;
#95 = CARTESIAN_POINT ( 'NONE',  ( 0.000000000000000000, 0.000000000000000000, 0.000000000000000000 ) ) ;
#96 = EDGE_LOOP ( 'NONE', ( #43, #31 ) ) ;
#97 = DIRECTION ( 'NONE',  ( 0.000000000000000000, 0.000000000000000000, 1.000000000000000000 ) ) ;
#98 = CALENDAR_DATE ( 2026, 26, 7 ) ;
#99 = CARTESIAN_POINT ( 'NONE',  ( 0.000000000000000000, 70.00000000000000000, 0.000000000000000000 ) ) ;
#100 = PERSON_AND_ORGANIZATION ( #17, #21 ) ;
#101 = PERSON_AND_ORGANIZATION ( #17, #21 ) ;
#102 = DATE_AND_TIME ( #51, #72 ) ;
#103 = PERSON_AND_ORGANIZATION_ROLE ( 'classification_officer' ) ;
#104 = CLOSED_SHELL ( 'NONE', ( #27, #76, #122, #78 ) ) ;
#105 = LOCAL_TIME ( 23, 42, 42.00000000000000000, #146 ) ;
#106 = FACE_OUTER_BOUND ( 'NONE', #96, .T. ) ;
#107 = DIRECTION ( 'NONE',  ( 0.000000000000000000, 1.000000000000000000, 0.000000000000000000 ) ) ;
#108 = AXIS2_PLACEMENT_3D ( 'NONE', #3, #58, #154 ) ;
#109 = CARTESIAN_POINT ( 'NONE',  ( 1.102182119232618069E-14, 70.00000000000000000, 90.00000000000001421 ) ) ;
#110 = DIRECTION ( 'NONE',  ( 0.000000000000000000, 1.000000000000000000, 0.000000000000000000 ) ) ;
#111 = EDGE_CURVE ( 'NONE', #118, #155, #25, .T. ) ;
#112 = PERSON_AND_ORGANIZATION ( #17, #21 ) ;
#113 = PERSON_AND_ORGANIZATION ( #17, #21 ) ;
#114 = PERSON_AND_ORGANIZATION ( #17, #21 ) ;
#115 = APPLICATION_CONTEXT ( 'configuration controlled 3d designs of mechanical parts and assemblies' ) ;
#116 = APPROVAL_PERSON_ORGANIZATION ( #129, #93, #39 ) ;
#117 = CC_DESIGN_PERSON_AND_ORGANIZATION_ASSIGNMENT ( #114, #132, ( #34 ) ) ;
#118 = VERTEX_POINT ( 'NONE', #71 ) ;
#119 = AXIS2_PLACEMENT_3D ( 'NONE', #26, #128, #163 ) ;
#120 = CARTESIAN_POINT ( 'NONE',  ( 0.000000000000000000, 0.000000000000000000, -90.00000000000001421 ) ) ;
#121 = DIRECTION ( 'NONE',  ( 0.000000000000000000, -0.000000000000000000, 1.000000000000000000 ) ) ;
#122 = ADVANCED_FACE ( 'NONE', ( #44 ), #33, .T. ) ;
#123 = ORIENTED_EDGE ( 'NONE', *, *, #79, .T. ) ;
#124 =( NAMED_UNIT ( * ) SI_UNIT ( $, .STERADIAN. ) SOLID_ANGLE_UNIT ( ) );
#125 = EDGE_CURVE ( 'NONE', #118, #28, #85, .T. ) ;
#126 = CC_DESIGN_SECURITY_CLASSIFICATION ( #80, ( #34 ) ) ;
#127 = CIRCLE ( 'NONE', #38, 90.00000000000001421 ) ;
#128 = DIRECTION ( 'NONE',  ( -0.000000000000000000, -1.000000000000000000, -0.000000000000000000 ) ) ;
#129 = PERSON_AND_ORGANIZATION ( #17, #21 ) ;
#130 =( NAMED_UNIT ( * ) PLANE_ANGLE_UNIT ( ) SI_UNIT ( $, .RADIAN. ) );
#131 = PERSON_AND_ORGANIZATION_ROLE ( 'design_owner' ) ;
#132 = PERSON_AND_ORGANIZATION_ROLE ( 'design_supplier' ) ;
#133 = DATE_TIME_ROLE ( 'classification_date' ) ;
#134 = CC_DESIGN_APPROVAL ( #93, ( #34 ) ) ;
#135 = ORIENTED_EDGE ( 'NONE', *, *, #162, .T. ) ;
#136 = CC_DESIGN_APPROVAL ( #19, ( #80 ) ) ;
#137 = AXIS2_PLACEMENT_3D ( 'NONE', #15, #69, #20 ) ;
#138 = ORIENTED_EDGE ( 'NONE', *, *, #46, .F. ) ;
#139 = DIRECTION ( 'NONE',  ( -0.000000000000000000, -1.000000000000000000, -0.000000000000000000 ) ) ;
#140 = ORIENTED_EDGE ( 'NONE', *, *, #111, .T. ) ;
#141 = EDGE_LOOP ( 'NONE', ( #140, #84 ) ) ;
#142 = LOCAL_TIME ( 23, 42, 42.00000000000000000, #74 ) ;
#143 = PERSON_AND_ORGANIZATION_ROLE ( 'creator' ) ;
#144 = DESIGN_CONTEXT ( 'detailed design', #67, 'design' ) ;
#145 = CALENDAR_DATE ( 2026, 26, 7 ) ;
#146 = COORDINATED_UNIVERSAL_TIME_OFFSET ( 8, 0, .AHEAD. ) ;
#147 = DATE_AND_TIME ( #23, #142 ) ;
#148 = CC_DESIGN_PERSON_AND_ORGANIZATION_ASSIGNMENT ( #170, #103, ( #80 ) ) ;
#149 = APPROVAL_ROLE ( '' ) ;
#150 = VECTOR ( 'NONE', #167, 1000.000000000000000 ) ;
#151 = CARTESIAN_POINT ( 'NONE',  ( 0.000000000000000000, 0.000000000000000000, 0.000000000000000000 ) ) ;
#152 = DIRECTION ( 'NONE',  ( 0.000000000000000000, 0.000000000000000000, 1.000000000000000000 ) ) ;
#153 = ORIENTED_EDGE ( 'NONE', *, *, #125, .T. ) ;
#154 = DIRECTION ( 'NONE',  ( 0.000000000000000000, 0.000000000000000000, 1.000000000000000000 ) ) ;
#155 = VERTEX_POINT ( 'NONE', #109 ) ;
#156 = SECURITY_CLASSIFICATION_LEVEL ( 'unclassified' ) ;
#157 = CARTESIAN_POINT ( 'NONE',  ( 0.000000000000000000, 70.00000000000000000, 0.000000000000000000 ) ) ;
#158 = DATE_AND_TIME ( #145, #41 ) ;
#159 = CALENDAR_DATE ( 2026, 26, 7 ) ;
#160 = PRODUCT_RELATED_PRODUCT_CATEGORY ( 'detail', '', ( #24 ) ) ;
#161 = APPROVAL_DATE_TIME ( #48, #82 ) ;
#162 = EDGE_CURVE ( 'NONE', #28, #11, #127, .T. ) ;
#163 = DIRECTION ( 'NONE',  ( 0.000000000000000000, 0.000000000000000000, -1.000000000000000000 ) ) ;
#164 = ORIENTED_EDGE ( 'NONE', *, *, #68, .F. ) ;
#165 = EDGE_LOOP ( 'NONE', ( #138, #29, #153, #135 ) ) ;
#166 = CIRCLE ( 'NONE', #53, 90.00000000000001421 ) ;
#167 = DIRECTION ( 'NONE',  ( -0.000000000000000000, -1.000000000000000000, -0.000000000000000000 ) ) ;
#168 = DIRECTION ( 'NONE',  ( 1.000000000000000000, 0.000000000000000000, 0.000000000000000000 ) ) ;
#169 = CARTESIAN_POINT ( 'NONE',  ( 0.000000000000000000, 0.000000000000000000, 0.000000000000000000 ) ) ;
#170 = PERSON_AND_ORGANIZATION ( #17, #21 ) ;
#171 = UNCERTAINTY_MEASURE_WITH_UNIT (LENGTH_MEASURE( 1.000000000000000082E-05 ), #47, 'distance_accuracy_value', 'NONE');
#172 = APPROVAL_STATUS ( 'not_yet_approved' ) ;
#173 = PERSON_AND_ORGANIZATION_ROLE ( 'creator' ) ;
#174 = EDGE_LOOP ( 'NONE', ( #164, #14, #123, #55 ) ) ;
#175 = CC_DESIGN_PERSON_AND_ORGANIZATION_ASSIGNMENT ( #112, #143, ( #34 ) ) ;
ENDSEC;
END-ISO-10303-21;
