ISO-10303-21;
HEADER;
FILE_DESCRIPTION (( 'STEP AP203' ),
    '1' );
FILE_NAME ('FN-HAR-020_W4-fuse-to-dc5521-round_R0.6.STEP',
    '2026-07-26T15:44:52',
    ( '' ),
    ( '' ),
    'SwSTEP 2.0',
    'SolidWorks 2022',
    '' );
FILE_SCHEMA (( 'CONFIG_CONTROL_DESIGN' ));
ENDSEC;

DATA;
#1 = CARTESIAN_POINT ( 'NONE',  ( -6.713979231216266719, -0.4220653290425040449, -2.766972069198546436 ) ) ;
#2 = CARTESIAN_POINT ( 'NONE',  ( -15.55052067630995793, 1.965249936657766705, -14.59477751958558400 ) ) ;
#3 = CARTESIAN_POINT ( 'NONE',  ( -23.05008167115638784, 6.572069249798832224, -18.92615375130245781 ) ) ;
#4 = CARTESIAN_POINT ( 'NONE',  ( -3.550775728206772452, 0.6267177458346668839, -0.6540246077198207386 ) ) ;
#5 = CARTESIAN_POINT ( 'NONE',  ( -9.941366439158077384, 2.249883211630678836, -5.800696247375617176 ) ) ;
#6 = CARTESIAN_POINT ( 'NONE',  ( -12.95991363644081318, 1.858147943495195742, -11.57737772211626925 ) ) ;
#7 = CARTESIAN_POINT ( 'NONE',  ( -15.55910149079526050, 0.7279903507961975606, -15.14629154718045001 ) ) ;
#8 = APPROVAL_PERSON_ORGANIZATION ( #456, #13, #365 ) ;
#9 = PRODUCT ( 'FN-HAR-020_W4-fuse-to-dc5521-round_R0.6', 'FN-HAR-020_W4-fuse-to-dc5521-round_R0.6', '', ( #549 ) ) ;
#10 = CARTESIAN_POINT ( 'NONE',  ( -5.160781480483032979, -1.367935739299697362, -0.9833734121708899156 ) ) ;
#11 = CARTESIAN_POINT ( 'NONE',  ( -6.457430754192723832, 0.8348129722610652115, -2.497016399614575555 ) ) ;
#12 = CARTESIAN_POINT ( 'NONE',  ( -27.04124228969021360, 2.859419303170444682, -20.45236742302034827 ) ) ;
#13 = APPROVAL ( #46, '未指定' ) ;
#14 = CARTESIAN_POINT ( 'NONE',  ( -6.951114204208120206, 1.436096835336894806, -2.265586689682129062 ) ) ;
#15 = CARTESIAN_POINT ( 'NONE',  ( -9.284502872290067543, 2.006185465401839174, -4.846671572828894270 ) ) ;
#16 = CARTESIAN_POINT ( 'NONE',  ( -23.27887889090719042, 1.547276350528992372, -20.67563519931528404 ) ) ;
#17 = CARTESIAN_POINT ( 'NONE',  ( -1.150450119283084938, 2.154557964096865064, -0.07283502824076387716 ) ) ;
#18 = CARTESIAN_POINT ( 'NONE',  ( -20.49931648794166250, 6.270966460227486827, -18.34482101008796207 ) ) ;
#19 = CLOSED_SHELL ( 'NONE', ( #460, #185, #40, #293 ) ) ;
#20 = CARTESIAN_POINT ( 'NONE',  ( -20.71185450224842484, 1.521572392236610005, -19.89659265751176775 ) ) ;
#21 = CARTESIAN_POINT ( 'NONE',  ( -25.62276627717603006, 3.009334691092358849, -20.48510314934186027 ) ) ;
#22 = CARTESIAN_POINT ( 'NONE',  ( -11.94456842255944196, 3.016619268958238287, -8.678128235800361523 ) ) ;
#23 = CARTESIAN_POINT ( 'NONE',  ( -9.081307584902800656, 0.1870759322518351642, -5.437099471852881116 ) ) ;
#24 = APPLICATION_CONTEXT ( 'configuration controlled 3d designs of mechanical parts and assemblies' ) ;
#25 = CARTESIAN_POINT ( 'NONE',  ( -2.809768035869742331, -2.624864075390110241, -0.2948089375130784062 ) ) ;
#26 = CARTESIAN_POINT ( 'NONE',  ( -18.65939718766023603, 5.265679153674262203, -17.12576039680642026 ) ) ;
#27 = DATE_AND_TIME ( #49, #106 ) ;
#28 = CARTESIAN_POINT ( 'NONE',  ( -8.015950978176279662, 0.3215114059360319465, -3.279423735564052311 ) ) ;
#29 = DIRECTION ( 'NONE',  ( 0.9985027301342480621, -0.04510042388591008894, 0.03095560821182751637 ) ) ;
#30 = CARTESIAN_POINT ( 'NONE',  ( -7.373631017850745373, -2.361450209591632987, -3.025679014902929342 ) ) ;
#31 = CARTESIAN_POINT ( 'NONE',  ( -26.95127136098102127, 5.366082816259111432, -19.70241061803879035 ) ) ;
#32 = PERSON_AND_ORGANIZATION ( #561, #523 ) ;
#33 = CARTESIAN_POINT ( 'NONE',  ( -20.64980266890139760, 2.615947409190006123, -19.86222970822198164 ) ) ;
#34 = CARTESIAN_POINT ( 'NONE',  ( 2.500000000000000000, 0.000000000000000000, 0.000000000000000000 ) ) ;
#35 = CARTESIAN_POINT ( 'NONE',  ( -12.96511009094193589, -0.3850793609317330612, -11.08995643331897618 ) ) ;
#36 = DATE_TIME_ROLE ( 'creation_date' ) ;
#37 = CARTESIAN_POINT ( 'NONE',  ( 2.500000000000000000, 0.000000000000000000, 0.000000000000000000 ) ) ;
#38 = FACE_OUTER_BOUND ( 'NONE', #372, .T. ) ;
#39 = CARTESIAN_POINT ( 'NONE',  ( -25.89295292555644679, 1.665348984157126511, -20.75667679210334882 ) ) ;
#40 = ADVANCED_FACE ( 'NONE', ( #38 ), #82, .T. ) ;
#41 = CARTESIAN_POINT ( 'NONE',  ( -12.36115145511233315, 1.556767898090948510, -10.54786637708506802 ) ) ;
#42 = CARTESIAN_POINT ( 'NONE',  ( -9.081307584902800656, 0.1870759322518351642, -5.437099471852881116 ) ) ;
#43 = CARTESIAN_POINT ( 'NONE',  ( -12.50930547330087172, 0.3305425197700872508, -10.97753340011605516 ) ) ;
#44 = CARTESIAN_POINT ( 'NONE',  ( -20.54634148530222149, 5.113430799871956367, -19.08247145537405487 ) ) ;
#45 = CARTESIAN_POINT ( 'NONE',  ( -3.550775728206772452, 0.6267177458346668839, -0.6540246077198207386 ) ) ;
#46 = APPROVAL_STATUS ( 'not_yet_approved' ) ;
#47 = CC_DESIGN_APPROVAL ( #555, ( #413 ) ) ;
#48 = CARTESIAN_POINT ( 'NONE',  ( -0.1508513966605793954, -0.4276948601785990345, 0.07405078092147353297 ) ) ;
#49 = CALENDAR_DATE ( 2026, 26, 7 ) ;
#50 = CARTESIAN_POINT ( 'NONE',  ( -11.10518865145593281, 0.9770359072914193144, -8.468708463635600481 ) ) ;
#51 = CARTESIAN_POINT ( 'NONE',  ( -20.79779477681830357, 3.062364594217005020, -19.29960347769963747 ) ) ;
#52 = CARTESIAN_POINT ( 'NONE',  ( -16.05699479192560020, 4.653061870008990297, -14.63944996448811509 ) ) ;
#53 = CARTESIAN_POINT ( 'NONE',  ( -19.44516676125038757, 3.759288836983282422, -18.85624132833423161 ) ) ;
#54 = CARTESIAN_POINT ( 'NONE',  ( -21.95691142497723192, 3.117768757352111120, -19.77974123047289723 ) ) ;
#55 = CARTESIAN_POINT ( 'NONE',  ( -8.878067804022361287, 3.056395047210737292, -4.768136003947327950 ) ) ;
#56 = CARTESIAN_POINT ( 'NONE',  ( -12.21299743692379280, 2.782993276411809713, -10.11819935405408089 ) ) ;
#57 = CARTESIAN_POINT ( 'NONE',  ( -11.17509405684828927, -1.230631898182856121, -7.873345817381374623 ) ) ;
#58 = CARTESIAN_POINT ( 'NONE',  ( -9.478052683689808688, 2.923374190785609894, -5.541526951394145861 ) ) ;
#59 = CARTESIAN_POINT ( 'NONE',  ( -12.95991363644081318, 1.858147943495195742, -11.57737772211626925 ) ) ;
#60 = CARTESIAN_POINT ( 'NONE',  ( -1.495014852871207278, -2.835510520062310746, -0.2595359607365416155 ) ) ;
#61 = CARTESIAN_POINT ( 'NONE',  ( -2.500000000000000000, 1.308996938995747428, 0.000000000000000000 ) ) ;
#62 = CARTESIAN_POINT ( 'NONE',  ( -8.212075635618937497, -0.9613494281341846692, -3.452429597175408649 ) ) ;
#63 = CARTESIAN_POINT ( 'NONE',  ( -13.36852411030989529, -0.3957617580902381693, -12.23009970801397372 ) ) ;
#64 = CARTESIAN_POINT ( 'NONE',  ( -8.212075635618937497, -0.9613494281341846692, -3.452429597175408649 ) ) ;
#65 = CARTESIAN_POINT ( 'NONE',  ( -14.39499400292598352, 5.144004971159813699, -12.48287716562782812 ) ) ;
#66 = CARTESIAN_POINT ( 'NONE',  ( -9.251967651336482135, -1.046608489953825716, -5.836455844198800591 ) ) ;
#67 = CARTESIAN_POINT ( 'NONE',  ( 1.041825311570682810, -1.562854983493782157, 0.09341227031053804530 ) ) ;
#68 = CARTESIAN_POINT ( 'NONE',  ( -15.73245117439120122, 5.352910799182040158, -14.39598988740122465 ) ) ;
#69 = CARTESIAN_POINT ( 'NONE',  ( -15.95031596816866681, 0.6932391154535957334, -16.20178657904928698 ) ) ;
#70 = CARTESIAN_POINT ( 'NONE',  ( -13.36852411030989529, -0.3957617580902381693, -12.23009970801397372 ) ) ;
#71 = CARTESIAN_POINT ( 'NONE',  ( -11.45808607398315004, 3.725329547877139991, -8.560339901295535014 ) ) ;
#72 = B_SPLINE_SURFACE_WITH_KNOTS ( 'NONE', 3, 3, (
 ( #34, #596, #212, #445, #230, #395, #551, #581, #42, #123, #79, #543, #308, #164, #348, #399, #361, #408, #135, #498 ),
 ( #319, #272, #454, #491, #45, #180, #532, #406, #315, #261, #585, #170, #265, #130, #449, #87, #403, #589, #268, #225 ),
 ( #452, #570, #207, #199, #302, #484, #337, #350, #114, #434, #71, #389, #246, #256, #68, #441, #573, #18, #427, #296 ),
 ( #540, #382, #203, #583, #153, #306, #522, #393, #477, #430, #111, #65, #108, #249, #386, #535, #167, #345, #575, #299 ),
 ( #76, #156, #437, #340, #481, #15, #579, #527, #22, #489, #252, #159, #343, #530, #26, #210, #162, #119, #259, #31 ),
 ( #214, #291, #473, #397, #62, #125, #138, #227, #493, #458, #276, #2, #95, #186, #369, #51, #54, #503, #92, #12 ),
 ( #471, #328, #190, #422, #244, #151, #425, #57, #514, #197, #145, #100, #7, #341, #565, #194, #294, #335, #482, #380 ),
 ( #475, #289, #60, #148, #528, #428, #200, #568, #331, #383, #432, #63, #300, #112, #69, #468, #517, #20, #247, #16 ),
 ( #154, #254, #103, #338, #525, #109, #297, #478, #66, #250, #205, #387, #157, #310, #86, #169, #592, #577, #33, #451 ),
 ( #271, #160, #173, #208, #531, #497, #501, #115, #23, #89, #267, #41, #177, #542, #318, #588, #546, #224, #78, #537 ) ),
 .UNSPECIFIED., .T., .F., .F.,
 ( 4, 2, 2, 2, 4 ),
 ( 4, 2, 2, 2, 2, 2, 2, 2, 2, 4 ),
 ( 0.000000000000000000, 0.2500000000000000000, 0.5000000000000000000, 0.7500000000000000000, 1.000000000000000000 ),
 ( 0.000000000000000000, 0.1178095302462014715, 0.2238919388599713289, 0.3301657638596378064, 0.4404594578482105005, 0.5533113941201848185, 0.6636063986847395846, 0.7717666220932934973, 0.8806517678939843607, 1.000000000000000000 ),
 .UNSPECIFIED. ) ;
#73 = CARTESIAN_POINT ( 'NONE',  ( -7.117895821778232879, 0.1430321201728863567, -2.392088395304862392 ) ) ;
#74 = VERTEX_POINT ( 'NONE', #127 ) ;
#75 = CARTESIAN_POINT ( 'NONE',  ( -19.84352801349719542, 1.683149595488985018, -19.12706115083157954 ) ) ;
#76 = CARTESIAN_POINT ( 'NONE',  ( -2.500000000000000000, 1.308996938995747428, 0.000000000000000000 ) ) ;
#77 = PERSON_AND_ORGANIZATION_ROLE ( 'design_supplier' ) ;
#78 = CARTESIAN_POINT ( 'NONE',  ( -20.59807207710181132, 3.864689104530981023, -19.47235058179801825 ) ) ;
#79 = CARTESIAN_POINT ( 'NONE',  ( -11.10518865145593281, 0.9770359072914193144, -8.468708463635600481 ) ) ;
#80 = CARTESIAN_POINT ( 'NONE',  ( -24.37241173418129137, 3.090964345635001109, -20.37275794777797699 ) ) ;
#81 = CARTESIAN_POINT ( 'NONE',  ( -3.916730441635996929, -0.08429961107626925132, -0.3719118463228516802 ) ) ;
#82 = PLANE ( 'NONE',  #571 ) ;
#83 = CARTESIAN_POINT ( 'NONE',  ( -10.45446339320362661, -0.2638733909769721553, -6.340607586544069640 ) ) ;
#84 = APPROVAL_DATE_TIME ( #351, #555 ) ;
#85 = CIRCLE ( 'NONE', #594, 2.500000000000000000 ) ;
#86 = CARTESIAN_POINT ( 'NONE',  ( -14.99944520301796658, 1.483394779453741874, -15.05259326004647491 ) ) ;
#87 = CARTESIAN_POINT ( 'NONE',  ( -16.42095873835497244, 4.422104429377766266, -15.97893067541482282 ) ) ;
#88 = CARTESIAN_POINT ( 'NONE',  ( -22.00374317466437546, 3.887248940285226606, -19.92261097947043069 ) ) ;
#89 = CARTESIAN_POINT ( 'NONE',  ( -10.46179390476704718, 0.7049016977988641353, -7.440179031346865202 ) ) ;
#90 = ORIENTED_EDGE ( 'NONE', *, *, #356, .F. ) ;
#91 = CARTESIAN_POINT ( 'NONE',  ( -14.94240833338417929, 2.703293973598907218, -14.57983679168342306 ) ) ;
#92 = CARTESIAN_POINT ( 'NONE',  ( -25.62276627717603006, 3.009334691092358849, -20.48510314934186027 ) ) ;
#93 = DIRECTION ( 'NONE',  ( 0.000000000000000000, 0.000000000000000000, 1.000000000000000000 ) ) ;
#94 = CARTESIAN_POINT ( 'NONE',  ( -9.081307584902800656, 0.1870759322518351642, -5.437099471852881116 ) ) ;
#95 = CARTESIAN_POINT ( 'NONE',  ( -16.23653368714945344, 2.213138458469553260, -15.56488932780543877 ) ) ;
#96 = CARTESIAN_POINT ( 'NONE',  ( -11.94456842255944196, 3.016619268958238287, -8.678128235800361523 ) ) ;
#97 = CARTESIAN_POINT ( 'NONE',  ( -22.00374317466437546, 3.887248940285226606, -19.92261097947043069 ) ) ;
#98 = CARTESIAN_POINT ( 'NONE',  ( -26.95127136098102127, 5.366082816259111432, -19.70241061803879035 ) ) ;
#99 = CARTESIAN_POINT ( 'NONE',  ( -10.31631528166729161, 1.933563777561269736, -7.008300470564494233 ) ) ;
#100 = CARTESIAN_POINT ( 'NONE',  ( -14.96090066693514764, 0.4601690438547352824, -14.12408430000620996 ) ) ;
#101 = CARTESIAN_POINT ( 'NONE',  ( -2.500000000000000000, -1.308996938995746984, 0.000000000000000000 ) ) ;
#102 = CARTESIAN_POINT ( 'NONE',  ( -3.746900385649176712, -0.6561430882355820948, -0.8270304693311757438 ) ) ;
#103 = CARTESIAN_POINT ( 'NONE',  ( -0.2410582329711874194, -1.734091734407440910, 0.02517259109258048952 ) ) ;
#104 = CARTESIAN_POINT ( 'NONE',  ( -20.70486941687070015, 6.485377196657316823, -18.03630834040705011 ) ) ;
#105 = FACE_OUTER_BOUND ( 'NONE', #233, .T. ) ;
#106 = LOCAL_TIME ( 23, 44, 51.00000000000000000, #278 ) ;
#107 = CARTESIAN_POINT ( 'NONE',  ( -20.49931648794166250, 6.270966460227486827, -18.34482101008796207 ) ) ;
#108 = CARTESIAN_POINT ( 'NONE',  ( -15.21620745897605964, 5.387900811345497587, -13.37883255674247351 ) ) ;
#109 = CARTESIAN_POINT ( 'NONE',  ( -6.020765240215474989, -1.816085254065122889, -2.243961659519611906 ) ) ;
#110 = CARTESIAN_POINT ( 'NONE',  ( -13.89047041700387553, -0.09665270360970361352, -13.30071481152270074 ) ) ;
#111 = CARTESIAN_POINT ( 'NONE',  ( -12.97995561477554283, 4.601179567608243204, -10.50275856984988287 ) ) ;
#112 = CARTESIAN_POINT ( 'NONE',  ( -15.18344754138368380, 0.4479832042132432246, -15.28706258247561678 ) ) ;
#113 = CARTESIAN_POINT ( 'NONE',  ( -18.77347092692987474, 2.825880765384057636, -18.07127333353458454 ) ) ;
#114 = CARTESIAN_POINT ( 'NONE',  ( -9.478052683689808688, 2.923374190785609894, -5.541526951394145861 ) ) ;
#115 = CARTESIAN_POINT ( 'NONE',  ( -8.360004322101845631, -0.05412052431463484220, -4.480920847338439650 ) ) ;
#116 = EDGE_LOOP ( 'NONE', ( #275, #410, #487, #548 ) ) ;
#117 = CC_DESIGN_SECURITY_CLASSIFICATION ( #165, ( #413 ) ) ;
#118 = CARTESIAN_POINT ( 'NONE',  ( -1.495014852871207278, -2.835510520062310746, -0.2595359607365416155 ) ) ;
#119 = CARTESIAN_POINT ( 'NONE',  ( -24.26112709011852075, 5.577741264467914739, -19.56025221317750251 ) ) ;
#120 = DATE_AND_TIME ( #587, #347 ) ;
#121 = CARTESIAN_POINT ( 'NONE',  ( -17.80030567135360187, 3.860002609514508354, -16.81687116850677555 ) ) ;
#122 = MANIFOLD_SOLID_BREP ( '扫描1', #19 ) ;
#123 = CARTESIAN_POINT ( 'NONE',  ( -10.46179390476704718, 0.7049016977988641353, -7.440179031346865202 ) ) ;
#124 = CARTESIAN_POINT ( 'NONE',  ( -7.128646897758319056, -2.659439799468913179, -3.200293761982222929 ) ) ;
#125 = CARTESIAN_POINT ( 'NONE',  ( -9.761263691235692264, -0.5241062341298957650, -5.331955540251010817 ) ) ;
#126 = CARTESIAN_POINT ( 'NONE',  ( -10.19791491618085288, 0.9930049103268534516, -6.070651916959842964 ) ) ;
#127 = CARTESIAN_POINT ( 'NONE',  ( -26.99625682533561388, 4.112751059714776503, -20.07738902052957286 ) ) ;
#128 = CARTESIAN_POINT ( 'NONE',  ( -2.735132077607165701, -1.922830188128462847, -0.5205970158795023561 ) ) ;
#129 = CARTESIAN_POINT ( 'NONE',  ( -9.522883281762879903, 0.7410396156359716491, -5.089313556539952543 ) ) ;
#130 = CARTESIAN_POINT ( 'NONE',  ( -14.20350258412852185, 3.646717310686378166, -13.10457961096769353 ) ) ;
#131 = CARTESIAN_POINT ( 'NONE',  ( -20.64980266890139760, 2.615947409190006123, -19.86222970822198164 ) ) ;
#132 = PERSON_AND_ORGANIZATION ( #561, #523 ) ;
#133 = CALENDAR_DATE ( 2026, 26, 7 ) ;
#134 = DIRECTION ( 'NONE',  ( 0.000000000000000000, 0.000000000000000000, 1.000000000000000000 ) ) ;
#135 = CARTESIAN_POINT ( 'NONE',  ( -20.59807207710181132, 3.864689104530981023, -19.47235058179801825 ) ) ;
#136 = CARTESIAN_POINT ( 'NONE',  ( -19.44516676125038757, 3.759288836983282422, -18.85624132833423161 ) ) ;
#137 = CARTESIAN_POINT ( 'NONE',  ( -19.50080908327952045, 2.515900377566120394, -19.26249419563221110 ) ) ;
#138 = CARTESIAN_POINT ( 'NONE',  ( -10.45446339320362661, -0.2638733909769721553, -6.340607586544069640 ) ) ;
#139 = CARTESIAN_POINT ( 'NONE',  ( -20.59807207710181132, 3.864689104530981023, -19.47235058179801825 ) ) ;
#140 = CARTESIAN_POINT ( 'NONE',  ( -24.28760948930477781, 6.549416806159578108, -19.20257462136321891 ) ) ;
#141 = CARTESIAN_POINT ( 'NONE',  ( -12.36115145511233315, 1.556767898090948510, -10.54786637708506802 ) ) ;
#142 = ORIENTED_EDGE ( 'NONE', *, *, #401, .T. ) ;
#143 = CARTESIAN_POINT ( 'NONE',  ( -3.726411187963186489, 2.346276794812855560, -0.6009084806843977278 ) ) ;
#144 = CARTESIAN_POINT ( 'NONE',  ( -14.94240833338417929, 2.703293973598907218, -14.57983679168342306 ) ) ;
#145 = CARTESIAN_POINT ( 'NONE',  ( -13.65884795082132719, -0.09850741272919864844, -12.08682341782526137 ) ) ;
#146 = CARTESIAN_POINT ( 'NONE',  ( -17.37522550167816249, 5.801319428105787601, -16.15147300228288785 ) ) ;
#147 = CARTESIAN_POINT ( 'NONE',  ( -2.401568842467938225, 0.6632992421990541176, -0.2675936046344107866 ) ) ;
#148 = CARTESIAN_POINT ( 'NONE',  ( -3.970584376676300487, -2.915256307044777007, -1.111618947400988988 ) ) ;
#149 = CARTESIAN_POINT ( 'NONE',  ( -12.97995561477554283, 4.601179567608243204, -10.50275856984988287 ) ) ;
#150 = CARTESIAN_POINT ( 'NONE',  ( 2.500000000000000000, 0.000000000000000000, 0.000000000000000000 ) ) ;
#151 = CARTESIAN_POINT ( 'NONE',  ( -9.087167306839504022, -1.982961166532600350, -4.817163576987151252 ) ) ;
#152 = CARTESIAN_POINT ( 'NONE',  ( -18.34506012196051117, 5.998936370482680580, -16.97988923616607337 ) ) ;
#153 = CARTESIAN_POINT ( 'NONE',  ( -6.624490009189813122, 2.538717223398835987, -2.364845301478418538 ) ) ;
#154 = CARTESIAN_POINT ( 'NONE',  ( 2.500000000000000000, -1.308996938995747206, 0.000000000000000000 ) ) ;
#155 = CARTESIAN_POINT ( 'NONE',  ( -0.1902882901686942518, -2.713615860864535101, -0.04054184258129899660 ) ) ;
#156 = CARTESIAN_POINT ( 'NONE',  ( -3.872408344292225024, 1.224763253317699307, -0.3516375650063293112 ) ) ;
#157 = CARTESIAN_POINT ( 'NONE',  ( -13.04968308405220689, 0.6381862377246801943, -12.04009740377387239 ) ) ;
#158 = CARTESIAN_POINT ( 'NONE',  ( -3.943025043091580972, -1.939003922305831074, -1.000036330942530638 ) ) ;
#159 = CARTESIAN_POINT ( 'NONE',  ( -15.25421263993500354, 4.417700693300821158, -13.73544347352360617 ) ) ;
#160 = CARTESIAN_POINT ( 'NONE',  ( 1.086262460003301733, -0.2537750485594121863, 0.1136848082498334023 ) ) ;
#161 = CARTESIAN_POINT ( 'NONE',  ( -6.352720757612781988, -2.510620433493143011, -2.157765680385872908 ) ) ;
#162 = CARTESIAN_POINT ( 'NONE',  ( -21.83422867514782695, 5.584489245981717254, -18.91177039747690714 ) ) ;
#163 = CARTESIAN_POINT ( 'NONE',  ( -14.01174537334963510, 2.649786227857612531, -12.17845485548628659 ) ) ;
#164 = CARTESIAN_POINT ( 'NONE',  ( -14.24961036716502782, 2.430417193735013193, -13.59049978013199578 ) ) ;
#165 = SECURITY_CLASSIFICATION ( '', '', #176 ) ;
#166 = CARTESIAN_POINT ( 'NONE',  ( -11.17509405684828927, -1.230631898182856121, -7.873345817381374623 ) ) ;
#167 = CARTESIAN_POINT ( 'NONE',  ( -20.70486941687070015, 6.485377196657316823, -18.03630834040705011 ) ) ;
#168 = COORDINATED_UNIVERSAL_TIME_OFFSET ( 8, 0, .AHEAD. ) ;
#169 = CARTESIAN_POINT ( 'NONE',  ( -16.54834930874199017, 1.964982107987760296, -16.87117848748276216 ) ) ;
#170 = CARTESIAN_POINT ( 'NONE',  ( -12.21299743692379280, 2.782993276411809713, -10.11819935405408089 ) ) ;
#171 = CARTESIAN_POINT ( 'NONE',  ( -15.55052067630995793, 1.965249936657766705, -14.59477751958558400 ) ) ;
#172 = PERSON_AND_ORGANIZATION ( #561, #523 ) ;
#173 = CARTESIAN_POINT ( 'NONE',  ( -0.1508513966605793954, -0.4276948601785990345, 0.07405078092147353297 ) ) ;
#174 = ORIENTED_EDGE ( 'NONE', *, *, #356, .T. ) ;
#175 = CARTESIAN_POINT ( 'NONE',  ( -6.713979231216266719, -0.4220653290425040449, -2.766972069198546436 ) ) ;
#176 = SECURITY_CLASSIFICATION_LEVEL ( 'unclassified' ) ;
#177 = CARTESIAN_POINT ( 'NONE',  ( -12.95991363644081318, 1.858147943495195742, -11.57737772211626925 ) ) ;
#178 = FACE_OUTER_BOUND ( 'NONE', #116, .T. ) ;
#179 = CARTESIAN_POINT ( 'NONE',  ( -10.46179390476704718, 0.7049016977988641353, -7.440179031346865202 ) ) ;
#180 = CARTESIAN_POINT ( 'NONE',  ( -5.544004421269345784, 0.7142064454665500994, -1.758677692097498246 ) ) ;
#181 = APPLICATION_PROTOCOL_DEFINITION ( 'international standard', 'config_control_design', 1994, #241 ) ;
#182 = CARTESIAN_POINT ( 'NONE',  ( -8.360004322101845631, -0.05412052431463484220, -4.480920847338439650 ) ) ;
#183 = PRODUCT_RELATED_PRODUCT_CATEGORY ( 'detail', '', ( #9 ) ) ;
#184 = COORDINATED_UNIVERSAL_TIME_OFFSET ( 8, 0, .AHEAD. ) ;
#185 = ADVANCED_FACE ( 'NONE', ( #178 ), #72, .T. ) ;
#186 = CARTESIAN_POINT ( 'NONE',  ( -17.84641345438959092, 2.643702492562360895, -17.30279133767003330 ) ) ;
#187 = CARTESIAN_POINT ( 'NONE',  ( 2.500000000000000000, 1.308996938995747206, 0.000000000000000000 ) ) ;
#188 = CARTESIAN_POINT ( 'NONE',  ( -20.67040420643336773, 5.519486915607143551, -18.40735566563378356 ) ) ;
#189 = CARTESIAN_POINT ( 'NONE',  ( -5.544004421269345784, 0.7142064454665500994, -1.758677692097498246 ) ) ;
#190 = CARTESIAN_POINT ( 'NONE',  ( -4.070975921551030829, -2.643791689345488916, -0.7876094131800372988 ) ) ;
#191 = CARTESIAN_POINT ( 'NONE',  ( -8.676203467178346784, 2.688695644762016723, -4.665964604273543870 ) ) ;
#192 = CARTESIAN_POINT ( 'NONE',  ( -24.49999999999999645, 4.000000000000001776, -20.00000000000000355 ) ) ;
#193 = CC_DESIGN_APPROVAL ( #13, ( #479 ) ) ;
#194 = CARTESIAN_POINT ( 'NONE',  ( -19.84352801349719542, 1.683149595488985018, -19.12706115083157954 ) ) ;
#195 = CARTESIAN_POINT ( 'NONE',  ( -5.715661905138737175, 2.428522954252708921, -1.674564758160642652 ) ) ;
#196 = CARTESIAN_POINT ( 'NONE',  ( -19.44516676125038757, 3.759288836983282422, -18.85624132833423161 ) ) ;
#197 = CARTESIAN_POINT ( 'NONE',  ( -12.96511009094193589, -0.3850793609317330612, -11.08995643331897618 ) ) ;
#198 = CARTESIAN_POINT ( 'NONE',  ( -25.51927757719576917, 5.506882303001850332, -19.70551880349299267 ) ) ;
#199 = CARTESIAN_POINT ( 'NONE',  ( -3.333525524202503920, 2.023887080700324859, -0.6284180251758836322 ) ) ;
#200 = CARTESIAN_POINT ( 'NONE',  ( -8.033826343375528367, -2.485455465926132756, -4.069487982211317245 ) ) ;
#201 = AXIS2_PLACEMENT_3D ( 'NONE', #391, #134, #215 ) ;
#202 = CARTESIAN_POINT ( 'NONE',  ( -6.218100805664523278, 2.173061377868433119, -2.273469655359840580 ) ) ;
#203 = CARTESIAN_POINT ( 'NONE',  ( -3.726411187963186489, 2.346276794812855560, -0.6009084806843977278 ) ) ;
#204 = EDGE_CURVE ( 'NONE', #304, #74, #312, .T. ) ;
#205 = CARTESIAN_POINT ( 'NONE',  ( -11.28292224941477606, -0.2533392670078116748, -8.883415671070594044 ) ) ;
#206 = CARTESIAN_POINT ( 'NONE',  ( -21.88140286414248692, 1.573520342295240848, -20.36545813715415676 ) ) ;
#207 = CARTESIAN_POINT ( 'NONE',  ( -1.150450119283084938, 2.154557964096865064, -0.07283502824076387716 ) ) ;
#208 = CARTESIAN_POINT ( 'NONE',  ( -2.568350460037551741, -0.6297654729647043093, -0.3940953102569565991 ) ) ;
#209 = CARTESIAN_POINT ( 'NONE',  ( -13.52860919214735702, 1.125742993857249408, -11.58031747530396949 ) ) ;
#210 = CARTESIAN_POINT ( 'NONE',  ( -20.67040420643336773, 5.519486915607143551, -18.40735566563378356 ) ) ;
#211 = DIRECTION ( 'NONE',  ( 1.000000000000000000, 0.000000000000000000, -0.000000000000000000 ) ) ;
#212 = CARTESIAN_POINT ( 'NONE',  ( -0.1508513966605793954, -0.4276948601785990345, 0.07405078092147353297 ) ) ;
#213 = CARTESIAN_POINT ( 'NONE',  ( -9.087167306839504022, -1.982961166532600350, -4.817163576987151252 ) ) ;
#214 = CARTESIAN_POINT ( 'NONE',  ( -2.500000000000000000, -1.308996938995746984, 0.000000000000000000 ) ) ;
#215 = DIRECTION ( 'NONE',  ( 1.000000000000000000, 0.000000000000000000, 0.000000000000000000 ) ) ;
#216 = ORIENTED_EDGE ( 'NONE', *, *, #444, .T. ) ;
#217 = APPROVAL_PERSON_ORGANIZATION ( #32, #555, #219 ) ;
#218 = CARTESIAN_POINT ( 'NONE',  ( -10.12992611955981381, -1.788953185441223726, -7.066955928534095044 ) ) ;
#219 = APPROVAL_ROLE ( '' ) ;
#220 = CARTESIAN_POINT ( 'NONE',  ( 1.086262460003301733, -0.2537750485594121863, 0.1136848082498334023 ) ) ;
#221 = DIRECTION ( 'NONE',  ( -0.04255879449050758295, -0.2849696550893511260, 0.9575912722502075702 ) ) ;
#222 = CARTESIAN_POINT ( 'NONE',  ( -16.48465402354848308, 3.193543268682763614, -16.42505458144879427 ) ) ;
#223 = APPROVAL_STATUS ( 'not_yet_approved' ) ;
#224 = CARTESIAN_POINT ( 'NONE',  ( -19.44516676125038757, 3.759288836983282422, -18.85624132833423161 ) ) ;
#225 = CARTESIAN_POINT ( 'NONE',  ( -21.95875771030978285, 5.140580696829560203, -19.54763257697965528 ) ) ;
#226 = CARTESIAN_POINT ( 'NONE',  ( -14.24961036716502782, 2.430417193735013193, -13.59049978013199578 ) ) ;
#227 = CARTESIAN_POINT ( 'NONE',  ( -11.71627091584904790, 0.2714010431747747587, -8.407688330505786567 ) ) ;
#228 = APPLICATION_PROTOCOL_DEFINITION ( 'international standard', 'config_control_design', 1994, #24 ) ;
#229 = CARTESIAN_POINT ( 'NONE',  ( -21.95875771030978285, 5.140580696829560203, -19.54763257697965528 ) ) ;
#230 = CARTESIAN_POINT ( 'NONE',  ( -3.746900385649176712, -0.6561430882355820948, -0.8270304693311757438 ) ) ;
#231 = CARTESIAN_POINT ( 'NONE',  ( -22.04872863901896807, 2.633917183740893453, -20.29758938196120965 ) ) ;
#232 = PERSON_AND_ORGANIZATION ( #561, #523 ) ;
#233 = EDGE_LOOP ( 'NONE', ( #174, #142, #495, #504 ) ) ;
#234 = CARTESIAN_POINT ( 'NONE',  ( 0.000000000000000000, 0.000000000000000000, 0.000000000000000000 ) ) ;
#235 = CARTESIAN_POINT ( 'NONE',  ( -9.081307584902800656, 0.1870759322518351642, -5.437099471852881116 ) ) ;
#236 = PRODUCT_DEFINITION_SHAPE ( 'NONE', 'NONE',  #479 ) ;
#237 = CARTESIAN_POINT ( 'NONE',  ( -15.21620745897605964, 5.387900811345497587, -13.37883255674247351 ) ) ;
#238 = CARTESIAN_POINT ( 'NONE',  ( 1.130699608435920878, 1.055304886374957674, 0.1339573461891287454 ) ) ;
#239 = CARTESIAN_POINT ( 'NONE',  ( -13.54757638517936336, 4.563257756937606935, -11.53325582108046810 ) ) ;
#240 = CARTESIAN_POINT ( 'NONE',  ( -12.87014418882941946, 3.078109649265711401, -11.11465804045866967 ) ) ;
#241 = APPLICATION_CONTEXT ( 'configuration controlled 3d designs of mechanical parts and assemblies' ) ;
#242 = CARTESIAN_POINT ( 'NONE',  ( -3.872408344292225024, 1.224763253317699307, -0.3516375650063293112 ) ) ;
#243 = CARTESIAN_POINT ( 'NONE',  ( -14.94240833338417929, 2.703293973598907218, -14.57983679168342306 ) ) ;
#244 = CARTESIAN_POINT ( 'NONE',  ( -7.373631017850745373, -2.361450209591632987, -3.025679014902929342 ) ) ;
#245 = CARTESIAN_POINT ( 'NONE',  ( -12.40942268340445587, 4.308064080277128838, -9.440301846983556899 ) ) ;
#246 = CARTESIAN_POINT ( 'NONE',  ( -13.54757638517936336, 4.563257756937606935, -11.53325582108046810 ) ) ;
#247 = CARTESIAN_POINT ( 'NONE',  ( -21.88140286414248692, 1.573520342295240848, -20.36545813715415676 ) ) ;
#248 = CARTESIAN_POINT ( 'NONE',  ( -7.053883345113056258, 2.315466002491556097, -3.038333280690666882 ) ) ;
#249 = CARTESIAN_POINT ( 'NONE',  ( -16.86646849713338980, 5.842436599034973810, -15.12030836616107266 ) ) ;
#250 = CARTESIAN_POINT ( 'NONE',  ( -10.60727252786679919, -0.5237603819635415769, -7.872057592129236170 ) ) ;
#251 = CARTESIAN_POINT ( 'NONE',  ( -9.858010802285853913, -1.744526421206950451, -5.799290705467724294 ) ) ;
#252 = CARTESIAN_POINT ( 'NONE',  ( -13.83401177538969584, 3.880161402156160122, -11.76374764805129125 ) ) ;
#253 = APPROVAL_STATUS ( 'not_yet_approved' ) ;
#254 = CARTESIAN_POINT ( 'NONE',  ( 1.041825311570682810, -1.562854983493782157, 0.09341227031053804530 ) ) ;
#255 = CARTESIAN_POINT ( 'NONE',  ( -10.60727252786679919, -0.5237603819635415769, -7.872057592129236170 ) ) ;
#256 = CARTESIAN_POINT ( 'NONE',  ( -15.00732878333816522, 5.093907425720107796, -13.43098425758348924 ) ) ;
#257 = PLANE ( 'NONE',  #463 ) ;
#258 = CARTESIAN_POINT ( 'NONE',  ( -13.65884795082132719, -0.09850741272919864844, -12.08682341782526137 ) ) ;
#259 = CARTESIAN_POINT ( 'NONE',  ( -25.51927757719576917, 5.506882303001850332, -19.70551880349299267 ) ) ;
#260 = CARTESIAN_POINT ( 'NONE',  ( -21.89557005006253121, 4.351129001666914853, -19.34575581397490041 ) ) ;
#261 = CARTESIAN_POINT ( 'NONE',  ( -10.31631528166729161, 1.933563777561269736, -7.008300470564494233 ) ) ;
#262 = CARTESIAN_POINT ( 'NONE',  ( -12.13697841002893263, -0.9743574324585283497, -10.14440474926982105 ) ) ;
#263 = PERSON_AND_ORGANIZATION_ROLE ( 'classification_officer' ) ;
#264 = CARTESIAN_POINT ( 'NONE',  ( -25.57102192718589961, 4.258108497047104812, -20.09531097641742292 ) ) ;
#265 = CARTESIAN_POINT ( 'NONE',  ( -12.87014418882941946, 3.078109649265711401, -11.11465804045866967 ) ) ;
#266 = CARTESIAN_POINT ( 'NONE',  ( -15.55910149079526050, 0.7279903507961975606, -15.14629154718045001 ) ) ;
#267 = CARTESIAN_POINT ( 'NONE',  ( -11.10518865145593281, 0.9770359072914193144, -8.468708463635600481 ) ) ;
#268 = CARTESIAN_POINT ( 'NONE',  ( -20.54634148530222149, 5.113430799871956367, -19.08247145537405487 ) ) ;
#269 = CARTESIAN_POINT ( 'NONE',  ( 2.500000000000000000, 0.000000000000000000, 0.000000000000000000 ) ) ;
#270 = CC_DESIGN_DATE_AND_TIME_ASSIGNMENT ( #27, #36, ( #479 ) ) ;
#271 = CARTESIAN_POINT ( 'NONE',  ( 2.500000000000000000, 0.000000000000000000, 0.000000000000000000 ) ) ;
#272 = CARTESIAN_POINT ( 'NONE',  ( 1.130699608435920878, 1.055304886374957674, 0.1339573461891287454 ) ) ;
#273 =( NAMED_UNIT ( * ) PLANE_ANGLE_UNIT ( ) SI_UNIT ( $, .RADIAN. ) );
#274 = DESIGN_CONTEXT ( 'detailed design', #24, 'design' ) ;
#275 = ORIENTED_EDGE ( 'NONE', *, *, #401, .F. ) ;
#276 = CARTESIAN_POINT ( 'NONE',  ( -14.18947897130957259, 1.419411053559065383, -12.59316206292128015 ) ) ;
#277 = DIRECTION ( 'NONE',  ( 1.000000000000000000, 0.000000000000000000, 0.000000000000000000 ) ) ;
#278 = COORDINATED_UNIVERSAL_TIME_OFFSET ( 8, 0, .AHEAD. ) ;
#279 = CARTESIAN_POINT ( 'NONE',  ( 1.086262460003301733, -0.2537750485594121863, 0.1136848082498334023 ) ) ;
#280 = CARTESIAN_POINT ( 'NONE',  ( -10.46179390476704718, 0.7049016977988641353, -7.440179031346865202 ) ) ;
#281 = CARTESIAN_POINT ( 'NONE',  ( -9.761263691235692264, -0.5241062341298957650, -5.331955540251010817 ) ) ;
#282 = CARTESIAN_POINT ( 'NONE',  ( -8.360004322101845631, -0.05412052431463484220, -4.480920847338439650 ) ) ;
#283 = CARTESIAN_POINT ( 'NONE',  ( -4.389220345975973991, 2.026818527292935990, -1.080775189993815388 ) ) ;
#284 = CARTESIAN_POINT ( 'NONE',  ( -10.92745505349709134, 2.207411081590650248, -8.054001256200606917 ) ) ;
#285 = ADVANCED_BREP_SHAPE_REPRESENTATION ( 'FN-HAR-020_W4-fuse-to-dc5521-round_R0.6', ( #122, #457 ), #474 ) ;
#286 = CARTESIAN_POINT ( 'NONE',  ( -3.961052538979768389, -1.393362475470237838, -0.3921861276393741047 ) ) ;
#287 = DIRECTION ( 'NONE',  ( 0.9985027301342481731, -0.04510042388591004037, 0.03095560821182729086 ) ) ;
#288 = CC_DESIGN_PERSON_AND_ORGANIZATION_ASSIGNMENT ( #390, #77, ( #413 ) ) ;
#289 = CARTESIAN_POINT ( 'NONE',  ( -0.1902882901686942518, -2.713615860864535101, -0.04054184258129899660 ) ) ;
#290 = CARTESIAN_POINT ( 'NONE',  ( -11.06660995433610850, 3.758963964446436101, -7.447628151465599977 ) ) ;
#291 = CARTESIAN_POINT ( 'NONE',  ( -3.961052538979768389, -1.393362475470237838, -0.3921861276393741047 ) ) ;
#292 = CIRCLE ( 'NONE', #562, 2.500000000000000888 ) ;
#293 = ADVANCED_FACE ( 'NONE', ( #360 ), #257, .F. ) ;
#294 = CARTESIAN_POINT ( 'NONE',  ( -20.93917620968858628, 1.774288088762479010, -19.69401052277998687 ) ) ;
#295 = CARTESIAN_POINT ( 'NONE',  ( -9.284502872290067543, 2.006185465401839174, -4.846671572828894270 ) ) ;
#296 = CARTESIAN_POINT ( 'NONE',  ( -23.10704707444355321, 6.334651015842879040, -19.24332320789665118 ) ) ;
#297 = CARTESIAN_POINT ( 'NONE',  ( -6.970527708239809606, -1.678943630346073412, -3.036927738782517316 ) ) ;
#298 = CARTESIAN_POINT ( 'NONE',  ( -23.27887889090719042, 1.547276350528992372, -20.67563519931528404 ) ) ;
#299 = CARTESIAN_POINT ( 'NONE',  ( -25.72112110909280958, 6.452723649471014511, -19.32436480068471596 ) ) ;
#300 = CARTESIAN_POINT ( 'NONE',  ( -13.89047041700387553, -0.09665270360970361352, -13.30071481152270074 ) ) ;
#301 = CARTESIAN_POINT ( 'NONE',  ( -24.48527401120328051, 1.779481327987122441, -20.69155758552874502 ) ) ;
#302 = CARTESIAN_POINT ( 'NONE',  ( -4.389220345975973991, 2.026818527292935990, -1.080775189993815388 ) ) ;
#303 = CARTESIAN_POINT ( 'NONE',  ( -2.500000000000000000, 2.615010671419695758E-16, 0.000000000000000000 ) ) ;
#304 = VERTEX_POINT ( 'NONE', #439 ) ;
#305 = CARTESIAN_POINT ( 'NONE',  ( -3.970584376676300487, -2.915256307044777007, -1.111618947400988988 ) ) ;
#306 = CARTESIAN_POINT ( 'NONE',  ( -8.176621214746720767, 2.849540010805757362, -3.890339470366287244 ) ) ;
#307 = CARTESIAN_POINT ( 'NONE',  ( -18.71643405729505361, 4.045779959529160585, -17.59851686517050240 ) ) ;
#308 = CARTESIAN_POINT ( 'NONE',  ( -12.95991363644081318, 1.858147943495195742, -11.57737772211626925 ) ) ;
#309 = CARTESIAN_POINT ( 'NONE',  ( -8.033826343375528367, -2.485455465926132756, -4.069487982211317245 ) ) ;
#310 = CARTESIAN_POINT ( 'NONE',  ( -14.29571815020153558, 1.214117076783647997, -14.07641994929629803 ) ) ;
#311 = CARTESIAN_POINT ( 'NONE',  ( -6.970527708239809606, -1.678943630346073412, -3.036927738782517316 ) ) ;
#312 = CIRCLE ( 'NONE', #384, 2.500000000000000888 ) ;
#313 = CARTESIAN_POINT ( 'NONE',  ( -11.49129320192665205, 1.512184270894061155, -8.058389574316475290 ) ) ;
#314 = CC_DESIGN_PERSON_AND_ORGANIZATION_ASSIGNMENT ( #132, #500, ( #9 ) ) ;
#315 = CARTESIAN_POINT ( 'NONE',  ( -8.910647518469119177, 1.420760354457496044, -5.037743099506962530 ) ) ;
#316 = CARTESIAN_POINT ( 'NONE',  ( -17.38866628158862326, 3.422095457577858379, -17.32814394497320976 ) ) ;
#317 = PERSON_AND_ORGANIZATION ( #561, #523 ) ;
#318 = CARTESIAN_POINT ( 'NONE',  ( -14.94240833338417929, 2.703293973598907218, -14.57983679168342306 ) ) ;
#319 = CARTESIAN_POINT ( 'NONE',  ( 2.500000000000000000, 1.308996938995747206, 0.000000000000000000 ) ) ;
#320 = CARTESIAN_POINT ( 'NONE',  ( -11.28292224941477606, -0.2533392670078116748, -8.883415671070594044 ) ) ;
#321 = CARTESIAN_POINT ( 'NONE',  ( -5.782384830742410387, -0.5509394042992864504, -2.001319675808554965 ) ) ;
#322 = CARTESIAN_POINT ( 'NONE',  ( 1.086262460003301733, -0.2537750485594121863, 0.1136848082498334023 ) ) ;
#323 = CARTESIAN_POINT ( 'NONE',  ( -15.25421263993500354, 4.417700693300821158, -13.73544347352360617 ) ) ;
#324 = CARTESIAN_POINT ( 'NONE',  ( 2.500000000000000000, 0.000000000000000000, 0.000000000000000000 ) ) ;
#325 = CARTESIAN_POINT ( 'NONE',  ( -15.00732878333816522, 5.093907425720107796, -13.43098425758348924 ) ) ;
#326 = CARTESIAN_POINT ( 'NONE',  ( -22.00374317466437546, 3.887248940285226606, -19.92261097947043424 ) ) ;
#327 = CC_DESIGN_APPROVAL ( #412, ( #165 ) ) ;
#328 = CARTESIAN_POINT ( 'NONE',  ( -2.809768035869742331, -2.624864075390110241, -0.2948089375130784062 ) ) ;
#329 = CARTESIAN_POINT ( 'NONE',  ( -7.819826320733621827, 1.604372240006248562, -3.106417873952696862 ) ) ;
#330 = CARTESIAN_POINT ( 'NONE',  ( -16.42095873835497244, 4.422104429377766266, -15.97893067541482282 ) ) ;
#331 = CARTESIAN_POINT ( 'NONE',  ( -10.12992611955981381, -1.788953185441223726, -7.066955928534095044 ) ) ;
#332 = CARTESIAN_POINT ( 'NONE',  ( -23.10704707444355321, 6.334651015842879040, -19.24332320789665118 ) ) ;
#333 = CARTESIAN_POINT ( 'NONE',  ( -2.568350460037551741, -0.6297654729647043093, -0.3940953102569565991 ) ) ;
#334 = CC_DESIGN_PERSON_AND_ORGANIZATION_ASSIGNMENT ( #404, #541, ( #413 ) ) ;
#335 = CARTESIAN_POINT ( 'NONE',  ( -23.26261968546089420, 1.822675181806831413, -20.47792539872627415 ) ) ;
#336 = CARTESIAN_POINT ( 'NONE',  ( -1.308996938995746984, 2.500000000000000000, 0.000000000000000000 ) ) ;
#337 = CARTESIAN_POINT ( 'NONE',  ( -7.053883345113056258, 2.315466002491556097, -3.038333280690666882 ) ) ;
#338 = CARTESIAN_POINT ( 'NONE',  ( -2.735132077607165701, -1.922830188128462847, -0.5205970158795023561 ) ) ;
#339 = CARTESIAN_POINT ( 'NONE',  ( -9.535555033327085539, -2.050747171168089356, -6.000187572194276342 ) ) ;
#340 = CARTESIAN_POINT ( 'NONE',  ( -6.951114204208120206, 1.436096835336894806, -2.265586689682129062 ) ) ;
#341 = CARTESIAN_POINT ( 'NONE',  ( -17.04258725518411666, 1.196512377530065230, -16.97638669105736042 ) ) ;
#342 = CARTESIAN_POINT ( 'NONE',  ( -6.020765240215474989, -1.816085254065122889, -2.243961659519611906 ) ) ;
#343 = CARTESIAN_POINT ( 'NONE',  ( -16.05699479192560020, 4.653061870008990297, -14.63944996448811509 ) ) ;
#344 = CARTESIAN_POINT ( 'NONE',  ( -14.96090066693514764, 0.4601690438547352824, -14.12408430000620996 ) ) ;
#345 = CARTESIAN_POINT ( 'NONE',  ( -23.05008167115638784, 6.572069249798832224, -18.92615375130245781 ) ) ;
#346 = CARTESIAN_POINT ( 'NONE',  ( -15.40236665812248162, 3.191475314979293820, -14.16511049655459331 ) ) ;
#347 = LOCAL_TIME ( 23, 44, 51.00000000000000000, #591 ) ;
#348 = CARTESIAN_POINT ( 'NONE',  ( -14.94240833338417929, 2.703293973598907218, -14.57983679168342306 ) ) ;
#349 = CARTESIAN_POINT ( 'NONE',  ( -11.71848339020290908, -0.9533634117827997079, -8.973057128602880184 ) ) ;
#350 = CARTESIAN_POINT ( 'NONE',  ( -8.676203467178346784, 2.688695644762016723, -4.665964604273543870 ) ) ;
#351 = DATE_AND_TIME ( #133, #511 ) ;
#352 = CARTESIAN_POINT ( 'NONE',  ( 0.000000000000000000, 0.000000000000000000, 0.000000000000000000 ) ) ;
#353 = VERTEX_POINT ( 'NONE', #357 ) ;
#354 = CARTESIAN_POINT ( 'NONE',  ( -20.71185450224842484, 1.521572392236610005, -19.89659265751176775 ) ) ;
#355 = DATE_AND_TIME ( #576, #536 ) ;
#356 = EDGE_CURVE ( 'NONE', #416, #353, #547, .T. ) ;
#357 = CARTESIAN_POINT ( 'NONE',  ( -2.500000000000000000, 2.615010671419695758E-16, 0.000000000000000000 ) ) ;
#358 = CARTESIAN_POINT ( 'NONE',  ( -24.49999999999999645, 4.000000000000001776, -20.00000000000000355 ) ) ;
#359 = CARTESIAN_POINT ( 'NONE',  ( -12.95991363644081318, 1.858147943495195742, -11.57737772211626925 ) ) ;
#360 = FACE_OUTER_BOUND ( 'NONE', #538, .T. ) ;
#361 = CARTESIAN_POINT ( 'NONE',  ( -17.38866628158862326, 3.422095457577858379, -17.32814394497320976 ) ) ;
#362 = DIRECTION ( 'NONE',  ( 0.000000000000000000, 0.000000000000000000, 1.000000000000000000 ) ) ;
#363 = CARTESIAN_POINT ( 'NONE',  ( -0.02064266774051237707, 2.286669964570198221, 0.03694551935967125417 ) ) ;
#364 = CARTESIAN_POINT ( 'NONE',  ( -2.568350460037551741, -0.6297654729647043093, -0.3940953102569565991 ) ) ;
#365 = APPROVAL_ROLE ( '' ) ;
#366 = CALENDAR_DATE ( 2026, 26, 7 ) ;
#367 = CARTESIAN_POINT ( 'NONE',  ( -10.46179390476704718, 0.7049016977988641353, -7.440179031346865202 ) ) ;
#368 = LOCAL_TIME ( 23, 44, 51.00000000000000000, #184 ) ;
#369 = CARTESIAN_POINT ( 'NONE',  ( -18.77347092692987474, 2.825880765384057636, -18.07127333353458454 ) ) ;
#370 = CARTESIAN_POINT ( 'NONE',  ( -8.360004322101845631, -0.05412052431463484220, -4.480920847338439650 ) ) ;
#371 = CC_DESIGN_PERSON_AND_ORGANIZATION_ASSIGNMENT ( #232, #600, ( #479 ) ) ;
#372 = EDGE_LOOP ( 'NONE', ( #601, #216 ) ) ;
#373 = CARTESIAN_POINT ( 'NONE',  ( -10.31574249070061455, 3.508810917747248848, -6.539122849460376585 ) ) ;
#374 = CARTESIAN_POINT ( 'NONE',  ( -8.135026608180243812, 1.186662703404916641, -4.131622091148865472 ) ) ;
#375 = CARTESIAN_POINT ( 'NONE',  ( -11.26631548800425442, 2.752967498613347441, -7.709090818127166678 ) ) ;
#376 = CARTESIAN_POINT ( 'NONE',  ( -14.88537146375039022, 3.923193167744072340, -14.10708032332036943 ) ) ;
#377 = APPROVAL_PERSON_ORGANIZATION ( #317, #412, #545 ) ;
#378 = CARTESIAN_POINT ( 'NONE',  ( -8.176621214746720767, 2.849540010805757362, -3.890339470366287244 ) ) ;
#379 = CARTESIAN_POINT ( 'NONE',  ( -17.32732490667186198, 4.655455701892018183, -16.89415852847315236 ) ) ;
#380 = CARTESIAN_POINT ( 'NONE',  ( -25.89295292555644679, 1.665348984157126511, -20.75667679210334882 ) ) ;
#381 = CARTESIAN_POINT ( 'NONE',  ( -12.80261744630073650, 4.288074169216575804, -10.58889257363452252 ) ) ;
#382 = CARTESIAN_POINT ( 'NONE',  ( -2.640367859762012603, 2.375385009610788245, -0.2173171195114426968 ) ) ;
#383 = CARTESIAN_POINT ( 'NONE',  ( -11.43550179041237946, -1.248757308858882364, -9.148316098886548176 ) ) ;
#384 = AXIS2_PLACEMENT_3D ( 'NONE', #405, #494, #398 ) ;
#385 = CARTESIAN_POINT ( 'NONE',  ( -15.18344754138368380, 0.4479832042132432246, -15.28706258247561678 ) ) ;
#386 = CARTESIAN_POINT ( 'NONE',  ( -17.70852642250953934, 6.055834817674019988, -15.97656707780361174 ) ) ;
#387 = CARTESIAN_POINT ( 'NONE',  ( -12.50930547330087172, 0.3305425197700872508, -10.97753340011605516 ) ) ;
#388 = CARTESIAN_POINT ( 'NONE',  ( -0.2410582329711874194, -1.734091734407440910, 0.02517259109258048952 ) ) ;
#389 = CARTESIAN_POINT ( 'NONE',  ( -12.80261744630073650, 4.288074169216575804, -10.58889257363452252 ) ) ;
#390 = PERSON_AND_ORGANIZATION ( #561, #523 ) ;
#391 = CARTESIAN_POINT ( 'NONE',  ( 0.000000000000000000, 0.000000000000000000, 0.000000000000000000 ) ) ;
#392 = CARTESIAN_POINT ( 'NONE',  ( -20.79779477681830357, 3.062364594217005020, -19.29960347769963747 ) ) ;
#393 = CARTESIAN_POINT ( 'NONE',  ( -10.31574249070061455, 3.508810917747248848, -6.539122849460376585 ) ) ;
#394 = CARTESIAN_POINT ( 'NONE',  ( -13.38313056904869747, 2.354405073619929123, -11.14843891452269453 ) ) ;
#395 = CARTESIAN_POINT ( 'NONE',  ( -5.782384830742410387, -0.5509394042992864504, -2.001319675808554965 ) ) ;
#396 = CARTESIAN_POINT ( 'NONE',  ( -17.84641345438959092, 2.643702492562360895, -17.30279133767003330 ) ) ;
#397 = CARTESIAN_POINT ( 'NONE',  ( -7.284677439348346439, -1.150032594991121870, -2.518590100927595277 ) ) ;
#398 = DIRECTION ( 'NONE',  ( 0.9985027301342481731, -0.04510042388591004037, 0.03095560821182729086 ) ) ;
#399 = CARTESIAN_POINT ( 'NONE',  ( -16.48465402354848308, 3.193543268682763614, -16.42505458144879427 ) ) ;
#400 = CARTESIAN_POINT ( 'NONE',  ( -23.26261968546089420, 1.822675181806831413, -20.47792539872627415 ) ) ;
#401 = EDGE_CURVE ( 'NONE', #353, #74, #533, .T. ) ;
#402 = CARTESIAN_POINT ( 'NONE',  ( -0.1508513966605793954, -0.4276948601785990345, 0.07405078092147353297 ) ) ;
#403 = CARTESIAN_POINT ( 'NONE',  ( -17.32732490667186198, 4.655455701892018183, -16.89415852847315236 ) ) ;
#404 = PERSON_AND_ORGANIZATION ( #561, #523 ) ;
#405 = CARTESIAN_POINT ( 'NONE',  ( -24.49999999999999645, 4.000000000000001776, -20.00000000000000355 ) ) ;
#406 = CARTESIAN_POINT ( 'NONE',  ( -8.135026608180243812, 1.186662703404916641, -4.131622091148865472 ) ) ;
#407 = CARTESIAN_POINT ( 'NONE',  ( 1.308996938995747428, 2.500000000000000000, 0.000000000000000000 ) ) ;
#408 = CARTESIAN_POINT ( 'NONE',  ( -19.44516676125038757, 3.759288836983282422, -18.85624132833423161 ) ) ;
#409 = CARTESIAN_POINT ( 'NONE',  ( -14.99944520301796658, 1.483394779453741874, -15.05259326004647491 ) ) ;
#410 = ORIENTED_EDGE ( 'NONE', *, *, #524, .T. ) ;
#411 =( NAMED_UNIT ( * ) SI_UNIT ( $, .STERADIAN. ) SOLID_ANGLE_UNIT ( ) );
#412 = APPROVAL ( #223, '未指定' ) ;
#413 = PRODUCT_DEFINITION_FORMATION_WITH_SPECIFIED_SOURCE ( '任何', '', #9, .NOT_KNOWN. ) ;
#414 = EDGE_CURVE ( 'NONE', #416, #304, #420, .T. ) ;
#415 = CARTESIAN_POINT ( 'NONE',  ( -5.782384830742410387, -0.5509394042992864504, -2.001319675808554965 ) ) ;
#416 = VERTEX_POINT ( 'NONE', #324 ) ;
#417 = CARTESIAN_POINT ( 'NONE',  ( -6.624490009189813122, 2.538717223398835987, -2.364845301478418538 ) ) ;
#418 = CARTESIAN_POINT ( 'NONE',  ( -11.10518865145593281, 0.9770359072914193144, -8.468708463635600481 ) ) ;
#419 = CARTESIAN_POINT ( 'NONE',  ( -2.640367859762012603, 2.375385009610788245, -0.2173171195114426968 ) ) ;
#420 = B_SPLINE_CURVE_WITH_KNOTS ( 'NONE', 3,
 ( #37, #220, #402, #333, #102, #415, #516, #370, #94, #179, #418, #141, #6, #556, #144, #558, #519, #196, #139, #326 ),
 .UNSPECIFIED., .F., .F.,
 ( 4, 2, 2, 2, 2, 2, 2, 2, 2, 4 ),
 ( 0.000000000000000000, 0.1178095302462014715, 0.2238919388599713289, 0.3301657638596378064, 0.4404594578482105005, 0.5533113941201848185, 0.6636063986847395846, 0.7717666220932934973, 0.8806517678939843607, 1.000000000000000000 ),
 .UNSPECIFIED. ) ;
#421 = CARTESIAN_POINT ( 'NONE',  ( -14.20350258412852185, 3.646717310686378166, -13.10457961096769353 ) ) ;
#422 = CARTESIAN_POINT ( 'NONE',  ( -6.352720757612781988, -2.510620433493143011, -2.157765680385872908 ) ) ;
#423 = CARTESIAN_POINT ( 'NONE',  ( -11.45808607398315004, 3.725329547877139991, -8.560339901295535014 ) ) ;
#424 = CARTESIAN_POINT ( 'NONE',  ( -20.59807207710181132, 3.864689104530981023, -19.47235058179801825 ) ) ;
#425 = CARTESIAN_POINT ( 'NONE',  ( -9.858010802285853913, -1.744526421206950451, -5.799290705467724294 ) ) ;
#426 = CARTESIAN_POINT ( 'NONE',  ( -21.68376887526896724, 6.343389492365212767, -18.87629614695218194 ) ) ;
#427 = CARTESIAN_POINT ( 'NONE',  ( -21.68376887526896724, 6.343389492365212767, -18.87629614695218194 ) ) ;
#428 = CARTESIAN_POINT ( 'NONE',  ( -7.128646897758319056, -2.659439799468913179, -3.200293761982222929 ) ) ;
#429 = CARTESIAN_POINT ( 'NONE',  ( -18.65939718766023603, 5.265679153674262203, -17.12576039680642026 ) ) ;
#430 = CARTESIAN_POINT ( 'NONE',  ( -12.40942268340445587, 4.308064080277128838, -9.440301846983556899 ) ) ;
#431 = CC_DESIGN_DATE_AND_TIME_ASSIGNMENT ( #355, #435, ( #165 ) ) ;
#432 = CARTESIAN_POINT ( 'NONE',  ( -12.13697841002893263, -0.9743574324585283497, -10.14440474926982105 ) ) ;
#433 = CARTESIAN_POINT ( 'NONE',  ( -15.95031596816866681, 0.6932391154535957334, -16.20178657904928698 ) ) ;
#434 = CARTESIAN_POINT ( 'NONE',  ( -10.87981438287817326, 3.444386132352437180, -7.498661512553857378 ) ) ;
#435 = DATE_TIME_ROLE ( 'classification_date' ) ;
#436 = CARTESIAN_POINT ( 'NONE',  ( -17.61852356944230635, 1.108561469337853378, -17.85554079932483518 ) ) ;
#437 = CARTESIAN_POINT ( 'NONE',  ( -4.980367807862926988, 1.244858009157431944, -0.8856170325135198640 ) ) ;
#438 = SHAPE_DEFINITION_REPRESENTATION ( #236, #285 ) ;
#439 = CARTESIAN_POINT ( 'NONE',  ( -22.00374317466437546, 3.887248940285226606, -19.92261097947043424 ) ) ;
#440 = CARTESIAN_POINT ( 'NONE',  ( -4.070975921551030829, -2.643791689345488916, -0.7876094131800372988 ) ) ;
#441 = CARTESIAN_POINT ( 'NONE',  ( -17.37522550167816249, 5.801319428105787601, -16.15147300228288785 ) ) ;
#442 = COORDINATED_UNIVERSAL_TIME_OFFSET ( 8, 0, .AHEAD. ) ;
#443 = CARTESIAN_POINT ( 'NONE',  ( -24.31676941214990606, 4.334352805051457480, -19.96650508047773798 ) ) ;
#444 = EDGE_CURVE ( 'NONE', #74, #304, #292, .T. ) ;
#445 = CARTESIAN_POINT ( 'NONE',  ( -2.568350460037551741, -0.6297654729647043093, -0.3940953102569565991 ) ) ;
#446 = CARTESIAN_POINT ( 'NONE',  ( -11.71627091584904790, 0.2714010431747747587, -8.407688330505786567 ) ) ;
#447 = APPROVAL_DATE_TIME ( #120, #412 ) ;
#448 = CARTESIAN_POINT ( 'NONE',  ( -26.99625682533561388, 4.112751059714776503, -20.07738902052957286 ) ) ;
#449 = CARTESIAN_POINT ( 'NONE',  ( -14.88537146375039022, 3.923193167744072340, -14.10708032332036943 ) ) ;
#450 = CARTESIAN_POINT ( 'NONE',  ( -20.93917620968858628, 1.774288088762479010, -19.69401052277998687 ) ) ;
#451 = CARTESIAN_POINT ( 'NONE',  ( -22.04872863901896807, 2.633917183740893453, -20.29758938196120965 ) ) ;
#452 = CARTESIAN_POINT ( 'NONE',  ( 1.308996938995747428, 2.500000000000000000, 0.000000000000000000 ) ) ;
#453 = CARTESIAN_POINT ( 'NONE',  ( -14.24961036716502782, 2.430417193735013193, -13.59049978013199578 ) ) ;
#454 = CARTESIAN_POINT ( 'NONE',  ( -0.06064456034997139228, 0.8787020140502429522, 0.1229289707503665730 ) ) ;
#455 =( LENGTH_UNIT ( ) NAMED_UNIT ( * ) SI_UNIT ( .MILLI., .METRE. ) );
#456 = PERSON_AND_ORGANIZATION ( #561, #523 ) ;
#457 = AXIS2_PLACEMENT_3D ( 'NONE', #234, #93, #590 ) ;
#458 = CARTESIAN_POINT ( 'NONE',  ( -13.52860919214735702, 1.125742993857249408, -11.58031747530396949 ) ) ;
#459 = CARTESIAN_POINT ( 'NONE',  ( 0.000000000000000000, 0.000000000000000000, 0.000000000000000000 ) ) ;
#460 = ADVANCED_FACE ( 'NONE', ( #105 ), #485, .T. ) ;
#461 = CARTESIAN_POINT ( 'NONE',  ( -16.54834930874199017, 1.964982107987760296, -16.87117848748276216 ) ) ;
#462 = CARTESIAN_POINT ( 'NONE',  ( -5.782384830742410387, -0.5509394042992864504, -2.001319675808554965 ) ) ;
#463 = AXIS2_PLACEMENT_3D ( 'NONE', #352, #550, #211 ) ;
#464 = CARTESIAN_POINT ( 'NONE',  ( -17.70852642250953934, 6.055834817674019988, -15.97656707780361174 ) ) ;
#465 = CARTESIAN_POINT ( 'NONE',  ( -17.38866628158862326, 3.422095457577858379, -17.32814394497320976 ) ) ;
#466 = CARTESIAN_POINT ( 'NONE',  ( -15.73245117439120122, 5.352910799182040158, -14.39598988740122465 ) ) ;
#467 = DIRECTION ( 'NONE',  ( -0.04255879449050758295, -0.2849696550893511260, 0.9575912722502075702 ) ) ;
#468 = CARTESIAN_POINT ( 'NONE',  ( -17.61852356944230635, 1.108561469337853378, -17.85554079932483518 ) ) ;
#469 = CARTESIAN_POINT ( 'NONE',  ( -16.86646849713338980, 5.842436599034973810, -15.12030836616107266 ) ) ;
#470 = CARTESIAN_POINT ( 'NONE',  ( -0.1508513966605793954, -0.4276948601785990345, 0.07405078092147353297 ) ) ;
#471 = CARTESIAN_POINT ( 'NONE',  ( -1.308996938995747650, -2.499999999999999556, 0.000000000000000000 ) ) ;
#472 = CARTESIAN_POINT ( 'NONE',  ( -25.72112110909280958, 6.452723649471014511, -19.32436480068471596 ) ) ;
#473 = CARTESIAN_POINT ( 'NONE',  ( -5.160781480483032979, -1.367935739299697362, -0.9833734121708899156 ) ) ;
#474 =( GEOMETRIC_REPRESENTATION_CONTEXT ( 3 ) GLOBAL_UNCERTAINTY_ASSIGNED_CONTEXT ( ( #598 ) ) GLOBAL_UNIT_ASSIGNED_CONTEXT ( ( #455, #273, #411 ) ) REPRESENTATION_CONTEXT ( 'NONE', 'WORKASPACE' ) );
#475 = CARTESIAN_POINT ( 'NONE',  ( 1.308996938995746762, -2.500000000000000444, 0.000000000000000000 ) ) ;
#476 = CARTESIAN_POINT ( 'NONE',  ( -7.284677439348346439, -1.150032594991121870, -2.518590100927595277 ) ) ;
#477 = CARTESIAN_POINT ( 'NONE',  ( -11.06660995433610850, 3.758963964446436101, -7.447628151465599977 ) ) ;
#478 = CARTESIAN_POINT ( 'NONE',  ( -8.584982036023445673, -1.294903752034186173, -4.830219603528015604 ) ) ;
#479 = PRODUCT_DEFINITION ( '未知', '', #413, #274 ) ;
#480 = CARTESIAN_POINT ( 'NONE',  ( 2.500000000000000000, -1.308996938995747206, 0.000000000000000000 ) ) ;
#481 = CARTESIAN_POINT ( 'NONE',  ( -7.819826320733621827, 1.604372240006248562, -3.106417873952696862 ) ) ;
#482 = CARTESIAN_POINT ( 'NONE',  ( -24.48527401120328051, 1.779481327987122441, -20.69155758552874502 ) ) ;
#483 = CARTESIAN_POINT ( 'NONE',  ( -16.23653368714945344, 2.213138458469553260, -15.56488932780543877 ) ) ;
#484 = CARTESIAN_POINT ( 'NONE',  ( -6.218100805664523278, 2.173061377868433119, -2.273469655359840580 ) ) ;
#485 = B_SPLINE_SURFACE_WITH_KNOTS ( 'NONE', 3, 3, (
 ( #150, #322, #470, #508, #564, #462, #1, #282, #235, #280, #50, #510, #59, #453, #243, #560, #465, #53, #424, #97 ),
 ( #187, #238, #595, #147, #4, #189, #11, #374, #513, #99, #284, #56, #240, #421, #376, #330, #379, #567, #44, #229 ),
 ( #407, #363, #17, #569, #283, #202, #248, #191, #58, #518, #423, #381, #239, #325, #466, #146, #152, #107, #426, #332 ),
 ( #336, #419, #143, #195, #417, #378, #55, #373, #290, #245, #149, #557, #237, #469, #464, #566, #104, #3, #140, #472 ),
 ( #61, #242, #509, #14, #329, #295, #5, #375, #96, #559, #563, #323, #52, #515, #429, #188, #521, #512, #198, #98 ),
 ( #101, #286, #10, #476, #64, #281, #83, #446, #488, #209, #578, #171, #483, #396, #113, #392, #526, #80, #21, #534 ),
 ( #574, #25, #440, #161, #30, #213, #251, #166, #349, #35, #258, #344, #266, #572, #539, #75, #450, #400, #301, #39 ),
 ( #544, #155, #118, #305, #582, #124, #309, #339, #218, #492, #262, #70, #110, #385, #433, #436, #586, #354, #206, #298 ),
 ( #480, #67, #388, #128, #158, #342, #311, #496, #529, #255, #320, #43, #554, #505, #409, #461, #499, #137, #131, #231 ),
 ( #269, #279, #48, #364, #599, #321, #175, #182, #597, #367, #502, #552, #359, #226, #91, #222, #316, #136, #507, #88 ) ),
 .UNSPECIFIED., .T., .F., .F.,
 ( 4, 2, 2, 2, 4 ),
 ( 4, 2, 2, 2, 2, 2, 2, 2, 2, 4 ),
 ( 0.000000000000000000, 0.2500000000000000000, 0.5000000000000000000, 0.7500000000000000000, 1.000000000000000000 ),
 ( 0.000000000000000000, 0.1178095302462014715, 0.2238919388599713289, 0.3301657638596378064, 0.4404594578482105005, 0.5533113941201848185, 0.6636063986847395846, 0.7717666220932934973, 0.8806517678939843607, 1.000000000000000000 ),
 .UNSPECIFIED. ) ;
#486 = CARTESIAN_POINT ( 'NONE',  ( -5.070574644172980427, -0.06153886507113276449, -0.9344952223422049453 ) ) ;
#487 = ORIENTED_EDGE ( 'NONE', *, *, #414, .T. ) ;
#488 = CARTESIAN_POINT ( 'NONE',  ( -12.28588855542893654, 0.5492504245474484348, -9.476840980494332101 ) ) ;
#489 = CARTESIAN_POINT ( 'NONE',  ( -13.23765194595003614, 3.583067153382609060, -10.71656035374141780 ) ) ;
#490 = CARTESIAN_POINT ( 'NONE',  ( -20.73409949162583743, 4.290925754912074730, -18.85347957166671407 ) ) ;
#491 = CARTESIAN_POINT ( 'NONE',  ( -2.401568842467938225, 0.6632992421990541176, -0.2675936046344107866 ) ) ;
#492 = CARTESIAN_POINT ( 'NONE',  ( -11.43550179041237946, -1.248757308858882364, -9.148316098886548176 ) ) ;
#493 = CARTESIAN_POINT ( 'NONE',  ( -12.28588855542893654, 0.5492504245474484348, -9.476840980494332101 ) ) ;
#494 = DIRECTION ( 'NONE',  ( -0.04255879449050758295, -0.2849696550893511260, 0.9575912722502075702 ) ) ;
#495 = ORIENTED_EDGE ( 'NONE', *, *, #204, .F. ) ;
#496 = CARTESIAN_POINT ( 'NONE',  ( -8.584982036023445673, -1.294903752034186173, -4.830219603528015604 ) ) ;
#497 = CARTESIAN_POINT ( 'NONE',  ( -5.782384830742410387, -0.5509394042992864504, -2.001319675808554965 ) ) ;
#498 = CARTESIAN_POINT ( 'NONE',  ( -22.00374317466437546, 3.887248940285226606, -19.92261097947043069 ) ) ;
#499 = CARTESIAN_POINT ( 'NONE',  ( -17.45000765650538455, 2.188735213263699020, -17.76212936147326005 ) ) ;
#500 = PERSON_AND_ORGANIZATION_ROLE ( 'design_owner' ) ;
#501 = CARTESIAN_POINT ( 'NONE',  ( -6.713979231216266719, -0.4220653290425040449, -2.766972069198546436 ) ) ;
#502 = CARTESIAN_POINT ( 'NONE',  ( -11.10518865145593281, 0.9770359072914193144, -8.468708463635600481 ) ) ;
#503 = CARTESIAN_POINT ( 'NONE',  ( -24.37241173418129137, 3.090964345635001109, -20.37275794777797699 ) ) ;
#504 = ORIENTED_EDGE ( 'NONE', *, *, #414, .F. ) ;
#505 = CARTESIAN_POINT ( 'NONE',  ( -14.29571815020153558, 1.214117076783647997, -14.07641994929629803 ) ) ;
#506 = DATE_AND_TIME ( #366, #368 ) ;
#507 = CARTESIAN_POINT ( 'NONE',  ( -20.59807207710181132, 3.864689104530981023, -19.47235058179801825 ) ) ;
#508 = CARTESIAN_POINT ( 'NONE',  ( -2.568350460037551741, -0.6297654729647043093, -0.3940953102569565991 ) ) ;
#509 = CARTESIAN_POINT ( 'NONE',  ( -4.980367807862926988, 1.244858009157431944, -0.8856170325135198640 ) ) ;
#510 = CARTESIAN_POINT ( 'NONE',  ( -12.36115145511233315, 1.556767898090948510, -10.54786637708506802 ) ) ;
#511 = LOCAL_TIME ( 23, 44, 51.00000000000000000, #168 ) ;
#512 = CARTESIAN_POINT ( 'NONE',  ( -24.26112709011852075, 5.577741264467914739, -19.56025221317750251 ) ) ;
#513 = CARTESIAN_POINT ( 'NONE',  ( -8.910647518469119177, 1.420760354457496044, -5.037743099506962530 ) ) ;
#514 = CARTESIAN_POINT ( 'NONE',  ( -11.71848339020290908, -0.9533634117827997079, -8.973057128602880184 ) ) ;
#515 = CARTESIAN_POINT ( 'NONE',  ( -17.75419788831761636, 5.076302726466655812, -16.33095099934351779 ) ) ;
#516 = CARTESIAN_POINT ( 'NONE',  ( -6.713979231216266719, -0.4220653290425040449, -2.766972069198546436 ) ) ;
#517 = CARTESIAN_POINT ( 'NONE',  ( -18.57936691477633673, 1.287847262586809149, -18.63759141853899592 ) ) ;
#518 = CARTESIAN_POINT ( 'NONE',  ( -10.87981438287817326, 3.444386132352437180, -7.498661512553857378 ) ) ;
#519 = CARTESIAN_POINT ( 'NONE',  ( -17.38866628158862326, 3.422095457577858379, -17.32814394497320976 ) ) ;
#520 = CC_DESIGN_PERSON_AND_ORGANIZATION_ASSIGNMENT ( #172, #263, ( #165 ) ) ;
#521 = CARTESIAN_POINT ( 'NONE',  ( -21.83422867514782695, 5.584489245981717254, -18.91177039747690714 ) ) ;
#522 = CARTESIAN_POINT ( 'NONE',  ( -8.878067804022361287, 3.056395047210737292, -4.768136003947327950 ) ) ;
#523 = ORGANIZATION ( '未指定', '未指定', '' ) ;
#524 = EDGE_CURVE ( 'NONE', #353, #416, #85, .T. ) ;
#525 = CARTESIAN_POINT ( 'NONE',  ( -3.943025043091580972, -1.939003922305831074, -1.000036330942530638 ) ) ;
#526 = CARTESIAN_POINT ( 'NONE',  ( -21.95691142497723192, 3.117768757352111120, -19.77974123047289723 ) ) ;
#527 = CARTESIAN_POINT ( 'NONE',  ( -11.26631548800425442, 2.752967498613347441, -7.709090818127166678 ) ) ;
#528 = CARTESIAN_POINT ( 'NONE',  ( -5.138361354635897271, -2.873348905698543287, -1.741608903416812293 ) ) ;
#529 = CARTESIAN_POINT ( 'NONE',  ( -9.251967651336482135, -1.046608489953825716, -5.836455844198800591 ) ) ;
#530 = CARTESIAN_POINT ( 'NONE',  ( -17.75419788831761636, 5.076302726466655812, -16.33095099934351779 ) ) ;
#531 = CARTESIAN_POINT ( 'NONE',  ( -3.746900385649176712, -0.6561430882355820948, -0.8270304693311757438 ) ) ;
#532 = CARTESIAN_POINT ( 'NONE',  ( -6.457430754192723832, 0.8348129722610652115, -2.497016399614575555 ) ) ;
#533 = B_SPLINE_CURVE_WITH_KNOTS ( 'NONE', 3,
 ( #303, #81, #486, #73, #28, #129, #126, #313, #580, #394, #163, #346, #584, #121, #307, #490, #260, #443, #264, #448 ),
 .UNSPECIFIED., .F., .F.,
 ( 4, 2, 2, 2, 2, 2, 2, 2, 2, 4 ),
 ( 0.000000000000000000, 0.1178095302462014715, 0.2238919388599713289, 0.3301657638596378064, 0.4404594578482105005, 0.5533113941201848185, 0.6636063986847395846, 0.7717666220932934973, 0.8806517678939843607, 1.000000000000000000 ),
 .UNSPECIFIED. ) ;
#534 = CARTESIAN_POINT ( 'NONE',  ( -27.04124228969021360, 2.859419303170444682, -20.45236742302034827 ) ) ;
#535 = CARTESIAN_POINT ( 'NONE',  ( -19.60022994573305510, 6.375907554257438825, -17.42299335379171765 ) ) ;
#536 = LOCAL_TIME ( 23, 44, 51.00000000000000000, #442 ) ;
#537 = CARTESIAN_POINT ( 'NONE',  ( -22.00374317466437546, 3.887248940285226606, -19.92261097947043069 ) ) ;
#538 = EDGE_LOOP ( 'NONE', ( #90, #593 ) ) ;
#539 = CARTESIAN_POINT ( 'NONE',  ( -17.92639121628700138, 1.396163133946091817, -17.78236376945373465 ) ) ;
#540 = CARTESIAN_POINT ( 'NONE',  ( -1.308996938995746984, 2.500000000000000000, 0.000000000000000000 ) ) ;
#541 = PERSON_AND_ORGANIZATION_ROLE ( 'creator' ) ;
#542 = CARTESIAN_POINT ( 'NONE',  ( -14.24961036716502782, 2.430417193735013193, -13.59049978013199578 ) ) ;
#543 = CARTESIAN_POINT ( 'NONE',  ( -12.36115145511233315, 1.556767898090948510, -10.54786637708506802 ) ) ;
#544 = CARTESIAN_POINT ( 'NONE',  ( 1.308996938995746762, -2.500000000000000444, 0.000000000000000000 ) ) ;
#545 = APPROVAL_ROLE ( '' ) ;
#546 = CARTESIAN_POINT ( 'NONE',  ( -17.38866628158862326, 3.422095457577858379, -17.32814394497320976 ) ) ;
#547 = CIRCLE ( 'NONE', #201, 2.500000000000000000 ) ;
#548 = ORIENTED_EDGE ( 'NONE', *, *, #444, .F. ) ;
#549 = MECHANICAL_CONTEXT ( 'NONE', #241, 'mechanical' ) ;
#550 = DIRECTION ( 'NONE',  ( 0.000000000000000000, 0.000000000000000000, 1.000000000000000000 ) ) ;
#551 = CARTESIAN_POINT ( 'NONE',  ( -6.713979231216266719, -0.4220653290425040449, -2.766972069198546436 ) ) ;
#552 = CARTESIAN_POINT ( 'NONE',  ( -12.36115145511233315, 1.556767898090948510, -10.54786637708506802 ) ) ;
#553 = APPROVAL_DATE_TIME ( #506, #13 ) ;
#554 = CARTESIAN_POINT ( 'NONE',  ( -13.04968308405220689, 0.6381862377246801943, -12.04009740377387239 ) ) ;
#555 = APPROVAL ( #253, '未指定' ) ;
#556 = CARTESIAN_POINT ( 'NONE',  ( -14.24961036716502782, 2.430417193735013193, -13.59049978013199578 ) ) ;
#557 = CARTESIAN_POINT ( 'NONE',  ( -14.39499400292598352, 5.144004971159813699, -12.48287716562782812 ) ) ;
#558 = CARTESIAN_POINT ( 'NONE',  ( -16.48465402354848308, 3.193543268682763614, -16.42505458144879427 ) ) ;
#559 = CARTESIAN_POINT ( 'NONE',  ( -13.23765194595003614, 3.583067153382609060, -10.71656035374141780 ) ) ;
#560 = CARTESIAN_POINT ( 'NONE',  ( -16.48465402354848308, 3.193543268682763614, -16.42505458144879427 ) ) ;
#561 = PERSON ( '未指定', '未指定', '未指定', ('未指定'), ('未指定'), ('未指定') ) ;
#562 = AXIS2_PLACEMENT_3D ( 'NONE', #192, #467, #287 ) ;
#563 = CARTESIAN_POINT ( 'NONE',  ( -13.83401177538969584, 3.880161402156160122, -11.76374764805129125 ) ) ;
#564 = CARTESIAN_POINT ( 'NONE',  ( -3.746900385649176712, -0.6561430882355820948, -0.8270304693311757438 ) ) ;
#565 = CARTESIAN_POINT ( 'NONE',  ( -17.92639121628700138, 1.396163133946091817, -17.78236376945373465 ) ) ;
#566 = CARTESIAN_POINT ( 'NONE',  ( -19.60022994573305510, 6.375907554257438825, -17.42299335379171765 ) ) ;
#567 = CARTESIAN_POINT ( 'NONE',  ( -19.38952443922126179, 5.002677296400444895, -18.44998846103625567 ) ) ;
#568 = CARTESIAN_POINT ( 'NONE',  ( -9.535555033327085539, -2.050747171168089356, -6.000187572194276342 ) ) ;
#569 = CARTESIAN_POINT ( 'NONE',  ( -3.333525524202503920, 2.023887080700324859, -0.6284180251758836322 ) ) ;
#570 = CARTESIAN_POINT ( 'NONE',  ( -0.02064266774051237707, 2.286669964570198221, 0.03694551935967125417 ) ) ;
#571 = AXIS2_PLACEMENT_3D ( 'NONE', #358, #221, #29 ) ;
#572 = CARTESIAN_POINT ( 'NONE',  ( -17.04258725518411666, 1.196512377530065230, -16.97638669105736042 ) ) ;
#573 = CARTESIAN_POINT ( 'NONE',  ( -18.34506012196051117, 5.998936370482680580, -16.97988923616607337 ) ) ;
#574 = CARTESIAN_POINT ( 'NONE',  ( -1.308996938995747650, -2.499999999999999556, 0.000000000000000000 ) ) ;
#575 = CARTESIAN_POINT ( 'NONE',  ( -24.28760948930477781, 6.549416806159578108, -19.20257462136321891 ) ) ;
#576 = CALENDAR_DATE ( 2026, 26, 7 ) ;
#577 = CARTESIAN_POINT ( 'NONE',  ( -19.50080908327952045, 2.515900377566120394, -19.26249419563221110 ) ) ;
#578 = CARTESIAN_POINT ( 'NONE',  ( -14.18947897130957259, 1.419411053559065383, -12.59316206292128015 ) ) ;
#579 = CARTESIAN_POINT ( 'NONE',  ( -9.941366439158077384, 2.249883211630678836, -5.800696247375617176 ) ) ;
#580 = CARTESIAN_POINT ( 'NONE',  ( -12.11522848899418925, 1.782934846752843638, -9.077484608147347700 ) ) ;
#581 = CARTESIAN_POINT ( 'NONE',  ( -8.360004322101845631, -0.05412052431463484220, -4.480920847338439650 ) ) ;
#582 = CARTESIAN_POINT ( 'NONE',  ( -5.138361354635897271, -2.873348905698543287, -1.741608903416812293 ) ) ;
#583 = CARTESIAN_POINT ( 'NONE',  ( -5.715661905138737175, 2.428522954252708921, -1.674564758160642652 ) ) ;
#584 = CARTESIAN_POINT ( 'NONE',  ( -16.14676423953752504, 3.433100164239272001, -15.10216964614677693 ) ) ;
#585 = CARTESIAN_POINT ( 'NONE',  ( -10.92745505349709134, 2.207411081590650248, -8.054001256200606917 ) ) ;
#586 = CARTESIAN_POINT ( 'NONE',  ( -18.57936691477633673, 1.287847262586809149, -18.63759141853899592 ) ) ;
#587 = CALENDAR_DATE ( 2026, 26, 7 ) ;
#588 = CARTESIAN_POINT ( 'NONE',  ( -16.48465402354848308, 3.193543268682763614, -16.42505458144879427 ) ) ;
#589 = CARTESIAN_POINT ( 'NONE',  ( -19.38952443922126179, 5.002677296400444895, -18.44998846103625567 ) ) ;
#590 = DIRECTION ( 'NONE',  ( 1.000000000000000000, 0.000000000000000000, 0.000000000000000000 ) ) ;
#591 = COORDINATED_UNIVERSAL_TIME_OFFSET ( 8, 0, .AHEAD. ) ;
#592 = CARTESIAN_POINT ( 'NONE',  ( -17.45000765650538455, 2.188735213263699020, -17.76212936147326005 ) ) ;
#593 = ORIENTED_EDGE ( 'NONE', *, *, #524, .F. ) ;
#594 = AXIS2_PLACEMENT_3D ( 'NONE', #459, #362, #277 ) ;
#595 = CARTESIAN_POINT ( 'NONE',  ( -0.06064456034997139228, 0.8787020140502429522, 0.1229289707503665730 ) ) ;
#596 = CARTESIAN_POINT ( 'NONE',  ( 1.086262460003301733, -0.2537750485594121863, 0.1136848082498334023 ) ) ;
#597 = CARTESIAN_POINT ( 'NONE',  ( -9.081307584902800656, 0.1870759322518351642, -5.437099471852881116 ) ) ;
#598 = UNCERTAINTY_MEASURE_WITH_UNIT (LENGTH_MEASURE( 1.000000000000000082E-05 ), #455, 'distance_accuracy_value', 'NONE');
#599 = CARTESIAN_POINT ( 'NONE',  ( -3.746900385649176712, -0.6561430882355820948, -0.8270304693311757438 ) ) ;
#600 = PERSON_AND_ORGANIZATION_ROLE ( 'creator' ) ;
#601 = ORIENTED_EDGE ( 'NONE', *, *, #204, .T. ) ;
ENDSEC;
END-ISO-10303-21;
