ISO-10303-21;
HEADER;
FILE_DESCRIPTION (( 'STEP AP203' ),
    '1' );
FILE_NAME ('FN-IFC-002_sma-bulkhead-envelope-D12x34_R0.6.STEP',
    '2026-07-26T15:43:00',
    ( '' ),
    ( '' ),
    'SwSTEP 2.0',
    'SolidWorks 2022',
    '' );
FILE_SCHEMA (( 'CONFIG_CONTROL_DESIGN' ));
ENDSEC;

DATA;
#1 = DIRECTION ( 'NONE',  ( 0.000000000000000000, 0.000000000000000000, 1.000000000000000000 ) ) ;
#2 = VECTOR ( 'NONE', #173, 1000.000000000000000 ) ;
#3 = EDGE_CURVE ( 'NONE', #33, #146, #77, .T. ) ;
#4 = CARTESIAN_POINT ( 'NONE',  ( 0.000000000000000000, 0.000000000000000000, 0.000000000000000000 ) ) ;
#5 = PRODUCT ( 'FN-IFC-002_sma-bulkhead-envelope-D12x34_R0.6', 'FN-IFC-002_sma-bulkhead-envelope-D12x34_R0.6', '', ( #41 ) ) ;
#6 = CC_DESIGN_DATE_AND_TIME_ASSIGNMENT ( #135, #115, ( #122 ) ) ;
#7 = PERSON ( '未指定', '未指定', '未指定', ('未指定'), ('未指定'), ('未指定') ) ;
#8 = DIRECTION ( 'NONE',  ( -1.000000000000000000, 0.000000000000000000, 0.000000000000000000 ) ) ;
#9 = EDGE_LOOP ( 'NONE', ( #59, #91, #119, #106 ) ) ;
#10 = VECTOR ( 'NONE', #89, 1000.000000000000000 ) ;
#11 = DIRECTION ( 'NONE',  ( 0.000000000000000000, 0.000000000000000000, 1.000000000000000000 ) ) ;
#12 = LOCAL_TIME ( 23, 43, 0.000000000000000000, #157 ) ;
#13 = SECURITY_CLASSIFICATION_LEVEL ( 'unclassified' ) ;
#14 = DIRECTION ( 'NONE',  ( -0.000000000000000000, -0.000000000000000000, -1.000000000000000000 ) ) ;
#15 = APPROVAL_DATE_TIME ( #101, #58 ) ;
#16 = CARTESIAN_POINT ( 'NONE',  ( 6.000000000000000888, 7.347880794884120722E-16, 34.00000000000000000 ) ) ;
#17 = CARTESIAN_POINT ( 'NONE',  ( 0.000000000000000000, 0.000000000000000000, 34.00000000000000000 ) ) ;
#18 = CARTESIAN_POINT ( 'NONE',  ( 0.000000000000000000, 0.000000000000000000, 34.00000000000000000 ) ) ;
#19 = AXIS2_PLACEMENT_3D ( 'NONE', #127, #14, #68 ) ;
#20 = CC_DESIGN_PERSON_AND_ORGANIZATION_ASSIGNMENT ( #147, #24, ( #114 ) ) ;
#21 = DIRECTION ( 'NONE',  ( 0.000000000000000000, 0.000000000000000000, 1.000000000000000000 ) ) ;
#22 = CYLINDRICAL_SURFACE ( 'NONE', #28, 6.000000000000000888 ) ;
#23 = EDGE_CURVE ( 'NONE', #107, #33, #60, .T. ) ;
#24 = PERSON_AND_ORGANIZATION_ROLE ( 'design_supplier' ) ;
#25 = CYLINDRICAL_SURFACE ( 'NONE', #19, 6.000000000000000888 ) ;
#26 = PERSON_AND_ORGANIZATION_ROLE ( 'design_owner' ) ;
#27 =( NAMED_UNIT ( * ) PLANE_ANGLE_UNIT ( ) SI_UNIT ( $, .RADIAN. ) );
#28 = AXIS2_PLACEMENT_3D ( 'NONE', #172, #171, #8 ) ;
#29 = APPROVAL_PERSON_ORGANIZATION ( #125, #151, #174 ) ;
#30 = VERTEX_POINT ( 'NONE', #74 ) ;
#31 = CARTESIAN_POINT ( 'NONE',  ( -6.000000000000000888, 0.000000000000000000, 34.00000000000000000 ) ) ;
#32 = CC_DESIGN_PERSON_AND_ORGANIZATION_ASSIGNMENT ( #110, #26, ( #5 ) ) ;
#33 = VERTEX_POINT ( 'NONE', #71 ) ;
#34 = ORIENTED_EDGE ( 'NONE', *, *, #23, .T. ) ;
#35 = PERSON_AND_ORGANIZATION ( #7, #61 ) ;
#36 = PERSON_AND_ORGANIZATION_ROLE ( 'classification_officer' ) ;
#37 = AXIS2_PLACEMENT_3D ( 'NONE', #130, #123, #102 ) ;
#38 = EDGE_CURVE ( 'NONE', #146, #30, #67, .T. ) ;
#39 = LOCAL_TIME ( 23, 43, 0.000000000000000000, #149 ) ;
#40 = DATE_AND_TIME ( #99, #56 ) ;
#41 = MECHANICAL_CONTEXT ( 'NONE', #87, 'mechanical' ) ;
#42 = APPROVAL_STATUS ( 'not_yet_approved' ) ;
#43 = PERSON_AND_ORGANIZATION ( #7, #61 ) ;
#44 = DATE_TIME_ROLE ( 'classification_date' ) ;
#45 = EDGE_LOOP ( 'NONE', ( #34, #46 ) ) ;
#46 = ORIENTED_EDGE ( 'NONE', *, *, #104, .T. ) ;
#47 = FACE_OUTER_BOUND ( 'NONE', #134, .T. ) ;
#48 = ORIENTED_EDGE ( 'NONE', *, *, #78, .F. ) ;
#49 = DIRECTION ( 'NONE',  ( 1.000000000000000000, 0.000000000000000000, -0.000000000000000000 ) ) ;
#50 = DATE_AND_TIME ( #164, #133 ) ;
#51 = CARTESIAN_POINT ( 'NONE',  ( 6.000000000000000888, 7.347880794884120722E-16, 0.000000000000000000 ) ) ;
#52 = COORDINATED_UNIVERSAL_TIME_OFFSET ( 8, 0, .AHEAD. ) ;
#53 = CLOSED_SHELL ( 'NONE', ( #116, #98, #90, #105 ) ) ;
#54 = CC_DESIGN_DATE_AND_TIME_ASSIGNMENT ( #129, #44, ( #76 ) ) ;
#55 = CARTESIAN_POINT ( 'NONE',  ( 0.000000000000000000, 0.000000000000000000, 0.000000000000000000 ) ) ;
#56 = LOCAL_TIME ( 23, 43, 0.000000000000000000, #113 ) ;
#57 = PERSON_AND_ORGANIZATION_ROLE ( 'creator' ) ;
#58 = APPROVAL ( #42, '未指定' ) ;
#59 = ORIENTED_EDGE ( 'NONE', *, *, #3, .F. ) ;
#60 = CIRCLE ( 'NONE', #144, 6.000000000000000888 ) ;
#61 = ORGANIZATION ( '未指定', '未指定', '' ) ;
#62 = DIRECTION ( 'NONE',  ( 0.000000000000000000, 0.000000000000000000, 1.000000000000000000 ) ) ;
#63 = CC_DESIGN_APPROVAL ( #70, ( #122 ) ) ;
#64 = CARTESIAN_POINT ( 'NONE',  ( -6.000000000000000888, 0.000000000000000000, 34.00000000000000000 ) ) ;
#65 = APPLICATION_PROTOCOL_DEFINITION ( 'international standard', 'config_control_design', 1994, #87 ) ;
#66 = APPLICATION_PROTOCOL_DEFINITION ( 'international standard', 'config_control_design', 1994, #94 ) ;
#67 = CIRCLE ( 'NONE', #37, 6.000000000000000888 ) ;
#68 = DIRECTION ( 'NONE',  ( -1.000000000000000000, 0.000000000000000000, 0.000000000000000000 ) ) ;
#69 = CC_DESIGN_SECURITY_CLASSIFICATION ( #76, ( #114 ) ) ;
#70 = APPROVAL ( #150, '未指定' ) ;
#71 = CARTESIAN_POINT ( 'NONE',  ( 6.000000000000000888, 7.347880794884120722E-16, 34.00000000000000000 ) ) ;
#72 = ORIENTED_EDGE ( 'NONE', *, *, #3, .T. ) ;
#73 = ADVANCED_BREP_SHAPE_REPRESENTATION ( 'FN-IFC-002_sma-bulkhead-envelope-D12x34_R0.6', ( #92, #120 ), #97 ) ;
#74 = CARTESIAN_POINT ( 'NONE',  ( -6.000000000000000888, 0.000000000000000000, 0.000000000000000000 ) ) ;
#75 = ORIENTED_EDGE ( 'NONE', *, *, #154, .F. ) ;
#76 = SECURITY_CLASSIFICATION ( '', '', #13 ) ;
#77 = LINE ( 'NONE', #16, #10 ) ;
#78 = EDGE_CURVE ( 'NONE', #107, #30, #88, .T. ) ;
#79 = CALENDAR_DATE ( 2026, 26, 7 ) ;
#80 = DIRECTION ( 'NONE',  ( 0.000000000000000000, 0.000000000000000000, 1.000000000000000000 ) ) ;
#81 = PERSON_AND_ORGANIZATION ( #7, #61 ) ;
#82 = APPROVAL_ROLE ( '' ) ;
#83 = CIRCLE ( 'NONE', #111, 6.000000000000000888 ) ;
#84 = CALENDAR_DATE ( 2026, 26, 7 ) ;
#85 = CC_DESIGN_PERSON_AND_ORGANIZATION_ASSIGNMENT ( #81, #57, ( #122 ) ) ;
#86 = LOCAL_TIME ( 23, 43, 0.000000000000000000, #52 ) ;
#87 = APPLICATION_CONTEXT ( 'configuration controlled 3d designs of mechanical parts and assemblies' ) ;
#88 = LINE ( 'NONE', #64, #2 ) ;
#89 = DIRECTION ( 'NONE',  ( -0.000000000000000000, -0.000000000000000000, -1.000000000000000000 ) ) ;
#90 = ADVANCED_FACE ( 'NONE', ( #93 ), #170, .T. ) ;
#91 = ORIENTED_EDGE ( 'NONE', *, *, #23, .F. ) ;
#92 = MANIFOLD_SOLID_BREP ( '凸台-拉伸1', #53 ) ;
#93 = FACE_OUTER_BOUND ( 'NONE', #45, .T. ) ;
#94 = APPLICATION_CONTEXT ( 'configuration controlled 3d designs of mechanical parts and assemblies' ) ;
#95 = ORIENTED_EDGE ( 'NONE', *, *, #104, .F. ) ;
#96 = PERSON_AND_ORGANIZATION_ROLE ( 'creator' ) ;
#97 =( GEOMETRIC_REPRESENTATION_CONTEXT ( 3 ) GLOBAL_UNCERTAINTY_ASSIGNED_CONTEXT ( ( #109 ) ) GLOBAL_UNIT_ASSIGNED_CONTEXT ( ( #137, #27, #167 ) ) REPRESENTATION_CONTEXT ( 'NONE', 'WORKASPACE' ) );
#98 = ADVANCED_FACE ( 'NONE', ( #121 ), #22, .T. ) ;
#99 = CALENDAR_DATE ( 2026, 26, 7 ) ;
#100 = AXIS2_PLACEMENT_3D ( 'NONE', #4, #80, #136 ) ;
#101 = DATE_AND_TIME ( #84, #12 ) ;
#102 = DIRECTION ( 'NONE',  ( 1.000000000000000000, 0.000000000000000000, 0.000000000000000000 ) ) ;
#103 = EDGE_LOOP ( 'NONE', ( #75, #159 ) ) ;
#104 = EDGE_CURVE ( 'NONE', #33, #107, #83, .T. ) ;
#105 = ADVANCED_FACE ( 'NONE', ( #118 ), #169, .F. ) ;
#106 = ORIENTED_EDGE ( 'NONE', *, *, #154, .T. ) ;
#107 = VERTEX_POINT ( 'NONE', #31 ) ;
#108 = APPROVAL_DATE_TIME ( #50, #151 ) ;
#109 = UNCERTAINTY_MEASURE_WITH_UNIT (LENGTH_MEASURE( 1.000000000000000082E-05 ), #137, 'distance_accuracy_value', 'NONE');
#110 = PERSON_AND_ORGANIZATION ( #7, #61 ) ;
#111 = AXIS2_PLACEMENT_3D ( 'NONE', #17, #161, #145 ) ;
#112 = DIRECTION ( 'NONE',  ( 1.000000000000000000, 0.000000000000000000, 0.000000000000000000 ) ) ;
#113 = COORDINATED_UNIVERSAL_TIME_OFFSET ( 8, 0, .AHEAD. ) ;
#114 = PRODUCT_DEFINITION_FORMATION_WITH_SPECIFIED_SOURCE ( '任何', '', #5, .NOT_KNOWN. ) ;
#115 = DATE_TIME_ROLE ( 'creation_date' ) ;
#116 = ADVANCED_FACE ( 'NONE', ( #47 ), #25, .T. ) ;
#117 = PRODUCT_DEFINITION_SHAPE ( 'NONE', 'NONE',  #122 ) ;
#118 = FACE_OUTER_BOUND ( 'NONE', #103, .T. ) ;
#119 = ORIENTED_EDGE ( 'NONE', *, *, #78, .T. ) ;
#120 = AXIS2_PLACEMENT_3D ( 'NONE', #55, #1, #112 ) ;
#121 = FACE_OUTER_BOUND ( 'NONE', #9, .T. ) ;
#122 = PRODUCT_DEFINITION ( '未知', '', #114, #148 ) ;
#123 = DIRECTION ( 'NONE',  ( 0.000000000000000000, 0.000000000000000000, 1.000000000000000000 ) ) ;
#124 = CALENDAR_DATE ( 2026, 26, 7 ) ;
#125 = PERSON_AND_ORGANIZATION ( #7, #61 ) ;
#126 = CIRCLE ( 'NONE', #100, 6.000000000000000888 ) ;
#127 = CARTESIAN_POINT ( 'NONE',  ( 0.000000000000000000, 0.000000000000000000, 34.00000000000000000 ) ) ;
#128 = APPROVAL_DATE_TIME ( #40, #70 ) ;
#129 = DATE_AND_TIME ( #79, #39 ) ;
#130 = CARTESIAN_POINT ( 'NONE',  ( 0.000000000000000000, 0.000000000000000000, 0.000000000000000000 ) ) ;
#131 = AXIS2_PLACEMENT_3D ( 'NONE', #160, #62, #158 ) ;
#132 = CARTESIAN_POINT ( 'NONE',  ( 0.000000000000000000, 0.000000000000000000, 34.00000000000000000 ) ) ;
#133 = LOCAL_TIME ( 23, 43, 0.000000000000000000, #163 ) ;
#134 = EDGE_LOOP ( 'NONE', ( #95, #72, #142, #48 ) ) ;
#135 = DATE_AND_TIME ( #124, #86 ) ;
#136 = DIRECTION ( 'NONE',  ( 1.000000000000000000, 0.000000000000000000, 0.000000000000000000 ) ) ;
#137 =( LENGTH_UNIT ( ) NAMED_UNIT ( * ) SI_UNIT ( .MILLI., .METRE. ) );
#138 = CC_DESIGN_PERSON_AND_ORGANIZATION_ASSIGNMENT ( #175, #36, ( #76 ) ) ;
#139 = PERSON_AND_ORGANIZATION ( #7, #61 ) ;
#140 = PRODUCT_RELATED_PRODUCT_CATEGORY ( 'detail', '', ( #5 ) ) ;
#141 = CC_DESIGN_APPROVAL ( #58, ( #76 ) ) ;
#142 = ORIENTED_EDGE ( 'NONE', *, *, #38, .T. ) ;
#143 = DIRECTION ( 'NONE',  ( 1.000000000000000000, 0.000000000000000000, 0.000000000000000000 ) ) ;
#144 = AXIS2_PLACEMENT_3D ( 'NONE', #18, #21, #143 ) ;
#145 = DIRECTION ( 'NONE',  ( 1.000000000000000000, 0.000000000000000000, 0.000000000000000000 ) ) ;
#146 = VERTEX_POINT ( 'NONE', #51 ) ;
#147 = PERSON_AND_ORGANIZATION ( #7, #61 ) ;
#148 = DESIGN_CONTEXT ( 'detailed design', #94, 'design' ) ;
#149 = COORDINATED_UNIVERSAL_TIME_OFFSET ( 8, 0, .AHEAD. ) ;
#150 = APPROVAL_STATUS ( 'not_yet_approved' ) ;
#151 = APPROVAL ( #162, '未指定' ) ;
#152 = APPROVAL_ROLE ( '' ) ;
#153 = SHAPE_DEFINITION_REPRESENTATION ( #117, #73 ) ;
#154 = EDGE_CURVE ( 'NONE', #30, #146, #126, .T. ) ;
#155 = AXIS2_PLACEMENT_3D ( 'NONE', #132, #11, #49 ) ;
#156 = CC_DESIGN_APPROVAL ( #151, ( #114 ) ) ;
#157 = COORDINATED_UNIVERSAL_TIME_OFFSET ( 8, 0, .AHEAD. ) ;
#158 = DIRECTION ( 'NONE',  ( 1.000000000000000000, 0.000000000000000000, -0.000000000000000000 ) ) ;
#159 = ORIENTED_EDGE ( 'NONE', *, *, #38, .F. ) ;
#160 = CARTESIAN_POINT ( 'NONE',  ( 0.000000000000000000, 0.000000000000000000, 0.000000000000000000 ) ) ;
#161 = DIRECTION ( 'NONE',  ( 0.000000000000000000, 0.000000000000000000, 1.000000000000000000 ) ) ;
#162 = APPROVAL_STATUS ( 'not_yet_approved' ) ;
#163 = COORDINATED_UNIVERSAL_TIME_OFFSET ( 8, 0, .AHEAD. ) ;
#164 = CALENDAR_DATE ( 2026, 26, 7 ) ;
#165 = APPROVAL_PERSON_ORGANIZATION ( #139, #70, #152 ) ;
#166 = APPROVAL_PERSON_ORGANIZATION ( #43, #58, #82 ) ;
#167 =( NAMED_UNIT ( * ) SI_UNIT ( $, .STERADIAN. ) SOLID_ANGLE_UNIT ( ) );
#168 = CC_DESIGN_PERSON_AND_ORGANIZATION_ASSIGNMENT ( #35, #96, ( #114 ) ) ;
#169 = PLANE ( 'NONE',  #131 ) ;
#170 = PLANE ( 'NONE',  #155 ) ;
#171 = DIRECTION ( 'NONE',  ( -0.000000000000000000, -0.000000000000000000, -1.000000000000000000 ) ) ;
#172 = CARTESIAN_POINT ( 'NONE',  ( 0.000000000000000000, 0.000000000000000000, 34.00000000000000000 ) ) ;
#173 = DIRECTION ( 'NONE',  ( -0.000000000000000000, -0.000000000000000000, -1.000000000000000000 ) ) ;
#174 = APPROVAL_ROLE ( '' ) ;
#175 = PERSON_AND_ORGANIZATION ( #7, #61 ) ;
ENDSEC;
END-ISO-10303-21;
