ISO-10303-21;
HEADER;
FILE_DESCRIPTION (( 'STEP AP203' ),
    '1' );
FILE_NAME ('FN-IFC-005_m16-cap-envelope-D29x5_R0.6.STEP',
    '2026-07-26T15:43:17',
    ( '' ),
    ( '' ),
    'SwSTEP 2.0',
    'SolidWorks 2022',
    '' );
FILE_SCHEMA (( 'CONFIG_CONTROL_DESIGN' ));
ENDSEC;

DATA;
#1 = CARTESIAN_POINT ( 'NONE',  ( -14.50000000000000000, 0.000000000000000000, 5.000000000000000000 ) ) ;
#2 = SECURITY_CLASSIFICATION_LEVEL ( 'unclassified' ) ;
#3 = APPROVAL ( #41, '未指定' ) ;
#4 = CARTESIAN_POINT ( 'NONE',  ( 14.50000000000000000, 1.775737858763662015E-15, 5.000000000000000000 ) ) ;
#5 = PERSON_AND_ORGANIZATION ( #98, #8 ) ;
#6 = DATE_TIME_ROLE ( 'creation_date' ) ;
#7 = PERSON_AND_ORGANIZATION ( #98, #8 ) ;
#8 = ORGANIZATION ( '未指定', '未指定', '' ) ;
#9 = DIRECTION ( 'NONE',  ( 1.000000000000000000, 0.000000000000000000, -0.000000000000000000 ) ) ;
#10 = UNCERTAINTY_MEASURE_WITH_UNIT (LENGTH_MEASURE( 1.000000000000000082E-05 ), #152, 'distance_accuracy_value', 'NONE');
#11 = PERSON_AND_ORGANIZATION ( #98, #8 ) ;
#12 = FACE_OUTER_BOUND ( 'NONE', #77, .T. ) ;
#13 = ADVANCED_BREP_SHAPE_REPRESENTATION ( 'FN-IFC-005_m16-cap-envelope-D29x5_R0.6', ( #166, #64 ), #161 ) ;
#14 = CC_DESIGN_APPROVAL ( #3, ( #44 ) ) ;
#15 = ORIENTED_EDGE ( 'NONE', *, *, #49, .F. ) ;
#16 = APPLICATION_CONTEXT ( 'configuration controlled 3d designs of mechanical parts and assemblies' ) ;
#17 = CARTESIAN_POINT ( 'NONE',  ( 0.000000000000000000, 0.000000000000000000, 5.000000000000000000 ) ) ;
#18 = LOCAL_TIME ( 23, 43, 17.00000000000000000, #155 ) ;
#19 = CALENDAR_DATE ( 2026, 26, 7 ) ;
#20 = CC_DESIGN_DATE_AND_TIME_ASSIGNMENT ( #134, #6, ( #44 ) ) ;
#21 = CARTESIAN_POINT ( 'NONE',  ( 0.000000000000000000, 0.000000000000000000, 5.000000000000000000 ) ) ;
#22 = EDGE_CURVE ( 'NONE', #153, #30, #142, .T. ) ;
#23 = PERSON_AND_ORGANIZATION ( #98, #8 ) ;
#24 = AXIS2_PLACEMENT_3D ( 'NONE', #79, #65, #43 ) ;
#25 = APPROVAL_STATUS ( 'not_yet_approved' ) ;
#26 = CARTESIAN_POINT ( 'NONE',  ( 0.000000000000000000, 0.000000000000000000, 0.000000000000000000 ) ) ;
#27 = APPLICATION_PROTOCOL_DEFINITION ( 'international standard', 'config_control_design', 1994, #16 ) ;
#28 = APPLICATION_CONTEXT ( 'configuration controlled 3d designs of mechanical parts and assemblies' ) ;
#29 = AXIS2_PLACEMENT_3D ( 'NONE', #17, #128, #173 ) ;
#30 = VERTEX_POINT ( 'NONE', #76 ) ;
#31 = EDGE_CURVE ( 'NONE', #84, #30, #55, .T. ) ;
#32 = CALENDAR_DATE ( 2026, 26, 7 ) ;
#33 = EDGE_LOOP ( 'NONE', ( #35, #52 ) ) ;
#34 = LOCAL_TIME ( 23, 43, 17.00000000000000000, #135 ) ;
#35 = ORIENTED_EDGE ( 'NONE', *, *, #49, .T. ) ;
#36 = DIRECTION ( 'NONE',  ( -0.000000000000000000, -0.000000000000000000, -1.000000000000000000 ) ) ;
#37 = APPROVAL_PERSON_ORGANIZATION ( #11, #3, #90 ) ;
#38 = CIRCLE ( 'NONE', #110, 14.50000000000000000 ) ;
#39 = DIRECTION ( 'NONE',  ( 0.000000000000000000, 0.000000000000000000, 1.000000000000000000 ) ) ;
#40 = CARTESIAN_POINT ( 'NONE',  ( -14.50000000000000000, 0.000000000000000000, 5.000000000000000000 ) ) ;
#41 = APPROVAL_STATUS ( 'not_yet_approved' ) ;
#42 =( NAMED_UNIT ( * ) PLANE_ANGLE_UNIT ( ) SI_UNIT ( $, .RADIAN. ) );
#43 = DIRECTION ( 'NONE',  ( 1.000000000000000000, 0.000000000000000000, 0.000000000000000000 ) ) ;
#44 = PRODUCT_DEFINITION ( '未知', '', #165, #86 ) ;
#45 = AXIS2_PLACEMENT_3D ( 'NONE', #162, #101, #9 ) ;
#46 = SECURITY_CLASSIFICATION ( '', '', #2 ) ;
#47 = ORIENTED_EDGE ( 'NONE', *, *, #31, .F. ) ;
#48 = APPROVAL_ROLE ( '' ) ;
#49 = EDGE_CURVE ( 'NONE', #153, #140, #38, .T. ) ;
#50 = PERSON_AND_ORGANIZATION ( #98, #8 ) ;
#51 = DIRECTION ( 'NONE',  ( 1.000000000000000000, 0.000000000000000000, 0.000000000000000000 ) ) ;
#52 = ORIENTED_EDGE ( 'NONE', *, *, #80, .T. ) ;
#53 = PERSON_AND_ORGANIZATION ( #98, #8 ) ;
#54 = CARTESIAN_POINT ( 'NONE',  ( 14.50000000000000000, 1.775737858763662015E-15, 5.000000000000000000 ) ) ;
#55 = CIRCLE ( 'NONE', #149, 14.50000000000000000 ) ;
#56 = LOCAL_TIME ( 23, 43, 17.00000000000000000, #88 ) ;
#57 = APPROVAL_DATE_TIME ( #82, #3 ) ;
#58 = FACE_OUTER_BOUND ( 'NONE', #171, .T. ) ;
#59 = CC_DESIGN_DATE_AND_TIME_ASSIGNMENT ( #146, #94, ( #46 ) ) ;
#60 = CIRCLE ( 'NONE', #174, 14.50000000000000000 ) ;
#61 = EDGE_CURVE ( 'NONE', #140, #84, #157, .T. ) ;
#62 = CARTESIAN_POINT ( 'NONE',  ( 0.000000000000000000, 0.000000000000000000, 5.000000000000000000 ) ) ;
#63 = CARTESIAN_POINT ( 'NONE',  ( 0.000000000000000000, 0.000000000000000000, 0.000000000000000000 ) ) ;
#64 = AXIS2_PLACEMENT_3D ( 'NONE', #26, #83, #164 ) ;
#65 = DIRECTION ( 'NONE',  ( 0.000000000000000000, 0.000000000000000000, 1.000000000000000000 ) ) ;
#66 = CC_DESIGN_APPROVAL ( #95, ( #165 ) ) ;
#67 = CARTESIAN_POINT ( 'NONE',  ( 0.000000000000000000, 0.000000000000000000, 5.000000000000000000 ) ) ;
#68 = CYLINDRICAL_SURFACE ( 'NONE', #72, 14.50000000000000000 ) ;
#69 = CC_DESIGN_PERSON_AND_ORGANIZATION_ASSIGNMENT ( #53, #159, ( #46 ) ) ;
#70 = ADVANCED_FACE ( 'NONE', ( #156 ), #127, .T. ) ;
#71 = ORIENTED_EDGE ( 'NONE', *, *, #22, .F. ) ;
#72 = AXIS2_PLACEMENT_3D ( 'NONE', #123, #100, #97 ) ;
#73 = ORIENTED_EDGE ( 'NONE', *, *, #80, .F. ) ;
#74 = CC_DESIGN_SECURITY_CLASSIFICATION ( #46, ( #165 ) ) ;
#75 = COORDINATED_UNIVERSAL_TIME_OFFSET ( 8, 0, .AHEAD. ) ;
#76 = CARTESIAN_POINT ( 'NONE',  ( -14.50000000000000000, 0.000000000000000000, 0.000000000000000000 ) ) ;
#77 = EDGE_LOOP ( 'NONE', ( #175, #47 ) ) ;
#78 = PERSON_AND_ORGANIZATION_ROLE ( 'creator' ) ;
#79 = CARTESIAN_POINT ( 'NONE',  ( 0.000000000000000000, 0.000000000000000000, 0.000000000000000000 ) ) ;
#80 = EDGE_CURVE ( 'NONE', #140, #153, #60, .T. ) ;
#81 = APPROVAL_ROLE ( '' ) ;
#82 = DATE_AND_TIME ( #91, #170 ) ;
#83 = DIRECTION ( 'NONE',  ( 0.000000000000000000, 0.000000000000000000, 1.000000000000000000 ) ) ;
#84 = VERTEX_POINT ( 'NONE', #167 ) ;
#85 = CC_DESIGN_PERSON_AND_ORGANIZATION_ASSIGNMENT ( #23, #125, ( #116 ) ) ;
#86 = DESIGN_CONTEXT ( 'detailed design', #28, 'design' ) ;
#87 = CC_DESIGN_PERSON_AND_ORGANIZATION_ASSIGNMENT ( #5, #117, ( #165 ) ) ;
#88 = COORDINATED_UNIVERSAL_TIME_OFFSET ( 8, 0, .AHEAD. ) ;
#89 = APPROVAL_DATE_TIME ( #144, #96 ) ;
#90 = APPROVAL_ROLE ( '' ) ;
#91 = CALENDAR_DATE ( 2026, 26, 7 ) ;
#92 = VECTOR ( 'NONE', #36, 1000.000000000000000 ) ;
#93 = APPROVAL_PERSON_ORGANIZATION ( #50, #96, #48 ) ;
#94 = DATE_TIME_ROLE ( 'classification_date' ) ;
#95 = APPROVAL ( #25, '未指定' ) ;
#96 = APPROVAL ( #131, '未指定' ) ;
#97 = DIRECTION ( 'NONE',  ( -1.000000000000000000, 0.000000000000000000, 0.000000000000000000 ) ) ;
#98 = PERSON ( '未指定', '未指定', '未指定', ('未指定'), ('未指定'), ('未指定') ) ;
#99 = SHAPE_DEFINITION_REPRESENTATION ( #143, #13 ) ;
#100 = DIRECTION ( 'NONE',  ( -0.000000000000000000, -0.000000000000000000, -1.000000000000000000 ) ) ;
#101 = DIRECTION ( 'NONE',  ( 0.000000000000000000, 0.000000000000000000, 1.000000000000000000 ) ) ;
#102 =( NAMED_UNIT ( * ) SI_UNIT ( $, .STERADIAN. ) SOLID_ANGLE_UNIT ( ) );
#103 = PLANE ( 'NONE',  #141 ) ;
#104 = DIRECTION ( 'NONE',  ( 1.000000000000000000, 0.000000000000000000, 0.000000000000000000 ) ) ;
#105 = PERSON_AND_ORGANIZATION_ROLE ( 'design_supplier' ) ;
#106 = DIRECTION ( 'NONE',  ( -0.000000000000000000, -0.000000000000000000, -1.000000000000000000 ) ) ;
#107 = FACE_OUTER_BOUND ( 'NONE', #33, .T. ) ;
#108 = EDGE_CURVE ( 'NONE', #30, #84, #120, .T. ) ;
#109 = MECHANICAL_CONTEXT ( 'NONE', #16, 'mechanical' ) ;
#110 = AXIS2_PLACEMENT_3D ( 'NONE', #21, #118, #104 ) ;
#111 = APPROVAL_PERSON_ORGANIZATION ( #163, #95, #81 ) ;
#112 = APPLICATION_PROTOCOL_DEFINITION ( 'international standard', 'config_control_design', 1994, #28 ) ;
#113 = APPROVAL_DATE_TIME ( #126, #95 ) ;
#114 = ORIENTED_EDGE ( 'NONE', *, *, #22, .T. ) ;
#115 = VECTOR ( 'NONE', #106, 1000.000000000000000 ) ;
#116 = PRODUCT ( 'FN-IFC-005_m16-cap-envelope-D29x5_R0.6', 'FN-IFC-005_m16-cap-envelope-D29x5_R0.6', '', ( #109 ) ) ;
#117 = PERSON_AND_ORGANIZATION_ROLE ( 'creator' ) ;
#118 = DIRECTION ( 'NONE',  ( 0.000000000000000000, 0.000000000000000000, 1.000000000000000000 ) ) ;
#119 = CALENDAR_DATE ( 2026, 26, 7 ) ;
#120 = CIRCLE ( 'NONE', #24, 14.50000000000000000 ) ;
#121 = DIRECTION ( 'NONE',  ( 1.000000000000000000, 0.000000000000000000, -0.000000000000000000 ) ) ;
#122 = CLOSED_SHELL ( 'NONE', ( #137, #70, #172, #124 ) ) ;
#123 = CARTESIAN_POINT ( 'NONE',  ( 0.000000000000000000, 0.000000000000000000, 5.000000000000000000 ) ) ;
#124 = ADVANCED_FACE ( 'NONE', ( #12 ), #150, .F. ) ;
#125 = PERSON_AND_ORGANIZATION_ROLE ( 'design_owner' ) ;
#126 = DATE_AND_TIME ( #32, #18 ) ;
#127 = CYLINDRICAL_SURFACE ( 'NONE', #29, 14.50000000000000000 ) ;
#128 = DIRECTION ( 'NONE',  ( -0.000000000000000000, -0.000000000000000000, -1.000000000000000000 ) ) ;
#129 = CC_DESIGN_APPROVAL ( #96, ( #46 ) ) ;
#130 = ORIENTED_EDGE ( 'NONE', *, *, #108, .T. ) ;
#131 = APPROVAL_STATUS ( 'not_yet_approved' ) ;
#132 = EDGE_LOOP ( 'NONE', ( #139, #15, #114, #130 ) ) ;
#133 = PERSON_AND_ORGANIZATION ( #98, #8 ) ;
#134 = DATE_AND_TIME ( #119, #34 ) ;
#135 = COORDINATED_UNIVERSAL_TIME_OFFSET ( 8, 0, .AHEAD. ) ;
#136 = CC_DESIGN_PERSON_AND_ORGANIZATION_ASSIGNMENT ( #133, #78, ( #44 ) ) ;
#137 = ADVANCED_FACE ( 'NONE', ( #58 ), #68, .T. ) ;
#138 = LOCAL_TIME ( 23, 43, 17.00000000000000000, #75 ) ;
#139 = ORIENTED_EDGE ( 'NONE', *, *, #61, .F. ) ;
#140 = VERTEX_POINT ( 'NONE', #54 ) ;
#141 = AXIS2_PLACEMENT_3D ( 'NONE', #67, #151, #121 ) ;
#142 = LINE ( 'NONE', #1, #92 ) ;
#143 = PRODUCT_DEFINITION_SHAPE ( 'NONE', 'NONE',  #44 ) ;
#144 = DATE_AND_TIME ( #148, #138 ) ;
#145 = ORIENTED_EDGE ( 'NONE', *, *, #61, .T. ) ;
#146 = DATE_AND_TIME ( #19, #56 ) ;
#147 = COORDINATED_UNIVERSAL_TIME_OFFSET ( 8, 0, .AHEAD. ) ;
#148 = CALENDAR_DATE ( 2026, 26, 7 ) ;
#149 = AXIS2_PLACEMENT_3D ( 'NONE', #63, #39, #51 ) ;
#150 = PLANE ( 'NONE',  #45 ) ;
#151 = DIRECTION ( 'NONE',  ( 0.000000000000000000, 0.000000000000000000, 1.000000000000000000 ) ) ;
#152 =( LENGTH_UNIT ( ) NAMED_UNIT ( * ) SI_UNIT ( .MILLI., .METRE. ) );
#153 = VERTEX_POINT ( 'NONE', #40 ) ;
#154 = ORIENTED_EDGE ( 'NONE', *, *, #31, .T. ) ;
#155 = COORDINATED_UNIVERSAL_TIME_OFFSET ( 8, 0, .AHEAD. ) ;
#156 = FACE_OUTER_BOUND ( 'NONE', #132, .T. ) ;
#157 = LINE ( 'NONE', #4, #115 ) ;
#158 = DIRECTION ( 'NONE',  ( 0.000000000000000000, 0.000000000000000000, 1.000000000000000000 ) ) ;
#159 = PERSON_AND_ORGANIZATION_ROLE ( 'classification_officer' ) ;
#160 = DIRECTION ( 'NONE',  ( 1.000000000000000000, 0.000000000000000000, 0.000000000000000000 ) ) ;
#161 =( GEOMETRIC_REPRESENTATION_CONTEXT ( 3 ) GLOBAL_UNCERTAINTY_ASSIGNED_CONTEXT ( ( #10 ) ) GLOBAL_UNIT_ASSIGNED_CONTEXT ( ( #152, #42, #102 ) ) REPRESENTATION_CONTEXT ( 'NONE', 'WORKASPACE' ) );
#162 = CARTESIAN_POINT ( 'NONE',  ( 0.000000000000000000, 0.000000000000000000, 0.000000000000000000 ) ) ;
#163 = PERSON_AND_ORGANIZATION ( #98, #8 ) ;
#164 = DIRECTION ( 'NONE',  ( 1.000000000000000000, 0.000000000000000000, 0.000000000000000000 ) ) ;
#165 = PRODUCT_DEFINITION_FORMATION_WITH_SPECIFIED_SOURCE ( '任何', '', #116, .NOT_KNOWN. ) ;
#166 = MANIFOLD_SOLID_BREP ( '凸台-拉伸1', #122 ) ;
#167 = CARTESIAN_POINT ( 'NONE',  ( 14.50000000000000000, 1.775737858763662015E-15, 0.000000000000000000 ) ) ;
#168 = CC_DESIGN_PERSON_AND_ORGANIZATION_ASSIGNMENT ( #7, #105, ( #165 ) ) ;
#169 = PRODUCT_RELATED_PRODUCT_CATEGORY ( 'detail', '', ( #116 ) ) ;
#170 = LOCAL_TIME ( 23, 43, 17.00000000000000000, #147 ) ;
#171 = EDGE_LOOP ( 'NONE', ( #73, #145, #154, #71 ) ) ;
#172 = ADVANCED_FACE ( 'NONE', ( #107 ), #103, .T. ) ;
#173 = DIRECTION ( 'NONE',  ( -1.000000000000000000, 0.000000000000000000, 0.000000000000000000 ) ) ;
#174 = AXIS2_PLACEMENT_3D ( 'NONE', #62, #158, #160 ) ;
#175 = ORIENTED_EDGE ( 'NONE', *, *, #108, .F. ) ;
ENDSEC;
END-ISO-10303-21;
