ISO-10303-21;
HEADER;
FILE_DESCRIPTION (( 'STEP AP203' ),
    '1' );
FILE_NAME ('FN-IFC-003_sma-collar-envelope-D17x5_R0.6.STEP',
    '2026-07-26T15:43:06',
    ( '' ),
    ( '' ),
    'SwSTEP 2.0',
    'SolidWorks 2022',
    '' );
FILE_SCHEMA (( 'CONFIG_CONTROL_DESIGN' ));
ENDSEC;

DATA;
#1 = CARTESIAN_POINT ( 'NONE',  ( 8.500000000000000000, 1.040949779275250140E-15, 0.000000000000000000 ) ) ;
#2 = APPLICATION_CONTEXT ( 'configuration controlled 3d designs of mechanical parts and assemblies' ) ;
#3 = DIRECTION ( 'NONE',  ( 1.000000000000000000, 0.000000000000000000, 0.000000000000000000 ) ) ;
#4 = LINE ( 'NONE', #83, #99 ) ;
#5 = DATE_AND_TIME ( #121, #41 ) ;
#6 = CC_DESIGN_DATE_AND_TIME_ASSIGNMENT ( #5, #61, ( #110 ) ) ;
#7 = SECURITY_CLASSIFICATION_LEVEL ( 'unclassified' ) ;
#8 = DATE_AND_TIME ( #169, #60 ) ;
#9 = PERSON_AND_ORGANIZATION ( #55, #22 ) ;
#10 = VERTEX_POINT ( 'NONE', #130 ) ;
#11 = APPROVAL ( #37, '未指定' ) ;
#12 = EDGE_LOOP ( 'NONE', ( #96, #94 ) ) ;
#13 = ORIENTED_EDGE ( 'NONE', *, *, #172, .T. ) ;
#14 = ORIENTED_EDGE ( 'NONE', *, *, #32, .F. ) ;
#15 = EDGE_CURVE ( 'NONE', #79, #93, #116, .T. ) ;
#16 = DIRECTION ( 'NONE',  ( 0.000000000000000000, 0.000000000000000000, 1.000000000000000000 ) ) ;
#17 = DIRECTION ( 'NONE',  ( 1.000000000000000000, 0.000000000000000000, 0.000000000000000000 ) ) ;
#18 = DIRECTION ( 'NONE',  ( 1.000000000000000000, 0.000000000000000000, -0.000000000000000000 ) ) ;
#19 = APPROVAL_PERSON_ORGANIZATION ( #142, #124, #20 ) ;
#20 = APPROVAL_ROLE ( '' ) ;
#21 = ADVANCED_BREP_SHAPE_REPRESENTATION ( 'FN-IFC-003_sma-collar-envelope-D17x5_R0.6', ( #97, #170 ), #133 ) ;
#22 = ORGANIZATION ( '未指定', '未指定', '' ) ;
#23 = DIRECTION ( 'NONE',  ( 0.000000000000000000, 0.000000000000000000, 1.000000000000000000 ) ) ;
#24 = COORDINATED_UNIVERSAL_TIME_OFFSET ( 8, 0, .AHEAD. ) ;
#25 = PERSON_AND_ORGANIZATION_ROLE ( 'design_owner' ) ;
#26 = APPROVAL_DATE_TIME ( #8, #47 ) ;
#27 = CC_DESIGN_APPROVAL ( #47, ( #110 ) ) ;
#28 = ORIENTED_EDGE ( 'NONE', *, *, #119, .F. ) ;
#29 = CC_DESIGN_PERSON_AND_ORGANIZATION_ASSIGNMENT ( #145, #78, ( #56 ) ) ;
#30 = VERTEX_POINT ( 'NONE', #49 ) ;
#31 = SECURITY_CLASSIFICATION ( '', '', #7 ) ;
#32 = EDGE_CURVE ( 'NONE', #10, #30, #39, .T. ) ;
#33 = DIRECTION ( 'NONE',  ( -0.000000000000000000, -0.000000000000000000, -1.000000000000000000 ) ) ;
#34 = PLANE ( 'NONE',  #158 ) ;
#35 = APPROVAL_STATUS ( 'not_yet_approved' ) ;
#36 = CALENDAR_DATE ( 2026, 26, 7 ) ;
#37 = APPROVAL_STATUS ( 'not_yet_approved' ) ;
#38 = PERSON_AND_ORGANIZATION ( #55, #22 ) ;
#39 = CIRCLE ( 'NONE', #86, 8.500000000000000000 ) ;
#40 = DESIGN_CONTEXT ( 'detailed design', #81, 'design' ) ;
#41 = LOCAL_TIME ( 23, 43, 6.000000000000000000, #120 ) ;
#42 = CC_DESIGN_DATE_AND_TIME_ASSIGNMENT ( #90, #143, ( #31 ) ) ;
#43 = EDGE_LOOP ( 'NONE', ( #66, #14, #13, #59 ) ) ;
#44 = PRODUCT_DEFINITION_SHAPE ( 'NONE', 'NONE',  #110 ) ;
#45 =( LENGTH_UNIT ( ) NAMED_UNIT ( * ) SI_UNIT ( .MILLI., .METRE. ) );
#46 = ORIENTED_EDGE ( 'NONE', *, *, #15, .F. ) ;
#47 = APPROVAL ( #52, '未指定' ) ;
#48 = DIRECTION ( 'NONE',  ( 0.000000000000000000, 0.000000000000000000, 1.000000000000000000 ) ) ;
#49 = CARTESIAN_POINT ( 'NONE',  ( 8.500000000000000000, 1.040949779275250140E-15, 5.000000000000000000 ) ) ;
#50 = CC_DESIGN_APPROVAL ( #11, ( #56 ) ) ;
#51 = CARTESIAN_POINT ( 'NONE',  ( 0.000000000000000000, 0.000000000000000000, 5.000000000000000000 ) ) ;
#52 = APPROVAL_STATUS ( 'not_yet_approved' ) ;
#53 = MECHANICAL_CONTEXT ( 'NONE', #2, 'mechanical' ) ;
#54 = CALENDAR_DATE ( 2026, 26, 7 ) ;
#55 = PERSON ( '未指定', '未指定', '未指定', ('未指定'), ('未指定'), ('未指定') ) ;
#56 = PRODUCT_DEFINITION_FORMATION_WITH_SPECIFIED_SOURCE ( '任何', '', #128, .NOT_KNOWN. ) ;
#57 = CARTESIAN_POINT ( 'NONE',  ( 0.000000000000000000, 0.000000000000000000, 0.000000000000000000 ) ) ;
#58 = AXIS2_PLACEMENT_3D ( 'NONE', #162, #111, #150 ) ;
#59 = ORIENTED_EDGE ( 'NONE', *, *, #95, .T. ) ;
#60 = LOCAL_TIME ( 23, 43, 6.000000000000000000, #24 ) ;
#61 = DATE_TIME_ROLE ( 'creation_date' ) ;
#62 = SHAPE_DEFINITION_REPRESENTATION ( #44, #21 ) ;
#63 = DIRECTION ( 'NONE',  ( 1.000000000000000000, 0.000000000000000000, 0.000000000000000000 ) ) ;
#64 = PERSON_AND_ORGANIZATION_ROLE ( 'creator' ) ;
#65 = ORIENTED_EDGE ( 'NONE', *, *, #95, .F. ) ;
#66 = ORIENTED_EDGE ( 'NONE', *, *, #100, .F. ) ;
#67 = ORIENTED_EDGE ( 'NONE', *, *, #15, .T. ) ;
#68 = CC_DESIGN_PERSON_AND_ORGANIZATION_ASSIGNMENT ( #132, #25, ( #128 ) ) ;
#69 = DIRECTION ( 'NONE',  ( 0.000000000000000000, 0.000000000000000000, 1.000000000000000000 ) ) ;
#70 = CARTESIAN_POINT ( 'NONE',  ( 0.000000000000000000, 0.000000000000000000, 5.000000000000000000 ) ) ;
#71 = FACE_OUTER_BOUND ( 'NONE', #12, .T. ) ;
#72 = LOCAL_TIME ( 23, 43, 6.000000000000000000, #92 ) ;
#73 = APPROVAL_DATE_TIME ( #165, #124 ) ;
#74 = CC_DESIGN_PERSON_AND_ORGANIZATION_ASSIGNMENT ( #91, #135, ( #31 ) ) ;
#75 = LOCAL_TIME ( 23, 43, 6.000000000000000000, #164 ) ;
#76 = AXIS2_PLACEMENT_3D ( 'NONE', #98, #48, #129 ) ;
#77 = APPROVAL_ROLE ( '' ) ;
#78 = PERSON_AND_ORGANIZATION_ROLE ( 'design_supplier' ) ;
#79 = VERTEX_POINT ( 'NONE', #1 ) ;
#80 = CC_DESIGN_SECURITY_CLASSIFICATION ( #31, ( #56 ) ) ;
#81 = APPLICATION_CONTEXT ( 'configuration controlled 3d designs of mechanical parts and assemblies' ) ;
#82 = AXIS2_PLACEMENT_3D ( 'NONE', #57, #69, #3 ) ;
#83 = CARTESIAN_POINT ( 'NONE',  ( -8.500000000000000000, 0.000000000000000000, 5.000000000000000000 ) ) ;
#84 = LOCAL_TIME ( 23, 43, 6.000000000000000000, #152 ) ;
#85 =( NAMED_UNIT ( * ) PLANE_ANGLE_UNIT ( ) SI_UNIT ( $, .RADIAN. ) );
#86 = AXIS2_PLACEMENT_3D ( 'NONE', #70, #104, #17 ) ;
#87 = CARTESIAN_POINT ( 'NONE',  ( 0.000000000000000000, 0.000000000000000000, 0.000000000000000000 ) ) ;
#88 = DIRECTION ( 'NONE',  ( 0.000000000000000000, 0.000000000000000000, 1.000000000000000000 ) ) ;
#89 = PERSON_AND_ORGANIZATION_ROLE ( 'creator' ) ;
#90 = DATE_AND_TIME ( #36, #75 ) ;
#91 = PERSON_AND_ORGANIZATION ( #55, #22 ) ;
#92 = COORDINATED_UNIVERSAL_TIME_OFFSET ( 8, 0, .AHEAD. ) ;
#93 = VERTEX_POINT ( 'NONE', #138 ) ;
#94 = ORIENTED_EDGE ( 'NONE', *, *, #119, .T. ) ;
#95 = EDGE_CURVE ( 'NONE', #93, #79, #157, .T. ) ;
#96 = ORIENTED_EDGE ( 'NONE', *, *, #32, .T. ) ;
#97 = MANIFOLD_SOLID_BREP ( '凸台-拉伸1', #144 ) ;
#98 = CARTESIAN_POINT ( 'NONE',  ( 0.000000000000000000, 0.000000000000000000, 0.000000000000000000 ) ) ;
#99 = VECTOR ( 'NONE', #175, 1000.000000000000000 ) ;
#100 = EDGE_CURVE ( 'NONE', #30, #79, #148, .T. ) ;
#101 = DIRECTION ( 'NONE',  ( 1.000000000000000000, 0.000000000000000000, -0.000000000000000000 ) ) ;
#102 = CARTESIAN_POINT ( 'NONE',  ( 8.500000000000000000, 1.040949779275250140E-15, 5.000000000000000000 ) ) ;
#103 = AXIS2_PLACEMENT_3D ( 'NONE', #117, #161, #163 ) ;
#104 = DIRECTION ( 'NONE',  ( 0.000000000000000000, 0.000000000000000000, 1.000000000000000000 ) ) ;
#105 = FACE_OUTER_BOUND ( 'NONE', #159, .T. ) ;
#106 = CC_DESIGN_PERSON_AND_ORGANIZATION_ASSIGNMENT ( #108, #89, ( #56 ) ) ;
#107 = APPROVAL_DATE_TIME ( #168, #11 ) ;
#108 = PERSON_AND_ORGANIZATION ( #55, #22 ) ;
#109 = APPROVAL_PERSON_ORGANIZATION ( #118, #11, #77 ) ;
#110 = PRODUCT_DEFINITION ( '未知', '', #56, #40 ) ;
#111 = DIRECTION ( 'NONE',  ( -0.000000000000000000, -0.000000000000000000, -1.000000000000000000 ) ) ;
#112 = CYLINDRICAL_SURFACE ( 'NONE', #58, 8.500000000000000000 ) ;
#113 = CYLINDRICAL_SURFACE ( 'NONE', #137, 8.500000000000000000 ) ;
#114 = ADVANCED_FACE ( 'NONE', ( #126 ), #112, .T. ) ;
#115 = DIRECTION ( 'NONE',  ( -0.000000000000000000, -0.000000000000000000, -1.000000000000000000 ) ) ;
#116 = CIRCLE ( 'NONE', #82, 8.500000000000000000 ) ;
#117 = CARTESIAN_POINT ( 'NONE',  ( 0.000000000000000000, 0.000000000000000000, 5.000000000000000000 ) ) ;
#118 = PERSON_AND_ORGANIZATION ( #55, #22 ) ;
#119 = EDGE_CURVE ( 'NONE', #30, #10, #173, .T. ) ;
#120 = COORDINATED_UNIVERSAL_TIME_OFFSET ( 8, 0, .AHEAD. ) ;
#121 = CALENDAR_DATE ( 2026, 26, 7 ) ;
#122 = APPLICATION_PROTOCOL_DEFINITION ( 'international standard', 'config_control_design', 1994, #81 ) ;
#123 = APPROVAL_PERSON_ORGANIZATION ( #38, #47, #167 ) ;
#124 = APPROVAL ( #35, '未指定' ) ;
#125 = AXIS2_PLACEMENT_3D ( 'NONE', #131, #16, #101 ) ;
#126 = FACE_OUTER_BOUND ( 'NONE', #43, .T. ) ;
#127 =( NAMED_UNIT ( * ) SI_UNIT ( $, .STERADIAN. ) SOLID_ANGLE_UNIT ( ) );
#128 = PRODUCT ( 'FN-IFC-003_sma-collar-envelope-D17x5_R0.6', 'FN-IFC-003_sma-collar-envelope-D17x5_R0.6', '', ( #53 ) ) ;
#129 = DIRECTION ( 'NONE',  ( 1.000000000000000000, 0.000000000000000000, 0.000000000000000000 ) ) ;
#130 = CARTESIAN_POINT ( 'NONE',  ( -8.500000000000000000, 0.000000000000000000, 5.000000000000000000 ) ) ;
#131 = CARTESIAN_POINT ( 'NONE',  ( 0.000000000000000000, 0.000000000000000000, 5.000000000000000000 ) ) ;
#132 = PERSON_AND_ORGANIZATION ( #55, #22 ) ;
#133 =( GEOMETRIC_REPRESENTATION_CONTEXT ( 3 ) GLOBAL_UNCERTAINTY_ASSIGNED_CONTEXT ( ( #156 ) ) GLOBAL_UNIT_ASSIGNED_CONTEXT ( ( #45, #85, #127 ) ) REPRESENTATION_CONTEXT ( 'NONE', 'WORKASPACE' ) );
#134 = CALENDAR_DATE ( 2026, 26, 7 ) ;
#135 = PERSON_AND_ORGANIZATION_ROLE ( 'classification_officer' ) ;
#136 = VECTOR ( 'NONE', #115, 1000.000000000000000 ) ;
#137 = AXIS2_PLACEMENT_3D ( 'NONE', #51, #33, #149 ) ;
#138 = CARTESIAN_POINT ( 'NONE',  ( -8.500000000000000000, 0.000000000000000000, 0.000000000000000000 ) ) ;
#139 = ADVANCED_FACE ( 'NONE', ( #105 ), #113, .T. ) ;
#140 = APPLICATION_PROTOCOL_DEFINITION ( 'international standard', 'config_control_design', 1994, #2 ) ;
#141 = FACE_OUTER_BOUND ( 'NONE', #171, .T. ) ;
#142 = PERSON_AND_ORGANIZATION ( #55, #22 ) ;
#143 = DATE_TIME_ROLE ( 'classification_date' ) ;
#144 = CLOSED_SHELL ( 'NONE', ( #139, #114, #154, #151 ) ) ;
#145 = PERSON_AND_ORGANIZATION ( #55, #22 ) ;
#146 = ORIENTED_EDGE ( 'NONE', *, *, #100, .T. ) ;
#147 = ORIENTED_EDGE ( 'NONE', *, *, #172, .F. ) ;
#148 = LINE ( 'NONE', #102, #136 ) ;
#149 = DIRECTION ( 'NONE',  ( -1.000000000000000000, 0.000000000000000000, 0.000000000000000000 ) ) ;
#150 = DIRECTION ( 'NONE',  ( -1.000000000000000000, 0.000000000000000000, 0.000000000000000000 ) ) ;
#151 = ADVANCED_FACE ( 'NONE', ( #141 ), #34, .F. ) ;
#152 = COORDINATED_UNIVERSAL_TIME_OFFSET ( 8, 0, .AHEAD. ) ;
#153 = CC_DESIGN_APPROVAL ( #124, ( #31 ) ) ;
#154 = ADVANCED_FACE ( 'NONE', ( #71 ), #174, .T. ) ;
#155 = CARTESIAN_POINT ( 'NONE',  ( 0.000000000000000000, 0.000000000000000000, 0.000000000000000000 ) ) ;
#156 = UNCERTAINTY_MEASURE_WITH_UNIT (LENGTH_MEASURE( 1.000000000000000082E-05 ), #45, 'distance_accuracy_value', 'NONE');
#157 = CIRCLE ( 'NONE', #76, 8.500000000000000000 ) ;
#158 = AXIS2_PLACEMENT_3D ( 'NONE', #87, #88, #18 ) ;
#159 = EDGE_LOOP ( 'NONE', ( #28, #146, #67, #147 ) ) ;
#160 = PRODUCT_RELATED_PRODUCT_CATEGORY ( 'detail', '', ( #128 ) ) ;
#161 = DIRECTION ( 'NONE',  ( 0.000000000000000000, 0.000000000000000000, 1.000000000000000000 ) ) ;
#162 = CARTESIAN_POINT ( 'NONE',  ( 0.000000000000000000, 0.000000000000000000, 5.000000000000000000 ) ) ;
#163 = DIRECTION ( 'NONE',  ( 1.000000000000000000, 0.000000000000000000, 0.000000000000000000 ) ) ;
#164 = COORDINATED_UNIVERSAL_TIME_OFFSET ( 8, 0, .AHEAD. ) ;
#165 = DATE_AND_TIME ( #134, #72 ) ;
#166 = CC_DESIGN_PERSON_AND_ORGANIZATION_ASSIGNMENT ( #9, #64, ( #110 ) ) ;
#167 = APPROVAL_ROLE ( '' ) ;
#168 = DATE_AND_TIME ( #54, #84 ) ;
#169 = CALENDAR_DATE ( 2026, 26, 7 ) ;
#170 = AXIS2_PLACEMENT_3D ( 'NONE', #155, #23, #63 ) ;
#171 = EDGE_LOOP ( 'NONE', ( #65, #46 ) ) ;
#172 = EDGE_CURVE ( 'NONE', #10, #93, #4, .T. ) ;
#173 = CIRCLE ( 'NONE', #103, 8.500000000000000000 ) ;
#174 = PLANE ( 'NONE',  #125 ) ;
#175 = DIRECTION ( 'NONE',  ( -0.000000000000000000, -0.000000000000000000, -1.000000000000000000 ) ) ;
ENDSEC;
END-ISO-10303-21;
