ISO-10303-21;
HEADER;
FILE_DESCRIPTION (( 'STEP AP203' ),
    '1' );
FILE_NAME ('FN-IFC-004_m16-gland-envelope-D24x34_R0.6.STEP',
    '2026-07-26T15:43:12',
    ( '' ),
    ( '' ),
    'SwSTEP 2.0',
    'SolidWorks 2022',
    '' );
FILE_SCHEMA (( 'CONFIG_CONTROL_DESIGN' ));
ENDSEC;

DATA;
#1 = ORIENTED_EDGE ( 'NONE', *, *, #27, .F. ) ;
#2 = CARTESIAN_POINT ( 'NONE',  ( 12.00000000000000178, 1.469576158976824144E-15, 34.00000000000000000 ) ) ;
#3 = ORIENTED_EDGE ( 'NONE', *, *, #119, .T. ) ;
#4 = CARTESIAN_POINT ( 'NONE',  ( -12.00000000000000178, 0.000000000000000000, 0.000000000000000000 ) ) ;
#5 = CYLINDRICAL_SURFACE ( 'NONE', #82, 12.00000000000000178 ) ;
#6 = DIRECTION ( 'NONE',  ( 0.000000000000000000, 0.000000000000000000, 1.000000000000000000 ) ) ;
#7 = AXIS2_PLACEMENT_3D ( 'NONE', #165, #95, #141 ) ;
#8 = APPROVAL_ROLE ( '' ) ;
#9 = COORDINATED_UNIVERSAL_TIME_OFFSET ( 8, 0, .AHEAD. ) ;
#10 = CC_DESIGN_PERSON_AND_ORGANIZATION_ASSIGNMENT ( #86, #69, ( #83 ) ) ;
#11 = CALENDAR_DATE ( 2026, 26, 7 ) ;
#12 = DATE_AND_TIME ( #170, #171 ) ;
#13 = DESIGN_CONTEXT ( 'detailed design', #64, 'design' ) ;
#14 = APPROVAL_DATE_TIME ( #25, #16 ) ;
#15 = DIRECTION ( 'NONE',  ( -0.000000000000000000, -0.000000000000000000, -1.000000000000000000 ) ) ;
#16 = APPROVAL ( #124, '未指定' ) ;
#17 = COORDINATED_UNIVERSAL_TIME_OFFSET ( 8, 0, .AHEAD. ) ;
#18 = DIRECTION ( 'NONE',  ( -0.000000000000000000, -0.000000000000000000, -1.000000000000000000 ) ) ;
#19 = DIRECTION ( 'NONE',  ( 0.000000000000000000, 0.000000000000000000, 1.000000000000000000 ) ) ;
#20 = DIRECTION ( 'NONE',  ( 1.000000000000000000, 0.000000000000000000, -0.000000000000000000 ) ) ;
#21 = AXIS2_PLACEMENT_3D ( 'NONE', #98, #52, #143 ) ;
#22 = DIRECTION ( 'NONE',  ( 0.000000000000000000, 0.000000000000000000, 1.000000000000000000 ) ) ;
#23 = CC_DESIGN_APPROVAL ( #26, ( #83 ) ) ;
#24 = CIRCLE ( 'NONE', #73, 12.00000000000000178 ) ;
#25 = DATE_AND_TIME ( #11, #145 ) ;
#26 = APPROVAL ( #102, '未指定' ) ;
#27 = EDGE_CURVE ( 'NONE', #131, #62, #50, .T. ) ;
#28 = UNCERTAINTY_MEASURE_WITH_UNIT (LENGTH_MEASURE( 1.000000000000000082E-05 ), #133, 'distance_accuracy_value', 'NONE');
#29 = LOCAL_TIME ( 23, 43, 12.00000000000000000, #168 ) ;
#30 = CC_DESIGN_SECURITY_CLASSIFICATION ( #126, ( #83 ) ) ;
#31 = EDGE_LOOP ( 'NONE', ( #79, #155, #33, #58 ) ) ;
#32 = PERSON_AND_ORGANIZATION_ROLE ( 'creator' ) ;
#33 = ORIENTED_EDGE ( 'NONE', *, *, #89, .T. ) ;
#34 = PLANE ( 'NONE',  #162 ) ;
#35 = ORIENTED_EDGE ( 'NONE', *, *, #89, .F. ) ;
#36 = DIRECTION ( 'NONE',  ( 1.000000000000000000, 0.000000000000000000, 0.000000000000000000 ) ) ;
#37 = CARTESIAN_POINT ( 'NONE',  ( 0.000000000000000000, 0.000000000000000000, 34.00000000000000000 ) ) ;
#38 = CIRCLE ( 'NONE', #148, 12.00000000000000178 ) ;
#39 = DIRECTION ( 'NONE',  ( 1.000000000000000000, 0.000000000000000000, 0.000000000000000000 ) ) ;
#40 = APPROVAL_ROLE ( '' ) ;
#41 = PERSON_AND_ORGANIZATION_ROLE ( 'creator' ) ;
#42 = APPROVAL_ROLE ( '' ) ;
#43 = PRODUCT_DEFINITION ( '未知', '', #83, #13 ) ;
#44 = ORIENTED_EDGE ( 'NONE', *, *, #112, .T. ) ;
#45 =( GEOMETRIC_REPRESENTATION_CONTEXT ( 3 ) GLOBAL_UNCERTAINTY_ASSIGNED_CONTEXT ( ( #28 ) ) GLOBAL_UNIT_ASSIGNED_CONTEXT ( ( #133, #106, #99 ) ) REPRESENTATION_CONTEXT ( 'NONE', 'WORKASPACE' ) );
#46 = APPROVAL_PERSON_ORGANIZATION ( #71, #16, #42 ) ;
#47 = CARTESIAN_POINT ( 'NONE',  ( -12.00000000000000178, 0.000000000000000000, 34.00000000000000000 ) ) ;
#48 = DIRECTION ( 'NONE',  ( -0.000000000000000000, -0.000000000000000000, -1.000000000000000000 ) ) ;
#49 = DIRECTION ( 'NONE',  ( -1.000000000000000000, 0.000000000000000000, 0.000000000000000000 ) ) ;
#50 = LINE ( 'NONE', #107, #169 ) ;
#51 = DIRECTION ( 'NONE',  ( 0.000000000000000000, 0.000000000000000000, 1.000000000000000000 ) ) ;
#52 = DIRECTION ( 'NONE',  ( 0.000000000000000000, 0.000000000000000000, 1.000000000000000000 ) ) ;
#53 = APPROVAL_DATE_TIME ( #122, #153 ) ;
#54 = PERSON_AND_ORGANIZATION ( #175, #75 ) ;
#55 = DATE_TIME_ROLE ( 'creation_date' ) ;
#56 = CC_DESIGN_DATE_AND_TIME_ASSIGNMENT ( #156, #55, ( #43 ) ) ;
#57 = ADVANCED_FACE ( 'NONE', ( #97 ), #60, .T. ) ;
#58 = ORIENTED_EDGE ( 'NONE', *, *, #112, .F. ) ;
#59 = PRODUCT_DEFINITION_SHAPE ( 'NONE', 'NONE',  #43 ) ;
#60 = CYLINDRICAL_SURFACE ( 'NONE', #150, 12.00000000000000178 ) ;
#61 = ORIENTED_EDGE ( 'NONE', *, *, #159, .F. ) ;
#62 = VERTEX_POINT ( 'NONE', #116 ) ;
#63 = CARTESIAN_POINT ( 'NONE',  ( 0.000000000000000000, 0.000000000000000000, 34.00000000000000000 ) ) ;
#64 = APPLICATION_CONTEXT ( 'configuration controlled 3d designs of mechanical parts and assemblies' ) ;
#65 = FACE_OUTER_BOUND ( 'NONE', #120, .T. ) ;
#66 = CLOSED_SHELL ( 'NONE', ( #57, #167, #140, #138 ) ) ;
#67 = CALENDAR_DATE ( 2026, 26, 7 ) ;
#68 = PRODUCT_RELATED_PRODUCT_CATEGORY ( 'detail', '', ( #94 ) ) ;
#69 = PERSON_AND_ORGANIZATION_ROLE ( 'design_supplier' ) ;
#70 = PERSON_AND_ORGANIZATION ( #175, #75 ) ;
#71 = PERSON_AND_ORGANIZATION ( #175, #75 ) ;
#72 = AXIS2_PLACEMENT_3D ( 'NONE', #77, #51, #39 ) ;
#73 = AXIS2_PLACEMENT_3D ( 'NONE', #104, #151, #36 ) ;
#74 = ORIENTED_EDGE ( 'NONE', *, *, #159, .T. ) ;
#75 = ORGANIZATION ( '未指定', '未指定', '' ) ;
#76 = ORIENTED_EDGE ( 'NONE', *, *, #123, .F. ) ;
#77 = CARTESIAN_POINT ( 'NONE',  ( 0.000000000000000000, 0.000000000000000000, 0.000000000000000000 ) ) ;
#78 = CC_DESIGN_PERSON_AND_ORGANIZATION_ASSIGNMENT ( #160, #41, ( #83 ) ) ;
#79 = ORIENTED_EDGE ( 'NONE', *, *, #119, .F. ) ;
#80 = DIRECTION ( 'NONE',  ( -0.000000000000000000, -0.000000000000000000, -1.000000000000000000 ) ) ;
#81 = DIRECTION ( 'NONE',  ( 1.000000000000000000, 0.000000000000000000, -0.000000000000000000 ) ) ;
#82 = AXIS2_PLACEMENT_3D ( 'NONE', #63, #80, #49 ) ;
#83 = PRODUCT_DEFINITION_FORMATION_WITH_SPECIFIED_SOURCE ( '任何', '', #94, .NOT_KNOWN. ) ;
#84 = APPLICATION_PROTOCOL_DEFINITION ( 'international standard', 'config_control_design', 1994, #158 ) ;
#85 = ADVANCED_BREP_SHAPE_REPRESENTATION ( 'FN-IFC-004_m16-gland-envelope-D24x34_R0.6', ( #154, #72 ), #45 ) ;
#86 = PERSON_AND_ORGANIZATION ( #175, #75 ) ;
#87 = CALENDAR_DATE ( 2026, 26, 7 ) ;
#88 = AXIS2_PLACEMENT_3D ( 'NONE', #92, #6, #81 ) ;
#89 = EDGE_CURVE ( 'NONE', #62, #132, #161, .T. ) ;
#90 = CC_DESIGN_DATE_AND_TIME_ASSIGNMENT ( #12, #137, ( #126 ) ) ;
#91 = VERTEX_POINT ( 'NONE', #163 ) ;
#92 = CARTESIAN_POINT ( 'NONE',  ( 0.000000000000000000, 0.000000000000000000, 0.000000000000000000 ) ) ;
#93 = CC_DESIGN_PERSON_AND_ORGANIZATION_ASSIGNMENT ( #157, #100, ( #94 ) ) ;
#94 = PRODUCT ( 'FN-IFC-004_m16-gland-envelope-D24x34_R0.6', 'FN-IFC-004_m16-gland-envelope-D24x34_R0.6', '', ( #109 ) ) ;
#95 = DIRECTION ( 'NONE',  ( 0.000000000000000000, 0.000000000000000000, 1.000000000000000000 ) ) ;
#96 = FACE_OUTER_BOUND ( 'NONE', #149, .T. ) ;
#97 = FACE_OUTER_BOUND ( 'NONE', #31, .T. ) ;
#98 = CARTESIAN_POINT ( 'NONE',  ( 0.000000000000000000, 0.000000000000000000, 34.00000000000000000 ) ) ;
#99 =( NAMED_UNIT ( * ) SI_UNIT ( $, .STERADIAN. ) SOLID_ANGLE_UNIT ( ) );
#100 = PERSON_AND_ORGANIZATION_ROLE ( 'design_owner' ) ;
#101 = SHAPE_DEFINITION_REPRESENTATION ( #59, #85 ) ;
#102 = APPROVAL_STATUS ( 'not_yet_approved' ) ;
#103 = LOCAL_TIME ( 23, 43, 12.00000000000000000, #9 ) ;
#104 = CARTESIAN_POINT ( 'NONE',  ( 0.000000000000000000, 0.000000000000000000, 34.00000000000000000 ) ) ;
#105 = DIRECTION ( 'NONE',  ( -1.000000000000000000, 0.000000000000000000, 0.000000000000000000 ) ) ;
#106 =( NAMED_UNIT ( * ) PLANE_ANGLE_UNIT ( ) SI_UNIT ( $, .RADIAN. ) );
#107 = CARTESIAN_POINT ( 'NONE',  ( 12.00000000000000178, 1.469576158976824144E-15, 34.00000000000000000 ) ) ;
#108 = CALENDAR_DATE ( 2026, 26, 7 ) ;
#109 = MECHANICAL_CONTEXT ( 'NONE', #158, 'mechanical' ) ;
#110 = CC_DESIGN_APPROVAL ( #153, ( #43 ) ) ;
#111 = PERSON_AND_ORGANIZATION ( #175, #75 ) ;
#112 = EDGE_CURVE ( 'NONE', #91, #132, #142, .T. ) ;
#113 = APPROVAL_DATE_TIME ( #114, #26 ) ;
#114 = DATE_AND_TIME ( #87, #103 ) ;
#115 = CC_DESIGN_APPROVAL ( #16, ( #126 ) ) ;
#116 = CARTESIAN_POINT ( 'NONE',  ( 12.00000000000000178, 1.469576158976824144E-15, 0.000000000000000000 ) ) ;
#117 = CARTESIAN_POINT ( 'NONE',  ( 0.000000000000000000, 0.000000000000000000, 34.00000000000000000 ) ) ;
#118 = APPROVAL_STATUS ( 'not_yet_approved' ) ;
#119 = EDGE_CURVE ( 'NONE', #131, #91, #24, .T. ) ;
#120 = EDGE_LOOP ( 'NONE', ( #127, #3 ) ) ;
#121 = APPLICATION_PROTOCOL_DEFINITION ( 'international standard', 'config_control_design', 1994, #64 ) ;
#122 = DATE_AND_TIME ( #67, #29 ) ;
#123 = EDGE_CURVE ( 'NONE', #91, #131, #164, .T. ) ;
#124 = APPROVAL_STATUS ( 'not_yet_approved' ) ;
#125 = PERSON_AND_ORGANIZATION_ROLE ( 'classification_officer' ) ;
#126 = SECURITY_CLASSIFICATION ( '', '', #139 ) ;
#127 = ORIENTED_EDGE ( 'NONE', *, *, #123, .T. ) ;
#128 = CC_DESIGN_PERSON_AND_ORGANIZATION_ASSIGNMENT ( #111, #32, ( #43 ) ) ;
#129 = CC_DESIGN_PERSON_AND_ORGANIZATION_ASSIGNMENT ( #70, #125, ( #126 ) ) ;
#130 = LOCAL_TIME ( 23, 43, 12.00000000000000000, #17 ) ;
#131 = VERTEX_POINT ( 'NONE', #2 ) ;
#132 = VERTEX_POINT ( 'NONE', #4 ) ;
#133 =( LENGTH_UNIT ( ) NAMED_UNIT ( * ) SI_UNIT ( .MILLI., .METRE. ) );
#134 = CARTESIAN_POINT ( 'NONE',  ( 0.000000000000000000, 0.000000000000000000, 0.000000000000000000 ) ) ;
#135 = APPROVAL_PERSON_ORGANIZATION ( #54, #26, #40 ) ;
#136 = PERSON_AND_ORGANIZATION ( #175, #75 ) ;
#137 = DATE_TIME_ROLE ( 'classification_date' ) ;
#138 = ADVANCED_FACE ( 'NONE', ( #96 ), #144, .F. ) ;
#139 = SECURITY_CLASSIFICATION_LEVEL ( 'unclassified' ) ;
#140 = ADVANCED_FACE ( 'NONE', ( #65 ), #34, .T. ) ;
#141 = DIRECTION ( 'NONE',  ( 1.000000000000000000, 0.000000000000000000, 0.000000000000000000 ) ) ;
#142 = LINE ( 'NONE', #47, #173 ) ;
#143 = DIRECTION ( 'NONE',  ( 1.000000000000000000, 0.000000000000000000, 0.000000000000000000 ) ) ;
#144 = PLANE ( 'NONE',  #88 ) ;
#145 = LOCAL_TIME ( 23, 43, 12.00000000000000000, #172 ) ;
#146 = FACE_OUTER_BOUND ( 'NONE', #152, .T. ) ;
#147 = COORDINATED_UNIVERSAL_TIME_OFFSET ( 8, 0, .AHEAD. ) ;
#148 = AXIS2_PLACEMENT_3D ( 'NONE', #134, #19, #166 ) ;
#149 = EDGE_LOOP ( 'NONE', ( #61, #35 ) ) ;
#150 = AXIS2_PLACEMENT_3D ( 'NONE', #117, #48, #105 ) ;
#151 = DIRECTION ( 'NONE',  ( 0.000000000000000000, 0.000000000000000000, 1.000000000000000000 ) ) ;
#152 = EDGE_LOOP ( 'NONE', ( #1, #76, #44, #74 ) ) ;
#153 = APPROVAL ( #118, '未指定' ) ;
#154 = MANIFOLD_SOLID_BREP ( '凸台-拉伸1', #66 ) ;
#155 = ORIENTED_EDGE ( 'NONE', *, *, #27, .T. ) ;
#156 = DATE_AND_TIME ( #108, #130 ) ;
#157 = PERSON_AND_ORGANIZATION ( #175, #75 ) ;
#158 = APPLICATION_CONTEXT ( 'configuration controlled 3d designs of mechanical parts and assemblies' ) ;
#159 = EDGE_CURVE ( 'NONE', #132, #62, #38, .T. ) ;
#160 = PERSON_AND_ORGANIZATION ( #175, #75 ) ;
#161 = CIRCLE ( 'NONE', #7, 12.00000000000000178 ) ;
#162 = AXIS2_PLACEMENT_3D ( 'NONE', #37, #22, #20 ) ;
#163 = CARTESIAN_POINT ( 'NONE',  ( -12.00000000000000178, 0.000000000000000000, 34.00000000000000000 ) ) ;
#164 = CIRCLE ( 'NONE', #21, 12.00000000000000178 ) ;
#165 = CARTESIAN_POINT ( 'NONE',  ( 0.000000000000000000, 0.000000000000000000, 0.000000000000000000 ) ) ;
#166 = DIRECTION ( 'NONE',  ( 1.000000000000000000, 0.000000000000000000, 0.000000000000000000 ) ) ;
#167 = ADVANCED_FACE ( 'NONE', ( #146 ), #5, .T. ) ;
#168 = COORDINATED_UNIVERSAL_TIME_OFFSET ( 8, 0, .AHEAD. ) ;
#169 = VECTOR ( 'NONE', #15, 1000.000000000000000 ) ;
#170 = CALENDAR_DATE ( 2026, 26, 7 ) ;
#171 = LOCAL_TIME ( 23, 43, 12.00000000000000000, #147 ) ;
#172 = COORDINATED_UNIVERSAL_TIME_OFFSET ( 8, 0, .AHEAD. ) ;
#173 = VECTOR ( 'NONE', #18, 1000.000000000000000 ) ;
#174 = APPROVAL_PERSON_ORGANIZATION ( #136, #153, #8 ) ;
#175 = PERSON ( '未指定', '未指定', '未指定', ('未指定'), ('未指定'), ('未指定') ) ;
ENDSEC;
END-ISO-10303-21;
