ISO-10303-21;
HEADER;
FILE_DESCRIPTION (( 'STEP AP203' ),
    '1' );
FILE_NAME ('FN-SOL-005_swm10w-active-face_R0.6.STEP',
    '2026-07-26T15:42:13',
    ( '' ),
    ( '' ),
    'SwSTEP 2.0',
    'SolidWorks 2022',
    '' );
FILE_SCHEMA (( 'CONFIG_CONTROL_DESIGN' ));
ENDSEC;

DATA;
#1 = LINE ( 'NONE', #56, #166 ) ;
#2 = CARTESIAN_POINT ( 'NONE',  ( 133.0000000000000000, 4.000000000000000000, 108.0000000000000000 ) ) ;
#3 = PLANE ( 'NONE',  #196 ) ;
#4 = APPROVAL_PERSON_ORGANIZATION ( #137, #101, #105 ) ;
#5 = EDGE_CURVE ( 'NONE', #182, #176, #236, .T. ) ;
#6 = DIRECTION ( 'NONE',  ( 0.000000000000000000, -0.000000000000000000, -1.000000000000000000 ) ) ;
#7 = CARTESIAN_POINT ( 'NONE',  ( -133.0000000000000000, 0.000000000000000000, -108.0000000000000000 ) ) ;
#8 = CALENDAR_DATE ( 2026, 26, 7 ) ;
#9 = APPROVAL_STATUS ( 'not_yet_approved' ) ;
#10 = ORIENTED_EDGE ( 'NONE', *, *, #78, .T. ) ;
#11 = PERSON_AND_ORGANIZATION ( #141, #216 ) ;
#12 = VECTOR ( 'NONE', #162, 1000.000000000000000 ) ;
#13 = APPLICATION_CONTEXT ( 'configuration controlled 3d designs of mechanical parts and assemblies' ) ;
#14 = ORIENTED_EDGE ( 'NONE', *, *, #108, .T. ) ;
#15 = DIRECTION ( 'NONE',  ( 0.000000000000000000, 0.000000000000000000, -1.000000000000000000 ) ) ;
#16 = EDGE_CURVE ( 'NONE', #125, #66, #55, .T. ) ;
#17 = LINE ( 'NONE', #127, #52 ) ;
#18 = CARTESIAN_POINT ( 'NONE',  ( -133.0000000000000000, 4.000000000000000000, 108.0000000000000000 ) ) ;
#19 = DIRECTION ( 'NONE',  ( -0.000000000000000000, -1.000000000000000000, -0.000000000000000000 ) ) ;
#20 = DATE_AND_TIME ( #202, #71 ) ;
#21 = PLANE ( 'NONE',  #25 ) ;
#22 = CC_DESIGN_SECURITY_CLASSIFICATION ( #211, ( #38 ) ) ;
#23 = CARTESIAN_POINT ( 'NONE',  ( 0.000000000000000000, 0.000000000000000000, 0.000000000000000000 ) ) ;
#24 = APPROVAL_ROLE ( '' ) ;
#25 = AXIS2_PLACEMENT_3D ( 'NONE', #131, #154, #133 ) ;
#26 = PERSON_AND_ORGANIZATION ( #141, #216 ) ;
#27 = CC_DESIGN_PERSON_AND_ORGANIZATION_ASSIGNMENT ( #26, #46, ( #235 ) ) ;
#28 = CLOSED_SHELL ( 'NONE', ( #177, #185, #83, #173, #164, #124 ) ) ;
#29 = ORIENTED_EDGE ( 'NONE', *, *, #213, .T. ) ;
#30 = CC_DESIGN_DATE_AND_TIME_ASSIGNMENT ( #69, #192, ( #235 ) ) ;
#31 = ORIENTED_EDGE ( 'NONE', *, *, #16, .F. ) ;
#32 = CC_DESIGN_APPROVAL ( #101, ( #211 ) ) ;
#33 = DIRECTION ( 'NONE',  ( 1.000000000000000000, 0.000000000000000000, 0.000000000000000000 ) ) ;
#34 = LINE ( 'NONE', #234, #43 ) ;
#35 = EDGE_CURVE ( 'NONE', #193, #147, #111, .T. ) ;
#36 = LINE ( 'NONE', #198, #156 ) ;
#37 = ORIENTED_EDGE ( 'NONE', *, *, #218, .T. ) ;
#38 = PRODUCT_DEFINITION_FORMATION_WITH_SPECIFIED_SOURCE ( '任何', '', #40, .NOT_KNOWN. ) ;
#39 = DIRECTION ( 'NONE',  ( 0.000000000000000000, 0.000000000000000000, 1.000000000000000000 ) ) ;
#40 = PRODUCT ( 'FN-SOL-005_swm10w-active-face_R0.6', 'FN-SOL-005_swm10w-active-face_R0.6', '', ( #206 ) ) ;
#41 = DIRECTION ( 'NONE',  ( 1.000000000000000000, -0.000000000000000000, 0.000000000000000000 ) ) ;
#42 = APPLICATION_PROTOCOL_DEFINITION ( 'international standard', 'config_control_design', 1994, #13 ) ;
#43 = VECTOR ( 'NONE', #167, 1000.000000000000000 ) ;
#44 = CARTESIAN_POINT ( 'NONE',  ( -133.0000000000000000, 0.000000000000000000, 108.0000000000000000 ) ) ;
#45 = APPLICATION_PROTOCOL_DEFINITION ( 'international standard', 'config_control_design', 1994, #76 ) ;
#46 = PERSON_AND_ORGANIZATION_ROLE ( 'creator' ) ;
#47 = ORIENTED_EDGE ( 'NONE', *, *, #58, .T. ) ;
#48 = EDGE_CURVE ( 'NONE', #66, #106, #75, .T. ) ;
#49 = APPROVAL_DATE_TIME ( #229, #101 ) ;
#50 = MANIFOLD_SOLID_BREP ( '凸台-拉伸1', #28 ) ;
#51 = CC_DESIGN_DATE_AND_TIME_ASSIGNMENT ( #65, #87, ( #211 ) ) ;
#52 = VECTOR ( 'NONE', #33, 1000.000000000000000 ) ;
#53 = EDGE_LOOP ( 'NONE', ( #180, #197, #174, #212 ) ) ;
#54 = DIRECTION ( 'NONE',  ( -0.000000000000000000, -1.000000000000000000, -0.000000000000000000 ) ) ;
#55 = LINE ( 'NONE', #18, #12 ) ;
#56 = CARTESIAN_POINT ( 'NONE',  ( -133.0000000000000000, 0.000000000000000000, 108.0000000000000000 ) ) ;
#57 = CARTESIAN_POINT ( 'NONE',  ( 133.0000000000000000, 0.000000000000000000, 108.0000000000000000 ) ) ;
#58 = EDGE_CURVE ( 'NONE', #193, #182, #36, .T. ) ;
#59 = DIRECTION ( 'NONE',  ( 0.000000000000000000, 0.000000000000000000, -1.000000000000000000 ) ) ;
#60 = VECTOR ( 'NONE', #160, 1000.000000000000000 ) ;
#61 = FACE_OUTER_BOUND ( 'NONE', #68, .T. ) ;
#62 = LINE ( 'NONE', #119, #188 ) ;
#63 = DIRECTION ( 'NONE',  ( 0.000000000000000000, 0.000000000000000000, -1.000000000000000000 ) ) ;
#64 = AXIS2_PLACEMENT_3D ( 'NONE', #116, #117, #6 ) ;
#65 = DATE_AND_TIME ( #8, #109 ) ;
#66 = VERTEX_POINT ( 'NONE', #96 ) ;
#67 = CC_DESIGN_PERSON_AND_ORGANIZATION_ASSIGNMENT ( #171, #207, ( #40 ) ) ;
#68 = EDGE_LOOP ( 'NONE', ( #29, #73, #37, #47 ) ) ;
#69 = DATE_AND_TIME ( #191, #143 ) ;
#70 = COORDINATED_UNIVERSAL_TIME_OFFSET ( 8, 0, .AHEAD. ) ;
#71 = LOCAL_TIME ( 23, 42, 13.00000000000000000, #186 ) ;
#72 = CARTESIAN_POINT ( 'NONE',  ( 133.0000000000000000, 4.000000000000000000, 108.0000000000000000 ) ) ;
#73 = ORIENTED_EDGE ( 'NONE', *, *, #16, .T. ) ;
#74 = CARTESIAN_POINT ( 'NONE',  ( 133.0000000000000000, 4.000000000000000000, -108.0000000000000000 ) ) ;
#75 = LINE ( 'NONE', #2, #135 ) ;
#76 = APPLICATION_CONTEXT ( 'configuration controlled 3d designs of mechanical parts and assemblies' ) ;
#77 = EDGE_LOOP ( 'NONE', ( #122, #201, #195, #220 ) ) ;
#78 = EDGE_CURVE ( 'NONE', #179, #106, #17, .T. ) ;
#79 = CC_DESIGN_APPROVAL ( #142, ( #38 ) ) ;
#80 = EDGE_CURVE ( 'NONE', #106, #147, #110, .T. ) ;
#81 = FACE_OUTER_BOUND ( 'NONE', #129, .T. ) ;
#82 = AXIS2_PLACEMENT_3D ( 'NONE', #23, #39, #102 ) ;
#83 = ADVANCED_FACE ( 'NONE', ( #94 ), #146, .F. ) ;
#84 = DATE_AND_TIME ( #231, #121 ) ;
#85 = PERSON_AND_ORGANIZATION ( #141, #216 ) ;
#86 = ORIENTED_EDGE ( 'NONE', *, *, #35, .T. ) ;
#87 = DATE_TIME_ROLE ( 'classification_date' ) ;
#88 = ORIENTED_EDGE ( 'NONE', *, *, #48, .F. ) ;
#89 = DESIGN_CONTEXT ( 'detailed design', #76, 'design' ) ;
#90 =( GEOMETRIC_REPRESENTATION_CONTEXT ( 3 ) GLOBAL_UNCERTAINTY_ASSIGNED_CONTEXT ( ( #92 ) ) GLOBAL_UNIT_ASSIGNED_CONTEXT ( ( #151, #224, #136 ) ) REPRESENTATION_CONTEXT ( 'NONE', 'WORKASPACE' ) );
#91 = EDGE_LOOP ( 'NONE', ( #200, #178, #222, #138 ) ) ;
#92 = UNCERTAINTY_MEASURE_WITH_UNIT (LENGTH_MEASURE( 1.000000000000000082E-05 ), #151, 'distance_accuracy_value', 'NONE');
#93 = DIRECTION ( 'NONE',  ( -1.000000000000000000, 0.000000000000000000, 0.000000000000000000 ) ) ;
#94 = FACE_OUTER_BOUND ( 'NONE', #77, .T. ) ;
#95 = VECTOR ( 'NONE', #204, 1000.000000000000000 ) ;
#96 = CARTESIAN_POINT ( 'NONE',  ( 133.0000000000000000, 4.000000000000000000, 108.0000000000000000 ) ) ;
#97 = CC_DESIGN_PERSON_AND_ORGANIZATION_ASSIGNMENT ( #11, #139, ( #38 ) ) ;
#98 = APPROVAL_ROLE ( '' ) ;
#99 = APPROVAL_DATE_TIME ( #20, #181 ) ;
#100 = CARTESIAN_POINT ( 'NONE',  ( -133.0000000000000000, 4.000000000000000000, -108.0000000000000000 ) ) ;
#101 = APPROVAL ( #208, '未指定' ) ;
#102 = DIRECTION ( 'NONE',  ( 1.000000000000000000, 0.000000000000000000, 0.000000000000000000 ) ) ;
#103 = PERSON_AND_ORGANIZATION_ROLE ( 'creator' ) ;
#104 = CC_DESIGN_PERSON_AND_ORGANIZATION_ASSIGNMENT ( #159, #103, ( #38 ) ) ;
#105 = APPROVAL_ROLE ( '' ) ;
#106 = VERTEX_POINT ( 'NONE', #57 ) ;
#107 = ORIENTED_EDGE ( 'NONE', *, *, #58, .F. ) ;
#108 = EDGE_CURVE ( 'NONE', #147, #176, #219, .T. ) ;
#109 = LOCAL_TIME ( 23, 42, 13.00000000000000000, #210 ) ;
#110 = LINE ( 'NONE', #150, #148 ) ;
#111 = LINE ( 'NONE', #74, #228 ) ;
#112 = DIRECTION ( 'NONE',  ( -0.000000000000000000, -0.000000000000000000, 1.000000000000000000 ) ) ;
#113 = PRODUCT_DEFINITION_SHAPE ( 'NONE', 'NONE',  #235 ) ;
#114 = CC_DESIGN_APPROVAL ( #181, ( #235 ) ) ;
#115 = CARTESIAN_POINT ( 'NONE',  ( -133.0000000000000000, 4.000000000000000000, -108.0000000000000000 ) ) ;
#116 = CARTESIAN_POINT ( 'NONE',  ( 0.000000000000000000, 4.000000000000000000, 0.000000000000000000 ) ) ;
#117 = DIRECTION ( 'NONE',  ( 0.000000000000000000, -1.000000000000000000, 0.000000000000000000 ) ) ;
#118 = FACE_OUTER_BOUND ( 'NONE', #209, .T. ) ;
#119 = CARTESIAN_POINT ( 'NONE',  ( 133.0000000000000000, 4.000000000000000000, 108.0000000000000000 ) ) ;
#120 = PERSON_AND_ORGANIZATION ( #141, #216 ) ;
#121 = LOCAL_TIME ( 23, 42, 13.00000000000000000, #215 ) ;
#122 = ORIENTED_EDGE ( 'NONE', *, *, #80, .T. ) ;
#123 = EDGE_CURVE ( 'NONE', #125, #179, #34, .T. ) ;
#124 = ADVANCED_FACE ( 'NONE', ( #237 ), #145, .T. ) ;
#125 = VERTEX_POINT ( 'NONE', #165 ) ;
#126 = ORIENTED_EDGE ( 'NONE', *, *, #5, .F. ) ;
#127 = CARTESIAN_POINT ( 'NONE',  ( -133.0000000000000000, 0.000000000000000000, 108.0000000000000000 ) ) ;
#128 = DIRECTION ( 'NONE',  ( 0.000000000000000000, -1.000000000000000000, 0.000000000000000000 ) ) ;
#129 = EDGE_LOOP ( 'NONE', ( #14, #126, #107, #86 ) ) ;
#130 = AXIS2_PLACEMENT_3D ( 'NONE', #217, #128, #199 ) ;
#131 = CARTESIAN_POINT ( 'NONE',  ( -133.0000000000000000, 4.000000000000000000, -108.0000000000000000 ) ) ;
#132 = PRODUCT_RELATED_PRODUCT_CATEGORY ( 'detail', '', ( #40 ) ) ;
#133 = DIRECTION ( 'NONE',  ( 1.000000000000000000, 0.000000000000000000, -0.000000000000000000 ) ) ;
#134 = ADVANCED_BREP_SHAPE_REPRESENTATION ( 'FN-SOL-005_swm10w-active-face_R0.6', ( #50, #82 ), #90 ) ;
#135 = VECTOR ( 'NONE', #54, 1000.000000000000000 ) ;
#136 =( NAMED_UNIT ( * ) SI_UNIT ( $, .STERADIAN. ) SOLID_ANGLE_UNIT ( ) );
#137 = PERSON_AND_ORGANIZATION ( #141, #216 ) ;
#138 = ORIENTED_EDGE ( 'NONE', *, *, #5, .T. ) ;
#139 = PERSON_AND_ORGANIZATION_ROLE ( 'design_supplier' ) ;
#140 = LOCAL_TIME ( 23, 42, 13.00000000000000000, #70 ) ;
#141 = PERSON ( '未指定', '未指定', '未指定', ('未指定'), ('未指定'), ('未指定') ) ;
#142 = APPROVAL ( #9, '未指定' ) ;
#143 = LOCAL_TIME ( 23, 42, 13.00000000000000000, #158 ) ;
#144 = EDGE_CURVE ( 'NONE', #176, #179, #1, .T. ) ;
#145 = PLANE ( 'NONE',  #130 ) ;
#146 = PLANE ( 'NONE',  #155 ) ;
#147 = VERTEX_POINT ( 'NONE', #183 ) ;
#148 = VECTOR ( 'NONE', #15, 1000.000000000000000 ) ;
#149 = DIRECTION ( 'NONE',  ( -1.000000000000000000, -0.000000000000000000, -0.000000000000000000 ) ) ;
#150 = CARTESIAN_POINT ( 'NONE',  ( 133.0000000000000000, 0.000000000000000000, 108.0000000000000000 ) ) ;
#151 =( LENGTH_UNIT ( ) NAMED_UNIT ( * ) SI_UNIT ( .MILLI., .METRE. ) );
#152 = LINE ( 'NONE', #170, #95 ) ;
#153 = CARTESIAN_POINT ( 'NONE',  ( 133.0000000000000000, 4.000000000000000000, -108.0000000000000000 ) ) ;
#154 = DIRECTION ( 'NONE',  ( 0.000000000000000000, 0.000000000000000000, 1.000000000000000000 ) ) ;
#155 = AXIS2_PLACEMENT_3D ( 'NONE', #72, #93, #163 ) ;
#156 = VECTOR ( 'NONE', #149, 1000.000000000000000 ) ;
#157 = SHAPE_DEFINITION_REPRESENTATION ( #113, #134 ) ;
#158 = COORDINATED_UNIVERSAL_TIME_OFFSET ( 8, 0, .AHEAD. ) ;
#159 = PERSON_AND_ORGANIZATION ( #141, #216 ) ;
#160 = DIRECTION ( 'NONE',  ( -1.000000000000000000, -0.000000000000000000, -0.000000000000000000 ) ) ;
#161 = AXIS2_PLACEMENT_3D ( 'NONE', #203, #41, #63 ) ;
#162 = DIRECTION ( 'NONE',  ( 1.000000000000000000, 0.000000000000000000, 0.000000000000000000 ) ) ;
#163 = DIRECTION ( 'NONE',  ( 0.000000000000000000, 0.000000000000000000, 1.000000000000000000 ) ) ;
#164 = ADVANCED_FACE ( 'NONE', ( #61 ), #226, .F. ) ;
#165 = CARTESIAN_POINT ( 'NONE',  ( -133.0000000000000000, 4.000000000000000000, 108.0000000000000000 ) ) ;
#166 = VECTOR ( 'NONE', #112, 1000.000000000000000 ) ;
#167 = DIRECTION ( 'NONE',  ( -0.000000000000000000, -1.000000000000000000, -0.000000000000000000 ) ) ;
#168 = CARTESIAN_POINT ( 'NONE',  ( -133.0000000000000000, 4.000000000000000000, 108.0000000000000000 ) ) ;
#169 = DIRECTION ( 'NONE',  ( 0.000000000000000000, 0.000000000000000000, -1.000000000000000000 ) ) ;
#170 = CARTESIAN_POINT ( 'NONE',  ( -133.0000000000000000, 4.000000000000000000, 108.0000000000000000 ) ) ;
#171 = PERSON_AND_ORGANIZATION ( #141, #216 ) ;
#172 = SECURITY_CLASSIFICATION_LEVEL ( 'unclassified' ) ;
#173 = ADVANCED_FACE ( 'NONE', ( #81 ), #21, .F. ) ;
#174 = ORIENTED_EDGE ( 'NONE', *, *, #80, .F. ) ;
#175 = PERSON_AND_ORGANIZATION_ROLE ( 'classification_officer' ) ;
#176 = VERTEX_POINT ( 'NONE', #7 ) ;
#177 = ADVANCED_FACE ( 'NONE', ( #227 ), #187, .F. ) ;
#178 = ORIENTED_EDGE ( 'NONE', *, *, #123, .F. ) ;
#179 = VERTEX_POINT ( 'NONE', #44 ) ;
#180 = ORIENTED_EDGE ( 'NONE', *, *, #144, .F. ) ;
#181 = APPROVAL ( #190, '未指定' ) ;
#182 = VERTEX_POINT ( 'NONE', #100 ) ;
#183 = CARTESIAN_POINT ( 'NONE',  ( 133.0000000000000000, 0.000000000000000000, -108.0000000000000000 ) ) ;
#184 = DIRECTION ( 'NONE',  ( -0.000000000000000000, -1.000000000000000000, -0.000000000000000000 ) ) ;
#185 = ADVANCED_FACE ( 'NONE', ( #118 ), #3, .F. ) ;
#186 = COORDINATED_UNIVERSAL_TIME_OFFSET ( 8, 0, .AHEAD. ) ;
#187 = PLANE ( 'NONE',  #161 ) ;
#188 = VECTOR ( 'NONE', #169, 1000.000000000000000 ) ;
#189 = DIRECTION ( 'NONE',  ( -1.000000000000000000, 0.000000000000000000, -0.000000000000000000 ) ) ;
#190 = APPROVAL_STATUS ( 'not_yet_approved' ) ;
#191 = CALENDAR_DATE ( 2026, 26, 7 ) ;
#192 = DATE_TIME_ROLE ( 'creation_date' ) ;
#193 = VERTEX_POINT ( 'NONE', #153 ) ;
#194 = APPROVAL_DATE_TIME ( #84, #142 ) ;
#195 = ORIENTED_EDGE ( 'NONE', *, *, #218, .F. ) ;
#196 = AXIS2_PLACEMENT_3D ( 'NONE', #168, #59, #189 ) ;
#197 = ORIENTED_EDGE ( 'NONE', *, *, #108, .F. ) ;
#198 = CARTESIAN_POINT ( 'NONE',  ( -133.0000000000000000, 4.000000000000000000, -108.0000000000000000 ) ) ;
#199 = DIRECTION ( 'NONE',  ( 0.000000000000000000, -0.000000000000000000, -1.000000000000000000 ) ) ;
#200 = ORIENTED_EDGE ( 'NONE', *, *, #144, .T. ) ;
#201 = ORIENTED_EDGE ( 'NONE', *, *, #35, .F. ) ;
#202 = CALENDAR_DATE ( 2026, 26, 7 ) ;
#203 = CARTESIAN_POINT ( 'NONE',  ( -133.0000000000000000, 4.000000000000000000, 108.0000000000000000 ) ) ;
#204 = DIRECTION ( 'NONE',  ( -0.000000000000000000, -0.000000000000000000, 1.000000000000000000 ) ) ;
#205 = CC_DESIGN_PERSON_AND_ORGANIZATION_ASSIGNMENT ( #232, #175, ( #211 ) ) ;
#206 = MECHANICAL_CONTEXT ( 'NONE', #13, 'mechanical' ) ;
#207 = PERSON_AND_ORGANIZATION_ROLE ( 'design_owner' ) ;
#208 = APPROVAL_STATUS ( 'not_yet_approved' ) ;
#209 = EDGE_LOOP ( 'NONE', ( #10, #88, #31, #214 ) ) ;
#210 = COORDINATED_UNIVERSAL_TIME_OFFSET ( 8, 0, .AHEAD. ) ;
#211 = SECURITY_CLASSIFICATION ( '', '', #172 ) ;
#212 = ORIENTED_EDGE ( 'NONE', *, *, #78, .F. ) ;
#213 = EDGE_CURVE ( 'NONE', #182, #125, #152, .T. ) ;
#214 = ORIENTED_EDGE ( 'NONE', *, *, #123, .T. ) ;
#215 = COORDINATED_UNIVERSAL_TIME_OFFSET ( 8, 0, .AHEAD. ) ;
#216 = ORGANIZATION ( '未指定', '未指定', '' ) ;
#217 = CARTESIAN_POINT ( 'NONE',  ( 0.000000000000000000, 0.000000000000000000, 0.000000000000000000 ) ) ;
#218 = EDGE_CURVE ( 'NONE', #66, #193, #62, .T. ) ;
#219 = LINE ( 'NONE', #223, #60 ) ;
#220 = ORIENTED_EDGE ( 'NONE', *, *, #48, .T. ) ;
#221 = APPROVAL_PERSON_ORGANIZATION ( #120, #181, #98 ) ;
#222 = ORIENTED_EDGE ( 'NONE', *, *, #213, .F. ) ;
#223 = CARTESIAN_POINT ( 'NONE',  ( -133.0000000000000000, 0.000000000000000000, -108.0000000000000000 ) ) ;
#224 =( NAMED_UNIT ( * ) PLANE_ANGLE_UNIT ( ) SI_UNIT ( $, .RADIAN. ) );
#225 = APPROVAL_PERSON_ORGANIZATION ( #85, #142, #24 ) ;
#226 = PLANE ( 'NONE',  #64 ) ;
#227 = FACE_OUTER_BOUND ( 'NONE', #91, .T. ) ;
#228 = VECTOR ( 'NONE', #19, 1000.000000000000000 ) ;
#229 = DATE_AND_TIME ( #230, #140 ) ;
#230 = CALENDAR_DATE ( 2026, 26, 7 ) ;
#231 = CALENDAR_DATE ( 2026, 26, 7 ) ;
#232 = PERSON_AND_ORGANIZATION ( #141, #216 ) ;
#233 = VECTOR ( 'NONE', #184, 1000.000000000000000 ) ;
#234 = CARTESIAN_POINT ( 'NONE',  ( -133.0000000000000000, 4.000000000000000000, 108.0000000000000000 ) ) ;
#235 = PRODUCT_DEFINITION ( '未知', '', #38, #89 ) ;
#236 = LINE ( 'NONE', #115, #233 ) ;
#237 = FACE_OUTER_BOUND ( 'NONE', #53, .T. ) ;
ENDSEC;
END-ISO-10303-21;
