ISO-10303-21;
HEADER;
FILE_DESCRIPTION (( 'STEP AP203' ),
    '1' );
FILE_NAME ('FN-SOL-004_swm10w-panel-envelope_R0.6.STEP',
    '2026-07-26T15:42:08',
    ( '' ),
    ( '' ),
    'SwSTEP 2.0',
    'SolidWorks 2022',
    '' );
FILE_SCHEMA (( 'CONFIG_CONTROL_DESIGN' ));
ENDSEC;

DATA;
#1 = ORIENTED_EDGE ( 'NONE', *, *, #122, .T. ) ;
#2 = EDGE_LOOP ( 'NONE', ( #203, #153, #170, #1 ) ) ;
#3 = ORIENTED_EDGE ( 'NONE', *, *, #174, .F. ) ;
#4 = APPROVAL ( #152, '未指定' ) ;
#5 = ADVANCED_FACE ( 'NONE', ( #202 ), #155, .F. ) ;
#6 = DIRECTION ( 'NONE',  ( 1.000000000000000000, 0.000000000000000000, 0.000000000000000000 ) ) ;
#7 = LOCAL_TIME ( 23, 42, 8.000000000000000000, #110 ) ;
#8 = DIRECTION ( 'NONE',  ( 1.000000000000000000, 0.000000000000000000, 0.000000000000000000 ) ) ;
#9 = DIRECTION ( 'NONE',  ( -1.000000000000000000, 0.000000000000000000, -0.000000000000000000 ) ) ;
#10 = CARTESIAN_POINT ( 'NONE',  ( -145.0000000000000000, 17.00000000000000000, 120.0000000000000000 ) ) ;
#11 = CC_DESIGN_APPROVAL ( #46, ( #81 ) ) ;
#12 = SECURITY_CLASSIFICATION ( '', '', #237 ) ;
#13 = DIRECTION ( 'NONE',  ( -1.000000000000000000, -0.000000000000000000, -0.000000000000000000 ) ) ;
#14 = APPLICATION_CONTEXT ( 'configuration controlled 3d designs of mechanical parts and assemblies' ) ;
#15 = MECHANICAL_CONTEXT ( 'NONE', #139, 'mechanical' ) ;
#16 = PERSON_AND_ORGANIZATION_ROLE ( 'design_owner' ) ;
#17 = PERSON_AND_ORGANIZATION ( #86, #208 ) ;
#18 =( NAMED_UNIT ( * ) SI_UNIT ( $, .STERADIAN. ) SOLID_ANGLE_UNIT ( ) );
#19 = ORIENTED_EDGE ( 'NONE', *, *, #127, .F. ) ;
#20 = ORIENTED_EDGE ( 'NONE', *, *, #87, .F. ) ;
#21 = PRODUCT_DEFINITION_FORMATION_WITH_SPECIFIED_SOURCE ( '任何', '', #232, .NOT_KNOWN. ) ;
#22 = ORIENTED_EDGE ( 'NONE', *, *, #76, .T. ) ;
#23 = CARTESIAN_POINT ( 'NONE',  ( 0.000000000000000000, 0.000000000000000000, 0.000000000000000000 ) ) ;
#24 = ADVANCED_FACE ( 'NONE', ( #75 ), #209, .F. ) ;
#25 =( GEOMETRIC_REPRESENTATION_CONTEXT ( 3 ) GLOBAL_UNCERTAINTY_ASSIGNED_CONTEXT ( ( #168 ) ) GLOBAL_UNIT_ASSIGNED_CONTEXT ( ( #218, #52, #18 ) ) REPRESENTATION_CONTEXT ( 'NONE', 'WORKASPACE' ) );
#26 = FACE_OUTER_BOUND ( 'NONE', #2, .T. ) ;
#27 = LINE ( 'NONE', #91, #167 ) ;
#28 = EDGE_CURVE ( 'NONE', #189, #96, #141, .T. ) ;
#29 = LINE ( 'NONE', #160, #40 ) ;
#30 = COORDINATED_UNIVERSAL_TIME_OFFSET ( 8, 0, .AHEAD. ) ;
#31 = PRODUCT_RELATED_PRODUCT_CATEGORY ( 'detail', '', ( #232 ) ) ;
#32 = PERSON_AND_ORGANIZATION ( #86, #208 ) ;
#33 = DATE_AND_TIME ( #124, #151 ) ;
#34 = VECTOR ( 'NONE', #6, 1000.000000000000000 ) ;
#35 = APPROVAL_STATUS ( 'not_yet_approved' ) ;
#36 = LOCAL_TIME ( 23, 42, 8.000000000000000000, #30 ) ;
#37 = CARTESIAN_POINT ( 'NONE',  ( -145.0000000000000000, 17.00000000000000000, -120.0000000000000000 ) ) ;
#38 = ORIENTED_EDGE ( 'NONE', *, *, #76, .F. ) ;
#39 = ORIENTED_EDGE ( 'NONE', *, *, #122, .F. ) ;
#40 = VECTOR ( 'NONE', #13, 1000.000000000000000 ) ;
#41 = CARTESIAN_POINT ( 'NONE',  ( 0.000000000000000000, 17.00000000000000000, 0.000000000000000000 ) ) ;
#42 = LINE ( 'NONE', #100, #199 ) ;
#43 = CARTESIAN_POINT ( 'NONE',  ( 145.0000000000000000, 17.00000000000000000, -120.0000000000000000 ) ) ;
#44 = DIRECTION ( 'NONE',  ( 0.000000000000000000, -0.000000000000000000, -1.000000000000000000 ) ) ;
#45 = CARTESIAN_POINT ( 'NONE',  ( 145.0000000000000000, 17.00000000000000000, 120.0000000000000000 ) ) ;
#46 = APPROVAL ( #68, '未指定' ) ;
#47 = CC_DESIGN_PERSON_AND_ORGANIZATION_ASSIGNMENT ( #184, #51, ( #81 ) ) ;
#48 = PLANE ( 'NONE',  #181 ) ;
#49 = APPROVAL_ROLE ( '' ) ;
#50 = DIRECTION ( 'NONE',  ( 1.000000000000000000, 0.000000000000000000, 0.000000000000000000 ) ) ;
#51 = PERSON_AND_ORGANIZATION_ROLE ( 'creator' ) ;
#52 =( NAMED_UNIT ( * ) PLANE_ANGLE_UNIT ( ) SI_UNIT ( $, .RADIAN. ) );
#53 = APPLICATION_PROTOCOL_DEFINITION ( 'international standard', 'config_control_design', 1994, #139 ) ;
#54 = CALENDAR_DATE ( 2026, 26, 7 ) ;
#55 = VERTEX_POINT ( 'NONE', #227 ) ;
#56 = APPROVAL_PERSON_ORGANIZATION ( #165, #46, #183 ) ;
#57 = ORIENTED_EDGE ( 'NONE', *, *, #130, .T. ) ;
#58 = VERTEX_POINT ( 'NONE', #194 ) ;
#59 = LINE ( 'NONE', #140, #105 ) ;
#60 = CARTESIAN_POINT ( 'NONE',  ( -145.0000000000000000, 0.000000000000000000, 120.0000000000000000 ) ) ;
#61 = CARTESIAN_POINT ( 'NONE',  ( -145.0000000000000000, 17.00000000000000000, 120.0000000000000000 ) ) ;
#62 = VECTOR ( 'NONE', #103, 1000.000000000000000 ) ;
#63 = MANIFOLD_SOLID_BREP ( '凸台-拉伸1', #187 ) ;
#64 = LINE ( 'NONE', #142, #111 ) ;
#65 = PLANE ( 'NONE',  #71 ) ;
#66 = CARTESIAN_POINT ( 'NONE',  ( 0.000000000000000000, 0.000000000000000000, 0.000000000000000000 ) ) ;
#67 = DATE_TIME_ROLE ( 'classification_date' ) ;
#68 = APPROVAL_STATUS ( 'not_yet_approved' ) ;
#69 = VECTOR ( 'NONE', #178, 1000.000000000000000 ) ;
#70 = DATE_AND_TIME ( #236, #89 ) ;
#71 = AXIS2_PLACEMENT_3D ( 'NONE', #102, #176, #9 ) ;
#72 = CC_DESIGN_PERSON_AND_ORGANIZATION_ASSIGNMENT ( #32, #186, ( #21 ) ) ;
#73 = EDGE_LOOP ( 'NONE', ( #57, #38, #19, #154 ) ) ;
#74 = EDGE_LOOP ( 'NONE', ( #134, #98, #20, #169 ) ) ;
#75 = FACE_OUTER_BOUND ( 'NONE', #220, .T. ) ;
#76 = EDGE_CURVE ( 'NONE', #189, #58, #158, .T. ) ;
#77 = CARTESIAN_POINT ( 'NONE',  ( 145.0000000000000000, 17.00000000000000000, 120.0000000000000000 ) ) ;
#78 = CC_DESIGN_PERSON_AND_ORGANIZATION_ASSIGNMENT ( #17, #90, ( #12 ) ) ;
#79 = CARTESIAN_POINT ( 'NONE',  ( -145.0000000000000000, 17.00000000000000000, 120.0000000000000000 ) ) ;
#80 = LINE ( 'NONE', #118, #193 ) ;
#81 = PRODUCT_DEFINITION ( '未知', '', #21, #221 ) ;
#82 = DIRECTION ( 'NONE',  ( -1.000000000000000000, -0.000000000000000000, -0.000000000000000000 ) ) ;
#83 = AXIS2_PLACEMENT_3D ( 'NONE', #37, #116, #223 ) ;
#84 = CC_DESIGN_SECURITY_CLASSIFICATION ( #12, ( #21 ) ) ;
#85 = DIRECTION ( 'NONE',  ( -0.000000000000000000, -1.000000000000000000, -0.000000000000000000 ) ) ;
#86 = PERSON ( '未指定', '未指定', '未指定', ('未指定'), ('未指定'), ('未指定') ) ;
#87 = EDGE_CURVE ( 'NONE', #224, #188, #231, .T. ) ;
#88 = DIRECTION ( 'NONE',  ( 0.000000000000000000, 0.000000000000000000, -1.000000000000000000 ) ) ;
#89 = LOCAL_TIME ( 23, 42, 8.000000000000000000, #164 ) ;
#90 = PERSON_AND_ORGANIZATION_ROLE ( 'classification_officer' ) ;
#91 = CARTESIAN_POINT ( 'NONE',  ( 145.0000000000000000, 0.000000000000000000, 120.0000000000000000 ) ) ;
#92 = PERSON_AND_ORGANIZATION ( #86, #208 ) ;
#93 = CC_DESIGN_DATE_AND_TIME_ASSIGNMENT ( #70, #67, ( #12 ) ) ;
#94 = SHAPE_DEFINITION_REPRESENTATION ( #114, #129 ) ;
#95 = ORIENTED_EDGE ( 'NONE', *, *, #177, .T. ) ;
#96 = VERTEX_POINT ( 'NONE', #61 ) ;
#97 = EDGE_LOOP ( 'NONE', ( #171, #39, #113, #22 ) ) ;
#98 = ORIENTED_EDGE ( 'NONE', *, *, #201, .F. ) ;
#99 = FACE_OUTER_BOUND ( 'NONE', #74, .T. ) ;
#100 = CARTESIAN_POINT ( 'NONE',  ( 145.0000000000000000, 17.00000000000000000, 120.0000000000000000 ) ) ;
#101 = VECTOR ( 'NONE', #85, 1000.000000000000000 ) ;
#102 = CARTESIAN_POINT ( 'NONE',  ( -145.0000000000000000, 17.00000000000000000, 120.0000000000000000 ) ) ;
#103 = DIRECTION ( 'NONE',  ( -0.000000000000000000, -0.000000000000000000, 1.000000000000000000 ) ) ;
#104 = FACE_OUTER_BOUND ( 'NONE', #172, .T. ) ;
#105 = VECTOR ( 'NONE', #82, 1000.000000000000000 ) ;
#106 = APPROVAL_PERSON_ORGANIZATION ( #126, #4, #219 ) ;
#107 = PERSON_AND_ORGANIZATION_ROLE ( 'design_supplier' ) ;
#108 = APPROVAL_PERSON_ORGANIZATION ( #200, #210, #49 ) ;
#109 = APPLICATION_PROTOCOL_DEFINITION ( 'international standard', 'config_control_design', 1994, #14 ) ;
#110 = COORDINATED_UNIVERSAL_TIME_OFFSET ( 8, 0, .AHEAD. ) ;
#111 = VECTOR ( 'NONE', #144, 1000.000000000000000 ) ;
#112 = DIRECTION ( 'NONE',  ( 0.000000000000000000, -1.000000000000000000, 0.000000000000000000 ) ) ;
#113 = ORIENTED_EDGE ( 'NONE', *, *, #28, .F. ) ;
#114 = PRODUCT_DEFINITION_SHAPE ( 'NONE', 'NONE',  #81 ) ;
#115 = EDGE_CURVE ( 'NONE', #224, #136, #42, .T. ) ;
#116 = DIRECTION ( 'NONE',  ( 0.000000000000000000, 0.000000000000000000, 1.000000000000000000 ) ) ;
#117 = CC_DESIGN_DATE_AND_TIME_ASSIGNMENT ( #150, #198, ( #81 ) ) ;
#118 = CARTESIAN_POINT ( 'NONE',  ( -145.0000000000000000, 17.00000000000000000, 120.0000000000000000 ) ) ;
#119 = DIRECTION ( 'NONE',  ( 0.000000000000000000, 0.000000000000000000, 1.000000000000000000 ) ) ;
#120 = PLANE ( 'NONE',  #132 ) ;
#121 = CARTESIAN_POINT ( 'NONE',  ( 145.0000000000000000, 17.00000000000000000, -120.0000000000000000 ) ) ;
#122 = EDGE_CURVE ( 'NONE', #96, #205, #173, .T. ) ;
#123 = CARTESIAN_POINT ( 'NONE',  ( 145.0000000000000000, 17.00000000000000000, 120.0000000000000000 ) ) ;
#124 = CALENDAR_DATE ( 2026, 26, 7 ) ;
#125 = CALENDAR_DATE ( 2026, 26, 7 ) ;
#126 = PERSON_AND_ORGANIZATION ( #86, #208 ) ;
#127 = EDGE_CURVE ( 'NONE', #188, #189, #59, .T. ) ;
#128 = DIRECTION ( 'NONE',  ( 0.000000000000000000, 0.000000000000000000, 1.000000000000000000 ) ) ;
#129 = ADVANCED_BREP_SHAPE_REPRESENTATION ( 'FN-SOL-004_swm10w-panel-envelope_R0.6', ( #63, #163 ), #25 ) ;
#130 = EDGE_CURVE ( 'NONE', #55, #58, #29, .T. ) ;
#131 = ORIENTED_EDGE ( 'NONE', *, *, #233, .F. ) ;
#132 = AXIS2_PLACEMENT_3D ( 'NONE', #77, #157, #119 ) ;
#133 = APPROVAL_DATE_TIME ( #135, #4 ) ;
#134 = ORIENTED_EDGE ( 'NONE', *, *, #233, .T. ) ;
#135 = DATE_AND_TIME ( #54, #36 ) ;
#136 = VERTEX_POINT ( 'NONE', #161 ) ;
#137 = CC_DESIGN_APPROVAL ( #4, ( #12 ) ) ;
#138 = ORIENTED_EDGE ( 'NONE', *, *, #145, .F. ) ;
#139 = APPLICATION_CONTEXT ( 'configuration controlled 3d designs of mechanical parts and assemblies' ) ;
#140 = CARTESIAN_POINT ( 'NONE',  ( -145.0000000000000000, 17.00000000000000000, -120.0000000000000000 ) ) ;
#141 = LINE ( 'NONE', #79, #62 ) ;
#142 = CARTESIAN_POINT ( 'NONE',  ( -145.0000000000000000, 0.000000000000000000, 120.0000000000000000 ) ) ;
#143 = AXIS2_PLACEMENT_3D ( 'NONE', #41, #112, #44 ) ;
#144 = DIRECTION ( 'NONE',  ( -0.000000000000000000, -0.000000000000000000, 1.000000000000000000 ) ) ;
#145 = EDGE_CURVE ( 'NONE', #58, #205, #64, .T. ) ;
#146 = CARTESIAN_POINT ( 'NONE',  ( -145.0000000000000000, 0.000000000000000000, 120.0000000000000000 ) ) ;
#147 = DATE_AND_TIME ( #125, #7 ) ;
#148 = CC_DESIGN_APPROVAL ( #210, ( #21 ) ) ;
#149 = PERSON_AND_ORGANIZATION ( #86, #208 ) ;
#150 = DATE_AND_TIME ( #166, #190 ) ;
#151 = LOCAL_TIME ( 23, 42, 8.000000000000000000, #182 ) ;
#152 = APPROVAL_STATUS ( 'not_yet_approved' ) ;
#153 = ORIENTED_EDGE ( 'NONE', *, *, #115, .F. ) ;
#154 = ORIENTED_EDGE ( 'NONE', *, *, #201, .T. ) ;
#155 = PLANE ( 'NONE',  #83 ) ;
#156 = ORIENTED_EDGE ( 'NONE', *, *, #87, .T. ) ;
#157 = DIRECTION ( 'NONE',  ( -1.000000000000000000, 0.000000000000000000, 0.000000000000000000 ) ) ;
#158 = LINE ( 'NONE', #211, #180 ) ;
#159 = CARTESIAN_POINT ( 'NONE',  ( -145.0000000000000000, 17.00000000000000000, 120.0000000000000000 ) ) ;
#160 = CARTESIAN_POINT ( 'NONE',  ( -145.0000000000000000, 0.000000000000000000, -120.0000000000000000 ) ) ;
#161 = CARTESIAN_POINT ( 'NONE',  ( 145.0000000000000000, 0.000000000000000000, 120.0000000000000000 ) ) ;
#162 = CC_DESIGN_PERSON_AND_ORGANIZATION_ASSIGNMENT ( #149, #16, ( #232 ) ) ;
#163 = AXIS2_PLACEMENT_3D ( 'NONE', #66, #128, #50 ) ;
#164 = COORDINATED_UNIVERSAL_TIME_OFFSET ( 8, 0, .AHEAD. ) ;
#165 = PERSON_AND_ORGANIZATION ( #86, #208 ) ;
#166 = CALENDAR_DATE ( 2026, 26, 7 ) ;
#167 = VECTOR ( 'NONE', #88, 1000.000000000000000 ) ;
#168 = UNCERTAINTY_MEASURE_WITH_UNIT (LENGTH_MEASURE( 1.000000000000000082E-05 ), #218, 'distance_accuracy_value', 'NONE');
#169 = ORIENTED_EDGE ( 'NONE', *, *, #115, .T. ) ;
#170 = ORIENTED_EDGE ( 'NONE', *, *, #177, .F. ) ;
#171 = ORIENTED_EDGE ( 'NONE', *, *, #145, .T. ) ;
#172 = EDGE_LOOP ( 'NONE', ( #138, #204, #131, #3 ) ) ;
#173 = LINE ( 'NONE', #10, #206 ) ;
#174 = EDGE_CURVE ( 'NONE', #205, #136, #179, .T. ) ;
#175 = DIRECTION ( 'NONE',  ( -0.000000000000000000, -1.000000000000000000, -0.000000000000000000 ) ) ;
#176 = DIRECTION ( 'NONE',  ( 0.000000000000000000, 0.000000000000000000, -1.000000000000000000 ) ) ;
#177 = EDGE_CURVE ( 'NONE', #96, #224, #80, .T. ) ;
#178 = DIRECTION ( 'NONE',  ( 0.000000000000000000, 0.000000000000000000, -1.000000000000000000 ) ) ;
#179 = LINE ( 'NONE', #60, #34 ) ;
#180 = VECTOR ( 'NONE', #230, 1000.000000000000000 ) ;
#181 = AXIS2_PLACEMENT_3D ( 'NONE', #159, #229, #195 ) ;
#182 = COORDINATED_UNIVERSAL_TIME_OFFSET ( 8, 0, .AHEAD. ) ;
#183 = APPROVAL_ROLE ( '' ) ;
#184 = PERSON_AND_ORGANIZATION ( #86, #208 ) ;
#185 = ADVANCED_FACE ( 'NONE', ( #104 ), #228, .T. ) ;
#186 = PERSON_AND_ORGANIZATION_ROLE ( 'creator' ) ;
#187 = CLOSED_SHELL ( 'NONE', ( #226, #216, #207, #5, #24, #185 ) ) ;
#188 = VERTEX_POINT ( 'NONE', #121 ) ;
#189 = VERTEX_POINT ( 'NONE', #192 ) ;
#190 = LOCAL_TIME ( 23, 42, 8.000000000000000000, #234 ) ;
#191 = ORIENTED_EDGE ( 'NONE', *, *, #28, .T. ) ;
#192 = CARTESIAN_POINT ( 'NONE',  ( -145.0000000000000000, 17.00000000000000000, -120.0000000000000000 ) ) ;
#193 = VECTOR ( 'NONE', #8, 1000.000000000000000 ) ;
#194 = CARTESIAN_POINT ( 'NONE',  ( -145.0000000000000000, 0.000000000000000000, -120.0000000000000000 ) ) ;
#195 = DIRECTION ( 'NONE',  ( 0.000000000000000000, 0.000000000000000000, -1.000000000000000000 ) ) ;
#196 = DIRECTION ( 'NONE',  ( -0.000000000000000000, -1.000000000000000000, -0.000000000000000000 ) ) ;
#197 = APPROVAL_DATE_TIME ( #33, #210 ) ;
#198 = DATE_TIME_ROLE ( 'creation_date' ) ;
#199 = VECTOR ( 'NONE', #175, 1000.000000000000000 ) ;
#200 = PERSON_AND_ORGANIZATION ( #86, #208 ) ;
#201 = EDGE_CURVE ( 'NONE', #188, #55, #214, .T. ) ;
#202 = FACE_OUTER_BOUND ( 'NONE', #73, .T. ) ;
#203 = ORIENTED_EDGE ( 'NONE', *, *, #174, .T. ) ;
#204 = ORIENTED_EDGE ( 'NONE', *, *, #130, .F. ) ;
#205 = VERTEX_POINT ( 'NONE', #146 ) ;
#206 = VECTOR ( 'NONE', #196, 1000.000000000000000 ) ;
#207 = ADVANCED_FACE ( 'NONE', ( #99 ), #120, .F. ) ;
#208 = ORGANIZATION ( '未指定', '未指定', '' ) ;
#209 = PLANE ( 'NONE',  #143 ) ;
#210 = APPROVAL ( #35, '未指定' ) ;
#211 = CARTESIAN_POINT ( 'NONE',  ( -145.0000000000000000, 17.00000000000000000, -120.0000000000000000 ) ) ;
#212 = DIRECTION ( 'NONE',  ( 0.000000000000000000, -0.000000000000000000, -1.000000000000000000 ) ) ;
#213 = DIRECTION ( 'NONE',  ( 0.000000000000000000, -1.000000000000000000, 0.000000000000000000 ) ) ;
#214 = LINE ( 'NONE', #43, #101 ) ;
#215 = FACE_OUTER_BOUND ( 'NONE', #97, .T. ) ;
#216 = ADVANCED_FACE ( 'NONE', ( #26 ), #65, .F. ) ;
#217 = APPROVAL_DATE_TIME ( #147, #46 ) ;
#218 =( LENGTH_UNIT ( ) NAMED_UNIT ( * ) SI_UNIT ( .MILLI., .METRE. ) );
#219 = APPROVAL_ROLE ( '' ) ;
#220 = EDGE_LOOP ( 'NONE', ( #191, #95, #156, #222 ) ) ;
#221 = DESIGN_CONTEXT ( 'detailed design', #14, 'design' ) ;
#222 = ORIENTED_EDGE ( 'NONE', *, *, #127, .T. ) ;
#223 = DIRECTION ( 'NONE',  ( 1.000000000000000000, 0.000000000000000000, -0.000000000000000000 ) ) ;
#224 = VERTEX_POINT ( 'NONE', #45 ) ;
#225 = CC_DESIGN_PERSON_AND_ORGANIZATION_ASSIGNMENT ( #92, #107, ( #21 ) ) ;
#226 = ADVANCED_FACE ( 'NONE', ( #215 ), #48, .F. ) ;
#227 = CARTESIAN_POINT ( 'NONE',  ( 145.0000000000000000, 0.000000000000000000, -120.0000000000000000 ) ) ;
#228 = PLANE ( 'NONE',  #235 ) ;
#229 = DIRECTION ( 'NONE',  ( 1.000000000000000000, -0.000000000000000000, 0.000000000000000000 ) ) ;
#230 = DIRECTION ( 'NONE',  ( -0.000000000000000000, -1.000000000000000000, -0.000000000000000000 ) ) ;
#231 = LINE ( 'NONE', #123, #69 ) ;
#232 = PRODUCT ( 'FN-SOL-004_swm10w-panel-envelope_R0.6', 'FN-SOL-004_swm10w-panel-envelope_R0.6', '', ( #15 ) ) ;
#233 = EDGE_CURVE ( 'NONE', #136, #55, #27, .T. ) ;
#234 = COORDINATED_UNIVERSAL_TIME_OFFSET ( 8, 0, .AHEAD. ) ;
#235 = AXIS2_PLACEMENT_3D ( 'NONE', #23, #213, #212 ) ;
#236 = CALENDAR_DATE ( 2026, 26, 7 ) ;
#237 = SECURITY_CLASSIFICATION_LEVEL ( 'unclassified' ) ;
ENDSEC;
END-ISO-10303-21;
