ISO-10303-21;
HEADER;
FILE_DESCRIPTION (( 'STEP AP203' ),
    '1' );
FILE_NAME ('FN-SUB-002_tilt-reference-plate_M3_R0.2.STEP',
    '2026-07-25T18:42:29',
    ( '' ),
    ( '' ),
    'SwSTEP 2.0',
    'SolidWorks 2022',
    '' );
FILE_SCHEMA (( 'CONFIG_CONTROL_DESIGN' ));
ENDSEC;

DATA;
#1 = AXIS2_PLACEMENT_3D ( 'NONE', #270, #429, #65 ) ;
#2 = APPROVAL_DATE_TIME ( #366, #181 ) ;
#3 = VECTOR ( 'NONE', #303, 1000.000000000000000 ) ;
#4 = VECTOR ( 'NONE', #506, 1000.000000000000000 ) ;
#5 = APPROVAL_PERSON_ORGANIZATION ( #261, #181, #533 ) ;
#6 = ADVANCED_FACE ( 'NONE', ( #55 ), #511, .F. ) ;
#7 = DIRECTION ( 'NONE',  ( 0.000000000000000000, -0.000000000000000000, -1.000000000000000000 ) ) ;
#8 = PERSON_AND_ORGANIZATION_ROLE ( 'design_owner' ) ;
#9 = LINE ( 'NONE', #123, #291 ) ;
#10 = CIRCLE ( 'NONE', #362, 1.250000000000004663 ) ;
#11 = LINE ( 'NONE', #307, #301 ) ;
#12 = ORIENTED_EDGE ( 'NONE', *, *, #265, .F. ) ;
#13 = DIRECTION ( 'NONE',  ( 0.000000000000000000, 0.000000000000000000, -1.000000000000000000 ) ) ;
#14 = EDGE_CURVE ( 'NONE', #389, #211, #384, .T. ) ;
#15 = CIRCLE ( 'NONE', #121, 1.250000000000004663 ) ;
#16 = APPROVAL_PERSON_ORGANIZATION ( #174, #132, #370 ) ;
#17 = ORIENTED_EDGE ( 'NONE', *, *, #57, .F. ) ;
#18 = ORIENTED_EDGE ( 'NONE', *, *, #321, .T. ) ;
#19 = CARTESIAN_POINT ( 'NONE',  ( -39.00000000000000000, 3.000000000000000000, -19.50000000000000000 ) ) ;
#20 = CARTESIAN_POINT ( 'NONE',  ( -39.00000000000000000, 0.000000000000000000, -19.50000000000000000 ) ) ;
#21 = ORIENTED_EDGE ( 'NONE', *, *, #173, .T. ) ;
#22 = DIRECTION ( 'NONE',  ( 0.000000000000000000, 1.000000000000000000, 0.000000000000000000 ) ) ;
#23 = PERSON_AND_ORGANIZATION ( #88, #220 ) ;
#24 = EDGE_LOOP ( 'NONE', ( #223, #200 ) ) ;
#25 = EDGE_LOOP ( 'NONE', ( #369, #235 ) ) ;
#26 = DIRECTION ( 'NONE',  ( 0.000000000000000000, 1.000000000000000000, 0.000000000000000000 ) ) ;
#27 = ORIENTED_EDGE ( 'NONE', *, *, #216, .F. ) ;
#28 = ORIENTED_EDGE ( 'NONE', *, *, #63, .T. ) ;
#29 = CYLINDRICAL_SURFACE ( 'NONE', #252, 1.250000000000004663 ) ;
#30 = CC_DESIGN_DATE_AND_TIME_ASSIGNMENT ( #40, #98, ( #221 ) ) ;
#31 = FACE_BOUND ( 'NONE', #340, .T. ) ;
#32 = ORIENTED_EDGE ( 'NONE', *, *, #74, .F. ) ;
#33 = CARTESIAN_POINT ( 'NONE',  ( -39.00000000000000000, 3.000000000000000000, -20.75000000000000355 ) ) ;
#34 = COORDINATED_UNIVERSAL_TIME_OFFSET ( 8, 0, .AHEAD. ) ;
#35 = FACE_OUTER_BOUND ( 'NONE', #396, .T. ) ;
#36 = EDGE_CURVE ( 'NONE', #437, #515, #448, .T. ) ;
#37 = VECTOR ( 'NONE', #97, 1000.000000000000000 ) ;
#38 = CARTESIAN_POINT ( 'NONE',  ( -60.00000000000000000, 3.000000000000000000, 42.50000000000000000 ) ) ;
#39 = ADVANCED_FACE ( 'NONE', ( #151 ), #440, .F. ) ;
#40 = DATE_AND_TIME ( #376, #170 ) ;
#41 = PERSON_AND_ORGANIZATION_ROLE ( 'creator' ) ;
#42 = DIRECTION ( 'NONE',  ( 0.000000000000000000, 0.000000000000000000, -1.000000000000000000 ) ) ;
#43 = ORIENTED_EDGE ( 'NONE', *, *, #218, .T. ) ;
#44 = MECHANICAL_CONTEXT ( 'NONE', #407, 'mechanical' ) ;
#45 = AXIS2_PLACEMENT_3D ( 'NONE', #513, #350, #519 ) ;
#46 = CC_DESIGN_PERSON_AND_ORGANIZATION_ASSIGNMENT ( #169, #496, ( #206 ) ) ;
#47 = CARTESIAN_POINT ( 'NONE',  ( -39.00000000000000000, 3.000000000000000000, 20.75000000000000355 ) ) ;
#48 = DIRECTION ( 'NONE',  ( 0.000000000000000000, 0.000000000000000000, -1.000000000000000000 ) ) ;
#49 = ADVANCED_FACE ( 'NONE', ( #31, #284, #215, #135, #297 ), #449, .F. ) ;
#50 = PERSON_AND_ORGANIZATION ( #88, #220 ) ;
#51 = CARTESIAN_POINT ( 'NONE',  ( -39.00000000000000000, 3.000000000000000000, 19.50000000000000000 ) ) ;
#52 = CARTESIAN_POINT ( 'NONE',  ( 39.00000000000000000, 3.000000000000000000, 19.50000000000000000 ) ) ;
#53 = AXIS2_PLACEMENT_3D ( 'NONE', #455, #338, #48 ) ;
#54 = FACE_OUTER_BOUND ( 'NONE', #323, .T. ) ;
#55 = FACE_OUTER_BOUND ( 'NONE', #187, .T. ) ;
#56 = CARTESIAN_POINT ( 'NONE',  ( -39.00000000000000000, 5.000000000000000000, -19.50000000000000000 ) ) ;
#57 = EDGE_CURVE ( 'NONE', #268, #520, #378, .T. ) ;
#58 = ORIENTED_EDGE ( 'NONE', *, *, #427, .T. ) ;
#59 = ORIENTED_EDGE ( 'NONE', *, *, #415, .T. ) ;
#60 = FACE_OUTER_BOUND ( 'NONE', #476, .T. ) ;
#61 = AXIS2_PLACEMENT_3D ( 'NONE', #213, #371, #335 ) ;
#62 = PRODUCT_DEFINITION_SHAPE ( 'NONE', 'NONE',  #221 ) ;
#63 = EDGE_CURVE ( 'NONE', #147, #272, #9, .T. ) ;
#64 = SECURITY_CLASSIFICATION ( '', '', #418 ) ;
#65 = DIRECTION ( 'NONE',  ( 0.000000000000000000, 0.000000000000000000, -1.000000000000000000 ) ) ;
#66 = ORIENTED_EDGE ( 'NONE', *, *, #498, .T. ) ;
#67 = CARTESIAN_POINT ( 'NONE',  ( 39.00000000000000000, 5.000000000000000000, 19.50000000000000000 ) ) ;
#68 = PRODUCT_RELATED_PRODUCT_CATEGORY ( 'detail', '', ( #471 ) ) ;
#69 = APPROVAL_DATE_TIME ( #249, #453 ) ;
#70 = ORIENTED_EDGE ( 'NONE', *, *, #508, .F. ) ;
#71 = ORIENTED_EDGE ( 'NONE', *, *, #415, .F. ) ;
#72 = DIRECTION ( 'NONE',  ( 0.000000000000000000, -1.000000000000000000, 0.000000000000000000 ) ) ;
#73 = ORIENTED_EDGE ( 'NONE', *, *, #289, .T. ) ;
#74 = EDGE_CURVE ( 'NONE', #240, #147, #89, .T. ) ;
#75 = ORIENTED_EDGE ( 'NONE', *, *, #531, .T. ) ;
#76 = CARTESIAN_POINT ( 'NONE',  ( -60.00000000000000000, 3.000000000000000000, -42.50000000000000000 ) ) ;
#77 = CALENDAR_DATE ( 2026, 26, 7 ) ;
#78 = AXIS2_PLACEMENT_3D ( 'NONE', #52, #302, #260 ) ;
#79 = CARTESIAN_POINT ( 'NONE',  ( -60.00000000000000000, 3.000000000000000000, -42.50000000000000000 ) ) ;
#80 = DIRECTION ( 'NONE',  ( -0.000000000000000000, 1.000000000000000000, -0.000000000000000000 ) ) ;
#81 = DIRECTION ( 'NONE',  ( 0.000000000000000000, 0.000000000000000000, 1.000000000000000000 ) ) ;
#82 = EDGE_CURVE ( 'NONE', #211, #520, #380, .T. ) ;
#83 = LINE ( 'NONE', #290, #197 ) ;
#84 = ADVANCED_FACE ( 'NONE', ( #502 ), #461, .F. ) ;
#85 = VECTOR ( 'NONE', #95, 1000.000000000000000 ) ;
#86 = DIRECTION ( 'NONE',  ( 1.000000000000000000, 0.000000000000000000, 0.000000000000000000 ) ) ;
#87 = CC_DESIGN_PERSON_AND_ORGANIZATION_ASSIGNMENT ( #525, #441, ( #64 ) ) ;
#88 = PERSON ( '未指定', '未指定', '未指定', ('未指定'), ('未指定'), ('未指定') ) ;
#89 = LINE ( 'NONE', #217, #493 ) ;
#90 = CARTESIAN_POINT ( 'NONE',  ( 39.00000000000000000, 0.000000000000000000, 18.24999999999999645 ) ) ;
#91 = DIRECTION ( 'NONE',  ( 0.000000000000000000, 0.000000000000000000, -1.000000000000000000 ) ) ;
#92 = APPLICATION_PROTOCOL_DEFINITION ( 'international standard', 'config_control_design', 1994, #407 ) ;
#93 = AXIS2_PLACEMENT_3D ( 'NONE', #255, #295, #42 ) ;
#94 = CC_DESIGN_APPROVAL ( #453, ( #64 ) ) ;
#95 = DIRECTION ( 'NONE',  ( 0.000000000000000000, -1.000000000000000000, 0.000000000000000000 ) ) ;
#96 = DIRECTION ( 'NONE',  ( 0.000000000000000000, 0.000000000000000000, 1.000000000000000000 ) ) ;
#97 = DIRECTION ( 'NONE',  ( 0.000000000000000000, -1.000000000000000000, 0.000000000000000000 ) ) ;
#98 = DATE_TIME_ROLE ( 'creation_date' ) ;
#99 = DIRECTION ( 'NONE',  ( 0.000000000000000000, 0.000000000000000000, -1.000000000000000000 ) ) ;
#100 = EDGE_CURVE ( 'NONE', #442, #231, #273, .T. ) ;
#101 = PERSON_AND_ORGANIZATION_ROLE ( 'design_supplier' ) ;
#102 = CARTESIAN_POINT ( 'NONE',  ( -39.00000000000000000, 0.000000000000000000, -19.50000000000000000 ) ) ;
#103 = VECTOR ( 'NONE', #162, 1000.000000000000000 ) ;
#104 = EDGE_CURVE ( 'NONE', #315, #272, #139, .T. ) ;
#105 = DIRECTION ( 'NONE',  ( 0.000000000000000000, -1.000000000000000000, 0.000000000000000000 ) ) ;
#106 = VERTEX_POINT ( 'NONE', #47 ) ;
#107 = CARTESIAN_POINT ( 'NONE',  ( 39.00000000000000000, 5.000000000000000000, 19.50000000000000000 ) ) ;
#108 = ORIENTED_EDGE ( 'NONE', *, *, #14, .T. ) ;
#109 = ORIENTED_EDGE ( 'NONE', *, *, #74, .T. ) ;
#110 = DIRECTION ( 'NONE',  ( -0.000000000000000000, 1.000000000000000000, -0.000000000000000000 ) ) ;
#111 = AXIS2_PLACEMENT_3D ( 'NONE', #436, #13, #474 ) ;
#112 = LOCAL_TIME ( 2, 42, 29.00000000000000000, #410 ) ;
#113 = ORIENTED_EDGE ( 'NONE', *, *, #484, .T. ) ;
#114 = ORIENTED_EDGE ( 'NONE', *, *, #462, .F. ) ;
#115 = DIRECTION ( 'NONE',  ( 0.000000000000000000, 0.000000000000000000, -1.000000000000000000 ) ) ;
#116 = ORIENTED_EDGE ( 'NONE', *, *, #289, .F. ) ;
#117 = ORIENTED_EDGE ( 'NONE', *, *, #280, .T. ) ;
#118 = CARTESIAN_POINT ( 'NONE',  ( 60.00000000000000000, 3.000000000000000000, 42.50000000000000000 ) ) ;
#119 = ORIENTED_EDGE ( 'NONE', *, *, #82, .F. ) ;
#120 = CARTESIAN_POINT ( 'NONE',  ( 39.00000000000000000, 5.000000000000000000, -19.50000000000000000 ) ) ;
#121 = AXIS2_PLACEMENT_3D ( 'NONE', #528, #487, #444 ) ;
#122 = DIRECTION ( 'NONE',  ( 0.000000000000000000, -1.000000000000000000, 0.000000000000000000 ) ) ;
#123 = CARTESIAN_POINT ( 'NONE',  ( -60.00000000000000000, 0.000000000000000000, -42.50000000000000000 ) ) ;
#124 = FACE_OUTER_BOUND ( 'NONE', #485, .T. ) ;
#125 = EDGE_CURVE ( 'NONE', #442, #159, #377, .T. ) ;
#126 = DIRECTION ( 'NONE',  ( 0.000000000000000000, 0.000000000000000000, 1.000000000000000000 ) ) ;
#127 = ADVANCED_FACE ( 'NONE', ( #413 ), #175, .F. ) ;
#128 = ADVANCED_FACE ( 'NONE', ( #374 ), #414, .F. ) ;
#129 = VECTOR ( 'NONE', #250, 1000.000000000000000 ) ;
#130 = COORDINATED_UNIVERSAL_TIME_OFFSET ( 8, 0, .AHEAD. ) ;
#131 = LOCAL_TIME ( 2, 42, 29.00000000000000000, #208 ) ;
#132 = APPROVAL ( #333, '未指定' ) ;
#133 = PERSON_AND_ORGANIZATION ( #88, #220 ) ;
#134 = LINE ( 'NONE', #451, #3 ) ;
#135 = FACE_BOUND ( 'NONE', #25, .T. ) ;
#136 = AXIS2_PLACEMENT_3D ( 'NONE', #334, #458, #7 ) ;
#137 = CARTESIAN_POINT ( 'NONE',  ( 60.00000000000000000, 3.000000000000000000, 42.50000000000000000 ) ) ;
#138 = VECTOR ( 'NONE', #492, 1000.000000000000000 ) ;
#139 = LINE ( 'NONE', #258, #219 ) ;
#140 = DIRECTION ( 'NONE',  ( -0.000000000000000000, 1.000000000000000000, -0.000000000000000000 ) ) ;
#141 = CARTESIAN_POINT ( 'NONE',  ( 60.00000000000000000, 0.000000000000000000, 42.50000000000000000 ) ) ;
#142 = CARTESIAN_POINT ( 'NONE',  ( -60.00000000000000000, 3.000000000000000000, 42.50000000000000000 ) ) ;
#143 = CIRCLE ( 'NONE', #477, 1.250000000000004663 ) ;
#144 = ORIENTED_EDGE ( 'NONE', *, *, #531, .F. ) ;
#145 = ORIENTED_EDGE ( 'NONE', *, *, #504, .F. ) ;
#146 = CARTESIAN_POINT ( 'NONE',  ( -60.00000000000000000, 3.000000000000000000, -42.50000000000000000 ) ) ;
#147 = VERTEX_POINT ( 'NONE', #505 ) ;
#148 = EDGE_CURVE ( 'NONE', #211, #389, #510, .T. ) ;
#149 = ORIENTED_EDGE ( 'NONE', *, *, #265, .T. ) ;
#150 = CYLINDRICAL_SURFACE ( 'NONE', #243, 1.250000000000004663 ) ;
#151 = FACE_OUTER_BOUND ( 'NONE', #390, .T. ) ;
#152 = EDGE_LOOP ( 'NONE', ( #355, #21, #278, #285 ) ) ;
#153 = DIRECTION ( 'NONE',  ( 0.000000000000000000, 0.000000000000000000, -1.000000000000000000 ) ) ;
#154 = AXIS2_PLACEMENT_3D ( 'NONE', #468, #346, #514 ) ;
#155 = CIRCLE ( 'NONE', #420, 1.250000000000004663 ) ;
#156 = ORIENTED_EDGE ( 'NONE', *, *, #280, .F. ) ;
#157 = ORIENTED_EDGE ( 'NONE', *, *, #165, .T. ) ;
#158 = DIRECTION ( 'NONE',  ( 0.000000000000000000, -1.000000000000000000, 0.000000000000000000 ) ) ;
#159 = VERTEX_POINT ( 'NONE', #417 ) ;
#160 = COORDINATED_UNIVERSAL_TIME_OFFSET ( 8, 0, .AHEAD. ) ;
#161 = ORIENTED_EDGE ( 'NONE', *, *, #148, .T. ) ;
#162 = DIRECTION ( 'NONE',  ( -0.000000000000000000, -0.000000000000000000, 1.000000000000000000 ) ) ;
#163 = LINE ( 'NONE', #489, #430 ) ;
#164 = VECTOR ( 'NONE', #305, 1000.000000000000000 ) ;
#165 = EDGE_CURVE ( 'NONE', #397, #106, #406, .T. ) ;
#166 = CARTESIAN_POINT ( 'NONE',  ( -39.00000000000000000, 0.000000000000000000, -18.24999999999999645 ) ) ;
#167 = CARTESIAN_POINT ( 'NONE',  ( 39.00000000000000000, 0.000000000000000000, 19.50000000000000000 ) ) ;
#168 = DIRECTION ( 'NONE',  ( 0.000000000000000000, 1.000000000000000000, 0.000000000000000000 ) ) ;
#169 = PERSON_AND_ORGANIZATION ( #88, #220 ) ;
#170 = LOCAL_TIME ( 2, 42, 29.00000000000000000, #130 ) ;
#171 = CARTESIAN_POINT ( 'NONE',  ( 39.00000000000000000, 3.000000000000000000, -19.50000000000000000 ) ) ;
#172 = CALENDAR_DATE ( 2026, 26, 7 ) ;
#173 = EDGE_CURVE ( 'NONE', #473, #392, #379, .T. ) ;
#174 = PERSON_AND_ORGANIZATION ( #88, #220 ) ;
#175 = PLANE ( 'NONE',  #61 ) ;
#176 =( NAMED_UNIT ( * ) SI_UNIT ( $, .STERADIAN. ) SOLID_ANGLE_UNIT ( ) );
#177 = AXIS2_PLACEMENT_3D ( 'NONE', #329, #325, #439 ) ;
#178 = CARTESIAN_POINT ( 'NONE',  ( 39.00000000000000000, 5.000000000000000000, 18.24999999999999645 ) ) ;
#179 = CARTESIAN_POINT ( 'NONE',  ( 39.00000000000000000, 0.000000000000000000, 19.50000000000000000 ) ) ;
#180 = CARTESIAN_POINT ( 'NONE',  ( 39.00000000000000000, 3.000000000000000000, 18.24999999999999645 ) ) ;
#181 = APPROVAL ( #364, '未指定' ) ;
#182 = VERTEX_POINT ( 'NONE', #141 ) ;
#183 = DIRECTION ( 'NONE',  ( 0.000000000000000000, 0.000000000000000000, -1.000000000000000000 ) ) ;
#184 = AXIS2_PLACEMENT_3D ( 'NONE', #51, #140, #99 ) ;
#185 = ADVANCED_FACE ( 'NONE', ( #226 ), #383, .F. ) ;
#186 = EDGE_LOOP ( 'NONE', ( #157, #481, #246, #356 ) ) ;
#187 = EDGE_LOOP ( 'NONE', ( #114, #482, #43, #145 ) ) ;
#188 = FACE_OUTER_BOUND ( 'NONE', #393, .T. ) ;
#189 = ORIENTED_EDGE ( 'NONE', *, *, #495, .T. ) ;
#190 = ADVANCED_FACE ( 'NONE', ( #188 ), #464, .F. ) ;
#191 = EDGE_LOOP ( 'NONE', ( #59, #524 ) ) ;
#192 = PLANE ( 'NONE',  #45 ) ;
#193 = ORIENTED_EDGE ( 'NONE', *, *, #330, .T. ) ;
#194 = ORIENTED_EDGE ( 'NONE', *, *, #125, .T. ) ;
#195 = CARTESIAN_POINT ( 'NONE',  ( 39.00000000000000000, 5.000000000000000000, -19.50000000000000000 ) ) ;
#196 = AXIS2_PLACEMENT_3D ( 'NONE', #20, #349, #517 ) ;
#197 = VECTOR ( 'NONE', #86, 1000.000000000000000 ) ;
#198 = APPROVAL_STATUS ( 'not_yet_approved' ) ;
#199 = ORIENTED_EDGE ( 'NONE', *, *, #484, .F. ) ;
#200 = ORIENTED_EDGE ( 'NONE', *, *, #504, .T. ) ;
#201 = DIRECTION ( 'NONE',  ( 0.000000000000000000, 0.000000000000000000, -1.000000000000000000 ) ) ;
#202 = FACE_OUTER_BOUND ( 'NONE', #423, .T. ) ;
#203 = CARTESIAN_POINT ( 'NONE',  ( -39.00000000000000000, 0.000000000000000000, 20.75000000000000355 ) ) ;
#204 = AXIS2_PLACEMENT_3D ( 'NONE', #179, #500, #452 ) ;
#205 = AXIS2_PLACEMENT_3D ( 'NONE', #212, #168, #96 ) ;
#206 = PRODUCT_DEFINITION_FORMATION_WITH_SPECIFIED_SOURCE ( '任何', '', #471, .NOT_KNOWN. ) ;
#207 = FACE_BOUND ( 'NONE', #385, .T. ) ;
#208 = COORDINATED_UNIVERSAL_TIME_OFFSET ( 8, 0, .AHEAD. ) ;
#209 = CALENDAR_DATE ( 2026, 26, 7 ) ;
#210 = CIRCLE ( 'NONE', #332, 1.250000000000004663 ) ;
#211 = VERTEX_POINT ( 'NONE', #180 ) ;
#212 = CARTESIAN_POINT ( 'NONE',  ( -39.00000000000000000, 0.000000000000000000, 19.50000000000000000 ) ) ;
#213 = CARTESIAN_POINT ( 'NONE',  ( 60.00000000000000000, 3.000000000000000000, 42.50000000000000000 ) ) ;
#214 = CARTESIAN_POINT ( 'NONE',  ( 0.000000000000000000, 0.000000000000000000, 0.000000000000000000 ) ) ;
#215 = FACE_BOUND ( 'NONE', #228, .T. ) ;
#216 = EDGE_CURVE ( 'NONE', #392, #515, #348, .T. ) ;
#217 = CARTESIAN_POINT ( 'NONE',  ( 60.00000000000000000, 3.000000000000000000, -42.50000000000000000 ) ) ;
#218 = EDGE_CURVE ( 'NONE', #397, #465, #516, .T. ) ;
#219 = VECTOR ( 'NONE', #256, 1000.000000000000000 ) ;
#220 = ORGANIZATION ( '未指定', '未指定', '' ) ;
#221 = PRODUCT_DEFINITION ( '未知', '', #206, #271 ) ;
#222 = FACE_OUTER_BOUND ( 'NONE', #351, .T. ) ;
#223 = ORIENTED_EDGE ( 'NONE', *, *, #234, .T. ) ;
#224 = CC_DESIGN_DATE_AND_TIME_ASSIGNMENT ( #354, #238, ( #64 ) ) ;
#225 = EDGE_CURVE ( 'NONE', #106, #397, #155, .T. ) ;
#226 = FACE_OUTER_BOUND ( 'NONE', #512, .T. ) ;
#227 = ORIENTED_EDGE ( 'NONE', *, *, #367, .F. ) ;
#228 = EDGE_LOOP ( 'NONE', ( #431, #199 ) ) ;
#229 = CARTESIAN_POINT ( 'NONE',  ( -39.00000000000000000, 5.000000000000000000, 18.24999999999999645 ) ) ;
#230 = VECTOR ( 'NONE', #422, 1000.000000000000000 ) ;
#231 = VERTEX_POINT ( 'NONE', #381 ) ;
#232 = ORIENTED_EDGE ( 'NONE', *, *, #148, .F. ) ;
#233 = LINE ( 'NONE', #142, #230 ) ;
#234 = EDGE_CURVE ( 'NONE', #465, #382, #343, .T. ) ;
#235 = ORIENTED_EDGE ( 'NONE', *, *, #225, .F. ) ;
#236 = ORIENTED_EDGE ( 'NONE', *, *, #490, .F. ) ;
#237 = DIRECTION ( 'NONE',  ( 0.000000000000000000, 0.000000000000000000, -1.000000000000000000 ) ) ;
#238 = DATE_TIME_ROLE ( 'classification_date' ) ;
#239 = ORIENTED_EDGE ( 'NONE', *, *, #508, .T. ) ;
#240 = VERTEX_POINT ( 'NONE', #274 ) ;
#241 = DIRECTION ( 'NONE',  ( -1.000000000000000000, -0.000000000000000000, -0.000000000000000000 ) ) ;
#242 = AXIS2_PLACEMENT_3D ( 'NONE', #195, #158, #353 ) ;
#243 = AXIS2_PLACEMENT_3D ( 'NONE', #67, #313, #183 ) ;
#244 = AXIS2_PLACEMENT_3D ( 'NONE', #214, #454, #411 ) ;
#245 = DIRECTION ( 'NONE',  ( 0.000000000000000000, 0.000000000000000000, 1.000000000000000000 ) ) ;
#246 = ORIENTED_EDGE ( 'NONE', *, *, #234, .F. ) ;
#247 = DIRECTION ( 'NONE',  ( 0.000000000000000000, 0.000000000000000000, -1.000000000000000000 ) ) ;
#248 = CC_DESIGN_PERSON_AND_ORGANIZATION_ASSIGNMENT ( #373, #41, ( #221 ) ) ;
#249 = DATE_AND_TIME ( #359, #327 ) ;
#250 = DIRECTION ( 'NONE',  ( -0.000000000000000000, -1.000000000000000000, -0.000000000000000000 ) ) ;
#251 = DIRECTION ( 'NONE',  ( 0.000000000000000000, -1.000000000000000000, 0.000000000000000000 ) ) ;
#252 = AXIS2_PLACEMENT_3D ( 'NONE', #120, #251, #247 ) ;
#253 = CARTESIAN_POINT ( 'NONE',  ( 39.00000000000000000, 3.000000000000000000, -20.75000000000000355 ) ) ;
#254 = APPLICATION_PROTOCOL_DEFINITION ( 'international standard', 'config_control_design', 1994, #459 ) ;
#255 = CARTESIAN_POINT ( 'NONE',  ( -39.00000000000000000, 5.000000000000000000, 19.50000000000000000 ) ) ;
#256 = DIRECTION ( 'NONE',  ( -0.000000000000000000, -1.000000000000000000, -0.000000000000000000 ) ) ;
#257 = AXIS2_PLACEMENT_3D ( 'NONE', #107, #310, #470 ) ;
#258 = CARTESIAN_POINT ( 'NONE',  ( -60.00000000000000000, 3.000000000000000000, -42.50000000000000000 ) ) ;
#259 = APPROVAL_DATE_TIME ( #499, #132 ) ;
#260 = DIRECTION ( 'NONE',  ( 0.000000000000000000, 0.000000000000000000, -1.000000000000000000 ) ) ;
#261 = PERSON_AND_ORGANIZATION ( #88, #220 ) ;
#262 = ADVANCED_FACE ( 'NONE', ( #54 ), #150, .F. ) ;
#263 = VECTOR ( 'NONE', #530, 1000.000000000000000 ) ;
#264 = DIRECTION ( 'NONE',  ( 0.000000000000000000, 0.000000000000000000, 1.000000000000000000 ) ) ;
#265 = EDGE_CURVE ( 'NONE', #515, #437, #494, .T. ) ;
#266 = LINE ( 'NONE', #424, #292 ) ;
#267 = ORIENTED_EDGE ( 'NONE', *, *, #388, .F. ) ;
#268 = VERTEX_POINT ( 'NONE', #391 ) ;
#269 = LINE ( 'NONE', #287, #129 ) ;
#270 = CARTESIAN_POINT ( 'NONE',  ( 39.00000000000000000, 3.000000000000000000, 19.50000000000000000 ) ) ;
#271 = DESIGN_CONTEXT ( 'detailed design', #459, 'design' ) ;
#272 = VERTEX_POINT ( 'NONE', #339 ) ;
#273 = CIRCLE ( 'NONE', #337, 1.250000000000004663 ) ;
#274 = CARTESIAN_POINT ( 'NONE',  ( 60.00000000000000000, 3.000000000000000000, -42.50000000000000000 ) ) ;
#275 = AXIS2_PLACEMENT_3D ( 'NONE', #460, #299, #294 ) ;
#276 = CC_DESIGN_APPROVAL ( #132, ( #221 ) ) ;
#277 = VERTEX_POINT ( 'NONE', #467 ) ;
#278 = ORIENTED_EDGE ( 'NONE', *, *, #216, .T. ) ;
#279 = DIRECTION ( 'NONE',  ( 0.000000000000000000, -1.000000000000000000, 0.000000000000000000 ) ) ;
#280 = EDGE_CURVE ( 'NONE', #518, #240, #428, .T. ) ;
#281 = ORIENTED_EDGE ( 'NONE', *, *, #412, .T. ) ;
#282 = EDGE_LOOP ( 'NONE', ( #401, #75 ) ) ;
#283 = LINE ( 'NONE', #76, #443 ) ;
#284 = FACE_BOUND ( 'NONE', #425, .T. ) ;
#285 = ORIENTED_EDGE ( 'NONE', *, *, #36, .F. ) ;
#286 = DIRECTION ( 'NONE',  ( 0.000000000000000000, -1.000000000000000000, 0.000000000000000000 ) ) ;
#287 = CARTESIAN_POINT ( 'NONE',  ( -60.00000000000000000, 3.000000000000000000, 42.50000000000000000 ) ) ;
#288 = CARTESIAN_POINT ( 'NONE',  ( 39.00000000000000000, 3.000000000000000000, 20.75000000000000355 ) ) ;
#289 = EDGE_CURVE ( 'NONE', #469, #518, #233, .T. ) ;
#290 = CARTESIAN_POINT ( 'NONE',  ( -60.00000000000000000, 0.000000000000000000, 42.50000000000000000 ) ) ;
#291 = VECTOR ( 'NONE', #336, 1000.000000000000000 ) ;
#292 = VECTOR ( 'NONE', #153, 1000.000000000000000 ) ;
#293 = CC_DESIGN_SECURITY_CLASSIFICATION ( #64, ( #206 ) ) ;
#294 = DIRECTION ( 'NONE',  ( 0.000000000000000000, 0.000000000000000000, 1.000000000000000000 ) ) ;
#295 = DIRECTION ( 'NONE',  ( 0.000000000000000000, -1.000000000000000000, 0.000000000000000000 ) ) ;
#296 = CC_DESIGN_PERSON_AND_ORGANIZATION_ASSIGNMENT ( #133, #101, ( #206 ) ) ;
#297 = FACE_OUTER_BOUND ( 'NONE', #434, .T. ) ;
#298 = ADVANCED_FACE ( 'NONE', ( #222 ), #192, .F. ) ;
#299 = DIRECTION ( 'NONE',  ( 0.000000000000000000, 1.000000000000000000, 0.000000000000000000 ) ) ;
#300 = CARTESIAN_POINT ( 'NONE',  ( 39.00000000000000000, 5.000000000000000000, -20.75000000000000355 ) ) ;
#301 = VECTOR ( 'NONE', #105, 1000.000000000000000 ) ;
#302 = DIRECTION ( 'NONE',  ( -0.000000000000000000, 1.000000000000000000, -0.000000000000000000 ) ) ;
#303 = DIRECTION ( 'NONE',  ( 0.000000000000000000, -1.000000000000000000, 0.000000000000000000 ) ) ;
#304 = UNCERTAINTY_MEASURE_WITH_UNIT (LENGTH_MEASURE( 1.000000000000000082E-05 ), #331, 'distance_accuracy_value', 'NONE');
#305 = DIRECTION ( 'NONE',  ( 0.000000000000000000, -1.000000000000000000, 0.000000000000000000 ) ) ;
#306 = CC_DESIGN_APPROVAL ( #181, ( #206 ) ) ;
#307 = CARTESIAN_POINT ( 'NONE',  ( -39.00000000000000000, 5.000000000000000000, -18.24999999999999645 ) ) ;
#308 = ORIENTED_EDGE ( 'NONE', *, *, #421, .F. ) ;
#309 = ORIENTED_EDGE ( 'NONE', *, *, #173, .F. ) ;
#310 = DIRECTION ( 'NONE',  ( 0.000000000000000000, -1.000000000000000000, 0.000000000000000000 ) ) ;
#311 = ORIENTED_EDGE ( 'NONE', *, *, #36, .T. ) ;
#312 = ORIENTED_EDGE ( 'NONE', *, *, #475, .T. ) ;
#313 = DIRECTION ( 'NONE',  ( 0.000000000000000000, -1.000000000000000000, 0.000000000000000000 ) ) ;
#314 = ORIENTED_EDGE ( 'NONE', *, *, #367, .T. ) ;
#315 = VERTEX_POINT ( 'NONE', #146 ) ;
#316 = CYLINDRICAL_SURFACE ( 'NONE', #257, 1.250000000000004663 ) ;
#317 = VECTOR ( 'NONE', #286, 1000.000000000000000 ) ;
#318 = ORIENTED_EDGE ( 'NONE', *, *, #14, .F. ) ;
#319 = ORIENTED_EDGE ( 'NONE', *, *, #104, .T. ) ;
#320 = PLANE ( 'NONE',  #177 ) ;
#321 = EDGE_CURVE ( 'NONE', #473, #437, #11, .T. ) ;
#322 = ORIENTED_EDGE ( 'NONE', *, *, #490, .T. ) ;
#323 = EDGE_LOOP ( 'NONE', ( #161, #66, #71, #119 ) ) ;
#324 = FACE_BOUND ( 'NONE', #191, .T. ) ;
#325 = DIRECTION ( 'NONE',  ( 0.000000000000000000, -1.000000000000000000, 0.000000000000000000 ) ) ;
#326 = AXIS2_PLACEMENT_3D ( 'NONE', #19, #480, #115 ) ;
#327 = LOCAL_TIME ( 2, 42, 29.00000000000000000, #34 ) ;
#328 = CARTESIAN_POINT ( 'NONE',  ( -39.00000000000000000, 5.000000000000000000, 20.75000000000000355 ) ) ;
#329 = CARTESIAN_POINT ( 'NONE',  ( 0.000000000000000000, 0.000000000000000000, 0.000000000000000000 ) ) ;
#330 = EDGE_CURVE ( 'NONE', #182, #147, #266, .T. ) ;
#331 =( LENGTH_UNIT ( ) NAMED_UNIT ( * ) SI_UNIT ( .MILLI., .METRE. ) );
#332 = AXIS2_PLACEMENT_3D ( 'NONE', #398, #80, #201 ) ;
#333 = APPROVAL_STATUS ( 'not_yet_approved' ) ;
#334 = CARTESIAN_POINT ( 'NONE',  ( 0.000000000000000000, 3.000000000000000000, 0.000000000000000000 ) ) ;
#335 = DIRECTION ( 'NONE',  ( 0.000000000000000000, 0.000000000000000000, 1.000000000000000000 ) ) ;
#336 = DIRECTION ( 'NONE',  ( -1.000000000000000000, -0.000000000000000000, -0.000000000000000000 ) ) ;
#337 = AXIS2_PLACEMENT_3D ( 'NONE', #171, #497, #91 ) ;
#338 = DIRECTION ( 'NONE',  ( 0.000000000000000000, -1.000000000000000000, 0.000000000000000000 ) ) ;
#339 = CARTESIAN_POINT ( 'NONE',  ( -60.00000000000000000, 0.000000000000000000, -42.50000000000000000 ) ) ;
#340 = EDGE_LOOP ( 'NONE', ( #232, #318 ) ) ;
#341 = CARTESIAN_POINT ( 'NONE',  ( -39.00000000000000000, 5.000000000000000000, -20.75000000000000355 ) ) ;
#342 = ORIENTED_EDGE ( 'NONE', *, *, #475, .F. ) ;
#343 = CIRCLE ( 'NONE', #521, 1.250000000000004663 ) ;
#344 = ORIENTED_EDGE ( 'NONE', *, *, #427, .F. ) ;
#345 = CARTESIAN_POINT ( 'NONE',  ( 60.00000000000000000, 3.000000000000000000, 42.50000000000000000 ) ) ;
#346 = DIRECTION ( 'NONE',  ( 0.000000000000000000, -1.000000000000000000, 0.000000000000000000 ) ) ;
#347 = ORIENTED_EDGE ( 'NONE', *, *, #388, .T. ) ;
#348 = LINE ( 'NONE', #341, #164 ) ;
#349 = DIRECTION ( 'NONE',  ( 0.000000000000000000, 1.000000000000000000, 0.000000000000000000 ) ) ;
#350 = DIRECTION ( 'NONE',  ( 1.000000000000000000, -0.000000000000000000, 0.000000000000000000 ) ) ;
#351 = EDGE_LOOP ( 'NONE', ( #322, #227, #267, #319 ) ) ;
#352 = ORIENTED_EDGE ( 'NONE', *, *, #125, .F. ) ;
#353 = DIRECTION ( 'NONE',  ( 0.000000000000000000, 0.000000000000000000, -1.000000000000000000 ) ) ;
#354 = DATE_AND_TIME ( #77, #368 ) ;
#355 = ORIENTED_EDGE ( 'NONE', *, *, #321, .F. ) ;
#356 = ORIENTED_EDGE ( 'NONE', *, *, #218, .F. ) ;
#357 = CARTESIAN_POINT ( 'NONE',  ( -60.00000000000000000, 0.000000000000000000, 42.50000000000000000 ) ) ;
#358 = LINE ( 'NONE', #527, #103 ) ;
#359 = CALENDAR_DATE ( 2026, 26, 7 ) ;
#360 = CLOSED_SHELL ( 'NONE', ( #262, #185, #372, #84, #298, #190, #127, #39, #49, #375, #6, #450, #128, #365 ) ) ;
#361 = CARTESIAN_POINT ( 'NONE',  ( -39.00000000000000000, 3.000000000000000000, 18.24999999999999645 ) ) ;
#362 = AXIS2_PLACEMENT_3D ( 'NONE', #491, #447, #81 ) ;
#363 = LINE ( 'NONE', #118, #263 ) ;
#364 = APPROVAL_STATUS ( 'not_yet_approved' ) ;
#365 = ADVANCED_FACE ( 'NONE', ( #60 ), #316, .F. ) ;
#366 = DATE_AND_TIME ( #209, #112 ) ;
#367 = EDGE_CURVE ( 'NONE', #469, #486, #269, .T. ) ;
#368 = LOCAL_TIME ( 2, 42, 29.00000000000000000, #160 ) ;
#369 = ORIENTED_EDGE ( 'NONE', *, *, #165, .F. ) ;
#370 = APPROVAL_ROLE ( '' ) ;
#371 = DIRECTION ( 'NONE',  ( -1.000000000000000000, 0.000000000000000000, 0.000000000000000000 ) ) ;
#372 = ADVANCED_FACE ( 'NONE', ( #124 ), #29, .F. ) ;
#373 = PERSON_AND_ORGANIZATION ( #88, #220 ) ;
#374 = FACE_OUTER_BOUND ( 'NONE', #152, .T. ) ;
#375 = ADVANCED_FACE ( 'NONE', ( #324, #207, #445, #404, #35 ), #320, .T. ) ;
#376 = CALENDAR_DATE ( 2026, 26, 7 ) ;
#377 = LINE ( 'NONE', #300, #85 ) ;
#378 = CIRCLE ( 'NONE', #204, 1.250000000000004663 ) ;
#379 = CIRCLE ( 'NONE', #326, 1.250000000000004663 ) ;
#380 = LINE ( 'NONE', #178, #37 ) ;
#381 = CARTESIAN_POINT ( 'NONE',  ( 39.00000000000000000, 3.000000000000000000, -18.24999999999999645 ) ) ;
#382 = VERTEX_POINT ( 'NONE', #203 ) ;
#383 = CYLINDRICAL_SURFACE ( 'NONE', #399, 1.250000000000004663 ) ;
#384 = CIRCLE ( 'NONE', #1, 1.250000000000004663 ) ;
#385 = EDGE_LOOP ( 'NONE', ( #149, #311 ) ) ;
#386 = ORIENTED_EDGE ( 'NONE', *, *, #495, .F. ) ;
#387 = CARTESIAN_POINT ( 'NONE',  ( -39.00000000000000000, 3.000000000000000000, 19.50000000000000000 ) ) ;
#388 = EDGE_CURVE ( 'NONE', #315, #469, #402, .T. ) ;
#389 = VERTEX_POINT ( 'NONE', #288 ) ;
#390 = EDGE_LOOP ( 'NONE', ( #28, #435, #342, #109 ) ) ;
#391 = CARTESIAN_POINT ( 'NONE',  ( 39.00000000000000000, 0.000000000000000000, 20.75000000000000355 ) ) ;
#392 = VERTEX_POINT ( 'NONE', #33 ) ;
#393 = EDGE_LOOP ( 'NONE', ( #58, #438, #116, #314 ) ) ;
#394 = DIRECTION ( 'NONE',  ( 0.000000000000000000, 0.000000000000000000, 1.000000000000000000 ) ) ;
#395 = MANIFOLD_SOLID_BREP ( '切除-拉伸1', #360 ) ;
#396 = EDGE_LOOP ( 'NONE', ( #236, #426, #479, #344 ) ) ;
#397 = VERTEX_POINT ( 'NONE', #361 ) ;
#398 = CARTESIAN_POINT ( 'NONE',  ( 39.00000000000000000, 3.000000000000000000, -19.50000000000000000 ) ) ;
#399 = AXIS2_PLACEMENT_3D ( 'NONE', #56, #279, #509 ) ;
#400 = DIRECTION ( 'NONE',  ( 1.000000000000000000, 0.000000000000000000, -0.000000000000000000 ) ) ;
#401 = ORIENTED_EDGE ( 'NONE', *, *, #421, .T. ) ;
#402 = LINE ( 'NONE', #532, #138 ) ;
#403 = APPROVAL_ROLE ( '' ) ;
#404 = FACE_BOUND ( 'NONE', #24, .T. ) ;
#405 = CARTESIAN_POINT ( 'NONE',  ( -39.00000000000000000, 0.000000000000000000, 18.24999999999999645 ) ) ;
#406 = CIRCLE ( 'NONE', #184, 1.250000000000004663 ) ;
#407 = APPLICATION_CONTEXT ( 'configuration controlled 3d designs of mechanical parts and assemblies' ) ;
#408 = CYLINDRICAL_SURFACE ( 'NONE', #242, 1.250000000000004663 ) ;
#409 = CC_DESIGN_PERSON_AND_ORGANIZATION_ASSIGNMENT ( #50, #8, ( #471 ) ) ;
#410 = COORDINATED_UNIVERSAL_TIME_OFFSET ( 8, 0, .AHEAD. ) ;
#411 = DIRECTION ( 'NONE',  ( 1.000000000000000000, 0.000000000000000000, 0.000000000000000000 ) ) ;
#412 = EDGE_CURVE ( 'NONE', #518, #182, #363, .T. ) ;
#413 = FACE_OUTER_BOUND ( 'NONE', #463, .T. ) ;
#414 = CYLINDRICAL_SURFACE ( 'NONE', #53, 1.250000000000004663 ) ;
#415 = EDGE_CURVE ( 'NONE', #520, #268, #143, .T. ) ;
#416 = CARTESIAN_POINT ( 'NONE',  ( -39.00000000000000000, 0.000000000000000000, -20.75000000000000355 ) ) ;
#417 = CARTESIAN_POINT ( 'NONE',  ( 39.00000000000000000, 0.000000000000000000, -20.75000000000000355 ) ) ;
#418 = SECURITY_CLASSIFICATION_LEVEL ( 'unclassified' ) ;
#419 = DIRECTION ( 'NONE',  ( -0.000000000000000000, -1.000000000000000000, -0.000000000000000000 ) ) ;
#420 = AXIS2_PLACEMENT_3D ( 'NONE', #387, #110, #237 ) ;
#421 = EDGE_CURVE ( 'NONE', #159, #277, #10, .T. ) ;
#422 = DIRECTION ( 'NONE',  ( 1.000000000000000000, 0.000000000000000000, 0.000000000000000000 ) ) ;
#423 = EDGE_LOOP ( 'NONE', ( #70, #113, #194, #144 ) ) ;
#424 = CARTESIAN_POINT ( 'NONE',  ( 60.00000000000000000, 0.000000000000000000, 42.50000000000000000 ) ) ;
#425 = EDGE_LOOP ( 'NONE', ( #386, #309 ) ) ;
#426 = ORIENTED_EDGE ( 'NONE', *, *, #63, .F. ) ;
#427 = EDGE_CURVE ( 'NONE', #486, #182, #83, .T. ) ;
#428 = LINE ( 'NONE', #345, #4 ) ;
#429 = DIRECTION ( 'NONE',  ( -0.000000000000000000, 1.000000000000000000, -0.000000000000000000 ) ) ;
#430 = VECTOR ( 'NONE', #122, 1000.000000000000000 ) ;
#431 = ORIENTED_EDGE ( 'NONE', *, *, #100, .F. ) ;
#432 = CARTESIAN_POINT ( 'NONE',  ( -39.00000000000000000, 0.000000000000000000, 19.50000000000000000 ) ) ;
#433 = SHAPE_DEFINITION_REPRESENTATION ( #62, #507 ) ;
#434 = EDGE_LOOP ( 'NONE', ( #347, #73, #117, #312 ) ) ;
#435 = ORIENTED_EDGE ( 'NONE', *, *, #104, .F. ) ;
#436 = CARTESIAN_POINT ( 'NONE',  ( -60.00000000000000000, 3.000000000000000000, 42.50000000000000000 ) ) ;
#437 = VERTEX_POINT ( 'NONE', #166 ) ;
#438 = ORIENTED_EDGE ( 'NONE', *, *, #412, .F. ) ;
#439 = DIRECTION ( 'NONE',  ( 0.000000000000000000, -0.000000000000000000, -1.000000000000000000 ) ) ;
#440 = PLANE ( 'NONE',  #456 ) ;
#441 = PERSON_AND_ORGANIZATION_ROLE ( 'classification_officer' ) ;
#442 = VERTEX_POINT ( 'NONE', #253 ) ;
#443 = VECTOR ( 'NONE', #241, 1000.000000000000000 ) ;
#444 = DIRECTION ( 'NONE',  ( 0.000000000000000000, 0.000000000000000000, -1.000000000000000000 ) ) ;
#445 = FACE_BOUND ( 'NONE', #282, .T. ) ;
#446 = LINE ( 'NONE', #328, #317 ) ;
#447 = DIRECTION ( 'NONE',  ( 0.000000000000000000, 1.000000000000000000, 0.000000000000000000 ) ) ;
#448 = CIRCLE ( 'NONE', #196, 1.250000000000004663 ) ;
#449 = PLANE ( 'NONE',  #136 ) ;
#450 = ADVANCED_FACE ( 'NONE', ( #202 ), #408, .F. ) ;
#451 = CARTESIAN_POINT ( 'NONE',  ( 39.00000000000000000, 5.000000000000000000, -18.24999999999999645 ) ) ;
#452 = DIRECTION ( 'NONE',  ( 0.000000000000000000, 0.000000000000000000, 1.000000000000000000 ) ) ;
#453 = APPROVAL ( #198, '未指定' ) ;
#454 = DIRECTION ( 'NONE',  ( 0.000000000000000000, 0.000000000000000000, 1.000000000000000000 ) ) ;
#455 = CARTESIAN_POINT ( 'NONE',  ( -39.00000000000000000, 5.000000000000000000, -19.50000000000000000 ) ) ;
#456 = AXIS2_PLACEMENT_3D ( 'NONE', #79, #245, #400 ) ;
#457 = AXIS2_PLACEMENT_3D ( 'NONE', #102, #26, #264 ) ;
#458 = DIRECTION ( 'NONE',  ( 0.000000000000000000, -1.000000000000000000, 0.000000000000000000 ) ) ;
#459 = APPLICATION_CONTEXT ( 'configuration controlled 3d designs of mechanical parts and assemblies' ) ;
#460 = CARTESIAN_POINT ( 'NONE',  ( 39.00000000000000000, 0.000000000000000000, -19.50000000000000000 ) ) ;
#461 = CYLINDRICAL_SURFACE ( 'NONE', #93, 1.250000000000004663 ) ;
#462 = EDGE_CURVE ( 'NONE', #106, #382, #446, .T. ) ;
#463 = EDGE_LOOP ( 'NONE', ( #193, #32, #156, #281 ) ) ;
#464 = PLANE ( 'NONE',  #111 ) ;
#465 = VERTEX_POINT ( 'NONE', #405 ) ;
#466 =( GEOMETRIC_REPRESENTATION_CONTEXT ( 3 ) GLOBAL_UNCERTAINTY_ASSIGNED_CONTEXT ( ( #304 ) ) GLOBAL_UNIT_ASSIGNED_CONTEXT ( ( #331, #501, #176 ) ) REPRESENTATION_CONTEXT ( 'NONE', 'WORKASPACE' ) );
#467 = CARTESIAN_POINT ( 'NONE',  ( 39.00000000000000000, 0.000000000000000000, -18.24999999999999645 ) ) ;
#468 = CARTESIAN_POINT ( 'NONE',  ( -39.00000000000000000, 5.000000000000000000, 19.50000000000000000 ) ) ;
#469 = VERTEX_POINT ( 'NONE', #38 ) ;
#470 = DIRECTION ( 'NONE',  ( 0.000000000000000000, 0.000000000000000000, -1.000000000000000000 ) ) ;
#471 = PRODUCT ( 'FN-SUB-002_tilt-reference-plate_M3_R0.2', 'FN-SUB-002_tilt-reference-plate_M3_R0.2', '', ( #44 ) ) ;
#472 = ORIENTED_EDGE ( 'NONE', *, *, #498, .F. ) ;
#473 = VERTEX_POINT ( 'NONE', #483 ) ;
#474 = DIRECTION ( 'NONE',  ( -1.000000000000000000, 0.000000000000000000, -0.000000000000000000 ) ) ;
#475 = EDGE_CURVE ( 'NONE', #240, #315, #283, .T. ) ;
#476 = EDGE_LOOP ( 'NONE', ( #472, #108, #522, #17 ) ) ;
#477 = AXIS2_PLACEMENT_3D ( 'NONE', #167, #523, #126 ) ;
#478 = APPROVAL_PERSON_ORGANIZATION ( #23, #453, #403 ) ;
#479 = ORIENTED_EDGE ( 'NONE', *, *, #330, .F. ) ;
#480 = DIRECTION ( 'NONE',  ( -0.000000000000000000, 1.000000000000000000, -0.000000000000000000 ) ) ;
#481 = ORIENTED_EDGE ( 'NONE', *, *, #462, .T. ) ;
#482 = ORIENTED_EDGE ( 'NONE', *, *, #225, .T. ) ;
#483 = CARTESIAN_POINT ( 'NONE',  ( -39.00000000000000000, 3.000000000000000000, -18.24999999999999645 ) ) ;
#484 = EDGE_CURVE ( 'NONE', #231, #442, #210, .T. ) ;
#485 = EDGE_LOOP ( 'NONE', ( #526, #239, #308, #352 ) ) ;
#486 = VERTEX_POINT ( 'NONE', #357 ) ;
#487 = DIRECTION ( 'NONE',  ( -0.000000000000000000, 1.000000000000000000, -0.000000000000000000 ) ) ;
#488 = CIRCLE ( 'NONE', #205, 1.250000000000004663 ) ;
#489 = CARTESIAN_POINT ( 'NONE',  ( 39.00000000000000000, 5.000000000000000000, 20.75000000000000355 ) ) ;
#490 = EDGE_CURVE ( 'NONE', #272, #486, #358, .T. ) ;
#491 = CARTESIAN_POINT ( 'NONE',  ( 39.00000000000000000, 0.000000000000000000, -19.50000000000000000 ) ) ;
#492 = DIRECTION ( 'NONE',  ( -0.000000000000000000, -0.000000000000000000, 1.000000000000000000 ) ) ;
#493 = VECTOR ( 'NONE', #419, 1000.000000000000000 ) ;
#494 = CIRCLE ( 'NONE', #457, 1.250000000000004663 ) ;
#495 = EDGE_CURVE ( 'NONE', #392, #473, #15, .T. ) ;
#496 = PERSON_AND_ORGANIZATION_ROLE ( 'creator' ) ;
#497 = DIRECTION ( 'NONE',  ( -0.000000000000000000, 1.000000000000000000, -0.000000000000000000 ) ) ;
#498 = EDGE_CURVE ( 'NONE', #389, #268, #163, .T. ) ;
#499 = DATE_AND_TIME ( #172, #131 ) ;
#500 = DIRECTION ( 'NONE',  ( 0.000000000000000000, 1.000000000000000000, 0.000000000000000000 ) ) ;
#501 =( NAMED_UNIT ( * ) PLANE_ANGLE_UNIT ( ) SI_UNIT ( $, .RADIAN. ) );
#502 = FACE_OUTER_BOUND ( 'NONE', #186, .T. ) ;
#503 = CIRCLE ( 'NONE', #275, 1.250000000000004663 ) ;
#504 = EDGE_CURVE ( 'NONE', #382, #465, #488, .T. ) ;
#505 = CARTESIAN_POINT ( 'NONE',  ( 60.00000000000000000, 0.000000000000000000, -42.50000000000000000 ) ) ;
#506 = DIRECTION ( 'NONE',  ( 0.000000000000000000, 0.000000000000000000, -1.000000000000000000 ) ) ;
#507 = ADVANCED_BREP_SHAPE_REPRESENTATION ( 'FN-SUB-002_tilt-reference-plate_M3_R0.2', ( #395, #244 ), #466 ) ;
#508 = EDGE_CURVE ( 'NONE', #231, #277, #134, .T. ) ;
#509 = DIRECTION ( 'NONE',  ( 0.000000000000000000, 0.000000000000000000, -1.000000000000000000 ) ) ;
#510 = CIRCLE ( 'NONE', #78, 1.250000000000004663 ) ;
#511 = CYLINDRICAL_SURFACE ( 'NONE', #154, 1.250000000000004663 ) ;
#512 = EDGE_LOOP ( 'NONE', ( #189, #18, #12, #27 ) ) ;
#513 = CARTESIAN_POINT ( 'NONE',  ( -60.00000000000000000, 3.000000000000000000, 42.50000000000000000 ) ) ;
#514 = DIRECTION ( 'NONE',  ( 0.000000000000000000, 0.000000000000000000, -1.000000000000000000 ) ) ;
#515 = VERTEX_POINT ( 'NONE', #416 ) ;
#516 = LINE ( 'NONE', #229, #529 ) ;
#517 = DIRECTION ( 'NONE',  ( 0.000000000000000000, 0.000000000000000000, 1.000000000000000000 ) ) ;
#518 = VERTEX_POINT ( 'NONE', #137 ) ;
#519 = DIRECTION ( 'NONE',  ( 0.000000000000000000, 0.000000000000000000, -1.000000000000000000 ) ) ;
#520 = VERTEX_POINT ( 'NONE', #90 ) ;
#521 = AXIS2_PLACEMENT_3D ( 'NONE', #432, #22, #394 ) ;
#522 = ORIENTED_EDGE ( 'NONE', *, *, #82, .T. ) ;
#523 = DIRECTION ( 'NONE',  ( 0.000000000000000000, 1.000000000000000000, 0.000000000000000000 ) ) ;
#524 = ORIENTED_EDGE ( 'NONE', *, *, #57, .T. ) ;
#525 = PERSON_AND_ORGANIZATION ( #88, #220 ) ;
#526 = ORIENTED_EDGE ( 'NONE', *, *, #100, .T. ) ;
#527 = CARTESIAN_POINT ( 'NONE',  ( -60.00000000000000000, 0.000000000000000000, 42.50000000000000000 ) ) ;
#528 = CARTESIAN_POINT ( 'NONE',  ( -39.00000000000000000, 3.000000000000000000, -19.50000000000000000 ) ) ;
#529 = VECTOR ( 'NONE', #72, 1000.000000000000000 ) ;
#530 = DIRECTION ( 'NONE',  ( -0.000000000000000000, -1.000000000000000000, -0.000000000000000000 ) ) ;
#531 = EDGE_CURVE ( 'NONE', #277, #159, #503, .T. ) ;
#532 = CARTESIAN_POINT ( 'NONE',  ( -60.00000000000000000, 3.000000000000000000, 42.50000000000000000 ) ) ;
#533 = APPROVAL_ROLE ( '' ) ;
ENDSEC;
END-ISO-10303-21;
