0
SECTION
2
HEADER
9
$ACADVER
1
AC1015
9
$INSUNITS
70
4
0
ENDSEC
0
SECTION
2
ENTITIES
0
LWPOLYLINE
100
AcDbEntity
8
PROFILE
100
AcDbPolyline
90
4
70
1
10
0.0
20
0.0
10
120.0
20
0.0
10
120.0
20
85.0
10
0.0
20
85.0
0
CIRCLE
100
AcDbEntity
8
M3_TAP_DRILL_D2.5
100
AcDbCircle
10
21.0
20
23.0
30
0.0
40
1.25
0
CIRCLE
100
AcDbEntity
8
M3_TAP_DRILL_D2.5
100
AcDbCircle
10
99.0
20
23.0
30
0.0
40
1.25
0
CIRCLE
100
AcDbEntity
8
M3_TAP_DRILL_D2.5
100
AcDbCircle
10
21.0
20
62.0
30
0.0
40
1.25
0
CIRCLE
100
AcDbEntity
8
M3_TAP_DRILL_D2.5
100
AcDbCircle
10
99.0
20
62.0
30
0.0
40
1.25
0
ENDSEC
0
EOF
