ISO-10303-21;
HEADER;
FILE_DESCRIPTION (( 'STEP AP203' ),
    '1' );
FILE_NAME ('FN-ENC-002_open-tray-layout-reference_R0.3.STEP',
    '2026-07-26T09:21:47',
    ( '' ),
    ( '' ),
    'SwSTEP 2.0',
    'SolidWorks 2022',
    '' );
FILE_SCHEMA (( 'CONFIG_CONTROL_DESIGN' ));
ENDSEC;

DATA;
#1 = DIRECTION ( 'NONE',  ( 0.000000000000000000, 0.000000000000000000, -1.000000000000000000 ) ) ;
#2 = LINE ( 'NONE', #360, #327 ) ;
#3 = ORIENTED_EDGE ( 'NONE', *, *, #182, .F. ) ;
#4 = EDGE_CURVE ( 'NONE', #303, #78, #138, .T. ) ;
#5 = FACE_OUTER_BOUND ( 'NONE', #345, .T. ) ;
#6 = CARTESIAN_POINT ( 'NONE',  ( -158.9499999999999886, 0.000000000000000000, 119.4500000000000028 ) ) ;
#7 = ORIENTED_EDGE ( 'NONE', *, *, #99, .T. ) ;
#8 = DATE_AND_TIME ( #126, #175 ) ;
#9 = CARTESIAN_POINT ( 'NONE',  ( -158.9499999999999886, 0.000000000000000000, -119.4500000000000028 ) ) ;
#10 = VECTOR ( 'NONE', #264, 1000.000000000000000 ) ;
#11 = ORIENTED_EDGE ( 'NONE', *, *, #4, .T. ) ;
#12 = LINE ( 'NONE', #169, #171 ) ;
#13 = DATE_AND_TIME ( #305, #97 ) ;
#14 = EDGE_LOOP ( 'NONE', ( #132, #257, #36, #279 ) ) ;
#15 = EDGE_CURVE ( 'NONE', #123, #201, #225, .T. ) ;
#16 = APPROVAL_ROLE ( '' ) ;
#17 = ORIENTED_EDGE ( 'NONE', *, *, #334, .F. ) ;
#18 = CARTESIAN_POINT ( 'NONE',  ( -138.0327499999999930, 3.000000000000000000, 0.000000000000000000 ) ) ;
#19 = EDGE_CURVE ( 'NONE', #259, #158, #342, .T. ) ;
#20 = ORIENTED_EDGE ( 'NONE', *, *, #15, .T. ) ;
#21 = PRODUCT_DEFINITION_SHAPE ( 'NONE', 'NONE',  #68 ) ;
#22 = ORIENTED_EDGE ( 'NONE', *, *, #109, .F. ) ;
#23 = VECTOR ( 'NONE', #232, 1000.000000000000000 ) ;
#24 = CARTESIAN_POINT ( 'NONE',  ( -138.0327499999999930, 91.09999999999999432, -98.50000000000000000 ) ) ;
#25 = CC_DESIGN_DATE_AND_TIME_ASSIGNMENT ( #337, #254, ( #68 ) ) ;
#26 = DIRECTION ( 'NONE',  ( 1.000000000000000000, -0.000000000000000000, 0.000000000000000000 ) ) ;
#27 = DIRECTION ( 'NONE',  ( -1.000000000000000000, 0.000000000000000000, -0.000000000000000000 ) ) ;
#28 = AXIS2_PLACEMENT_3D ( 'NONE', #293, #301, #69 ) ;
#29 = ADVANCED_FACE ( 'NONE', ( #278 ), #308, .T. ) ;
#30 = CARTESIAN_POINT ( 'NONE',  ( -138.0327499999999930, 91.09999999999999432, 98.50000000000000000 ) ) ;
#31 = DIRECTION ( 'NONE',  ( 0.000000000000000000, -1.000000000000000000, 0.000000000000000000 ) ) ;
#32 = LINE ( 'NONE', #92, #143 ) ;
#33 = EDGE_CURVE ( 'NONE', #78, #217, #281, .T. ) ;
#34 = AXIS2_PLACEMENT_3D ( 'NONE', #121, #294, #155 ) ;
#35 = CARTESIAN_POINT ( 'NONE',  ( -158.9499999999999886, 91.09999999999999432, 119.4500000000000028 ) ) ;
#36 = ORIENTED_EDGE ( 'NONE', *, *, #91, .F. ) ;
#37 = PERSON_AND_ORGANIZATION ( #353, #180 ) ;
#38 = ORIENTED_EDGE ( 'NONE', *, *, #265, .F. ) ;
#39 = COORDINATED_UNIVERSAL_TIME_OFFSET ( 8, 0, .AHEAD. ) ;
#40 = DIRECTION ( 'NONE',  ( -0.000000000000000000, -0.000000000000000000, 1.000000000000000000 ) ) ;
#41 = PLANE ( 'NONE',  #71 ) ;
#42 = AXIS2_PLACEMENT_3D ( 'NONE', #75, #219, #70 ) ;
#43 = VERTEX_POINT ( 'NONE', #24 ) ;
#44 = APPROVAL_ROLE ( '' ) ;
#45 = APPLICATION_CONTEXT ( 'configuration controlled 3d designs of mechanical parts and assemblies' ) ;
#46 = DIRECTION ( 'NONE',  ( -0.000000000000000000, -1.000000000000000000, -0.000000000000000000 ) ) ;
#47 = EDGE_LOOP ( 'NONE', ( #140, #328, #17, #174 ) ) ;
#48 = COORDINATED_UNIVERSAL_TIME_OFFSET ( 8, 0, .AHEAD. ) ;
#49 = LOCAL_TIME ( 17, 21, 47.00000000000000000, #154 ) ;
#50 = DIRECTION ( 'NONE',  ( 0.000000000000000000, -1.000000000000000000, 0.000000000000000000 ) ) ;
#51 = EDGE_CURVE ( 'NONE', #185, #336, #60, .T. ) ;
#52 = ORIENTED_EDGE ( 'NONE', *, *, #33, .F. ) ;
#53 = ORIENTED_EDGE ( 'NONE', *, *, #19, .F. ) ;
#54 = LINE ( 'NONE', #288, #130 ) ;
#55 = AXIS2_PLACEMENT_3D ( 'NONE', #260, #26, #81 ) ;
#56 = CARTESIAN_POINT ( 'NONE',  ( -138.0327499999999930, 3.000000000000000000, -98.50000000000000000 ) ) ;
#57 = CARTESIAN_POINT ( 'NONE',  ( -138.0327499999999930, 91.09999999999999432, -98.50000000000000000 ) ) ;
#58 = LINE ( 'NONE', #262, #112 ) ;
#59 = VECTOR ( 'NONE', #286, 1000.000000000000000 ) ;
#60 = LINE ( 'NONE', #30, #295 ) ;
#61 = PLANE ( 'NONE',  #373 ) ;
#62 = DIRECTION ( 'NONE',  ( 0.000000000000000000, 0.000000000000000000, 1.000000000000000000 ) ) ;
#63 = EDGE_LOOP ( 'NONE', ( #52, #309, #107, #79 ) ) ;
#64 = APPROVAL_STATUS ( 'not_yet_approved' ) ;
#65 = FACE_OUTER_BOUND ( 'NONE', #298, .T. ) ;
#66 = EDGE_LOOP ( 'NONE', ( #113, #242, #38, #164 ) ) ;
#67 = DIRECTION ( 'NONE',  ( -0.000000000000000000, -1.000000000000000000, -0.000000000000000000 ) ) ;
#68 = PRODUCT_DEFINITION ( '未知', '', #335, #271 ) ;
#69 = DIRECTION ( 'NONE',  ( -1.000000000000000000, 0.000000000000000000, -0.000000000000000000 ) ) ;
#70 = DIRECTION ( 'NONE',  ( 1.000000000000000000, 0.000000000000000000, 0.000000000000000000 ) ) ;
#71 = AXIS2_PLACEMENT_3D ( 'NONE', #184, #243, #276 ) ;
#72 = ORIENTED_EDGE ( 'NONE', *, *, #91, .T. ) ;
#73 = APPLICATION_PROTOCOL_DEFINITION ( 'international standard', 'config_control_design', 1994, #45 ) ;
#74 = ORIENTED_EDGE ( 'NONE', *, *, #86, .F. ) ;
#75 = CARTESIAN_POINT ( 'NONE',  ( 0.000000000000000000, 0.000000000000000000, 0.000000000000000000 ) ) ;
#76 = ORIENTED_EDGE ( 'NONE', *, *, #200, .F. ) ;
#77 = VECTOR ( 'NONE', #290, 1000.000000000000000 ) ;
#78 = VERTEX_POINT ( 'NONE', #56 ) ;
#79 = ORIENTED_EDGE ( 'NONE', *, *, #331, .T. ) ;
#80 = PRODUCT ( 'FN-ENC-002_open-tray-layout-reference_R0.3', 'FN-ENC-002_open-tray-layout-reference_R0.3', '', ( #167 ) ) ;
#81 = DIRECTION ( 'NONE',  ( 0.000000000000000000, 0.000000000000000000, -1.000000000000000000 ) ) ;
#82 = FACE_OUTER_BOUND ( 'NONE', #199, .T. ) ;
#83 = AXIS2_PLACEMENT_3D ( 'NONE', #241, #208, #291 ) ;
#84 = CARTESIAN_POINT ( 'NONE',  ( -158.9499999999999886, 3.000000000000000000, 119.4500000000000028 ) ) ;
#85 = LINE ( 'NONE', #178, #122 ) ;
#86 = EDGE_CURVE ( 'NONE', #195, #303, #177, .T. ) ;
#87 = FACE_OUTER_BOUND ( 'NONE', #110, .T. ) ;
#88 = VECTOR ( 'NONE', #93, 1000.000000000000000 ) ;
#89 = FACE_BOUND ( 'NONE', #370, .T. ) ;
#90 = PERSON_AND_ORGANIZATION_ROLE ( 'creator' ) ;
#91 = EDGE_CURVE ( 'NONE', #201, #312, #150, .T. ) ;
#92 = CARTESIAN_POINT ( 'NONE',  ( -158.9499999999999886, 0.000000000000000000, 119.4500000000000028 ) ) ;
#93 = DIRECTION ( 'NONE',  ( 1.000000000000000000, 0.000000000000000000, 0.000000000000000000 ) ) ;
#94 = ORIENTED_EDGE ( 'NONE', *, *, #51, .T. ) ;
#95 = APPROVAL_STATUS ( 'not_yet_approved' ) ;
#96 = VECTOR ( 'NONE', #306, 1000.000000000000000 ) ;
#97 = LOCAL_TIME ( 17, 21, 47.00000000000000000, #48 ) ;
#98 = CARTESIAN_POINT ( 'NONE',  ( -138.0327499999999930, 91.09999999999999432, 98.50000000000000000 ) ) ;
#99 = EDGE_CURVE ( 'NONE', #336, #168, #54, .T. ) ;
#100 = DIRECTION ( 'NONE',  ( 0.000000000000000000, 0.000000000000000000, -1.000000000000000000 ) ) ;
#101 = DATE_AND_TIME ( #356, #49 ) ;
#102 = PERSON_AND_ORGANIZATION ( #353, #180 ) ;
#103 = ORIENTED_EDGE ( 'NONE', *, *, #159, .T. ) ;
#104 = ADVANCED_FACE ( 'NONE', ( #82 ), #318, .F. ) ;
#105 = PERSON_AND_ORGANIZATION_ROLE ( 'design_owner' ) ;
#106 = SECURITY_CLASSIFICATION ( '', '', #189 ) ;
#107 = ORIENTED_EDGE ( 'NONE', *, *, #233, .T. ) ;
#108 =( NAMED_UNIT ( * ) PLANE_ANGLE_UNIT ( ) SI_UNIT ( $, .RADIAN. ) );
#109 = EDGE_CURVE ( 'NONE', #168, #303, #148, .T. ) ;
#110 = EDGE_LOOP ( 'NONE', ( #72, #76, #135, #20 ) ) ;
#111 = ORIENTED_EDGE ( 'NONE', *, *, #4, .F. ) ;
#112 = VECTOR ( 'NONE', #354, 1000.000000000000000 ) ;
#113 = ORIENTED_EDGE ( 'NONE', *, *, #313, .T. ) ;
#114 = DIRECTION ( 'NONE',  ( -0.000000000000000000, -1.000000000000000000, -0.000000000000000000 ) ) ;
#115 = CC_DESIGN_PERSON_AND_ORGANIZATION_ASSIGNMENT ( #37, #247, ( #106 ) ) ;
#116 = CARTESIAN_POINT ( 'NONE',  ( 138.0327499999999930, 3.000000000000000000, 0.000000000000000000 ) ) ;
#117 = PLANE ( 'NONE',  #55 ) ;
#118 = AXIS2_PLACEMENT_3D ( 'NONE', #269, #332, #62 ) ;
#119 = DIRECTION ( 'NONE',  ( -0.000000000000000000, -0.000000000000000000, 1.000000000000000000 ) ) ;
#120 = PLANE ( 'NONE',  #275 ) ;
#121 = CARTESIAN_POINT ( 'NONE',  ( -138.0327499999999930, 91.09999999999999432, -98.50000000000000000 ) ) ;
#122 = VECTOR ( 'NONE', #349, 1000.000000000000000 ) ;
#123 = VERTEX_POINT ( 'NONE', #285 ) ;
#124 = CARTESIAN_POINT ( 'NONE',  ( -158.9499999999999886, 3.000000000000000000, 119.4500000000000028 ) ) ;
#125 = ORIENTED_EDGE ( 'NONE', *, *, #109, .T. ) ;
#126 = CALENDAR_DATE ( 2026, 26, 7 ) ;
#127 = FACE_OUTER_BOUND ( 'NONE', #47, .T. ) ;
#128 = EDGE_CURVE ( 'NONE', #195, #43, #151, .T. ) ;
#129 = VECTOR ( 'NONE', #46, 1000.000000000000000 ) ;
#130 = VECTOR ( 'NONE', #317, 1000.000000000000000 ) ;
#131 = CC_DESIGN_PERSON_AND_ORGANIZATION_ASSIGNMENT ( #358, #90, ( #335 ) ) ;
#132 = ORIENTED_EDGE ( 'NONE', *, *, #376, .F. ) ;
#133 = ADVANCED_FACE ( 'NONE', ( #145 ), #120, .F. ) ;
#134 = PERSON_AND_ORGANIZATION ( #353, #180 ) ;
#135 = ORIENTED_EDGE ( 'NONE', *, *, #343, .F. ) ;
#136 = PRODUCT_RELATED_PRODUCT_CATEGORY ( 'detail', '', ( #80 ) ) ;
#137 = AXIS2_PLACEMENT_3D ( 'NONE', #181, #31, #374 ) ;
#138 = LINE ( 'NONE', #255, #96 ) ;
#139 = CALENDAR_DATE ( 2026, 26, 7 ) ;
#140 = ORIENTED_EDGE ( 'NONE', *, *, #141, .T. ) ;
#141 = EDGE_CURVE ( 'NONE', #312, #311, #85, .T. ) ;
#142 = ORIENTED_EDGE ( 'NONE', *, *, #368, .T. ) ;
#143 = VECTOR ( 'NONE', #40, 1000.000000000000000 ) ;
#144 = ORIENTED_EDGE ( 'NONE', *, *, #51, .F. ) ;
#145 = FACE_OUTER_BOUND ( 'NONE', #66, .T. ) ;
#146 = LINE ( 'NONE', #379, #221 ) ;
#147 = ADVANCED_FACE ( 'NONE', ( #347 ), #117, .T. ) ;
#148 = LINE ( 'NONE', #116, #59 ) ;
#149 = UNCERTAINTY_MEASURE_WITH_UNIT (LENGTH_MEASURE( 1.000000000000000082E-05 ), #196, 'distance_accuracy_value', 'NONE');
#150 = LINE ( 'NONE', #287, #319 ) ;
#151 = LINE ( 'NONE', #57, #23 ) ;
#152 = PLANE ( 'NONE',  #34 ) ;
#153 = CC_DESIGN_APPROVAL ( #203, ( #106 ) ) ;
#154 = COORDINATED_UNIVERSAL_TIME_OFFSET ( 8, 0, .AHEAD. ) ;
#155 = DIRECTION ( 'NONE',  ( 1.000000000000000000, 0.000000000000000000, -0.000000000000000000 ) ) ;
#156 = PERSON_AND_ORGANIZATION ( #353, #180 ) ;
#157 = CARTESIAN_POINT ( 'NONE',  ( 138.0327499999999930, 91.09999999999999432, 98.50000000000000000 ) ) ;
#158 = VERTEX_POINT ( 'NONE', #351 ) ;
#159 = EDGE_CURVE ( 'NONE', #336, #195, #205, .T. ) ;
#160 = CARTESIAN_POINT ( 'NONE',  ( -158.9499999999999886, 3.000000000000000000, -119.4500000000000028 ) ) ;
#161 = CALENDAR_DATE ( 2026, 26, 7 ) ;
#162 = AXIS2_PLACEMENT_3D ( 'NONE', #179, #204, #320 ) ;
#163 = LINE ( 'NONE', #6, #186 ) ;
#164 = ORIENTED_EDGE ( 'NONE', *, *, #19, .T. ) ;
#165 = CC_DESIGN_PERSON_AND_ORGANIZATION_ASSIGNMENT ( #248, #105, ( #80 ) ) ;
#166 = CARTESIAN_POINT ( 'NONE',  ( -158.9499999999999886, 3.000000000000000000, 119.4500000000000028 ) ) ;
#167 = MECHANICAL_CONTEXT ( 'NONE', #333, 'mechanical' ) ;
#168 = VERTEX_POINT ( 'NONE', #202 ) ;
#169 = CARTESIAN_POINT ( 'NONE',  ( -158.9499999999999886, 91.09999999999999432, 119.4500000000000028 ) ) ;
#170 = APPROVAL_DATE_TIME ( #13, #229 ) ;
#171 = VECTOR ( 'NONE', #289, 1000.000000000000000 ) ;
#172 = DIRECTION ( 'NONE',  ( 0.000000000000000000, -0.000000000000000000, -1.000000000000000000 ) ) ;
#173 = ORIENTED_EDGE ( 'NONE', *, *, #86, .T. ) ;
#174 = ORIENTED_EDGE ( 'NONE', *, *, #200, .T. ) ;
#175 = LOCAL_TIME ( 17, 21, 47.00000000000000000, #39 ) ;
#176 = LINE ( 'NONE', #234, #193 ) ;
#177 = LINE ( 'NONE', #266, #237 ) ;
#178 = CARTESIAN_POINT ( 'NONE',  ( -158.9499999999999886, 0.000000000000000000, -119.4500000000000028 ) ) ;
#179 = CARTESIAN_POINT ( 'NONE',  ( 158.9499999999999886, 3.000000000000000000, 119.4500000000000028 ) ) ;
#180 = ORGANIZATION ( '未指定', '未指定', '' ) ;
#181 = CARTESIAN_POINT ( 'NONE',  ( 0.000000000000000000, 3.000000000000000000, 0.000000000000000000 ) ) ;
#182 = EDGE_CURVE ( 'NONE', #256, #259, #146, .T. ) ;
#183 = DIRECTION ( 'NONE',  ( 0.000000000000000000, 0.000000000000000000, -1.000000000000000000 ) ) ;
#184 = CARTESIAN_POINT ( 'NONE',  ( -158.9499999999999886, 3.000000000000000000, -119.4500000000000028 ) ) ;
#185 = VERTEX_POINT ( 'NONE', #316 ) ;
#186 = VECTOR ( 'NONE', #245, 1000.000000000000000 ) ;
#187 = LINE ( 'NONE', #297, #215 ) ;
#188 = ORIENTED_EDGE ( 'NONE', *, *, #368, .F. ) ;
#189 = SECURITY_CLASSIFICATION_LEVEL ( 'unclassified' ) ;
#190 = CARTESIAN_POINT ( 'NONE',  ( 0.000000000000000000, 3.000000000000000000, 98.50000000000000000 ) ) ;
#191 = DATE_TIME_ROLE ( 'classification_date' ) ;
#192 = LINE ( 'NONE', #160, #350 ) ;
#193 = VECTOR ( 'NONE', #230, 1000.000000000000000 ) ;
#194 = APPLICATION_PROTOCOL_DEFINITION ( 'international standard', 'config_control_design', 1994, #333 ) ;
#195 = VERTEX_POINT ( 'NONE', #314 ) ;
#196 =( LENGTH_UNIT ( ) NAMED_UNIT ( * ) SI_UNIT ( .MILLI., .METRE. ) );
#197 = DIRECTION ( 'NONE',  ( -0.000000000000000000, -1.000000000000000000, -0.000000000000000000 ) ) ;
#198 = ORIENTED_EDGE ( 'NONE', *, *, #159, .F. ) ;
#199 = EDGE_LOOP ( 'NONE', ( #11, #365, #142, #125 ) ) ;
#200 = EDGE_CURVE ( 'NONE', #371, #312, #176, .T. ) ;
#201 = VERTEX_POINT ( 'NONE', #352 ) ;
#202 = CARTESIAN_POINT ( 'NONE',  ( 138.0327499999999930, 3.000000000000030198, 98.50000000000000000 ) ) ;
#203 = APPROVAL ( #95, '未指定' ) ;
#204 = DIRECTION ( 'NONE',  ( -1.000000000000000000, 0.000000000000000000, 0.000000000000000000 ) ) ;
#205 = LINE ( 'NONE', #375, #10 ) ;
#206 = CARTESIAN_POINT ( 'NONE',  ( -138.0327499999999930, 3.000000000000030198, 98.50000000000000000 ) ) ;
#207 = PLANE ( 'NONE',  #162 ) ;
#208 = DIRECTION ( 'NONE',  ( 0.000000000000000000, -1.000000000000000000, 0.000000000000000000 ) ) ;
#209 = PLANE ( 'NONE',  #28 ) ;
#210 = ADVANCED_BREP_SHAPE_REPRESENTATION ( 'FN-ENC-002_open-tray-layout-reference_R0.3', ( #274, #42 ), #263 ) ;
#211 = DIRECTION ( 'NONE',  ( 1.000000000000000000, -0.000000000000000000, 0.000000000000000000 ) ) ;
#212 = ORIENTED_EDGE ( 'NONE', *, *, #128, .F. ) ;
#213 = DATE_AND_TIME ( #161, #362 ) ;
#214 = DIRECTION ( 'NONE',  ( -0.000000000000000000, -1.000000000000000000, -0.000000000000000000 ) ) ;
#215 = VECTOR ( 'NONE', #100, 1000.000000000000000 ) ;
#216 = FACE_OUTER_BOUND ( 'NONE', #249, .T. ) ;
#217 = VERTEX_POINT ( 'NONE', #206 ) ;
#218 = SHAPE_DEFINITION_REPRESENTATION ( #21, #210 ) ;
#219 = DIRECTION ( 'NONE',  ( 0.000000000000000000, 0.000000000000000000, 1.000000000000000000 ) ) ;
#220 = ORIENTED_EDGE ( 'NONE', *, *, #233, .F. ) ;
#221 = VECTOR ( 'NONE', #119, 1000.000000000000000 ) ;
#222 = ORIENTED_EDGE ( 'NONE', *, *, #128, .T. ) ;
#223 = APPROVAL_STATUS ( 'not_yet_approved' ) ;
#224 = CARTESIAN_POINT ( 'NONE',  ( 0.000000000000000000, 0.000000000000000000, 0.000000000000000000 ) ) ;
#225 = LINE ( 'NONE', #252, #129 ) ;
#226 = LOCAL_TIME ( 17, 21, 47.00000000000000000, #280 ) ;
#227 = ORIENTED_EDGE ( 'NONE', *, *, #331, .F. ) ;
#228 = DIRECTION ( 'NONE',  ( 0.000000000000000000, 0.000000000000000000, -1.000000000000000000 ) ) ;
#229 = APPROVAL ( #223, '未指定' ) ;
#230 = DIRECTION ( 'NONE',  ( -0.000000000000000000, -1.000000000000000000, -0.000000000000000000 ) ) ;
#231 = VECTOR ( 'NONE', #238, 1000.000000000000000 ) ;
#232 = DIRECTION ( 'NONE',  ( -1.000000000000000000, -0.000000000000000000, -0.000000000000000000 ) ) ;
#233 = EDGE_CURVE ( 'NONE', #43, #185, #58, .T. ) ;
#234 = CARTESIAN_POINT ( 'NONE',  ( 158.9499999999999886, 3.000000000000000000, -119.4500000000000028 ) ) ;
#235 = DIRECTION ( 'NONE',  ( 1.000000000000000000, 0.000000000000000000, 0.000000000000000000 ) ) ;
#236 = LINE ( 'NONE', #98, #304 ) ;
#237 = VECTOR ( 'NONE', #114, 1000.000000000000000 ) ;
#238 = DIRECTION ( 'NONE',  ( -1.000000000000000000, -0.000000000000000000, -0.000000000000000000 ) ) ;
#239 = ORIENTED_EDGE ( 'NONE', *, *, #302, .T. ) ;
#240 = CC_DESIGN_PERSON_AND_ORGANIZATION_ASSIGNMENT ( #134, #251, ( #68 ) ) ;
#241 = CARTESIAN_POINT ( 'NONE',  ( 0.000000000000000000, 91.09999999999999432, 0.000000000000000000 ) ) ;
#242 = ORIENTED_EDGE ( 'NONE', *, *, #15, .F. ) ;
#243 = DIRECTION ( 'NONE',  ( 0.000000000000000000, 0.000000000000000000, 1.000000000000000000 ) ) ;
#244 = FACE_OUTER_BOUND ( 'NONE', #341, .T. ) ;
#245 = DIRECTION ( 'NONE',  ( 1.000000000000000000, 0.000000000000000000, 0.000000000000000000 ) ) ;
#246 = ORIENTED_EDGE ( 'NONE', *, *, #343, .T. ) ;
#247 = PERSON_AND_ORGANIZATION_ROLE ( 'classification_officer' ) ;
#248 = PERSON_AND_ORGANIZATION ( #353, #180 ) ;
#249 = EDGE_LOOP ( 'NONE', ( #283, #53, #3, #239 ) ) ;
#250 = ADVANCED_FACE ( 'NONE', ( #87 ), #207, .F. ) ;
#251 = PERSON_AND_ORGANIZATION_ROLE ( 'creator' ) ;
#252 = CARTESIAN_POINT ( 'NONE',  ( 158.9499999999999886, 3.000000000000000000, 119.4500000000000028 ) ) ;
#253 = CC_DESIGN_SECURITY_CLASSIFICATION ( #106, ( #335 ) ) ;
#254 = DATE_TIME_ROLE ( 'creation_date' ) ;
#255 = CARTESIAN_POINT ( 'NONE',  ( 0.000000000000000000, 3.000000000000000000, -98.50000000000000000 ) ) ;
#256 = VERTEX_POINT ( 'NONE', #377 ) ;
#257 = ORIENTED_EDGE ( 'NONE', *, *, #141, .F. ) ;
#258 = APPROVAL_PERSON_ORGANIZATION ( #340, #338, #44 ) ;
#259 = VERTEX_POINT ( 'NONE', #35 ) ;
#260 = CARTESIAN_POINT ( 'NONE',  ( -138.0327499999999930, 91.09999999999999432, 98.50000000000000000 ) ) ;
#261 = ADVANCED_FACE ( 'NONE', ( #244 ), #209, .T. ) ;
#262 = CARTESIAN_POINT ( 'NONE',  ( -138.0327499999999930, 91.09999999999999432, 98.50000000000000000 ) ) ;
#263 =( GEOMETRIC_REPRESENTATION_CONTEXT ( 3 ) GLOBAL_UNCERTAINTY_ASSIGNED_CONTEXT ( ( #149 ) ) GLOBAL_UNIT_ASSIGNED_CONTEXT ( ( #196, #108, #367 ) ) REPRESENTATION_CONTEXT ( 'NONE', 'WORKASPACE' ) );
#264 = DIRECTION ( 'NONE',  ( 0.000000000000000000, 0.000000000000000000, -1.000000000000000000 ) ) ;
#265 = EDGE_CURVE ( 'NONE', #259, #123, #12, .T. ) ;
#266 = CARTESIAN_POINT ( 'NONE',  ( 138.0327499999999930, 91.09999999999999432, -98.50000000000000000 ) ) ;
#267 = CC_DESIGN_APPROVAL ( #338, ( #335 ) ) ;
#268 = CC_DESIGN_PERSON_AND_ORGANIZATION_ASSIGNMENT ( #277, #329, ( #335 ) ) ;
#269 = CARTESIAN_POINT ( 'NONE',  ( 138.0327499999999930, 91.09999999999999432, 98.50000000000000000 ) ) ;
#270 = CARTESIAN_POINT ( 'NONE',  ( 158.9499999999999886, 0.000000000000000000, -119.4500000000000028 ) ) ;
#271 = DESIGN_CONTEXT ( 'detailed design', #45, 'design' ) ;
#272 = CARTESIAN_POINT ( 'NONE',  ( 138.0327499999999930, 3.000000000000030198, -98.50000000000000000 ) ) ;
#273 = EDGE_CURVE ( 'NONE', #43, #78, #2, .T. ) ;
#274 = MANIFOLD_SOLID_BREP ( '凸台-拉伸2', #284 ) ;
#275 = AXIS2_PLACEMENT_3D ( 'NONE', #84, #228, #27 ) ;
#276 = DIRECTION ( 'NONE',  ( 1.000000000000000000, 0.000000000000000000, -0.000000000000000000 ) ) ;
#277 = PERSON_AND_ORGANIZATION ( #353, #180 ) ;
#278 = FACE_OUTER_BOUND ( 'NONE', #14, .T. ) ;
#279 = ORIENTED_EDGE ( 'NONE', *, *, #313, .F. ) ;
#280 = COORDINATED_UNIVERSAL_TIME_OFFSET ( 8, 0, .AHEAD. ) ;
#281 = LINE ( 'NONE', #18, #77 ) ;
#282 = ORIENTED_EDGE ( 'NONE', *, *, #265, .T. ) ;
#283 = ORIENTED_EDGE ( 'NONE', *, *, #376, .T. ) ;
#284 = CLOSED_SHELL ( 'NONE', ( #355, #133, #250, #346, #29, #147, #261, #307, #348, #292, #104 ) ) ;
#285 = CARTESIAN_POINT ( 'NONE',  ( 158.9499999999999886, 91.09999999999999432, 119.4500000000000028 ) ) ;
#286 = DIRECTION ( 'NONE',  ( 0.000000000000000000, 0.000000000000000000, -1.000000000000000000 ) ) ;
#287 = CARTESIAN_POINT ( 'NONE',  ( 158.9499999999999886, 0.000000000000000000, 119.4500000000000028 ) ) ;
#288 = CARTESIAN_POINT ( 'NONE',  ( 138.0327499999999930, 91.09999999999999432, 98.50000000000000000 ) ) ;
#289 = DIRECTION ( 'NONE',  ( 1.000000000000000000, 0.000000000000000000, 0.000000000000000000 ) ) ;
#290 = DIRECTION ( 'NONE',  ( 0.000000000000000000, 0.000000000000000000, 1.000000000000000000 ) ) ;
#291 = DIRECTION ( 'NONE',  ( 0.000000000000000000, -0.000000000000000000, -1.000000000000000000 ) ) ;
#292 = ADVANCED_FACE ( 'NONE', ( #65, #89 ), #323, .F. ) ;
#293 = CARTESIAN_POINT ( 'NONE',  ( -138.0327499999999930, 91.09999999999999432, 98.50000000000000000 ) ) ;
#294 = DIRECTION ( 'NONE',  ( 0.000000000000000000, 0.000000000000000000, 1.000000000000000000 ) ) ;
#295 = VECTOR ( 'NONE', #235, 1000.000000000000000 ) ;
#296 = ORIENTED_EDGE ( 'NONE', *, *, #99, .F. ) ;
#297 = CARTESIAN_POINT ( 'NONE',  ( 158.9499999999999886, 91.09999999999999432, 119.4500000000000028 ) ) ;
#298 = EDGE_LOOP ( 'NONE', ( #369, #282, #246, #372 ) ) ;
#299 = APPROVAL_DATE_TIME ( #101, #203 ) ;
#300 = LINE ( 'NONE', #357, #231 ) ;
#301 = DIRECTION ( 'NONE',  ( 0.000000000000000000, 0.000000000000000000, -1.000000000000000000 ) ) ;
#302 = EDGE_CURVE ( 'NONE', #256, #311, #192, .T. ) ;
#303 = VERTEX_POINT ( 'NONE', #272 ) ;
#304 = VECTOR ( 'NONE', #67, 1000.000000000000000 ) ;
#305 = CALENDAR_DATE ( 2026, 26, 7 ) ;
#306 = DIRECTION ( 'NONE',  ( -1.000000000000000000, 0.000000000000000000, 0.000000000000000000 ) ) ;
#307 = ADVANCED_FACE ( 'NONE', ( #321 ), #326, .T. ) ;
#308 = PLANE ( 'NONE',  #361 ) ;
#309 = ORIENTED_EDGE ( 'NONE', *, *, #273, .F. ) ;
#310 = VECTOR ( 'NONE', #197, 1000.000000000000000 ) ;
#311 = VERTEX_POINT ( 'NONE', #9 ) ;
#312 = VERTEX_POINT ( 'NONE', #270 ) ;
#313 = EDGE_CURVE ( 'NONE', #158, #201, #163, .T. ) ;
#314 = CARTESIAN_POINT ( 'NONE',  ( 138.0327499999999930, 91.09999999999999432, -98.50000000000000000 ) ) ;
#315 = APPROVAL_PERSON_ORGANIZATION ( #156, #203, #322 ) ;
#316 = CARTESIAN_POINT ( 'NONE',  ( -138.0327499999999930, 91.09999999999999432, 98.50000000000000000 ) ) ;
#317 = DIRECTION ( 'NONE',  ( -0.000000000000000000, -1.000000000000000000, -0.000000000000000000 ) ) ;
#318 = PLANE ( 'NONE',  #137 ) ;
#319 = VECTOR ( 'NONE', #1, 1000.000000000000000 ) ;
#320 = DIRECTION ( 'NONE',  ( 0.000000000000000000, 0.000000000000000000, 1.000000000000000000 ) ) ;
#321 = FACE_OUTER_BOUND ( 'NONE', #339, .T. ) ;
#322 = APPROVAL_ROLE ( '' ) ;
#323 = PLANE ( 'NONE',  #83 ) ;
#324 = ORIENTED_EDGE ( 'NONE', *, *, #273, .T. ) ;
#325 = COORDINATED_UNIVERSAL_TIME_OFFSET ( 8, 0, .AHEAD. ) ;
#326 = PLANE ( 'NONE',  #118 ) ;
#327 = VECTOR ( 'NONE', #214, 1000.000000000000000 ) ;
#328 = ORIENTED_EDGE ( 'NONE', *, *, #302, .F. ) ;
#329 = PERSON_AND_ORGANIZATION_ROLE ( 'design_supplier' ) ;
#330 = CARTESIAN_POINT ( 'NONE',  ( 158.9499999999999886, 91.09999999999999432, -119.4500000000000028 ) ) ;
#331 = EDGE_CURVE ( 'NONE', #185, #217, #236, .T. ) ;
#332 = DIRECTION ( 'NONE',  ( -1.000000000000000000, 0.000000000000000000, 0.000000000000000000 ) ) ;
#333 = APPLICATION_CONTEXT ( 'configuration controlled 3d designs of mechanical parts and assemblies' ) ;
#334 = EDGE_CURVE ( 'NONE', #371, #256, #300, .T. ) ;
#335 = PRODUCT_DEFINITION_FORMATION_WITH_SPECIFIED_SOURCE ( '任何', '', #80, .NOT_KNOWN. ) ;
#336 = VERTEX_POINT ( 'NONE', #157 ) ;
#337 = DATE_AND_TIME ( #139, #226 ) ;
#338 = APPROVAL ( #64, '未指定' ) ;
#339 = EDGE_LOOP ( 'NONE', ( #22, #296, #103, #173 ) ) ;
#340 = PERSON_AND_ORGANIZATION ( #353, #180 ) ;
#341 = EDGE_LOOP ( 'NONE', ( #188, #227, #94, #7 ) ) ;
#342 = LINE ( 'NONE', #166, #310 ) ;
#343 = EDGE_CURVE ( 'NONE', #123, #371, #187, .T. ) ;
#344 = CC_DESIGN_APPROVAL ( #229, ( #68 ) ) ;
#345 = EDGE_LOOP ( 'NONE', ( #111, #74, #222, #324 ) ) ;
#346 = ADVANCED_FACE ( 'NONE', ( #127 ), #41, .F. ) ;
#347 = FACE_OUTER_BOUND ( 'NONE', #63, .T. ) ;
#348 = ADVANCED_FACE ( 'NONE', ( #5 ), #152, .T. ) ;
#349 = DIRECTION ( 'NONE',  ( -1.000000000000000000, -0.000000000000000000, -0.000000000000000000 ) ) ;
#350 = VECTOR ( 'NONE', #364, 1000.000000000000000 ) ;
#351 = CARTESIAN_POINT ( 'NONE',  ( -158.9499999999999886, 0.000000000000000000, 119.4500000000000028 ) ) ;
#352 = CARTESIAN_POINT ( 'NONE',  ( 158.9499999999999886, 0.000000000000000000, 119.4500000000000028 ) ) ;
#353 = PERSON ( '未指定', '未指定', '未指定', ('未指定'), ('未指定'), ('未指定') ) ;
#354 = DIRECTION ( 'NONE',  ( -0.000000000000000000, -0.000000000000000000, 1.000000000000000000 ) ) ;
#355 = ADVANCED_FACE ( 'NONE', ( #216 ), #61, .F. ) ;
#356 = CALENDAR_DATE ( 2026, 26, 7 ) ;
#357 = CARTESIAN_POINT ( 'NONE',  ( -158.9499999999999886, 91.09999999999999432, -119.4500000000000028 ) ) ;
#358 = PERSON_AND_ORGANIZATION ( #353, #180 ) ;
#359 = LINE ( 'NONE', #190, #88 ) ;
#360 = CARTESIAN_POINT ( 'NONE',  ( -138.0327499999999930, 91.09999999999999432, -98.50000000000000000 ) ) ;
#361 = AXIS2_PLACEMENT_3D ( 'NONE', #224, #50, #172 ) ;
#362 = LOCAL_TIME ( 17, 21, 47.00000000000000000, #325 ) ;
#363 = CC_DESIGN_DATE_AND_TIME_ASSIGNMENT ( #213, #191, ( #106 ) ) ;
#364 = DIRECTION ( 'NONE',  ( -0.000000000000000000, -1.000000000000000000, -0.000000000000000000 ) ) ;
#365 = ORIENTED_EDGE ( 'NONE', *, *, #33, .T. ) ;
#366 = APPROVAL_DATE_TIME ( #8, #338 ) ;
#367 =( NAMED_UNIT ( * ) SI_UNIT ( $, .STERADIAN. ) SOLID_ANGLE_UNIT ( ) );
#368 = EDGE_CURVE ( 'NONE', #217, #168, #359, .T. ) ;
#369 = ORIENTED_EDGE ( 'NONE', *, *, #182, .T. ) ;
#370 = EDGE_LOOP ( 'NONE', ( #220, #212, #198, #144 ) ) ;
#371 = VERTEX_POINT ( 'NONE', #330 ) ;
#372 = ORIENTED_EDGE ( 'NONE', *, *, #334, .T. ) ;
#373 = AXIS2_PLACEMENT_3D ( 'NONE', #124, #211, #183 ) ;
#374 = DIRECTION ( 'NONE',  ( 0.000000000000000000, -0.000000000000000000, -1.000000000000000000 ) ) ;
#375 = CARTESIAN_POINT ( 'NONE',  ( 138.0327499999999930, 91.09999999999999432, 98.50000000000000000 ) ) ;
#376 = EDGE_CURVE ( 'NONE', #311, #158, #32, .T. ) ;
#377 = CARTESIAN_POINT ( 'NONE',  ( -158.9499999999999886, 91.09999999999999432, -119.4500000000000028 ) ) ;
#378 = APPROVAL_PERSON_ORGANIZATION ( #102, #229, #16 ) ;
#379 = CARTESIAN_POINT ( 'NONE',  ( -158.9499999999999886, 91.09999999999999432, 119.4500000000000028 ) ) ;
ENDSEC;
END-ISO-10303-21;
