ISO-10303-21;
HEADER;
FILE_DESCRIPTION (( 'STEP AP203' ),
    '1' );
FILE_NAME ('FN-PCB-002_carrier-envelope_ROTATED_R0.3.STEP',
    '2026-07-26T09:22:04',
    ( '' ),
    ( '' ),
    'SwSTEP 2.0',
    'SolidWorks 2022',
    '' );
FILE_SCHEMA (( 'CONFIG_CONTROL_DESIGN' ));
ENDSEC;

DATA;
#1 = ORIENTED_EDGE ( 'NONE', *, *, #56, .F. ) ;
#2 = EDGE_CURVE ( 'NONE', #5, #180, #83, .T. ) ;
#3 =( GEOMETRIC_REPRESENTATION_CONTEXT ( 3 ) GLOBAL_UNCERTAINTY_ASSIGNED_CONTEXT ( ( #45 ) ) GLOBAL_UNIT_ASSIGNED_CONTEXT ( ( #35, #59, #215 ) ) REPRESENTATION_CONTEXT ( 'NONE', 'WORKASPACE' ) );
#4 = PERSON ( '未指定', '未指定', '未指定', ('未指定'), ('未指定'), ('未指定') ) ;
#5 = VERTEX_POINT ( 'NONE', #235 ) ;
#6 = CARTESIAN_POINT ( 'NONE',  ( 0.000000000000000000, 0.000000000000000000, 0.000000000000000000 ) ) ;
#7 = ADVANCED_FACE ( 'NONE', ( #185 ), #116, .F. ) ;
#8 = CARTESIAN_POINT ( 'NONE',  ( -57.50000000000000000, 0.000000000000000000, -85.00000000000000000 ) ) ;
#9 = CARTESIAN_POINT ( 'NONE',  ( -57.50000000000000000, 0.000000000000000000, 85.00000000000000000 ) ) ;
#10 = DIRECTION ( 'NONE',  ( -0.000000000000000000, -1.000000000000000000, -0.000000000000000000 ) ) ;
#11 = DIRECTION ( 'NONE',  ( 0.000000000000000000, -0.000000000000000000, -1.000000000000000000 ) ) ;
#12 = COORDINATED_UNIVERSAL_TIME_OFFSET ( 8, 0, .AHEAD. ) ;
#13 = VECTOR ( 'NONE', #187, 1000.000000000000000 ) ;
#14 = PERSON_AND_ORGANIZATION ( #4, #200 ) ;
#15 = ADVANCED_FACE ( 'NONE', ( #127 ), #112, .F. ) ;
#16 = DIRECTION ( 'NONE',  ( 1.000000000000000000, 0.000000000000000000, 0.000000000000000000 ) ) ;
#17 = DIRECTION ( 'NONE',  ( 0.000000000000000000, 0.000000000000000000, 1.000000000000000000 ) ) ;
#18 = DATE_TIME_ROLE ( 'classification_date' ) ;
#19 = ORIENTED_EDGE ( 'NONE', *, *, #169, .T. ) ;
#20 = CALENDAR_DATE ( 2026, 26, 7 ) ;
#21 = CLOSED_SHELL ( 'NONE', ( #23, #222, #7, #15, #106, #61 ) ) ;
#22 = EDGE_LOOP ( 'NONE', ( #25, #221, #81, #19 ) ) ;
#23 = ADVANCED_FACE ( 'NONE', ( #32 ), #100, .F. ) ;
#24 = MANIFOLD_SOLID_BREP ( '凸台-拉伸1', #21 ) ;
#25 = ORIENTED_EDGE ( 'NONE', *, *, #48, .T. ) ;
#26 = LOCAL_TIME ( 17, 22, 4.000000000000000000, #162 ) ;
#27 = DIRECTION ( 'NONE',  ( 1.000000000000000000, -0.000000000000000000, 0.000000000000000000 ) ) ;
#28 = ADVANCED_BREP_SHAPE_REPRESENTATION ( 'FN-PCB-002_carrier-envelope_ROTATED_R0.3', ( #24, #140 ), #3 ) ;
#29 = CARTESIAN_POINT ( 'NONE',  ( 57.50000000000000000, 0.000000000000000000, 85.00000000000000000 ) ) ;
#30 = DIRECTION ( 'NONE',  ( 1.000000000000000000, 0.000000000000000000, 0.000000000000000000 ) ) ;
#31 = VECTOR ( 'NONE', #88, 1000.000000000000000 ) ;
#32 = FACE_OUTER_BOUND ( 'NONE', #134, .T. ) ;
#33 = LINE ( 'NONE', #139, #52 ) ;
#34 = APPLICATION_PROTOCOL_DEFINITION ( 'international standard', 'config_control_design', 1994, #80 ) ;
#35 =( LENGTH_UNIT ( ) NAMED_UNIT ( * ) SI_UNIT ( .MILLI., .METRE. ) );
#36 = APPROVAL_PERSON_ORGANIZATION ( #164, #194, #58 ) ;
#37 = CC_DESIGN_PERSON_AND_ORGANIZATION_ASSIGNMENT ( #122, #196, ( #161 ) ) ;
#38 = PERSON_AND_ORGANIZATION ( #4, #200 ) ;
#39 = PERSON_AND_ORGANIZATION_ROLE ( 'classification_officer' ) ;
#40 = ORIENTED_EDGE ( 'NONE', *, *, #201, .T. ) ;
#41 = COORDINATED_UNIVERSAL_TIME_OFFSET ( 8, 0, .AHEAD. ) ;
#42 = ORIENTED_EDGE ( 'NONE', *, *, #133, .T. ) ;
#43 = VECTOR ( 'NONE', #230, 1000.000000000000000 ) ;
#44 = VERTEX_POINT ( 'NONE', #137 ) ;
#45 = UNCERTAINTY_MEASURE_WITH_UNIT (LENGTH_MEASURE( 1.000000000000000082E-05 ), #35, 'distance_accuracy_value', 'NONE');
#46 = ORIENTED_EDGE ( 'NONE', *, *, #95, .T. ) ;
#47 = ORIENTED_EDGE ( 'NONE', *, *, #169, .F. ) ;
#48 = EDGE_CURVE ( 'NONE', #60, #166, #141, .T. ) ;
#49 = CARTESIAN_POINT ( 'NONE',  ( -57.50000000000000000, 0.000000000000000000, 85.00000000000000000 ) ) ;
#50 = LINE ( 'NONE', #136, #70 ) ;
#51 = CARTESIAN_POINT ( 'NONE',  ( 57.50000000000000000, 1.600000000000000089, -85.00000000000000000 ) ) ;
#52 = VECTOR ( 'NONE', #68, 1000.000000000000000 ) ;
#53 = LINE ( 'NONE', #104, #132 ) ;
#54 = DIRECTION ( 'NONE',  ( 0.000000000000000000, 0.000000000000000000, -1.000000000000000000 ) ) ;
#55 = APPROVAL_STATUS ( 'not_yet_approved' ) ;
#56 = EDGE_CURVE ( 'NONE', #171, #152, #50, .T. ) ;
#57 = PERSON_AND_ORGANIZATION_ROLE ( 'creator' ) ;
#58 = APPROVAL_ROLE ( '' ) ;
#59 =( NAMED_UNIT ( * ) PLANE_ANGLE_UNIT ( ) SI_UNIT ( $, .RADIAN. ) );
#60 = VERTEX_POINT ( 'NONE', #9 ) ;
#61 = ADVANCED_FACE ( 'NONE', ( #67 ), #209, .T. ) ;
#62 = EDGE_LOOP ( 'NONE', ( #170, #1, #146, #223 ) ) ;
#63 = VERTEX_POINT ( 'NONE', #86 ) ;
#64 = CC_DESIGN_PERSON_AND_ORGANIZATION_ASSIGNMENT ( #38, #143, ( #237 ) ) ;
#65 = CARTESIAN_POINT ( 'NONE',  ( 57.50000000000000000, 1.600000000000000089, 85.00000000000000000 ) ) ;
#66 = DIRECTION ( 'NONE',  ( -0.000000000000000000, -1.000000000000000000, -0.000000000000000000 ) ) ;
#67 = FACE_OUTER_BOUND ( 'NONE', #205, .T. ) ;
#68 = DIRECTION ( 'NONE',  ( -0.000000000000000000, -1.000000000000000000, -0.000000000000000000 ) ) ;
#69 = CARTESIAN_POINT ( 'NONE',  ( 0.000000000000000000, 1.600000000000000089, 0.000000000000000000 ) ) ;
#70 = VECTOR ( 'NONE', #66, 1000.000000000000000 ) ;
#71 = CC_DESIGN_PERSON_AND_ORGANIZATION_ASSIGNMENT ( #76, #57, ( #237 ) ) ;
#72 = PERSON_AND_ORGANIZATION ( #4, #200 ) ;
#73 = CALENDAR_DATE ( 2026, 26, 7 ) ;
#74 = APPROVAL_PERSON_ORGANIZATION ( #72, #234, #178 ) ;
#75 = ORIENTED_EDGE ( 'NONE', *, *, #48, .F. ) ;
#76 = PERSON_AND_ORGANIZATION ( #4, #200 ) ;
#77 = CARTESIAN_POINT ( 'NONE',  ( 57.50000000000000000, 1.600000000000000089, 85.00000000000000000 ) ) ;
#78 = CARTESIAN_POINT ( 'NONE',  ( 0.000000000000000000, 0.000000000000000000, 0.000000000000000000 ) ) ;
#79 = VECTOR ( 'NONE', #30, 1000.000000000000000 ) ;
#80 = APPLICATION_CONTEXT ( 'configuration controlled 3d designs of mechanical parts and assemblies' ) ;
#81 = ORIENTED_EDGE ( 'NONE', *, *, #95, .F. ) ;
#82 = AXIS2_PLACEMENT_3D ( 'NONE', #192, #54, #105 ) ;
#83 = LINE ( 'NONE', #65, #121 ) ;
#84 = DESIGN_CONTEXT ( 'detailed design', #80, 'design' ) ;
#85 = FACE_OUTER_BOUND ( 'NONE', #147, .T. ) ;
#86 = CARTESIAN_POINT ( 'NONE',  ( -57.50000000000000000, 1.600000000000000089, 85.00000000000000000 ) ) ;
#87 = LINE ( 'NONE', #101, #151 ) ;
#88 = DIRECTION ( 'NONE',  ( -1.000000000000000000, -0.000000000000000000, -0.000000000000000000 ) ) ;
#89 = CARTESIAN_POINT ( 'NONE',  ( -57.50000000000000000, 1.600000000000000089, 85.00000000000000000 ) ) ;
#90 = APPROVAL_DATE_TIME ( #167, #190 ) ;
#91 = EDGE_CURVE ( 'NONE', #166, #44, #87, .T. ) ;
#92 = CC_DESIGN_APPROVAL ( #234, ( #237 ) ) ;
#93 = APPROVAL_STATUS ( 'not_yet_approved' ) ;
#94 = ORIENTED_EDGE ( 'NONE', *, *, #102, .F. ) ;
#95 = EDGE_CURVE ( 'NONE', #63, #5, #174, .T. ) ;
#96 = CC_DESIGN_APPROVAL ( #194, ( #161 ) ) ;
#97 = ORIENTED_EDGE ( 'NONE', *, *, #2, .F. ) ;
#98 = ORIENTED_EDGE ( 'NONE', *, *, #91, .T. ) ;
#99 = SECURITY_CLASSIFICATION ( '', '', #124 ) ;
#100 = PLANE ( 'NONE',  #218 ) ;
#101 = CARTESIAN_POINT ( 'NONE',  ( 57.50000000000000000, 0.000000000000000000, 85.00000000000000000 ) ) ;
#102 = EDGE_CURVE ( 'NONE', #180, #44, #191, .T. ) ;
#103 = CARTESIAN_POINT ( 'NONE',  ( -57.50000000000000000, 1.600000000000000089, 85.00000000000000000 ) ) ;
#104 = CARTESIAN_POINT ( 'NONE',  ( -57.50000000000000000, 0.000000000000000000, 85.00000000000000000 ) ) ;
#105 = DIRECTION ( 'NONE',  ( -1.000000000000000000, 0.000000000000000000, -0.000000000000000000 ) ) ;
#106 = ADVANCED_FACE ( 'NONE', ( #85 ), #118, .F. ) ;
#107 = CALENDAR_DATE ( 2026, 26, 7 ) ;
#108 = APPROVAL_PERSON_ORGANIZATION ( #236, #190, #182 ) ;
#109 = PERSON_AND_ORGANIZATION ( #4, #200 ) ;
#110 = ORIENTED_EDGE ( 'NONE', *, *, #184, .T. ) ;
#111 = DATE_AND_TIME ( #73, #203 ) ;
#112 = PLANE ( 'NONE',  #186 ) ;
#113 = AXIS2_PLACEMENT_3D ( 'NONE', #6, #208, #11 ) ;
#114 = ORIENTED_EDGE ( 'NONE', *, *, #91, .F. ) ;
#115 = ORIENTED_EDGE ( 'NONE', *, *, #2, .T. ) ;
#116 = PLANE ( 'NONE',  #148 ) ;
#117 = VECTOR ( 'NONE', #175, 1000.000000000000000 ) ;
#118 = PLANE ( 'NONE',  #128 ) ;
#119 = DIRECTION ( 'NONE',  ( 1.000000000000000000, 0.000000000000000000, -0.000000000000000000 ) ) ;
#120 = CARTESIAN_POINT ( 'NONE',  ( -57.50000000000000000, 1.600000000000000089, -85.00000000000000000 ) ) ;
#121 = VECTOR ( 'NONE', #206, 1000.000000000000000 ) ;
#122 = PERSON_AND_ORGANIZATION ( #4, #200 ) ;
#123 = CC_DESIGN_SECURITY_CLASSIFICATION ( #99, ( #237 ) ) ;
#124 = SECURITY_CLASSIFICATION_LEVEL ( 'unclassified' ) ;
#125 = CALENDAR_DATE ( 2026, 26, 7 ) ;
#126 = APPROVAL_STATUS ( 'not_yet_approved' ) ;
#127 = FACE_OUTER_BOUND ( 'NONE', #62, .T. ) ;
#128 = AXIS2_PLACEMENT_3D ( 'NONE', #69, #211, #188 ) ;
#129 = CC_DESIGN_PERSON_AND_ORGANIZATION_ASSIGNMENT ( #14, #193, ( #149 ) ) ;
#130 = PRODUCT_DEFINITION_SHAPE ( 'NONE', 'NONE',  #161 ) ;
#131 = ORIENTED_EDGE ( 'NONE', *, *, #150, .F. ) ;
#132 = VECTOR ( 'NONE', #159, 1000.000000000000000 ) ;
#133 = EDGE_CURVE ( 'NONE', #5, #166, #33, .T. ) ;
#134 = EDGE_LOOP ( 'NONE', ( #204, #47, #198, #165 ) ) ;
#135 = CARTESIAN_POINT ( 'NONE',  ( -57.50000000000000000, 1.600000000000000089, -85.00000000000000000 ) ) ;
#136 = CARTESIAN_POINT ( 'NONE',  ( -57.50000000000000000, 1.600000000000000089, -85.00000000000000000 ) ) ;
#137 = CARTESIAN_POINT ( 'NONE',  ( 57.50000000000000000, 0.000000000000000000, -85.00000000000000000 ) ) ;
#138 = LINE ( 'NONE', #8, #31 ) ;
#139 = CARTESIAN_POINT ( 'NONE',  ( 57.50000000000000000, 1.600000000000000089, 85.00000000000000000 ) ) ;
#140 = AXIS2_PLACEMENT_3D ( 'NONE', #78, #145, #16 ) ;
#141 = LINE ( 'NONE', #49, #79 ) ;
#142 = APPROVAL_DATE_TIME ( #111, #234 ) ;
#143 = PERSON_AND_ORGANIZATION_ROLE ( 'design_supplier' ) ;
#144 = VECTOR ( 'NONE', #228, 1000.000000000000000 ) ;
#145 = DIRECTION ( 'NONE',  ( 0.000000000000000000, 0.000000000000000000, 1.000000000000000000 ) ) ;
#146 = ORIENTED_EDGE ( 'NONE', *, *, #201, .F. ) ;
#147 = EDGE_LOOP ( 'NONE', ( #110, #46, #115, #40 ) ) ;
#148 = AXIS2_PLACEMENT_3D ( 'NONE', #77, #217, #153 ) ;
#149 = PRODUCT ( 'FN-PCB-002_carrier-envelope_ROTATED_R0.3', 'FN-PCB-002_carrier-envelope_ROTATED_R0.3', '', ( #197 ) ) ;
#150 = EDGE_CURVE ( 'NONE', #44, #152, #138, .T. ) ;
#151 = VECTOR ( 'NONE', #156, 1000.000000000000000 ) ;
#152 = VERTEX_POINT ( 'NONE', #210 ) ;
#153 = DIRECTION ( 'NONE',  ( 0.000000000000000000, 0.000000000000000000, 1.000000000000000000 ) ) ;
#154 = LINE ( 'NONE', #89, #181 ) ;
#155 = CARTESIAN_POINT ( 'NONE',  ( -57.50000000000000000, 1.600000000000000089, 85.00000000000000000 ) ) ;
#156 = DIRECTION ( 'NONE',  ( 0.000000000000000000, 0.000000000000000000, -1.000000000000000000 ) ) ;
#157 = CARTESIAN_POINT ( 'NONE',  ( -57.50000000000000000, 1.600000000000000089, -85.00000000000000000 ) ) ;
#158 = PRODUCT_RELATED_PRODUCT_CATEGORY ( 'detail', '', ( #149 ) ) ;
#159 = DIRECTION ( 'NONE',  ( -0.000000000000000000, -0.000000000000000000, 1.000000000000000000 ) ) ;
#160 = SHAPE_DEFINITION_REPRESENTATION ( #130, #28 ) ;
#161 = PRODUCT_DEFINITION ( '未知', '', #237, #84 ) ;
#162 = COORDINATED_UNIVERSAL_TIME_OFFSET ( 8, 0, .AHEAD. ) ;
#163 = APPLICATION_CONTEXT ( 'configuration controlled 3d designs of mechanical parts and assemblies' ) ;
#164 = PERSON_AND_ORGANIZATION ( #4, #200 ) ;
#165 = ORIENTED_EDGE ( 'NONE', *, *, #56, .T. ) ;
#166 = VERTEX_POINT ( 'NONE', #29 ) ;
#167 = DATE_AND_TIME ( #20, #219 ) ;
#168 = CC_DESIGN_PERSON_AND_ORGANIZATION_ASSIGNMENT ( #109, #39, ( #99 ) ) ;
#169 = EDGE_CURVE ( 'NONE', #63, #60, #154, .T. ) ;
#170 = ORIENTED_EDGE ( 'NONE', *, *, #150, .T. ) ;
#171 = VERTEX_POINT ( 'NONE', #157 ) ;
#172 = CARTESIAN_POINT ( 'NONE',  ( -57.50000000000000000, 1.600000000000000089, 85.00000000000000000 ) ) ;
#173 = EDGE_CURVE ( 'NONE', #152, #60, #53, .T. ) ;
#174 = LINE ( 'NONE', #103, #144 ) ;
#175 = DIRECTION ( 'NONE',  ( -0.000000000000000000, -1.000000000000000000, -0.000000000000000000 ) ) ;
#176 = PLANE ( 'NONE',  #82 ) ;
#177 = CARTESIAN_POINT ( 'NONE',  ( 57.50000000000000000, 1.600000000000000089, -85.00000000000000000 ) ) ;
#178 = APPROVAL_ROLE ( '' ) ;
#179 = CALENDAR_DATE ( 2026, 26, 7 ) ;
#180 = VERTEX_POINT ( 'NONE', #51 ) ;
#181 = VECTOR ( 'NONE', #10, 1000.000000000000000 ) ;
#182 = APPROVAL_ROLE ( '' ) ;
#183 = CC_DESIGN_DATE_AND_TIME_ASSIGNMENT ( #195, #231, ( #161 ) ) ;
#184 = EDGE_CURVE ( 'NONE', #171, #63, #224, .T. ) ;
#185 = FACE_OUTER_BOUND ( 'NONE', #220, .T. ) ;
#186 = AXIS2_PLACEMENT_3D ( 'NONE', #135, #17, #119 ) ;
#187 = DIRECTION ( 'NONE',  ( -1.000000000000000000, -0.000000000000000000, -0.000000000000000000 ) ) ;
#188 = DIRECTION ( 'NONE',  ( 0.000000000000000000, -0.000000000000000000, -1.000000000000000000 ) ) ;
#189 = FACE_OUTER_BOUND ( 'NONE', #22, .T. ) ;
#190 = APPROVAL ( #93, '未指定' ) ;
#191 = LINE ( 'NONE', #177, #117 ) ;
#192 = CARTESIAN_POINT ( 'NONE',  ( -57.50000000000000000, 1.600000000000000089, 85.00000000000000000 ) ) ;
#193 = PERSON_AND_ORGANIZATION_ROLE ( 'design_owner' ) ;
#194 = APPROVAL ( #55, '未指定' ) ;
#195 = DATE_AND_TIME ( #107, #212 ) ;
#196 = PERSON_AND_ORGANIZATION_ROLE ( 'creator' ) ;
#197 = MECHANICAL_CONTEXT ( 'NONE', #163, 'mechanical' ) ;
#198 = ORIENTED_EDGE ( 'NONE', *, *, #184, .F. ) ;
#199 = APPROVAL_DATE_TIME ( #232, #194 ) ;
#200 = ORGANIZATION ( '未指定', '未指定', '' ) ;
#201 = EDGE_CURVE ( 'NONE', #180, #171, #229, .T. ) ;
#202 = ORIENTED_EDGE ( 'NONE', *, *, #173, .F. ) ;
#203 = LOCAL_TIME ( 17, 22, 4.000000000000000000, #41 ) ;
#204 = ORIENTED_EDGE ( 'NONE', *, *, #173, .T. ) ;
#205 = EDGE_LOOP ( 'NONE', ( #202, #131, #114, #75 ) ) ;
#206 = DIRECTION ( 'NONE',  ( 0.000000000000000000, 0.000000000000000000, -1.000000000000000000 ) ) ;
#207 = LOCAL_TIME ( 17, 22, 4.000000000000000000, #213 ) ;
#208 = DIRECTION ( 'NONE',  ( 0.000000000000000000, -1.000000000000000000, 0.000000000000000000 ) ) ;
#209 = PLANE ( 'NONE',  #113 ) ;
#210 = CARTESIAN_POINT ( 'NONE',  ( -57.50000000000000000, 0.000000000000000000, -85.00000000000000000 ) ) ;
#211 = DIRECTION ( 'NONE',  ( 0.000000000000000000, -1.000000000000000000, 0.000000000000000000 ) ) ;
#212 = LOCAL_TIME ( 17, 22, 4.000000000000000000, #214 ) ;
#213 = COORDINATED_UNIVERSAL_TIME_OFFSET ( 8, 0, .AHEAD. ) ;
#214 = COORDINATED_UNIVERSAL_TIME_OFFSET ( 8, 0, .AHEAD. ) ;
#215 =( NAMED_UNIT ( * ) SI_UNIT ( $, .STERADIAN. ) SOLID_ANGLE_UNIT ( ) );
#216 = APPLICATION_PROTOCOL_DEFINITION ( 'international standard', 'config_control_design', 1994, #163 ) ;
#217 = DIRECTION ( 'NONE',  ( -1.000000000000000000, 0.000000000000000000, 0.000000000000000000 ) ) ;
#218 = AXIS2_PLACEMENT_3D ( 'NONE', #172, #27, #226 ) ;
#219 = LOCAL_TIME ( 17, 22, 4.000000000000000000, #12 ) ;
#220 = EDGE_LOOP ( 'NONE', ( #98, #94, #97, #42 ) ) ;
#221 = ORIENTED_EDGE ( 'NONE', *, *, #133, .F. ) ;
#222 = ADVANCED_FACE ( 'NONE', ( #189 ), #176, .F. ) ;
#223 = ORIENTED_EDGE ( 'NONE', *, *, #102, .T. ) ;
#224 = LINE ( 'NONE', #155, #43 ) ;
#225 = CC_DESIGN_APPROVAL ( #190, ( #99 ) ) ;
#226 = DIRECTION ( 'NONE',  ( 0.000000000000000000, 0.000000000000000000, -1.000000000000000000 ) ) ;
#227 = CC_DESIGN_DATE_AND_TIME_ASSIGNMENT ( #233, #18, ( #99 ) ) ;
#228 = DIRECTION ( 'NONE',  ( 1.000000000000000000, 0.000000000000000000, 0.000000000000000000 ) ) ;
#229 = LINE ( 'NONE', #120, #13 ) ;
#230 = DIRECTION ( 'NONE',  ( -0.000000000000000000, -0.000000000000000000, 1.000000000000000000 ) ) ;
#231 = DATE_TIME_ROLE ( 'creation_date' ) ;
#232 = DATE_AND_TIME ( #125, #26 ) ;
#233 = DATE_AND_TIME ( #179, #207 ) ;
#234 = APPROVAL ( #126, '未指定' ) ;
#235 = CARTESIAN_POINT ( 'NONE',  ( 57.50000000000000000, 1.600000000000000089, 85.00000000000000000 ) ) ;
#236 = PERSON_AND_ORGANIZATION ( #4, #200 ) ;
#237 = PRODUCT_DEFINITION_FORMATION_WITH_SPECIFIED_SOURCE ( '任何', '', #149, .NOT_KNOWN. ) ;
ENDSEC;
END-ISO-10303-21;
