ISO-10303-21;
HEADER;
FILE_DESCRIPTION (( 'STEP AP203' ),
    '1' );
FILE_NAME ('FN-PLT-003_fr4-rect-fit_NO-HOLES_R0.3.STEP',
    '2026-07-26T09:21:55',
    ( '' ),
    ( '' ),
    'SwSTEP 2.0',
    'SolidWorks 2022',
    '' );
FILE_SCHEMA (( 'CONFIG_CONTROL_DESIGN' ));
ENDSEC;

DATA;
#1 = MECHANICAL_CONTEXT ( 'NONE', #183, 'mechanical' ) ;
#2 = DATE_AND_TIME ( #23, #176 ) ;
#3 = VECTOR ( 'NONE', #102, 1000.000000000000000 ) ;
#4 = COORDINATED_UNIVERSAL_TIME_OFFSET ( 8, 0, .AHEAD. ) ;
#5 = PERSON_AND_ORGANIZATION ( #43, #51 ) ;
#6 = VERTEX_POINT ( 'NONE', #188 ) ;
#7 = CARTESIAN_POINT ( 'NONE',  ( -136.0000000000000000, 0.000000000000000000, -96.50000000000000000 ) ) ;
#8 = ORIENTED_EDGE ( 'NONE', *, *, #206, .F. ) ;
#9 = EDGE_LOOP ( 'NONE', ( #25, #119, #225, #169 ) ) ;
#10 = PRODUCT_DEFINITION_FORMATION_WITH_SPECIFIED_SOURCE ( '任何', '', #59, .NOT_KNOWN. ) ;
#11 = VERTEX_POINT ( 'NONE', #192 ) ;
#12 = EDGE_CURVE ( 'NONE', #115, #30, #71, .T. ) ;
#13 = VERTEX_POINT ( 'NONE', #187 ) ;
#14 = CARTESIAN_POINT ( 'NONE',  ( -136.0000000000000000, 3.000000000000000000, 96.50000000000000000 ) ) ;
#15 = CARTESIAN_POINT ( 'NONE',  ( 136.0000000000000000, 0.000000000000000000, 96.50000000000000000 ) ) ;
#16 = CC_DESIGN_SECURITY_CLASSIFICATION ( #31, ( #10 ) ) ;
#17 =( LENGTH_UNIT ( ) NAMED_UNIT ( * ) SI_UNIT ( .MILLI., .METRE. ) );
#18 = LINE ( 'NONE', #158, #195 ) ;
#19 = ADVANCED_FACE ( 'NONE', ( #46 ), #26, .F. ) ;
#20 = CC_DESIGN_PERSON_AND_ORGANIZATION_ASSIGNMENT ( #220, #221, ( #10 ) ) ;
#21 = PERSON_AND_ORGANIZATION_ROLE ( 'creator' ) ;
#22 = AXIS2_PLACEMENT_3D ( 'NONE', #50, #99, #190 ) ;
#23 = CALENDAR_DATE ( 2026, 26, 7 ) ;
#24 = DATE_AND_TIME ( #77, #224 ) ;
#25 = ORIENTED_EDGE ( 'NONE', *, *, #105, .T. ) ;
#26 = PLANE ( 'NONE',  #22 ) ;
#27 = EDGE_CURVE ( 'NONE', #13, #157, #29, .T. ) ;
#28 = ORIENTED_EDGE ( 'NONE', *, *, #217, .F. ) ;
#29 = LINE ( 'NONE', #171, #3 ) ;
#30 = VERTEX_POINT ( 'NONE', #48 ) ;
#31 = SECURITY_CLASSIFICATION ( '', '', #58 ) ;
#32 = CARTESIAN_POINT ( 'NONE',  ( -136.0000000000000000, 3.000000000000000000, 96.50000000000000000 ) ) ;
#33 = FACE_OUTER_BOUND ( 'NONE', #152, .T. ) ;
#34 = CARTESIAN_POINT ( 'NONE',  ( 136.0000000000000000, 0.000000000000000000, 96.50000000000000000 ) ) ;
#35 = PRODUCT_DEFINITION ( '未知', '', #10, #227 ) ;
#36 = CARTESIAN_POINT ( 'NONE',  ( 136.0000000000000000, 3.000000000000000000, 96.50000000000000000 ) ) ;
#37 = CARTESIAN_POINT ( 'NONE',  ( -136.0000000000000000, 0.000000000000000000, 96.50000000000000000 ) ) ;
#38 = LINE ( 'NONE', #37, #211 ) ;
#39 = VECTOR ( 'NONE', #52, 1000.000000000000000 ) ;
#40 = CALENDAR_DATE ( 2026, 26, 7 ) ;
#41 = EDGE_CURVE ( 'NONE', #121, #6, #137, .T. ) ;
#42 = APPROVAL_ROLE ( '' ) ;
#43 = PERSON ( '未指定', '未指定', '未指定', ('未指定'), ('未指定'), ('未指定') ) ;
#44 = SHAPE_DEFINITION_REPRESENTATION ( #147, #139 ) ;
#45 = PERSON_AND_ORGANIZATION_ROLE ( 'design_owner' ) ;
#46 = FACE_OUTER_BOUND ( 'NONE', #9, .T. ) ;
#47 = EDGE_LOOP ( 'NONE', ( #66, #69, #191, #120 ) ) ;
#48 = CARTESIAN_POINT ( 'NONE',  ( 136.0000000000000000, 3.000000000000000000, 96.50000000000000000 ) ) ;
#49 = DIRECTION ( 'NONE',  ( -1.000000000000000000, 0.000000000000000000, 0.000000000000000000 ) ) ;
#50 = CARTESIAN_POINT ( 'NONE',  ( 0.000000000000000000, 3.000000000000000000, 0.000000000000000000 ) ) ;
#51 = ORGANIZATION ( '未指定', '未指定', '' ) ;
#52 = DIRECTION ( 'NONE',  ( -0.000000000000000000, -0.000000000000000000, 1.000000000000000000 ) ) ;
#53 = CARTESIAN_POINT ( 'NONE',  ( 136.0000000000000000, 3.000000000000000000, -96.50000000000000000 ) ) ;
#54 = VECTOR ( 'NONE', #140, 1000.000000000000000 ) ;
#55 = VECTOR ( 'NONE', #193, 1000.000000000000000 ) ;
#56 = DIRECTION ( 'NONE',  ( 0.000000000000000000, 0.000000000000000000, 1.000000000000000000 ) ) ;
#57 = DIRECTION ( 'NONE',  ( 0.000000000000000000, 0.000000000000000000, 1.000000000000000000 ) ) ;
#58 = SECURITY_CLASSIFICATION_LEVEL ( 'unclassified' ) ;
#59 = PRODUCT ( 'FN-PLT-003_fr4-rect-fit_NO-HOLES_R0.3', 'FN-PLT-003_fr4-rect-fit_NO-HOLES_R0.3', '', ( #1 ) ) ;
#60 = DATE_AND_TIME ( #40, #72 ) ;
#61 = APPROVAL ( #130, '未指定' ) ;
#62 = PERSON_AND_ORGANIZATION ( #43, #51 ) ;
#63 = COORDINATED_UNIVERSAL_TIME_OFFSET ( 8, 0, .AHEAD. ) ;
#64 = APPROVAL_ROLE ( '' ) ;
#65 = ADVANCED_FACE ( 'NONE', ( #153 ), #209, .F. ) ;
#66 = ORIENTED_EDGE ( 'NONE', *, *, #217, .T. ) ;
#67 = EDGE_LOOP ( 'NONE', ( #155, #156, #8, #229 ) ) ;
#68 = VECTOR ( 'NONE', #184, 1000.000000000000000 ) ;
#69 = ORIENTED_EDGE ( 'NONE', *, *, #144, .F. ) ;
#70 = DIRECTION ( 'NONE',  ( 0.000000000000000000, 0.000000000000000000, -1.000000000000000000 ) ) ;
#71 = LINE ( 'NONE', #101, #223 ) ;
#72 = LOCAL_TIME ( 17, 21, 55.00000000000000000, #168 ) ;
#73 = ADVANCED_FACE ( 'NONE', ( #208 ), #136, .F. ) ;
#74 = DIRECTION ( 'NONE',  ( -0.000000000000000000, -1.000000000000000000, -0.000000000000000000 ) ) ;
#75 = DIRECTION ( 'NONE',  ( -0.000000000000000000, -1.000000000000000000, -0.000000000000000000 ) ) ;
#76 = AXIS2_PLACEMENT_3D ( 'NONE', #89, #49, #85 ) ;
#77 = CALENDAR_DATE ( 2026, 26, 7 ) ;
#78 = CLOSED_SHELL ( 'NONE', ( #83, #65, #73, #200, #19, #230 ) ) ;
#79 = CALENDAR_DATE ( 2026, 26, 7 ) ;
#80 = AXIS2_PLACEMENT_3D ( 'NONE', #194, #57, #125 ) ;
#81 = APPROVAL_DATE_TIME ( #24, #182 ) ;
#82 = PERSON_AND_ORGANIZATION ( #43, #51 ) ;
#83 = ADVANCED_FACE ( 'NONE', ( #138 ), #210, .F. ) ;
#84 = AXIS2_PLACEMENT_3D ( 'NONE', #32, #124, #93 ) ;
#85 = DIRECTION ( 'NONE',  ( 0.000000000000000000, 0.000000000000000000, 1.000000000000000000 ) ) ;
#86 = DIRECTION ( 'NONE',  ( -1.000000000000000000, -0.000000000000000000, -0.000000000000000000 ) ) ;
#87 = ORIENTED_EDGE ( 'NONE', *, *, #236, .F. ) ;
#88 = LOCAL_TIME ( 17, 21, 55.00000000000000000, #199 ) ;
#89 = CARTESIAN_POINT ( 'NONE',  ( 136.0000000000000000, 3.000000000000000000, 96.50000000000000000 ) ) ;
#90 = EDGE_LOOP ( 'NONE', ( #204, #87, #205, #103 ) ) ;
#91 = DIRECTION ( 'NONE',  ( -0.000000000000000000, -0.000000000000000000, 1.000000000000000000 ) ) ;
#92 = PLANE ( 'NONE',  #185 ) ;
#93 = DIRECTION ( 'NONE',  ( 0.000000000000000000, 0.000000000000000000, -1.000000000000000000 ) ) ;
#94 = LINE ( 'NONE', #36, #154 ) ;
#95 = MANIFOLD_SOLID_BREP ( '凸台-拉伸1', #78 ) ;
#96 = EDGE_CURVE ( 'NONE', #6, #13, #38, .T. ) ;
#97 = APPROVAL_STATUS ( 'not_yet_approved' ) ;
#98 = PERSON_AND_ORGANIZATION ( #43, #51 ) ;
#99 = DIRECTION ( 'NONE',  ( 0.000000000000000000, -1.000000000000000000, 0.000000000000000000 ) ) ;
#100 = CC_DESIGN_APPROVAL ( #172, ( #31 ) ) ;
#101 = CARTESIAN_POINT ( 'NONE',  ( -136.0000000000000000, 3.000000000000000000, 96.50000000000000000 ) ) ;
#102 = DIRECTION ( 'NONE',  ( 1.000000000000000000, 0.000000000000000000, 0.000000000000000000 ) ) ;
#103 = ORIENTED_EDGE ( 'NONE', *, *, #159, .T. ) ;
#104 = ORIENTED_EDGE ( 'NONE', *, *, #41, .F. ) ;
#105 = EDGE_CURVE ( 'NONE', #11, #115, #234, .T. ) ;
#106 = LINE ( 'NONE', #14, #170 ) ;
#107 = DIRECTION ( 'NONE',  ( 1.000000000000000000, 0.000000000000000000, -0.000000000000000000 ) ) ;
#108 = DIRECTION ( 'NONE',  ( -0.000000000000000000, -1.000000000000000000, -0.000000000000000000 ) ) ;
#109 = DIRECTION ( 'NONE',  ( 0.000000000000000000, -0.000000000000000000, -1.000000000000000000 ) ) ;
#110 = CARTESIAN_POINT ( 'NONE',  ( -136.0000000000000000, 3.000000000000000000, 96.50000000000000000 ) ) ;
#111 = DATE_AND_TIME ( #148, #88 ) ;
#112 = APPROVAL_DATE_TIME ( #203, #172 ) ;
#113 = COORDINATED_UNIVERSAL_TIME_OFFSET ( 8, 0, .AHEAD. ) ;
#114 = ORIENTED_EDGE ( 'NONE', *, *, #27, .T. ) ;
#115 = VERTEX_POINT ( 'NONE', #178 ) ;
#116 = ORIENTED_EDGE ( 'NONE', *, *, #12, .F. ) ;
#117 = UNCERTAINTY_MEASURE_WITH_UNIT (LENGTH_MEASURE( 1.000000000000000082E-05 ), #17, 'distance_accuracy_value', 'NONE');
#118 = CC_DESIGN_APPROVAL ( #182, ( #10 ) ) ;
#119 = ORIENTED_EDGE ( 'NONE', *, *, #12, .T. ) ;
#120 = ORIENTED_EDGE ( 'NONE', *, *, #162, .T. ) ;
#121 = VERTEX_POINT ( 'NONE', #218 ) ;
#122 = LINE ( 'NONE', #15, #55 ) ;
#123 = CARTESIAN_POINT ( 'NONE',  ( 0.000000000000000000, 0.000000000000000000, 0.000000000000000000 ) ) ;
#124 = DIRECTION ( 'NONE',  ( 1.000000000000000000, -0.000000000000000000, 0.000000000000000000 ) ) ;
#125 = DIRECTION ( 'NONE',  ( 1.000000000000000000, 0.000000000000000000, 0.000000000000000000 ) ) ;
#126 = APPROVAL_STATUS ( 'not_yet_approved' ) ;
#127 = DATE_TIME_ROLE ( 'classification_date' ) ;
#128 = APPROVAL_PERSON_ORGANIZATION ( #5, #172, #64 ) ;
#129 = PRODUCT_RELATED_PRODUCT_CATEGORY ( 'detail', '', ( #59 ) ) ;
#130 = APPROVAL_STATUS ( 'not_yet_approved' ) ;
#131 = PERSON_AND_ORGANIZATION_ROLE ( 'creator' ) ;
#132 = PERSON_AND_ORGANIZATION ( #43, #51 ) ;
#133 =( GEOMETRIC_REPRESENTATION_CONTEXT ( 3 ) GLOBAL_UNCERTAINTY_ASSIGNED_CONTEXT ( ( #117 ) ) GLOBAL_UNIT_ASSIGNED_CONTEXT ( ( #17, #197, #141 ) ) REPRESENTATION_CONTEXT ( 'NONE', 'WORKASPACE' ) );
#134 = ORIENTED_EDGE ( 'NONE', *, *, #96, .F. ) ;
#135 = AXIS2_PLACEMENT_3D ( 'NONE', #226, #70, #177 ) ;
#136 = PLANE ( 'NONE',  #76 ) ;
#137 = LINE ( 'NONE', #7, #151 ) ;
#138 = FACE_OUTER_BOUND ( 'NONE', #90, .T. ) ;
#139 = ADVANCED_BREP_SHAPE_REPRESENTATION ( 'FN-PLT-003_fr4-rect-fit_NO-HOLES_R0.3', ( #95, #80 ), #133 ) ;
#140 = DIRECTION ( 'NONE',  ( 0.000000000000000000, 0.000000000000000000, -1.000000000000000000 ) ) ;
#141 =( NAMED_UNIT ( * ) SI_UNIT ( $, .STERADIAN. ) SOLID_ANGLE_UNIT ( ) );
#142 = APPROVAL_PERSON_ORGANIZATION ( #82, #182, #42 ) ;
#143 = PLANE ( 'NONE',  #149 ) ;
#144 = EDGE_CURVE ( 'NONE', #174, #121, #235, .T. ) ;
#145 = APPLICATION_PROTOCOL_DEFINITION ( 'international standard', 'config_control_design', 1994, #214 ) ;
#146 = CC_DESIGN_PERSON_AND_ORGANIZATION_ASSIGNMENT ( #202, #166, ( #31 ) ) ;
#147 = PRODUCT_DEFINITION_SHAPE ( 'NONE', 'NONE',  #35 ) ;
#148 = CALENDAR_DATE ( 2026, 26, 7 ) ;
#149 = AXIS2_PLACEMENT_3D ( 'NONE', #237, #56, #107 ) ;
#150 = CC_DESIGN_DATE_AND_TIME_ASSIGNMENT ( #111, #164, ( #35 ) ) ;
#151 = VECTOR ( 'NONE', #86, 1000.000000000000000 ) ;
#152 = EDGE_LOOP ( 'NONE', ( #134, #104, #28, #228 ) ) ;
#153 = FACE_OUTER_BOUND ( 'NONE', #186, .T. ) ;
#154 = VECTOR ( 'NONE', #75, 1000.000000000000000 ) ;
#155 = ORIENTED_EDGE ( 'NONE', *, *, #41, .T. ) ;
#156 = ORIENTED_EDGE ( 'NONE', *, *, #159, .F. ) ;
#157 = VERTEX_POINT ( 'NONE', #34 ) ;
#158 = CARTESIAN_POINT ( 'NONE',  ( -136.0000000000000000, 3.000000000000000000, -96.50000000000000000 ) ) ;
#159 = EDGE_CURVE ( 'NONE', #11, #6, #18, .T. ) ;
#160 = LINE ( 'NONE', #213, #207 ) ;
#161 = APPLICATION_PROTOCOL_DEFINITION ( 'international standard', 'config_control_design', 1994, #183 ) ;
#162 = EDGE_CURVE ( 'NONE', #30, #157, #94, .T. ) ;
#163 = FACE_OUTER_BOUND ( 'NONE', #67, .T. ) ;
#164 = DATE_TIME_ROLE ( 'creation_date' ) ;
#165 = CC_DESIGN_APPROVAL ( #61, ( #35 ) ) ;
#166 = PERSON_AND_ORGANIZATION_ROLE ( 'classification_officer' ) ;
#167 = CC_DESIGN_DATE_AND_TIME_ASSIGNMENT ( #60, #127, ( #31 ) ) ;
#168 = COORDINATED_UNIVERSAL_TIME_OFFSET ( 8, 0, .AHEAD. ) ;
#169 = ORIENTED_EDGE ( 'NONE', *, *, #206, .T. ) ;
#170 = VECTOR ( 'NONE', #74, 1000.000000000000000 ) ;
#171 = CARTESIAN_POINT ( 'NONE',  ( -136.0000000000000000, 0.000000000000000000, 96.50000000000000000 ) ) ;
#172 = APPROVAL ( #126, '未指定' ) ;
#173 = DIRECTION ( 'NONE',  ( 1.000000000000000000, 0.000000000000000000, 0.000000000000000000 ) ) ;
#174 = VERTEX_POINT ( 'NONE', #216 ) ;
#175 = ORIENTED_EDGE ( 'NONE', *, *, #236, .T. ) ;
#176 = LOCAL_TIME ( 17, 21, 55.00000000000000000, #63 ) ;
#177 = DIRECTION ( 'NONE',  ( -1.000000000000000000, 0.000000000000000000, -0.000000000000000000 ) ) ;
#178 = CARTESIAN_POINT ( 'NONE',  ( -136.0000000000000000, 3.000000000000000000, 96.50000000000000000 ) ) ;
#179 = EDGE_CURVE ( 'NONE', #30, #174, #233, .T. ) ;
#180 = DIRECTION ( 'NONE',  ( -1.000000000000000000, -0.000000000000000000, -0.000000000000000000 ) ) ;
#181 = APPROVAL_PERSON_ORGANIZATION ( #62, #61, #222 ) ;
#182 = APPROVAL ( #97, '未指定' ) ;
#183 = APPLICATION_CONTEXT ( 'configuration controlled 3d designs of mechanical parts and assemblies' ) ;
#184 = DIRECTION ( 'NONE',  ( -0.000000000000000000, -1.000000000000000000, -0.000000000000000000 ) ) ;
#185 = AXIS2_PLACEMENT_3D ( 'NONE', #123, #196, #109 ) ;
#186 = EDGE_LOOP ( 'NONE', ( #114, #231, #116, #175 ) ) ;
#187 = CARTESIAN_POINT ( 'NONE',  ( -136.0000000000000000, 0.000000000000000000, 96.50000000000000000 ) ) ;
#188 = CARTESIAN_POINT ( 'NONE',  ( -136.0000000000000000, 0.000000000000000000, -96.50000000000000000 ) ) ;
#189 = CC_DESIGN_PERSON_AND_ORGANIZATION_ASSIGNMENT ( #98, #21, ( #35 ) ) ;
#190 = DIRECTION ( 'NONE',  ( 0.000000000000000000, -0.000000000000000000, -1.000000000000000000 ) ) ;
#191 = ORIENTED_EDGE ( 'NONE', *, *, #179, .F. ) ;
#192 = CARTESIAN_POINT ( 'NONE',  ( -136.0000000000000000, 3.000000000000000000, -96.50000000000000000 ) ) ;
#193 = DIRECTION ( 'NONE',  ( 0.000000000000000000, 0.000000000000000000, -1.000000000000000000 ) ) ;
#194 = CARTESIAN_POINT ( 'NONE',  ( 0.000000000000000000, 0.000000000000000000, 0.000000000000000000 ) ) ;
#195 = VECTOR ( 'NONE', #108, 1000.000000000000000 ) ;
#196 = DIRECTION ( 'NONE',  ( 0.000000000000000000, -1.000000000000000000, 0.000000000000000000 ) ) ;
#197 =( NAMED_UNIT ( * ) PLANE_ANGLE_UNIT ( ) SI_UNIT ( $, .RADIAN. ) );
#198 = LOCAL_TIME ( 17, 21, 55.00000000000000000, #4 ) ;
#199 = COORDINATED_UNIVERSAL_TIME_OFFSET ( 8, 0, .AHEAD. ) ;
#200 = ADVANCED_FACE ( 'NONE', ( #163 ), #143, .F. ) ;
#201 = APPROVAL_DATE_TIME ( #2, #61 ) ;
#202 = PERSON_AND_ORGANIZATION ( #43, #51 ) ;
#203 = DATE_AND_TIME ( #79, #198 ) ;
#204 = ORIENTED_EDGE ( 'NONE', *, *, #96, .T. ) ;
#205 = ORIENTED_EDGE ( 'NONE', *, *, #105, .F. ) ;
#206 = EDGE_CURVE ( 'NONE', #174, #11, #160, .T. ) ;
#207 = VECTOR ( 'NONE', #180, 1000.000000000000000 ) ;
#208 = FACE_OUTER_BOUND ( 'NONE', #47, .T. ) ;
#209 = PLANE ( 'NONE',  #135 ) ;
#210 = PLANE ( 'NONE',  #84 ) ;
#211 = VECTOR ( 'NONE', #91, 1000.000000000000000 ) ;
#212 = CC_DESIGN_PERSON_AND_ORGANIZATION_ASSIGNMENT ( #132, #45, ( #59 ) ) ;
#213 = CARTESIAN_POINT ( 'NONE',  ( -136.0000000000000000, 3.000000000000000000, -96.50000000000000000 ) ) ;
#214 = APPLICATION_CONTEXT ( 'configuration controlled 3d designs of mechanical parts and assemblies' ) ;
#215 = CC_DESIGN_PERSON_AND_ORGANIZATION_ASSIGNMENT ( #219, #131, ( #10 ) ) ;
#216 = CARTESIAN_POINT ( 'NONE',  ( 136.0000000000000000, 3.000000000000000000, -96.50000000000000000 ) ) ;
#217 = EDGE_CURVE ( 'NONE', #157, #121, #122, .T. ) ;
#218 = CARTESIAN_POINT ( 'NONE',  ( 136.0000000000000000, 0.000000000000000000, -96.50000000000000000 ) ) ;
#219 = PERSON_AND_ORGANIZATION ( #43, #51 ) ;
#220 = PERSON_AND_ORGANIZATION ( #43, #51 ) ;
#221 = PERSON_AND_ORGANIZATION_ROLE ( 'design_supplier' ) ;
#222 = APPROVAL_ROLE ( '' ) ;
#223 = VECTOR ( 'NONE', #173, 1000.000000000000000 ) ;
#224 = LOCAL_TIME ( 17, 21, 55.00000000000000000, #113 ) ;
#225 = ORIENTED_EDGE ( 'NONE', *, *, #179, .T. ) ;
#226 = CARTESIAN_POINT ( 'NONE',  ( -136.0000000000000000, 3.000000000000000000, 96.50000000000000000 ) ) ;
#227 = DESIGN_CONTEXT ( 'detailed design', #214, 'design' ) ;
#228 = ORIENTED_EDGE ( 'NONE', *, *, #27, .F. ) ;
#229 = ORIENTED_EDGE ( 'NONE', *, *, #144, .T. ) ;
#230 = ADVANCED_FACE ( 'NONE', ( #33 ), #92, .T. ) ;
#231 = ORIENTED_EDGE ( 'NONE', *, *, #162, .F. ) ;
#232 = CARTESIAN_POINT ( 'NONE',  ( 136.0000000000000000, 3.000000000000000000, 96.50000000000000000 ) ) ;
#233 = LINE ( 'NONE', #232, #54 ) ;
#234 = LINE ( 'NONE', #110, #39 ) ;
#235 = LINE ( 'NONE', #53, #68 ) ;
#236 = EDGE_CURVE ( 'NONE', #115, #13, #106, .T. ) ;
#237 = CARTESIAN_POINT ( 'NONE',  ( -136.0000000000000000, 3.000000000000000000, -96.50000000000000000 ) ) ;
ENDSEC;
END-ISO-10303-21;
