ISO-10303-21;
HEADER;
FILE_DESCRIPTION (( 'STEP AP203' ),
    '1' );
FILE_NAME ('FN-ZON-001_cn3791-reserved-zone_R0.3.STEP',
    '2026-07-26T09:22:12',
    ( '' ),
    ( '' ),
    'SwSTEP 2.0',
    'SolidWorks 2022',
    '' );
FILE_SCHEMA (( 'CONFIG_CONTROL_DESIGN' ));
ENDSEC;

DATA;
#1 = DATE_AND_TIME ( #167, #91 ) ;
#2 = CC_DESIGN_SECURITY_CLASSIFICATION ( #120, ( #50 ) ) ;
#3 = AXIS2_PLACEMENT_3D ( 'NONE', #142, #159, #99 ) ;
#4 = CC_DESIGN_APPROVAL ( #19, ( #120 ) ) ;
#5 = PERSON_AND_ORGANIZATION ( #109, #170 ) ;
#6 = PRODUCT_DEFINITION ( '未知', '', #50, #139 ) ;
#7 = ORIENTED_EDGE ( 'NONE', *, *, #193, .T. ) ;
#8 = VERTEX_POINT ( 'NONE', #152 ) ;
#9 = APPLICATION_CONTEXT ( 'configuration controlled 3d designs of mechanical parts and assemblies' ) ;
#10 = VERTEX_POINT ( 'NONE', #75 ) ;
#11 = ORIENTED_EDGE ( 'NONE', *, *, #80, .T. ) ;
#12 = EDGE_CURVE ( 'NONE', #231, #195, #63, .T. ) ;
#13 = PRODUCT_DEFINITION_SHAPE ( 'NONE', 'NONE',  #6 ) ;
#14 = DIRECTION ( 'NONE',  ( 1.000000000000000000, 0.000000000000000000, 0.000000000000000000 ) ) ;
#15 = PLANE ( 'NONE',  #232 ) ;
#16 = FACE_OUTER_BOUND ( 'NONE', #30, .T. ) ;
#17 = LINE ( 'NONE', #138, #143 ) ;
#18 = APPLICATION_PROTOCOL_DEFINITION ( 'international standard', 'config_control_design', 1994, #9 ) ;
#19 = APPROVAL ( #71, '未指定' ) ;
#20 = COORDINATED_UNIVERSAL_TIME_OFFSET ( 8, 0, .AHEAD. ) ;
#21 = DATE_AND_TIME ( #166, #148 ) ;
#22 = EDGE_CURVE ( 'NONE', #26, #231, #215, .T. ) ;
#23 = SHAPE_DEFINITION_REPRESENTATION ( #13, #214 ) ;
#24 = APPROVAL_STATUS ( 'not_yet_approved' ) ;
#25 = PERSON_AND_ORGANIZATION ( #109, #170 ) ;
#26 = VERTEX_POINT ( 'NONE', #95 ) ;
#27 = DIRECTION ( 'NONE',  ( 0.000000000000000000, -1.000000000000000000, 0.000000000000000000 ) ) ;
#28 = DIRECTION ( 'NONE',  ( 0.000000000000000000, 0.000000000000000000, 1.000000000000000000 ) ) ;
#29 = EDGE_LOOP ( 'NONE', ( #233, #38, #178, #154 ) ) ;
#30 = EDGE_LOOP ( 'NONE', ( #208, #93, #173, #190 ) ) ;
#31 = VECTOR ( 'NONE', #115, 1000.000000000000000 ) ;
#32 = CARTESIAN_POINT ( 'NONE',  ( -30.00000000000000000, 1.000000000000000000, 17.50000000000000000 ) ) ;
#33 = LINE ( 'NONE', #32, #165 ) ;
#34 = FACE_OUTER_BOUND ( 'NONE', #192, .T. ) ;
#35 = DIRECTION ( 'NONE',  ( 0.000000000000000000, 0.000000000000000000, -1.000000000000000000 ) ) ;
#36 = DATE_AND_TIME ( #205, #100 ) ;
#37 = APPLICATION_PROTOCOL_DEFINITION ( 'international standard', 'config_control_design', 1994, #106 ) ;
#38 = ORIENTED_EDGE ( 'NONE', *, *, #126, .F. ) ;
#39 = ORIENTED_EDGE ( 'NONE', *, *, #82, .F. ) ;
#40 = ADVANCED_FACE ( 'NONE', ( #130 ), #209, .F. ) ;
#41 = LOCAL_TIME ( 17, 22, 12.00000000000000000, #127 ) ;
#42 = AXIS2_PLACEMENT_3D ( 'NONE', #135, #213, #28 ) ;
#43 = CARTESIAN_POINT ( 'NONE',  ( -30.00000000000000000, 0.000000000000000000, 17.50000000000000000 ) ) ;
#44 = FACE_OUTER_BOUND ( 'NONE', #76, .T. ) ;
#45 = CC_DESIGN_PERSON_AND_ORGANIZATION_ASSIGNMENT ( #123, #187, ( #176 ) ) ;
#46 = LINE ( 'NONE', #113, #48 ) ;
#47 = CARTESIAN_POINT ( 'NONE',  ( -30.00000000000000000, 0.000000000000000000, -17.50000000000000000 ) ) ;
#48 = VECTOR ( 'NONE', #14, 1000.000000000000000 ) ;
#49 = CARTESIAN_POINT ( 'NONE',  ( 30.00000000000000000, 1.000000000000000000, -17.50000000000000000 ) ) ;
#50 = PRODUCT_DEFINITION_FORMATION_WITH_SPECIFIED_SOURCE ( '任何', '', #176, .NOT_KNOWN. ) ;
#51 = DIRECTION ( 'NONE',  ( 0.000000000000000000, -1.000000000000000000, 0.000000000000000000 ) ) ;
#52 = DIRECTION ( 'NONE',  ( 1.000000000000000000, -0.000000000000000000, 0.000000000000000000 ) ) ;
#53 = APPROVAL_ROLE ( '' ) ;
#54 = CC_DESIGN_DATE_AND_TIME_ASSIGNMENT ( #145, #206, ( #120 ) ) ;
#55 = SECURITY_CLASSIFICATION_LEVEL ( 'unclassified' ) ;
#56 = VECTOR ( 'NONE', #153, 1000.000000000000000 ) ;
#57 = DIRECTION ( 'NONE',  ( 1.000000000000000000, 0.000000000000000000, 0.000000000000000000 ) ) ;
#58 = MECHANICAL_CONTEXT ( 'NONE', #9, 'mechanical' ) ;
#59 = CARTESIAN_POINT ( 'NONE',  ( -30.00000000000000000, 1.000000000000000000, -17.50000000000000000 ) ) ;
#60 = ORIENTED_EDGE ( 'NONE', *, *, #80, .F. ) ;
#61 = ORIENTED_EDGE ( 'NONE', *, *, #12, .F. ) ;
#62 = CC_DESIGN_APPROVAL ( #141, ( #50 ) ) ;
#63 = LINE ( 'NONE', #226, #56 ) ;
#64 = CC_DESIGN_PERSON_AND_ORGANIZATION_ASSIGNMENT ( #25, #237, ( #120 ) ) ;
#65 = VERTEX_POINT ( 'NONE', #43 ) ;
#66 = DIRECTION ( 'NONE',  ( -0.000000000000000000, -1.000000000000000000, -0.000000000000000000 ) ) ;
#67 = CARTESIAN_POINT ( 'NONE',  ( -30.00000000000000000, 0.000000000000000000, -17.50000000000000000 ) ) ;
#68 = LINE ( 'NONE', #47, #199 ) ;
#69 = CC_DESIGN_PERSON_AND_ORGANIZATION_ASSIGNMENT ( #5, #168, ( #50 ) ) ;
#70 = CALENDAR_DATE ( 2026, 26, 7 ) ;
#71 = APPROVAL_STATUS ( 'not_yet_approved' ) ;
#72 = ADVANCED_FACE ( 'NONE', ( #44 ), #111, .T. ) ;
#73 =( GEOMETRIC_REPRESENTATION_CONTEXT ( 3 ) GLOBAL_UNCERTAINTY_ASSIGNED_CONTEXT ( ( #177 ) ) GLOBAL_UNIT_ASSIGNED_CONTEXT ( ( #119, #219, #198 ) ) REPRESENTATION_CONTEXT ( 'NONE', 'WORKASPACE' ) );
#74 = VERTEX_POINT ( 'NONE', #131 ) ;
#75 = CARTESIAN_POINT ( 'NONE',  ( 30.00000000000000000, 0.000000000000000000, -17.50000000000000000 ) ) ;
#76 = EDGE_LOOP ( 'NONE', ( #39, #191, #179, #60 ) ) ;
#77 = ORIENTED_EDGE ( 'NONE', *, *, #174, .F. ) ;
#78 = LINE ( 'NONE', #157, #31 ) ;
#79 = LINE ( 'NONE', #161, #189 ) ;
#80 = EDGE_CURVE ( 'NONE', #65, #74, #46, .T. ) ;
#81 = VECTOR ( 'NONE', #227, 1000.000000000000000 ) ;
#82 = EDGE_CURVE ( 'NONE', #228, #65, #78, .T. ) ;
#83 = DIRECTION ( 'NONE',  ( 0.000000000000000000, 0.000000000000000000, -1.000000000000000000 ) ) ;
#84 = CARTESIAN_POINT ( 'NONE',  ( -30.00000000000000000, 1.000000000000000000, -17.50000000000000000 ) ) ;
#85 = PERSON_AND_ORGANIZATION ( #109, #170 ) ;
#86 = PERSON_AND_ORGANIZATION ( #109, #170 ) ;
#87 = MANIFOLD_SOLID_BREP ( '凸台-拉伸1', #160 ) ;
#88 = ORIENTED_EDGE ( 'NONE', *, *, #224, .T. ) ;
#89 = APPROVAL_DATE_TIME ( #21, #141 ) ;
#90 = CARTESIAN_POINT ( 'NONE',  ( 0.000000000000000000, 0.000000000000000000, 0.000000000000000000 ) ) ;
#91 = LOCAL_TIME ( 17, 22, 12.00000000000000000, #149 ) ;
#92 = CALENDAR_DATE ( 2026, 26, 7 ) ;
#93 = ORIENTED_EDGE ( 'NONE', *, *, #107, .F. ) ;
#94 = DIRECTION ( 'NONE',  ( 0.000000000000000000, -0.000000000000000000, -1.000000000000000000 ) ) ;
#95 = CARTESIAN_POINT ( 'NONE',  ( 30.00000000000000000, 1.000000000000000000, -17.50000000000000000 ) ) ;
#96 = ORIENTED_EDGE ( 'NONE', *, *, #82, .T. ) ;
#97 = ORIENTED_EDGE ( 'NONE', *, *, #12, .T. ) ;
#98 = PLANE ( 'NONE',  #132 ) ;
#99 = DIRECTION ( 'NONE',  ( 1.000000000000000000, 0.000000000000000000, -0.000000000000000000 ) ) ;
#100 = LOCAL_TIME ( 17, 22, 12.00000000000000000, #223 ) ;
#101 = VECTOR ( 'NONE', #137, 1000.000000000000000 ) ;
#102 = PLANE ( 'NONE',  #3 ) ;
#103 = CC_DESIGN_PERSON_AND_ORGANIZATION_ASSIGNMENT ( #207, #172, ( #50 ) ) ;
#104 = APPROVAL_ROLE ( '' ) ;
#105 = DATE_AND_TIME ( #92, #41 ) ;
#106 = APPLICATION_CONTEXT ( 'configuration controlled 3d designs of mechanical parts and assemblies' ) ;
#107 = EDGE_CURVE ( 'NONE', #231, #228, #79, .T. ) ;
#108 = DIRECTION ( 'NONE',  ( 0.000000000000000000, 0.000000000000000000, 1.000000000000000000 ) ) ;
#109 = PERSON ( '未指定', '未指定', '未指定', ('未指定'), ('未指定'), ('未指定') ) ;
#110 = CC_DESIGN_PERSON_AND_ORGANIZATION_ASSIGNMENT ( #204, #150, ( #6 ) ) ;
#111 = PLANE ( 'NONE',  #184 ) ;
#112 = ORIENTED_EDGE ( 'NONE', *, *, #193, .F. ) ;
#113 = CARTESIAN_POINT ( 'NONE',  ( -30.00000000000000000, 0.000000000000000000, 17.50000000000000000 ) ) ;
#114 = CARTESIAN_POINT ( 'NONE',  ( 0.000000000000000000, 0.000000000000000000, 0.000000000000000000 ) ) ;
#115 = DIRECTION ( 'NONE',  ( -0.000000000000000000, -0.000000000000000000, 1.000000000000000000 ) ) ;
#116 = CARTESIAN_POINT ( 'NONE',  ( -30.00000000000000000, 1.000000000000000000, 17.50000000000000000 ) ) ;
#117 = LINE ( 'NONE', #144, #169 ) ;
#118 = DIRECTION ( 'NONE',  ( -0.000000000000000000, -1.000000000000000000, -0.000000000000000000 ) ) ;
#119 =( LENGTH_UNIT ( ) NAMED_UNIT ( * ) SI_UNIT ( .MILLI., .METRE. ) );
#120 = SECURITY_CLASSIFICATION ( '', '', #55 ) ;
#121 = LINE ( 'NONE', #49, #101 ) ;
#122 = APPROVAL_DATE_TIME ( #36, #19 ) ;
#123 = PERSON_AND_ORGANIZATION ( #109, #170 ) ;
#124 = CC_DESIGN_DATE_AND_TIME_ASSIGNMENT ( #1, #125, ( #6 ) ) ;
#125 = DATE_TIME_ROLE ( 'creation_date' ) ;
#126 = EDGE_CURVE ( 'NONE', #26, #10, #121, .T. ) ;
#127 = COORDINATED_UNIVERSAL_TIME_OFFSET ( 8, 0, .AHEAD. ) ;
#128 = VECTOR ( 'NONE', #183, 1000.000000000000000 ) ;
#129 = ORIENTED_EDGE ( 'NONE', *, *, #22, .T. ) ;
#130 = FACE_OUTER_BOUND ( 'NONE', #29, .T. ) ;
#131 = CARTESIAN_POINT ( 'NONE',  ( 30.00000000000000000, 0.000000000000000000, 17.50000000000000000 ) ) ;
#132 = AXIS2_PLACEMENT_3D ( 'NONE', #116, #35, #182 ) ;
#133 = EDGE_CURVE ( 'NONE', #74, #10, #216, .T. ) ;
#134 = APPROVAL_PERSON_ORGANIZATION ( #86, #19, #53 ) ;
#135 = CARTESIAN_POINT ( 'NONE',  ( 30.00000000000000000, 1.000000000000000000, 17.50000000000000000 ) ) ;
#136 = ORIENTED_EDGE ( 'NONE', *, *, #107, .T. ) ;
#137 = DIRECTION ( 'NONE',  ( -0.000000000000000000, -1.000000000000000000, -0.000000000000000000 ) ) ;
#138 = CARTESIAN_POINT ( 'NONE',  ( 30.00000000000000000, 1.000000000000000000, 17.50000000000000000 ) ) ;
#139 = DESIGN_CONTEXT ( 'detailed design', #106, 'design' ) ;
#140 = PLANE ( 'NONE',  #180 ) ;
#141 = APPROVAL ( #185, '未指定' ) ;
#142 = CARTESIAN_POINT ( 'NONE',  ( -30.00000000000000000, 1.000000000000000000, -17.50000000000000000 ) ) ;
#143 = VECTOR ( 'NONE', #201, 1000.000000000000000 ) ;
#144 = CARTESIAN_POINT ( 'NONE',  ( 30.00000000000000000, 1.000000000000000000, 17.50000000000000000 ) ) ;
#145 = DATE_AND_TIME ( #70, #156 ) ;
#146 = PERSON_AND_ORGANIZATION ( #109, #170 ) ;
#147 = ADVANCED_FACE ( 'NONE', ( #16 ), #102, .F. ) ;
#148 = LOCAL_TIME ( 17, 22, 12.00000000000000000, #225 ) ;
#149 = COORDINATED_UNIVERSAL_TIME_OFFSET ( 8, 0, .AHEAD. ) ;
#150 = PERSON_AND_ORGANIZATION_ROLE ( 'creator' ) ;
#151 = EDGE_CURVE ( 'NONE', #8, #26, #17, .T. ) ;
#152 = CARTESIAN_POINT ( 'NONE',  ( 30.00000000000000000, 1.000000000000000000, 17.50000000000000000 ) ) ;
#153 = DIRECTION ( 'NONE',  ( -0.000000000000000000, -0.000000000000000000, 1.000000000000000000 ) ) ;
#154 = ORIENTED_EDGE ( 'NONE', *, *, #174, .T. ) ;
#155 = ORIENTED_EDGE ( 'NONE', *, *, #151, .T. ) ;
#156 = LOCAL_TIME ( 17, 22, 12.00000000000000000, #20 ) ;
#157 = CARTESIAN_POINT ( 'NONE',  ( -30.00000000000000000, 0.000000000000000000, 17.50000000000000000 ) ) ;
#158 = CARTESIAN_POINT ( 'NONE',  ( 0.000000000000000000, 1.000000000000000000, 0.000000000000000000 ) ) ;
#159 = DIRECTION ( 'NONE',  ( 0.000000000000000000, 0.000000000000000000, 1.000000000000000000 ) ) ;
#160 = CLOSED_SHELL ( 'NONE', ( #163, #171, #40, #147, #234, #72 ) ) ;
#161 = CARTESIAN_POINT ( 'NONE',  ( -30.00000000000000000, 1.000000000000000000, -17.50000000000000000 ) ) ;
#162 = FACE_OUTER_BOUND ( 'NONE', #175, .T. ) ;
#163 = ADVANCED_FACE ( 'NONE', ( #222 ), #140, .F. ) ;
#164 = DIRECTION ( 'NONE',  ( 0.000000000000000000, -0.000000000000000000, -1.000000000000000000 ) ) ;
#165 = VECTOR ( 'NONE', #220, 1000.000000000000000 ) ;
#166 = CALENDAR_DATE ( 2026, 26, 7 ) ;
#167 = CALENDAR_DATE ( 2026, 26, 7 ) ;
#168 = PERSON_AND_ORGANIZATION_ROLE ( 'creator' ) ;
#169 = VECTOR ( 'NONE', #118, 1000.000000000000000 ) ;
#170 = ORGANIZATION ( '未指定', '未指定', '' ) ;
#171 = ADVANCED_FACE ( 'NONE', ( #162 ), #98, .F. ) ;
#172 = PERSON_AND_ORGANIZATION_ROLE ( 'design_supplier' ) ;
#173 = ORIENTED_EDGE ( 'NONE', *, *, #22, .F. ) ;
#174 = EDGE_CURVE ( 'NONE', #8, #74, #117, .T. ) ;
#175 = EDGE_LOOP ( 'NONE', ( #11, #77, #211, #7 ) ) ;
#176 = PRODUCT ( 'FN-ZON-001_cn3791-reserved-zone_R0.3', 'FN-ZON-001_cn3791-reserved-zone_R0.3', '', ( #58 ) ) ;
#177 = UNCERTAINTY_MEASURE_WITH_UNIT (LENGTH_MEASURE( 1.000000000000000082E-05 ), #119, 'distance_accuracy_value', 'NONE');
#178 = ORIENTED_EDGE ( 'NONE', *, *, #151, .F. ) ;
#179 = ORIENTED_EDGE ( 'NONE', *, *, #133, .F. ) ;
#180 = AXIS2_PLACEMENT_3D ( 'NONE', #235, #52, #83 ) ;
#181 = CARTESIAN_POINT ( 'NONE',  ( -30.00000000000000000, 1.000000000000000000, 17.50000000000000000 ) ) ;
#182 = DIRECTION ( 'NONE',  ( -1.000000000000000000, 0.000000000000000000, -0.000000000000000000 ) ) ;
#183 = DIRECTION ( 'NONE',  ( -0.000000000000000000, -1.000000000000000000, -0.000000000000000000 ) ) ;
#184 = AXIS2_PLACEMENT_3D ( 'NONE', #114, #27, #94 ) ;
#185 = APPROVAL_STATUS ( 'not_yet_approved' ) ;
#186 = APPROVAL_DATE_TIME ( #105, #203 ) ;
#187 = PERSON_AND_ORGANIZATION_ROLE ( 'design_owner' ) ;
#188 = APPROVAL_ROLE ( '' ) ;
#189 = VECTOR ( 'NONE', #66, 1000.000000000000000 ) ;
#190 = ORIENTED_EDGE ( 'NONE', *, *, #126, .T. ) ;
#191 = ORIENTED_EDGE ( 'NONE', *, *, #218, .F. ) ;
#192 = EDGE_LOOP ( 'NONE', ( #97, #88, #155, #129 ) ) ;
#193 = EDGE_CURVE ( 'NONE', #195, #65, #197, .T. ) ;
#194 = EDGE_LOOP ( 'NONE', ( #96, #112, #61, #136 ) ) ;
#195 = VERTEX_POINT ( 'NONE', #181 ) ;
#196 = DIRECTION ( 'NONE',  ( -1.000000000000000000, -0.000000000000000000, -0.000000000000000000 ) ) ;
#197 = LINE ( 'NONE', #236, #128 ) ;
#198 =( NAMED_UNIT ( * ) SI_UNIT ( $, .STERADIAN. ) SOLID_ANGLE_UNIT ( ) );
#199 = VECTOR ( 'NONE', #196, 1000.000000000000000 ) ;
#200 = APPROVAL_PERSON_ORGANIZATION ( #85, #141, #104 ) ;
#201 = DIRECTION ( 'NONE',  ( 0.000000000000000000, 0.000000000000000000, -1.000000000000000000 ) ) ;
#202 = CARTESIAN_POINT ( 'NONE',  ( 30.00000000000000000, 0.000000000000000000, 17.50000000000000000 ) ) ;
#203 = APPROVAL ( #24, '未指定' ) ;
#204 = PERSON_AND_ORGANIZATION ( #109, #170 ) ;
#205 = CALENDAR_DATE ( 2026, 26, 7 ) ;
#206 = DATE_TIME_ROLE ( 'classification_date' ) ;
#207 = PERSON_AND_ORGANIZATION ( #109, #170 ) ;
#208 = ORIENTED_EDGE ( 'NONE', *, *, #218, .T. ) ;
#209 = PLANE ( 'NONE',  #42 ) ;
#210 = APPROVAL_PERSON_ORGANIZATION ( #146, #203, #188 ) ;
#211 = ORIENTED_EDGE ( 'NONE', *, *, #224, .F. ) ;
#212 = CC_DESIGN_APPROVAL ( #203, ( #6 ) ) ;
#213 = DIRECTION ( 'NONE',  ( -1.000000000000000000, 0.000000000000000000, 0.000000000000000000 ) ) ;
#214 = ADVANCED_BREP_SHAPE_REPRESENTATION ( 'FN-ZON-001_cn3791-reserved-zone_R0.3', ( #87, #230 ), #73 ) ;
#215 = LINE ( 'NONE', #59, #81 ) ;
#216 = LINE ( 'NONE', #202, #221 ) ;
#217 = DIRECTION ( 'NONE',  ( 0.000000000000000000, 0.000000000000000000, -1.000000000000000000 ) ) ;
#218 = EDGE_CURVE ( 'NONE', #10, #228, #68, .T. ) ;
#219 =( NAMED_UNIT ( * ) PLANE_ANGLE_UNIT ( ) SI_UNIT ( $, .RADIAN. ) );
#220 = DIRECTION ( 'NONE',  ( 1.000000000000000000, 0.000000000000000000, 0.000000000000000000 ) ) ;
#221 = VECTOR ( 'NONE', #217, 1000.000000000000000 ) ;
#222 = FACE_OUTER_BOUND ( 'NONE', #194, .T. ) ;
#223 = COORDINATED_UNIVERSAL_TIME_OFFSET ( 8, 0, .AHEAD. ) ;
#224 = EDGE_CURVE ( 'NONE', #195, #8, #33, .T. ) ;
#225 = COORDINATED_UNIVERSAL_TIME_OFFSET ( 8, 0, .AHEAD. ) ;
#226 = CARTESIAN_POINT ( 'NONE',  ( -30.00000000000000000, 1.000000000000000000, 17.50000000000000000 ) ) ;
#227 = DIRECTION ( 'NONE',  ( -1.000000000000000000, -0.000000000000000000, -0.000000000000000000 ) ) ;
#228 = VERTEX_POINT ( 'NONE', #67 ) ;
#229 = PRODUCT_RELATED_PRODUCT_CATEGORY ( 'detail', '', ( #176 ) ) ;
#230 = AXIS2_PLACEMENT_3D ( 'NONE', #90, #108, #57 ) ;
#231 = VERTEX_POINT ( 'NONE', #84 ) ;
#232 = AXIS2_PLACEMENT_3D ( 'NONE', #158, #51, #164 ) ;
#233 = ORIENTED_EDGE ( 'NONE', *, *, #133, .T. ) ;
#234 = ADVANCED_FACE ( 'NONE', ( #34 ), #15, .F. ) ;
#235 = CARTESIAN_POINT ( 'NONE',  ( -30.00000000000000000, 1.000000000000000000, 17.50000000000000000 ) ) ;
#236 = CARTESIAN_POINT ( 'NONE',  ( -30.00000000000000000, 1.000000000000000000, 17.50000000000000000 ) ) ;
#237 = PERSON_AND_ORGANIZATION_ROLE ( 'classification_officer' ) ;
ENDSEC;
END-ISO-10303-21;
